<svg width="16" height="16" viewBox="0 0 16 16" fill="none" xmlns="http://www.w3.org/2000/svg">
<path fill-rule="evenodd" clip-rule="evenodd" d="M16 5.943V11C16 11.552 15.552 12 15 12C13.896 12 13 12.896 13 14C13 14.552 12.552 15 12 15C12 15 6.101 15 2.943 15C2.162 15 1.414 14.69 0.862 14.138C0.31 13.586 0 12.838 0 12.057C0 9.823 0 6.177 0 3.943C0 3.162 0.31 2.414 0.862 1.862C1.414 1.31 2.162 1 2.943 1C3.727 1 4.587 1 5.195 1C5.976 1 6.724 1.31 7.276 1.862L8.138 2.724C8.315 2.901 8.555 3 8.805 3H13.057C14.683 3 16 4.317 16 5.943ZM16 14C16 14.552 15.552 15 15 15C14.448 15 14 14.552 14 14C14 13.448 14.448 13 15 13C15.552 13 16 13.448 16 14Z" fill="url(#paint0_linear_63_1010)"/>
<path fill-rule="evenodd" clip-rule="evenodd" d="M6.39737 11.0493C6.7443 11.053 7.08861 10.9878 7.41017 10.8574C7.73179 10.7272 8.02442 10.5344 8.27103 10.2904C8.51769 10.0463 8.71344 9.75576 8.84707 9.43548C8.9807 9.11526 9.04952 8.77172 9.04952 8.42472C9.04952 8.07773 8.9807 7.73419 8.84707 7.41397C8.71344 7.09369 8.51769 6.80316 8.27103 6.55909C8.02442 6.31499 7.73179 6.12225 7.41017 5.99197C7.08861 5.8617 6.7443 5.79649 6.39737 5.80013C5.70602 5.80734 5.04546 6.08705 4.55915 6.57848C4.07282 7.06989 3.80005 7.73337 3.80005 8.42472C3.80005 9.11608 4.07282 9.77956 4.55915 10.271C5.04546 10.7624 5.70602 11.0421 6.39737 11.0493ZM8.96542 10.4662C8.8329 10.4662 8.7058 10.5187 8.61207 10.6124C8.51869 10.7061 8.46625 10.833 8.46625 10.9654C8.46625 11.0979 8.51886 11.2251 8.61259 11.3189L9.94503 12.6534C10.0389 12.7473 10.1662 12.8 10.2989 12.8C10.4317 12.8 10.5589 12.7473 10.6528 12.6534C10.7466 12.5596 10.7993 12.4323 10.7993 12.2995C10.7993 12.1668 10.7466 12.0395 10.6528 11.9457L9.31894 10.6125C9.22515 10.5188 9.09799 10.4662 8.96542 10.4662Z" fill="#279FD7"/>
<path fill-rule="evenodd" clip-rule="evenodd" d="M7.39737 10.0493C7.7443 10.053 8.08861 9.98775 8.41017 9.85745C8.73179 9.7272 9.02442 9.53443 9.27103 9.29039C9.51769 9.04629 9.71344 8.75576 9.84707 8.43548C9.9807 8.11526 10.0495 7.77172 10.0495 7.42472C10.0495 7.07773 9.9807 6.73419 9.84707 6.41397C9.71344 6.09369 9.51769 5.80316 9.27103 5.55909C9.02442 5.31499 8.73179 5.12225 8.41017 4.99197C8.08861 4.8617 7.7443 4.79649 7.39737 4.80013C6.70602 4.80734 6.04546 5.08705 5.55915 5.57848C5.07282 6.06989 4.80005 6.73337 4.80005 7.42472C4.80005 8.11608 5.07282 8.77956 5.55915 9.27096C6.04546 9.76237 6.70602 10.0421 7.39737 10.0493ZM9.96542 9.46619C9.8329 9.46619 9.7058 9.51874 9.61207 9.61236C9.51869 9.70609 9.46625 9.83301 9.46625 9.96535C9.46625 10.0979 9.51886 10.2251 9.61259 10.3189L10.945 11.6534C11.0389 11.7473 11.1662 11.8 11.2989 11.8C11.4317 11.8 11.5589 11.7473 11.6528 11.6534C11.7466 11.5596 11.7993 11.4323 11.7993 11.2995C11.7993 11.1668 11.7466 11.0395 11.6528 10.9457L10.3189 9.61253C10.2251 9.5188 10.098 9.46619 9.96542 9.46619Z" fill="url(#paint1_linear_63_1010)"/>
<defs>
<linearGradient id="paint0_linear_63_1010" x1="1.6" y1="15.0044" x2="7.08732" y2="1.07902" gradientUnits="userSpaceOnUse">
<stop offset="0.0605141" stop-color="#1CB5FF"/>
<stop offset="0.891783" stop-color="#80DDFF"/>
</linearGradient>
<linearGradient id="paint1_linear_63_1010" x1="4.80005" y1="11.8" x2="13.0346" y2="9.74155" gradientUnits="userSpaceOnUse">
<stop stop-color="#6BD6FE"/>
<stop offset="1" stop-color="white"/>
</linearGradient>
</defs>
</svg>
