<svg width="16" height="16" viewBox="0 0 16 16" fill="none" xmlns="http://www.w3.org/2000/svg">
<path fill-rule="evenodd" clip-rule="evenodd" d="M16 5.943V11C16 11.552 15.552 12 15 12C13.896 12 13 12.896 13 14C13 14.552 12.552 15 12 15C12 15 6.101 15 2.943 15C2.162 15 1.414 14.69 0.862 14.138C0.31 13.586 0 12.838 0 12.057C0 9.823 0 6.177 0 3.943C0 3.162 0.31 2.414 0.862 1.862C1.414 1.31 2.162 1 2.943 1C3.727 1 4.587 1 5.195 1C5.976 1 6.724 1.31 7.276 1.862L8.138 2.724C8.315 2.901 8.555 3 8.805 3H13.057C14.683 3 16 4.317 16 5.943ZM16 14C16 14.552 15.552 15 15 15C14.448 15 14 14.552 14 14C14 13.448 14.448 13 15 13C15.552 13 16 13.448 16 14Z" fill="url(#paint0_linear_63_1089)"/>
<path fill-rule="evenodd" clip-rule="evenodd" d="M5.09089 7.70908C5.09089 6.64358 5.97171 5.79999 7.04545 5.79999C8.00705 5.79999 8.8125 6.47517 8.97172 7.38262C9.03854 7.76355 8.71698 8.02726 8.40911 8.02726C8.0705 8.02726 7.84485 7.75712 7.80227 7.48673C7.76842 7.27145 7.68677 7.15901 7.58903 7.09142C7.48059 7.01646 7.30845 6.96663 7.04545 6.96663C6.74292 6.96663 6.56238 7.03218 6.45776 7.12623C6.35983 7.21424 6.27271 7.37792 6.27271 7.70908V8.8105C6.27271 8.90512 6.34939 8.98181 6.44408 8.98181H9.28322C9.72925 8.98181 10.0909 9.34339 10.0909 9.78948V11.9923C10.0909 12.4383 9.7295 12.8 9.28335 12.8H4.80767C4.36155 12.8 4 12.4383 4 11.9923V9.69771C4 9.30234 4.3205 8.98181 4.71591 8.98181H4.91958C5.0142 8.98181 5.09089 8.90512 5.09089 8.8105V7.70908Z" fill="#7FD1AE"/>
<path fill-rule="evenodd" clip-rule="evenodd" d="M6.09089 6.70908C6.09089 5.64358 6.97171 4.79999 8.04545 4.79999C9.00705 4.79999 9.8125 5.47517 9.97172 6.38262C10.0385 6.76355 9.71698 7.02726 9.40911 7.02726C9.0705 7.02726 8.84485 6.75712 8.80227 6.48673C8.76842 6.27145 8.68677 6.15901 8.58903 6.09142C8.48059 6.01646 8.30845 5.96663 8.04545 5.96663C7.74292 5.96663 7.56238 6.03218 7.45776 6.12623C7.35983 6.21424 7.27271 6.37792 7.27271 6.70908V7.8105C7.27271 7.90512 7.34939 7.98181 7.44408 7.98181H10.2832C10.7292 7.98181 11.0909 8.34339 11.0909 8.78948V10.9923C11.0909 11.4383 10.7295 11.8 10.2833 11.8H5.80767C5.36155 11.8 5 11.4383 5 10.9923V8.69771C5 8.30234 5.3205 7.98181 5.71591 7.98181H5.91958C6.0142 7.98181 6.09089 7.90512 6.09089 7.8105V6.70908Z" fill="url(#paint1_linear_63_1089)"/>
<defs>
<linearGradient id="paint0_linear_63_1089" x1="2" y1="13.2504" x2="16.7438" y2="9.36204" gradientUnits="userSpaceOnUse">
<stop stop-color="#62E8AF"/>
<stop offset="1" stop-color="#B3FBDC"/>
</linearGradient>
<linearGradient id="paint1_linear_63_1089" x1="5" y1="11.8" x2="7.3223" y2="3.71722" gradientUnits="userSpaceOnUse">
<stop stop-color="#B3FBDC"/>
<stop offset="1" stop-color="white"/>
</linearGradient>
</defs>
</svg>
