<svg width="16" height="16" viewBox="0 0 16 16" fill="none" xmlns="http://www.w3.org/2000/svg">
<path fill-rule="evenodd" clip-rule="evenodd" d="M16 5.943V11C16 11.552 15.552 12 15 12C13.896 12 13 12.896 13 14C13 14.552 12.552 15 12 15C12 15 6.101 15 2.943 15C2.162 15 1.414 14.69 0.862 14.138C0.31 13.586 0 12.838 0 12.057C0 9.823 0 6.177 0 3.943C0 3.162 0.31 2.414 0.862 1.862C1.414 1.31 2.162 1 2.943 1C3.727 1 4.587 1 5.195 1C5.976 1 6.724 1.31 7.276 1.862L8.138 2.724C8.315 2.901 8.555 3 8.805 3H13.057C14.683 3 16 4.317 16 5.943ZM16 14C16 14.552 15.552 15 15 15C14.448 15 14 14.552 14 14C14 13.448 14.448 13 15 13C15.552 13 16 13.448 16 14Z" fill="url(#paint0_linear_63_899)"/>
<path fill-rule="evenodd" clip-rule="evenodd" d="M4.80005 6.60001V9.80006C4.80005 10.1563 4.97818 10.4902 5.27472 10.6875L8.47478 12.8209C8.96545 13.1473 9.62786 13.0151 9.95427 12.5254C10.2807 12.0348 10.1484 11.3724 9.6588 11.046L6.93342 9.22939V6.60001C6.93342 6.0112 6.45554 5.53333 5.86673 5.53333C5.27792 5.53333 4.80005 6.0112 4.80005 6.60001Z" fill="#D49F34"/>
<path fill-rule="evenodd" clip-rule="evenodd" d="M5.8667 6.06668V9.26674C5.8667 9.62301 6.04484 9.95688 6.34137 10.1542L9.54143 12.2876C10.0321 12.614 10.6945 12.4817 11.0209 11.9921C11.3473 11.5014 11.2151 10.839 10.7254 10.5126L8.00007 8.69606V6.06668C8.00007 5.47787 7.52219 5 6.93338 5C6.34457 5 5.8667 5.47787 5.8667 6.06668Z" fill="url(#paint1_linear_63_899)"/>
<defs>
<linearGradient id="paint0_linear_63_899" x1="3" y1="14.124" x2="11.469" y2="2.5085" gradientUnits="userSpaceOnUse">
<stop stop-color="#FF8860"/>
<stop offset="1" stop-color="#FBD92C"/>
</linearGradient>
<linearGradient id="paint1_linear_63_899" x1="7.20002" y1="10.6" x2="10.7315" y2="8.0775" gradientUnits="userSpaceOnUse">
<stop stop-color="#FBD92C"/>
<stop offset="1" stop-color="white"/>
</linearGradient>
</defs>
</svg>
