<svg width="16" height="16" viewBox="0 0 16 16" fill="none" xmlns="http://www.w3.org/2000/svg">
<g clip-path="url(#clip0_63_806)">
<path fill-rule="evenodd" clip-rule="evenodd" d="M16 5.943V11C16 11.552 15.552 12 15 12C13.896 12 13 12.896 13 14C13 14.552 12.552 15 12 15C12 15 6.101 15 2.943 15C2.162 15 1.414 14.69 0.862 14.138C0.31 13.586 0 12.838 0 12.057C0 9.823 0 6.177 0 3.943C0 3.162 0.31 2.414 0.862 1.862C1.414 1.31 2.162 1 2.943 1C3.727 1 4.587 1 5.195 1C5.976 1 6.724 1.31 7.276 1.862L8.138 2.724C8.315 2.901 8.555 3 8.805 3H13.057C14.683 3 16 4.317 16 5.943ZM16 14C16 14.552 15.552 15 15 15C14.448 15 14 14.552 14 14C14 13.448 14.448 13 15 13C15.552 13 16 13.448 16 14Z" fill="url(#paint0_linear_63_806)"/>
<path d="M8.30247 5.48736C8.4224 5.60729 8.48978 5.76995 8.48978 5.93956C8.48978 6.5279 8.96728 7.0054 9.55562 7.0054C9.72523 7.0054 9.88789 7.07278 10.0078 7.19271C10.1278 7.31264 10.1951 7.4753 10.1951 7.64491C10.1951 7.81452 10.1278 7.97718 10.0078 8.09711C9.88789 8.21704 9.72523 8.28442 9.55562 8.28442C9.17192 8.28442 8.80953 8.19233 8.48978 8.02862V11.0556C8.48968 11.5666 8.32268 12.0636 8.01418 12.4709C7.70568 12.8782 7.27257 13.1736 6.78074 13.3122C6.28891 13.4508 5.76528 13.4249 5.28952 13.2385C4.81376 13.0521 4.4119 12.7153 4.1451 12.2796C3.87829 11.8438 3.76113 11.3328 3.81145 10.8243C3.86177 10.3158 4.0768 9.83765 4.42385 9.46261C4.77089 9.08757 5.23094 8.83615 5.73401 8.74661C6.23708 8.65707 6.75562 8.7343 7.21076 8.96656V5.93956C7.21076 5.76995 7.27814 5.60729 7.39807 5.48736C7.518 5.36743 7.68066 5.30005 7.85027 5.30005C8.01988 5.30005 8.18254 5.36743 8.30247 5.48736Z" fill="#8C4FD9"/>
<path d="M9.20249 4.58733C9.32243 4.70726 9.3898 4.86992 9.3898 5.03953C9.3898 5.62788 9.8673 6.10538 10.4556 6.10538C10.6253 6.10538 10.7879 6.17276 10.9078 6.29269C11.0278 6.41262 11.0952 6.57528 11.0952 6.74489C11.0952 6.9145 11.0278 7.07716 10.9078 7.19709C10.7879 7.31702 10.6253 7.3844 10.4556 7.3844C10.0719 7.3844 9.70956 7.29231 9.3898 7.12859V10.1556C9.38971 10.6666 9.22271 11.1635 8.91421 11.5709C8.60571 11.9782 8.1726 12.2736 7.68076 12.4122C7.18893 12.5507 6.6653 12.5248 6.18954 12.3384C5.71378 12.152 5.31193 11.8153 5.04512 11.3795C4.77831 10.9438 4.66116 10.4327 4.71147 9.92425C4.76179 9.41576 4.97683 8.93762 5.32387 8.56258C5.67091 8.18754 6.13096 7.93612 6.63403 7.84658C7.1371 7.75704 7.65565 7.83428 8.11079 8.06654V5.03953C8.11079 4.86992 8.17816 4.70726 8.29809 4.58733C8.41802 4.4674 8.58069 4.40002 8.75029 4.40002C8.9199 4.40002 9.08256 4.4674 9.20249 4.58733Z" fill="url(#paint1_linear_63_806)"/>
</g>
<defs>
<linearGradient id="paint0_linear_63_806" x1="2.5" y1="14" x2="14" y2="3.5" gradientUnits="userSpaceOnUse">
<stop stop-color="#A056FF"/>
<stop offset="0.966753" stop-color="#C59AFD"/>
</linearGradient>
<linearGradient id="paint1_linear_63_806" x1="6.29884" y1="12.5" x2="12.7781" y2="10.7949" gradientUnits="userSpaceOnUse">
<stop stop-color="#C59AFD"/>
<stop offset="1" stop-color="white"/>
</linearGradient>
<clipPath id="clip0_63_806">
<rect width="16" height="16" fill="white"/>
</clipPath>
</defs>
</svg>
