<svg width="16" height="16" viewBox="0 0 16 16" fill="none" xmlns="http://www.w3.org/2000/svg">
<path fill-rule="evenodd" clip-rule="evenodd" d="M16 5.943V11C16 11.552 15.552 12 15 12C13.896 12 13 12.896 13 14C13 14.552 12.552 15 12 15C12 15 6.101 15 2.943 15C2.162 15 1.414 14.69 0.862 14.138C0.31 13.586 0 12.838 0 12.057C0 9.823 0 6.177 0 3.943C0 3.162 0.31 2.414 0.862 1.862C1.414 1.31 2.162 1 2.943 1C3.727 1 4.587 1 5.195 1C5.976 1 6.724 1.31 7.276 1.862L8.138 2.724C8.315 2.901 8.555 3 8.805 3H13.057C14.683 3 16 4.317 16 5.943ZM16 14C16 14.552 15.552 15 15 15C14.448 15 14 14.552 14 14C14 13.448 14.448 13 15 13C15.552 13 16 13.448 16 14Z" fill="url(#paint0_linear_63_892)"/>
<path fill-rule="evenodd" clip-rule="evenodd" d="M6.91424 8.76428H11.6284C12.0621 8.76428 12.4141 8.41228 12.4141 7.97857C12.4141 7.54487 12.0621 7.19287 11.6284 7.19287H6.91424C6.48054 7.19287 6.12854 7.54487 6.12854 7.97857C6.12854 8.41228 6.48054 8.76428 6.91424 8.76428Z" fill="#279FD7"/>
<path fill-rule="evenodd" clip-rule="evenodd" d="M2.98565 8.76428H4.55706C4.99077 8.76428 5.34277 8.41228 5.34277 7.97857C5.34277 7.54487 4.99077 7.19287 4.55706 7.19287H2.98565C2.55195 7.19287 2.19995 7.54487 2.19995 7.97857C2.19995 8.41228 2.55195 8.76428 2.98565 8.76428Z" fill="#279FD7"/>
<path fill-rule="evenodd" clip-rule="evenodd" d="M7.69993 8.37139H12.4141C12.8475 8.37139 13.2 8.0194 13.2 7.58569C13.2 7.15198 12.8475 6.79999 12.4141 6.79999H7.69993C7.26656 6.79999 6.91406 7.15198 6.91406 7.58569C6.91406 8.0194 7.26656 8.37139 7.69993 8.37139Z" fill="url(#paint1_linear_63_892)"/>
<path fill-rule="evenodd" clip-rule="evenodd" d="M3.77142 8.37139H5.34283C5.77642 8.37139 6.12853 8.0194 6.12853 7.58569C6.12853 7.15198 5.77642 6.79999 5.34283 6.79999H3.77142C3.33782 6.79999 2.98572 7.15198 2.98572 7.58569C2.98572 8.0194 3.33782 8.37139 3.77142 8.37139Z" fill="url(#paint2_linear_63_892)"/>
<path fill-rule="evenodd" clip-rule="evenodd" d="M2.98565 11.1215H7.69984C8.13355 11.1215 8.48554 10.7695 8.48554 10.3358C8.48554 9.90204 8.13355 9.55005 7.69984 9.55005H2.98565C2.55195 9.55005 2.19995 9.90204 2.19995 10.3358C2.19995 10.7695 2.55195 11.1215 2.98565 11.1215Z" fill="#279FD7"/>
<path fill-rule="evenodd" clip-rule="evenodd" d="M10.0571 11.1215H11.6285C12.0622 11.1215 12.4142 10.7695 12.4142 10.3358C12.4142 9.90204 12.0622 9.55005 11.6285 9.55005H10.0571C9.62336 9.55005 9.27136 9.90204 9.27136 10.3358C9.27136 10.7695 9.62336 11.1215 10.0571 11.1215Z" fill="#279FD7"/>
<path fill-rule="evenodd" clip-rule="evenodd" d="M3.77135 10.7285H8.48553C8.9189 10.7285 9.2714 10.3765 9.2714 9.94281C9.2714 9.5091 8.9189 9.1571 8.48553 9.1571H3.77135C3.33797 9.1571 2.98547 9.5091 2.98547 9.94281C2.98547 10.3765 3.33797 10.7285 3.77135 10.7285Z" fill="url(#paint3_linear_63_892)"/>
<path fill-rule="evenodd" clip-rule="evenodd" d="M10.8427 10.7285H12.4141C12.8477 10.7285 13.1998 10.3765 13.1998 9.94281C13.1998 9.5091 12.8477 9.1571 12.4141 9.1571H10.8427C10.4091 9.1571 10.057 9.5091 10.057 9.94281C10.057 10.3765 10.4091 10.7285 10.8427 10.7285Z" fill="url(#paint4_linear_63_892)"/>
<defs>
<linearGradient id="paint0_linear_63_892" x1="1.6" y1="15.0044" x2="7.08732" y2="1.07902" gradientUnits="userSpaceOnUse">
<stop offset="0.0605141" stop-color="#1CB5FF"/>
<stop offset="0.891783" stop-color="#80DDFF"/>
</linearGradient>
<linearGradient id="paint1_linear_63_892" x1="6.91406" y1="8.37139" x2="10.8426" y2="4.44269" gradientUnits="userSpaceOnUse">
<stop stop-color="#6BD6FE"/>
<stop offset="1" stop-color="white"/>
</linearGradient>
<linearGradient id="paint2_linear_63_892" x1="2.98572" y1="8.37139" x2="6.12853" y2="6.79999" gradientUnits="userSpaceOnUse">
<stop stop-color="#6BD6FE"/>
<stop offset="1" stop-color="white"/>
</linearGradient>
<linearGradient id="paint3_linear_63_892" x1="2.98547" y1="10.7285" x2="6.91399" y2="6.79981" gradientUnits="userSpaceOnUse">
<stop stop-color="#6BD6FE"/>
<stop offset="1" stop-color="white"/>
</linearGradient>
<linearGradient id="paint4_linear_63_892" x1="10.057" y1="10.7285" x2="13.1998" y2="9.15711" gradientUnits="userSpaceOnUse">
<stop stop-color="#6BD6FE"/>
<stop offset="1" stop-color="white"/>
</linearGradient>
</defs>
</svg>
