<svg width="16" height="16" viewBox="0 0 16 16" fill="none" xmlns="http://www.w3.org/2000/svg">
<path fill-rule="evenodd" clip-rule="evenodd" d="M16 5.943V11C16 11.552 15.552 12 15 12C13.896 12 13 12.896 13 14C13 14.552 12.552 15 12 15C12 15 6.101 15 2.943 15C2.162 15 1.414 14.69 0.862 14.138C0.31 13.586 0 12.838 0 12.057C0 9.823 0 6.177 0 3.943C0 3.162 0.31 2.414 0.862 1.862C1.414 1.31 2.162 1 2.943 1C3.727 1 4.587 1 5.195 1C5.976 1 6.724 1.31 7.276 1.862L8.138 2.724C8.315 2.901 8.555 3 8.805 3H13.057C14.683 3 16 4.317 16 5.943ZM16 14C16 14.552 15.552 15 15 15C14.448 15 14 14.552 14 14C14 13.448 14.448 13 15 13C15.552 13 16 13.448 16 14Z" fill="url(#paint0_linear_63_986)"/>
<path fill-rule="evenodd" clip-rule="evenodd" d="M7.35045 9.14878H8.28065C8.57212 9.14878 8.71911 9.14878 8.81024 9.23932C8.90078 9.33052 8.90078 9.47685 8.90078 9.76898C8.90078 10.061 8.90078 10.2074 8.81024 10.2986C8.71911 10.3891 8.57277 10.3891 8.28065 10.3891H7.97058C7.67845 10.3891 7.53212 10.3891 7.44098 10.2986C7.35044 10.2074 7.35045 10.061 7.35045 9.76898V9.14878ZM7.35045 7.90845H6.42018C6.12812 7.90845 5.98175 7.90845 5.89056 7.99905C5.80005 8.09019 5.80005 8.23718 5.80005 8.52865C5.80005 8.82012 5.80005 8.96711 5.89056 9.05825C5.98175 9.14878 6.12871 9.14878 6.42018 9.14878H7.35045V7.90845ZM7.35045 6.66816V7.90845H8.28065C8.57277 7.90845 8.71911 7.90846 8.81024 7.81792C8.90078 7.72678 8.90078 7.58045 8.90078 7.28832C8.90078 6.99622 8.90078 6.84989 8.81024 6.75872C8.71911 6.66816 8.57212 6.66816 8.28065 6.66816H7.35045ZM7.35045 6.66816H6.42018C6.12871 6.66816 5.98175 6.66816 5.89056 6.57762C5.80005 6.48645 5.80005 6.34012 5.80005 6.04802V5.42971L7.35045 5.42786V6.66816ZM5.80005 12.1721V12.2496C5.80005 12.6608 5.96336 13.0551 6.25412 13.3458C6.54487 13.6367 6.93925 13.8 7.35045 13.8C7.76164 13.8 8.15596 13.6367 8.44671 13.3458C8.73747 13.0551 8.90078 12.6608 8.90078 12.2496V12.1721C8.90078 11.8725 8.65769 11.6294 8.35815 11.6294H6.34268C6.04314 11.6294 5.80005 11.8725 5.80005 12.1721Z" fill="#8CC860"/>
<path fill-rule="evenodd" clip-rule="evenodd" d="M7.97837 8.52092H8.90858C9.20005 8.52092 9.34704 8.52092 9.43817 8.61145C9.52871 8.70265 9.52871 8.84898 9.52871 9.14111C9.52871 9.43318 9.52871 9.57957 9.43817 9.67071C9.34704 9.76125 9.2007 9.76124 8.90858 9.76124H8.59851C8.30638 9.76124 8.16005 9.76125 8.06891 9.67071C7.97837 9.57957 7.97837 9.43318 7.97837 9.14111V8.52092ZM7.97837 7.28059H7.04811C6.75605 7.28059 6.60968 7.28059 6.51849 7.37118C6.42798 7.46232 6.42798 7.60931 6.42798 7.90078C6.42798 8.19225 6.42798 8.33924 6.51849 8.43038C6.60968 8.52091 6.75664 8.52092 7.04811 8.52092H7.97837V7.28059ZM7.97837 6.04029V7.28059H8.90858C9.2007 7.28059 9.34704 7.28059 9.43817 7.19005C9.52871 7.09891 9.52871 6.95258 9.52871 6.66045C9.52871 6.36835 9.52871 6.22202 9.43817 6.13086C9.34704 6.04029 9.20005 6.04029 8.90858 6.04029H7.97837ZM7.97837 6.04029H7.04811C6.75664 6.04029 6.60968 6.04029 6.51849 5.94975C6.42798 5.85858 6.42798 5.71225 6.42798 5.42015V4.80184L7.97837 4.79999V6.04029ZM6.42798 11.5442V11.6217C6.42798 12.0329 6.59129 12.4272 6.88205 12.718C7.1728 13.0088 7.56718 13.1721 7.97837 13.1721C8.38957 13.1721 8.78389 13.0088 9.07464 12.718C9.36539 12.4272 9.52871 12.0329 9.52871 11.6217V11.5442C9.52871 11.2447 9.28562 11.0016 8.98608 11.0016H6.97061C6.67107 11.0016 6.42798 11.2447 6.42798 11.5442Z" fill="url(#paint1_linear_63_986)"/>
<defs>
<linearGradient id="paint0_linear_63_986" x1="1.14286" y1="15" x2="9.89435" y2="0.452068" gradientUnits="userSpaceOnUse">
<stop stop-color="#9BE862"/>
<stop offset="1" stop-color="#C8FF9F"/>
</linearGradient>
<linearGradient id="paint1_linear_63_986" x1="6.81557" y1="13.1721" x2="11.0246" y2="11.8081" gradientUnits="userSpaceOnUse">
<stop stop-color="#C8FF9F"/>
<stop offset="1" stop-color="white"/>
</linearGradient>
</defs>
</svg>
