<svg width="16" height="16" viewBox="0 0 16 16" fill="none" xmlns="http://www.w3.org/2000/svg">
<path fill-rule="evenodd" clip-rule="evenodd" d="M16 5.943V11C16 11.552 15.552 12 15 12C13.896 12 13 12.896 13 14C13 14.552 12.552 15 12 15C12 15 6.101 15 2.943 15C2.162 15 1.414 14.69 0.862 14.138C0.31 13.586 0 12.838 0 12.057C0 9.823 0 6.177 0 3.943C0 3.162 0.31 2.414 0.862 1.862C1.414 1.31 2.162 1 2.943 1C3.727 1 4.587 1 5.195 1C5.976 1 6.724 1.31 7.276 1.862L8.138 2.724C8.315 2.901 8.555 3 8.805 3H13.057C14.683 3 16 4.317 16 5.943ZM16 14C16 14.552 15.552 15 15 15C14.448 15 14 14.552 14 14C14 13.448 14.448 13 15 13C15.552 13 16 13.448 16 14Z" fill="url(#paint0_linear_63_1024)"/>
<path fill-rule="evenodd" clip-rule="evenodd" d="M4.72515 5.98326L6.67578 8.05477L6.73287 8.11601C6.94202 8.34037 6.94153 8.68843 6.73178 8.91218L6.67596 8.97171L6.67517 8.9725L4.739 11.0526C4.51631 11.2918 4.14038 11.3012 3.90606 11.0733L3.78795 10.9584C3.56069 10.7374 3.55183 10.3752 3.76795 10.1433L4.89598 8.93288C5.11484 8.69804 5.11371 8.33368 4.89346 8.10018L3.75885 6.89758C3.54036 6.66598 3.54818 6.30188 3.77641 6.07986L3.8945 5.965C4.12787 5.73802 4.50198 5.74624 4.72515 5.98326ZM5.69934 11.8219C5.69934 11.5144 5.94869 11.265 6.25627 11.265H10.0431C10.3507 11.265 10.6 11.5144 10.6 11.8219V11.989C10.6 12.2965 10.3507 12.5458 10.0431 12.5458H6.25627C5.94869 12.5458 5.69934 12.2965 5.69934 11.989V11.8219Z" fill="#B85C68"/>
<path fill-rule="evenodd" clip-rule="evenodd" d="M5.72515 4.98326L7.67578 7.05477L7.73287 7.11601C7.94202 7.34037 7.94153 7.68843 7.73178 7.91218L7.67596 7.97171L7.67517 7.9725L5.739 10.0526C5.51631 10.2918 5.14038 10.3012 4.90606 10.0733L4.78795 9.95837C4.56069 9.73736 4.55183 9.37524 4.76795 9.14327L5.89598 7.93288C6.11484 7.69804 6.11371 7.33368 5.89346 7.10018L4.75885 5.89758C4.54036 5.66598 4.54818 5.30188 4.77641 5.07986L4.8945 4.965C5.12787 4.73802 5.50198 4.74624 5.72515 4.98326ZM6.69934 10.8219C6.69934 10.5144 6.94869 10.265 7.25627 10.265H11.0431C11.3507 10.265 11.6 10.5144 11.6 10.8219V10.989C11.6 11.2965 11.3507 11.5458 11.0431 11.5458H7.25627C6.94869 11.5458 6.69934 11.2965 6.69934 10.989V10.8219Z" fill="url(#paint1_linear_63_1024)"/>
<defs>
<linearGradient id="paint0_linear_63_1024" x1="1.14286" y1="14.1429" x2="14.8457" y2="5.69153" gradientUnits="userSpaceOnUse">
<stop stop-color="#B65592"/>
<stop offset="0.5" stop-color="#FB6F71"/>
<stop offset="1" stop-color="#F9CB52"/>
</linearGradient>
<linearGradient id="paint1_linear_63_1024" x1="5.09998" y1="11.1328" x2="11.3998" y2="7.60497" gradientUnits="userSpaceOnUse">
<stop stop-color="#D4A4C4"/>
<stop offset="0.5" stop-color="#F7B1B3"/>
<stop offset="1" stop-color="#F7E1A3"/>
</linearGradient>
</defs>
</svg>
