<svg width="16" height="16" viewBox="0 0 16 16" fill="none" xmlns="http://www.w3.org/2000/svg">
<path fill-rule="evenodd" clip-rule="evenodd" d="M16 5.943V11C16 11.552 15.552 12 15 12C13.896 12 13 12.896 13 14C13 14.552 12.552 15 12 15C12 15 6.101 15 2.943 15C2.162 15 1.414 14.69 0.862 14.138C0.31 13.586 0 12.838 0 12.057C0 9.823 0 6.177 0 3.943C0 3.162 0.31 2.414 0.862 1.862C1.414 1.31 2.162 1 2.943 1C3.727 1 4.587 1 5.195 1C5.976 1 6.724 1.31 7.276 1.862L8.138 2.724C8.315 2.901 8.555 3 8.805 3H13.057C14.683 3 16 4.317 16 5.943ZM16 14C16 14.552 15.552 15 15 15C14.448 15 14 14.552 14 14C14 13.448 14.448 13 15 13C15.552 13 16 13.448 16 14Z" fill="url(#paint0_linear_63_1078)"/>
<path opacity="0.8" fill-rule="evenodd" clip-rule="evenodd" d="M4.90774 7.68462C4.90774 6.63389 5.77656 5.79999 6.83852 5.79999C7.90047 5.79999 8.76929 6.63389 8.76929 7.68462V8.80293C8.76929 8.92875 8.87126 9.03078 8.99708 9.03078H9.11025C9.5334 9.03078 9.87698 9.37384 9.87698 9.79705V12.0337C9.87698 12.4568 9.5341 12.8 9.11083 12.8H4.56629C4.14308 12.8 3.80005 12.4569 3.80005 12.0337V9.70383C3.80005 9.33207 4.1014 9.03078 4.47313 9.03078H4.67992C4.80574 9.03078 4.90774 8.92875 4.90774 8.80293V7.68462ZM6.20577 7.05275C6.09115 7.15577 6.00003 7.33917 6.00003 7.68462V8.80293C6.00003 8.92875 6.10206 9.03078 6.22788 9.03078H7.44915C7.57497 9.03078 7.677 8.92875 7.677 8.80293V7.68462C7.677 7.33911 7.58588 7.15577 7.47126 7.05275C7.35097 6.94458 7.15206 6.87691 6.83852 6.87691C6.52497 6.87691 6.32606 6.94458 6.20577 7.05275Z" fill="#D03157"/>
<path fill-rule="evenodd" clip-rule="evenodd" d="M5.90774 6.68462C5.90774 5.63389 6.77656 4.79999 7.83852 4.79999C8.90047 4.79999 9.76929 5.63389 9.76929 6.68462V7.80293C9.76929 7.92875 9.87126 8.03078 9.99708 8.03078H10.1102C10.5334 8.03078 10.877 8.37384 10.877 8.79705V11.0337C10.877 11.4568 10.5341 11.8 10.1108 11.8H5.56629C5.14308 11.8 4.80005 11.4569 4.80005 11.0337V8.70383C4.80005 8.33207 5.1014 8.03078 5.47313 8.03078H5.67992C5.80574 8.03078 5.90774 7.92875 5.90774 7.80293V6.68462ZM7.20577 6.05275C7.09115 6.15577 7.00003 6.33917 7.00003 6.68462V7.80293C7.00003 7.92875 7.10206 8.03078 7.22788 8.03078H8.44915C8.57497 8.03078 8.677 7.92875 8.677 7.80293V6.68462C8.677 6.33911 8.58588 6.15577 8.47126 6.05275C8.35097 5.94458 8.15206 5.87691 7.83852 5.87691C7.52497 5.87691 7.32606 5.94458 7.20577 6.05275Z" fill="url(#paint1_linear_63_1078)"/>
<path fill-rule="evenodd" clip-rule="evenodd" d="M5.90774 6.68462C5.90774 5.63389 6.77656 4.79999 7.83852 4.79999C8.90047 4.79999 9.76929 5.63389 9.76929 6.68462V7.80293C9.76929 7.92875 9.87126 8.03078 9.99708 8.03078H10.1102C10.5334 8.03078 10.877 8.37384 10.877 8.79705V11.0337C10.877 11.4568 10.5341 11.8 10.1108 11.8H5.56629C5.14308 11.8 4.80005 11.4569 4.80005 11.0337V8.70383C4.80005 8.33207 5.1014 8.03078 5.47313 8.03078H5.67992C5.80574 8.03078 5.90774 7.92875 5.90774 7.80293V6.68462ZM7.20577 6.05275C7.09115 6.15577 7.00003 6.33917 7.00003 6.68462V7.80293C7.00003 7.92875 7.10206 8.03078 7.22788 8.03078H8.44915C8.57497 8.03078 8.677 7.92875 8.677 7.80293V6.68462C8.677 6.33911 8.58588 6.15577 8.47126 6.05275C8.35097 5.94458 8.15206 5.87691 7.83852 5.87691C7.52497 5.87691 7.32606 5.94458 7.20577 6.05275Z" fill="url(#paint2_linear_63_1078)"/>
<defs>
<linearGradient id="paint0_linear_63_1078" x1="13" y1="4.5" x2="2.39551" y2="14.9202" gradientUnits="userSpaceOnUse">
<stop stop-color="#FE7970"/>
<stop offset="1" stop-color="#DC3282"/>
</linearGradient>
<linearGradient id="paint1_linear_63_1078" x1="13.7003" y1="3.01535" x2="9.98046" y2="14.0693" gradientUnits="userSpaceOnUse">
<stop stop-color="#FE0F7C"/>
<stop offset="1" stop-color="#DF0066"/>
</linearGradient>
<linearGradient id="paint2_linear_63_1078" x1="5.35512" y1="12.064" x2="9.70933" y2="9.83802" gradientUnits="userSpaceOnUse">
<stop stop-color="#FF6086"/>
<stop offset="1" stop-color="white"/>
</linearGradient>
</defs>
</svg>
