<svg width="16" height="16" viewBox="0 0 16 16" fill="none" xmlns="http://www.w3.org/2000/svg">
<path fill-rule="evenodd" clip-rule="evenodd" d="M16 5.943V11C16 11.552 15.552 12 15 12C13.896 12 13 12.896 13 14C13 14.552 12.552 15 12 15C12 15 6.101 15 2.943 15C2.162 15 1.414 14.69 0.862 14.138C0.31 13.586 0 12.838 0 12.057C0 9.823 0 6.177 0 3.943C0 3.162 0.31 2.414 0.862 1.862C1.414 1.31 2.162 1 2.943 1C3.727 1 4.587 1 5.195 1C5.976 1 6.724 1.31 7.276 1.862L8.138 2.724C8.315 2.901 8.555 3 8.805 3H13.057C14.683 3 16 4.317 16 5.943ZM16 14C16 14.552 15.552 15 15 15C14.448 15 14 14.552 14 14C14 13.448 14.448 13 15 13C15.552 13 16 13.448 16 14Z" fill="url(#paint0_linear_63_1045)"/>
<path d="M5.90366 7.1928C6.34712 6.3976 6.56867 6 6.90012 6C7.23157 6 7.45312 6.3976 7.89657 7.1928L8.01137 7.3986C8.13737 7.6247 8.20037 7.73776 8.29837 7.81231C8.39637 7.88686 8.51887 7.91451 8.76387 7.96981L8.98647 8.02021C9.84748 8.21516 10.2776 8.31246 10.3802 8.64181C10.4824 8.97081 10.1891 9.31416 9.60213 10.0005L9.45022 10.178C9.28362 10.3729 9.19997 10.4706 9.16252 10.591C9.12507 10.7117 9.13767 10.8419 9.16287 11.102L9.18597 11.3389C9.27452 12.2549 9.31897 12.7127 9.05087 12.916C8.78277 13.1197 8.37957 12.9339 7.57387 12.5629L7.36492 12.467C7.13602 12.3613 7.02157 12.3088 6.90012 12.3088C6.77867 12.3088 6.66422 12.3613 6.43532 12.467L6.22672 12.5629C5.42066 12.9339 5.01746 13.1194 4.74971 12.9164C4.48126 12.7127 4.52571 12.2549 4.61426 11.3389L4.63736 11.1023C4.66256 10.8419 4.67516 10.7117 4.63736 10.5913C4.60026 10.4706 4.51661 10.3729 4.35001 10.1783L4.19811 10.0005C3.61116 9.31451 3.31786 8.97116 3.42006 8.64181C3.52261 8.31246 3.95311 8.21481 4.81411 8.02021L5.03671 7.96981C5.28136 7.91451 5.40351 7.88686 5.50186 7.81231C5.59986 7.73776 5.66286 7.6247 5.78886 7.3986L5.90366 7.1928Z" fill="#D49F34"/>
<path d="M6.90366 6.1928C7.34712 5.3976 7.56867 5 7.90012 5C8.23157 5 8.45312 5.3976 8.89657 6.1928L9.01137 6.3986C9.13737 6.6247 9.20037 6.73776 9.29837 6.81231C9.39637 6.88686 9.51887 6.91451 9.76387 6.96981L9.98647 7.02021C10.8475 7.21516 11.2776 7.31246 11.3802 7.64181C11.4824 7.97081 11.1891 8.31416 10.6021 9.00051L10.4502 9.17796C10.2836 9.37291 10.2 9.47056 10.1625 9.59096C10.1251 9.71171 10.1377 9.84191 10.1629 10.102L10.186 10.3389C10.2745 11.2549 10.319 11.7127 10.0509 11.916C9.78277 12.1197 9.37957 11.9339 8.57387 11.5629L8.36492 11.467C8.13602 11.3613 8.02157 11.3088 7.90012 11.3088C7.77867 11.3088 7.66422 11.3613 7.43532 11.467L7.22672 11.5629C6.42066 11.9339 6.01746 12.1194 5.74971 11.9164C5.48126 11.7127 5.52571 11.2549 5.61426 10.3389L5.63736 10.1023C5.66256 9.84191 5.67516 9.71171 5.63736 9.59131C5.60026 9.47056 5.51661 9.37291 5.35001 9.17831L5.19811 9.00051C4.61116 8.31451 4.31786 7.97116 4.42006 7.64181C4.52261 7.31246 4.95311 7.21481 5.81411 7.02021L6.03671 6.96981C6.28136 6.91451 6.40351 6.88686 6.50186 6.81231C6.59986 6.73776 6.66286 6.6247 6.78886 6.3986L6.90366 6.1928Z" fill="url(#paint1_linear_63_1045)"/>
<defs>
<linearGradient id="paint0_linear_63_1045" x1="3" y1="14.124" x2="11.469" y2="2.5085" gradientUnits="userSpaceOnUse">
<stop stop-color="#FF8860"/>
<stop offset="1" stop-color="#FBD92C"/>
</linearGradient>
<linearGradient id="paint1_linear_63_1045" x1="6.15007" y1="10.25" x2="9.65007" y2="6.74991" gradientUnits="userSpaceOnUse">
<stop stop-color="#FBD92C"/>
<stop offset="1" stop-color="white"/>
</linearGradient>
</defs>
</svg>
