<svg width="16" height="16" viewBox="0 0 16 16" fill="none" xmlns="http://www.w3.org/2000/svg">
<path fill-rule="evenodd" clip-rule="evenodd" d="M16 5.943V11C16 11.552 15.552 12 15 12C13.896 12 13 12.896 13 14C13 14.552 12.552 15 12 15C12 15 6.101 15 2.943 15C2.162 15 1.414 14.69 0.862 14.138C0.31 13.586 0 12.838 0 12.057C0 9.823 0 6.177 0 3.943C0 3.162 0.31 2.414 0.862 1.862C1.414 1.31 2.162 1 2.943 1C3.727 1 4.587 1 5.195 1C5.976 1 6.724 1.31 7.276 1.862L8.138 2.724C8.315 2.901 8.555 3 8.805 3H13.057C14.683 3 16 4.317 16 5.943ZM16 14C16 14.552 15.552 15 15 15C14.448 15 14 14.552 14 14C14 13.448 14.448 13 15 13C15.552 13 16 13.448 16 14Z" fill="url(#paint0_linear_63_1100)"/>
<path fill-rule="evenodd" clip-rule="evenodd" d="M5.2334 7.48075C5.28698 7.43186 5.31921 7.36385 5.32309 7.29145C5.327 7.21906 5.30227 7.14801 5.25426 7.09365C5.20625 7.03928 5.13879 7.00603 5.06645 7.00095C4.99412 6.99588 4.92269 7.0195 4.86757 7.06664C4.52425 7.3688 4.24929 7.7408 4.06114 8.15765C3.87295 8.57455 3.77586 9.02681 3.77633 9.4842C3.77633 9.55747 3.80543 9.62776 3.85723 9.67956C3.90906 9.73142 3.97935 9.76053 4.05262 9.76053C4.12592 9.76053 4.19621 9.73142 4.24801 9.67956C4.29984 9.62776 4.32895 9.55747 4.32895 9.4842C4.32848 9.1051 4.40889 8.7303 4.56487 8.3848C4.72086 8.03929 4.94877 7.73105 5.2334 7.48075ZM9.13243 7.06664C9.07731 7.0195 9.00591 6.99588 8.93352 7.00095C8.86118 7.00603 8.79375 7.03928 8.74574 7.09365C8.69773 7.14801 8.673 7.21906 8.67691 7.29145C8.68082 7.36385 8.71302 7.43186 8.76657 7.48075C9.05123 7.73105 9.27914 8.03929 9.43512 8.3848C9.59111 8.7303 9.67155 9.1051 9.67102 9.4842C9.67102 9.55747 9.70013 9.62776 9.75199 9.67956C9.80379 9.73142 9.87408 9.76053 9.94735 9.76053C10.0207 9.76053 10.0909 9.73142 10.1428 9.67956C10.1946 9.62776 10.2237 9.55747 10.2237 9.4842C10.2241 9.02681 10.1271 8.57455 9.93889 8.15765C9.75071 7.7408 9.47578 7.3688 9.13243 7.06664ZM6.33203 12.0712C6.29656 12.061 6.25934 12.058 6.22265 12.0624C6.18596 12.0668 6.15055 12.0785 6.11847 12.0968C6.08638 12.1152 6.05833 12.1398 6.03587 12.1691C6.01347 12.1985 5.99719 12.2321 5.98797 12.2678C5.97876 12.3036 5.97677 12.3409 5.98226 12.3774C5.98768 12.414 6.0004 12.4491 6.01965 12.4806C6.03884 12.5122 6.06422 12.5395 6.0942 12.5611C6.12424 12.5826 6.15825 12.598 6.19424 12.6062C6.7228 12.7422 7.2772 12.7422 7.80576 12.6062C7.84175 12.598 7.87576 12.5826 7.9058 12.5611C7.93578 12.5395 7.96116 12.5122 7.98035 12.4806C7.9996 12.4491 8.01232 12.414 8.01774 12.3774C8.02317 12.3409 8.02124 12.3036 8.01202 12.2678C8.00281 12.2321 7.98653 12.1985 7.96407 12.1691C7.94167 12.1398 7.91362 12.1152 7.88153 12.0968C7.84945 12.0785 7.81404 12.0668 7.77735 12.0624C7.74066 12.058 7.70344 12.061 7.66792 12.0712C7.44969 12.1272 7.22528 12.1555 7 12.1552C6.77472 12.1553 6.55031 12.1271 6.33203 12.0712ZM6.21845 7.68678C6.01119 7.47952 5.89476 7.19841 5.89476 6.90526C5.89476 6.6121 6.01119 6.331 6.21845 6.12371C6.42577 5.91642 6.70687 5.79999 7 5.79999C7.29312 5.79999 7.57423 5.91642 7.78155 6.12371C7.98881 6.331 8.10524 6.6121 8.10524 6.90526C8.10524 7.19841 7.98881 7.47952 7.78155 7.68678C7.57423 7.8941 7.29312 8.01053 7 8.01053C6.70687 8.01053 6.42577 7.8941 6.21845 7.68678ZM3.58415 11.7493C3.52858 11.6152 3.5 11.4714 3.5 11.3263C3.5 11.0332 3.61643 10.752 3.82372 10.5448C4.03101 10.3375 4.31212 10.221 4.60527 10.221C4.8984 10.221 5.17953 10.3375 5.38679 10.5448C5.59408 10.752 5.71051 11.0332 5.71051 11.3263C5.71051 11.4714 5.68193 11.6152 5.6264 11.7493C5.57086 11.8833 5.48943 12.0052 5.38679 12.1079C5.28418 12.2105 5.16232 12.2919 5.02822 12.3474C4.89414 12.403 4.7504 12.4316 4.60527 12.4316C4.46011 12.4316 4.3164 12.403 4.1823 12.3474C4.04819 12.2919 3.92636 12.2105 3.82372 12.1079C3.72108 12.0052 3.63968 11.8833 3.58415 11.7493ZM8.61321 12.1079C8.82047 12.3151 9.10158 12.4316 9.39476 12.4316C9.68788 12.4316 9.96899 12.3151 10.1763 12.1079C10.3836 11.9005 10.5 11.6194 10.5 11.3263C10.5 11.0332 10.3836 10.752 10.1763 10.5448C9.96899 10.3375 9.68788 10.221 9.39476 10.221C9.10158 10.221 8.82047 10.3375 8.61321 10.5448C8.40589 10.752 8.28946 11.0332 8.28946 11.3263C8.28946 11.6194 8.40589 11.9005 8.61321 12.1079Z" fill="#344CD8"/>
<path fill-rule="evenodd" clip-rule="evenodd" d="M6.2334 6.48075C6.28698 6.43186 6.31921 6.36385 6.32309 6.29145C6.327 6.21906 6.30227 6.14801 6.25426 6.09365C6.20625 6.03928 6.13879 6.00603 6.06645 6.00095C5.99412 5.99588 5.92269 6.0195 5.86757 6.06664C5.52425 6.3688 5.24929 6.7408 5.06114 7.15765C4.87295 7.57455 4.77586 8.02681 4.77633 8.4842C4.77633 8.55747 4.80543 8.62776 4.85723 8.67956C4.90906 8.73142 4.97935 8.76053 5.05262 8.76053C5.12592 8.76053 5.19621 8.73142 5.24801 8.67956C5.29984 8.62776 5.32895 8.55747 5.32895 8.4842C5.32848 8.1051 5.40889 7.7303 5.56487 7.3848C5.72086 7.03929 5.94877 6.73105 6.2334 6.48075ZM10.1324 6.06664C10.0773 6.0195 10.0059 5.99588 9.93352 6.00095C9.86118 6.00603 9.79375 6.03928 9.74574 6.09365C9.69773 6.14801 9.673 6.21906 9.67691 6.29145C9.68082 6.36385 9.71302 6.43186 9.76657 6.48075C10.0512 6.73105 10.2791 7.03929 10.4351 7.3848C10.5911 7.7303 10.6715 8.1051 10.671 8.4842C10.671 8.55747 10.7001 8.62776 10.752 8.67956C10.8038 8.73142 10.8741 8.76053 10.9474 8.76053C11.0207 8.76053 11.0909 8.73142 11.1428 8.67956C11.1946 8.62776 11.2237 8.55747 11.2237 8.4842C11.2241 8.02681 11.1271 7.57455 10.9389 7.15765C10.7507 6.7408 10.4758 6.3688 10.1324 6.06664ZM7.33203 11.0712C7.29656 11.061 7.25934 11.058 7.22265 11.0624C7.18596 11.0668 7.15055 11.0785 7.11847 11.0968C7.08638 11.1152 7.05833 11.1398 7.03587 11.1691C7.01347 11.1985 6.99719 11.2321 6.98797 11.2678C6.97876 11.3036 6.97677 11.3409 6.98226 11.3774C6.98768 11.414 7.0004 11.4491 7.01965 11.4806C7.03884 11.5122 7.06422 11.5395 7.0942 11.5611C7.12424 11.5826 7.15825 11.598 7.19424 11.6062C7.7228 11.7422 8.2772 11.7422 8.80576 11.6062C8.84175 11.598 8.87576 11.5826 8.9058 11.5611C8.93578 11.5395 8.96116 11.5122 8.98035 11.4806C8.9996 11.4491 9.01232 11.414 9.01774 11.3774C9.02317 11.3409 9.02124 11.3036 9.01202 11.2678C9.00281 11.2321 8.98653 11.1985 8.96407 11.1691C8.94167 11.1398 8.91362 11.1152 8.88153 11.0968C8.84945 11.0785 8.81404 11.0668 8.77735 11.0624C8.74066 11.058 8.70344 11.061 8.66792 11.0712C8.44969 11.1272 8.22528 11.1555 8 11.1552C7.77472 11.1553 7.55031 11.1271 7.33203 11.0712ZM7.21845 6.68678C7.01119 6.47952 6.89476 6.19841 6.89476 5.90526C6.89476 5.6121 7.01119 5.331 7.21845 5.12371C7.42577 4.91642 7.70687 4.79999 8 4.79999C8.29312 4.79999 8.57423 4.91642 8.78155 5.12371C8.98881 5.331 9.10524 5.6121 9.10524 5.90526C9.10524 6.19841 8.98881 6.47952 8.78155 6.68678C8.57423 6.8941 8.29312 7.01053 8 7.01053C7.70687 7.01053 7.42577 6.8941 7.21845 6.68678ZM4.58415 10.7493C4.52858 10.6152 4.5 10.4714 4.5 10.3263C4.5 10.0332 4.61643 9.75202 4.82372 9.54476C5.03101 9.3375 5.31212 9.22101 5.60527 9.22101C5.8984 9.22101 6.17953 9.3375 6.38679 9.54476C6.59408 9.75202 6.71051 10.0332 6.71051 10.3263C6.71051 10.4714 6.68193 10.6152 6.6264 10.7493C6.57086 10.8833 6.48943 11.0052 6.38679 11.1079C6.28418 11.2105 6.16232 11.2919 6.02822 11.3474C5.89414 11.403 5.7504 11.4316 5.60527 11.4316C5.46011 11.4316 5.3164 11.403 5.1823 11.3474C5.04819 11.2919 4.92636 11.2105 4.82372 11.1079C4.72108 11.0052 4.63968 10.8833 4.58415 10.7493ZM9.61321 11.1079C9.82047 11.3151 10.1016 11.4316 10.3948 11.4316C10.6879 11.4316 10.969 11.3151 11.1763 11.1079C11.3836 10.9005 11.5 10.6194 11.5 10.3263C11.5 10.0332 11.3836 9.75202 11.1763 9.54476C10.969 9.3375 10.6879 9.22101 10.3948 9.22101C10.1016 9.22101 9.82047 9.3375 9.61321 9.54476C9.40589 9.75202 9.28946 10.0332 9.28946 10.3263C9.28946 10.6194 9.40589 10.9005 9.61321 11.1079Z" fill="url(#paint1_linear_63_1100)"/>
<defs>
<linearGradient id="paint0_linear_63_1100" x1="1" y1="15.0075" x2="16.942" y2="2.17804" gradientUnits="userSpaceOnUse">
<stop stop-color="#2E4AFA"/>
<stop offset="1" stop-color="#8E9EFF"/>
</linearGradient>
<linearGradient id="paint1_linear_63_1100" x1="4.49995" y1="11.7082" x2="11.1366" y2="11.5358" gradientUnits="userSpaceOnUse">
<stop stop-color="#8E9EFF"/>
<stop offset="1" stop-color="white"/>
</linearGradient>
</defs>
</svg>
