<svg width="16" height="16" viewBox="0 0 16 16" fill="none" xmlns="http://www.w3.org/2000/svg">
<g clip-path="url(#clip0_63_796)">
<path fill-rule="evenodd" clip-rule="evenodd" d="M16 5.943V11C16 11.552 15.552 12 15 12C13.896 12 13 12.896 13 14C13 14.552 12.552 15 12 15C12 15 6.101 15 2.943 15C2.162 15 1.414 14.69 0.862 14.138C0.31 13.586 0 12.838 0 12.057C0 9.823 0 6.177 0 3.943C0 3.162 0.31 2.414 0.862 1.862C1.414 1.31 2.162 1 2.943 1C3.727 1 4.587 1 5.195 1C5.976 1 6.724 1.31 7.276 1.862L8.138 2.724C8.315 2.901 8.555 3 8.805 3H13.057C14.683 3 16 4.317 16 5.943ZM16 14C16 14.552 15.552 15 15 15C14.448 15 14 14.552 14 14C14 13.448 14.448 13 15 13C15.552 13 16 13.448 16 14Z" fill="url(#paint0_linear_63_796)"/>
<path opacity="0.7" fill-rule="evenodd" clip-rule="evenodd" d="M3.79998 13.6C4.07598 13.6 4.29998 13.376 4.29998 13.1C4.29998 12.824 4.07598 12.6 3.79998 12.6C3.52398 12.6 3.29998 12.824 3.29998 13.1C3.29998 13.376 3.52398 13.6 3.79998 13.6ZM3.79998 12.1C4.35198 12.1 4.79998 12.548 4.79998 13.1C4.79998 13.376 5.02398 13.6 5.29998 13.6H8.29998C8.83048 13.6 9.33898 13.3895 9.71398 13.014C10.0895 12.639 10.3 12.1305 10.3 11.6V8.59998C10.4615 8.59998 10.62 8.52148 10.716 8.37748C10.869 8.14748 10.807 7.83698 10.5775 7.68398C10.5775 7.68398 8.81598 6.50948 7.99248 5.96048C7.63998 5.72548 7.22298 5.59998 6.79898 5.59998C6.37498 5.59998 5.96048 5.72548 5.60748 5.96048L3.02248 7.68398C2.79298 7.83698 2.73098 8.14748 2.88398 8.37748C2.97998 8.52148 3.13848 8.59998 3.29998 8.59998V11.6C3.29998 11.876 3.52398 12.1 3.79998 12.1Z" fill="#7FD1AE"/>
<path fill-rule="evenodd" clip-rule="evenodd" d="M4.79998 12.6C5.07598 12.6 5.29998 12.376 5.29998 12.1C5.29998 11.824 5.07598 11.6 4.79998 11.6C4.52398 11.6 4.29998 11.824 4.29998 12.1C4.29998 12.376 4.52398 12.6 4.79998 12.6ZM4.79998 11.1C5.35198 11.1 5.79998 11.548 5.79998 12.1C5.79998 12.376 6.02398 12.6 6.29998 12.6H9.29998C9.83048 12.6 10.339 12.3895 10.714 12.014C11.0895 11.639 11.3 11.1305 11.3 10.6V7.59998C11.4615 7.59998 11.62 7.52148 11.716 7.37748C11.869 7.14748 11.807 6.83698 11.5775 6.68398C11.5775 6.68398 9.81598 5.50948 8.99248 4.96048C8.63998 4.72548 8.22298 4.59998 7.79898 4.59998C7.37498 4.59998 6.96048 4.72548 6.60748 4.96048L4.02248 6.68398C3.79298 6.83698 3.73098 7.14748 3.88398 7.37748C3.97998 7.52148 4.13848 7.59998 4.29998 7.59998V10.6C4.29998 10.876 4.52398 11.1 4.79998 11.1Z" fill="url(#paint1_linear_63_796)"/>
<path fill-rule="evenodd" clip-rule="evenodd" d="M9.29993 8.59998C9.29993 8.32398 9.07593 8.09998 8.79993 8.09998H6.79993C6.52393 8.09998 6.29993 8.32398 6.29993 8.59998V10.6C6.29993 10.876 6.52393 11.1 6.79993 11.1H8.79993C9.07593 11.1 9.29993 10.876 9.29993 10.6V8.59998ZM8.09993 9.09998C8.21038 9.09998 8.29993 9.18952 8.29993 9.29998V9.89998C8.29993 10.0104 8.21038 10.1 8.09993 10.1H7.49993C7.38947 10.1 7.29993 10.0104 7.29993 9.89998V9.29998C7.29993 9.18952 7.38947 9.09998 7.49993 9.09998H8.09993Z" fill="url(#paint2_linear_63_796)"/>
</g>
<defs>
<linearGradient id="paint0_linear_63_796" x1="2" y1="13.2504" x2="16.7438" y2="9.36204" gradientUnits="userSpaceOnUse">
<stop offset="0.0401046" stop-color="#4EE6A6"/>
<stop offset="0.853884" stop-color="#ABFFDB"/>
</linearGradient>
<linearGradient id="paint1_linear_63_796" x1="3.80005" y1="12.6" x2="6.15302" y2="3.18823" gradientUnits="userSpaceOnUse">
<stop offset="0.142878" stop-color="#B3FBDC"/>
<stop offset="1" stop-color="#EBFFF6"/>
</linearGradient>
<linearGradient id="paint2_linear_63_796" x1="6.67493" y1="10.7251" x2="9.48217" y2="10.0773" gradientUnits="userSpaceOnUse">
<stop stop-color="#62E8AF"/>
<stop offset="1" stop-color="#B3FBDC"/>
</linearGradient>
<clipPath id="clip0_63_796">
<rect width="16" height="16" fill="white"/>
</clipPath>
</defs>
</svg>
