<svg width="16" height="16" viewBox="0 0 16 16" fill="none" xmlns="http://www.w3.org/2000/svg">
<path d="M3.28441 9.5681C3.10926 9.74647 2.95558 9.91842 2.8247 10.0825C2.78464 10.1326 2.7351 10.175 2.67891 10.206C2.62272 10.2369 2.56098 10.2565 2.49723 10.2636C2.43347 10.2708 2.36893 10.2652 2.3073 10.2474C2.24568 10.2295 2.18817 10.1998 2.13806 10.1597C2.08796 10.1196 2.04622 10.0701 2.01526 10.0139C1.98429 9.95775 1.9647 9.89595 1.9576 9.83219C1.95049 9.76843 1.95601 9.7039 1.97386 9.64224C1.99169 9.58064 2.02149 9.52317 2.06155 9.47303C2.2315 9.26074 2.4275 9.04393 2.64498 8.82515C2.70716 8.76291 2.785 8.71862 2.87028 8.69692C2.95554 8.67528 3.04509 8.677 3.12943 8.70207L3.28441 9.5681Z" fill="#279FD7" stroke="#279FD7" stroke-width="0.4"/>
<mask id="path-2-inside-1_8_415" fill="white">
<path d="M12.5638 3.92948C12.6929 3.91757 12.8118 3.85489 12.8946 3.75525C12.9774 3.6556 13.0172 3.52714 13.0053 3.39814C12.9934 3.26914 12.9307 3.15015 12.8311 3.06736C12.7314 2.98456 12.603 2.94474 12.474 2.95666C12.1979 2.98271 11.9049 3.02568 11.5981 3.08689C11.4734 3.11127 11.3631 3.18349 11.2908 3.28809L12.0181 4.00241C12.2109 3.96986 12.3933 3.94511 12.5638 3.92948Z"/>
</mask>
<path d="M12.5638 3.92948C12.6929 3.91757 12.8118 3.85489 12.8946 3.75525C12.9774 3.6556 13.0172 3.52714 13.0053 3.39814C12.9934 3.26914 12.9307 3.15015 12.8311 3.06736C12.7314 2.98456 12.603 2.94474 12.474 2.95666C12.1979 2.98271 11.9049 3.02568 11.5981 3.08689C11.4734 3.11127 11.3631 3.18349 11.2908 3.28809L12.0181 4.00241C12.2109 3.96986 12.3933 3.94511 12.5638 3.92948Z" fill="url(#paint0_linear_8_415)"/>
<path d="M12.5638 3.92948L12.6551 4.92531L12.6557 4.92524L12.5638 3.92948ZM12.8946 3.75525L13.6637 4.39432L13.6638 4.3943L12.8946 3.75525ZM13.0053 3.39814L12.0095 3.49L12.0095 3.49048L13.0053 3.39814ZM12.8311 3.06736L13.4701 2.29817L13.4699 2.298L12.8311 3.06736ZM12.474 2.95666L12.382 1.9609L12.38 1.96108L12.474 2.95666ZM11.5981 3.08689L11.79 4.06831L11.7938 4.06755L11.5981 3.08689ZM11.2908 3.28809L10.4681 2.71957L9.98965 3.4119L10.5901 4.00157L11.2908 3.28809ZM12.0181 4.00241L11.3175 4.71589L11.6815 5.07343L12.1847 4.98845L12.0181 4.00241ZM12.6557 4.92524C13.049 4.88894 13.4115 4.69789 13.6637 4.39432L12.1255 3.11618C12.2121 3.01189 12.3367 2.94619 12.4719 2.93371L12.6557 4.92524ZM13.6638 4.3943C13.916 4.09074 14.0375 3.69923 14.001 3.3058L12.0095 3.49048C11.997 3.35505 12.0388 3.22046 12.1254 3.1162L13.6638 4.3943ZM14.001 3.30628C13.9648 2.91338 13.774 2.55065 13.4701 2.29817L12.1921 3.83654C12.0875 3.74965 12.0219 3.62489 12.0095 3.49L14.001 3.30628ZM13.4699 2.298C13.1664 2.04601 12.7752 1.92457 12.382 1.9609L12.566 3.95242C12.4307 3.96492 12.2963 3.92311 12.1923 3.83672L13.4699 2.298ZM12.38 1.96108C12.0677 1.99055 11.7407 2.03873 11.4024 2.10622L11.7938 4.06755C12.069 4.01264 12.3281 3.97487 12.5679 3.95224L12.38 1.96108ZM11.4063 2.10547C11.0254 2.17992 10.6887 2.40031 10.4681 2.71957L12.1134 3.85662C12.0374 3.96667 11.9214 4.04263 11.79 4.06831L11.4063 2.10547ZM10.5901 4.00157L11.3175 4.71589L12.7188 3.28894L11.9915 2.57462L10.5901 4.00157ZM12.1847 4.98845C12.358 4.95917 12.5148 4.93816 12.6551 4.92531L12.4726 2.93365C12.2717 2.95205 12.0637 2.98054 11.8516 3.01638L12.1847 4.98845Z" fill="url(#paint1_linear_8_415)" mask="url(#path-2-inside-1_8_415)"/>
<mask id="path-4-inside-2_8_415" fill="white">
<path d="M12.5638 4.88407C12.6929 4.87216 12.8118 4.80948 12.8946 4.70984C12.9774 4.61019 13.0172 4.48173 13.0053 4.35273C12.9934 4.22373 12.9307 4.10474 12.8311 4.02195C12.7314 3.93915 12.603 3.89933 12.474 3.91125C12.1979 3.9373 11.9049 3.98027 11.5981 4.04148C11.4734 4.06586 11.3631 4.13808 11.2908 4.24268L12.0181 4.957C12.2109 4.92445 12.3933 4.8997 12.5638 4.88407Z"/>
</mask>
<path d="M12.5638 4.88407C12.6929 4.87216 12.8118 4.80948 12.8946 4.70984C12.9774 4.61019 13.0172 4.48173 13.0053 4.35273C12.9934 4.22373 12.9307 4.10474 12.8311 4.02195C12.7314 3.93915 12.603 3.89933 12.474 3.91125C12.1979 3.9373 11.9049 3.98027 11.5981 4.04148C11.4734 4.06586 11.3631 4.13808 11.2908 4.24268L12.0181 4.957C12.2109 4.92445 12.3933 4.8997 12.5638 4.88407Z" fill="url(#paint2_linear_8_415)"/>
<path d="M12.5638 4.88407L12.6551 5.8799L12.6557 5.87983L12.5638 4.88407ZM12.8946 4.70984L13.6637 5.34891L13.6638 5.34889L12.8946 4.70984ZM13.0053 4.35273L12.0095 4.44459L12.0095 4.44507L13.0053 4.35273ZM12.8311 4.02195L13.4701 3.25276L13.4699 3.25258L12.8311 4.02195ZM12.474 3.91125L12.382 2.91549L12.38 2.91567L12.474 3.91125ZM11.5981 4.04148L11.79 5.0229L11.7938 5.02214L11.5981 4.04148ZM11.2908 4.24268L10.4681 3.67416L9.98965 4.36649L10.5901 4.95616L11.2908 4.24268ZM12.0181 4.957L11.3175 5.67048L11.6815 6.02802L12.1847 5.94304L12.0181 4.957ZM12.6557 5.87983C13.049 5.84353 13.4115 5.65248 13.6637 5.34891L12.1255 4.07077C12.2121 3.96648 12.3367 3.90078 12.4719 3.8883L12.6557 5.87983ZM13.6638 5.34889C13.916 5.04533 14.0375 4.65382 14.001 4.26039L12.0095 4.44507C11.997 4.30964 12.0388 4.17505 12.1254 4.07079L13.6638 5.34889ZM14.001 4.26087C13.9648 3.86797 13.774 3.50524 13.4701 3.25276L12.1921 4.79113C12.0875 4.70424 12.0219 4.57948 12.0095 4.44459L14.001 4.26087ZM13.4699 3.25258C13.1664 3.0006 12.7752 2.87916 12.382 2.91549L12.566 4.90701C12.4307 4.91951 12.2963 4.8777 12.1923 4.79131L13.4699 3.25258ZM12.38 2.91567C12.0677 2.94514 11.7407 2.99332 11.4024 3.06081L11.7938 5.02214C12.069 4.96723 12.3281 4.92946 12.5679 4.90683L12.38 2.91567ZM11.4063 3.06006C11.0254 3.13451 10.6887 3.3549 10.4681 3.67416L12.1134 4.81121C12.0374 4.92126 11.9214 4.99722 11.79 5.0229L11.4063 3.06006ZM10.5901 4.95616L11.3175 5.67048L12.7188 4.24353L11.9915 3.52921L10.5901 4.95616ZM12.1847 5.94304C12.358 5.91376 12.5148 5.89275 12.6551 5.8799L12.4726 3.88824C12.2717 3.90664 12.0637 3.93513 11.8516 3.97097L12.1847 5.94304Z" fill="url(#paint3_linear_8_415)" mask="url(#path-4-inside-2_8_415)"/>
<path d="M3.28441 8.61351C3.10926 8.79188 2.95558 8.96383 2.8247 9.12788C2.78464 9.17796 2.7351 9.22041 2.67891 9.2514C2.62272 9.28233 2.56098 9.30193 2.49723 9.30905C2.43347 9.31618 2.36893 9.31058 2.3073 9.29276C2.24568 9.27495 2.18817 9.24516 2.13806 9.20507C2.08796 9.16498 2.04622 9.11547 2.01526 9.05928C1.98429 9.00316 1.9647 8.94136 1.9576 8.8776C1.95049 8.81384 1.95601 8.74931 1.97386 8.68765C1.99169 8.62605 2.02149 8.56858 2.06155 8.51844C2.2315 8.30615 2.4275 8.08934 2.64498 7.87056C2.70716 7.80832 2.785 7.76403 2.87028 7.74233C2.95554 7.72069 3.04509 7.72241 3.12943 7.74748L3.28441 8.61351Z" fill="url(#paint4_linear_8_415)" stroke="url(#paint5_linear_8_415)" stroke-width="0.4"/>
<path fill-rule="evenodd" clip-rule="evenodd" d="M8.60005 2.79995C9.04188 2.79995 9.40005 2.44178 9.40005 1.99995C9.40005 1.55812 9.04188 1.19995 8.60005 1.19995C8.15822 1.19995 7.80005 1.55812 7.80005 1.99995C7.80005 2.44178 8.15822 2.79995 8.60005 2.79995ZM10 2.49996C10 3.32839 9.32843 3.99996 8.5 3.99996C7.67157 3.99996 7 3.32839 7 2.49996C7 2.30777 6.83659 2.12964 6.65034 2.17707C5.66097 2.42905 4.74805 2.9433 4.01391 3.67744C2.93984 4.75151 2.33643 6.20829 2.33643 7.72723C2.33643 9.24624 2.93984 10.703 4.01391 11.777C5.08798 12.8511 6.54473 13.4545 8.06368 13.4545C9.58263 13.4545 11.0394 12.8511 12.1135 11.777C13.1876 10.703 13.791 9.24624 13.791 7.72723C13.791 6.20829 13.1876 4.75151 12.1135 3.67744C11.5483 3.11225 10.8771 2.67739 10.1467 2.39219C10.0751 2.36424 10 2.4231 10 2.49996Z" fill="url(#paint6_linear_8_415)"/>
<path fill-rule="evenodd" clip-rule="evenodd" d="M13.8192 3.92553C13.7561 3.9088 13.6904 3.90486 13.6258 3.91394C13.5611 3.92304 13.4991 3.94498 13.4431 3.97847C13.3871 4.01196 13.3385 4.05632 13.2999 4.10895C13.2613 4.16157 13.2337 4.22138 13.2187 4.28485C13.2035 4.34833 13.2014 4.41416 13.2122 4.47849C13.223 4.54282 13.2466 4.60433 13.2816 4.65939C13.3166 4.71445 13.3623 4.76195 13.4158 4.79907C13.4695 4.83621 13.53 4.86221 13.5939 4.87557C13.8504 4.93612 13.9494 5.02663 13.9859 5.08523C14.0269 5.15165 14.0724 5.32356 13.8836 5.70253C13.8257 5.81849 13.8164 5.95269 13.8574 6.07559C13.8985 6.1985 13.9867 6.30006 14.1027 6.35791C14.2187 6.41576 14.3529 6.42518 14.4758 6.38408C14.5987 6.34299 14.7003 6.25476 14.7581 6.1388C15.0043 5.64457 15.1247 5.0644 14.8141 4.56757C14.5901 4.20944 14.2131 4.0193 13.8192 3.92553ZM13.6727 7.55958C13.7179 7.51408 13.7536 7.46005 13.778 7.40068C13.8023 7.34137 13.8146 7.2778 13.8145 7.21365C13.8142 7.14945 13.8013 7.086 13.7765 7.02682C13.7518 6.96764 13.7156 6.91393 13.6701 6.86875C13.6245 6.82354 13.5705 6.78776 13.5112 6.76344C13.4518 6.73911 13.3882 6.72671 13.3241 6.72696C13.2599 6.7272 13.1964 6.74007 13.1372 6.76485C13.0781 6.78962 13.0243 6.82581 12.9792 6.87135C12.5325 7.32196 11.9588 7.80248 11.281 8.28497C11.1755 8.36013 11.1041 8.4741 11.0826 8.60175C11.0611 8.72954 11.0913 8.86056 11.1664 8.96607C11.2414 9.07158 11.3554 9.14292 11.4832 9.16449C11.6109 9.18594 11.7419 9.15584 11.8475 9.08068C12.5605 8.5728 13.1784 8.05709 13.6727 7.55958ZM10.4417 9.99685C10.4979 9.96459 10.5472 9.92138 10.5866 9.86984C10.626 9.81829 10.6547 9.75943 10.671 9.69662C10.6874 9.63387 10.6911 9.56845 10.682 9.50424C10.6728 9.44004 10.6509 9.37825 10.6176 9.32263C10.5843 9.26688 10.5402 9.21845 10.488 9.17995C10.4357 9.14152 10.3763 9.1139 10.3132 9.09869C10.2502 9.08335 10.1848 9.08087 10.1207 9.09118C10.0567 9.10155 9.99532 9.12453 9.94021 9.15883C9.28736 9.54917 8.61543 9.90668 7.92688 10.23C7.8131 10.2872 7.72611 10.3864 7.68455 10.5068C7.64287 10.6271 7.64994 10.759 7.70409 10.8742C7.75824 10.9895 7.85535 11.079 7.97448 11.1237C8.09374 11.1684 8.22572 11.1648 8.3423 11.1136C9.06012 10.7762 9.76075 10.4035 10.4417 9.99685ZM2.019 11.0035C2.05829 10.8801 2.04691 10.746 1.98738 10.631C1.92785 10.5159 1.82504 10.4291 1.70156 10.3898C1.57809 10.3505 1.44405 10.3619 1.32896 10.4214C1.21387 10.481 1.12714 10.5838 1.08785 10.7073C0.96348 11.0987 0.950456 11.529 1.18553 11.9054C1.48049 12.3769 2.03658 12.5604 2.5881 12.6132C2.65245 12.6203 2.71758 12.6146 2.77971 12.5963C2.84181 12.5781 2.89969 12.5477 2.94993 12.5068C3.00017 12.4659 3.04179 12.4155 3.07238 12.3585C3.10296 12.3014 3.12188 12.2388 3.12806 12.1744C3.13424 12.1099 3.12753 12.0449 3.10834 11.983C3.08914 11.9212 3.05785 11.8638 3.01627 11.8142C2.97468 11.7645 2.92365 11.7237 2.86613 11.694C2.80862 11.6643 2.74576 11.6462 2.68122 11.641C2.22931 11.5981 2.06392 11.4672 2.01378 11.3871C1.98123 11.335 1.94737 11.2282 2.019 11.0035ZM6.75158 11.7869C6.87007 11.7394 6.96534 11.6475 7.01688 11.5306C7.06843 11.4138 7.07212 11.2814 7.02732 11.1618C6.98245 11.0423 6.89254 10.9451 6.77684 10.8911C6.66115 10.837 6.52889 10.8304 6.40841 10.8726C5.61075 11.1722 4.86843 11.3878 4.21924 11.5166C4.09498 11.5446 3.98654 11.6199 3.91703 11.7266C3.84753 11.8333 3.82246 11.963 3.84718 12.0879C3.8719 12.2129 3.94444 12.3232 4.04933 12.3954C4.15423 12.4677 4.2832 12.496 4.40872 12.4745C5.12043 12.3338 5.91483 12.1007 6.75158 11.7869Z" fill="#279FD7" stroke="#279FD7" stroke-width="0.4"/>
<path fill-rule="evenodd" clip-rule="evenodd" d="M13.8192 2.97094C13.7561 2.95421 13.6904 2.95027 13.6258 2.95935C13.5611 2.96845 13.4991 2.99039 13.4431 3.02388C13.3871 3.05737 13.3385 3.10173 13.2999 3.15436C13.2613 3.20698 13.2337 3.26679 13.2187 3.33026C13.2035 3.39374 13.2014 3.45957 13.2122 3.5239C13.223 3.58823 13.2466 3.64974 13.2816 3.7048C13.3166 3.75986 13.3623 3.80736 13.4158 3.84448C13.4695 3.88162 13.53 3.90762 13.5939 3.92098C13.8504 3.98153 13.9494 4.07204 13.9859 4.13064C14.0269 4.19706 14.0724 4.36897 13.8836 4.74794C13.8257 4.8639 13.8164 4.9981 13.8574 5.121C13.8985 5.24391 13.9867 5.34547 14.1027 5.40332C14.2187 5.46117 14.3529 5.47059 14.4758 5.42949C14.5987 5.3884 14.7003 5.30017 14.7581 5.18421C15.0043 4.68998 15.1247 4.10981 14.8141 3.61298C14.5901 3.25485 14.2131 3.06471 13.8192 2.97094ZM13.6727 6.60499C13.7179 6.55949 13.7536 6.50546 13.778 6.44609C13.8023 6.38678 13.8146 6.32321 13.8145 6.25906C13.8142 6.19486 13.8013 6.13141 13.7765 6.07223C13.7518 6.01305 13.7156 5.95934 13.6701 5.91416C13.6245 5.86895 13.5705 5.83317 13.5112 5.80885C13.4518 5.78452 13.3882 5.77212 13.3241 5.77237C13.2599 5.77261 13.1964 5.78548 13.1372 5.81026C13.0781 5.83503 13.0243 5.87122 12.9792 5.91676C12.5325 6.36737 11.9588 6.84789 11.281 7.33038C11.1755 7.40554 11.1041 7.51951 11.0826 7.64716C11.0611 7.77495 11.0913 7.90597 11.1664 8.01148C11.2414 8.11699 11.3554 8.18833 11.4832 8.2099C11.6109 8.23135 11.7419 8.20125 11.8475 8.12609C12.5605 7.61821 13.1784 7.1025 13.6727 6.60499ZM10.4417 9.04226C10.4979 9.01 10.5472 8.96679 10.5866 8.91525C10.626 8.8637 10.6547 8.80484 10.671 8.74203C10.6874 8.67928 10.6911 8.61386 10.682 8.54966C10.6728 8.48545 10.6509 8.42366 10.6176 8.36804C10.5843 8.31229 10.5402 8.26386 10.488 8.22536C10.4357 8.18693 10.3763 8.15931 10.3132 8.1441C10.2502 8.12876 10.1848 8.12628 10.1207 8.13659C10.0567 8.14696 9.99532 8.16994 9.94021 8.20424C9.28736 8.59458 8.61543 8.95209 7.92688 9.27536C7.8131 9.33257 7.72611 9.43185 7.68455 9.55218C7.64287 9.67252 7.64994 9.80437 7.70409 9.91962C7.75824 10.0349 7.85535 10.1244 7.97448 10.1691C8.09374 10.2138 8.22572 10.2102 8.3423 10.159C9.06012 9.82162 9.76075 9.4489 10.4417 9.04226ZM2.019 10.0489C2.05829 9.92547 2.04691 9.79145 1.98738 9.6764C1.92785 9.56128 1.82504 9.47455 1.70156 9.43522C1.57809 9.39595 1.44405 9.40735 1.32896 9.46685C1.21387 9.52641 1.12714 9.62918 1.08785 9.7527C0.96348 10.1441 0.950456 10.5744 1.18553 10.9508C1.48049 11.4223 2.03658 11.6059 2.5881 11.6586C2.65245 11.6657 2.71758 11.66 2.77971 11.6417C2.84181 11.6235 2.89969 11.5931 2.94993 11.5522C3.00017 11.5114 3.04179 11.461 3.07238 11.4039C3.10296 11.3468 3.12188 11.2842 3.12806 11.2198C3.13424 11.1553 3.12753 11.0903 3.10834 11.0284C3.08914 10.9666 3.05785 10.9092 3.01627 10.8596C2.97468 10.81 2.92365 10.7691 2.86613 10.7394C2.80862 10.7097 2.74576 10.6917 2.68122 10.6864C2.22931 10.6435 2.06392 10.5126 2.01378 10.4325C1.98123 10.3804 1.94737 10.2736 2.019 10.0489ZM6.75158 10.8323C6.87007 10.7848 6.96534 10.6929 7.01688 10.576C7.06843 10.4592 7.07212 10.3268 7.02732 10.2073C6.98245 10.0877 6.89254 9.99051 6.77684 9.93648C6.66115 9.88239 6.52889 9.87584 6.40841 9.91803C5.61075 10.2176 4.86843 10.4332 4.21924 10.562C4.09498 10.59 3.98654 10.6653 3.91703 10.772C3.84753 10.8787 3.82246 11.0084 3.84718 11.1333C3.8719 11.2583 3.94444 11.3686 4.04933 11.4408C4.15423 11.5131 4.2832 11.5414 4.40872 11.5199C5.12043 11.3792 5.91483 11.1461 6.75158 10.8323Z" fill="url(#paint7_linear_8_415)" stroke="url(#paint8_linear_8_415)" stroke-width="0.4"/>
<defs>
<linearGradient id="paint0_linear_8_415" x1="11.2908" y1="4.00241" x2="13.1283" y2="3.24985" gradientUnits="userSpaceOnUse">
<stop stop-color="#6BD6FE"/>
<stop offset="1" stop-color="white"/>
</linearGradient>
<linearGradient id="paint1_linear_8_415" x1="11.2908" y1="4.00241" x2="13.1283" y2="3.24985" gradientUnits="userSpaceOnUse">
<stop stop-color="#6BD6FE"/>
<stop offset="1" stop-color="white"/>
</linearGradient>
<linearGradient id="paint2_linear_8_415" x1="11.2908" y1="4.957" x2="13.1283" y2="4.20444" gradientUnits="userSpaceOnUse">
<stop stop-color="#6BD6FE"/>
<stop offset="1" stop-color="white"/>
</linearGradient>
<linearGradient id="paint3_linear_8_415" x1="11.2908" y1="4.957" x2="13.1283" y2="4.20444" gradientUnits="userSpaceOnUse">
<stop stop-color="#6BD6FE"/>
<stop offset="1" stop-color="white"/>
</linearGradient>
<linearGradient id="paint4_linear_8_415" x1="1.95459" y1="9.31206" x2="3.54679" y2="8.97804" gradientUnits="userSpaceOnUse">
<stop stop-color="#6BD6FE"/>
<stop offset="1" stop-color="white"/>
</linearGradient>
<linearGradient id="paint5_linear_8_415" x1="1.95459" y1="9.31206" x2="3.54679" y2="8.97804" gradientUnits="userSpaceOnUse">
<stop stop-color="#6BD6FE"/>
<stop offset="1" stop-color="white"/>
</linearGradient>
<linearGradient id="paint6_linear_8_415" x1="3.48188" y1="13.4583" x2="8.1495" y2="0.367987" gradientUnits="userSpaceOnUse">
<stop stop-color="#22B4FA"/>
<stop offset="1" stop-color="#6BD6FE"/>
</linearGradient>
<linearGradient id="paint7_linear_8_415" x1="1" y1="11.6616" x2="16.0656" y2="5.60556" gradientUnits="userSpaceOnUse">
<stop stop-color="#6BD6FE"/>
<stop offset="1" stop-color="white"/>
</linearGradient>
<linearGradient id="paint8_linear_8_415" x1="1" y1="11.6616" x2="16.0656" y2="5.60556" gradientUnits="userSpaceOnUse">
<stop stop-color="#6BD6FE"/>
<stop offset="1" stop-color="white"/>
</linearGradient>
</defs>
</svg>
