<svg width="16" height="16" viewBox="0 0 16 16" fill="none" xmlns="http://www.w3.org/2000/svg">
<path fill-rule="evenodd" clip-rule="evenodd" d="M4.46445 11.5355C3.05024 10.1213 1.75835 11.1827 1.69471 11.2039C1.17216 11.3814 0.603648 11.1013 0.426164 10.5788C-0.522065 7.78501 0.117159 4.56909 2.34313 2.34312C5.46501 -0.77876 10.535 -0.77876 13.6568 2.34312C16.7787 5.46499 16.7787 10.5349 13.6568 13.6568C11.4309 15.8828 8.21495 16.522 5.42117 15.5738C4.89861 15.3963 4.6186 14.8278 4.79608 14.3052C4.8173 14.2416 5.87867 12.9497 4.46445 11.5355ZM3.75734 13.6568C3.36702 14.0471 2.73345 14.0471 2.34313 13.6568C1.95281 13.2665 1.95281 12.6329 2.34313 12.2426C2.73345 11.8523 3.36702 11.8523 3.75734 12.2426C4.14767 12.6329 4.14767 13.2665 3.75734 13.6568Z" fill="url(#paint0_linear_15_1661)"/>
<path d="M4.81996 4.09576C5.64939 3.49533 6.56352 3.13936 7.61168 3.15315L7.62581 3.15331C7.64279 3.15354 7.65972 3.1554 7.67635 3.15887L7.69018 3.16179C7.99129 3.22493 8.22788 3.39689 8.34572 3.65636C8.45678 3.90085 8.43556 4.16417 8.35473 4.37703C8.20896 4.76111 7.79348 5.13843 7.24686 5.05526C7.21901 5.051 7.19055 5.04973 7.16268 5.05388C5.84382 5.24964 4.75708 6.52059 4.63927 7.75573L4.6388 7.76063L4.63823 7.76556C4.58522 8.2073 4.70207 8.63099 4.92555 9.05104C4.99714 9.18558 5.17168 9.21866 5.29492 9.129L5.84245 8.73064C6.01748 8.60329 6.26281 8.73017 6.26003 8.94662L6.2186 12.1606C6.21635 12.3362 6.04583 12.4602 5.87804 12.4083L2.80734 11.4586C2.60055 11.3947 2.55532 11.1222 2.73035 10.9949L3.32805 10.56C3.43941 10.479 3.46863 10.3261 3.4022 10.2055C2.51967 8.60356 2.59154 6.53448 3.82481 5.0387C4.1111 4.68803 4.44157 4.36556 4.81996 4.09576Z" fill="#DA5CDB"/>
<path d="M10.5218 5.11506L13.5925 6.06476C13.7993 6.12873 13.8445 6.40119 13.6695 6.52854L13.0717 6.96342C12.9604 7.04442 12.9312 7.19734 12.9976 7.31794C13.8802 8.91982 13.8083 10.989 12.575 12.4847C12.3245 12.7915 12.0407 13.0752 11.7209 13.3217C11.7198 13.3225 11.7191 13.3237 11.7189 13.325C11.7187 13.3264 11.718 13.3276 11.7169 13.3284L11.5812 13.4267C10.7511 14.0279 9.83593 14.3832 8.7875 14.3694L8.77342 14.3692C8.75642 14.369 8.73949 14.3671 8.72286 14.3636L8.70903 14.3607C8.40805 14.2976 8.17136 14.1258 8.05355 13.8663C7.94254 13.6217 7.96392 13.3584 8.04489 13.1456C8.19102 12.7616 8.60697 12.3847 9.15367 12.4683C9.18127 12.4725 9.20953 12.4737 9.23718 12.4698C10.5672 12.2792 11.6456 11.1193 11.7602 9.77186L11.7608 9.76483L11.7616 9.75782C11.8146 9.3161 11.6978 8.89239 11.4743 8.47236C11.4027 8.33783 11.2281 8.30474 11.1049 8.39439L10.5574 8.79276C10.3823 8.92011 10.137 8.79321 10.1398 8.57676L10.1812 5.36284C10.1835 5.18722 10.354 5.06315 10.5218 5.11506Z" fill="#DA5CDB"/>
<path d="M4.66502 3.06345C5.50019 2.47102 6.4177 2.12386 7.46568 2.14773L7.47981 2.14802C7.49678 2.14842 7.51369 2.15044 7.53029 2.15407L7.54409 2.15712C7.84458 2.22316 8.07951 2.39738 8.19484 2.65797C8.30355 2.90352 8.2798 3.16662 8.19693 3.37869C8.04747 3.76135 7.62838 4.13467 7.08258 4.04624C7.05478 4.04171 7.02633 4.04017 6.99842 4.04405C5.67774 4.22712 4.57883 5.48757 4.44915 6.72151L4.44863 6.7264L4.44801 6.73133C4.39076 7.17254 4.50353 7.59733 4.72296 8.01951C4.79325 8.15474 4.96746 8.1895 5.09156 8.10102L5.6429 7.70794C5.81915 7.58229 6.06324 7.71152 6.05838 7.92794L5.98605 11.1413C5.98211 11.3169 5.8104 11.4393 5.64312 11.3858L2.5817 10.4066C2.37553 10.3407 2.33292 10.0678 2.50917 9.94214L3.11103 9.51304C3.22316 9.4331 3.25384 9.28048 3.18858 9.15923C2.32149 7.54892 2.41325 5.48063 3.66085 3.99677C3.9505 3.64888 4.28406 3.3296 4.66502 3.06345Z" fill="url(#paint1_linear_15_1661)"/>
<path d="M10.3567 4.13759L13.4182 5.11678C13.6243 5.18273 13.6669 5.45562 13.4907 5.58128L12.8888 6.01039C12.7767 6.09032 12.746 6.24295 12.8113 6.36418C13.6784 7.97448 13.5866 10.0428 12.339 11.5267C12.0855 11.831 11.7991 12.112 11.4768 12.3554C11.4758 12.3562 11.4751 12.3574 11.4749 12.3587C11.4746 12.36 11.4739 12.3612 11.4728 12.362L11.3361 12.459C10.5004 13.0522 9.5818 13.3987 8.53355 13.3748L8.51946 13.3745C8.50247 13.3741 8.48556 13.3721 8.46896 13.3684L8.45517 13.3654C8.1548 13.2994 7.91978 13.1253 7.80447 12.8647C7.69581 12.6191 7.71973 12.356 7.80273 12.144C7.95255 11.7613 8.37211 11.3885 8.91798 11.4773C8.94554 11.4818 8.97378 11.4833 9.00147 11.4796C10.3333 11.3018 11.4228 10.1523 11.5503 8.80609L11.551 8.79906L11.5519 8.79207C11.6091 8.35088 11.4964 7.92606 11.2769 7.5039C11.2066 7.36869 11.0324 7.33392 10.9083 7.42238L10.357 7.81547C10.1807 7.94113 9.93664 7.81188 9.94151 7.59546L10.0138 4.38209C10.0177 4.2065 10.1895 4.08408 10.3567 4.13759Z" fill="url(#paint2_linear_15_1661)"/>
<defs>
<linearGradient id="paint0_linear_15_1661" x1="1.14398" y1="14.7681" x2="15.776" y2="2.31348" gradientUnits="userSpaceOnUse">
<stop stop-color="#FE5AFF"/>
<stop offset="1" stop-color="#FE9EFF"/>
</linearGradient>
<linearGradient id="paint1_linear_15_1661" x1="4.09434" y1="12.6192" x2="0.0641662" y2="5.05744" gradientUnits="userSpaceOnUse">
<stop stop-color="#FE9EFF"/>
<stop offset="1" stop-color="white"/>
</linearGradient>
<linearGradient id="paint2_linear_15_1661" x1="8.78911" y1="14.275" x2="4.75889" y2="6.71305" gradientUnits="userSpaceOnUse">
<stop stop-color="#FE9EFF"/>
<stop offset="1" stop-color="white"/>
</linearGradient>
</defs>
</svg>
