<svg width="16" height="16" viewBox="0 0 16 16" fill="none" xmlns="http://www.w3.org/2000/svg">
<path d="M0.345816 7.84274L0.915681 8.7807C1.12507 9.12491 1.3451 9.46173 1.57533 9.79073C1.95492 10.3332 2.78452 10.2784 3.41802 10.086C3.60218 10.0301 3.79758 10 4 10C5.10457 10 6 10.8955 6 12C6 12.2024 5.96995 12.3977 5.91406 12.5818C5.72174 13.2154 5.66703 14.045 6.20951 14.4245C6.5381 14.6544 6.8745 14.8741 7.21827 15.0833L8.15732 15.6541C9.61951 16.4014 11.5109 15.9214 12.3282 14.3745C12.7134 13.6434 13.0809 12.8245 13.3135 12.0094C13.6215 10.9217 13.8056 9.80267 13.8621 8.67365C13.8875 8.18055 13.8998 7.93328 13.782 7.62819C13.6648 7.3239 13.4615 7.11975 13.0547 6.71379L9.33681 2.99585C8.95856 2.61759 8.76903 2.42807 8.48401 2.3102C8.19893 2.19388 7.97245 2.19465 7.51872 2.19619C6.32566 2.19955 5.13852 2.3641 3.98953 2.68538C3.17523 2.91804 2.35631 3.28475 1.62521 3.67148C0.0783848 4.48804 -0.400843 6.37912 0.345424 7.84124L0.345816 7.84274Z" fill="url(#paint0_linear_243_235)"/>
<path d="M4 13C4.55228 13 5 12.5523 5 12C5 11.4477 4.55228 11 4 11C3.44772 11 3 11.4477 3 12C3 12.5523 3.44772 13 4 13Z" fill="url(#paint1_linear_243_235)"/>
<path d="M15.8158 1.00051C15.8725 0.947618 15.9181 0.883829 15.9497 0.812956C15.9813 0.742076 15.9982 0.665567 15.9996 0.587989C16.001 0.51041 15.9867 0.433348 15.9576 0.361399C15.9286 0.289457 15.8853 0.224097 15.8304 0.169232C15.7756 0.114366 15.7102 0.0711151 15.6383 0.0420532C15.5664 0.0129913 15.4893 -0.00127626 15.4117 8.95649e-05C15.3341 0.00146411 15.2576 0.0184386 15.1867 0.0500241C15.1159 0.0816023 15.0521 0.12713 14.9992 0.183901L13.5587 1.62376C13.344 1.83839 13.3766 2.19382 13.5914 2.40843C13.806 2.62285 14.161 2.65531 14.3755 2.44081L15.8158 1.00051Z" fill="url(#paint2_linear_243_235)"/>
<path fill-rule="evenodd" clip-rule="evenodd" d="M9.28956 2.90472C9.30499 2.92014 9.32074 2.93589 9.33683 2.95198L13.0547 6.66992C13.4615 7.07588 13.6648 7.28003 13.782 7.58432C13.8309 7.71093 13.8574 7.82758 13.8698 7.95597C13.7533 8.12276 13.6217 8.28014 13.4759 8.42597L13.4578 8.44327C13.3368 8.28685 13.1713 8.12137 12.9411 7.89132L12.9267 7.87691L9.1309 4.08104C8.85871 3.80883 8.68248 3.63262 8.5 3.50989L8.52986 3.48078C8.75609 3.25452 9.0118 3.06084 9.28956 2.90472Z" fill="#D84F4F"/>
<path d="M13.5917 2.40881C13.2737 2.09073 12.8962 1.83841 12.4806 1.66627C12.0651 1.49412 11.6197 1.40552 11.17 1.40552C10.7202 1.40552 10.2749 1.49412 9.85929 1.66627C9.4438 1.83841 9.06627 2.09073 8.74823 2.40881L8.71899 2.43732C8.89769 2.5575 9.07027 2.73006 9.33681 2.99662L13.0539 6.71377C13.2866 6.94643 13.453 7.11203 13.574 7.26839L13.5917 7.25145C14.2338 6.60926 14.5946 5.73831 14.5946 4.83014C14.5946 3.92197 14.2338 3.051 13.5917 2.40881Z" fill="url(#paint3_linear_243_235)"/>
<defs>
<linearGradient id="paint0_linear_243_235" x1="2.60231" y1="14.2745" x2="11.2214" y2="3.87556" gradientUnits="userSpaceOnUse">
<stop stop-color="#FF405B"/>
<stop offset="1" stop-color="#FF8860"/>
</linearGradient>
<linearGradient id="paint1_linear_243_235" x1="3.375" y1="12.75" x2="4.625" y2="11.25" gradientUnits="userSpaceOnUse">
<stop stop-color="#FF405B"/>
<stop offset="1" stop-color="#FF8860"/>
</linearGradient>
<linearGradient id="paint2_linear_243_235" x1="13.8981" y1="2.26308" x2="15.5145" y2="0.323142" gradientUnits="userSpaceOnUse">
<stop stop-color="#FF405B"/>
<stop offset="1" stop-color="#FF8860"/>
</linearGradient>
<linearGradient id="paint3_linear_243_235" x1="11" y1="8" x2="15.4437" y2="3.36234" gradientUnits="userSpaceOnUse">
<stop stop-color="#FF8860"/>
<stop offset="1" stop-color="white"/>
</linearGradient>
</defs>
</svg>
