<svg width="16" height="16" viewBox="0 0 16 16" fill="none" xmlns="http://www.w3.org/2000/svg">
<g clip-path="url(#clip0_8_298)">
<path d="M8.31075 12.6809L12.7363 8.25545C13.0584 7.93815 13.4919 7.76105 13.944 7.76271C14.3961 7.76437 14.8293 7.94469 15.149 8.26433C15.4688 8.58396 15.6492 9.01704 15.6511 9.46913C15.6529 9.92127 15.476 10.3558 15.1588 10.678L10.7333 15.1035C10.4756 15.3615 10.1525 15.5446 9.79874 15.6331L8.42623 15.9758C8.28972 16.0098 8.14678 16.0079 8.01126 15.9704C7.8757 15.9328 7.75217 15.8608 7.65269 15.7614C7.55316 15.662 7.48109 15.5385 7.44339 15.403C7.4057 15.2675 7.40372 15.1245 7.43758 14.988L7.7812 13.6155C7.86978 13.2617 8.05285 12.9387 8.31075 12.6809Z" fill="url(#paint0_linear_8_298)"/>
<path fill-rule="evenodd" clip-rule="evenodd" d="M4.5056 0.484546C4.5056 0.356036 4.45455 0.232792 4.36368 0.141921C4.27281 0.0510505 4.14956 0 4.02105 0C3.89255 0 3.7693 0.0510505 3.67843 0.141921C3.58756 0.232792 3.5365 0.356036 3.5365 0.484546V0.749425C3.5365 0.870747 3.43816 0.969092 3.31684 0.969092H3.05196C2.66643 0.969092 2.29669 1.12224 2.02408 1.39486C1.75147 1.66747 1.59832 2.0372 1.59832 2.42273V8.86975C1.59832 9.14299 1.87431 9.33585 2.14755 9.33585C3.05744 9.33585 3.79505 10.0735 3.79505 10.9834C3.79505 11.8932 3.05744 12.6309 2.14755 12.6309C1.87431 12.6309 1.59832 12.8237 1.59832 13.097V14.0519C1.59832 14.4374 1.75147 14.8071 2.02408 15.0797C2.29669 15.3523 2.66643 15.5055 3.05196 15.5055H6.2401C6.35619 15.5055 6.45097 15.4148 6.47118 15.3005C6.47887 15.2569 6.48815 15.2131 6.49903 15.1692L6.86241 13.7175C6.99811 13.1728 7.2795 12.6753 7.67649 12.2784L12.3572 7.59766C12.5727 7.38168 12.8223 7.20309 13.0956 7.06893C13.1746 7.03015 13.2274 6.9514 13.2274 6.86343V2.42273C13.2274 2.0372 13.0743 1.66747 12.8017 1.39486C12.529 1.12224 12.1593 0.969092 11.7738 0.969092H11.5089C11.3876 0.969092 11.2892 0.870747 11.2892 0.749425V0.484546C11.2892 0.356036 11.2382 0.232792 11.1473 0.141921C11.0564 0.0510505 10.9332 0 10.8047 0C10.6762 0 10.553 0.0510505 10.4621 0.141921C10.3712 0.232792 10.3202 0.356036 10.3202 0.484546V0.749425C10.3202 0.870747 10.2218 0.969092 10.1005 0.969092H8.11709C7.99578 0.969092 7.89742 0.870747 7.89742 0.749425V0.484546C7.89742 0.356036 7.84635 0.232792 7.75552 0.141921C7.66463 0.0510505 7.5414 0 7.41289 0C7.28439 0 7.1611 0.0510505 7.07027 0.141921C6.97938 0.232792 6.92831 0.356036 6.92831 0.484546V0.749425C6.92831 0.870747 6.83001 0.969092 6.70864 0.969092H4.72527C4.60395 0.969092 4.5056 0.870747 4.5056 0.749425V0.484546ZM1.59833 12.0817C2.20493 12.0817 2.69667 11.5899 2.69667 10.9833C2.69667 10.3768 2.20493 9.88501 1.59833 9.88501C0.99174 9.88501 0.5 10.3768 0.5 10.9833C0.5 11.5899 0.99174 12.0817 1.59833 12.0817Z" fill="url(#paint1_linear_8_298)"/>
<path fill-rule="evenodd" clip-rule="evenodd" d="M4.75596 9.61038H7.67805C8.20854 9.61038 8.63909 9.17983 8.63909 8.64933C8.63909 8.11884 8.20854 7.68829 7.67805 7.68829H4.75596C4.22547 7.68829 3.79492 8.11884 3.79492 8.64933C3.79492 9.17983 4.22547 9.61038 4.75596 9.61038Z" fill="#D84F4F"/>
<path d="M6.60013 5.62893H4.75596C4.22547 5.62893 3.79492 5.19838 3.79492 4.66789C3.79492 4.13739 4.22547 3.70685 4.75596 3.70685H6.60013C7.13062 3.70685 7.56117 4.13739 7.56117 4.66789C7.56117 5.19838 7.13062 5.62893 6.60013 5.62893Z" fill="#D84F4F"/>
<path fill-rule="evenodd" clip-rule="evenodd" d="M5.71702 4.66787H7.56119C8.09168 4.66787 8.52223 4.23732 8.52223 3.70683C8.52223 3.17634 8.09168 2.74579 7.56119 2.74579H5.71702C5.18653 2.74579 4.75598 3.17634 4.75598 3.70683C4.75598 4.23732 5.18653 4.66787 5.71702 4.66787Z" fill="url(#paint2_linear_8_298)"/>
<path fill-rule="evenodd" clip-rule="evenodd" d="M5.71702 8.64938H8.63911C9.1696 8.64938 9.60015 8.21883 9.60015 7.68834C9.60015 7.15784 9.1696 6.72729 8.63911 6.72729H5.71702C5.18653 6.72729 4.75598 7.15784 4.75598 7.68834C4.75598 8.21883 5.18653 8.64938 5.71702 8.64938Z" fill="url(#paint3_linear_8_298)"/>
</g>
<defs>
<linearGradient id="paint0_linear_8_298" x1="8.95811" y1="14.9703" x2="14.1064" y2="8.79219" gradientUnits="userSpaceOnUse">
<stop stop-color="#FF405B"/>
<stop offset="1" stop-color="#FF8860"/>
</linearGradient>
<linearGradient id="paint1_linear_8_298" x1="2.88639" y1="13.5673" x2="12.7377" y2="3.86375" gradientUnits="userSpaceOnUse">
<stop stop-color="#FF405B"/>
<stop offset="1" stop-color="#FF8860"/>
</linearGradient>
<linearGradient id="paint2_linear_8_298" x1="5.83163" y1="4.66783" x2="6.19173" y2="2.98787" gradientUnits="userSpaceOnUse">
<stop stop-color="#FF8860"/>
<stop offset="1" stop-color="white"/>
</linearGradient>
<linearGradient id="paint3_linear_8_298" x1="6.13949" y1="8.64934" x2="6.42441" y2="6.93967" gradientUnits="userSpaceOnUse">
<stop stop-color="#FF8860"/>
<stop offset="1" stop-color="white"/>
</linearGradient>
<clipPath id="clip0_8_298">
<rect width="16" height="16" fill="white"/>
</clipPath>
</defs>
</svg>
