<svg width="16" height="16" viewBox="0 0 16 16" fill="none" xmlns="http://www.w3.org/2000/svg">
<g clip-path="url(#clip0_44_75)">
<path fill-rule="evenodd" clip-rule="evenodd" d="M12.9824 15C12.9824 15.552 12.5344 16 11.9824 16H3.97442C1.76942 16 -0.0175781 14.213 -0.0175781 12.008C-0.0175781 9.643 -0.0175781 6.357 -0.0175781 3.992C-0.0175781 2.933 0.403422 1.918 1.15142 1.169C1.90042 0.421 2.91542 0 3.97442 0C6.33942 0 9.62542 0 11.9904 0C14.1954 0 15.9824 1.787 15.9824 3.992C15.9824 7.249 15.9824 12 15.9824 12C15.9824 12.552 15.5344 13 14.9824 13C13.8784 13 12.9824 13.896 12.9824 15ZM13.9824 15C13.9824 14.448 14.4304 14 14.9824 14C15.5344 14 15.9824 14.448 15.9824 15C15.9824 15.552 15.5344 16 14.9824 16C14.4304 16 13.9824 15.552 13.9824 15Z" fill="url(#paint0_linear_44_75)"/>
<path d="M5.12195 7.02051V6.9902C5.12195 6.43921 4.75444 6.16371 4.14228 6.16371H4.06624C3.60126 6.16371 3.22432 6.54065 3.22432 7.00563V7.00563C3.22432 7.47061 3.60126 7.84756 4.06624 7.84756H4.17314C4.78529 7.84701 5.12195 7.47949 5.12195 7.02051ZM2 6.09202C2 5.53973 2.44772 5.09202 3 5.09202H4.23485C5.55118 5.09202 6.34682 5.85735 6.34682 6.9902V7.02051C6.34682 8.30599 5.36715 8.949 4.11197 8.949H4.01996C3.5635 8.949 3.19346 9.31904 3.19346 9.7755V10.0053C3.19346 10.3348 2.9263 10.602 2.59673 10.602V10.602C2.26717 10.602 2 10.3348 2 10.0053V6.09202ZM10.9994 9.01016C10.9994 10.1122 10.173 10.7243 8.97894 10.7243C8.32491 10.6999 7.67089 10.5033 7.09276 10.134C6.83517 9.96946 6.80737 9.6174 7.00137 9.3812V9.3812C7.19802 9.14177 7.54748 9.11288 7.81324 9.27213C8.1734 9.48793 8.56162 9.62177 9.0098 9.62177C9.49963 9.62177 9.80544 9.43829 9.80544 9.10163V9.07077C9.80544 8.76497 9.62195 8.61179 8.70344 8.36715C7.60145 8.09165 6.86696 7.78585 6.86696 6.68385V6.65299C6.86696 5.64301 7.66261 5 8.79546 5C9.39109 5 9.93576 5.1371 10.4031 5.39883C10.6692 5.54783 10.7124 5.8962 10.5375 6.14602V6.14602C10.3527 6.40994 9.99273 6.4687 9.70449 6.32482C9.38402 6.16486 9.06812 6.07169 8.76515 6.07169C8.30617 6.07169 8.06098 6.28603 8.06098 6.56153V6.59238C8.06098 6.9599 8.30617 7.08222 9.25499 7.32686C10.357 7.63322 11 8.03104 11 8.97986L10.9994 9.01016Z" fill="#279FD7"/>
<path d="M6.12195 6.02051V5.9902C6.12195 5.43921 5.75444 5.16371 5.14228 5.16371H4.62432C4.4034 5.16371 4.22432 5.34279 4.22432 5.56371V6.44756C4.22432 6.66847 4.4034 6.84756 4.62432 6.84756H5.17314C5.78529 6.84701 6.12195 6.47949 6.12195 6.02051ZM3 4.49202C3 4.2711 3.17909 4.09202 3.4 4.09202H5.23485C6.55118 4.09202 7.34682 4.85735 7.34682 5.9902V6.02051C7.34682 7.30599 6.36715 7.949 5.11197 7.949H4.59346C4.37255 7.949 4.19346 8.12809 4.19346 8.349V9.202C4.19346 9.42291 4.01438 9.602 3.79346 9.602H3.4C3.17909 9.602 3 9.42291 3 9.202V4.49202ZM11.9994 8.01016C11.9994 9.11216 11.173 9.72432 9.97894 9.72432C9.27444 9.69802 8.56994 9.47194 7.9603 9.04542C7.78249 8.92101 7.76249 8.67204 7.90023 8.50434L8.10446 8.25569C8.24407 8.0857 8.49311 8.06308 8.67606 8.1852C9.07486 8.45142 9.50417 8.62177 10.0098 8.62177C10.4996 8.62177 10.8054 8.43829 10.8054 8.10163V8.07077C10.8054 7.76497 10.622 7.61179 9.70344 7.36715C8.60145 7.09165 7.86696 6.78585 7.86696 5.68385V5.65299C7.86696 4.64301 8.66261 4 9.79546 4C10.4548 4 11.0517 4.16801 11.5505 4.48709C11.7255 4.59911 11.7552 4.83505 11.636 5.00532L11.4312 5.29782C11.3053 5.47769 11.0591 5.51994 10.868 5.4119C10.4916 5.19916 10.1195 5.07169 9.76515 5.07169C9.30617 5.07169 9.06098 5.28603 9.06098 5.56153V5.59238C9.06098 5.9599 9.30617 6.08222 10.255 6.32686C11.357 6.63322 12 7.03104 12 7.97986L11.9994 8.01016Z" fill="url(#paint1_linear_44_75)"/>
</g>
<defs>
<linearGradient id="paint0_linear_44_75" x1="1.58242" y1="16.005" x2="7.36112" y2="-1.33327" gradientUnits="userSpaceOnUse">
<stop stop-color="#22B4FA"/>
<stop offset="1" stop-color="#6BD6FE"/>
</linearGradient>
<linearGradient id="paint1_linear_44_75" x1="3" y1="9.72432" x2="12.7445" y2="5.89414" gradientUnits="userSpaceOnUse">
<stop stop-color="#6BD6FE"/>
<stop offset="1" stop-color="white"/>
</linearGradient>
<clipPath id="clip0_44_75">
<rect width="16" height="16" fill="white"/>
</clipPath>
</defs>
</svg>
