<svg width="16" height="16" viewBox="0 0 16 16" fill="none" xmlns="http://www.w3.org/2000/svg">
<g clip-path="url(#clip0_14_1006)">
<path fill-rule="evenodd" clip-rule="evenodd" d="M1 13C0.448 13 0 12.552 0 12V3.992C0 1.787 1.787 0 3.992 0C6.357 0 9.643 0 12.008 0C13.067 0 14.082 0.421001 14.831 1.169C15.579 1.918 16 2.933 16 3.992C16 6.357 16 9.643 16 12.008C16 14.213 14.213 16 12.008 16C8.751 16 4 16 4 16C3.448 16 3 15.552 3 15C3 13.896 2.104 13 1 13ZM1 14C1.552 14 2 14.448 2 15C2 15.552 1.552 16 1 16C0.448 16 0 15.552 0 15C0 14.448 0.448 14 1 14Z" fill="url(#paint0_linear_14_1006)"/>
<path d="M2.92904 3.59998C2.7517 3.59998 2.66209 3.81367 2.78638 3.94016L5.40011 6.59998H9.20002C9.31048 6.59998 9.40002 6.68952 9.40002 6.79998V10.6L12.0594 13.2286C12.1857 13.3535 12.4 13.264 12.4 13.0864V3.79998C12.4 3.68952 12.3105 3.59998 12.2 3.59998H2.92904Z" fill="#279FD7"/>
<path opacity="0.4" d="M2.4586 9.5414L5.40013 6.59998L5.39994 10.4C5.39993 10.5104 5.48948 10.6 5.59994 10.6H9.40004L6.55618 13.5391C6.5185 13.578 6.46664 13.6 6.41245 13.6H2.60002C2.48956 13.6 2.40002 13.5105 2.40002 13.4V9.68282C2.40002 9.62978 2.42109 9.57891 2.4586 9.5414Z" fill="#279FD7"/>
<path d="M3.92904 2.59998C3.7517 2.59998 3.66209 2.81367 3.78638 2.94016L6.40011 5.59998H10.2C10.3105 5.59998 10.4 5.68952 10.4 5.79998V9.59999L13.0594 12.2286C13.1857 12.3535 13.4 12.264 13.4 12.0864V2.79998C13.4 2.68952 13.3105 2.59998 13.2 2.59998H3.92904Z" fill="url(#paint1_linear_14_1006)"/>
<path opacity="0.4" d="M3.4586 8.5414L6.40013 5.59998L6.39994 9.39997C6.39993 9.51044 6.48948 9.59999 6.59994 9.59999H10.4L7.55618 12.5391C7.5185 12.578 7.46664 12.6 7.41245 12.6H3.60002C3.48956 12.6 3.40002 12.5105 3.40002 12.4V8.68282C3.40002 8.62978 3.42109 8.57891 3.4586 8.5414Z" fill="url(#paint2_linear_14_1006)"/>
</g>
<defs>
<linearGradient id="paint0_linear_14_1006" x1="1.6" y1="16.005" x2="7.3787" y2="-1.33327" gradientUnits="userSpaceOnUse">
<stop stop-color="#22B4FA"/>
<stop offset="1" stop-color="#6BD6FE"/>
</linearGradient>
<linearGradient id="paint1_linear_14_1006" x1="3.72864" y1="12.2868" x2="15.1089" y2="9.44625" gradientUnits="userSpaceOnUse">
<stop stop-color="#6BD6FE"/>
<stop offset="1" stop-color="white"/>
</linearGradient>
<linearGradient id="paint2_linear_14_1006" x1="3.40002" y1="12.6" x2="11.6353" y2="10.5412" gradientUnits="userSpaceOnUse">
<stop stop-color="#6BD6FE"/>
<stop offset="1" stop-color="white"/>
</linearGradient>
<clipPath id="clip0_14_1006">
<rect width="16" height="16" fill="white"/>
</clipPath>
</defs>
</svg>
