<svg width="16" height="16" viewBox="0 0 16 16" fill="none" xmlns="http://www.w3.org/2000/svg">
<g clip-path="url(#clip0_92_365)">
<path fill-rule="evenodd" clip-rule="evenodd" d="M11.536 11.5363C10.1216 12.9506 11.1831 14.2426 11.2043 14.3063C11.3818 14.8289 11.1018 15.3974 10.5792 15.5749C7.7852 16.5232 4.56905 15.8839 2.34292 13.6578C-0.779182 10.5357 -0.779182 5.46538 2.34292 2.34328C5.46502 -0.778816 10.5353 -0.778816 13.6574 2.34328C15.8836 4.56941 16.5228 7.78557 15.5745 10.5795C15.397 11.1021 14.8285 11.3822 14.3059 11.2047C14.2423 11.1835 12.9503 10.122 11.536 11.5363ZM13.6574 12.2435C14.0478 12.6338 14.0478 13.2674 13.6574 13.6578C13.2671 14.0482 12.6335 14.0482 12.2431 13.6578C11.8528 13.2674 11.8528 12.6338 12.2431 12.2435C12.6335 11.8531 13.2671 11.8531 13.6574 12.2435Z" fill="url(#paint0_linear_92_365)"/>
<path fill-rule="evenodd" clip-rule="evenodd" d="M0.590813 4.97988C2.15756 3.42163 3.86391 1.7392 4.34732 1.28536C4.38026 1.25444 4.41857 1.23726 4.46325 1.23059C4.8414 1.17402 5.22316 1.14465 5.60557 1.1427C6.73848 1.14605 7.85688 1.39001 8.88701 1.85742C8.97979 1.89951 9.08831 1.98602 9.17822 2.05771C9.19749 2.07307 9.21591 2.08776 9.23314 2.10118C9.2897 2.14533 9.33198 2.20115 9.29142 2.28583C7.73938 5.53046 6.86741 9.70868 6.13745 13.2065C5.95801 14.0663 5.78714 14.8851 5.61686 15.6387C4.41876 15.2663 3.29115 14.6061 2.34309 13.658C1.08835 12.4033 0.33788 10.8339 0.0916748 9.20273C0.0923516 9.20168 0.09303 9.20063 0.0937063 9.19958L0.317929 8.85196C0.780433 8.13492 1.30071 7.32832 1.55604 6.93266C1.85379 6.47126 2.56879 5.36298 3.14492 4.46965C3.72106 3.57632 4.3171 2.65238 4.46977 2.41677C4.83359 1.85528 4.9367 1.68229 4.91893 1.66451C4.91089 1.65647 4.85567 1.68619 4.79629 1.73014C4.61449 1.86466 2.97796 3.31602 2.44813 3.81271C2.17343 4.07022 1.80221 4.40782 1.62322 4.56261C1.44423 4.71742 1.04525 5.06891 0.736611 5.34378C0.598769 5.46653 0.458683 5.59058 0.33852 5.6964C0.410944 5.4545 0.495042 5.21537 0.590813 4.97988Z" fill="#D03157"/>
<path d="M7.89102 0C7.50861 0.00195405 7.12685 0.0313219 6.7487 0.0878864C6.70402 0.0945599 6.66571 0.111735 6.63278 0.142657C5.73393 0.98652 0.606985 6.07804 0.0110238 6.72087C0.00462455 6.72777 0.00208776 6.73464 0.000625083 6.74393C-0.00612838 6.7869 0.0433399 6.81485 0.0767073 6.78694C0.232003 6.6571 0.437326 6.47925 0.666075 6.27193C0.80343 6.14744 0.972826 6.00035 1.0426 5.94462C1.11237 5.88889 1.24131 5.77743 1.3285 5.697C1.57067 5.47361 2.14339 4.96608 2.3112 4.826C2.39352 4.75728 2.71341 4.47595 3.02206 4.20108C3.3307 3.92621 3.72968 3.57472 3.90867 3.41991C4.08766 3.26512 4.45888 2.92752 4.73358 2.67001C5.26341 2.17332 6.89994 0.721958 7.08174 0.587437C7.14112 0.543488 7.19634 0.513766 7.20439 0.521811C7.22215 0.539591 7.11904 0.712576 6.75522 1.27407C6.60255 1.50968 6.00651 2.43362 5.43037 3.32695C4.85424 4.22028 4.13924 5.32856 3.84149 5.78996C3.54375 6.25134 2.88572 7.27153 2.37916 8.05688C1.8726 8.84222 1.21164 9.86589 0.910582 10.3323C0.759332 10.5667 0.638604 10.7607 0.545359 10.9155C0.50846 10.9766 0.502929 11.0519 0.530857 11.1177C1.70204 13.8762 4.31981 15.7521 7.31517 15.9693C7.40861 15.9703 7.40416 15.9679 7.39066 15.9659C7.2839 15.9505 7.56307 15.8991 7.59014 15.7948C8.56951 12.017 9.41099 5.67103 11.5769 1.14313C11.6174 1.05845 11.5752 1.00263 11.5186 0.958477C11.421 0.882452 11.2851 0.765827 11.1725 0.714724C10.1423 0.247307 9.02393 0.00334816 7.89102 0Z" fill="url(#paint1_linear_92_365)"/>
</g>
<defs>
<linearGradient id="paint0_linear_92_365" x1="15.952" y1="0.103129" x2="0.0804952" y2="15.8425" gradientUnits="userSpaceOnUse">
<stop stop-color="#FE7970"/>
<stop offset="1" stop-color="#DC3282"/>
</linearGradient>
<linearGradient id="paint1_linear_92_365" x1="-1.92657" y1="19.4842" x2="13.5749" y2="16.8431" gradientUnits="userSpaceOnUse">
<stop stop-color="#FF6086"/>
<stop offset="1" stop-color="white"/>
</linearGradient>
<clipPath id="clip0_92_365">
<rect width="16" height="16" fill="white"/>
</clipPath>
</defs>
</svg>
