<svg width="16" height="16" viewBox="0 0 16 16" fill="none" xmlns="http://www.w3.org/2000/svg">
<g clip-path="url(#clip0_92_381)">
<path fill-rule="evenodd" clip-rule="evenodd" d="M14.7219 9.264C15.008 9.416 15.2288 9.656 15.3841 9.896C15.6866 10.392 15.6621 11 15.3678 11.536L14.7955 12.496C14.493 13.008 13.9289 13.328 13.3484 13.328C13.0623 13.328 12.7434 13.248 12.4818 13.088C12.2692 12.952 12.024 12.904 11.7623 12.904C10.9529 12.904 10.2744 13.568 10.2498 14.36C10.2498 15.28 9.49762 16 8.55748 16H7.44555C6.49719 16 5.74503 15.28 5.74503 14.36C5.72868 13.568 5.0501 12.904 4.24071 12.904C3.97091 12.904 3.72564 12.952 3.52125 13.088C3.25962 13.248 2.9326 13.328 2.65463 13.328C2.06598 13.328 1.50186 13.008 1.19936 12.496L0.635238 11.536C0.332744 11.016 0.316387 10.392 0.618889 9.896C0.749696 9.656 0.994969 9.416 1.27294 9.264C1.50186 9.152 1.64902 8.968 1.78801 8.752C2.19679 8.064 1.95152 7.16 1.25659 6.752C0.447202 6.296 0.18558 5.28 0.651587 4.488L1.19936 3.544C1.67355 2.752 2.68733 2.472 3.5049 2.936C4.21618 3.32 5.14003 3.064 5.55698 2.384C5.6878 2.16 5.76138 1.92 5.74503 1.68C5.72868 1.368 5.8186 1.072 5.97394 0.832C6.27646 0.336 6.82424 0.016 7.42104 0H8.57377C9.17879 0 9.72657 0.336 10.029 0.832C10.1762 1.072 10.2744 1.368 10.2498 1.68C10.2335 1.92 10.3071 2.16 10.4378 2.384C10.8548 3.064 11.7786 3.32 12.4981 2.936C13.3075 2.472 14.3295 2.752 14.7955 3.544L15.3432 4.488C15.8174 5.28 15.5558 6.296 14.7383 6.752C14.0433 7.16 13.7981 8.064 14.215 8.752C14.3458 8.968 14.493 9.152 14.7219 9.264ZM3.8286 16C4.45978 16 4.97145 15.4883 4.97145 14.8571C4.97145 14.226 4.45978 13.7143 3.8286 13.7143C3.19741 13.7143 2.68574 14.226 2.68574 14.8571C2.68574 15.4883 3.19741 16 3.8286 16Z" fill="url(#paint0_linear_92_381)"/>
<path fill-rule="evenodd" clip-rule="evenodd" d="M9.59175 8.61824C9.7728 8.61824 9.86947 8.83147 9.75037 8.96759L7.15995 11.9281C7.07595 12.024 6.92685 12.024 6.84285 11.9281L4.25244 8.96759C4.13334 8.83147 4.23001 8.61824 4.41106 8.61824H5.48153C5.59793 8.61824 5.69221 8.52397 5.69221 8.40757V6.21067C5.69221 6.09427 5.78663 6 5.90288 6H8.09993C8.21618 6 8.3106 6.09427 8.3106 6.21067V8.40757C8.3106 8.52397 8.40488 8.61824 8.5212 8.61824H9.59175Z" fill="#279FD7"/>
<path d="M10.7504 7.96759C10.8695 7.83147 10.7728 7.61824 10.5917 7.61824H9.5212C9.40488 7.61824 9.3106 7.52397 9.3106 7.40757V5.21067C9.3106 5.09427 9.21618 5 9.09993 5H6.90288C6.78663 5 6.69221 5.09427 6.69221 5.21067V7.40757C6.69221 7.52397 6.59793 7.61824 6.48153 7.61824H5.41106C5.23001 7.61824 5.13334 7.83147 5.25244 7.96759L7.84285 10.9281C7.92685 11.024 8.07595 11.024 8.15995 10.9281L10.7504 7.96759Z" fill="url(#paint1_linear_92_381)"/>
</g>
<defs>
<linearGradient id="paint0_linear_92_381" x1="1.92002" y1="16.005" x2="7.93787" y2="-1.148" gradientUnits="userSpaceOnUse">
<stop offset="0.190745" stop-color="#22B4FA"/>
<stop offset="0.896724" stop-color="#7DDCFF"/>
</linearGradient>
<linearGradient id="paint1_linear_92_381" x1="5.19995" y1="11" x2="11.8416" y2="9.44948" gradientUnits="userSpaceOnUse">
<stop stop-color="#6BD6FE"/>
<stop offset="1" stop-color="white"/>
</linearGradient>
<clipPath id="clip0_92_381">
<rect width="16" height="16" fill="white"/>
</clipPath>
</defs>
</svg>
