<svg width="16" height="16" viewBox="0 0 16 16" fill="none" xmlns="http://www.w3.org/2000/svg">
<path fill-rule="evenodd" clip-rule="evenodd" d="M3.04761 7.29132L6.69175 8.99953C7.2196 9.25007 7.79661 9.38011 8.3809 9.38011C8.96519 9.38011 9.5422 9.25007 10.0701 8.99953L13.7142 7.29132V10.5731C13.7142 10.7116 13.593 10.8181 13.4545 10.8181C12.2495 10.8181 11.2727 11.7949 11.2727 12.9999C11.2727 13.4899 11.0945 14.0238 10.6374 14.2002C9.8715 14.4959 9.07231 14.7138 8.3809 14.7138C7.01255 14.7138 5.22207 13.8597 4.10284 13.2395C3.43161 12.8677 3.04761 12.1485 3.04761 11.3805V7.29132ZM13.4545 14.0908C14.057 14.0908 14.5454 13.6024 14.5454 12.9999C14.5454 12.3974 14.057 11.909 13.4545 11.909C12.852 11.909 12.3636 12.3974 12.3636 12.9999C12.3636 13.6024 12.852 14.0908 13.4545 14.0908Z" fill="url(#paint0_linear_91_207)"/>
<path d="M3.46284 5.14433C3.60226 5.08472 3.7123 4.97216 3.76874 4.83142C3.82518 4.69068 3.8234 4.53329 3.76379 4.39386C3.70418 4.25443 3.59162 4.14439 3.45088 4.08796C3.31014 4.03151 3.15275 4.0333 3.01331 4.09291L2.16608 4.45633C1.74171 4.63843 1.38132 4.79233 1.09942 4.95157C0.798468 5.12071 0.540186 5.31881 0.345904 5.6129C0.152377 5.90699 0.0716214 6.22239 0.0350471 6.5653C-2.70929e-09 6.88835 0 7.27918 0 7.74238V9.9527C0 10.1043 0.0602033 10.2496 0.167366 10.3568C0.274529 10.4639 0.419874 10.5241 0.571422 10.5241C0.722978 10.5241 0.868322 10.4639 0.975485 10.3568C1.08265 10.2496 1.14285 10.1043 1.14285 9.9527V7.77213C1.14285 7.27235 1.14362 6.94318 1.17104 6.68944C1.19695 6.44944 1.2419 6.33141 1.30057 6.24297C1.35771 6.15541 1.44913 6.06699 1.65942 5.94814C1.88189 5.82318 2.18437 5.6929 2.6438 5.49633L3.46284 5.14509V5.14433Z" fill="url(#paint1_linear_91_207)"/>
<path fill-rule="evenodd" clip-rule="evenodd" d="M13.7142 7.986V7.29132L10.0701 8.99953C9.5422 9.25007 8.96519 9.38011 8.3809 9.38011C7.79661 9.38011 7.2196 9.25007 6.69175 8.99953L3.05071 7.29277L3.04761 7.2941V8.75308L5.84717 10.0905C6.37503 10.341 6.95204 10.471 7.53633 10.471C8.12062 10.471 8.69763 10.341 9.22548 10.0905L13.7142 7.986Z" fill="#B85C68"/>
<path d="M10.0702 1.38055C9.54237 1.12999 8.96535 1 8.38106 1C7.79678 1 7.21976 1.12999 6.69191 1.38055L3.42034 2.91349C3.79753 2.95363 4.15077 3.11773 4.42472 3.3801C4.69867 3.64248 4.87786 3.98831 4.93422 4.36343C4.99059 4.73855 4.92094 5.12177 4.7362 5.45307C4.55145 5.78437 4.26203 6.04503 3.91328 6.19423L3.09348 6.5455C2.68662 6.7207 2.45577 6.82128 2.29958 6.90128L6.69191 8.99959C7.21976 9.25014 7.79678 9.3801 8.38106 9.3801C8.96535 9.3801 9.54237 9.25014 10.0702 8.99959L15.1681 6.6095C16.2774 6.08986 16.2774 4.29025 15.1681 3.77063L10.0702 1.38055Z" fill="url(#paint2_linear_91_207)"/>
<defs>
<linearGradient id="paint0_linear_91_207" x1="3.86888" y1="14.2593" x2="11.87" y2="7.57062" gradientUnits="userSpaceOnUse">
<stop stop-color="#B65592"/>
<stop offset="0.5" stop-color="#FB6F71"/>
<stop offset="1" stop-color="#F9CB52"/>
</linearGradient>
<linearGradient id="paint1_linear_91_207" x1="0.27213" y1="10.1275" x2="4.36384" y2="8.82874" gradientUnits="userSpaceOnUse">
<stop stop-color="#B65592"/>
<stop offset="0.5" stop-color="#FB6F71"/>
<stop offset="1" stop-color="#F9CB52"/>
</linearGradient>
<linearGradient id="paint2_linear_91_207" x1="3.27794" y1="8.86703" x2="12.3853" y2="0.831587" gradientUnits="userSpaceOnUse">
<stop stop-color="#D4A4C4"/>
<stop offset="0.5" stop-color="#F7B1B3"/>
<stop offset="1" stop-color="#F7E1A3"/>
</linearGradient>
</defs>
</svg>
