<svg width="16" height="16" viewBox="0 0 16 16" fill="none" xmlns="http://www.w3.org/2000/svg">
<g clip-path="url(#clip0_62_212)">
<path fill-rule="evenodd" clip-rule="evenodd" d="M1 13C0.448 13 0 12.552 0 12V3.992C0 1.787 1.787 0 3.992 0C6.357 0 9.643 0 12.008 0C13.067 0 14.082 0.421001 14.831 1.169C15.579 1.918 16 2.933 16 3.992C16 6.357 16 9.643 16 12.008C16 14.213 14.213 16 12.008 16C8.751 16 4 16 4 16C3.448 16 3 15.552 3 15C3 13.896 2.104 13 1 13ZM1 14C1.552 14 2 14.448 2 15C2 15.552 1.552 16 1 16C0.448 16 0 15.552 0 15C0 14.448 0.448 14 1 14Z" fill="url(#paint0_linear_62_212)"/>
<path fill-rule="evenodd" clip-rule="evenodd" d="M7.31427 10.9643H12.0285C12.4622 10.9643 12.8142 10.6123 12.8142 10.1786C12.8142 9.74488 12.4622 9.39288 12.0285 9.39288H7.31427C6.88056 9.39288 6.52856 9.74488 6.52856 10.1786C6.52856 10.6123 6.88056 10.9643 7.31427 10.9643Z" fill="#279FD7"/>
<path fill-rule="evenodd" clip-rule="evenodd" d="M3.38568 10.9643H4.95709C5.39079 10.9643 5.74279 10.6123 5.74279 10.1786C5.74279 9.74488 5.39079 9.39288 4.95709 9.39288H3.38568C2.95197 9.39288 2.59998 9.74488 2.59998 10.1786C2.59998 10.6123 2.95197 10.9643 3.38568 10.9643Z" fill="#279FD7"/>
<path fill-rule="evenodd" clip-rule="evenodd" d="M8.09996 10.5714H12.8141C13.2475 10.5714 13.6 10.2194 13.6 9.7857C13.6 9.352 13.2475 9 12.8141 9H8.09996C7.66659 9 7.31409 9.352 7.31409 9.7857C7.31409 10.2194 7.66659 10.5714 8.09996 10.5714Z" fill="url(#paint1_linear_62_212)"/>
<path fill-rule="evenodd" clip-rule="evenodd" d="M4.17145 10.5714H5.74285C6.17645 10.5714 6.52855 10.2194 6.52855 9.7857C6.52855 9.352 6.17645 9 5.74285 9H4.17145C3.73785 9 3.38574 9.352 3.38574 9.7857C3.38574 10.2194 3.73785 10.5714 4.17145 10.5714Z" fill="url(#paint2_linear_62_212)"/>
<path fill-rule="evenodd" clip-rule="evenodd" d="M3.38568 13.3215H8.09986C8.53357 13.3215 8.88557 12.9695 8.88557 12.5358C8.88557 12.1021 8.53357 11.7501 8.09986 11.7501H3.38568C2.95197 11.7501 2.59998 12.1021 2.59998 12.5358C2.59998 12.9695 2.95197 13.3215 3.38568 13.3215Z" fill="#279FD7"/>
<path fill-rule="evenodd" clip-rule="evenodd" d="M10.4571 13.3215H12.0285C12.4622 13.3215 12.8142 12.9695 12.8142 12.5358C12.8142 12.1021 12.4622 11.7501 12.0285 11.7501H10.4571C10.0234 11.7501 9.67139 12.1021 9.67139 12.5358C9.67139 12.9695 10.0234 13.3215 10.4571 13.3215Z" fill="#279FD7"/>
<path fill-rule="evenodd" clip-rule="evenodd" d="M4.17137 12.9285H8.88555C9.31892 12.9285 9.67142 12.5765 9.67142 12.1428C9.67142 11.7091 9.31892 11.3571 8.88555 11.3571H4.17137C3.738 11.3571 3.3855 11.7091 3.3855 12.1428C3.3855 12.5765 3.738 12.9285 4.17137 12.9285Z" fill="url(#paint3_linear_62_212)"/>
<path fill-rule="evenodd" clip-rule="evenodd" d="M11.2427 12.9285H12.8141C13.2477 12.9285 13.5998 12.5765 13.5998 12.1428C13.5998 11.7091 13.2477 11.3571 12.8141 11.3571H11.2427C10.8091 11.3571 10.457 11.7091 10.457 12.1428C10.457 12.5765 10.8091 12.9285 11.2427 12.9285Z" fill="url(#paint4_linear_62_212)"/>
<path d="M10.2925 6.19356C10.2241 6.08321 10.127 5.97287 10.0012 5.90298C9.90044 5.85149 9.83568 5.76689 9.77813 5.66758C9.59467 5.35126 9.70258 4.93563 10.0084 4.74804C10.368 4.53839 10.4831 4.07126 10.2745 3.70712L10.0335 3.2731C9.82849 2.90896 9.37885 2.78023 9.02272 2.99356C8.7062 3.17011 8.29974 3.05241 8.11631 2.73977C8.05876 2.63678 8.02636 2.52643 8.03358 2.41609C8.04433 2.27264 8.00118 2.13655 7.93645 2.0262C7.80335 1.79816 7.56232 1.64368 7.29616 1.64368H6.78898C6.52641 1.65103 6.28538 1.79816 6.15229 2.0262C6.08396 2.13655 6.0444 2.27264 6.05159 2.41609C6.05878 2.52643 6.02641 2.63678 5.96886 2.73977C5.78538 3.05241 5.37894 3.17011 5.06601 2.99356C4.70629 2.78023 4.26024 2.90896 4.05163 3.2731L3.8106 3.70712C3.60559 4.07126 3.72071 4.53839 4.07682 4.74804C4.38253 4.93563 4.49047 5.35126 4.31061 5.66758C4.24946 5.76689 4.18473 5.85149 4.084 5.90298C3.96169 5.97287 3.85378 6.08321 3.79623 6.19356C3.66316 6.4216 3.67035 6.7085 3.80342 6.94758L4.05163 7.38896C4.18473 7.62436 4.43289 7.77148 4.69189 7.77148C4.81417 7.77148 4.95807 7.7347 5.0732 7.66114C5.16312 7.59861 5.271 7.57654 5.38972 7.57654C5.74582 7.57654 6.0444 7.88183 6.05159 8.24597C6.05159 8.66895 6.38251 8.99999 6.79975 8.99999H7.28898C7.70263 8.99999 8.03358 8.66895 8.03358 8.24597C8.04433 7.88183 8.34291 7.57654 8.69901 7.57654C8.81411 7.57654 8.92202 7.59861 9.01553 7.66114C9.13066 7.7347 9.27094 7.77148 9.39684 7.77148C9.65222 7.77148 9.90044 7.62436 10.0335 7.38896L10.2853 6.94758C10.4148 6.70114 10.4256 6.4216 10.2925 6.19356Z" fill="#279FD7"/>
<path fill-rule="evenodd" clip-rule="evenodd" d="M11.0126 5.2593C11.1385 5.32919 11.2356 5.43953 11.304 5.54988C11.4371 5.77792 11.4263 6.05746 11.2968 6.3039L11.045 6.74528C10.9119 6.98068 10.6637 7.12781 10.4083 7.12781C10.2824 7.12781 10.1421 7.09103 10.027 7.01746C9.9335 6.95493 9.82559 6.93287 9.71049 6.93287C9.35439 6.93287 9.0558 7.23815 9.04505 7.60229C9.04505 8.02528 8.7141 8.35631 8.30045 8.35631H7.81123C7.39399 8.35631 7.06306 8.02528 7.06306 7.60229C7.05588 7.23815 6.7573 6.93287 6.40119 6.93287C6.28247 6.93287 6.17459 6.95493 6.08467 7.01746C5.96955 7.09103 5.82565 7.12781 5.70336 7.12781C5.44436 7.12781 5.1962 6.98068 5.06311 6.74528L4.81489 6.3039C4.68183 6.06482 4.67464 5.77792 4.8077 5.54988C4.86525 5.43953 4.97316 5.32919 5.09548 5.2593C5.1962 5.20781 5.26094 5.12321 5.32208 5.0239C5.50194 4.70758 5.394 4.29195 5.08829 4.10436C4.73219 3.89471 4.61706 3.42758 4.82208 3.06345L5.06311 2.62942C5.27172 2.26529 5.71776 2.13655 6.07749 2.34988C6.39041 2.52643 6.79685 2.40873 6.98033 2.09609C7.03788 1.9931 7.07025 1.88276 7.06306 1.77241C7.05588 1.62896 7.09543 1.49287 7.16376 1.38253C7.29685 1.15448 7.53789 1.00736 7.80045 1H8.30764C8.5738 1 8.81483 1.15448 8.94792 1.38253C9.01266 1.49287 9.0558 1.62896 9.04505 1.77241C9.03784 1.88276 9.07023 1.9931 9.12778 2.09609C9.31121 2.40873 9.71767 2.52643 10.0342 2.34988C10.3903 2.13655 10.84 2.26529 11.045 2.62942L11.286 3.06345C11.4946 3.42758 11.3795 3.89471 11.0198 4.10436C10.7141 4.29195 10.6061 4.70758 10.7896 5.0239C10.8472 5.12321 10.9119 5.20781 11.0126 5.2593ZM8.02169 5.59773C8.52954 5.59773 8.94123 5.18604 8.94123 4.67819C8.94123 4.17034 8.52954 3.75865 8.02169 3.75865C7.51385 3.75865 7.10216 4.17034 7.10216 4.67819C7.10216 5.18604 7.51385 5.59773 8.02169 5.59773Z" fill="url(#paint5_linear_62_212)"/>
</g>
<defs>
<linearGradient id="paint0_linear_62_212" x1="1.6" y1="16.005" x2="7.3787" y2="-1.33327" gradientUnits="userSpaceOnUse">
<stop stop-color="#22B4FA"/>
<stop offset="1" stop-color="#6BD6FE"/>
</linearGradient>
<linearGradient id="paint1_linear_62_212" x1="7.31409" y1="10.5714" x2="11.2426" y2="6.6427" gradientUnits="userSpaceOnUse">
<stop stop-color="#6BD6FE"/>
<stop offset="1" stop-color="white"/>
</linearGradient>
<linearGradient id="paint2_linear_62_212" x1="3.38574" y1="10.5714" x2="6.52855" y2="9" gradientUnits="userSpaceOnUse">
<stop stop-color="#6BD6FE"/>
<stop offset="1" stop-color="white"/>
</linearGradient>
<linearGradient id="paint3_linear_62_212" x1="3.3855" y1="12.9285" x2="7.31402" y2="8.99982" gradientUnits="userSpaceOnUse">
<stop stop-color="#6BD6FE"/>
<stop offset="1" stop-color="white"/>
</linearGradient>
<linearGradient id="paint4_linear_62_212" x1="10.457" y1="12.9285" x2="13.5998" y2="11.3571" gradientUnits="userSpaceOnUse">
<stop stop-color="#6BD6FE"/>
<stop offset="1" stop-color="white"/>
</linearGradient>
<linearGradient id="paint5_linear_62_212" x1="4.71143" y1="8.35631" x2="12.6603" y2="6.54975" gradientUnits="userSpaceOnUse">
<stop stop-color="#6BD6FE"/>
<stop offset="1" stop-color="white"/>
</linearGradient>
<clipPath id="clip0_62_212">
<rect width="16" height="16" fill="white"/>
</clipPath>
</defs>
</svg>
