<svg width="16" height="16" viewBox="0 0 16 16" fill="none" xmlns="http://www.w3.org/2000/svg">
<path fill-rule="evenodd" clip-rule="evenodd" d="M7.73899 10.5844C7.84851 10.4139 8.11576 10.4017 8.24368 10.5614L8.50277 10.8849C9.15789 11.6021 10.1201 12.2754 11.3146 12.4306L11.3175 12.431L11.3204 12.4313C11.6962 12.4783 12.0761 12.4734 12.4475 12.4181C12.8434 12.3591 13 11.9003 13 11.5V11.5C13 10.6716 13.6716 10 14.5 10V10C15.0387 10 15.7027 9.90646 15.8448 9.38681C15.949 9.00565 16 8.61558 16 8.23219C16 7.16465 15.6046 6.04373 14.7646 5.20935C14.3408 4.78536 13.8157 4.45448 13.2291 4.24191L13.2261 4.24085C12.6218 4.02376 11.9656 3.95194 11.3216 4.03217L11.3186 4.03254L11.3157 4.03292C10.12 4.18807 9.15757 4.86168 8.50235 5.57911L8.47064 5.61383C8.45451 5.63148 8.44 5.65032 8.42728 5.67015C8.25312 5.94138 7.82163 5.94953 7.60771 5.70269C7.57163 5.66108 7.53488 5.61981 7.49744 5.57892C6.84277 4.86117 5.88043 4.18803 4.68525 4.03292L4.68277 4.03261L4.68029 4.03229C4.03589 3.95149 3.37931 4.02294 2.77448 4.23982L2.77269 4.24044L2.77091 4.24109C2.18432 4.45366 1.65916 4.78454 1.23543 5.20853C0.3954 6.04293 0 7.16381 0 8.23137C0 9.29973 0.395928 10.4194 1.23523 11.2548C1.65957 11.6789 2.18544 12.0097 2.77272 12.222L2.77539 12.2229L2.77803 12.2239C3.34603 12.426 4.02491 12.5383 4.72005 12.4262L4.72259 12.4258C5.81936 12.2465 7.06691 11.6393 7.73789 10.5861L7.73899 10.5844Z" fill="url(#paint0_linear_238_54)"/>
<circle cx="15" cy="12" r="1" fill="url(#paint1_linear_238_54)"/>
<path d="M10.9713 7.5V10.6563M9.39255 9.07872H12.55M1.80005 9.1372H4.95755" stroke="#7FD1AE" stroke-width="1.5" stroke-linecap="round" stroke-linejoin="round"/>
<path d="M11.9713 6.5V9.6563M10.3925 8.07872H13.55M2.80005 8.1372H5.95755" stroke="url(#paint2_linear_238_54)" stroke-width="1.5" stroke-linecap="round" stroke-linejoin="round"/>
<defs>
<linearGradient id="paint0_linear_238_54" x1="2" y1="11.412" x2="15.2515" y2="5.63588" gradientUnits="userSpaceOnUse">
<stop stop-color="#62E8AF"/>
<stop offset="1" stop-color="#B3FBDC"/>
</linearGradient>
<linearGradient id="paint1_linear_238_54" x1="14.25" y1="12.7501" x2="16.1215" y2="12.3182" gradientUnits="userSpaceOnUse">
<stop stop-color="#62E8AF"/>
<stop offset="1" stop-color="#B3FBDC"/>
</linearGradient>
<linearGradient id="paint2_linear_238_54" x1="2.80005" y1="9.6563" x2="3.0881" y2="5.73207" gradientUnits="userSpaceOnUse">
<stop stop-color="#B3FBDC"/>
<stop offset="1" stop-color="white"/>
</linearGradient>
</defs>
</svg>
