<svg width="16" height="16" viewBox="0 0 16 16" fill="none" xmlns="http://www.w3.org/2000/svg">
<g clip-path="url(#clip0_80_5827)">
<path d="M6.39997 0.5V14.9874C6.37928 15.4126 6.39667 15.4247 6.79408 15.4247H9.28142C9.69366 15.4699 9.59998 15.3399 9.59998 14.9605V0.5H6.39997ZM9.59998 0.510203C9.59998 4.24612 9.47947 7.12338 10.1826 9.58527C10.8463 11.9094 12.1689 13.8039 14.2409 15.2418C14.5479 15.4484 14.6413 15.5655 14.8318 15.115L15.873 13.2851C16.0785 12.924 16.0418 12.924 15.709 12.7079C12.7068 10.4595 11.7635 5.74426 11.71 0.868016C11.7081 0.566925 11.7364 0.465277 11.379 0.510203H9.59998ZM6.39997 0.510203H4.62093C4.26355 0.465277 4.29189 0.566925 4.28997 0.868016C4.23643 5.74426 3.29312 10.4595 0.290987 12.7079C-0.0419065 12.924 -0.0785678 12.924 0.12692 13.2851L1.16814 15.115C1.3587 15.5655 1.452 15.4484 1.75906 15.2418C3.83104 13.8039 5.15363 11.9094 5.81739 9.58527C6.52048 7.12338 6.39997 4.24612 6.39997 0.510203Z" fill="url(#paint0_linear_80_5827)"/>
<path fill-rule="evenodd" clip-rule="evenodd" d="M9.59629 1.84347H8.53894V1.83327H6.40361H6.39997H5.60561C5.45836 1.83327 5.33894 1.95266 5.33894 2.09994V10.9289C5.5253 10.4984 5.68454 10.0504 5.81739 9.58527C6.25125 8.06609 6.3715 6.38875 6.39997 4.44908V14.9874C6.37928 15.4126 6.39667 15.4247 6.79408 15.4247H8.53894V5.7824C8.56742 7.72203 8.68766 9.39937 9.12153 10.9185C9.25438 11.3837 9.41362 11.8317 9.59998 12.2622V4.4491C9.62845 6.38876 9.7487 8.0661 10.1826 9.58527C10.8463 11.9094 12.1689 13.8039 14.2409 15.2418C14.2664 15.259 14.2905 15.2756 14.3133 15.2912C14.3433 15.3119 14.371 15.331 14.3969 15.3479L14.812 14.6184C15.0081 14.2738 14.9837 14.258 14.6918 14.0696C14.6778 14.0605 14.6632 14.0511 14.6479 14.0412C11.6458 11.7928 10.7025 7.07753 10.649 2.20128C10.6488 2.17925 10.6489 2.15828 10.6489 2.13837C10.6491 1.8861 10.6492 1.80183 10.318 1.84347H9.59998H9.59629Z" fill="#8C4FD9"/>
<path d="M6.40002 14.9874V0.766667C6.40002 0.619392 6.51943 0.5 6.66668 0.5H9.60002V0.510203H11.3791C11.7364 0.465277 11.7081 0.566925 11.71 0.868016C11.7636 5.74426 12.7069 10.4595 15.709 12.7079C16.0419 12.924 16.0786 12.924 15.8731 13.2851L14.8319 15.115C14.6413 15.5655 14.548 15.4484 14.2409 15.2418C12.169 13.8039 10.8464 11.9094 10.1826 9.58527C9.74874 8.0661 9.6285 6.38876 9.60002 4.44914V14.9605C9.60002 15.3399 9.6937 15.4699 9.28146 15.4247H6.79412C6.39671 15.4247 6.37932 15.4126 6.40002 14.9874Z" fill="url(#paint1_linear_80_5827)"/>
</g>
<defs>
<linearGradient id="paint0_linear_80_5827" x1="3.99998" y1="14.3666" x2="13.7561" y2="2.17155" gradientUnits="userSpaceOnUse">
<stop stop-color="#A056FF"/>
<stop offset="1" stop-color="#C59AFD"/>
</linearGradient>
<linearGradient id="paint1_linear_80_5827" x1="8.79581" y1="15.4333" x2="18.7445" y2="13.3002" gradientUnits="userSpaceOnUse">
<stop stop-color="#C59AFD"/>
<stop offset="1" stop-color="white"/>
</linearGradient>
<clipPath id="clip0_80_5827">
<rect width="16" height="16" fill="white"/>
</clipPath>
</defs>
</svg>
