<svg width="16" height="16" viewBox="0 0 16 16" fill="none" xmlns="http://www.w3.org/2000/svg">
<g clip-path="url(#clip0_92_306)">
<path d="M11.577 11.5773C15.5283 7.62595 17.1292 2.82177 15.1539 0.846498C13.1786 -1.12958 8.37442 0.472081 4.42306 4.42263C0.47171 8.37479 -1.12915 13.1789 0.846127 15.1542C2.8222 17.1303 7.62639 15.5278 11.577 11.5773Z" fill="url(#paint0_linear_92_306)"/>
<path fill-rule="evenodd" clip-rule="evenodd" d="M13.5591 9.26784C12.988 10.0516 12.3246 10.8297 11.577 11.5773C9.89255 13.2617 8.05295 14.5193 6.34354 15.2546C5.44586 14.632 4.55084 13.887 3.6958 13.0319C2.53397 11.8703 1.57536 10.6349 0.851111 9.41917C1.59814 7.77778 2.81626 6.02976 4.42306 4.42263C5.09461 3.75123 5.79078 3.14767 6.49351 2.61799C7.9435 3.37329 9.4501 4.47791 10.8497 5.87722C11.9406 6.96831 12.8523 8.12434 13.5591 9.26784Z" fill="#D84F4F"/>
<path d="M4.42306 11.5773C0.47171 7.62675 -1.12915 2.82177 0.846127 0.846498C2.8214 -1.12958 7.62559 0.472081 11.577 4.42263C15.5283 8.37479 17.1292 13.1789 15.1539 15.1542C13.1778 17.1303 8.37362 15.5278 4.42306 11.5773Z" fill="url(#paint1_linear_92_306)"/>
<path d="M10.0002 8.0004C10.0002 8.53082 9.7894 9.03957 9.41433 9.41464C9.03926 9.78972 8.53051 10.0005 8.00009 10.0005C7.46959 10.0005 6.96091 9.78972 6.58584 9.41464C6.21072 9.03957 6 8.53082 6 8.0004C6 7.4699 6.21072 6.96122 6.58584 6.58608C6.96091 6.21103 7.46959 6.00031 8.00009 6.00031C8.53051 6.00031 9.03926 6.21103 9.41433 6.58608C9.7894 6.96122 10.0002 7.4699 10.0002 8.0004Z" fill="url(#paint2_linear_92_306)"/>
</g>
<defs>
<linearGradient id="paint0_linear_92_306" x1="8.00001" y1="16.0007" x2="8.00001" y2="0" gradientUnits="userSpaceOnUse">
<stop stop-color="#FF1B71"/>
<stop offset="0.9998" stop-color="#FF867E"/>
<stop offset="0.9999" stop-color="#FF6678"/>
</linearGradient>
<linearGradient id="paint1_linear_92_306" x1="6.5" y1="13" x2="12.0595" y2="3.33515" gradientUnits="userSpaceOnUse">
<stop stop-color="#FF8860"/>
<stop offset="1" stop-color="white"/>
</linearGradient>
<linearGradient id="paint2_linear_92_306" x1="6.75003" y1="9.50047" x2="9.25015" y2="6.50033" gradientUnits="userSpaceOnUse">
<stop stop-color="#FF405B"/>
<stop offset="1" stop-color="#FF8860"/>
</linearGradient>
<clipPath id="clip0_92_306">
<rect width="16" height="16" fill="white"/>
</clipPath>
</defs>
</svg>
