<svg width="16" height="16" viewBox="0 0 16 16" fill="none" xmlns="http://www.w3.org/2000/svg">
<g clip-path="url(#clip0_14_852)">
<path fill-rule="evenodd" clip-rule="evenodd" d="M13 8C13 10 14.664 10.163 14.724 10.193C15.219 10.437 15.423 11.037 15.179 11.532C13.874 14.178 11.148 16 8 16C3.585 16 0 12.415 0 8C0 3.585 3.585 0 8 0C11.148 0 13.874 1.822 15.179 4.468C15.423 4.963 15.219 5.563 14.724 5.807C14.664 5.837 13 6 13 8ZM15 7C15.552 7 16 7.448 16 8C16 8.552 15.552 9 15 9C14.448 9 14 8.552 14 8C14 7.448 14.448 7 15 7Z" fill="url(#paint0_linear_14_852)"/>
<path d="M11.3423 4.89453C11.1328 4.30294 10.5544 3.93609 9.94437 4.00925C9.8037 4.03079 9.66708 4.07337 9.53909 4.13557C9.40435 4.19557 9.24067 4.27926 9.03908 4.38294L7.73695 5.0498C7.58747 5.12664 7.4701 5.18665 7.36957 5.26559C7.10997 5.47058 6.93376 5.76296 6.87377 6.08824C6.85009 6.21562 6.85009 6.34983 6.85009 6.52141V9.9457C6.4311 9.53901 5.87027 9.31136 5.28637 9.31095C4.02318 9.312 3 10.3615 3 11.6563C3 12.9505 4.02318 14 5.28584 14C6.54797 14 7.57168 12.9505 7.57168 11.6557V8.30671C7.798 8.42566 8.05906 8.47777 8.32643 8.44619C8.46381 8.42935 8.59697 8.3804 8.73223 8.31987C8.86645 8.25987 9.03013 8.17566 9.23172 8.0725L10.5344 7.40406C10.6844 7.32775 10.8012 7.26774 10.9018 7.18932C11.1597 6.98669 11.3365 6.69352 11.3976 6.36615C11.4212 6.23877 11.4212 6.10509 11.4212 5.93298V5.89245C11.4212 5.66139 11.4212 5.47349 11.4133 5.32402C11.4104 5.17836 11.3864 5.0339 11.3423 4.89506" fill="#D49F34"/>
<path d="M12.3423 3.89453C12.1328 3.30294 11.5544 2.93609 10.9444 3.00925C10.8037 3.03079 10.6671 3.07337 10.5391 3.13557C10.4044 3.19557 10.2407 3.27926 10.0391 3.38294L8.73695 4.0498C8.58747 4.12664 8.4701 4.18665 8.36957 4.26559C8.10997 4.47058 7.93376 4.76296 7.87377 5.08824C7.85009 5.21562 7.85009 5.34983 7.85009 5.52141V8.9457C7.4311 8.53901 6.87027 8.31136 6.28637 8.31095C5.02318 8.312 4 9.3615 4 10.6563C4 11.9505 5.02318 13 6.28584 13C7.54797 13 8.57168 11.9505 8.57168 10.6557V7.30671C8.798 7.42566 9.05906 7.47777 9.32643 7.44619C9.46381 7.42935 9.59697 7.3804 9.73223 7.31987C9.86645 7.25987 10.0301 7.17566 10.2317 7.0725L11.5344 6.40406C11.6844 6.32775 11.8012 6.26774 11.9018 6.18932C12.1597 5.98669 12.3365 5.69352 12.3976 5.36615C12.4212 5.23877 12.4212 5.10509 12.4212 4.93298V4.89245C12.4212 4.66139 12.4212 4.47349 12.4133 4.32402C12.4104 4.17836 12.3864 4.0339 12.3423 3.89506" fill="url(#paint1_linear_14_852)"/>
</g>
<defs>
<linearGradient id="paint0_linear_14_852" x1="3" y1="14.9988" x2="12.9991" y2="2.999" gradientUnits="userSpaceOnUse">
<stop stop-color="#FF8860"/>
<stop offset="1" stop-color="#FBD92C"/>
</linearGradient>
<linearGradient id="paint1_linear_14_852" x1="6.10531" y1="10.5" x2="11.0324" y2="6.35078" gradientUnits="userSpaceOnUse">
<stop stop-color="#FBD92C"/>
<stop offset="1" stop-color="white"/>
</linearGradient>
<clipPath id="clip0_14_852">
<rect width="16" height="16" fill="white"/>
</clipPath>
</defs>
</svg>
