<svg width="16" height="16" viewBox="0 0 16 16" fill="none" xmlns="http://www.w3.org/2000/svg">
<path d="M7.97888 1.00046C7.77151 1.00674 7.57121 1.07736 7.40578 1.20254C7.24031 1.32771 7.11788 1.50124 7.05544 1.69909C6.99301 1.89694 6.99364 2.10931 7.05724 2.30678C7.12088 2.50425 7.24434 2.67705 7.41051 2.80124L8.23651 3.43659C8.33741 3.51419 8.28251 3.67559 8.15521 3.67559H3.02055C2.88804 3.67372 2.75647 3.69819 2.63351 3.74762C2.51054 3.79702 2.39862 3.87039 2.30425 3.96342C2.20988 4.05649 2.13494 4.16735 2.08379 4.28962C2.03265 4.41185 2.00631 4.54305 2.00631 4.67559C2.00631 4.80812 2.03265 4.93932 2.08379 5.06159C2.13494 5.18382 2.20988 5.29472 2.30425 5.38775C2.39862 5.48079 2.51054 5.55415 2.63351 5.60359C2.75647 5.65299 2.88804 5.67745 3.02055 5.67559H5.11668C5.24584 5.67559 5.29954 5.84089 5.19504 5.91679L1.43266 8.65019C1.32279 8.72592 1.22918 8.82282 1.15734 8.93525C1.0855 9.04772 1.03688 9.17339 1.01436 9.30489C0.991829 9.43642 0.995849 9.57109 1.02617 9.70102C1.0565 9.83099 1.11252 9.95352 1.19093 10.0615C1.26935 10.1695 1.36857 10.2606 1.48276 10.3296C1.59695 10.3987 1.7238 10.4441 1.85583 10.4634C1.98786 10.4826 2.12241 10.4753 2.25155 10.4417C2.38069 10.4082 2.50182 10.3491 2.60779 10.2681L4.48874 8.90152C4.57221 8.84085 4.68981 8.90575 4.68721 9.00892C4.68721 9.70932 4.82514 10.4028 5.09318 11.0499C5.36121 11.697 5.75404 12.2849 6.24931 12.7802C6.74454 13.2754 7.33248 13.6683 7.97954 13.9363C8.62664 14.2043 9.32014 14.3423 10.0205 14.3423C10.7209 14.3423 11.4144 14.2043 12.0615 13.9363C12.3135 13.8319 12.341 13.4905 12.2036 13.255C12.0741 13.0332 12 12.7753 12 12.5C12 11.6716 12.6716 11 13.5 11C13.7707 11 14.0247 11.0717 14.2439 11.1972C14.4879 11.3368 14.8403 11.3097 14.9479 11.0499C15.2159 10.4028 15.3539 9.70932 15.3539 9.00892C15.3538 8.14252 15.1427 7.28915 14.7387 6.52265C14.3363 5.75899 13.7545 5.10449 13.0434 4.61529C13.0382 4.61165 13.0332 4.60765 13.0284 4.60335C13.0075 4.58442 12.9857 4.56639 12.9632 4.54929L8.62991 1.21595C8.44508 1.06964 8.21451 0.993316 7.97888 1.00046Z" fill="url(#paint0_linear_8_103)"/>
<path d="M14 14C14.5523 14 15 13.5523 15 13C15 12.4477 14.5523 12 14 12C13.4477 12 13 12.4477 13 13C13 13.5523 13.4477 14 14 14Z" fill="url(#paint1_linear_8_103)"/>
<path d="M9 12C10.1046 12 11 11.1046 11 10C11 8.89544 10.1046 8 9 8C7.89544 8 7 8.89544 7 10C7 11.1046 7.89544 12 9 12Z" fill="#D49F34"/>
<path d="M10 11C11.1046 11 12 10.1046 12 9C12 7.89544 11.1046 7 10 7C8.89544 7 8 7.89544 8 9C8 10.1046 8.89544 11 10 11Z" fill="url(#paint2_linear_8_103)"/>
<defs>
<linearGradient id="paint0_linear_8_103" x1="3.69135" y1="13.5074" x2="11.8992" y2="2.91029" gradientUnits="userSpaceOnUse">
<stop stop-color="#FF8860"/>
<stop offset="1" stop-color="#FBD92C"/>
</linearGradient>
<linearGradient id="paint1_linear_8_103" x1="3.69135" y1="13.5074" x2="11.8992" y2="2.91029" gradientUnits="userSpaceOnUse">
<stop stop-color="#FF8860"/>
<stop offset="1" stop-color="#FBD92C"/>
</linearGradient>
<linearGradient id="paint2_linear_8_103" x1="9" y1="10" x2="11" y2="8" gradientUnits="userSpaceOnUse">
<stop stop-color="#FBD92C"/>
<stop offset="1" stop-color="white"/>
</linearGradient>
</defs>
</svg>
