<svg width="16" height="16" viewBox="0 0 16 16" fill="none" xmlns="http://www.w3.org/2000/svg">
<g clip-path="url(#clip0_277_43)">
<path opacity="0.5" fill-rule="evenodd" clip-rule="evenodd" d="M1 13C0.448 13 0 12.552 0 12V3.992C0 1.787 1.787 0 3.992 0C6.357 0 9.643 0 12.008 0C13.067 0 14.082 0.421001 14.831 1.169C15.579 1.918 16 2.933 16 3.992C16 6.357 16 9.643 16 12.008C16 14.213 14.213 16 12.008 16C8.751 16 4 16 4 16C3.448 16 3 15.552 3 15C3 13.896 2.104 13 1 13ZM1 14C1.552 14 2 14.448 2 15C2 15.552 1.552 16 1 16C0.448 16 0 15.552 0 15C0 14.448 0.448 14 1 14Z" fill="url(#paint0_linear_277_43)"/>
<path d="M7.39211 9.20329L9.85049 11.6617L8.20089 12.8989C8.12957 12.9524 8.04537 12.9861 7.95682 12.9965C7.86828 13.007 7.77854 12.9938 7.69672 12.9584C7.6149 12.923 7.5439 12.8665 7.49093 12.7948C7.43796 12.7231 7.40491 12.6386 7.39511 12.55L7.39211 12.4945V9.20329ZM7.39211 3.50578C7.39206 3.41658 7.41561 3.32895 7.46038 3.2518C7.50515 3.17465 7.56953 3.11072 7.64699 3.0665C7.72446 3.02227 7.81225 2.99934 7.90144 3.00001C7.99064 3.00069 8.07807 3.02496 8.15485 3.07035L8.20089 3.10138L11.1422 5.30752C11.2061 5.35533 11.2589 5.41646 11.2968 5.48667C11.3347 5.55688 11.3569 5.63449 11.3619 5.71414C11.3668 5.79378 11.3544 5.87355 11.3255 5.94792C11.2965 6.02229 11.2518 6.08947 11.1943 6.14483L11.1422 6.18837L8.65483 8.05418L12.1392 11.539C12.229 11.6291 12.2811 11.75 12.285 11.8771C12.2888 12.0042 12.2442 12.128 12.1601 12.2233C12.076 12.3187 11.9588 12.3785 11.8322 12.3906C11.7056 12.4026 11.5792 12.3661 11.4786 12.2883L11.4315 12.2467L3.64599 4.4617C3.55623 4.37163 3.50411 4.25078 3.50023 4.12368C3.49635 3.99658 3.54099 3.87277 3.62509 3.7774C3.70919 3.68202 3.82644 3.62224 3.95302 3.61018C4.07961 3.59812 4.20603 3.63469 4.30663 3.71248L4.35367 3.75402L7.39211 6.79145V3.50578ZM6.56131 8.37298L7.277 9.08768L5.18998 10.6527C5.08817 10.729 4.9611 10.7637 4.83463 10.7497C4.70816 10.7356 4.59178 10.674 4.50915 10.5772C4.42653 10.4804 4.38387 10.3558 4.38986 10.2287C4.39584 10.1016 4.45001 9.98154 4.54135 9.89295L4.5894 9.85191L6.56131 8.37298Z" fill="url(#paint1_linear_277_43)"/>
</g>
<defs>
<linearGradient id="paint0_linear_277_43" x1="3" y1="14" x2="13" y2="2" gradientUnits="userSpaceOnUse">
<stop stop-color="#FF405B"/>
<stop offset="1" stop-color="#FF8860"/>
</linearGradient>
<linearGradient id="paint1_linear_277_43" x1="5.14723" y1="11.75" x2="11.4926" y2="5.0606" gradientUnits="userSpaceOnUse">
<stop stop-color="#FF405B"/>
<stop offset="1" stop-color="#FF8860"/>
</linearGradient>
<clipPath id="clip0_277_43">
<rect width="16" height="16" fill="white"/>
</clipPath>
</defs>
</svg>
