<svg width="16" height="16" viewBox="0 0 16 16" fill="none" xmlns="http://www.w3.org/2000/svg">
<g clip-path="url(#clip0_43_1741)">
<path fill-rule="evenodd" clip-rule="evenodd" d="M1 13C0.448 13 0 12.552 0 12V3.992C0 1.787 1.787 0 3.992 0C6.357 0 9.643 0 12.008 0C13.067 0 14.082 0.421001 14.831 1.169C15.579 1.918 16 2.933 16 3.992C16 6.357 16 9.643 16 12.008C16 14.213 14.213 16 12.008 16C8.751 16 4 16 4 16C3.448 16 3 15.552 3 15C3 13.896 2.104 13 1 13ZM1 14C1.552 14 2 14.448 2 15C2 15.552 1.552 16 1 16C0.448 16 0 15.552 0 15C0 14.448 0.448 14 1 14Z" fill="url(#paint0_linear_43_1741)"/>
<path d="M14.2754 10.38C14.3187 10.1014 14.3048 9.81696 14.2344 9.54391C14.192 9.37942 14.1297 9.22121 14.0492 9.07262C13.9551 8.89907 13.9551 8.68505 14.0492 8.51154C14.1297 8.36295 14.192 8.2047 14.2344 8.04025C14.3048 7.7672 14.3187 7.48272 14.2754 7.20413C14.255 7.05944 14.1946 6.92333 14.1012 6.81101C14.0078 6.69869 13.885 6.61458 13.7465 6.56813C13.608 6.52163 13.4592 6.51465 13.317 6.54793C13.1747 6.58121 13.0445 6.65345 12.941 6.75654L11.5358 8.1618C11.3665 8.33101 11.0918 8.32997 10.9196 8.1637C8.86859 6.18203 7.22505 5.31386 5.56677 5.50009C5.28029 5.53227 5.14643 5.85255 5.26881 6.11356C5.66098 6.94976 5.86555 7.86431 5.86499 8.7926C5.86438 9.7208 5.65881 10.635 5.26569 11.4706C5.14296 11.7316 5.27661 12.0521 5.56313 12.0845C7.22236 12.2719 8.86686 11.4038 10.9196 9.42046C11.0918 9.25419 11.3665 9.25315 11.5358 9.42236L12.941 10.8276C13.0445 10.9307 13.1747 11.0029 13.317 11.0362C13.4592 11.0695 13.608 11.0625 13.7465 11.016C13.885 10.9696 14.0078 10.8855 14.1012 10.7731C14.1946 10.6608 14.255 10.5247 14.2754 10.38Z" fill="#279FD7"/>
<path d="M7.8382 4.24406C7.45015 4.31134 7.49929 4.79592 7.86857 4.93278C8.58583 5.1986 9.25992 5.57232 9.86702 6.04218C10.0426 6.17807 10.3035 6.17534 10.3953 5.97315C10.4038 5.9543 10.4118 5.9352 10.4191 5.91582C10.4731 5.77418 10.4945 5.62218 10.4816 5.47115C10.4687 5.32011 10.4219 5.17393 10.3447 5.04349C10.2675 4.91304 10.1618 4.8017 10.0356 4.71776C9.56252 4.39664 9.0075 4.2174 8.43594 4.20116C8.23483 4.19545 8.03463 4.21 7.8382 4.24406Z" fill="#279FD7"/>
<path d="M9.99735 11.4281C10.0957 11.3528 10.2349 11.3603 10.3225 11.4479C11.1931 12.3988 9.65402 13.4203 8.8735 12.5898C8.74203 12.4583 8.77435 12.2373 8.93464 12.1432C9.30315 11.9268 9.65805 11.688 9.99735 11.4281Z" fill="#279FD7"/>
<path fill-rule="evenodd" clip-rule="evenodd" d="M3.87769 11.5312C2.85365 10.9733 1.30544 10.1299 1.30005 8.79218C1.29966 8.53166 1.35507 8.27409 1.46256 8.03675C1.57004 7.79942 1.72711 7.58791 1.92319 7.41635C2.48566 6.90519 3.10683 6.46336 3.77332 6.09997C3.96795 5.99389 4.21104 6.06175 4.31557 6.25723C4.73159 7.03515 4.95051 7.90554 4.95016 8.79171C4.9498 9.71696 4.71038 10.6249 4.25724 11.4281C4.18192 11.5616 4.01229 11.6045 3.87769 11.5312ZM3.45642 9.11606C3.54232 9.03017 3.59057 8.91365 3.59057 8.79218C3.59057 8.67072 3.54232 8.5542 3.45642 8.46831C3.37052 8.38242 3.25402 8.33415 3.13254 8.33415C3.01107 8.33415 2.89457 8.38242 2.80867 8.46831C2.72277 8.5542 2.67451 8.67072 2.67451 8.79218C2.67451 8.91365 2.72277 9.03017 2.80867 9.11606C2.89457 9.20194 3.01107 9.25022 3.13254 9.25022C3.25402 9.25022 3.37052 9.20194 3.45642 9.11606Z" fill="#279FD7"/>
<path d="M14.6753 9.48013C14.7186 9.20154 14.7047 8.91705 14.6343 8.64401C14.592 8.47952 14.5296 8.32131 14.4491 8.17272C14.355 7.99917 14.355 7.78514 14.4491 7.61164C14.5296 7.46305 14.592 7.30479 14.6343 7.14034C14.7047 6.8673 14.7186 6.58282 14.6753 6.30423C14.6549 6.15954 14.5946 6.02343 14.5011 5.91111C14.4077 5.79879 14.2849 5.71468 14.1464 5.66822C14.0079 5.62173 13.8591 5.61475 13.7169 5.64803C13.5746 5.68131 13.4444 5.75355 13.3409 5.85664L11.9357 7.26189C11.7664 7.43111 11.4917 7.43007 11.3195 7.2638C9.2685 5.28212 7.62495 4.41395 5.96667 4.60019C5.68019 4.63236 5.54633 4.95265 5.66871 5.21366C6.06088 6.04986 6.26545 6.96441 6.26489 7.8927C6.26428 8.8209 6.05871 9.73506 5.66559 10.5707C5.54286 10.8316 5.67651 11.1522 5.96303 11.1846C7.62226 11.372 9.26676 10.5039 11.3195 8.52055C11.4917 8.35428 11.7664 8.35324 11.9357 8.52246L13.3409 9.92772C13.4444 10.0308 13.5746 10.103 13.7169 10.1363C13.8591 10.1696 14.0079 10.1626 14.1464 10.1161C14.2849 10.0697 14.4077 9.98557 14.5011 9.87325C14.5946 9.76088 14.6549 9.62477 14.6753 9.48013Z" fill="url(#paint1_linear_43_1741)"/>
<path d="M8.2381 3.34415C7.85005 3.41144 7.89919 3.89602 8.26848 4.03288C8.98573 4.2987 9.65982 4.67242 10.2669 5.14227C10.4425 5.27817 10.7034 5.27544 10.7952 5.07324C10.8037 5.05439 10.8117 5.03529 10.819 5.01592C10.873 4.87428 10.8944 4.72228 10.8815 4.57125C10.8686 4.42021 10.8218 4.27403 10.7446 4.14358C10.6674 4.01314 10.5617 3.9018 10.4355 3.81786C9.96242 3.49674 9.40741 3.3175 8.83584 3.30126C8.63473 3.29555 8.43453 3.31009 8.2381 3.34415Z" fill="url(#paint2_linear_43_1741)"/>
<path d="M10.3973 10.5282C10.4956 10.4529 10.6348 10.4604 10.7224 10.548C11.593 11.4989 10.0539 12.5204 9.2734 11.6899C9.14193 11.5584 9.17425 11.3374 9.33454 11.2433C9.70305 11.0269 10.058 10.7881 10.3973 10.5282Z" fill="url(#paint3_linear_43_1741)"/>
<path fill-rule="evenodd" clip-rule="evenodd" d="M4.27759 10.6313C3.25355 10.0734 1.70534 9.23002 1.69995 7.89228C1.69956 7.63176 1.75497 7.37419 1.86246 7.13685C1.96994 6.89951 2.12701 6.688 2.32309 6.51645C2.88556 6.00529 3.50673 5.56346 4.17322 5.20007C4.36785 5.09399 4.61094 5.16185 4.71548 5.35732C5.13149 6.13524 5.35041 7.00564 5.35006 7.8918C5.3497 8.81706 5.11028 9.72498 4.65714 10.5282C4.58183 10.6617 4.41219 10.7046 4.27759 10.6313ZM3.85632 8.21615C3.94222 8.13027 3.99047 8.01374 3.99047 7.89228C3.99047 7.77082 3.94222 7.65429 3.85632 7.56841C3.77042 7.48252 3.65392 7.43425 3.53245 7.43425C3.41097 7.43425 3.29447 7.48252 3.20857 7.56841C3.12268 7.65429 3.07442 7.77082 3.07442 7.89228C3.07442 8.01374 3.12268 8.13027 3.20857 8.21615C3.29447 8.30204 3.41097 8.35031 3.53245 8.35031C3.65392 8.35031 3.77042 8.30204 3.85632 8.21615Z" fill="url(#paint4_linear_43_1741)"/>
</g>
<defs>
<linearGradient id="paint0_linear_43_1741" x1="1.6" y1="16.005" x2="7.3787" y2="-1.33327" gradientUnits="userSpaceOnUse">
<stop stop-color="#22B4FA"/>
<stop offset="1" stop-color="#6BD6FE"/>
</linearGradient>
<linearGradient id="paint1_linear_43_1741" x1="5.62" y1="11.2095" x2="15.7803" y2="7.73292" gradientUnits="userSpaceOnUse">
<stop stop-color="#6BD6FE"/>
<stop offset="1" stop-color="white"/>
</linearGradient>
<linearGradient id="paint2_linear_43_1741" x1="7.96851" y1="5.23598" x2="11.1614" y2="4.03339" gradientUnits="userSpaceOnUse">
<stop stop-color="#6BD6FE"/>
<stop offset="1" stop-color="white"/>
</linearGradient>
<linearGradient id="paint3_linear_43_1741" x1="9.19177" y1="11.9959" x2="11.2503" y2="11.3897" gradientUnits="userSpaceOnUse">
<stop stop-color="#6BD6FE"/>
<stop offset="1" stop-color="white"/>
</linearGradient>
<linearGradient id="paint4_linear_43_1741" x1="1.69995" y1="10.6668" x2="6.14107" y2="9.93221" gradientUnits="userSpaceOnUse">
<stop stop-color="#6BD6FE"/>
<stop offset="1" stop-color="white"/>
</linearGradient>
<clipPath id="clip0_43_1741">
<rect width="16" height="16" fill="white"/>
</clipPath>
</defs>
</svg>
