<svg width="16" height="16" viewBox="0 0 16 16" fill="none" xmlns="http://www.w3.org/2000/svg">
<path d="M6.96667 1.16663H2.28095C1.84965 1.16663 1.5 1.51627 1.5 1.94758V4.68091C1.5 5.11223 1.84965 5.46186 2.28095 5.46186H6.96667C7.39797 5.46186 7.74762 5.11223 7.74762 4.68091V1.94758C7.74762 1.51627 7.39797 1.16663 6.96667 1.16663Z" fill="url(#paint0_linear_146_15971)"/>
<path d="M10.0904 5.85242H5.40473C4.97341 5.85242 4.62378 6.20207 4.62378 6.63337V9.3667C4.62378 9.79802 4.97341 10.1477 5.40473 10.1477H10.0904C10.5217 10.1477 10.8714 9.79802 10.8714 9.3667V6.63337C10.8714 6.20207 10.5217 5.85242 10.0904 5.85242Z" fill="url(#paint1_linear_146_15971)"/>
<path fill-rule="evenodd" clip-rule="evenodd" d="M8.91905 1.16663H13.6048C14.0361 1.16663 14.3857 1.51627 14.3857 1.94758V4.68091C14.3857 5.11223 14.0361 5.46186 13.6048 5.46186H8.91905C8.48773 5.46186 8.1381 5.11223 8.1381 4.68091V1.94758C8.1381 1.51627 8.48773 1.16663 8.91905 1.16663ZM12.0428 5.85234H13.6048C14.0361 5.85234 14.3857 6.20199 14.3857 6.63329V9.36663C14.3857 9.79793 14.0361 10.1476 13.6048 10.1476H12.0428C11.6115 10.1476 11.2619 9.79793 11.2619 9.36663V6.63329C11.2619 6.20199 11.6115 5.85234 12.0428 5.85234ZM8.91905 10.5381C8.48773 10.5381 8.1381 10.8877 8.1381 11.319V14.0523C8.1381 14.4836 8.48773 14.8333 8.91905 14.8333H13.6048C14.0361 14.8333 14.3857 14.4836 14.3857 14.0523V11.319C14.3857 10.8877 14.0361 10.5381 13.6048 10.5381H8.91905ZM2.28095 10.5381H6.96667C7.39797 10.5381 7.74762 10.8877 7.74762 11.319V14.0523C7.74762 14.4836 7.39797 14.8333 6.96667 14.8333H2.28095C1.84965 14.8333 1.5 14.4836 1.5 14.0523V11.319C1.5 10.8877 1.84965 10.5381 2.28095 10.5381Z" fill="url(#paint2_linear_146_15971)"/>
<defs>
<linearGradient id="paint0_linear_146_15971" x1="3.28433" y1="5.46177" x2="4.33093" y2="1.83732" gradientUnits="userSpaceOnUse">
<stop stop-color="#FF8860"/>
<stop offset="1" stop-color="white"/>
</linearGradient>
<linearGradient id="paint1_linear_146_15971" x1="6.40811" y1="10.1476" x2="7.4547" y2="6.52311" gradientUnits="userSpaceOnUse">
<stop stop-color="#FF8860"/>
<stop offset="1" stop-color="white"/>
</linearGradient>
<linearGradient id="paint2_linear_146_15971" x1="3.91607" y1="13.125" x2="12.5343" y2="3.37403" gradientUnits="userSpaceOnUse">
<stop stop-color="#FF405B"/>
<stop offset="1" stop-color="#FF8860"/>
</linearGradient>
</defs>
</svg>
