<svg width="16" height="16" viewBox="0 0 16 16" fill="none" xmlns="http://www.w3.org/2000/svg">
<g clip-path="url(#clip0_80_5679)">
<path fill-rule="evenodd" clip-rule="evenodd" d="M4.46445 11.5355C3.05024 10.1213 1.75835 11.1827 1.69471 11.2039C1.17216 11.3814 0.603648 11.1013 0.426164 10.5788C-0.522065 7.78501 0.117159 4.56909 2.34313 2.34312C5.46501 -0.77876 10.535 -0.77876 13.6568 2.34312C16.7787 5.46499 16.7787 10.5349 13.6568 13.6568C11.4309 15.8828 8.21495 16.522 5.42117 15.5738C4.89861 15.3963 4.6186 14.8278 4.79608 14.3052C4.8173 14.2416 5.87867 12.9497 4.46445 11.5355ZM3.75734 13.6568C3.36702 14.0471 2.73345 14.0471 2.34313 13.6568C1.95281 13.2665 1.95281 12.6329 2.34313 12.2426C2.73345 11.8523 3.36702 11.8523 3.75734 12.2426C4.14767 12.6329 4.14767 13.2665 3.75734 13.6568Z" fill="url(#paint0_linear_80_5679)"/>
<path fill-rule="evenodd" clip-rule="evenodd" d="M2.62309 10.9162C3.11792 10.8541 3.75278 10.9739 4.4144 11.6355C5.0877 12.3088 5.19987 12.9544 5.13031 13.4529C5.76098 13.7401 6.46178 13.9 7.19995 13.9C9.96137 13.9 12.2 11.6614 12.2 8.90002C12.2 6.1386 9.96137 3.90002 7.19995 3.90002C4.43853 3.90002 2.19995 6.1386 2.19995 8.90002C2.19995 9.61739 2.35102 10.2995 2.62309 10.9162ZM3.93083 12.6834C3.73214 12.5115 3.54712 12.3243 3.37764 12.1235C3.49762 12.1723 3.61001 12.2454 3.7073 12.3426C3.80756 12.4429 3.88207 12.5592 3.93083 12.6834ZM3.55581 8.90002C3.55581 10.9126 5.18735 12.5442 7.19995 12.5442C9.21255 12.5442 10.8441 10.9126 10.8441 8.90002C10.8441 6.88742 9.21255 5.25589 7.19995 5.25589C5.18735 5.25589 3.55581 6.88742 3.55581 8.90002ZM9.19995 8.90002C9.19995 10.0046 8.30452 10.9 7.19995 10.9C6.09538 10.9 5.19995 10.0046 5.19995 8.90002C5.19995 7.79545 6.09538 6.90002 7.19995 6.90002C8.30452 6.90002 9.19995 7.79545 9.19995 8.90002Z" fill="#8C4FD9"/>
<circle cx="8.19995" cy="7.90002" r="2" fill="url(#paint1_linear_80_5679)"/>
<path d="M13.2 7.90002C13.2 10.6614 10.9614 12.9 8.19995 12.9C5.43853 12.9 3.19995 10.6614 3.19995 7.90002C3.19995 5.1386 5.43853 2.90002 8.19995 2.90002C10.9614 2.90002 13.2 5.1386 13.2 7.90002ZM4.55581 7.90002C4.55581 9.91263 6.18735 11.5442 8.19995 11.5442C10.2126 11.5442 11.8441 9.91263 11.8441 7.90002C11.8441 5.88742 10.2126 4.25589 8.19995 4.25589C6.18735 4.25589 4.55581 5.88742 4.55581 7.90002Z" fill="url(#paint2_linear_80_5679)"/>
</g>
<defs>
<linearGradient id="paint0_linear_80_5679" x1="4.00057" y1="14.856" x2="14.5868" y2="2.50543" gradientUnits="userSpaceOnUse">
<stop stop-color="#A056FF"/>
<stop offset="1" stop-color="#C59AFD"/>
</linearGradient>
<linearGradient id="paint1_linear_80_5679" x1="6.94995" y1="9.64973" x2="9.44972" y2="6.64977" gradientUnits="userSpaceOnUse">
<stop stop-color="#FF8860"/>
<stop offset="1" stop-color="#FBD92C"/>
</linearGradient>
<linearGradient id="paint2_linear_80_5679" x1="5.69995" y1="12.9" x2="15.45" y2="9.65002" gradientUnits="userSpaceOnUse">
<stop stop-color="#C59AFD"/>
<stop offset="1" stop-color="white"/>
</linearGradient>
<clipPath id="clip0_80_5679">
<rect width="16" height="16" fill="white"/>
</clipPath>
</defs>
</svg>
