<svg width="16" height="16" viewBox="0 0 16 16" fill="none" xmlns="http://www.w3.org/2000/svg">
<g clip-path="url(#clip0_18_2407)">
<path fill-rule="evenodd" clip-rule="evenodd" d="M8.99044 14.8641C8.99044 15.4111 8.5465 15.855 7.9995 15.855C7.45251 15.855 7.00857 15.4111 7.00857 14.8641C7.00857 14.3171 7.45251 13.8731 7.9995 13.8731C8.5465 13.8731 8.99044 14.3171 8.99044 14.8641ZM7.9995 12.8822C6.01763 12.8822 5.85809 14.4895 5.82241 14.547C5.53207 15.0098 4.91967 15.1495 4.4569 14.8591C1.64957 13.0963 0.457468 9.28114 0.0858657 7.10305C0.049201 6.88802 0.0244275 6.6819 0.00857252 6.48768C0.00857252 6.48471 0.00758153 6.48173 0.00758153 6.47876C-0.0825939 5.24306 0.63881 4.09258 1.78929 3.63377C1.79226 3.63278 1.79424 3.63179 1.79623 3.6308C2.99328 3.16407 3.94954 2.68049 4.61347 1.62613C4.61644 1.62118 4.61842 1.61721 4.62139 1.61325C5.25956 0.631228 6.34662 0.0346829 7.50998 0.0227916C7.81816 0.000990941 8.13923 0 8.44642 0C9.63753 0 10.7474 0.602491 11.3964 1.60136C11.4014 1.60929 11.4064 1.6182 11.4113 1.62613C12.0564 2.68644 13.0107 3.16605 14.2028 3.62981C14.2048 3.62981 14.2077 3.6308 14.2097 3.63179C15.3612 4.0906 16.0826 5.24306 15.9924 6.47876C15.9924 6.48471 15.9914 6.49065 15.9914 6.4966C15.9736 6.68785 15.9488 6.89 15.9131 7.10305C15.5415 9.28114 14.3494 13.0963 11.5421 14.8591C11.0793 15.1495 10.4669 15.0098 10.1766 14.547C10.1409 14.4895 9.98138 12.8822 7.9995 12.8822Z" fill="url(#paint0_linear_18_2407)"/>
<path d="M6.67764 5.13822L4.99695 6.47693C4.29215 7.03827 3.93933 7.31936 4.00856 7.63214L4.01189 7.64799C4.0903 7.9591 4.53737 8.07921 5.43151 8.3186C5.92779 8.45205 6.17635 8.51878 6.29312 8.70644L6.29896 8.71645C6.41156 8.90746 6.34734 9.14601 6.21972 9.6231L6.18636 9.74822C5.83104 11.0711 5.65421 11.7325 5.99536 11.946C6.33733 12.1596 6.87949 11.7275 7.9663 10.8617L9.64698 9.52385C10.3526 8.96167 10.7046 8.68142 10.6362 8.36781L10.6329 8.35196C10.5536 8.04084 10.1074 7.92074 9.21326 7.68135C8.71698 7.5479 8.46842 7.48117 8.35165 7.2935L8.34581 7.28349C8.23321 7.09332 8.29743 6.85477 8.42505 6.37767L8.45841 6.25256C8.8129 4.9297 8.99056 4.26743 8.64942 4.05391C8.30744 3.84038 7.76445 4.27327 6.67764 5.13822Z" fill="#D84F4F"/>
<path d="M7.67764 4.13822L5.99695 5.47693C5.29215 6.03827 4.93933 6.31936 5.00856 6.63214L5.01189 6.64799C5.0903 6.9591 5.53737 7.07921 6.43151 7.3186C6.92779 7.45205 7.17635 7.51878 7.29312 7.70644L7.29896 7.71645C7.41156 7.90746 7.34734 8.14601 7.21972 8.6231L7.18636 8.74822C6.83104 10.0711 6.65421 10.7325 6.99536 10.946C7.33733 11.1596 7.87949 10.7275 8.9663 9.86172L10.647 8.52385C11.3526 7.96167 11.7046 7.68142 11.6362 7.36781L11.6329 7.35196C11.5536 7.04084 11.1074 6.92074 10.2133 6.68135C9.71698 6.5479 9.46842 6.48117 9.35165 6.2935L9.34581 6.28349C9.23321 6.09332 9.29743 5.85477 9.42505 5.37767L9.45841 5.25256C9.8129 3.9297 9.99056 3.26743 9.64942 3.05391C9.30744 2.84038 8.76445 3.27327 7.67764 4.13822Z" fill="url(#paint1_linear_18_2407)"/>
</g>
<defs>
<linearGradient id="paint0_linear_18_2407" x1="3" y1="13.8731" x2="12.8927" y2="1.89331" gradientUnits="userSpaceOnUse">
<stop stop-color="#FF405B"/>
<stop offset="1" stop-color="#FF8860"/>
</linearGradient>
<linearGradient id="paint1_linear_18_2407" x1="6.89771" y1="10.9998" x2="9.84293" y2="5.17568" gradientUnits="userSpaceOnUse">
<stop stop-color="#FF8860"/>
<stop offset="1" stop-color="white"/>
</linearGradient>
<clipPath id="clip0_18_2407">
<rect width="16" height="16" fill="white"/>
</clipPath>
</defs>
</svg>
