<svg width="16" height="16" viewBox="0 0 16 16" fill="none" xmlns="http://www.w3.org/2000/svg">
<path fill-rule="evenodd" clip-rule="evenodd" d="M4.46445 4.46445C5.87867 3.05024 4.8173 1.75835 4.79608 1.69471C4.6186 1.17216 4.89861 0.603648 5.42117 0.426164C8.21495 -0.522065 11.4309 0.117159 13.6568 2.34313C16.7787 5.46501 16.7787 10.535 13.6568 13.6568C10.535 16.7787 5.46501 16.7787 2.34313 13.6568C0.117159 11.4309 -0.522066 8.21495 0.426164 5.42117C0.603648 4.89861 1.17216 4.6186 1.69471 4.79608C1.75835 4.8173 3.05024 5.87867 4.46445 4.46445ZM2.34313 3.75734C1.95281 3.36702 1.95281 2.73345 2.34313 2.34313C2.73345 1.95281 3.36702 1.95281 3.75734 2.34313C4.14767 2.73345 4.14767 3.36702 3.75734 3.75734C3.36702 4.14767 2.73345 4.14767 2.34313 3.75734Z" fill="url(#paint0_linear_249_224)"/>
<path fill-rule="evenodd" clip-rule="evenodd" d="M7.40251 15.2761C5.84818 15.1606 4.32128 14.5934 3.03617 13.5746C3.02022 13.5196 3.00989 13.4622 3.00616 13.4027C2.97037 13.1088 3.09353 12.8207 3.29884 12.635C3.66974 12.2619 4.03647 11.884 4.40317 11.5061C4.93778 10.9551 5.47236 10.4042 6.01976 9.86859C6.34443 9.60093 6.89193 9.83883 6.97695 10.2724C7.21067 11.2073 7.44075 12.1436 7.67078 13.0797L7.68171 13.1242L7.68181 13.1245L7.6819 13.1249L7.682 13.1253L7.68209 13.1257C7.77033 13.4847 7.85856 13.8438 7.94699 14.2026C8.07888 14.6471 7.81656 15.1645 7.40251 15.2761ZM12.4982 4.74262C12.2772 4.35506 11.761 4.1745 11.3922 4.39634C11.2731 4.47147 11.1728 4.57351 11.0734 4.67471C11.0551 4.69332 11.0368 4.71192 11.0185 4.7303C10.6542 5.10561 10.2886 5.47938 9.92304 5.85309L9.92303 5.8531L9.92297 5.85316L9.92285 5.85328L9.90723 5.86925C9.4357 6.35129 8.96406 6.83344 8.49532 7.31868C8.19399 7.62729 8.32984 8.24185 8.73585 8.39285C9.40466 8.62034 10.0764 8.83704 10.7482 9.05375L10.7518 9.0549C11.2542 9.21697 11.7568 9.3791 12.258 9.54574L12.2582 9.54579C12.4544 9.61133 12.6798 9.68662 12.8816 9.62394C13.2427 9.55164 13.4955 9.18826 13.5062 8.80449C13.5639 7.39661 13.2039 5.96073 12.4982 4.74262ZM8.63704 9.30791C8.43133 9.22933 8.19164 9.23751 8.01994 9.38241C7.8305 9.53751 7.7367 9.81501 7.80589 10.0673C8.12974 11.4037 8.45801 12.739 8.79414 14.0714C8.92252 14.5544 9.48863 14.852 9.91166 14.6418C11.1276 14.0328 12.1377 12.9931 12.7646 11.7336C12.9961 11.2687 12.7244 10.6185 12.2347 10.4789C11.5999 10.2703 10.9642 10.0642 10.3285 9.85818C9.76452 9.67537 9.20049 9.49254 8.63704 9.30791Z" fill="#D49F34"/>
<path fill-rule="evenodd" clip-rule="evenodd" d="M13.4982 3.74262C13.2772 3.35506 12.761 3.1745 12.3922 3.39634C12.2731 3.47147 12.1728 3.57351 12.0734 3.67471C12.0551 3.69332 12.0368 3.71192 12.0185 3.7303C11.6489 4.11103 11.278 4.49016 10.9072 4.86925C10.4357 5.35129 9.96406 5.83344 9.49532 6.31868C9.19399 6.62729 9.32984 7.24185 9.73585 7.39285C10.4047 7.62034 11.0764 7.83704 11.7482 8.05375C12.2518 8.2162 12.7556 8.37871 13.258 8.54574C13.4543 8.6113 13.6798 8.68664 13.8816 8.62394C14.2427 8.55164 14.4955 8.18826 14.5062 7.80449C14.5639 6.39661 14.2039 4.96073 13.4982 3.74262Z" fill="url(#paint1_linear_249_224)"/>
<path d="M7.97695 9.27241C7.89193 8.83883 7.34443 8.60093 7.01976 8.86859C6.47236 9.40419 5.93778 9.95511 5.40317 10.5061C5.03647 10.884 4.66974 11.2619 4.29884 11.635C4.09353 11.8207 3.97037 12.1088 4.00616 12.4027C4.02827 12.755 4.28114 13.0313 4.56323 13.192C5.66743 13.9266 6.96781 14.3342 8.25315 14.2978C8.75061 14.2852 9.09413 13.6985 8.94699 13.2026C8.85844 12.8432 8.77008 12.4837 8.68171 12.1242L8.67078 12.0797C8.44075 11.1436 8.21067 10.2073 7.97695 9.27241Z" fill="url(#paint2_linear_249_224)"/>
<path d="M9.01994 8.38241C9.19164 8.23751 9.43134 8.22933 9.63704 8.30791C10.2005 8.49254 10.7645 8.67537 11.3285 8.85818C11.9642 9.06424 12.5999 9.27029 13.2347 9.4789C13.7244 9.61845 13.9961 10.2687 13.7646 10.7336C13.1377 11.9931 12.1276 13.0328 10.9117 13.6418C10.4886 13.852 9.92252 13.5544 9.79414 13.0714C9.45802 11.739 9.12974 10.4037 8.80589 9.06734C8.7367 8.81501 8.8305 8.53751 9.01994 8.38241Z" fill="url(#paint3_linear_249_224)"/>
<defs>
<linearGradient id="paint0_linear_249_224" x1="3.00076" y1="14.9973" x2="12.9979" y2="2.99976" gradientUnits="userSpaceOnUse">
<stop stop-color="#FF8860"/>
<stop offset="1" stop-color="#FBD92C"/>
</linearGradient>
<linearGradient id="paint1_linear_249_224" x1="6.62804" y1="11.55" x2="12.1224" y2="6.29937" gradientUnits="userSpaceOnUse">
<stop stop-color="#FBD92C"/>
<stop offset="1" stop-color="white"/>
</linearGradient>
<linearGradient id="paint2_linear_249_224" x1="6.62804" y1="11.55" x2="12.1224" y2="6.29937" gradientUnits="userSpaceOnUse">
<stop stop-color="#FBD92C"/>
<stop offset="1" stop-color="white"/>
</linearGradient>
<linearGradient id="paint3_linear_249_224" x1="6.62804" y1="11.55" x2="12.1224" y2="6.29937" gradientUnits="userSpaceOnUse">
<stop stop-color="#FBD92C"/>
<stop offset="1" stop-color="white"/>
</linearGradient>
</defs>
</svg>
