<svg width="15" height="15" viewBox="0 0 15 15" fill="none" xmlns="http://www.w3.org/2000/svg">
<path fill-rule="evenodd" clip-rule="evenodd" d="M0.759391 11.8721C0.340207 11.8721 0 11.5319 0 11.1127V5.03149C0 3.35703 1.35703 2 3.03149 2C4.82745 2 7.32281 2 9.11877 2C9.92296 2 10.6937 2.3197 11.2625 2.88773C11.8306 3.45651 12.1503 4.22729 12.1503 5.03149C12.1503 6.82745 12.1503 9.32281 12.1503 11.1188C12.1503 12.7932 10.7932 14.1503 9.11877 14.1503C6.64543 14.1503 3.03756 14.1503 3.03756 14.1503C2.61838 14.1503 2.27817 13.8101 2.27817 13.3909C2.27817 12.5525 1.59776 11.8721 0.759391 11.8721ZM0.759391 12.6315C1.17858 12.6315 1.51878 12.9717 1.51878 13.3909C1.51878 13.8101 1.17858 14.1503 0.759391 14.1503C0.340207 14.1503 0 13.8101 0 13.3909C0 12.9717 0.340207 12.6315 0.759391 12.6315Z" fill="url(#paint0_linear_92_423)"/>
<path fill-rule="evenodd" clip-rule="evenodd" d="M12.1503 6.4103V5.0315C12.1503 4.58923 12.0536 4.15707 11.8721 3.76306L6.8939 9.15607L4.70711 6.96927C4.31658 6.57874 3.68342 6.57874 3.29289 6.96927C2.90237 7.35979 2.90237 7.99296 3.29289 8.38348L6.21564 11.3062C6.40807 11.4987 6.67063 11.6044 6.94273 11.5989C7.21482 11.5935 7.47295 11.4774 7.65755 11.2774L12.1503 6.4103Z" fill="#344CD8"/>
<path d="M5.06262 7.68889L7.98537 10.6117L14 4" stroke="url(#paint1_linear_92_423)" stroke-width="2" stroke-linecap="round" stroke-linejoin="round"/>
<defs>
<linearGradient id="paint0_linear_92_423" x1="0.759391" y1="14.1568" x2="14.0941" y2="4.76697" gradientUnits="userSpaceOnUse">
<stop stop-color="#2E4AFA"/>
<stop offset="1" stop-color="#8E9EFF"/>
</linearGradient>
<linearGradient id="paint1_linear_92_423" x1="5.06255" y1="10.6117" x2="16.2616" y2="10.1926" gradientUnits="userSpaceOnUse">
<stop offset="0.00589868" stop-color="#8E9EFF"/>
<stop offset="1" stop-color="white"/>
</linearGradient>
</defs>
</svg>
