<svg width="16" height="16" viewBox="0 0 16 16" fill="none" xmlns="http://www.w3.org/2000/svg">
<g clip-path="url(#clip0_44_127)">
<path fill-rule="evenodd" clip-rule="evenodd" d="M1 13C0.448 13 0 12.552 0 12V3.992C0 1.787 1.787 0 3.992 0C6.357 0 9.643 0 12.008 0C13.067 0 14.082 0.421001 14.831 1.169C15.579 1.918 16 2.933 16 3.992C16 6.357 16 9.643 16 12.008C16 14.213 14.213 16 12.008 16C8.751 16 4 16 4 16C3.448 16 3 15.552 3 15C3 13.896 2.104 13 1 13ZM1 14C1.552 14 2 14.448 2 15C2 15.552 1.552 16 1 16C0.448 16 0 15.552 0 15C0 14.448 0.448 14 1 14Z" fill="url(#paint0_linear_44_127)"/>
<path d="M9 3.84416C9 3.37795 9.37792 3 9.84415 3H11.7833C12.6404 3 13.3277 3.70368 13.3277 4.56238V6.50023C13.3277 6.9622 12.9532 7.3367 12.4913 7.3367C12.0293 7.3367 11.6548 6.9622 11.6548 6.50023V5.18835C11.6548 4.9122 11.4309 4.68835 11.1548 4.68835H9.84415C9.37792 4.68835 9 4.3104 9 3.84416Z" fill="#D49F34"/>
<path d="M12.4913 11C12.0293 11 11.6548 11.3745 11.6548 11.8365V13.1484C11.6548 13.4245 11.4309 13.6484 11.1548 13.6484H9.84415C9.37792 13.6484 9 14.0263 9 14.4926C9 14.9588 9.37797 15.3367 9.84415 15.3367H11.7833C12.6404 15.3367 13.3277 14.6331 13.3277 13.7744V11.8365C13.3277 11.3745 12.9532 11 12.4913 11Z" fill="#D49F34"/>
<path d="M2.54443 3C1.68734 3 1 3.70368 1 4.56238V6.50023C1 6.9622 1.37449 7.3367 1.83646 7.3367C2.29842 7.3367 2.67295 6.9622 2.67295 6.50023V5.18835C2.67295 4.9122 2.8968 4.68835 3.17295 4.68835H4.48355C4.94983 4.68835 5.32772 4.31037 5.32772 3.84416C5.32772 3.37798 4.9498 3 4.48355 3H2.54443Z" fill="#D49F34"/>
<path d="M9.80005 2.84416C9.80005 2.37795 10.178 2 10.6442 2H12.5834C13.4404 2 14.1277 2.70368 14.1277 3.56238V5.50023C14.1277 5.9622 13.7532 6.3367 13.2913 6.3367C12.8293 6.3367 12.4548 5.9622 12.4548 5.50023V4.18835C12.4548 3.9122 12.231 3.68835 11.9548 3.68835H10.6442C10.178 3.68835 9.80005 3.3104 9.80005 2.84416Z" fill="url(#paint1_linear_44_127)"/>
<path d="M13.2913 10C12.8293 10 12.4548 10.3745 12.4548 10.8365V12.1484C12.4548 12.4245 12.231 12.6484 11.9548 12.6484H10.6442C10.178 12.6484 9.80005 13.0263 9.80005 13.4926C9.80005 13.9588 10.178 14.3367 10.6442 14.3367H12.5834C13.4404 14.3367 14.1277 13.6331 14.1277 12.7744V10.8365C14.1277 10.3745 13.7532 10 13.2913 10Z" fill="url(#paint2_linear_44_127)"/>
<path d="M3.34447 2C2.48739 2 1.80005 2.70368 1.80005 3.56238V5.50023C1.80005 5.9622 2.17454 6.3367 2.63651 6.3367C3.09847 6.3367 3.473 5.9622 3.473 5.50023V4.18835C3.473 3.9122 3.69685 3.68835 3.973 3.68835H5.2836C5.74987 3.68835 6.12777 3.31037 6.12777 2.84416C6.12777 2.37798 5.74985 2 5.2836 2H3.34447Z" fill="url(#paint3_linear_44_127)"/>
<circle cx="7" cy="9" r="2" fill="#D49F34"/>
<circle cx="8" cy="8" r="2" fill="url(#paint4_linear_44_127)"/>
</g>
<defs>
<linearGradient id="paint0_linear_44_127" x1="3" y1="14.9988" x2="12.9991" y2="2.999" gradientUnits="userSpaceOnUse">
<stop stop-color="#FF8860"/>
<stop offset="1" stop-color="#FBD92C"/>
</linearGradient>
<linearGradient id="paint1_linear_44_127" x1="10.882" y1="5.25252" x2="13.0503" y2="3.08868" gradientUnits="userSpaceOnUse">
<stop stop-color="#FBD92C"/>
<stop offset="1" stop-color="white"/>
</linearGradient>
<linearGradient id="paint2_linear_44_127" x1="10.882" y1="13.2525" x2="13.0503" y2="11.0887" gradientUnits="userSpaceOnUse">
<stop stop-color="#FBD92C"/>
<stop offset="1" stop-color="white"/>
</linearGradient>
<linearGradient id="paint3_linear_44_127" x1="2.88198" y1="5.25252" x2="5.05033" y2="3.08867" gradientUnits="userSpaceOnUse">
<stop stop-color="#FBD92C"/>
<stop offset="1" stop-color="white"/>
</linearGradient>
<linearGradient id="paint4_linear_44_127" x1="7" y1="9" x2="9" y2="7" gradientUnits="userSpaceOnUse">
<stop stop-color="#FBD92C"/>
<stop offset="1" stop-color="white"/>
</linearGradient>
<clipPath id="clip0_44_127">
<rect width="16" height="16" fill="white"/>
</clipPath>
</defs>
</svg>
