<svg width="16" height="16" viewBox="0 0 16 16" fill="none" xmlns="http://www.w3.org/2000/svg">
<g clip-path="url(#clip0_92_391)">
<path fill-rule="evenodd" clip-rule="evenodd" d="M3 1C3 0.448 3.448 0 4 0C4 0 9.853 0 13.02 0C13.811 0 14.568 0.313999 15.127 0.872999C15.686 1.432 16 2.189 16 2.98C16 5.644 16 10.356 16 13.02C16 13.811 15.686 14.568 15.127 15.127C14.568 15.686 13.811 16 13.02 16C10.356 16 5.644 16 2.98 16C2.189 16 1.432 15.686 0.873 15.127C0.314 14.568 0 13.811 0 13.02V4C0 3.448 0.448 3 1 3C2.104 3 3 2.104 3 1ZM0 1C0 0.448 0.448 0 1 0C1.552 0 2 0.448 2 1C2 1.552 1.552 2 1 2C0.448 2 0 1.552 0 1Z" fill="url(#paint0_linear_92_391)"/>
<path d="M9.55664 7.36797C9.42098 7.1465 9.28824 6.93017 9.15918 6.77617C9.02204 6.6119 8.78151 6.38604 8.41338 6.4007C8.04524 6.41537 7.82378 6.65957 7.69984 6.8341C7.58324 6.9991 7.46884 7.22424 7.35151 7.45597L5.89364 10.3306C5.83864 10.4392 5.79318 10.5294 5.75211 10.6071C5.69316 10.5218 5.63498 10.436 5.57758 10.3497L5.44851 10.1546C5.32084 9.95616 5.18455 9.76336 5.04004 9.57676C4.90464 9.39989 4.73443 9.25262 4.53991 9.14409C4.34152 9.04242 4.12438 8.98249 3.90191 8.96809C3.66666 8.95142 3.43078 8.94509 3.19498 8.94902H2.14998C2.00411 8.94902 1.86421 9.00696 1.76107 9.11016C1.65792 9.21329 1.59998 9.35316 1.59998 9.49902C1.59998 9.64489 1.65792 9.78482 1.76107 9.88796C1.86421 9.99109 2.00411 10.049 2.14998 10.049H3.17224C3.47071 10.049 3.65698 10.049 3.79998 10.063C3.93198 10.0754 3.98624 10.0952 4.02071 10.1143C4.05518 10.1326 4.10211 10.1656 4.18571 10.269C4.27591 10.3805 4.38004 10.5352 4.54504 10.7838L4.68218 10.9884C4.82004 11.196 4.95571 11.3991 5.08771 11.545C5.22851 11.7012 5.47051 11.9095 5.82838 11.8882C6.18478 11.867 6.40038 11.6316 6.52284 11.46C6.63578 11.2994 6.74651 11.0808 6.85944 10.8586L8.31657 7.98542C8.37451 7.87176 8.42217 7.77716 8.46544 7.69577C8.51457 7.77349 8.57031 7.86442 8.63631 7.97222L9.11591 8.75542C9.26258 8.99522 9.39311 9.20716 9.51924 9.37436C9.65564 9.55549 9.81184 9.71829 10.0267 9.83856C10.2416 9.95882 10.4616 10.0072 10.6874 10.0292C10.8957 10.049 11.1443 10.049 11.4252 10.049H12.4166C12.5625 10.049 12.7024 9.99109 12.8056 9.88796C12.9087 9.78482 12.9666 9.64489 12.9666 9.49902C12.9666 9.35316 12.9087 9.21329 12.8056 9.11016C12.7024 9.00696 12.5625 8.94902 12.4166 8.94902H11.4486C11.1377 8.94902 10.9426 8.94902 10.793 8.93436C10.6552 8.92042 10.5994 8.89842 10.5642 8.87862C10.5283 8.85882 10.4806 8.82289 10.3978 8.71216C10.2714 8.53349 10.1527 8.34949 10.0421 8.16069L9.55591 7.36797H9.55664Z" fill="#8CC860" stroke="#8CC860"/>
<path d="M10.5566 6.36797C10.421 6.1465 10.2882 5.93017 10.1592 5.77617C10.022 5.6119 9.78151 5.38604 9.41338 5.4007C9.04524 5.41537 8.82378 5.65957 8.69984 5.8341C8.58324 5.9991 8.46884 6.22424 8.35151 6.45597L6.89364 9.33062C6.83864 9.43916 6.79318 9.52936 6.75211 9.60709C6.69316 9.52182 6.63498 9.43602 6.57758 9.34969L6.44851 9.15462C6.32084 8.95616 6.18455 8.76336 6.04004 8.57676C5.90464 8.39989 5.73443 8.25262 5.53991 8.14409C5.34152 8.04242 5.12438 7.98249 4.90191 7.96809C4.66666 7.95142 4.43078 7.94509 4.19498 7.94902H3.14998C3.00411 7.94902 2.86421 8.00696 2.76107 8.11016C2.65792 8.21329 2.59998 8.35316 2.59998 8.49902C2.59998 8.64489 2.65792 8.78482 2.76107 8.88796C2.86421 8.99109 3.00411 9.04902 3.14998 9.04902H4.17224C4.47071 9.04902 4.65698 9.04902 4.79998 9.06296C4.93198 9.07542 4.98624 9.09522 5.02071 9.11429C5.05518 9.13262 5.10211 9.16562 5.18571 9.26902C5.27591 9.38049 5.38004 9.53522 5.54504 9.78382L5.68218 9.98842C5.82004 10.196 5.95571 10.3991 6.08771 10.545C6.22851 10.7012 6.47051 10.9095 6.82838 10.8882C7.18478 10.867 7.40038 10.6316 7.52284 10.46C7.63578 10.2994 7.74651 10.0808 7.85944 9.85862L9.31657 6.98542C9.37451 6.87176 9.42217 6.77716 9.46544 6.69577C9.51457 6.77349 9.57031 6.86442 9.63631 6.97222L10.1159 7.75542C10.2626 7.99522 10.3931 8.20716 10.5192 8.37436C10.6556 8.55549 10.8118 8.71829 11.0267 8.83856C11.2416 8.95882 11.4616 9.00722 11.6874 9.02922C11.8957 9.04902 12.1443 9.04902 12.4252 9.04902H13.4166C13.5625 9.04902 13.7024 8.99109 13.8056 8.88796C13.9087 8.78482 13.9666 8.64489 13.9666 8.49902C13.9666 8.35316 13.9087 8.21329 13.8056 8.11016C13.7024 8.00696 13.5625 7.94902 13.4166 7.94902H12.4486C12.1377 7.94902 11.9426 7.94902 11.793 7.93436C11.6552 7.92042 11.5994 7.89842 11.5642 7.87862C11.5283 7.85882 11.4806 7.82289 11.3978 7.71216C11.2714 7.53349 11.1527 7.34949 11.0421 7.16069L10.5559 6.36797H10.5566Z" fill="url(#paint1_linear_92_391)" stroke="url(#paint2_linear_92_391)"/>
</g>
<defs>
<linearGradient id="paint0_linear_92_391" x1="1.14286" y1="16" x2="11.7135" y2="0.624479" gradientUnits="userSpaceOnUse">
<stop stop-color="#9BE862"/>
<stop offset="1" stop-color="#C8FF9F"/>
</linearGradient>
<linearGradient id="paint1_linear_92_391" x1="4.02081" y1="10.8897" x2="8.00227" y2="3.67642" gradientUnits="userSpaceOnUse">
<stop stop-color="#C8FF9F"/>
<stop offset="1" stop-color="white"/>
</linearGradient>
<linearGradient id="paint2_linear_92_391" x1="4.02081" y1="10.8897" x2="8.00227" y2="3.67642" gradientUnits="userSpaceOnUse">
<stop stop-color="#C8FF9F"/>
<stop offset="1" stop-color="white"/>
</linearGradient>
<clipPath id="clip0_92_391">
<rect width="16" height="16" fill="white"/>
</clipPath>
</defs>
</svg>
