<svg width="16" height="16" viewBox="0 0 16 16" fill="none" xmlns="http://www.w3.org/2000/svg">
<g clip-path="url(#clip0_8_238)">
<path fill-rule="evenodd" clip-rule="evenodd" d="M1 13C0.448 13 0 12.552 0 12V3.992C0 1.787 1.787 0 3.992 0C6.357 0 9.643 0 12.008 0C13.067 0 14.082 0.421001 14.831 1.169C15.579 1.918 16 2.933 16 3.992C16 6.357 16 9.643 16 12.008C16 14.213 14.213 16 12.008 16C8.751 16 4 16 4 16C3.448 16 3 15.552 3 15C3 13.896 2.104 13 1 13ZM1 14C1.552 14 2 14.448 2 15C2 15.552 1.552 16 1 16C0.448 16 0 15.552 0 15C0 14.448 0.448 14 1 14Z" fill="url(#paint0_linear_8_238)"/>
<path d="M2.53053 4.09424C2.69646 3.89524 2.93462 3.77027 3.19267 3.74682C3.45071 3.72335 3.7075 3.80333 3.9066 3.96915L4.26756 4.26886C5.05593 4.92562 5.72703 5.48464 6.19094 5.99937C6.68481 6.54667 7.06922 7.17348 7.06922 7.97744C7.06922 8.78148 6.68481 9.40961 6.19094 9.95555C5.72703 10.4703 5.05593 11.0293 4.26756 11.6861L3.9066 11.9858C3.80852 12.0716 3.69427 12.1369 3.57057 12.178C3.44687 12.2189 3.31621 12.2348 3.1863 12.2246C3.05638 12.2143 2.92983 12.1782 2.81408 12.1183C2.69832 12.0584 2.59572 11.976 2.51229 11.8759C2.42886 11.7758 2.36631 11.66 2.32828 11.5353C2.29026 11.4108 2.27756 11.2797 2.29091 11.1501C2.30427 11.0204 2.34341 10.8948 2.40605 10.7805C2.46868 10.6662 2.55354 10.5657 2.65562 10.4846L2.96055 10.2305C3.81929 9.51387 4.38092 9.04469 4.74058 8.64601C5.082 8.26807 5.11458 8.08952 5.11458 7.97744C5.11458 7.86544 5.082 7.6882 4.74058 7.30895C4.37962 6.91027 3.81929 6.43985 2.96055 5.72442L2.65562 5.47031C2.45663 5.30438 2.33166 5.06622 2.3082 4.80818C2.28474 4.55013 2.36471 4.29334 2.53053 4.09424ZM13.7143 11.2352C13.7143 11.4944 13.6114 11.743 13.4281 11.9263C13.2448 12.1096 12.9962 12.2125 12.737 12.2125H8.85887C8.5997 12.2125 8.35109 12.1096 8.16779 11.9263C7.98449 11.743 7.88155 11.4944 7.88155 11.2352C7.88155 10.976 7.98449 10.7274 8.16779 10.5441C8.35109 10.3609 8.5997 10.2579 8.85887 10.2579H12.737C12.9962 10.2579 13.2448 10.3609 13.4281 10.5441C13.6114 10.7274 13.7143 10.976 13.7143 11.2352Z" fill="#D49F34"/>
<path d="M3.67335 2.95142C3.83928 2.75242 4.07744 2.62745 4.33549 2.60399C4.59353 2.58053 4.85032 2.6605 5.04943 2.82632L5.41038 3.12603C6.19875 3.7828 6.86986 4.34182 7.33376 4.85655C7.82763 5.40384 8.21205 6.03066 8.21205 6.83461C8.21205 7.63866 7.82763 8.26679 7.33376 8.81272C6.86986 9.32745 6.19875 9.88648 5.41038 10.5433L5.04943 10.843C4.95134 10.9288 4.83709 10.9941 4.71339 11.0351C4.58969 11.0761 4.45904 11.0919 4.32912 11.0817C4.1992 11.0714 4.07265 11.0354 3.9569 10.9754C3.84114 10.9156 3.73854 10.8332 3.65511 10.7331C3.57169 10.6329 3.50913 10.5172 3.47111 10.3925C3.43308 10.2679 3.42038 10.1369 3.43373 10.0073C3.44709 9.8776 3.48624 9.75197 3.54887 9.63769C3.6115 9.5234 3.69636 9.42283 3.79845 9.34178L4.10337 9.08771C4.96211 8.37105 5.52375 7.90187 5.8834 7.50318C6.22482 7.12525 6.2574 6.9467 6.2574 6.83461C6.2574 6.72261 6.22482 6.54538 5.8834 6.16613C5.52245 5.76745 4.96211 5.29703 4.10337 4.58159L3.79845 4.32749C3.59945 4.16156 3.47448 3.9234 3.45102 3.66536C3.42756 3.40731 3.50753 3.15052 3.67335 2.95142ZM14.8572 10.0924C14.8572 10.3516 14.7542 10.6002 14.5709 10.7834C14.3876 10.9667 14.139 11.0697 13.8798 11.0697H10.0017C9.74252 11.0697 9.49391 10.9667 9.31061 10.7834C9.12732 10.6002 9.02437 10.3516 9.02437 10.0924C9.02437 9.83321 9.12732 9.58459 9.31061 9.40129C9.49391 9.21809 9.74252 9.11505 10.0017 9.11505H13.8798C14.139 9.11505 14.3876 9.21809 14.5709 9.40129C14.7542 9.58459 14.8572 9.83321 14.8572 10.0924Z" fill="url(#paint1_linear_8_238)"/>
</g>
<defs>
<linearGradient id="paint0_linear_8_238" x1="3" y1="14.9988" x2="12.9991" y2="2.999" gradientUnits="userSpaceOnUse">
<stop stop-color="#FF8860"/>
<stop offset="1" stop-color="#FBD92C"/>
</linearGradient>
<linearGradient id="paint1_linear_8_238" x1="6.28573" y1="8.96355" x2="10.3467" y2="3.49368" gradientUnits="userSpaceOnUse">
<stop stop-color="#FBD92C"/>
<stop offset="1" stop-color="white"/>
</linearGradient>
<clipPath id="clip0_8_238">
<rect width="16" height="16" fill="white"/>
</clipPath>
</defs>
</svg>
