<svg width="16" height="16" viewBox="0 0 16 16" fill="none" xmlns="http://www.w3.org/2000/svg">
<g clip-path="url(#clip0_14_928)">
<path fill-rule="evenodd" clip-rule="evenodd" d="M1 13C0.448 13 0 12.552 0 12V3.992C0 1.787 1.787 0 3.992 0C6.357 0 9.643 0 12.008 0C13.067 0 14.082 0.421001 14.831 1.169C15.579 1.918 16 2.933 16 3.992C16 6.357 16 9.643 16 12.008C16 14.213 14.213 16 12.008 16C8.751 16 4 16 4 16C3.448 16 3 15.552 3 15C3 13.896 2.104 13 1 13ZM1 14C1.552 14 2 14.448 2 15C2 15.552 1.552 16 1 16C0.448 16 0 15.552 0 15C0 14.448 0.448 14 1 14Z" fill="url(#paint0_linear_14_928)"/>
<path d="M8.58406 9.02049C8.58406 8.59809 8.15043 8.31329 7.284 7.74369C6.40611 7.16689 5.96676 6.87809 5.63949 7.09009C5.31139 7.30209 5.31139 7.87409 5.31139 9.02049C5.31139 10.1661 5.31139 10.7389 5.63868 10.9509C5.96594 11.1629 6.40611 10.8741 7.284 10.2973C8.15125 9.72769 8.58406 9.44289 8.58406 9.02049ZM6.33411 2.02121C6.33411 1.46864 5.88594 1.01985 5.33344 1.01144C5.01063 1.00652 4.70449 1.00124 4.41394 1.00019C3.88408 0.99827 3.47053 1.43442 3.47053 1.96429V3.42049C3.47053 3.97278 3.91824 4.42049 4.47052 4.42049H5.33411C5.8864 4.42049 6.33411 3.97278 6.33411 3.42049V2.02121ZM2.24328 2.24287C2.24328 1.62918 1.64995 1.16122 1.23309 1.61161C0.979018 1.88611 0.790109 2.21675 0.5 2.5C0.234579 2.75915 0.13592 2.98414 0.0888266 3.25313C-0.0173808 3.85976 0.523192 4.42049 1.13905 4.42049H1.24328C1.79557 4.42049 2.24328 3.97278 2.24328 3.42049V2.24287ZM13.7325 4.42049C14.3487 4.42049 14.8407 3.85878 14.6246 3.28175C14.4648 2.85518 14.2457 2.49886 13.9316 2.19169C13.6073 1.87463 13.2295 1.61243 12.7744 1.41761C12.2102 1.1761 11.6522 1.65897 11.6522 2.27267V3.42049C11.6522 3.97278 12.0999 4.42049 12.6522 4.42049H13.7325ZM7.56136 2.02121C7.56136 1.46864 8.00963 1.02084 8.56219 1.02083C8.86054 1.02083 9.14237 1.02075 9.42498 1.02066C9.97724 1.0205 10.4249 1.46817 10.4249 2.02043V3.42049C10.4249 3.97278 9.97721 4.42049 9.42492 4.42049H8.56136C8.00907 4.42049 7.56136 3.97278 7.56136 3.42049V2.02121ZM14.6135 14.7417C14.9065 14.1996 14.3885 13.6205 13.7723 13.6205H12.6522C12.0999 13.6205 11.6522 14.0682 11.6522 14.6205V15C11.6522 15.5523 12.1033 16.0326 12.6503 15.9562C13.0088 15.9061 13.3747 15.7988 13.8589 15.5688C13.9526 15.5243 14.0383 15.4634 14.111 15.3894C14.327 15.1696 14.4881 14.9737 14.6135 14.7417ZM9.42492 13.6205C9.97721 13.6205 10.4249 14.0682 10.4249 14.6205V15.0562C10.4249 15.5861 10.0114 16.0222 9.48151 16.0201C9.19118 16.019 8.88529 16.0136 8.56276 16.0087C8.00998 16.0003 7.56136 15.5515 7.56136 14.9986V14.6205C7.56136 14.0682 8.00907 13.6205 8.56136 13.6205H9.42492ZM5.33268 16.0088C5.88546 16.0003 6.33411 15.5514 6.33411 14.9986V14.6205C6.33411 14.0682 5.8864 13.6205 5.33411 13.6205H4.48298C3.92586 13.6205 3.47616 14.0758 3.48306 14.6329L3.48844 15.0678C3.49494 15.5929 3.90667 16.0221 4.43176 16.0201C4.71645 16.019 5.01577 16.0137 5.33268 16.0088Z" fill="#279FD7"/>
<path d="M9.63632 8.00012C9.63632 7.57772 9.20269 7.29292 8.33626 6.72332C7.45837 6.14652 7.01902 5.85772 6.69175 6.06972C6.36365 6.28172 6.36365 6.85372 6.36365 8.00012C6.36365 9.14572 6.36365 9.71852 6.69094 9.93052C7.0182 10.1425 7.45837 9.85372 8.33626 9.27692C9.20351 8.70732 9.63632 8.42252 9.63632 8.00012Z" fill="url(#paint1_linear_14_928)"/>
<path d="M13.7045 12.6001H14.8246C15.4408 12.6001 15.9305 13.1624 15.7019 13.7347C15.5309 14.1627 15.2989 14.5201 14.9839 14.8281C14.6617 15.1431 14.2866 15.3736 13.8354 15.542C13.2607 15.7566 12.7045 15.2688 12.7045 14.6554V13.6001C12.7045 13.0478 13.1522 12.6001 13.7045 12.6001Z" fill="url(#paint2_linear_14_928)"/>
<path d="M11.4772 15.001V13.6001C11.4772 13.0478 11.0295 12.6001 10.4772 12.6001H9.61366C9.06137 12.6001 8.61366 13.0478 8.61366 13.6001V14.9987C8.61366 15.5515 9.06227 16.0005 9.6151 15.9959C9.93777 15.9932 10.2438 15.9889 10.5342 15.9818C11.0639 15.9689 11.4772 15.5309 11.4772 15.001Z" fill="url(#paint3_linear_14_928)"/>
<path d="M7.38642 13.6001V14.9987C7.38642 15.5515 6.9378 16.0005 6.38498 15.9959C6.0623 15.9932 5.75628 15.9889 5.46584 15.9818C4.93613 15.9689 4.52283 15.5309 4.52283 15.001V13.6001C4.52283 13.0478 4.97054 12.6001 5.52283 12.6001H6.38642C6.9387 12.6001 7.38642 13.0478 7.38642 13.6001Z" fill="url(#paint4_linear_14_928)"/>
<path d="M5.4662 -0.0201979C5.75675 -0.0191465 6.06289 -0.0138609 6.3857 -0.00894536C6.9382 -0.000532337 7.38638 0.448256 7.38638 1.00082V2.4001C7.38638 2.95239 6.93866 3.4001 6.38638 3.4001H5.52279C4.9705 3.4001 4.52279 2.95239 4.52279 2.40011V0.943903C4.52279 0.414037 4.93634 -0.0221154 5.4662 -0.0201979Z" fill="url(#paint5_linear_14_928)"/>
<path d="M1.01696 1.1713C1.34193 0.854013 1.72043 0.581232 2.17663 0.377714C2.73709 0.127689 3.29555 0.608791 3.29555 1.22249V2.4001C3.29555 2.95239 2.84783 3.4001 2.29555 3.4001H1.22658C0.610717 3.4001 0.118021 2.8391 0.330294 2.26098C0.486857 1.83458 0.702457 1.47838 1.01696 1.1713Z" fill="url(#paint6_linear_14_928)"/>
<path d="M14.9838 1.1713C15.298 1.47847 15.517 1.8348 15.6768 2.26137C15.893 2.83839 15.4009 3.4001 14.7847 3.4001H13.7044C13.1521 3.4001 12.7044 2.95239 12.7044 2.40011V1.25228C12.7044 0.638584 13.2625 0.155714 13.8267 0.397229C14.2818 0.592046 14.6596 0.854248 14.9838 1.1713Z" fill="url(#paint7_linear_14_928)"/>
<path d="M10.4772 0.000276897L9.61445 0.000446986C9.06189 0.000451596 8.61362 0.448256 8.61362 1.00082V2.4001C8.61362 2.95239 9.06133 3.4001 9.61362 3.4001H10.4772C11.0295 3.4001 11.4772 2.95239 11.4772 2.40011V1.00004C11.4772 0.447782 11.0295 0.00011231 10.4772 0.000276897Z" fill="url(#paint8_linear_14_928)"/>
</g>
<defs>
<linearGradient id="paint0_linear_14_928" x1="1.6" y1="16.005" x2="7.3787" y2="-1.33327" gradientUnits="userSpaceOnUse">
<stop offset="0.190745" stop-color="#22B4FA"/>
<stop offset="0.896724" stop-color="#7DDCFF"/>
</linearGradient>
<linearGradient id="paint1_linear_14_928" x1="6.36365" y1="10" x2="10.2902" y2="9.1968" gradientUnits="userSpaceOnUse">
<stop stop-color="#6BD6FE"/>
<stop offset="1" stop-color="white"/>
</linearGradient>
<linearGradient id="paint2_linear_14_928" x1="4.52283" y1="16.0001" x2="12.9019" y2="8.92892" gradientUnits="userSpaceOnUse">
<stop stop-color="#6BD6FE"/>
<stop offset="1" stop-color="white"/>
</linearGradient>
<linearGradient id="paint3_linear_14_928" x1="4.52283" y1="16.0001" x2="12.9019" y2="8.92892" gradientUnits="userSpaceOnUse">
<stop stop-color="#6BD6FE"/>
<stop offset="1" stop-color="white"/>
</linearGradient>
<linearGradient id="paint4_linear_14_928" x1="4.52283" y1="16.0001" x2="12.9019" y2="8.92892" gradientUnits="userSpaceOnUse">
<stop stop-color="#6BD6FE"/>
<stop offset="1" stop-color="white"/>
</linearGradient>
<linearGradient id="paint5_linear_14_928" x1="0.052246" y1="3.4001" x2="8.50724" y2="-6.43038" gradientUnits="userSpaceOnUse">
<stop stop-color="#6BD6FE"/>
<stop offset="1" stop-color="white"/>
</linearGradient>
<linearGradient id="paint6_linear_14_928" x1="0.052246" y1="3.4001" x2="8.50724" y2="-6.43038" gradientUnits="userSpaceOnUse">
<stop stop-color="#6BD6FE"/>
<stop offset="1" stop-color="white"/>
</linearGradient>
<linearGradient id="paint7_linear_14_928" x1="0.052246" y1="3.4001" x2="8.50724" y2="-6.43038" gradientUnits="userSpaceOnUse">
<stop stop-color="#6BD6FE"/>
<stop offset="1" stop-color="white"/>
</linearGradient>
<linearGradient id="paint8_linear_14_928" x1="0.052246" y1="3.4001" x2="8.50724" y2="-6.43038" gradientUnits="userSpaceOnUse">
<stop stop-color="#6BD6FE"/>
<stop offset="1" stop-color="white"/>
</linearGradient>
<clipPath id="clip0_14_928">
<rect width="16" height="16" fill="white"/>
</clipPath>
</defs>
</svg>
