<svg width="16" height="16" viewBox="0 0 16 16" fill="none" xmlns="http://www.w3.org/2000/svg">
<g clip-path="url(#clip0_140_15791)">
<path fill-rule="evenodd" clip-rule="evenodd" d="M8 13C10 13 10.163 14.664 10.193 14.724C10.437 15.219 11.037 15.423 11.532 15.179C14.178 13.874 16 11.148 16 8C16 3.585 12.415 0 8 0C3.585 0 0 3.585 0 8C0 11.148 1.822 13.874 4.468 15.179C4.963 15.423 5.563 15.219 5.807 14.724C5.837 14.664 6 13 8 13ZM7 15C7 15.552 7.448 16 8 16C8.552 16 9 15.552 9 15C9 14.448 8.552 14 8 14C7.448 14 7 14.448 7 15Z" fill="url(#paint0_linear_140_15791)"/>
<path fill-rule="evenodd" clip-rule="evenodd" d="M9.86982 9.13065C9.11117 9.9486 7.04652 11.3327 5.99027 11.7771C5.82167 11.8478 5.39187 11.9977 5.29927 11.9998C5.10257 12.006 4.91317 11.8957 4.82162 11.7188C4.78622 11.6501 4.68217 11.2016 4.64887 11.0018C4.54997 10.394 4.49897 9.45015 4.50002 8.50105C4.49897 7.50515 4.55417 6.5165 4.66447 5.915C4.69362 5.7527 4.77892 5.37908 4.80392 5.31873C4.85072 5.20634 4.93607 5.11788 5.03912 5.06272C5.11817 5.02006 5.20872 4.99716 5.29927 5.00028C5.39187 5.00237 5.76862 5.13453 5.89762 5.18552C6.91542 5.58095 9.06852 7.015 9.85942 7.85795C9.93017 7.9339 10.1248 8.13785 10.1571 8.1795C10.2309 8.27315 10.2674 8.3866 10.2674 8.50105C10.2674 8.6072 10.2351 8.71545 10.1685 8.80595C10.1342 8.8528 9.93537 9.06095 9.86982 9.13065Z" stroke="#344CD8" stroke-width="1.6" stroke-linecap="round" stroke-linejoin="round"/>
<path fill-rule="evenodd" clip-rule="evenodd" d="M10.8698 8.13065C10.1112 8.9486 8.04652 10.3327 6.99027 10.7771C6.82167 10.8478 6.39187 10.9977 6.29927 10.9998C6.10257 11.006 5.91317 10.8957 5.82162 10.7188C5.78622 10.6501 5.68217 10.2016 5.64887 10.0018C5.54997 9.394 5.49897 8.45015 5.50002 7.50105C5.49897 6.50515 5.55417 5.5165 5.66447 4.915C5.69362 4.7527 5.77892 4.37908 5.80392 4.31873C5.85072 4.20634 5.93607 4.11788 6.03912 4.06272C6.11817 4.02006 6.20872 3.99716 6.29927 4.00028C6.39187 4.00237 6.76862 4.13453 6.89762 4.18552C7.91542 4.58095 10.0685 6.015 10.8594 6.85795C10.9302 6.9339 11.1248 7.13785 11.1571 7.1795C11.2309 7.27315 11.2674 7.3866 11.2674 7.50105C11.2674 7.6072 11.2351 7.71545 11.1685 7.80595C11.1342 7.8528 10.9354 8.06095 10.8698 8.13065Z" stroke="url(#paint1_linear_140_15791)" stroke-width="1.6" stroke-linecap="round" stroke-linejoin="round"/>
</g>
<defs>
<linearGradient id="paint0_linear_140_15791" x1="16.0086" y1="15" x2="3.64367" y2="-2.55968" gradientUnits="userSpaceOnUse">
<stop stop-color="#2E4AFA"/>
<stop offset="1" stop-color="#8E9EFF"/>
</linearGradient>
<linearGradient id="paint1_linear_140_15791" x1="5.49996" y1="11" x2="10.9692" y2="10.8845" gradientUnits="userSpaceOnUse">
<stop stop-color="#8E9EFF"/>
<stop offset="1" stop-color="white"/>
</linearGradient>
<clipPath id="clip0_140_15791">
<rect width="16" height="16" fill="white"/>
</clipPath>
</defs>
</svg>
