<svg width="16" height="16" viewBox="0 0 16 16" fill="none" xmlns="http://www.w3.org/2000/svg">
<path fill-rule="evenodd" clip-rule="evenodd" d="M13 8C13 10 14.664 10.163 14.724 10.193C15.219 10.437 15.423 11.037 15.179 11.532C13.874 14.178 11.148 16 8 16C3.585 16 0 12.415 0 8C0 3.585 3.585 0 8 0C11.148 0 13.874 1.822 15.179 4.468C15.423 4.963 15.219 5.563 14.724 5.807C14.664 5.837 13 6 13 8ZM15 7C15.552 7 16 7.448 16 8C16 8.552 15.552 9 15 9C14.448 9 14 8.552 14 8C14 7.448 14.448 7 15 7Z" fill="url(#paint0_linear_239_97)"/>
<path d="M7.70686 12.3061L7.70439 12.3188C7.56166 13.0531 6.9573 13.6661 6.24997 13.8957C5.16296 14.2541 3.85421 13.6575 3.4576 12.5927C3.07705 11.7057 3.40977 10.6098 4.19845 10.0527L4.19894 10.0524C4.80864 9.62551 5.61109 9.54654 6.31071 9.74822C6.31337 8.72563 6.31046 7.70296 6.30755 6.67982V6.67912V6.67872V6.67844L6.30748 6.6522C6.30587 6.08677 6.30427 5.52135 6.30365 4.95577C6.25975 4.5654 6.56791 4.14393 7.00893 4.15663C7.62302 4.14853 8.23857 4.14402 8.8535 4.14849C9.24207 4.12636 9.63209 4.43444 9.64375 4.84137C9.68751 5.24071 9.35671 5.5988 8.96883 5.63291C8.74521 5.65612 8.52179 5.65209 8.3084 5.64823L8.3047 5.64818C8.10568 5.64461 7.91521 5.64132 7.72734 5.65709C7.72599 5.66399 7.72479 5.67337 7.72406 5.68612C7.72305 5.70363 7.72311 5.72251 7.72325 5.74638C7.72343 5.77547 7.72407 5.81856 7.71814 5.86022C7.71617 6.6265 7.71751 7.39308 7.71885 8.16008V8.16058C7.72126 9.53738 7.72367 10.9156 7.70701 12.2932L7.70686 12.3061Z" fill="#DA5CDB"/>
<path d="M9.1977 11.1594L9.19524 11.172C9.0525 11.9064 8.44815 12.5194 7.74082 12.749C6.6538 13.1073 5.34506 12.5107 4.94844 11.446C4.5679 10.5589 4.90061 9.46311 5.6893 8.906L5.68979 8.90564C6.29949 8.47878 7.10193 8.39981 7.80155 8.60149C7.80422 7.57891 7.80131 6.55623 7.7984 5.53309V5.53239V5.53199V5.53171L7.79833 5.50547C7.79672 4.94005 7.79511 4.37462 7.7945 3.80904C7.75059 3.41868 8.05876 2.99721 8.49978 3.0099C9.11386 3.00181 9.72941 2.99729 10.3443 3.00176C10.7329 2.97963 11.1229 3.28771 11.1346 3.69464C11.1784 4.09398 10.8476 4.45207 10.4597 4.48618C10.2361 4.50939 10.0126 4.50536 9.79925 4.5015L9.79555 4.50145C9.59652 4.49788 9.40606 4.4946 9.21818 4.51036C9.21684 4.51726 9.21563 4.52665 9.2149 4.53939C9.2139 4.5569 9.21396 4.57578 9.2141 4.59965C9.21427 4.62875 9.21492 4.67183 9.20898 4.71349C9.20702 5.47977 9.20835 6.24635 9.2097 7.01335V7.01385C9.21211 8.39065 9.21451 9.76883 9.19786 11.1464L9.1977 11.1594Z" fill="url(#paint1_linear_239_97)"/>
<defs>
<linearGradient id="paint0_linear_239_97" x1="1.14286" y1="14.7692" x2="15.7777" y2="2.31222" gradientUnits="userSpaceOnUse">
<stop stop-color="#FE5AFF"/>
<stop offset="1" stop-color="#FE9EFF"/>
</linearGradient>
<linearGradient id="paint1_linear_239_97" x1="4.79089" y1="12.8529" x2="7.46433" y2="2.08793" gradientUnits="userSpaceOnUse">
<stop stop-color="#FE9EFF"/>
<stop offset="1" stop-color="white"/>
</linearGradient>
</defs>
</svg>
