<svg width="16" height="16" viewBox="0 0 16 16" fill="none" xmlns="http://www.w3.org/2000/svg">
<path fill-rule="evenodd" clip-rule="evenodd" d="M15.9998 3.98097V12.0189C15.9998 13.6649 14.6649 14.9999 13.0189 14.9999C10.3549 14.9999 5.64495 14.9999 2.98097 14.9999C1.33499 14.9999 0 13.6649 0 12.0189V4.99996C0 4.44797 0.447996 3.99997 0.99999 3.99997C2.10398 3.99997 2.99997 3.10398 2.99997 1.99999C2.99997 1.448 3.44797 1 3.99996 1C3.99996 1 9.85191 1 13.0189 1C14.6649 1 15.9998 2.33499 15.9998 3.98097ZM1.99998 1.99999C1.99998 2.55199 1.55199 2.99998 0.99999 2.99998C0.447996 2.99998 0 2.55199 0 1.99999C0 1.448 0.447996 1 0.99999 1C1.55199 1 1.99998 1.448 1.99998 1.99999Z" fill="url(#paint0_linear_144_15852)"/>
<path fill-rule="evenodd" clip-rule="evenodd" d="M5.5 6.14584C5.5 6.06529 5.56529 6 5.64584 6H6.52084C6.60137 6 6.66666 6.06529 6.66666 6.14584V12.8542C6.66666 12.9347 6.60137 13 6.52084 13H5.64584C5.56529 13 5.5 12.9347 5.5 12.8542V6.14584ZM1 6.51966C1 6.37072 1.12073 6.25 1.26966 6.25H1.80899C1.95793 6.25 2.07865 6.37072 2.07865 6.51966V12.4522C2.07865 12.6012 1.95793 12.7219 1.80899 12.7219H1.26966C1.12073 12.7219 1 12.6012 1 12.4522V6.51966ZM3.29214 6.94576C3.29214 6.79683 3.41286 6.6761 3.5618 6.6761H4.10112C4.25006 6.6761 4.37079 6.79683 4.37079 6.94576V10.721C4.37079 10.87 4.25006 10.9907 4.10112 10.9907H3.5618C3.41286 10.9907 3.29214 10.87 3.29214 10.721V6.94576ZM7.61754 6.76779C7.46861 6.76779 7.34787 6.88854 7.34787 7.03746V10.8127C7.34787 10.9617 7.46861 11.0824 7.61754 11.0824H8.15686C8.30579 11.0824 8.42653 10.9617 8.42653 10.8127V7.03746C8.42653 6.88854 8.30579 6.76779 8.15686 6.76779H7.61754ZM9.62921 6.54126C9.62921 6.39233 9.74994 6.2716 9.89888 6.2716H10.4382C10.5871 6.2716 10.7079 6.39233 10.7079 6.54126V12.4739C10.7079 12.6228 10.5871 12.7435 10.4382 12.7435H9.89888C9.74994 12.7435 9.62921 12.6228 9.62921 12.4739V6.54126ZM12.191 6.6761C12.042 6.6761 11.9214 6.79683 11.9214 6.94576V10.721C11.9214 10.87 12.042 10.9907 12.191 10.9907H12.7304C12.8794 10.9907 13 10.87 13 10.721V6.94576C13 6.79683 12.8794 6.6761 12.7304 6.6761H12.191Z" fill="#DA5CDB"/>
<path fill-rule="evenodd" clip-rule="evenodd" d="M6.5 5.14584C6.5 5.06529 6.56529 5 6.64584 5H7.52084C7.60137 5 7.66666 5.06529 7.66666 5.14584V11.8542C7.66666 11.9347 7.60137 12 7.52084 12H6.64584C6.56529 12 6.5 11.9347 6.5 11.8542V5.14584ZM2 5.51966C2 5.37072 2.12073 5.25 2.26966 5.25H2.80899C2.95793 5.25 3.07865 5.37072 3.07865 5.51966V11.4522C3.07865 11.6012 2.95793 11.7219 2.80899 11.7219H2.26966C2.12073 11.7219 2 11.6012 2 11.4522V5.51966ZM4.29214 5.94576C4.29214 5.79683 4.41286 5.6761 4.5618 5.6761H5.10112C5.25006 5.6761 5.37079 5.79683 5.37079 5.94576V9.72104C5.37079 9.86996 5.25006 9.9907 5.10112 9.9907H4.5618C4.41286 9.9907 4.29214 9.86996 4.29214 9.72104V5.94576ZM8.61754 5.76779C8.46861 5.76779 8.34787 5.88854 8.34787 6.03746V9.81274C8.34787 9.96167 8.46861 10.0824 8.61754 10.0824H9.15686C9.30579 10.0824 9.42653 9.96167 9.42653 9.81274V6.03746C9.42653 5.88854 9.30579 5.76779 9.15686 5.76779H8.61754ZM10.6292 5.54126C10.6292 5.39233 10.7499 5.2716 10.8989 5.2716H11.4382C11.5871 5.2716 11.7079 5.39233 11.7079 5.54126V11.4739C11.7079 11.6228 11.5871 11.7435 11.4382 11.7435H10.8989C10.7499 11.7435 10.6292 11.6228 10.6292 11.4739V5.54126ZM13.191 5.6761C13.042 5.6761 12.9214 5.79683 12.9214 5.94576V9.72104C12.9214 9.86996 13.042 9.9907 13.191 9.9907H13.7304C13.8794 9.9907 14 9.86996 14 9.72104V5.94576C14 5.79683 13.8794 5.6761 13.7304 5.6761H13.191Z" fill="url(#paint1_linear_144_15852)"/>
<defs>
<linearGradient id="paint0_linear_144_15852" x1="1.14285" y1="13.923" x2="14.1098" y2="1.30884" gradientUnits="userSpaceOnUse">
<stop stop-color="#FE5AFF"/>
<stop offset="1" stop-color="#FE9EFF"/>
</linearGradient>
<linearGradient id="paint1_linear_144_15852" x1="2" y1="11.9997" x2="2.7512" y2="3.95048" gradientUnits="userSpaceOnUse">
<stop stop-color="#FE9EFF"/>
<stop offset="1" stop-color="white"/>
</linearGradient>
</defs>
</svg>
