<svg width="16" height="16" viewBox="0 0 16 16" fill="none" xmlns="http://www.w3.org/2000/svg">
<path fill-rule="evenodd" clip-rule="evenodd" d="M8 13C10 13 10.163 14.664 10.193 14.724C10.437 15.219 11.037 15.423 11.532 15.179C14.178 13.874 16 11.148 16 8C16 3.585 12.415 0 8 0C3.585 0 0 3.585 0 8C0 11.148 1.822 13.874 4.468 15.179C4.963 15.423 5.563 15.219 5.807 14.724C5.837 14.664 6 13 8 13ZM7 15C7 15.552 7.448 16 8 16C8.552 16 9 15.552 9 15C9 14.448 8.552 14 8 14C7.448 14 7 14.448 7 15Z" fill="url(#paint0_linear_140_15797)"/>
<g opacity="0.8">
<path d="M11.8809 6.95283C10.743 4.59571 7.90984 3.60726 5.55269 4.74508C3.19556 5.8829 2.20712 8.71613 3.34494 11.0733" stroke="#45C5C2" stroke-linecap="round" stroke-linejoin="round" stroke-dasharray="4 3"/>
<path d="M1.34311 11.4064C0.0212873 7.94356 1.75688 4.06489 5.21966 2.74307C8.68246 1.42125 12.5612 3.15685 13.883 6.61961" stroke="#45C5C2" stroke-linecap="round" stroke-linejoin="round" stroke-dasharray="4.6 3"/>
<path d="M10.3255 9.01629C10.3255 9.19004 10.2709 9.36449 10.1615 9.50414C10.141 9.53149 10.0453 9.64444 9.97005 9.71799L9.92905 9.75809C9.3548 10.3669 7.9261 11.2824 7.2015 11.5758C7.2015 11.5825 6.77085 11.7569 6.56575 11.7629H6.5384C6.224 11.7629 5.93 11.5898 5.7796 11.3092C5.6976 11.1548 5.6224 10.707 5.61555 10.701C5.55405 10.2994 5.513 9.68459 5.513 9.00959C5.513 8.30189 5.55405 7.65969 5.62925 7.26534C5.62925 7.25869 5.7044 6.89779 5.75225 6.77749C5.82745 6.60444 5.9642 6.45674 6.1351 6.36319C6.27185 6.29704 6.4154 6.26294 6.56575 6.26294C6.723 6.27029 7.0169 6.36984 7.13315 6.41664C7.89875 6.71069 9.36165 7.67304 9.9222 8.26114C10.0179 8.35469 10.1204 8.46894 10.1478 8.49504C10.264 8.64204 10.3255 8.82249 10.3255 9.01629Z" fill="#45C5C2"/>
</g>
<path d="M12.2679 5.93989C11.13 3.58277 8.2968 2.59433 5.93965 3.73215C3.58253 4.86997 2.59408 7.7032 3.7319 10.0603" stroke="url(#paint1_linear_140_15797)" stroke-linecap="round" stroke-linejoin="round" stroke-dasharray="4 3"/>
<path d="M1.73007 10.3934C0.40825 6.93062 2.14385 3.05195 5.60662 1.73013C9.06942 0.408312 12.9481 2.14391 14.2699 5.60667" stroke="url(#paint2_linear_140_15797)" stroke-linecap="round" stroke-linejoin="round" stroke-dasharray="4.6 3"/>
<path d="M10.7125 8.00335C10.7125 8.1771 10.6578 8.35155 10.5484 8.4912C10.5279 8.51855 10.4322 8.6315 10.357 8.70505L10.316 8.74515C9.74176 9.35395 8.31306 10.2695 7.58846 10.5629C7.58846 10.5695 7.15781 10.744 6.95271 10.75H6.92536C6.61096 10.75 6.31696 10.5769 6.16656 10.2963C6.08456 10.1419 6.00936 9.6941 6.00251 9.6881C5.94101 9.28645 5.89996 8.67165 5.89996 7.99665C5.89996 7.28895 5.94101 6.64675 6.01621 6.2524C6.01621 6.24575 6.09136 5.88485 6.13921 5.76455C6.21441 5.5915 6.35116 5.4438 6.52206 5.35025C6.65881 5.2841 6.80236 5.25 6.95271 5.25C7.10996 5.25735 7.40386 5.3569 7.52011 5.4037C8.28571 5.69775 9.74861 6.6601 10.3092 7.2482C10.4049 7.34175 10.5074 7.456 10.5348 7.4821C10.651 7.6291 10.7125 7.80955 10.7125 8.00335Z" fill="url(#paint3_linear_140_15797)"/>
<defs>
<linearGradient id="paint0_linear_140_15797" x1="3" y1="14" x2="14" y2="2" gradientUnits="userSpaceOnUse">
<stop stop-color="#00DAD4"/>
<stop offset="1" stop-color="#C4FFFD"/>
</linearGradient>
<linearGradient id="paint1_linear_140_15797" x1="5.06128" y1="9.08895" x2="7.17174" y2="3.87045" gradientUnits="userSpaceOnUse">
<stop stop-color="#7EEFEC"/>
<stop offset="1" stop-color="white"/>
</linearGradient>
<linearGradient id="paint2_linear_140_15797" x1="3.88364" y1="9.09265" x2="6.56084" y2="1.96778" gradientUnits="userSpaceOnUse">
<stop stop-color="#7EEFEC"/>
<stop offset="1" stop-color="white"/>
</linearGradient>
<linearGradient id="paint3_linear_140_15797" x1="6.86249" y1="9.96437" x2="9.04936" y2="6.39246" gradientUnits="userSpaceOnUse">
<stop stop-color="#7EEFEC"/>
<stop offset="1" stop-color="white"/>
</linearGradient>
</defs>
</svg>
