<svg width="16" height="16" viewBox="0 0 16 16" fill="none" xmlns="http://www.w3.org/2000/svg">
<g clip-path="url(#clip0_91_231)">
<path fill-rule="evenodd" clip-rule="evenodd" d="M3 1C3 0.448 3.448 0 4 0C4 0 9.853 0 13.02 0C13.811 0 14.568 0.313999 15.127 0.872999C15.686 1.432 16 2.189 16 2.98C16 5.644 16 10.356 16 13.02C16 13.811 15.686 14.568 15.127 15.127C14.568 15.686 13.811 16 13.02 16C10.356 16 5.644 16 2.98 16C2.189 16 1.432 15.686 0.873 15.127C0.314 14.568 0 13.811 0 13.02V4C0 3.448 0.448 3 1 3C2.104 3 3 2.104 3 1ZM0 1C0 0.448 0.448 0 1 0C1.552 0 2 0.448 2 1C2 1.552 1.552 2 1 2C0.448 2 0 1.552 0 1Z" fill="url(#paint0_linear_91_231)"/>
<path d="M8.95667 8.63457C8.821 8.4131 8.68827 8.19677 8.5592 8.04277C8.42207 7.87851 8.18153 7.65264 7.8134 7.66731C7.44527 7.68197 7.2238 7.92617 7.09987 8.10071C6.98327 8.26571 6.86887 8.49084 6.75153 8.72257L5.29367 11.5972C5.23867 11.7058 5.1932 11.796 5.15213 11.8737C5.09319 11.7884 5.03501 11.7026 4.9776 11.6163L4.84853 11.4212C4.72086 11.2228 4.58457 11.03 4.44007 10.8434C4.30467 10.6665 4.13445 10.5192 3.93993 10.4107C3.74155 10.309 3.5244 10.2491 3.30193 10.2347C3.06668 10.218 2.83081 10.2117 2.595 10.2156H1.55C1.40413 10.2156 1.26423 10.2736 1.16109 10.3768C1.05795 10.4799 1 10.6198 1 10.7656C1 10.9115 1.05795 11.0514 1.16109 11.1546C1.26423 11.2577 1.40413 11.3156 1.55 11.3156H2.57227C2.87073 11.3156 3.057 11.3156 3.2 11.3296C3.332 11.342 3.38627 11.3618 3.42073 11.3809C3.4552 11.3992 3.50213 11.4322 3.58573 11.5356C3.67593 11.6471 3.78007 11.8018 3.94507 12.0504L4.0822 12.255C4.22007 12.4626 4.35573 12.6657 4.48773 12.8116C4.62853 12.9678 4.87053 13.1761 5.2284 13.1548C5.5848 13.1336 5.8004 12.8982 5.92287 12.7266C6.0358 12.566 6.14653 12.3474 6.25947 12.1252L7.7166 9.25203C7.77453 9.13836 7.8222 9.04376 7.86547 8.96237C7.9146 9.04009 7.97033 9.13103 8.03633 9.23883L8.51593 10.022C8.6626 10.2618 8.79313 10.4738 8.91927 10.641C9.05567 10.8221 9.21187 10.9849 9.42673 11.1052C9.6416 11.2254 9.8616 11.2738 10.0875 11.2958C10.2957 11.3156 10.5443 11.3156 10.8252 11.3156H11.8167C11.9625 11.3156 12.1024 11.2577 12.2056 11.1546C12.3087 11.0514 12.3667 10.9115 12.3667 10.7656C12.3667 10.6198 12.3087 10.4799 12.2056 10.3768C12.1024 10.2736 11.9625 10.2156 11.8167 10.2156H10.8487C10.5377 10.2156 10.3427 10.2156 10.1931 10.201C10.0552 10.187 9.99947 10.165 9.96427 10.1452C9.92833 10.1254 9.88067 10.0895 9.7978 9.97876C9.6714 9.80009 9.55273 9.61609 9.44213 9.42729L8.95593 8.63457H8.95667Z" fill="#B85C68" stroke="#B85C68"/>
<path d="M13.7476 6.41421C14.1226 6.03914 14.3334 5.53043 14.3334 5C14.3334 4.46957 14.1226 3.96086 13.7476 3.58579C13.3725 3.21071 12.8638 3 12.3334 3C11.803 3 11.2942 3.21071 10.9192 3.58579C10.5441 3.96086 10.3334 4.46957 10.3334 5C10.3334 5.53043 10.5441 6.03914 10.9192 6.41421C11.2942 6.78929 11.803 7 12.3334 7C12.8638 7 13.3725 6.78929 13.7476 6.41421Z" fill="#B85C68"/>
<path d="M9.95667 7.63457C9.821 7.4131 9.68827 7.19677 9.5592 7.04277C9.42207 6.87851 9.18153 6.65264 8.8134 6.66731C8.44527 6.68197 8.2238 6.92617 8.09987 7.10071C7.98327 7.26571 7.86887 7.49084 7.75153 7.72257L6.29367 10.5972C6.23867 10.7058 6.1932 10.796 6.15213 10.8737C6.09319 10.7884 6.03501 10.7026 5.9776 10.6163L5.84853 10.4212C5.72086 10.2228 5.58457 10.03 5.44007 9.84336C5.30467 9.66649 5.13445 9.51923 4.93993 9.41069C4.74155 9.30903 4.5244 9.24909 4.30193 9.23469C4.06668 9.21803 3.83081 9.21169 3.595 9.21563H2.55C2.40413 9.21563 2.26423 9.27356 2.16109 9.37676C2.05795 9.47989 2 9.61976 2 9.76563C2 9.91149 2.05795 10.0514 2.16109 10.1546C2.26423 10.2577 2.40413 10.3156 2.55 10.3156H3.57227C3.87073 10.3156 4.057 10.3156 4.2 10.3296C4.332 10.342 4.38627 10.3618 4.42073 10.3809C4.4552 10.3992 4.50213 10.4322 4.58573 10.5356C4.67593 10.6471 4.78007 10.8018 4.94507 11.0504L5.0822 11.255C5.22007 11.4626 5.35573 11.6657 5.48773 11.8116C5.62853 11.9678 5.87053 12.1761 6.2284 12.1548C6.5848 12.1336 6.8004 11.8982 6.92287 11.7266C7.0358 11.566 7.14653 11.3474 7.25947 11.1252L8.7166 8.25203C8.77453 8.13836 8.8222 8.04376 8.86547 7.96237C8.9146 8.04009 8.97033 8.13103 9.03633 8.23883L9.51593 9.02203C9.6626 9.26183 9.79313 9.47376 9.91927 9.64096C10.0557 9.82209 10.2119 9.98489 10.4267 10.1052C10.6416 10.2254 10.8616 10.2738 11.0875 10.2958C11.2957 10.3156 11.5443 10.3156 11.8252 10.3156H12.8167C12.9625 10.3156 13.1024 10.2577 13.2056 10.1546C13.3087 10.0514 13.3667 9.91149 13.3667 9.76563C13.3667 9.61976 13.3087 9.47989 13.2056 9.37676C13.1024 9.27356 12.9625 9.21563 12.8167 9.21563H11.8487C11.5377 9.21563 11.3427 9.21563 11.1931 9.20096C11.0552 9.18703 10.9995 9.16503 10.9643 9.14523C10.9283 9.12543 10.8807 9.08949 10.7978 8.97876C10.6714 8.80009 10.5527 8.61609 10.4421 8.42729L9.95593 7.63457H9.95667Z" fill="url(#paint1_linear_91_231)" stroke="url(#paint2_linear_91_231)"/>
<path d="M14.7476 5.41421C15.1226 5.03914 15.3334 4.53043 15.3334 4C15.3334 3.46957 15.1226 2.96086 14.7476 2.58579C14.3725 2.21071 13.8638 2 13.3334 2C12.803 2 12.2942 2.21071 11.9192 2.58579C11.5441 2.96086 11.3334 3.46957 11.3334 4C11.3334 4.53043 11.5441 5.03914 11.9192 5.41421C12.2942 5.78929 12.803 6 13.3334 6C13.8638 6 14.3725 5.78929 14.7476 5.41421Z" fill="url(#paint3_linear_91_231)"/>
</g>
<defs>
<linearGradient id="paint0_linear_91_231" x1="1.14286" y1="15.0204" x2="15.7918" y2="7.11491" gradientUnits="userSpaceOnUse">
<stop stop-color="#B65592"/>
<stop offset="0.5" stop-color="#FB6F71"/>
<stop offset="1" stop-color="#F9CB52"/>
</linearGradient>
<linearGradient id="paint1_linear_91_231" x1="2.81191" y1="11.8202" x2="8.788" y2="5.14256" gradientUnits="userSpaceOnUse">
<stop stop-color="#D4A4C4"/>
<stop offset="0.5" stop-color="#F7B1B3"/>
<stop offset="1" stop-color="#F7E1A3"/>
</linearGradient>
<linearGradient id="paint2_linear_91_231" x1="2.81191" y1="11.8202" x2="8.788" y2="5.14256" gradientUnits="userSpaceOnUse">
<stop stop-color="#D4A4C4"/>
<stop offset="0.5" stop-color="#F7B1B3"/>
<stop offset="1" stop-color="#F7E1A3"/>
</linearGradient>
<linearGradient id="paint3_linear_91_231" x1="11.6191" y1="5.7551" x2="15.2813" y2="3.77873" gradientUnits="userSpaceOnUse">
<stop stop-color="#D4A4C4"/>
<stop offset="0.5" stop-color="#F7B1B3"/>
<stop offset="1" stop-color="#F7E1A3"/>
</linearGradient>
<clipPath id="clip0_91_231">
<rect width="16" height="16" fill="white"/>
</clipPath>
</defs>
</svg>
