<svg width="16" height="16" viewBox="0 0 16 16" fill="none" xmlns="http://www.w3.org/2000/svg">
<path fill-rule="evenodd" clip-rule="evenodd" d="M12.9974 8.13011C12.9451 10.1294 14.6043 10.3359 14.6635 10.3674C15.1519 10.6243 15.3402 11.2294 15.0833 11.7179C13.7096 14.3288 10.9369 16.079 7.78999 15.9967C3.3765 15.8813 -0.113582 12.2038 0.00180407 7.79036C0.11719 3.37687 3.79466 -0.113216 8.20815 0.00217028C11.3551 0.0844435 14.0325 1.97707 15.2679 4.65627C15.4989 5.15748 15.2793 5.75194 14.7781 5.98292C14.7173 6.01134 13.0496 6.1308 12.9974 8.13011ZM15.0228 7.18273C15.5746 7.19715 16.0108 7.65671 15.9963 8.20852C15.9819 8.76033 15.5224 9.19647 14.9705 9.18204C14.4187 9.16762 13.9826 8.70806 13.997 8.15625C14.0114 7.60444 14.471 7.1683 15.0228 7.18273Z" fill="url(#paint0_linear_243_206)"/>
<path fill-rule="evenodd" clip-rule="evenodd" d="M2.00891 9.13088C2.00893 7.53404 2.64326 6.00261 3.7724 4.87347C4.90154 3.74434 6.43296 3.11 8.0298 3.10999C9.37434 3.11 10.6725 3.55972 11.7232 4.37588C12.0515 4.63084 12.0489 5.11174 11.755 5.40565C11.4611 5.69956 10.9875 5.69341 10.6489 5.45233C9.88914 4.91138 8.97472 4.61522 8.0298 4.61522C6.83218 4.61522 5.6836 5.09097 4.83675 5.93783C3.9899 6.78468 3.51414 7.93325 3.51414 9.13088C3.51414 10.3285 3.9899 11.4771 4.83675 12.3239C5.6836 13.1708 6.83218 13.6465 8.0298 13.6465C8.97472 13.6465 9.88914 13.3504 10.6489 12.8094C10.9875 12.5683 11.4611 12.5622 11.755 12.8561C12.0489 13.15 12.0515 13.6309 11.7232 13.8859C10.6725 14.702 9.37434 15.1517 8.0298 15.1518C6.43296 15.1517 4.90154 14.5174 3.7724 13.3883C2.64326 12.2591 2.00893 10.7277 2.00891 9.13088ZM5.01937 9.13251C5.01893 8.33467 5.33524 7.56926 5.89879 7.00449L5.9011 7.00218C6.18065 6.72263 6.51252 6.50089 6.87777 6.34959C7.243 6.1983 7.63447 6.12043 8.0298 6.12045C8.42513 6.12043 8.81661 6.1983 9.18184 6.34959C9.39211 6.4367 9.59132 6.54713 9.77585 6.67854C10.0016 6.83925 9.99966 7.16101 9.80371 7.35696C9.60778 7.5529 9.29205 7.54611 9.05371 7.40476C8.7464 7.22247 8.39318 7.12392 8.0298 7.1239C7.49753 7.12392 6.98703 7.33536 6.61066 7.71174C6.23429 8.08811 6.02284 8.59861 6.02283 9.13088C6.02284 9.66314 6.23429 10.1736 6.61066 10.55C6.98703 10.9264 7.49753 11.1378 8.0298 11.1379C8.39318 11.1378 8.7464 11.0393 9.05371 10.857C9.29205 10.7156 9.60778 10.7089 9.80371 10.9048C9.99966 11.1007 10.0016 11.4225 9.77585 11.5832C9.26935 11.9439 8.65975 12.1413 8.0298 12.1413C7.23139 12.1413 6.46567 11.8241 5.9011 11.2596C5.33694 10.6954 5.0198 9.93036 5.01937 9.13251Z" fill="#D49F34" stroke="#D49F34" stroke-width="0.4"/>
<path fill-rule="evenodd" clip-rule="evenodd" d="M2.07971 7.92873C2.07973 6.33189 2.71406 4.80046 3.8432 3.67133C4.97234 2.54219 6.50376 1.90786 8.1006 1.90784C9.44515 1.90786 10.7433 2.35757 11.794 3.17373C12.1223 3.42869 12.1197 3.90959 11.8258 4.2035C11.5319 4.49741 11.0583 4.49126 10.7197 4.25018C9.95994 3.70924 9.04552 3.41307 8.1006 3.41307C6.90298 3.41307 5.7544 3.88882 4.90755 4.73568C4.0607 5.58253 3.58494 6.7311 3.58494 7.92873C3.58494 9.12635 4.0607 10.2749 4.90755 11.1218C5.7544 11.9686 6.90298 12.4444 8.1006 12.4444C9.04552 12.4444 9.95994 12.1482 10.7197 11.6073C11.0583 11.3662 11.5319 11.36 11.8258 11.654C12.1197 11.9479 12.1223 12.4288 11.794 12.6837C10.7433 13.4999 9.44515 13.9496 8.1006 13.9496C6.50376 13.9496 4.97234 13.3153 3.8432 12.1861C2.71406 11.057 2.07973 9.52557 2.07971 7.92873ZM5.09018 7.93036C5.08973 7.13252 5.40604 6.36711 5.96959 5.80234L5.9719 5.80003C6.25145 5.52048 6.58332 5.29875 6.94857 5.14744C7.3138 4.99616 7.70527 4.91828 8.1006 4.9183C8.49593 4.91828 8.88741 4.99616 9.25264 5.14744C9.46292 5.23455 9.66212 5.34499 9.84665 5.47639C10.0724 5.6371 10.0705 5.95886 9.87451 6.15482C9.67858 6.35075 9.36285 6.34396 9.12451 6.20261C8.8172 6.02032 8.46398 5.92177 8.1006 5.92175C7.56834 5.92177 7.05784 6.13321 6.68146 6.50959C6.30509 6.88596 6.09365 7.39646 6.09363 7.92873C6.09365 8.461 6.30509 8.97149 6.68146 9.34787C7.05784 9.72424 7.56834 9.93569 8.1006 9.9357C8.46398 9.93569 8.8172 9.83714 9.12451 9.65484C9.36285 9.5135 9.67858 9.50671 9.87451 9.70264C10.0705 9.89859 10.0724 10.2204 9.84665 10.3811C9.34015 10.7417 8.73055 10.9392 8.1006 10.9392C7.30219 10.9392 6.53647 10.622 5.9719 10.0574C5.40774 9.49327 5.0906 8.72821 5.09018 7.93036Z" fill="url(#paint1_linear_243_206)" stroke="url(#paint2_linear_243_206)" stroke-width="0.4"/>
<defs>
<linearGradient id="paint0_linear_243_206" x1="2.99858" y1="14.9983" x2="12.998" y2="2.9999" gradientUnits="userSpaceOnUse">
<stop stop-color="#FF8860"/>
<stop offset="1" stop-color="#FBD92C"/>
</linearGradient>
<linearGradient id="paint1_linear_243_206" x1="4.57062" y1="10.9392" x2="10.4851" y2="6.04543" gradientUnits="userSpaceOnUse">
<stop stop-color="#FBD92C"/>
<stop offset="1" stop-color="white"/>
</linearGradient>
<linearGradient id="paint2_linear_243_206" x1="4.57062" y1="10.9392" x2="10.4851" y2="6.04543" gradientUnits="userSpaceOnUse">
<stop stop-color="#FBD92C"/>
<stop offset="1" stop-color="white"/>
</linearGradient>
</defs>
</svg>
