<svg width="16" height="16" viewBox="0 0 16 16" fill="none" xmlns="http://www.w3.org/2000/svg">
<path fill-rule="evenodd" clip-rule="evenodd" d="M6.05303 2.07777C7.23628 1.86076 8.4578 2.10179 9.46994 2.752C9.95925 3.06634 10.3819 3.46492 10.7214 3.92462C11.1297 4.47776 11.7591 4.86117 12.4347 4.9887C13.0421 5.10335 13.6182 5.34533 14.1254 5.69871C14.6325 6.05208 15.059 6.50885 15.3769 7.03896C15.6947 7.56906 15.8968 8.16047 15.9694 8.77425C16.0424 9.38802 15.9844 10.0103 15.7994 10.6C15.6143 11.1898 15.3065 11.7337 14.8963 12.1959C14.4859 12.6581 13.9823 13.0282 13.4186 13.2817C12.8548 13.5354 12.2439 13.6666 11.6258 13.6672H11.6253H3.64551H3.64352C3.13817 13.6658 3.07687 12.871 3.2819 12.4091C3.37619 12.1967 3.42857 11.9616 3.42857 11.7143C3.42857 10.7675 2.66106 10 1.71429 10C1.21991 10 0.774409 10.2093 0.46154 10.5441C0.327287 10.6877 0.0510494 10.6534 0.0271331 10.4583C-0.0811529 9.5746 0.136968 8.68182 0.640513 7.94764C0.779768 7.7446 0.938202 7.55756 1.11282 7.3886C1.67366 6.84591 2.13915 6.16288 2.35751 5.41363C2.5128 4.8808 2.7618 4.37473 3.09775 3.92067C3.81329 2.9536 4.86976 2.2948 6.05303 2.07777ZM1.37146 12.9714C1.8764 12.9714 2.28574 12.5621 2.28574 12.0571C2.28574 11.5522 1.8764 11.1429 1.37146 11.1429C0.86651 11.1429 0.457171 11.5522 0.457171 12.0571C0.457171 12.5621 0.86651 12.9714 1.37146 12.9714Z" fill="url(#paint0_linear_15_1208)"/>
<path d="M5.25 7C4.00735 7 3 8.00736 3 9.25C3 10.4926 4.00735 11.5 5.25 11.5C6.1412 11.4986 6.94136 10.9725 7.30056 10.1692C7.34512 10.0694 7.4412 9.99984 7.5504 9.99976L8.7416 9.99832C8.88424 9.99816 9 10.1138 9 10.2564V10.74C9 10.8825 9.11552 10.9981 9.25808 10.9981H10.2419C10.3845 10.9981 10.5 10.8825 10.5 10.74V10.2461C10.5 10.1082 10.6121 9.99648 10.75 9.99704C10.8879 9.99752 11 9.886 11 9.748V8.75624C11 8.61368 10.8844 8.49808 10.7418 8.49816L7.55072 8.49992C7.44136 8.5 7.34512 8.43032 7.3004 8.33048C6.94112 7.52728 6.14112 7.00128 5.25 7ZM5.25 8.5C5.66424 8.5 6 8.83576 6 9.25C6 9.66424 5.66424 10 5.25 10C4.83576 10 4.5 9.66424 4.5 9.25C4.5 8.83576 4.83576 8.5 5.25 8.5Z" fill="#7FD1AE"/>
<path d="M6.25 6C5.00735 6 4 7.00736 4 8.25C4 9.49264 5.00735 10.5 6.25 10.5C7.1412 10.4986 7.94136 9.97248 8.30056 9.1692C8.34512 9.06944 8.4412 8.99984 8.5504 8.99976L9.7416 8.99832C9.88424 8.99816 10 9.11384 10 9.2564V9.74C10 9.88248 10.1155 9.99808 10.2581 9.99808H11.2419C11.3845 9.99808 11.5 9.88248 11.5 9.74V9.24608C11.5 9.10816 11.6121 8.99648 11.75 8.99704C11.8879 8.99752 12 8.886 12 8.748V7.75624C12 7.61368 11.8844 7.49808 11.7418 7.49816L8.55072 7.49992C8.44136 7.5 8.34512 7.43032 8.3004 7.33048C7.94112 6.52728 7.14112 6.00128 6.25 6ZM6.25 7.5C6.66424 7.5 7 7.83576 7 8.25C7 8.66424 6.66424 9 6.25 9C5.83576 9 5.5 8.66424 5.5 8.25C5.5 7.83576 5.83576 7.5 6.25 7.5Z" fill="url(#paint1_linear_15_1208)"/>
<defs>
<linearGradient id="paint0_linear_15_1208" x1="2" y1="12.2091" x2="16.3337" y2="7.67302" gradientUnits="userSpaceOnUse">
<stop stop-color="#62E8AF"/>
<stop offset="1" stop-color="#B3FBDC"/>
</linearGradient>
<linearGradient id="paint1_linear_15_1208" x1="4" y1="10.5" x2="4.77568" y2="4.98408" gradientUnits="userSpaceOnUse">
<stop stop-color="#B3FBDC"/>
<stop offset="1" stop-color="white"/>
</linearGradient>
</defs>
</svg>
