<svg width="16" height="16" viewBox="0 0 16 16" fill="none" xmlns="http://www.w3.org/2000/svg">
<path fill-rule="evenodd" clip-rule="evenodd" d="M3 8C3 6 1.336 5.837 1.276 5.807C0.780999 5.563 0.576999 4.963 0.820999 4.468C2.126 1.822 4.852 0 8 0C12.415 0 16 3.585 16 8C16 12.415 12.415 16 8 16C4.852 16 2.126 14.178 0.820999 11.532C0.576999 11.037 0.780999 10.437 1.276 10.193C1.336 10.163 3 10 3 8ZM1 9C0.448 9 0 8.552 0 8C0 7.448 0.448 7 1 7C1.552 7 2 7.448 2 8C2 8.552 1.552 9 1 9Z" fill="url(#paint0_linear_73_1641)"/>
<path d="M9.12376 4.6762C9.17483 4.72537 9.20753 4.79055 9.21642 4.86089C9.22359 4.92001 9.2172 4.97999 9.19775 5.03627C9.17829 5.09255 9.14628 5.14367 9.10413 5.18574L8.32209 5.96777C8.09533 6.19453 7.96793 6.50209 7.96793 6.82279C7.96793 7.14348 8.09533 7.45104 8.32209 7.67781C8.54886 7.90457 8.85642 8.03197 9.17711 8.03197C9.49781 8.03197 9.80537 7.90457 10.0321 7.67781L10.8142 6.89578C11.0243 6.68643 11.3756 6.77065 11.4093 7.06421C11.4653 7.54095 11.3988 8.0241 11.216 8.46796C11.0332 8.91182 10.7402 9.30171 10.3647 9.60075C9.98925 9.89979 9.54368 10.0981 9.07017 10.1769C8.59667 10.2557 8.11089 10.2125 7.65877 10.0512L5.4723 12.2376C5.2437 12.4554 4.93904 12.5751 4.62338 12.5712C4.30772 12.5674 4.00608 12.4403 3.78286 12.217C3.55963 11.9938 3.43253 11.6922 3.42868 11.3765C3.42483 11.0609 3.54454 10.7562 3.76226 10.5276L5.94953 8.34113C5.78829 7.88909 5.74502 7.40339 5.8238 6.92996C5.90258 6.45653 6.10082 6.01101 6.39976 5.63555C6.6987 5.26008 7.08847 4.96707 7.53222 4.78422C7.97596 4.60137 8.45901 4.53473 8.93569 4.59059C9.00631 4.59681 9.07268 4.62702 9.12376 4.6762Z" fill="#D49F34"/>
<path d="M10.2666 3.53338C10.3177 3.58255 10.3504 3.64773 10.3592 3.71807C10.3664 3.77719 10.36 3.83716 10.3406 3.89345C10.3211 3.94973 10.2891 4.00085 10.2469 4.04291L9.46492 4.82494C9.23815 5.05171 9.11076 5.35927 9.11076 5.67997C9.11076 6.00066 9.23815 6.30822 9.46492 6.53498C9.69168 6.76175 9.99924 6.88915 10.3199 6.88915C10.6406 6.88915 10.9482 6.76175 11.175 6.53498L11.957 5.75295C12.1671 5.54361 12.5184 5.62783 12.5521 5.92139C12.6081 6.39813 12.5416 6.88128 12.3588 7.32514C12.176 7.769 11.8831 8.15888 11.5076 8.45793C11.1321 8.75697 10.6865 8.95528 10.213 9.0341C9.73949 9.11291 9.25371 9.06963 8.80159 8.90835L6.61512 11.0948C6.38652 11.3125 6.08186 11.4322 5.7662 11.4284C5.45055 11.4246 5.1489 11.2974 4.92568 11.0742C4.70246 10.851 4.57535 10.5494 4.5715 10.2337C4.56765 9.91804 4.68737 9.61338 4.90508 9.38478L7.09236 7.19831C6.93112 6.74626 6.88784 6.26056 6.96662 5.78713C7.0454 5.3137 7.24364 4.86819 7.54258 4.49273C7.84152 4.11726 8.2313 3.82425 8.67504 3.6414C9.11878 3.45855 9.60183 3.39191 10.0785 3.44777C10.1491 3.45399 10.2155 3.4842 10.2666 3.53338Z" fill="url(#paint1_linear_73_1641)"/>
<defs>
<linearGradient id="paint0_linear_73_1641" x1="3" y1="14.9988" x2="12.9991" y2="2.999" gradientUnits="userSpaceOnUse">
<stop stop-color="#FF8860"/>
<stop offset="1" stop-color="#FBD92C"/>
</linearGradient>
<linearGradient id="paint1_linear_73_1641" x1="6.57141" y1="9.42851" x2="10.5714" y2="5.42851" gradientUnits="userSpaceOnUse">
<stop stop-color="#FBD92C"/>
<stop offset="1" stop-color="white"/>
</linearGradient>
</defs>
</svg>
