<svg width="16" height="16" viewBox="0 0 16 16" fill="none" xmlns="http://www.w3.org/2000/svg">
<g clip-path="url(#clip0_17_2305)">
<path fill-rule="evenodd" clip-rule="evenodd" d="M11.5612 1.84153C11.9869 1.84153 12.3319 1.49646 12.3319 1.07079C12.3319 0.645121 11.9869 0.300049 11.5612 0.300049C11.1355 0.300049 10.7905 0.645121 10.7905 1.07079C10.7905 1.49646 11.1355 1.84153 11.5612 1.84153ZM12.0765 2.42253C12.1977 2.38558 12.3341 2.45798 12.3341 2.58469L13.2127 8.89612C13.2127 9.43906 12.7726 9.8792 12.2296 9.8792H3.18524C2.64229 9.8792 2.20215 9.43906 2.20215 8.89612L3.08078 2.58469C3.08078 2.03716 3.29829 1.51205 3.68546 1.12488C4.07262 0.737714 4.59773 0.520207 5.14527 0.520207H9.75415C9.9987 0.520207 10.1713 0.767204 10.1713 1.01175C10.1713 1.82617 10.8315 2.48638 11.6459 2.48638C11.7957 2.48638 11.9403 2.46405 12.0765 2.42253Z" fill="url(#paint0_linear_17_2305)"/>
<path d="M0 13.0169V11.6618C0 10.9814 0.551563 10.4298 1.23195 10.4298H14.768C15.4484 10.4298 16 10.9814 16 11.6618V13.0169C16 13.7031 15.7274 14.3611 15.2423 14.8463C14.7571 15.3314 14.099 15.604 13.4129 15.604H2.5871C1.90096 15.604 1.24292 15.3314 0.757745 14.8463C0.272569 14.3611 0 13.7031 0 13.0169Z" fill="url(#paint1_linear_17_2305)"/>
<path d="M11.2632 12.8845C11.4249 12.7228 11.6443 12.6319 11.873 12.6319H12.258C12.4867 12.6319 12.706 12.7228 12.8678 12.8845C13.0295 13.0462 13.1203 13.2656 13.1203 13.4943C13.1203 13.723 13.0295 13.9423 12.8678 14.1041C12.706 14.2658 12.4867 14.3566 12.258 14.3566H11.873C11.6443 14.3566 11.4249 14.2658 11.2632 14.1041C11.1015 13.9423 11.0106 13.723 11.0106 13.4943C11.0106 13.2656 11.1015 13.0462 11.2632 12.8845Z" fill="#279FD7"/>
<path d="M12.3643 11.7835C12.526 11.6217 12.7453 11.5309 12.9741 11.5309H13.359C13.5878 11.5309 13.8071 11.6217 13.9688 11.7835C14.1306 11.9452 14.2214 12.1645 14.2214 12.3933C14.2214 12.622 14.1306 12.8413 13.9688 13.003C13.8071 13.1648 13.5878 13.2556 13.359 13.2556H12.9741C12.7453 13.2556 12.526 13.1648 12.3643 13.003C12.2026 12.8413 12.1117 12.622 12.1117 12.3933C12.1117 12.1645 12.2026 11.9452 12.3643 11.7835Z" fill="url(#paint2_linear_17_2305)"/>
<path fill-rule="evenodd" clip-rule="evenodd" d="M5.28502 4.48398H7.92754C8.41376 4.48398 8.80838 4.08936 8.80838 3.60314C8.80838 3.11691 8.41376 2.72229 7.92754 2.72229H5.28502C4.79879 2.72229 4.40417 3.11691 4.40417 3.60314C4.40417 4.08936 4.79879 4.48398 5.28502 4.48398Z" fill="#279FD7"/>
<path fill-rule="evenodd" clip-rule="evenodd" d="M6.3861 3.38291H9.02861C9.51484 3.38291 9.90946 2.98829 9.90946 2.50206C9.90946 2.01584 9.51484 1.62122 9.02861 1.62122H6.3861C5.89987 1.62122 5.50525 2.01584 5.50525 2.50206C5.50525 2.98829 5.89987 3.38291 6.3861 3.38291Z" fill="url(#paint3_linear_17_2305)"/>
</g>
<defs>
<linearGradient id="paint0_linear_17_2305" x1="3.30321" y1="9.88225" x2="6.38813" y2="-0.756755" gradientUnits="userSpaceOnUse">
<stop stop-color="#22B4FA"/>
<stop offset="1" stop-color="#6BD6FE"/>
</linearGradient>
<linearGradient id="paint1_linear_17_2305" x1="1.6" y1="15.6056" x2="2.26376" y2="9.44735" gradientUnits="userSpaceOnUse">
<stop stop-color="#22B4FA"/>
<stop offset="1" stop-color="#6BD6FE"/>
</linearGradient>
<linearGradient id="paint2_linear_17_2305" x1="12.1117" y1="13.2556" x2="14.5233" y2="12.5181" gradientUnits="userSpaceOnUse">
<stop stop-color="#6BD6FE"/>
<stop offset="1" stop-color="white"/>
</linearGradient>
<linearGradient id="paint3_linear_17_2305" x1="5.50525" y1="3.38291" x2="9.4641" y2="0.908642" gradientUnits="userSpaceOnUse">
<stop stop-color="#6BD6FE"/>
<stop offset="1" stop-color="white"/>
</linearGradient>
<clipPath id="clip0_17_2305">
<rect width="16" height="16" fill="white"/>
</clipPath>
</defs>
</svg>
