<svg width="16" height="16" viewBox="0 0 16 16" fill="none" xmlns="http://www.w3.org/2000/svg">
<g clip-path="url(#clip0_8_321)">
<path fill-rule="evenodd" clip-rule="evenodd" d="M7.99795 15.958C7.02651 15.949 6.12488 15.3945 5.69003 14.5238L5.40976 13.9633H3.94661C1.76635 13.9633 0 12.1959 0 10.0156C0 7.64289 0.0418898 6.32037 0.0418898 3.94761C0.0418898 1.76735 1.80924 0 3.9895 0H12.0104C12.5609 0 13.0078 0.446824 13.0078 0.997375C13.0078 2.09848 13.9014 2.99213 15.0025 2.99213H15.0175C15.568 3.0011 16.0079 3.45391 15.9999 4.00446C15.9999 4.00446 15.958 6.77517 15.958 10.0156C15.958 12.1959 14.1907 13.9633 12.0104 13.9633H10.632L10.3518 14.5238C9.91191 15.4025 9.00331 15.958 8.02089 15.958H7.99795ZM15.9999 0.997375C15.9999 1.54793 15.5531 1.99475 15.0025 1.99475C14.452 1.99475 14.0051 1.54793 14.0051 0.997375C14.0051 0.446824 14.452 0 15.0025 0C15.5531 0 15.9999 0.446824 15.9999 0.997375Z" fill="url(#paint0_linear_8_321)"/>
<path fill-rule="evenodd" clip-rule="evenodd" d="M13.3616 8.04692C13.1508 7.12523 12.0345 6.57658 11.1859 7.00542C10.2817 7.38526 9.99201 8.65816 10.6243 9.40289C11.0228 9.84669 11.6537 10.0918 12.2411 9.9175C13.0407 9.72417 13.5547 8.84336 13.3616 8.04692ZM2.09865 6.98123C2.92008 6.60687 3.98042 7.11874 4.20037 7.99537C4.44747 8.81487 3.89355 9.74873 3.06265 9.92701C2.42043 10.0999 1.73209 9.77865 1.37365 9.23686C0.864525 8.46501 1.23792 7.31068 2.09865 6.98123ZM6.66999 6.98123C7.49142 6.60687 8.55175 7.11874 8.7717 7.99537C9.0188 8.81487 8.46489 9.74873 7.63398 9.92701C6.99176 10.0999 6.30342 9.77865 5.94499 9.23686C5.43586 8.46501 5.80925 7.31068 6.66999 6.98123Z" fill="#45C5C2"/>
<path fill-rule="evenodd" clip-rule="evenodd" d="M14.5046 6.90398C14.2938 5.98228 13.1774 5.43363 12.3289 5.86247C11.4246 6.24232 11.135 7.51522 11.7673 8.25994C12.1657 8.70374 12.7966 8.94882 13.3841 8.77456C14.1836 8.58122 14.6976 7.70042 14.5046 6.90398ZM3.2416 5.83829C4.06303 5.46393 5.12336 5.9758 5.34332 6.85243C5.59041 7.67193 5.0365 8.60578 4.20559 8.78406C3.56337 8.95698 2.87503 8.6357 2.5166 8.09391C2.00747 7.32207 2.38086 6.16773 3.2416 5.83829ZM7.81293 5.83829C8.63436 5.46393 9.6947 5.9758 9.91465 6.85243C10.1617 7.67193 9.60783 8.60578 8.77692 8.78406C8.13471 8.95698 7.44636 8.6357 7.08793 8.09391C6.5788 7.32207 6.9522 6.16773 7.81293 5.83829Z" fill="url(#paint1_linear_8_321)"/>
</g>
<defs>
<linearGradient id="paint0_linear_8_321" x1="3" y1="13.9633" x2="13.9686" y2="1.96603" gradientUnits="userSpaceOnUse">
<stop stop-color="#00DAD4"/>
<stop offset="1" stop-color="#C4FFFD"/>
</linearGradient>
<linearGradient id="paint1_linear_8_321" x1="4.73772" y1="8.38582" x2="5.10984" y2="5.6536" gradientUnits="userSpaceOnUse">
<stop stop-color="#7EEFEC"/>
<stop offset="1" stop-color="white"/>
</linearGradient>
<clipPath id="clip0_8_321">
<rect width="16" height="16" fill="white"/>
</clipPath>
</defs>
</svg>
