<svg width="16" height="16" viewBox="0 0 16 16" fill="none" xmlns="http://www.w3.org/2000/svg">
<g clip-path="url(#clip0_8_562)">
<path fill-rule="evenodd" clip-rule="evenodd" d="M13 8C13 10 14.664 10.163 14.724 10.193C15.219 10.437 15.423 11.037 15.179 11.532C13.874 14.178 11.148 16 8 16C3.585 16 0 12.415 0 8C0 3.585 3.585 0 8 0C11.148 0 13.874 1.822 15.179 4.468C15.423 4.963 15.219 5.563 14.724 5.807C14.664 5.837 13 6 13 8ZM15 7C15.552 7 16 7.448 16 8C16 8.552 15.552 9 15 9C14.448 9 14 8.552 14 8C14 7.448 14.448 7 15 7Z" fill="url(#paint0_linear_8_562)"/>
<path d="M8.6888 3.89502C8.84109 4.04731 8.92665 4.25386 8.92665 4.46924C8.92665 5.21635 9.53299 5.8227 10.2801 5.8227C10.4955 5.8227 10.702 5.90825 10.8543 6.06055C11.0066 6.21284 11.0922 6.41939 11.0922 6.63477C11.0922 6.85014 11.0066 7.0567 10.8543 7.20899C10.702 7.36129 10.4955 7.44684 10.2801 7.44684C9.79286 7.44684 9.33268 7.3299 8.92665 7.12201V10.9658C8.92653 11.6147 8.71446 12.2457 8.32272 12.763C7.93097 13.2802 7.38099 13.6554 6.75644 13.8313C6.13189 14.0073 5.46697 13.9744 4.86282 13.7377C4.25868 13.501 3.74839 13.0734 3.40959 12.52C3.07079 11.9667 2.92202 11.3178 2.98591 10.6721C3.04981 10.0264 3.32287 9.4192 3.76356 8.94295C4.20425 8.46671 4.78844 8.14745 5.42726 8.03375C6.06607 7.92004 6.72455 8.01812 7.3025 8.31305V4.46924C7.3025 4.25386 7.38806 4.04731 7.54035 3.89502C7.69264 3.74272 7.8992 3.65717 8.11457 3.65717C8.32995 3.65717 8.5365 3.74272 8.6888 3.89502Z" fill="#B85C68"/>
<path d="M9.83162 2.75213C9.98391 2.90443 10.0695 3.11098 10.0695 3.32636C10.0695 4.07346 10.6758 4.67981 11.4229 4.67981C11.6383 4.67981 11.8449 4.76537 11.9971 4.91766C12.1494 5.06996 12.235 5.27651 12.235 5.49189C12.235 5.70726 12.1494 5.91382 11.9971 6.06611C11.8449 6.2184 11.6383 6.30396 11.4229 6.30396C10.9357 6.30396 10.4755 6.18702 10.0695 5.97913V9.82295C10.0693 10.4718 9.85728 11.1029 9.46554 11.6201C9.07379 12.1374 8.52381 12.5125 7.89926 12.6884C7.27471 12.8644 6.60979 12.8315 6.00565 12.5948C5.4015 12.3581 4.89122 11.9305 4.55241 11.3772C4.21361 10.8238 4.06484 10.1749 4.12873 9.52918C4.19263 8.88347 4.46569 8.27632 4.90638 7.80007C5.34707 7.32383 5.93126 7.00457 6.57008 6.89086C7.2089 6.77716 7.86737 6.87524 8.44532 7.17017V3.32636C8.44532 3.11098 8.53088 2.90443 8.68317 2.75213C8.83547 2.59984 9.04202 2.51428 9.25739 2.51428C9.47277 2.51428 9.67932 2.59984 9.83162 2.75213Z" fill="url(#paint1_linear_8_562)"/>
</g>
<defs>
<linearGradient id="paint0_linear_8_562" x1="1.14286" y1="15.0204" x2="15.7918" y2="7.11491" gradientUnits="userSpaceOnUse">
<stop stop-color="#B65592"/>
<stop offset="0.5" stop-color="#FB6F71"/>
<stop offset="1" stop-color="#F9CB52"/>
</linearGradient>
<linearGradient id="paint1_linear_8_562" x1="4.69431" y1="12.1703" x2="12.8196" y2="8.70828" gradientUnits="userSpaceOnUse">
<stop stop-color="#D4A4C4"/>
<stop offset="0.5" stop-color="#F7B1B3"/>
<stop offset="1" stop-color="#F7E1A3"/>
</linearGradient>
<clipPath id="clip0_8_562">
<rect width="16" height="16" fill="white"/>
</clipPath>
</defs>
</svg>
