<svg width="16" height="16" viewBox="0 0 16 16" fill="none" xmlns="http://www.w3.org/2000/svg">
<path fill-rule="evenodd" clip-rule="evenodd" d="M15 3C15.552 3 16 3.448 16 4V12.008C16 14.213 14.213 16 12.008 16C9.643 16 6.357 16 3.992 16C2.933 16 1.918 15.579 1.169 14.831C0.421 14.082 0 13.067 0 12.008C0 9.643 0 6.357 0 3.992C0 1.787 1.787 0 3.992 0C7.249 0 12 0 12 0C12.552 0 13 0.448 13 1C13 2.104 13.896 3 15 3ZM15 2C14.448 2 14 1.552 14 1C14 0.448 14.448 0 15 0C15.552 0 16 0.448 16 1C16 1.552 15.552 2 15 2Z" fill="url(#paint0_linear_243_289)"/>
<path d="M8.175 4.80005C8.175 4.24776 7.72728 3.80005 7.175 3.80005C6.62272 3.80005 6.175 4.24776 6.175 4.80005V7.51422C5.47902 7.85626 5 8.57223 5 9.40005C5 9.66371 5.04859 9.91603 5.13731 10.1485L2.79289 12.4929C2.40237 12.8835 2.40237 13.5166 2.79289 13.9072C3.18342 14.2977 3.81658 14.2977 4.20711 13.9072L6.66032 11.4539C6.80211 11.4842 6.9492 11.5 7.1 11.5C7.29401 11.5 7.48188 11.4737 7.66023 11.4245L10.1429 13.9072C10.5334 14.2977 11.1666 14.2977 11.5571 13.9072C11.9476 13.5166 11.9476 12.8835 11.5571 12.4929L9.10154 10.0374C9.16549 9.83637 9.2 9.62224 9.2 9.40005C9.2 8.63314 8.78887 7.96223 8.175 7.5957V4.80005Z" fill="#8C4FD9"/>
<path fill-rule="evenodd" clip-rule="evenodd" d="M8.175 2.80005C8.72729 2.80005 9.175 3.24776 9.175 3.80005V8.11084L12.5571 11.4929C12.9476 11.8835 12.9476 12.5166 12.5571 12.9072C12.1666 13.2977 11.5334 13.2977 11.1429 12.9072L8.175 9.93926L5.20711 12.9072C4.81658 13.2977 4.18342 13.2977 3.79289 12.9072C3.40237 12.5166 3.40237 11.8835 3.79289 11.4929L7.175 8.11084V3.80005C7.175 3.24776 7.62272 2.80005 8.175 2.80005Z" fill="url(#paint1_linear_243_289)"/>
<path d="M8.17495 10.625C9.33472 10.625 10.275 9.68485 10.275 8.52505C10.275 7.36528 9.33472 6.42505 8.17495 6.42505C7.01515 6.42505 6.07495 7.36528 6.07495 8.52505C6.07495 9.68485 7.01515 10.625 8.17495 10.625Z" fill="url(#paint2_linear_243_289)"/>
<defs>
<linearGradient id="paint0_linear_243_289" x1="4" y1="14.8571" x2="14.5882" y2="2.5042" gradientUnits="userSpaceOnUse">
<stop stop-color="#A056FF"/>
<stop offset="1" stop-color="#C59AFD"/>
</linearGradient>
<linearGradient id="paint1_linear_243_289" x1="5.8375" y1="13.2" x2="15.132" y2="10.4147" gradientUnits="userSpaceOnUse">
<stop stop-color="#C59AFD"/>
<stop offset="1" stop-color="white"/>
</linearGradient>
<linearGradient id="paint2_linear_243_289" x1="10.5" y1="10.5" x2="9.772" y2="6.496" gradientUnits="userSpaceOnUse">
<stop stop-color="#C59AFD"/>
<stop offset="1" stop-color="white"/>
</linearGradient>
</defs>
</svg>
