<svg width="16" height="16" viewBox="0 0 16 16" fill="none" xmlns="http://www.w3.org/2000/svg">
<path fill-rule="evenodd" clip-rule="evenodd" d="M7.99821 14.9633C7.14819 14.9554 6.35927 14.4702 5.97877 13.7083L5.73354 13.2178H4.45329C2.54556 13.2178 1 11.6714 1 9.76369C1 7.68753 1.03665 6.53032 1.03665 4.45416C1.03665 2.54643 2.58308 1 4.49081 1H11.5091C11.9908 1 12.3818 1.39097 12.3818 1.8727C12.3818 2.83617 13.1637 3.61811 14.1272 3.61811H14.1403C14.622 3.62596 15.0069 4.02217 14.9999 4.5039C14.9999 4.5039 14.9633 6.92827 14.9633 9.76369C14.9633 11.6714 13.4168 13.2178 11.5091 13.2178H10.303L10.0578 13.7083C9.67293 14.4772 8.87789 14.9633 8.01828 14.9633H7.99821ZM14.9999 1.8727C14.9999 2.35444 14.6089 2.74541 14.1272 2.74541C13.6455 2.74541 13.2545 2.35444 13.2545 1.8727C13.2545 1.39097 13.6455 1 14.1272 1C14.6089 1 14.9999 1.39097 14.9999 1.8727Z" fill="url(#paint0_linear_8_321)"/>
<path fill-rule="evenodd" clip-rule="evenodd" d="M12.6914 8.04103C12.507 7.23454 11.5302 6.75447 10.7877 7.12971C9.99648 7.46207 9.74304 8.57586 10.2963 9.2275C10.645 9.61582 11.197 9.83026 11.711 9.67778C12.4106 9.50862 12.8604 8.73791 12.6914 8.04103ZM2.83635 7.10855C3.5551 6.78098 4.4829 7.22887 4.67536 7.99592C4.89157 8.71298 4.40689 9.53011 3.67985 9.6861C3.11791 9.83741 2.51561 9.55629 2.20198 9.08222C1.75649 8.40685 2.08321 7.39681 2.83635 7.10855ZM6.83627 7.10855C7.55502 6.78098 8.48281 7.22887 8.67527 7.99592C8.89148 8.71298 8.40681 9.53011 7.67976 9.6861C7.11782 9.83741 6.51552 9.55629 6.2019 9.08222C5.75641 8.40685 6.08313 7.39681 6.83627 7.10855Z" fill="#344CD8"/>
<path fill-rule="evenodd" clip-rule="evenodd" d="M13.6914 7.04103C13.507 6.23454 12.5302 5.75447 11.7877 6.12971C10.9965 6.46207 10.743 7.57586 11.2963 8.2275C11.645 8.61582 12.197 8.83026 12.711 8.67778C13.4106 8.50862 13.8604 7.73791 13.6914 7.04103ZM3.83635 6.10855C4.5551 5.78098 5.4829 6.22887 5.67536 6.99592C5.89157 7.71298 5.40689 8.53011 4.67985 8.6861C4.11791 8.83741 3.51561 8.55629 3.20198 8.08222C2.75649 7.40685 3.08321 6.39681 3.83635 6.10855ZM7.83627 6.10855C8.55502 5.78098 9.48281 6.22887 9.67527 6.99592C9.89148 7.71298 9.40681 8.53011 8.67976 8.6861C8.11782 8.83741 7.51552 8.55629 7.2019 8.08222C6.75641 7.40685 7.08313 6.39681 7.83627 6.10855Z" fill="url(#paint1_linear_8_321)"/>
<defs>
<linearGradient id="paint0_linear_8_321" x1="1.875" y1="14.9708" x2="17.2129" y2="4.14189" gradientUnits="userSpaceOnUse">
<stop stop-color="#2E4AFA"/>
<stop offset="1" stop-color="#8E9EFF"/>
</linearGradient>
<linearGradient id="paint1_linear_8_321" x1="2.99992" y1="8.7272" x2="13.0745" y2="7.71111" gradientUnits="userSpaceOnUse">
<stop stop-color="#8E9EFF"/>
<stop offset="1" stop-color="white"/>
</linearGradient>
</defs>
</svg>
