<svg width="16" height="16" viewBox="0 0 16 16" fill="none" xmlns="http://www.w3.org/2000/svg">
<path fill-rule="evenodd" clip-rule="evenodd" d="M13.5221 11.9417C14.6024 10.8651 15.2708 9.37566 15.2708 7.73006C15.2708 4.44607 12.6086 1.78387 9.32465 1.78387C7.79891 1.78387 6.40739 2.35852 5.3547 3.30318L3.96294 2.39817C3.93543 2.38009 3.90709 2.37645 3.8766 2.37942L3.87621 2.37906L3.87585 2.37875C3.84493 2.38255 3.81187 2.38981 3.78852 2.41319L2.71248 3.48232C2.66733 3.52731 2.66254 3.59533 2.69573 3.6498L3.7134 5.31961C3.77208 5.4159 3.78551 5.5306 3.75724 5.63717C3.74776 5.66238 3.73845 5.68767 3.7293 5.71304C3.72551 5.72097 3.72146 5.72881 3.71717 5.73655C3.5454 6.04595 3.40329 6.37375 3.29253 6.71589C3.24674 6.85737 3.13131 6.96678 2.98567 6.99683L1.11125 7.38341C1.04712 7.39653 1 7.45809 1 7.52366V9.03328C1 9.09722 1.04914 9.15157 1.11135 9.16631L2.91957 9.60229C3.06618 9.63761 3.17884 9.75344 3.21876 9.89888C3.32825 10.2979 3.48174 10.6784 3.67281 11.036C3.74436 11.17 3.74139 11.3327 3.65763 11.4594L2.60128 13.0566C2.56511 13.1114 2.57237 13.1845 2.61902 13.231L3.6941 14.2992C3.73949 14.3442 3.81009 14.3498 3.86455 14.3169L5.52413 13.3164C5.6496 13.2408 5.80594 13.2415 5.93474 13.3112C6.26574 13.4903 6.61668 13.6365 6.98392 13.7458C7.12964 13.7892 7.24349 13.9059 7.27461 14.0547L7.6583 15.8895C7.67189 15.9536 7.7264 16 7.79248 16H9.31296C9.3765 16 9.43184 15.9572 9.44695 15.8956L9.90663 14.0341C9.94151 13.8927 10.0515 13.783 10.1906 13.74C10.4305 13.6657 10.6627 13.5745 10.8869 13.4689C11.1169 13.4064 11.3413 13.3305 11.5593 13.242C11.5995 13.2527 11.6382 13.2696 11.6742 13.293L13.3353 14.3741C13.3905 14.4097 13.4628 14.4032 13.5097 14.3574L14.5798 13.2892C14.6252 13.2442 14.6358 13.1749 14.6025 13.1208L14.0031 12.1389C13.9263 12.013 13.7734 11.9558 13.6328 12.0004C13.6004 12.0103 13.5648 11.9969 13.5436 11.9708C13.5415 11.9682 13.5396 11.9656 13.5378 11.963C13.5369 11.9617 13.536 11.9605 13.535 11.9592L13.5221 11.9417Z" fill="url(#paint0_linear_123_3)"/>
<path d="M7.69907 1.42712L5.5198 1.64249C5.31695 1.66254 5.16235 1.83315 5.16235 2.03698V11.952C5.16235 12.1952 5.37943 12.3811 5.61981 12.3437L7.34956 12.0742C7.54261 12.0441 7.68496 11.8779 7.68496 11.6825V8.73883C7.68496 8.35125 8.18385 8.194 8.40611 8.51152L11.0465 12.2835C11.1473 12.4275 11.331 12.4879 11.4977 12.4318L13.6491 11.7078C13.9178 11.6174 14.0075 11.2824 13.8199 11.0698L10.4399 7.23999C10.3072 7.08975 10.3076 6.86411 10.4408 6.71435L13.8443 2.88543C14.0333 2.67272 13.9433 2.33599 13.6733 2.246L11.4971 1.52058C11.3307 1.46511 11.1476 1.52561 11.047 1.66932L8.40611 5.44199C8.18385 5.75951 7.68496 5.60225 7.68496 5.21468V1.4412C7.68496 1.43341 7.69126 1.4271 7.69907 1.42712Z" fill="#279FD7"/>
<path d="M9.19492 9.11585e-08L7.01565 0.215371C6.8128 0.235417 6.6582 0.406025 6.6582 0.60986V10.5249C6.6582 10.7681 6.87528 10.954 7.11566 10.9166L8.84541 10.647C9.03846 10.617 9.18081 10.4507 9.18081 10.2553V7.3117C9.18081 6.92413 9.6797 6.76687 9.90196 7.0844L12.5423 10.8563C12.6432 11.0004 12.8269 11.0608 12.9935 11.0047L15.145 10.2807C15.4136 10.1902 15.5033 9.85524 15.3157 9.64268L11.9357 5.81287C11.8031 5.66263 11.8035 5.43699 11.9366 5.28723L15.3401 1.4583C15.5292 1.2456 15.4392 0.908866 15.1692 0.818873L12.9929 0.0934582C12.8265 0.0379843 12.6434 0.0984887 12.5428 0.2422L9.90196 4.01486C9.6797 4.33239 9.18081 4.17513 9.18081 3.78756V0.0140767C9.18081 0.00628325 9.18711 -2.76577e-05 9.19492 9.11585e-08Z" fill="url(#paint1_linear_123_3)"/>
<defs>
<linearGradient id="paint0_linear_123_3" x1="2.42708" y1="16.0045" x2="7.54575" y2="0.587463" gradientUnits="userSpaceOnUse">
<stop offset="0.190745" stop-color="#22B4FA"/>
<stop offset="0.896724" stop-color="#7DDCFF"/>
</linearGradient>
<linearGradient id="paint1_linear_123_3" x1="6.6582" y1="11.0255" x2="17.2173" y2="8.92277" gradientUnits="userSpaceOnUse">
<stop stop-color="#6BD6FE"/>
<stop offset="1" stop-color="white"/>
</linearGradient>
</defs>
</svg>
