<svg width="16" height="16" viewBox="0 0 16 16" fill="none" xmlns="http://www.w3.org/2000/svg">
<path d="M0 7.8C0 5.15 2.15 3 4.8 3H11.2C13.85 3 16 5.15 16 7.8C16 10.45 13.85 12.6 11.2 12.6H10.5962C10.0439 12.6 9.63402 12.0987 9.29301 11.6643C9.26968 11.6345 9.24508 11.6066 9.21924 11.5808C8.97545 11.337 8.64479 11.2 8.3 11.2C7.95521 11.2 7.62455 11.337 7.38076 11.5808C7.35492 11.6066 7.33032 11.6345 7.30699 11.6643C6.96597 12.0987 6.55613 12.6 6.00385 12.6H4.8C2.15 12.6 0 10.45 0 7.8Z" fill="url(#paint0_linear_140_15744)"/>
<path d="M12.6684 5.83157C12.4561 5.61927 12.1682 5.5 11.8679 5.5C11.5677 5.5 11.2797 5.61927 11.0674 5.83157C10.8551 6.04387 10.7358 6.33182 10.7358 6.63207C10.7358 6.93232 10.8551 7.22028 11.0674 7.43258C11.2797 7.64488 11.5677 7.76415 11.8679 7.76415C12.1682 7.76415 12.4561 7.64488 12.6684 7.43258C12.8807 7.22028 13 6.93232 13 6.63207C13 6.33182 12.8807 6.04387 12.6684 5.83157Z" fill="#8C4FD9"/>
<path d="M10.9326 8.33157C10.7203 8.11927 10.4323 8 10.1321 8C9.83182 8 9.54387 8.11927 9.33157 8.33157C9.11927 8.54387 9 8.83182 9 9.13207C9 9.43232 9.11927 9.72028 9.33157 9.93258C9.54387 10.1449 9.83182 10.2642 10.1321 10.2642C10.4323 10.2642 10.7203 10.1449 10.9326 9.93258C11.1449 9.72028 11.2641 9.43232 11.2641 9.13207C11.2641 8.83182 11.1449 8.54387 10.9326 8.33157Z" fill="#8C4FD9"/>
<path d="M3.26415 5.72644C2.88773 5.72644 2.5849 6.02927 2.5849 6.40567V7.06134C2.5849 7.19942 2.47297 7.31134 2.3349 7.31134H1.67925C1.30283 7.31134 1 7.61417 1 7.99059C1 8.36699 1.30283 8.66982 1.67925 8.66982H2.3349C2.47297 8.66982 2.5849 8.78177 2.5849 8.91982V9.57549C2.5849 9.95189 2.88773 10.2547 3.26415 10.2547C3.64058 10.2547 3.9434 9.95189 3.9434 9.57549V8.91982C3.9434 8.78177 4.05532 8.66982 4.1934 8.66982H4.84905C5.22548 8.66982 5.5283 8.36699 5.5283 7.99059C5.5283 7.61417 5.22548 7.31134 4.84905 7.31134H4.1934C4.05532 7.31134 3.9434 7.19942 3.9434 7.06134V6.40567C3.9434 6.02927 3.64058 5.72644 3.26415 5.72644Z" fill="#8C4FD9"/>
<path d="M13.6684 5.33157C13.4561 5.11927 13.1682 5 12.8679 5C12.5677 5 12.2797 5.11927 12.0674 5.33157C11.8551 5.54387 11.7358 5.83182 11.7358 6.13207C11.7358 6.43232 11.8551 6.72028 12.0674 6.93258C12.2797 7.14488 12.5677 7.26415 12.8679 7.26415C13.1682 7.26415 13.4561 7.14488 13.6684 6.93258C13.8807 6.72028 14 6.43232 14 6.13207C14 5.83182 13.8807 5.54387 13.6684 5.33157Z" fill="url(#paint1_linear_140_15744)"/>
<path d="M11.9326 7.83157C11.7203 7.61927 11.4323 7.5 11.1321 7.5C10.8318 7.5 10.5439 7.61927 10.3316 7.83157C10.1193 8.04387 10 8.33182 10 8.63207C10 8.93232 10.1193 9.22028 10.3316 9.43258C10.5439 9.64488 10.8318 9.76415 11.1321 9.76415C11.4323 9.76415 11.7203 9.64488 11.9326 9.43258C12.1449 9.22028 12.2641 8.93232 12.2641 8.63207C12.2641 8.33182 12.1449 8.04387 11.9326 7.83157Z" fill="url(#paint2_linear_140_15744)"/>
<path d="M4.26415 5.22644C3.88773 5.22644 3.5849 5.52927 3.5849 5.90567V6.56134C3.5849 6.69942 3.47297 6.81134 3.3349 6.81134H2.67925C2.30283 6.81134 2 7.11417 2 7.49059C2 7.86699 2.30283 8.16982 2.67925 8.16982H3.3349C3.47297 8.16982 3.5849 8.28177 3.5849 8.41982V9.07549C3.5849 9.45189 3.88773 9.75474 4.26415 9.75474C4.64058 9.75474 4.9434 9.45189 4.9434 9.07549V8.41982C4.9434 8.28177 5.05532 8.16982 5.1934 8.16982H5.84905C6.22548 8.16982 6.5283 7.86699 6.5283 7.49059C6.5283 7.11417 6.22548 6.81134 5.84905 6.81134H5.1934C5.05532 6.81134 4.9434 6.69942 4.9434 6.56134V5.90567C4.9434 5.52927 4.64058 5.22644 4.26415 5.22644Z" fill="url(#paint3_linear_140_15744)"/>
<path d="M7.59288 12.2929C7.40535 12.4804 7.29999 12.7348 7.29999 13C7.29999 13.2652 7.40535 13.5196 7.59288 13.7071C7.78041 13.8946 8.03477 14 8.29999 14C8.56521 14 8.81956 13.8946 9.0071 13.7071C9.19463 13.5196 9.29999 13.2652 9.29999 13C9.29999 12.7348 9.19463 12.4804 9.0071 12.2929C8.81956 12.1054 8.56521 12 8.29999 12C8.03477 12 7.78041 12.1054 7.59288 12.2929Z" fill="url(#paint4_linear_140_15744)"/>
<defs>
<linearGradient id="paint0_linear_140_15744" x1="4" y1="11.9143" x2="9.22918" y2="1.74644" gradientUnits="userSpaceOnUse">
<stop stop-color="#A056FF"/>
<stop offset="1" stop-color="#C59AFD"/>
</linearGradient>
<linearGradient id="paint1_linear_140_15744" x1="12.3019" y1="7.26415" x2="14.5094" y2="6.5283" gradientUnits="userSpaceOnUse">
<stop stop-color="#C59AFD"/>
<stop offset="1" stop-color="white"/>
</linearGradient>
<linearGradient id="paint2_linear_140_15744" x1="10.566" y1="9.76415" x2="12.7736" y2="9.0283" gradientUnits="userSpaceOnUse">
<stop stop-color="#C59AFD"/>
<stop offset="1" stop-color="white"/>
</linearGradient>
<linearGradient id="paint3_linear_140_15744" x1="3.13207" y1="9.75474" x2="7.54717" y2="8.28304" gradientUnits="userSpaceOnUse">
<stop stop-color="#C59AFD"/>
<stop offset="1" stop-color="white"/>
</linearGradient>
<linearGradient id="paint4_linear_140_15744" x1="7.79999" y1="13.8571" x2="9.12352" y2="12.313" gradientUnits="userSpaceOnUse">
<stop stop-color="#A056FF"/>
<stop offset="1" stop-color="#C59AFD"/>
</linearGradient>
</defs>
</svg>
