<svg width="16" height="16" viewBox="0 0 16 16" fill="none" xmlns="http://www.w3.org/2000/svg">
<path fill-rule="evenodd" clip-rule="evenodd" d="M3.75 14.125C3.75 14.608 3.358 15 2.875 15C2.392 15 2 14.608 2 14.125C2 13.642 2.392 13.25 2.875 13.25C3.358 13.25 3.75 13.642 3.75 14.125ZM4.66875 1.875H11.5812C13.0574 1.89075 14.25 3.09213 14.25 4.57263V12.3024C14.25 13.0181 13.9656 13.7041 13.4599 14.2099C12.9541 14.7156 12.2681 15 11.5524 15H5.5C5.017 15 4.625 14.608 4.625 14.125C4.625 13.159 3.841 12.375 2.875 12.375C2.392 12.375 2 11.983 2 11.5V4.57263C2 3.09213 3.19263 1.89075 4.66875 1.875Z" fill="url(#paint0_linear_5_102)"/>
<path fill-rule="evenodd" clip-rule="evenodd" d="M5.5 12.375H7.25C7.733 12.375 8.125 11.983 8.125 11.5C8.125 11.017 7.733 10.625 7.25 10.625H5.5C5.017 10.625 4.625 11.017 4.625 11.5C4.625 11.983 5.017 12.375 5.5 12.375ZM5.5 9.75H9C9.483 9.75 9.875 9.358 9.875 8.875C9.875 8.392 9.483 8 9 8H5.5C5.017 8 4.625 8.392 4.625 8.875C4.625 9.358 5.017 9.75 5.5 9.75Z" fill="#8C4FD9"/>
<path fill-rule="evenodd" clip-rule="evenodd" d="M4 4.0625C4 5.27088 4.97912 6.25 6.1875 6.25H8.8125C10.0209 6.25 11 5.27088 11 4.0625C11 2.85412 10.0209 1.875 8.8125 1.875H6.1875C4.97912 1.875 4 2.85412 4 4.0625Z" fill="#8C4FD9"/>
<path fill-rule="evenodd" clip-rule="evenodd" d="M4.87457 3.1875C4.87457 4.39588 5.85501 5.375 7.06251 5.375H9.68751C10.895 5.375 11.8754 4.39588 11.8754 3.1875C11.8754 1.97912 10.895 1 9.68751 1H7.06251C5.85501 1 4.87457 1.97912 4.87457 3.1875Z" fill="url(#paint1_linear_5_102)"/>
<path fill-rule="evenodd" clip-rule="evenodd" d="M6.375 8.875H9.875C10.358 8.875 10.75 8.483 10.75 8C10.75 7.517 10.358 7.125 9.875 7.125H6.375C5.892 7.125 5.5 7.517 5.5 8C5.5 8.483 5.892 8.875 6.375 8.875Z" fill="url(#paint2_linear_5_102)"/>
<path fill-rule="evenodd" clip-rule="evenodd" d="M6.375 11.5H8.125C8.608 11.5 9 11.108 9 10.625C9 10.142 8.608 9.75 8.125 9.75H6.375C5.892 9.75 5.5 10.142 5.5 10.625C5.5 11.108 5.892 11.5 6.375 11.5Z" fill="url(#paint3_linear_5_102)"/>
<defs>
<linearGradient id="paint0_linear_5_102" x1="5.0625" y1="14.0625" x2="13.8198" y2="4.52678" gradientUnits="userSpaceOnUse">
<stop stop-color="#A056FF"/>
<stop offset="1" stop-color="#C59AFD"/>
</linearGradient>
<linearGradient id="paint1_linear_5_102" x1="6.62479" y1="5.0625" x2="9.06361" y2="0.509471" gradientUnits="userSpaceOnUse">
<stop stop-color="#A056FF"/>
<stop offset="1" stop-color="#C59AFD"/>
</linearGradient>
<linearGradient id="paint2_linear_5_102" x1="6.8125" y1="8.875" x2="9.65625" y2="6.03125" gradientUnits="userSpaceOnUse">
<stop stop-color="#C59AFD"/>
<stop offset="1" stop-color="white"/>
</linearGradient>
<linearGradient id="paint3_linear_5_102" x1="6.375" y1="11.5" x2="9" y2="9.75" gradientUnits="userSpaceOnUse">
<stop stop-color="#C59AFD"/>
<stop offset="1" stop-color="white"/>
</linearGradient>
</defs>
</svg>
