<svg width="16" height="16" viewBox="0 0 16 16" fill="none" xmlns="http://www.w3.org/2000/svg">
<g clip-path="url(#clip0_62_699)">
<path fill-rule="evenodd" clip-rule="evenodd" d="M1 13C0.448 13 0 12.552 0 12V3.992C0 1.787 1.787 0 3.992 0C6.357 0 9.643 0 12.008 0C13.067 0 14.082 0.421001 14.831 1.169C15.579 1.918 16 2.933 16 3.992C16 6.357 16 9.643 16 12.008C16 14.213 14.213 16 12.008 16C8.751 16 4 16 4 16C3.448 16 3 15.552 3 15C3 13.896 2.104 13 1 13ZM1 14C1.552 14 2 14.448 2 15C2 15.552 1.552 16 1 16C0.448 16 0 15.552 0 15C0 14.448 0.448 14 1 14Z" fill="url(#paint0_linear_62_699)"/>
<path d="M6.77335 4.03728C6.78954 4.02126 6.80973 4.00923 6.8339 4.00122C6.85816 3.9932 6.88639 3.9892 6.9187 3.9892C6.95108 3.9892 6.98338 3.9892 7.01562 3.9892C7.04785 3.9892 7.08022 3.9892 7.11252 3.9892C7.1449 3.9892 7.17714 3.9892 7.20944 3.9892C7.24169 3.9892 7.27406 3.9892 7.30636 3.9892C7.33874 3.9892 7.37098 3.9892 7.40328 3.9892C7.43566 3.9892 7.46796 3.9892 7.50013 3.9892C7.53243 3.9892 7.5648 3.9892 7.59712 3.9892C7.62935 3.9892 7.66172 3.9892 7.69404 3.9892C7.72627 3.9892 7.75864 3.9892 7.79094 3.9892C7.82326 3.9892 7.85556 3.9892 7.88786 3.9892C7.9201 3.9892 7.94848 3.9932 7.97259 4.00122C7.99683 4.00923 8.01702 4.02126 8.03321 4.03728C8.0494 4.05332 8.06951 4.06535 8.09375 4.07336C8.11792 4.08137 8.14632 4.08539 8.17862 4.08539C8.21084 4.08539 8.24322 4.08539 8.27546 4.08539C8.30776 4.08539 8.34001 4.08539 8.37238 4.08539C8.40468 4.08539 8.43293 4.08939 8.45717 4.09738C8.48141 4.10544 8.5016 4.11744 8.51779 4.13348C8.53384 4.1495 8.55409 4.16153 8.57826 4.16954C8.60258 4.17756 8.63075 4.18156 8.66312 4.18156C8.69544 4.18156 8.72368 4.18558 8.74785 4.19359C8.77217 4.2016 8.79236 4.21363 8.8084 4.22965C8.82459 4.24569 8.84485 4.2577 8.86902 4.26573C8.89326 4.27372 8.91751 4.28175 8.94169 4.28976C8.96594 4.29781 8.98612 4.30979 9.00237 4.32584C9.01842 4.34187 9.03861 4.35391 9.06285 4.36192C9.0871 4.36993 9.11127 4.37794 9.13559 4.38594C9.15983 4.39397 9.18002 4.40598 9.19607 4.42203C9.21232 4.43804 9.23243 4.45008 9.25668 4.45808C9.28094 4.46611 9.30518 4.4741 9.32935 4.48216C9.3536 4.49016 9.37378 4.5022 9.3899 4.51819C9.40608 4.53425 9.42627 4.54626 9.45052 4.55428C9.4747 4.5623 9.49894 4.57031 9.52319 4.57834C9.54743 4.58632 9.56768 4.59836 9.58373 4.6144C9.59992 4.63044 9.61611 4.64645 9.63216 4.66247C9.64835 4.67853 9.66446 4.69455 9.68065 4.71057C9.69684 4.72661 9.71703 4.73864 9.74127 4.74667C9.76552 4.75466 9.78969 4.76268 9.81393 4.77069C9.83819 4.77871 9.8583 4.79073 9.87449 4.80676C9.89068 4.82279 9.90687 4.83883 9.92291 4.85487C9.93909 4.87088 9.95521 4.8869 9.97139 4.90295C9.98758 4.91898 10.0037 4.935 10.0198 4.95104C10.036 4.96708 10.0521 4.98311 10.0683 4.99912C10.0844 5.01517 10.1006 5.03119 10.1167 5.04722C10.1329 5.06326 10.149 5.07928 10.1652 5.09534C10.1814 5.11133 10.1975 5.12736 10.2137 5.14341C10.2298 5.15943 10.246 5.17547 10.2622 5.19151C10.2782 5.20755 10.2944 5.22355 10.3106 5.23958C10.3268 5.25562 10.3429 5.27166 10.3591 5.28769C10.3751 5.30371 10.3914 5.31977 10.4075 5.33576C10.4237 5.35181 10.4357 5.37185 10.4438 5.39589C10.4519 5.41994 10.46 5.44396 10.468 5.46804C10.4762 5.49208 10.4882 5.51212 10.5044 5.52814C10.5206 5.5442 10.5367 5.56022 10.5528 5.57623C10.5689 5.59227 10.5851 5.60831 10.6013 5.62433C10.6175 5.64036 10.6296 5.66039 10.6376 5.68443C10.6458 5.70851 10.6538 5.73253 10.6619 5.75658C10.67 5.78064 10.6821 5.80066 10.6982 5.8167C10.7144 5.83274 10.7305 5.84876 10.7467 5.86479C10.7628 5.88083 10.779 5.89685 10.7952 5.9129C10.8112 5.9289 10.8234 5.94894 10.8315 5.97302C10.8396 5.99704 10.8476 6.02109 10.8556 6.04516C10.8637 6.06918 10.8759 6.0892 10.8921 6.10525C10.9082 6.12128 10.9203 6.14132 10.9284 6.16537C10.9364 6.18941 10.9405 6.21747 10.9405 6.24953C10.9405 6.2816 10.9446 6.30965 10.9526 6.33367C10.9606 6.35772 10.9728 6.37777 10.9889 6.39381C11.0051 6.40984 11.0172 6.42987 11.0253 6.45392C11.0334 6.47796 11.0374 6.50601 11.0374 6.53806C11.0374 6.57014 11.0414 6.59817 11.0495 6.62224C11.0577 6.64629 11.0697 6.66633 11.0859 6.68235C11.102 6.69839 11.1141 6.71843 11.1222 6.74248C11.1303 6.7665 11.1343 6.79455 11.1343 6.82666C11.1343 6.85871 11.1343 6.89074 11.1343 6.92287C11.1343 6.95487 11.1384 6.98297 11.1464 7.007C11.1546 7.03104 11.1666 7.05108 11.1828 7.06713C11.1989 7.08311 11.2111 7.10315 11.2191 7.12718C11.2272 7.1513 11.2313 7.17932 11.2313 7.21135C11.2313 7.24344 11.2313 7.27554 11.2313 7.30757C11.2313 7.33959 11.2313 7.37168 11.2313 7.40372C11.2313 7.43581 11.2313 7.46783 11.2313 7.49992C11.2313 7.53195 11.2313 7.56397 11.2313 7.59614C11.2313 7.62816 11.2313 7.66027 11.2313 7.69229C11.2313 7.72438 11.2313 7.75641 11.2313 7.78843C11.2313 7.82053 11.2313 7.85256 11.2313 7.88471C11.2313 7.91675 11.2313 7.94877 11.2313 7.9808C11.2313 8.01297 11.2313 8.04499 11.2313 8.07701C11.2313 8.10911 11.2313 8.14113 11.2313 8.17322C11.2313 8.20526 11.2272 8.23335 11.2191 8.25739C11.2111 8.28143 11.1989 8.3014 11.1828 8.31744C11.1666 8.33356 11.1546 8.35354 11.1464 8.37765C11.1384 8.40161 11.1343 8.4297 11.1343 8.46181C11.1343 8.49383 11.1343 8.52585 11.1343 8.55796C11.1343 8.58998 11.1303 8.61807 11.1222 8.64211C11.1141 8.66622 11.102 8.6862 11.0859 8.70224C11.0697 8.71822 11.0577 8.73833 11.0495 8.76236C11.0414 8.7864 11.0374 8.81444 11.0374 8.84653C11.0374 8.87855 11.0334 8.90658 11.0253 8.93069C11.0172 8.95466 11.0051 8.97477 10.9889 8.99082C10.9728 9.0068 10.9606 9.02684 10.9526 9.05088C10.9446 9.07499 10.9364 9.09895 10.9284 9.12299C10.9203 9.1471 10.9082 9.16713 10.8921 9.18317C10.8759 9.19909 10.8637 9.21921 10.8556 9.24324C10.8476 9.26734 10.8396 9.29132 10.8315 9.31541C10.8234 9.33945 10.8112 9.3595 10.7952 9.37547C10.779 9.39152 10.7628 9.40757 10.7467 9.42361C10.7305 9.43967 10.7144 9.45565 10.6982 9.47176C10.6821 9.4878 10.67 9.50778 10.6619 9.53174C10.6538 9.55593 10.6458 9.57989 10.6376 9.604C10.6296 9.62803 10.6175 9.64807 10.6013 9.66405C10.5851 9.68009 10.5689 9.69607 10.5528 9.71213C10.5367 9.72824 10.5206 9.74422 10.5044 9.76027C10.4882 9.77624 10.4722 9.79237 10.4559 9.8084C10.4398 9.82431 10.4237 9.84036 10.4075 9.85642C10.3914 9.87246 10.3751 9.88851 10.3591 9.90449C10.3429 9.9206 10.3268 9.93664 10.3106 9.95262C10.2944 9.96868 10.2782 9.98472 10.2622 10.0008C10.246 10.0168 10.2298 10.0327 10.2137 10.0488C10.1975 10.0648 10.1814 10.0809 10.1652 10.0969C10.149 10.113 10.1329 10.1289 10.1167 10.1449C10.1006 10.161 10.0844 10.1771 10.0683 10.1931C10.0521 10.2091 10.036 10.2251 10.0198 10.2412C10.0037 10.2572 9.98758 10.2732 9.97139 10.2893C9.95521 10.3054 9.93496 10.3173 9.91085 10.3253C9.88661 10.3334 9.86229 10.3414 9.83819 10.3493C9.81393 10.3574 9.79376 10.3694 9.77757 10.3855C9.76138 10.4015 9.74127 10.4135 9.71703 10.4216C9.69284 10.4295 9.6686 10.4375 9.64435 10.4456C9.62011 10.4535 9.59992 10.4657 9.58373 10.4816C9.56768 10.4977 9.54743 10.5097 9.52319 10.5177C9.49894 10.5257 9.4747 10.5338 9.45052 10.5418C9.42627 10.5498 9.40608 10.5618 9.3899 10.5779C9.37378 10.5938 9.3536 10.6059 9.32935 10.6139C9.30518 10.6219 9.27686 10.6259 9.24449 10.6259C9.21232 10.6259 9.18402 10.6299 9.15983 10.6379C9.13559 10.6459 9.11534 10.658 9.09915 10.6741C9.0831 10.6901 9.06285 10.702 9.03861 10.7101C9.01435 10.7181 8.98612 10.7221 8.95381 10.7221C8.9215 10.7221 8.89326 10.7261 8.86902 10.7341C8.84485 10.7421 8.82459 10.7542 8.8084 10.7702C8.79236 10.7863 8.77217 10.7983 8.74785 10.8062C8.72368 10.8143 8.69544 10.8184 8.66312 10.8184C8.63075 10.8184 8.59852 10.8184 8.56622 10.8184C8.53384 10.8184 8.5016 10.8184 8.4693 10.8184C8.43698 10.8184 8.40468 10.8184 8.37238 10.8184C8.34001 10.8184 8.30776 10.8184 8.27546 10.8184C8.24322 10.8184 8.21084 10.8184 8.17862 10.8184C8.14632 10.8184 8.11394 10.8184 8.0817 10.8184C8.0494 10.8184 8.01702 10.8184 7.98471 10.8184C7.95248 10.8184 7.9201 10.8184 7.88786 10.8184C7.85556 10.8184 7.82326 10.8184 7.79094 10.8184C7.75864 10.8184 7.73026 10.8143 7.70608 10.8062C7.68183 10.7983 7.66172 10.7863 7.64553 10.7702C7.62935 10.7542 7.60923 10.7421 7.58492 10.7341C7.56082 10.7261 7.53243 10.7221 7.50013 10.7221C7.46796 10.7221 7.43566 10.7221 7.40328 10.7221C7.37098 10.7221 7.34274 10.7181 7.31849 10.7101C7.29431 10.702 7.27406 10.6901 7.25795 10.6741C7.24169 10.658 7.22157 10.6459 7.19739 10.6379C7.17314 10.6299 7.1489 10.6219 7.12465 10.6139C7.10048 10.6059 7.08022 10.5938 7.06411 10.5779C7.048 10.5618 7.02781 10.5498 7.00356 10.5418C6.97932 10.5338 6.95506 10.5257 6.93082 10.5177C6.90665 10.5097 6.88639 10.4977 6.87027 10.4816C6.85416 10.4657 6.8339 10.4535 6.80973 10.4456C6.78548 10.4375 6.76124 10.4295 6.73699 10.4216C6.71281 10.4135 6.69256 10.4015 6.67643 10.3855C6.66032 10.3694 6.64413 10.3533 6.62809 10.3374C6.61183 10.3214 6.59572 10.3054 6.57953 10.2893C6.5634 10.2732 6.54721 10.2572 6.53103 10.2412C6.51491 10.2251 6.4988 10.2091 6.48267 10.1931C6.46648 10.1771 6.45029 10.161 6.43411 10.1449C6.41807 10.1289 6.40188 10.113 6.38577 10.0969C6.36958 10.0809 6.35339 10.0648 6.3372 10.0488C6.32115 10.0327 6.30496 10.0168 6.28885 10.0008C6.27266 9.98472 6.25647 9.96868 6.24042 9.95262C6.22423 9.93664 6.20804 9.9206 6.19193 9.90449C6.17574 9.88851 6.15955 9.87246 6.1435 9.85642C6.12731 9.84036 6.11112 9.82431 6.09501 9.8084C6.07882 9.79237 6.06263 9.77624 6.04658 9.76027C6.03039 9.74422 6.0182 9.72418 6.01022 9.70014C6.00216 9.67611 5.99409 9.652 5.98598 9.62803C5.9779 9.604 5.96579 9.58389 5.94968 9.56783C5.93349 9.55185 5.9173 9.53581 5.90117 9.51976C5.88498 9.50378 5.86894 9.4878 5.85276 9.47176C5.83657 9.45565 5.82436 9.43567 5.81638 9.41156C5.80833 9.3876 5.80425 9.3595 5.80425 9.32739C5.80425 9.29537 5.80027 9.26734 5.79214 9.24324C5.78408 9.21921 5.77203 9.19909 5.75584 9.18317C5.73965 9.16713 5.7276 9.1471 5.71946 9.12299C5.71141 9.09895 5.70735 9.07091 5.70735 9.03882C5.70735 9.0068 5.70335 8.97884 5.69522 8.95466C5.68716 8.93069 5.67511 8.91066 5.65892 8.8946C5.64273 8.87855 5.63068 8.85851 5.62254 8.83455C5.61449 8.81044 5.61049 8.7824 5.61049 8.75038C5.61049 8.71822 5.61049 8.6862 5.61049 8.65416C5.61049 8.62207 5.61049 8.58998 5.61049 8.55796C5.61049 8.52585 5.61049 8.49383 5.61049 8.46181C5.61049 8.4297 5.61049 8.39761 5.61049 8.36559C5.61049 8.33356 5.61049 8.3014 5.61049 8.26937C5.61049 8.23735 5.61049 8.20526 5.61049 8.17322C5.61049 8.14113 5.61049 8.10911 5.61049 8.07701C5.61049 8.04499 5.61049 8.01297 5.61049 7.9808C5.61049 7.94877 5.61049 7.91675 5.61049 7.88471C5.61049 7.85256 5.61449 7.82453 5.62254 7.80049C5.63068 7.77645 5.64273 7.75641 5.65892 7.74036C5.67511 7.72438 5.68716 7.70427 5.69522 7.68031C5.70335 7.6562 5.70735 7.62816 5.70735 7.59614C5.70735 7.56397 5.71141 7.53601 5.71946 7.51198C5.7276 7.48787 5.73965 7.46783 5.75584 7.45179C5.77203 7.43581 5.78408 7.41576 5.79214 7.39172C5.80027 7.36762 5.80833 7.34365 5.81638 7.31961C5.82436 7.29551 5.83657 7.27554 5.85276 7.2595C5.86894 7.24337 5.88498 7.22739 5.90117 7.21135C5.9173 7.19537 5.93349 7.17932 5.94968 7.16328C5.96579 7.1473 5.9779 7.12718 5.98598 7.10315C5.99409 7.07911 6.00216 7.05507 6.01022 7.03104C6.0182 7.007 6.03039 6.98696 6.04658 6.97091C6.06263 6.95487 6.07882 6.93889 6.09501 6.92287C6.11112 6.90677 6.12731 6.89074 6.1435 6.87472C6.15955 6.85871 6.17574 6.84269 6.19193 6.82666C6.20804 6.81065 6.22423 6.79455 6.24042 6.77853C6.25647 6.76252 6.27266 6.74647 6.28885 6.73047C6.30496 6.71442 6.32115 6.69839 6.3372 6.68235C6.35339 6.66633 6.36958 6.65031 6.38577 6.63427C6.40188 6.61824 6.42207 6.60623 6.44631 6.59817C6.47048 6.59018 6.49473 6.58218 6.51897 6.57415C6.54323 6.56614 6.5634 6.55411 6.57953 6.53806C6.59572 6.52204 6.61183 6.50603 6.62809 6.48999C6.64413 6.47396 6.66032 6.45792 6.67643 6.4419C6.69256 6.42588 6.71281 6.41383 6.73699 6.40584C6.76124 6.39783 6.78954 6.39381 6.82178 6.39381C6.85416 6.39381 6.8824 6.3898 6.90665 6.3818C6.93082 6.37377 6.95108 6.36176 6.96712 6.34571C6.98338 6.32968 7.00356 6.31766 7.02781 6.30965C7.05198 6.30162 7.08022 6.29761 7.11252 6.29761C7.1449 6.29761 7.17314 6.29361 7.19739 6.2856C7.22157 6.27757 7.24169 6.26556 7.25795 6.24953C7.27406 6.23349 7.29431 6.22147 7.31849 6.21346C7.34274 6.20544 7.37098 6.20143 7.40328 6.20143C7.43566 6.20143 7.46796 6.20143 7.50013 6.20143C7.53243 6.20143 7.5648 6.20143 7.59712 6.20143C7.62935 6.20143 7.66172 6.20143 7.69404 6.20143C7.72627 6.20143 7.75864 6.20143 7.79094 6.20143C7.82326 6.20143 7.85556 6.20143 7.88786 6.20143C7.9201 6.20143 7.94848 6.20544 7.97259 6.21346C7.99683 6.22147 8.01702 6.23349 8.03321 6.24953C8.0494 6.26556 8.06951 6.27757 8.09375 6.2856C8.11792 6.29361 8.14632 6.29761 8.17862 6.29761C8.21084 6.29761 8.23909 6.30162 8.26333 6.30965C8.28759 6.31766 8.30776 6.32968 8.32395 6.34571C8.34001 6.36176 8.36025 6.37377 8.3845 6.3818C8.40868 6.3898 8.43293 6.39783 8.45717 6.40584C8.48141 6.41383 8.5016 6.42588 8.51779 6.4419C8.53384 6.45792 8.55409 6.46996 8.57826 6.47796C8.60258 6.48597 8.62676 6.494 8.65101 6.502C8.67518 6.51003 8.69544 6.52204 8.71148 6.53806C8.72774 6.55411 8.74385 6.57014 8.76004 6.58619C8.77617 6.6022 8.79236 6.61824 8.8084 6.63427C8.82459 6.65031 8.84077 6.66633 8.85696 6.68235C8.87307 6.69839 8.8892 6.71442 8.90532 6.73047C8.9215 6.74647 8.93769 6.76252 8.95381 6.77853C8.96999 6.79455 8.98612 6.81065 9.00237 6.82666C9.01842 6.84269 9.03461 6.85871 9.05072 6.87472C9.06684 6.89074 9.07904 6.91083 9.0871 6.93489C9.09516 6.95886 9.10329 6.98297 9.11127 7.007C9.11933 7.03104 9.13153 7.05108 9.14764 7.06713C9.16383 7.08311 9.17596 7.10315 9.18402 7.12718C9.192 7.1513 9.20021 7.17526 9.20826 7.19929C9.21632 7.2234 9.22845 7.24337 9.24449 7.2595C9.26075 7.27554 9.27287 7.29551 9.28094 7.31961C9.28899 7.34365 9.29298 7.37168 9.29298 7.40372C9.29298 7.43581 9.29298 7.46783 9.29298 7.49992C9.29298 7.53195 9.29698 7.56005 9.30518 7.58409C9.31316 7.6082 9.32535 7.62816 9.34148 7.64421C9.35767 7.66027 9.36972 7.68031 9.37784 7.70427C9.38591 7.72838 9.3899 7.75641 9.3899 7.78843C9.3899 7.82053 9.3899 7.85256 9.3899 7.88471C9.3899 7.91675 9.38591 7.94478 9.37784 7.96882C9.36972 7.99285 9.35767 8.01297 9.34148 8.02893C9.32535 8.04499 9.31316 8.06496 9.30518 8.08906C9.29698 8.1131 9.29298 8.14113 9.29298 8.17322C9.29298 8.20526 9.28899 8.23335 9.28094 8.25739C9.27287 8.28143 9.26075 8.3014 9.24449 8.31744C9.22845 8.33356 9.21632 8.35354 9.20826 8.37765C9.20021 8.40161 9.192 8.42565 9.18402 8.44976C9.17596 8.47379 9.16383 8.49383 9.14764 8.50981C9.13153 8.52585 9.11933 8.54596 9.11127 8.57C9.10329 8.59398 9.09516 8.61807 9.0871 8.64211C9.07904 8.66622 9.06684 8.6862 9.05072 8.70224C9.03461 8.71822 9.01842 8.73427 9.00237 8.75038C8.98612 8.76636 8.96999 8.7824 8.95381 8.79838C8.93769 8.81444 8.9215 8.83047 8.90532 8.84653C8.8892 8.86258 8.86902 8.87462 8.84485 8.88255C8.82059 8.8906 8.79634 8.8986 8.77217 8.90658C8.74785 8.91471 8.72774 8.92662 8.71148 8.94275C8.69544 8.95873 8.67518 8.97071 8.65101 8.97884C8.62676 8.98682 8.60258 8.99481 8.57826 9.0028C8.55409 9.01079 8.53384 9.02284 8.51779 9.03882C8.5016 9.05488 8.48141 9.06692 8.45717 9.07499C8.43293 9.0829 8.40468 9.08697 8.37238 9.08697C8.34001 9.08697 8.30776 9.08697 8.27546 9.08697C8.24322 9.08697 8.21484 9.0829 8.1906 9.07499C8.16643 9.06692 8.15437 9.05488 8.15437 9.03882C8.15437 9.02284 8.16643 9.01079 8.1906 9.0028C8.21484 8.99481 8.23909 8.98682 8.26333 8.97884C8.28759 8.97071 8.30776 8.95873 8.32395 8.94275C8.34001 8.92662 8.36025 8.91471 8.3845 8.90658C8.40868 8.8986 8.43293 8.8906 8.45717 8.88255C8.48141 8.87462 8.5016 8.86258 8.51779 8.84653C8.53384 8.83047 8.55003 8.81444 8.56622 8.79838C8.58233 8.7824 8.59852 8.76636 8.61471 8.75038C8.63075 8.73427 8.64701 8.71822 8.66312 8.70224C8.67925 8.6862 8.69137 8.66622 8.69942 8.64211C8.70749 8.61807 8.71561 8.59398 8.72368 8.57C8.73174 8.54596 8.74385 8.52585 8.76004 8.50981C8.77617 8.49383 8.78829 8.47379 8.79634 8.44976C8.80455 8.42565 8.81253 8.40161 8.82059 8.37765C8.82858 8.35354 8.84077 8.33356 8.85696 8.31744C8.87307 8.3014 8.8852 8.28143 8.89326 8.25739C8.90132 8.23335 8.90532 8.20526 8.90532 8.17322C8.90532 8.14113 8.90532 8.10911 8.90532 8.07701C8.90532 8.04499 8.90532 8.01297 8.90532 7.9808C8.90532 7.94877 8.90132 7.92075 8.89326 7.89663C8.8852 7.87267 8.87307 7.85256 8.85696 7.83658C8.84077 7.82053 8.82858 7.80049 8.82059 7.77645C8.81253 7.75242 8.8084 7.72438 8.8084 7.69229C8.8084 7.66027 8.80455 7.63216 8.79634 7.6082C8.78829 7.58409 8.77617 7.56397 8.76004 7.54807C8.74385 7.53196 8.73174 7.51198 8.72368 7.48787C8.71561 7.46383 8.70749 7.43987 8.69942 7.41576C8.69137 7.39172 8.67925 7.37168 8.66312 7.3557C8.64701 7.33959 8.63075 7.32353 8.61471 7.30757C8.59852 7.29152 8.58233 7.27554 8.56622 7.2595C8.55003 7.24337 8.53384 7.22739 8.51779 7.21135C8.5016 7.19537 8.48541 7.17932 8.4693 7.16328C8.45311 7.1473 8.43698 7.13118 8.4208 7.11513C8.40468 7.09915 8.3845 7.08709 8.36025 7.07911C8.33601 7.07113 8.31184 7.06306 8.28759 7.05508C8.26333 7.04709 8.24322 7.0351 8.22703 7.01906C8.21084 7.00294 8.1906 6.99095 8.16643 6.98297C8.14217 6.97491 8.11792 6.96691 8.09375 6.95885C8.06951 6.95087 8.0494 6.93889 8.03321 6.92287C8.01702 6.90677 7.99683 6.89473 7.97259 6.88676C7.94848 6.87872 7.9201 6.87472 7.88786 6.87472C7.85556 6.87472 7.82326 6.87472 7.79094 6.87472C7.75864 6.87472 7.72627 6.87472 7.69404 6.87472C7.66172 6.87472 7.62935 6.87472 7.59712 6.87472C7.5648 6.87472 7.53657 6.87872 7.51231 6.88676C7.48801 6.89473 7.46796 6.90677 7.45171 6.92287C7.43566 6.93889 7.41547 6.95087 7.39123 6.95885C7.36685 6.96691 7.33874 6.97091 7.30636 6.97091C7.27406 6.97091 7.24582 6.97491 7.22157 6.98297C7.19739 6.99095 7.17714 7.00294 7.16095 7.01906C7.1449 7.0351 7.12465 7.04709 7.10048 7.05508C7.07622 7.06306 7.05198 7.07113 7.02781 7.07911C7.00356 7.08709 6.98338 7.09915 6.96712 7.11513C6.95108 7.13118 6.93489 7.1473 6.9187 7.16328C6.90265 7.17932 6.88639 7.19537 6.87027 7.21135C6.85416 7.22739 6.8339 7.23938 6.80973 7.24744C6.78548 7.25542 6.76124 7.26348 6.73699 7.27154C6.71281 7.27946 6.69662 7.29551 6.68856 7.31961C6.68051 7.34365 6.67238 7.36762 6.66439 7.39172C6.65619 7.41576 6.64413 7.43581 6.62809 7.45179C6.61183 7.46783 6.59572 7.48394 6.57953 7.49992C6.5634 7.51598 6.54721 7.53196 6.53103 7.54807C6.51491 7.56397 6.50278 7.58409 6.49473 7.6082C6.48667 7.63216 6.47854 7.6562 6.47048 7.68031C6.4625 7.70427 6.45029 7.72438 6.43411 7.74036C6.41807 7.75641 6.40588 7.77645 6.39781 7.80049C6.38975 7.82453 6.38577 7.85256 6.38577 7.88471C6.38577 7.91675 6.38162 7.94478 6.37364 7.96882C6.36558 7.99285 6.35339 8.01297 6.3372 8.02893C6.32115 8.04499 6.30896 8.06496 6.3009 8.08906C6.29283 8.1131 6.28885 8.14113 6.28885 8.17322C6.28885 8.20526 6.28885 8.23735 6.28885 8.26937C6.28885 8.3014 6.28885 8.33356 6.28885 8.36559C6.28885 8.39761 6.28885 8.4297 6.28885 8.46181C6.28885 8.49383 6.28885 8.52585 6.28885 8.55796C6.28885 8.58998 6.29283 8.61807 6.3009 8.64211C6.30896 8.66622 6.32115 8.6862 6.3372 8.70224C6.35339 8.71822 6.36558 8.73833 6.37364 8.76236C6.38162 8.7864 6.38577 8.81444 6.38577 8.84653C6.38577 8.87855 6.38975 8.90658 6.39781 8.93069C6.40588 8.95466 6.41807 8.97477 6.43411 8.99082C6.45029 9.0068 6.4625 9.02684 6.47048 9.05088C6.47854 9.07499 6.48667 9.09895 6.49473 9.12299C6.50278 9.1471 6.51491 9.16713 6.53103 9.18317C6.54721 9.19909 6.55927 9.21921 6.5674 9.24324C6.57546 9.26734 6.58366 9.29132 6.59164 9.31541C6.5997 9.33945 6.61183 9.3595 6.62809 9.37547C6.64413 9.39152 6.66032 9.40757 6.67643 9.42361C6.69256 9.43967 6.70881 9.45565 6.72486 9.47176C6.74105 9.4878 6.75724 9.50378 6.77335 9.51976C6.78954 9.53581 6.80567 9.55185 6.82178 9.56783C6.83797 9.58389 6.85416 9.6 6.87027 9.61598C6.88639 9.63202 6.90265 9.64807 6.9187 9.66405C6.93489 9.68009 6.95108 9.69607 6.96712 9.71213C6.98338 9.72824 6.99949 9.74422 7.01562 9.76027C7.03181 9.77624 7.048 9.79237 7.06411 9.8084C7.08022 9.82431 7.10048 9.83644 7.12465 9.84442C7.1489 9.85249 7.17314 9.8604 7.19739 9.86846C7.22157 9.87646 7.24169 9.88851 7.25795 9.90449C7.27406 9.9206 7.29431 9.93259 7.31849 9.94057C7.34274 9.94864 7.36685 9.95662 7.39123 9.96468C7.41547 9.97268 7.43566 9.98472 7.45171 10.0008C7.46796 10.0168 7.48801 10.0287 7.51231 10.0368C7.53657 10.0448 7.5648 10.0488 7.59712 10.0488C7.62935 10.0488 7.66172 10.0488 7.69404 10.0488C7.72627 10.0488 7.75451 10.0528 7.77875 10.0609C7.803 10.0688 7.82326 10.0809 7.83937 10.0969C7.85556 10.113 7.87567 10.125 7.89992 10.1329C7.92416 10.1411 7.95248 10.1449 7.98471 10.1449C8.01702 10.1449 8.0494 10.1449 8.0817 10.1449C8.11394 10.1449 8.14632 10.1449 8.17862 10.1449C8.21084 10.1449 8.24322 10.1449 8.27546 10.1449C8.30776 10.1449 8.34001 10.1449 8.37238 10.1449C8.40468 10.1449 8.43698 10.1449 8.4693 10.1449C8.5016 10.1449 8.52984 10.1411 8.55409 10.1329C8.57826 10.125 8.59852 10.113 8.61471 10.0969C8.63075 10.0809 8.65101 10.0688 8.67518 10.0609C8.69942 10.0528 8.72774 10.0488 8.76004 10.0488C8.79236 10.0488 8.82459 10.0488 8.85696 10.0488C8.8892 10.0488 8.91751 10.0448 8.94169 10.0368C8.96594 10.0287 8.98612 10.0168 9.00237 10.0008C9.01842 9.98472 9.03861 9.97268 9.06285 9.96468C9.0871 9.95662 9.11127 9.94864 9.13559 9.94057C9.15983 9.93259 9.18002 9.9206 9.19607 9.90449C9.21232 9.88851 9.23243 9.87646 9.25668 9.86846C9.28094 9.8604 9.30518 9.85249 9.32935 9.84442C9.3536 9.83644 9.37378 9.82431 9.3899 9.8084C9.40608 9.79237 9.42627 9.78031 9.45052 9.77231C9.4747 9.76426 9.49894 9.75627 9.52319 9.74822C9.54743 9.74016 9.56768 9.72824 9.58373 9.71213C9.59992 9.69607 9.61611 9.68009 9.63216 9.66405C9.64835 9.64807 9.66446 9.63202 9.68065 9.61598C9.69684 9.6 9.71303 9.58389 9.72907 9.56783C9.74533 9.55185 9.76138 9.53581 9.77757 9.51976C9.79376 9.50378 9.8098 9.4878 9.82606 9.47176C9.84217 9.45565 9.8583 9.43967 9.87449 9.42361C9.89068 9.40757 9.90687 9.39152 9.92291 9.37547C9.93909 9.3595 9.95521 9.34345 9.97139 9.32739C9.98758 9.31135 10.0037 9.29537 10.0198 9.27939C10.036 9.26328 10.0481 9.24324 10.0561 9.21921C10.0643 9.19523 10.0723 9.17113 10.0804 9.1471C10.0885 9.12299 10.1006 9.10301 10.1167 9.08697C10.1329 9.07091 10.149 9.05488 10.1652 9.03882C10.1814 9.02284 10.1975 9.0068 10.2137 8.99082C10.2298 8.97477 10.2419 8.95466 10.25 8.93069C10.2581 8.90658 10.2662 8.88255 10.2742 8.85851C10.2823 8.83447 10.2944 8.81444 10.3106 8.79838C10.3268 8.7824 10.3388 8.76236 10.3469 8.73833C10.355 8.71422 10.3591 8.6862 10.3591 8.65416C10.3591 8.62207 10.3631 8.59398 10.3711 8.57C10.3793 8.54596 10.3914 8.52585 10.4075 8.50981C10.4237 8.49383 10.4357 8.47379 10.4438 8.44976C10.4519 8.42565 10.4559 8.39761 10.4559 8.36559C10.4559 8.33356 10.4559 8.3014 10.4559 8.26937C10.4559 8.23735 10.46 8.20932 10.468 8.18521C10.4762 8.16124 10.4882 8.14113 10.5044 8.12515C10.5206 8.10911 10.5326 8.08906 10.5407 8.06496C10.5488 8.04099 10.5528 8.01297 10.5528 7.9808C10.5528 7.94877 10.5528 7.91675 10.5528 7.88471C10.5528 7.85256 10.5528 7.82053 10.5528 7.78843C10.5528 7.75641 10.5528 7.72438 10.5528 7.69229C10.5528 7.66027 10.5528 7.62816 10.5528 7.59614C10.5528 7.56397 10.5528 7.53195 10.5528 7.49992C10.5528 7.46783 10.5528 7.43581 10.5528 7.40372C10.5528 7.37168 10.5488 7.34365 10.5407 7.31961C10.5326 7.29551 10.5206 7.27554 10.5044 7.2595C10.4882 7.24337 10.4762 7.2234 10.468 7.19929C10.46 7.17526 10.4559 7.1473 10.4559 7.11513C10.4559 7.08311 10.4559 7.05108 10.4559 7.01906C10.4559 6.98696 10.4519 6.95886 10.4438 6.93489C10.4357 6.91083 10.4237 6.89074 10.4075 6.87472C10.3914 6.85871 10.3793 6.83863 10.3711 6.81464C10.3631 6.79057 10.3591 6.76252 10.3591 6.73047C10.3591 6.69839 10.355 6.67034 10.3469 6.64629C10.3388 6.62224 10.3268 6.6022 10.3106 6.58619C10.2944 6.57014 10.2823 6.5501 10.2742 6.52608C10.2662 6.502 10.2581 6.47796 10.25 6.45392C10.2419 6.42987 10.2298 6.40984 10.2137 6.39381C10.1975 6.37777 10.1854 6.35772 10.1773 6.33367C10.1692 6.30965 10.1612 6.2856 10.153 6.26153C10.145 6.23751 10.1329 6.21747 10.1167 6.20143C10.1006 6.18541 10.0885 6.16537 10.0804 6.14132C10.0723 6.1173 10.0643 6.09323 10.0561 6.06918C10.0481 6.04516 10.036 6.02512 10.0198 6.00906C10.0037 5.99305 9.98758 5.977 9.97139 5.96098C9.95521 5.94495 9.93909 5.9289 9.92291 5.9129C9.90687 5.89685 9.89466 5.87681 9.88661 5.85276C9.87847 5.82872 9.87049 5.80469 9.86229 5.78064C9.85423 5.75658 9.84217 5.73655 9.82606 5.72049C9.8098 5.70447 9.79376 5.68844 9.77757 5.67242C9.76138 5.65641 9.74533 5.64036 9.72907 5.62433C9.71303 5.60831 9.69684 5.59227 9.68065 5.57623C9.66446 5.56022 9.64835 5.5442 9.63216 5.52814C9.61611 5.51212 9.59992 5.49609 9.58373 5.48005C9.56768 5.46401 9.55143 5.44799 9.5353 5.43198C9.51919 5.41593 9.503 5.3999 9.48682 5.38386C9.4707 5.36784 9.45052 5.35583 9.42627 5.3478C9.40203 5.33979 9.37784 5.33178 9.3536 5.32375C9.32935 5.31572 9.30917 5.30371 9.29298 5.28769C9.27686 5.27166 9.26075 5.25562 9.24449 5.23958C9.22845 5.22355 9.21232 5.20755 9.19607 5.19151C9.18002 5.17547 9.15983 5.16345 9.13559 5.15545C9.11127 5.14739 9.0871 5.1394 9.06285 5.13137C9.03861 5.12337 9.01842 5.11133 9.00237 5.09534C8.98612 5.07928 8.96594 5.06726 8.94169 5.05924C8.91751 5.05122 8.89326 5.04323 8.86902 5.03521C8.84485 5.02718 8.82459 5.01517 8.8084 4.99912C8.79236 4.98311 8.77217 4.97108 8.74785 4.96305C8.72368 4.95507 8.69942 4.94704 8.67518 4.93902C8.65101 4.93102 8.63075 4.91898 8.61471 4.90295C8.59852 4.8869 8.57826 4.87489 8.55409 4.86688C8.52984 4.85887 8.5016 4.85487 8.4693 4.85487C8.43698 4.85487 8.40868 4.85082 8.3845 4.84283C8.36025 4.83481 8.34001 4.82279 8.32395 4.80676C8.30776 4.79073 8.28759 4.77871 8.26333 4.77069C8.23909 4.76268 8.21084 4.75868 8.17862 4.75868C8.14632 4.75868 8.11394 4.75868 8.0817 4.75868C8.0494 4.75868 8.01702 4.75868 7.98471 4.75868C7.95248 4.75868 7.9201 4.75868 7.88786 4.75868C7.85556 4.75868 7.82732 4.75466 7.803 4.74667C7.77875 4.73864 7.75864 4.72661 7.74245 4.71057C7.72627 4.69455 7.70608 4.68251 7.68183 4.67451C7.65759 4.6665 7.62935 4.66247 7.59712 4.66247C7.5648 4.66247 7.53243 4.66247 7.50013 4.66247C7.46796 4.66247 7.43566 4.66247 7.40328 4.66247C7.37098 4.66247 7.33874 4.66247 7.30636 4.66247C7.27406 4.66247 7.24169 4.66247 7.20944 4.66247C7.17714 4.66247 7.1489 4.6665 7.12465 4.67451C7.10048 4.68251 7.08022 4.69455 7.06411 4.71057C7.048 4.72661 7.02781 4.73864 7.00356 4.74667C6.97932 4.75466 6.95108 4.75868 6.9187 4.75868C6.88639 4.75868 6.85416 4.75868 6.82178 4.75868C6.78954 4.75868 6.75724 4.75868 6.72486 4.75868C6.69256 4.75868 6.66032 4.75868 6.62809 4.75868C6.59572 4.75868 6.5674 4.76268 6.54323 4.77069C6.51897 4.77871 6.4988 4.79073 6.48267 4.80676C6.46648 4.82279 6.44631 4.83481 6.42207 4.84283C6.39781 4.85082 6.36958 4.85487 6.3372 4.85487C6.30496 4.85487 6.27266 4.85487 6.24042 4.85487C6.20804 4.85487 6.1798 4.85887 6.15555 4.86688C6.13131 4.87489 6.11112 4.8869 6.09501 4.90295C6.07882 4.91898 6.05864 4.93102 6.03439 4.93902C6.01022 4.94704 5.98598 4.95507 5.96172 4.96305C5.93747 4.97108 5.9173 4.98311 5.90117 4.99912C5.88498 5.01517 5.86481 5.02718 5.84055 5.03521C5.81638 5.04323 5.78806 5.04722 5.75584 5.04722C5.72346 5.04722 5.69522 5.05122 5.67097 5.05924C5.64679 5.06726 5.62654 5.07928 5.61049 5.09534C5.5943 5.11133 5.57819 5.12736 5.562 5.14341C5.54581 5.15943 5.52962 5.17547 5.51359 5.19151C5.49732 5.20755 5.47714 5.21956 5.45303 5.22757C5.42872 5.23559 5.40446 5.24361 5.38022 5.25162C5.35612 5.25962 5.33586 5.27166 5.31975 5.28769C5.30356 5.30371 5.28745 5.31977 5.27126 5.33576C5.25507 5.35181 5.23902 5.36784 5.22275 5.38386C5.20664 5.3999 5.18639 5.41194 5.16228 5.41994C5.13804 5.42795 5.11372 5.43596 5.08961 5.44396C5.06537 5.452 5.04518 5.46401 5.02901 5.48005C5.01283 5.49609 4.99667 5.51212 4.9805 5.52814C4.96443 5.5442 4.94826 5.56022 4.93209 5.57623C4.91593 5.59227 4.89976 5.60831 4.88367 5.62433C4.86742 5.64036 4.85134 5.65641 4.83518 5.67242C4.81901 5.68844 4.80284 5.70447 4.78668 5.72049C4.77051 5.73655 4.75442 5.75257 4.73826 5.76863C4.72209 5.78465 4.70592 5.80066 4.68976 5.8167C4.67368 5.83274 4.65752 5.84876 4.64135 5.86479C4.62519 5.88083 4.60901 5.89685 4.59286 5.9129C4.57677 5.9289 4.5606 5.94495 4.54443 5.96098C4.5283 5.977 4.51212 5.99305 4.496 6.00906C4.47981 6.02512 4.46368 6.04113 4.44752 6.05717C4.43138 6.07319 4.41522 6.0892 4.39906 6.10525C4.3829 6.12128 4.36678 6.13733 4.35059 6.15333C4.33446 6.16938 4.31832 6.18541 4.30216 6.20143C4.286 6.21747 4.27387 6.23751 4.26581 6.26153C4.25774 6.2856 4.24966 6.30965 4.24158 6.33367C4.23351 6.35772 4.2214 6.37777 4.20525 6.39381C4.1891 6.40984 4.17294 6.42588 4.15678 6.4419C4.14064 6.45792 4.12448 6.47396 4.10835 6.48999C4.09219 6.50603 4.08006 6.52608 4.07198 6.5501C4.0639 6.57415 4.05586 6.59817 4.04778 6.62224C4.03967 6.64629 4.02757 6.66633 4.01143 6.68235C3.99526 6.69839 3.98316 6.71843 3.97509 6.74248C3.967 6.7665 3.95893 6.79057 3.95086 6.81464C3.94277 6.83863 3.93067 6.85871 3.91451 6.87472C3.89838 6.89074 3.88625 6.91083 3.87818 6.93489C3.8701 6.95886 3.86202 6.98297 3.85395 7.007C3.84587 7.03104 3.83377 7.05108 3.81761 7.06713C3.80145 7.08311 3.78935 7.10315 3.78126 7.12718C3.77319 7.1513 3.76915 7.17932 3.76915 7.21135C3.76915 7.24344 3.76509 7.27154 3.75703 7.29551C3.74896 7.31961 3.73686 7.33959 3.72067 7.3557C3.70455 7.37168 3.69245 7.39172 3.68434 7.41576C3.67629 7.43987 3.67223 7.46783 3.67223 7.49992C3.67223 7.53195 3.66822 7.56005 3.66013 7.58409C3.65206 7.6082 3.63993 7.62816 3.6238 7.64421C3.60761 7.66027 3.59551 7.68031 3.58744 7.70427C3.57938 7.72838 3.57534 7.75641 3.57534 7.78843C3.57534 7.82053 3.57534 7.85256 3.57534 7.88471C3.57534 7.91675 3.57534 7.94877 3.57534 7.9808C3.57534 8.01297 3.57534 8.04499 3.57534 8.07701C3.57534 8.10911 3.57534 8.14113 3.57534 8.17322C3.57534 8.20526 3.57128 8.23335 3.56321 8.25739C3.55515 8.28143 3.54302 8.3014 3.52687 8.31744C3.51071 8.33356 3.49861 8.35354 3.49054 8.37765C3.48246 8.40161 3.47842 8.4297 3.47842 8.46181C3.47842 8.49383 3.47842 8.52585 3.47842 8.55796C3.47842 8.58998 3.47842 8.62207 3.47842 8.65416C3.47842 8.6862 3.48246 8.71422 3.49054 8.73833C3.49861 8.76236 3.51071 8.7824 3.52687 8.79838C3.54302 8.81444 3.55515 8.83447 3.56321 8.85851C3.57128 8.88255 3.57534 8.91066 3.57534 8.94275C3.57534 8.97477 3.57534 9.0068 3.57534 9.03882C3.57534 9.07091 3.57534 9.10301 3.57534 9.13504C3.57534 9.16713 3.57534 9.19909 3.57534 9.23125C3.57534 9.26328 3.57534 9.29537 3.57534 9.32739C3.57534 9.3595 3.57534 9.39152 3.57534 9.42361C3.57534 9.45565 3.57534 9.4878 3.57534 9.51976C3.57534 9.55185 3.57938 9.57989 3.58744 9.604C3.59551 9.62803 3.60761 9.64807 3.6238 9.66405C3.63993 9.68009 3.65206 9.70014 3.66013 9.72418C3.66822 9.74822 3.67223 9.77624 3.67223 9.8084C3.67223 9.84036 3.67223 9.87246 3.67223 9.90449C3.67223 9.93664 3.67629 9.96468 3.68434 9.98864C3.69245 10.0128 3.70455 10.0327 3.72067 10.0488C3.73686 10.0648 3.74896 10.0849 3.75703 10.1089C3.76509 10.1329 3.76915 10.161 3.76915 10.1931C3.76915 10.2251 3.77319 10.2532 3.78126 10.2772C3.78935 10.3013 3.80145 10.3214 3.81761 10.3374C3.83377 10.3533 3.84587 10.3734 3.85395 10.3975C3.86202 10.4216 3.86608 10.4496 3.86608 10.4816C3.86608 10.5137 3.8701 10.5418 3.87818 10.5658C3.88625 10.5899 3.89838 10.6099 3.91451 10.6259C3.93067 10.6419 3.94277 10.662 3.95086 10.686C3.95893 10.7101 3.967 10.7341 3.97509 10.7581C3.98316 10.7823 3.99526 10.8022 4.01143 10.8184C4.02757 10.8343 4.03967 10.8544 4.04778 10.8783C4.05586 10.9025 4.0639 10.9265 4.07198 10.9505C4.08006 10.9746 4.09219 10.9946 4.10835 11.0107C4.12448 11.0267 4.13661 11.0467 4.14468 11.0708C4.15274 11.0948 4.16081 11.1189 4.16891 11.1429C4.177 11.1669 4.1891 11.187 4.20525 11.2031C4.2214 11.2191 4.23754 11.2351 4.25373 11.2511C4.26984 11.2672 4.286 11.2833 4.30216 11.2992C4.31832 11.3152 4.33045 11.3352 4.3385 11.3593C4.34657 11.3834 4.35465 11.4074 4.36273 11.4315C4.3708 11.4555 4.3829 11.4755 4.39906 11.4915C4.41522 11.5076 4.43138 11.5237 4.44752 11.5397C4.46368 11.5557 4.47981 11.5718 4.496 11.5878C4.51212 11.6038 4.5283 11.6198 4.54443 11.6359C4.5606 11.6519 4.57677 11.6679 4.59286 11.6839C4.60901 11.6999 4.62117 11.72 4.62927 11.744C4.63726 11.7681 4.64534 11.7922 4.65343 11.8163C4.66152 11.8403 4.67368 11.8603 4.68976 11.8763C4.70592 11.8924 4.72209 11.9083 4.73826 11.9245C4.75442 11.9405 4.77051 11.9565 4.78668 11.9725C4.80284 11.9885 4.81901 12.0046 4.83518 12.0205C4.85134 12.0366 4.86742 12.0527 4.88367 12.0687C4.89976 12.0847 4.91593 12.1008 4.93209 12.1168C4.94826 12.1328 4.96443 12.1488 4.9805 12.1648C4.99667 12.1809 5.01283 12.1969 5.02901 12.213C5.04518 12.2289 5.06123 12.2451 5.07742 12.261C5.09361 12.277 5.10972 12.2931 5.12591 12.3091C5.14202 12.3252 5.15829 12.3412 5.17434 12.3572C5.19053 12.3733 5.20664 12.3893 5.22275 12.4053C5.23902 12.4214 5.25507 12.4374 5.27126 12.4535C5.28745 12.4695 5.30356 12.4854 5.31975 12.5015C5.33586 12.5175 5.35197 12.5336 5.36816 12.5496C5.38435 12.5657 5.40048 12.5816 5.41659 12.5976C5.43278 12.6137 5.44889 12.6298 5.46508 12.6458C5.48127 12.6618 5.49732 12.6778 5.51359 12.6939C5.52962 12.71 5.54581 12.7259 5.562 12.742C5.57819 12.7581 5.5943 12.774 5.61049 12.7901C5.62654 12.806 5.64273 12.8222 5.65892 12.8382C5.67511 12.8542 5.69122 12.8702 5.70735 12.8863C5.72346 12.9023 5.74365 12.9144 5.76789 12.9223C5.79214 12.9304 5.81638 12.9383 5.84055 12.9464C5.86481 12.9544 5.88498 12.9664 5.90117 12.9824C5.9173 12.9985 5.93349 13.0145 5.94968 13.0306C5.96579 13.0465 5.9819 13.0626 5.99809 13.0786C6.0142 13.0946 6.03439 13.1067 6.05864 13.1147C6.08288 13.1228 6.10707 13.1307 6.13131 13.1387C6.15555 13.1467 6.17574 13.1588 6.19193 13.1748C6.20804 13.1908 6.22423 13.2069 6.24042 13.2229C6.25647 13.239 6.27266 13.2549 6.28885 13.2711C6.30496 13.287 6.32515 13.299 6.34939 13.3071C6.37364 13.3151 6.39781 13.3231 6.42207 13.3311C6.44631 13.3391 6.46648 13.3512 6.48267 13.3672C6.4988 13.3832 6.51897 13.3952 6.54323 13.4032C6.5674 13.4112 6.59164 13.4192 6.61589 13.4273C6.64013 13.4353 6.66032 13.4473 6.67643 13.4634C6.69256 13.4794 6.71281 13.4915 6.73699 13.4994C6.76124 13.5074 6.78548 13.5155 6.80973 13.5235C6.8339 13.5315 6.85416 13.5435 6.87027 13.5596C6.88639 13.5756 6.90665 13.5876 6.93082 13.5956C6.95506 13.6036 6.97932 13.6116 7.00356 13.6196C7.02781 13.6277 7.048 13.6397 7.06411 13.6558C7.08022 13.6718 7.10048 13.6838 7.12465 13.6918C7.1489 13.6998 7.17314 13.7078 7.19739 13.7158C7.22157 13.7238 7.23369 13.7359 7.23369 13.7519C7.23369 13.7679 7.22157 13.78 7.19739 13.788C7.17314 13.7959 7.1449 13.8 7.11252 13.8C7.08022 13.8 7.04785 13.8 7.01562 13.8C6.98338 13.8 6.95108 13.8 6.9187 13.8C6.88639 13.8 6.85816 13.7959 6.8339 13.788C6.80973 13.78 6.78954 13.7679 6.77335 13.7519C6.75724 13.7359 6.73699 13.7238 6.71281 13.7158C6.68856 13.7078 6.66032 13.7038 6.62809 13.7038C6.59572 13.7038 6.5634 13.7038 6.53103 13.7038C6.4988 13.7038 6.47048 13.6998 6.44631 13.6918C6.42207 13.6838 6.40188 13.6718 6.38577 13.6558C6.36958 13.6397 6.34939 13.6277 6.32515 13.6196C6.3009 13.6116 6.27266 13.6076 6.24042 13.6076C6.20804 13.6076 6.1798 13.6036 6.15555 13.5956C6.13131 13.5876 6.11112 13.5756 6.09501 13.5596C6.07882 13.5435 6.05864 13.5315 6.03439 13.5235C6.01022 13.5155 5.9819 13.5114 5.94968 13.5114C5.9173 13.5114 5.88906 13.5074 5.86481 13.4994C5.84055 13.4915 5.82038 13.4794 5.80425 13.4634C5.78806 13.4473 5.76789 13.4353 5.74365 13.4273C5.71946 13.4192 5.69522 13.4112 5.67097 13.4032C5.64679 13.3952 5.62654 13.3832 5.61049 13.3672C5.5943 13.3512 5.57406 13.3391 5.54981 13.3311C5.52563 13.3231 5.50138 13.3151 5.47714 13.3071C5.45303 13.299 5.43278 13.287 5.41659 13.2711C5.40048 13.2549 5.38022 13.243 5.35612 13.235C5.3318 13.2269 5.30756 13.2189 5.28345 13.2108C5.2592 13.2029 5.23902 13.1908 5.22275 13.1748C5.20664 13.1588 5.19053 13.1428 5.17434 13.1268C5.15829 13.1107 5.14202 13.0946 5.12591 13.0786C5.10972 13.0626 5.08961 13.0506 5.06536 13.0426C5.04109 13.0346 5.01683 13.0265 4.99259 13.0185C4.96842 13.0104 4.94826 12.9985 4.93209 12.9824C4.91593 12.9664 4.89976 12.9504 4.88367 12.9343C4.86742 12.9184 4.85134 12.9023 4.83518 12.8863C4.81901 12.8702 4.80284 12.8542 4.78668 12.8382C4.77051 12.8222 4.75442 12.806 4.73826 12.7901C4.72209 12.774 4.70193 12.7619 4.67767 12.754C4.65343 12.746 4.62927 12.738 4.60502 12.7299C4.58076 12.7219 4.5606 12.71 4.54443 12.6939C4.5283 12.6778 4.51212 12.6618 4.496 12.6458C4.47981 12.6298 4.46368 12.6137 4.44752 12.5976C4.43138 12.5816 4.41522 12.5657 4.39906 12.5496C4.3829 12.5336 4.36678 12.5175 4.35059 12.5015C4.33446 12.4854 4.31832 12.4695 4.30216 12.4535C4.286 12.4374 4.26984 12.4214 4.25373 12.4053C4.23754 12.3893 4.2214 12.3733 4.20525 12.3572C4.1891 12.3412 4.177 12.3211 4.16891 12.2971C4.16081 12.2731 4.15274 12.2491 4.14468 12.225C4.13661 12.201 4.12448 12.1809 4.10835 12.1648C4.09219 12.1488 4.07605 12.1328 4.05988 12.1168C4.04372 12.1008 4.02757 12.0847 4.01143 12.0687C3.99526 12.0527 3.97913 12.0366 3.96296 12.0205C3.94683 12.0046 3.93067 11.9885 3.91451 11.9725C3.89838 11.9565 3.8822 11.9405 3.86608 11.9245C3.84992 11.9083 3.83377 11.8924 3.81761 11.8763C3.80145 11.8603 3.78935 11.8403 3.78126 11.8163C3.77319 11.7922 3.76509 11.7681 3.75703 11.744C3.74896 11.72 3.73686 11.6999 3.72067 11.6839C3.70455 11.6679 3.6884 11.6519 3.67223 11.6359C3.6561 11.6198 3.63993 11.6038 3.6238 11.5878C3.60761 11.5718 3.59551 11.5517 3.58744 11.5277C3.57938 11.5036 3.57128 11.4795 3.56321 11.4555C3.55515 11.4315 3.54302 11.4114 3.52687 11.3955C3.51071 11.3793 3.49861 11.3593 3.49054 11.3352C3.48246 11.3113 3.47438 11.2872 3.46632 11.2631C3.45825 11.2391 3.44612 11.2191 3.42996 11.2031C3.41382 11.187 3.40167 11.1669 3.39363 11.1429C3.38555 11.1189 3.37747 11.0948 3.3694 11.0708C3.36132 11.0467 3.34922 11.0267 3.33303 11.0107C3.3169 10.9946 3.30482 10.9746 3.29673 10.9505C3.28863 10.9265 3.28054 10.9025 3.27248 10.8783C3.26441 10.8544 3.2523 10.8343 3.23615 10.8184C3.22 10.8022 3.20788 10.7823 3.19979 10.7581C3.19172 10.7341 3.18769 10.7061 3.18769 10.6741C3.18769 10.6419 3.18367 10.6139 3.17556 10.5899C3.16748 10.5658 3.15538 10.5458 3.13925 10.5297C3.12308 10.5137 3.11096 10.4937 3.10292 10.4696C3.0948 10.4456 3.09076 10.4175 3.09076 10.3855C3.09076 10.3533 3.08673 10.3253 3.07866 10.3013C3.07057 10.2772 3.05847 10.2572 3.04232 10.2412C3.02619 10.2251 3.01406 10.2052 3.00599 10.181C2.99791 10.157 2.99389 10.1289 2.99389 10.0969C2.99389 10.0648 2.99389 10.0327 2.99389 10.0008C2.99389 9.96868 2.98983 9.94057 2.98176 9.91653C2.97369 9.89257 2.96157 9.87246 2.94543 9.85642C2.92927 9.84036 2.91717 9.82039 2.90908 9.79635C2.90101 9.77231 2.89695 9.74422 2.89695 9.71213C2.89695 9.68009 2.89695 9.64807 2.89695 9.61598C2.89695 9.58389 2.89695 9.55185 2.89695 9.51976C2.89695 9.4878 2.89695 9.45565 2.89695 9.42361C2.89695 9.39152 2.89292 9.36356 2.88485 9.33945C2.87677 9.31541 2.86468 9.29537 2.84849 9.27939C2.83235 9.26328 2.82027 9.24324 2.81215 9.21921C2.80409 9.19523 2.80005 9.16713 2.80005 9.13504C2.80005 9.10301 2.80005 9.07091 2.80005 9.03882C2.80005 9.0068 2.80005 8.97477 2.80005 8.94275C2.80005 8.91066 2.80005 8.87855 2.80005 8.84653C2.80005 8.81444 2.80005 8.7824 2.80005 8.75038C2.80005 8.71822 2.80005 8.6862 2.80005 8.65416C2.80005 8.62207 2.80005 8.58998 2.80005 8.55796C2.80005 8.52585 2.80005 8.49383 2.80005 8.46181C2.80005 8.4297 2.80005 8.39761 2.80005 8.36559C2.80005 8.33356 2.80005 8.3014 2.80005 8.26937C2.80005 8.23735 2.80005 8.20526 2.80005 8.17322C2.80005 8.14113 2.80409 8.1131 2.81215 8.08906C2.82027 8.06496 2.83235 8.04499 2.84849 8.02893C2.86468 8.01297 2.87677 7.99285 2.88485 7.96882C2.89292 7.94478 2.89695 7.91675 2.89695 7.88471C2.89695 7.85256 2.89695 7.82053 2.89695 7.78843C2.89695 7.75641 2.89695 7.72438 2.89695 7.69229C2.89695 7.66027 2.89695 7.62816 2.89695 7.59614C2.89695 7.56397 2.90101 7.53601 2.90908 7.51198C2.91717 7.48787 2.92927 7.46783 2.94543 7.45179C2.96157 7.43581 2.97369 7.41576 2.98176 7.39172C2.98983 7.36762 2.99389 7.33959 2.99389 7.30757C2.99389 7.27554 2.99791 7.24744 3.00599 7.2234C3.01406 7.19929 3.02619 7.17932 3.04232 7.16328C3.05847 7.1473 3.07057 7.12718 3.07866 7.10315C3.08673 7.07911 3.09076 7.05108 3.09076 7.01906C3.09076 6.98696 3.0948 6.95886 3.10292 6.93489C3.11096 6.91083 3.12308 6.89074 3.13925 6.87472C3.15538 6.85871 3.16748 6.83863 3.17556 6.81464C3.18367 6.79057 3.19172 6.7665 3.19979 6.74248C3.20788 6.71843 3.22 6.69839 3.23615 6.68235C3.2523 6.66633 3.26441 6.64629 3.27248 6.62224C3.28054 6.59817 3.28863 6.57415 3.29673 6.5501C3.30482 6.52608 3.3169 6.50603 3.33303 6.48999C3.34922 6.47396 3.36132 6.45393 3.3694 6.42987C3.37747 6.40584 3.38555 6.3818 3.39363 6.35772C3.40167 6.33367 3.41382 6.31363 3.42996 6.29761C3.44612 6.2816 3.45825 6.26153 3.46632 6.23751C3.47438 6.21346 3.48246 6.18941 3.49054 6.16537C3.49861 6.14132 3.51071 6.12128 3.52687 6.10525C3.54302 6.0892 3.55515 6.06918 3.56321 6.04516C3.57128 6.02109 3.57938 5.99704 3.58744 5.97302C3.59551 5.94894 3.60761 5.9289 3.6238 5.9129C3.63993 5.89685 3.6561 5.88083 3.67223 5.86479C3.6884 5.84876 3.70455 5.83274 3.72067 5.8167C3.73686 5.80066 3.75299 5.78465 3.76915 5.76863C3.78529 5.75257 3.80145 5.73655 3.81761 5.72049C3.83377 5.70447 3.84587 5.68443 3.85395 5.66039C3.86202 5.63636 3.8701 5.61229 3.87818 5.58826C3.88625 5.56422 3.89838 5.5442 3.91451 5.52814C3.93067 5.51212 3.94683 5.49609 3.96296 5.48005C3.97913 5.46401 3.99526 5.44799 4.01143 5.43198C4.02757 5.41593 4.04372 5.3999 4.05988 5.38386C4.07605 5.36784 4.09219 5.35181 4.10835 5.33576C4.12448 5.31977 4.14064 5.30371 4.15678 5.28769C4.17294 5.27166 4.1891 5.25562 4.20525 5.23958C4.2214 5.22355 4.23754 5.20755 4.25373 5.19151C4.26984 5.17547 4.286 5.15943 4.30216 5.14341C4.31832 5.12736 4.33446 5.11133 4.35059 5.09534C4.36678 5.07928 4.38696 5.06726 4.41119 5.05924C4.43539 5.05122 4.45964 5.04323 4.48385 5.03521C4.5081 5.02718 4.5283 5.01517 4.54443 4.99912C4.5606 4.98311 4.57677 4.96708 4.59286 4.95104C4.60901 4.935 4.62519 4.91898 4.64135 4.90295C4.65752 4.8869 4.67368 4.87088 4.68976 4.85487C4.70592 4.83883 4.72209 4.82279 4.73826 4.80676C4.75442 4.79073 4.77459 4.77871 4.79884 4.77069C4.82301 4.76268 4.84725 4.75466 4.87151 4.74667C4.89576 4.73864 4.91593 4.72661 4.93209 4.71057C4.94826 4.69455 4.96443 4.67853 4.9805 4.66247C4.99667 4.64645 5.01283 4.63044 5.02901 4.6144C5.04518 4.59836 5.06537 4.58632 5.08961 4.57834C5.11372 4.57031 5.13804 4.5623 5.16228 4.55428C5.18639 4.54626 5.20664 4.53425 5.22275 4.51819C5.23902 4.5022 5.2592 4.49016 5.28345 4.48216C5.30756 4.4741 5.3318 4.46611 5.35612 4.45808C5.38022 4.45008 5.40048 4.43804 5.41659 4.42203C5.43278 4.40598 5.45303 4.39397 5.47714 4.38594C5.50138 4.37794 5.52962 4.37393 5.562 4.37393C5.5943 4.37393 5.62254 4.36993 5.64679 4.36192C5.67097 4.35391 5.69122 4.34187 5.70735 4.32584C5.72346 4.30979 5.74365 4.29781 5.76789 4.28976C5.79214 4.28175 5.81638 4.27372 5.84055 4.26573C5.86481 4.2577 5.88498 4.24569 5.90117 4.22965C5.9173 4.21363 5.93747 4.2016 5.96172 4.19359C5.98598 4.18558 6.0142 4.18156 6.04658 4.18156C6.07882 4.18156 6.11112 4.18156 6.1435 4.18156C6.17574 4.18156 6.20398 4.17756 6.22823 4.16954C6.25247 4.16153 6.27266 4.1495 6.28885 4.13348C6.30496 4.11744 6.32515 4.10544 6.34939 4.09738C6.37364 4.08939 6.40188 4.08539 6.43411 4.08539C6.46648 4.08539 6.4988 4.08539 6.53103 4.08539C6.5634 4.08539 6.59572 4.08539 6.62809 4.08539C6.66032 4.08539 6.68856 4.08137 6.71281 4.07336C6.73699 4.06535 6.75724 4.05332 6.77335 4.03728Z" fill="#D84F4F" stroke="#D84F4F" stroke-width="0.6"/>
<path d="M7.96256 2.84808C7.97875 2.83205 7.99894 2.82003 8.02311 2.81201C8.04737 2.80399 8.07559 2.79999 8.10791 2.79999C8.14029 2.79999 8.17259 2.79999 8.20483 2.79999C8.23706 2.79999 8.26943 2.79999 8.30173 2.79999C8.33411 2.79999 8.36635 2.79999 8.39865 2.79999C8.43089 2.79999 8.46327 2.79999 8.49557 2.79999C8.52795 2.79999 8.56019 2.79999 8.59249 2.79999C8.62487 2.79999 8.65717 2.79999 8.68933 2.79999C8.72164 2.79999 8.75401 2.79999 8.78633 2.79999C8.81856 2.79999 8.85093 2.79999 8.88325 2.79999C8.91547 2.79999 8.94785 2.79999 8.98015 2.79999C9.01247 2.79999 9.04477 2.79999 9.07707 2.79999C9.10931 2.79999 9.13769 2.80399 9.1618 2.81201C9.18604 2.82003 9.20623 2.83205 9.22242 2.84808C9.23861 2.86412 9.25872 2.87614 9.28296 2.88415C9.30713 2.89216 9.33553 2.89618 9.36783 2.89618C9.40005 2.89618 9.43243 2.89618 9.46467 2.89618C9.49697 2.89618 9.52922 2.89618 9.56159 2.89618C9.59389 2.89618 9.62213 2.90018 9.64638 2.90817C9.67062 2.91623 9.69081 2.92823 9.707 2.94427C9.72305 2.96029 9.7433 2.97232 9.76747 2.98033C9.79179 2.98836 9.81996 2.99235 9.85233 2.99235C9.88465 2.99235 9.91289 2.99637 9.93706 3.00438C9.96138 3.01239 9.98157 3.02442 9.99761 3.04044C10.0138 3.05648 10.0341 3.06849 10.0582 3.07652C10.0825 3.08452 10.1067 3.09254 10.1309 3.10056C10.1551 3.1086 10.1753 3.12058 10.1916 3.13663C10.2076 3.15266 10.2278 3.1647 10.2521 3.17271C10.2763 3.18072 10.3005 3.18873 10.3248 3.19673C10.349 3.20476 10.3692 3.21677 10.3853 3.23282C10.4015 3.24883 10.4216 3.26087 10.4459 3.26887C10.4701 3.2769 10.4944 3.28489 10.5186 3.29295C10.5428 3.30095 10.563 3.31299 10.5791 3.32898C10.5953 3.34504 10.6155 3.35705 10.6397 3.36508C10.6639 3.37309 10.6882 3.3811 10.7124 3.38913C10.7366 3.39711 10.7569 3.40915 10.7729 3.42519C10.7891 3.44123 10.8053 3.45724 10.8214 3.47326C10.8376 3.48932 10.8537 3.50534 10.8699 3.52137C10.886 3.5374 10.9062 3.54943 10.9305 3.55746C10.9547 3.56545 10.9789 3.57347 11.0031 3.58148C11.0274 3.58951 11.0475 3.60152 11.0637 3.61756C11.0799 3.63358 11.0961 3.64962 11.1121 3.66566C11.1283 3.68167 11.1444 3.69769 11.1606 3.71375C11.1768 3.72977 11.1929 3.74579 11.209 3.76183C11.2252 3.77787 11.2413 3.7939 11.2575 3.80991C11.2737 3.82596 11.2898 3.84199 11.306 3.85801C11.3221 3.87405 11.3383 3.89007 11.3544 3.90613C11.3706 3.92212 11.3867 3.93815 11.4029 3.9542C11.4191 3.97022 11.4352 3.98626 11.4514 4.0023C11.4674 4.01834 11.4836 4.03434 11.4998 4.05038C11.516 4.06642 11.5321 4.08245 11.5483 4.09848C11.5643 4.1145 11.5806 4.13056 11.5967 4.14655C11.6129 4.16261 11.6249 4.18264 11.633 4.20668C11.6411 4.23073 11.6492 4.25475 11.6573 4.27883C11.6654 4.30287 11.6774 4.32291 11.6936 4.33893C11.7098 4.35499 11.7259 4.37101 11.742 4.38702C11.7582 4.40306 11.7743 4.4191 11.7905 4.43512C11.8067 4.45115 11.8188 4.47119 11.8268 4.49522C11.835 4.5193 11.843 4.54332 11.8511 4.56738C11.8592 4.59143 11.8713 4.61145 11.8875 4.62749C11.9036 4.64353 11.9197 4.65955 11.9359 4.67558C11.952 4.69162 11.9682 4.70764 11.9844 4.72369C12.0004 4.73969 12.0126 4.75973 12.0207 4.78381C12.0288 4.80783 12.0369 4.83188 12.0448 4.85595C12.0529 4.87997 12.0651 4.89999 12.0813 4.91605C12.0974 4.93207 12.1095 4.95211 12.1176 4.97616C12.1256 5.0002 12.1297 5.02826 12.1297 5.06032C12.1297 5.09239 12.1338 5.12044 12.1418 5.14446C12.1498 5.16851 12.162 5.18856 12.1781 5.2046C12.1943 5.22063 12.2064 5.24066 12.2145 5.26472C12.2226 5.28875 12.2266 5.3168 12.2266 5.34885C12.2266 5.38093 12.2306 5.40896 12.2388 5.43303C12.2469 5.45708 12.2589 5.47712 12.2751 5.49314C12.2912 5.50918 12.3034 5.52922 12.3114 5.55327C12.3195 5.57729 12.3235 5.60534 12.3235 5.63745C12.3235 5.6695 12.3235 5.70154 12.3235 5.73366C12.3235 5.76566 12.3276 5.79376 12.3356 5.81779C12.3438 5.84183 12.3558 5.86187 12.372 5.87792C12.3881 5.8939 12.4003 5.91394 12.4083 5.93798C12.4164 5.96209 12.4205 5.99011 12.4205 6.02214C12.4205 6.05423 12.4205 6.08633 12.4205 6.11836C12.4205 6.15038 12.4205 6.18247 12.4205 6.21451C12.4205 6.2466 12.4205 6.27862 12.4205 6.31071C12.4205 6.34275 12.4205 6.37476 12.4205 6.40693C12.4205 6.43895 12.4205 6.47106 12.4205 6.50308C12.4205 6.53517 12.4205 6.56721 12.4205 6.59922C12.4205 6.63132 12.4205 6.66335 12.4205 6.6955C12.4205 6.72754 12.4205 6.75956 12.4205 6.79159C12.4205 6.82376 12.4205 6.85578 12.4205 6.8878C12.4205 6.9199 12.4205 6.95192 12.4205 6.98402C12.4205 7.01605 12.4164 7.04414 12.4083 7.06818C12.4003 7.09222 12.3881 7.1122 12.372 7.12823C12.3558 7.14435 12.3438 7.16433 12.3356 7.18844C12.3276 7.2124 12.3235 7.24049 12.3235 7.2726C12.3235 7.30462 12.3235 7.33664 12.3235 7.36875C12.3235 7.40077 12.3195 7.42886 12.3114 7.4529C12.3034 7.47701 12.2912 7.49699 12.2751 7.51303C12.2589 7.52901 12.2469 7.54912 12.2388 7.57315C12.2306 7.59719 12.2266 7.62523 12.2266 7.65732C12.2266 7.68934 12.2226 7.71737 12.2145 7.74148C12.2064 7.76545 12.1943 7.78556 12.1781 7.80161C12.162 7.81759 12.1498 7.83763 12.1418 7.86167C12.1338 7.88578 12.1256 7.90974 12.1176 7.93378C12.1095 7.95789 12.0974 7.97793 12.0813 7.99396C12.0651 8.00989 12.0529 8.03 12.0448 8.05403C12.0369 8.07813 12.0288 8.10211 12.0207 8.1262C12.0126 8.15024 12.0004 8.17029 11.9844 8.18626C11.9682 8.20231 11.952 8.21836 11.9359 8.2344C11.9197 8.25046 11.9036 8.26644 11.8875 8.28255C11.8713 8.29859 11.8592 8.31857 11.8511 8.34253C11.843 8.36672 11.835 8.39068 11.8268 8.41479C11.8188 8.43883 11.8067 8.45886 11.7905 8.47484C11.7743 8.49088 11.7582 8.50686 11.742 8.52292C11.7259 8.53903 11.7098 8.55501 11.6936 8.57106C11.6774 8.58703 11.6614 8.60316 11.6451 8.6192C11.629 8.6351 11.6129 8.65116 11.5967 8.66721C11.5806 8.68325 11.5643 8.6993 11.5483 8.71528C11.5321 8.7314 11.516 8.74744 11.4998 8.76341C11.4836 8.77947 11.4674 8.79551 11.4514 8.81156C11.4352 8.82754 11.4191 8.84352 11.4029 8.85964C11.3867 8.87561 11.3706 8.89165 11.3544 8.90771C11.3383 8.92376 11.3221 8.93973 11.306 8.95571C11.2898 8.97184 11.2737 8.98787 11.2575 9.00385C11.2413 9.01991 11.2252 9.03587 11.209 9.052C11.1929 9.06804 11.1768 9.08402 11.1606 9.10007C11.1444 9.11619 11.1242 9.12809 11.1001 9.13609C11.0758 9.14415 11.0515 9.15221 11.0274 9.16013C11.0031 9.16819 10.983 9.18024 10.9668 9.19628C10.9506 9.21226 10.9305 9.22431 10.9062 9.23237C10.8821 9.24029 10.8578 9.24828 10.8336 9.25635C10.8093 9.26433 10.7891 9.27646 10.7729 9.29243C10.7569 9.30848 10.7366 9.32046 10.7124 9.32846C10.6882 9.33651 10.6639 9.34457 10.6397 9.35255C10.6155 9.36061 10.5953 9.37261 10.5791 9.38865C10.563 9.40463 10.5428 9.41668 10.5186 9.42474C10.4944 9.43272 10.4661 9.43672 10.4337 9.43672C10.4015 9.43672 10.3732 9.44064 10.349 9.4487C10.3248 9.4567 10.3046 9.46875 10.2884 9.48487C10.2723 9.50085 10.2521 9.51283 10.2278 9.52088C10.2036 9.52887 10.1753 9.53286 10.143 9.53286C10.1107 9.53286 10.0825 9.53694 10.0582 9.54492C10.0341 9.5529 10.0138 9.56503 9.99761 9.58101C9.98157 9.59705 9.96138 9.60905 9.93706 9.61703C9.91289 9.62509 9.88465 9.62916 9.85233 9.62916C9.81996 9.62916 9.78773 9.62916 9.75543 9.62916C9.72305 9.62916 9.69081 9.62916 9.65851 9.62916C9.62619 9.62916 9.59389 9.62916 9.56159 9.62916C9.52922 9.62916 9.49697 9.62916 9.46467 9.62916C9.43243 9.62916 9.40005 9.62916 9.36783 9.62916C9.33553 9.62916 9.30315 9.62916 9.27091 9.62916C9.23861 9.62916 9.20623 9.62916 9.17391 9.62916C9.14169 9.62916 9.10931 9.62916 9.07707 9.62916C9.04477 9.62916 9.01247 9.62916 8.98015 9.62916C8.94785 9.62916 8.91947 9.62509 8.89529 9.61703C8.87104 9.60905 8.85093 9.59705 8.83474 9.58101C8.81856 9.56503 8.79844 9.5529 8.77412 9.54492C8.75003 9.53694 8.72164 9.53286 8.68933 9.53286C8.65717 9.53286 8.62487 9.53286 8.59249 9.53286C8.56019 9.53286 8.53195 9.52887 8.5077 9.52088C8.48352 9.51283 8.46327 9.50085 8.44716 9.48487C8.43089 9.46875 8.41078 9.4567 8.3866 9.4487C8.36235 9.44064 8.33811 9.43272 8.31386 9.42474C8.28969 9.41668 8.26943 9.40463 8.25332 9.38865C8.23721 9.37261 8.21702 9.36061 8.19277 9.35255C8.16853 9.34457 8.14427 9.33651 8.12003 9.32846C8.09586 9.32046 8.07559 9.30848 8.05948 9.29243C8.04337 9.27646 8.02311 9.26433 7.99894 9.25635C7.97469 9.24828 7.95045 9.24029 7.9262 9.23237C7.90202 9.22431 7.88177 9.21226 7.86564 9.19628C7.84953 9.18024 7.83334 9.16413 7.8173 9.14815C7.80104 9.13217 7.78493 9.11619 7.76874 9.10007C7.75261 9.08402 7.73642 9.06804 7.72023 9.052C7.70412 9.03587 7.68801 9.01991 7.67188 9.00385C7.65569 8.98787 7.6395 8.97184 7.62332 8.95571C7.60728 8.93973 7.59109 8.92376 7.57498 8.90771C7.55879 8.89165 7.5426 8.87561 7.52641 8.85964C7.51036 8.84352 7.49417 8.82754 7.47806 8.81156C7.46187 8.79551 7.44568 8.77947 7.42963 8.76341C7.41344 8.74744 7.39725 8.7314 7.38114 8.71528C7.36495 8.6993 7.34876 8.68325 7.33271 8.66721C7.31652 8.65116 7.30033 8.6351 7.28422 8.6192C7.26803 8.60316 7.25184 8.58703 7.23579 8.57106C7.2196 8.55501 7.20741 8.53497 7.19943 8.51093C7.19137 8.4869 7.1833 8.46279 7.17518 8.43883C7.16711 8.41479 7.155 8.39468 7.13888 8.37862C7.1227 8.36264 7.10651 8.3466 7.09038 8.33055C7.07419 8.31457 7.05815 8.29859 7.04197 8.28255C7.02578 8.26644 7.01357 8.24646 7.00559 8.22235C6.99753 8.19839 6.99346 8.17029 6.99346 8.13818C6.99346 8.10616 6.98948 8.07813 6.98135 8.05403C6.97329 8.03 6.96123 8.00989 6.94505 7.99396C6.92886 7.97793 6.9168 7.95789 6.90867 7.93378C6.90062 7.90974 6.89656 7.88171 6.89656 7.84961C6.89656 7.81759 6.89256 7.78963 6.88443 7.76545C6.87637 7.74149 6.86432 7.72145 6.84813 7.70539C6.83194 7.68934 6.81989 7.6693 6.81175 7.64534C6.8037 7.62123 6.7997 7.59319 6.7997 7.56117C6.7997 7.52901 6.7997 7.49699 6.7997 7.46495C6.7997 7.43286 6.7997 7.40077 6.7997 7.36875C6.7997 7.33664 6.7997 7.30462 6.7997 7.2726C6.7997 7.24049 6.7997 7.2084 6.7997 7.17638C6.7997 7.14435 6.7997 7.1122 6.7997 7.08016C6.7997 7.04814 6.7997 7.01605 6.7997 6.98402C6.7997 6.95192 6.7997 6.9199 6.7997 6.8878C6.7997 6.85578 6.7997 6.82376 6.7997 6.79159C6.7997 6.75956 6.7997 6.72754 6.7997 6.6955C6.7997 6.66335 6.8037 6.63532 6.81175 6.61128C6.81989 6.58724 6.83194 6.56721 6.84813 6.55115C6.86432 6.53517 6.87637 6.51506 6.88443 6.4911C6.89256 6.46699 6.89656 6.43895 6.89656 6.40693C6.89656 6.37476 6.90062 6.3468 6.90867 6.32277C6.9168 6.29866 6.92886 6.27862 6.94505 6.26258C6.96123 6.2466 6.97329 6.22655 6.98135 6.20251C6.98948 6.17842 6.99753 6.15444 7.00559 6.1304C7.01357 6.10631 7.02578 6.08633 7.04197 6.07029C7.05815 6.05416 7.07419 6.03818 7.09038 6.02214C7.10651 6.00616 7.1227 5.99011 7.13888 5.97407C7.155 5.95809 7.16711 5.93798 7.17518 5.91394C7.1833 5.8899 7.19137 5.86587 7.19943 5.84183C7.20741 5.81779 7.2196 5.79776 7.23579 5.7817C7.25184 5.76566 7.26803 5.74968 7.28422 5.73366C7.30033 5.71756 7.31652 5.70154 7.33271 5.68551C7.34876 5.6695 7.36495 5.65348 7.38114 5.63745C7.39725 5.62144 7.41344 5.60534 7.42963 5.58932C7.44568 5.57331 7.46187 5.55726 7.47806 5.54126C7.49417 5.52521 7.51036 5.50918 7.52641 5.49314C7.5426 5.47712 7.55879 5.4611 7.57498 5.44506C7.59109 5.42903 7.61128 5.41702 7.63552 5.40896C7.65969 5.40097 7.68393 5.39297 7.70818 5.38494C7.73244 5.37693 7.75261 5.36491 7.76874 5.34885C7.78493 5.33283 7.80104 5.31682 7.8173 5.30078C7.83334 5.28475 7.84953 5.26871 7.86564 5.25269C7.88177 5.23667 7.90202 5.22463 7.9262 5.21663C7.95045 5.20862 7.97875 5.2046 8.01099 5.2046C8.04337 5.2046 8.07161 5.20059 8.09586 5.19259C8.12003 5.18456 8.14029 5.17255 8.15632 5.1565C8.17259 5.14048 8.19277 5.12845 8.21702 5.12044C8.24119 5.11241 8.26943 5.1084 8.30173 5.1084C8.33411 5.1084 8.36235 5.1044 8.3866 5.09639C8.41078 5.08836 8.43089 5.07635 8.44716 5.06032C8.46327 5.04428 8.48352 5.03226 8.5077 5.02425C8.53195 5.01624 8.56019 5.01222 8.59249 5.01222C8.62487 5.01222 8.65717 5.01222 8.68933 5.01222C8.72164 5.01222 8.75401 5.01222 8.78633 5.01222C8.81856 5.01222 8.85093 5.01222 8.88325 5.01222C8.91547 5.01222 8.94785 5.01222 8.98015 5.01222C9.01247 5.01222 9.04477 5.01222 9.07707 5.01222C9.10931 5.01222 9.13769 5.01624 9.1618 5.02425C9.18604 5.03226 9.20623 5.04428 9.22242 5.06032C9.23861 5.07635 9.25872 5.08836 9.28296 5.09639C9.30713 5.1044 9.33553 5.1084 9.36783 5.1084C9.40005 5.1084 9.4283 5.11241 9.45254 5.12044C9.4768 5.12845 9.49697 5.14048 9.51316 5.1565C9.52921 5.17255 9.54946 5.18456 9.57371 5.19259C9.59789 5.20059 9.62213 5.20862 9.64638 5.21663C9.67062 5.22463 9.69081 5.23667 9.707 5.25269C9.72305 5.26871 9.7433 5.28076 9.76747 5.28875C9.79179 5.29676 9.81597 5.30479 9.84022 5.31279C9.86439 5.32082 9.88465 5.33283 9.90069 5.34885C9.91695 5.36491 9.93306 5.38093 9.94925 5.39698C9.96538 5.41299 9.98157 5.42903 9.99761 5.44506C10.0138 5.4611 10.03 5.47712 10.0462 5.49314C10.0623 5.50918 10.0784 5.52521 10.0945 5.54126C10.1107 5.55726 10.1269 5.57331 10.143 5.58932C10.1592 5.60534 10.1753 5.62144 10.1916 5.63745C10.2076 5.65348 10.2238 5.6695 10.2399 5.68551C10.256 5.70154 10.2683 5.72162 10.2763 5.74568C10.2844 5.76965 10.2925 5.79376 10.3005 5.81779C10.3085 5.84183 10.3207 5.86187 10.3369 5.87792C10.353 5.8939 10.3652 5.91394 10.3732 5.93798C10.3812 5.96209 10.3894 5.98605 10.3975 6.01009C10.4055 6.0342 10.4177 6.05416 10.4337 6.07029C10.45 6.08633 10.4621 6.10631 10.4701 6.1304C10.4782 6.15444 10.4822 6.18247 10.4822 6.21451C10.4822 6.2466 10.4822 6.27862 10.4822 6.31071C10.4822 6.34275 10.4862 6.37084 10.4944 6.39488C10.5024 6.41899 10.5146 6.43895 10.5307 6.45501C10.5469 6.47106 10.5589 6.4911 10.5671 6.51506C10.5751 6.53917 10.5791 6.56721 10.5791 6.59922C10.5791 6.63132 10.5791 6.66335 10.5791 6.6955C10.5791 6.72754 10.5751 6.75557 10.5671 6.77961C10.5589 6.80365 10.5469 6.82376 10.5307 6.83972C10.5146 6.85578 10.5024 6.87576 10.4944 6.89985C10.4862 6.92389 10.4822 6.95192 10.4822 6.98402C10.4822 7.01605 10.4782 7.04414 10.4701 7.06818C10.4621 7.09222 10.45 7.1122 10.4337 7.12823C10.4177 7.14435 10.4055 7.16433 10.3975 7.18844C10.3894 7.2124 10.3812 7.23644 10.3732 7.26055C10.3652 7.28458 10.353 7.30462 10.3369 7.3206C10.3207 7.33664 10.3085 7.35675 10.3005 7.38079C10.2925 7.40477 10.2844 7.42886 10.2763 7.4529C10.2683 7.47701 10.256 7.49699 10.2399 7.51303C10.2238 7.52901 10.2076 7.54506 10.1916 7.56117C10.1753 7.57715 10.1592 7.59319 10.143 7.60917C10.1269 7.62523 10.1107 7.64127 10.0945 7.65732C10.0784 7.67337 10.0582 7.68541 10.0341 7.69334C10.0098 7.70139 9.98555 7.70939 9.96138 7.71737C9.93706 7.7255 9.91695 7.73741 9.90069 7.75354C9.88465 7.76952 9.86439 7.7815 9.84022 7.78963C9.81597 7.79762 9.79179 7.8056 9.76747 7.81359C9.7433 7.82158 9.72305 7.83363 9.707 7.84961C9.69081 7.86567 9.67062 7.87771 9.64638 7.88578C9.62213 7.89369 9.59389 7.89776 9.56159 7.89776C9.52922 7.89776 9.49697 7.89776 9.46467 7.89776C9.43243 7.89776 9.40405 7.89369 9.37981 7.88578C9.35564 7.87771 9.34358 7.86567 9.34358 7.84961C9.34358 7.83363 9.35564 7.82158 9.37981 7.81359C9.40405 7.8056 9.4283 7.79762 9.45254 7.78963C9.4768 7.7815 9.49697 7.76952 9.51316 7.75354C9.52921 7.73741 9.54946 7.7255 9.57371 7.71737C9.59789 7.70939 9.62213 7.70139 9.64638 7.69334C9.67062 7.68541 9.69081 7.67337 9.707 7.65732C9.72305 7.64127 9.73924 7.62523 9.75543 7.60917C9.77154 7.59319 9.78773 7.57715 9.80392 7.56117C9.81996 7.54506 9.83622 7.52901 9.85233 7.51303C9.86846 7.49699 9.88058 7.47701 9.88863 7.4529C9.8967 7.42886 9.90482 7.40477 9.91289 7.38079C9.92095 7.35675 9.93306 7.33664 9.94925 7.3206C9.96538 7.30462 9.97749 7.28458 9.98555 7.26055C9.99376 7.23644 10.0017 7.2124 10.0098 7.18844C10.0178 7.16433 10.03 7.14435 10.0462 7.12823C10.0623 7.1122 10.0744 7.09222 10.0825 7.06818C10.0905 7.04414 10.0945 7.01605 10.0945 6.98402C10.0945 6.95192 10.0945 6.9199 10.0945 6.8878C10.0945 6.85578 10.0945 6.82376 10.0945 6.79159C10.0945 6.75956 10.0905 6.73154 10.0825 6.70743C10.0744 6.68346 10.0623 6.66335 10.0462 6.64737C10.03 6.63132 10.0178 6.61128 10.0098 6.58724C10.0017 6.56321 9.99761 6.53517 9.99761 6.50308C9.99761 6.47106 9.99376 6.44295 9.98555 6.41899C9.97749 6.39488 9.96538 6.37477 9.94925 6.35886C9.93306 6.34275 9.92095 6.32277 9.91289 6.29866C9.90482 6.27462 9.8967 6.25066 9.88863 6.22655C9.88058 6.20251 9.86846 6.18247 9.85233 6.16649C9.83622 6.15038 9.81996 6.13433 9.80392 6.11836C9.78773 6.10231 9.77154 6.08633 9.75543 6.07029C9.73924 6.05416 9.72305 6.03818 9.707 6.02214C9.69081 6.00616 9.67462 5.99011 9.65851 5.97407C9.64232 5.95809 9.62619 5.94197 9.61001 5.92592C9.59389 5.90994 9.5737 5.89789 9.54946 5.8899C9.52522 5.88192 9.50105 5.87385 9.4768 5.86587C9.45254 5.85788 9.43243 5.84589 9.41624 5.82985C9.40005 5.81374 9.37981 5.80174 9.35564 5.79376C9.33138 5.7857 9.30713 5.7777 9.28296 5.76965C9.25872 5.76166 9.23861 5.74968 9.22242 5.73366C9.20623 5.71756 9.18604 5.70552 9.1618 5.69755C9.13769 5.68951 9.10931 5.68551 9.07707 5.68551C9.04477 5.68551 9.01247 5.68551 8.98015 5.68551C8.94785 5.68551 8.91547 5.68551 8.88325 5.68551C8.85093 5.68551 8.81856 5.68551 8.78633 5.68551C8.75401 5.68551 8.72578 5.68951 8.70152 5.69755C8.67722 5.70552 8.65717 5.71756 8.64092 5.73366C8.62487 5.74968 8.60468 5.76166 8.58043 5.76965C8.55606 5.7777 8.52795 5.7817 8.49557 5.7817C8.46327 5.7817 8.43503 5.7857 8.41078 5.79376C8.3866 5.80174 8.36635 5.81374 8.35016 5.82985C8.33411 5.84589 8.31386 5.85788 8.28969 5.86587C8.26543 5.87385 8.24119 5.88192 8.21702 5.8899C8.19277 5.89789 8.17259 5.90994 8.15632 5.92592C8.14029 5.94197 8.1241 5.95809 8.10791 5.97407C8.09186 5.99011 8.07559 6.00616 8.05948 6.02214C8.04337 6.03818 8.02311 6.05018 7.99894 6.05823C7.97469 6.06622 7.95045 6.07427 7.9262 6.08233C7.90202 6.09025 7.88583 6.10631 7.87777 6.1304C7.86972 6.15444 7.86158 6.17842 7.8536 6.20251C7.8454 6.22655 7.83334 6.2466 7.8173 6.26258C7.80104 6.27862 7.78493 6.29473 7.76874 6.31071C7.75261 6.32677 7.73642 6.34275 7.72023 6.35886C7.70412 6.37477 7.69199 6.39488 7.68393 6.41899C7.67588 6.44295 7.66775 6.46699 7.65969 6.4911C7.65171 6.51506 7.6395 6.53517 7.62332 6.55115C7.60728 6.56721 7.59509 6.58724 7.58702 6.61128C7.57896 6.63532 7.57498 6.66335 7.57498 6.6955C7.57498 6.72754 7.57083 6.75557 7.56285 6.77961C7.55479 6.80365 7.5426 6.82376 7.52641 6.83972C7.51036 6.85578 7.49817 6.87576 7.49011 6.89985C7.48204 6.92389 7.47806 6.95192 7.47806 6.98402C7.47806 7.01605 7.47806 7.04814 7.47806 7.08016C7.47806 7.1122 7.47806 7.14435 7.47806 7.17638C7.47806 7.2084 7.47806 7.24049 7.47806 7.2726C7.47806 7.30462 7.47806 7.33664 7.47806 7.36875C7.47806 7.40077 7.48204 7.42886 7.49011 7.4529C7.49817 7.47701 7.51036 7.49699 7.52641 7.51303C7.5426 7.52901 7.55479 7.54912 7.56285 7.57315C7.57083 7.59719 7.57498 7.62523 7.57498 7.65732C7.57498 7.68934 7.57896 7.71737 7.58702 7.74148C7.59509 7.76545 7.60728 7.78556 7.62332 7.80161C7.6395 7.81759 7.65171 7.83763 7.65969 7.86167C7.66775 7.88578 7.67588 7.90974 7.68393 7.93378C7.69199 7.95789 7.70412 7.97793 7.72023 7.99396C7.73642 8.00989 7.74848 8.03 7.75661 8.05403C7.76467 8.07813 7.77287 8.10211 7.78085 8.1262C7.78891 8.15024 7.80104 8.17029 7.8173 8.18626C7.83334 8.20231 7.84953 8.21836 7.86564 8.2344C7.88177 8.25046 7.89802 8.26644 7.91407 8.28255C7.93026 8.29859 7.94645 8.31457 7.96256 8.33055C7.97875 8.3466 7.99488 8.36264 8.01099 8.37862C8.02718 8.39468 8.04337 8.41079 8.05948 8.42677C8.07559 8.44281 8.09186 8.45886 8.10791 8.47484C8.1241 8.49088 8.14029 8.50686 8.15632 8.52292C8.17259 8.53903 8.1887 8.55501 8.20483 8.57106C8.22102 8.58703 8.23721 8.60316 8.25332 8.6192C8.26943 8.6351 8.28969 8.64723 8.31386 8.65521C8.33811 8.66329 8.36235 8.67119 8.3866 8.67925C8.41078 8.68725 8.43089 8.6993 8.44716 8.71528C8.46327 8.7314 8.48352 8.74338 8.5077 8.75136C8.53195 8.75943 8.55606 8.76741 8.58043 8.77547C8.60468 8.78347 8.62487 8.79551 8.64092 8.81156C8.65717 8.82754 8.67722 8.83952 8.70152 8.84758C8.72578 8.85558 8.75401 8.85964 8.78633 8.85964C8.81856 8.85964 8.85093 8.85964 8.88325 8.85964C8.91547 8.85964 8.94372 8.86363 8.96796 8.87169C8.99221 8.87961 9.01247 8.89165 9.02858 8.90771C9.04477 8.92376 9.06488 8.93574 9.08912 8.94373C9.11337 8.95186 9.14169 8.95571 9.17391 8.95571C9.20623 8.95571 9.23861 8.95571 9.27091 8.95571C9.30315 8.95571 9.33553 8.95571 9.36783 8.95571C9.40005 8.95571 9.43243 8.95571 9.46467 8.95571C9.49697 8.95571 9.52922 8.95571 9.56159 8.95571C9.59389 8.95571 9.62619 8.95571 9.65851 8.95571C9.69081 8.95571 9.71905 8.95186 9.7433 8.94373C9.76747 8.93574 9.78773 8.92376 9.80392 8.90771C9.81996 8.89165 9.84022 8.87961 9.86439 8.87169C9.88863 8.86363 9.91695 8.85964 9.94925 8.85964C9.98157 8.85964 10.0138 8.85964 10.0462 8.85964C10.0784 8.85964 10.1067 8.85558 10.1309 8.84758C10.1551 8.83952 10.1753 8.82754 10.1916 8.81156C10.2076 8.79551 10.2278 8.78347 10.2521 8.77547C10.2763 8.76741 10.3005 8.75943 10.3248 8.75136C10.349 8.74338 10.3692 8.7314 10.3853 8.71528C10.4015 8.6993 10.4216 8.68725 10.4459 8.67925C10.4701 8.67119 10.4944 8.66329 10.5186 8.65521C10.5428 8.64723 10.563 8.6351 10.5791 8.6192C10.5953 8.60316 10.6155 8.5911 10.6397 8.5831C10.6639 8.57505 10.6882 8.56706 10.7124 8.55901C10.7366 8.55095 10.7569 8.53903 10.7729 8.52292C10.7891 8.50686 10.8053 8.49088 10.8214 8.47484C10.8376 8.45886 10.8537 8.44281 10.8699 8.42677C10.886 8.41079 10.9022 8.39468 10.9183 8.37862C10.9345 8.36264 10.9506 8.3466 10.9668 8.33055C10.983 8.31457 10.999 8.29859 11.0153 8.28255C11.0314 8.26644 11.0475 8.25046 11.0637 8.2344C11.0799 8.21836 11.0961 8.20231 11.1121 8.18626C11.1283 8.17029 11.1444 8.15424 11.1606 8.13818C11.1768 8.12214 11.1929 8.10616 11.209 8.09019C11.2252 8.07407 11.2374 8.05403 11.2453 8.03C11.2535 8.00602 11.2615 7.98192 11.2696 7.95789C11.2777 7.93378 11.2898 7.9138 11.306 7.89776C11.3221 7.88171 11.3383 7.86567 11.3544 7.84961C11.3706 7.83363 11.3867 7.81759 11.4029 7.80161C11.4191 7.78556 11.4311 7.76545 11.4392 7.74148C11.4473 7.71737 11.4554 7.69334 11.4634 7.6693C11.4715 7.64527 11.4836 7.62523 11.4998 7.60917C11.516 7.59319 11.528 7.57316 11.5361 7.54912C11.5442 7.52501 11.5483 7.49699 11.5483 7.46495C11.5483 7.43286 11.5523 7.40477 11.5603 7.38079C11.5685 7.35675 11.5806 7.33664 11.5967 7.3206C11.6129 7.30462 11.6249 7.28458 11.633 7.26055C11.6411 7.23644 11.6451 7.2084 11.6451 7.17638C11.6451 7.14435 11.6451 7.1122 11.6451 7.08016C11.6451 7.04814 11.6492 7.02011 11.6573 6.996C11.6654 6.97204 11.6774 6.95192 11.6936 6.93594C11.7098 6.9199 11.7219 6.89985 11.7299 6.87576C11.738 6.85178 11.742 6.82376 11.742 6.79159C11.742 6.75956 11.742 6.72754 11.742 6.6955C11.742 6.66335 11.742 6.63132 11.742 6.59922C11.742 6.56721 11.742 6.53517 11.742 6.50308C11.742 6.47106 11.742 6.43895 11.742 6.40693C11.742 6.37476 11.742 6.34275 11.742 6.31071C11.742 6.27862 11.742 6.2466 11.742 6.21451C11.742 6.18247 11.738 6.15444 11.7299 6.1304C11.7219 6.10631 11.7098 6.08633 11.6936 6.07029C11.6774 6.05416 11.6654 6.0342 11.6573 6.01009C11.6492 5.98605 11.6451 5.95809 11.6451 5.92592C11.6451 5.8939 11.6451 5.86187 11.6451 5.82985C11.6451 5.79776 11.6411 5.76965 11.633 5.74568C11.6249 5.72162 11.6129 5.70154 11.5967 5.68551C11.5806 5.6695 11.5685 5.64942 11.5603 5.62543C11.5523 5.60136 11.5483 5.57331 11.5483 5.54126C11.5483 5.50918 11.5442 5.48113 11.5361 5.45708C11.528 5.43303 11.516 5.41299 11.4998 5.39698C11.4836 5.38093 11.4715 5.36089 11.4634 5.33687C11.4554 5.31279 11.4473 5.28875 11.4392 5.26472C11.4311 5.24066 11.4191 5.22063 11.4029 5.2046C11.3867 5.18856 11.3746 5.16851 11.3665 5.14446C11.3584 5.12044 11.3504 5.09639 11.3423 5.07232C11.3342 5.0483 11.3221 5.02826 11.306 5.01222C11.2898 4.9962 11.2777 4.97616 11.2696 4.95211C11.2615 4.92809 11.2535 4.90402 11.2453 4.87997C11.2374 4.85595 11.2252 4.83591 11.209 4.81986C11.1929 4.80385 11.1768 4.78779 11.1606 4.77177C11.1444 4.75574 11.1283 4.73969 11.1121 4.72369C11.0961 4.70764 11.0839 4.6876 11.0758 4.66355C11.0677 4.63952 11.0597 4.61548 11.0515 4.59143C11.0434 4.56738 11.0314 4.54734 11.0153 4.53128C10.999 4.51526 10.983 4.49924 10.9668 4.48321C10.9506 4.4672 10.9345 4.45115 10.9183 4.43512C10.9022 4.4191 10.886 4.40306 10.8699 4.38702C10.8537 4.37101 10.8376 4.35499 10.8214 4.33893C10.8053 4.32291 10.7891 4.30688 10.7729 4.29084C10.7569 4.27481 10.7406 4.25878 10.7245 4.24277C10.7084 4.22672 10.6922 4.21069 10.676 4.19465C10.6599 4.17863 10.6397 4.16662 10.6155 4.15859C10.5912 4.15058 10.567 4.14257 10.5428 4.13454C10.5186 4.12651 10.4984 4.1145 10.4822 4.09848C10.4661 4.08245 10.45 4.06642 10.4337 4.05038C10.4177 4.03434 10.4015 4.01834 10.3853 4.0023C10.3692 3.98626 10.349 3.97424 10.3248 3.96624C10.3005 3.95818 10.2763 3.95019 10.2521 3.94216C10.2278 3.93416 10.2076 3.92212 10.1916 3.90613C10.1753 3.89007 10.1551 3.87805 10.1309 3.87004C10.1067 3.86201 10.0825 3.85403 10.0582 3.846C10.0341 3.83797 10.0138 3.82596 9.99761 3.80991C9.98157 3.7939 9.96138 3.78187 9.93706 3.77384C9.91289 3.76586 9.88863 3.75784 9.86439 3.74981C9.84022 3.74181 9.81996 3.72977 9.80392 3.71375C9.78773 3.69769 9.76747 3.68568 9.7433 3.67767C9.71905 3.66966 9.69081 3.66566 9.65851 3.66566C9.62619 3.66566 9.59789 3.66161 9.57371 3.65362C9.54946 3.64561 9.52921 3.63358 9.51316 3.61756C9.49697 3.60152 9.4768 3.58951 9.45254 3.58148C9.4283 3.57347 9.40005 3.56947 9.36783 3.56947C9.33553 3.56947 9.30315 3.56947 9.27091 3.56947C9.23861 3.56947 9.20623 3.56947 9.17391 3.56947C9.14169 3.56947 9.10931 3.56947 9.07707 3.56947C9.04477 3.56947 9.01652 3.56545 8.99221 3.55746C8.96796 3.54943 8.94785 3.5374 8.93166 3.52137C8.91547 3.50534 8.89529 3.4933 8.87104 3.4853C8.8468 3.47729 8.81856 3.47326 8.78633 3.47326C8.75401 3.47326 8.72164 3.47326 8.68933 3.47326C8.65717 3.47326 8.62487 3.47326 8.59249 3.47326C8.56019 3.47326 8.52795 3.47326 8.49557 3.47326C8.46327 3.47326 8.43089 3.47326 8.39865 3.47326C8.36635 3.47326 8.33811 3.47729 8.31386 3.4853C8.28969 3.4933 8.26943 3.50534 8.25332 3.52137C8.23721 3.5374 8.21702 3.54943 8.19277 3.55746C8.16853 3.56545 8.14029 3.56947 8.10791 3.56947C8.07559 3.56947 8.04337 3.56947 8.01099 3.56947C7.97875 3.56947 7.94645 3.56947 7.91407 3.56947C7.88177 3.56947 7.84953 3.56947 7.8173 3.56947C7.78493 3.56947 7.75661 3.57347 7.73244 3.58148C7.70818 3.58951 7.68801 3.60152 7.67188 3.61756C7.65569 3.63358 7.63552 3.64561 7.61128 3.65362C7.58702 3.66161 7.55879 3.66566 7.52641 3.66566C7.49417 3.66566 7.46187 3.66566 7.42963 3.66566C7.39725 3.66566 7.36901 3.66966 7.34476 3.67767C7.32052 3.68568 7.30033 3.69769 7.28422 3.71375C7.26803 3.72977 7.24784 3.74181 7.2236 3.74981C7.19943 3.75784 7.17519 3.76586 7.15093 3.77384C7.12668 3.78187 7.10651 3.7939 7.09038 3.80991C7.07419 3.82596 7.05402 3.83797 7.02976 3.846C7.00559 3.85403 6.97727 3.85801 6.94505 3.85801C6.91267 3.85801 6.88443 3.86201 6.86018 3.87004C6.836 3.87805 6.81575 3.89007 6.7997 3.90613C6.78351 3.92212 6.7674 3.93815 6.75121 3.9542C6.73502 3.97022 6.71883 3.98626 6.70279 4.0023C6.68653 4.01834 6.66635 4.03035 6.64224 4.03836C6.61793 4.04638 6.59367 4.0544 6.56943 4.06242C6.54533 4.07041 6.52507 4.08245 6.50896 4.09848C6.49277 4.1145 6.47666 4.13056 6.46047 4.14655C6.44428 4.16261 6.42823 4.17863 6.41196 4.19465C6.39585 4.21069 6.3756 4.22273 6.35149 4.23073C6.32725 4.23874 6.30293 4.24676 6.27882 4.25475C6.25457 4.26279 6.23439 4.27481 6.21821 4.29084C6.20204 4.30688 6.18588 4.32291 6.16971 4.33893C6.15364 4.35499 6.13747 4.37101 6.1213 4.38702C6.10514 4.40306 6.08896 4.4191 6.07288 4.43512C6.05663 4.45115 6.04055 4.4672 6.02439 4.48321C6.00822 4.49924 5.99205 4.51526 5.97589 4.53128C5.95971 4.54734 5.94363 4.56336 5.92747 4.57942C5.9113 4.59544 5.89513 4.61145 5.87897 4.62749C5.86288 4.64353 5.84673 4.65955 5.83055 4.67558C5.8144 4.69162 5.79822 4.70764 5.78206 4.72369C5.76598 4.73969 5.74981 4.75574 5.73364 4.77177C5.71751 4.78779 5.70133 4.80385 5.68521 4.81986C5.66902 4.83591 5.65289 4.85192 5.63673 4.86796C5.62059 4.88398 5.60443 4.89999 5.58827 4.91605C5.57211 4.93207 5.55598 4.94812 5.5398 4.96412C5.52367 4.98017 5.50753 4.9962 5.49137 5.01222C5.47521 5.02826 5.46308 5.0483 5.45502 5.07232C5.44695 5.09639 5.43886 5.12044 5.43079 5.14446C5.42272 5.16851 5.41061 5.18856 5.39446 5.2046C5.37831 5.22063 5.36215 5.23667 5.34599 5.25269C5.32985 5.26871 5.31369 5.28475 5.29756 5.30078C5.2814 5.31682 5.26927 5.33687 5.26118 5.36089C5.25311 5.38494 5.24507 5.40896 5.23698 5.43303C5.22888 5.45708 5.21678 5.47712 5.20064 5.49314C5.18447 5.50918 5.17237 5.52922 5.1643 5.55327C5.15621 5.57729 5.14814 5.60136 5.14007 5.62543C5.13198 5.64942 5.11988 5.6695 5.10372 5.68551C5.08759 5.70154 5.07546 5.72162 5.06739 5.74568C5.0593 5.76965 5.05123 5.79376 5.04316 5.81779C5.03508 5.84183 5.02298 5.86187 5.00682 5.87792C4.99066 5.8939 4.97856 5.91394 4.97047 5.93798C4.9624 5.96209 4.95836 5.99011 4.95836 6.02214C4.95836 6.05423 4.9543 6.08233 4.94624 6.10631C4.93817 6.1304 4.92607 6.15038 4.90988 6.16649C4.89375 6.18247 4.88165 6.20251 4.87355 6.22655C4.8655 6.25066 4.86144 6.27862 4.86144 6.31071C4.86144 6.34275 4.85743 6.37084 4.84934 6.39488C4.84127 6.41899 4.82914 6.43895 4.81301 6.45501C4.79682 6.47106 4.78472 6.4911 4.77665 6.51506C4.76859 6.53917 4.76455 6.56721 4.76455 6.59922C4.76455 6.63132 4.76455 6.66335 4.76455 6.6955C4.76455 6.72754 4.76455 6.75956 4.76455 6.79159C4.76455 6.82376 4.76455 6.85578 4.76455 6.8878C4.76455 6.9199 4.76455 6.95192 4.76455 6.98402C4.76455 7.01605 4.76049 7.04414 4.75242 7.06818C4.74436 7.09222 4.73223 7.1122 4.71608 7.12823C4.69992 7.14435 4.68782 7.16433 4.67975 7.18844C4.67167 7.2124 4.66763 7.24049 4.66763 7.2726C4.66763 7.30462 4.66763 7.33664 4.66763 7.36875C4.66763 7.40077 4.66763 7.43286 4.66763 7.46495C4.66763 7.49699 4.67167 7.52501 4.67975 7.54912C4.68782 7.57316 4.69992 7.59319 4.71608 7.60917C4.73223 7.62523 4.74436 7.64527 4.75242 7.6693C4.76049 7.69334 4.76455 7.72145 4.76455 7.75354C4.76455 7.78556 4.76455 7.81759 4.76455 7.84961C4.76455 7.88171 4.76455 7.9138 4.76455 7.94583C4.76455 7.97793 4.76455 8.00989 4.76455 8.04204C4.76455 8.07407 4.76455 8.10616 4.76455 8.13818C4.76455 8.17029 4.76455 8.20231 4.76455 8.2344C4.76455 8.26644 4.76455 8.29859 4.76455 8.33055C4.76455 8.36264 4.76859 8.39068 4.77665 8.41479C4.78472 8.43883 4.79682 8.45886 4.81301 8.47484C4.82914 8.49088 4.84127 8.51094 4.84934 8.53497C4.85743 8.55901 4.86144 8.58703 4.86144 8.6192C4.86144 8.65116 4.86144 8.68325 4.86144 8.71528C4.86144 8.74744 4.8655 8.77547 4.87355 8.79943C4.88165 8.82362 4.89375 8.84352 4.90988 8.85964C4.92607 8.87561 4.93817 8.89573 4.94624 8.91969C4.9543 8.94373 4.95836 8.97184 4.95836 9.00385C4.95836 9.03587 4.9624 9.06398 4.97047 9.08802C4.97856 9.11213 4.99066 9.13217 5.00682 9.14815C5.02298 9.16413 5.03508 9.18424 5.04316 9.20828C5.05123 9.23237 5.05529 9.26041 5.05529 9.29243C5.05529 9.32446 5.0593 9.35255 5.06739 9.37659C5.07546 9.4007 5.08759 9.42068 5.10372 9.43672C5.11988 9.4527 5.13198 9.47281 5.14007 9.49677C5.14814 9.52088 5.15621 9.54492 5.1643 9.56888C5.17237 9.59307 5.18447 9.61303 5.20064 9.62916C5.21678 9.64512 5.22888 9.66518 5.23698 9.68914C5.24507 9.71325 5.25311 9.73729 5.26118 9.76132C5.26927 9.78542 5.2814 9.8054 5.29756 9.82145C5.31369 9.83749 5.32582 9.85753 5.33389 9.88157C5.34195 9.90554 5.35002 9.92971 5.35812 9.95367C5.3662 9.97771 5.37831 9.99776 5.39446 10.0139C5.41061 10.0299 5.42675 10.0459 5.44294 10.0619C5.45905 10.078 5.47521 10.094 5.49137 10.1099C5.50753 10.126 5.51966 10.146 5.52771 10.1701C5.53578 10.1942 5.54386 10.2182 5.55194 10.2423C5.56001 10.2663 5.57211 10.2863 5.58827 10.3023C5.60443 10.3184 5.62059 10.3345 5.63673 10.3505C5.65289 10.3665 5.66902 10.3826 5.68521 10.3986C5.70133 10.4146 5.71751 10.4306 5.73364 10.4467C5.74981 10.4627 5.76598 10.4787 5.78206 10.4947C5.79822 10.5107 5.81038 10.5308 5.81848 10.5548C5.82647 10.5789 5.83455 10.6029 5.84264 10.6271C5.85073 10.6511 5.86288 10.6711 5.87897 10.6871C5.89513 10.7032 5.9113 10.7191 5.92747 10.7353C5.94363 10.7513 5.95971 10.7673 5.97589 10.7833C5.99205 10.7993 6.00822 10.8153 6.02439 10.8313C6.04055 10.8474 6.05663 10.8635 6.07288 10.8795C6.08896 10.8955 6.10514 10.9116 6.1213 10.9275C6.13747 10.9436 6.15364 10.9596 6.16971 10.9756C6.18588 10.9917 6.20204 11.0077 6.21821 11.0238C6.23439 11.0397 6.25044 11.0559 6.26663 11.0718C6.28282 11.0878 6.29893 11.1039 6.31512 11.1199C6.33123 11.136 6.34749 11.152 6.36355 11.168C6.37974 11.1841 6.39585 11.2001 6.41196 11.2161C6.42823 11.2322 6.44428 11.2482 6.46047 11.2643C6.47666 11.2802 6.49277 11.2962 6.50896 11.3123C6.52507 11.3283 6.54118 11.3444 6.55737 11.3604C6.57356 11.3765 6.58969 11.3924 6.6058 11.4084C6.62199 11.4245 6.6381 11.4406 6.65429 11.4566C6.67048 11.4726 6.68653 11.4886 6.70279 11.5047C6.71883 11.5207 6.73502 11.5367 6.75121 11.5528C6.7674 11.5689 6.78351 11.5848 6.7997 11.6009C6.81575 11.6168 6.83194 11.6329 6.84813 11.649C6.86432 11.665 6.88043 11.681 6.89656 11.6971C6.91267 11.7131 6.93286 11.7252 6.9571 11.7331C6.98135 11.7411 7.00559 11.7491 7.02976 11.7572C7.05402 11.7652 7.07419 11.7772 7.09038 11.7932C7.10651 11.8093 7.1227 11.8253 7.13888 11.8413C7.155 11.8573 7.17111 11.8734 7.1873 11.8894C7.20341 11.9054 7.2236 11.9175 7.24784 11.9255C7.27209 11.9336 7.29627 11.9415 7.32052 11.9495C7.34476 11.9575 7.36495 11.9696 7.38114 11.9856C7.39725 12.0016 7.41344 12.0177 7.42963 12.0337C7.44568 12.0498 7.46187 12.0657 7.47806 12.0819C7.49417 12.0978 7.51436 12.1098 7.5386 12.1179C7.56285 12.1259 7.58702 12.1339 7.61128 12.1418C7.63552 12.1499 7.65569 12.162 7.67188 12.178C7.68801 12.194 7.70818 12.206 7.73244 12.214C7.75661 12.222 7.78085 12.23 7.8051 12.2381C7.82934 12.2461 7.84953 12.2581 7.86564 12.2742C7.88177 12.2902 7.90202 12.3022 7.9262 12.3102C7.95045 12.3182 7.97469 12.3263 7.99894 12.3343C8.02311 12.3423 8.04337 12.3543 8.05948 12.3704C8.07559 12.3864 8.09586 12.3984 8.12003 12.4064C8.14427 12.4144 8.16853 12.4224 8.19277 12.4304C8.21702 12.4385 8.23721 12.4505 8.25332 12.4666C8.26943 12.4826 8.28969 12.4946 8.31386 12.5026C8.33811 12.5106 8.36235 12.5186 8.3866 12.5266C8.41078 12.5346 8.4229 12.5467 8.4229 12.5627C8.4229 12.5787 8.41078 12.5908 8.3866 12.5987C8.36235 12.6067 8.33411 12.6108 8.30173 12.6108C8.26943 12.6108 8.23706 12.6108 8.20483 12.6108C8.17259 12.6108 8.14029 12.6108 8.10791 12.6108C8.07559 12.6108 8.04737 12.6067 8.02311 12.5987C7.99894 12.5908 7.97875 12.5787 7.96256 12.5627C7.94645 12.5467 7.9262 12.5346 7.90202 12.5266C7.87777 12.5186 7.84953 12.5146 7.8173 12.5146C7.78493 12.5146 7.75261 12.5146 7.72023 12.5146C7.68801 12.5146 7.65969 12.5106 7.63552 12.5026C7.61128 12.4946 7.59109 12.4826 7.57498 12.4666C7.55879 12.4505 7.5386 12.4385 7.51436 12.4304C7.49011 12.4224 7.46187 12.4184 7.42963 12.4184C7.39725 12.4184 7.36901 12.4144 7.34476 12.4064C7.32052 12.3984 7.30033 12.3864 7.28422 12.3704C7.26803 12.3543 7.24784 12.3423 7.2236 12.3343C7.19943 12.3263 7.17111 12.3222 7.13888 12.3222C7.10651 12.3222 7.07827 12.3182 7.05402 12.3102C7.02976 12.3022 7.00959 12.2902 6.99346 12.2742C6.97727 12.2581 6.9571 12.2461 6.93286 12.2381C6.90867 12.23 6.88443 12.222 6.86018 12.214C6.836 12.206 6.81575 12.194 6.7997 12.178C6.78351 12.162 6.76326 12.1499 6.73902 12.1418C6.71484 12.1339 6.69059 12.1259 6.66635 12.1179C6.64223 12.1098 6.62199 12.0978 6.6058 12.0819C6.58969 12.0657 6.56943 12.0538 6.54533 12.0458C6.52101 12.0377 6.49677 12.0296 6.47266 12.0216C6.44841 12.0137 6.42823 12.0016 6.41196 11.9856C6.39585 11.9696 6.37974 11.9535 6.36355 11.9376C6.34749 11.9215 6.33123 11.9054 6.31512 11.8894C6.29893 11.8734 6.27882 11.8614 6.25457 11.8534C6.2303 11.8453 6.20604 11.8373 6.1818 11.8293C6.15763 11.8212 6.13747 11.8093 6.1213 11.7932C6.10514 11.7772 6.08896 11.7612 6.07288 11.7451C6.05663 11.7292 6.04055 11.7131 6.02439 11.6971C6.00822 11.681 5.99205 11.665 5.97589 11.649C5.95971 11.6329 5.94363 11.6168 5.92747 11.6009C5.9113 11.5848 5.89114 11.5727 5.86688 11.5648C5.84264 11.5568 5.81848 11.5488 5.79422 11.5407C5.76996 11.5327 5.74981 11.5207 5.73364 11.5047C5.71751 11.4886 5.70133 11.4726 5.68521 11.4566C5.66902 11.4406 5.65289 11.4245 5.63673 11.4084C5.62059 11.3924 5.60443 11.3765 5.58827 11.3604C5.57211 11.3444 5.55598 11.3283 5.5398 11.3123C5.52367 11.2962 5.50753 11.2802 5.49137 11.2643C5.47521 11.2482 5.45905 11.2322 5.44294 11.2161C5.42675 11.2001 5.41061 11.1841 5.39446 11.168C5.37831 11.152 5.3662 11.1319 5.35812 11.1079C5.35002 11.0839 5.34195 11.0598 5.33389 11.0358C5.32582 11.0118 5.31369 10.9917 5.29756 10.9756C5.2814 10.9596 5.26526 10.9436 5.24908 10.9275C5.23293 10.9116 5.21678 10.8955 5.20064 10.8795C5.18447 10.8635 5.16834 10.8474 5.15217 10.8313C5.13604 10.8153 5.11988 10.7993 5.10372 10.7833C5.08759 10.7673 5.07141 10.7513 5.05529 10.7353C5.03913 10.7191 5.02298 10.7032 5.00682 10.6871C4.99066 10.6711 4.97856 10.6511 4.97047 10.6271C4.9624 10.6029 4.9543 10.5789 4.94624 10.5548C4.93817 10.5308 4.92607 10.5107 4.90988 10.4947C4.89375 10.4787 4.87761 10.4627 4.86144 10.4467C4.84531 10.4306 4.82914 10.4146 4.81301 10.3986C4.79682 10.3826 4.78472 10.3624 4.77665 10.3385C4.76859 10.3144 4.76049 10.2903 4.75242 10.2663C4.74436 10.2423 4.73223 10.2222 4.71608 10.2062C4.69992 10.1901 4.68782 10.1701 4.67975 10.146C4.67167 10.1221 4.66359 10.098 4.65553 10.0739C4.64746 10.0499 4.63533 10.0299 4.61917 10.0139C4.60303 9.99776 4.59088 9.97771 4.58284 9.95367C4.57475 9.92971 4.56668 9.90554 4.55861 9.88157C4.55053 9.85753 4.53843 9.83749 4.52224 9.82145C4.50611 9.8054 4.49402 9.78542 4.48594 9.76132C4.47784 9.73729 4.46975 9.71325 4.46169 9.68914C4.45362 9.66518 4.44151 9.64512 4.42536 9.62916C4.40921 9.61303 4.39709 9.59307 4.389 9.56888C4.38093 9.54492 4.3769 9.51689 4.3769 9.48487C4.3769 9.4527 4.37288 9.42474 4.36477 9.4007C4.35669 9.37659 4.34459 9.35655 4.32846 9.3405C4.31229 9.32446 4.30017 9.30448 4.29213 9.28038C4.28401 9.25635 4.27997 9.22831 4.27997 9.19628C4.27997 9.16413 4.27594 9.13609 4.26787 9.11213C4.25978 9.08802 4.24768 9.06804 4.23153 9.052C4.2154 9.03587 4.20327 9.01598 4.1952 8.9918C4.18712 8.96784 4.1831 8.93973 4.1831 8.90771C4.1831 8.87562 4.1831 8.84352 4.1831 8.81156C4.1831 8.77947 4.17904 8.75136 4.17097 8.72732C4.16289 8.70336 4.15078 8.68325 4.13464 8.66721C4.11848 8.65116 4.10638 8.63118 4.09829 8.60714C4.09022 8.5831 4.08616 8.55501 4.08616 8.52292C4.08616 8.49088 4.08616 8.45886 4.08616 8.42677C4.08616 8.39468 4.08616 8.36264 4.08616 8.33055C4.08616 8.29859 4.08616 8.26644 4.08616 8.2344C4.08616 8.20231 4.08213 8.17435 4.07406 8.15024C4.06598 8.1262 4.05389 8.10616 4.0377 8.09019C4.02156 8.07407 4.00947 8.05403 4.00136 8.03C3.9933 8.00602 3.98926 7.97793 3.98926 7.94583C3.98926 7.9138 3.98926 7.88171 3.98926 7.84961C3.98926 7.81759 3.98926 7.78556 3.98926 7.75354C3.98926 7.72145 3.98926 7.68934 3.98926 7.65732C3.98926 7.62523 3.98926 7.59319 3.98926 7.56117C3.98926 7.52901 3.98926 7.49699 3.98926 7.46495C3.98926 7.43286 3.98926 7.40077 3.98926 7.36875C3.98926 7.33664 3.98926 7.30462 3.98926 7.2726C3.98926 7.24049 3.98926 7.2084 3.98926 7.17638C3.98926 7.14435 3.98926 7.1122 3.98926 7.08016C3.98926 7.04814 3.98926 7.01605 3.98926 6.98402C3.98926 6.95192 3.9933 6.92389 4.00136 6.89985C4.00947 6.87576 4.02156 6.85578 4.0377 6.83972C4.05389 6.82376 4.06598 6.80365 4.07406 6.77961C4.08213 6.75557 4.08616 6.72754 4.08616 6.6955C4.08616 6.66335 4.08616 6.63132 4.08616 6.59922C4.08616 6.56721 4.08616 6.53517 4.08616 6.50308C4.08616 6.47106 4.08616 6.43895 4.08616 6.40693C4.08616 6.37476 4.09022 6.3468 4.09829 6.32277C4.10638 6.29866 4.11848 6.27862 4.13464 6.26258C4.15078 6.2466 4.16289 6.22655 4.17097 6.20251C4.17904 6.17842 4.1831 6.15038 4.1831 6.11836C4.1831 6.08633 4.18712 6.05823 4.1952 6.0342C4.20327 6.01009 4.2154 5.99011 4.23153 5.97407C4.24768 5.95809 4.25978 5.93798 4.26787 5.91394C4.27594 5.8899 4.27997 5.86187 4.27997 5.82985C4.27997 5.79776 4.28401 5.76965 4.29213 5.74568C4.30017 5.72162 4.31229 5.70154 4.32846 5.68551C4.34459 5.6695 4.35669 5.64942 4.36477 5.62543C4.37288 5.60136 4.38093 5.57729 4.389 5.55327C4.39709 5.52922 4.40921 5.50918 4.42536 5.49314C4.44151 5.47712 4.45362 5.45708 4.46169 5.43303C4.46975 5.40896 4.47784 5.38494 4.48594 5.36089C4.49402 5.33687 4.50611 5.31682 4.52224 5.30078C4.53843 5.28475 4.55053 5.26472 4.55861 5.24067C4.56668 5.21663 4.57475 5.19259 4.58284 5.16851C4.59088 5.14446 4.60303 5.12442 4.61917 5.1084C4.63533 5.09239 4.64746 5.07232 4.65553 5.0483C4.66359 5.02425 4.67167 5.0002 4.67975 4.97616C4.68782 4.95211 4.69992 4.93207 4.71608 4.91605C4.73223 4.89999 4.74436 4.87997 4.75242 4.85595C4.76049 4.83188 4.76859 4.80783 4.77665 4.78381C4.78472 4.75973 4.79682 4.73969 4.81301 4.72369C4.82914 4.70764 4.84531 4.69162 4.86144 4.67558C4.87761 4.65955 4.89375 4.64353 4.90988 4.62749C4.92607 4.61145 4.9422 4.59544 4.95836 4.57942C4.9745 4.56336 4.99066 4.54734 5.00682 4.53128C5.02298 4.51526 5.03508 4.49522 5.04316 4.47119C5.05123 4.44715 5.0593 4.42308 5.06739 4.39905C5.07546 4.37501 5.08759 4.35499 5.10372 4.33893C5.11988 4.32291 5.13604 4.30688 5.15217 4.29084C5.16834 4.27481 5.18447 4.25878 5.20064 4.24277C5.21678 4.22672 5.23293 4.21069 5.24908 4.19465C5.26526 4.17863 5.2814 4.16261 5.29756 4.14655C5.31369 4.13056 5.32985 4.1145 5.34599 4.09848C5.36215 4.08245 5.37831 4.06642 5.39446 4.05038C5.41061 4.03434 5.42675 4.01834 5.44294 4.0023C5.45905 3.98626 5.47521 3.97022 5.49137 3.9542C5.50753 3.93815 5.52367 3.92212 5.5398 3.90613C5.55598 3.89007 5.57617 3.87805 5.6004 3.87004C5.6246 3.86201 5.64885 3.85403 5.67306 3.846C5.69731 3.83797 5.71751 3.82596 5.73364 3.80991C5.74981 3.7939 5.76598 3.77787 5.78206 3.76183C5.79822 3.74579 5.8144 3.72977 5.83055 3.71375C5.84673 3.69769 5.86288 3.68167 5.87897 3.66566C5.89513 3.64962 5.9113 3.63358 5.92747 3.61756C5.94363 3.60152 5.9638 3.58951 5.98805 3.58148C6.01222 3.57347 6.03646 3.56545 6.06072 3.55746C6.08497 3.54943 6.10514 3.5374 6.1213 3.52137C6.13747 3.50534 6.15364 3.48932 6.16971 3.47326C6.18588 3.45724 6.20204 3.44123 6.21821 3.42519C6.23439 3.40915 6.25457 3.39711 6.27882 3.38913C6.30293 3.3811 6.32725 3.37309 6.35149 3.36508C6.3756 3.35705 6.39585 3.34504 6.41196 3.32898C6.42823 3.31299 6.44841 3.30095 6.47266 3.29295C6.49677 3.28489 6.52101 3.2769 6.54533 3.26887C6.56943 3.26087 6.58969 3.24883 6.6058 3.23282C6.62199 3.21677 6.64223 3.20476 6.66635 3.19673C6.69059 3.18873 6.71883 3.18472 6.75121 3.18472C6.78351 3.18472 6.81175 3.18072 6.836 3.17271C6.86018 3.1647 6.88043 3.15266 6.89656 3.13663C6.91267 3.12058 6.93286 3.1086 6.9571 3.10056C6.98135 3.09254 7.00559 3.08452 7.02976 3.07652C7.05402 3.06849 7.07419 3.05648 7.09038 3.04044C7.10651 3.02442 7.12668 3.01239 7.15093 3.00438C7.17519 2.99637 7.20341 2.99235 7.23579 2.99235C7.26803 2.99235 7.30033 2.99235 7.33271 2.99235C7.36495 2.99235 7.39319 2.98836 7.41744 2.98033C7.44168 2.97232 7.46187 2.96029 7.47806 2.94427C7.49417 2.92823 7.51436 2.91623 7.5386 2.90817C7.56285 2.90018 7.59109 2.89618 7.62332 2.89618C7.65569 2.89618 7.68801 2.89618 7.72023 2.89618C7.75261 2.89618 7.78493 2.89618 7.8173 2.89618C7.84953 2.89618 7.87777 2.89216 7.90202 2.88415C7.9262 2.87614 7.94645 2.86412 7.96256 2.84808Z" fill="url(#paint1_linear_62_699)" stroke="url(#paint2_linear_62_699)" stroke-width="0.6"/>
</g>
<defs>
<linearGradient id="paint0_linear_62_699" x1="3" y1="14" x2="13" y2="2" gradientUnits="userSpaceOnUse">
<stop stop-color="#FF405B"/>
<stop offset="1" stop-color="#FF8860"/>
</linearGradient>
<linearGradient id="paint1_linear_62_699" x1="6.39723" y1="12.6106" x2="9.93553" y2="5.37096" gradientUnits="userSpaceOnUse">
<stop stop-color="#FF8860"/>
<stop offset="1" stop-color="white"/>
</linearGradient>
<linearGradient id="paint2_linear_62_699" x1="6.39723" y1="12.6106" x2="9.93553" y2="5.37096" gradientUnits="userSpaceOnUse">
<stop stop-color="#FF8860"/>
<stop offset="1" stop-color="white"/>
</linearGradient>
<clipPath id="clip0_62_699">
<rect width="16" height="16" fill="white"/>
</clipPath>
</defs>
</svg>
