<svg width="16" height="16" viewBox="0 0 16 16" fill="none" xmlns="http://www.w3.org/2000/svg">
<g clip-path="url(#clip0_67_1482)">
<path fill-rule="evenodd" clip-rule="evenodd" d="M16 15C16 14.448 15.552 14 15 14C14.448 14 14 14.448 14 15C14 15.552 14.448 16 15 16C15.552 16 16 15.552 16 15ZM13 15C13 13.896 13.896 13 15 13C15.552 13 16 12.552 16 12C16 12 16 7.216 16 3.958C16 1.772 14.228 0 12.042 0H3.958C1.772 0 0 1.772 0 3.958V12.042C0 14.228 1.772 16 3.958 16C7.216 16 12 16 12 16C12.552 16 13 15.552 13 15Z" fill="url(#paint0_linear_67_1482)"/>
<path d="M2.86012 3.51666C2.66123 3.51666 2.5 3.67789 2.5 3.87678V13.2398C2.5 13.4388 2.66123 13.5999 2.86012 13.5999H4.36136C4.56025 13.5999 4.72148 13.4388 4.72148 13.2398V5.78282C4.72148 5.58393 4.88271 5.4227 5.08159 5.4227H8.08753C8.24465 5.4227 8.38363 5.32084 8.43094 5.17101L8.80535 3.98521C8.87864 3.75311 8.70535 3.51666 8.46195 3.51666H2.86012Z" fill="#7FD1AE"/>
<path d="M6.97877 13.6C6.77988 13.6 6.61865 13.4387 6.61865 13.2399V7.50679C6.61865 7.3079 6.77988 7.14667 6.97877 7.14667H8.14915C8.34804 7.14667 8.50927 7.3079 8.50927 7.50679V13.2399C8.50927 13.4387 8.34804 13.6 8.14915 13.6H6.97877Z" fill="#7FD1AE"/>
<path d="M10.6087 13.5999C10.4098 13.5999 10.2485 13.4388 10.2485 13.2398V3.87678C10.2485 3.67789 10.4098 3.51666 10.6087 3.51666H11.779C11.9779 3.51666 12.1392 3.67789 12.1392 3.87678V13.2398C12.1392 13.4388 11.9779 13.5999 11.779 13.5999H10.6087Z" fill="#7FD1AE"/>
<path d="M3.77674 2.59998C3.57786 2.59998 3.41663 2.76121 3.41663 2.96009V12.3231C3.41663 12.5221 3.57786 12.6832 3.77674 12.6832H5.27798C5.47688 12.6832 5.6381 12.5221 5.6381 12.3231V4.86613C5.6381 4.66725 5.79934 4.50601 5.99822 4.50601H9.00415C9.16127 4.50601 9.30026 4.40415 9.34756 4.25433L9.72198 3.06853C9.79526 2.83642 9.62197 2.59998 9.37858 2.59998H3.77674Z" fill="url(#paint1_linear_67_1482)"/>
<path d="M7.8954 12.6833C7.6965 12.6833 7.53528 12.522 7.53528 12.3232V6.5901C7.53528 6.39121 7.6965 6.22998 7.8954 6.22998H9.06577C9.26467 6.22998 9.42589 6.39121 9.42589 6.5901V12.3232C9.42589 12.522 9.26467 12.6833 9.06577 12.6833H7.8954Z" fill="url(#paint2_linear_67_1482)"/>
<path d="M11.5254 12.6832C11.3265 12.6832 11.1653 12.5221 11.1653 12.3231V2.96009C11.1653 2.76121 11.3265 2.59998 11.5254 2.59998H12.6958C12.8947 2.59998 13.0559 2.76121 13.0559 2.96009V12.3231C13.0559 12.5221 12.8947 12.6832 12.6958 12.6832H11.5254Z" fill="url(#paint3_linear_67_1482)"/>
</g>
<defs>
<linearGradient id="paint0_linear_67_1482" x1="2" y1="14.0004" x2="16.972" y2="10.5455" gradientUnits="userSpaceOnUse">
<stop stop-color="#62E8AF"/>
<stop offset="1" stop-color="#B3FBDC"/>
</linearGradient>
<linearGradient id="paint1_linear_67_1482" x1="3.41663" y1="12.6832" x2="7.75274" y2="1.80804" gradientUnits="userSpaceOnUse">
<stop stop-color="#B3FBDC"/>
<stop offset="1" stop-color="white"/>
</linearGradient>
<linearGradient id="paint2_linear_67_1482" x1="7.53528" y1="12.6833" x2="11.5184" y2="8.01558" gradientUnits="userSpaceOnUse">
<stop stop-color="#B3FBDC"/>
<stop offset="1" stop-color="white"/>
</linearGradient>
<linearGradient id="paint3_linear_67_1482" x1="11.1653" y1="12.6832" x2="17.2153" y2="8.14568" gradientUnits="userSpaceOnUse">
<stop stop-color="#B3FBDC"/>
<stop offset="1" stop-color="white"/>
</linearGradient>
<clipPath id="clip0_67_1482">
<rect width="16" height="16" fill="white"/>
</clipPath>
</defs>
</svg>
