<svg width="16" height="16" viewBox="0 0 16 16" fill="none" xmlns="http://www.w3.org/2000/svg">
<path fill-rule="evenodd" clip-rule="evenodd" d="M8.20044 9.22533C8.07669 9.15389 7.92422 9.15389 7.80047 9.22533L5.62907 10.4788C5.27736 10.6815 4.86799 10.7589 4.50392 10.7589C4.13903 10.7589 3.72966 10.6815 3.37877 10.4788C3.16541 10.3555 2.89856 10.5095 2.89856 10.7559V11.9903C2.89856 12.1349 2.93662 12.2769 3.00892 12.4021C3.08121 12.5273 3.18519 12.6313 3.3104 12.7036L7.59026 15.1747C7.71548 15.247 7.85752 15.285 8.0021 15.285C8.14669 15.285 8.28873 15.247 8.41394 15.1747L9.15332 14.7478C9.34453 14.6374 9.40399 14.3929 9.34833 14.1792C9.31678 14.0581 9.29999 13.931 9.29999 13.8C9.29999 12.9716 9.97156 12.3 10.8 12.3C11.211 12.3 11.5835 12.4653 11.8544 12.7331C12.0112 12.8881 12.2525 12.9584 12.4434 12.8482L12.6938 12.7036C12.819 12.6313 12.923 12.5273 12.9953 12.4021C13.0676 12.2769 13.1056 12.1349 13.1056 11.9903V10.7575C13.1056 10.5094 12.8369 10.3545 12.6221 10.4788C12.2704 10.6815 11.8611 10.7589 11.4962 10.7589C11.1321 10.7589 10.7227 10.6815 10.3718 10.4788L8.20044 9.22533ZM11 15C11.5523 15 12 14.5523 12 14C12 13.4477 11.5523 13 11 13C10.4477 13 10 13.4477 10 14C10 14.5523 10.4477 15 11 15Z" fill="url(#paint0_linear_249_146)"/>
<path fill-rule="evenodd" clip-rule="evenodd" d="M11.7656 10.7448C11.6741 10.7544 11.5839 10.7589 11.4962 10.7589C11.1321 10.7589 10.7227 10.6815 10.3718 10.4788L8.00045 9.10986L7.19806 9.57307L9.78364 11.0655L9.89648 11.1215C10.291 11.2904 10.852 11.2714 11.2103 11.0655L11.7656 10.7448ZM4.77102 10.745L4.21719 11.0647C3.85888 11.2723 3.29795 11.2904 2.90341 11.1224L2.89856 11.1199V10.2012L3.37877 10.4788C3.72966 10.6815 4.13903 10.7589 4.50392 10.7589C4.59084 10.7589 4.68034 10.7545 4.77102 10.745Z" fill="#279FD7"/>
<path fill-rule="evenodd" clip-rule="evenodd" d="M3.79057 0.870575C4.14804 0.663831 4.70897 0.644886 5.10352 0.814565L5.21719 0.870575L8.00041 2.47676L10.7836 0.870575C11.1411 0.663831 11.702 0.644886 12.0966 0.814565L12.2103 0.870575L15.7043 2.8886C16.0725 3.10029 16.0964 3.43553 15.7785 3.66451L15.7043 3.71146L12.9219 5.31764L15.7043 6.92382C16.0725 7.13634 16.0964 7.47157 15.7785 7.70056L15.7043 7.74751L12.2103 9.76553C11.852 9.97145 11.291 9.9904 10.8965 9.82154L10.7836 9.76553L7.99959 8.15853L5.21719 9.76471C4.85888 9.97228 4.29795 9.9904 3.90341 9.82237L3.79057 9.76471L0.295677 7.74751C-0.0725097 7.53582 -0.0963967 7.19976 0.221545 6.9716L0.295677 6.92382L3.07808 5.31847L0.295677 3.71228C-0.0725097 3.5006 -0.0963967 3.16453 0.221545 2.93637L0.295677 2.8886L3.79057 0.870575ZM8.35871 3.09617C8.18986 2.99815 7.9304 2.98415 7.73683 3.05416L7.6454 3.09534L4.15051 5.11337C3.97589 5.21386 3.95613 5.37118 4.09286 5.48403L4.15051 5.52521L7.6454 7.54241C7.81426 7.63961 8.07372 7.65361 8.26728 7.5836L8.35871 7.54241L11.8536 5.52439C12.0282 5.4239 12.048 5.2674 11.9113 5.15373L11.8536 5.11254L8.35871 3.09617Z" fill="url(#paint1_linear_249_146)"/>
<defs>
<linearGradient id="paint0_linear_249_146" x1="3.91927" y1="15.2869" x2="5.33224" y2="8.20851" gradientUnits="userSpaceOnUse">
<stop offset="0.190745" stop-color="#22B4FA"/>
<stop offset="0.896724" stop-color="#7DDCFF"/>
</linearGradient>
<linearGradient id="paint1_linear_249_146" x1="1.6" y1="9.93871" x2="3.66302" y2="-0.784456" gradientUnits="userSpaceOnUse">
<stop offset="0.190745" stop-color="#22B4FA"/>
<stop offset="0.896724" stop-color="#7DDCFF"/>
</linearGradient>
</defs>
</svg>
