<svg width="16" height="16" viewBox="0 0 16 16" fill="none" xmlns="http://www.w3.org/2000/svg">
<g clip-path="url(#clip0_44_28)">
<path fill-rule="evenodd" clip-rule="evenodd" d="M16 15C16 14.448 15.552 14 15 14C14.448 14 14 14.448 14 15C14 15.552 14.448 16 15 16C15.552 16 16 15.552 16 15ZM13 15C13 13.896 13.896 13 15 13C15.552 13 16 12.552 16 12C16 12 16 7.216 16 3.958C16 1.772 14.228 0 12.0419 0H3.958C1.772 0 0 1.772 0 3.958V12.0419C0 14.228 1.772 16 3.958 16C7.216 16 12 16 12 16C12.552 16 13 15.552 13 15Z" fill="url(#paint0_linear_44_28)"/>
<path d="M9.1093 6.90183C9.1093 7.95217 8.25782 8.80365 7.20748 8.80365C6.15713 8.80365 5.30566 7.95217 5.30566 6.90183C5.30566 5.85148 6.15713 5 7.20748 5C8.25782 5 9.1093 5.85148 9.1093 6.90183Z" fill="#8C4FD9"/>
<path d="M4.00696 12.3739C3.99438 12.4516 3.99889 12.531 4.0202 12.6066C4.04152 12.6823 4.07911 12.7524 4.13035 12.812C4.1816 12.8717 4.24524 12.9194 4.31685 12.9518C4.38846 12.9843 4.4663 13.0007 4.54491 12.9999H9.87001C9.94871 13.0008 10.0267 12.9846 10.0984 12.9522C10.1701 12.9198 10.2339 12.8721 10.2853 12.8125C10.3367 12.7528 10.3744 12.6827 10.3957 12.6069C10.4171 12.5311 10.4216 12.4516 10.409 12.3739C10.2648 11.631 9.86654 10.9614 9.28259 10.4799C8.69864 9.99842 7.96538 9.73511 7.20855 9.73511C6.45171 9.73511 5.71845 9.99842 5.1345 10.4799C4.55055 10.9614 4.15231 11.631 4.00806 12.3739H4.00696Z" fill="#8C4FD9"/>
<path d="M9.90935 5.90183C9.90935 6.95217 9.05787 7.80365 8.00753 7.80365C6.95718 7.80365 6.10571 6.95217 6.10571 5.90183C6.10571 4.85148 6.95718 4 8.00753 4C9.05787 4 9.90935 4.85148 9.90935 5.90183Z" fill="url(#paint1_linear_44_28)"/>
<path d="M4.80701 11.3739C4.79442 11.4516 4.79894 11.531 4.82025 11.6066C4.84157 11.6823 4.87916 11.7524 4.9304 11.812C4.98165 11.8717 5.04529 11.9194 5.1169 11.9518C5.18851 11.9843 5.26635 12.0007 5.34496 11.9999H10.6701C10.7488 12.0008 10.8267 11.9846 10.8985 11.9522C10.9702 11.9198 11.034 11.8721 11.0854 11.8125C11.1367 11.7528 11.1744 11.6827 11.1958 11.6069C11.2172 11.5311 11.2217 11.4516 11.2091 11.3739C11.0648 10.631 10.6666 9.96135 10.0826 9.47988C9.49869 8.99842 8.76543 8.73511 8.00859 8.73511C7.25176 8.73511 6.5185 8.99842 5.93455 9.47988C5.3506 9.96135 4.95236 10.631 4.80811 11.3739H4.80701Z" fill="url(#paint2_linear_44_28)"/>
</g>
<defs>
<linearGradient id="paint0_linear_44_28" x1="4" y1="14.8571" x2="14.5882" y2="2.5042" gradientUnits="userSpaceOnUse">
<stop stop-color="#A056FF"/>
<stop offset="1" stop-color="#C59AFD"/>
</linearGradient>
<linearGradient id="paint1_linear_44_28" x1="7.05662" y1="7.80365" x2="10.7652" y2="6.56747" gradientUnits="userSpaceOnUse">
<stop stop-color="#C59AFD"/>
<stop offset="1" stop-color="white"/>
</linearGradient>
<linearGradient id="paint2_linear_44_28" x1="6.40405" y1="12" x2="11.2677" y2="8.81397" gradientUnits="userSpaceOnUse">
<stop stop-color="#C59AFD"/>
<stop offset="1" stop-color="white"/>
</linearGradient>
<clipPath id="clip0_44_28">
<rect width="16" height="16" fill="white"/>
</clipPath>
</defs>
</svg>
