<svg width="16" height="16" viewBox="0 0 16 16" fill="none" xmlns="http://www.w3.org/2000/svg">
<g clip-path="url(#clip0_15_1370)">
<path fill-rule="evenodd" clip-rule="evenodd" d="M1 13C0.448 13 0 12.552 0 12V3.992C0 1.787 1.787 0 3.992 0C6.357 0 9.643 0 12.008 0C13.067 0 14.082 0.421001 14.831 1.169C15.579 1.918 16 2.933 16 3.992C16 6.357 16 9.643 16 12.008C16 14.213 14.213 16 12.008 16C8.751 16 4 16 4 16C3.448 16 3 15.552 3 15C3 13.896 2.104 13 1 13ZM1 14C1.552 14 2 14.448 2 15C2 15.552 1.552 16 1 16C0.448 16 0 15.552 0 15C0 14.448 0.448 14 1 14Z" fill="url(#paint0_linear_15_1370)"/>
<path d="M2.9248 1.5C2.14203 1.5 1.71465 2.41292 2.21588 3.01385L2.9848 3.93692C3.07144 4.04094 3.1799 4.12463 3.30249 4.18206C3.42509 4.23949 3.55881 4.26925 3.69419 4.26923H11.137C11.2723 4.26925 11.4061 4.23949 11.5286 4.18206C11.6512 4.12463 11.7597 4.04094 11.8463 3.93692L12.6153 3.01385C13.1165 2.41292 12.6891 1.5 11.9063 1.5H2.9248Z" fill="#7FD1AE" stroke="#7FD1AE" stroke-linecap="round" stroke-linejoin="round"/>
<path d="M10.1538 11.6923C10.6435 11.6923 11.1131 11.4978 11.4593 11.1516C11.8055 10.8054 12 10.3358 12 9.84615C12 9.35652 11.8055 8.88695 11.4593 8.54073C11.1131 8.19451 10.6435 8 10.1538 8C9.66422 8 9.19464 8.19451 8.84842 8.54073C8.5022 8.88695 8.30769 9.35652 8.30769 9.84615C8.30769 10.3358 8.5022 10.8054 8.84842 11.1516C9.19464 11.4978 9.66422 11.6923 10.1538 11.6923ZM3.84615 11.6923C4.33578 11.6923 4.80536 11.4978 5.15158 11.1516C5.4978 10.8054 5.69231 10.3358 5.69231 9.84615C5.69231 9.35652 5.4978 8.88695 5.15158 8.54073C4.80536 8.19451 4.33578 8 3.84615 8C3.35652 8 2.88695 8.19451 2.54073 8.54073C2.1945 8.88695 2 9.35652 2 9.84615C2 10.3358 2.1945 10.8054 2.54073 11.1516C2.88695 11.4978 3.35652 11.6923 3.84615 11.6923Z" fill="#7FD1AE"/>
<path d="M11.1538 10.6923C11.6435 10.6923 12.1131 10.4978 12.4593 10.1516C12.8055 9.80536 13 9.33578 13 8.84615C13 8.35652 12.8055 7.88695 12.4593 7.54073C12.1131 7.19451 11.6435 7 11.1538 7C10.6642 7 10.1946 7.19451 9.84842 7.54073C9.5022 7.88695 9.30769 8.35652 9.30769 8.84615C9.30769 9.33578 9.5022 9.80536 9.84842 10.1516C10.1946 10.4978 10.6642 10.6923 11.1538 10.6923ZM4.84615 10.6923C5.33578 10.6923 5.80536 10.4978 6.15158 10.1516C6.4978 9.80536 6.69231 9.33578 6.69231 8.84615C6.69231 8.35652 6.4978 7.88695 6.15158 7.54073C5.80536 7.19451 5.33578 7 4.84615 7C4.35652 7 3.88695 7.19451 3.54073 7.54073C3.1945 7.88695 3 8.35652 3 8.84615C3 9.33578 3.1945 9.80536 3.54073 10.1516C3.88695 10.4978 4.35652 10.6923 4.84615 10.6923Z" fill="url(#paint1_linear_15_1370)"/>
<path d="M3.50927 0.5C2.7265 0.5 2.29912 1.41292 2.80035 2.01385L3.56927 2.93692C3.65591 3.04094 3.76437 3.12463 3.88697 3.18206C4.00956 3.23949 4.14328 3.26925 4.27866 3.26923H11.7214C11.8568 3.26925 11.9905 3.23949 12.1131 3.18206C12.2357 3.12463 12.3442 3.04094 12.4308 2.93692L13.1997 2.01385C13.701 1.41292 13.2736 0.5 12.4908 0.5H3.50927Z" fill="url(#paint2_linear_15_1370)" stroke="url(#paint3_linear_15_1370)" stroke-linecap="round" stroke-linejoin="round"/>
</g>
<defs>
<linearGradient id="paint0_linear_15_1370" x1="2" y1="14.0004" x2="16.972" y2="10.5455" gradientUnits="userSpaceOnUse">
<stop stop-color="#62E8AF"/>
<stop offset="1" stop-color="#B3FBDC"/>
</linearGradient>
<linearGradient id="paint1_linear_15_1370" x1="3" y1="10.6923" x2="3.42244" y2="6.11592" gradientUnits="userSpaceOnUse">
<stop stop-color="#B3FBDC"/>
<stop offset="1" stop-color="white"/>
</linearGradient>
<linearGradient id="paint2_linear_15_1370" x1="2.58447" y1="3.26923" x2="2.80483" y2="-0.178223" gradientUnits="userSpaceOnUse">
<stop stop-color="#B3FBDC"/>
<stop offset="1" stop-color="white"/>
</linearGradient>
<linearGradient id="paint3_linear_15_1370" x1="2.58447" y1="3.26923" x2="2.80483" y2="-0.178223" gradientUnits="userSpaceOnUse">
<stop stop-color="#B3FBDC"/>
<stop offset="1" stop-color="white"/>
</linearGradient>
<clipPath id="clip0_15_1370">
<rect width="16" height="16" fill="white"/>
</clipPath>
</defs>
</svg>
