<svg width="16" height="16" viewBox="0 0 16 16" fill="none" xmlns="http://www.w3.org/2000/svg">
<path d="M13.1647 1.23588C13.0591 1.0917 12.896 1.00653 12.7172 1.00653C11.2369 1.00653 4.77426 1.00653 3.2826 1.00653C3.1038 1.00653 2.94085 1.0917 2.83512 1.23588L0.108659 4.95378C-0.0382209 5.15408 -0.0359942 5.42708 0.114136 5.62496L7.58421 15.4704C7.80938 15.7672 8.25589 15.7663 8.47985 15.4686L15.8873 5.62333C16.036 5.42552 16.0377 5.15358 15.8914 4.95396L13.1647 1.23588Z" fill="url(#paint0_linear_85_67)"/>
<path fill-rule="evenodd" clip-rule="evenodd" d="M8.1289 15.684L15.0699 6.45872C15.2186 6.26091 15.2203 5.98898 15.0739 5.78936L12.3473 2.07127C12.2416 1.92709 12.0735 1.84192 11.8947 1.84192H5.17865C4.94084 1.84192 4.72885 1.99178 4.64953 2.21596L4.44534 2.79305L3.53726 5.56053C3.51858 5.61742 3.50914 5.67692 3.50928 5.7368L3.51103 6.50674C3.51117 6.56688 3.52097 6.62659 3.54005 6.68362L5.61048 12.869L7.58421 15.4704C7.71846 15.6473 7.93138 15.7185 8.1289 15.684ZM9.07722 6.59752C9.45966 6.59752 9.73009 6.97161 9.6102 7.33475L7.73155 13.0248C7.56231 13.5375 6.83768 13.5389 6.66634 13.027L4.76174 7.33694C4.64004 6.97338 4.91059 6.59752 5.29399 6.59752H9.07722ZM12.6505 6.59752C13.1134 6.59752 13.3772 7.12634 13.099 7.49623L10.623 10.787C10.2411 11.2947 9.4424 10.8769 9.64156 10.2736L10.7281 6.98282C10.804 6.75285 11.0189 6.59752 11.261 6.59752H12.6505ZM13.1345 4.75321C13.4064 5.12395 13.1416 5.64641 12.682 5.64641H11.2624C11.0199 5.64641 10.8047 5.49058 10.7291 5.26011L10.1612 3.52928C10.0421 3.16633 10.3125 2.79303 10.6945 2.79303H11.4127C11.5914 2.79303 11.7595 2.87821 11.8653 3.02238L13.1345 4.75321ZM9.61326 4.91015C9.73236 5.27311 9.46196 5.64641 9.07997 5.64641H5.28498C4.903 5.64641 4.63261 5.27309 4.75169 4.91015L5.31963 3.17931C5.39525 2.94884 5.61037 2.79303 5.85292 2.79303H8.51206C8.75462 2.79303 8.96974 2.94884 9.04535 3.17931L9.61326 4.91015Z" fill="#7FD1AE"/>
<path fill-rule="evenodd" clip-rule="evenodd" d="M7.65887 15.1422C7.82397 15.545 8.36497 15.6148 8.62672 15.2668L15.8873 5.6168C16.036 5.41899 16.0377 5.14706 15.8913 4.94744L13.1647 1.22935C13.059 1.08517 12.8909 1 12.7121 1H5.99603C5.75822 1 5.54623 1.14986 5.46691 1.37404L5.26272 1.95113L4.35464 4.71861C4.33597 4.7755 4.32652 4.83501 4.32666 4.89488L4.32842 5.66482C4.32856 5.72496 4.33835 5.78468 4.35743 5.8417L6.63106 12.6342L7.65887 15.1422ZM10.4276 6.49283C10.5475 6.12969 10.277 5.7556 9.8946 5.7556H6.11138C5.72797 5.7556 5.45743 6.13146 5.57912 6.49502L7.48372 12.1851C7.65507 12.697 8.37969 12.6955 8.54893 12.1829L10.4276 6.49283ZM13.9164 6.65431C14.1946 6.28442 13.9308 5.7556 13.4679 5.7556H12.0784C11.8362 5.7556 11.6214 5.91093 11.5454 6.1409L10.4589 9.43167C10.2598 10.0349 11.0585 10.4527 11.4404 9.94508L13.9164 6.65431ZM13.4993 4.80449C13.959 4.80449 14.2238 4.28203 13.9519 3.9113L12.6827 2.18046C12.5769 2.03629 12.4088 1.95111 12.2301 1.95111H11.5119C11.1299 1.95111 10.8595 2.32442 10.9786 2.68736L11.5465 4.41819C11.6221 4.64866 11.8372 4.80449 12.0798 4.80449H13.4993ZM9.89735 4.80449C10.2793 4.80449 10.5497 4.43119 10.4306 4.06823L9.86274 2.3374C9.78712 2.10692 9.572 1.95111 9.32945 1.95111H6.6703C6.42775 1.95111 6.21263 2.10692 6.13701 2.3374L5.56908 4.06823C5.44999 4.43117 5.72038 4.80449 6.10237 4.80449H9.89735Z" fill="url(#paint1_linear_85_67)"/>
<defs>
<linearGradient id="paint0_linear_85_67" x1="2" y1="13.8571" x2="16.8318" y2="10.1283" gradientUnits="userSpaceOnUse">
<stop stop-color="#62E8AF"/>
<stop offset="1" stop-color="#B3FBDC"/>
</linearGradient>
<linearGradient id="paint1_linear_85_67" x1="4.32666" y1="15.4907" x2="9.45414" y2="-1.03143" gradientUnits="userSpaceOnUse">
<stop stop-color="#B3FBDC"/>
<stop offset="1" stop-color="white"/>
</linearGradient>
</defs>
</svg>
