<svg width="16" height="16" viewBox="0 0 16 16" fill="none" xmlns="http://www.w3.org/2000/svg">
<g clip-path="url(#clip0_8_152)">
<path fill-rule="evenodd" clip-rule="evenodd" d="M8.0026 0C5.79264 0 4.00085 1.79178 4.00085 4.00175V7.00306C4.00085 7.5553 4.44905 8.0035 5.00129 8.0035C5.55353 8.0035 6.00173 7.5553 6.00173 7.00306V4.00175C6.00173 2.89627 6.89712 2.00088 8.0026 2.00088C9.10809 2.00088 10.0035 2.89627 10.0035 4.00175V7.00306C10.0035 7.5553 10.4517 8.0035 11.0039 8.0035C11.5562 8.0035 12.0044 7.5553 12.0044 7.00306V4.00175C12.0044 1.79178 10.2126 0 8.0026 0Z" fill="url(#paint0_linear_8_152)"/>
<path fill-rule="evenodd" clip-rule="evenodd" d="M4.00088 6.16071H12.0044C13.1699 6.56688 14.0053 7.67537 14.0053 8.97894C14.0053 10.2095 14.0053 11.7862 14.0053 13.0167C14.0053 13.8081 13.6911 14.5674 13.1319 15.1266C12.5726 15.6859 11.8133 16 11.0219 16H6.00175C5.44951 16 5.00131 15.5518 5.00131 14.9996C5.00031 14.7775 4.9643 14.5564 4.89227 14.3463C4.79622 14.0682 4.63715 13.8131 4.43206 13.602C4.21797 13.3829 3.95385 13.2138 3.66473 13.1117C3.45564 13.0377 3.23554 13.0007 3.01344 12.9987H3.00044C2.4482 12.9987 2 12.5505 2 11.9983V8.97894C2 7.67537 2.83537 6.56688 4.00088 6.16071ZM4.00088 14.9996C4.00088 15.5518 3.55268 16 3.00044 16C2.4482 16 2 15.5518 2 14.9996C2 14.4473 2.4482 13.9991 3.00044 13.9991C3.55268 13.9991 4.00088 14.4473 4.00088 14.9996Z" fill="url(#paint1_linear_8_152)"/>
<path fill-rule="evenodd" clip-rule="evenodd" d="M6.00171 11.0048V13.0057C6.00171 13.5579 6.44991 14.0061 7.00215 14.0061C7.55439 14.0061 8.00258 13.5579 8.00258 13.0057V11.0048C8.00258 10.4526 7.55439 10.0044 7.00215 10.0044C6.44991 10.0044 6.00171 10.4526 6.00171 11.0048Z" fill="#344CD8"/>
<path fill-rule="evenodd" clip-rule="evenodd" d="M7.0022 10.0044V12.0053C7.0022 12.5575 7.45039 13.0057 8.00263 13.0057C8.55488 13.0057 9.00307 12.5575 9.00307 12.0053V10.0044C9.00307 9.45216 8.55488 9.00397 8.00263 9.00397C7.45039 9.00397 7.0022 9.45216 7.0022 10.0044Z" fill="url(#paint2_linear_8_152)"/>
</g>
<defs>
<linearGradient id="paint0_linear_8_152" x1="4.50107" y1="8.00781" x2="13.2848" y2="1.82263" gradientUnits="userSpaceOnUse">
<stop stop-color="#2E4AFA"/>
<stop offset="1" stop-color="#8E9EFF"/>
</linearGradient>
<linearGradient id="paint1_linear_8_152" x1="2.75033" y1="16.0053" x2="14.089" y2="6.26343" gradientUnits="userSpaceOnUse">
<stop stop-color="#2E4AFA"/>
<stop offset="1" stop-color="#8E9EFF"/>
</linearGradient>
<linearGradient id="paint2_linear_8_152" x1="7.00218" y1="13.0057" x2="8.90017" y2="12.9814" gradientUnits="userSpaceOnUse">
<stop stop-color="#8E9EFF"/>
<stop offset="1" stop-color="white"/>
</linearGradient>
<clipPath id="clip0_8_152">
<rect width="16" height="16" fill="white"/>
</clipPath>
</defs>
</svg>
