<svg width="16" height="16" viewBox="0 0 16 16" fill="none" xmlns="http://www.w3.org/2000/svg">
<path fill-rule="evenodd" clip-rule="evenodd" d="M15 3C15.552 3 16 3.448 16 4C16 4 16 9.853 16 13.02C16 13.811 15.686 14.568 15.127 15.127C14.568 15.686 13.811 16 13.02 16C10.356 16 5.644 16 2.98 16C2.189 16 1.432 15.686 0.873 15.127C0.314 14.568 0 13.811 0 13.02C0 10.356 0 5.644 0 2.98C0 2.189 0.314 1.432 0.873 0.873C1.432 0.314 2.189 0 2.98 0H12C12.552 0 13 0.448 13 1C13 2.104 13.896 3 15 3ZM15 0C15.552 0 16 0.448 16 1C16 1.552 15.552 2 15 2C14.448 2 14 1.552 14 1C14 0.448 14.448 0 15 0Z" fill="url(#paint0_linear_249_169)"/>
<g opacity="0.7">
<path d="M11.955 11.9231C11.5524 11.9256 11.1312 12.1785 11.1197 12.7971C11.1081 13.4252 12.3684 13.3375 12.3726 13.6576C12.374 13.7686 12.207 13.8311 12.0968 13.8441C11.9584 13.8603 11.7579 13.779 11.6037 13.7014C11.4715 13.6348 11.3068 13.6595 11.212 13.7731C11.1084 13.8971 11.1272 14.0796 11.2701 14.155C11.456 14.2531 11.7358 14.361 12.0696 14.3627C12.4764 14.3648 13.004 14.1669 13 13.5741C12.9953 12.8613 11.7611 12.8927 11.7432 12.6495C11.7343 12.5274 11.8624 12.4528 11.9938 12.4572C12.1031 12.4608 12.2427 12.5103 12.3613 12.5627C12.504 12.6255 12.6767 12.5859 12.7621 12.4555C12.8434 12.3314 12.8168 12.1672 12.6847 12.0997C12.5173 12.0143 12.2636 11.9211 11.955 11.9231ZM2.32665 11.9444C1.72929 11.933 1.08524 12.3723 1.06606 13.1681C1.05246 13.7325 1.56417 14.3647 2.25479 14.3743C2.67472 14.3801 3.01456 14.1968 3.1836 14.0838C3.26019 14.0326 3.29978 13.9447 3.29978 13.8525V13.29C3.29978 13.1133 3.15652 12.97 2.97978 12.97H2.51588C2.39206 12.97 2.29169 13.0703 2.29169 13.1942V13.2246C2.29169 13.3395 2.38998 13.4298 2.50448 13.4201C2.61456 13.4108 2.71064 13.4942 2.71696 13.6044L2.71768 13.6171C2.72101 13.6751 2.70004 13.7326 2.65077 13.7634C2.58777 13.8028 2.48466 13.8492 2.34608 13.8519C1.91919 13.8599 1.71117 13.5103 1.69733 13.205C1.68246 12.8771 1.91358 12.4841 2.35191 12.4863C2.42758 12.4867 2.49624 12.5049 2.55644 12.5316C2.72067 12.6045 2.94425 12.6164 3.05784 12.4772C3.152 12.3619 3.13329 12.1936 3.00128 12.1247C2.84013 12.0405 2.60364 11.9498 2.32665 11.9444ZM4.60008 11.9561C4.47325 11.9561 4.35839 12.031 4.30724 12.1471L3.52346 13.9259C3.43012 14.1378 3.58566 14.3755 3.81715 14.375L3.82704 14.3749C3.95983 14.3746 4.0786 14.2923 4.12553 14.168L4.13453 14.1442C4.18156 14.0197 4.30077 13.9373 4.43387 13.9373H4.92006C5.05407 13.9373 5.1739 14.0208 5.22028 14.1466L5.23001 14.1729C5.27465 14.2939 5.38998 14.3743 5.51897 14.3743C5.73804 14.3743 5.88707 14.152 5.80389 13.9494L5.06722 12.1546C5.01794 12.0345 4.90099 11.9561 4.77119 11.9561H4.60008ZM6.37405 11.9561C6.19733 11.9561 6.05405 12.0994 6.05405 12.2761V14.0791C6.05405 14.2422 6.18624 14.3743 6.34929 14.3743C6.51235 14.3743 6.64453 14.2422 6.64453 14.0791V13.7842C6.64453 13.5579 6.93768 13.4687 7.06383 13.6565C7.15624 13.794 7.36073 13.7893 7.44901 13.6491C7.57185 13.4539 7.87559 13.5324 7.88208 13.763L7.89135 14.0919C7.89578 14.2492 8.0245 14.3743 8.18177 14.3743C8.34223 14.3743 8.4723 14.2443 8.4723 14.0838V12.2761C8.4723 12.0994 8.32903 11.9561 8.1523 11.9561H8.03831C7.92771 11.9561 7.82495 12.0132 7.76655 12.1071L7.53246 12.4836C7.40715 12.6852 7.11372 12.685 6.9887 12.4832L6.75586 12.1075C6.69752 12.0134 6.59463 11.9561 6.48386 11.9561H6.37405ZM9.27596 11.9561C9.09924 11.9561 8.95596 12.0994 8.95596 12.2761V14.0543C8.95596 14.2311 9.09924 14.3743 9.27596 14.3743H10.5031C10.6366 14.3743 10.7448 14.266 10.7448 14.1325C10.7448 13.999 10.6366 13.8907 10.5031 13.8907H9.68044C9.5474 13.8907 9.43956 13.7828 9.43956 13.6499C9.43956 13.516 9.5486 13.4079 9.68236 13.409L10.402 13.4147C10.5385 13.4159 10.6497 13.3055 10.6497 13.1691C10.6497 13.0334 10.5397 12.9234 10.404 12.9234H9.6814C9.54788 12.9234 9.43956 12.8151 9.43956 12.6815C9.43956 12.548 9.54788 12.4397 9.6814 12.4397H10.5031C10.6366 12.4397 10.7448 12.3315 10.7448 12.1979C10.7448 12.0643 10.6366 11.9561 10.5031 11.9561H9.27596ZM4.51016 13.1509C4.56986 12.9936 4.79274 12.9947 4.8509 13.1525C4.89465 13.2713 4.80678 13.3973 4.68022 13.3973C4.55292 13.3973 4.46499 13.2699 4.51016 13.1509Z" fill="#B85C68"/>
<path d="M1.32 4C1.14327 4 1 4.14326 1 4.32V10.6414C1 10.8182 1.14327 10.9615 1.32 10.9615H2.66898C2.84572 10.9615 2.98898 10.8182 2.98898 10.6414V10.2869C2.98898 10.1102 2.84572 9.96695 2.66898 9.96695H2.31449C2.13776 9.96695 1.99449 9.82368 1.99449 9.64694V8.29796C1.99449 8.12123 2.13776 7.97796 2.31449 7.97796H2.66898C2.84572 7.97796 2.98898 7.8347 2.98898 7.65796V7.30347C2.98898 7.12674 2.84572 6.98347 2.66898 6.98347H2.31449C2.13776 6.98347 1.99449 6.8402 1.99449 6.66348V5.31449C1.99449 5.13776 2.13776 4.99449 2.31449 4.99449H2.66898C2.84572 4.99449 2.98898 4.85122 2.98898 4.67449V4.32C2.98898 4.14326 2.84572 4 2.66898 4H1.32Z" fill="#B85C68"/>
<path fill-rule="evenodd" clip-rule="evenodd" d="M4.30352 4C4.12678 4 3.98352 4.14326 3.98352 4.32V10.6414C3.98352 10.8182 4.12678 10.9615 4.30352 10.9615H4.65801C4.83474 10.9615 4.97801 10.8182 4.97801 10.6414V9.29245C4.97801 9.11573 5.12128 8.97245 5.29801 8.97245H5.47525C6.30168 8.97245 6.967 8.30714 6.967 7.48071V5.49173C6.967 4.66531 6.30168 4 5.47525 4H4.30352ZM5.47525 4.99449C5.75073 4.99449 5.9725 5.21626 5.9725 5.49173V7.48071C5.9725 7.75619 5.75073 7.97796 5.47525 7.97796C5.19978 7.97796 4.97801 7.75619 4.97801 7.48071V5.49173C4.97801 5.21626 5.19978 4.99449 5.47525 4.99449Z" fill="#B85C68"/>
<path d="M7.96143 4.32C7.96143 4.14326 8.1047 4 8.28143 4H8.6359C8.81262 4 8.9559 4.14326 8.9559 4.32V10.6414C8.9559 10.8182 8.81262 10.9615 8.6359 10.9615H8.28143C8.1047 10.9615 7.96143 10.8182 7.96143 10.6414V4.32Z" fill="#B85C68"/>
<path d="M11.4421 4C10.6157 4 9.95038 4.66531 9.95038 5.49173V9.4697C9.95038 10.2961 10.6157 10.9615 11.4421 10.9615C12.2685 10.9615 12.9339 10.2961 12.9339 9.4697V8.29796C12.9339 8.12123 12.7906 7.97796 12.6139 7.97796H12.2594C12.0827 7.97796 11.9394 8.12123 11.9394 8.29796V9.4697C11.9394 9.74517 11.7177 9.96695 11.4421 9.96695C11.1667 9.96695 10.9449 9.74517 10.9449 9.4697V5.49173C10.9449 5.21626 11.1667 4.99449 11.4421 4.99449C11.7177 4.99449 11.9394 5.21626 11.9394 5.49173V6.66348C11.9394 6.8402 12.0827 6.98347 12.2594 6.98347H12.6139C12.7906 6.98347 12.9339 6.8402 12.9339 6.66348V5.49173C12.9339 4.66531 12.2685 4 11.4421 4Z" fill="#B85C68"/>
</g>
<path d="M12.955 10.9231C12.5524 10.9256 12.1312 11.1785 12.1197 11.7971C12.1081 12.4252 13.3684 12.3375 13.3726 12.6576C13.374 12.7686 13.207 12.8311 13.0968 12.8441C12.9584 12.8603 12.7579 12.779 12.6037 12.7014C12.4715 12.6348 12.3068 12.6595 12.212 12.7731C12.1084 12.8971 12.1272 13.0796 12.2701 13.155C12.456 13.2531 12.7358 13.361 13.0696 13.3627C13.4764 13.3648 14.004 13.1669 14 12.5741C13.9953 11.8613 12.7611 11.8927 12.7432 11.6495C12.7343 11.5274 12.8624 11.4528 12.9938 11.4572C13.1031 11.4608 13.2427 11.5103 13.3613 11.5627C13.504 11.6255 13.6767 11.5859 13.7621 11.4555C13.8434 11.3314 13.8168 11.1672 13.6847 11.0997C13.5173 11.0143 13.2636 10.9211 12.955 10.9231ZM3.32665 10.9444C2.72929 10.933 2.08524 11.3723 2.06606 12.1681C2.05246 12.7325 2.56417 13.3647 3.25479 13.3743C3.67472 13.3801 4.01456 13.1968 4.1836 13.0838C4.26019 13.0326 4.29978 12.9447 4.29978 12.8525V12.29C4.29978 12.1133 4.15652 11.97 3.97978 11.97H3.51588C3.39206 11.97 3.29169 12.0703 3.29169 12.1942V12.2246C3.29169 12.3395 3.38998 12.4298 3.50448 12.4201C3.61456 12.4108 3.71064 12.4942 3.71696 12.6044L3.71768 12.6171C3.72101 12.6751 3.70004 12.7326 3.65077 12.7634C3.58777 12.8028 3.48466 12.8492 3.34608 12.8519C2.91919 12.8599 2.71117 12.5103 2.69733 12.205C2.68246 11.8771 2.91358 11.4841 3.35191 11.4863C3.42758 11.4867 3.49624 11.5049 3.55644 11.5316C3.72067 11.6045 3.94425 11.6164 4.05784 11.4772C4.152 11.3619 4.13329 11.1936 4.00128 11.1247C3.84013 11.0405 3.60364 10.9498 3.32665 10.9444ZM5.60008 10.9561C5.47325 10.9561 5.35839 11.031 5.30724 11.1471L4.52346 12.9259C4.43012 13.1378 4.58566 13.3755 4.81715 13.375L4.82704 13.3749C4.95983 13.3746 5.0786 13.2923 5.12553 13.168L5.13453 13.1442C5.18156 13.0197 5.30077 12.9373 5.43387 12.9373H5.92006C6.05407 12.9373 6.1739 13.0208 6.22028 13.1466L6.23001 13.1729C6.27465 13.2939 6.38998 13.3743 6.51897 13.3743C6.73804 13.3743 6.88707 13.152 6.80389 12.9494L6.06722 11.1546C6.01794 11.0345 5.90099 10.9561 5.77119 10.9561H5.60008ZM7.37405 10.9561C7.19733 10.9561 7.05405 11.0994 7.05405 11.2761V13.0791C7.05405 13.2422 7.18624 13.3743 7.34929 13.3743C7.51235 13.3743 7.64453 13.2422 7.64453 13.0791V12.7842C7.64453 12.5579 7.93768 12.4687 8.06383 12.6565C8.15624 12.794 8.36073 12.7893 8.44901 12.6491C8.57185 12.4539 8.87559 12.5324 8.88208 12.763L8.89135 13.0919C8.89578 13.2492 9.0245 13.3743 9.18177 13.3743C9.34223 13.3743 9.4723 13.2443 9.4723 13.0838V11.2761C9.4723 11.0994 9.32903 10.9561 9.1523 10.9561H9.03831C8.92771 10.9561 8.82495 11.0132 8.76655 11.1071L8.53246 11.4836C8.40715 11.6852 8.11372 11.685 7.9887 11.4832L7.75586 11.1075C7.69752 11.0134 7.59463 10.9561 7.48386 10.9561H7.37405ZM10.276 10.9561C10.0992 10.9561 9.95596 11.0994 9.95596 11.2761V13.0543C9.95596 13.2311 10.0992 13.3743 10.276 13.3743H11.5031C11.6366 13.3743 11.7448 13.266 11.7448 13.1325C11.7448 12.999 11.6366 12.8907 11.5031 12.8907H10.6804C10.5474 12.8907 10.4396 12.7828 10.4396 12.6499C10.4396 12.516 10.5486 12.4079 10.6824 12.409L11.402 12.4147C11.5385 12.4159 11.6497 12.3055 11.6497 12.1691C11.6497 12.0334 11.5397 11.9234 11.404 11.9234H10.6814C10.5479 11.9234 10.4396 11.8151 10.4396 11.6815C10.4396 11.548 10.5479 11.4397 10.6814 11.4397H11.5031C11.6366 11.4397 11.7448 11.3315 11.7448 11.1979C11.7448 11.0643 11.6366 10.9561 11.5031 10.9561H10.276ZM5.51016 12.1509C5.56986 11.9936 5.79274 11.9947 5.8509 12.1525C5.89465 12.2713 5.80678 12.3973 5.68022 12.3973C5.55292 12.3973 5.46499 12.2699 5.51016 12.1509Z" fill="url(#paint1_linear_249_169)"/>
<path fill-rule="evenodd" clip-rule="evenodd" d="M2 3.32C2 3.14326 2.14327 3 2.32 3H3.66898C3.84572 3 3.98898 3.14326 3.98898 3.32V3.67449C3.98898 3.85122 3.84572 3.99449 3.66898 3.99449H3.31449C3.13776 3.99449 2.99449 4.13776 2.99449 4.31449V5.66348C2.99449 5.8402 3.13776 5.98347 3.31449 5.98347H3.66898C3.84572 5.98347 3.98898 6.12674 3.98898 6.30347V6.65796C3.98898 6.8347 3.84572 6.97796 3.66898 6.97796H3.31449C3.13776 6.97796 2.99449 7.12123 2.99449 7.29796V8.64694C2.99449 8.82368 3.13776 8.96695 3.31449 8.96695H3.66898C3.84572 8.96695 3.98898 9.11021 3.98898 9.28695V9.64144C3.98898 9.81819 3.84572 9.96147 3.66898 9.96147H2.32C2.14327 9.96147 2 9.81819 2 9.64144V3.32ZM4.98352 3.32C4.98352 3.14326 5.12678 3 5.30352 3H6.47525C7.30168 3 7.967 3.66531 7.967 4.49173V6.48071C7.967 7.30714 7.30168 7.97246 6.47525 7.97246H6.29801C6.12128 7.97246 5.97801 8.11573 5.97801 8.29245V9.64144C5.97801 9.81819 5.83474 9.96147 5.65801 9.96147H5.30352C5.12678 9.96147 4.98352 9.81819 4.98352 9.64144V3.32ZM6.9725 4.49173C6.9725 4.21626 6.75073 3.99449 6.47525 3.99449C6.19978 3.99449 5.97801 4.21626 5.97801 4.49173V6.48071C5.97801 6.75619 6.19978 6.97796 6.47525 6.97796C6.75073 6.97796 6.9725 6.75619 6.9725 6.48071V4.49173ZM8.96143 3.32C8.96143 3.14326 9.1047 3 9.28143 3H9.6359C9.81262 3 9.9559 3.14326 9.9559 3.32V9.64144C9.9559 9.81819 9.81262 9.96147 9.6359 9.96147H9.28143C9.1047 9.96147 8.96143 9.81819 8.96143 9.64144V3.32ZM10.9504 4.49173C10.9504 3.66531 11.6157 3 12.4421 3C13.2685 3 13.9339 3.66531 13.9339 4.49173V5.66348C13.9339 5.8402 13.7906 5.98347 13.6139 5.98347H13.2594C13.0827 5.98347 12.9394 5.8402 12.9394 5.66348V4.49173C12.9394 4.21626 12.7177 3.99449 12.4421 3.99449C12.1667 3.99449 11.9449 4.21626 11.9449 4.49173V8.4697C11.9449 8.74517 12.1667 8.96695 12.4421 8.96695C12.7177 8.96695 12.9394 8.74517 12.9394 8.4697V7.29796C12.9394 7.12123 13.0827 6.97796 13.2594 6.97796H13.6139C13.7906 6.97796 13.9339 7.12123 13.9339 7.29796V8.4697C13.9339 9.29612 13.2685 9.96147 12.4421 9.96147C11.6157 9.96147 10.9504 9.29612 10.9504 8.4697V4.49173Z" fill="url(#paint2_linear_249_169)"/>
<defs>
<linearGradient id="paint0_linear_249_169" x1="1.14286" y1="15.0204" x2="15.7918" y2="7.11491" gradientUnits="userSpaceOnUse">
<stop stop-color="#B65592"/>
<stop offset="0.5" stop-color="#FB6F71"/>
<stop offset="1" stop-color="#F9CB52"/>
</linearGradient>
<linearGradient id="paint1_linear_249_169" x1="2.91824" y1="13.2249" x2="4.70428" y2="8.53353" gradientUnits="userSpaceOnUse">
<stop stop-color="#DD90C4"/>
<stop offset="0.5" stop-color="#FFFBFB"/>
<stop offset="1" stop-color="#FFE8A7"/>
</linearGradient>
<linearGradient id="paint2_linear_249_169" x1="2.85242" y1="9.53526" x2="10.4544" y2="2.50242" gradientUnits="userSpaceOnUse">
<stop stop-color="#DD90C4"/>
<stop offset="0.5" stop-color="#FFFBFB"/>
<stop offset="1" stop-color="#FFE8A7"/>
</linearGradient>
</defs>
</svg>
