<svg width="16" height="16" viewBox="0 0 16 16" fill="none" xmlns="http://www.w3.org/2000/svg">
<g clip-path="url(#clip0_16_1843)">
<path fill-rule="evenodd" clip-rule="evenodd" d="M1 13C0.448 13 0 12.552 0 12V3.992C0 1.787 1.787 0 3.992 0C6.357 0 9.643 0 12.008 0C13.067 0 14.082 0.421001 14.831 1.169C15.579 1.918 16 2.933 16 3.992C16 6.357 16 9.643 16 12.008C16 14.213 14.213 16 12.008 16C8.751 16 4 16 4 16C3.448 16 3 15.552 3 15C3 13.896 2.104 13 1 13ZM1 14C1.552 14 2 14.448 2 15C2 15.552 1.552 16 1 16C0.448 16 0 15.552 0 15C0 14.448 0.448 14 1 14Z" fill="url(#paint0_linear_16_1843)"/>
<path d="M8.19464 5.87573C8.04324 5.87573 7.89802 5.93588 7.79099 6.04294C7.68389 6.15 7.62378 6.2952 7.62378 6.44661C7.62378 6.59801 7.68389 6.74322 7.79099 6.85028C7.89802 6.95734 8.04324 7.01749 8.19464 7.01749H12.0005C12.1519 7.01749 12.2971 6.95734 12.4041 6.85028C12.5112 6.74322 12.5713 6.59801 12.5713 6.44661C12.5713 6.2952 12.5112 6.15 12.4041 6.04294C12.2971 5.93588 12.1519 5.87573 12.0005 5.87573H8.19464ZM8.19464 11.2039C8.04324 11.2039 7.89802 11.264 7.79099 11.3711C7.68389 11.4782 7.62378 11.6233 7.62378 11.7748C7.62378 11.9262 7.68389 12.0713 7.79099 12.1784C7.89802 12.2855 8.04324 12.3457 8.19464 12.3457H12.0005C12.1519 12.3457 12.2971 12.2855 12.4041 12.1784C12.5112 12.0713 12.5713 11.9262 12.5713 11.7748C12.5713 11.6233 12.5112 11.4782 12.4041 11.3711C12.2971 11.264 12.1519 11.2039 12.0005 11.2039H8.19464Z" fill="#279FD7" stroke="#279FD7" stroke-width="0.6"/>
<path d="M9.33746 4.73291C9.18607 4.73291 9.04084 4.79306 8.93381 4.90012C8.82671 5.00718 8.7666 5.15238 8.7666 5.30379C8.7666 5.45519 8.82671 5.60039 8.93381 5.70746C9.04084 5.81452 9.18607 5.87466 9.33746 5.87466H13.1433C13.2947 5.87466 13.4399 5.81452 13.547 5.70746C13.654 5.60039 13.7142 5.45519 13.7142 5.30379C13.7142 5.15238 13.654 5.00718 13.547 4.90012C13.4399 4.79306 13.2947 4.73291 13.1433 4.73291H9.33746ZM9.33746 10.0611C9.18607 10.0611 9.04084 10.1212 8.93381 10.2283C8.82671 10.3354 8.7666 10.4805 8.7666 10.632C8.7666 10.7834 8.82671 10.9285 8.93381 11.0356C9.04084 11.1427 9.18607 11.2028 9.33746 11.2028H13.1433C13.2947 11.2028 13.4399 11.1427 13.547 11.0356C13.654 10.9285 13.7142 10.7834 13.7142 10.632C13.7142 10.4805 13.654 10.3354 13.547 10.2283C13.4399 10.1212 13.2947 10.0611 13.1433 10.0611H9.33746Z" fill="url(#paint1_linear_16_1843)" stroke="url(#paint2_linear_16_1843)" stroke-width="0.6"/>
<path fill-rule="evenodd" clip-rule="evenodd" d="M4.80132 2C5.24388 2 5.60264 2.35876 5.60264 2.80132V14.1987C5.60264 14.6412 5.24388 15 4.80132 15V15C4.35876 15 4 14.6412 4 14.1987V2.80132C4 2.35876 4.35876 2 4.80132 2V2Z" fill="#279FD7"/>
<path fill-rule="evenodd" clip-rule="evenodd" d="M5.80132 1C6.24388 1 6.60264 1.35876 6.60264 1.80132V13.1987C6.60264 13.6412 6.24388 14 5.80132 14V14C5.35876 14 5 13.6412 5 13.1987V1.80132C5 1.35876 5.35876 1 5.80132 1V1Z" fill="url(#paint3_linear_16_1843)"/>
<path d="M0.160993 5.16099C0.0579133 5.26407 0 5.40389 0 5.54967C0 5.69545 0.0579133 5.83526 0.160993 5.93835C0.26408 6.04143 0.403887 6.09934 0.549673 6.09934H2.01546C2.16124 6.09934 2.30105 6.04143 2.40413 5.93835C2.50721 5.83526 2.56513 5.69545 2.56513 5.54967C2.56513 5.40389 2.50721 5.26407 2.40413 5.16099C2.30105 5.05791 2.16124 5 2.01546 5H0.549673C0.403887 5 0.26408 5.05791 0.160993 5.16099Z" fill="#279FD7"/>
<path d="M0.160993 8.09258C0.0579133 8.19565 0 8.33545 0 8.48125C0 8.62705 0.0579133 8.76685 0.160993 8.86991C0.26408 8.97298 0.403887 9.03091 0.549673 9.03091H2.01546C2.16124 9.03091 2.30105 8.97298 2.40413 8.86991C2.50721 8.76685 2.56513 8.62705 2.56513 8.48125C2.56513 8.33545 2.50721 8.19565 2.40413 8.09258C2.30105 7.98951 2.16124 7.93158 2.01546 7.93158H0.549673C0.403887 7.93158 0.26408 7.98951 0.160993 8.09258Z" fill="#279FD7"/>
<path d="M0.160993 11.0241C0.0579133 11.1272 0 11.267 0 11.4128C0 11.5586 0.0579133 11.6984 0.160993 11.8015C0.26408 11.9046 0.403887 11.9625 0.549673 11.9625H2.01546C2.16124 11.9625 2.30105 11.9046 2.40413 11.8015C2.50721 11.6984 2.56513 11.5586 2.56513 11.4128C2.56513 11.267 2.50721 11.1272 2.40413 11.0241C2.30105 10.921 2.16124 10.8632 2.01546 10.8632H0.549673C0.403887 10.8632 0.26408 10.921 0.160993 11.0241Z" fill="#279FD7"/>
<path d="M1.16099 4.16099C1.05791 4.26407 1 4.40389 1 4.54967C1 4.69545 1.05791 4.83526 1.16099 4.93835C1.26408 5.04143 1.40389 5.09934 1.54967 5.09934H3.01546C3.16124 5.09934 3.30105 5.04143 3.40413 4.93835C3.50721 4.83526 3.56513 4.69545 3.56513 4.54967C3.56513 4.40389 3.50721 4.26407 3.40413 4.16099C3.30105 4.05791 3.16124 4 3.01546 4H1.54967C1.40389 4 1.26408 4.05791 1.16099 4.16099Z" fill="url(#paint4_linear_16_1843)"/>
<path d="M1.16099 7.09258C1.05791 7.19565 1 7.33545 1 7.48125C1 7.62705 1.05791 7.76685 1.16099 7.86991C1.26408 7.97298 1.40389 8.03091 1.54967 8.03091H3.01546C3.16124 8.03091 3.30105 7.97298 3.40413 7.86991C3.50721 7.76685 3.56513 7.62705 3.56513 7.48125C3.56513 7.33545 3.50721 7.19565 3.40413 7.09258C3.30105 6.98951 3.16124 6.93158 3.01546 6.93158H1.54967C1.40389 6.93158 1.26408 6.98951 1.16099 7.09258Z" fill="url(#paint5_linear_16_1843)"/>
<path d="M1.16099 10.0241C1.05791 10.1272 1 10.267 1 10.4128C1 10.5586 1.05791 10.6984 1.16099 10.8015C1.26408 10.9046 1.40389 10.9625 1.54967 10.9625H3.01546C3.16124 10.9625 3.30105 10.9046 3.40413 10.8015C3.50721 10.6984 3.56513 10.5586 3.56513 10.4128C3.56513 10.267 3.50721 10.1272 3.40413 10.0241C3.30105 9.92105 3.16124 9.86318 3.01546 9.86318H1.54967C1.40389 9.86318 1.26408 9.92105 1.16099 10.0241Z" fill="url(#paint6_linear_16_1843)"/>
</g>
<defs>
<linearGradient id="paint0_linear_16_1843" x1="1.6" y1="16.005" x2="7.3787" y2="-1.33327" gradientUnits="userSpaceOnUse">
<stop stop-color="#22B4FA"/>
<stop offset="1" stop-color="#6BD6FE"/>
</linearGradient>
<linearGradient id="paint1_linear_16_1843" x1="8.7666" y1="11.2028" x2="14.733" y2="10.0622" gradientUnits="userSpaceOnUse">
<stop stop-color="#6BD6FE"/>
<stop offset="1" stop-color="white"/>
</linearGradient>
<linearGradient id="paint2_linear_16_1843" x1="8.7666" y1="11.2028" x2="14.733" y2="10.0622" gradientUnits="userSpaceOnUse">
<stop stop-color="#6BD6FE"/>
<stop offset="1" stop-color="white"/>
</linearGradient>
<linearGradient id="paint3_linear_16_1843" x1="5" y1="14" x2="7.0014" y2="13.9383" gradientUnits="userSpaceOnUse">
<stop stop-color="#6BD6FE"/>
<stop offset="1" stop-color="white"/>
</linearGradient>
<linearGradient id="paint4_linear_16_1843" x1="1" y1="10.9625" x2="4.17944" y2="10.6697" gradientUnits="userSpaceOnUse">
<stop stop-color="#6BD6FE"/>
<stop offset="1" stop-color="white"/>
</linearGradient>
<linearGradient id="paint5_linear_16_1843" x1="1" y1="10.9625" x2="4.17944" y2="10.6697" gradientUnits="userSpaceOnUse">
<stop stop-color="#6BD6FE"/>
<stop offset="1" stop-color="white"/>
</linearGradient>
<linearGradient id="paint6_linear_16_1843" x1="1" y1="10.9625" x2="4.17944" y2="10.6697" gradientUnits="userSpaceOnUse">
<stop stop-color="#6BD6FE"/>
<stop offset="1" stop-color="white"/>
</linearGradient>
<clipPath id="clip0_16_1843">
<rect width="16" height="16" fill="white"/>
</clipPath>
</defs>
</svg>
