<svg width="16" height="16" viewBox="0 0 16 16" fill="none" xmlns="http://www.w3.org/2000/svg">
<g clip-path="url(#clip0_15_1141)">
<path fill-rule="evenodd" clip-rule="evenodd" d="M3 8C3 6 1.336 5.837 1.276 5.807C0.780999 5.563 0.576999 4.963 0.820999 4.468C2.126 1.822 4.852 0 8 0C12.415 0 16 3.585 16 8C16 12.415 12.415 16 8 16C4.852 16 2.126 14.178 0.820999 11.532C0.576999 11.037 0.780999 10.437 1.276 10.193C1.336 10.163 3 10 3 8ZM1 9C0.448 9 0 8.552 0 8C0 7.448 0.448 7 1 7C1.552 7 2 7.448 2 8C2 8.552 1.552 9 1 9Z" fill="url(#paint0_linear_15_1141)"/>
<path d="M4.64289 9.75521L9.20827 6.94237C9.31053 6.8797 9.44147 6.8857 9.5372 6.9597C9.97094 7.29372 10.3585 7.63241 10.617 7.91708C10.617 7.91708 10.8397 8.14508 10.9361 8.28974C11.0918 8.48714 11.1667 8.74514 11.1667 8.99581C11.1667 9.27714 11.0846 9.54314 10.9211 9.75588C10.884 9.79388 10.7427 9.96121 10.6092 10.0979C9.83027 10.9485 7.797 12.3539 6.7276 12.78C6.57194 12.8487 6.15647 12.992 5.94087 13C5.73311 13 5.53253 12.9547 5.33975 12.8553C5.10269 12.7187 4.91707 12.5067 4.81287 12.2553C4.74579 12.0806 4.64224 11.5566 4.64224 11.5413C4.57516 11.1673 4.52501 10.6419 4.50026 10.0285C4.4957 9.91854 4.55106 9.81188 4.64289 9.75521Z" fill="#45C5C2"/>
<path d="M4.94814 8.24018C4.7469 8.36485 4.49355 8.20551 4.50333 7.96618C4.52742 7.40479 4.5691 6.91009 4.6199 6.54208C4.62772 6.53408 4.73127 5.88138 4.85045 5.6607C5.05821 5.25068 5.4659 5 5.90421 5H5.94068C6.22335 5.00733 6.82448 5.25801 6.82448 5.27335C7.12728 5.39935 7.52261 5.6127 7.94788 5.86938C8.13935 5.98538 8.14395 6.27007 7.95248 6.38807L4.94814 8.24018Z" fill="#45C5C2"/>
<path d="M5.64289 8.75521L10.2083 5.94237C10.3105 5.8797 10.4415 5.8857 10.5372 5.9597C10.9709 6.29372 11.3585 6.63241 11.617 6.91708C11.617 6.91708 11.8397 7.14508 11.9361 7.28974C12.0918 7.48714 12.1667 7.74514 12.1667 7.99581C12.1667 8.27714 12.0846 8.54314 11.9211 8.75588C11.884 8.79388 11.7427 8.96121 11.6092 9.09788C10.8303 9.94854 8.797 11.3539 7.7276 11.78C7.57194 11.8487 7.15647 11.992 6.94087 12C6.73311 12 6.53253 11.9547 6.33975 11.8553C6.10269 11.7187 5.91707 11.5067 5.81287 11.2553C5.74579 11.0806 5.64224 10.5566 5.64224 10.5413C5.57516 10.1673 5.52501 9.64188 5.50026 9.02854C5.4957 8.91854 5.55106 8.81188 5.64289 8.75521Z" fill="url(#paint1_linear_15_1141)"/>
<path d="M5.94814 7.24018C5.7469 7.36485 5.49355 7.20551 5.50333 6.96618C5.52742 6.40479 5.5691 5.91009 5.6199 5.54208C5.62772 5.53408 5.73127 4.88138 5.85045 4.6607C6.05821 4.25068 6.4659 4 6.90421 4H6.94068C7.22335 4.00733 7.82448 4.25801 7.82448 4.27335C8.12728 4.39935 8.52261 4.6127 8.94788 4.86938C9.13935 4.98538 9.14395 5.27007 8.95248 5.38807L5.94814 7.24018Z" fill="url(#paint2_linear_15_1141)"/>
</g>
<defs>
<linearGradient id="paint0_linear_15_1141" x1="3" y1="14" x2="14" y2="2" gradientUnits="userSpaceOnUse">
<stop stop-color="#00DAD4"/>
<stop offset="1" stop-color="#C4FFFD"/>
</linearGradient>
<linearGradient id="paint1_linear_15_1141" x1="6.83337" y1="11.1286" x2="8.98626" y2="6.73693" gradientUnits="userSpaceOnUse">
<stop stop-color="#7EEFEC"/>
<stop offset="1" stop-color="white"/>
</linearGradient>
<linearGradient id="paint2_linear_15_1141" x1="6.22122" y1="6.81464" x2="7.37956" y2="4.45019" gradientUnits="userSpaceOnUse">
<stop stop-color="#7EEFEC"/>
<stop offset="1" stop-color="white"/>
</linearGradient>
<clipPath id="clip0_15_1141">
<rect width="16" height="16" fill="white"/>
</clipPath>
</defs>
</svg>
