<svg width="16" height="16" viewBox="0 0 16 16" fill="none" xmlns="http://www.w3.org/2000/svg">
<g clip-path="url(#clip0_42_1634)">
<path fill-rule="evenodd" clip-rule="evenodd" d="M11.9433 14.9623C12.2677 14.7782 12.3637 14.373 12.3637 14C12.3637 13.0963 13.0963 12.3637 14 12.3637C14.373 12.3637 14.7782 12.2677 14.9623 11.9433C15.6228 10.7795 16 9.43382 16 8C16 3.5816 12.4184 0 8 0C3.5816 0 0 3.5816 0 8C0 9.28 0.3008 10.4896 0.8344 11.5624C0.9768 11.8472 1.024 12.1728 0.9416 12.4808L0.4656 14.2616C0.418633 14.4377 0.418807 14.6232 0.466109 14.7993C0.513418 14.9754 0.606182 15.1359 0.735113 15.2649C0.864043 15.3938 1.0246 15.4865 1.20069 15.5339C1.37679 15.5812 1.56222 15.5814 1.7384 15.5344L3.5192 15.0584C3.82832 14.9806 4.15522 15.0185 4.4384 15.1648C5.54473 15.7157 6.76407 16.0016 8 16C9.43382 16 10.7795 15.6228 11.9433 14.9623ZM14.5455 15.6364C15.148 15.6364 15.6364 15.148 15.6364 14.5455C15.6364 13.943 15.148 13.4546 14.5455 13.4546C13.943 13.4546 13.4546 13.943 13.4546 14.5455C13.4546 15.148 13.943 15.6364 14.5455 15.6364Z" fill="url(#paint0_linear_42_1634)"/>
<path d="M4.71003 7.74875L5.87822 6.16637C6.63431 5.14367 7.01184 4.63283 7.36393 4.74172C7.71602 4.84857 7.71602 5.47643 7.71602 6.73012V6.84817C7.71602 7.301 7.71602 7.52691 7.86052 7.66937L7.86866 7.6765C8.01622 7.81489 8.25128 7.81489 8.72142 7.81489C9.56807 7.81489 9.99139 7.81489 10.1359 8.07235C10.1379 8.07632 10.14 8.08039 10.142 8.08456C10.2773 8.34608 10.0321 8.67782 9.54161 9.3413L8.3734 10.9236C7.61732 11.9463 7.23978 12.4581 6.88769 12.3493C6.5356 12.2414 6.5356 11.6145 6.5356 10.3598V10.2418C6.5356 9.79007 6.5356 9.56314 6.3911 9.42169L6.38296 9.41457C6.2354 9.27516 6.00034 9.27516 5.5302 9.27516C4.68357 9.27516 4.26026 9.27516 4.11576 9.01872C4.11365 9.01428 4.11161 9.00993 4.10965 9.00549C3.97431 8.74498 4.21955 8.41223 4.71003 7.74875Z" fill="#279FD7"/>
<path d="M5.36457 6.6578L6.53277 5.07542C7.28885 4.05273 7.66638 3.54189 8.01847 3.65077C8.37056 3.75762 8.37056 4.38549 8.37056 5.63918V5.75722C8.37056 6.21006 8.37056 6.43597 8.51506 6.57843L8.52321 6.58555C8.67076 6.72395 8.90583 6.72395 9.37596 6.72395C10.2226 6.72395 10.6459 6.72395 10.7904 6.9814C10.7925 6.98538 10.7945 6.98945 10.7965 6.99361C10.9319 7.25514 10.6866 7.58688 10.1962 8.25036L9.02794 9.83265C8.27186 10.8553 7.89432 11.3672 7.54223 11.2583C7.19014 11.1504 7.19014 10.5236 7.19014 9.26889V9.15085C7.19014 8.69913 7.19014 8.4722 7.04564 8.33075L7.0375 8.32363C6.88995 8.18421 6.65488 8.18421 6.18474 8.18421C5.33811 8.18421 4.9148 8.18421 4.7703 7.92778C4.76819 7.92334 4.76615 7.91899 4.76419 7.91455C4.62885 7.65404 4.87409 7.32128 5.36457 6.6578Z" fill="url(#paint1_linear_42_1634)"/>
</g>
<defs>
<linearGradient id="paint0_linear_42_1634" x1="1.6" y1="16.005" x2="7.3787" y2="-1.33327" gradientUnits="userSpaceOnUse">
<stop stop-color="#22B4FA"/>
<stop offset="1" stop-color="#6BD6FE"/>
</linearGradient>
<linearGradient id="paint1_linear_42_1634" x1="4.72729" y1="11.2727" x2="12.0667" y2="9.80555" gradientUnits="userSpaceOnUse">
<stop stop-color="#6BD6FE"/>
<stop offset="1" stop-color="white"/>
</linearGradient>
<clipPath id="clip0_42_1634">
<rect width="16" height="16" fill="white"/>
</clipPath>
</defs>
</svg>
