<svg width="16" height="16" viewBox="0 0 16 16" fill="none" xmlns="http://www.w3.org/2000/svg">
<path fill-rule="evenodd" clip-rule="evenodd" d="M13.254 6.18783C13.133 5.49876 13.6552 5.13283 13.9457 5.7693C13.9558 5.79145 13.9656 5.81356 13.9751 5.83562C14.4336 6.94933 14.5955 8.15569 14.446 9.34495L14.4376 9.41519L14.4366 9.42385C14.4291 9.48787 14.4216 9.55138 14.413 9.61533C14.2323 10.624 13.8234 11.5821 13.2154 12.4218C12.6074 13.2617 11.815 13.9626 10.8945 14.4751C8.83077 15.6241 6.54584 15.6721 4.6037 14.9316C4.08857 14.7352 4 14.0513 4 13.5V13.5C4 12.6716 3.32843 12 2.5 12C2.48312 12 2.46631 12.0003 2.44957 12.0008C1.813 12.0219 0.997364 12.0394 0.711929 11.47C0.259596 10.5677 0.00100533 9.54391 0 8.43396V8.39787C0.0148925 8.07453 0.0542675 7.75265 0.117813 7.43483L0.118529 7.42953V7.42953C0.119519 7.42289 0.119985 7.41616 0.12094 7.40951C0.141383 7.26701 0.1647 7.12489 0.190879 6.98325L0.200564 6.93713C0.376819 6.17659 0.707837 5.4574 1.1745 4.82062C1.37756 4.54165 1.60454 4.27954 1.85305 4.03703C2.07118 3.82232 2.30859 3.62657 2.56254 3.45211V3.45211C2.66903 3.38294 2.79752 3.47377 2.7968 3.60076C2.79433 4.03754 2.83109 4.80167 3.0548 5.07688C3.0555 5.07774 3.05651 5.0782 3.05762 5.0782V5.0782C3.05867 5.0782 3.05968 5.07774 3.06037 5.07696C3.21831 4.89878 3.38825 4.73156 3.56888 4.57627C4.01154 4.19572 4.64426 4.67013 4.76484 5.2413C4.77711 5.29944 4.79107 5.35734 4.80669 5.41493C4.8192 5.46101 4.84919 5.50016 4.88832 5.52754V5.52754C4.96426 5.5807 5.06591 5.58278 5.14216 5.53006C5.44991 5.31725 5.78917 5.15296 6.1471 5.04195C6.62827 4.89272 7.03093 4.50044 7.17054 4.0164C7.22819 3.81652 7.30259 3.6052 7.396 3.3889C7.60911 2.89542 7.92118 2.37595 8.35911 1.90692C8.58181 1.66843 8.83705 1.44297 9.12836 1.2406C9.24877 1.15696 9.37531 1.07732 9.5083 1.00227C9.50896 1.0019 9.50969 1.00264 9.5093 1.0033V1.0033C9.50892 1.00394 9.50963 1.00468 9.51029 1.00433L9.51051 1.00421L9.51054 1.0042C9.51158 1.00361 9.51257 1.00305 9.51319 1.00288C9.5137 1.0027 9.51429 1.00228 9.51486 1.00186V1.00186C9.51603 1.00102 9.51745 1.00065 9.51887 1.00041C9.52045 1.00014 9.52206 1 9.52364 1C9.52591 1 9.52819 1.00029 9.5304 1.00086C9.53498 1.00139 9.53918 1.00353 9.54221 1.00686C9.54301 1.00773 9.54371 1.00866 9.54431 1.00965V1.00965C9.54768 1.01516 9.54769 1.02207 9.54936 1.02831C9.57406 1.12095 9.60957 1.21062 9.65519 1.29561C9.67999 1.3446 9.70666 1.3927 9.73516 1.43979C9.79044 1.52996 9.84745 1.61914 9.90616 1.70727C10.2496 2.2297 10.6163 2.66677 10.9836 3.07668C11.106 3.21332 11.2285 3.34694 11.3502 3.4797L11.3507 3.48023C12.0282 4.21952 12.6814 4.93222 13.1641 5.99065C13.1937 6.05533 13.2226 6.1213 13.2507 6.18866C13.2515 6.19046 13.2542 6.18976 13.254 6.18783V6.18783V6.18783ZM5.64824 11.3231C5.63516 11.3167 5.62208 11.3103 5.60866 11.3041C5.64361 11.3215 5.67883 11.3384 5.7143 11.3548V11.3548C5.71095 11.3527 5.70744 11.3509 5.70383 11.3493C5.68484 11.341 5.66667 11.3321 5.64849 11.3232L5.64824 11.3231ZM13.2569 6.20078C13.2568 6.20013 13.2559 6.20021 13.2559 6.20087V6.20087C13.2559 6.20106 13.256 6.20124 13.2561 6.20133V6.20133C13.2565 6.20156 13.257 6.20122 13.2569 6.20078V6.20078Z" fill="url(#paint0_linear_8_472)"/>
<path fill-rule="evenodd" clip-rule="evenodd" d="M0.282004 8.18139C0.28631 8.22247 0.292083 8.2652 0.299534 8.30991C0.271392 8.12072 0.277869 7.88869 0.298611 7.66141C0.290659 7.71471 0.283838 7.76809 0.279053 7.82295C0.275772 7.86057 0.273448 7.89889 0.272372 7.93838C0.270312 8.01404 0.272838 8.09397 0.282004 8.18139ZM0.318588 7.47707C0.367908 7.0806 0.448613 6.74122 0.450566 6.7333C0.626821 5.97277 0.957837 5.25335 1.4245 4.61657C1.62857 4.33814 1.8565 4.07686 2.10589 3.83499C2.32399 3.62027 2.56141 3.42454 2.81536 3.25009V3.25009C2.92187 3.18086 3.05036 3.27175 3.04964 3.39878C3.04717 3.8349 3.08381 4.59742 3.30666 4.87364C3.30799 4.87528 3.30994 4.87616 3.31205 4.87616V4.87616C3.34495 4.87528 4.28585 4.859 4.83639 5.13622C4.716 5.07514 4.5767 5.0282 4.43217 4.99216C4.01449 4.88801 3.79383 4.37004 4.14099 4.11551V4.11551C4.47874 3.86787 4.92362 4.20697 4.95479 4.62462C4.97121 4.84461 5.011 5.06332 5.07413 5.27727C5.07496 5.28006 5.07674 5.28247 5.07917 5.28407V5.28407C5.14415 5.32631 5.20668 5.37194 5.26649 5.42072C5.36588 5.5018 5.47673 5.60704 5.68888 5.80846L5.68923 5.80879L5.76521 5.88091C6.09641 6.19479 6.77604 6.51641 7.18667 6.71074L7.18668 6.71074L7.18669 6.71074L7.18671 6.71076C7.3823 6.80331 7.51685 6.86698 7.52364 6.88718C7.5239 6.88796 7.52336 6.88869 7.52258 6.88896V6.88896C7.5219 6.88919 7.52143 6.88972 7.52135 6.89044C7.50123 7.06891 6.87016 7.65976 6.64869 7.65976C5.06787 7.65976 4.50118 8.36461 4.32247 8.6947C4.26486 8.80111 4.25279 8.92368 4.27294 9.043C4.42991 9.97278 5.12641 10.7336 5.95926 11.1477C5.9382 11.1386 5.91823 11.1289 5.89824 11.1191C5.88516 11.1127 5.87208 11.1063 5.85866 11.1001C5.58061 10.9722 5.33243 10.8231 5.11334 10.6578C5.33299 10.8238 5.58191 10.9735 5.86094 11.1019C5.89523 11.119 5.9298 11.1356 5.96462 11.1516L5.96356 11.151L5.95926 11.1477C5.99921 11.1676 6.03899 11.1856 6.07955 11.2034L6.08104 11.2041C6.15119 11.2341 6.22228 11.2622 6.29418 11.2881C6.59814 11.3916 6.9165 11.4507 7.23866 11.4635C10.0229 11.5891 11.0794 9.05647 10.2291 7.3097C9.99303 6.82474 10.2481 6.15383 10.6968 6.453V6.453C10.7105 6.46224 10.7234 6.47147 10.7362 6.48071L10.742 6.48489C10.7796 6.51185 10.8159 6.54048 10.8508 6.57069C12.4972 8.03023 11.635 10.0946 11.57 10.2407V10.2407C11.5673 10.2466 11.5631 10.2518 11.558 10.2559C9.20813 12.0929 6.95215 11.6124 6.16499 11.258C6.94994 11.6121 9.21134 12.0966 11.5649 10.2544C11.5675 10.2524 11.5696 10.2497 11.571 10.2467V10.2467C11.5723 10.2438 11.5744 10.2412 11.5769 10.2392C12.9058 9.18378 13.7575 7.62654 13.5108 6.01744C13.5101 6.01277 13.509 6.00815 13.5074 6.00369L13.5065 6.00133C13.5058 5.99915 13.5052 5.9969 13.5047 5.99462L13.5046 5.99398C13.5042 5.99175 13.504 5.98948 13.504 5.98721V5.98721C13.504 5.98506 13.5038 5.9829 13.5034 5.98078C13.5001 5.96187 13.4967 5.94298 13.4932 5.9241C13.3697 5.25466 13.8774 4.89572 14.17 5.51037C14.1893 5.55095 14.2077 5.59145 14.2251 5.63178C14.6836 6.74549 14.8455 7.95184 14.696 9.14111L14.6881 9.20828L14.6788 9.28605C14.6738 9.32785 14.6686 9.36957 14.663 9.41148C14.4823 10.4201 14.0734 11.3782 13.4654 12.218C12.8574 13.0578 12.065 13.7588 11.1445 14.2713C8.96324 15.4857 6.53486 15.4701 4.52532 14.5936C4.0989 14.4076 4 13.8653 4 13.4001V13.4001C4 12.5717 3.32843 11.9001 2.5 11.9001V11.9001C1.94357 11.9001 1.27192 11.8612 1.01411 11.3681C0.529537 10.4412 0.251043 9.38205 0.25 8.23012V8.19403C0.250704 8.16399 0.251679 8.13396 0.252923 8.10395C0.261635 7.89386 0.283569 7.68451 0.318588 7.47707ZM4.95731 5.20601L5.02384 5.24826C5.00179 5.23399 4.97961 5.21992 4.95731 5.20601ZM2.82917 7.6542C3.13345 7.83839 3.48655 7.93399 3.84594 7.92949C3.8464 7.92948 3.84679 7.92913 3.84684 7.92867V7.92867C3.84691 7.92812 3.84647 7.92764 3.84592 7.92765C3.48575 7.93258 3.13182 7.83697 2.82691 7.65239C2.75812 7.61075 2.6925 7.56499 2.63037 7.51546C2.69317 7.56569 2.75956 7.61205 2.82917 7.6542Z" fill="#8C4FD9"/>
<path fill-rule="evenodd" clip-rule="evenodd" d="M1.032 7.33329C1.03631 7.37437 1.04208 7.41709 1.04953 7.46181C1.02139 7.27262 1.02787 7.04059 1.04861 6.81331C1.04066 6.86661 1.03384 6.91999 1.02905 6.97485C1.02577 7.01247 1.02345 7.05079 1.02237 7.09027C1.02031 7.16594 1.02284 7.24587 1.032 7.33329ZM1.06859 6.62897C1.11791 6.2325 1.19861 5.89312 1.20057 5.8852C1.37682 5.12467 1.70784 4.40525 2.1745 3.76847C2.37857 3.49004 2.6065 3.22875 2.85589 2.98689C3.07399 2.77217 3.31141 2.57644 3.56536 2.40199C3.64138 2.35258 3.72261 2.31108 3.80774 2.2782C3.79125 2.51989 3.77102 3.67712 4.05871 4.02806H4.06205C4.09495 4.02718 5.03585 4.0109 5.58639 4.28812C5.03636 4.00903 4.09141 4.02537 4.05791 4.02625C4.54064 3.48137 5.13562 3.03884 5.80522 2.72666C5.65322 3.2871 5.6602 3.87653 5.82541 4.43349L5.82917 4.43597C5.89415 4.47821 5.95668 4.52384 6.01649 4.57262C6.11588 4.6537 6.22673 4.75894 6.43888 4.96036L6.43923 4.96069L6.51521 5.03281C6.84641 5.34669 7.52604 5.66831 7.93667 5.86263L7.93668 5.86264L7.93669 5.86264L7.93671 5.86266C8.13679 5.95733 8.27299 6.02179 8.2739 6.0404L8.27146 6.04124C8.25382 6.21838 7.62061 6.81166 7.39869 6.81166C5.33454 6.81166 4.99945 8.01342 4.99945 8.01342C5.09086 9.02536 5.82284 9.85884 6.70926 10.2996C6.6882 10.2905 6.66823 10.2808 6.64824 10.271C6.63516 10.2646 6.62208 10.2582 6.60866 10.252C6.33061 10.1241 6.08243 9.975 5.86334 9.80973C6.08299 9.97571 6.33191 10.1254 6.61094 10.2538C6.64523 10.2709 6.6798 10.2875 6.71462 10.3035L6.71356 10.3028L6.70926 10.2996C6.74921 10.3195 6.78899 10.3375 6.82955 10.3553L6.83104 10.356C6.90119 10.386 6.97228 10.4141 7.04418 10.44C7.34814 10.5435 7.6665 10.6026 7.98866 10.6154C11.607 10.7787 12.3075 6.45227 9.6966 5.1959C10.3125 5.11878 10.9363 5.26453 11.4468 5.6049C11.4605 5.61414 11.4734 5.62336 11.4862 5.6326L11.492 5.63679C11.5296 5.66375 11.5659 5.69238 11.6008 5.72259C13.2472 7.18213 12.385 9.24652 12.32 9.39256L12.3159 9.40155C9.9632 11.2459 7.70304 10.7647 6.91499 10.4099C7.70039 10.7642 9.9639 11.2491 12.3189 9.40319L12.323 9.39414C13.6561 8.33717 14.5103 6.77545 14.2598 5.16229L14.2554 5.14995L14.254 5.14252V5.13587C14.1242 4.39675 13.8763 3.68145 13.5189 3.01539C14.0199 3.26466 14.6596 4.05328 14.9751 4.78368C15.4336 5.89739 15.5955 7.10374 15.446 8.29301L15.4381 8.36018L15.4288 8.43794C15.4238 8.47975 15.4186 8.52147 15.413 8.56338C15.2323 9.57203 14.8234 10.5301 14.2154 11.3699C13.6074 12.2097 12.815 12.9107 11.8945 13.4232C9.18631 14.931 6.09718 14.5426 3.9017 12.9648C3.72637 12.5059 3.33216 12.1552 2.84674 12.0403C1.71498 10.8338 1.00167 9.22687 1 7.38202V7.34593C1.0007 7.31589 1.00168 7.28586 1.00292 7.25585C1.01163 7.04575 1.03357 6.83641 1.06859 6.62897ZM5.70731 4.35791L5.77384 4.40016C5.75179 4.38589 5.72961 4.37182 5.70731 4.35791ZM3.57917 6.8061C3.88368 6.99043 4.23707 7.08603 4.59675 7.08137L4.59696 7.07953C4.23644 7.08466 3.88211 6.98904 3.57691 6.80429C3.50812 6.76265 3.4425 6.71689 3.38037 6.66736C3.44317 6.71758 3.50956 6.76395 3.57917 6.8061Z" fill="url(#paint1_linear_8_472)"/>
<circle cx="1.99995" cy="13.8" r="0.8" fill="url(#paint2_linear_8_472)"/>
<defs>
<linearGradient id="paint0_linear_8_472" x1="3.62501" y1="14.3943" x2="13.163" y2="3.20849" gradientUnits="userSpaceOnUse">
<stop stop-color="#A056FF"/>
<stop offset="1" stop-color="#C59AFD"/>
</linearGradient>
<linearGradient id="paint1_linear_8_472" x1="4.62501" y1="14.3727" x2="18.1701" y2="8.95959" gradientUnits="userSpaceOnUse">
<stop stop-color="#C59AFD"/>
<stop offset="1" stop-color="white"/>
</linearGradient>
<linearGradient id="paint2_linear_8_472" x1="1.59995" y1="14.4857" x2="2.65877" y2="13.2504" gradientUnits="userSpaceOnUse">
<stop stop-color="#A056FF"/>
<stop offset="1" stop-color="#C59AFD"/>
</linearGradient>
</defs>
</svg>
