<svg width="16" height="16" viewBox="0 0 16 16" fill="none" xmlns="http://www.w3.org/2000/svg">
<path fill-rule="evenodd" clip-rule="evenodd" d="M13.6815 6.35516C13.5566 5.64387 14.0957 5.26614 14.3955 5.92314C14.4059 5.946 14.4161 5.96883 14.4259 5.9916C14.8992 7.14123 15.0663 8.3865 14.912 9.61412L14.9033 9.68663L14.9023 9.6955C14.8945 9.76161 14.8868 9.82719 14.8779 9.89322C14.6913 10.9344 14.2693 11.9234 13.6416 12.7902C13.014 13.6572 12.1961 14.3808 11.2459 14.9098C9.11561 16.0959 6.75697 16.1453 4.7522 15.381C4.22045 15.1782 4.12902 14.4723 4.12902 13.9032V13.9032C4.12902 13.048 3.43579 12.3548 2.58064 12.3548C2.54978 12.3548 2.51912 12.3557 2.48871 12.3575C1.85288 12.3947 1.04158 12.4111 0.752876 11.8434C0.27483 10.9033 0.00105101 9.83413 0 8.67375V8.63649C0.0153729 8.30272 0.0560179 7.97046 0.121613 7.64238L0.122352 7.63692V7.63692C0.123375 7.63006 0.123856 7.62312 0.124841 7.61625C0.145943 7.46915 0.170013 7.32246 0.197036 7.17625L0.207033 7.12864C0.388973 6.34356 0.730669 5.60117 1.21238 4.94386C1.422 4.65589 1.65629 4.38533 1.91282 4.13499C2.13798 3.91335 2.38305 3.7113 2.64519 3.53121V3.53121C2.75512 3.4598 2.88776 3.55356 2.88702 3.68465C2.88446 4.13552 2.9224 4.92429 3.15334 5.20839C3.15406 5.20927 3.1551 5.20974 3.15624 5.20974V5.20974C3.15733 5.20974 3.15837 5.20927 3.15909 5.20846C3.32211 5.02454 3.49754 4.85192 3.68399 4.69163C4.14094 4.2988 4.79406 4.78851 4.91853 5.3781C4.9312 5.43812 4.9456 5.49789 4.96174 5.55733C4.97465 5.6049 5.00561 5.64531 5.04599 5.67358V5.67358C5.12439 5.72845 5.22931 5.7306 5.30802 5.67618C5.63348 5.45113 5.99308 5.27864 6.37256 5.164C6.85481 5.01832 7.25707 4.62589 7.39401 4.14108C7.45456 3.92671 7.53386 3.69914 7.63456 3.46595C7.85455 2.95656 8.17668 2.42033 8.62874 1.93618C8.85862 1.68999 9.12209 1.45726 9.4228 1.24836C9.5471 1.16202 9.67771 1.07981 9.81499 1.00235C9.81568 1.00196 9.81643 1.00273 9.81603 1.0034V1.0034C9.81564 1.00407 9.81636 1.00483 9.81705 1.00447L9.81728 1.00435L9.8173 1.00434C9.81837 1.00373 9.8194 1.00315 9.82004 1.00297C9.82057 1.00279 9.82117 1.00235 9.82177 1.00192V1.00192C9.82297 1.00105 9.82444 1.00067 9.8259 1.00042C9.82754 1.00014 9.8292 1 9.83083 1C9.83317 1 9.83552 1.0003 9.83781 1.00089C9.84253 1.00144 9.84686 1.00364 9.85 1.00708C9.85083 1.00798 9.85155 1.00894 9.85217 1.00996V1.00996C9.85564 1.01565 9.85566 1.02278 9.85738 1.02922C9.88288 1.12485 9.91953 1.21741 9.96662 1.30514C9.99222 1.35571 10.0198 1.40536 10.0492 1.45398C10.1062 1.54705 10.1651 1.63911 10.2257 1.73009C10.5802 2.26937 10.9588 2.72053 11.3379 3.14366C11.4642 3.28471 11.5907 3.42264 11.7163 3.55968L11.7168 3.56023C12.4162 4.32336 13.0904 5.05906 13.5887 6.15163C13.6192 6.2184 13.649 6.28649 13.6782 6.35602C13.6789 6.35788 13.6817 6.35716 13.6815 6.35516V6.35516V6.35516ZM5.83042 11.6561C5.81693 11.6495 5.80342 11.6429 5.78957 11.6364C5.82565 11.6544 5.862 11.6719 5.89862 11.6888V11.6888C5.89516 11.6866 5.89154 11.6848 5.88781 11.6831C5.86821 11.6746 5.84945 11.6654 5.83068 11.6562L5.83042 11.6561ZM13.6845 6.36853C13.6844 6.36786 13.6834 6.36795 13.6834 6.36862V6.36862C13.6834 6.36882 13.6836 6.36901 13.6837 6.3691V6.3691C13.6841 6.36933 13.6846 6.36899 13.6845 6.36853V6.36853Z" fill="url(#paint0_radial_8_472)"/>
<path fill-rule="evenodd" clip-rule="evenodd" d="M0.291093 8.413C0.295538 8.4554 0.301497 8.49951 0.309188 8.54567C0.280138 8.35037 0.286825 8.11086 0.308236 7.87625C0.28361 8.04132 0.269495 8.20701 0.291093 8.413ZM0.328853 7.68599C0.292707 7.90012 0.270066 8.1162 0.261074 8.33306C0.25979 8.36404 0.258784 8.39504 0.258057 8.42605V8.4633C0.259135 9.65393 0.547357 10.7486 1.04876 11.7062C1.31413 12.213 2.00854 12.2517 2.58063 12.2517V12.2517C3.43578 12.2517 4.12901 12.9449 4.12901 13.8V13.8C4.12901 14.2803 4.2311 14.84 4.67128 15.032C6.74563 15.9368 9.25234 15.953 11.5039 14.6993C12.4542 14.1703 13.2721 13.4467 13.8997 12.5798C14.5273 11.713 14.9494 10.724 15.136 9.68277C15.1418 9.63952 15.1471 9.59646 15.1523 9.55332L15.1618 9.47304L15.17 9.40386L15.17 9.40367C15.3243 8.17604 15.1572 6.93078 14.684 5.78115C14.666 5.73952 14.647 5.69771 14.627 5.65582C14.325 5.02135 13.8009 5.39187 13.9284 6.08289C13.932 6.10238 13.9356 6.12189 13.939 6.14141C13.9394 6.1436 13.9396 6.14582 13.9396 6.14805V6.14805C13.9396 6.15039 13.9398 6.15273 13.9402 6.15504L13.9403 6.15569C13.9408 6.15805 13.9414 6.16037 13.9422 6.16263L13.9431 6.16506C13.9447 6.16966 13.9459 6.17443 13.9466 6.17925C14.2013 7.84025 13.3221 9.44772 11.9503 10.5372C11.9477 10.5392 11.9456 10.5419 11.9442 10.545V10.545C11.9428 10.5481 11.9406 10.5508 11.9379 10.5529C9.50845 12.4545 7.17411 11.9543 6.36383 11.5888C7.17639 11.9547 9.50514 12.4507 11.9308 10.5544C11.9361 10.5502 11.9404 10.5448 11.9432 10.5387V10.5387C12.0103 10.3879 12.9003 8.25696 11.2008 6.75035C11.1648 6.71916 11.1273 6.68961 11.0885 6.66178L11.0825 6.65746C11.0692 6.64792 11.056 6.6384 11.0419 6.62886V6.62886C10.5786 6.32003 10.3153 7.01259 10.559 7.5132C11.4368 9.3163 10.3462 11.9307 7.47214 11.8009C7.13959 11.7878 6.81096 11.7268 6.49719 11.6199C6.42297 11.5931 6.34959 11.5642 6.27718 11.5332L6.27564 11.5325C6.23377 11.5141 6.19271 11.4956 6.15147 11.475C5.29003 11.0466 4.56989 10.259 4.40978 9.29659C4.38992 9.17723 4.40196 9.05468 4.4591 8.94802C4.64045 8.60953 5.22305 7.87455 6.86314 7.87455C7.09175 7.87455 7.74318 7.26464 7.76394 7.08041C7.76403 7.07966 7.76452 7.07912 7.76522 7.07888V7.07888C7.76603 7.0786 7.76658 7.07785 7.76631 7.07704C7.7593 7.0562 7.62041 6.99047 7.41852 6.89493L7.41849 6.89492L7.41849 6.89492C6.99462 6.69433 6.29305 6.36232 5.95116 6.03832L5.87273 5.96387L5.87237 5.96353C5.65338 5.75561 5.53896 5.64698 5.43635 5.56329C5.37461 5.51293 5.31007 5.46583 5.243 5.42223V5.42223C5.24049 5.42058 5.23864 5.41809 5.23779 5.41521C5.17263 5.19436 5.13155 4.96859 5.1146 4.7415C5.08243 4.31038 4.6232 3.96035 4.27455 4.21597V4.21597C3.9162 4.47872 4.14397 5.01339 4.57512 5.1209C4.72431 5.15811 4.86811 5.20655 4.99238 5.26961C4.42408 4.98345 3.45284 5.00025 3.41887 5.00116V5.00116C3.41669 5.00116 3.41468 5.00025 3.41331 4.99855C3.18327 4.71342 3.14545 3.92631 3.148 3.47612C3.14874 3.34499 3.01611 3.25117 2.90617 3.32264V3.32264C2.64402 3.50271 2.39894 3.70475 2.17381 3.92641C1.91637 4.17607 1.6811 4.44578 1.47044 4.7332C0.988726 5.39051 0.647032 6.13314 0.465092 6.9182C0.463075 6.92637 0.379763 7.27672 0.328853 7.68599ZM6.15147 11.475L6.15591 11.4783L6.15701 11.4791C6.12106 11.4625 6.08537 11.4454 6.04998 11.4277C5.76195 11.2952 5.505 11.1407 5.27826 10.9693C5.50442 11.1399 5.76061 11.2938 6.04763 11.4258C6.06147 11.4322 6.07498 11.4388 6.08848 11.4454C6.10911 11.4556 6.12973 11.4656 6.15147 11.475ZM5.11721 5.34165L5.18588 5.38526C5.16311 5.37053 5.14022 5.356 5.11721 5.34165ZM2.92042 7.86881C3.23451 8.05894 3.599 8.15762 3.96999 8.15297C3.97046 8.15296 3.97086 8.1526 3.97092 8.15213V8.15213C3.97098 8.15156 3.97053 8.15107 3.96996 8.15107C3.59818 8.15616 3.23283 8.05747 2.91809 7.86693C2.84708 7.82395 2.77934 7.77671 2.71521 7.72559C2.78004 7.77744 2.84857 7.8253 2.92042 7.86881Z" fill="#B85C68"/>
<path fill-rule="evenodd" clip-rule="evenodd" d="M1.06526 7.53761C1.06971 7.58 1.07567 7.62411 1.08336 7.67027C1.05431 7.47497 1.06099 7.23547 1.08241 7.00085C1.0742 7.05587 1.06716 7.11097 1.06222 7.1676C1.05891 7.20546 1.05655 7.24401 1.05541 7.28369C1.05313 7.36271 1.05568 7.44619 1.06526 7.53761ZM1.10302 6.8106C1.06688 7.02472 1.04424 7.24081 1.03524 7.45767C1.03396 7.48865 1.03295 7.51964 1.03223 7.55065V7.5879C1.03395 9.49224 1.77025 11.151 2.93849 12.3964C3.43962 12.5149 3.8466 12.877 4.02758 13.3508C6.29387 14.9795 9.48262 15.3804 12.2781 13.8239C13.2283 13.2949 14.0463 12.5713 14.6739 11.7044C15.3015 10.8376 15.7235 9.84856 15.9101 8.80737C15.916 8.76396 15.9214 8.72074 15.9265 8.67744L15.936 8.59764L15.9442 8.52846L15.9442 8.52828C16.0985 7.30065 15.9314 6.05538 15.4581 4.90575C15.1324 4.1518 14.4721 3.33774 13.9549 3.08043C14.3238 3.76797 14.5798 4.50635 14.7137 5.26931V5.27617L14.7152 5.28383L14.7197 5.29658C14.9783 6.96177 14.0966 8.57386 12.7205 9.66493L12.7162 9.67427C10.2853 11.5797 7.94874 11.0792 7.138 10.7134C7.95147 11.0797 10.2845 11.5764 12.7131 9.67258L12.7174 9.66329C12.7844 9.51255 13.6745 7.38156 11.975 5.87495C11.939 5.84377 11.9015 5.81421 11.8626 5.78638L11.8567 5.78206C11.8434 5.77252 11.8302 5.763 11.816 5.75346C11.289 5.40212 10.6451 5.25166 10.0093 5.33127C12.7044 6.62817 11.9813 11.0941 8.24631 10.9255C7.91376 10.9124 7.58513 10.8514 7.27136 10.7445C7.19714 10.7178 7.12376 10.6888 7.05135 10.6578L7.04981 10.6571C7.00794 10.6387 6.96688 10.6202 6.92564 10.5996C6.01063 10.1446 5.25504 9.28425 5.16068 8.23967C5.16068 8.23967 5.50658 6.99915 7.63731 6.99915C7.86639 6.99915 8.52003 6.38674 8.53823 6.20388L8.54075 6.20301C8.53981 6.1838 8.39921 6.11726 8.19269 6.01953L8.19266 6.01952L8.19265 6.01952C7.76877 5.81892 7.06722 5.48692 6.72533 5.16292L6.6469 5.08847L6.64655 5.08814C6.42755 4.88022 6.31313 4.77158 6.21052 4.68789C6.14878 4.63753 6.08424 4.59043 6.01717 4.54683L6.01328 4.54427C5.84274 3.96934 5.83554 3.3609 5.99245 2.78238C5.30125 3.10463 4.68707 3.56144 4.18877 4.1239C4.22335 4.12299 5.19878 4.10611 5.76655 4.39421C5.19825 4.10805 4.22701 4.12485 4.19304 4.12576H4.1896C3.89263 3.7635 3.91351 2.56895 3.93053 2.31946C3.84266 2.3534 3.7588 2.39624 3.68034 2.44724C3.41819 2.62732 3.17311 2.82936 2.94798 3.05101C2.69054 3.30067 2.45527 3.57038 2.24461 3.8578C1.7629 4.51512 1.4212 5.25774 1.23926 6.0428C1.23725 6.05098 1.15393 6.40132 1.10302 6.8106ZM6.92564 10.5996L6.93008 10.6029L6.93118 10.6037C6.89523 10.5871 6.85954 10.57 6.82415 10.5523C6.53612 10.4198 6.27917 10.2653 6.05243 10.0939C6.27859 10.2645 6.53478 10.4184 6.8218 10.5504C6.83564 10.5568 6.84915 10.5634 6.86265 10.5701C6.88328 10.5802 6.9039 10.5902 6.92564 10.5996ZM5.89138 4.46625L5.96005 4.50986C5.93728 4.49514 5.91439 4.48061 5.89138 4.46625ZM3.69459 6.99341C4.00892 7.18368 4.37371 7.28237 4.74499 7.27756L4.74521 7.27566C4.37306 7.28095 4.0073 7.18225 3.69226 6.99154C3.62125 6.94856 3.55351 6.90132 3.48938 6.85019C3.55421 6.90204 3.62274 6.9499 3.69459 6.99341Z" fill="url(#paint1_linear_8_472)"/>
<ellipse cx="2.06445" cy="14.2129" rx="0.825804" ry="0.825804" fill="url(#paint2_linear_8_472)"/>
<defs>
<radialGradient id="paint0_radial_8_472" cx="0" cy="0" r="1" gradientUnits="userSpaceOnUse" gradientTransform="translate(9.23965 -0.00858911) rotate(83.7426) scale(16.1101 10.9763)">
<stop stop-color="#FFF44F"/>
<stop offset="0.06" stop-color="#FFE847"/>
<stop offset="0.168" stop-color="#FFC830"/>
<stop offset="0.304" stop-color="#FF980E"/>
<stop offset="0.356" stop-color="#FF8B16"/>
<stop offset="0.455" stop-color="#FF672A"/>
<stop offset="0.57" stop-color="#FF3647"/>
<stop offset="0.737" stop-color="#E31587"/>
</radialGradient>
<linearGradient id="paint1_linear_8_472" x1="2.10135" y1="14.0397" x2="14.5747" y2="5.96937" gradientUnits="userSpaceOnUse">
<stop stop-color="#D4A4C4"/>
<stop offset="0.5" stop-color="#F7B1B3"/>
<stop offset="1" stop-color="#F7E1A3"/>
</linearGradient>
<linearGradient id="paint2_linear_8_472" x1="1.35662" y1="14.9376" x2="2.86876" y2="14.1215" gradientUnits="userSpaceOnUse">
<stop stop-color="#B65592"/>
<stop offset="0.5" stop-color="#FB6F71"/>
<stop offset="1" stop-color="#F9CB52"/>
</linearGradient>
</defs>
</svg>
