<svg width="16" height="16" viewBox="0 0 16 16" fill="none" xmlns="http://www.w3.org/2000/svg">
<g clip-path="url(#clip0_14_993)">
<path fill-rule="evenodd" clip-rule="evenodd" d="M3 8C3 6 1.336 5.837 1.276 5.807C0.780999 5.563 0.576999 4.963 0.820999 4.468C2.126 1.822 4.852 0 8 0C12.415 0 16 3.585 16 8C16 12.415 12.415 16 8 16C4.852 16 2.126 14.178 0.820999 11.532C0.576999 11.037 0.780999 10.437 1.276 10.193C1.336 10.163 3 10 3 8ZM1 9C0.448 9 0 8.552 0 8C0 7.448 0.448 7 1 7C1.552 7 2 7.448 2 8C2 8.552 1.552 9 1 9Z" fill="url(#paint0_linear_14_993)"/>
<path d="M12.1355 7.6889L6.7742 13.077C6.49535 13.3484 6.1289 13.5 5.7465 13.5H3.87442C3.77085 13.5 3.67526 13.4601 3.60356 13.3883C3.53186 13.3164 3.5 13.2206 3.5 13.1168L3.5478 11.225C3.55577 10.8499 3.70713 10.4987 3.97002 10.2353L7.76995 6.4277C7.8337 6.36385 7.94525 6.36385 8.00895 6.4277L9.34175 7.75515C9.42935 7.84215 9.55685 7.89885 9.69225 7.89885C9.987 7.89885 10.2181 7.6594 10.2181 7.372C10.2181 7.22835 10.1622 7.1006 10.0746 7.00485C10.0507 6.9729 8.7817 5.70931 8.7817 5.70931C8.70205 5.62949 8.70205 5.49379 8.7817 5.41397L9.31545 4.87117C9.80935 4.37628 10.606 4.37628 11.0999 4.87117L12.1355 5.90887C12.6215 6.3958 12.6215 7.194 12.1355 7.6889Z" fill="#8CC860"/>
<path d="M12.6355 6.1889L7.2742 11.577C6.99535 11.8484 6.6289 12 6.2465 12H4.37442C4.27085 12 4.17526 11.9601 4.10356 11.8883C4.03186 11.8164 4 11.7206 4 11.6168L4.0478 9.72505C4.05577 9.3499 4.20713 8.99865 4.47002 8.73525L8.26995 4.9277C8.3337 4.86385 8.44525 4.86385 8.50895 4.9277L9.84175 6.25515C9.92935 6.34215 10.0569 6.39885 10.1923 6.39885C10.487 6.39885 10.7181 6.1594 10.7181 5.872C10.7181 5.72835 10.6622 5.6006 10.5746 5.50485C10.5507 5.4729 9.2817 4.20931 9.2817 4.20931C9.20205 4.12949 9.20205 3.99379 9.2817 3.91397L9.81545 3.37117C10.3093 2.87628 11.106 2.87628 11.5999 3.37117L12.6355 4.40887C13.1215 4.8958 13.1215 5.694 12.6355 6.1889Z" fill="url(#paint1_linear_14_993)"/>
</g>
<defs>
<linearGradient id="paint0_linear_14_993" x1="1.14286" y1="16" x2="11.7135" y2="0.624479" gradientUnits="userSpaceOnUse">
<stop stop-color="#9BE862"/>
<stop offset="1" stop-color="#C8FF9F"/>
</linearGradient>
<linearGradient id="paint1_linear_14_993" x1="5.125" y1="12" x2="12.771" y2="5.30972" gradientUnits="userSpaceOnUse">
<stop stop-color="#C8FF9F"/>
<stop offset="1" stop-color="white"/>
</linearGradient>
<clipPath id="clip0_14_993">
<rect width="16" height="16" fill="white"/>
</clipPath>
</defs>
</svg>
