<svg width="24" height="24" viewBox="0 0 24 24" fill="none" xmlns="http://www.w3.org/2000/svg">
<path d="M3.80233 0.00129692C3.8006 -0.000437758 3.7978 -0.000426848 3.79608 0.00129692L3.23353 0.565406C2.922 0.877789 2.92218 1.3834 3.23392 1.69558L4.2953 2.75843C4.66055 3.12418 4.70292 3.69194 4.52114 4.1758C4.35338 4.62238 4.26591 5.09761 4.26534 5.57941C4.26544 6.50235 4.58435 7.39692 5.16811 8.11179C5.56262 8.59492 6.06174 8.97593 6.62302 9.22917C7.09559 9.44237 7.46892 9.87492 7.46892 10.3934V15.1878C7.46892 15.7063 7.09559 16.1389 6.62302 16.352C6.06269 16.6048 5.5643 16.985 5.17008 17.4669C4.58645 18.1805 4.26688 19.0736 4.26534 19.9955C4.26534 21.0576 4.68724 22.0761 5.43823 22.8271C5.81008 23.199 6.25153 23.4939 6.73738 23.6952C7.22322 23.8965 7.74395 24 8.26982 24C9.33185 24 10.3504 23.5781 11.1014 22.8271C11.8524 22.0761 12.2743 21.0576 12.2743 19.9955C12.2741 19.0725 11.9552 18.178 11.3716 17.4631C10.9771 16.98 10.4779 16.599 9.91662 16.3457C9.44411 16.1325 9.07072 15.7001 9.07072 15.1816V10.2572C9.07072 9.81473 9.38858 9.44439 9.79814 9.2772C10.2037 9.11168 10.6842 9.15137 10.994 9.46107L12.3043 10.7714C12.6695 11.1367 12.7125 11.704 12.5314 12.1878C12.3643 12.6346 12.2774 13.1098 12.2774 13.5915C12.2774 14.6536 12.6993 15.6721 13.4503 16.4231C14.2013 17.1741 15.2198 17.596 16.2819 17.596C17.344 17.596 18.3625 17.1741 19.1135 16.4231C19.8645 15.6721 20.2864 14.6536 20.2864 13.5915C20.2864 12.5294 19.8645 11.5109 19.1135 10.7599C18.3625 10.0089 17.344 9.58701 16.2819 9.58701C15.7916 9.58761 15.3083 9.67818 14.8551 9.85168C14.3685 10.0379 13.7954 9.99711 13.4273 9.62859L12.2364 8.43622C11.8692 8.06842 11.8285 7.4967 12.0138 7.0111C12.1872 6.55726 12.2774 6.0733 12.2774 5.58253C12.2774 5.05666 12.1739 4.53593 11.9726 4.05009C11.7714 3.56424 11.4764 3.12279 11.1045 2.75094C10.7327 2.37909 10.2913 2.08412 9.80545 1.88288C9.31952 1.68163 8.79882 1.57805 8.27295 1.57805C7.78354 1.57904 7.3011 1.66968 6.84868 1.84295C6.36248 2.02916 5.78964 1.98859 5.42148 1.62044L3.80233 0.00129692Z" fill="url(#paint0_linear_96_466)"/>
<path d="M3.23353 0.565406L3.79608 0.00129692C3.7978 -0.000426848 3.8006 -0.000437758 3.80233 0.00129692L5.42148 1.62044C5.78964 1.98859 6.36248 2.02916 6.84868 1.84295C7.3011 1.66968 7.78355 1.57904 8.27295 1.57805C8.79882 1.57805 9.31952 1.68163 9.80545 1.88288C10.2913 2.08412 10.7327 2.37909 11.1045 2.75094C11.4764 3.12279 11.7714 3.56424 11.9726 4.05009C12.1739 4.53593 12.2774 5.05666 12.2774 5.58253C12.2774 6.0733 12.1872 6.55726 12.0138 7.0111C11.8285 7.4967 11.8692 8.06842 12.2364 8.43622L13.4965 9.6979C13.8084 10.0102 13.809 10.5159 13.4977 10.8289C13.1851 11.1432 12.6767 11.1439 12.3633 10.8304L10.994 9.46107C10.6842 9.15137 10.2037 9.11168 9.79814 9.2772C9.38858 9.44439 9.07072 9.81473 9.07072 10.2572V15.1816C9.07072 15.7001 9.44411 16.1325 9.91662 16.3457C10.4779 16.599 10.9771 16.98 11.3716 17.4631C11.9552 18.178 12.2741 19.0725 12.2743 19.9955C12.2743 21.0576 11.8524 22.0761 11.1014 22.8271C10.3504 23.5781 9.33185 24 8.26982 24C7.74395 24 7.22322 23.8965 6.73738 23.6952C6.25153 23.4939 5.81008 23.199 5.43823 22.8271C4.68724 22.0761 4.26535 21.0576 4.26535 19.9955C4.26688 19.0736 4.58645 18.1805 5.17008 17.4669C5.5643 16.985 6.06269 16.6048 6.62302 16.352C7.09559 16.1389 7.46893 15.7063 7.46893 15.1878V10.3934C7.46893 9.87492 7.09559 9.44237 6.62302 9.22917C6.06175 8.97593 5.56262 8.59492 5.16811 8.11179C4.58435 7.39692 4.26544 6.50235 4.26535 5.57941C4.26591 5.09761 4.35338 4.62238 4.52114 4.1758C4.70292 3.69194 4.66055 3.12418 4.2953 2.75843L3.23391 1.69556C2.92218 1.3834 2.92201 0.877789 3.23353 0.565406Z" fill="url(#paint1_linear_96_466)"/>
<defs>
<linearGradient id="paint0_linear_96_466" x1="17.3982" y1="16.363" x2="12.4888" y2="11.4536" gradientUnits="userSpaceOnUse">
<stop stop-color="#FF405B"/>
<stop offset="1" stop-color="#FF8860"/>
</linearGradient>
<linearGradient id="paint1_linear_96_466" x1="13.0343" y1="10.9081" x2="4.85184" y2="21.2725" gradientUnits="userSpaceOnUse">
<stop stop-color="#FF405B"/>
<stop offset="1" stop-color="#FF8860"/>
</linearGradient>
</defs>
</svg>
