<svg width="16" height="16" viewBox="0 0 16 16" fill="none" xmlns="http://www.w3.org/2000/svg">
<g clip-path="url(#clip0_17_2139)">
<path d="M6.05303 1.57777C7.23628 1.36076 8.4578 1.60179 9.46994 2.252C9.95925 2.56634 10.3819 2.96492 10.7214 3.42462C11.1297 3.97776 11.7591 4.36117 12.4347 4.4887C13.0421 4.60335 13.6182 4.84533 14.1254 5.19871C14.6325 5.55208 15.059 6.00885 15.3769 6.53896C15.6947 7.06906 15.8968 7.66047 15.9694 8.27425C16.0424 8.88802 15.9844 9.51028 15.7994 10.1C15.6143 10.6898 15.3065 11.2337 14.8963 11.6959C14.4859 12.1581 13.9823 12.5282 13.4186 12.7817C12.8548 13.0354 12.2439 13.1666 11.6258 13.1672H3.64352C3.13817 13.1658 3.07687 12.371 3.2819 11.9091C3.37619 11.6967 3.42857 11.4616 3.42857 11.2143C3.42857 10.2675 2.66106 9.5 1.71429 9.5C1.21991 9.5 0.774409 9.70927 0.46154 10.0441C0.327287 10.1877 0.0510494 10.1534 0.0271331 9.95826C-0.0811529 9.0746 0.136968 8.18182 0.640513 7.44764C0.779768 7.2446 0.938202 7.05756 1.11282 6.8886C1.67366 6.34591 2.13915 5.66288 2.35751 4.91363C2.5128 4.3808 2.7618 3.87473 3.09775 3.42067C3.81329 2.4536 4.86976 1.7948 6.05303 1.57777Z" fill="url(#paint0_linear_17_2139)"/>
<path d="M1.37146 12.4714C1.8764 12.4714 2.28574 12.0621 2.28574 11.5571C2.28574 11.0522 1.8764 10.6429 1.37146 10.6429C0.86651 10.6429 0.457171 11.0522 0.457171 11.5571C0.457171 12.0621 0.86651 12.4714 1.37146 12.4714Z" fill="url(#paint1_linear_17_2139)"/>
<path d="M5.08417 10.2697L6.15502 8.81915C6.84809 7.88168 7.19416 7.41341 7.51691 7.51322C7.83966 7.61116 7.83966 8.18671 7.83966 9.33592V9.44413C7.83966 9.85923 7.83966 10.0663 7.97212 10.1969L7.97959 10.2034C8.11484 10.3303 8.33032 10.3303 8.76128 10.3303C9.53737 10.3303 9.92542 10.3303 10.0579 10.5663C10.0597 10.5699 10.0616 10.5737 10.0635 10.5775C10.1875 10.8172 9.96273 11.1213 9.51312 11.7295L8.44226 13.1799C7.74918 14.1174 7.40311 14.5866 7.08036 14.4868C6.75761 14.3879 6.75761 13.8133 6.75761 12.6632V12.555C6.75761 12.1409 6.75761 11.9329 6.62515 11.8032L6.61769 11.7967C6.48243 11.6689 6.26695 11.6689 5.83599 11.6689C5.05992 11.6689 4.67188 11.6689 4.53942 11.4338C4.53749 11.4297 4.53562 11.4258 4.53382 11.4217C4.40976 11.1829 4.63457 10.8779 5.08417 10.2697Z" fill="#279FD7"/>
<path d="M5.58417 9.26967L6.65502 7.81915C7.34809 6.88168 7.69416 6.41341 8.01691 6.51322C8.33966 6.61116 8.33966 7.18671 8.33966 8.33592V8.44413C8.33966 8.85923 8.33966 9.06631 8.47212 9.19691L8.47959 9.20344C8.61484 9.3303 8.83032 9.3303 9.26128 9.3303C10.0374 9.3303 10.4254 9.3303 10.5579 9.5663C10.5597 9.56994 10.5616 9.57367 10.5635 9.57749C10.6875 9.81722 10.4627 10.1213 10.0131 10.7295L8.94226 12.1799C8.24918 13.1174 7.90311 13.5866 7.58036 13.4868C7.25761 13.3879 7.25761 12.8133 7.25761 11.6632V11.555C7.25761 11.1409 7.25761 10.9329 7.12515 10.8032L7.11769 10.7967C6.98243 10.6689 6.76695 10.6689 6.33599 10.6689C5.55992 10.6689 5.17188 10.6689 5.03942 10.4338C5.03749 10.4297 5.03562 10.4258 5.03382 10.4217C4.90976 10.1829 5.13457 9.87786 5.58417 9.26967Z" fill="url(#paint2_linear_17_2139)"/>
</g>
<defs>
<linearGradient id="paint0_linear_17_2139" x1="1.6" y1="13.1708" x2="4.82362" y2="-0.0931896" gradientUnits="userSpaceOnUse">
<stop stop-color="#22B4FA"/>
<stop offset="1" stop-color="#6BD6FE"/>
</linearGradient>
<linearGradient id="paint1_linear_17_2139" x1="1.6" y1="13.1708" x2="4.82362" y2="-0.0931896" gradientUnits="userSpaceOnUse">
<stop stop-color="#22B4FA"/>
<stop offset="1" stop-color="#6BD6FE"/>
</linearGradient>
<linearGradient id="paint2_linear_17_2139" x1="5" y1="13.5" x2="11.7278" y2="12.1551" gradientUnits="userSpaceOnUse">
<stop stop-color="#6BD6FE"/>
<stop offset="1" stop-color="white"/>
</linearGradient>
<clipPath id="clip0_17_2139">
<rect width="16" height="16" fill="white"/>
</clipPath>
</defs>
</svg>
