<svg width="16" height="16" viewBox="0 0 16 16" fill="none" xmlns="http://www.w3.org/2000/svg">
<g clip-path="url(#clip0_15_1113)">
<path fill-rule="evenodd" clip-rule="evenodd" d="M0 8C0 12.1064 3.0936 15.4896 7.0776 15.9472C7.6656 16.0152 8.2352 15.7648 8.6536 15.3464C8.77789 15.2221 8.87644 15.0745 8.94371 14.9122C9.01098 14.7498 9.0456 14.5758 9.0456 14.4C9.0456 14.2242 9.01098 14.0502 8.94371 13.8878C8.87644 13.7255 8.77789 13.5779 8.6536 13.4536C8.2352 13.0352 7.8936 12.4112 8.2096 11.9104C8.6712 11.1784 9.8368 11.3288 11.1312 11.496C13.3736 11.7864 16 12.1256 16 8C16 3.5816 12.4184 0 8 0C3.5816 0 0 3.5816 0 8ZM10.1819 13.6104C10.1819 12.9218 10.7401 12.3636 11.4286 12.3636C12.1172 12.3636 12.6754 12.9218 12.6754 13.6104C12.6754 14.2989 12.1172 14.8571 11.4286 14.8571C10.7401 14.8571 10.1819 14.2989 10.1819 13.6104Z" fill="url(#paint0_linear_15_1113)"/>
<path d="M6.32255 4.83635C6.32255 5.15461 6.19615 5.45984 5.97114 5.68488C5.74604 5.90992 5.44085 6.03635 5.12259 6.03635C4.80433 6.03635 4.49911 5.90992 4.27406 5.68488C4.04902 5.45984 3.92259 5.15461 3.92259 4.83635C3.92259 4.51809 4.04902 4.21286 4.27406 3.98782C4.49911 3.76277 4.80433 3.63635 5.12259 3.63635C5.44085 3.63635 5.74604 3.76277 5.97114 3.98782C6.19615 4.21286 6.32255 4.51809 6.32255 4.83635ZM2.65459 9.63637C2.97285 9.63637 3.27807 9.50989 3.50312 9.28488C3.72816 9.05986 3.85459 8.75462 3.85459 8.43637C3.85459 8.11811 3.72816 7.81288 3.50312 7.58779C3.27807 7.36277 2.97285 7.23635 2.65459 7.23635C2.33633 7.23635 2.03111 7.36277 1.80606 7.58779C1.58102 7.81288 1.45459 8.11811 1.45459 8.43637C1.45459 8.75462 1.58102 9.05986 1.80606 9.28488C2.03111 9.50989 2.33633 9.63637 2.65459 9.63637ZM11.4546 9.63637C11.7729 9.63637 12.078 9.50989 12.3031 9.28488C12.5282 9.05986 12.6546 8.75462 12.6546 8.43637C12.6546 8.11811 12.5282 7.81288 12.3031 7.58779C12.078 7.36277 11.7729 7.23635 11.4546 7.23635C11.1363 7.23635 10.8311 7.36277 10.606 7.58779C10.381 7.81288 10.2546 8.11811 10.2546 8.43637C10.2546 8.75462 10.381 9.05986 10.606 9.28488C10.8311 9.50989 11.1363 9.63637 11.4546 9.63637ZM9.05455 6.03635C9.21215 6.03635 9.36823 6.00531 9.51383 5.94501C9.65943 5.8847 9.79172 5.79631 9.90314 5.68488C10.0146 5.57345 10.1029 5.44116 10.1633 5.29557C10.2236 5.14998 10.2546 4.99394 10.2546 4.83635C10.2546 4.67876 10.2236 4.52272 10.1633 4.37713C10.1029 4.23154 10.0146 4.09925 9.90314 3.98782C9.79172 3.87639 9.65943 3.788 9.51383 3.72769C9.36823 3.66739 9.21215 3.63635 9.05455 3.63635C8.7363 3.63635 8.43114 3.76277 8.20604 3.98782C7.98103 4.21286 7.85455 4.51809 7.85455 4.83635C7.85455 5.15461 7.98103 5.45984 8.20604 5.68488C8.43114 5.90992 8.7363 6.03635 9.05455 6.03635Z" fill="#8C4FD9"/>
<path d="M7.26799 3.99999C7.26799 4.31824 7.14159 4.62347 6.91657 4.84851C6.69148 5.07356 6.38629 5.19999 6.06802 5.19999C5.74976 5.19999 5.44454 5.07356 5.21949 4.84851C4.99445 4.62347 4.86802 4.31824 4.86802 3.99999C4.86802 3.68173 4.99445 3.3765 5.21949 3.15146C5.44454 2.92641 5.74976 2.79999 6.06802 2.79999C6.38629 2.79999 6.69148 2.92641 6.91657 3.15146C7.14159 3.3765 7.26799 3.68173 7.26799 3.99999ZM3.60002 8.8C3.91829 8.8 4.22351 8.67353 4.44856 8.44851C4.6736 8.22349 4.80002 7.91826 4.80002 7.6C4.80002 7.28175 4.6736 6.97651 4.44856 6.75142C4.22351 6.52641 3.91829 6.39999 3.60002 6.39999C3.28176 6.39999 2.97654 6.52641 2.75149 6.75142C2.52645 6.97651 2.40002 7.28175 2.40002 7.6C2.40002 7.91826 2.52645 8.22349 2.75149 8.44851C2.97654 8.67353 3.28176 8.8 3.60002 8.8ZM12.4 8.8C12.7183 8.8 13.0235 8.67353 13.2486 8.44851C13.4736 8.22349 13.6 7.91826 13.6 7.6C13.6 7.28175 13.4736 6.97651 13.2486 6.75142C13.0235 6.52641 12.7183 6.39999 12.4 6.39999C12.0817 6.39999 11.7766 6.52641 11.5515 6.75142C11.3265 6.97651 11.2 7.28175 11.2 7.6C11.2 7.91826 11.3265 8.22349 11.5515 8.44851C11.7766 8.67353 12.0817 8.8 12.4 8.8ZM9.99999 5.19999C10.1576 5.19999 10.3137 5.16895 10.4593 5.10864C10.6049 5.04834 10.7372 4.95994 10.8486 4.84851C10.96 4.73709 11.0484 4.6048 11.1087 4.4592C11.169 4.31362 11.2 4.15757 11.2 3.99999C11.2 3.8424 11.169 3.68636 11.1087 3.54077C11.0484 3.39517 10.96 3.26289 10.8486 3.15146C10.7372 3.04002 10.6049 2.95163 10.4593 2.89133C10.3137 2.83102 10.1576 2.79999 9.99999 2.79999C9.68173 2.79999 9.37657 2.92641 9.15148 3.15146C8.92646 3.3765 8.79999 3.68173 8.79999 3.99999C8.79999 4.31824 8.92646 4.62347 9.15148 4.84851C9.37657 5.07356 9.68173 5.19999 9.99999 5.19999Z" fill="url(#paint1_linear_15_1113)"/>
</g>
<defs>
<linearGradient id="paint0_linear_15_1113" x1="4" y1="14.8184" x2="14.5564" y2="2.47044" gradientUnits="userSpaceOnUse">
<stop stop-color="#A056FF"/>
<stop offset="1" stop-color="#C59AFD"/>
</linearGradient>
<linearGradient id="paint1_linear_15_1113" x1="5.20002" y1="8.8" x2="13.9469" y2="3.35753" gradientUnits="userSpaceOnUse">
<stop stop-color="#C59AFD"/>
<stop offset="1" stop-color="white"/>
</linearGradient>
<clipPath id="clip0_15_1113">
<rect width="16" height="16" fill="white"/>
</clipPath>
</defs>
</svg>
