<svg width="16" height="16" viewBox="0 0 16 16" fill="none" xmlns="http://www.w3.org/2000/svg">
<g clip-path="url(#clip0_271_139)">
<path opacity="0.5" fill-rule="evenodd" clip-rule="evenodd" d="M3 8C3 10 1.336 10.163 1.276 10.193C0.781 10.437 0.577 11.037 0.821 11.532C2.126 14.178 4.852 16 8 16C12.415 16 16 12.415 16 8C16 3.585 12.415 0 8 0C4.852 0 2.126 1.822 0.821 4.468C0.577 4.963 0.781 5.563 1.276 5.807C1.336 5.837 3 6 3 8ZM1 7C0.448 7 0 7.448 0 8C0 8.552 0.448 9 1 9C1.552 9 2 8.552 2 8C2 7.448 1.552 7 1 7Z" fill="url(#paint0_linear_271_139)"/>
<path fill-rule="evenodd" clip-rule="evenodd" d="M6.5 5.14288V8.57151C6.5 8.95323 6.69086 9.31095 7.00858 9.52239L10.4372 11.8081C10.9629 12.1579 11.6727 12.0161 12.0224 11.4916C12.3721 10.9658 12.2304 10.2561 11.7058 9.90639L8.78576 7.96007V5.14288C8.78576 4.51201 8.27375 4 7.64288 4C7.01201 4 6.5 4.51201 6.5 5.14288Z" fill="url(#paint1_linear_271_139)"/>
</g>
<defs>
<linearGradient id="paint0_linear_271_139" x1="3" y1="14.9988" x2="12.9991" y2="2.999" gradientUnits="userSpaceOnUse">
<stop stop-color="#FF8860"/>
<stop offset="1" stop-color="#FBD92C"/>
</linearGradient>
<linearGradient id="paint1_linear_271_139" x1="7.57142" y1="11.4994" x2="12.5946" y2="7.19352" gradientUnits="userSpaceOnUse">
<stop stop-color="#FF8860"/>
<stop offset="1" stop-color="#FBD92C"/>
</linearGradient>
<clipPath id="clip0_271_139">
<rect width="16" height="16" fill="white"/>
</clipPath>
</defs>
</svg>
