<svg width="16" height="16" viewBox="0 0 16 16" fill="none" xmlns="http://www.w3.org/2000/svg">
<path fill-rule="evenodd" clip-rule="evenodd" d="M10.1398 13.2887C10.5931 13.6597 11.2086 13.9994 11.7148 13.7046C11.858 13.6212 11.9986 13.5328 12.1364 13.4394C12.3554 13.291 12.6514 13.3081 12.8384 13.4952L13.7752 14.4319C13.9548 14.6115 14.1988 14.7126 14.4532 14.7126C14.9798 14.7126 15.4126 14.2798 15.4126 13.7533C15.4126 13.4989 15.3114 13.2549 15.1319 13.0752L14.1951 12.1385C14.0081 11.9514 13.991 11.6554 14.1394 11.4364C14.9552 10.2326 15.3948 8.80898 15.3954 7.34774C15.3954 3.31709 12.0783 0 8.04769 0C4.01704 0 0.699951 3.31709 0.699951 7.34774C0.699951 10.6949 2.98738 13.5499 6.07135 14.422C6.63523 14.5814 7.14566 14.0976 7.4925 13.6252C7.82721 13.1694 8.36696 12.8736 8.97581 12.8736C9.41746 12.8736 9.82275 13.0292 10.1398 13.2887ZM9.15972 16C9.76914 16 10.2632 15.506 10.2632 14.8966C10.2632 14.2871 9.76914 13.7931 9.15972 13.7931C8.5503 13.7931 8.05627 14.2871 8.05627 14.8966C8.05627 15.506 8.5503 16 9.15972 16Z" fill="url(#paint0_linear_252_346)"/>
<path fill-rule="evenodd" clip-rule="evenodd" d="M0.838672 5.93237C1.03764 4.92967 1.44342 3.99758 2.00901 3.18311C1.89671 3.51701 2.19516 4.13896 2.61474 4.13896H4.45861C4.80401 4.13896 5.08401 4.41896 5.08401 4.76436V5.30699C5.08401 5.65237 4.80401 5.93237 4.45861 5.93237H0.838672ZM3.1068 12.7667C3.18172 12.6636 3.2259 12.5367 3.2259 12.3995V11.8569C3.2259 11.5115 2.94592 11.2315 2.60051 11.2315H1.82331C2.1806 11.7993 2.61327 12.3159 3.1068 12.7667ZM0.907025 9.07194C0.771739 8.51816 0.699951 7.94065 0.699951 7.34769C0.699951 7.32437 0.700062 7.30107 0.700284 7.2778H3.56192C3.9073 7.2778 4.18731 7.5578 4.18731 7.90319V8.44654C4.18731 8.79195 3.9073 9.07194 3.56192 9.07194H0.907025ZM8.67228 8.44654C8.67228 8.79195 8.95227 9.07194 9.29768 9.07194H11.6345C11.9799 9.07194 12.2599 8.79195 12.2599 8.44654V7.90319C12.2599 7.5578 11.9799 7.2778 11.6345 7.2778H9.29768C8.95227 7.2778 8.67228 7.5578 8.67228 7.90319V8.44654ZM5.08401 8.44654C5.08401 8.79195 5.36401 9.07194 5.70939 9.07194H6.70146C7.04687 9.07194 7.32686 8.79195 7.32686 8.44654V7.90319C7.32686 7.5578 7.04687 7.2778 6.70146 7.2778H5.70939C5.36401 7.2778 5.08401 7.5578 5.08401 7.90319V8.44654ZM6.42942 5.30699C6.42942 5.65237 6.70942 5.93237 7.05482 5.93237H9.39231C9.73771 5.93237 10.0177 5.65237 10.0177 5.30699V4.76436C10.0177 4.41896 9.73771 4.13896 9.39231 4.13896H7.05482C6.70942 4.13896 6.42942 4.41896 6.42942 4.76436V5.30699Z" fill="#7FD1AE"/>
<path fill-rule="evenodd" clip-rule="evenodd" d="M3.07166 12.5994C1.58644 11.4247 0.699951 9.25305 0.699951 7.22724C0.699951 6.5509 0.80597 5.89904 1.00248 5.28696C0.993757 5.31488 0.985205 5.34286 0.976864 5.37089C0.865867 5.74345 1.16205 6.0956 1.55079 6.0956H4.61282C4.95819 6.0956 5.23821 6.3756 5.23821 6.72099V7.26434C5.23821 7.60975 4.95819 7.88974 4.61282 7.88974H1.43682C1.06609 7.88974 0.77431 8.21149 0.851984 8.57397C0.904001 8.81679 0.970085 9.05652 1.04984 9.29195C1.13111 9.53186 1.29746 10.0493 1.55079 10.0493H3.65141C3.99682 10.0493 4.27681 10.3293 4.27681 10.6747V11.2173C4.27681 11.5627 3.99682 11.8427 3.65141 11.8427H3.60097C3.15338 11.8427 2.8956 12.2693 3.07166 12.5994ZM1.06548 5.10079C1.46987 3.96425 2.14072 2.71156 3.07166 1.97046C2.92907 2.2953 3.23294 2.95676 3.66564 2.95676H5.50951C5.8549 2.95676 6.1349 3.23676 6.1349 3.58216V4.12479C6.1349 4.47018 5.8549 4.75018 5.50951 4.75018H1.61521C1.37675 4.75018 1.15804 4.88482 1.06548 5.10079ZM10.3486 7.88974C10.0032 7.88974 9.72319 7.60975 9.72319 7.26434V6.72099C9.72319 6.3756 10.0032 6.0956 10.3486 6.0956H12.6853C13.0307 6.0956 13.3108 6.3756 13.3108 6.72099V7.26434C13.3108 7.60975 13.0307 7.88974 12.6853 7.88974H10.3486ZM6.7603 7.88974C6.4149 7.88974 6.1349 7.60975 6.1349 7.26434V6.72099C6.1349 6.3756 6.4149 6.0956 6.7603 6.0956H7.75236C8.09777 6.0956 8.37776 6.3756 8.37776 6.72099V7.26434C8.37776 7.60975 8.09777 7.88974 7.75236 7.88974H6.7603ZM8.10572 4.75018C7.76033 4.75018 7.48033 4.47018 7.48033 4.12479V3.58216C7.48033 3.23676 7.76033 2.95676 8.10572 2.95676H10.4432C10.7886 2.95676 11.0686 3.23676 11.0686 3.58216V4.12479C11.0686 4.47018 10.7886 4.75018 10.4432 4.75018H8.10572Z" fill="url(#paint1_linear_252_346)"/>
<defs>
<linearGradient id="paint0_linear_252_346" x1="2.53903" y1="14.0004" x2="16.4147" y2="11.0561" gradientUnits="userSpaceOnUse">
<stop stop-color="#62E8AF"/>
<stop offset="1" stop-color="#B3FBDC"/>
</linearGradient>
<linearGradient id="paint1_linear_252_346" x1="0.699951" y1="12.5994" x2="3.38048" y2="-0.121961" gradientUnits="userSpaceOnUse">
<stop stop-color="#B3FBDC"/>
<stop offset="1" stop-color="white"/>
</linearGradient>
</defs>
</svg>
