<svg width="16" height="16" viewBox="0 0 16 16" fill="none" xmlns="http://www.w3.org/2000/svg">
<path fill-rule="evenodd" clip-rule="evenodd" d="M2.70229 11.7606C2.70127 11.7606 2.70041 11.7614 2.70041 11.7625L2.70059 11.7634C2.72856 11.8633 2.83841 12.1724 3.19291 12.5268C3.66301 12.9966 4.6192 13.6018 6.54329 13.8577H10.0452C11.9811 13.8288 12.9068 13.2227 13.3549 12.7245C13.7354 12.3015 13.8319 11.8891 13.851 11.7859L13.8513 11.784L13.8513 11.7822C13.8513 11.7703 13.8417 11.7606 13.8297 11.7606H12.9273C12.7693 11.7606 12.6412 11.8887 12.6412 12.0467V12.4068C12.6412 12.6868 12.4143 12.9137 12.1343 12.9137H9.73942C9.45948 12.9137 9.23258 12.6868 9.23258 12.4068V12.0467C9.23258 11.8887 9.1045 11.7606 8.94649 11.7606H8.27586H7.60524C7.44726 11.7606 7.31917 11.8887 7.31917 12.0467V12.4068C7.31917 12.6868 7.09225 12.9137 6.81231 12.9137H4.41741C4.13746 12.9137 3.91054 12.6868 3.91054 12.4068V12.0467C3.91054 11.8887 3.78246 11.7606 3.62444 11.7606H2.70229ZM13.8517 11.8513L13.8516 11.8465C13.852 11.8598 13.8524 11.871 13.8517 11.8513ZM7.55349 1.45064C7.44842 1.13538 7.12502 0.947708 6.79915 1.01288L4.62397 1.44792C4.31597 1.50952 4.09426 1.77995 4.09426 2.09406V3.35509C4.09426 3.45076 4.04648 3.54008 3.96687 3.59313L3.55606 3.86704C3.45995 3.93109 3.33476 3.93109 3.23868 3.86704L2.44215 3.33603C2.11237 3.11619 1.66455 3.23512 1.48731 3.58963L0.621305 5.3216C0.494469 5.57529 0.544187 5.88166 0.744736 6.08224L1.34947 6.68695C1.40311 6.74061 1.43326 6.81335 1.43326 6.88924V7.38726C1.43326 7.86314 1.79766 8.25118 2.16308 8.55603C2.52701 8.85965 2.75859 9.31658 2.75859 9.82759C2.75859 10.4975 2.36064 11.0744 1.78825 11.3349C1.59026 11.425 1.43326 11.6063 1.43326 11.8238C1.43308 11.8425 1.43372 11.862 1.4354 11.8823C1.43689 11.9003 1.43884 11.9146 1.43983 11.9214C1.45673 12.0384 1.58287 12.7091 2.29716 13.423C3.01244 14.1379 4.26113 14.8398 6.42042 15.1197L6.46094 15.1249H6.50185H10.0499H10.0545L10.0591 15.1249C12.279 15.0926 13.5683 14.382 14.297 13.572C15.0091 12.7803 15.1064 11.981 15.1152 11.8949L15.1153 11.8943C15.1157 11.8897 15.1168 11.8784 15.1176 11.8641C15.118 11.8558 15.1184 11.8463 15.1185 11.8359V11.8245V6.88924C15.1185 6.81335 15.1486 6.74061 15.2023 6.68695L15.807 6.08224C16.0075 5.88166 16.0572 5.57529 15.9304 5.3216L15.0644 3.58963C14.8872 3.23512 14.4393 3.11619 14.1096 3.33603L13.3131 3.86704C13.217 3.93109 13.0918 3.93109 12.9957 3.86704L12.5849 3.59313C12.5053 3.54008 12.4575 3.45076 12.4575 3.35509V2.09406C12.4575 1.77995 12.2358 1.50952 11.9278 1.44792L9.75256 1.01288C9.42673 0.947708 9.10331 1.13538 8.99824 1.45064L8.77142 2.13109C8.73247 2.24792 8.62318 2.3267 8.50003 2.3267H8.05173C7.92858 2.3267 7.81926 2.24792 7.78033 2.13109L7.55349 1.45064ZM1.10345 10.931C1.71287 10.931 2.2069 10.437 2.2069 9.82759C2.2069 9.21817 1.71287 8.72414 1.10345 8.72414C0.494031 8.72414 0 9.21817 0 9.82759C0 10.437 0.494031 10.931 1.10345 10.931Z" fill="url(#paint0_linear_144_15827)"/>
<rect x="2.75867" y="7.06897" width="3.31035" height="3.31035" rx="1" fill="#279FD7"/>
<rect x="9.37927" y="7.06897" width="3.31035" height="3.31035" rx="1" fill="#279FD7"/>
<rect x="3.53101" y="6.18622" width="3.31035" height="3.31035" rx="1" fill="url(#paint1_linear_144_15827)"/>
<rect x="10.1517" y="6.18622" width="3.31035" height="3.31035" rx="1" fill="url(#paint2_linear_144_15827)"/>
<defs>
<linearGradient id="paint0_linear_144_15827" x1="1.6" y1="15.1293" x2="6.20521" y2="-0.522295" gradientUnits="userSpaceOnUse">
<stop offset="0.190745" stop-color="#22B4FA"/>
<stop offset="0.896724" stop-color="#7DDCFF"/>
</linearGradient>
<linearGradient id="paint1_linear_144_15827" x1="3.53101" y1="9.49656" x2="7.42553" y2="8.52293" gradientUnits="userSpaceOnUse">
<stop stop-color="#6BD6FE"/>
<stop offset="1" stop-color="white"/>
</linearGradient>
<linearGradient id="paint2_linear_144_15827" x1="10.1517" y1="9.49656" x2="14.0463" y2="8.52293" gradientUnits="userSpaceOnUse">
<stop stop-color="#6BD6FE"/>
<stop offset="1" stop-color="white"/>
</linearGradient>
</defs>
</svg>
