<svg width="16" height="16" viewBox="0 0 16 16" fill="none" xmlns="http://www.w3.org/2000/svg">
<g clip-path="url(#clip0_92_258)">
<path fill-rule="evenodd" clip-rule="evenodd" d="M1 13C0.448 13 0 12.552 0 12V3.992C0 1.787 1.787 0 3.992 0C6.357 0 9.643 0 12.008 0C13.067 0 14.082 0.421001 14.831 1.169C15.579 1.918 16 2.933 16 3.992C16 6.357 16 9.643 16 12.008C16 14.213 14.213 16 12.008 16C8.751 16 4 16 4 16C3.448 16 3 15.552 3 15C3 13.896 2.104 13 1 13ZM1 14C1.552 14 2 14.448 2 15C2 15.552 1.552 16 1 16C0.448 16 0 15.552 0 15C0 14.448 0.448 14 1 14Z" fill="url(#paint0_linear_92_258)"/>
<path d="M6.99998 3.63C4.03398 3.63 1.59998 6.06405 1.59998 9.03001C1.59998 11.996 4.03398 14.43 6.99998 14.43C9.96593 14.43 12.4 11.996 12.4 9.03001C12.4 6.06405 9.96593 3.63 6.99998 3.63ZM6.99998 13.7972C4.38282 13.7972 2.23279 11.6472 2.23279 9.03001C2.23279 6.41285 4.38282 4.26282 6.99998 4.26282C9.61713 4.26282 11.7672 6.41285 11.7672 9.03001C11.7672 11.6472 9.61713 13.7972 6.99998 13.7972ZM5.76987 11.945C5.39356 11.7855 5.05488 11.5572 4.76387 11.2661C4.47276 10.9751 4.24442 10.6364 4.08497 10.2601C4.01698 10.0988 3.82973 10.0237 3.6703 10.092C3.50932 10.16 3.43426 10.3457 3.50222 10.5067C3.69346 10.9584 3.96724 11.3644 4.3164 11.7135C4.66557 12.0628 5.07159 12.3365 5.52332 12.5278C5.68406 12.5959 5.87003 12.5208 5.93794 12.3596C6.00595 12.1987 5.93086 12.013 5.76987 11.945ZM10.4977 7.55335C10.3065 7.10162 10.0327 6.6956 9.68351 6.34637C9.33438 5.99723 8.92837 5.72352 8.47663 5.53225C8.31656 5.46457 8.12993 5.53874 8.06201 5.70032C7.994 5.8613 8.06909 6.04701 8.23008 6.11494C8.60639 6.2744 8.94507 6.50281 9.23608 6.79382C9.52718 7.08491 9.7555 7.42359 9.91496 7.7999C9.98313 7.96139 10.1694 8.03582 10.3297 7.96797C10.4907 7.90005 10.5657 7.71435 10.4977 7.55335ZM6.99998 6.81515C5.77882 6.81515 4.78513 7.80885 4.78513 9.03001C4.78513 10.2512 5.77882 11.2449 6.99998 11.2449C8.22113 11.2449 9.21483 10.2512 9.21483 9.03001C9.21483 7.80885 8.22113 6.81515 6.99998 6.81515ZM6.99998 10.612C6.12771 10.612 5.41794 9.90227 5.41794 9.03001C5.41794 8.15774 6.12771 7.44797 6.99998 7.44797C7.87224 7.44797 8.58201 8.15774 8.58201 9.03001C8.58201 9.90227 7.87224 10.612 6.99998 10.612ZM6.99998 8.08078C6.47652 8.08078 6.05075 8.50655 6.05075 9.03001C6.05075 9.55346 6.47652 9.97923 6.99998 9.97923C7.52343 9.97923 7.9492 9.55346 7.9492 9.03001C7.9492 8.50655 7.52343 8.08078 6.99998 8.08078ZM6.99998 9.34641C6.82541 9.34641 6.68357 9.20457 6.68357 9.03001C6.68357 8.85544 6.82541 8.7136 6.99998 8.7136C7.17454 8.7136 7.31638 8.85544 7.31638 9.03001C7.31638 9.20457 7.17454 9.34641 6.99998 9.34641Z" fill="#7FD1AE" stroke="#7FD1AE" stroke-width="0.4"/>
<path d="M8.19993 2.42999C5.23394 2.42999 2.79993 4.86403 2.79993 7.82999C2.79993 10.796 5.23394 13.23 8.19993 13.23C11.1659 13.23 13.5999 10.796 13.5999 7.82999C13.5999 4.86403 11.1659 2.42999 8.19993 2.42999ZM8.19993 12.5972C5.58278 12.5972 3.43274 10.4471 3.43274 7.82999C3.43274 5.21284 5.58278 3.06281 8.19993 3.06281C10.8171 3.06281 12.9671 5.21284 12.9671 7.82999C12.9671 10.4471 10.8171 12.5972 8.19993 12.5972ZM6.96982 10.745C6.59351 10.5855 6.25483 10.3572 5.96382 10.0661C5.67271 9.77509 5.44437 9.43641 5.28493 9.0601C5.21693 8.89877 5.02969 8.82367 4.87025 8.89203C4.70927 8.95995 4.63421 9.14565 4.70217 9.30665C4.89341 9.75838 5.16719 10.1644 5.51636 10.5135C5.86552 10.8628 6.27154 11.1365 6.72327 11.3278C6.88401 11.3958 7.06999 11.3207 7.13789 11.1596C7.2059 10.9987 7.13081 10.813 6.96982 10.745ZM11.6977 6.35334C11.5064 5.9016 11.2327 5.49559 10.8835 5.14636C10.5343 4.79722 10.1283 4.52351 9.67658 4.33223C9.51651 4.26455 9.32988 4.33873 9.26196 4.5003C9.19395 4.66129 9.26905 4.847 9.43003 4.91493C9.80635 5.07439 10.145 5.30279 10.436 5.5938C10.7271 5.8849 10.9554 6.22357 11.1149 6.59989C11.1831 6.76138 11.3693 6.8358 11.5296 6.76796C11.6906 6.70003 11.7657 6.51434 11.6977 6.35334ZM8.19993 5.61514C6.97877 5.61514 5.98508 6.60884 5.98508 7.82999C5.98508 9.05115 6.97877 10.0448 8.19993 10.0448C9.42108 10.0448 10.4148 9.05115 10.4148 7.82999C10.4148 6.60884 9.42108 5.61514 8.19993 5.61514ZM8.19993 9.41203C7.32766 9.41203 6.61789 8.70226 6.61789 7.82999C6.61789 6.95773 7.32766 6.24796 8.19993 6.24796C9.07219 6.24796 9.78196 6.95773 9.78196 7.82999C9.78196 8.70226 9.07219 9.41203 8.19993 9.41203ZM8.19993 6.88077C7.67647 6.88077 7.25071 7.30654 7.25071 7.82999C7.25071 8.35345 7.67647 8.77921 8.19993 8.77921C8.72338 8.77921 9.14915 8.35345 9.14915 7.82999C9.14915 7.30654 8.72338 6.88077 8.19993 6.88077ZM8.19993 8.1464C8.02536 8.1464 7.88352 8.00456 7.88352 7.82999C7.88352 7.65543 8.02536 7.51359 8.19993 7.51359C8.37449 7.51359 8.51633 7.65543 8.51633 7.82999C8.51633 8.00456 8.37449 8.1464 8.19993 8.1464Z" fill="url(#paint1_linear_92_258)" stroke="url(#paint2_linear_92_258)" stroke-width="0.4"/>
</g>
<defs>
<linearGradient id="paint0_linear_92_258" x1="2" y1="14.0004" x2="16.972" y2="10.5455" gradientUnits="userSpaceOnUse">
<stop stop-color="#62E8AF"/>
<stop offset="1" stop-color="#B3FBDC"/>
</linearGradient>
<linearGradient id="paint1_linear_92_258" x1="2.79993" y1="13.23" x2="5.9764" y2="0.52411" gradientUnits="userSpaceOnUse">
<stop stop-color="#B3FBDC"/>
<stop offset="1" stop-color="white"/>
</linearGradient>
<linearGradient id="paint2_linear_92_258" x1="2.79993" y1="13.23" x2="5.9764" y2="0.52411" gradientUnits="userSpaceOnUse">
<stop stop-color="#B3FBDC"/>
<stop offset="1" stop-color="white"/>
</linearGradient>
<clipPath id="clip0_92_258">
<rect width="16" height="16" fill="white"/>
</clipPath>
</defs>
</svg>
