<svg width="16" height="16" viewBox="0 0 16 16" fill="none" xmlns="http://www.w3.org/2000/svg">
<g clip-path="url(#clip0_40_1450)">
<path fill-rule="evenodd" clip-rule="evenodd" d="M1 13C0.448 13 0 12.552 0 12V3.992C0 1.787 1.787 0 3.992 0C6.357 0 9.643 0 12.008 0C13.067 0 14.082 0.421001 14.831 1.169C15.579 1.918 16 2.933 16 3.992C16 6.357 16 9.643 16 12.008C16 14.213 14.213 16 12.008 16C8.751 16 4 16 4 16C3.448 16 3 15.552 3 15C3 13.896 2.104 13 1 13ZM1 14C1.552 14 2 14.448 2 15C2 15.552 1.552 16 1 16C0.448 16 0 15.552 0 15C0 14.448 0.448 14 1 14Z" fill="url(#paint0_linear_40_1450)"/>
<path opacity="0.7" d="M13.7143 11.2352C13.7143 11.4944 13.6114 11.743 13.4281 11.9263C13.2448 12.1096 12.9962 12.2125 12.737 12.2125H8.85885C8.59968 12.2125 8.35107 12.1096 8.16777 11.9263C7.98448 11.743 7.88153 11.4944 7.88153 11.2352C7.88153 10.976 7.98448 10.7274 8.16777 10.5441C8.35107 10.3609 8.59968 10.2579 8.85885 10.2579H12.737C12.9962 10.2579 13.2448 10.3609 13.4281 10.5441C13.6114 10.7274 13.7143 10.976 13.7143 11.2352Z" fill="#B85C68"/>
<path d="M14.8571 10.0924C14.8571 10.3516 14.7542 10.6001 14.5709 10.7834C14.3876 10.9667 14.139 11.0697 13.8798 11.0697H10.0017C9.74251 11.0697 9.49389 10.9667 9.31059 10.7834C9.1273 10.6001 9.02435 10.3516 9.02435 10.0924C9.02435 9.8332 9.1273 9.58459 9.31059 9.40129C9.49389 9.21808 9.74251 9.11505 10.0017 9.11505H13.8798C14.139 9.11505 14.3876 9.21808 14.5709 9.40129C14.7542 9.58459 14.8571 9.8332 14.8571 10.0924Z" fill="url(#paint1_linear_40_1450)"/>
<path opacity="0.7" fill-rule="evenodd" clip-rule="evenodd" d="M4.28571 4.14286C4.28571 4.06396 4.34966 4 4.42857 4H5.2857C5.36461 4 5.42856 4.06396 5.42856 4.14286V5C5.42856 5.0789 5.49251 5.14286 5.57141 5.14286H5.99999C6.67587 5.14286 7.2525 5.53328 7.53097 6.09953C7.57449 6.18802 7.50586 6.28571 7.40725 6.28571H5.99999H5.57141C5.49251 6.28571 5.42856 6.34967 5.42856 6.42857V7.28569C5.42856 7.36462 5.49251 7.42859 5.57141 7.42859H5.99999C6.94969 7.42859 7.71429 8.19312 7.71429 9.14281C7.71429 10.0926 6.94969 10.8571 5.99999 10.8571H5.57141C5.49251 10.8571 5.42856 10.9211 5.42856 11.0001V11.8571C5.42856 11.936 5.36461 12 5.2857 12H4.42857C4.34966 12 4.28571 11.936 4.28571 11.8571V11.0001C4.28571 10.9211 4.22174 10.8571 4.14284 10.8571H3.71428C3.0384 10.8571 2.46175 10.4667 2.18333 9.90044C2.1398 9.81199 2.20839 9.7143 2.30702 9.7143H3.71428H4.14284C4.22174 9.7143 4.28571 9.65032 4.28571 9.57139V8.71425C4.28571 8.63538 4.22174 8.57141 4.14284 8.57141H3.71428C2.76457 8.57141 2 7.80688 2 6.85711C2 5.90742 2.76457 5.14286 3.71428 5.14286H4.14284C4.22174 5.14286 4.28571 5.0789 4.28571 5V4.14286ZM4.14284 6.28571H3.71428C3.37794 6.28571 3.14284 6.5208 3.14284 6.85711C3.14284 7.19349 3.37794 7.42859 3.71428 7.42859H4.14284C4.22174 7.42859 4.28571 7.36462 4.28571 7.28569V6.42857C4.28571 6.34967 4.22174 6.28571 4.14284 6.28571ZM5.57141 8.57141C5.49251 8.57141 5.42856 8.63538 5.42856 8.71425V9.57139C5.42856 9.65032 5.49251 9.7143 5.57141 9.7143H5.99999C6.33631 9.7143 6.5714 9.4792 6.5714 9.14281C6.5714 8.80651 6.33631 8.57141 5.99999 8.57141H5.57141Z" fill="#B85C68"/>
<path fill-rule="evenodd" clip-rule="evenodd" d="M5.28571 3.14286C5.28571 3.06396 5.34966 3 5.42857 3H6.2857C6.36461 3 6.42856 3.06396 6.42856 3.14286V4C6.42856 4.0789 6.49251 4.14286 6.57141 4.14286H6.99999C7.67587 4.14286 8.2525 4.53328 8.53097 5.09953C8.57449 5.18802 8.50586 5.28571 8.40725 5.28571H6.99999H6.57141C6.49251 5.28571 6.42856 5.34967 6.42856 5.42857V6.28569C6.42856 6.36462 6.49251 6.42859 6.57141 6.42859H6.99999C7.94969 6.42859 8.71429 7.19312 8.71429 8.14281C8.71429 9.09258 7.94969 9.85711 6.99999 9.85711H6.57141C6.49251 9.85711 6.42856 9.92112 6.42856 10.0001V10.8571C6.42856 10.936 6.36461 11 6.2857 11H5.42857C5.34966 11 5.28571 10.936 5.28571 10.8571V10.0001C5.28571 9.92112 5.22174 9.85711 5.14284 9.85711H4.71428C4.0384 9.85711 3.46175 9.4667 3.18333 8.90044C3.1398 8.81199 3.20839 8.7143 3.30702 8.7143H4.71428H5.14284C5.22174 8.7143 5.28571 8.65032 5.28571 8.57139V7.71425C5.28571 7.63538 5.22174 7.57141 5.14284 7.57141H4.71428C3.76457 7.57141 3 6.80688 3 5.85711C3 4.90742 3.76457 4.14286 4.71428 4.14286H5.14284C5.22174 4.14286 5.28571 4.0789 5.28571 4V3.14286ZM5.14284 5.28571H4.71428C4.37794 5.28571 4.14284 5.5208 4.14284 5.85711C4.14284 6.19349 4.37794 6.42859 4.71428 6.42859H5.14284C5.22174 6.42859 5.28571 6.36462 5.28571 6.28569V5.42857C5.28571 5.34967 5.22174 5.28571 5.14284 5.28571ZM6.57141 7.57141C6.49251 7.57141 6.42856 7.63538 6.42856 7.71425V8.57139C6.42856 8.65032 6.49251 8.7143 6.57141 8.7143H6.99999C7.33631 8.7143 7.5714 8.4792 7.5714 8.14281C7.5714 7.80651 7.33631 7.57141 6.99999 7.57141H6.57141Z" fill="url(#paint2_linear_40_1450)"/>
</g>
<defs>
<linearGradient id="paint0_linear_40_1450" x1="1.14286" y1="15.0204" x2="15.7918" y2="7.11491" gradientUnits="userSpaceOnUse">
<stop stop-color="#B42981"/>
<stop offset="0.5" stop-color="#FF4D4F"/>
<stop offset="1" stop-color="#FFC93A"/>
</linearGradient>
<linearGradient id="paint1_linear_40_1450" x1="9.44098" y1="10.95" x2="11.3599" y2="7.85974" gradientUnits="userSpaceOnUse">
<stop stop-color="#D4A4C4"/>
<stop offset="0.5" stop-color="#F7B1B3"/>
<stop offset="1" stop-color="#F7E1A3"/>
</linearGradient>
<linearGradient id="paint2_linear_40_1450" x1="3.40816" y1="10.5102" x2="9.28967" y2="8.24303" gradientUnits="userSpaceOnUse">
<stop stop-color="#D4A4C4"/>
<stop offset="0.5" stop-color="#F7B1B3"/>
<stop offset="1" stop-color="#F7E1A3"/>
</linearGradient>
<clipPath id="clip0_40_1450">
<rect width="16" height="16" fill="white"/>
</clipPath>
</defs>
</svg>
