<svg width="16" height="16" viewBox="0 0 16 16" fill="none" xmlns="http://www.w3.org/2000/svg">
<g clip-path="url(#clip0_5_75)">
<path fill-rule="evenodd" clip-rule="evenodd" d="M15 3C15.552 3 16 3.448 16 4V12.008C16 14.213 14.213 16 12.008 16C9.643 16 6.357 16 3.992 16C2.933 16 1.918 15.579 1.169 14.831C0.421 14.082 0 13.067 0 12.008C0 9.643 0 6.357 0 3.992C0 1.787 1.787 0 3.992 0C7.249 0 12 0 12 0C12.552 0 13 0.448 13 1C13 2.104 13.896 3 15 3ZM15 2C14.448 2 14 1.552 14 1C14 0.448 14.448 0 15 0C15.552 0 16 0.448 16 1C16 1.552 15.552 2 15 2Z" fill="url(#paint0_linear_5_75)"/>
<path fill-rule="evenodd" clip-rule="evenodd" d="M0.00012207 12.008C0.00012207 12.008 3.01512 8 3.89112 8C4.94912 8 5.91712 8.598 6.39012 9.544L7.27412 11.312L7.94112 10.645C8.35412 10.232 8.91412 10 9.49812 10H9.50212C10.0861 10 10.6461 10.232 11.0591 10.645L11.7111 11.297C12.1021 11.688 12.1021 12.321 11.7111 12.712C11.3211 13.102 10.6871 13.102 10.2971 12.712L9.64512 12.059C9.60712 12.021 9.55512 12 9.50212 12H9.49812C9.44412 12 9.39312 12.021 9.35512 12.059L8.49412 12.92C8.08412 13.33 7.50312 13.517 6.93112 13.425C6.35912 13.332 5.86712 12.97 5.60812 12.452L4.60112 10.439C4.46712 10.17 4.19212 10 3.89112 10C3.64512 10 3.41312 10.116 3.26512 10.313C2.40312 11.463 0.800122 13.6 0.800122 13.6C0.708122 13.722 0.595122 13.817 0.468122 13.884C0.164122 13.311 0.00012207 12.668 0.00012207 12.008Z" fill="#8C4FD9"/>
<path d="M9.5 9C10.8807 9 12 7.88071 12 6.5C12 5.11929 10.8807 4 9.5 4C8.11929 4 7 5.11929 7 6.5C7 7.88071 8.11929 9 9.5 9Z" fill="#8C4FD9"/>
<path fill-rule="evenodd" clip-rule="evenodd" d="M10.5001 3C9.12012 3 8.00012 4.12 8.00012 5.5C8.00012 6.88 9.12012 8 10.5001 8C11.8801 8 13.0001 6.88 13.0001 5.5C13.0001 4.12 11.8801 3 10.5001 3ZM10.5001 5C10.7761 5 11.0001 5.224 11.0001 5.5C11.0001 5.776 10.7761 6 10.5001 6C10.2241 6 10.0001 5.776 10.0001 5.5C10.0001 5.224 10.2241 5 10.5001 5Z" fill="url(#paint1_linear_5_75)"/>
<path fill-rule="evenodd" clip-rule="evenodd" d="M8.27395 10.312L7.38995 8.544C6.91695 7.598 5.94995 7 4.89095 7C4.01495 7 3.19095 7.412 2.66495 8.113C1.80295 9.263 0.19995 11.4 0.19995 11.4C-0.13105 11.842 -0.0420495 12.469 0.399951 12.8C0.841951 13.131 1.46895 13.042 1.79995 12.6C1.79995 12.6 3.40295 10.463 4.26495 9.313C4.41295 9.116 4.64495 9 4.89095 9C5.19195 9 5.46695 9.17 5.60095 9.439L6.60795 11.452C6.86695 11.97 7.35895 12.332 7.93095 12.425C8.50295 12.517 9.08495 12.33 9.49395 11.92L10.355 11.059C10.393 11.021 10.444 11 10.498 11H10.502C10.556 11 10.607 11.021 10.645 11.059L11.297 11.712C11.688 12.102 12.321 12.102 12.712 11.712C13.102 11.321 13.102 10.688 12.712 10.297L12.059 9.645C11.646 9.232 11.086 9 10.502 9H10.498C9.91395 9 9.35395 9.232 8.94095 9.645L8.27395 10.312Z" fill="url(#paint2_linear_5_75)"/>
</g>
<defs>
<linearGradient id="paint0_linear_5_75" x1="4" y1="14.8571" x2="14.5882" y2="2.5042" gradientUnits="userSpaceOnUse">
<stop stop-color="#A056FF"/>
<stop offset="1" stop-color="#C59AFD"/>
</linearGradient>
<linearGradient id="paint1_linear_5_75" x1="9.25012" y1="8" x2="14.1251" y2="6.375" gradientUnits="userSpaceOnUse">
<stop stop-color="#C59AFD"/>
<stop offset="1" stop-color="white"/>
</linearGradient>
<linearGradient id="paint2_linear_5_75" x1="3.25111" y1="13" x2="12.5076" y2="6.31234" gradientUnits="userSpaceOnUse">
<stop stop-color="#C59AFD"/>
<stop offset="1" stop-color="white"/>
</linearGradient>
<clipPath id="clip0_5_75">
<rect width="16" height="16" fill="white"/>
</clipPath>
</defs>
</svg>
