<svg width="16" height="16" viewBox="0 0 16 16" fill="none" xmlns="http://www.w3.org/2000/svg">
<g clip-path="url(#clip0_15_1120)">
<path opacity="0.4" d="M8.95103 2.9709V3.11097C8.57558 3.1036 8.20007 3.1036 7.82462 3.1036V2.97828C7.82462 2.46961 7.39659 2.05678 6.88591 2.05678H6.14248C5.2939 2.05678 4.60303 1.37856 4.60303 0.552898C4.60303 0.250644 4.85835 0 5.16624 0C5.48164 0 5.72946 0.250644 5.72946 0.552898C5.72946 0.77406 5.91719 0.950986 6.14248 0.950986H6.88591C8.01982 0.95836 8.94351 1.86511 8.95103 2.9709Z" fill="url(#paint0_linear_15_1120)"/>
<path fill-rule="evenodd" clip-rule="evenodd" d="M10.3734 3.12415C10.6145 3.12745 10.8562 3.13077 11.0987 3.13325C13.7045 3.13325 15.6044 4.99098 15.6044 7.5564V10.8517C15.6044 13.4171 13.7045 15.2749 11.0987 15.2749C10.7904 15.2814 10.4821 15.2867 10.1736 15.2908C9.78311 15.2961 9.51749 14.8253 9.51749 14.4348C9.51749 13.5703 8.81672 12.8696 7.95228 12.8696C7.08783 12.8696 6.38706 13.5703 6.38706 14.4348C6.38706 14.8253 6.12145 15.296 5.73099 15.2908C5.42166 15.2866 5.11305 15.2814 4.80575 15.2749C2.19995 15.2749 0.300049 13.4171 0.300049 10.8517V7.5564C0.300049 4.99098 2.19995 3.13325 4.81326 3.13325C5.79701 3.1185 6.80329 3.10376 7.82458 3.10376C8.20002 3.10376 8.57554 3.10376 8.95098 3.11113C9.42437 3.11113 9.89777 3.11762 10.3734 3.12415ZM7.95227 16C8.52857 16 8.99575 15.5328 8.99575 14.9565C8.99575 14.3802 8.52857 13.913 7.95227 13.913C7.37598 13.913 6.9088 14.3802 6.9088 14.9565C6.9088 15.5328 7.37598 16 7.95227 16Z" fill="url(#paint1_linear_15_1120)"/>
<path d="M5.3633 9.90024H6.30331C6.67037 9.90024 6.97473 9.61022 6.97473 9.24109C6.97473 8.88075 6.67037 8.58194 6.30331 8.58194H5.3633V7.65915C5.3633 7.29889 5.05892 7 4.69187 7C4.31586 7 4.02043 7.29889 4.02043 7.65915V8.58194H3.07146C2.70441 8.58194 2.40002 8.88075 2.40002 9.24109C2.40002 9.61022 2.70441 9.90024 3.07146 9.90024H4.02043V10.8318C4.02043 11.1922 4.31586 11.491 4.69187 11.491C5.05892 11.491 5.3633 11.1922 5.3633 10.8318V9.90024Z" fill="#8C4FD9"/>
<path d="M10.1977 8.415H10.1081C9.73216 8.415 9.43667 8.12498 9.43667 7.75585C9.43667 7.39551 9.73216 7.0967 10.1081 7.0967H10.1977C10.5647 7.0967 10.8691 7.39551 10.8691 7.75585C10.8691 8.12498 10.5647 8.415 10.1977 8.415Z" fill="#8C4FD9"/>
<path d="M11.7285 11.4382H11.639C11.263 11.4382 10.9676 11.1482 10.9676 10.7791C10.9676 10.4187 11.263 10.1199 11.639 10.1199H11.7285C12.0956 10.1199 12.4 10.4187 12.4 10.7791C12.4 11.1482 12.0956 11.4382 11.7285 11.4382Z" fill="#8C4FD9"/>
<path d="M5.96328 8.90024H6.90329C7.27035 8.90024 7.57471 8.61022 7.57471 8.24109C7.57471 7.88075 7.27035 7.58194 6.90329 7.58194H5.96328V6.65915C5.96328 6.29889 5.6589 6 5.29185 6C4.91584 6 4.62041 6.29889 4.62041 6.65915V7.58194H3.67144C3.30439 7.58194 3 7.88075 3 8.24109C3 8.61022 3.30439 8.90024 3.67144 8.90024H4.62041V9.83182C4.62041 10.1922 4.91584 10.491 5.29185 10.491C5.6589 10.491 5.96328 10.1922 5.96328 9.83182V8.90024Z" fill="url(#paint2_linear_15_1120)"/>
<path d="M10.7976 7.415H10.7081C10.3321 7.415 10.0366 7.12498 10.0366 6.75585C10.0366 6.39551 10.3321 6.0967 10.7081 6.0967H10.7976C11.1647 6.0967 11.4691 6.39551 11.4691 6.75585C11.4691 7.12498 11.1647 7.415 10.7976 7.415Z" fill="url(#paint3_linear_15_1120)"/>
<path d="M12.3285 10.4382H12.239C11.863 10.4382 11.5676 10.1482 11.5676 9.77908C11.5676 9.41874 11.863 9.11993 12.239 9.11993H12.3285C12.6956 9.11993 13 9.41874 13 9.77908C13 10.1482 12.6956 10.4382 12.3285 10.4382Z" fill="url(#paint4_linear_15_1120)"/>
</g>
<defs>
<linearGradient id="paint0_linear_15_1120" x1="5.69003" y1="2.88876" x2="7.54687" y2="-0.138953" gradientUnits="userSpaceOnUse">
<stop stop-color="#A056FF"/>
<stop offset="1" stop-color="#C59AFD"/>
</linearGradient>
<linearGradient id="paint1_linear_15_1120" x1="4.12614" y1="15.0788" x2="12.3243" y2="3.72838" gradientUnits="userSpaceOnUse">
<stop stop-color="#A056FF"/>
<stop offset="1" stop-color="#C59AFD"/>
</linearGradient>
<linearGradient id="paint2_linear_15_1120" x1="5.5" y1="10.491" x2="12.4852" y2="5.30637" gradientUnits="userSpaceOnUse">
<stop stop-color="#C59AFD"/>
<stop offset="1" stop-color="white"/>
</linearGradient>
<linearGradient id="paint3_linear_15_1120" x1="5.5" y1="10.491" x2="12.4852" y2="5.30637" gradientUnits="userSpaceOnUse">
<stop stop-color="#C59AFD"/>
<stop offset="1" stop-color="white"/>
</linearGradient>
<linearGradient id="paint4_linear_15_1120" x1="5.5" y1="10.491" x2="12.4852" y2="5.30637" gradientUnits="userSpaceOnUse">
<stop stop-color="#C59AFD"/>
<stop offset="1" stop-color="white"/>
</linearGradient>
<clipPath id="clip0_15_1120">
<rect width="16" height="16" fill="white"/>
</clipPath>
</defs>
</svg>
