<svg width="16" height="16" viewBox="0 0 16 16" fill="none" xmlns="http://www.w3.org/2000/svg">
<path fill-rule="evenodd" clip-rule="evenodd" d="M15.8799 3.97148C15.8383 3.61931 15.3493 3.51824 15.0473 3.7042C14.7427 3.89179 14.384 4 14 4C12.8954 4 12 3.10457 12 2C12 1.70122 12.0655 1.41774 12.183 1.16314C12.3251 0.85496 12.1833 0.411849 11.8451 0.383723C10.8389 0.300049 9.58626 0.300049 8 0.300049C4.2288 0.300049 2.344 0.300049 1.1712 1.4244C0 2.54952 0 4.3597 0 7.98005C0 11.6004 0 13.4113 1.1712 14.5349C2.3432 15.66 4.2288 15.66 8 15.66C11.7712 15.66 13.6576 15.66 14.828 14.5349C16 13.4106 16 11.6004 16 7.98005C16 6.28575 16 4.98808 15.8799 3.97148Z" fill="url(#paint0_linear_249_246)"/>
<path d="M1.17192 14.5349C2.34312 15.66 4.22872 15.66 7.99992 15.66C11.7719 15.66 13.6575 15.66 14.8287 14.5349C15.8593 13.5456 15.9836 12.0262 15.9984 9.21061C15.9997 8.95587 15.7845 8.74805 15.5191 8.74805H13.4719C12.7479 8.74805 12.3855 8.74805 12.0679 8.88859C11.7495 9.02913 11.5135 9.29333 11.0423 9.82094L10.5583 10.3632C10.0863 10.8908 9.85112 11.155 9.53272 11.2955C9.21432 11.436 8.85272 11.436 8.12872 11.436H7.87192C7.14792 11.436 6.78552 11.436 6.46712 11.2955C6.14952 11.155 5.91352 10.8908 5.44232 10.3632L4.95752 9.82094C4.48632 9.29333 4.25112 9.02913 3.93272 8.88859C3.61432 8.74805 3.25272 8.74805 2.52792 8.74805H0.480751C0.215327 8.74805 0.000135031 8.95587 0.00147103 9.21061C0.016223 12.0262 0.140631 13.5456 1.17192 14.5349Z" fill="url(#paint1_linear_249_246)"/>
<path d="M7.25497 8.63391C7.41401 8.63391 7.56649 8.57339 7.67897 8.46549L10.319 5.93109C10.3779 5.87836 10.4252 5.81477 10.458 5.74411C10.4908 5.67346 10.5084 5.59719 10.5098 5.51984C10.5113 5.4425 10.4964 5.36568 10.4662 5.29396C10.4361 5.22223 10.3912 5.15708 10.3342 5.10239C10.2772 5.04769 10.2094 5.00457 10.1346 4.97561C10.0599 4.94664 9.97993 4.9324 9.89937 4.93377C9.81881 4.93514 9.73937 4.95207 9.66577 4.98355C9.59217 5.01503 9.52593 5.06041 9.47097 5.11701L8.67441 5.88174C8.37201 6.17202 7.85497 5.96643 7.85497 5.5559V0.760849C7.85497 0.506357 7.64009 0.300049 7.37497 0.300049H7.13497C6.86985 0.300049 6.65497 0.506357 6.65497 0.760849V5.5559C6.65497 5.96642 6.13793 6.17202 5.83553 5.88174L5.03897 5.11701C4.98404 5.06041 4.9178 5.01503 4.8442 4.98355C4.7706 4.95207 4.69115 4.93514 4.61058 4.93377C4.53002 4.9324 4.45 4.94664 4.37529 4.97561C4.30057 5.00457 4.23271 5.04769 4.17573 5.10239C4.11876 5.15708 4.07385 5.22223 4.04367 5.29396C4.01349 5.36568 3.99867 5.4425 4.00009 5.51984C4.00152 5.59719 4.01915 5.67346 4.05194 5.74411C4.08473 5.81477 4.13201 5.87836 4.19097 5.93109L6.83097 8.46549C6.94345 8.57339 7.09593 8.63391 7.25497 8.63391Z" fill="#279FD7"/>
<path d="M7.99996 7.63391C8.159 7.63391 8.31148 7.57339 8.42396 7.46549L11.064 4.93109C11.1229 4.87836 11.1702 4.81477 11.203 4.74411C11.2358 4.67346 11.2534 4.59719 11.2548 4.51984C11.2563 4.4425 11.2414 4.36568 11.2112 4.29396C11.1811 4.22223 11.1362 4.15708 11.0792 4.10239C11.0222 4.04769 10.9544 4.00457 10.8796 3.9756C10.8049 3.94664 10.7249 3.9324 10.6444 3.93377C10.5638 3.93514 10.4844 3.95207 10.4108 3.98355C10.3372 4.01503 10.2709 4.06041 10.216 4.11701L9.4194 4.88174C9.117 5.17202 8.59996 4.96643 8.59996 4.5559V0.760849C8.59996 0.506357 8.38508 0.300049 8.11996 0.300049H7.87996C7.61484 0.300049 7.39996 0.506357 7.39996 0.760849V4.5559C7.39996 4.96642 6.88292 5.17202 6.58052 4.88174L5.78396 4.11701C5.72903 4.06041 5.66279 4.01503 5.58919 3.98355C5.51559 3.95207 5.43614 3.93514 5.35558 3.93377C5.27502 3.9324 5.19499 3.94664 5.12028 3.9756C5.04557 4.00457 4.9777 4.04769 4.92073 4.10239C4.86375 4.15708 4.81884 4.22223 4.78867 4.29396C4.75849 4.36568 4.74366 4.4425 4.74509 4.51984C4.74651 4.59719 4.76415 4.67346 4.79694 4.74411C4.82973 4.81477 4.87701 4.87836 4.93596 4.93109L7.57596 7.46549C7.68844 7.57339 7.84092 7.63391 7.99996 7.63391Z" fill="url(#paint2_linear_249_246)"/>
<circle cx="14.2" cy="1.79998" r="1.2" fill="url(#paint3_linear_249_246)"/>
<defs>
<linearGradient id="paint0_linear_249_246" x1="1.6" y1="15.6648" x2="6.96772" y2="-1.11138" gradientUnits="userSpaceOnUse">
<stop offset="0.190745" stop-color="#22B4FA"/>
<stop offset="0.896724" stop-color="#7DDCFF"/>
</linearGradient>
<linearGradient id="paint1_linear_249_246" x1="0.00146478" y1="15.66" x2="14.9825" y2="6.99215" gradientUnits="userSpaceOnUse">
<stop stop-color="#6BD6FE"/>
<stop offset="1" stop-color="white"/>
</linearGradient>
<linearGradient id="paint2_linear_249_246" x1="4.745" y1="7.63391" x2="12.5005" y2="5.91286" gradientUnits="userSpaceOnUse">
<stop stop-color="#6BD6FE"/>
<stop offset="1" stop-color="white"/>
</linearGradient>
<linearGradient id="paint3_linear_249_246" x1="13.24" y1="3.00073" x2="14.1068" y2="0.399986" gradientUnits="userSpaceOnUse">
<stop offset="0.190745" stop-color="#22B4FA"/>
<stop offset="0.896724" stop-color="#7DDCFF"/>
</linearGradient>
</defs>
</svg>
