<svg width="16" height="16" viewBox="0 0 16 16" fill="none" xmlns="http://www.w3.org/2000/svg">
<g clip-path="url(#clip0_15_1088)">
<path d="M4.31152 15.994C3.75947 15.9925 3.42857 15.4092 3.42857 14.8571C3.42857 13.5948 2.40522 12.5714 1.14286 12.5714C0.590797 12.5714 0.00754833 12.2405 0.00600052 11.6885C0.00201893 10.2688 0 8.06866 0 8V3.42857C0 1.53502 1.53502 0 3.42857 0H12.5714C14.465 0 16 1.53502 16 3.42857V12.5714C16 14.465 14.465 16 12.5714 16H8C7.93134 16 5.73124 15.998 4.31152 15.994Z" fill="url(#paint0_linear_15_1088)"/>
<path d="M1.14286 13.7143C0.511674 13.7143 0 14.226 0 14.8571C0 15.4883 0.511674 16 1.14286 16C1.77404 16 2.28571 15.4883 2.28571 14.8571C2.28571 14.226 1.77404 13.7143 1.14286 13.7143Z" fill="url(#paint1_linear_15_1088)"/>
<path fill-rule="evenodd" clip-rule="evenodd" d="M6.99999 6C6.20438 6 5.44129 6.31607 4.87868 6.87868C4.31607 7.44129 4 8.20438 4 8.99999C4 9.79567 4.31607 10.5587 4.87868 11.1214C5.44129 11.6839 6.20438 12 6.99999 12C7.79567 12 8.55873 11.6839 9.12136 11.1214C9.68392 10.5587 10 9.79567 10 8.99999C10 8.20438 9.68392 7.44129 9.12136 6.87868C8.55873 6.31607 7.79567 6 6.99999 6ZM6.99999 6.94737C6.45563 6.94737 5.93354 7.16363 5.54858 7.54858C5.16363 7.93354 4.94737 8.45563 4.94737 8.99999C4.94737 9.54442 5.16363 10.0665 5.54858 10.4514C5.93354 10.8364 6.45563 11.0526 6.99999 11.0526C7.54442 11.0526 8.0665 10.8364 8.45142 10.4514C8.8364 10.0665 9.05263 9.54442 9.05263 8.99999C9.05263 8.45563 8.8364 7.93354 8.45142 7.54858C8.0665 7.16363 7.54442 6.94737 6.99999 6.94737Z" fill="#B75A66" stroke="#B75A66"/>
<path fill-rule="evenodd" clip-rule="evenodd" d="M7.99999 5C7.20438 5 6.44129 5.31607 5.87868 5.87868C5.31607 6.44129 5 7.20438 5 7.99999C5 8.79567 5.31607 9.55873 5.87868 10.1214C6.44129 10.6839 7.20438 11 7.99999 11C8.79567 11 9.55873 10.6839 10.1214 10.1214C10.6839 9.55873 11 8.79567 11 7.99999C11 7.20438 10.6839 6.44129 10.1214 5.87868C9.55873 5.31607 8.79567 5 7.99999 5ZM7.99999 5.94737C7.45563 5.94737 6.93354 6.16363 6.54858 6.54858C6.16363 6.93354 5.94737 7.45563 5.94737 7.99999C5.94737 8.54442 6.16363 9.0665 6.54858 9.45142C6.93354 9.8364 7.45563 10.0526 7.99999 10.0526C8.54442 10.0526 9.0665 9.8364 9.45142 9.45142C9.8364 9.0665 10.0526 8.54442 10.0526 7.99999C10.0526 7.45563 9.8364 6.93354 9.45142 6.54858C9.0665 6.16363 8.54442 5.94737 7.99999 5.94737Z" fill="url(#paint2_linear_15_1088)" stroke="url(#paint3_linear_15_1088)"/>
</g>
<defs>
<linearGradient id="paint0_linear_15_1088" x1="15.2752" y1="0.275001" x2="0.650076" y2="15.65" gradientUnits="userSpaceOnUse">
<stop stop-color="#DD24C6"/>
<stop offset="0.408098" stop-color="#FD478C"/>
<stop offset="0.590073" stop-color="#FF5F66"/>
<stop offset="1" stop-color="#FFB243"/>
</linearGradient>
<linearGradient id="paint1_linear_15_1088" x1="15.2752" y1="0.275001" x2="0.650076" y2="15.65" gradientUnits="userSpaceOnUse">
<stop stop-color="#DD24C6"/>
<stop offset="0.408098" stop-color="#FD478C"/>
<stop offset="0.590073" stop-color="#FF5F66"/>
<stop offset="1" stop-color="#FFB243"/>
</linearGradient>
<linearGradient id="paint2_linear_15_1088" x1="10.7282" y1="5.10313" x2="5.24378" y2="10.8687" gradientUnits="userSpaceOnUse">
<stop stop-color="#E886DC"/>
<stop offset="0.408098" stop-color="#FF7BAD"/>
<stop offset="0.590073" stop-color="#FF9499"/>
<stop offset="1" stop-color="#FFD290"/>
</linearGradient>
<linearGradient id="paint3_linear_15_1088" x1="10.7282" y1="5.10313" x2="5.24378" y2="10.8687" gradientUnits="userSpaceOnUse">
<stop stop-color="#E886DC"/>
<stop offset="0.408098" stop-color="#FF7BAD"/>
<stop offset="0.590073" stop-color="#FF9499"/>
<stop offset="1" stop-color="#FFD290"/>
</linearGradient>
<clipPath id="clip0_15_1088">
<rect width="16" height="16" fill="white"/>
</clipPath>
</defs>
</svg>
