<svg width="16" height="16" viewBox="0 0 16 16" fill="none" xmlns="http://www.w3.org/2000/svg">
<path opacity="0.5" fill-rule="evenodd" clip-rule="evenodd" d="M16 5.01C16 2.795 14.205 1 11.99 1H4C3.448 1 3 1.448 3 2C3 3.104 2.104 4 1 4C0.448 4 0 4.448 0 5V10.99C0 13.205 1.795 15 4.01 15C6.368 15 9.632 15 11.99 15C14.205 15 16 13.205 16 10.99C16 9.162 16 5.01 16 5.01ZM1 1C0.448 1 0 1.448 0 2C0 2.552 0.448 3 1 3C1.552 3 2 2.552 2 2C2 1.448 1.552 1 1 1Z" fill="url(#paint0_linear_273_12)"/>
<path fill-rule="evenodd" clip-rule="evenodd" d="M4.82195 7.76297L3.29295 9.29297C2.90295 9.68297 2.90295 10.317 3.29295 10.707C3.68295 11.097 4.31695 11.097 4.70695 10.707L6.09995 9.31397C6.63995 9.75297 7.31995 9.99997 8.02995 9.99997H8.03495C8.72795 9.99997 9.39395 9.76497 9.92895 9.34297L11.293 10.707C11.683 11.097 12.3169 11.097 12.7069 10.707C13.0969 10.317 13.0969 9.68297 12.7069 9.29297L11.262 7.84797L14.7679 3.63997C15.1219 3.21597 15.0639 2.58497 14.6399 2.23197C14.2159 1.87797 13.585 1.93597 13.232 2.35997L8.84995 7.61797C8.64795 7.85997 8.34995 7.99997 8.03495 7.99997H8.03095C7.69695 7.99997 7.38195 7.84297 7.18195 7.57597L4.79995 4.39997C4.46895 3.95797 3.84195 3.86897 3.39995 4.19997C2.95795 4.53097 2.86895 5.15797 3.19995 5.59997L4.82195 7.76297Z" fill="url(#paint1_linear_273_12)"/>
<defs>
<linearGradient id="paint0_linear_273_12" x1="1.6" y1="15.0044" x2="6.13048" y2="-0.530628" gradientUnits="userSpaceOnUse">
<stop stop-color="#22B4FA"/>
<stop offset="1" stop-color="#6BD6FE"/>
</linearGradient>
<linearGradient id="paint1_linear_273_12" x1="4.19998" y1="11.0023" x2="6.74912" y2="0.804017" gradientUnits="userSpaceOnUse">
<stop offset="0.190745" stop-color="#22B4FA"/>
<stop offset="0.896724" stop-color="#7DDCFF"/>
</linearGradient>
</defs>
</svg>
