<svg width="16" height="16" viewBox="0 0 16 16" fill="none" xmlns="http://www.w3.org/2000/svg">
<g clip-path="url(#clip0_42_1544)">
<path fill-rule="evenodd" clip-rule="evenodd" d="M3 1.00006C3 0.448061 3.448 6.10352e-05 4 6.10352e-05C4 6.10352e-05 9.853 6.10352e-05 13.02 6.10352e-05C13.811 6.10352e-05 14.568 0.31406 15.127 0.87306C15.686 1.43206 16 2.18906 16 2.98006C16 5.64406 16 10.3561 16 13.0201C16 13.8111 15.686 14.5681 15.127 15.1271C14.568 15.6861 13.811 16.0001 13.02 16.0001C10.356 16.0001 5.644 16.0001 2.98 16.0001C2.189 16.0001 1.432 15.6861 0.873 15.1271C0.314 14.5681 0 13.8111 0 13.0201V4.00006C0 3.44806 0.448 3.00006 1 3.00006C2.104 3.00006 3 2.10406 3 1.00006ZM0 1.00006C0 0.448061 0.448 6.10352e-05 1 6.10352e-05C1.552 6.10352e-05 2 0.448061 2 1.00006C2 1.55206 1.552 2.00006 1 2.00006C0.448 2.00006 0 1.55206 0 1.00006Z" fill="url(#paint0_linear_42_1544)"/>
<g opacity="0.7">
<path opacity="0.6" d="M6.70284 6.17609L6.70223 6.17685C6.51629 6.40883 6.1781 6.44651 5.94503 6.26152C5.71147 6.07605 5.67357 5.73708 5.85719 5.50401C5.88586 5.46761 5.94475 5.3817 5.99555 5.278C6.04804 5.17084 6.08051 5.06752 6.08051 4.98944C6.08051 4.91036 6.0472 4.80549 5.99416 4.6977C5.94275 4.59322 5.88419 4.5087 5.859 4.47732L5.85827 4.47641C5.83266 4.44414 5.72037 4.29921 5.6138 4.09016C5.50829 3.8832 5.40063 3.59842 5.40063 3.28976C5.40063 2.98111 5.50829 2.69634 5.6138 2.48937C5.72037 2.28032 5.83266 2.13539 5.85827 2.10312L5.85904 2.10216C6.04442 1.87147 6.38203 1.83169 6.61608 2.01769C6.84963 2.20316 6.88752 2.54213 6.70392 2.77521C6.67524 2.8116 6.61636 2.89751 6.56556 3.0012C6.51306 3.10837 6.48061 3.21168 6.48061 3.28976C6.48061 3.36886 6.5139 3.47373 6.56695 3.5815C6.61835 3.68599 6.6769 3.7705 6.70211 3.80189L6.70284 3.8028C6.72845 3.83507 6.84073 3.98 6.94731 4.18904C7.05282 4.39601 7.16047 4.68078 7.16047 4.98944C7.16047 5.29809 7.05282 5.58287 6.94731 5.78984C6.84073 5.99889 6.72845 6.14381 6.70284 6.17609Z" fill="#D49F34"/>
<path opacity="0.6" d="M8.74239 6.17604L8.74178 6.1768C8.55585 6.40877 8.21766 6.44645 7.98458 6.26147C7.75102 6.07599 7.71312 5.73702 7.89674 5.50395C7.92542 5.46756 7.98431 5.38165 8.0351 5.27795C8.0876 5.17078 8.12006 5.06747 8.12006 4.98938C8.12006 4.9103 8.08675 4.80544 8.03371 4.69765C7.98231 4.59316 7.92375 4.50865 7.89855 4.47728L7.89782 4.47636C7.87221 4.44409 7.75991 4.29915 7.65335 4.0901C7.54784 3.88313 7.44019 3.59836 7.44019 3.28971C7.44019 2.98106 7.54784 2.69629 7.65335 2.48932C7.75991 2.28027 7.87221 2.13534 7.89782 2.10307L7.89829 2.10247L7.89877 2.10188C8.08431 1.87166 8.4219 1.83139 8.6559 2.01785C8.88921 2.20336 8.92703 2.54216 8.74347 2.77515C8.71479 2.81154 8.65591 2.89746 8.60511 3.00115C8.55261 3.10832 8.52016 3.21162 8.52016 3.28971C8.52016 3.36881 8.55347 3.47367 8.6065 3.58145C8.6579 3.68594 8.71645 3.77045 8.74166 3.80183L8.74239 3.80274C8.768 3.83501 8.88029 3.97995 8.98686 4.18899C9.09238 4.39596 9.20002 4.68073 9.20002 4.98938C9.20002 5.29804 9.09238 5.58281 8.98686 5.78978C8.88029 5.99883 8.768 6.14376 8.74239 6.17604Z" fill="#D49F34"/>
</g>
<path d="M7.20296 5.77595L7.20235 5.77671C7.01642 6.00868 6.67822 6.04636 6.44515 5.86138C6.21159 5.6759 6.17369 5.33693 6.35731 5.10386C6.38598 5.06746 6.44487 4.98155 6.49567 4.87786C6.54816 4.77069 6.58063 4.66738 6.58063 4.58929C6.58063 4.51021 6.54732 4.40534 6.49428 4.29756C6.44287 4.19307 6.38431 4.10855 6.35912 4.07717L6.35839 4.07626C6.33278 4.044 6.22049 3.89906 6.11392 3.69001C6.00841 3.48305 5.90076 3.19827 5.90076 2.88962C5.90076 2.58096 6.00841 2.29619 6.11392 2.08922C6.22049 1.88018 6.33278 1.73525 6.35839 1.70298L6.35916 1.70201C6.54454 1.47132 6.88215 1.43154 7.1162 1.61755C7.34975 1.80301 7.38765 2.14199 7.20404 2.37506C7.17537 2.41145 7.11648 2.49736 7.06568 2.60106C7.01319 2.70822 6.98073 2.81153 6.98073 2.88962C6.98073 2.96872 7.01403 3.07358 7.06707 3.18136C7.11847 3.28584 7.17703 3.37035 7.20223 3.40174L7.20296 3.40265C7.22857 3.43492 7.34086 3.57985 7.44743 3.78889C7.55295 3.99587 7.66059 4.28063 7.66059 4.58929C7.66059 4.89794 7.55295 5.18272 7.44743 5.38969C7.34086 5.59874 7.22857 5.74367 7.20296 5.77595Z" fill="url(#paint1_linear_42_1544)"/>
<path d="M9.24251 5.77589L9.2419 5.77665C9.05597 6.00863 8.71779 6.04631 8.4847 5.86132C8.25114 5.67585 8.21324 5.33687 8.39686 5.10381C8.42555 5.06741 8.48443 4.9815 8.53522 4.8778C8.58772 4.77064 8.62018 4.66732 8.62018 4.58923C8.62018 4.51016 8.58687 4.40529 8.53383 4.2975C8.48243 4.19302 8.42387 4.10851 8.39867 4.07713L8.39794 4.07621C8.37233 4.04394 8.26004 3.89901 8.15347 3.68996C8.04796 3.48299 7.94031 3.19822 7.94031 2.88956C7.94031 2.58091 8.04796 2.29614 8.15347 2.08917C8.26004 1.88012 8.37233 1.73519 8.39794 1.70292L8.39841 1.70233L8.39889 1.70174C8.58443 1.47151 8.92203 1.43124 9.15602 1.6177C9.38933 1.80321 9.42715 2.14201 9.24359 2.375C9.21492 2.4114 9.15603 2.49731 9.10523 2.601C9.05274 2.70817 9.02028 2.81147 9.02028 2.88956C9.02028 2.96866 9.05359 3.07353 9.10662 3.1813C9.15802 3.28579 9.21658 3.3703 9.24178 3.40169L9.24251 3.4026C9.26812 3.43486 9.38042 3.5798 9.48698 3.78884C9.5925 3.99581 9.70014 4.28058 9.70014 4.58923C9.70014 4.89789 9.5925 5.18267 9.48698 5.38964C9.38042 5.59869 9.26812 5.74361 9.24251 5.77589Z" fill="url(#paint2_linear_42_1544)"/>
<path opacity="0.15" fill-rule="evenodd" clip-rule="evenodd" d="M11.1782 7.5H2.33993C2.15204 7.5 2 7.65205 2 7.83994V9.87955C2 10.0766 2.01296 10.2706 2.03807 10.4609C2.0946 10.8892 2.48627 11.1714 2.91826 11.1738C3.80212 11.1789 4.51452 11.8995 4.50946 12.7834C4.50824 12.9976 4.48454 13.225 4.46116 13.4493C4.43759 13.6755 4.5568 13.8933 4.76767 13.9786C5.27812 14.185 5.83561 14.2987 6.41915 14.2987C7.53414 14.2987 8.55088 13.8801 9.32916 13.1963C9.34248 13.1846 9.35545 13.1755 9.37127 13.1675C9.76268 12.9701 12.8779 11.3316 12.8779 9.19968C12.8779 8.26255 12.1153 7.5 11.1782 7.5ZM10.8592 11.2302C10.6972 11.3583 10.4485 11.1686 10.5 10.9687C10.5899 10.6203 10.6382 10.2557 10.6382 9.87958V8.37995C10.6382 8.26947 10.7278 8.1799 10.8383 8.1799H10.9782C11.5405 8.1799 12.198 8.73739 12.198 9.29974C12.198 10.0447 11.5448 10.688 10.8592 11.2302ZM2.80019 13.5815C3.24213 13.5815 3.60039 13.2232 3.60039 12.7813C3.60039 12.3393 3.24213 11.9811 2.80019 11.9811C2.35826 11.9811 2 12.3393 2 12.7813C2 13.2232 2.35826 13.5815 2.80019 13.5815Z" fill="url(#paint3_linear_42_1544)"/>
<path fill-rule="evenodd" clip-rule="evenodd" d="M12.1782 6.70129H3.33993C3.15204 6.70129 3 6.85334 3 7.04124V9.08084C3 9.27786 3.01296 9.4719 3.03807 9.66218C3.0946 10.0905 3.48627 10.3727 3.91826 10.3751C4.80212 10.3802 5.51452 11.1008 5.50946 11.9847C5.50824 12.1989 5.48454 12.4263 5.46116 12.6506C5.43759 12.8768 5.5568 13.0946 5.76767 13.1799C6.27812 13.3863 6.83561 13.5 7.41915 13.5C8.53414 13.5 9.55088 13.0814 10.3292 12.3976C10.3425 12.3859 10.3554 12.3768 10.3713 12.3688C10.7627 12.1714 13.8779 10.5329 13.8779 8.40098C13.8779 7.46385 13.1153 6.70129 12.1782 6.70129ZM11.8592 10.4315C11.6972 10.5596 11.4485 10.3699 11.5 10.17C11.5899 9.82164 11.6382 9.45698 11.6382 9.08087V7.58125C11.6382 7.47076 11.7278 7.3812 11.8383 7.3812H11.9782C12.5405 7.3812 13.198 7.93868 13.198 8.50103C13.198 9.24603 12.5448 9.88932 11.8592 10.4315ZM3.80019 12.7828C4.24213 12.7828 4.60039 12.4245 4.60039 11.9826C4.60039 11.5406 4.24213 11.1824 3.80019 11.1824C3.35826 11.1824 3 11.5406 3 11.9826C3 12.4245 3.35826 12.7828 3.80019 12.7828Z" fill="url(#paint4_linear_42_1544)"/>
</g>
<defs>
<linearGradient id="paint0_linear_42_1544" x1="8" y1="16.0001" x2="8" y2="6.10352e-05" gradientUnits="userSpaceOnUse">
<stop stop-color="#FD5900"/>
<stop offset="1" stop-color="#FFDE00"/>
</linearGradient>
<linearGradient id="paint1_linear_42_1544" x1="6.34072" y1="4.85908" x2="7.86518" y2="4.26007" gradientUnits="userSpaceOnUse">
<stop stop-color="#FBD92C"/>
<stop offset="1" stop-color="white"/>
</linearGradient>
<linearGradient id="paint2_linear_42_1544" x1="8.38027" y1="4.85903" x2="9.90473" y2="4.26001" gradientUnits="userSpaceOnUse">
<stop stop-color="#FBD92C"/>
<stop offset="1" stop-color="white"/>
</linearGradient>
<linearGradient id="paint3_linear_42_1544" x1="7.43896" y1="14.2987" x2="7.43896" y2="7.5" gradientUnits="userSpaceOnUse">
<stop stop-color="#010101"/>
<stop offset="0.9973" stop-color="#4C4C4C"/>
</linearGradient>
<linearGradient id="paint4_linear_42_1544" x1="5.71948" y1="11.8003" x2="8.77507" y2="6.91136" gradientUnits="userSpaceOnUse">
<stop stop-color="#FBD92C"/>
<stop offset="1" stop-color="white"/>
</linearGradient>
<clipPath id="clip0_42_1544">
<rect width="16" height="16" fill="white"/>
</clipPath>
</defs>
</svg>
