<svg width="16" height="16" viewBox="0 0 16 16" fill="none" xmlns="http://www.w3.org/2000/svg">
<path d="M1 8.82951C1 7.94711 1 7.50551 1.3144 7.24871C1.4256 7.15751 1.5608 7.08391 1.712 7.03351C2.1376 6.89191 2.6968 7.03191 3.81519 7.31031C4.66879 7.52391 5.09519 7.63031 5.52719 7.61911C5.68559 7.61511 5.84319 7.59911 5.99759 7.57191C6.41759 7.49751 6.79199 7.31111 7.54082 6.93751L8.64642 6.38553C9.60635 5.90633 10.0856 5.66713 10.636 5.61193C11.1864 5.55673 11.7336 5.69353 12.8272 5.96633L13.7592 6.19833C14.5512 6.39593 14.9472 6.49513 15.1736 6.73031C15.4 6.96551 15.4 7.27831 15.4 7.90311V12.7703C15.4 13.6527 15.4 14.0943 15.0856 14.3511C14.9672 14.4464 14.8325 14.5193 14.688 14.5663C14.2624 14.7079 13.7032 14.5687 12.5848 14.2895C11.7312 14.0759 11.3048 13.9695 10.8728 13.9807C10.715 13.9847 10.5578 14.0004 10.4024 14.0279C9.98235 14.1023 9.60795 14.2887 8.85922 14.6623L7.75362 15.2143C6.79359 15.6935 6.31439 15.9327 5.76399 15.9879C5.21359 16.0431 4.66639 15.9063 3.57279 15.6335L2.6408 15.4015C1.8488 15.2039 1.4528 15.1047 1.2264 14.8695C1 14.6343 1 14.3215 1 13.6967V8.82951Z" fill="url(#paint0_linear_15_1750)"/>
<path opacity="0.7" fill-rule="evenodd" clip-rule="evenodd" d="M7.61811 1.45453C4.96691 1.45453 2.81812 3.49613 2.81812 6.01452C2.81812 8.51375 4.35011 11.4297 6.7405 12.4721C7.01745 12.5923 7.31614 12.6543 7.61811 12.6543C7.92 12.6543 8.21876 12.5923 8.49571 12.4721C10.8861 11.4305 12.4181 8.51375 12.4181 6.01452C12.4181 3.49613 10.2693 1.45453 7.61811 1.45453ZM7.61811 7.85452C8.04247 7.85452 8.44938 7.68594 8.74945 7.38589C9.04953 7.08583 10.1178 6.67886 10.1178 6.25452C10.1178 5.83018 10.1404 3.24138 9.84037 2.94133C9.54029 2.64127 8.04247 2.4727 7.61811 2.4727C7.19374 2.4727 6.78676 2.64127 6.48676 2.94133C6.18668 3.24138 6.01811 5.83018 6.01811 6.25452C6.01811 6.67886 6.18668 7.08583 6.48676 7.38589C6.78676 7.68594 7.19374 7.85452 7.61811 7.85452Z" fill="#D49F34"/>
<path fill-rule="evenodd" clip-rule="evenodd" d="M8.19989 0C5.54869 0 3.3999 2.0416 3.3999 4.55999C3.3999 7.05922 4.9319 9.97515 7.32229 11.0176C7.59924 11.1378 7.89793 11.1998 8.19989 11.1998C8.50179 11.1998 8.80055 11.1378 9.0775 11.0176C11.4679 9.97595 12.9999 7.05922 12.9999 4.55999C12.9999 2.0416 10.8511 0 8.19989 0Z" fill="url(#paint1_linear_15_1750)"/>
<path d="M8.60415 6.80412C8.30407 7.10417 7.89717 7.27275 7.4728 7.27275C7.04844 7.27275 6.64145 7.10417 6.34145 6.80412C6.04137 6.50406 5.8728 6.09709 5.8728 5.67275C5.8728 5.24841 6.04137 4.84144 6.34145 4.54138C6.64145 4.24132 7.04844 4.07275 7.4728 4.07275C7.89717 4.07275 8.30407 4.24132 8.60415 4.54138C8.90422 4.84144 9.0728 5.24841 9.0728 5.67275C9.0728 6.09709 8.90422 6.50406 8.60415 6.80412Z" fill="#D49F34"/>
<path d="M9.33132 5.93138C9.03125 6.23143 8.62434 6.40001 8.19997 6.40001C7.77561 6.40001 7.36863 6.23143 7.06862 5.93138C6.76854 5.63132 6.59998 5.22435 6.59998 4.80001C6.59998 4.37567 6.76854 3.9687 7.06862 3.66864C7.36863 3.36858 7.77561 3.20001 8.19997 3.20001C8.62434 3.20001 9.03125 3.36858 9.33132 3.66864C9.63139 3.9687 9.79998 4.37567 9.79998 4.80001C9.79998 5.22435 9.63139 5.63132 9.33132 5.93138Z" fill="url(#paint2_linear_15_1750)"/>
<defs>
<linearGradient id="paint0_linear_15_1750" x1="3.69999" y1="15.3492" x2="9.53878" y2="5.64728" gradientUnits="userSpaceOnUse">
<stop stop-color="#FF8860"/>
<stop offset="1" stop-color="#FBD92C"/>
</linearGradient>
<linearGradient id="paint1_linear_15_1750" x1="5.1999" y1="10.499" x2="12.3131" y2="3.18192" gradientUnits="userSpaceOnUse">
<stop stop-color="#FF8860"/>
<stop offset="1" stop-color="#FBD92C"/>
</linearGradient>
<linearGradient id="paint2_linear_15_1750" x1="7.39998" y1="5.60001" x2="8.99997" y2="4.00001" gradientUnits="userSpaceOnUse">
<stop stop-color="#FBD92C"/>
<stop offset="1" stop-color="white"/>
</linearGradient>
</defs>
</svg>
