<svg width="16" height="16" viewBox="0 0 16 16" fill="none" xmlns="http://www.w3.org/2000/svg">
<g clip-path="url(#clip0_18_2363)">
<path fill-rule="evenodd" clip-rule="evenodd" d="M2.28571 14.8571C2.28571 15.488 1.77371 16 1.14286 16C0.512 16 0 15.488 0 14.8571C0 14.2263 0.512 13.7143 1.14286 13.7143C1.77371 13.7143 2.28571 14.2263 2.28571 14.8571ZM1.14286 12.5714C0.512 12.5714 0 12.0594 0 11.4286C0 11.4286 0 6.97829 0 3.368C0 2.47429 0.354286 1.61829 0.986286 0.986286C1.61829 0.354286 2.47429 0 3.368 0H9.51886C10.264 0 10.9886 0.241143 11.5851 0.688L14.6229 2.96686C15.4903 3.61714 16 4.63771 16 5.72114C16 7.80229 16 9.94172 16 12.632C16 13.5257 15.6457 14.3817 15.0137 15.0137C14.3817 15.6457 13.5257 16 12.632 16H4.57143C3.94057 16 3.42857 15.488 3.42857 14.8571C3.42857 13.5954 2.40457 12.5714 1.14286 12.5714Z" fill="url(#paint0_linear_18_2363)"/>
<path fill-rule="evenodd" clip-rule="evenodd" d="M12.1429 13.2195V11.0663C12.1429 9.45145 10.8343 8.14288 9.21943 8.14288C8.20457 8.14288 6.93829 8.14288 5.92343 8.14288C4.30857 8.14288 3 9.45145 3 11.0663V13.2195C3 14.8343 4.30857 16.1429 5.92343 16.1429C6.93829 16.1429 8.20457 16.1429 9.21943 16.1429C10.8343 16.1429 12.1429 14.8343 12.1429 13.2195ZM8.71429 13.8572C8.71429 13.8572 9.06629 10.4286 8.71429 10.4286C7.69943 10.4286 6.93829 10.4286 5.92343 10.4286C5.57143 10.4286 5.28571 10.7143 5.28571 11.0663V13.2195C5.28571 13.5715 5.57143 13.8572 5.92343 13.8572H6.42857V12.7143C6.42857 12.0835 6.94057 11.5715 7.57143 11.5715C8.20229 11.5715 8.71429 12.0835 8.71429 12.7143V13.8572Z" fill="#279FD7"/>
<path fill-rule="evenodd" clip-rule="evenodd" d="M13.2857 12.0766V9.92343C13.2857 8.30857 11.9771 7 10.3623 7C9.34739 7 8.08111 7 7.06625 7C5.45139 7 4.14282 8.30857 4.14282 9.92343V12.0766C4.14282 13.6914 5.45139 15 7.06625 15C8.08111 15 9.34739 15 10.3623 15C11.9771 15 13.2857 13.6914 13.2857 12.0766ZM9.85711 12.7143H10.3623C10.7143 12.7143 11 12.4286 11 12.0766V9.92343C11 9.57143 10.7143 9.28571 10.3623 9.28571C9.34739 9.28571 8.08111 9.28571 7.06625 9.28571C6.71425 9.28571 6.42854 9.57143 6.42854 9.92343V12.0766C6.42854 12.4286 6.71425 12.7143 7.06625 12.7143H7.57139V11.5714C7.57139 10.9406 8.08339 10.4286 8.71425 10.4286C9.34511 10.4286 9.85711 10.9406 9.85711 11.5714V12.7143Z" fill="url(#paint1_linear_18_2363)"/>
</g>
<defs>
<linearGradient id="paint0_linear_18_2363" x1="1.6" y1="16.005" x2="7.3787" y2="-1.33327" gradientUnits="userSpaceOnUse">
<stop stop-color="#22B4FA"/>
<stop offset="1" stop-color="#6BD6FE"/>
</linearGradient>
<linearGradient id="paint1_linear_18_2363" x1="4.14282" y1="15" x2="14.7089" y2="11.9811" gradientUnits="userSpaceOnUse">
<stop stop-color="#6BD6FE"/>
<stop offset="1" stop-color="white"/>
</linearGradient>
<clipPath id="clip0_18_2363">
<rect width="16" height="16" fill="white"/>
</clipPath>
</defs>
</svg>
