<svg width="16" height="16" viewBox="0 0 16 16" fill="none" xmlns="http://www.w3.org/2000/svg">
<g clip-path="url(#clip0_15_1309)">
<path fill-rule="evenodd" clip-rule="evenodd" d="M16 5.943V11C16 11.552 15.552 12 15 12C13.896 12 13 12.896 13 14C13 14.552 12.552 15 12 15C12 15 6.101 15 2.943 15C2.162 15 1.414 14.69 0.862 14.138C0.31 13.586 0 12.838 0 12.057C0 9.823 0 6.177 0 3.943C0 3.162 0.31 2.414 0.862 1.862C1.414 1.31 2.162 1 2.943 1C3.727 1 4.587 1 5.195 1C5.976 1 6.724 1.31 7.276 1.862L8.138 2.724C8.315 2.901 8.555 3 8.805 3H13.057C14.683 3 16 4.317 16 5.943ZM16 14C16 14.552 15.552 15 15 15C14.448 15 14 14.552 14 14C14 13.448 14.448 13 15 13C15.552 13 16 13.448 16 14Z" fill="url(#paint0_linear_15_1309)"/>
<path fill-rule="evenodd" clip-rule="evenodd" d="M3.74846 10.5847L4.93284 11.1986L5.50828 13.0324C5.57278 13.2374 5.68277 13.4234 5.82825 13.5754L5.84025 13.5879C6.16372 13.9264 6.63117 14.0683 7.08263 13.9689C7.52459 13.8714 7.89555 13.5529 8.06503 13.1149C8.71997 11.4246 9.4734 8.85785 9.91186 7.72496C10.0923 7.2595 9.98685 6.73006 9.65038 6.37809L9.64738 6.37509C9.27192 5.98263 8.69547 5.88814 8.21602 6.13911C6.93764 6.80755 3.86044 8.26041 3.86044 8.26041C3.61097 8.3784 3.50398 8.67637 3.62147 8.92584C3.73946 9.17532 3.66146 9.66577 3.53448 9.91075C3.40749 10.1557 3.50348 10.4577 3.74846 10.5847ZM2.85354 9.14682C3.04852 9.3418 3.04852 9.65877 2.85354 9.85375C2.65856 10.0492 2.34159 10.0492 2.14661 9.85375C1.95113 9.65877 1.95113 9.3418 2.14661 9.14682C2.34159 8.95184 2.65856 8.95184 2.85354 9.14682Z" fill="#279FD7"/>
<path fill-rule="evenodd" clip-rule="evenodd" d="M4.74846 9.58468L5.93284 10.1986L6.50828 12.0324C6.57278 12.2374 6.68277 12.4234 6.82825 12.5754L6.84025 12.5879C7.16372 12.9264 7.63117 13.0683 8.08263 12.9689C8.52459 12.8714 8.89555 12.5529 9.06503 12.1149C9.71997 10.4246 10.4734 7.85785 10.9119 6.72496C11.0923 6.2595 10.9868 5.73006 10.6504 5.37809L10.6474 5.37509C10.2719 4.98263 9.69547 4.88814 9.21602 5.13911C7.93764 5.80755 4.86044 7.26041 4.86044 7.26041C4.61097 7.3784 4.50398 7.67637 4.62147 7.92584C4.73946 8.17532 4.66146 8.66577 4.53448 8.91075C4.40749 9.15572 4.50348 9.45769 4.74846 9.58468ZM3.85354 8.14682C4.04852 8.3418 4.04852 8.65877 3.85354 8.85375C3.65856 9.04923 3.34159 9.04923 3.14661 8.85375C2.95113 8.65877 2.95113 8.3418 3.14661 8.14682C3.34159 7.95184 3.65856 7.95184 3.85354 8.14682Z" fill="url(#paint1_linear_15_1309)"/>
</g>
<defs>
<linearGradient id="paint0_linear_15_1309" x1="1.6" y1="15.0044" x2="6.13048" y2="-0.530628" gradientUnits="userSpaceOnUse">
<stop stop-color="#22B4FA"/>
<stop offset="1" stop-color="#6BD6FE"/>
</linearGradient>
<linearGradient id="paint1_linear_15_1309" x1="3" y1="13" x2="12.4108" y2="10.6476" gradientUnits="userSpaceOnUse">
<stop stop-color="#6BD6FE"/>
<stop offset="1" stop-color="white"/>
</linearGradient>
<clipPath id="clip0_15_1309">
<rect width="16" height="16" fill="white"/>
</clipPath>
</defs>
</svg>
