<svg width="16" height="16" viewBox="0 0 16 16" fill="none" xmlns="http://www.w3.org/2000/svg">
<g clip-path="url(#clip0_43_1932)">
<path d="M4.31152 15.994C3.75947 15.9925 3.42857 15.4092 3.42857 14.8571C3.42857 13.5948 2.40522 12.5714 1.14286 12.5714C0.590797 12.5714 0.00754833 12.2405 0.00600052 11.6885C0.00201893 10.2688 0 8.06866 0 8V3.42857C0 1.53502 1.53502 0 3.42857 0H12.5714C14.465 0 16 1.53502 16 3.42857V12.5714C16 14.465 14.465 16 12.5714 16H8C7.93134 16 5.73124 15.998 4.31152 15.994Z" fill="url(#paint0_linear_43_1932)"/>
<path d="M1.14286 13.7143C0.511674 13.7143 0 14.226 0 14.8571C0 15.4883 0.511674 16 1.14286 16C1.77404 16 2.28571 15.4883 2.28571 14.8571C2.28571 14.226 1.77404 13.7143 1.14286 13.7143Z" fill="url(#paint1_linear_43_1932)"/>
<path d="M9.9884 4.64293C10.336 4.64285 10.6706 4.77502 10.9243 5.0126C11.1781 5.25015 11.3319 5.57535 11.3547 5.9222L11.3575 6.012V10.9646C11.3575 11.1026 11.4694 11.2146 11.6075 11.2146H12.179C12.3899 11.2147 12.5928 11.296 12.7454 11.4415C12.8981 11.5871 12.9889 11.7858 12.9991 11.9965C13.0092 12.2073 12.9379 12.4138 12.7999 12.5734C12.6619 12.7329 12.4678 12.8333 12.2578 12.8537L12.179 12.8575H11.6075C11.4694 12.8575 11.3575 12.9694 11.3575 13.1075V13.679C11.3574 13.8899 11.2761 14.0928 11.1306 14.2454C10.985 14.3981 10.7862 14.4889 10.5755 14.4991C10.3648 14.5092 10.1583 14.4379 9.9987 14.2999C9.83913 14.1619 9.73878 13.9678 9.7184 13.7578L9.71457 13.679V6.53582C9.71457 6.39775 9.60265 6.28582 9.46457 6.28582H6.1311C5.99303 6.28582 5.8811 6.1739 5.8811 6.03582V4.89292C5.8811 4.75485 5.99303 4.64293 6.1311 4.64293H9.9884ZM3.96438 3C4.18223 3 4.39118 3.08655 4.54523 3.2406C4.69928 3.39465 4.78582 3.6036 4.78582 3.82145V10.9646C4.78582 11.1026 4.89775 11.2146 5.03582 11.2146H8.3693C8.50737 11.2146 8.6193 11.3265 8.6193 11.4646V12.6075C8.6193 12.7456 8.50737 12.8575 8.3693 12.8575H4.512C4.1489 12.8575 3.80067 12.7133 3.54392 12.4565C3.28715 12.1997 3.14293 11.8515 3.14293 11.4884V6.53582C3.14293 6.39775 3.03098 6.28582 2.89293 6.28582H2.32145C2.1036 6.28582 1.89465 6.19928 1.7406 6.04523C1.58655 5.89118 1.5 5.68223 1.5 5.46438C1.5 5.2465 1.58655 5.03757 1.7406 4.88352C1.89465 4.72945 2.1036 4.64293 2.32145 4.64293H2.89293C3.03098 4.64293 3.14293 4.53098 3.14293 4.39293V3.82145C3.14293 3.6036 3.22945 3.39465 3.38352 3.2406C3.53757 3.08655 3.7465 3 3.96438 3Z" fill="#D84F4F"/>
<path d="M10.9884 3.64293C11.336 3.64285 11.6706 3.77502 11.9243 4.0126C12.1781 4.25015 12.3319 4.57535 12.3547 4.9222L12.3575 5.012V9.96457C12.3575 10.1026 12.4694 10.2146 12.6075 10.2146H13.179C13.3899 10.2147 13.5928 10.296 13.7454 10.4415C13.8981 10.5871 13.9889 10.7858 13.9991 10.9965C14.0092 11.2073 13.9379 11.4138 13.7999 11.5734C13.6619 11.7329 13.4678 11.8333 13.2578 11.8537L13.179 11.8575H12.6075C12.4694 11.8575 12.3575 11.9694 12.3575 12.1075V12.679C12.3574 12.8899 12.2761 13.0928 12.1306 13.2454C11.985 13.3981 11.7862 13.4889 11.5755 13.4991C11.3648 13.5092 11.1583 13.4379 10.9987 13.2999C10.8391 13.1619 10.7388 12.9678 10.7184 12.7578L10.7146 12.679V5.53582C10.7146 5.39775 10.6026 5.28582 10.4646 5.28582H7.1311C6.99303 5.28582 6.8811 5.1739 6.8811 5.03582V3.89292C6.8811 3.75485 6.99303 3.64293 7.1311 3.64293H10.9884ZM4.96438 2C5.18223 2 5.39118 2.08655 5.54523 2.2406C5.69928 2.39465 5.78582 2.6036 5.78582 2.82145V9.96457C5.78582 10.1026 5.89775 10.2146 6.03582 10.2146H9.3693C9.50737 10.2146 9.6193 10.3265 9.6193 10.4646V11.6075C9.6193 11.7456 9.50737 11.8575 9.3693 11.8575H5.512C5.1489 11.8575 4.80067 11.7133 4.54392 11.4565C4.28715 11.1997 4.14293 10.8515 4.14293 10.4884V5.53582C4.14293 5.39775 4.03098 5.28582 3.89293 5.28582H3.32145C3.1036 5.28582 2.89465 5.19928 2.7406 5.04523C2.58655 4.89118 2.5 4.68223 2.5 4.46438C2.5 4.2465 2.58655 4.03757 2.7406 3.88352C2.89465 3.72945 3.1036 3.64293 3.32145 3.64293H3.89293C4.03098 3.64293 4.14293 3.53098 4.14293 3.39293V2.82145C4.14293 2.6036 4.22945 2.39465 4.38352 2.2406C4.53757 2.08655 4.7465 2 4.96438 2Z" fill="url(#paint2_linear_43_1932)"/>
</g>
<defs>
<linearGradient id="paint0_linear_43_1932" x1="3" y1="14" x2="13" y2="2" gradientUnits="userSpaceOnUse">
<stop stop-color="#FF405B"/>
<stop offset="1" stop-color="#FF8860"/>
</linearGradient>
<linearGradient id="paint1_linear_43_1932" x1="3" y1="14" x2="13" y2="2" gradientUnits="userSpaceOnUse">
<stop stop-color="#FF405B"/>
<stop offset="1" stop-color="#FF8860"/>
</linearGradient>
<linearGradient id="paint2_linear_43_1932" x1="5.78443" y1="13.4998" x2="9.53794" y2="4.5631" gradientUnits="userSpaceOnUse">
<stop stop-color="#FF8860"/>
<stop offset="1" stop-color="white"/>
</linearGradient>
<clipPath id="clip0_43_1932">
<rect width="16" height="16" fill="white"/>
</clipPath>
</defs>
</svg>
