<svg width="16" height="16" viewBox="0 0 16 16" fill="none" xmlns="http://www.w3.org/2000/svg">
<g clip-path="url(#clip0_42_1646)">
<path fill-rule="evenodd" clip-rule="evenodd" d="M7.98934 16C12.1257 16 15.4787 12.6469 15.4787 8.51062C15.4787 8.16386 14.9589 8.10619 14.7799 8.40352C14.3982 9.03583 13.8775 9.57302 13.2574 9.97439C12.6373 10.3757 11.9339 10.6306 11.2007 10.7199C10.4674 10.8091 9.72348 10.7303 9.02519 10.4895C8.32684 10.2486 7.69256 9.85204 7.1702 9.32968C6.64792 8.8074 6.25131 8.17305 6.01045 7.47476C5.7696 6.77648 5.69081 6.03253 5.78007 5.29928C5.86931 4.56603 6.12425 3.8627 6.52558 3.24257C6.92693 2.62244 7.46406 2.10177 8.09644 1.72C8.39377 1.54025 8.3361 1.02124 7.98934 1.02124C6.56883 1.02124 5.2407 1.41669 4.10904 2.1035C3.56965 2.43086 3.61676 3.20333 3.8083 3.80451C3.87066 4.00026 3.90432 4.20881 3.90432 4.42523C3.90432 5.55331 2.98983 6.46779 1.86175 6.46779C1.32139 6.46779 0.703084 6.68826 0.610664 7.22066C0.537918 7.63972 0.5 8.07074 0.5 8.51062C0.5 12.6469 3.85298 16 7.98934 16ZM1.52128 5.10642C2.08532 5.10642 2.54257 4.64917 2.54257 4.08513C2.54257 3.52109 2.08532 3.06385 1.52128 3.06385C0.957244 3.06385 0.5 3.52109 0.5 4.08513C0.5 4.64917 0.957244 5.10642 1.52128 5.10642Z" fill="url(#paint0_linear_42_1646)"/>
<path d="M4.9536 9.25461C5.01379 9.29571 5.06009 9.35399 5.08658 9.42185L5.20416 9.72068C5.22227 9.76689 5.24971 9.80888 5.28477 9.84405C5.31977 9.87923 5.36171 9.90682 5.40787 9.92514L5.70595 10.0435C5.77356 10.0704 5.83164 10.117 5.87249 10.1773C5.91334 10.2376 5.93519 10.3088 5.93519 10.3816C5.93519 10.4544 5.91334 10.5256 5.87249 10.5859C5.83164 10.6462 5.77356 10.6928 5.70595 10.7198L5.40787 10.8373C5.36171 10.8556 5.31977 10.8832 5.28477 10.9184C5.24971 10.9536 5.22227 10.9956 5.20416 11.0418L5.08658 11.3414C4.966 11.6484 4.53311 11.6484 4.41253 11.3414L4.29495 11.0425C4.25825 10.9482 4.18485 10.8748 4.09123 10.8373L3.79315 10.7198C3.72548 10.6928 3.66747 10.6462 3.62655 10.5859C3.5857 10.5256 3.56384 10.4544 3.56384 10.3816C3.56384 10.3088 3.5857 10.2376 3.62655 10.1773C3.66747 10.117 3.72548 10.0704 3.79315 10.0435L4.09123 9.92514C4.1374 9.90682 4.17927 9.87923 4.21426 9.84405C4.24933 9.80888 4.27677 9.76689 4.29495 9.72068L4.41253 9.42185C4.43895 9.35399 4.48531 9.29571 4.54543 9.25461C4.60555 9.21351 4.6767 9.19153 4.74955 9.19153C4.82234 9.19153 4.89348 9.21351 4.9536 9.25461Z" fill="#B85C68"/>
<path d="M6.10782 8.67649C6.08133 8.60863 6.03503 8.55034 5.97484 8.50925C5.91473 8.46815 5.84358 8.44617 5.77079 8.44617C5.69794 8.44617 5.62679 8.46815 5.56667 8.50925C5.50655 8.55034 5.46019 8.60863 5.43377 8.67649L5.31619 8.97531C5.29801 9.02153 5.27057 9.06352 5.2355 9.09869C5.20051 9.13386 5.15864 9.16146 5.11247 9.17977L4.81439 9.29811C4.74672 9.32506 4.68871 9.37169 4.64779 9.43197C4.60694 9.49225 4.58508 9.56342 4.58508 9.63625C4.58508 9.70909 4.60694 9.78024 4.64779 9.84052C4.68871 9.90081 4.74672 9.94744 4.81439 9.97439L5.11247 10.092C5.20609 10.1294 5.27949 10.2028 5.31619 10.2972L5.43377 10.596C5.55435 10.9031 5.98724 10.9031 6.10782 10.596L6.2254 10.2964C6.24351 10.2502 6.27095 10.2082 6.30601 10.1731C6.34101 10.1379 6.38295 10.1103 6.42911 10.092L6.72719 9.97439C6.7948 9.94744 6.85288 9.90081 6.89373 9.84052C6.93458 9.78024 6.95643 9.70909 6.95643 9.63625C6.95643 9.56342 6.93458 9.49225 6.89373 9.43197C6.85288 9.37169 6.7948 9.32506 6.72719 9.29811L6.42911 9.17977C6.38295 9.16146 6.34101 9.13386 6.30601 9.09869C6.27095 9.06352 6.24351 9.02153 6.2254 8.97531L6.10782 8.67649Z" fill="url(#paint1_linear_42_1646)"/>
<path d="M8.87105 4.14816C8.93117 4.18926 8.97754 4.24755 9.00395 4.3154L9.326 5.13474C9.34418 5.18116 9.37168 5.22334 9.40688 5.25865C9.44202 5.29396 9.48409 5.32164 9.53046 5.33995L10.3476 5.66349C10.4152 5.69044 10.4732 5.73707 10.5142 5.79735C10.555 5.85764 10.5769 5.9288 10.5769 6.00163C10.5769 6.07447 10.555 6.14562 10.5142 6.20591C10.4732 6.26619 10.4152 6.31282 10.3476 6.33978L9.53046 6.66332C9.48416 6.68155 9.44215 6.7091 9.40695 6.74428C9.37182 6.77945 9.34425 6.82149 9.326 6.86777L9.00395 7.68786C8.88412 7.99492 8.45124 7.99492 8.32991 7.68786L8.00786 6.86852C7.98989 6.82222 7.96252 6.78015 7.92745 6.74495C7.89239 6.70976 7.85045 6.68222 7.80415 6.66407L6.98712 6.34053C6.91945 6.31357 6.86144 6.26694 6.82052 6.20666C6.77967 6.14637 6.75781 6.07522 6.75781 6.00238C6.75781 5.92955 6.77967 5.85838 6.82052 5.7981C6.86144 5.73782 6.91945 5.69119 6.98712 5.66424L7.80415 5.3407C7.85038 5.3223 7.89232 5.29459 7.92739 5.25929C7.96245 5.22398 7.98982 5.18184 8.00786 5.13549L8.32991 4.3154C8.35639 4.24755 8.40269 4.18926 8.46288 4.14816C8.523 4.10707 8.59415 4.08508 8.66693 4.08508C8.73978 4.08508 8.81093 4.10707 8.87105 4.14816Z" fill="url(#paint2_linear_42_1646)"/>
<path d="M11.8048 0.0630813C11.8649 0.104178 11.9113 0.162466 11.9377 0.23032L12.2597 1.04965C12.2779 1.09608 12.3054 1.13826 12.3406 1.17357C12.3757 1.20888 12.4178 1.23656 12.4642 1.25486L13.2813 1.57841C13.3489 1.60535 13.407 1.65199 13.4479 1.71227C13.4887 1.77255 13.5106 1.84372 13.5106 1.91655C13.5106 1.98938 13.4887 2.06054 13.4479 2.12082C13.407 2.18111 13.3489 2.22774 13.2813 2.25469L12.4642 2.57824C12.4179 2.59646 12.3759 2.62402 12.3407 2.6592C12.3055 2.69437 12.278 2.73641 12.2597 2.78269L11.9377 3.60277C11.8178 3.90984 11.385 3.90984 11.2636 3.60277L10.9416 2.78344C10.9236 2.73713 10.8962 2.69506 10.8612 2.65987C10.8261 2.62468 10.7842 2.59714 10.7379 2.57898L9.92084 2.25544C9.85316 2.22849 9.79515 2.18186 9.75424 2.12157C9.71338 2.06129 9.69153 1.99013 9.69153 1.9173C9.69153 1.84446 9.71338 1.7733 9.75424 1.71302C9.79515 1.65274 9.85316 1.6061 9.92084 1.57916L10.7379 1.25561C10.7841 1.23722 10.826 1.20951 10.8611 1.1742C10.8962 1.13889 10.9235 1.09676 10.9416 1.0504L11.2636 0.23032C11.2901 0.162466 11.3364 0.104178 11.3966 0.0630813C11.4567 0.0219849 11.5279 0 11.6006 0C11.6735 0 11.7446 0.0219849 11.8048 0.0630813Z" fill="url(#paint3_linear_42_1646)"/>
</g>
<defs>
<linearGradient id="paint0_linear_42_1646" x1="1.56991" y1="15.0829" x2="15.2838" y2="7.68203" gradientUnits="userSpaceOnUse">
<stop stop-color="#B65592"/>
<stop offset="0.5" stop-color="#FB6F71"/>
<stop offset="1" stop-color="#F9CB52"/>
</linearGradient>
<linearGradient id="paint1_linear_42_1646" x1="4.75447" y1="10.6806" x2="6.92919" y2="9.51129" gradientUnits="userSpaceOnUse">
<stop stop-color="#D4A4C4"/>
<stop offset="0.5" stop-color="#F7B1B3"/>
<stop offset="1" stop-color="#F7E1A3"/>
</linearGradient>
<linearGradient id="paint2_linear_42_1646" x1="7.0306" y1="7.68348" x2="10.5329" y2="5.80031" gradientUnits="userSpaceOnUse">
<stop stop-color="#B65592"/>
<stop offset="0.5" stop-color="#FB6F71"/>
<stop offset="1" stop-color="#F9CB52"/>
</linearGradient>
<linearGradient id="paint3_linear_42_1646" x1="9.96432" y1="3.5984" x2="13.4666" y2="1.71523" gradientUnits="userSpaceOnUse">
<stop stop-color="#B65592"/>
<stop offset="0.5" stop-color="#FB6F71"/>
<stop offset="1" stop-color="#F9CB52"/>
</linearGradient>
<clipPath id="clip0_42_1646">
<rect width="16" height="16" fill="white"/>
</clipPath>
</defs>
</svg>
