<svg width="16" height="16" viewBox="0 0 16 16" fill="none" xmlns="http://www.w3.org/2000/svg">
<g clip-path="url(#clip0_7_215)">
<path fill-rule="evenodd" clip-rule="evenodd" d="M15 3C15.552 3 16 3.448 16 4V12.008C16 14.213 14.213 16 12.008 16C9.643 16 6.357 16 3.992 16C2.933 16 1.918 15.579 1.169 14.831C0.421 14.082 0 13.067 0 12.008C0 9.643 0 6.357 0 3.992C0 1.787 1.787 0 3.992 0C7.249 0 12 0 12 0C12.552 0 13 0.448 13 1C13 2.104 13.896 3 15 3ZM15 2C14.448 2 14 1.552 14 1C14 0.448 14.448 0 15 0C15.552 0 16 0.448 16 1C16 1.552 15.552 2 15 2Z" fill="url(#paint0_linear_7_215)"/>
<path fill-rule="evenodd" clip-rule="evenodd" d="M5.909 5.404C5.514 5.141 5.049 5 4.574 5H4.572C3.89 5 3.236 5.271 2.753 5.753C2.271 6.236 2 6.89 2 7.572C2 8.446 2 9.531 2 10.408C2 11.84 3.16 13 4.592 13C5.055 13 5.508 12.863 5.893 12.606L7.834 11.312C8.563 10.827 9 10.009 9 9.134C9 9.045 9 8.955 9 8.866C9 7.991 8.563 7.173 7.834 6.688L5.909 5.404ZM10 7V11C10 11.552 10.448 12 11 12C11.552 12 12 11.552 12 11V7C12 6.448 11.552 6 11 6C10.448 6 10 6.448 10 7ZM4.8 7.069L6.725 8.352C6.897 8.466 7 8.659 7 8.866V9.134C7 9.341 6.897 9.534 6.725 9.648L4.784 10.942C4.727 10.98 4.661 11 4.593 11C4.266 11 4 10.735 4 10.408V7.572C4 7.42 4.06 7.275 4.168 7.168C4.275 7.06 4.42 7 4.572 7H4.574C4.654 7 4.733 7.024 4.8 7.069Z" fill="#DA5150"/>
<path fill-rule="evenodd" clip-rule="evenodd" d="M6.90945 4.40467C6.51427 4.14103 6.04954 4.00012 5.57418 4.00012H5.57173C4.89018 4.00012 4.23564 4.27103 3.75373 4.7533C3.271 5.23603 3.00018 5.89012 3.00018 6.57194C3.00018 7.44603 3.00018 8.53103 3.00018 9.4083C3.00018 10.8397 4.16037 12.0001 5.59218 12.0001C6.05527 12.0001 6.50855 11.8633 6.89309 11.6065L8.83464 10.3124C9.56282 9.82693 9.99973 9.00966 9.99973 8.13421C9.99973 8.04557 9.99973 7.95466 9.99973 7.86603C9.99973 6.99057 9.56282 6.1733 8.83464 5.68785L6.90945 4.40467ZM5.8 6.06876L7.72518 7.35194C7.897 7.46648 8.00009 7.65921 8.00009 7.86557V8.13466C8.00009 8.34103 7.897 8.53375 7.72518 8.6483L5.78363 9.94239C5.72718 9.98012 5.66091 10.0001 5.593 10.0001C5.26572 10.0001 4.99981 9.73512 4.99981 9.4083V6.57194C4.99981 6.42057 5.06036 6.27512 5.16754 6.16785C5.27472 6.06057 5.42036 6.00012 5.57172 6.00012H5.57417C5.65436 6.00012 5.73291 6.02376 5.8 6.06876Z" fill="url(#paint1_linear_7_215)"/>
<path fill-rule="evenodd" clip-rule="evenodd" d="M11.0001 6V10C11.0001 10.552 11.4481 11 12.0001 11C12.5521 11 13.0001 10.552 13.0001 10V6C13.0001 5.448 12.5521 5 12.0001 5C11.4481 5 11.0001 5.448 11.0001 6Z" fill="url(#paint2_linear_7_215)"/>
</g>
<defs>
<linearGradient id="paint0_linear_7_215" x1="2" y1="15" x2="16" y2="1" gradientUnits="userSpaceOnUse">
<stop stop-color="#FF405B"/>
<stop offset="1" stop-color="#FF8860"/>
</linearGradient>
<linearGradient id="paint1_linear_7_215" x1="4.00007" y1="12.0001" x2="8.00007" y2="5.0001" gradientUnits="userSpaceOnUse">
<stop stop-color="#FF8860"/>
<stop offset="1" stop-color="white"/>
</linearGradient>
<linearGradient id="paint2_linear_7_215" x1="11.0001" y1="11" x2="13.0001" y2="5" gradientUnits="userSpaceOnUse">
<stop stop-color="#FF8860"/>
<stop offset="1" stop-color="white"/>
</linearGradient>
<clipPath id="clip0_7_215">
<rect width="16" height="16" fill="white"/>
</clipPath>
</defs>
</svg>
