<svg width="16" height="16" viewBox="0 0 16 16" fill="none" xmlns="http://www.w3.org/2000/svg">
<path d="M9.08953 15.8363C11.6615 15.3212 14.9871 13.4708 14.9871 8.6864C14.9871 4.3331 11.8005 1.43365 9.50829 0.101585C9.00066 -0.194616 8.40495 0.194552 8.40495 0.782836V2.28687C8.40495 3.4733 7.90633 5.63884 6.5208 6.53977C5.81321 6.99971 5.04804 6.31104 4.96247 5.47181L4.89171 4.78233C4.80943 3.98095 3.99324 3.49469 3.35313 3.98342C2.20207 4.85967 1 6.39825 1 8.68553C1 14.5363 5.35164 16 7.52706 16C7.65375 16 7.78706 15.9951 7.92524 15.9876C8.29222 15.9416 7.92524 16.0691 9.08953 15.8354V15.8363Z" fill="url(#paint0_linear_92_323)"/>
<path opacity="0.8" fill-rule="evenodd" clip-rule="evenodd" d="M8.71908 15.9074C9.25144 15.464 9.66848 14.7435 9.66848 13.6144C9.66848 12.5473 8.99459 11.8883 8.46725 11.5797C8.30594 11.4851 8.11837 11.6045 8.10434 11.7903C8.0583 12.3811 7.49059 12.8517 7.1047 12.4025C6.76325 12.0059 6.61925 11.4259 6.61925 11.0548V10.5694C6.61925 10.2781 6.32557 10.0839 6.07379 10.2337C5.1391 10.7874 3.90906 11.9278 3.90906 13.6144C3.90906 14.2188 4.0456 14.7062 4.26579 15.0966C5.42156 15.7625 6.65084 16 7.52706 16C7.65375 16 7.78706 15.9951 7.92524 15.9876C8.04429 15.9727 8.0861 15.976 8.128 15.9794C8.19906 15.985 8.27038 15.9907 8.71908 15.9074Z" fill="#D49F34"/>
<path d="M5.11377 13.0743C5.11377 15.23 6.85065 15.8964 7.9252 15.9886C8.2921 15.9425 7.9252 16.07 9.08941 15.8364C9.94425 15.5344 10.8732 14.7593 10.8732 13.0743C10.8732 12.0071 10.1993 11.3481 9.67196 11.0396C9.51065 10.9449 9.32309 11.0643 9.30905 11.2502C9.26301 11.8409 8.6953 12.3116 8.30941 11.8623C7.96796 11.4657 7.82396 10.8857 7.82396 10.5146V10.0292C7.82396 9.73796 7.53029 9.54378 7.2785 9.69353C6.34381 10.2473 5.11377 11.3876 5.11377 13.0743Z" fill="url(#paint1_linear_92_323)"/>
<path d="M7.33758 2.00004C7.33758 1.09347 6.60776 0.363647 5.70121 0.363647C4.79464 0.363647 4.06482 1.09347 4.06482 2.00004C4.06482 2.90659 4.79464 3.63641 5.70121 3.63641C6.60776 3.63641 7.33758 2.90659 7.33758 2.00004Z" fill="url(#paint2_linear_92_323)"/>
<defs>
<linearGradient id="paint0_linear_92_323" x1="3.62259" y1="14.9988" x2="13.7768" y2="4.34589" gradientUnits="userSpaceOnUse">
<stop stop-color="#FF8860"/>
<stop offset="1" stop-color="#FBD92C"/>
</linearGradient>
<linearGradient id="paint1_linear_92_323" x1="6.55363" y1="14.4019" x2="9.71215" y2="11.5357" gradientUnits="userSpaceOnUse">
<stop stop-color="#FBD92C"/>
<stop offset="1" stop-color="white"/>
</linearGradient>
<linearGradient id="paint2_linear_92_323" x1="4.67846" y1="3.43162" x2="6.72375" y2="0.977084" gradientUnits="userSpaceOnUse">
<stop stop-color="#FF8860"/>
<stop offset="1" stop-color="#FBD92C"/>
</linearGradient>
</defs>
</svg>
