<svg width="16" height="16" viewBox="0 0 16 16" fill="none" xmlns="http://www.w3.org/2000/svg">
<g clip-path="url(#clip0_15_1568)">
<path fill-rule="evenodd" clip-rule="evenodd" d="M3 8C3 6 1.336 5.837 1.276 5.807C0.780999 5.563 0.576999 4.963 0.820999 4.468C2.126 1.822 4.852 0 8 0C12.415 0 16 3.585 16 8C16 12.415 12.415 16 8 16C4.852 16 2.126 14.178 0.820999 11.532C0.576999 11.037 0.780999 10.437 1.276 10.193C1.336 10.163 3 10 3 8ZM1 9C0.448 9 0 8.552 0 8C0 7.448 0.448 7 1 7C1.552 7 2 7.448 2 8C2 8.552 1.552 9 1 9Z" fill="url(#paint0_linear_15_1568)"/>
<path d="M5.33842 12.7128C4.90794 12.5693 5.01115 11.9333 5.46491 11.9333H7.6C7.82091 11.9333 8 11.7542 8 11.5333V5.85746C8 5.57447 7.71419 5.38097 7.45144 5.48606L5.47367 6.27718C5.3218 6.33792 5.22222 6.485 5.22222 6.64857V8.90832C5.22222 9.05983 5.13662 9.19833 5.00111 9.26609L3.57889 9.9772C3.31293 10.1102 3 9.91678 3 9.61943V6.08215C3 5.92407 3.09309 5.78082 3.23754 5.71662L7.86729 3.65896C7.95303 3.62085 8.04943 3.6141 8.13964 3.63987L11.5988 4.6282C11.7705 4.67726 11.8889 4.83422 11.8889 5.01281V11.6696C11.8889 11.8296 11.7935 11.9742 11.6465 12.0372L8.13978 13.5401C8.04974 13.5787 7.94866 13.5829 7.85572 13.5519L5.33842 12.7128Z" fill="#D49F34"/>
<path d="M4.58461 11.1282C4.47699 11.0923 4.50279 10.9333 4.61623 10.9333H8.6C8.82091 10.9333 9 10.7542 9 10.5333V4.85746C9 4.57447 8.71419 4.38097 8.45144 4.48606L6.47367 5.27718C6.3218 5.33792 6.22222 5.485 6.22222 5.64857V7.90832C6.22222 8.05983 6.13662 8.19833 6.00111 8.26609L4.57889 8.9772C4.31293 9.11018 4 8.91678 4 8.61943V5.08215C4 4.92407 4.09309 4.78082 4.23754 4.71662L8.86729 2.65896C8.95303 2.62085 9.04943 2.6141 9.13964 2.63987L12.5988 3.6282C12.7705 3.67726 12.8889 3.83422 12.8889 4.01281V10.6696C12.8889 10.8296 12.7935 10.9742 12.6465 11.0372L9.13978 12.5401C9.04974 12.5787 8.94866 12.5829 8.85572 12.5519L4.58461 11.1282Z" fill="url(#paint1_linear_15_1568)"/>
</g>
<defs>
<linearGradient id="paint0_linear_15_1568" x1="3" y1="14.9988" x2="12.9991" y2="2.999" gradientUnits="userSpaceOnUse">
<stop stop-color="#FF8860"/>
<stop offset="1" stop-color="#FBD92C"/>
</linearGradient>
<linearGradient id="paint1_linear_15_1568" x1="6.22222" y1="10.1" x2="13.0541" y2="5.40652" gradientUnits="userSpaceOnUse">
<stop offset="0.237727" stop-color="#FBD92C"/>
<stop offset="0.972209" stop-color="white"/>
</linearGradient>
<clipPath id="clip0_15_1568">
<rect width="16" height="16" fill="white"/>
</clipPath>
</defs>
</svg>
