<svg width="16" height="16" viewBox="0 0 16 16" fill="none" xmlns="http://www.w3.org/2000/svg">
<g clip-path="url(#clip0_67_1435)">
<path fill-rule="evenodd" clip-rule="evenodd" d="M5 0H10.18C10.97 0 11.728 0.314 12.287 0.872C12.817 1.403 13.597 2.183 14.128 2.713C14.686 3.272 15 4.03 15 4.82V13.021C15 13.811 14.686 14.569 14.128 15.128C13.569 15.686 12.811 16 12.021 16C9.796 16 6.204 16 3.979 16C3.189 16 2.431 15.686 1.872 15.128C1.314 14.569 1 13.811 1 13.021V4C1 3.448 1.448 3 2 3C3.104 3 4 2.104 4 1C4 0.448 4.448 0 5 0ZM3 1C3 1.552 2.552 2 2 2C1.448 2 1 1.552 1 1C1 0.448 1.448 0 2 0C2.552 0 3 0.448 3 1Z" fill="url(#paint0_linear_67_1435)"/>
<path fill-rule="evenodd" clip-rule="evenodd" d="M7.19165 5.22223C6.28659 5.22223 5.4912 5.82221 5.24255 6.69244L4.4153 9.58788C4.40607 9.62013 4.39438 9.63038 4.38817 9.63527C4.3781 9.64319 4.36002 9.65203 4.33518 9.65434C4.31033 9.65665 4.29093 9.6513 4.27956 9.64536C4.27257 9.64172 4.25919 9.63379 4.24419 9.60379C3.95387 9.02314 3.36041 8.65638 2.71125 8.65638H2.41082C1.96301 8.65638 1.59998 9.0194 1.59998 9.46722C1.59998 9.91503 1.96301 10.2781 2.41082 10.2781H2.71125C2.74616 10.2781 2.77809 10.2978 2.79372 10.329C3.49272 11.7271 5.54516 11.5363 5.97456 10.0334L6.80184 7.13796C6.85157 6.96391 7.01065 6.84391 7.19165 6.84391H9.27912C9.72693 6.84391 10.09 6.48088 10.09 6.03307C10.09 5.58526 9.72693 5.22223 9.27912 5.22223H7.19165ZM8.56465 8.83424C8.248 8.51759 7.73461 8.51759 7.41796 8.83424C7.10131 9.15089 7.10131 9.6643 7.41796 9.98095L7.98907 10.5521C8.06823 10.6312 8.06823 10.7596 7.98907 10.8387L7.41796 11.4099C7.10131 11.7265 7.10131 12.2399 7.41796 12.5566C7.73461 12.8732 8.248 12.8732 8.56465 12.5566L9.13577 11.9854C9.21494 11.9063 9.34328 11.9063 9.42246 11.9854L9.99357 12.5566C10.3102 12.8732 10.8236 12.8732 11.1403 12.5566C11.4569 12.2399 11.4569 11.7265 11.1403 11.4099L10.5691 10.8387C10.49 10.7596 10.49 10.6312 10.5691 10.5521L11.1403 9.98095C11.4569 9.6643 11.4569 9.15089 11.1403 8.83424C10.8236 8.51759 10.3102 8.51759 9.99357 8.83424L9.42246 9.40536C9.34328 9.48453 9.21494 9.48453 9.13577 9.40536L8.56465 8.83424Z" fill="#45C5C2"/>
<path fill-rule="evenodd" clip-rule="evenodd" d="M8.41382 4C7.50876 4 6.71337 4.59998 6.46472 5.47022L5.63746 8.36565C5.62824 8.3979 5.61654 8.40815 5.61034 8.41304C5.60027 8.42097 5.58218 8.4298 5.55735 8.43211C5.5325 8.43443 5.5131 8.42907 5.50173 8.42313C5.49473 8.41949 5.48136 8.41156 5.46636 8.38156C5.17603 7.80092 4.58258 7.43415 3.93342 7.43415H3.63298C3.18518 7.43415 2.82214 7.79717 2.82214 8.24499C2.82214 8.6928 3.18518 9.05583 3.63298 9.05583H3.93342C3.96833 9.05583 4.00025 9.07556 4.01588 9.1068C4.71489 10.5048 6.76733 10.3141 7.19673 8.81116L8.02401 5.91573C8.07373 5.74169 8.23282 5.62168 8.41382 5.62168H10.5013C10.9491 5.62168 11.3121 5.25865 11.3121 4.81084C11.3121 4.36303 10.9491 4 10.5013 4H8.41382ZM9.78682 7.61201C9.47016 7.29536 8.95678 7.29536 8.64013 7.61201C8.32347 7.92866 8.32347 8.44207 8.64013 8.75872L9.21124 9.32984C9.2904 9.409 9.2904 9.53735 9.21124 9.61651L8.64013 10.1876C8.32347 10.5043 8.32347 11.0177 8.64013 11.3343C8.95678 11.651 9.47016 11.651 9.78682 11.3343L10.3579 10.7632C10.4371 10.684 10.5654 10.684 10.6446 10.7632L11.2157 11.3343C11.5324 11.651 12.0458 11.651 12.3624 11.3343C12.6791 11.0177 12.6791 10.5043 12.3624 10.1876L11.7913 9.61651C11.7122 9.53735 11.7122 9.409 11.7913 9.32984L12.3624 8.75872C12.6791 8.44207 12.6791 7.92866 12.3624 7.61201C12.0458 7.29536 11.5324 7.29536 11.2157 7.61201L10.6446 8.18313C10.5654 8.2623 10.4371 8.2623 10.3579 8.18313L9.78682 7.61201Z" fill="url(#paint1_linear_67_1435)"/>
</g>
<defs>
<linearGradient id="paint0_linear_67_1435" x1="3.625" y1="14" x2="14.6547" y2="3.47162" gradientUnits="userSpaceOnUse">
<stop stop-color="#00DAD4"/>
<stop offset="1" stop-color="#C4FFFD"/>
</linearGradient>
<linearGradient id="paint1_linear_67_1435" x1="4.77775" y1="10.4903" x2="7.1706" y2="4.72225" gradientUnits="userSpaceOnUse">
<stop stop-color="#7EEFEC"/>
<stop offset="1" stop-color="white"/>
</linearGradient>
<clipPath id="clip0_67_1435">
<rect width="16" height="16" fill="white"/>
</clipPath>
</defs>
</svg>
