<svg width="16" height="16" viewBox="0 0 16 16" fill="none" xmlns="http://www.w3.org/2000/svg">
<g clip-path="url(#clip0_7_177)">
<path fill-rule="evenodd" clip-rule="evenodd" d="M15 3C15.552 3 16 3.448 16 4V12.008C16 14.213 14.213 16 12.008 16C9.643 16 6.357 16 3.992 16C2.933 16 1.918 15.579 1.169 14.831C0.421 14.082 0 13.067 0 12.008C0 9.643 0 6.357 0 3.992C0 1.787 1.787 0 3.992 0C7.249 0 12 0 12 0C12.552 0 13 0.448 13 1C13 2.104 13.896 3 15 3ZM15 2C14.448 2 14 1.552 14 1C14 0.448 14.448 0 15 0C15.552 0 16 0.448 16 1C16 1.552 15.552 2 15 2Z" fill="url(#paint0_linear_7_177)"/>
<path fill-rule="evenodd" clip-rule="evenodd" d="M0 12.0011C0 12.0011 2.64964 8.47876 3.41949 8.47876C4.34928 8.47876 5.19998 9.00429 5.61566 9.83566L6.39254 11.3894L6.97871 10.8032C7.34166 10.4403 7.8338 10.2364 8.34703 10.2364H8.35055C8.86378 10.2364 9.35592 10.4403 9.71887 10.8032L10.2919 11.3762C10.6355 11.7198 10.6355 12.2761 10.2919 12.6198C9.94912 12.9625 9.39195 12.9625 9.04921 12.6198L8.47622 12.0459C8.44282 12.0125 8.39712 11.994 8.35055 11.994H8.34703C8.29958 11.994 8.25476 12.0125 8.22136 12.0459L7.4647 12.8026C7.10438 13.1629 6.59379 13.3272 6.0911 13.2464C5.58842 13.1646 5.15604 12.8465 4.92842 12.3913L4.04345 10.6222C3.92569 10.3858 3.68401 10.2364 3.41949 10.2364C3.2033 10.2364 2.99941 10.3383 2.86935 10.5115C2.1118 11.5221 0.703056 13.4002 0.703056 13.4002C0.622205 13.5074 0.522898 13.5909 0.411288 13.6497C0.144126 13.1462 0 12.5811 0 12.0011Z" fill="#D49F34"/>
<path fill-rule="evenodd" clip-rule="evenodd" d="M7.27131 10.5106L6.49444 8.95687C6.07875 8.12551 5.22894 7.59998 4.29827 7.59998C3.52842 7.59998 2.80427 7.96205 2.34201 8.5781C1.58447 9.58875 0.17572 11.4668 0.17572 11.4668C-0.115169 11.8552 -0.036954 12.4062 0.351485 12.6971C0.739923 12.988 1.29094 12.9098 1.58183 12.5214C1.58183 12.5214 2.99058 10.6433 3.74812 9.63269C3.87819 9.45956 4.08208 9.35762 4.29827 9.35762C4.56279 9.35762 4.80447 9.50702 4.92223 9.74342L5.8072 11.5125C6.03481 11.9677 6.46719 12.2858 6.96988 12.3676C7.47256 12.4484 7.98404 12.2841 8.34347 11.9238L9.10014 11.1671C9.13353 11.1337 9.17835 11.1153 9.22581 11.1153H9.22932C9.27678 11.1153 9.3216 11.1337 9.355 11.1671L9.92799 11.741C10.2716 12.0837 10.8279 12.0837 11.1715 11.741C11.5143 11.3974 11.5143 10.8411 11.1715 10.4974L10.5976 9.92445C10.2347 9.5615 9.74256 9.35762 9.22932 9.35762H9.22581C8.71258 9.35762 8.22044 9.5615 7.85749 9.92445L7.27131 10.5106Z" fill="url(#paint1_linear_7_177)"/>
<path fill-rule="evenodd" clip-rule="evenodd" d="M10.9783 2.78401C10.6774 2.58363 10.3231 2.4762 9.96116 2.4762H9.95964C9.44001 2.4762 8.94172 2.68267 8.57372 3.04992C8.20648 3.41792 8 3.91621 8 4.43583C8 5.10175 8 5.92842 8 6.59662C8 7.68768 8.88382 8.5715 9.97488 8.5715C10.3276 8.5715 10.6728 8.46711 10.9661 8.2713L12.445 7.28539C13.0004 6.91586 13.3334 6.29262 13.3334 5.62594C13.3334 5.55813 13.3334 5.48956 13.3334 5.42175C13.3334 4.75508 13.0004 4.13183 12.445 3.7623L10.9783 2.78401ZM10.1334 4.05259L11.6 5.03013C11.7311 5.11699 11.8096 5.26403 11.8096 5.42175V5.62594C11.8096 5.78366 11.7311 5.93071 11.6 6.01757L10.1212 7.00348C10.0777 7.03243 10.0274 7.04767 9.97564 7.04767C9.72649 7.04767 9.52383 6.84576 9.52383 6.59662V4.43583C9.52383 4.32002 9.56954 4.20955 9.65183 4.12802C9.73335 4.04574 9.84383 4.00002 9.95964 4.00002H9.96116C10.0221 4.00002 10.0823 4.01831 10.1334 4.05259Z" fill="#D49F34"/>
<path fill-rule="evenodd" clip-rule="evenodd" d="M11.7405 2.02246C11.4394 1.82159 11.0853 1.71423 10.7231 1.71423H10.7213C10.202 1.71423 9.70327 1.92064 9.3361 2.28809C8.9683 2.65589 8.76196 3.15425 8.76196 3.67373C8.76196 4.33971 8.76196 5.16639 8.76196 5.83479C8.76196 6.92536 9.64592 7.80953 10.7368 7.80953C11.0897 7.80953 11.435 7.70528 11.728 7.50961L13.2073 6.52363C13.7621 6.15375 14.095 5.53106 14.095 4.86405C14.095 4.79651 14.095 4.72725 14.095 4.65971C14.095 3.9927 13.7621 3.37001 13.2073 3.00013L11.7405 2.02246ZM10.8952 3.29035L12.362 4.26802C12.4929 4.3553 12.5715 4.50214 12.5715 4.65937V4.86439C12.5715 5.02162 12.4929 5.16846 12.362 5.25574L10.8827 6.24172C10.8397 6.27047 10.7892 6.28571 10.7375 6.28571C10.4881 6.28571 10.2855 6.0838 10.2855 5.83479V3.67373C10.2855 3.55841 10.3316 3.44758 10.4133 3.36585C10.495 3.28412 10.6059 3.23806 10.7213 3.23806H10.7231C10.7842 3.23806 10.8441 3.25607 10.8952 3.29035Z" fill="url(#paint2_linear_7_177)"/>
</g>
<defs>
<linearGradient id="paint0_linear_7_177" x1="3" y1="14.9988" x2="12.9991" y2="2.999" gradientUnits="userSpaceOnUse">
<stop stop-color="#FF8860"/>
<stop offset="1" stop-color="#FBD92C"/>
</linearGradient>
<linearGradient id="paint1_linear_7_177" x1="2.85714" y1="11.5546" x2="4.86295" y2="7.20719" gradientUnits="userSpaceOnUse">
<stop stop-color="#FBD92C"/>
<stop offset="1" stop-color="white"/>
</linearGradient>
<linearGradient id="paint2_linear_7_177" x1="10.0952" y1="6.2857" x2="13.1159" y2="3.6428" gradientUnits="userSpaceOnUse">
<stop stop-color="#FBD92C"/>
<stop offset="1" stop-color="white"/>
</linearGradient>
<clipPath id="clip0_7_177">
<rect width="16" height="16" fill="white"/>
</clipPath>
</defs>
</svg>
