<svg width="16" height="16" viewBox="0 0 16 16" fill="none" xmlns="http://www.w3.org/2000/svg">
<g clip-path="url(#clip0_33_761)">
<path fill-rule="evenodd" clip-rule="evenodd" d="M16 15C16 14.448 15.552 14 15 14C14.448 14 14 14.448 14 15C14 15.552 14.448 16 15 16C15.552 16 16 15.552 16 15ZM13 15C13 13.896 13.896 13 15 13C15.552 13 16 12.552 16 12C16 12 16 7.216 16 3.958C16 1.772 14.228 0 12.042 0H3.958C1.772 0 0 1.772 0 3.958V12.042C0 14.228 1.772 16 3.958 16C7.216 16 12 16 12 16C12.552 16 13 15.552 13 15Z" fill="url(#paint0_linear_33_761)"/>
<path d="M1.8661 10.1225C2.21008 12.3569 4.18023 14.1619 6.43634 14.3688C8.00451 14.545 9.63682 13.9672 10.7609 12.8537C11.8109 11.8378 12.3995 10.3775 12.3505 8.93209C12.3079 7.11269 11.2348 5.37298 9.62423 4.52169C8.1401 3.71254 6.2651 3.69318 4.74152 4.45547L4.72992 4.43559C4.61032 4.23088 4.48141 4.01022 4.33255 3.81163L4.32367 3.79976L4.31345 3.78902C4.15392 3.62079 3.92931 3.57546 3.73767 3.61168C3.54975 3.64719 3.3618 3.76685 3.2695 3.97075C2.80357 4.83627 2.34534 5.70523 1.89323 6.57723C1.74931 6.80324 1.78722 7.06298 1.9044 7.2451C2.02006 7.4249 2.23612 7.56592 2.49393 7.54005C3.47154 7.55106 4.45008 7.55466 5.42756 7.55205C5.85622 7.57429 6.1759 7.1577 6.08618 6.76278L6.08052 6.73784L6.07001 6.71451C5.96591 6.48309 5.82974 6.26129 5.70251 6.0562C6.5173 5.70537 7.45857 5.66044 8.27634 5.96774L8.27853 5.96858L8.28072 5.96935C9.29279 6.32883 10.0953 7.20164 10.3611 8.23517L10.3617 8.23769L10.3624 8.24019C10.7736 9.71514 10.0178 11.4402 8.6193 12.134L8.61458 12.1364L8.60996 12.1389C7.17614 12.9252 5.22543 12.4807 4.3016 11.1716L4.29565 11.1632L4.28911 11.1554C4.11788 10.9499 4.00079 10.7087 3.89882 10.4387C3.84807 10.3043 3.80243 10.1666 3.7549 10.0232L3.75401 10.0205C3.70672 9.87784 3.6575 9.72951 3.60202 9.5836L3.59396 9.56235L3.58228 9.54288C3.33588 9.13233 2.86755 9.06987 2.51455 9.18667C2.1621 9.30329 1.823 9.63196 1.86408 10.1057L1.86482 10.1142L1.8661 10.1225Z" fill="#8C4FD9"/>
<path d="M3.06605 8.92253C3.41003 11.1569 5.38018 12.9619 7.6363 13.1688C9.20447 13.345 10.8368 12.7672 11.9609 11.6537C13.0109 10.6378 13.5994 9.17753 13.5505 7.73208C13.5079 5.91268 12.4347 4.17296 10.8242 3.32168C9.34005 2.51253 7.46505 2.49316 5.94147 3.25546L5.92987 3.23558C5.81027 3.03087 5.68136 2.81021 5.5325 2.61161L5.52362 2.59975L5.5134 2.58901C5.35387 2.42078 5.12926 2.37545 4.93762 2.41167C4.7497 2.44718 4.56175 2.56683 4.46945 2.77073C4.00352 3.63625 3.54529 4.50522 3.09318 5.37722C2.94926 5.60323 2.98717 5.86296 3.10436 6.04509C3.22001 6.22488 3.43607 6.36591 3.69388 6.34004C4.67149 6.35104 5.65003 6.35465 6.62751 6.35204C7.05617 6.37428 7.37585 5.95768 7.28613 5.56277L7.28047 5.53782L7.26996 5.5145C7.16586 5.28308 7.02969 5.06128 6.90246 4.85618C7.71725 4.50536 8.65852 4.46042 9.47629 4.76773L9.47848 4.76856L9.48067 4.76933C10.4927 5.12882 11.2953 6.00163 11.561 7.03516L11.5617 7.03768L11.5624 7.04018C11.9735 8.51513 11.2177 10.2402 9.81925 10.934L9.81453 10.9364L9.80991 10.9389C8.37609 11.7252 6.42538 11.2807 5.50155 9.97161L5.4956 9.96322L5.48906 9.95536C5.31783 9.74987 5.20074 9.5087 5.09877 9.23865C5.04802 9.10427 5.00239 8.96658 4.95485 8.82323L4.95396 8.82044C4.90668 8.67783 4.85746 8.5295 4.80197 8.38359L4.79391 8.36234L4.78223 8.34287C4.53583 7.93231 4.0675 7.86985 3.71451 7.98666C3.36205 8.10328 3.02295 8.43195 3.06403 8.9057L3.06477 8.91415L3.06605 8.92253Z" fill="url(#paint1_linear_33_761)"/>
</g>
<defs>
<linearGradient id="paint0_linear_33_761" x1="4" y1="14.8571" x2="14.5882" y2="2.5042" gradientUnits="userSpaceOnUse">
<stop stop-color="#A056FF"/>
<stop offset="1" stop-color="#C59AFD"/>
</linearGradient>
<linearGradient id="paint1_linear_33_761" x1="5.63832" y1="13.2" x2="15.9745" y2="9.83334" gradientUnits="userSpaceOnUse">
<stop stop-color="#C59AFD"/>
<stop offset="1" stop-color="white"/>
</linearGradient>
<clipPath id="clip0_33_761">
<rect width="16" height="16" fill="white"/>
</clipPath>
</defs>
</svg>
