<svg width="16" height="16" viewBox="0 0 16 16" fill="none" xmlns="http://www.w3.org/2000/svg">
<g clip-path="url(#clip0_43_1780)">
<path d="M7.99067 15.9813C3.60733 15.9813 0 12.374 0 7.99067C0 3.60733 3.60733 0 7.99067 0C12.374 0 15.9813 3.60733 15.9813 7.99067C15.9806 9.57977 15.5026 11.128 14.6154 12.4371C14.454 12.6753 14.4726 12.9972 14.676 13.2006L15.6947 14.2193C15.89 14.4147 16 14.68 16 14.9567C16 15.5293 15.5293 16 14.9567 16C14.68 16 14.4147 15.89 14.2193 15.6947L13.2006 14.676C12.9972 14.4726 12.6753 14.454 12.4371 14.6154C11.128 15.5026 9.57977 15.9806 7.99067 15.9813Z" fill="url(#paint0_linear_43_1780)"/>
<path fill-rule="evenodd" clip-rule="evenodd" d="M0.150859 6.45156C0.367237 5.36112 0.808526 4.34747 1.4236 3.46173C1.30148 3.82485 1.62604 4.50122 2.08233 4.50122H4.08754C4.46316 4.50122 4.76766 4.80572 4.76766 5.18133V5.77145C4.76766 6.14706 4.46316 6.45156 4.08754 6.45156H0.150859ZM2.61745 13.8839C2.69892 13.7718 2.74697 13.6338 2.74697 13.4845V12.8944C2.74697 12.5188 2.44249 12.2143 2.06686 12.2143H1.22165C1.61021 12.8319 2.08073 13.3936 2.61745 13.8839ZM0.225193 9.86583C0.0780689 9.2636 0 8.63556 0 7.99072C0 7.96536 0.000120789 7.94002 0.000361818 7.9147H3.11239C3.48799 7.9147 3.7925 8.2192 3.7925 8.59482V9.18572C3.7925 9.56135 3.48799 9.86583 3.11239 9.86583H0.225193ZM3.7925 13.0872C3.7925 13.4628 4.09699 13.7673 4.4726 13.7673H8.96497C9.34057 13.7673 9.64507 13.4628 9.64507 13.0872V12.4971C9.64507 12.1214 9.34057 11.817 8.96497 11.817H4.4726C4.09699 11.817 3.7925 12.1214 3.7925 12.4971V13.0872ZM8.66991 9.18572C8.66991 9.56135 8.9744 9.86583 9.35003 9.86583H11.8913C12.2669 9.86583 12.5714 9.56135 12.5714 9.18572V8.59482C12.5714 8.2192 12.2669 7.9147 11.8913 7.9147H9.35003C8.9744 7.9147 8.66991 8.2192 8.66991 8.59482V9.18572ZM4.76766 9.18572C4.76766 9.56135 5.07216 9.86583 5.44777 9.86583H6.52664C6.90227 9.86583 7.20676 9.56135 7.20676 9.18572V8.59482C7.20676 8.2192 6.90227 7.9147 6.52664 7.9147H5.44777C5.07216 7.9147 4.76766 8.2192 4.76766 8.59482V9.18572ZM6.2308 5.77145C6.2308 6.14706 6.5353 6.45156 6.91092 6.45156H9.45294C9.82856 6.45156 10.1331 6.14706 10.1331 5.77145V5.18133C10.1331 4.80572 9.82856 4.50122 9.45294 4.50122H6.91092C6.5353 4.50122 6.2308 4.80572 6.2308 5.18133V5.77145Z" fill="#8C4FD9"/>
<path fill-rule="evenodd" clip-rule="evenodd" d="M2.57923 13.7019C0.964057 12.4244 0 10.0627 0 7.85963C0 7.12411 0.115296 6.41521 0.329 5.74957C0.319514 5.77994 0.310214 5.81037 0.301143 5.84085C0.180433 6.24601 0.502529 6.62897 0.925286 6.62897H4.25524C4.63084 6.62897 4.93536 6.93347 4.93536 7.30908V7.89998C4.93536 8.27561 4.63084 8.5801 4.25524 8.5801H0.801343C0.398171 8.5801 0.0808657 8.93 0.165336 9.3242C0.221904 9.58827 0.293771 9.84897 0.3805 10.105C0.468886 10.3659 0.649786 10.9286 0.925286 10.9286H3.20971C3.58534 10.9286 3.88983 11.2331 3.88983 11.6087V12.1988C3.88983 12.5744 3.58534 12.8789 3.20971 12.8789H3.15486C2.6681 12.8789 2.38777 13.3429 2.57923 13.7019ZM0.397514 5.54711C0.837286 4.31113 1.56684 2.94883 2.57923 2.14288C2.42417 2.49615 2.75463 3.21548 3.22519 3.21548H5.2304C5.60601 3.21548 5.91051 3.51998 5.91051 3.8956V4.48571C5.91051 4.86133 5.60601 5.16583 5.2304 5.16583H0.995343C0.736014 5.16583 0.498172 5.31225 0.397514 5.54711ZM5.61546 12.4816C5.23984 12.4816 4.93536 12.1771 4.93536 11.8014V11.2113C4.93536 10.8357 5.23984 10.5312 5.61546 10.5312H10.1078C10.4834 10.5312 10.7879 10.8357 10.7879 11.2113V11.8014C10.7879 12.1771 10.4834 12.4816 10.1078 12.4816H5.61546ZM10.4929 8.5801C10.1173 8.5801 9.81277 8.27561 9.81277 7.89998V7.30908C9.81277 6.93347 10.1173 6.62897 10.4929 6.62897H13.0341C13.4097 6.62897 13.7143 6.93347 13.7143 7.30908V7.89998C13.7143 8.27561 13.4097 8.5801 13.0341 8.5801H10.4929ZM6.59063 8.5801C6.21501 8.5801 5.91051 8.27561 5.91051 7.89998V7.30908C5.91051 6.93347 6.21501 6.62897 6.59063 6.62897H7.6695C8.04513 6.62897 8.34962 6.93347 8.34962 7.30908V7.89998C8.34962 8.27561 8.04513 8.5801 7.6695 8.5801H6.59063ZM8.05377 5.16583C7.67816 5.16583 7.37366 4.86133 7.37366 4.48571V3.8956C7.37366 3.51998 7.67816 3.21548 8.05377 3.21548H10.5958C10.9714 3.21548 11.2759 3.51998 11.2759 3.8956V4.48571C11.2759 4.86133 10.9714 5.16583 10.5958 5.16583H8.05377Z" fill="url(#paint1_linear_43_1780)"/>
</g>
<defs>
<linearGradient id="paint0_linear_43_1780" x1="4" y1="14.8571" x2="14.5882" y2="2.5042" gradientUnits="userSpaceOnUse">
<stop stop-color="#A056FF"/>
<stop offset="1" stop-color="#C59AFD"/>
</linearGradient>
<linearGradient id="paint1_linear_43_1780" x1="3.42857" y1="13.7019" x2="16.2762" y2="8.62081" gradientUnits="userSpaceOnUse">
<stop stop-color="#C59AFD"/>
<stop offset="1" stop-color="white"/>
</linearGradient>
<clipPath id="clip0_43_1780">
<rect width="16" height="16" fill="white"/>
</clipPath>
</defs>
</svg>
