<svg width="16" height="16" viewBox="0 0 16 16" fill="none" xmlns="http://www.w3.org/2000/svg">
<g clip-path="url(#clip0_80_5867)">
<path fill-rule="evenodd" clip-rule="evenodd" d="M4.46311 11.5338C3.0489 10.1196 1.75701 11.181 1.69337 11.2022C1.17082 11.3796 0.602306 11.0996 0.424821 10.5771C-0.523408 7.7833 0.115816 4.56738 2.34179 2.34141C5.46367 -0.780469 10.5336 -0.780469 13.6555 2.34141C16.7774 5.46328 16.7774 10.5332 13.6555 13.6551C11.4295 15.8811 8.2136 16.5203 5.41982 15.5721C4.89727 15.3946 4.61726 14.8261 4.79474 14.3035C4.81595 14.2399 5.87732 12.948 4.46311 11.5338ZM3.756 13.6551C3.36568 14.0454 2.73211 14.0454 2.34179 13.6551C1.95147 13.2648 1.95147 12.6312 2.34179 12.2409C2.73211 11.8506 3.36568 11.8506 3.756 12.2409C4.14632 12.6312 4.14632 13.2648 3.756 13.6551Z" fill="url(#paint0_linear_80_5867)"/>
<path d="M8.51184 4.15854C8.53396 3.94785 8.73843 3.78893 8.94894 3.80059C9.15498 3.79112 9.32199 3.9617 9.35799 4.15343C9.37489 4.36412 9.36905 4.57625 9.36978 4.78765C9.04679 4.9422 8.79737 5.2061 8.48242 5.37378C8.4868 4.96919 8.46031 4.56167 8.51184 4.15854Z" fill="#8C4FD9"/>
<path d="M8.48242 5.37378C8.79737 5.2061 9.04679 4.9422 9.36978 4.78765C9.36978 5.15872 9.37051 5.53052 9.36978 5.90158C9.06808 6.09913 8.77818 6.31346 8.48096 6.51758C8.48096 6.13632 8.47949 5.75505 8.48242 5.37378Z" fill="#8C4FD9"/>
<path d="M4.80907 9.54733C5.09308 9.33006 5.35725 9.0852 5.6707 8.90802C5.67217 9.27981 5.67143 9.65158 5.67143 10.0234C5.38667 10.2333 5.11075 10.4572 4.80981 10.6452C4.80686 10.2793 4.80833 9.91326 4.80907 9.54733Z" fill="#8C4FD9"/>
<path d="M4.84367 5.74268C4.9695 5.36433 5.55812 5.41463 5.66115 5.78497C5.66923 5.92858 5.67145 6.07292 5.67145 6.21727C5.36093 6.37837 5.10488 6.61894 4.80982 6.80338C4.82453 6.45054 4.76861 6.08969 4.84367 5.74268Z" fill="#8C4FD9"/>
<path d="M3.00341 7.04397C2.98353 6.82163 3.14101 6.59637 3.36763 6.55773C3.57218 6.50743 3.76791 6.65177 3.84811 6.83037C3.90918 7.13947 3.8849 7.45586 3.88711 7.76933C3.62737 7.98001 3.33452 8.15352 3.10421 8.39772C3.00782 8.81982 3.0711 9.25872 3.0483 9.68806C3.03431 9.89728 3.03285 10.108 3.03285 10.3179C2.98428 10.2064 3.00415 10.0825 3.00341 9.96508C3.00561 8.99186 3.00415 8.01792 3.00341 7.04397Z" fill="#8C4FD9"/>
<path d="M8.48096 6.51758C8.77818 6.31346 9.06808 6.09913 9.36978 5.90158C9.36978 6.2413 9.36978 6.58098 9.36906 6.91995C9.06371 7.11898 8.78777 7.35809 8.48242 7.5571C8.47949 7.21083 8.48096 6.86386 8.48096 6.51758Z" fill="#8C4FD9"/>
<path d="M6.61107 6.38641C6.64712 6.15385 6.89509 5.97599 7.12907 6.03504C7.27623 6.06856 7.38072 6.18885 7.45135 6.31424C7.43737 6.47609 7.43002 6.64229 7.37998 6.7983C7.14011 7.03449 6.8421 7.20289 6.59119 7.42815C6.60149 7.08115 6.56838 6.73123 6.61107 6.38641Z" fill="#8C4FD9"/>
<path d="M4.80982 6.80338C5.10488 6.61894 5.36093 6.37837 5.67145 6.21727C5.67218 6.78078 5.67143 7.34358 5.6707 7.9071C5.38226 8.11267 5.10928 8.34086 4.80981 8.53114C4.80833 7.95521 4.80687 7.37928 4.80982 6.80338Z" fill="#8C4FD9"/>
<path d="M3.10421 8.39772C3.33452 8.15352 3.62737 7.98001 3.88711 7.76933C3.88711 8.20382 3.88783 8.63831 3.88709 9.0728C3.5913 9.25507 3.31686 9.46932 3.0483 9.68806C3.0711 9.25872 3.00782 8.81982 3.10421 8.39772Z" fill="#8C4FD9"/>
<path d="M7.45135 6.31424C7.45282 6.33028 7.4565 6.36378 7.45797 6.38055C7.49844 7.08403 7.4668 7.78898 7.47564 8.4932C7.44325 8.99402 6.94806 9.20541 6.59192 9.46207C6.59119 8.78406 6.59193 8.10613 6.59119 7.42815C6.8421 7.20289 7.14011 7.03449 7.37998 6.7983C7.43002 6.64229 7.43737 6.47609 7.45135 6.31424Z" fill="#8C4FD9"/>
<path d="M8.48242 7.5571C8.78777 7.35809 9.06371 7.11898 9.36906 6.91995C9.37051 7.64385 9.37048 8.36705 9.36903 9.09018C9.03791 9.23235 8.7819 9.489 8.4824 9.67996C8.48021 8.97212 8.47949 8.26423 8.48242 7.5571Z" fill="#8C4FD9"/>
<path d="M10.4914 7.28456C10.6268 6.95505 11.1587 6.95505 11.3141 7.2729C11.3281 7.43984 11.3302 7.60751 11.3302 7.77517C11.0256 7.96326 10.7512 8.1929 10.4583 8.39774C10.4738 8.02669 10.4355 7.65197 10.4914 7.28456Z" fill="#8C4FD9"/>
<path d="M10.4583 8.39774C10.7512 8.1929 11.0256 7.96326 11.3302 7.77517C11.3295 8.09084 11.3295 8.40646 11.3288 8.72212C11.0138 8.89052 10.7364 9.11503 10.462 9.34108C10.4649 9.02613 10.4576 8.71195 10.4583 8.39774Z" fill="#8C4FD9"/>
<path d="M4.80981 8.53114C5.10928 8.34086 5.38226 8.11267 5.6707 7.9071C5.67217 8.24098 5.67143 8.57413 5.6707 8.90802C5.35725 9.0852 5.09308 9.33006 4.80907 9.54733C4.80833 9.20836 4.8076 8.86939 4.80981 8.53114Z" fill="#8C4FD9"/>
<path d="M6.59192 9.46207C6.94806 9.20541 7.44325 8.99402 7.47564 8.4932C7.47564 9.17846 7.47635 9.86375 7.47635 10.549C7.47415 10.7385 7.47194 10.9638 7.30344 11.0906C7.15186 11.2313 6.92891 11.1883 6.75894 11.1096C6.65004 10.9974 6.59706 10.8449 6.5956 10.6912C6.58381 10.2815 6.5956 9.87176 6.59192 9.46207Z" fill="#8C4FD9"/>
<path d="M10.462 9.34108C10.7364 9.11503 11.0138 8.89052 11.3288 8.72212C11.3125 9.06552 11.3744 9.41973 11.289 9.75578C11.1845 10.0102 10.8645 10.0328 10.6401 9.93441C10.4531 9.79297 10.459 9.55096 10.462 9.34108Z" fill="#8C4FD9"/>
<path d="M3.0483 9.68806C3.31686 9.46932 3.5913 9.25507 3.88709 9.0728C3.87384 9.48907 3.91874 9.90895 3.86135 10.323C3.79954 10.643 3.38234 10.7429 3.13952 10.5497C3.08065 10.4805 3.04461 10.4032 3.03285 10.3179C3.03285 10.108 3.03431 9.89728 3.0483 9.68806Z" fill="#8C4FD9"/>
<path d="M8.4824 9.67996C8.7819 9.489 9.03791 9.23235 9.36903 9.09018C9.37122 9.6785 9.36903 10.2675 9.36903 10.8558C9.07327 11.0651 8.78921 11.291 8.48167 11.485C8.48093 10.8835 8.47875 10.2814 8.4824 9.67996Z" fill="#8C4FD9"/>
<path d="M4.80981 10.6452C5.11075 10.4572 5.38667 10.2333 5.67143 10.0234C5.65598 10.4878 5.70673 10.958 5.64271 11.4195C5.56913 11.7321 5.15855 11.808 4.92604 11.6148C4.72738 11.332 4.83335 10.9667 4.80981 10.6452Z" fill="#8C4FD9"/>
<path d="M8.48167 11.485C8.78921 11.291 9.07327 11.0651 9.36903 10.8558C9.37048 11.1722 9.36977 11.4879 9.36904 11.8042C9.06369 12.0011 8.78922 12.241 8.48095 12.4356C8.48095 12.1184 8.47947 11.8013 8.48167 11.485Z" fill="#8C4FD9"/>
<path d="M8.48095 12.4356C8.78922 12.241 9.06369 12.0011 9.36904 11.8042C9.35433 12.2227 9.40731 12.6463 9.33887 13.0604C9.255 13.3534 8.89227 13.4197 8.65307 13.2717C8.44631 13.0428 8.48241 12.7185 8.48095 12.4356Z" fill="#8C4FD9"/>
<path d="M9.36978 4.78765C9.36905 4.57625 9.37489 4.36412 9.35799 4.15343C9.32199 3.9617 9.15498 3.79112 8.94894 3.80059C8.73843 3.78893 8.53396 3.94785 8.51184 4.15854C8.46031 4.56167 8.4868 4.96919 8.48242 5.37378M9.36978 4.78765C9.04679 4.9422 8.79737 5.2061 8.48242 5.37378ZM9.36978 4.78765C9.36978 5.15872 9.37051 5.53052 9.36978 5.90158ZM8.48096 6.51758C8.48096 6.13632 8.47949 5.75505 8.48242 5.37378ZM9.36978 5.90158C9.06808 6.09913 8.77818 6.31346 8.48096 6.51758ZM9.36978 5.90158C9.36978 6.2413 9.36978 6.58098 9.36906 6.91995ZM8.48242 7.5571C8.47949 7.21083 8.48096 6.86386 8.48096 6.51758ZM4.80907 9.54733C5.09308 9.33006 5.35725 9.0852 5.6707 8.90802ZM4.80981 10.6452C4.80686 10.2793 4.80833 9.91326 4.80907 9.54733ZM4.80907 9.54733C4.80833 9.20836 4.8076 8.86939 4.80981 8.53114ZM5.6707 8.90802C5.67217 9.27981 5.67143 9.65158 5.67143 10.0234ZM5.6707 7.9071C5.67217 8.24098 5.67143 8.57413 5.6707 8.90802ZM5.67143 10.0234C5.38667 10.2333 5.11075 10.4572 4.80981 10.6452ZM5.67143 10.0234C5.65598 10.4878 5.70673 10.958 5.64271 11.4195C5.56913 11.7321 5.15855 11.808 4.92604 11.6148C4.72738 11.332 4.83335 10.9667 4.80981 10.6452M5.67145 6.21727C5.67145 6.07292 5.66923 5.92858 5.66115 5.78497C5.55812 5.41463 4.9695 5.36433 4.84367 5.74268C4.76861 6.08969 4.82453 6.45054 4.80982 6.80338M5.67145 6.21727C5.36093 6.37837 5.10488 6.61894 4.80982 6.80338ZM5.67145 6.21727C5.67218 6.78078 5.67143 7.34358 5.6707 7.9071ZM4.80981 8.53114C4.80833 7.95521 4.80687 7.37928 4.80982 6.80338ZM3.88711 7.76933C3.8849 7.45586 3.90918 7.13947 3.84811 6.83037C3.76791 6.65177 3.57218 6.50743 3.36763 6.55773C3.14101 6.59637 2.98353 6.82163 3.00341 7.04397C3.00415 8.01792 3.00561 8.99186 3.00341 9.96508C3.00415 10.0825 2.98428 10.2064 3.03285 10.3179M3.88711 7.76933C3.62737 7.98001 3.33452 8.15352 3.10421 8.39772C3.00782 8.81982 3.0711 9.25872 3.0483 9.68806M3.88711 7.76933C3.88711 8.20382 3.88783 8.63831 3.88709 9.0728ZM3.0483 9.68806C3.03431 9.89728 3.03285 10.108 3.03285 10.3179ZM3.88709 9.0728C3.5913 9.25507 3.31686 9.46932 3.0483 9.68806ZM3.03285 10.3179C3.04461 10.4032 3.08065 10.4805 3.13952 10.5497C3.38234 10.7429 3.79954 10.643 3.86135 10.323C3.91874 9.90895 3.87384 9.48907 3.88709 9.0728M9.36906 6.91995C9.06371 7.11898 8.78777 7.35809 8.48242 7.5571ZM9.36906 6.91995C9.37051 7.64385 9.37048 8.36705 9.36903 9.09018ZM8.4824 9.67996C8.48021 8.97212 8.47949 8.26423 8.48242 7.5571ZM7.45135 6.31424C7.38072 6.18885 7.27623 6.06856 7.12907 6.03504C6.89509 5.97599 6.64712 6.15385 6.61107 6.38641C6.56838 6.73123 6.60149 7.08115 6.59119 7.42815M7.45135 6.31424C7.43737 6.47609 7.43002 6.64229 7.37998 6.7983C7.14011 7.03449 6.8421 7.20289 6.59119 7.42815M7.45135 6.31424C7.45282 6.33028 7.4565 6.36378 7.45797 6.38055C7.49844 7.08403 7.4668 7.78898 7.47564 8.4932M6.59192 9.46207C6.59119 8.78406 6.59193 8.10613 6.59119 7.42815ZM5.6707 7.9071C5.38226 8.11267 5.10928 8.34086 4.80981 8.53114ZM7.47564 8.4932C7.44325 8.99402 6.94806 9.20541 6.59192 9.46207ZM7.47564 8.4932C7.47564 9.17846 7.47635 9.86375 7.47635 10.549C7.47415 10.7385 7.47194 10.9638 7.30344 11.0906C7.15186 11.2313 6.92891 11.1883 6.75894 11.1096C6.65004 10.9974 6.59706 10.8449 6.5956 10.6912C6.58381 10.2815 6.5956 9.87176 6.59192 9.46207M9.36903 9.09018C9.03791 9.23235 8.7819 9.489 8.4824 9.67996ZM9.36903 9.09018C9.37122 9.6785 9.36903 10.2675 9.36903 10.8558ZM8.48167 11.485C8.48093 10.8835 8.47875 10.2814 8.4824 9.67996ZM11.3302 7.77517C11.3302 7.60751 11.3281 7.43984 11.3141 7.2729C11.1587 6.95505 10.6268 6.95505 10.4914 7.28456C10.4355 7.65197 10.4738 8.02669 10.4583 8.39774M11.3302 7.77517C11.0256 7.96326 10.7512 8.1929 10.4583 8.39774ZM11.3302 7.77517C11.3295 8.09084 11.3295 8.40646 11.3288 8.72212ZM10.462 9.34108C10.4649 9.02613 10.4576 8.71195 10.4583 8.39774ZM11.3288 8.72212C11.0138 8.89052 10.7364 9.11503 10.462 9.34108ZM11.3288 8.72212C11.3125 9.06552 11.3744 9.41973 11.289 9.75578C11.1845 10.0102 10.8645 10.0328 10.6401 9.93441C10.4531 9.79297 10.459 9.55096 10.462 9.34108M9.36903 10.8558C9.07327 11.0651 8.78921 11.291 8.48167 11.485ZM9.36903 10.8558C9.37048 11.1722 9.36977 11.4879 9.36904 11.8042ZM8.48095 12.4356C8.48095 12.1184 8.47947 11.8013 8.48167 11.485ZM9.36904 11.8042C9.06369 12.0011 8.78922 12.241 8.48095 12.4356ZM9.36904 11.8042C9.35433 12.2227 9.40731 12.6463 9.33887 13.0604C9.255 13.3534 8.89227 13.4197 8.65307 13.2717C8.44631 13.0428 8.48241 12.7185 8.48095 12.4356" fill="#8C4FD9"/>
<path d="M9.36978 4.78765C9.36905 4.57625 9.37489 4.36412 9.35799 4.15343C9.32199 3.9617 9.15498 3.79112 8.94894 3.80059C8.73843 3.78893 8.53396 3.94785 8.51184 4.15854C8.46031 4.56167 8.4868 4.96919 8.48242 5.37378M9.36978 4.78765C9.04679 4.9422 8.79737 5.2061 8.48242 5.37378M9.36978 4.78765C9.36978 5.15872 9.37051 5.53052 9.36978 5.90158M8.48242 5.37378C8.47949 5.75505 8.48096 6.13632 8.48096 6.51758M9.36978 5.90158C9.06808 6.09913 8.77818 6.31346 8.48096 6.51758M9.36978 5.90158C9.36978 6.2413 9.36978 6.58098 9.36906 6.91995M8.48096 6.51758C8.48096 6.86386 8.47949 7.21083 8.48242 7.5571M4.80907 9.54733C5.09308 9.33006 5.35725 9.0852 5.6707 8.90802M4.80907 9.54733C4.80833 9.91326 4.80686 10.2793 4.80981 10.6452M4.80907 9.54733C4.80833 9.20836 4.8076 8.86939 4.80981 8.53114M5.6707 8.90802C5.67217 9.27981 5.67143 9.65158 5.67143 10.0234M5.6707 8.90802C5.67143 8.57413 5.67217 8.24098 5.6707 7.9071M5.67143 10.0234C5.38667 10.2333 5.11075 10.4572 4.80981 10.6452M5.67143 10.0234C5.65598 10.4878 5.70673 10.958 5.64271 11.4195C5.56913 11.7321 5.15855 11.808 4.92604 11.6148C4.72738 11.332 4.83335 10.9667 4.80981 10.6452M5.67145 6.21727C5.67145 6.07292 5.66923 5.92858 5.66115 5.78497C5.55812 5.41463 4.9695 5.36433 4.84367 5.74268C4.76861 6.08969 4.82453 6.45054 4.80982 6.80338M5.67145 6.21727C5.36093 6.37837 5.10488 6.61894 4.80982 6.80338M5.67145 6.21727C5.67218 6.78078 5.67143 7.34358 5.6707 7.9071M4.80982 6.80338C4.80687 7.37928 4.80833 7.95521 4.80981 8.53114M3.88711 7.76933C3.8849 7.45586 3.90918 7.13947 3.84811 6.83037C3.76791 6.65177 3.57218 6.50743 3.36763 6.55773C3.14101 6.59637 2.98353 6.82163 3.00341 7.04397C3.00415 8.01792 3.00561 8.99186 3.00341 9.96508C3.00415 10.0825 2.98428 10.2064 3.03285 10.3179M3.88711 7.76933C3.62737 7.98001 3.33452 8.15352 3.10421 8.39772C3.00782 8.81982 3.0711 9.25872 3.0483 9.68806M3.88711 7.76933C3.88711 8.20382 3.88783 8.63831 3.88709 9.0728M3.0483 9.68806C3.03431 9.89728 3.03285 10.108 3.03285 10.3179M3.0483 9.68806C3.31686 9.46932 3.5913 9.25507 3.88709 9.0728M3.03285 10.3179C3.04461 10.4032 3.08065 10.4805 3.13952 10.5497C3.38234 10.7429 3.79954 10.643 3.86135 10.323C3.91874 9.90895 3.87384 9.48907 3.88709 9.0728M9.36906 6.91995C9.06371 7.11898 8.78777 7.35809 8.48242 7.5571M9.36906 6.91995C9.37051 7.64385 9.37048 8.36705 9.36903 9.09018M8.48242 7.5571C8.47949 8.26423 8.48021 8.97212 8.4824 9.67996M7.45135 6.31424C7.38072 6.18885 7.27623 6.06856 7.12907 6.03504C6.89509 5.97599 6.64712 6.15385 6.61107 6.38641C6.56838 6.73123 6.60149 7.08115 6.59119 7.42815M7.45135 6.31424C7.43737 6.47609 7.43002 6.64229 7.37998 6.7983C7.14011 7.03449 6.8421 7.20289 6.59119 7.42815M7.45135 6.31424C7.45282 6.33028 7.4565 6.36378 7.45797 6.38055C7.49844 7.08403 7.4668 7.78898 7.47564 8.4932M6.59119 7.42815C6.59193 8.10613 6.59119 8.78406 6.59192 9.46207M5.6707 7.9071C5.38226 8.11267 5.10928 8.34086 4.80981 8.53114M7.47564 8.4932C7.44325 8.99402 6.94806 9.20541 6.59192 9.46207M7.47564 8.4932C7.47564 9.17846 7.47635 9.86375 7.47635 10.549C7.47415 10.7385 7.47194 10.9638 7.30344 11.0906C7.15186 11.2313 6.92891 11.1883 6.75894 11.1096C6.65004 10.9974 6.59706 10.8449 6.5956 10.6912C6.58381 10.2815 6.5956 9.87176 6.59192 9.46207M9.36903 9.09018C9.03791 9.23235 8.7819 9.489 8.4824 9.67996M9.36903 9.09018C9.37122 9.6785 9.36903 10.2675 9.36903 10.8558M8.4824 9.67996C8.47875 10.2814 8.48093 10.8835 8.48167 11.485M11.3302 7.77517C11.3302 7.60751 11.3281 7.43984 11.3141 7.2729C11.1587 6.95505 10.6268 6.95505 10.4914 7.28456C10.4355 7.65197 10.4738 8.02669 10.4583 8.39774M11.3302 7.77517C11.0256 7.96326 10.7512 8.1929 10.4583 8.39774M11.3302 7.77517C11.3295 8.09084 11.3295 8.40646 11.3288 8.72212M10.4583 8.39774C10.4576 8.71195 10.4649 9.02613 10.462 9.34108M11.3288 8.72212C11.0138 8.89052 10.7364 9.11503 10.462 9.34108M11.3288 8.72212C11.3125 9.06552 11.3744 9.41973 11.289 9.75578C11.1845 10.0102 10.8645 10.0328 10.6401 9.93441C10.4531 9.79297 10.459 9.55096 10.462 9.34108M9.36903 10.8558C9.07327 11.0651 8.78921 11.291 8.48167 11.485M9.36903 10.8558C9.37048 11.1722 9.36977 11.4879 9.36904 11.8042M8.48167 11.485C8.47947 11.8013 8.48095 12.1184 8.48095 12.4356M9.36904 11.8042C9.06369 12.0011 8.78922 12.241 8.48095 12.4356M9.36904 11.8042C9.35433 12.2227 9.40731 12.6463 9.33887 13.0604C9.255 13.3534 8.89227 13.4197 8.65307 13.2717C8.44631 13.0428 8.48241 12.7185 8.48095 12.4356" stroke="#8C4FD9" stroke-width="0.4"/>
<path d="M9.51184 3.15854C9.53396 2.94785 9.73843 2.78893 9.94894 2.80059C10.155 2.79112 10.322 2.9617 10.358 3.15343C10.3749 3.36412 10.3691 3.57625 10.3698 3.78765C10.0468 3.9422 9.79737 4.2061 9.48242 4.37378C9.4868 3.96919 9.46031 3.56167 9.51184 3.15854Z" fill="url(#paint1_linear_80_5867)"/>
<path d="M9.48242 4.37378C9.79737 4.2061 10.0468 3.9422 10.3698 3.78765C10.3698 4.15872 10.3705 4.53052 10.3698 4.90158C10.0681 5.09913 9.77818 5.31346 9.48096 5.51758C9.48096 5.13632 9.47949 4.75505 9.48242 4.37378Z" fill="url(#paint2_linear_80_5867)"/>
<path d="M5.80907 8.54733C6.09308 8.33006 6.35725 8.0852 6.6707 7.90802C6.67217 8.27981 6.67143 8.65158 6.67143 9.02336C6.38667 9.23332 6.11075 9.45717 5.80981 9.64521C5.80686 9.27928 5.80833 8.91326 5.80907 8.54733Z" fill="url(#paint3_linear_80_5867)"/>
<path d="M5.84367 4.74268C5.9695 4.36433 6.55812 4.41463 6.66115 4.78497C6.66923 4.92858 6.67145 5.07292 6.67145 5.21727C6.36093 5.37837 6.10488 5.61894 5.80982 5.80338C5.82453 5.45054 5.76861 5.08969 5.84367 4.74268Z" fill="url(#paint4_linear_80_5867)"/>
<path d="M4.00341 6.04397C3.98353 5.82163 4.14101 5.59637 4.36763 5.55773C4.57218 5.50743 4.76791 5.65177 4.84811 5.83037C4.90918 6.13947 4.8849 6.45586 4.88711 6.76933C4.62737 6.98001 4.33452 7.15352 4.10421 7.39772C4.00782 7.81982 4.0711 8.25872 4.0483 8.68806C4.03431 8.89728 4.03285 9.10798 4.03285 9.31795C3.98428 9.20638 4.00415 9.08248 4.00341 8.96508C4.00561 7.99186 4.00415 7.01792 4.00341 6.04397Z" fill="url(#paint5_linear_80_5867)"/>
<path d="M9.48096 5.51758C9.77818 5.31346 10.0681 5.09913 10.3698 4.90158C10.3698 5.2413 10.3698 5.58098 10.3691 5.91995C10.0637 6.11898 9.78777 6.35809 9.48242 6.5571C9.47949 6.21083 9.48096 5.86386 9.48096 5.51758Z" fill="url(#paint6_linear_80_5867)"/>
<path d="M7.61107 5.38641C7.64712 5.15385 7.89509 4.97599 8.12907 5.03504C8.27623 5.06856 8.38072 5.18885 8.45135 5.31424C8.43737 5.47609 8.43002 5.64229 8.37998 5.7983C8.14011 6.03449 7.8421 6.20289 7.59119 6.42815C7.60149 6.08115 7.56838 5.73123 7.61107 5.38641Z" fill="url(#paint7_linear_80_5867)"/>
<path d="M5.80982 5.80338C6.10488 5.61894 6.36093 5.37837 6.67145 5.21727C6.67218 5.78078 6.67143 6.34358 6.6707 6.9071C6.38226 7.11267 6.10928 7.34086 5.80981 7.53114C5.80833 6.95521 5.80687 6.37928 5.80982 5.80338Z" fill="url(#paint8_linear_80_5867)"/>
<path d="M4.10421 7.39772C4.33452 7.15352 4.62737 6.98001 4.88711 6.76933C4.88711 7.20382 4.88783 7.63831 4.88709 8.0728C4.5913 8.25507 4.31686 8.46932 4.0483 8.68806C4.0711 8.25872 4.00782 7.81982 4.10421 7.39772Z" fill="url(#paint9_linear_80_5867)"/>
<path d="M8.45135 5.31424C8.45282 5.33028 8.4565 5.36378 8.45797 5.38055C8.49844 6.08403 8.4668 6.78898 8.47564 7.4932C8.44325 7.99402 7.94806 8.20541 7.59192 8.46207C7.59119 7.78406 7.59193 7.10613 7.59119 6.42815C7.8421 6.20289 8.14011 6.03449 8.37998 5.7983C8.43002 5.64229 8.43737 5.47609 8.45135 5.31424Z" fill="url(#paint10_linear_80_5867)"/>
<path d="M9.48242 6.5571C9.78777 6.35809 10.0637 6.11898 10.3691 5.91995C10.3705 6.64385 10.3705 7.36705 10.369 8.09018C10.0379 8.23235 9.7819 8.489 9.4824 8.67996C9.48021 7.97212 9.47949 7.26423 9.48242 6.5571Z" fill="url(#paint11_linear_80_5867)"/>
<path d="M11.4914 6.28456C11.6268 5.95505 12.1587 5.95505 12.3141 6.2729C12.3281 6.43984 12.3302 6.60751 12.3302 6.77517C12.0256 6.96326 11.7512 7.1929 11.4583 7.39774C11.4738 7.02669 11.4355 6.65197 11.4914 6.28456Z" fill="url(#paint12_linear_80_5867)"/>
<path d="M11.4583 7.39774C11.7512 7.1929 12.0256 6.96326 12.3302 6.77517C12.3295 7.09084 12.3295 7.40646 12.3288 7.72212C12.0138 7.89052 11.7364 8.11503 11.462 8.34108C11.4649 8.02613 11.4576 7.71195 11.4583 7.39774Z" fill="url(#paint13_linear_80_5867)"/>
<path d="M5.80981 7.53114C6.10928 7.34086 6.38226 7.11267 6.6707 6.9071C6.67217 7.24098 6.67143 7.57413 6.6707 7.90802C6.35725 8.0852 6.09308 8.33006 5.80907 8.54733C5.80833 8.20836 5.8076 7.86939 5.80981 7.53114Z" fill="url(#paint14_linear_80_5867)"/>
<path d="M7.59192 8.46207C7.94806 8.20541 8.44325 7.99402 8.47564 7.4932C8.47564 8.17846 8.47635 8.86375 8.47635 9.549C8.47415 9.7385 8.47194 9.96381 8.30344 10.0906C8.15186 10.2313 7.92891 10.1883 7.75894 10.1096C7.65004 9.99735 7.59706 9.84494 7.5956 9.69118C7.58381 9.28148 7.5956 8.87176 7.59192 8.46207Z" fill="url(#paint15_linear_80_5867)"/>
<path d="M11.462 8.34108C11.7364 8.11503 12.0138 7.89052 12.3288 7.72212C12.3125 8.06552 12.3744 8.41973 12.289 8.75578C12.1845 9.01024 11.8645 9.03281 11.6401 8.93441C11.4531 8.79297 11.459 8.55096 11.462 8.34108Z" fill="url(#paint16_linear_80_5867)"/>
<path d="M4.0483 8.68806C4.31686 8.46932 4.5913 8.25507 4.88709 8.0728C4.87384 8.48907 4.91874 8.90895 4.86135 9.32303C4.79954 9.643 4.38234 9.74287 4.13952 9.54972C4.08065 9.48045 4.04461 9.40318 4.03285 9.31795C4.03285 9.10798 4.03431 8.89728 4.0483 8.68806Z" fill="url(#paint17_linear_80_5867)"/>
<path d="M9.4824 8.67996C9.7819 8.489 10.0379 8.23235 10.369 8.09018C10.3712 8.6785 10.369 9.26751 10.369 9.85582C10.0733 10.0651 9.78921 10.291 9.48167 10.485C9.48093 9.88351 9.47875 9.28143 9.4824 8.67996Z" fill="url(#paint18_linear_80_5867)"/>
<path d="M5.80981 9.64521C6.11075 9.45717 6.38667 9.23332 6.67143 9.02336C6.65598 9.48778 6.70673 9.95798 6.64271 10.4195C6.56913 10.7321 6.15855 10.808 5.92604 10.6148C5.72738 10.332 5.83335 9.96673 5.80981 9.64521Z" fill="url(#paint19_linear_80_5867)"/>
<path d="M9.48167 10.485C9.78921 10.291 10.0733 10.0651 10.369 9.85582C10.3705 10.1722 10.3698 10.4879 10.369 10.8042C10.0637 11.0011 9.78922 11.241 9.48095 11.4356C9.48095 11.1184 9.47947 10.8013 9.48167 10.485Z" fill="url(#paint20_linear_80_5867)"/>
<path d="M9.48095 11.4356C9.78922 11.241 10.0637 11.0011 10.369 10.8042C10.3543 11.2227 10.4073 11.6463 10.3389 12.0604C10.255 12.3534 9.89227 12.4197 9.65307 12.2717C9.44631 12.0428 9.48241 11.7185 9.48095 11.4356Z" fill="url(#paint21_linear_80_5867)"/>
<path d="M10.3698 3.78765C10.3691 3.57625 10.3749 3.36412 10.358 3.15343C10.322 2.9617 10.155 2.79112 9.94894 2.80059C9.73843 2.78893 9.53396 2.94785 9.51184 3.15854C9.46031 3.56167 9.4868 3.96919 9.48242 4.37378M10.3698 3.78765C10.0468 3.9422 9.79737 4.2061 9.48242 4.37378ZM10.3698 3.78765C10.3698 4.15872 10.3705 4.53052 10.3698 4.90158ZM9.48096 5.51758C9.48096 5.13632 9.47949 4.75505 9.48242 4.37378ZM10.3698 4.90158C10.0681 5.09913 9.77818 5.31346 9.48096 5.51758ZM10.3698 4.90158C10.3698 5.2413 10.3698 5.58098 10.3691 5.91995ZM9.48242 6.5571C9.47949 6.21083 9.48096 5.86386 9.48096 5.51758ZM5.80907 8.54733C6.09308 8.33006 6.35725 8.0852 6.6707 7.90802ZM5.80981 9.64521C5.80686 9.27928 5.80833 8.91326 5.80907 8.54733ZM5.80907 8.54733C5.80833 8.20836 5.8076 7.86939 5.80981 7.53114ZM6.6707 7.90802C6.67217 8.27981 6.67143 8.65158 6.67143 9.02336ZM6.6707 6.9071C6.67217 7.24098 6.67143 7.57413 6.6707 7.90802ZM6.67143 9.02336C6.38667 9.23332 6.11075 9.45717 5.80981 9.64521ZM6.67143 9.02336C6.65598 9.48778 6.70673 9.95798 6.64271 10.4195C6.56913 10.7321 6.15855 10.808 5.92604 10.6148C5.72738 10.332 5.83335 9.96673 5.80981 9.64521M6.67145 5.21727C6.67145 5.07292 6.66923 4.92858 6.66115 4.78497C6.55812 4.41463 5.9695 4.36433 5.84367 4.74268C5.76861 5.08969 5.82453 5.45054 5.80982 5.80338M6.67145 5.21727C6.36093 5.37837 6.10488 5.61894 5.80982 5.80338ZM6.67145 5.21727C6.67218 5.78078 6.67143 6.34358 6.6707 6.9071ZM5.80981 7.53114C5.80833 6.95521 5.80687 6.37928 5.80982 5.80338ZM4.88711 6.76933C4.8849 6.45586 4.90918 6.13947 4.84811 5.83037C4.76791 5.65177 4.57218 5.50743 4.36763 5.55773C4.14101 5.59637 3.98353 5.82163 4.00341 6.04397C4.00415 7.01792 4.00561 7.99186 4.00341 8.96508C4.00415 9.08248 3.98428 9.20638 4.03285 9.31795M4.88711 6.76933C4.62737 6.98001 4.33452 7.15352 4.10421 7.39772C4.00782 7.81982 4.0711 8.25872 4.0483 8.68806M4.88711 6.76933C4.88711 7.20382 4.88783 7.63831 4.88709 8.0728ZM4.0483 8.68806C4.03431 8.89728 4.03285 9.10798 4.03285 9.31795ZM4.88709 8.0728C4.5913 8.25507 4.31686 8.46932 4.0483 8.68806ZM4.03285 9.31795C4.04461 9.40318 4.08065 9.48045 4.13952 9.54972C4.38234 9.74287 4.79954 9.643 4.86135 9.32303C4.91874 8.90895 4.87384 8.48907 4.88709 8.0728M10.3691 5.91995C10.0637 6.11898 9.78777 6.35809 9.48242 6.5571ZM10.3691 5.91995C10.3705 6.64385 10.3705 7.36705 10.369 8.09018ZM9.4824 8.67996C9.48021 7.97212 9.47949 7.26423 9.48242 6.5571ZM8.45135 5.31424C8.38072 5.18885 8.27623 5.06856 8.12907 5.03504C7.89509 4.97599 7.64712 5.15385 7.61107 5.38641C7.56838 5.73123 7.60149 6.08115 7.59119 6.42815M8.45135 5.31424C8.43737 5.47609 8.43002 5.64229 8.37998 5.7983C8.14011 6.03449 7.8421 6.20289 7.59119 6.42815M8.45135 5.31424C8.45282 5.33028 8.4565 5.36378 8.45797 5.38055C8.49844 6.08403 8.4668 6.78898 8.47564 7.4932M7.59192 8.46207C7.59119 7.78406 7.59193 7.10613 7.59119 6.42815ZM6.6707 6.9071C6.38226 7.11267 6.10928 7.34086 5.80981 7.53114ZM8.47564 7.4932C8.44325 7.99402 7.94806 8.20541 7.59192 8.46207ZM8.47564 7.4932C8.47564 8.17846 8.47635 8.86375 8.47635 9.549C8.47415 9.7385 8.47194 9.96381 8.30344 10.0906C8.15186 10.2313 7.92891 10.1883 7.75894 10.1096C7.65004 9.99735 7.59706 9.84494 7.5956 9.69118C7.58381 9.28148 7.5956 8.87176 7.59192 8.46207M10.369 8.09018C10.0379 8.23235 9.7819 8.489 9.4824 8.67996ZM10.369 8.09018C10.3712 8.6785 10.369 9.26751 10.369 9.85582ZM9.48167 10.485C9.48093 9.88351 9.47875 9.28143 9.4824 8.67996ZM12.3302 6.77517C12.3302 6.60751 12.3281 6.43984 12.3141 6.2729C12.1587 5.95505 11.6268 5.95505 11.4914 6.28456C11.4355 6.65197 11.4738 7.02669 11.4583 7.39774M12.3302 6.77517C12.0256 6.96326 11.7512 7.1929 11.4583 7.39774ZM12.3302 6.77517C12.3295 7.09084 12.3295 7.40646 12.3288 7.72212ZM11.462 8.34108C11.4649 8.02613 11.4576 7.71195 11.4583 7.39774ZM12.3288 7.72212C12.0138 7.89052 11.7364 8.11503 11.462 8.34108ZM12.3288 7.72212C12.3125 8.06552 12.3744 8.41973 12.289 8.75578C12.1845 9.01024 11.8645 9.03281 11.6401 8.93441C11.4531 8.79297 11.459 8.55096 11.462 8.34108M10.369 9.85582C10.0733 10.0651 9.78921 10.291 9.48167 10.485ZM10.369 9.85582C10.3705 10.1722 10.3698 10.4879 10.369 10.8042ZM9.48095 11.4356C9.48095 11.1184 9.47947 10.8013 9.48167 10.485ZM10.369 10.8042C10.0637 11.0011 9.78922 11.241 9.48095 11.4356ZM10.369 10.8042C10.3543 11.2227 10.4073 11.6463 10.3389 12.0604C10.255 12.3534 9.89227 12.4197 9.65307 12.2717C9.44631 12.0428 9.48241 11.7185 9.48095 11.4356" fill="url(#paint22_linear_80_5867)"/>
<path d="M10.3698 3.78765C10.3691 3.57625 10.3749 3.36412 10.358 3.15343C10.322 2.9617 10.155 2.79112 9.94894 2.80059C9.73843 2.78893 9.53396 2.94785 9.51184 3.15854C9.46031 3.56167 9.4868 3.96919 9.48242 4.37378M10.3698 3.78765C10.0468 3.9422 9.79737 4.2061 9.48242 4.37378M10.3698 3.78765C10.3698 4.15872 10.3705 4.53052 10.3698 4.90158M9.48242 4.37378C9.47949 4.75505 9.48096 5.13632 9.48096 5.51758M10.3698 4.90158C10.0681 5.09913 9.77818 5.31346 9.48096 5.51758M10.3698 4.90158C10.3698 5.2413 10.3698 5.58098 10.3691 5.91995M9.48096 5.51758C9.48096 5.86386 9.47949 6.21083 9.48242 6.5571M5.80907 8.54733C6.09308 8.33006 6.35725 8.0852 6.6707 7.90802M5.80907 8.54733C5.80833 8.91326 5.80686 9.27928 5.80981 9.64521M5.80907 8.54733C5.80833 8.20836 5.8076 7.86939 5.80981 7.53114M6.6707 7.90802C6.67217 8.27981 6.67143 8.65158 6.67143 9.02336M6.6707 7.90802C6.67143 7.57413 6.67217 7.24098 6.6707 6.9071M6.67143 9.02336C6.38667 9.23332 6.11075 9.45717 5.80981 9.64521M6.67143 9.02336C6.65598 9.48778 6.70673 9.95798 6.64271 10.4195C6.56913 10.7321 6.15855 10.808 5.92604 10.6148C5.72738 10.332 5.83335 9.96673 5.80981 9.64521M6.67145 5.21727C6.67145 5.07292 6.66923 4.92858 6.66115 4.78497C6.55812 4.41463 5.9695 4.36433 5.84367 4.74268C5.76861 5.08969 5.82453 5.45054 5.80982 5.80338M6.67145 5.21727C6.36093 5.37837 6.10488 5.61894 5.80982 5.80338M6.67145 5.21727C6.67218 5.78078 6.67143 6.34358 6.6707 6.9071M5.80982 5.80338C5.80687 6.37928 5.80833 6.95521 5.80981 7.53114M4.88711 6.76933C4.8849 6.45586 4.90918 6.13947 4.84811 5.83037C4.76791 5.65177 4.57218 5.50743 4.36763 5.55773C4.14101 5.59637 3.98353 5.82163 4.00341 6.04397C4.00415 7.01792 4.00561 7.99186 4.00341 8.96508C4.00415 9.08248 3.98428 9.20638 4.03285 9.31795M4.88711 6.76933C4.62737 6.98001 4.33452 7.15352 4.10421 7.39772C4.00782 7.81982 4.0711 8.25872 4.0483 8.68806M4.88711 6.76933C4.88711 7.20382 4.88783 7.63831 4.88709 8.0728M4.0483 8.68806C4.03431 8.89728 4.03285 9.10798 4.03285 9.31795M4.0483 8.68806C4.31686 8.46932 4.5913 8.25507 4.88709 8.0728M4.03285 9.31795C4.04461 9.40318 4.08065 9.48045 4.13952 9.54972C4.38234 9.74287 4.79954 9.643 4.86135 9.32303C4.91874 8.90895 4.87384 8.48907 4.88709 8.0728M10.3691 5.91995C10.0637 6.11898 9.78777 6.35809 9.48242 6.5571M10.3691 5.91995C10.3705 6.64385 10.3705 7.36705 10.369 8.09018M9.48242 6.5571C9.47949 7.26423 9.48021 7.97212 9.4824 8.67996M8.45135 5.31424C8.38072 5.18885 8.27623 5.06856 8.12907 5.03504C7.89509 4.97599 7.64712 5.15385 7.61107 5.38641C7.56838 5.73123 7.60149 6.08115 7.59119 6.42815M8.45135 5.31424C8.43737 5.47609 8.43002 5.64229 8.37998 5.7983C8.14011 6.03449 7.8421 6.20289 7.59119 6.42815M8.45135 5.31424C8.45282 5.33028 8.4565 5.36378 8.45797 5.38055C8.49844 6.08403 8.4668 6.78898 8.47564 7.4932M7.59119 6.42815C7.59193 7.10613 7.59119 7.78406 7.59192 8.46207M6.6707 6.9071C6.38226 7.11267 6.10928 7.34086 5.80981 7.53114M8.47564 7.4932C8.44325 7.99402 7.94806 8.20541 7.59192 8.46207M8.47564 7.4932C8.47564 8.17846 8.47635 8.86375 8.47635 9.549C8.47415 9.7385 8.47194 9.96381 8.30344 10.0906C8.15186 10.2313 7.92891 10.1883 7.75894 10.1096C7.65004 9.99735 7.59706 9.84494 7.5956 9.69118C7.58381 9.28148 7.5956 8.87176 7.59192 8.46207M10.369 8.09018C10.0379 8.23235 9.7819 8.489 9.4824 8.67996M10.369 8.09018C10.3712 8.6785 10.369 9.26751 10.369 9.85582M9.4824 8.67996C9.47875 9.28143 9.48093 9.88351 9.48167 10.485M12.3302 6.77517C12.3302 6.60751 12.3281 6.43984 12.3141 6.2729C12.1587 5.95505 11.6268 5.95505 11.4914 6.28456C11.4355 6.65197 11.4738 7.02669 11.4583 7.39774M12.3302 6.77517C12.0256 6.96326 11.7512 7.1929 11.4583 7.39774M12.3302 6.77517C12.3295 7.09084 12.3295 7.40646 12.3288 7.72212M11.4583 7.39774C11.4576 7.71195 11.4649 8.02613 11.462 8.34108M12.3288 7.72212C12.0138 7.89052 11.7364 8.11503 11.462 8.34108M12.3288 7.72212C12.3125 8.06552 12.3744 8.41973 12.289 8.75578C12.1845 9.01024 11.8645 9.03281 11.6401 8.93441C11.4531 8.79297 11.459 8.55096 11.462 8.34108M10.369 9.85582C10.0733 10.0651 9.78921 10.291 9.48167 10.485M10.369 9.85582C10.3705 10.1722 10.3698 10.4879 10.369 10.8042M9.48167 10.485C9.47947 10.8013 9.48095 11.1184 9.48095 11.4356M10.369 10.8042C10.0637 11.0011 9.78922 11.241 9.48095 11.4356M10.369 10.8042C10.3543 11.2227 10.4073 11.6463 10.3389 12.0604C10.255 12.3534 9.89227 12.4197 9.65307 12.2717C9.44631 12.0428 9.48241 11.7185 9.48095 11.4356" stroke="url(#paint23_linear_80_5867)" stroke-width="0.4"/>
</g>
<defs>
<linearGradient id="paint0_linear_80_5867" x1="3.99923" y1="14.8543" x2="14.5854" y2="2.50372" gradientUnits="userSpaceOnUse">
<stop stop-color="#A056FF"/>
<stop offset="1" stop-color="#C59AFD"/>
</linearGradient>
<linearGradient id="paint1_linear_80_5867" x1="6.08385" y1="12.3479" x2="14.4089" y2="9.92528" gradientUnits="userSpaceOnUse">
<stop stop-color="#C59AFD"/>
<stop offset="1" stop-color="white"/>
</linearGradient>
<linearGradient id="paint2_linear_80_5867" x1="6.08385" y1="12.3479" x2="14.4089" y2="9.92528" gradientUnits="userSpaceOnUse">
<stop stop-color="#C59AFD"/>
<stop offset="1" stop-color="white"/>
</linearGradient>
<linearGradient id="paint3_linear_80_5867" x1="6.08385" y1="12.3479" x2="14.4089" y2="9.92528" gradientUnits="userSpaceOnUse">
<stop stop-color="#C59AFD"/>
<stop offset="1" stop-color="white"/>
</linearGradient>
<linearGradient id="paint4_linear_80_5867" x1="6.08385" y1="12.3479" x2="14.4089" y2="9.92528" gradientUnits="userSpaceOnUse">
<stop stop-color="#C59AFD"/>
<stop offset="1" stop-color="white"/>
</linearGradient>
<linearGradient id="paint5_linear_80_5867" x1="6.08385" y1="12.3479" x2="14.4089" y2="9.92528" gradientUnits="userSpaceOnUse">
<stop stop-color="#C59AFD"/>
<stop offset="1" stop-color="white"/>
</linearGradient>
<linearGradient id="paint6_linear_80_5867" x1="6.08385" y1="12.3479" x2="14.4089" y2="9.92528" gradientUnits="userSpaceOnUse">
<stop stop-color="#C59AFD"/>
<stop offset="1" stop-color="white"/>
</linearGradient>
<linearGradient id="paint7_linear_80_5867" x1="6.08385" y1="12.3479" x2="14.4089" y2="9.92528" gradientUnits="userSpaceOnUse">
<stop stop-color="#C59AFD"/>
<stop offset="1" stop-color="white"/>
</linearGradient>
<linearGradient id="paint8_linear_80_5867" x1="6.08385" y1="12.3479" x2="14.4089" y2="9.92528" gradientUnits="userSpaceOnUse">
<stop stop-color="#C59AFD"/>
<stop offset="1" stop-color="white"/>
</linearGradient>
<linearGradient id="paint9_linear_80_5867" x1="6.08385" y1="12.3479" x2="14.4089" y2="9.92528" gradientUnits="userSpaceOnUse">
<stop stop-color="#C59AFD"/>
<stop offset="1" stop-color="white"/>
</linearGradient>
<linearGradient id="paint10_linear_80_5867" x1="6.08385" y1="12.3479" x2="14.4089" y2="9.92528" gradientUnits="userSpaceOnUse">
<stop stop-color="#C59AFD"/>
<stop offset="1" stop-color="white"/>
</linearGradient>
<linearGradient id="paint11_linear_80_5867" x1="6.08385" y1="12.3479" x2="14.4089" y2="9.92528" gradientUnits="userSpaceOnUse">
<stop stop-color="#C59AFD"/>
<stop offset="1" stop-color="white"/>
</linearGradient>
<linearGradient id="paint12_linear_80_5867" x1="6.08385" y1="12.3479" x2="14.4089" y2="9.92528" gradientUnits="userSpaceOnUse">
<stop stop-color="#C59AFD"/>
<stop offset="1" stop-color="white"/>
</linearGradient>
<linearGradient id="paint13_linear_80_5867" x1="6.08385" y1="12.3479" x2="14.4089" y2="9.92528" gradientUnits="userSpaceOnUse">
<stop stop-color="#C59AFD"/>
<stop offset="1" stop-color="white"/>
</linearGradient>
<linearGradient id="paint14_linear_80_5867" x1="6.08385" y1="12.3479" x2="14.4089" y2="9.92528" gradientUnits="userSpaceOnUse">
<stop stop-color="#C59AFD"/>
<stop offset="1" stop-color="white"/>
</linearGradient>
<linearGradient id="paint15_linear_80_5867" x1="6.08385" y1="12.3479" x2="14.4089" y2="9.92528" gradientUnits="userSpaceOnUse">
<stop stop-color="#C59AFD"/>
<stop offset="1" stop-color="white"/>
</linearGradient>
<linearGradient id="paint16_linear_80_5867" x1="6.08385" y1="12.3479" x2="14.4089" y2="9.92528" gradientUnits="userSpaceOnUse">
<stop stop-color="#C59AFD"/>
<stop offset="1" stop-color="white"/>
</linearGradient>
<linearGradient id="paint17_linear_80_5867" x1="6.08385" y1="12.3479" x2="14.4089" y2="9.92528" gradientUnits="userSpaceOnUse">
<stop stop-color="#C59AFD"/>
<stop offset="1" stop-color="white"/>
</linearGradient>
<linearGradient id="paint18_linear_80_5867" x1="6.08385" y1="12.3479" x2="14.4089" y2="9.92528" gradientUnits="userSpaceOnUse">
<stop stop-color="#C59AFD"/>
<stop offset="1" stop-color="white"/>
</linearGradient>
<linearGradient id="paint19_linear_80_5867" x1="6.08385" y1="12.3479" x2="14.4089" y2="9.92528" gradientUnits="userSpaceOnUse">
<stop stop-color="#C59AFD"/>
<stop offset="1" stop-color="white"/>
</linearGradient>
<linearGradient id="paint20_linear_80_5867" x1="6.08385" y1="12.3479" x2="14.4089" y2="9.92528" gradientUnits="userSpaceOnUse">
<stop stop-color="#C59AFD"/>
<stop offset="1" stop-color="white"/>
</linearGradient>
<linearGradient id="paint21_linear_80_5867" x1="6.08385" y1="12.3479" x2="14.4089" y2="9.92528" gradientUnits="userSpaceOnUse">
<stop stop-color="#C59AFD"/>
<stop offset="1" stop-color="white"/>
</linearGradient>
<linearGradient id="paint22_linear_80_5867" x1="6.08385" y1="12.3479" x2="14.4089" y2="9.92528" gradientUnits="userSpaceOnUse">
<stop stop-color="#C59AFD"/>
<stop offset="1" stop-color="white"/>
</linearGradient>
<linearGradient id="paint23_linear_80_5867" x1="6.08385" y1="12.3479" x2="14.4089" y2="9.92528" gradientUnits="userSpaceOnUse">
<stop stop-color="#C59AFD"/>
<stop offset="1" stop-color="white"/>
</linearGradient>
<clipPath id="clip0_80_5867">
<rect width="16" height="16" fill="white"/>
</clipPath>
</defs>
</svg>
