<svg width="16" height="16" viewBox="0 0 16 16" fill="none" xmlns="http://www.w3.org/2000/svg">
<path fill-rule="evenodd" clip-rule="evenodd" d="M5 0H10.18C10.97 0 11.728 0.314 12.287 0.872C12.817 1.403 13.597 2.183 14.128 2.713C14.686 3.272 15 4.03 15 4.82V13.021C15 13.811 14.686 14.569 14.128 15.128C13.569 15.686 12.811 16 12.021 16C9.796 16 6.204 16 3.979 16C3.189 16 2.431 15.686 1.872 15.128C1.314 14.569 1 13.811 1 13.021V4C1 3.448 1.448 3 2 3C3.104 3 4 2.104 4 1C4 0.448 4.448 0 5 0ZM3 1C3 1.552 2.552 2 2 2C1.448 2 1 1.552 1 1C1 0.448 1.448 0 2 0C2.552 0 3 0.448 3 1Z" fill="url(#paint0_linear_42_1621)"/>
<path d="M3.49458 12.0884C3.8231 11.9619 4.19785 12.0146 4.54713 12.0014C5.40513 12.0212 6.26628 11.9724 7.12108 12.0265C7.75898 12.1267 8.02234 13.0252 7.59654 13.426C7.28716 13.7753 6.71944 13.7108 6.26334 13.7134C5.40374 13.6936 4.53936 13.745 3.68301 13.6883C2.87126 13.5736 2.75143 12.3679 3.49458 12.0884Z" fill="#D49F34"/>
<path d="M8.31542 7.15078C8.65382 6.81233 9.07815 6.42908 9.58835 6.0009C10.0986 5.57275 10.5229 5.23048 10.8613 4.9741L11.3766 4.58185C11.4381 4.5203 11.5125 4.48953 11.5997 4.48953C11.6868 4.48953 11.7612 4.5203 11.8227 4.58185C11.8381 4.5972 11.8483 4.61518 11.8534 4.63568C11.8586 4.6562 11.8573 4.67925 11.8496 4.7049C11.8419 4.73053 11.8317 4.75233 11.8188 4.77025C11.806 4.78823 11.7868 4.8113 11.7612 4.8395C11.7355 4.8677 11.715 4.89078 11.6996 4.90873C11.6843 4.92665 11.6625 4.94845 11.6343 4.9741C11.6061 4.99973 11.5869 5.01768 11.5766 5.02793C11.4484 5.12023 11.2804 5.24588 11.0728 5.40483C10.8651 5.56378 10.5075 5.85605 9.99982 6.28165C9.4922 6.70723 9.06405 7.09438 8.71537 7.44303C8.5 7.6584 8.21415 7.94298 7.85777 8.29678C7.5014 8.6506 7.19503 8.9557 6.93865 9.21208C6.68228 9.46845 6.45407 9.6992 6.2541 9.9043C5.95672 10.2171 5.67215 10.5196 5.40037 10.8119C5.12862 11.1042 4.9312 11.3183 4.80815 11.4541L4.62355 11.658C4.562 11.7195 4.53125 11.7528 4.53125 11.7579C4.53125 11.7631 4.562 11.7964 4.62355 11.8579C4.6748 11.9143 4.85812 11.831 5.17347 11.608C5.48882 11.3849 5.70032 11.2196 5.80802 11.1119C6.11567 10.7991 6.531 10.3786 7.05403 9.85048C7.4181 9.75815 7.86803 9.5633 8.40388 9.26593C8.9397 8.9685 9.44092 8.65443 9.90755 8.32373C10.3741 7.99298 10.7792 7.6943 11.1228 7.42765C11.4663 7.16103 11.6843 6.98158 11.7766 6.88925C11.9099 6.75595 12.0406 6.52135 12.1688 6.18548C12.297 5.84963 12.3752 5.51378 12.4034 5.17793C12.4316 4.84205 12.3662 4.57928 12.2073 4.38955C11.9663 4.14343 11.6279 4.01395 11.192 4.00113C10.7562 3.98833 10.3613 4.08445 10.0076 4.28955C9.61785 4.51005 9.17685 4.84718 8.6846 5.30098C8.19235 5.75478 7.74112 6.23423 7.33092 6.73928C6.9207 7.24433 6.58743 7.74813 6.33103 8.25065C6.07465 8.75315 5.9721 9.1531 6.02338 9.45053C6.77715 8.6916 7.54115 7.92505 8.31542 7.15078Z" fill="#D49F34"/>
<path d="M4.49458 11.0884C4.8231 10.9619 5.19785 11.0146 5.54713 11.0014C6.40513 11.0212 7.26628 10.9724 8.12108 11.0265C8.75898 11.1267 9.02234 12.0252 8.59654 12.426C8.28716 12.7753 7.71944 12.7108 7.26334 12.7134C6.40374 12.6936 5.53936 12.745 4.68301 12.6883C3.87126 12.5736 3.75143 11.3679 4.49458 11.0884Z" fill="url(#paint1_linear_42_1621)"/>
<path d="M8.90917 5.90078C9.24757 5.56233 9.6719 5.17908 10.1821 4.7509C10.6923 4.32275 11.1166 3.98048 11.455 3.7241L11.9704 3.33185C12.0319 3.2703 12.1063 3.23953 12.1934 3.23953C12.2806 3.23953 12.3549 3.2703 12.4165 3.33185C12.4318 3.3472 12.4421 3.36518 12.4472 3.38568C12.4523 3.4062 12.451 3.42925 12.4434 3.4549C12.4357 3.48053 12.4254 3.50233 12.4126 3.52025C12.3998 3.53823 12.3806 3.5613 12.3549 3.5895C12.3293 3.6177 12.3088 3.64078 12.2934 3.65873C12.278 3.67665 12.2562 3.69845 12.228 3.7241C12.1998 3.74973 12.1806 3.76768 12.1703 3.77793C12.0421 3.87023 11.8742 3.99588 11.6665 4.15483C11.4589 4.31378 11.1012 4.60605 10.5936 5.03165C10.0859 5.45723 9.6578 5.84438 9.30912 6.19303C9.09375 6.4084 8.8079 6.69298 8.45152 7.04678C8.09515 7.4006 7.78878 7.7057 7.5324 7.96208C7.27603 8.21845 7.04782 8.4492 6.84785 8.6543C6.55047 8.96708 6.2659 9.26963 5.99412 9.56188C5.72237 9.85418 5.52495 10.0683 5.4019 10.2041L5.2173 10.408C5.15575 10.4695 5.125 10.5028 5.125 10.5079C5.125 10.5131 5.15575 10.5464 5.2173 10.6079C5.26855 10.6643 5.45187 10.581 5.76722 10.358C6.08257 10.1349 6.29407 9.96955 6.40177 9.86185C6.70942 9.54908 7.12475 9.1286 7.64778 8.60048C8.01185 8.50815 8.46178 8.3133 8.99763 8.01593C9.53345 7.7185 10.0347 7.40443 10.5013 7.07373C10.9679 6.74298 11.373 6.4443 11.7165 6.17765C12.0601 5.91103 12.278 5.73158 12.3703 5.63925C12.5036 5.50595 12.6344 5.27135 12.7626 4.93548C12.8908 4.59963 12.969 4.26378 12.9972 3.92793C13.0254 3.59205 12.96 3.32928 12.801 3.13955C12.56 2.89343 12.2216 2.76395 11.7858 2.75113C11.3499 2.73833 10.9551 2.83445 10.6013 3.03955C10.2116 3.26005 9.7706 3.59718 9.27835 4.05098C8.7861 4.50478 8.33487 4.98423 7.92467 5.48928C7.51445 5.99433 7.18118 6.49813 6.92478 7.00065C6.6684 7.50315 6.56585 7.9031 6.61713 8.20053C7.3709 7.4416 8.1349 6.67505 8.90917 5.90078Z" fill="url(#paint2_linear_42_1621)"/>
<defs>
<linearGradient id="paint0_linear_42_1621" x1="3.625" y1="14.9988" x2="13.7787" y2="4.33656" gradientUnits="userSpaceOnUse">
<stop stop-color="#FF8860"/>
<stop offset="1" stop-color="#FBD92C"/>
</linearGradient>
<linearGradient id="paint1_linear_42_1621" x1="5.20107" y1="12.2874" x2="5.74494" y2="10.7652" gradientUnits="userSpaceOnUse">
<stop stop-color="#FBD92C"/>
<stop offset="1" stop-color="white"/>
</linearGradient>
<linearGradient id="paint2_linear_42_1621" x1="7.09463" y1="8.65625" x2="11.0321" y2="4.71699" gradientUnits="userSpaceOnUse">
<stop stop-color="#FBD92C"/>
<stop offset="1" stop-color="white"/>
</linearGradient>
</defs>
</svg>
