<svg width="16" height="16" viewBox="0 0 16 16" fill="none" xmlns="http://www.w3.org/2000/svg">
<g clip-path="url(#clip0_44_2)">
<path fill-rule="evenodd" clip-rule="evenodd" d="M10.2321 13.5801L10.2142 13.5873C9.8333 13.7395 9.46681 13.886 9.11413 14.0263C8.52426 14.2609 7.86655 13.8587 7.45484 13.3755C7.03559 12.8835 6.41138 12.5714 5.71429 12.5714C4.45192 12.5714 3.42857 13.5948 3.42857 14.8571C3.42857 15.3928 3.14751 16.0023 2.61183 16C2.06536 15.9976 1.61766 15.8778 1.24332 15.6233C0.902493 15.3917 0.608529 15.0977 0.376923 14.7569C-0.599877 13.3193 0.406523 10.8017 2.42012 5.76812C2.84972 4.69452 3.06492 4.15772 3.43372 3.73612C3.52812 3.62892 3.62892 3.52812 3.73612 3.43372C4.15772 3.06492 4.69452 2.84972 5.76812 2.42012C10.8017 0.406523 13.3193 -0.599877 14.7569 0.376923C15.0977 0.608922 15.3913 0.902522 15.6233 1.24332C16.5995 2.68003 15.5942 5.19459 13.5839 10.2228L13.5801 10.2321C13.1505 11.3057 12.9353 11.8425 12.5665 12.2641C12.4721 12.3713 12.3713 12.4721 12.2641 12.5665C11.8425 12.9353 11.3057 13.1505 10.2321 13.5801ZM5.71429 16C6.34547 16 6.85714 15.4883 6.85714 14.8571C6.85714 14.226 6.34547 13.7143 5.71429 13.7143C5.0831 13.7143 4.57143 14.226 4.57143 14.8571C4.57143 15.4883 5.0831 16 5.71429 16Z" fill="url(#paint0_linear_44_2)"/>
<path d="M6.85713 6.85712C6.25093 6.85712 5.66954 7.09793 5.24088 7.52659C4.81223 7.95524 4.57141 8.53664 4.57141 9.14284C4.57141 9.74903 4.81223 10.3304 5.24088 10.7591C5.66954 11.1877 6.25093 11.4285 6.85713 11.4285C7.46333 11.4285 8.0447 11.1877 8.47336 10.7591C8.90202 10.3304 9.14284 9.74903 9.14284 9.14284C9.14284 8.53664 8.90202 7.95524 8.47336 7.52659C8.0447 7.09793 7.46333 6.85712 6.85713 6.85712Z" fill="#279FD7"/>
<path d="M7.99995 5.71429C7.39376 5.71429 6.81236 5.95511 6.38371 6.38377C5.95505 6.81242 5.71423 7.39382 5.71423 8.00001C5.71423 8.60621 5.95505 9.18759 6.38371 9.61625C6.81236 10.0449 7.39376 10.2857 7.99995 10.2857C8.60615 10.2857 9.18752 10.0449 9.61618 9.61625C10.0448 9.18759 10.2857 8.60621 10.2857 8.00001C10.2857 7.39382 10.0448 6.81242 9.61618 6.38377C9.18752 5.95511 8.60615 5.71429 7.99995 5.71429Z" fill="url(#paint1_linear_44_2)"/>
</g>
<defs>
<linearGradient id="paint0_linear_44_2" x1="1.60001" y1="16.005" x2="7.37868" y2="-1.33329" gradientUnits="userSpaceOnUse">
<stop stop-color="#22B4FA"/>
<stop offset="1" stop-color="#6BD6FE"/>
</linearGradient>
<linearGradient id="paint1_linear_44_2" x1="5.71423" y1="10.2857" x2="11.0924" y2="8.94119" gradientUnits="userSpaceOnUse">
<stop stop-color="#6BD6FE"/>
<stop offset="1" stop-color="white"/>
</linearGradient>
<clipPath id="clip0_44_2">
<rect width="16" height="16" fill="white"/>
</clipPath>
</defs>
</svg>
