<svg width="16" height="16" viewBox="0 0 16 16" fill="none" xmlns="http://www.w3.org/2000/svg">
<path d="M11.2167 1.03072C10.9546 1.23485 10.1829 2.66312 9.4112 4.36575C9.09857 5.05977 8.65611 5.96754 8.43274 6.3848C7.76937 7.62091 6.14909 9.86988 5.39897 10.5873L5.24789 10.7332C4.94368 11.0268 4.93177 11.5104 5.22114 11.8187V11.8187C5.54114 12.1609 5.96389 12.8717 6.31463 13.6666C6.55161 14.2057 6.73504 14.5807 6.87302 14.84C7.06169 15.1946 7.46186 15.2922 7.81002 15.0919C7.87424 15.055 7.93997 15.0159 8.00509 14.9754C8.85366 14.4381 9.64692 13.7158 10.7262 12.4869C12.4111 10.5711 13.6757 10.1653 15.2333 11.0448C15.6542 11.2838 16 11.4338 16 11.378C16 11.3192 15.7858 10.7422 15.5286 10.0926C15.2714 9.44303 14.5693 7.60891 13.9736 6.01674C13.5483 5.31794 12.1589 0.543227 11.2167 1.03553M7.85863 4.95411C7.85126 4.95411 7.842 4.95411 7.83217 4.95891C6.40697 5.58268 5.89252 5.86668 5.4716 6.26291C5.19526 6.52766 4.96943 6.80926 4.96943 6.89148C4.96943 7.14726 6.09189 7.82988 6.27709 7.6864C6.36634 7.61611 6.71709 7.11423 7.05617 6.56788C7.65492 5.59468 7.96446 4.96852 7.85863 4.95411ZM3.86915 7.70977C3.62608 7.70977 0.181835 9.01137 0.0181433 9.16628C-0.029851 9.21068 0.0206061 9.29297 0.131372 9.35417C0.242143 9.4172 0.871669 9.83748 1.53997 10.2902C2.2058 10.7429 2.78486 11.1109 2.82609 11.1133C2.86671 11.1133 3.17255 10.9535 3.49931 10.7566C4.18668 10.3436 5.51343 9.066 5.50669 8.82166C5.50171 8.60371 4.17992 7.708 3.8673 7.708" fill="url(#paint0_linear_238_39)"/>
<path fill-rule="evenodd" clip-rule="evenodd" d="M9.41116 4.36575C10.1828 2.66312 10.9545 1.23485 11.2166 1.03072V1.03553C11.9013 0.677766 12.8223 3.10158 13.4377 4.72129C13.6411 5.25669 13.8111 5.70423 13.9282 5.93439C13.9567 5.99046 13.9845 6.04624 14.0066 6.10516C14.595 7.67623 15.2761 9.45502 15.5286 10.0926C15.596 10.2628 15.6604 10.432 15.7188 10.5891C15.8433 10.9241 15.544 11.2213 15.2332 11.0448C13.6757 10.1653 12.4111 10.5711 10.7262 12.4869C9.64682 13.7158 8.85362 14.4381 8.00505 14.9754C7.93994 15.0159 7.87422 15.055 7.81001 15.0919C7.46183 15.2922 7.06164 15.1945 6.87296 14.8399C6.73499 14.5806 6.55156 14.2057 6.31459 13.6666C5.96385 12.8717 5.54105 12.1609 5.22105 11.8187C4.93168 11.5104 4.9436 11.0268 5.24781 10.7332L5.39893 10.5873C6.14905 9.86988 7.76933 7.62091 8.4327 6.3848C8.65608 5.96754 9.09853 5.05977 9.41116 4.36575ZM13.5 13.5C14.0523 13.5 14.5 13.0523 14.5 12.5C14.5 11.9477 14.0523 11.5 13.5 11.5C12.9477 11.5 12.5 11.9477 12.5 12.5C12.5 13.0523 12.9477 13.5 13.5 13.5Z" fill="url(#paint1_linear_238_39)"/>
<defs>
<linearGradient id="paint0_linear_238_39" x1="5.12585" y1="10.5069" x2="9.71418" y2="5.40872" gradientUnits="userSpaceOnUse">
<stop stop-color="#FF5C5D"/>
<stop offset="1" stop-color="white"/>
</linearGradient>
<linearGradient id="paint1_linear_238_39" x1="6.81811" y1="13.5999" x2="15.9516" y2="4.99858" gradientUnits="userSpaceOnUse">
<stop stop-color="#FF405B"/>
<stop offset="1" stop-color="#FF8860"/>
</linearGradient>
</defs>
</svg>
