<svg width="16" height="16" viewBox="0 0 16 16" fill="none" xmlns="http://www.w3.org/2000/svg">
<g clip-path="url(#clip0_25_2722)">
<path d="M7.99986 0C3.58157 3.2e-05 -0.000113064 3.58185 2.6769e-09 8.00014C4.26693e-05 12.4183 3.58168 16 7.99986 16C9.79915 15.9967 11.5401 15.387 12.9449 14.2769C13.1386 14.1237 13.1455 13.8369 12.9695 13.6636L7.87238 8.64352C7.70268 8.47638 7.70268 8.20268 7.87237 8.03554L13.3445 2.64596C13.5133 2.47974 13.515 2.20692 13.3388 2.04862C11.8763 0.734656 9.976 0.00177067 7.99986 0Z" fill="url(#paint0_linear_25_2722)"/>
<path d="M6.8 14C9.45099 14 11.6 11.851 11.6 9.20002C11.6 6.54906 9.45099 4.40002 6.8 4.40002C4.14903 4.40002 2 6.54906 2 9.20002C2 11.851 4.14903 14 6.8 14Z" fill="#D84F4F"/>
<path d="M7.99995 12.8C10.6509 12.8 12.8 10.651 12.8 8.00001C12.8 5.34905 10.6509 3.20001 7.99995 3.20001C5.34899 3.20001 3.19995 5.34905 3.19995 8.00001C3.19995 10.651 5.34899 12.8 7.99995 12.8Z" fill="url(#paint1_linear_25_2722)"/>
<path opacity="0.5" d="M7.25344 10.3467C8.1371 10.3467 8.85344 9.63033 8.85344 8.74667C8.85344 7.86301 8.1371 7.14667 7.25344 7.14667C6.36978 7.14667 5.65344 7.86301 5.65344 8.74667C5.65344 9.63033 6.36978 10.3467 7.25344 10.3467Z" fill="#D84F4F"/>
<path d="M8.00002 9.60002C8.88368 9.60002 9.60002 8.88368 9.60002 8.00002C9.60002 7.11637 8.88368 6.40002 8.00002 6.40002C7.11637 6.40002 6.40002 7.11637 6.40002 8.00002C6.40002 8.88368 7.11637 9.60002 8.00002 9.60002Z" fill="url(#paint2_linear_25_2722)"/>
<path d="M15 9C15.5523 9 16 8.55229 16 8C16 7.44771 15.5523 7 15 7C14.4477 7 14 7.44771 14 8C14 8.55229 14.4477 9 15 9Z" fill="url(#paint3_linear_25_2722)"/>
</g>
<defs>
<linearGradient id="paint0_linear_25_2722" x1="2.52582" y1="14" x2="12.6919" y2="3.72889" gradientUnits="userSpaceOnUse">
<stop stop-color="#FF405B"/>
<stop offset="1" stop-color="#FF8860"/>
</linearGradient>
<linearGradient id="paint1_linear_25_2722" x1="5.94174" y1="12.7998" x2="9.0751" y2="5.33964" gradientUnits="userSpaceOnUse">
<stop stop-color="#FF8860"/>
<stop offset="1" stop-color="white"/>
</linearGradient>
<linearGradient id="paint2_linear_25_2722" x1="7.00002" y1="9.20002" x2="9.00002" y2="6.80002" gradientUnits="userSpaceOnUse">
<stop stop-color="#FF405B"/>
<stop offset="1" stop-color="#FF8860"/>
</linearGradient>
<linearGradient id="paint3_linear_25_2722" x1="14.375" y1="8.75" x2="15.625" y2="7.25" gradientUnits="userSpaceOnUse">
<stop stop-color="#FF405B"/>
<stop offset="1" stop-color="#FF8860"/>
</linearGradient>
<clipPath id="clip0_25_2722">
<rect width="16" height="16" fill="white"/>
</clipPath>
</defs>
</svg>
