<svg width="16" height="16" viewBox="0 0 16 16" fill="none" xmlns="http://www.w3.org/2000/svg">
<g clip-path="url(#clip0_43_1868)">
<path fill-rule="evenodd" clip-rule="evenodd" d="M16 15C16 14.448 15.552 14 15 14C14.448 14 14 14.448 14 15C14 15.552 14.448 16 15 16C15.552 16 16 15.552 16 15ZM13 15C13 13.896 13.896 13 15 13C15.552 13 16 12.552 16 12C16 12 16 7.216 16 3.958C16 1.772 14.228 0 12.042 0H3.958C1.772 0 0 1.772 0 3.958V12.042C0 14.228 1.772 16 3.958 16C7.216 16 12 16 12 16C12.552 16 13 15.552 13 15Z" fill="url(#paint0_linear_43_1868)"/>
<path d="M8.42744 13.6996L5.33805 8.31769C5.23605 8.14 4.96459 8.21237 4.96459 8.41726V13.6C4.96459 13.7105 4.87505 13.8 4.76459 13.8H3.00005C2.88959 13.8 2.80005 13.7105 2.80005 13.6V4.22222C2.80005 4.11176 2.88959 4.02222 3.00005 4.02222H5.03218C5.10552 4.02222 5.17298 4.06236 5.20796 4.12681L8.17151 9.58713C8.27046 9.76943 8.54729 9.69915 8.54729 9.49172V4.22222C8.54729 4.11176 8.63684 4.02222 8.74729 4.02222H10.5118C10.6223 4.02222 10.7118 4.11176 10.7118 4.22222V13.6C10.7118 13.7105 10.6223 13.8 10.5118 13.8H8.60089C8.52926 13.8 8.4631 13.7617 8.42744 13.6996Z" fill="#8C4FD9"/>
<path d="M9.64961 12.4773L6.56022 7.09546C6.45822 6.91777 6.18676 6.99014 6.18676 7.19503V12.3778C6.18676 12.4882 6.09722 12.5778 5.98676 12.5778H4.22222C4.11176 12.5778 4.02222 12.4882 4.02222 12.3778V2.99999C4.02222 2.88953 4.11176 2.79999 4.22222 2.79999H6.25435C6.32769 2.79999 6.39515 2.84013 6.43013 2.90458L9.39368 8.3649C9.49263 8.5472 9.76946 8.47692 9.76946 8.2695V2.99999C9.76946 2.88953 9.859 2.79999 9.96946 2.79999H11.734C11.8445 2.79999 11.934 2.88953 11.934 2.99999V12.3778C11.934 12.4882 11.8445 12.5778 11.734 12.5778H9.82306C9.75143 12.5778 9.68527 12.5395 9.64961 12.4773Z" fill="url(#paint1_linear_43_1868)"/>
</g>
<defs>
<linearGradient id="paint0_linear_43_1868" x1="4" y1="14.8571" x2="14.5882" y2="2.5042" gradientUnits="userSpaceOnUse">
<stop stop-color="#A056FF"/>
<stop offset="1" stop-color="#C59AFD"/>
</linearGradient>
<linearGradient id="paint1_linear_43_1868" x1="6.00016" y1="12.5778" x2="13.99" y2="10.4227" gradientUnits="userSpaceOnUse">
<stop stop-color="#C59AFD"/>
<stop offset="1" stop-color="white"/>
</linearGradient>
<clipPath id="clip0_43_1868">
<rect width="16" height="16" fill="white"/>
</clipPath>
</defs>
</svg>
