<svg width="16" height="16" viewBox="0 0 16 16" fill="none" xmlns="http://www.w3.org/2000/svg">
<g clip-path="url(#clip0_85_60)">
<path d="M2 12.8889V2L6.66666 7.44443L11.3333 2V12.8889" stroke="url(#paint0_linear_85_60)" stroke-width="3" stroke-linecap="round" stroke-linejoin="round"/>
<path d="M11.3333 16C13.6958 16 15.6111 14.0848 15.6111 11.7222C15.6111 9.35969 13.6958 7.44446 11.3333 7.44446C8.97078 7.44446 7.05554 9.35969 7.05554 11.7222C7.05554 14.0848 8.97078 16 11.3333 16Z" fill="url(#paint1_linear_85_60)"/>
<path fill-rule="evenodd" clip-rule="evenodd" d="M9.38893 11.7222C9.60371 11.7222 9.77781 11.5481 9.77781 11.3333V10.5555C9.77781 10.1262 10.1263 9.77777 10.5556 9.77777C10.9849 9.77777 11.3334 10.1262 11.3334 10.5555V11.3333C11.3334 11.5481 11.5075 11.7222 11.7223 11.7222H12.5C12.9294 11.7222 13.2778 12.0707 13.2778 12.5C13.2778 12.9293 12.9294 13.2778 12.5 13.2778H11.7223C11.5075 13.2778 11.3334 13.4519 11.3334 13.6667V14.4444C11.3334 14.8738 10.9849 15.2222 10.5556 15.2222C10.1263 15.2222 9.77781 14.8738 9.77781 14.4444V13.6667C9.77781 13.4519 9.60371 13.2778 9.38893 13.2778H8.61115C8.18182 13.2778 7.83337 12.9293 7.83337 12.5C7.83337 12.0707 8.18182 11.7222 8.61115 11.7222H9.38893Z" fill="#8CC860"/>
<path fill-rule="evenodd" clip-rule="evenodd" d="M10.1666 10.9444C10.3814 10.9444 10.5555 10.7703 10.5555 10.5556V9.77778C10.5555 9.34844 10.904 9 11.3333 9C11.7626 9 12.1111 9.34844 12.1111 9.77778V10.5556C12.1111 10.7703 12.2852 10.9444 12.5 10.9444H13.2777C13.7071 10.9444 14.0555 11.2929 14.0555 11.7222C14.0555 12.1515 13.7071 12.5 13.2777 12.5H12.5C12.2852 12.5 12.1111 12.6741 12.1111 12.8889V13.6667C12.1111 14.096 11.7626 14.4444 11.3333 14.4444C10.904 14.4444 10.5555 14.096 10.5555 13.6667V12.8889C10.5555 12.6741 10.3814 12.5 10.1666 12.5H9.38886C8.95953 12.5 8.61108 12.1515 8.61108 11.7222C8.61108 11.2929 8.95953 10.9444 9.38886 10.9444H10.1666Z" fill="url(#paint2_linear_85_60)"/>
</g>
<defs>
<linearGradient id="paint0_linear_85_60" x1="2.66667" y1="12.8889" x2="10.1879" y2="3.5118" gradientUnits="userSpaceOnUse">
<stop stop-color="#9BE862"/>
<stop offset="1" stop-color="#C8FF9F"/>
</linearGradient>
<linearGradient id="paint1_linear_85_60" x1="7.66665" y1="16" x2="13.319" y2="7.77838" gradientUnits="userSpaceOnUse">
<stop stop-color="#9BE862"/>
<stop offset="1" stop-color="#C8FF9F"/>
</linearGradient>
<linearGradient id="paint2_linear_85_60" x1="9.29164" y1="14.4444" x2="13.917" y2="10.3972" gradientUnits="userSpaceOnUse">
<stop stop-color="#C8FF9F"/>
<stop offset="1" stop-color="white"/>
</linearGradient>
<clipPath id="clip0_85_60">
<rect width="16" height="16" fill="white"/>
</clipPath>
</defs>
</svg>
