<svg width="16" height="16" viewBox="0 0 16 16" fill="none" xmlns="http://www.w3.org/2000/svg">
<path fill-rule="evenodd" clip-rule="evenodd" d="M0.00760245 2.27191C0.0907787 1.51356 0.877116 0.956582 1.61845 1.00266C2.0637 1.03034 2.65691 1.39148 2.79202 1.47373C2.80387 1.48095 2.8122 1.48602 2.81659 1.48853C3.97406 2.15591 5.13198 2.82206 6.29009 3.4883C6.29014 3.48833 6.29019 3.48836 6.29024 3.4884V3.4884C6.29029 3.48844 6.29034 3.48848 6.29039 3.48851C6.53019 3.62647 7.06117 3.93185 7.66785 4.28077C8.70067 4.87477 9.95285 5.59493 10.361 5.82993L10.3625 5.83067L10.3665 5.8329C10.6266 5.97893 10.8866 6.12491 11.1333 6.29201C11.7133 6.6887 11.9347 7.49619 11.6763 8.14229C11.543 8.50792 11.2585 8.79844 10.9219 8.98571C10.8158 9.04642 10.71 9.10752 10.6042 9.16861L10.5541 9.19759C10.554 9.19762 10.554 9.19766 10.5539 9.19771V9.19771C10.5539 9.19776 10.5538 9.1978 10.5538 9.19783C10.1806 9.41331 8.57977 10.3047 8.19912 10.5075C7.96963 10.6698 7.73026 10.818 7.48881 10.9623C7.28557 11.0747 7.08452 11.1914 6.88355 11.308L6.88012 11.31L6.872 11.3147C6.78969 11.3625 6.49668 11.5322 6.1107 11.7554C5.6406 12.0273 5.04626 11.8485 4.60178 11.5365C4.21823 11.2673 3.75095 11.1092 3.24677 11.1092C1.94266 11.1092 0.885481 12.1664 0.885481 13.4705V13.4705C0.885481 13.7005 0.656207 13.8794 0.483592 13.7275C0.339806 13.6009 0.219092 13.4484 0.132699 13.2754C-0.0357879 12.967 0.00209464 3.63474 0.00711796 2.39726C0.00738103 2.33246 0.00755398 2.28985 0.00760245 2.27191Z" fill="url(#paint0_linear_95_456)"/>
<path fill-rule="evenodd" clip-rule="evenodd" d="M9.03087 5.0647C8.90113 5.13934 8.77138 5.21398 8.64163 5.28863L8.64149 5.28874C8.42382 5.41396 7.96178 5.67969 7.42253 5.98982C6.3852 6.58641 5.06217 7.3473 4.64346 7.58835L4.64205 7.58909L4.64162 7.58934C4.38495 7.73337 4.12838 7.87734 3.88502 8.04216C3.31536 8.43178 3.09792 9.2248 3.35176 9.85939C3.48262 10.2185 3.76203 10.5038 4.09261 10.6878C4.21327 10.7568 4.33361 10.8263 4.45395 10.8958L4.45414 10.896C4.69416 11.0346 5.4519 11.4582 6.05107 11.7899C6.46632 11.5498 6.7855 11.3649 6.872 11.3147L6.88012 11.31L6.88354 11.308C7.08451 11.1914 7.28557 11.0747 7.48881 10.9623C7.73026 10.818 7.96963 10.6698 8.19912 10.5075C8.5798 10.3046 10.1808 9.41318 10.5538 9.19779L10.554 9.19764C10.5708 9.18795 10.5875 9.17826 10.6043 9.16857C10.7101 9.10749 10.8159 9.04641 10.9219 8.98571C11.2585 8.79844 11.543 8.50792 11.6763 8.14229C11.9347 7.49619 11.7133 6.6887 11.1333 6.29201C10.8866 6.12491 10.6266 5.97892 10.3665 5.8329L10.3625 5.83067L10.361 5.82993C10.1275 5.69549 9.61776 5.40225 9.03087 5.0647Z" fill="#279FD7"/>
<path d="M14.4104 1.66674C15.1385 1.62148 15.9108 2.16851 15.9925 2.9133C15.9935 3.26749 16.0438 13.4013 15.8696 13.7201C15.5391 14.3822 14.6968 14.7374 13.9963 14.4796C13.7143 14.3684 13.4539 14.2138 13.1935 14.0593L13.1879 14.056C13.0495 13.9739 12.9111 13.8919 12.7694 13.8165C12.4735 13.6609 9.53977 11.9623 9.25073 11.7945L9.24276 11.7898C9.04427 11.6746 8.8457 11.5595 8.64499 11.4483C8.40783 11.3067 8.17273 11.1611 7.94738 11.0017C7.57348 10.8024 6.00109 9.92692 5.63474 9.71537L5.63455 9.71522C5.51421 9.64571 5.39387 9.5762 5.27322 9.50713C4.94264 9.32317 4.66322 9.03783 4.53236 8.67876C4.27852 8.04417 4.49596 7.25115 5.06562 6.86153C5.30912 6.69661 5.56584 6.55258 5.82266 6.40846L5.82407 6.40773C6.46043 6.04136 9.18572 4.4742 9.82209 4.10811L9.82224 4.108C10.9596 3.45366 12.0969 2.7994 13.2337 2.14392C13.2872 2.11335 13.9348 1.69631 14.4104 1.66674Z" fill="url(#paint1_linear_95_456)"/>
<ellipse cx="3.2468" cy="13.4706" rx="1.18064" ry="1.18064" fill="url(#paint2_linear_95_456)"/>
<defs>
<linearGradient id="paint0_linear_95_456" x1="1.17831" y1="13.7878" x2="6.1004" y2="0.175698" gradientUnits="userSpaceOnUse">
<stop offset="0.190745" stop-color="#22B4FA"/>
<stop offset="0.896724" stop-color="#7DDCFF"/>
</linearGradient>
<linearGradient id="paint1_linear_95_456" x1="4.42737" y1="14.564" x2="18.2003" y2="11.4751" gradientUnits="userSpaceOnUse">
<stop stop-color="#6BD6FE"/>
<stop offset="1" stop-color="white"/>
</linearGradient>
<linearGradient id="paint2_linear_95_456" x1="2.30229" y1="14.6519" x2="3.15511" y2="12.0932" gradientUnits="userSpaceOnUse">
<stop offset="0.190745" stop-color="#22B4FA"/>
<stop offset="0.896724" stop-color="#7DDCFF"/>
</linearGradient>
</defs>
</svg>
