<svg width="16" height="16" viewBox="0 0 16 16" fill="none" xmlns="http://www.w3.org/2000/svg">
<path d="M5.11907 7.84956L4.03911 6.94955C3.77437 6.7283 3.64162 6.61805 3.57038 6.46655C3.49988 6.31506 3.49988 6.14257 3.49988 5.79758V3.57617C2.52492 3.67217 1.86869 3.88891 1.37897 4.37864C0.5 5.25686 0.5 6.67205 0.5 9.50094C0.5 12.3283 0.5 13.7428 1.37897 14.621C2.25718 15.5 3.67162 15.5 6.49976 15.5H9.49961C12.3277 15.5 13.7422 15.5 14.6204 14.621C15.4994 13.7435 15.4994 12.3291 15.4994 9.50094C15.4994 6.6728 15.4994 5.25761 14.6204 4.37864C14.1307 3.88891 13.4738 3.67217 12.498 3.57617C12.4995 3.78617 12.4995 4.01041 12.4995 4.25114V5.79833C12.4995 6.14332 12.4995 6.31581 12.4282 6.46731C12.3577 6.6188 12.2258 6.7298 11.9596 6.9503L10.8795 7.85031C9.50261 8.99775 8.81417 9.57144 7.99973 9.57144C7.18522 9.57144 6.49601 8.99775 5.11907 7.84956Z" fill="url(#paint0_linear_243_306)"/>
<path fill-rule="evenodd" clip-rule="evenodd" d="M3.04064 7.6316L4.11985 8.53161C5.49679 9.67905 6.18602 10.2527 6.99978 10.2527C7.5975 10.2527 8.12708 9.94431 8.91018 9.32713C8.59554 9.49001 8.30658 9.57144 7.99973 9.57144C7.18522 9.57144 6.49601 8.99775 5.11907 7.84956L4.03911 6.94955L4.03325 6.94466C3.77241 6.72667 3.64109 6.61693 3.57038 6.46655C3.49988 6.31506 3.49988 6.14257 3.49988 5.79758V3.57617C3.12517 3.61307 2.79754 3.6678 2.50835 3.74901C2.50415 3.90819 2.50189 4.07764 2.50067 4.25826C2.49968 4.39611 2.49999 4.54015 2.50033 4.69122C2.5005 4.76947 2.50067 4.8496 2.50067 4.93174V6.47892V6.47893C2.50067 6.82391 2.50067 6.99715 2.57117 7.14865C2.64191 7.29832 2.77454 7.4092 3.03555 7.6274L3.03578 7.62758L3.04064 7.6316Z" fill="#7FD1AE"/>
<path fill-rule="evenodd" clip-rule="evenodd" d="M4.03979 6.94972L5.119 7.84973C6.49594 8.99717 7.18517 9.57086 7.99893 9.57086C8.81412 9.57086 9.50255 8.99717 10.8802 7.84898L11.9603 6.94897C12.2249 6.72847 12.3577 6.61751 12.4282 6.46676C12.4994 6.31527 12.4994 6.14277 12.4994 5.79704V4.24954C12.4994 4.00966 12.4994 3.78478 12.4979 3.57638C12.4889 2.24818 12.4244 1.52371 11.9505 1.04898C11.4008 0.5 10.5173 0.5 8.74962 0.5H7.24967C5.48198 0.5 4.59777 0.5 4.04879 1.04898C3.57406 1.52371 3.50881 2.24818 3.49981 3.57638C3.49882 3.71423 3.49914 3.85826 3.49947 4.00934C3.49964 4.08758 3.49981 4.16771 3.49981 4.24985V5.79704C3.49981 6.14202 3.49981 6.31527 3.57031 6.46676C3.64105 6.61644 3.77369 6.72731 4.0347 6.94551L4.03492 6.9457L4.03979 6.94972ZM6.1593 6.54964C6.1593 6.70024 6.28141 6.82235 6.43203 6.82235H7.08508C7.2357 6.82235 7.35781 6.70024 7.35781 6.54964V5.57349C7.35781 5.51202 7.37861 5.45236 7.41672 5.40416L7.5987 5.17446C7.71529 5.02723 7.94234 5.03918 8.04284 5.19784L8.99174 6.6956C9.04178 6.77456 9.12872 6.82235 9.22213 6.82235H10.0022C10.2187 6.82235 10.3489 6.58215 10.2307 6.40074L8.82346 4.24132C8.75937 4.14299 8.76537 4.01469 8.83839 3.92278L10.1226 2.30601C10.2646 2.12728 10.1373 1.86365 9.90906 1.86365H9.19533C9.1114 1.86365 9.03217 1.90229 8.98049 1.9684L7.43636 3.94357C7.42804 3.95422 7.41529 3.96045 7.40179 3.96045C7.37752 3.96045 7.35781 3.94078 7.35781 3.9165V2.13638C7.35781 1.98576 7.2357 1.86365 7.08508 1.86365H6.43203C6.28141 1.86365 6.1593 1.98576 6.1593 2.13638V6.54964Z" fill="url(#paint1_linear_243_306)"/>
<defs>
<linearGradient id="paint0_linear_243_306" x1="2.37492" y1="14.0098" x2="16.0091" y2="10.052" gradientUnits="userSpaceOnUse">
<stop stop-color="#62E8AF"/>
<stop offset="1" stop-color="#B3FBDC"/>
</linearGradient>
<linearGradient id="paint1_linear_243_306" x1="3.49915" y1="9.57086" x2="6.18547" y2="-1.09087" gradientUnits="userSpaceOnUse">
<stop stop-color="#B3FBDC"/>
<stop offset="1" stop-color="white"/>
</linearGradient>
</defs>
</svg>
