<svg width="16" height="16" viewBox="0 0 16 16" fill="none" xmlns="http://www.w3.org/2000/svg">
<path fill-rule="evenodd" clip-rule="evenodd" d="M4.46294 11.5337C3.04873 10.1195 1.75684 11.1808 1.6932 11.2021C1.17065 11.3795 0.602137 11.0995 0.424653 10.577C-0.523577 7.7832 0.115648 4.56727 2.34162 2.3413C5.4635 -0.780574 10.5335 -0.780574 13.6553 2.3413C16.7772 5.46318 16.7772 10.5331 13.6553 13.655C11.4294 15.881 8.21343 16.5202 5.41965 15.572C4.8971 15.3945 4.61709 14.826 4.79457 14.3034C4.81579 14.2398 5.87715 12.9479 4.46294 11.5337ZM3.75583 13.655C3.36551 14.0453 2.73194 14.0453 2.34162 13.655C1.9513 13.2647 1.9513 12.6311 2.34162 12.2408C2.73194 11.8505 3.36551 11.8505 3.75583 12.2408C4.14616 12.6311 4.14616 13.2647 3.75583 13.655Z" fill="url(#paint0_linear_154_2)"/>
<path d="M6.57555 3.56729L6.56918 3.56921L6.56308 3.57187C5.72288 3.93903 4.89994 4.3548 4.0807 4.76871C3.6803 4.97101 3.28077 5.17286 2.88056 5.36838C2.72006 5.42592 2.58754 5.56917 2.53914 5.72452C2.51395 5.80538 2.50951 5.89644 2.54382 5.98285C2.57838 6.06987 2.64734 6.1397 2.74559 6.18589C3.41465 6.55061 4.10165 6.89069 4.78625 7.22959C5.21994 7.44428 5.65264 7.65848 6.07919 7.87815C6.62667 8.20099 7.34704 8.23558 7.91356 7.92736C8.48763 7.63798 9.06147 7.3504 9.63546 7.06268C10.1527 6.80344 10.6702 6.54408 11.1883 6.28321L11.1896 6.28254L11.191 6.28183C11.1985 6.27769 11.2067 6.27336 11.2154 6.26885C11.2789 6.23507 11.3627 6.19067 11.4303 6.1327C11.5108 6.06373 11.5823 5.96434 11.5791 5.82465C11.5764 5.66546 11.4916 5.55531 11.3959 5.47808C11.3216 5.41818 11.2306 5.37047 11.1578 5.33221C11.1414 5.32359 11.1258 5.31544 11.1115 5.30774L11.1097 5.30674L11.1078 5.30581C10.7457 5.127 10.3837 4.94745 10.0216 4.76785C9.29708 4.40856 8.57237 4.04906 7.84567 3.69493C7.45893 3.49975 6.99842 3.43971 6.57555 3.56729Z" fill="#8C4FD9"/>
<path fill-rule="evenodd" clip-rule="evenodd" d="M1.73562 11.1917C1.97815 11.0333 3.16937 10.2557 4.46294 11.5492C5.07125 12.1576 5.22153 12.7432 5.19357 13.2183C5.35369 13.2978 5.51353 13.3776 5.673 13.4576L5.67312 13.4577C5.76608 13.5042 5.87787 13.559 5.99572 13.5895C6.1154 13.6204 6.24928 13.6285 6.38387 13.5738L6.38859 13.572L6.39312 13.5696C6.54038 13.4936 6.61225 13.3627 6.64758 13.233C6.68213 13.1063 6.68507 12.9687 6.6868 12.8623L6.68681 12.8615V12.8604C6.68642 12.5099 6.68667 12.1592 6.68693 11.8082C6.68746 11.1064 6.68798 10.4038 6.6833 9.70206C6.69886 9.18056 6.43802 8.64012 5.95093 8.39128L5.95081 8.39122C5.03018 7.92222 4.10282 7.46573 3.17592 7.00947L3.17238 7.00772L2.6591 6.75496L2.65562 6.75325L2.65205 6.75179C2.60775 6.73365 2.56317 6.71291 2.51531 6.69064L2.51482 6.69042L2.48497 6.67653C2.42673 6.64956 2.3642 6.62131 2.29965 6.59797C2.17041 6.55127 2.02296 6.52042 1.86507 6.56046L1.85632 6.56267L1.84804 6.56627C1.67887 6.6397 1.59293 6.78419 1.54961 6.92937C1.50689 7.07252 1.5013 7.22945 1.50071 7.35181V7.35262C1.50173 7.79559 1.50118 8.23971 1.50064 8.68418L1.50064 8.68456L1.50063 8.69222C1.49994 9.26151 1.49925 9.83151 1.50188 10.4003C1.49887 10.6793 1.56926 10.9639 1.7071 11.21C1.71431 11.2056 1.72385 11.1993 1.73562 11.1917ZM3.98917 12.6231C3.57598 12.4192 3.16276 12.215 2.75135 12.0086C3.09466 11.9021 3.48417 11.9847 3.75583 12.2563C3.86308 12.3636 3.94086 12.4892 3.98917 12.6231Z" fill="#8C4FD9"/>
<path d="M7.13937 13.1163L7.1394 13.1176L7.13945 13.1188C7.14762 13.3044 7.25144 13.465 7.39478 13.5546C7.53875 13.6448 7.7276 13.6656 7.90024 13.5644C8.89432 13.0918 9.87697 12.5974 10.8587 12.1034C11.0794 11.9923 11.3 11.8813 11.5206 11.7707C11.9585 11.5784 12.2621 11.132 12.2657 10.6477C12.3206 9.46663 12.2986 8.28276 12.2752 7.10651C12.3104 6.68288 11.8477 6.37012 11.4712 6.61097C10.4949 7.07672 9.527 7.5608 8.56055 8.04417C8.33121 8.1589 8.10187 8.27357 7.8726 8.38796C7.37008 8.62578 7.11437 9.18075 7.12996 9.70249C7.12945 9.95097 7.12844 10.1995 7.12742 10.4485C7.12378 11.3366 7.12013 12.2271 7.13937 13.1163Z" fill="#8C4FD9"/>
<path d="M7.77556 2.36734L7.7692 2.36926L7.76309 2.37192C6.92289 2.73907 6.09995 3.15485 5.28071 3.56876C4.88031 3.77106 4.48078 3.97291 4.08057 4.16842C3.92007 4.22597 3.78755 4.36922 3.73915 4.52457C3.71396 4.60543 3.70952 4.69649 3.74383 4.7829C3.77839 4.86992 3.84735 4.93975 3.9456 4.98594C4.61466 5.35066 5.30167 5.69074 5.98626 6.02964C6.41995 6.24433 6.85265 6.45852 7.27921 6.6782C7.82668 7.00104 8.54705 7.03563 9.11358 6.72741C9.68765 6.43803 10.2615 6.15044 10.8355 5.86273C11.3527 5.60348 11.8702 5.34413 12.3883 5.08325L12.3897 5.08259L12.391 5.08188C12.3985 5.07774 12.4067 5.07341 12.4154 5.0689C12.4789 5.03511 12.5627 4.99072 12.6303 4.93274C12.7108 4.86378 12.7823 4.76439 12.7791 4.6247C12.7764 4.46551 12.6916 4.35536 12.5959 4.27813C12.5216 4.21823 12.4306 4.17052 12.3578 4.13226C12.3414 4.12364 12.3258 4.11549 12.3115 4.10779L12.3097 4.10679L12.3079 4.10586C11.9457 3.92705 11.5837 3.7475 11.2216 3.5679C10.4971 3.20861 9.77238 2.84911 9.04568 2.49498C8.65894 2.2998 8.19844 2.23976 7.77556 2.36734Z" fill="url(#paint1_linear_154_2)"/>
<path d="M3.06508 5.36038L3.05633 5.3626L3.04805 5.3662C2.87888 5.43962 2.79294 5.58412 2.74962 5.72929C2.7069 5.87244 2.70131 6.02938 2.70072 6.15174V6.15255C2.70174 6.59564 2.7012 7.03989 2.70065 7.48449C2.69996 8.05632 2.69925 8.62888 2.70189 9.20026C2.69596 9.75003 2.97507 10.3216 3.49366 10.5775C4.12885 10.9002 4.77002 11.2163 5.41036 11.5321C5.89942 11.7732 6.38798 12.0142 6.87301 12.2576L6.87313 12.2576C6.96609 12.3042 7.07789 12.3589 7.19573 12.3895C7.31542 12.4203 7.44929 12.4284 7.58389 12.3737L7.5886 12.3719L7.59313 12.3695C7.74039 12.2935 7.81226 12.1627 7.84759 12.033C7.88214 11.9062 7.88508 11.7686 7.88681 11.6623L7.88682 11.6614V11.6604C7.88643 11.3098 7.88668 10.9591 7.88695 10.6082C7.88747 9.90631 7.888 9.20375 7.88331 8.50198C7.89887 7.98048 7.63803 7.44004 7.15095 7.1912L7.15082 7.19115C6.22902 6.72155 5.30046 6.26449 4.37239 5.80765C4.20126 5.72342 4.03015 5.63919 3.85911 5.55489L3.85564 5.55318L3.85206 5.55171C3.80761 5.53352 3.76288 5.5127 3.71483 5.49034C3.70503 5.48577 3.69508 5.48114 3.68498 5.47645C3.62674 5.44948 3.56421 5.42124 3.49966 5.3979C3.37042 5.3512 3.22297 5.32034 3.06508 5.36038Z" fill="url(#paint2_linear_154_2)"/>
<path d="M8.33932 11.9163L8.33936 11.9177L8.3394 11.9189C8.34757 12.1044 8.45139 12.2651 8.59473 12.3547C8.7387 12.4448 8.92755 12.4656 9.10019 12.3644C10.0943 11.8919 11.0769 11.3974 12.0587 10.9034C12.2793 10.7924 12.4999 10.6814 12.7205 10.5708C13.1585 10.3785 13.4621 9.93204 13.4656 9.4477C13.5206 8.26668 13.4985 7.0828 13.4752 5.90656C13.5104 5.48293 13.0477 5.17017 12.6711 5.41102C11.6948 5.87677 10.727 6.36085 9.7605 6.84422C9.53116 6.95895 9.30182 7.07362 9.07255 7.18801C8.57003 7.42583 8.31433 7.9808 8.32991 8.50254C8.32941 8.75102 8.32839 8.99958 8.32737 9.24854C8.32373 10.1367 8.32008 11.0271 8.33932 11.9163Z" fill="url(#paint3_linear_154_2)"/>
<defs>
<linearGradient id="paint0_linear_154_2" x1="0.321315" y1="10.0185" x2="16.5432" y2="8.77063" gradientUnits="userSpaceOnUse">
<stop stop-color="#A056FF"/>
<stop offset="1" stop-color="#C59AFD"/>
</linearGradient>
<linearGradient id="paint1_linear_154_2" x1="5.98418" y1="6.94049" x2="12.879" y2="2.45336" gradientUnits="userSpaceOnUse">
<stop stop-color="#C59AFD"/>
<stop offset="1" stop-color="white"/>
</linearGradient>
<linearGradient id="paint2_linear_154_2" x1="3.99683" y1="12.4138" x2="9.29937" y2="11.1173" gradientUnits="userSpaceOnUse">
<stop stop-color="#C59AFD"/>
<stop offset="1" stop-color="white"/>
</linearGradient>
<linearGradient id="paint3_linear_154_2" x1="9.61834" y1="12.4317" x2="14.9129" y2="11.1461" gradientUnits="userSpaceOnUse">
<stop stop-color="#C59AFD"/>
<stop offset="1" stop-color="white"/>
</linearGradient>
</defs>
</svg>
