<svg width="16" height="16" viewBox="0 0 16 16" fill="none" xmlns="http://www.w3.org/2000/svg">
<g clip-path="url(#clip0_92_270)">
<path fill-rule="evenodd" clip-rule="evenodd" d="M16 15C16 14.448 15.552 14 15 14C14.448 14 14 14.448 14 15C14 15.552 14.448 16 15 16C15.552 16 16 15.552 16 15ZM13 15C13 13.896 13.896 13 15 13C15.552 13 16 12.552 16 12C16 12 16 7.216 16 3.958C16 1.772 14.228 0 12.042 0H3.958C1.772 0 0 1.772 0 3.958V12.042C0 14.228 1.772 16 3.958 16C7.216 16 12 16 12 16C12.552 16 13 15.552 13 15Z" fill="url(#paint0_linear_92_270)"/>
<path d="M7.96372 8.20749C8.11254 8.0586 8.31444 7.97498 8.52496 7.97498H10.9062C11.1167 7.97498 11.3186 8.0586 11.4675 8.20749C11.6163 8.35632 11.7 8.55821 11.7 8.76873C11.7 8.97924 11.6163 9.18114 11.4675 9.32997C11.3186 9.47886 11.1167 9.56248 10.9062 9.56248H8.52496C8.31444 9.56248 8.11254 9.47886 7.96372 9.32997C7.81483 9.18114 7.7312 8.97924 7.7312 8.76873C7.7312 8.55821 7.81483 8.35632 7.96372 8.20749Z" fill="#279FD7"/>
<path d="M6.37619 11.3825C6.52502 11.2337 6.72692 11.15 6.93743 11.15H10.9062C11.1167 11.15 11.3186 11.2337 11.4675 11.3825C11.6163 11.5314 11.7 11.7333 11.7 11.9438C11.7 12.1543 11.6163 12.3562 11.4675 12.505C11.3186 12.6539 11.1167 12.7375 10.9062 12.7375H6.93743C6.72692 12.7375 6.52502 12.6539 6.37619 12.505C6.2273 12.3562 6.14368 12.1543 6.14368 11.9438C6.14368 11.7333 6.2273 11.5314 6.37619 11.3825Z" fill="#279FD7"/>
<path d="M6.37619 5.03247C6.52502 4.88362 6.72692 4.79999 6.93743 4.79999H10.9062C11.1167 4.79999 11.3186 4.88362 11.4675 5.03247C11.6163 5.18133 11.7 5.38323 11.7 5.59374C11.7 5.80426 11.6163 6.00615 11.4675 6.15498C11.3186 6.30387 11.1167 6.3875 10.9062 6.3875H6.93743C6.72692 6.3875 6.52502 6.30387 6.37619 6.15498C6.2273 6.00615 6.14368 5.80426 6.14368 5.59374C6.14368 5.38323 6.2273 5.18133 6.37619 5.03247Z" fill="#279FD7"/>
<path d="M3.06464 8.40044L3.62582 8.96162V8.96083L5.31017 7.27648C5.45923 7.12765 5.66129 7.04414 5.87192 7.04425C6.08255 7.04442 6.2845 7.12822 6.43333 7.27727C6.58216 7.42633 6.66573 7.6284 6.66556 7.83903C6.66539 8.04965 6.58159 8.25161 6.43254 8.40044L4.1878 10.6452C4.11409 10.719 4.02656 10.7775 3.93017 10.8175C3.83384 10.8574 3.73054 10.878 3.62622 10.878C3.52191 10.878 3.41862 10.8574 3.32226 10.8175C3.22591 10.7775 3.13836 10.719 3.06464 10.6452L1.94227 9.52281C1.86647 9.44961 1.80599 9.36201 1.76439 9.26518C1.7228 9.16834 1.7009 9.06419 1.69998 8.95879C1.69906 8.85339 1.71915 8.74884 1.75906 8.65132C1.79897 8.55375 1.85791 8.46513 1.93244 8.39057C2.00697 8.31607 2.09559 8.25711 2.19314 8.21719C2.29069 8.17734 2.39521 8.15721 2.5006 8.15812C2.606 8.15908 2.71015 8.18096 2.807 8.22258C2.90383 8.26414 2.99142 8.32463 3.06464 8.40044Z" fill="#279FD7"/>
<path d="M8.96372 7.20749C9.11254 7.0586 9.31444 6.97498 9.52496 6.97498H11.9062C12.1167 6.97498 12.3186 7.0586 12.4675 7.20749C12.6163 7.35632 12.7 7.55821 12.7 7.76873C12.7 7.97924 12.6163 8.18114 12.4675 8.32997C12.3186 8.47886 12.1167 8.56248 11.9062 8.56248H9.52496C9.31444 8.56248 9.11254 8.47886 8.96372 8.32997C8.81483 8.18114 8.7312 7.97924 8.7312 7.76873C8.7312 7.55821 8.81483 7.35632 8.96372 7.20749Z" fill="url(#paint1_linear_92_270)"/>
<path d="M7.37619 10.3825C7.52502 10.2337 7.72692 10.15 7.93743 10.15H11.9062C12.1167 10.15 12.3186 10.2337 12.4675 10.3825C12.6163 10.5314 12.7 10.7333 12.7 10.9438C12.7 11.1543 12.6163 11.3562 12.4675 11.505C12.3186 11.6539 12.1167 11.7375 11.9062 11.7375H7.93743C7.72692 11.7375 7.52502 11.6539 7.37619 11.505C7.2273 11.3562 7.14368 11.1543 7.14368 10.9438C7.14368 10.7333 7.2273 10.5314 7.37619 10.3825Z" fill="url(#paint2_linear_92_270)"/>
<path d="M7.37619 4.03247C7.52502 3.88362 7.72692 3.79999 7.93743 3.79999H11.9062C12.1167 3.79999 12.3186 3.88362 12.4675 4.03247C12.6163 4.18133 12.7 4.38323 12.7 4.59374C12.7 4.80426 12.6163 5.00615 12.4675 5.15498C12.3186 5.30387 12.1167 5.3875 11.9062 5.3875H7.93743C7.72692 5.3875 7.52502 5.30387 7.37619 5.15498C7.2273 5.00615 7.14368 4.80426 7.14368 4.59374C7.14368 4.38323 7.2273 4.18133 7.37619 4.03247Z" fill="url(#paint3_linear_92_270)"/>
<path d="M4.06464 7.40044L4.62582 7.96162V7.96083L6.31017 6.27648C6.45923 6.12765 6.66129 6.04414 6.87192 6.04425C7.08255 6.04442 7.2845 6.12822 7.43333 6.27727C7.58216 6.42633 7.66573 6.6284 7.66556 6.83903C7.66539 7.04965 7.58159 7.25161 7.43254 7.40044L5.1878 9.64517C5.11409 9.71899 5.02656 9.77751 4.93017 9.81748C4.83384 9.85739 4.73054 9.87797 4.62622 9.87797C4.52191 9.87797 4.41862 9.85739 4.32226 9.81748C4.22591 9.77751 4.13836 9.71899 4.06464 9.64517L2.94227 8.52281C2.86647 8.44961 2.80599 8.36201 2.76439 8.26518C2.7228 8.16834 2.7009 8.06419 2.69998 7.95879C2.69906 7.85339 2.71915 7.74884 2.75906 7.65132C2.79897 7.55375 2.85791 7.46513 2.93244 7.39057C3.00697 7.31607 3.09559 7.25711 3.19314 7.21719C3.29069 7.17734 3.39521 7.15721 3.5006 7.15812C3.606 7.15908 3.71015 7.18096 3.807 7.22258C3.90383 7.26414 3.99142 7.32463 4.06464 7.40044Z" fill="url(#paint4_linear_92_270)"/>
</g>
<defs>
<linearGradient id="paint0_linear_92_270" x1="1.6" y1="16.005" x2="7.3787" y2="-1.33327" gradientUnits="userSpaceOnUse">
<stop offset="0.190745" stop-color="#22B4FA"/>
<stop offset="0.896724" stop-color="#7DDCFF"/>
</linearGradient>
<linearGradient id="paint1_linear_92_270" x1="8.7312" y1="8.56248" x2="12.2986" y2="6.33284" gradientUnits="userSpaceOnUse">
<stop stop-color="#6BD6FE"/>
<stop offset="1" stop-color="white"/>
</linearGradient>
<linearGradient id="paint2_linear_92_270" x1="7.14368" y1="11.7375" x2="11.0773" y2="8.29559" gradientUnits="userSpaceOnUse">
<stop stop-color="#6BD6FE"/>
<stop offset="1" stop-color="white"/>
</linearGradient>
<linearGradient id="paint3_linear_92_270" x1="7.14368" y1="5.3875" x2="11.0773" y2="1.94555" gradientUnits="userSpaceOnUse">
<stop stop-color="#6BD6FE"/>
<stop offset="1" stop-color="white"/>
</linearGradient>
<linearGradient id="paint4_linear_92_270" x1="2.69995" y1="9.87797" x2="8.3179" y2="8.05881" gradientUnits="userSpaceOnUse">
<stop stop-color="#6BD6FE"/>
<stop offset="1" stop-color="white"/>
</linearGradient>
<clipPath id="clip0_92_270">
<rect width="16" height="16" fill="white"/>
</clipPath>
</defs>
</svg>
