<svg width="16" height="16" viewBox="0 0 16 16" fill="none" xmlns="http://www.w3.org/2000/svg">
<path fill-rule="evenodd" clip-rule="evenodd" d="M13.8 1.06667C13.8 0.477867 14.2779 0 14.8667 0C15.4555 0 15.9333 0.477867 15.9333 1.06667C15.9333 1.65547 15.4555 2.13333 14.8667 2.13333C14.2779 2.13333 13.8 1.65547 13.8 1.06667ZM12.68 16H4.25333C2.45387 15.9808 1 14.5163 1 12.7115V3.28853C1 2.416 1.34667 1.57973 1.9632 0.9632C2.57973 0.346667 3.416 0 4.28853 0H11.6667C12.2555 0 12.7333 0.477867 12.7333 1.06667C12.7333 2.24427 13.6891 3.2 14.8667 3.2C15.4555 3.2 15.9333 3.67787 15.9333 4.26667V12.7115C15.9333 14.5163 14.4795 15.9808 12.68 16Z" fill="url(#paint0_linear_8_289)"/>
<path fill-rule="evenodd" clip-rule="evenodd" d="M11.0572 7.08575H6.79054C6.20174 7.08575 5.72388 7.56362 5.72388 8.15242C5.72388 8.74122 6.20174 9.21909 6.79054 9.21909H11.0572C11.646 9.21909 12.1239 8.74122 12.1239 8.15242C12.1239 7.56362 11.646 7.08575 11.0572 7.08575Z" fill="#279FD7"/>
<path fill-rule="evenodd" clip-rule="evenodd" d="M11.0572 11.2H4.35243C3.76363 11.2 3.28577 11.6779 3.28577 12.2667C3.28577 12.8555 3.76363 13.3333 4.35243 13.3333H11.0572C11.646 13.3333 12.1239 12.8555 12.1239 12.2667C12.1239 11.6779 11.646 11.2 11.0572 11.2Z" fill="#279FD7"/>
<path fill-rule="evenodd" clip-rule="evenodd" d="M12.2763 5.71429H8.00966C7.42086 5.71429 6.94299 6.19216 6.94299 6.78096C6.94299 7.36976 7.42086 7.84763 8.00966 7.84763H12.2763C12.8651 7.84763 13.343 7.36976 13.343 6.78096C13.343 6.19216 12.8651 5.71429 12.2763 5.71429Z" fill="url(#paint1_linear_8_289)"/>
<path fill-rule="evenodd" clip-rule="evenodd" d="M12.2762 9.82861H5.57143C4.98263 9.82861 4.50476 10.3065 4.50476 10.8953C4.50476 11.4841 4.98263 11.9619 5.57143 11.9619H12.2762C12.865 11.9619 13.3429 11.4841 13.3429 10.8953C13.3429 10.3065 12.865 9.82861 12.2762 9.82861Z" fill="url(#paint2_linear_8_289)"/>
<defs>
<linearGradient id="paint0_linear_8_289" x1="2.49333" y1="16.005" x2="8.59454" y2="-1.08053" gradientUnits="userSpaceOnUse">
<stop stop-color="#22B4FA"/>
<stop offset="1" stop-color="#6BD6FE"/>
</linearGradient>
<linearGradient id="paint1_linear_8_289" x1="6.94299" y1="7.84763" x2="12.063" y2="4.00763" gradientUnits="userSpaceOnUse">
<stop stop-color="#6BD6FE"/>
<stop offset="1" stop-color="white"/>
</linearGradient>
<linearGradient id="paint2_linear_8_289" x1="4.50476" y1="11.9619" x2="9.83481" y2="6.44154" gradientUnits="userSpaceOnUse">
<stop stop-color="#6BD6FE"/>
<stop offset="1" stop-color="white"/>
</linearGradient>
</defs>
</svg>
