<svg width="16" height="16" viewBox="0 0 16 16" fill="none" xmlns="http://www.w3.org/2000/svg">
<g clip-path="url(#clip0_16_1843)">
<path fill-rule="evenodd" clip-rule="evenodd" d="M1 13C0.448 13 0 12.552 0 12V3.992C0 1.787 1.787 0 3.992 0C6.357 0 9.643 0 12.008 0C13.067 0 14.082 0.421001 14.831 1.169C15.579 1.918 16 2.933 16 3.992C16 6.357 16 9.643 16 12.008C16 14.213 14.213 16 12.008 16C8.751 16 4 16 4 16C3.448 16 3 15.552 3 15C3 13.896 2.104 13 1 13ZM1 14C1.552 14 2 14.448 2 15C2 15.552 1.552 16 1 16C0.448 16 0 15.552 0 15C0 14.448 0.448 14 1 14Z" fill="url(#paint0_linear_16_1843)"/>
<path fill-rule="evenodd" clip-rule="evenodd" d="M4.80132 2C5.24388 2 5.60264 2.35876 5.60264 2.80132V14.1987C5.60264 14.6412 5.24388 15 4.80132 15C4.35876 15 4 14.6412 4 14.1987V2.80132C4 2.35876 4.35876 2 4.80132 2Z" fill="#279FD7"/>
<path fill-rule="evenodd" clip-rule="evenodd" d="M5.80132 1C6.24388 1 6.60264 1.35876 6.60264 1.80132V13.1987C6.60264 13.6412 6.24388 14 5.80132 14C5.35876 14 5 13.6412 5 13.1987V1.80132C5 1.35876 5.35876 1 5.80132 1Z" fill="url(#paint1_linear_16_1843)"/>
<path d="M0.160993 5.16099C0.0579133 5.26407 0 5.40389 0 5.54967C0 5.69545 0.0579133 5.83526 0.160993 5.93835C0.26408 6.04143 0.403887 6.09934 0.549673 6.09934H2.01546C2.16124 6.09934 2.30105 6.04143 2.40413 5.93835C2.50721 5.83526 2.56513 5.69545 2.56513 5.54967C2.56513 5.40389 2.50721 5.26407 2.40413 5.16099C2.30105 5.05791 2.16124 5 2.01546 5H0.549673C0.403887 5 0.26408 5.05791 0.160993 5.16099Z" fill="#279FD7"/>
<path d="M0.160993 8.09258C0.0579133 8.19565 0 8.33545 0 8.48125C0 8.62705 0.0579133 8.76685 0.160993 8.86991C0.26408 8.97298 0.403887 9.03091 0.549673 9.03091H2.01546C2.16124 9.03091 2.30105 8.97298 2.40413 8.86991C2.50721 8.76685 2.56513 8.62705 2.56513 8.48125C2.56513 8.33545 2.50721 8.19565 2.40413 8.09258C2.30105 7.98951 2.16124 7.93158 2.01546 7.93158H0.549673C0.403887 7.93158 0.26408 7.98951 0.160993 8.09258Z" fill="#279FD7"/>
<path d="M0.160993 11.0241C0.0579133 11.1272 0 11.267 0 11.4128C0 11.5586 0.0579133 11.6984 0.160993 11.8015C0.26408 11.9046 0.403887 11.9625 0.549673 11.9625H2.01546C2.16124 11.9625 2.30105 11.9046 2.40413 11.8015C2.50721 11.6984 2.56513 11.5586 2.56513 11.4128C2.56513 11.267 2.50721 11.1272 2.40413 11.0241C2.30105 10.921 2.16124 10.8632 2.01546 10.8632H0.549673C0.403887 10.8632 0.26408 10.921 0.160993 11.0241Z" fill="#279FD7"/>
<path d="M1.16099 4.16099C1.05791 4.26407 1 4.40389 1 4.54967C1 4.69545 1.05791 4.83526 1.16099 4.93835C1.26408 5.04143 1.40389 5.09934 1.54967 5.09934H3.01546C3.16124 5.09934 3.30105 5.04143 3.40413 4.93835C3.50721 4.83526 3.56513 4.69545 3.56513 4.54967C3.56513 4.40389 3.50721 4.26407 3.40413 4.16099C3.30105 4.05791 3.16124 4 3.01546 4H1.54967C1.40389 4 1.26408 4.05791 1.16099 4.16099Z" fill="url(#paint2_linear_16_1843)"/>
<path d="M1.16099 7.09258C1.05791 7.19565 1 7.33545 1 7.48125C1 7.62705 1.05791 7.76685 1.16099 7.86991C1.26408 7.97298 1.40389 8.03091 1.54967 8.03091H3.01546C3.16124 8.03091 3.30105 7.97298 3.40413 7.86991C3.50721 7.76685 3.56513 7.62705 3.56513 7.48125C3.56513 7.33545 3.50721 7.19565 3.40413 7.09258C3.30105 6.98951 3.16124 6.93158 3.01546 6.93158H1.54967C1.40389 6.93158 1.26408 6.98951 1.16099 7.09258Z" fill="url(#paint3_linear_16_1843)"/>
<path d="M1.16099 10.0241C1.05791 10.1272 1 10.267 1 10.4128C1 10.5586 1.05791 10.6984 1.16099 10.8015C1.26408 10.9046 1.40389 10.9625 1.54967 10.9625H3.01546C3.16124 10.9625 3.30105 10.9046 3.40413 10.8015C3.50721 10.6984 3.56513 10.5586 3.56513 10.4128C3.56513 10.267 3.50721 10.1272 3.40413 10.0241C3.30105 9.92105 3.16124 9.86318 3.01546 9.86318H1.54967C1.40389 9.86318 1.26408 9.92105 1.16099 10.0241Z" fill="url(#paint4_linear_16_1843)"/>
<path d="M13.47 6.42804C13.47 6.27664 13.4098 6.13142 13.3028 6.02438C13.1957 5.91728 13.0505 5.85718 12.8991 5.85718C12.7477 5.85718 12.6025 5.91728 12.4954 6.02438C12.3884 6.13142 12.3282 6.27664 12.3282 6.42804V10.2339C12.3282 10.3853 12.3884 10.5305 12.4954 10.6375C12.6025 10.7446 12.7477 10.8047 12.8991 10.8047C13.0505 10.8047 13.1957 10.7446 13.3028 10.6375C13.4098 10.5305 13.47 10.3853 13.47 10.2339V6.42804ZM9.14183 6.42804C9.14183 6.27664 9.08166 6.13142 8.97462 6.02438C8.86752 5.91728 8.72236 5.85718 8.57091 5.85718C8.41951 5.85718 8.27436 5.91728 8.16726 6.02438C8.06022 6.13142 8.00005 6.27664 8.00005 6.42804V10.2339C8.00005 10.3853 8.06022 10.5305 8.16726 10.6375C8.27436 10.7446 8.41951 10.8047 8.57091 10.8047C8.72236 10.8047 8.86752 10.7446 8.97462 10.6375C9.08166 10.5305 9.14183 10.3853 9.14183 10.2339V6.42804Z" fill="#279FD7" stroke="#279FD7" stroke-width="0.6"/>
<path d="M14.6127 5.57086C14.6127 5.41946 14.5526 5.27424 14.4455 5.16721C14.3385 5.06011 14.1933 5 14.0419 5C13.8905 5 13.7453 5.06011 13.6382 5.16721C13.5311 5.27424 13.471 5.41946 13.471 5.57086V9.3767C13.471 9.52809 13.5311 9.67331 13.6382 9.78035C13.7453 9.88739 13.8905 9.94756 14.0419 9.94756C14.1933 9.94756 14.3385 9.88739 14.4455 9.78035C14.5526 9.67331 14.6127 9.52809 14.6127 9.3767V5.57086ZM10.2846 5.57086C10.2846 5.41946 10.2244 5.27424 10.1174 5.16721C10.0103 5.06011 9.86514 5 9.71368 5C9.56229 5 9.41713 5.06011 9.31003 5.16721C9.20299 5.27424 9.14282 5.41946 9.14282 5.57086V9.3767C9.14282 9.52809 9.20299 9.67331 9.31003 9.78035C9.41713 9.88739 9.56229 9.94756 9.71368 9.94756C9.86514 9.94756 10.0103 9.88739 10.1174 9.78035C10.2244 9.67331 10.2846 9.52809 10.2846 9.3767V5.57086Z" fill="url(#paint5_linear_16_1843)" stroke="url(#paint6_linear_16_1843)" stroke-width="0.6"/>
</g>
<defs>
<linearGradient id="paint0_linear_16_1843" x1="1.6" y1="16.005" x2="7.3787" y2="-1.33327" gradientUnits="userSpaceOnUse">
<stop stop-color="#22B4FA"/>
<stop offset="1" stop-color="#6BD6FE"/>
</linearGradient>
<linearGradient id="paint1_linear_16_1843" x1="5" y1="14" x2="7.0014" y2="13.9383" gradientUnits="userSpaceOnUse">
<stop stop-color="#6BD6FE"/>
<stop offset="1" stop-color="white"/>
</linearGradient>
<linearGradient id="paint2_linear_16_1843" x1="1" y1="10.9625" x2="4.17944" y2="10.6697" gradientUnits="userSpaceOnUse">
<stop stop-color="#6BD6FE"/>
<stop offset="1" stop-color="white"/>
</linearGradient>
<linearGradient id="paint3_linear_16_1843" x1="1" y1="10.9625" x2="4.17944" y2="10.6697" gradientUnits="userSpaceOnUse">
<stop stop-color="#6BD6FE"/>
<stop offset="1" stop-color="white"/>
</linearGradient>
<linearGradient id="paint4_linear_16_1843" x1="1" y1="10.9625" x2="4.17944" y2="10.6697" gradientUnits="userSpaceOnUse">
<stop stop-color="#6BD6FE"/>
<stop offset="1" stop-color="white"/>
</linearGradient>
<linearGradient id="paint5_linear_16_1843" x1="9.14282" y1="9.94756" x2="15.495" y2="8.19186" gradientUnits="userSpaceOnUse">
<stop stop-color="#6BD6FE"/>
<stop offset="1" stop-color="white"/>
</linearGradient>
<linearGradient id="paint6_linear_16_1843" x1="9.14282" y1="9.94756" x2="15.495" y2="8.19186" gradientUnits="userSpaceOnUse">
<stop stop-color="#6BD6FE"/>
<stop offset="1" stop-color="white"/>
</linearGradient>
<clipPath id="clip0_16_1843">
<rect width="16" height="16" fill="white"/>
</clipPath>
</defs>
</svg>
