<svg width="16" height="16" viewBox="0 0 16 16" fill="none" xmlns="http://www.w3.org/2000/svg">
<path d="M2.98659 8.15728C2.45907 7.99376 2 7.56981 2 7.01753V6.00009C2 3.00023 3.00003 -0.00019997 8.00009 9.99602e-09C12.9988 0.000199999 13.9996 2.99863 13.9981 5.99767C13.9981 5.99858 13.9985 5.99945 13.9991 6.00009V6.00009C13.9998 6.00073 14.0001 6.00159 14.0001 6.0025V13.0002C14.0001 15.0002 14.0001 16.0002 12.5001 16C11.0001 15.9998 11.0001 15.0002 11.0001 13.0002C11.0001 15.0002 11.0001 16.0002 9.50009 16C8.00009 15.9998 8.00009 15.0002 8.00009 13.0002C8.00009 15.0002 8.00009 15.9998 6.50006 16C5.00003 16.0002 5.00003 15.0002 5.00003 13.0002C5.00003 15.0002 5.00003 16.0002 3.50003 16C2 15.9998 2 15.1876 2 13.7994V13.5539C2 13.0016 2.4593 12.5774 2.98627 12.4121C4.00339 12.0931 4.57147 11.2692 4.57147 10.2857C4.57147 9.30022 4.01113 8.47486 2.98659 8.15728Z" fill="url(#paint0_linear_43_1753)"/>
<path d="M6.42862 6.07144C6.42862 5.24041 5.75962 4.57141 4.92862 4.57141C4.09759 4.57141 3.42859 5.24041 3.42859 6.07144C3.42859 6.90244 4.09759 7.57144 4.92862 7.57144C5.75962 7.57144 6.42862 6.90244 6.42862 6.07144Z" fill="#D84F4F"/>
<path d="M11.0001 6.07144C11.0001 5.24041 10.3311 4.57141 9.50003 4.57141C8.66903 4.57141 8 5.24041 8 6.07144C8 6.90244 8.66903 7.57144 9.50003 7.57144C10.3311 7.57144 11.0001 6.90244 11.0001 6.07144Z" fill="#D84F4F"/>
<path d="M7.57144 4.92862C7.57144 4.09759 6.90244 3.42859 6.07144 3.42859C5.24041 3.42859 4.57141 4.09759 4.57141 4.92862C4.57141 5.75962 5.24041 6.42862 6.07144 6.42862C6.90244 6.42862 7.57144 5.75962 7.57144 4.92862Z" fill="url(#paint1_linear_43_1753)"/>
<path d="M12.1429 4.92862C12.1429 4.09759 11.4739 3.42859 10.6429 3.42859C9.81185 3.42859 9.14282 4.09759 9.14282 4.92862C9.14282 5.75962 9.81185 6.42862 10.6429 6.42862C11.4739 6.42862 12.1429 5.75962 12.1429 4.92862Z" fill="url(#paint2_linear_43_1753)"/>
<defs>
<linearGradient id="paint0_linear_43_1753" x1="4.25003" y1="14" x2="14.3605" y2="4.90043" gradientUnits="userSpaceOnUse">
<stop stop-color="#FF405B"/>
<stop offset="1" stop-color="#FF8860"/>
</linearGradient>
<linearGradient id="paint1_linear_43_1753" x1="5.42823" y1="6.42855" x2="6.40741" y2="4.09723" gradientUnits="userSpaceOnUse">
<stop stop-color="#FF8860"/>
<stop offset="1" stop-color="white"/>
</linearGradient>
<linearGradient id="paint2_linear_43_1753" x1="9.99965" y1="6.42855" x2="10.9788" y2="4.09722" gradientUnits="userSpaceOnUse">
<stop stop-color="#FF8860"/>
<stop offset="1" stop-color="white"/>
</linearGradient>
</defs>
</svg>
