<svg width="16" height="16" viewBox="0 0 16 16" fill="none" xmlns="http://www.w3.org/2000/svg">
<g clip-path="url(#clip0_15_1475)">
<path fill-rule="evenodd" clip-rule="evenodd" d="M1 13C0.448 13 0 12.552 0 12V3.992C0 1.787 1.787 0 3.992 0C6.357 0 9.643 0 12.008 0C13.067 0 14.082 0.421001 14.831 1.169C15.579 1.918 16 2.933 16 3.992C16 6.357 16 9.643 16 12.008C16 14.213 14.213 16 12.008 16C8.751 16 4 16 4 16C3.448 16 3 15.552 3 15C3 13.896 2.104 13 1 13ZM1 14C1.552 14 2 14.448 2 15C2 15.552 1.552 16 1 16C0.448 16 0 15.552 0 15C0 14.448 0.448 14 1 14Z" fill="url(#paint0_linear_15_1475)"/>
<path d="M3.8 0C3.35817 0 3 0.358172 3 0.8V6.08969C3 6.59401 3.59788 6.85949 3.97199 6.52128L4.84215 5.73463C4.95296 5.63444 5.12166 5.63447 5.23244 5.73472L6.10054 6.52026C6.47459 6.85873 7.07273 6.59331 7.07273 6.08884V0H3.8Z" fill="#279FD7"/>
<path d="M15 9.89632V11.977C14.9312 12.0307 14.8613 12.0834 14.7902 12.1343L14.789 12.1352C14.227 12.5342 13.6612 12.8003 13.0922 12.9232L13.0907 12.9236C12.5084 13.0461 11.975 13.0133 11.509 12.7971C11.05 12.5842 10.6949 12.2328 10.4422 11.7594C10.1918 11.2904 10.0504 10.7252 10.006 10.0746L10.0057 10.0712L10.0056 10.0678C9.97583 9.39855 10.0651 8.67119 10.2679 7.88832C10.4572 7.10278 10.7411 6.34685 11.1191 5.62051L11.1201 5.61862C11.5099 4.88294 11.9447 4.22345 12.4249 3.6418C12.9549 3 14.1627 1.75414 14.8535 1.18286C15.1088 1.48943 15.3154 1.83073 15.468 2.19459C15.1961 2.40856 14.1494 3.48284 13.8862 3.78467C13.5341 4.1906 13.2066 4.66764 12.904 5.21725L12.9025 5.21999C12.6031 5.75046 12.3716 6.30767 12.2084 6.89213C12.0445 7.4789 11.9649 8.01746 11.9649 8.5088C11.9649 8.98903 12.0316 9.38793 12.1558 9.71284C12.2927 10.0341 12.4773 10.2581 12.7019 10.404C12.9173 10.5439 13.1931 10.6076 13.5519 10.5705C13.8921 10.5339 14.2589 10.3991 14.653 10.1501C14.7545 10.0825 14.8551 10.0092 14.9548 9.93152L15 9.89632Z" fill="#279FD7"/>
<path d="M16 9.34629V11.4269C15.9312 11.4807 15.8613 11.5333 15.7902 11.5843L15.789 11.5852C15.227 11.9842 14.6612 12.2503 14.0922 12.3732L14.0907 12.3736C13.5084 12.496 12.975 12.4633 12.509 12.2471C12.05 12.0342 11.6949 11.6828 11.4422 11.2094C11.1918 10.7404 11.0504 10.1752 11.006 9.52459L11.0057 9.52116L11.0056 9.51773C10.9758 8.84852 11.0651 8.12116 11.2679 7.33829C11.4572 6.55275 11.7411 5.79682 12.1191 5.07048L12.1201 5.06859C12.5099 4.33291 12.9447 3.67342 13.4249 3.09178C13.7234 2.73224 14.3838 2.02123 15.0746 1.44995C15.3299 1.75652 15.5365 2.09782 15.6891 2.46168C15.4172 2.67565 15.1494 2.93281 14.8862 3.23464C14.5341 3.64058 14.2066 4.11761 13.904 4.66722L13.9025 4.66996C13.6031 5.20043 13.3716 5.75764 13.2084 6.3421C13.0445 6.92887 12.9649 7.46743 12.9649 7.95877C12.9649 8.43901 13.0316 8.8379 13.1558 9.16282C13.2927 9.48404 13.4773 9.7081 13.7019 9.85399C13.9173 9.99389 14.1931 10.0576 14.5519 10.0205C14.8921 9.98388 15.2589 9.84904 15.653 9.60011C15.7545 9.53245 15.8551 9.45917 15.9548 9.38149L16 9.34629Z" fill="url(#paint1_linear_15_1475)"/>
<path d="M4 0V5.08969C4 5.59401 4.59788 5.85949 4.97199 5.52128L5.84215 4.73463C5.95296 4.63444 6.12166 4.63447 6.23244 4.73472L7.10054 5.52026C7.47459 5.85873 8.07273 5.59331 8.07273 5.08884V0H4Z" fill="url(#paint2_linear_15_1475)"/>
</g>
<defs>
<linearGradient id="paint0_linear_15_1475" x1="1.6" y1="16.005" x2="7.3787" y2="-1.33327" gradientUnits="userSpaceOnUse">
<stop stop-color="#22B4FA"/>
<stop offset="1" stop-color="#6BD6FE"/>
</linearGradient>
<linearGradient id="paint1_linear_15_1475" x1="11" y1="12.4444" x2="17.1702" y2="11.7429" gradientUnits="userSpaceOnUse">
<stop stop-color="#6BD6FE"/>
<stop offset="1" stop-color="white"/>
</linearGradient>
<linearGradient id="paint2_linear_15_1475" x1="4" y1="5.67264" x2="8.93202" y2="4.7874" gradientUnits="userSpaceOnUse">
<stop stop-color="#6BD6FE"/>
<stop offset="1" stop-color="white"/>
</linearGradient>
<clipPath id="clip0_15_1475">
<rect width="16" height="16" fill="white"/>
</clipPath>
</defs>
</svg>
