<svg width="16" height="16" viewBox="0 0 16 16" fill="none" xmlns="http://www.w3.org/2000/svg">
<g clip-path="url(#clip0_25_2672)">
<path fill-rule="evenodd" clip-rule="evenodd" d="M8 0C8.308 0 8.5584 0.2496 8.5584 0.5584V2.24139C8.5584 2.54495 8.83051 2.7909 9.13406 2.7941C9.44457 2.79738 9.6744 2.54745 9.6744 2.2369V0.5584C9.67989 0.414063 9.74103 0.277463 9.84509 0.17728C9.94914 0.0770972 10.0879 0.0211314 10.2324 0.0211314C10.3769 0.0211314 10.5157 0.0770972 10.6197 0.17728C10.7238 0.277463 10.7849 0.414063 10.7904 0.5584V2.7904C10.7906 2.83789 10.8231 2.88154 10.8701 2.88796C11.5729 2.98388 12.0673 3.1745 12.4464 3.5536C12.8255 3.9327 13.0161 4.4271 13.1121 5.12989C13.1185 5.17691 13.1621 5.20943 13.2096 5.2096H15.4416C15.5859 5.21509 15.7225 5.27623 15.8227 5.38029C15.9229 5.48434 15.9789 5.62314 15.9789 5.7676C15.9789 5.91206 15.9229 6.05086 15.8227 6.15491C15.7225 6.25897 15.5859 6.32011 15.4416 6.3256H13.7626C13.4523 6.3256 13.2027 6.55514 13.2062 6.86537C13.2095 7.16909 13.4555 7.4416 13.7591 7.4416H15.4416C15.5897 7.4416 15.7317 7.50046 15.8365 7.60514C15.9411 7.70989 16 7.85189 16 8C16 8.14811 15.9411 8.29011 15.8365 8.39486C15.7317 8.49954 15.5897 8.5584 15.4416 8.5584H13.7586C13.455 8.5584 13.2091 8.83051 13.2059 9.13406C13.2026 9.44457 13.4526 9.6744 13.7631 9.6744H15.4416C15.5859 9.67989 15.7225 9.74103 15.8227 9.84509C15.9229 9.94914 15.9789 10.0879 15.9789 10.2324C15.9789 10.3769 15.9229 10.5157 15.8227 10.6197C15.7225 10.7238 15.5859 10.7849 15.4416 10.7904H13.2096C13.1621 10.7906 13.1185 10.8231 13.1121 10.8701C13.0161 11.5729 12.8255 12.0673 12.4464 12.4464C12.0673 12.8255 11.5729 13.0161 10.8701 13.1121C10.8232 13.1185 10.7909 13.1622 10.7904 13.2096V15.4416C10.7849 15.5859 10.7238 15.7225 10.6197 15.8227C10.5157 15.9229 10.3769 15.9789 10.2324 15.9789C10.0879 15.9789 9.94914 15.9229 9.84509 15.8227C9.74103 15.7225 9.67989 15.5859 9.6744 15.4416V13.7609C9.6744 13.4512 9.41926 13.2028 9.10966 13.2065C8.80531 13.2102 8.5584 13.4565 8.5584 13.7609V15.4416C8.5584 15.5897 8.49954 15.7317 8.39486 15.8365C8.29011 15.9411 8.14811 16 8 16C7.85189 16 7.70989 15.9411 7.60514 15.8365C7.50046 15.7317 7.4416 15.5897 7.4416 15.4416V13.7609C7.4416 13.4564 7.19474 13.21 6.89034 13.2063C6.58069 13.2026 6.3256 13.4511 6.3256 13.7609V15.4416C6.32011 15.5859 6.25897 15.7225 6.15491 15.8227C6.05086 15.9229 5.91206 15.9789 5.7676 15.9789C5.62314 15.9789 5.48434 15.9229 5.38029 15.8227C5.27623 15.7225 5.21509 15.5859 5.2096 15.4416V13.2096C5.2096 13.1624 5.17669 13.1184 5.12989 13.1121C4.4271 13.0161 3.9327 12.8255 3.5536 12.4464C3.1745 12.0673 2.98388 11.5729 2.88796 10.8701C2.88154 10.8231 2.83789 10.7906 2.7904 10.7904H0.5584C0.414063 10.7849 0.277463 10.7238 0.17728 10.6197C0.0770972 10.5157 0.0211314 10.3769 0.0211314 10.2324C0.0211314 10.0879 0.0770972 9.94914 0.17728 9.84509C0.277463 9.74103 0.414063 9.67989 0.5584 9.6744H2.23914C2.54883 9.6744 2.79738 9.41931 2.79366 9.10966C2.78999 8.80526 2.54358 8.5584 2.23914 8.5584H0.5584C0.410303 8.5584 0.268274 8.49954 0.163554 8.39486C0.0588286 8.29011 0 8.14811 0 8C0 7.85189 0.0588286 7.70989 0.163554 7.60514C0.268274 7.50046 0.410303 7.4416 0.5584 7.4416H2.24139C2.54495 7.4416 2.7909 7.16949 2.7941 6.86594C2.79738 6.55543 2.54745 6.3256 2.2369 6.3256H0.5584C0.414063 6.32011 0.277463 6.25897 0.17728 6.15491C0.0770972 6.05086 0.0211314 5.91206 0.0211314 5.7676C0.0211314 5.62314 0.0770972 5.48434 0.17728 5.38029C0.277463 5.27623 0.414063 5.21509 0.5584 5.2096H2.7904C2.83762 5.2096 2.88157 5.17669 2.88796 5.12989C2.98389 4.4271 3.1745 3.9327 3.5536 3.5536C3.9327 3.1745 4.4271 2.98388 5.12989 2.88796C5.17691 2.88154 5.20943 2.83789 5.2096 2.7904V0.5584C5.21509 0.414063 5.27623 0.277463 5.38029 0.17728C5.48434 0.0770972 5.62314 0.0211314 5.7676 0.0211314C5.91206 0.0211314 6.05086 0.0770972 6.15491 0.17728C6.25897 0.277463 6.32011 0.414063 6.3256 0.5584V2.23914C6.3256 2.54878 6.58074 2.79721 6.89034 2.79349C7.19469 2.78982 7.4416 2.54352 7.4416 2.23914V0.5584C7.4416 0.2496 7.692 0 8 0Z" fill="url(#paint0_linear_25_2672)"/>
<rect x="4.5" y="6.5" width="5" height="5" rx="1.5" fill="#279FD7"/>
<rect x="5.5" y="5.5" width="5" height="5" rx="1.5" fill="url(#paint1_linear_25_2672)"/>
</g>
<defs>
<linearGradient id="paint0_linear_25_2672" x1="1.6" y1="16.005" x2="7.3787" y2="-1.33327" gradientUnits="userSpaceOnUse">
<stop stop-color="#22B4FA"/>
<stop offset="1" stop-color="#6BD6FE"/>
</linearGradient>
<linearGradient id="paint1_linear_25_2672" x1="5.5" y1="10.5" x2="11.3824" y2="9.02941" gradientUnits="userSpaceOnUse">
<stop stop-color="#6BD6FE"/>
<stop offset="1" stop-color="white"/>
</linearGradient>
<clipPath id="clip0_25_2672">
<rect width="16" height="16" fill="white"/>
</clipPath>
</defs>
</svg>
