<svg width="16" height="16" viewBox="0 0 16 16" fill="none" xmlns="http://www.w3.org/2000/svg">
<g clip-path="url(#clip0_287_192)">
<path opacity="0.5" fill-rule="evenodd" clip-rule="evenodd" d="M4.46311 11.5338C3.0489 10.1196 1.75701 11.181 1.69337 11.2022C1.17082 11.3796 0.602306 11.0996 0.424821 10.5771C-0.523408 7.7833 0.115816 4.56738 2.34179 2.34141C5.46367 -0.78047 10.5336 -0.78047 13.6555 2.34141C16.7774 5.46328 16.7774 10.5332 13.6555 13.6551C11.4295 15.8811 8.2136 16.5203 5.41982 15.5721C4.89727 15.3946 4.61726 14.8261 4.79474 14.3035C4.81595 14.2399 5.87732 12.948 4.46311 11.5338ZM3.756 13.6551C3.36568 14.0454 2.73211 14.0454 2.34179 13.6551C1.95147 13.2648 1.95147 12.6312 2.34179 12.2409C2.73211 11.8506 3.36568 11.8506 3.756 12.2409C4.14632 12.6312 4.14632 13.2648 3.756 13.6551Z" fill="url(#paint0_linear_287_192)"/>
<path d="M4.80051 4.43457C4.89612 4.34967 4.95361 4.23159 4.96056 4.1058C4.96753 3.98001 4.92341 3.8566 4.83772 3.76219C4.75203 3.66779 4.63163 3.60995 4.50252 3.60117C4.37341 3.59239 4.24592 3.63335 4.14757 3.71524C3.5348 4.24019 3.04412 4.88632 2.70826 5.61049C2.37241 6.33467 2.19912 7.12023 2.19995 7.91476C2.19995 8.0421 2.25191 8.16414 2.34439 8.25418C2.43688 8.34421 2.56231 8.39479 2.6931 8.39479C2.82389 8.39479 2.94933 8.34421 3.04182 8.25418C3.1343 8.16414 3.18626 8.0421 3.18626 7.91476C3.1854 7.25632 3.32896 6.60522 3.60733 6.00504C3.88571 5.40488 4.2925 4.86947 4.80051 4.43457ZM11.7592 3.71524C11.6609 3.63335 11.5334 3.59239 11.4042 3.60117C11.2752 3.60995 11.1547 3.66779 11.069 3.76219C10.9833 3.8566 10.9392 3.98001 10.9462 4.1058C10.9532 4.23159 11.0106 4.34967 11.1063 4.43457C11.6143 4.86947 12.021 5.40488 12.2994 6.00504C12.5778 6.60522 12.7214 7.25632 12.7205 7.91476C12.7205 8.0421 12.7725 8.16414 12.865 8.25418C12.9574 8.34421 13.0829 8.39479 13.2136 8.39479C13.3445 8.39479 13.4699 8.34421 13.5624 8.25418C13.6549 8.16414 13.7068 8.0421 13.7068 7.91476C13.7076 7.12023 13.5343 6.33467 13.1986 5.61049C12.8626 4.88632 12.372 4.24019 11.7592 3.71524ZM6.76128 12.4088C6.69791 12.391 6.63153 12.3857 6.56605 12.3934C6.50058 12.401 6.43735 12.4214 6.3801 12.4532C6.32284 12.4851 6.27273 12.5278 6.23272 12.5788C6.19271 12.6298 6.16363 12.6881 6.14717 12.7502C6.13073 12.8124 6.12725 12.8771 6.13696 12.9406C6.14666 13.0041 6.16935 13.0651 6.20368 13.1198C6.23801 13.1747 6.28327 13.2222 6.33682 13.2597C6.39034 13.2971 6.45106 13.3238 6.51536 13.338C7.45866 13.5743 8.44813 13.5743 9.39142 13.338C9.4557 13.3238 9.51646 13.2971 9.56996 13.2597C9.62351 13.2222 9.66877 13.1747 9.70309 13.1198C9.73742 13.0651 9.76017 13.0041 9.76988 12.9406C9.77959 12.8771 9.77601 12.8124 9.75965 12.7502C9.74313 12.6881 9.71408 12.6298 9.67405 12.5788C9.63407 12.5278 9.58393 12.4851 9.52669 12.4532C9.46944 12.4214 9.40619 12.401 9.34071 12.3934C9.27523 12.3857 9.20885 12.391 9.14553 12.4088C8.75603 12.506 8.35551 12.555 7.95339 12.5547C7.55134 12.5547 7.15082 12.5057 6.76128 12.4088Z" fill="url(#paint1_linear_287_192)" stroke="url(#paint2_linear_287_192)" stroke-width="0.3"/>
<path d="M6.82652 4.41922L6.82652 4.41922C7.10173 4.68708 7.47776 4.83987 7.87263 4.83987C8.2675 4.83987 8.64353 4.68709 8.91877 4.41921C9.19349 4.15185 9.34523 3.79212 9.34523 3.41993C9.34523 3.04777 9.1935 2.68805 8.91878 2.42065L6.82652 4.41922ZM6.82652 4.41922C6.55179 4.15184 6.40002 3.7921 6.40002 3.41993M6.82652 4.41922L6.40002 3.41993M6.40002 3.41993C6.40002 3.04779 6.55178 2.68805 6.82651 2.42065L6.40002 3.41993ZM11.1005 10.1005L11.1005 10.1004C11.3757 9.83251 11.7518 9.67973 12.1466 9.67973C12.5415 9.67973 12.9175 9.83251 13.1926 10.1004L13.1928 10.1005C13.4675 10.3678 13.6192 10.7274 13.6192 11.0996C13.6192 11.4719 13.4675 11.8316 13.1927 12.099C12.9175 12.3668 12.5415 12.5196 12.1466 12.5196C11.7518 12.5196 11.3758 12.3668 11.1005 12.099C10.8258 11.8316 10.674 11.4719 10.674 11.0996C10.674 10.7274 10.8258 10.3678 11.1005 10.1005ZM7.87263 2C8.26749 2 8.64352 2.15278 8.91876 2.42064L6.82653 2.42063C7.10174 2.15279 7.47778 2 7.87263 2Z" fill="url(#paint3_linear_287_192)" stroke="url(#paint4_linear_287_192)"/>
</g>
<defs>
<linearGradient id="paint0_linear_287_192" x1="1.59969" y1="16.0019" x2="7.37727" y2="-1.33301" gradientUnits="userSpaceOnUse">
<stop stop-color="#22B4FA"/>
<stop offset="1" stop-color="#6BD6FE"/>
</linearGradient>
<linearGradient id="paint1_linear_287_192" x1="3.35064" y1="13.5183" x2="6.51789" y2="2.48985" gradientUnits="userSpaceOnUse">
<stop offset="0.190745" stop-color="#22B4FA"/>
<stop offset="0.896724" stop-color="#7DDCFF"/>
</linearGradient>
<linearGradient id="paint2_linear_287_192" x1="3.35064" y1="13.5183" x2="6.51789" y2="2.48985" gradientUnits="userSpaceOnUse">
<stop offset="0.190745" stop-color="#22B4FA"/>
<stop offset="0.896724" stop-color="#7DDCFF"/>
</linearGradient>
<linearGradient id="paint3_linear_287_192" x1="6.72195" y1="13.0232" x2="12.0404" y2="1.63777" gradientUnits="userSpaceOnUse">
<stop offset="0.190745" stop-color="#22B4FA"/>
<stop offset="0.896724" stop-color="#7DDCFF"/>
</linearGradient>
<linearGradient id="paint4_linear_287_192" x1="6.72195" y1="13.0232" x2="12.0404" y2="1.63777" gradientUnits="userSpaceOnUse">
<stop offset="0.190745" stop-color="#22B4FA"/>
<stop offset="0.896724" stop-color="#7DDCFF"/>
</linearGradient>
<clipPath id="clip0_287_192">
<rect width="16" height="16" fill="white"/>
</clipPath>
</defs>
</svg>
