<svg width="16" height="16" viewBox="0 0 16 16" fill="none" xmlns="http://www.w3.org/2000/svg">
<path opacity="0.5" d="M1 8.82951C1 7.94711 1 7.50551 1.3144 7.24871C1.4256 7.15751 1.5608 7.08391 1.712 7.03351C2.1376 6.89191 2.6968 7.03191 3.81519 7.31031C4.66879 7.52391 5.09519 7.63031 5.52719 7.61911C5.68559 7.61511 5.84319 7.59911 5.99759 7.57191C6.41759 7.49751 6.79199 7.31111 7.54082 6.93751L8.64642 6.38553C9.60635 5.90633 10.0856 5.66713 10.636 5.61193C11.1864 5.55673 11.7336 5.69353 12.8272 5.96633L13.7592 6.19833C14.5512 6.39593 14.9472 6.49513 15.1736 6.73031C15.4 6.96551 15.4 7.27831 15.4 7.90311V12.7703C15.4 13.6527 15.4 14.0943 15.0856 14.3511C14.9672 14.4464 14.8325 14.5193 14.688 14.5663C14.2624 14.7079 13.7032 14.5687 12.5848 14.2895C11.7312 14.0759 11.3048 13.9695 10.8728 13.9807C10.715 13.9847 10.5578 14.0004 10.4024 14.0279C9.98235 14.1023 9.60795 14.2887 8.85922 14.6623L7.75362 15.2143C6.79359 15.6935 6.31439 15.9327 5.76399 15.9879C5.21359 16.0431 4.66639 15.9063 3.57279 15.6335L2.6408 15.4015C1.8488 15.2039 1.4528 15.1047 1.2264 14.8695C1 14.6343 1 14.3215 1 13.6967V8.82951Z" fill="url(#paint0_linear_287_155)"/>
<path fill-rule="evenodd" clip-rule="evenodd" d="M3.3999 4.55999C3.3999 2.0416 5.54869 0 8.19989 0C10.8511 0 12.9999 2.0416 12.9999 4.55999C12.9999 7.05922 11.4679 9.97595 9.0775 11.0176C8.80055 11.1378 8.50178 11.1998 8.19989 11.1998C7.89793 11.1998 7.59924 11.1378 7.32229 11.0176C4.9319 9.97515 3.3999 7.05922 3.3999 4.55999ZM8.19997 6.40001C8.62434 6.40001 9.03125 6.23143 9.33132 5.93138C9.63139 5.63132 9.79998 5.22435 9.79998 4.80001C9.79998 4.37567 9.63139 3.9687 9.33132 3.66864C9.03125 3.36858 8.62434 3.20001 8.19997 3.20001C7.77561 3.20001 7.36863 3.36858 7.06862 3.66864C6.76854 3.9687 6.59998 4.37567 6.59998 4.80001C6.59998 5.22435 6.76854 5.63132 7.06862 5.93138C7.36863 6.23143 7.77561 6.40001 8.19997 6.40001Z" fill="url(#paint1_linear_287_155)"/>
<defs>
<linearGradient id="paint0_linear_287_155" x1="3.69999" y1="14.7" x2="9.53945" y2="4.99767" gradientUnits="userSpaceOnUse">
<stop stop-color="#FF405B"/>
<stop offset="1" stop-color="#FF8860"/>
</linearGradient>
<linearGradient id="paint1_linear_287_155" x1="5.1999" y1="9.79983" x2="12.3136" y2="2.48274" gradientUnits="userSpaceOnUse">
<stop stop-color="#FF405B"/>
<stop offset="1" stop-color="#FF8860"/>
</linearGradient>
</defs>
</svg>
