<svg width="16" height="16" viewBox="0 0 16 16" fill="none" xmlns="http://www.w3.org/2000/svg">
<g clip-path="url(#clip0_287_133)">
<path opacity="0.5" fill-rule="evenodd" clip-rule="evenodd" d="M3.2 3.4428C3.19993 3.48938 3.19994 3.53661 3.2 3.58452V5.65122C3.2 6.01922 3.2 6.20322 3.2752 6.36482C3.35062 6.52518 3.49063 6.64218 3.76871 6.87458L3.7752 6.88001L4.92721 7.84005C6.39601 9.06484 7.13119 9.6768 8.00004 9.6768C8.86881 9.6768 9.60317 9.06484 11.072 7.84085L12.224 6.88081C12.4753 6.67268 12.6145 6.55603 12.6953 6.41998C12.7061 6.402 12.7158 6.3837 12.7246 6.36481C12.8006 6.20321 12.8006 6.0192 12.8006 5.65041V4V3.99955C12.8006 3.74375 12.8006 3.50392 12.7991 3.28168C13.8395 3.38412 14.5401 3.61533 15.0624 4.13762C16 5.07522 16 6.58479 16 9.6016C16 12.6184 16 14.1272 15.0624 15.0633C14.1256 16.0008 12.6168 16.0008 9.59997 16.0008H6.40001C3.3832 16.0008 1.8744 16.0008 0.937603 15.0633C0 14.1264 0 12.6176 0 9.6016C0 6.58399 0 5.07442 0.937603 4.13762C1.46 3.61522 2.16 3.38402 3.2 3.28162V3.4428Z" fill="url(#paint0_linear_287_133)"/>
<path fill-rule="evenodd" clip-rule="evenodd" d="M3.77605 6.87998L4.92725 7.84003C6.39605 9.06402 7.13124 9.67598 7.99929 9.67598C8.86886 9.67598 9.60322 9.06402 11.0728 7.83923L12.2249 6.87918C12.5072 6.64397 12.6488 6.52561 12.724 6.36481C12.8 6.20321 12.8 6.0192 12.8 5.65041V4C12.8 3.74401 12.8 3.504 12.7984 3.2816C12.7888 1.8648 12.72 1.092 12.2145 0.5856C11.6281 6.50265e-08 10.6857 0 8.80006 0H7.20005C5.31446 0 4.37125 6.50265e-08 3.78565 0.5856C3.27926 1.092 3.20965 1.8648 3.20005 3.2816C3.199 3.42865 3.19933 3.5823 3.19969 3.74345C3.19987 3.82691 3.20005 3.91239 3.20005 4V5.65041C3.20005 6.0184 3.20005 6.20321 3.27526 6.36481C3.35079 6.52462 3.49191 6.64251 3.77086 6.87569L3.77605 6.87998ZM10.4001 3.11841C10.4001 3.30777 10.2334 3.46136 10.028 3.46136H9.77472C9.62672 3.46136 9.5038 3.5729 9.47464 3.718C9.37507 4.21227 9.15476 4.66787 8.84311 5.05807C8.72209 5.20962 8.75453 5.44053 8.93526 5.51092C9.27143 5.64184 9.64053 5.71426 10.028 5.71426C10.2334 5.71426 10.4001 5.86768 10.4001 6.05706C10.4001 6.24642 10.2334 6.40001 10.028 6.40001C9.34292 6.40001 8.70303 6.2206 8.15937 5.91059C8.06075 5.85433 7.93921 5.85434 7.84059 5.9106C7.29707 6.2206 6.65718 6.40001 5.97218 6.40001C5.76678 6.40001 5.60006 6.24642 5.60006 6.05706C5.60006 5.86768 5.76678 5.71426 5.97218 5.71426C6.35947 5.71426 6.72853 5.64171 7.06462 5.51089C7.24543 5.44051 7.27787 5.2095 7.15685 5.05789C6.84527 4.66772 6.62504 4.2122 6.52551 3.718C6.4963 3.5729 6.37339 3.46136 6.22537 3.46136H5.97218C5.76678 3.46136 5.60006 3.30777 5.60006 3.11841C5.60006 2.92905 5.76678 2.77546 5.97218 2.77546H7.33693C7.49759 2.77546 7.62785 2.64522 7.62785 2.48454V1.94295C7.62785 1.75359 7.79455 1.6 8.00002 1.6C8.20555 1.6 8.37225 1.75359 8.37225 1.94295V2.48454C8.37225 2.64521 8.50251 2.77546 8.66318 2.77546H10.028C10.2334 2.77546 10.4001 2.92905 10.4001 3.11841ZM7.80917 4.716C7.90998 4.83453 8.09006 4.83455 8.19079 4.71603C8.42127 4.44502 8.59452 4.13099 8.69387 3.78935C8.74333 3.61921 8.60616 3.46136 8.42898 3.46136H7.57112C7.39395 3.46136 7.25678 3.61921 7.30624 3.78935C7.40559 4.13097 7.57876 4.44499 7.80917 4.716Z" fill="url(#paint1_linear_287_133)"/>
<path fill-rule="evenodd" clip-rule="evenodd" d="M11.4552 11.2733H4.54573C4.04389 11.2733 3.6366 11.6806 3.6366 12.1825C3.6366 12.6843 4.04389 13.0916 4.54573 13.0916H11.4552C11.957 13.0916 12.3643 12.6843 12.3643 12.1825C12.3643 11.6806 11.957 11.2733 11.4552 11.2733Z" fill="url(#paint2_linear_287_133)"/>
</g>
<defs>
<linearGradient id="paint0_linear_287_133" x1="1" y1="16.0077" x2="15.7182" y2="2.97032" gradientUnits="userSpaceOnUse">
<stop stop-color="#2E4AFA"/>
<stop offset="1" stop-color="#8E9EFF"/>
</linearGradient>
<linearGradient id="paint1_linear_287_133" x1="3.79938" y1="9.68119" x2="14.3904" y2="2.28138" gradientUnits="userSpaceOnUse">
<stop stop-color="#2E4AFA"/>
<stop offset="1" stop-color="#8E9EFF"/>
</linearGradient>
<linearGradient id="paint2_linear_287_133" x1="4.18208" y1="13.0926" x2="5.33529" y2="9.19474" gradientUnits="userSpaceOnUse">
<stop stop-color="#2E4AFA"/>
<stop offset="1" stop-color="#8E9EFF"/>
</linearGradient>
<clipPath id="clip0_287_133">
<rect width="16" height="16" fill="white"/>
</clipPath>
</defs>
</svg>
