<svg width="16" height="16" viewBox="0 0 16 16" fill="none" xmlns="http://www.w3.org/2000/svg">
<path fill-rule="evenodd" clip-rule="evenodd" d="M7.99821 14.9633C7.14819 14.9554 6.35927 14.4702 5.97877 13.7083L5.73354 13.2178H4.45329C2.54556 13.2178 1 11.6714 1 9.76369C1 7.68753 1.03665 6.53032 1.03665 4.45416C1.03665 2.54643 2.58308 1 4.49081 1H11.5091C11.9908 1 12.3818 1.39097 12.3818 1.8727C12.3818 2.83617 13.1637 3.61811 14.1272 3.61811H14.1403C14.622 3.62596 15.0069 4.02217 14.9999 4.5039C14.9999 4.5039 14.9633 6.92827 14.9633 9.76369C14.9633 11.6714 13.4168 13.2178 11.5091 13.2178H10.303L10.0578 13.7083C9.67293 14.4772 8.87789 14.9633 8.01828 14.9633H7.99821ZM14.9999 1.8727C14.9999 2.35444 14.6089 2.74541 14.1272 2.74541C13.6455 2.74541 13.2545 2.35444 13.2545 1.8727C13.2545 1.39097 13.6455 1 14.1272 1C14.6089 1 14.9999 1.39097 14.9999 1.8727Z" fill="url(#paint0_linear_8_346)"/>
<path fill-rule="evenodd" clip-rule="evenodd" d="M10.1091 9.98154V7.36343C10.1091 6.8817 9.71808 6.49073 9.23635 6.49073C8.75462 6.49073 8.36365 6.8817 8.36365 7.36343V9.98154C8.36365 10.4633 8.75462 10.8542 9.23635 10.8542C9.71808 10.8542 10.1091 10.4633 10.1091 9.98154Z" fill="#45C5C2"/>
<path d="M5.74541 4.74533V9.98154C5.74541 10.4633 5.35444 10.8542 4.8727 10.8542C4.39097 10.8542 4 10.4633 4 9.98154V4.74533C4 4.26359 4.39097 3.87262 4.8727 3.87262C5.35444 3.87262 5.74541 4.26359 5.74541 4.74533Z" fill="#45C5C2"/>
<path fill-rule="evenodd" clip-rule="evenodd" d="M6.8726 9.10892V3.8727C6.8726 3.39097 6.48163 3 5.9999 3C5.51817 3 5.1272 3.39097 5.1272 3.8727V9.10892C5.1272 9.59066 5.51817 9.98163 5.9999 9.98163C6.48163 9.98163 6.8726 9.59066 6.8726 9.10892Z" fill="url(#paint1_linear_8_346)"/>
<path fill-rule="evenodd" clip-rule="evenodd" d="M11.2364 9.10898V6.49087C11.2364 6.00914 10.8454 5.61816 10.3637 5.61816C9.88194 5.61816 9.49097 6.00914 9.49097 6.49087V9.10898C9.49097 9.59071 9.88194 9.98168 10.3637 9.98168C10.8454 9.98168 11.2364 9.59071 11.2364 9.10898Z" fill="url(#paint2_linear_8_346)"/>
<defs>
<linearGradient id="paint0_linear_8_346" x1="3.625" y1="13.2178" x2="13.2225" y2="2.72028" gradientUnits="userSpaceOnUse">
<stop stop-color="#00DAD4"/>
<stop offset="1" stop-color="#C4FFFD"/>
</linearGradient>
<linearGradient id="paint1_linear_8_346" x1="5.47629" y1="8.98436" x2="7.86513" y2="7.86956" gradientUnits="userSpaceOnUse">
<stop stop-color="#7EEFEC"/>
<stop offset="1" stop-color="white"/>
</linearGradient>
<linearGradient id="paint2_linear_8_346" x1="9.84006" y1="9.35839" x2="11.7078" y2="7.96378" gradientUnits="userSpaceOnUse">
<stop stop-color="#7EEFEC"/>
<stop offset="1" stop-color="white"/>
</linearGradient>
</defs>
</svg>
