<svg width="16" height="16" viewBox="0 0 16 16" fill="none" xmlns="http://www.w3.org/2000/svg">
<path opacity="0.5" d="M11.2001 2H4.80009C2.53771 2 1.40571 2 0.703318 2.71755C0.00012207 3.43428 0.00012207 4.58937 0.00012207 6.89793V8.53057C0.00012207 10.8391 0.00012207 11.9942 0.703318 12.711C1.40571 13.4285 2.53771 13.4285 4.80009 13.4285H11.2001C11.5074 13.4285 11.7939 13.4285 12.0613 13.4267C12.3564 13.4247 12.5715 13.1522 12.5715 12.8571C12.5715 11.2791 13.8507 9.99995 15.4286 9.99995C15.7232 9.99995 15.9953 9.78551 15.9977 9.49093C16 9.19499 16 8.87567 16 8.53057V6.89793C16 4.58937 16 3.43428 15.2968 2.71755C14.5944 2 13.4624 2 11.2001 2Z" fill="url(#paint0_linear_287_72)"/>
<path opacity="0.5" d="M14.8573 13.4285C15.4885 13.4285 16.0001 12.9168 16.0001 12.2857C16.0001 11.6545 15.4885 11.1428 14.8573 11.1428C14.2261 11.1428 13.7144 11.6545 13.7144 12.2857C13.7144 12.9168 14.2261 13.4285 14.8573 13.4285Z" fill="url(#paint1_linear_287_72)"/>
<path d="M11.4285 10.8518C11.4285 11.0777 11.3388 11.2943 11.1791 11.4542C11.0192 11.6139 10.8026 11.7036 10.5767 11.7036H4.85181C4.62589 11.7036 4.40923 11.6139 4.24948 11.4542C4.08974 11.2943 4 11.0777 4 10.8518C4 10.6259 4.08974 10.4092 4.24948 10.2495C4.40923 10.0897 4.62589 10 4.85181 10H10.5767C10.8026 10 11.0192 10.0897 11.1791 10.2495C11.3388 10.4092 11.4285 10.6259 11.4285 10.8518Z" fill="url(#paint2_linear_287_72)"/>
<path d="M8.80802 5.09379C8.5937 5.30812 8.30301 5.42852 7.99991 5.42852C7.6968 5.42852 7.40611 5.30812 7.19179 5.09379C6.97746 4.87946 6.85706 4.58878 6.85706 4.28567C6.85706 3.98257 6.97746 3.69188 7.19179 3.47755C7.40611 3.26323 7.6968 3.14282 7.99991 3.14282C8.30301 3.14282 8.5937 3.26323 8.80802 3.47755C9.02235 3.69188 9.14275 3.98257 9.14275 4.28567C9.14275 4.58878 9.02235 4.87946 8.80802 5.09379Z" fill="url(#paint3_linear_287_72)"/>
<path d="M5.37956 5.09379C5.16523 5.30812 4.87454 5.42852 4.57144 5.42852C4.26833 5.42852 3.97764 5.30812 3.76332 5.09379C3.54899 4.87946 3.42859 4.58878 3.42859 4.28567C3.42859 3.98257 3.54899 3.69188 3.76332 3.47755C3.97764 3.26323 4.26833 3.14282 4.57144 3.14282C4.87454 3.14282 5.16523 3.26323 5.37956 3.47755C5.59388 3.69188 5.71429 3.98257 5.71429 4.28567C5.71429 4.58878 5.59388 4.87946 5.37956 5.09379Z" fill="url(#paint4_linear_287_72)"/>
<path d="M5.37956 8.14138C5.16523 8.35571 4.87454 8.47613 4.57144 8.47613C4.26833 8.47613 3.97764 8.35571 3.76332 8.14138C3.54899 7.92704 3.42859 7.63634 3.42859 7.33328C3.42859 7.03011 3.54899 6.73952 3.76332 6.52518C3.97764 6.31084 4.26833 6.19043 4.57144 6.19043C4.87454 6.19043 5.16523 6.31084 5.37956 6.52518C5.59388 6.73952 5.71429 7.03011 5.71429 7.33328C5.71429 7.63634 5.59388 7.92704 5.37956 8.14138Z" fill="url(#paint5_linear_287_72)"/>
<path d="M8.80802 8.14138C8.5937 8.35571 8.30301 8.47613 7.99991 8.47613C7.6968 8.47613 7.40611 8.35571 7.19179 8.14138C6.97746 7.92704 6.85706 7.63634 6.85706 7.33328C6.85706 7.03011 6.97746 6.73952 7.19179 6.52518C7.40611 6.31084 7.6968 6.19043 7.99991 6.19043C8.30301 6.19043 8.5937 6.31084 8.80802 6.52518C9.02235 6.73952 9.14275 7.03011 9.14275 7.33328C9.14275 7.63634 9.02235 7.92704 8.80802 8.14138Z" fill="url(#paint6_linear_287_72)"/>
<path d="M12.2366 8.14138C12.0223 8.35571 11.7316 8.47613 11.4285 8.47613C11.1253 8.47613 10.8347 8.35571 10.6204 8.14138C10.4061 7.92704 10.2856 7.63634 10.2856 7.33328C10.2856 7.03011 10.4061 6.73952 10.6204 6.52518C10.8347 6.31084 11.1253 6.19043 11.4285 6.19043C11.7316 6.19043 12.0223 6.31084 12.2366 6.52518C12.4509 6.73952 12.5713 7.03011 12.5713 7.33328C12.5713 7.63634 12.4509 7.92704 12.2366 8.14138Z" fill="url(#paint7_linear_287_72)"/>
<path d="M12.2366 5.09379C12.0223 5.30812 11.7316 5.42852 11.4285 5.42852C11.1253 5.42852 10.8347 5.30812 10.6204 5.09379C10.4061 4.87946 10.2856 4.58878 10.2856 4.28567C10.2856 3.98257 10.4061 3.69188 10.6204 3.47755C10.8347 3.26323 11.1253 3.14282 11.4285 3.14282C11.7316 3.14282 12.0223 3.26323 12.2366 3.47755C12.4509 3.69188 12.5713 3.98257 12.5713 4.28567C12.5713 4.58878 12.4509 4.87946 12.2366 5.09379Z" fill="url(#paint8_linear_287_72)"/>
<defs>
<linearGradient id="paint0_linear_287_72" x1="4.0001" y1="12.6122" x2="10.8162" y2="1.47926" gradientUnits="userSpaceOnUse">
<stop stop-color="#A056FF"/>
<stop offset="1" stop-color="#C59AFD"/>
</linearGradient>
<linearGradient id="paint1_linear_287_72" x1="4.00016" y1="12.6122" x2="10.8163" y2="1.47925" gradientUnits="userSpaceOnUse">
<stop stop-color="#A056FF"/>
<stop offset="1" stop-color="#C59AFD"/>
</linearGradient>
<linearGradient id="paint2_linear_287_72" x1="5.85712" y1="11.5819" x2="6.28894" y2="9.38519" gradientUnits="userSpaceOnUse">
<stop stop-color="#A056FF"/>
<stop offset="1" stop-color="#C59AFD"/>
</linearGradient>
<linearGradient id="paint3_linear_287_72" x1="7.42848" y1="5.26526" x2="8.94107" y2="3.50057" gradientUnits="userSpaceOnUse">
<stop stop-color="#A056FF"/>
<stop offset="1" stop-color="#C59AFD"/>
</linearGradient>
<linearGradient id="paint4_linear_287_72" x1="4.00001" y1="5.26526" x2="5.51261" y2="3.50056" gradientUnits="userSpaceOnUse">
<stop stop-color="#A056FF"/>
<stop offset="1" stop-color="#C59AFD"/>
</linearGradient>
<linearGradient id="paint5_linear_287_72" x1="4.00001" y1="8.31286" x2="5.51261" y2="6.54817" gradientUnits="userSpaceOnUse">
<stop stop-color="#A056FF"/>
<stop offset="1" stop-color="#C59AFD"/>
</linearGradient>
<linearGradient id="paint6_linear_287_72" x1="7.42848" y1="8.31286" x2="8.94107" y2="6.54818" gradientUnits="userSpaceOnUse">
<stop stop-color="#A056FF"/>
<stop offset="1" stop-color="#C59AFD"/>
</linearGradient>
<linearGradient id="paint7_linear_287_72" x1="10.8571" y1="8.31286" x2="12.3697" y2="6.54817" gradientUnits="userSpaceOnUse">
<stop stop-color="#A056FF"/>
<stop offset="1" stop-color="#C59AFD"/>
</linearGradient>
<linearGradient id="paint8_linear_287_72" x1="10.8571" y1="5.26526" x2="12.3697" y2="3.50056" gradientUnits="userSpaceOnUse">
<stop stop-color="#A056FF"/>
<stop offset="1" stop-color="#C59AFD"/>
</linearGradient>
</defs>
</svg>
