<svg width="16" height="16" viewBox="0 0 16 16" fill="none" xmlns="http://www.w3.org/2000/svg">
<g clip-path="url(#clip0_16_1929)">
<path fill-rule="evenodd" clip-rule="evenodd" d="M15 3C15.552 3 16 3.448 16 4V12.008C16 14.213 14.213 16 12.008 16C9.643 16 6.357 16 3.992 16C2.933 16 1.918 15.579 1.169 14.831C0.421 14.082 0 13.067 0 12.008C0 9.643 0 6.357 0 3.992C0 1.787 1.787 0 3.992 0C7.249 0 12 0 12 0C12.552 0 13 0.448 13 1C13 2.104 13.896 3 15 3ZM15 2C14.448 2 14 1.552 14 1C14 0.448 14.448 0 15 0C15.552 0 16 0.448 16 1C16 1.552 15.552 2 15 2Z" fill="url(#paint0_linear_16_1929)"/>
<path fill-rule="evenodd" clip-rule="evenodd" d="M10.897 8.11604C10.5278 8.29903 10.1182 8.39683 9.69841 8.39683C8.98275 8.39683 8.2964 8.11253 7.79035 7.60648C7.2843 7.10043 7 6.41408 7 5.69841C7 4.98275 7.2843 4.2964 7.79035 3.79035C8.2964 3.2843 8.98275 3 9.69841 3C10.4141 3 11.1004 3.2843 11.6065 3.79035C12.1125 4.2964 12.3968 4.98275 12.3968 5.69841C12.3968 6.27683 12.2111 6.83611 11.8727 7.29651L13.4823 8.91765C13.7294 9.16648 13.728 9.56849 13.4792 9.81556C13.2303 10.0626 12.8283 10.0612 12.5812 9.81236L10.897 8.11604Z" fill="#B85C68"/>
<path fill-rule="evenodd" clip-rule="evenodd" d="M10.897 8.11604C10.5278 8.29903 10.1182 8.39683 9.69841 8.39683C8.98275 8.39683 8.2964 8.11253 7.79035 7.60648C7.2843 7.10043 7 6.41408 7 5.69841C7 4.98275 7.2843 4.2964 7.79035 3.79035C8.2964 3.2843 8.98275 3 9.69841 3C10.4141 3 11.1004 3.2843 11.6065 3.79035C12.1125 4.2964 12.3968 4.98275 12.3968 5.69841C12.3968 6.27683 12.2111 6.83611 11.8727 7.29651L13.4823 8.91765C13.7294 9.16648 13.728 9.56849 13.4792 9.81556C13.2303 10.0626 12.8283 10.0612 12.5812 9.81236L10.897 8.11604Z" fill="#E7455A"/>
<path fill-rule="evenodd" clip-rule="evenodd" d="M0.00012207 11.6212C0.00012207 11.6212 2.78225 7.92273 3.59059 7.92273C4.56687 7.92273 5.4601 8.47454 5.89657 9.34747L6.71229 10.9789L7.32777 10.3634C7.70887 9.98233 8.22561 9.76825 8.76451 9.76825H8.7682C9.30709 9.76825 9.82384 9.98233 10.2049 10.3634L10.8066 10.9651C11.1674 11.3259 11.1674 11.91 10.8066 12.2708C10.4467 12.6307 9.86167 12.6307 9.50179 12.2708L8.90015 11.6682C8.86509 11.6332 8.8171 11.6138 8.7682 11.6138H8.76451C8.71468 11.6138 8.66762 11.6332 8.63255 11.6682L7.83806 12.4627C7.45972 12.841 6.9236 13.0136 6.39578 12.9287C5.86796 12.8429 5.41396 12.5089 5.17497 12.0309L4.24575 10.1733C4.1221 9.92512 3.86834 9.76825 3.59059 9.76825C3.36359 9.76825 3.14951 9.87529 3.01294 10.0571C2.21752 11.1183 0.738331 13.0902 0.738331 13.0902C0.653437 13.2028 0.549165 13.2904 0.431974 13.3523C0.151455 12.8235 0.00012207 12.2302 0.00012207 11.6212Z" fill="#E7455A"/>
<path fill-rule="evenodd" clip-rule="evenodd" d="M7.63488 10.0562L6.81916 8.42474C6.38269 7.55181 5.49038 7 4.51318 7C3.70484 7 2.94449 7.38018 2.45911 8.02703C1.66369 9.08821 0.184506 11.0601 0.184506 11.0601C-0.120927 11.468 -0.0388017 12.0466 0.369059 12.352C0.776919 12.6574 1.35549 12.5753 1.66092 12.1675C1.66092 12.1675 3.14011 10.1955 3.93553 9.13435C4.0721 8.95256 4.28618 8.84552 4.51318 8.84552C4.79093 8.84552 5.04469 9.00239 5.16834 9.25061L6.09756 11.1081C6.33655 11.5861 6.79055 11.9202 7.31837 12.006C7.84619 12.0909 8.38324 11.9183 8.76065 11.54L9.55514 10.7455C9.59021 10.7104 9.63727 10.691 9.6871 10.691H9.69079C9.74062 10.691 9.78768 10.7104 9.82275 10.7455L10.4244 11.348C10.7852 11.7079 11.3693 11.7079 11.7301 11.348C12.09 10.9872 12.09 10.4031 11.7301 10.0423L11.1275 9.4407C10.7464 9.0596 10.2297 8.84552 9.69079 8.84552H9.6871C9.14821 8.84552 8.63146 9.0596 8.25036 9.4407L7.63488 10.0562Z" fill="url(#paint1_linear_16_1929)"/>
<path fill-rule="evenodd" clip-rule="evenodd" d="M11.897 7.11604C11.5278 7.29903 11.1182 7.39683 10.6984 7.39683C9.98275 7.39683 9.2964 7.11253 8.79035 6.60648C8.2843 6.10043 8 5.41408 8 4.69841C8 3.98275 8.2843 3.2964 8.79035 2.79035C9.2964 2.2843 9.98275 2 10.6984 2C11.4141 2 12.1004 2.2843 12.6065 2.79035C13.1125 3.2964 13.3968 3.98275 13.3968 4.69841C13.3968 5.27683 13.2111 5.83611 12.8727 6.29651L14.4823 7.91765C14.7294 8.16648 14.728 8.56849 14.4792 8.81556C14.2303 9.06263 13.8283 9.06119 13.5812 8.81236L11.897 7.11604Z" fill="url(#paint2_linear_16_1929)"/>
</g>
<defs>
<linearGradient id="paint0_linear_16_1929" x1="1.14286" y1="15.0204" x2="15.7918" y2="7.11491" gradientUnits="userSpaceOnUse">
<stop stop-color="#B65592"/>
<stop offset="0.5" stop-color="#FB6F71"/>
<stop offset="1" stop-color="#F9CB52"/>
</linearGradient>
<linearGradient id="paint1_linear_16_1929" x1="0.857143" y1="12.1975" x2="6.84764" y2="5.19058" gradientUnits="userSpaceOnUse">
<stop stop-color="#D4A4C4"/>
<stop offset="0.5" stop-color="#F7B1B3"/>
<stop offset="1" stop-color="#F7E1A3"/>
</linearGradient>
<linearGradient id="paint2_linear_16_1929" x1="8.47619" y1="8.57143" x2="14.7106" y2="5.36713" gradientUnits="userSpaceOnUse">
<stop stop-color="#D4A4C4"/>
<stop offset="0.5" stop-color="#F7B1B3"/>
<stop offset="1" stop-color="#F7E1A3"/>
</linearGradient>
<clipPath id="clip0_16_1929">
<rect width="16" height="16" fill="white"/>
</clipPath>
</defs>
</svg>
