<svg width="16" height="16" viewBox="0 0 16 16" fill="none" xmlns="http://www.w3.org/2000/svg">
<g clip-path="url(#clip0_15_1236)">
<path fill-rule="evenodd" clip-rule="evenodd" d="M1 13C0.448 13 0 12.552 0 12V3.992C0 1.787 1.787 0 3.992 0C6.357 0 9.643 0 12.008 0C13.067 0 14.082 0.421001 14.831 1.169C15.579 1.918 16 2.933 16 3.992C16 6.357 16 9.643 16 12.008C16 14.213 14.213 16 12.008 16C8.751 16 4 16 4 16C3.448 16 3 15.552 3 15C3 13.896 2.104 13 1 13ZM1 14C1.552 14 2 14.448 2 15C2 15.552 1.552 16 1 16C0.448 16 0 15.552 0 15C0 14.448 0.448 14 1 14Z" fill="url(#paint0_linear_15_1236)"/>
<path d="M7.88066 7.08061C7.88066 6.92663 7.81949 6.77894 7.7106 6.67006C7.60172 6.56117 7.45404 6.5 7.30005 6.5C7.14606 6.5 6.99838 6.56117 6.88949 6.67006C6.78061 6.77894 6.71943 6.92663 6.71943 7.08061V7.62329L6.24952 7.35234C6.18343 7.31104 6.1097 7.28346 6.03272 7.27126C5.95574 7.25905 5.87709 7.26247 5.80147 7.28131C5.72584 7.30015 5.65478 7.33403 5.59252 7.38092C5.53026 7.4278 5.47808 7.48675 5.43909 7.55423C5.4001 7.62171 5.37509 7.69636 5.36556 7.77371C5.35603 7.85107 5.36217 7.92955 5.38362 8.00448C5.40506 8.07941 5.44137 8.14925 5.49039 8.20985C5.5394 8.27045 5.60012 8.32056 5.66891 8.35719L6.13882 8.62814L5.66891 8.89987C5.53545 8.97687 5.43805 9.10372 5.39812 9.25253C5.3582 9.40134 5.37902 9.55992 5.45602 9.69338C5.53301 9.82683 5.65987 9.92424 5.80868 9.96416C5.95749 10.0041 6.11607 9.98326 6.24952 9.90627L6.71943 9.63454V10.1772C6.71943 10.3312 6.78061 10.4789 6.88949 10.5878C6.99838 10.6967 7.14606 10.7578 7.30005 10.7578C7.45404 10.7578 7.60172 10.6967 7.7106 10.5878C7.81949 10.4789 7.88066 10.3312 7.88066 10.1772V9.63531L8.35057 9.90627C8.48403 9.98326 8.6426 10.0041 8.79142 9.96416C8.94023 9.92424 9.06708 9.82683 9.14408 9.69338C9.22107 9.55992 9.2419 9.40134 9.20197 9.25253C9.16205 9.10372 9.06464 8.97687 8.93119 8.89987L8.46128 8.62892L8.93119 8.35796C9.06464 8.28097 9.16205 8.15411 9.20197 8.0053C9.2419 7.85649 9.22107 7.69792 9.14408 7.56446C9.06708 7.431 8.94023 7.3336 8.79142 7.29367C8.6426 7.25375 8.48403 7.27457 8.35057 7.35157L7.88066 7.62252V7.08061ZM3.22259 6.5C3.37658 6.5 3.52426 6.56117 3.63315 6.67006C3.74203 6.77894 3.8032 6.92663 3.8032 7.08061V7.62252L4.27234 7.35157C4.4058 7.27457 4.56437 7.25375 4.71318 7.29367C4.862 7.3336 4.98885 7.431 5.06585 7.56446C5.14284 7.69792 5.16367 7.85649 5.12374 8.0053C5.08382 8.15411 4.98641 8.28097 4.85295 8.35796L4.38304 8.62892L4.85295 8.89987C4.91903 8.93799 4.97696 8.98876 5.02342 9.04927C5.06988 9.10978 5.10397 9.17885 5.12374 9.25253C5.14351 9.32622 5.14857 9.40307 5.13864 9.47871C5.1287 9.55435 5.10397 9.6273 5.06585 9.69338C5.02772 9.75946 4.97696 9.81738 4.91645 9.86384C4.85594 9.91031 4.78687 9.94439 4.71318 9.96416C4.6395 9.98393 4.56264 9.98899 4.487 9.97906C4.41136 9.96913 4.33842 9.94439 4.27234 9.90627L3.8032 9.63531V10.1772C3.8032 10.3312 3.74203 10.4789 3.63315 10.5878C3.52426 10.6967 3.37658 10.7578 3.22259 10.7578C3.0686 10.7578 2.92092 10.6967 2.81203 10.5878C2.70315 10.4789 2.64198 10.3312 2.64198 10.1772V9.63454L2.17129 9.90549C2.03845 9.97624 1.88332 9.99263 1.73862 9.95121C1.59392 9.9098 1.47096 9.81381 1.39566 9.6835C1.32036 9.55318 1.29861 9.39871 1.33499 9.25267C1.37137 9.10662 1.46304 8.98041 1.59068 8.90064L2.06059 8.62892L1.59068 8.35796C1.5246 8.31984 1.46667 8.26907 1.42021 8.20856C1.37375 8.14805 1.33966 8.07899 1.31989 8.0053C1.30012 7.93162 1.29506 7.85476 1.30499 7.77912C1.31493 7.70348 1.33966 7.63054 1.37779 7.56446C1.41591 7.49838 1.46668 7.44045 1.52719 7.39399C1.5877 7.34753 1.65676 7.31344 1.73045 7.29367C1.80413 7.2739 1.88099 7.26884 1.95663 7.27877C2.03227 7.28871 2.10521 7.31344 2.17129 7.35157L2.64198 7.62329V7.08061C2.64198 6.92663 2.70315 6.77894 2.81203 6.67006C2.92092 6.56117 3.0686 6.5 3.22259 6.5ZM11.9589 7.08061C11.9589 6.92663 11.8977 6.77894 11.7888 6.67006C11.6799 6.56117 11.5323 6.5 11.3783 6.5C11.2243 6.5 11.0766 6.56117 10.9677 6.67006C10.8588 6.77894 10.7977 6.92663 10.7977 7.08061V7.62329L10.3278 7.35234C10.2617 7.31104 10.1879 7.28346 10.111 7.27126C10.034 7.25905 9.95533 7.26247 9.8797 7.28131C9.80407 7.30015 9.73301 7.33403 9.67075 7.38092C9.60849 7.4278 9.55631 7.48675 9.51732 7.55423C9.47833 7.62171 9.45332 7.69636 9.44379 7.77371C9.43426 7.85107 9.4404 7.92955 9.46185 8.00448C9.48329 8.07941 9.51961 8.14925 9.56862 8.20985C9.61764 8.27045 9.67835 8.32056 9.74714 8.35719L10.2171 8.62814L9.74714 8.89987C9.68106 8.93799 9.62314 8.98876 9.57667 9.04927C9.53021 9.10978 9.49612 9.17885 9.47636 9.25253C9.45659 9.32622 9.45152 9.40307 9.46146 9.47871C9.47139 9.55435 9.49613 9.6273 9.53425 9.69338C9.57237 9.75946 9.62314 9.81738 9.68365 9.86384C9.74416 9.91031 9.81323 9.94439 9.88691 9.96416C9.9606 9.98393 10.0375 9.98899 10.1131 9.97906C10.1887 9.96913 10.2617 9.94439 10.3278 9.90627L10.7977 9.63454V10.1772C10.7977 10.3312 10.8588 10.4789 10.9677 10.5878C11.0766 10.6967 11.2243 10.7578 11.3783 10.7578C11.5323 10.7578 11.6799 10.6967 11.7888 10.5878C11.8977 10.4789 11.9589 10.3312 11.9589 10.1772V9.63531L12.4288 9.90627C12.5623 9.98326 12.7208 10.0041 12.8696 9.96416C13.0185 9.92424 13.1453 9.82683 13.2223 9.69338C13.2993 9.55992 13.3201 9.40134 13.2802 9.25253C13.2403 9.10372 13.1429 8.97687 13.0094 8.89987L12.5395 8.62892L13.0094 8.35796C13.0755 8.31984 13.1334 8.26907 13.1799 8.20856C13.2263 8.14805 13.2604 8.07899 13.2802 8.0053C13.3 7.93162 13.305 7.85476 13.2951 7.77912C13.2852 7.70348 13.2604 7.63054 13.2223 7.56446C13.1842 7.49838 13.1334 7.44045 13.0729 7.39399C13.0124 7.34753 12.9433 7.31344 12.8696 7.29367C12.796 7.2739 12.7191 7.26884 12.6435 7.27877C12.5678 7.28871 12.4949 7.31344 12.4288 7.35157L11.9589 7.62252V7.08061Z" fill="#8C4FD9"/>
<path d="M8.88066 6.08061C8.88066 5.92663 8.81949 5.77894 8.7106 5.67006C8.60172 5.56117 8.45404 5.5 8.30005 5.5C8.14606 5.5 7.99838 5.56117 7.88949 5.67006C7.78061 5.77894 7.71943 5.92663 7.71943 6.08061V6.62329L7.24952 6.35234C7.18343 6.31104 7.1097 6.28346 7.03272 6.27126C6.95574 6.25905 6.87709 6.26247 6.80147 6.28131C6.72584 6.30015 6.65478 6.33403 6.59252 6.38092C6.53026 6.4278 6.47808 6.48675 6.43909 6.55423C6.4001 6.62171 6.37509 6.69636 6.36556 6.77371C6.35603 6.85107 6.36217 6.92955 6.38362 7.00448C6.40506 7.07941 6.44137 7.14925 6.49039 7.20985C6.5394 7.27045 6.60012 7.32056 6.66891 7.35719L7.13882 7.62814L6.66891 7.89987C6.53545 7.97687 6.43805 8.10372 6.39812 8.25253C6.3582 8.40134 6.37902 8.55992 6.45602 8.69338C6.53301 8.82683 6.65987 8.92424 6.80868 8.96416C6.95749 9.00409 7.11607 8.98326 7.24952 8.90627L7.71943 8.63454V9.17722C7.71943 9.33121 7.78061 9.47889 7.88949 9.58778C7.99838 9.69666 8.14606 9.75783 8.30005 9.75783C8.45404 9.75783 8.60172 9.69666 8.7106 9.58778C8.81949 9.47889 8.88066 9.33121 8.88066 9.17722V8.63531L9.35057 8.90627C9.48403 8.98326 9.6426 9.00409 9.79142 8.96416C9.94023 8.92424 10.0671 8.82683 10.1441 8.69338C10.2211 8.55992 10.2419 8.40134 10.202 8.25253C10.162 8.10372 10.0646 7.97687 9.93119 7.89987L9.46128 7.62892L9.93119 7.35796C10.0646 7.28097 10.162 7.15411 10.202 7.0053C10.2419 6.85649 10.2211 6.69792 10.1441 6.56446C10.0671 6.431 9.94023 6.3336 9.79142 6.29367C9.6426 6.25375 9.48403 6.27457 9.35057 6.35157L8.88066 6.62252V6.08061ZM4.22259 5.5C4.37658 5.5 4.52426 5.56117 4.63315 5.67006C4.74203 5.77894 4.8032 5.92663 4.8032 6.08061V6.62252L5.27234 6.35157C5.4058 6.27457 5.56437 6.25375 5.71318 6.29367C5.862 6.3336 5.98885 6.431 6.06585 6.56446C6.14284 6.69792 6.16367 6.85649 6.12374 7.0053C6.08382 7.15411 5.98641 7.28097 5.85295 7.35796L5.38304 7.62892L5.85295 7.89987C5.91903 7.93799 5.97696 7.98876 6.02342 8.04927C6.06988 8.10978 6.10397 8.17885 6.12374 8.25253C6.14351 8.32622 6.14857 8.40307 6.13864 8.47871C6.1287 8.55435 6.10397 8.6273 6.06585 8.69338C6.02772 8.75946 5.97696 8.81738 5.91645 8.86384C5.85594 8.91031 5.78687 8.94439 5.71318 8.96416C5.6395 8.98393 5.56264 8.98899 5.487 8.97906C5.41136 8.96913 5.33842 8.94439 5.27234 8.90627L4.8032 8.63531V9.17722C4.8032 9.33121 4.74203 9.47889 4.63315 9.58778C4.52426 9.69666 4.37658 9.75783 4.22259 9.75783C4.0686 9.75783 3.92092 9.69666 3.81203 9.58778C3.70315 9.47889 3.64198 9.33121 3.64198 9.17722V8.63454L3.17129 8.90549C3.03845 8.97624 2.88332 8.99263 2.73862 8.95121C2.59392 8.9098 2.47096 8.81381 2.39566 8.6835C2.32036 8.55318 2.29861 8.39871 2.33499 8.25267C2.37137 8.10662 2.46304 7.98041 2.59068 7.90064L3.06059 7.62892L2.59068 7.35796C2.5246 7.31984 2.46667 7.26907 2.42021 7.20856C2.37375 7.14805 2.33966 7.07899 2.31989 7.0053C2.30012 6.93162 2.29506 6.85476 2.30499 6.77912C2.31493 6.70348 2.33966 6.63054 2.37779 6.56446C2.41591 6.49838 2.46668 6.44045 2.52719 6.39399C2.5877 6.34753 2.65676 6.31344 2.73045 6.29367C2.80413 6.2739 2.88099 6.26884 2.95663 6.27877C3.03227 6.28871 3.10521 6.31344 3.17129 6.35157L3.64198 6.62329V6.08061C3.64198 5.92663 3.70315 5.77894 3.81203 5.67006C3.92092 5.56117 4.0686 5.5 4.22259 5.5ZM12.9589 6.08061C12.9589 5.92663 12.8977 5.77894 12.7888 5.67006C12.6799 5.56117 12.5323 5.5 12.3783 5.5C12.2243 5.5 12.0766 5.56117 11.9677 5.67006C11.8588 5.77894 11.7977 5.92663 11.7977 6.08061V6.62329L11.3278 6.35234C11.2617 6.31104 11.1879 6.28346 11.111 6.27126C11.034 6.25905 10.9553 6.26247 10.8797 6.28131C10.8041 6.30015 10.733 6.33403 10.6708 6.38092C10.6085 6.4278 10.5563 6.48675 10.5173 6.55423C10.4783 6.62171 10.4533 6.69636 10.4438 6.77371C10.4343 6.85107 10.4404 6.92955 10.4618 7.00448C10.4833 7.07941 10.5196 7.14925 10.5686 7.20985C10.6176 7.27045 10.6783 7.32056 10.7471 7.35719L11.2171 7.62814L10.7471 7.89987C10.6811 7.93799 10.6231 7.98876 10.5767 8.04927C10.5302 8.10978 10.4961 8.17885 10.4764 8.25253C10.4566 8.32622 10.4515 8.40307 10.4615 8.47871C10.4714 8.55435 10.4961 8.6273 10.5342 8.69338C10.5724 8.75946 10.6231 8.81738 10.6836 8.86384C10.7442 8.91031 10.8132 8.94439 10.8869 8.96416C10.9606 8.98393 11.0375 8.98899 11.1131 8.97906C11.1887 8.96913 11.2617 8.94439 11.3278 8.90627L11.7977 8.63454V9.17722C11.7977 9.33121 11.8588 9.47889 11.9677 9.58778C12.0766 9.69666 12.2243 9.75783 12.3783 9.75783C12.5323 9.75783 12.6799 9.69666 12.7888 9.58778C12.8977 9.47889 12.9589 9.33121 12.9589 9.17722V8.63531L13.4288 8.90627C13.5623 8.98326 13.7208 9.00409 13.8696 8.96416C14.0185 8.92424 14.1453 8.82683 14.2223 8.69338C14.2993 8.55992 14.3201 8.40134 14.2802 8.25253C14.2403 8.10372 14.1429 7.97687 14.0094 7.89987L13.5395 7.62892L14.0094 7.35796C14.0755 7.31984 14.1334 7.26907 14.1799 7.20856C14.2263 7.14805 14.2604 7.07899 14.2802 7.0053C14.3 6.93162 14.305 6.85476 14.2951 6.77912C14.2852 6.70348 14.2604 6.63054 14.2223 6.56446C14.1842 6.49838 14.1334 6.44045 14.0729 6.39399C14.0124 6.34753 13.9433 6.31344 13.8696 6.29367C13.796 6.2739 13.7191 6.26884 13.6435 6.27877C13.5678 6.28871 13.4949 6.31344 13.4288 6.35157L12.9589 6.62252V6.08061Z" fill="url(#paint1_linear_15_1236)"/>
</g>
<defs>
<linearGradient id="paint0_linear_15_1236" x1="4" y1="14.8571" x2="14.5882" y2="2.5042" gradientUnits="userSpaceOnUse">
<stop stop-color="#A056FF"/>
<stop offset="1" stop-color="#C59AFD"/>
</linearGradient>
<linearGradient id="paint1_linear_15_1236" x1="5.30005" y1="9.75783" x2="12.2056" y2="3.2705" gradientUnits="userSpaceOnUse">
<stop stop-color="#C59AFD"/>
<stop offset="1" stop-color="white"/>
</linearGradient>
<clipPath id="clip0_15_1236">
<rect width="16" height="16" fill="white"/>
</clipPath>
</defs>
</svg>
