<svg width="16" height="16" viewBox="0 0 16 16" fill="none" xmlns="http://www.w3.org/2000/svg">
<g clip-path="url(#clip0_287_97)">
<path opacity="0.5" fill-rule="evenodd" clip-rule="evenodd" d="M3 8C3 6 1.336 5.837 1.276 5.807C0.780999 5.563 0.576999 4.963 0.820999 4.468C2.126 1.822 4.852 0 8 0C12.415 0 16 3.585 16 8C16 12.415 12.415 16 8 16C4.852 16 2.126 14.178 0.820999 11.532C0.576999 11.037 0.780999 10.437 1.276 10.193C1.336 10.163 3 10 3 8ZM1 9C0.448 9 0 8.552 0 8C0 7.448 0.448 7 1 7C1.552 7 2 7.448 2 8C2 8.552 1.552 9 1 9Z" fill="url(#paint0_linear_287_97)"/>
<path d="M7.67764 5.13822L5.99695 6.47693C5.29215 7.03827 4.93933 7.31936 5.00856 7.63214L5.01189 7.64799C5.0903 7.9591 5.53737 8.07921 6.43151 8.3186C6.92779 8.45205 7.17635 8.51878 7.29312 8.70644L7.29896 8.71645C7.41156 8.90746 7.34734 9.14601 7.21972 9.6231L7.18636 9.74822C6.83104 11.0711 6.65421 11.7325 6.99536 11.946C7.33733 12.1596 7.87949 11.7275 8.9663 10.8617L10.647 9.52385C11.3526 8.96167 11.7046 8.68142 11.6362 8.36781L11.6329 8.35196C11.5536 8.04084 11.1074 7.92074 10.2133 7.68135C9.71698 7.5479 9.46842 7.48117 9.35165 7.2935L9.34581 7.28349C9.23321 7.09332 9.29743 6.85477 9.42505 6.37767L9.45841 6.25256C9.8129 4.9297 9.99056 4.26743 9.64942 4.05391C9.30744 3.84038 8.76445 4.27327 7.67764 5.13822Z" fill="url(#paint1_linear_287_97)"/>
</g>
<defs>
<linearGradient id="paint0_linear_287_97" x1="1.33333" y1="14.6667" x2="14.6667" y2="1.33333" gradientUnits="userSpaceOnUse">
<stop offset="0.124345" stop-color="#41FF8F"/>
<stop offset="0.867411" stop-color="#A1FFC7"/>
</linearGradient>
<linearGradient id="paint1_linear_287_97" x1="5.55371" y1="11.3333" x2="12.1071" y2="5.89024" gradientUnits="userSpaceOnUse">
<stop stop-color="#41FF8F"/>
<stop offset="1" stop-color="#A1FFC7"/>
</linearGradient>
<clipPath id="clip0_287_97">
<rect width="16" height="16" fill="white"/>
</clipPath>
</defs>
</svg>
