<svg width="16" height="16" viewBox="0 0 16 16" fill="none" xmlns="http://www.w3.org/2000/svg">
<g clip-path="url(#clip0_287_164)">
<path opacity="0.5" fill-rule="evenodd" clip-rule="evenodd" d="M3 8C3 10 1.336 10.163 1.276 10.193C0.781 10.437 0.577 11.037 0.821 11.532C2.126 14.178 4.852 16 8 16C12.415 16 16 12.415 16 8C16 3.585 12.415 0 8 0C4.852 0 2.126 1.822 0.821 4.468C0.577 4.963 0.781 5.563 1.276 5.807C1.336 5.837 3 6 3 8ZM1 7C0.448 7 0 7.448 0 8C0 8.552 0.448 9 1 9C1.552 9 2 8.552 2 8C2 7.448 1.552 7 1 7Z" fill="url(#paint0_linear_287_164)"/>
<path fill-rule="evenodd" clip-rule="evenodd" d="M7 4.99994V7.99994C7 8.33394 7.167 8.64694 7.445 8.83194L10.445 10.8319C10.905 11.1379 11.526 11.0139 11.832 10.5549C12.138 10.0949 12.014 9.47394 11.555 9.16794L9 7.46494V4.99994C9 4.44794 8.552 3.99994 8 3.99994C7.448 3.99994 7 4.44794 7 4.99994Z" fill="url(#paint1_linear_287_164)"/>
<path d="M3.42859 11.2857C3.42859 10.7337 3.87659 10.2857 4.42859 10.2857C4.98059 10.2857 5.42859 10.7337 5.42859 11.2857C5.42859 11.8377 4.98059 12.2857 4.42859 12.2857C3.87659 12.2857 3.42859 11.8377 3.42859 11.2857Z" fill="url(#paint2_linear_287_164)"/>
<path d="M6.85718 13.5714C6.85718 13.0194 7.30518 12.5714 7.85718 12.5714C8.40918 12.5714 8.85718 13.0194 8.85718 13.5714C8.85718 14.1234 8.40918 14.5714 7.85718 14.5714C7.30518 14.5714 6.85718 14.1234 6.85718 13.5714Z" fill="url(#paint3_linear_287_164)"/>
</g>
<defs>
<linearGradient id="paint0_linear_287_164" x1="3" y1="14.9988" x2="12.9991" y2="2.999" gradientUnits="userSpaceOnUse">
<stop stop-color="#FF8860"/>
<stop offset="1" stop-color="#FBD92C"/>
</linearGradient>
<linearGradient id="paint1_linear_287_164" x1="7.93748" y1="10.5618" x2="12.3327" y2="6.79417" gradientUnits="userSpaceOnUse">
<stop stop-color="#FF8860"/>
<stop offset="1" stop-color="#FBD92C"/>
</linearGradient>
<linearGradient id="paint2_linear_287_164" x1="3.80359" y1="12.1606" x2="5.05347" y2="10.6606" gradientUnits="userSpaceOnUse">
<stop stop-color="#FF8860"/>
<stop offset="1" stop-color="#FBD92C"/>
</linearGradient>
<linearGradient id="paint3_linear_287_164" x1="7.23218" y1="14.4463" x2="8.48206" y2="12.9463" gradientUnits="userSpaceOnUse">
<stop stop-color="#FF8860"/>
<stop offset="1" stop-color="#FBD92C"/>
</linearGradient>
<clipPath id="clip0_287_164">
<rect width="16" height="16" fill="white"/>
</clipPath>
</defs>
</svg>
