<svg width="16" height="16" viewBox="0 0 16 16" fill="none" xmlns="http://www.w3.org/2000/svg">
<path fill-rule="evenodd" clip-rule="evenodd" d="M3 13C2.448 13 2 12.552 2 12V3.992C2 1.787 3.787 0 5.992 0C8.357 0 7.643 0 10.008 0C11.067 0 12.082 0.421001 12.831 1.169C13.579 1.918 14 2.933 14 3.992C14 6.357 14 9.643 14 12.008C14 14.213 12.213 16 10.008 16C6.751 16 6 16 6 16C5.448 16 5 15.552 5 15C5 13.896 4.104 13 3 13ZM3 14C3.552 14 4 14.448 4 15C4 15.552 3.552 16 3 16C2.448 16 2 15.552 2 15C2 14.448 2.448 14 3 14Z" fill="url(#paint0_linear_16_1974)"/>
<path fill-rule="evenodd" clip-rule="evenodd" d="M6.58015 4.00344C6.2239 3.96347 5.8734 4.27762 5.878 4.6459C5.8677 5.37311 5.8693 6.10071 5.87085 6.82826C5.8721 7.40151 5.87335 7.97471 5.86875 8.54766C5.85725 8.82771 5.8999 9.15596 6.15585 9.31716C6.5133 9.60076 7.09785 9.35951 7.16935 8.90656C7.19055 8.57006 7.18765 8.23261 7.18475 7.89516C7.18305 7.70041 7.1814 7.50561 7.18435 7.31101C7.46335 7.65896 7.74645 8.00351 8.02965 8.34806C8.2415 8.60586 8.4534 8.86371 8.66365 9.12306C8.8193 9.33246 9.06485 9.48191 9.3312 9.42896C9.80855 9.38781 10.0599 8.73826 9.75665 8.36761C9.45315 7.97876 9.13885 7.59916 8.82455 7.21951C8.6899 7.05686 8.5553 6.89426 8.4215 6.73091C8.6573 6.42931 8.90115 6.13441 9.14495 5.83956C9.33395 5.61096 9.523 5.38241 9.70825 5.15069C9.9077 4.93063 9.9492 4.58118 9.7924 4.32469C9.57565 3.93876 8.9807 3.90226 8.7224 4.26112C8.35725 4.69672 7.99785 5.13756 7.63845 5.57831C7.48725 5.76381 7.336 5.94926 7.18435 6.13436C7.18245 5.93536 7.18345 5.73616 7.1844 5.53691C7.18585 5.24491 7.18725 4.95285 7.1797 4.6612C7.1924 4.32349 6.9076 4.01993 6.58015 4.00344ZM3.80247 6.74151C3.32975 6.59916 2.86165 7.13451 3.03804 7.60046C3.12435 7.91446 3.42429 8.03216 3.70201 8.14116C3.76567 8.16616 3.82817 8.19071 3.88665 8.21701C3.87625 8.56651 3.89935 8.91596 3.96505 9.25956C3.9008 9.30276 3.83114 9.34216 3.76083 9.38196C3.55343 9.49931 3.3406 9.61971 3.24672 9.84906C3.08301 10.2079 3.31246 10.6845 3.69755 10.7586C3.96845 10.8294 4.2073 10.6832 4.434 10.5445C4.48615 10.5126 4.5377 10.4811 4.5888 10.4527C4.8021 10.6727 5.03615 10.8716 5.291 11.0386C5.27695 11.1195 5.2558 11.2022 5.23435 11.2858C5.16955 11.5388 5.10275 11.7993 5.2276 12.04C5.389 12.3988 5.88475 12.5118 6.18915 12.2765C6.40525 12.126 6.4585 11.8649 6.50935 11.6153C6.5225 11.5507 6.53555 11.4868 6.5512 11.4258C6.8348 11.4164 7.1173 11.3799 7.3963 11.3293C7.44585 11.3962 7.49165 11.4702 7.5379 11.5451C7.6779 11.7715 7.82235 12.0051 8.08925 12.0706C8.50665 12.2035 8.96095 11.7976 8.90215 11.3587C8.86745 11.1335 8.74015 10.9474 8.61335 10.762C8.5546 10.6761 8.496 10.5903 8.4467 10.5009C8.4151 10.4528 8.38425 10.4006 8.3527 10.3474C8.2048 10.0976 8.0428 9.82396 7.72725 9.82786C7.5504 9.80086 7.39455 9.86996 7.2382 9.93931C7.1356 9.98481 7.03275 10.0304 6.9236 10.0491C6.2987 10.1468 5.6069 9.81021 5.35785 9.20071C5.13765 8.82301 5.1918 8.37356 5.29905 7.96876C5.38785 7.64991 5.208 7.30866 4.9105 7.19101C4.79255 7.14286 4.67535 7.09281 4.5581 7.04276C4.3086 6.93616 4.059 6.82961 3.80247 6.74151Z" fill="#8C4FD9"/>
<path fill-rule="evenodd" clip-rule="evenodd" d="M7.58015 3.00344C7.2239 2.96347 6.8734 3.27762 6.878 3.6459C6.8677 4.37311 6.8693 5.10071 6.87085 5.82826C6.8721 6.40151 6.87335 6.97471 6.86875 7.54766C6.85725 7.82771 6.8999 8.15596 7.15585 8.31716C7.5133 8.60076 8.09785 8.35951 8.16935 7.90656C8.19055 7.57006 8.18765 7.23261 8.18475 6.89516C8.18305 6.70041 8.1814 6.50561 8.18435 6.31101C8.46335 6.65896 8.74645 7.00351 9.02965 7.34806C9.2415 7.60586 9.4534 7.86371 9.66365 8.12306C9.8193 8.33246 10.0649 8.48191 10.3312 8.42896C10.8086 8.38781 11.0599 7.73826 10.7567 7.36761C10.4532 6.97876 10.1389 6.59916 9.82455 6.21951C9.6899 6.05686 9.5553 5.89426 9.4215 5.73091C9.6573 5.42931 9.90115 5.13441 10.145 4.83956C10.334 4.61096 10.523 4.38241 10.7083 4.15069C10.9077 3.93063 10.9492 3.58118 10.7924 3.32469C10.5757 2.93876 9.9807 2.90226 9.7224 3.26112C9.35725 3.69672 8.99785 4.13756 8.63845 4.57831C8.48725 4.76381 8.336 4.94926 8.18435 5.13436C8.18245 4.93536 8.18345 4.73616 8.1844 4.53691C8.18585 4.24491 8.18725 3.95285 8.1797 3.6612C8.1924 3.32349 7.9076 3.01993 7.58015 3.00344ZM4.80247 5.74151C4.32975 5.59916 3.86165 6.13451 4.03804 6.60046C4.12435 6.91446 4.42429 7.03216 4.70201 7.14116C4.76567 7.16616 4.82817 7.19071 4.88665 7.21701C4.87625 7.56651 4.89935 7.91596 4.96505 8.25956C4.9008 8.30276 4.83114 8.34216 4.76083 8.38196C4.55343 8.49931 4.3406 8.61971 4.24672 8.84906C4.08301 9.20791 4.31246 9.68446 4.69755 9.75861C4.96845 9.82936 5.2073 9.68321 5.434 9.54451C5.48615 9.51256 5.5377 9.48106 5.5888 9.45266C5.8021 9.67271 6.03615 9.87156 6.291 10.0386C6.27695 10.1195 6.2558 10.2022 6.23435 10.2858C6.16955 10.5388 6.10275 10.7993 6.2276 11.04C6.389 11.3988 6.88475 11.5118 7.18915 11.2765C7.40525 11.126 7.4585 10.8649 7.50935 10.6153C7.5225 10.5507 7.53555 10.4868 7.5512 10.4258C7.8348 10.4164 8.1173 10.3799 8.3963 10.3293C8.44585 10.3962 8.49165 10.4702 8.5379 10.5451C8.6779 10.7715 8.82235 11.0051 9.08925 11.0706C9.50665 11.2035 9.96095 10.7976 9.90215 10.3587C9.86745 10.1335 9.74015 9.94736 9.61335 9.76196C9.5546 9.67606 9.496 9.59031 9.4467 9.50091C9.4151 9.45276 9.38425 9.40061 9.3527 9.34741C9.2048 9.09756 9.0428 8.82396 8.72725 8.82786C8.5504 8.80086 8.39455 8.86996 8.2382 8.93931C8.1356 8.98481 8.03275 9.03041 7.9236 9.04906C7.2987 9.14676 6.6069 8.81021 6.35785 8.20071C6.13765 7.82301 6.1918 7.37356 6.29905 6.96876C6.38785 6.64991 6.208 6.30866 5.9105 6.19101C5.79255 6.14286 5.67535 6.09281 5.5581 6.04276C5.3086 5.93616 5.059 5.82961 4.80247 5.74151Z" fill="url(#paint1_linear_16_1974)"/>
<defs>
<linearGradient id="paint0_linear_16_1974" x1="5" y1="14.8571" x2="15.6195" y2="5.56511" gradientUnits="userSpaceOnUse">
<stop stop-color="#A056FF"/>
<stop offset="1" stop-color="#C59AFD"/>
</linearGradient>
<linearGradient id="paint1_linear_16_1974" x1="5.72218" y1="11.4" x2="12.666" y2="9.50181" gradientUnits="userSpaceOnUse">
<stop stop-color="#C59AFD"/>
<stop offset="1" stop-color="white"/>
</linearGradient>
</defs>
</svg>
