<svg width="16" height="16" viewBox="0 0 16 16" fill="none" xmlns="http://www.w3.org/2000/svg">
<g clip-path="url(#clip0_288_222)">
<path opacity="0.5" fill-rule="evenodd" clip-rule="evenodd" d="M3 0.999999C3 0.448 3.448 0 4 0C4 0 9.853 0 13.02 0C13.811 0 14.568 0.313999 15.127 0.872999C15.686 1.432 16 2.189 16 2.98C16 5.644 16 10.356 16 13.02C16 13.811 15.686 14.568 15.127 15.127C14.568 15.686 13.811 16 13.02 16C10.356 16 5.644 16 2.98 16C2.189 16 1.432 15.686 0.873 15.127C0.314 14.568 0 13.811 0 13.02V4C0 3.448 0.448 3 1 3C2.104 3 3 2.104 3 0.999999ZM0 0.999999C0 0.448 0.448 0 1 0C1.552 0 2 0.448 2 0.999999C2 1.552 1.552 2 1 2C0.448 2 0 1.552 0 0.999999Z" fill="url(#paint0_linear_288_222)"/>
<path d="M12.0898 10.8271C12.3434 10.4175 12.486 9.93888 12.4543 9.41238C12.3856 8.26896 11.4823 7.30098 10.3571 7.17868C10.0239 7.13968 9.68636 7.17203 9.3666 7.27371C9.04679 7.3754 8.75192 7.54403 8.50147 7.76856C8.25102 7.99307 8.05056 8.26842 7.91331 8.57646C7.77606 8.88456 7.70514 9.21836 7.70514 9.55602C7.70514 10.8802 8.76698 11.9493 10.0771 11.9493C10.542 11.9493 10.9751 11.811 11.3396 11.5769L12.6128 12.8586C12.8189 13.0661 13.1569 13.0661 13.3629 12.8586C13.5689 12.6512 13.5689 12.3109 13.3629 12.1035L12.0898 10.8271ZM10.0824 10.8856C9.73212 10.8856 9.39617 10.7455 9.14851 10.4961C8.9008 10.2468 8.76167 9.90862 8.76167 9.55602C8.76167 9.20335 8.9008 8.86516 9.14851 8.61583C9.39617 8.36646 9.73212 8.22638 10.0824 8.22638C10.4326 8.22638 10.7686 8.36646 11.0162 8.61583C11.2639 8.86516 11.4031 9.20335 11.4031 9.55602C11.4031 9.90862 11.2639 10.2468 11.0162 10.4961C10.7686 10.7455 10.4326 10.8856 10.0824 10.8856ZM9.89219 6.36497C9.50129 6.37561 9.12617 6.4607 8.78284 6.60428L8.49226 6.16287L6.86517 8.82738C6.8217 8.89875 6.76211 8.95876 6.69125 9.00257C6.62039 9.0464 6.54025 9.07268 6.45736 9.07943C6.37447 9.08618 6.29119 9.07312 6.21426 9.04136C6.13732 9.00953 6.06894 8.95993 6.01466 8.8965L4.89471 7.58287L3.2782 10.1889C3.11444 10.4495 2.76577 10.5186 2.51749 10.3378C2.29561 10.1729 2.23221 9.86448 2.38014 9.62512L4.37701 6.40752C4.56719 6.10437 4.99509 6.07246 5.22754 6.3437L6.34219 7.65203L8.02213 4.90242C8.0683 4.82643 8.13274 4.7634 8.20956 4.71915C8.28639 4.67491 8.37301 4.65087 8.46151 4.64928C8.54995 4.6477 8.63745 4.6686 8.71576 4.71005C8.79409 4.75151 8.86072 4.81218 8.90959 4.88646L9.89219 6.36497ZM11.2604 6.63091C10.9223 6.48197 10.5578 6.39156 10.1775 6.3703L12.5758 2.54637C12.7395 2.28578 13.0883 2.22196 13.3313 2.40278C13.5584 2.56765 13.6165 2.88143 13.4685 3.11545L11.2604 6.63091Z" fill="url(#paint1_linear_288_222)" stroke="url(#paint2_linear_288_222)" stroke-width="0.4"/>
</g>
<defs>
<linearGradient id="paint0_linear_288_222" x1="3" y1="14.9988" x2="12.9991" y2="2.999" gradientUnits="userSpaceOnUse">
<stop stop-color="#FF8860"/>
<stop offset="1" stop-color="#FBD92C"/>
</linearGradient>
<linearGradient id="paint1_linear_288_222" x1="4.40942" y1="12.3438" x2="11.0389" y2="3.98995" gradientUnits="userSpaceOnUse">
<stop stop-color="#FF8860"/>
<stop offset="1" stop-color="#FBD92C"/>
</linearGradient>
<linearGradient id="paint2_linear_288_222" x1="4.40942" y1="12.3438" x2="11.0389" y2="3.98995" gradientUnits="userSpaceOnUse">
<stop stop-color="#FF8860"/>
<stop offset="1" stop-color="#FBD92C"/>
</linearGradient>
<clipPath id="clip0_288_222">
<rect width="16" height="16" fill="white"/>
</clipPath>
</defs>
</svg>
