<svg width="16" height="16" viewBox="0 0 16 16" fill="none" xmlns="http://www.w3.org/2000/svg">
<g clip-path="url(#clip0_287_66)">
<path fill-rule="evenodd" clip-rule="evenodd" d="M11 14.0008C11 13.449 10.552 13.0021 10 13.0021C9.448 13.0021 6.552 13.0021 6 13.0021C5.448 13.0021 5 13.4499 5 14.0016C4.448 14.0016 4 14.4486 4 15.0003C4 15.5521 4.448 15.9999 5 15.9999H11C11.552 15.9999 12 15.5521 12 15.0003C12 14.4486 11.552 14.0008 11 14.0008Z" fill="url(#paint0_linear_287_66)"/>
<path opacity="0.5" fill-rule="evenodd" clip-rule="evenodd" d="M12.959 12.9943H3.041C2.234 12.9943 1.461 12.6744 0.891 12.1037C0.32 11.5339 0 10.7613 0 9.95461C0 7.98248 0 5.01178 0 3.03964C0 2.23299 0.32 1.46033 0.891 0.89058C1.461 0.31983 2.234 -3.05176e-05 3.041 -3.05176e-05H12C12.552 -3.05176e-05 13 0.447774 13 0.999532C13 2.10305 13.896 2.99866 15 2.99866C15.552 2.99866 16 3.44646 16 3.99822V9.9956C15.989 10.7872 15.67 11.5439 15.109 12.1037C14.539 12.6744 13.766 12.9943 12.959 12.9943ZM15 -3.05176e-05C15.552 -3.05176e-05 16 0.447774 16 0.999532C16 1.55129 15.552 1.99909 15 1.99909C14.448 1.99909 14 1.55129 14 0.999532C14 0.447774 14.448 -3.05176e-05 15 -3.05176e-05Z" fill="url(#paint1_linear_287_66)"/>
<path fill-rule="evenodd" clip-rule="evenodd" d="M11.9998 6.99997H0.999778C0.447578 6.99997 -0.00012207 7.44797 -0.00012207 7.99997C-0.00012207 8.55197 0.447578 8.99997 0.999778 8.99997H11.9998C12.552 8.99997 12.9997 8.55197 12.9997 7.99997C12.9997 7.44797 12.552 6.99997 11.9998 6.99997Z" fill="url(#paint2_linear_287_66)"/>
</g>
<defs>
<linearGradient id="paint0_linear_287_66" x1="4.57143" y1="15.8163" x2="7.64803" y2="11.3856" gradientUnits="userSpaceOnUse">
<stop stop-color="#B65592"/>
<stop offset="0.5" stop-color="#FB6F71"/>
<stop offset="1" stop-color="#F9CB52"/>
</linearGradient>
<linearGradient id="paint1_linear_287_66" x1="1.14286" y1="12.1987" x2="14.2643" y2="3.47961" gradientUnits="userSpaceOnUse">
<stop stop-color="#B65592"/>
<stop offset="0.5" stop-color="#FB6F71"/>
<stop offset="1" stop-color="#F9CB52"/>
</linearGradient>
<linearGradient id="paint2_linear_287_66" x1="0.928436" y1="8.87752" x2="2.08357" y2="4.82558" gradientUnits="userSpaceOnUse">
<stop stop-color="#B65592"/>
<stop offset="0.5" stop-color="#FB6F71"/>
<stop offset="1" stop-color="#F9CB52"/>
</linearGradient>
<clipPath id="clip0_287_66">
<rect width="16" height="16" fill="white"/>
</clipPath>
</defs>
</svg>
