<svg width="16" height="16" viewBox="0 0 16 16" fill="none" xmlns="http://www.w3.org/2000/svg">
<g clip-path="url(#clip0_287_58)">
<path opacity="0.5" fill-rule="evenodd" clip-rule="evenodd" d="M1 13C0.448 13 0 12.552 0 12V3.992C0 1.787 1.787 0 3.992 0C6.357 0 9.643 0 12.008 0C13.067 0 14.082 0.421001 14.831 1.169C15.579 1.918 16 2.933 16 3.992C16 6.357 16 9.643 16 12.008C16 14.213 14.213 16 12.008 16C8.751 16 4 16 4 16C3.448 16 3 15.552 3 15C3 13.896 2.104 13 1 13ZM1 14C1.552 14 2 14.448 2 15C2 15.552 1.552 16 1 16C0.448 16 0 15.552 0 15C0 14.448 0.448 14 1 14Z" fill="url(#paint0_linear_287_58)"/>
<path d="M11.4259 8.01887C11.6346 8.01887 11.8348 7.93595 11.9824 7.78834C12.13 7.64074 12.2129 7.44055 12.2129 7.23181V5.52561C12.2115 5.42147 12.2308 5.31809 12.2698 5.2215C12.3087 5.12492 12.3665 5.03705 12.4398 4.96303C12.513 4.88901 12.6003 4.83033 12.6965 4.7904C12.7927 4.75047 12.8959 4.73009 13 4.73046V0.539084C13 0.39611 12.9432 0.258991 12.8421 0.157894C12.741 0.0567957 12.6039 0 12.4609 0H3.53908C3.39611 0 3.25899 0.0567957 3.15789 0.157894C3.0568 0.258991 3 0.39611 3 0.539084V5.20485C3.14672 5.06988 3.33975 4.99653 3.53908 5C3.64267 5 3.74524 5.02045 3.8409 5.06017C3.93657 5.09989 4.02345 5.15811 4.09658 5.23148C4.1697 5.30485 4.22761 5.39193 4.26701 5.48773C4.3064 5.58354 4.3265 5.68617 4.32615 5.78976V7.23181C4.32615 7.44055 4.40907 7.64074 4.55667 7.78834C4.70427 7.93595 4.90447 8.01887 5.11321 8.01887C5.32195 8.01887 5.52214 7.93595 5.66974 7.78834C5.81735 7.64074 5.90027 7.44055 5.90027 7.23181V6.83828C5.90027 6.62953 5.98319 6.42934 6.13079 6.28174C6.2784 6.13414 6.47859 6.05121 6.68733 6.05121C6.89607 6.05121 7.09627 6.13414 7.24387 6.28174C7.39147 6.42934 7.47439 6.62953 7.47439 6.83828V7.23181C7.47439 7.33517 7.49475 7.43751 7.5343 7.533C7.57386 7.62849 7.63183 7.71526 7.70492 7.78834C7.778 7.86143 7.86477 7.9194 7.96026 7.95896C8.05575 7.99851 8.1581 8.01887 8.26146 8.01887C8.36481 8.01887 8.46716 7.99851 8.56265 7.95896C8.65814 7.9194 8.74491 7.86143 8.81799 7.78834C8.89108 7.71526 8.94905 7.62849 8.98861 7.533C9.02816 7.43751 9.04852 7.33517 9.04852 7.23181V4.73046C9.06028 4.52933 9.14847 4.3403 9.29503 4.20206C9.4416 4.06382 9.63545 3.98682 9.83693 3.98682C10.0384 3.98682 10.2323 4.06382 10.3788 4.20206C10.5254 4.3403 10.6136 4.52933 10.6253 4.73046V7.23181C10.625 7.33527 10.6451 7.43777 10.6845 7.53342C10.7239 7.62907 10.7819 7.71598 10.8551 7.78914C10.9282 7.86229 11.0151 7.92026 11.1108 7.95968C11.2064 7.99911 11.3089 8.01922 11.4124 8.01887H11.4259Z" fill="url(#paint1_linear_287_58)"/>
</g>
<defs>
<linearGradient id="paint0_linear_287_58" x1="1.14286" y1="15.0204" x2="15.7918" y2="7.11491" gradientUnits="userSpaceOnUse">
<stop stop-color="#B65592"/>
<stop offset="0.5" stop-color="#FB6F71"/>
<stop offset="1" stop-color="#F9CB52"/>
</linearGradient>
<linearGradient id="paint1_linear_287_58" x1="3.71429" y1="7.52792" x2="11.851" y2="2.05196" gradientUnits="userSpaceOnUse">
<stop stop-color="#B65592"/>
<stop offset="0.5" stop-color="#FB6F71"/>
<stop offset="1" stop-color="#F9CB52"/>
</linearGradient>
<clipPath id="clip0_287_58">
<rect width="16" height="16" fill="white"/>
</clipPath>
</defs>
</svg>
