<svg width="16" height="16" viewBox="0 0 16 16" fill="none" xmlns="http://www.w3.org/2000/svg">
<path fill-rule="evenodd" clip-rule="evenodd" d="M9.75085 1.875H6.25085C6.25085 1.392 5.8571 1 5.37585 1C4.8946 1 4.50085 1.392 4.50085 1.875H3.60835C2.9171 1.875 2.2521 2.14975 1.7621 2.63975C1.2721 3.12888 1.00085 3.793 1.00085 4.48512V11.5C1.00085 11.983 1.3946 12.375 1.87585 12.375C2.83835 12.375 3.62585 13.159 3.62585 14.125C3.62585 14.608 4.0196 15 4.50085 15H12.3934C13.0846 15 13.7496 14.7252 14.2396 14.2352C14.7296 13.7461 15.0009 13.082 15.0009 12.3899C15.0009 10.2479 15.0009 6.62712 15.0009 4.48512C15.0009 3.793 14.7296 3.12888 14.2396 2.63975C13.7496 2.14975 13.0846 1.875 12.3934 1.875H11.5009C11.5009 1.392 11.1071 1 10.6259 1C10.1446 1 9.75085 1.392 9.75085 1.875ZM1.87585 13.25C1.3946 13.25 1.00085 13.642 1.00085 14.125C1.00085 14.608 1.3946 15 1.87585 15C2.3571 15 2.75085 14.608 2.75085 14.125C2.75085 13.642 2.3571 13.25 1.87585 13.25Z" fill="url(#paint0_linear_8_31)"/>
<path fill-rule="evenodd" clip-rule="evenodd" d="M4.50085 13.25H5.37585C5.8571 13.25 6.25085 12.858 6.25085 12.375C6.25085 11.892 5.8571 11.5 5.37585 11.5H4.50085C4.0196 11.5 3.62585 11.892 3.62585 12.375C3.62585 12.858 4.0196 13.25 4.50085 13.25ZM4.50085 10.625H5.37585C5.8571 10.625 6.25085 10.233 6.25085 9.75C6.25085 9.267 5.8571 8.875 5.37585 8.875H4.50085C4.0196 8.875 3.62585 9.267 3.62585 9.75C3.62585 10.233 4.0196 10.625 4.50085 10.625Z" fill="#B85C68"/>
<path fill-rule="evenodd" clip-rule="evenodd" d="M8.87585 13.25H9.75085C10.2321 13.25 10.6259 12.858 10.6259 12.375C10.6259 11.892 10.2321 11.5 9.75085 11.5H8.87585C8.3946 11.5 8.00085 11.892 8.00085 12.375C8.00085 12.858 8.3946 13.25 8.87585 13.25ZM8.87585 10.625H9.75085C10.2321 10.625 10.6259 10.233 10.6259 9.75C10.6259 9.267 10.2321 8.875 9.75085 8.875H8.87585C8.3946 8.875 8.00085 9.267 8.00085 9.75C8.00085 10.233 8.3946 10.625 8.87585 10.625Z" fill="#B85C68"/>
<path fill-rule="evenodd" clip-rule="evenodd" d="M1.00085 7.125H10.6259C11.1071 7.125 11.5009 6.733 11.5009 6.25C11.5009 5.767 11.1071 5.375 10.6259 5.375H1.00085V7.125Z" fill="#B85C68"/>
<path fill-rule="evenodd" clip-rule="evenodd" d="M5.37585 12.375H6.25085C6.73385 12.375 7.12585 11.983 7.12585 11.5C7.12585 11.017 6.73385 10.625 6.25085 10.625H5.37585C4.89285 10.625 4.50085 11.017 4.50085 11.5C4.50085 11.983 4.89285 12.375 5.37585 12.375Z" fill="url(#paint1_linear_8_31)"/>
<path fill-rule="evenodd" clip-rule="evenodd" d="M5.37585 9.75H6.25085C6.73385 9.75 7.12585 9.358 7.12585 8.875C7.12585 8.392 6.73385 8 6.25085 8H5.37585C4.89285 8 4.50085 8.392 4.50085 8.875C4.50085 9.358 4.89285 9.75 5.37585 9.75Z" fill="url(#paint2_linear_8_31)"/>
<path fill-rule="evenodd" clip-rule="evenodd" d="M9.75085 12.375H10.6259C11.1089 12.375 11.5009 11.983 11.5009 11.5C11.5009 11.017 11.1089 10.625 10.6259 10.625H9.75085C9.26785 10.625 8.87585 11.017 8.87585 11.5C8.87585 11.983 9.26785 12.375 9.75085 12.375Z" fill="url(#paint3_linear_8_31)"/>
<path fill-rule="evenodd" clip-rule="evenodd" d="M9.75085 9.75H10.6259C11.1089 9.75 11.5009 9.358 11.5009 8.875C11.5009 8.392 11.1089 8 10.6259 8H9.75085C9.26785 8 8.87585 8.392 8.87585 8.875C8.87585 9.358 9.26785 9.75 9.75085 9.75Z" fill="url(#paint4_linear_8_31)"/>
<path fill-rule="evenodd" clip-rule="evenodd" d="M1.87588 6.25H11.5009C11.9845 6.25 12.3768 5.858 12.3768 5.375C12.3768 4.892 11.9845 4.5 11.5009 4.5H1.87588C1.39222 4.5 1 4.892 1 5.375C1 5.858 1.39222 6.25 1.87588 6.25Z" fill="url(#paint5_linear_8_31)"/>
<defs>
<linearGradient id="paint0_linear_8_31" x1="2.00085" y1="14.1429" x2="14.8187" y2="7.22555" gradientUnits="userSpaceOnUse">
<stop stop-color="#B65592"/>
<stop offset="0.5" stop-color="#FB6F71"/>
<stop offset="1" stop-color="#F9CB52"/>
</linearGradient>
<linearGradient id="paint1_linear_8_31" x1="4.68835" y1="12.2679" x2="6.56313" y2="10.7502" gradientUnits="userSpaceOnUse">
<stop stop-color="#D4A4C4"/>
<stop offset="0.5" stop-color="#F7B1B3"/>
<stop offset="1" stop-color="#F7E1A3"/>
</linearGradient>
<linearGradient id="paint2_linear_8_31" x1="4.68835" y1="9.64286" x2="6.56313" y2="8.12524" gradientUnits="userSpaceOnUse">
<stop stop-color="#D4A4C4"/>
<stop offset="0.5" stop-color="#F7B1B3"/>
<stop offset="1" stop-color="#F7E1A3"/>
</linearGradient>
<linearGradient id="paint3_linear_8_31" x1="9.06335" y1="12.2679" x2="10.9381" y2="10.7502" gradientUnits="userSpaceOnUse">
<stop stop-color="#D4A4C4"/>
<stop offset="0.5" stop-color="#F7B1B3"/>
<stop offset="1" stop-color="#F7E1A3"/>
</linearGradient>
<linearGradient id="paint4_linear_8_31" x1="9.06335" y1="9.64286" x2="10.9381" y2="8.12524" gradientUnits="userSpaceOnUse">
<stop stop-color="#D4A4C4"/>
<stop offset="0.5" stop-color="#F7B1B3"/>
<stop offset="1" stop-color="#F7E1A3"/>
</linearGradient>
<linearGradient id="paint5_linear_8_31" x1="1.81263" y1="6.14286" x2="2.82322" y2="2.59732" gradientUnits="userSpaceOnUse">
<stop stop-color="#D4A4C4"/>
<stop offset="0.5" stop-color="#F7B1B3"/>
<stop offset="1" stop-color="#F7E1A3"/>
</linearGradient>
</defs>
</svg>
