<svg width="16" height="16" viewBox="0 0 16 16" fill="none" xmlns="http://www.w3.org/2000/svg">
<path fill-rule="evenodd" clip-rule="evenodd" d="M11.4288 14.3C13.9537 14.3 16 12.2776 16 9.7824C16 8.88489 15.7352 8.04851 15.2786 7.34543C14.9161 6.7873 14.0786 7.0066 13.4505 7.22665C13.2811 7.28601 13.0989 7.31828 12.9093 7.31828C12.0055 7.31828 11.2729 6.58565 11.2729 5.6819C11.2729 5.35177 11.3706 5.04446 11.5388 4.78737C11.8858 4.25678 12.2611 3.5469 11.8443 3.06919C11.0059 2.10833 9.765 1.5 8.3808 1.5C5.85601 1.5 3.80961 3.5224 3.80961 6.0176C3.80961 6.3361 3.8429 6.6466 3.90625 6.94634C3.9667 7.23238 3.72116 7.52328 3.4288 7.52321C1.5352 7.52401 0 9.0408 0 10.912C0 12.7832 1.5352 14.3 3.4288 14.3H11.4288ZM13.4547 6.22736C14.0572 6.22736 14.5456 5.73894 14.5456 5.13644C14.5456 4.53394 14.0572 4.04552 13.4547 4.04552C12.8522 4.04552 12.3638 4.53394 12.3638 5.13644C12.3638 5.73894 12.8522 6.22736 13.4547 6.22736Z" fill="url(#paint0_linear_17_2183)"/>
<path d="M8.80973 13.3333C10.3138 13.3333 11.5333 12.1747 11.5333 10.7447C11.5333 9.6124 10.767 8.64953 9.69999 8.29827C9.54966 7.0054 8.39466 6 6.99399 6C5.48919 6 4.26966 7.15867 4.26966 8.58867C4.26966 8.904 4.32979 9.2076 4.43833 9.48773C4.30773 9.4634 4.17519 9.45107 4.04233 9.45107C2.91519 9.45107 2 10.3193 2 11.3922C2 12.4643 2.91446 13.3333 4.04306 13.3333H8.80973Z" fill="#344CD8"/>
<path d="M9.80973 12.3333C11.3138 12.3333 12.5333 11.1747 12.5333 9.74467C12.5333 8.6124 11.767 7.64953 10.7 7.29827C10.5497 6.0054 9.39466 5 7.99399 5C6.48919 5 5.26966 6.15867 5.26966 7.58867C5.26966 7.904 5.32979 8.2076 5.43833 8.48773C5.30773 8.4634 5.17519 8.45107 5.04233 8.45107C3.91519 8.45107 3 9.31933 3 10.3922C3 11.4643 3.91446 12.3333 5.04306 12.3333H9.80973Z" fill="url(#paint1_linear_17_2183)"/>
<defs>
<linearGradient id="paint0_linear_17_2183" x1="1" y1="14.3069" x2="15.8001" y2="1.2798" gradientUnits="userSpaceOnUse">
<stop stop-color="#2E4AFA"/>
<stop offset="1" stop-color="#8E9EFF"/>
</linearGradient>
<linearGradient id="paint1_linear_17_2183" x1="2.99993" y1="12.3333" x2="12.0345" y2="12.0322" gradientUnits="userSpaceOnUse">
<stop stop-color="#8E9EFF"/>
<stop offset="1" stop-color="white"/>
</linearGradient>
</defs>
</svg>
