<svg width="16" height="16" viewBox="0 0 16 16" fill="none" xmlns="http://www.w3.org/2000/svg">
<path d="M2.94763 10.4659C2.75997 10.657 2.59532 10.8412 2.45509 11.017C2.41217 11.0706 2.35909 11.1161 2.29888 11.1493C2.23869 11.1825 2.17254 11.2035 2.10422 11.2111C2.03591 11.2187 1.96676 11.2127 1.90074 11.1936C1.83471 11.1746 1.77309 11.1426 1.71941 11.0997C1.66572 11.0567 1.62101 11.0037 1.58783 10.9435C1.55465 10.8834 1.53366 10.8171 1.52605 10.7488C1.51843 10.6805 1.52435 10.6114 1.54347 10.5453C1.56258 10.4793 1.5945 10.4177 1.63743 10.364C1.81952 10.1366 2.02952 9.90426 2.26254 9.66985C2.32915 9.60317 2.41255 9.55571 2.50392 9.53246C2.59528 9.50928 2.69122 9.51112 2.78159 9.53799L2.94763 10.4659Z" fill="#D49F34" stroke="#D49F34" stroke-width="0.4"/>
<path d="M12.4345 3.92887L12.4764 3.97001C12.6023 3.95216 12.725 3.93755 12.8439 3.92664C12.844 3.92663 12.8441 3.92662 12.8442 3.92661L12.4345 3.92887ZM12.4345 3.92887C12.5736 3.90865 12.7088 3.89246 12.8398 3.88009L12.4345 3.92887ZM12.8568 3.88547C12.8614 3.88933 12.8644 3.89492 12.8649 3.90116L12.865 3.90141C12.8655 3.90741 12.8637 3.91351 12.8597 3.91832L12.8568 3.88547Z" fill="url(#paint0_linear_8_415)" stroke="url(#paint1_linear_8_415)"/>
<path d="M12.4345 4.95157L12.4764 4.99272C12.6023 4.97486 12.725 4.96025 12.8439 4.94935C12.844 4.94934 12.8441 4.94933 12.8442 4.94932L12.4345 4.95157ZM12.4345 4.95157C12.5736 4.93136 12.7088 4.91516 12.8398 4.9028L12.4345 4.95157ZM12.8568 4.90817C12.8614 4.91203 12.8644 4.91763 12.8649 4.92387L12.865 4.92411C12.8655 4.93011 12.8637 4.93621 12.8597 4.94102L12.8568 4.90817Z" fill="url(#paint2_linear_8_415)" stroke="url(#paint3_linear_8_415)"/>
<path d="M2.94763 9.44305C2.75997 9.63416 2.59532 9.81839 2.45509 9.99416C2.41217 10.0478 2.35909 10.0933 2.29888 10.1265C2.23869 10.1596 2.17254 10.1806 2.10422 10.1883C2.03591 10.1959 1.96676 10.1899 1.90074 10.1708C1.83471 10.1517 1.77309 10.1198 1.71941 10.0769C1.66572 10.0339 1.62101 9.98086 1.58783 9.92066C1.55465 9.86052 1.53366 9.79432 1.52605 9.726C1.51843 9.65768 1.52435 9.58855 1.54347 9.52248C1.56258 9.45648 1.5945 9.39491 1.63743 9.34118C1.81952 9.11373 2.02952 8.88143 2.26254 8.64702C2.32915 8.58034 2.41255 8.53289 2.50392 8.50964C2.59528 8.48646 2.69122 8.4883 2.78159 8.51516L2.94763 9.44305Z" fill="url(#paint4_linear_8_415)" stroke="url(#paint5_linear_8_415)" stroke-width="0.4"/>
<path fill-rule="evenodd" clip-rule="evenodd" d="M8.64291 3.21429C9.1163 3.21429 9.50005 2.83053 9.50005 2.35714C9.50005 1.88376 9.1163 1.5 8.64291 1.5C8.16952 1.5 7.78577 1.88376 7.78577 2.35714C7.78577 2.83053 8.16952 3.21429 8.64291 3.21429ZM10.1429 2.89285C10.1429 3.78045 9.42331 4.49999 8.53571 4.49999C7.64811 4.49999 6.92857 3.78045 6.92857 2.89285C6.92857 2.68693 6.75348 2.49608 6.55393 2.5469C5.4939 2.81687 4.51576 3.36786 3.72919 4.15444C2.5784 5.30523 1.93188 6.86606 1.93188 8.4935C1.93188 10.121 2.5784 11.6818 3.72919 12.8326C4.87998 13.9834 6.44078 14.6299 8.06823 14.6299C9.69567 14.6299 11.2565 13.9834 12.4073 12.8326C13.5581 11.6818 14.2046 10.121 14.2046 8.4935C14.2046 6.86606 13.5581 5.30523 12.4073 4.15444C11.8018 3.54888 11.0827 3.08296 10.3001 2.77739C10.2234 2.74744 10.1429 2.8105 10.1429 2.89285Z" fill="url(#paint6_linear_8_415)"/>
<path fill-rule="evenodd" clip-rule="evenodd" d="M14.2348 4.42023C14.1672 4.4023 14.0968 4.39808 14.0276 4.40781C13.9583 4.41756 13.8919 4.44107 13.8319 4.47694C13.7719 4.51284 13.7198 4.56036 13.6785 4.61674C13.6371 4.67313 13.6075 4.73721 13.5915 4.80521C13.5752 4.87322 13.5729 4.94376 13.5845 5.01268C13.5961 5.08161 13.6214 5.14751 13.6589 5.20651C13.6963 5.2655 13.7453 5.31639 13.8027 5.35617C13.8602 5.39595 13.925 5.42381 13.9935 5.43812C14.2683 5.50301 14.3744 5.59998 14.4135 5.66277C14.4574 5.73393 14.5062 5.91812 14.3039 6.32415C14.2418 6.4484 14.2318 6.59218 14.2758 6.72387C14.3198 6.85556 14.4143 6.96437 14.5386 7.02635C14.6629 7.08833 14.8067 7.09843 14.9384 7.05439C15.07 7.01037 15.1789 6.91584 15.2408 6.79159C15.5046 6.26206 15.6336 5.64045 15.3008 5.10813C15.0608 4.72442 14.6569 4.5207 14.2348 4.42023ZM14.0779 8.31386C14.1263 8.26511 14.1646 8.20722 14.1907 8.14361C14.2167 8.08006 14.23 8.01195 14.2298 7.94322C14.2295 7.87442 14.2157 7.80645 14.1891 7.74304C14.1626 7.67963 14.1238 7.62208 14.0751 7.57367C14.0262 7.52524 13.9684 7.48691 13.9048 7.46085C13.8412 7.43477 13.7731 7.42149 13.7044 7.42176C13.6356 7.42202 13.5676 7.43581 13.5042 7.46235C13.4408 7.4889 13.3832 7.52767 13.3348 7.57647C12.8562 8.05926 12.2416 8.57411 11.5153 9.09106C11.4023 9.17158 11.3258 9.2937 11.3028 9.43047C11.2797 9.56738 11.3121 9.70776 11.3926 9.82081C11.473 9.93386 11.5951 10.0103 11.732 10.0334C11.8688 10.0564 12.0092 10.0241 12.1223 9.9436C12.8862 9.39945 13.5483 8.8469 14.0779 8.31386ZM10.6161 10.9252C10.6763 10.8907 10.7291 10.8444 10.7713 10.7891C10.8135 10.7339 10.8443 10.6708 10.8618 10.6035C10.8794 10.5363 10.8833 10.4662 10.8735 10.3974C10.8637 10.3286 10.8402 10.2624 10.8046 10.2028C10.7689 10.1431 10.7217 10.0912 10.6657 10.05C10.6097 10.0088 10.546 9.9792 10.4785 9.9629C10.4109 9.94647 10.3408 9.94381 10.2722 9.95485C10.2036 9.96597 10.1378 9.99058 10.0788 10.0273C9.37932 10.4456 8.65939 10.8286 7.92166 11.175C7.79975 11.2363 7.70654 11.3426 7.66202 11.4716C7.61736 11.6005 7.62493 11.7418 7.68295 11.8652C7.74098 11.9887 7.84502 12.0847 7.97266 12.1325C8.10043 12.1804 8.24184 12.1766 8.36675 12.1217C9.13584 11.7602 9.88652 11.3609 10.6161 10.9252ZM1.59178 12.0038C1.63388 11.8715 1.62169 11.7279 1.55791 11.6046C1.49412 11.4813 1.38397 11.3884 1.25167 11.3462C1.11938 11.3042 0.975773 11.3164 0.852459 11.3801C0.729145 11.4439 0.63622 11.5541 0.594125 11.6864C0.460871 12.1057 0.446918 12.5668 0.698777 12.9701C1.01481 13.4752 1.61062 13.6719 2.20154 13.7284C2.27048 13.7361 2.34027 13.7299 2.40683 13.7104C2.47337 13.6908 2.53538 13.6582 2.58921 13.6144C2.64304 13.5707 2.68763 13.5167 2.7204 13.4555C2.75317 13.3944 2.77345 13.3273 2.78006 13.2583C2.78668 13.1892 2.7795 13.1196 2.75893 13.0532C2.73837 12.987 2.70484 12.9255 2.66029 12.8724C2.61573 12.8192 2.56105 12.7754 2.49942 12.7436C2.4378 12.7117 2.37045 12.6924 2.30131 12.6868C1.81712 12.6408 1.63992 12.5006 1.5862 12.4147C1.55132 12.3589 1.51504 12.2445 1.59178 12.0038ZM6.66241 12.8431C6.78936 12.7922 6.89143 12.6937 6.94666 12.5685C7.00189 12.4434 7.00584 12.3015 6.95784 12.1734C6.90977 12.0454 6.81343 11.9412 6.68948 11.8833C6.56552 11.8254 6.42381 11.8183 6.29472 11.8635C5.44009 12.1845 4.64475 12.4155 3.94918 12.5535C3.81605 12.5835 3.69986 12.6642 3.62539 12.7785C3.55092 12.8929 3.52407 13.0318 3.55055 13.1656C3.57703 13.2995 3.65475 13.4177 3.76714 13.4951C3.87953 13.5725 4.01771 13.6029 4.1522 13.5798C4.91474 13.4291 5.76589 13.1794 6.66241 12.8431Z" fill="#D49F34" stroke="#D49F34" stroke-width="0.4"/>
<path fill-rule="evenodd" clip-rule="evenodd" d="M14.2348 3.39753C14.1672 3.37959 14.0968 3.37537 14.0276 3.38511C13.9583 3.39485 13.8919 3.41836 13.8319 3.45424C13.7719 3.49013 13.7198 3.53766 13.6785 3.59404C13.6371 3.65043 13.6075 3.71451 13.5915 3.78251C13.5752 3.85052 13.5729 3.92106 13.5845 3.98998C13.5961 4.0589 13.6214 4.12481 13.6589 4.1838C13.6963 4.2428 13.7453 4.29369 13.8027 4.33346C13.8602 4.37325 13.925 4.40111 13.9935 4.41542C14.2683 4.4803 14.3744 4.57728 14.4135 4.64006C14.4574 4.71123 14.5062 4.89541 14.3039 5.30145C14.2418 5.4257 14.2318 5.56948 14.2758 5.70116C14.3198 5.83285 14.4143 5.94166 14.5386 6.00365C14.6629 6.06563 14.8067 6.07572 14.9384 6.03169C15.07 5.98766 15.1789 5.89313 15.2408 5.76888C15.5046 5.23936 15.6336 4.61774 15.3008 4.08543C15.0608 3.70171 14.6569 3.49799 14.2348 3.39753ZM14.0779 7.29115C14.1263 7.2424 14.1646 7.18451 14.1907 7.1209C14.2167 7.05735 14.23 6.98924 14.2298 6.92051C14.2295 6.85172 14.2157 6.78374 14.1891 6.72033C14.1626 6.65692 14.1238 6.59938 14.0751 6.55097C14.0262 6.50254 13.9684 6.4642 13.9048 6.43814C13.8412 6.41207 13.7731 6.39879 13.7044 6.39905C13.6356 6.39931 13.5676 6.4131 13.5042 6.43965C13.4408 6.46619 13.3832 6.50497 13.3348 6.55376C12.8562 7.03656 12.2416 7.5514 11.5153 8.06835C11.4023 8.14888 11.3258 8.27099 11.3028 8.40776C11.2797 8.54467 11.3121 8.68506 11.3926 8.7981C11.473 8.91115 11.5951 8.98758 11.732 9.0107C11.8688 9.03367 12.0092 9.00142 12.1223 8.9209C12.8862 8.37674 13.5483 7.8242 14.0779 7.29115ZM10.6161 9.90251C10.6763 9.86795 10.7291 9.82165 10.7713 9.76642C10.8135 9.7112 10.8443 9.64813 10.8618 9.58083C10.8794 9.5136 10.8833 9.44351 10.8735 9.37472C10.8637 9.30592 10.8402 9.23972 10.8046 9.18013C10.7689 9.1204 10.7217 9.06851 10.6657 9.02726C10.6097 8.98608 10.546 8.95649 10.4785 8.9402C10.4109 8.92376 10.3408 8.9211 10.2722 8.93215C10.2036 8.94326 10.1378 8.96788 10.0788 9.00463C9.37932 9.42285 8.65939 9.8059 7.92166 10.1523C7.79975 10.2136 7.70654 10.3199 7.66202 10.4489C7.61736 10.5778 7.62493 10.7191 7.68295 10.8425C7.74098 10.966 7.84502 11.0619 7.97266 11.1098C8.10043 11.1577 8.24184 11.1539 8.36675 11.099C9.13584 10.7375 9.88652 10.3382 10.6161 9.90251ZM1.59178 10.9811C1.63388 10.8488 1.62169 10.7052 1.55791 10.5819C1.49412 10.4586 1.38397 10.3657 1.25167 10.3235C1.11938 10.2815 0.975773 10.2937 0.852459 10.3574C0.729145 10.4212 0.63622 10.5314 0.594125 10.6637C0.460871 11.083 0.446918 11.5441 0.698777 11.9474C1.01481 12.4525 1.61062 12.6492 2.20154 12.7057C2.27048 12.7134 2.34027 12.7072 2.40683 12.6877C2.47337 12.6681 2.53538 12.6355 2.58921 12.5917C2.64304 12.548 2.68763 12.494 2.7204 12.4328C2.75317 12.3716 2.77345 12.3046 2.78006 12.2356C2.78668 12.1665 2.7795 12.0969 2.75893 12.0305C2.73837 11.9643 2.70484 11.9028 2.66029 11.8496C2.61573 11.7965 2.56105 11.7527 2.49942 11.7209C2.4378 11.689 2.37045 11.6697 2.30131 11.6641C1.81712 11.6181 1.63992 11.4779 1.5862 11.392C1.55132 11.3362 1.51504 11.2218 1.59178 10.9811ZM6.66241 11.8204C6.78936 11.7695 6.89143 11.671 6.94666 11.5458C7.00189 11.4206 7.00584 11.2788 6.95784 11.1507C6.90977 11.0227 6.81343 10.9185 6.68948 10.8606C6.56552 10.8027 6.42381 10.7956 6.29472 10.8408C5.44009 11.1618 4.64475 11.3928 3.94918 11.5308C3.81605 11.5608 3.69986 11.6415 3.62539 11.7558C3.55092 11.8702 3.52407 12.0091 3.55055 12.1429C3.57703 12.2768 3.65475 12.395 3.76714 12.4724C3.87953 12.5498 4.01771 12.5801 4.1522 12.5571C4.91474 12.4064 5.76589 12.1567 6.66241 11.8204Z" fill="url(#paint7_linear_8_415)" stroke="url(#paint8_linear_8_415)" stroke-width="0.4"/>
<defs>
<linearGradient id="paint0_linear_8_415" x1="11.9857" y1="4.222" x2="12.4849" y2="3.4041" gradientUnits="userSpaceOnUse">
<stop stop-color="#FBD92C"/>
<stop offset="1" stop-color="white"/>
</linearGradient>
<linearGradient id="paint1_linear_8_415" x1="11.9857" y1="4.222" x2="12.4849" y2="3.4041" gradientUnits="userSpaceOnUse">
<stop stop-color="#FBD92C"/>
<stop offset="1" stop-color="white"/>
</linearGradient>
<linearGradient id="paint2_linear_8_415" x1="11.9857" y1="5.24471" x2="12.4849" y2="4.4268" gradientUnits="userSpaceOnUse">
<stop stop-color="#FBD92C"/>
<stop offset="1" stop-color="white"/>
</linearGradient>
<linearGradient id="paint3_linear_8_415" x1="11.9857" y1="5.24471" x2="12.4849" y2="4.4268" gradientUnits="userSpaceOnUse">
<stop stop-color="#FBD92C"/>
<stop offset="1" stop-color="white"/>
</linearGradient>
<linearGradient id="paint4_linear_8_415" x1="1.87903" y1="9.767" x2="2.71512" y2="9.06542" gradientUnits="userSpaceOnUse">
<stop stop-color="#FBD92C"/>
<stop offset="1" stop-color="white"/>
</linearGradient>
<linearGradient id="paint5_linear_8_415" x1="1.87903" y1="9.767" x2="2.71512" y2="9.06542" gradientUnits="userSpaceOnUse">
<stop stop-color="#FBD92C"/>
<stop offset="1" stop-color="white"/>
</linearGradient>
<linearGradient id="paint6_linear_8_415" x1="4.23302" y1="13.8083" x2="12.5206" y2="4.51178" gradientUnits="userSpaceOnUse">
<stop stop-color="#FF8860"/>
<stop offset="1" stop-color="#FBD92C"/>
</linearGradient>
<linearGradient id="paint7_linear_8_415" x1="4.25" y1="10.3767" x2="8.43369" y2="3.64973" gradientUnits="userSpaceOnUse">
<stop stop-color="#FBD92C"/>
<stop offset="1" stop-color="white"/>
</linearGradient>
<linearGradient id="paint8_linear_8_415" x1="4.25" y1="10.3767" x2="8.43369" y2="3.64973" gradientUnits="userSpaceOnUse">
<stop stop-color="#FBD92C"/>
<stop offset="1" stop-color="white"/>
</linearGradient>
</defs>
</svg>
