<svg width="16" height="16" viewBox="0 0 16 16" fill="none" xmlns="http://www.w3.org/2000/svg">
<path fill-rule="evenodd" clip-rule="evenodd" d="M1 13C0.448 13 0 12.552 0 12V3.992C0 1.787 1.787 0 3.992 0C6.357 0 9.643 0 12.008 0C13.067 0 14.082 0.421001 14.831 1.169C15.579 1.918 16 2.933 16 3.992C16 6.357 16 9.643 16 12.008C16 14.213 14.213 16 12.008 16C8.751 16 4 16 4 16C3.448 16 3 15.552 3 15C3 13.896 2.104 13 1 13ZM1 14C1.552 14 2 14.448 2 15C2 15.552 1.552 16 1 16C0.448 16 0 15.552 0 15C0 14.448 0.448 14 1 14Z" fill="url(#paint0_linear_67_1195)"/>
<path d="M7.04988 3.89996C5.90155 3.90227 4.79112 4.31825 3.90799 5.07341C3.82775 5.14205 3.82177 5.26415 3.89517 5.3402L4.34466 5.80633C4.41106 5.87526 4.51945 5.88147 4.5934 5.82049C5.29042 5.24562 6.15578 4.92984 7.04977 4.92737C8.1008 4.92737 9.10866 5.36031 9.85187 6.13092C10.5549 6.86012 10.9666 7.83495 11.0089 8.86101C11.0129 8.95938 11.094 9.03688 11.1922 9.03688H11.8166C11.9203 9.03688 12.0037 8.95077 11.9999 8.84691C11.9538 7.5536 11.4382 6.32304 10.5525 5.40456C9.62348 4.44121 8.36353 3.90001 7.04988 3.89996Z" fill="#D03157" stroke="#D03157" stroke-width="0.6"/>
<path d="M2.75986 7.06844C2.66693 6.97199 2.50543 7.00439 2.45684 7.12914C2.2438 7.6758 2.12307 8.25681 2.10012 8.84641C2.09608 8.95037 2.17933 9.03692 2.28345 9.03692H2.90764C3.00583 9.03692 3.08662 8.95975 3.09092 8.86159C3.10745 8.4853 3.17381 8.113 3.28816 7.75535C3.30871 7.69098 3.29231 7.62069 3.24548 7.57205L2.75986 7.06844Z" fill="#D03157" stroke="#D03157" stroke-width="0.6"/>
<path fill-rule="evenodd" clip-rule="evenodd" d="M7.48429 11.6013C7.53907 10.9754 6.66575 10.7665 6.41099 11.3409C6.39537 11.3759 6.37428 11.4089 6.34866 11.4374C6.25028 11.547 6.18291 11.678 6.15159 11.8176L6.14373 11.8649C6.07656 12.2735 6.30969 12.6108 6.62603 12.6885C6.93589 12.7645 7.29883 12.5848 7.45027 12.2147L7.45038 12.2136L7.48935 12.0952C7.51948 11.9666 7.51992 11.8361 7.49226 11.7155C7.48365 11.678 7.48095 11.6396 7.48429 11.6013ZM7.81418 7.2733C7.85648 7.17772 7.96163 7.12692 8.06281 7.15308C8.16388 7.17912 8.23126 7.27449 8.22221 7.37847L7.86692 11.438C7.85561 11.5674 7.86992 11.6974 7.87747 11.8272C7.88446 11.9474 7.87316 12.0694 7.84432 12.1885L7.84259 12.1958L7.81859 12.2684C7.81772 12.2711 7.81719 12.2738 7.81719 12.2767C7.81719 12.2798 7.81676 12.2829 7.81558 12.2858L7.80589 12.3122C7.60558 12.8553 7.05967 13.1727 6.53841 13.045C6.015 12.9161 5.68704 12.3807 5.78175 11.8052L5.79123 11.7483L5.79221 11.7438C5.83676 11.5397 5.93417 11.35 6.07548 11.1924L7.81418 7.2733Z" fill="#D03157" stroke="#D03157" stroke-width="0.6"/>
<path d="M8.14986 2.79999C7.00152 2.8023 5.89109 3.21828 5.00797 3.97343C4.92772 4.04207 4.92175 4.16417 4.99514 4.24022L5.44463 4.70636C5.51104 4.77528 5.61943 4.78149 5.69338 4.72052C6.39039 4.14565 7.25575 3.82987 8.14975 3.82739C9.20078 3.82739 10.2086 4.26034 10.9518 5.03094C11.6549 5.76015 12.0666 6.73498 12.1089 7.76103C12.1129 7.8594 12.1939 7.93691 12.2922 7.93691H12.9166C13.0203 7.93691 13.1036 7.85079 13.0999 7.74693C13.0538 6.45363 12.5381 5.22306 11.6524 4.30459C10.7235 3.34123 9.4635 2.80003 8.14986 2.79999Z" fill="url(#paint1_linear_67_1195)" stroke="url(#paint2_linear_67_1195)" stroke-width="0.6"/>
<path d="M3.85983 5.96846C3.76691 5.87201 3.6054 5.90441 3.55682 6.02917C3.34378 6.57582 3.22304 7.15683 3.20009 7.74643C3.19606 7.8504 3.27931 7.93695 3.38342 7.93695H4.00761C4.1058 7.93695 4.18659 7.85977 4.1909 7.76161C4.20743 7.38533 4.27379 7.01303 4.38813 6.65537C4.40868 6.591 4.39229 6.52072 4.34546 6.47207L3.85983 5.96846Z" fill="url(#paint3_linear_67_1195)" stroke="url(#paint4_linear_67_1195)" stroke-width="0.6"/>
<path fill-rule="evenodd" clip-rule="evenodd" d="M8.58427 10.5013C8.63905 9.87538 7.76572 9.66646 7.51096 10.2409C7.49535 10.2759 7.47426 10.3088 7.44864 10.3373C7.35025 10.447 7.28289 10.578 7.25157 10.7176L7.24371 10.7648C7.17654 11.1734 7.40967 11.5107 7.726 11.5884C8.03587 11.6644 8.39881 11.4848 8.55025 11.1147L8.55035 11.1136L8.58932 10.9952C8.61946 10.8666 8.61989 10.7361 8.59223 10.6155C8.58362 10.578 8.58092 10.5396 8.58427 10.5013ZM8.91416 6.17326C8.95646 6.07768 9.06161 6.02688 9.16278 6.05304C9.26385 6.07908 9.33123 6.17445 9.32219 6.27843L8.9669 10.338C8.95559 10.4674 8.9699 10.5974 8.97744 10.7272C8.98443 10.8474 8.97314 10.9694 8.9443 11.0885L8.94257 11.0957L8.91857 11.1684C8.9177 11.171 8.91716 11.1737 8.91716 11.1767C8.91716 11.1798 8.91674 11.1829 8.91556 11.1858L8.90587 11.2122C8.70556 11.7553 8.15965 12.0727 7.63839 11.9449C7.11498 11.8161 6.78702 11.2806 6.88173 10.7051L6.89121 10.6483L6.89218 10.6438C6.93673 10.4397 7.03414 10.2499 7.17546 10.0924L8.91416 6.17326Z" fill="url(#paint5_linear_67_1195)" stroke="url(#paint6_linear_67_1195)" stroke-width="0.6"/>
<defs>
<linearGradient id="paint0_linear_67_1195" x1="15.9526" y1="0.101433" x2="0.0791615" y2="15.8427" gradientUnits="userSpaceOnUse">
<stop stop-color="#FE7970"/>
<stop offset="1" stop-color="#DC3282"/>
</linearGradient>
<linearGradient id="paint1_linear_67_1195" x1="5.68873" y1="8.13069" x2="11.5286" y2="4.40432" gradientUnits="userSpaceOnUse">
<stop stop-color="#FF6086"/>
<stop offset="1" stop-color="white"/>
</linearGradient>
<linearGradient id="paint2_linear_67_1195" x1="5.68873" y1="8.13069" x2="11.5286" y2="4.40432" gradientUnits="userSpaceOnUse">
<stop stop-color="#FF6086"/>
<stop offset="1" stop-color="white"/>
</linearGradient>
<linearGradient id="paint3_linear_67_1195" x1="3.30928" y1="8.01333" x2="4.45076" y2="7.74215" gradientUnits="userSpaceOnUse">
<stop stop-color="#FF6086"/>
<stop offset="1" stop-color="white"/>
</linearGradient>
<linearGradient id="paint4_linear_67_1195" x1="3.30928" y1="8.01333" x2="4.45076" y2="7.74215" gradientUnits="userSpaceOnUse">
<stop stop-color="#FF6086"/>
<stop offset="1" stop-color="white"/>
</linearGradient>
<linearGradient id="paint5_linear_67_1195" x1="7.08995" y1="12.1967" x2="9.49906" y2="11.7952" gradientUnits="userSpaceOnUse">
<stop stop-color="#FF6086"/>
<stop offset="1" stop-color="white"/>
</linearGradient>
<linearGradient id="paint6_linear_67_1195" x1="7.08995" y1="12.1967" x2="9.49906" y2="11.7952" gradientUnits="userSpaceOnUse">
<stop stop-color="#FF6086"/>
<stop offset="1" stop-color="white"/>
</linearGradient>
</defs>
</svg>
