<svg width="16" height="16" viewBox="0 0 16 16" fill="none" xmlns="http://www.w3.org/2000/svg">
<g clip-path="url(#clip0_18_2371)">
<path d="M2.4 5.60005C1.6544 5.60005 1.2816 5.60005 0.988001 5.47845C0.793745 5.39804 0.617241 5.28013 0.468576 5.13148C0.319912 4.98281 0.202008 4.80631 0.1216 4.61205C-3.57628e-08 4.31845 0 3.94565 0 3.20005C0 2.45445 -3.57628e-08 2.08165 0.1216 1.78805C0.202008 1.59379 0.319912 1.41729 0.468576 1.26863C0.617241 1.11997 0.793745 1.00206 0.988001 0.921649C1.2816 0.800049 1.6544 0.800049 2.4 0.800049H8.21439C8.17935 0.860585 8.14831 0.923393 8.12159 0.988049C7.99999 1.28165 7.99999 1.65445 7.99999 2.40005V5.60005H2.4ZM16 3.20005C16 3.94565 16 4.31845 15.8784 4.61205C15.798 4.80631 15.6801 4.98281 15.5314 5.13148C15.3828 5.28013 15.2062 5.39804 15.012 5.47845C14.7184 5.60005 14.3456 5.60005 13.6 5.60005H12.8V2.40005C12.8 1.65445 12.8 1.28165 12.6784 0.988049C12.6516 0.923425 12.6206 0.860625 12.5856 0.800049H13.6C14.3456 0.800049 14.7184 0.800049 15.012 0.921649C15.2062 1.00206 15.3828 1.11997 15.5314 1.26863C15.6801 1.41729 15.798 1.59379 15.8784 1.78805C16 2.08165 16 2.45445 16 3.20005Z" fill="url(#paint0_linear_18_2371)"/>
<path d="M12.6784 15.012C12.8 14.7184 12.8 14.3456 12.8 13.6V10.4H13.6C14.3456 10.4 14.7184 10.4 15.012 10.5216C15.2062 10.602 15.3828 10.7199 15.5314 10.8686C15.6801 11.0173 15.798 11.1938 15.8784 11.388C16 11.6816 16 12.0544 16 12.8C16 13.5456 16 13.9184 15.8784 14.212C15.798 14.4063 15.6801 14.5827 15.5314 14.7315C15.3828 14.8801 15.2062 14.998 15.012 15.0784C14.7184 15.2 14.3456 15.2 13.6 15.2H12.5856C12.6208 15.14 12.6512 15.0768 12.6784 15.012ZM8.21439 15.2H2.4C1.6544 15.2 1.2816 15.2 0.988001 15.0784C0.793745 14.998 0.617241 14.8801 0.468576 14.7315C0.319912 14.5827 0.202008 14.4063 0.1216 14.212C-3.57628e-08 13.9184 0 13.5456 0 12.8C0 12.0544 -3.57628e-08 11.6816 0.1216 11.388C0.202008 11.1938 0.319912 11.0173 0.468576 10.8686C0.617241 10.7199 0.793745 10.602 0.988001 10.5216C1.2816 10.4 1.6544 10.4 2.4 10.4H7.99999V13.6C7.99999 14.3456 7.99999 14.7184 8.12159 15.012C8.14879 15.0768 8.17919 15.14 8.21439 15.2Z" fill="url(#paint1_linear_18_2371)"/>
<path d="M12.8 5.60004H13.6C14.3456 5.60004 14.7184 5.60004 15.012 5.72164C15.2062 5.80205 15.3828 5.91996 15.5314 6.06861C15.6801 6.21728 15.798 6.39378 15.8784 6.58804C16 6.88164 16 7.25444 16 8.00004C16 8.74564 16 9.11844 15.8784 9.41204C15.798 9.60628 15.6801 9.78276 15.5314 9.93148C15.3828 10.0801 15.2062 10.198 15.012 10.2784C14.7184 10.4 14.3456 10.4 13.6 10.4H12.8V5.60004ZM7.99999 5.60004V10.4H2.4C1.6544 10.4 1.2816 10.4 0.988001 10.2784C0.793745 10.198 0.617241 10.0801 0.468576 9.93148C0.319912 9.78276 0.202008 9.60628 0.1216 9.41204C-3.57628e-08 9.11844 0 8.74564 0 8.00004C0 7.25444 -3.57628e-08 6.88164 0.1216 6.58804C0.202008 6.39378 0.319912 6.21728 0.468576 6.06861C0.617241 5.91996 0.793745 5.80205 0.988001 5.72164C1.2816 5.60004 1.6544 5.60004 2.4 5.60004H7.99999Z" fill="url(#paint2_linear_18_2371)"/>
<path opacity="0.7" fill-rule="evenodd" clip-rule="evenodd" d="M11.6784 1.988C11.8 2.2816 11.8 2.6544 11.8 3.4V13.6C11.8 14.3456 11.8 14.7184 11.6784 15.012C11.5158 15.4042 11.2042 15.7158 10.812 15.8784C10.5184 16 10.1456 16 9.4 16C8.6544 16 8.2816 16 7.988 15.8784C7.79376 15.798 7.61728 15.6801 7.46856 15.5315C7.31992 15.3827 7.202 15.2063 7.1216 15.012C7 14.7184 7 14.3456 7 13.6V3.4C7 2.6544 7 2.2816 7.1216 1.988C7.284 1.59614 7.59536 1.28478 7.9872 1.1224C8.2824 1 8.6552 1 9.4008 1C10.1464 1 10.5192 1 10.8128 1.1216C11.007 1.20201 11.1836 1.31992 11.3322 1.46858C11.4809 1.61724 11.598 1.79374 11.6784 1.988ZM10 7.20001C10 7.04089 9.9368 6.88825 9.82424 6.77577C9.71176 6.66321 9.55912 6.60001 9.4 6.60001C9.24088 6.60001 9.08824 6.66321 8.97576 6.77577C8.8632 6.88825 8.8 7.04089 8.8 7.20001V8.80001C8.8 8.95913 8.8632 9.11177 8.97576 9.22425C9.08824 9.33681 9.24088 9.40001 9.4 9.40001C9.55912 9.40001 9.71176 9.33681 9.82424 9.22425C9.9368 9.11177 10 8.95913 10 8.80001V7.20001Z" fill="#8CC860"/>
<path fill-rule="evenodd" clip-rule="evenodd" d="M12.6784 0.988001C12.8 1.2816 12.8 1.6544 12.8 2.4V13.6C12.8 14.3456 12.8 14.7184 12.6784 15.012C12.5158 15.4042 12.2042 15.7158 11.812 15.8784C11.5184 16 11.1456 16 10.4 16C9.6544 16 9.2816 16 8.988 15.8784C8.79376 15.798 8.61728 15.6801 8.46856 15.5315C8.31992 15.3827 8.202 15.2063 8.1216 15.012C8 14.7184 8 14.3456 8 13.6V2.4C8 1.6544 8 1.2816 8.1216 0.988001C8.284 0.596136 8.59536 0.284784 8.9872 0.1224C9.2824 9.68575e-08 9.6552 0 10.4008 0C11.1464 0 11.5192 -3.72529e-08 11.8128 0.1216C12.007 0.202008 12.1836 0.31992 12.3322 0.468577C12.4809 0.617241 12.598 0.793745 12.6784 0.988001ZM11 7.20001C11 7.04089 10.9368 6.88825 10.8242 6.77577C10.7118 6.66321 10.5591 6.60001 10.4 6.60001C10.2409 6.60001 10.0882 6.66321 9.97576 6.77577C9.8632 6.88825 9.8 7.04089 9.8 7.20001V8.80001C9.8 8.95913 9.8632 9.11177 9.97576 9.22425C10.0882 9.33681 10.2409 9.40001 10.4 9.40001C10.5591 9.40001 10.7118 9.33681 10.8242 9.22425C10.9368 9.11177 11 8.95913 11 8.80001V7.20001Z" fill="url(#paint3_linear_18_2371)"/>
</g>
<defs>
<linearGradient id="paint0_linear_18_2371" x1="1.14286" y1="5.60005" x2="2.48672" y2="-0.915638" gradientUnits="userSpaceOnUse">
<stop stop-color="#9BE862"/>
<stop offset="1" stop-color="#C8FF9F"/>
</linearGradient>
<linearGradient id="paint1_linear_18_2371" x1="1.14286" y1="15.2" x2="2.48672" y2="8.68434" gradientUnits="userSpaceOnUse">
<stop stop-color="#9BE862"/>
<stop offset="1" stop-color="#C8FF9F"/>
</linearGradient>
<linearGradient id="paint2_linear_18_2371" x1="1.14286" y1="10.4" x2="2.48672" y2="3.88435" gradientUnits="userSpaceOnUse">
<stop stop-color="#9BE862"/>
<stop offset="1" stop-color="#C8FF9F"/>
</linearGradient>
<linearGradient id="paint3_linear_18_2371" x1="8.6" y1="16" x2="15.3359" y2="14.2319" gradientUnits="userSpaceOnUse">
<stop stop-color="#C8FF9F"/>
<stop offset="1" stop-color="white"/>
</linearGradient>
<clipPath id="clip0_18_2371">
<rect width="16" height="16" fill="white"/>
</clipPath>
</defs>
</svg>
