<svg width="16" height="16" viewBox="0 0 16 16" fill="none" xmlns="http://www.w3.org/2000/svg">
<path fill-rule="evenodd" clip-rule="evenodd" d="M0.724687 0.502632C0.418575 0.484502 0.132875 0.754315 0.0910873 1.08597C0.0725391 1.29066 0.178017 1.47102 0.27471 1.63635L0.274737 1.6364L0.288362 1.65972C0.901725 2.62114 1.51289 3.58404 2.12391 4.54672C2.40181 4.98457 2.67969 5.42238 2.95774 5.85999V5.85999C3.03108 5.97776 3.17356 6.02905 3.31122 6.01177C3.37305 6.004 3.43606 6 3.5 6C4.32843 6 5 6.67157 5 7.5C5 8.32843 4.32843 9 3.5 9V9C3.37631 9 3.25524 9.05355 3.18923 9.15815L2.08854 10.9023L1.94914 11.1178C1.33582 12.0662 0.72245 13.0148 0.1183 13.9698C-0.202375 14.3771 0.184375 14.9882 0.616812 14.9989C1.37174 15.0001 8.12696 14.9999 8.88216 14.9998H8.88487H8.88489C9.46155 14.9996 10.0382 14.9995 10.6146 15C10.8741 15.0021 11.0801 14.7729 11.2259 14.5595C11.8794 13.5437 12.537 12.5297 13.1943 11.5163L13.2004 11.5068C13.9307 10.3808 14.6609 9.25484 15.386 8.12562C15.556 7.907 15.5609 7.57 15.388 7.35244C14.7703 6.38141 14.1496 5.41235 13.528 4.44387L12.5578 2.886C12.554 2.87992 12.546 2.87807 12.54 2.88185V2.88185C12.5339 2.88559 12.526 2.88381 12.5222 2.87785C12.1037 2.22638 11.6853 1.57485 11.2677 0.922814C11.1248 0.679664 10.8848 0.480237 10.6098 0.501566C10.2228 0.501566 9.83581 0.50128 9.44885 0.500994L9.44386 0.50099C8.53721 0.500317 1.63071 0.499646 0.724687 0.502632ZM12.7521 7.62261C12.751 7.61665 12.7441 7.61423 12.7389 7.61743V7.61743C12.7333 7.62094 12.7329 7.62919 12.7388 7.63227C12.7497 7.63799 12.7544 7.63514 12.7521 7.62261Z" fill="url(#paint0_linear_145_15961)"/>
<path fill-rule="evenodd" clip-rule="evenodd" d="M3.07538 2.98494C3.10997 2.71047 3.34641 2.48717 3.59974 2.50218C4.34955 2.49971 5.09976 2.50026 5.85009 2.50082C6.17171 2.50106 6.49335 2.5013 7.12534 2.5013C7.35293 2.48364 7.55156 2.64869 7.66979 2.84991C8.01544 3.38953 8.3617 3.92873 8.70802 4.46787C8.7112 4.47281 8.71774 4.47428 8.72272 4.47118C8.72775 4.46805 8.73436 4.46959 8.73749 4.47462L9.54039 5.76389C10.0548 6.56539 10.5685 7.36737 11.0797 8.17098C11.2228 8.35103 11.2187 8.62992 11.0781 8.81086C10.4763 9.74801 9.87019 10.6825 9.2642 11.617L9.26391 11.6174C8.72001 12.4561 8.17606 13.2948 7.63521 14.1354C7.51457 14.312 7.34408 14.5017 7.12935 14.5C6.65228 14.4996 5.86472 14.4997 5.38748 14.4998H5.38524C4.76024 14.4999 4.13523 14.5001 3.51046 14.4991C3.15259 14.4903 2.83252 13.9845 3.0979 13.6474C3.59789 12.857 4.10551 12.072 4.61308 11.2872L4.61331 11.2868C4.65168 11.2275 4.69006 11.1681 4.72844 11.1088L6.26004 8.68185C6.34471 8.54768 6.34521 8.37692 6.26136 8.24226L5.44778 6.93585C5.21767 6.57369 4.9877 6.21137 4.75772 5.84901C4.25204 5.0523 3.74625 4.25542 3.23864 3.45977L3.22737 3.44047C3.14734 3.30363 3.06003 3.15435 3.07538 2.98494ZM8.8983 8.39457C8.8974 8.38964 8.89163 8.38763 8.88738 8.39029C8.88271 8.39318 8.8824 8.40002 8.88727 8.40257C8.89631 8.40729 8.90021 8.40494 8.8983 8.39457Z" fill="#D49F34"/>
<path fill-rule="evenodd" clip-rule="evenodd" d="M4.57538 1.98494C4.60997 1.71047 4.84641 1.48717 5.09974 1.50218C5.84955 1.49971 6.59976 1.50026 7.35009 1.50082C7.67171 1.50106 7.99335 1.5013 8.62534 1.5013C8.85293 1.48364 9.05156 1.64869 9.16979 1.84991C9.51544 2.38953 9.8617 2.92873 10.208 3.46787C10.2112 3.47281 10.2177 3.47428 10.2227 3.47118C10.2277 3.46805 10.2344 3.46959 10.2375 3.47462L11.0404 4.76389C11.5548 5.56539 12.0685 6.36737 12.5797 7.17098C12.7228 7.35103 12.7187 7.62992 12.5781 7.81086C11.9763 8.74801 11.3702 9.68248 10.7642 10.617L10.7639 10.6174C10.22 11.4561 9.67606 12.2948 9.13521 13.1354C9.01457 13.312 8.84408 13.5017 8.62935 13.5C8.15228 13.4996 7.36472 13.4997 6.88748 13.4998H6.88524C6.26024 13.4999 5.63523 13.5001 5.01046 13.4991C4.65259 13.4903 4.33252 12.9845 4.5979 12.6474C5.09789 11.857 5.60551 11.072 6.11308 10.2872L6.11331 10.2868C6.15168 10.2275 6.19006 10.1681 6.22844 10.1088L7.76004 7.68185C7.84471 7.54768 7.84521 7.37692 7.76136 7.24226L6.94778 5.93585C6.71767 5.57369 6.4877 5.21137 6.25772 4.84901C5.75204 4.0523 5.24625 3.25542 4.73864 2.45977L4.72737 2.44047C4.64734 2.30363 4.56003 2.15435 4.57538 1.98494ZM10.3983 7.39457C10.3974 7.38964 10.3916 7.38763 10.3874 7.39029C10.3827 7.39318 10.3824 7.40002 10.3873 7.40257C10.3963 7.40729 10.4002 7.40494 10.3983 7.39457Z" fill="url(#paint1_linear_145_15961)"/>
<circle cx="3" cy="7.5" r="1" fill="url(#paint2_linear_145_15961)"/>
<defs>
<linearGradient id="paint0_linear_145_15961" x1="2.90917" y1="14.0927" x2="11.8412" y2="2.62265" gradientUnits="userSpaceOnUse">
<stop stop-color="#FF8860"/>
<stop offset="1" stop-color="#FBD92C"/>
</linearGradient>
<linearGradient id="paint1_linear_145_15961" x1="6.54632" y1="10.5" x2="12.1325" y2="6.68961" gradientUnits="userSpaceOnUse">
<stop stop-color="#FBD92C"/>
<stop offset="1" stop-color="white"/>
</linearGradient>
<linearGradient id="paint2_linear_145_15961" x1="2.375" y1="8.37485" x2="3.62488" y2="6.87487" gradientUnits="userSpaceOnUse">
<stop stop-color="#FF8860"/>
<stop offset="1" stop-color="#FBD92C"/>
</linearGradient>
</defs>
</svg>
