<svg width="16" height="16" viewBox="0 0 16 16" fill="none" xmlns="http://www.w3.org/2000/svg">
<g clip-path="url(#clip0_14_907)">
<path fill-rule="evenodd" clip-rule="evenodd" d="M11 14.0008V12.0016C11 11.4499 10.552 11.0021 10 11.0021C9.448 11.0021 6.552 11.0021 6 11.0021C5.448 11.0021 5 11.4499 5 12.0016V14.0008C4.448 14.0008 4 14.4486 4 15.0003C4 15.5521 4.448 15.9999 5 15.9999H11C11.552 15.9999 12 15.5521 12 15.0003C12 14.4486 11.552 14.0008 11 14.0008Z" fill="url(#paint0_linear_14_907)"/>
<path fill-rule="evenodd" clip-rule="evenodd" d="M12.959 12.9943H3.041C2.234 12.9943 1.461 12.6745 0.891 12.1037C0.32 11.534 0 10.7613 0 9.95464C0 7.98251 0 5.01181 0 3.03967C0 2.23302 0.32 1.46036 0.891 0.89061C1.461 0.31986 2.234 0 3.041 0H12C12.552 0 13 0.447804 13 0.999563C13 2.10308 13.896 2.99869 15 2.99869C15.552 2.99869 16 3.44649 16 3.99825V9.99563C15.989 10.7873 15.67 11.5439 15.109 12.1037C14.539 12.6745 13.766 12.9943 12.959 12.9943ZM15 0C15.552 0 16 0.447804 16 0.999563C16 1.55132 15.552 1.99913 15 1.99913C14.448 1.99913 14 1.55132 14 0.999563C14 0.447804 14.448 0 15 0Z" fill="url(#paint1_linear_14_907)"/>
<path d="M10.0358 7.07521C11.2037 7.07521 12.1505 6.12844 12.1505 4.96055C12.1505 3.79265 11.2037 2.84589 10.0358 2.84589C8.86791 2.84589 7.92114 3.79265 7.92114 4.96055C7.92114 6.12844 8.86791 7.07521 10.0358 7.07521Z" fill="#7FD1AE"/>
<path fill-rule="evenodd" clip-rule="evenodd" d="M10.8818 2C9.71446 2 8.76709 2.94737 8.76709 4.11466C8.76709 5.28195 9.71446 6.22932 10.8818 6.22932C12.049 6.22932 12.9964 5.28195 12.9964 4.11466C12.9964 2.94737 12.049 2 10.8818 2ZM10.8818 3.69173C11.1152 3.69173 11.3047 3.8812 11.3047 4.11466C11.3047 4.34812 11.1152 4.53759 10.8818 4.53759C10.6483 4.53759 10.4588 4.34812 10.4588 4.11466C10.4588 3.8812 10.6483 3.69173 10.8818 3.69173Z" fill="url(#paint2_linear_14_907)"/>
<path fill-rule="evenodd" clip-rule="evenodd" d="M7.99864 8.8015L7.2509 7.30601C6.8508 6.50583 6.03285 6 5.13708 6C4.3961 6 3.69911 6.3485 3.25419 6.94145C2.52505 7.91419 1.16913 9.7218 1.16913 9.7218C0.88915 10.0957 0.964432 10.626 1.3383 10.906C1.71218 11.186 2.24253 11.1107 2.52251 10.7368C2.52251 10.7368 3.87843 8.92923 4.60757 7.95648C4.73276 7.78985 4.929 7.69173 5.13708 7.69173C5.39169 7.69173 5.6243 7.83553 5.73764 8.06306L6.58943 9.76579C6.80851 10.2039 7.22467 10.5101 7.70851 10.5888C8.19234 10.6666 8.68464 10.5085 9.03059 10.1617L9.75888 9.43336C9.79103 9.40122 9.83416 9.38346 9.87984 9.38346H9.88322C9.9289 9.38346 9.97204 9.40122 10.0042 9.43336L10.5557 9.98571C10.8864 10.3156 11.4219 10.3156 11.7526 9.98571C12.0825 9.65498 12.0825 9.11955 11.7526 8.78881L11.2002 8.23731C10.8509 7.88797 10.3772 7.69173 9.88322 7.69173H9.87984C9.38586 7.69173 8.91217 7.88797 8.56283 8.23731L7.99864 8.8015Z" fill="#7FD1AE"/>
<path fill-rule="evenodd" clip-rule="evenodd" d="M8.99864 8.18499L8.2509 6.6895C7.8508 5.88931 7.03285 5.38348 6.13708 5.38348C5.3961 5.38348 4.69911 5.73198 4.25419 6.32493C3.52505 7.29767 2.16913 9.10529 2.16913 9.10529C1.88915 9.47916 1.96443 10.0095 2.3383 10.2895C2.71218 10.5695 3.24253 10.4942 3.52251 10.1203C3.52251 10.1203 4.87843 8.31271 5.60757 7.33997C5.73276 7.17333 5.929 7.07521 6.13708 7.07521C6.39169 7.07521 6.6243 7.21901 6.73764 7.44655L7.58943 9.14927C7.80851 9.58743 8.22467 9.89363 8.70851 9.9723C9.19234 10.0501 9.68464 9.89194 10.0306 9.54514L10.7589 8.81685C10.791 8.7847 10.8342 8.76694 10.8798 8.76694H10.8832C10.9289 8.76694 10.972 8.7847 11.0042 8.81685L11.5557 9.3692C11.8864 9.69908 12.4219 9.69908 12.7526 9.3692C13.0825 9.03846 13.0825 8.50303 12.7526 8.1723L12.2002 7.62079C11.8509 7.27145 11.3772 7.07521 10.8832 7.07521H10.8798C10.3859 7.07521 9.91217 7.27145 9.56283 7.62079L8.99864 8.18499Z" fill="url(#paint3_linear_14_907)"/>
</g>
<defs>
<linearGradient id="paint0_linear_14_907" x1="5" y1="15.3753" x2="11.938" y2="12.8125" gradientUnits="userSpaceOnUse">
<stop stop-color="#62E8AF"/>
<stop offset="1" stop-color="#B3FBDC"/>
</linearGradient>
<linearGradient id="paint1_linear_14_907" x1="2" y1="11.3704" x2="16.5912" y2="7.22445" gradientUnits="userSpaceOnUse">
<stop stop-color="#62E8AF"/>
<stop offset="1" stop-color="#B3FBDC"/>
</linearGradient>
<linearGradient id="paint2_linear_14_907" x1="8.76709" y1="6.22932" x2="10.011" y2="1.25365" gradientUnits="userSpaceOnUse">
<stop stop-color="#B3FBDC"/>
<stop offset="1" stop-color="white"/>
</linearGradient>
<linearGradient id="paint3_linear_14_907" x1="2" y1="10.4586" x2="2.72213" y2="4.19799" gradientUnits="userSpaceOnUse">
<stop stop-color="#B3FBDC"/>
<stop offset="1" stop-color="white"/>
</linearGradient>
<clipPath id="clip0_14_907">
<rect width="16" height="16" fill="white"/>
</clipPath>
</defs>
</svg>
