<svg width="16" height="16" viewBox="0 0 16 16" fill="none" xmlns="http://www.w3.org/2000/svg">
<g clip-path="url(#clip0_15_1600)">
<path fill-rule="evenodd" clip-rule="evenodd" d="M11 14.0008V12.0016C11 11.4499 10.552 11.0021 10 11.0021C9.448 11.0021 6.552 11.0021 6 11.0021C5.448 11.0021 5 11.4499 5 12.0016V14.0008C4.448 14.0008 4 14.4486 4 15.0003C4 15.5521 4.448 15.9999 5 15.9999H11C11.552 15.9999 12 15.5521 12 15.0003C12 14.4486 11.552 14.0008 11 14.0008Z" fill="url(#paint0_linear_15_1600)"/>
<path fill-rule="evenodd" clip-rule="evenodd" d="M12.959 12.9943H3.041C2.234 12.9943 1.461 12.6745 0.891 12.1037C0.32 11.534 0 10.7613 0 9.95464C0 7.98251 0 5.01181 0 3.03967C0 2.23302 0.32 1.46036 0.891 0.89061C1.461 0.31986 2.234 0 3.041 0H12C12.552 0 13 0.447804 13 0.999563C13 2.10308 13.896 2.99869 15 2.99869C15.552 2.99869 16 3.44649 16 3.99825V9.99563C15.989 10.7873 15.67 11.5439 15.109 12.1037C14.539 12.6745 13.766 12.9943 12.959 12.9943ZM15 0C15.552 0 16 0.447804 16 0.999563C16 1.55132 15.552 1.99913 15 1.99913C14.448 1.99913 14 1.55132 14 0.999563C14 0.447804 14.448 0 15 0Z" fill="url(#paint1_linear_15_1600)"/>
<path fill-rule="evenodd" clip-rule="evenodd" d="M9.9999 8H3.9999C3.4477 8 3 8.448 3 9C3 9.552 3.4477 10 3.9999 10H9.9999C10.5521 10 10.9998 9.552 10.9998 9C10.9998 8.448 10.5521 8 9.9999 8Z" fill="#B85C68"/>
<path fill-rule="evenodd" clip-rule="evenodd" d="M10.9999 7H4.9999C4.4477 7 4 7.448 4 8C4 8.552 4.4477 9 4.9999 9H10.9999C11.5521 9 11.9998 8.552 11.9998 8C11.9998 7.448 11.5521 7 10.9999 7Z" fill="url(#paint2_linear_15_1600)"/>
<path fill-rule="evenodd" clip-rule="evenodd" d="M6.9999 5H3.9999C3.4477 5 3 5.448 3 6C3 6.552 3.4477 7 3.9999 7H6.9999C7.5521 7 7.9998 6.552 7.9998 6C7.9998 5.448 7.5521 5 6.9999 5Z" fill="#B85C68"/>
<path fill-rule="evenodd" clip-rule="evenodd" d="M7.9999 4H4.9999C4.4477 4 4 4.448 4 5C4 5.552 4.4477 6 4.9999 6H7.9999C8.5521 6 8.9998 5.552 8.9998 5C8.9998 4.448 8.5521 4 7.9999 4Z" fill="url(#paint3_linear_15_1600)"/>
</g>
<defs>
<linearGradient id="paint0_linear_15_1600" x1="4.57143" y1="15.6939" x2="9.98748" y2="11.0153" gradientUnits="userSpaceOnUse">
<stop stop-color="#B65592"/>
<stop offset="0.5" stop-color="#FB6F71"/>
<stop offset="1" stop-color="#F9CB52"/>
</linearGradient>
<linearGradient id="paint1_linear_15_1600" x1="1.14286" y1="12.1987" x2="14.2643" y2="3.47964" gradientUnits="userSpaceOnUse">
<stop stop-color="#B65592"/>
<stop offset="0.5" stop-color="#FB6F71"/>
<stop offset="1" stop-color="#F9CB52"/>
</linearGradient>
<linearGradient id="paint2_linear_15_1600" x1="4.57141" y1="8.87755" x2="6.24246" y2="5.27043" gradientUnits="userSpaceOnUse">
<stop stop-color="#D4A4C4"/>
<stop offset="0.5" stop-color="#F7B1B3"/>
<stop offset="1" stop-color="#F7E1A3"/>
</linearGradient>
<linearGradient id="paint3_linear_15_1600" x1="4.35713" y1="5.87755" x2="6.45308" y2="3.04989" gradientUnits="userSpaceOnUse">
<stop stop-color="#D4A4C4"/>
<stop offset="0.5" stop-color="#F7B1B3"/>
<stop offset="1" stop-color="#F7E1A3"/>
</linearGradient>
<clipPath id="clip0_15_1600">
<rect width="16" height="16" fill="white"/>
</clipPath>
</defs>
</svg>
