<svg width="16" height="16" viewBox="0 0 16 16" fill="none" xmlns="http://www.w3.org/2000/svg">
<g clip-path="url(#clip0_277_35)">
<path opacity="0.5" fill-rule="evenodd" clip-rule="evenodd" d="M3 8C3 6 1.336 5.837 1.276 5.807C0.780999 5.563 0.576999 4.963 0.820999 4.468C2.126 1.822 4.852 0 8 0C12.415 0 16 3.585 16 8C16 12.415 12.415 16 8 16C4.852 16 2.126 14.178 0.820999 11.532C0.576999 11.037 0.780999 10.437 1.276 10.193C1.336 10.163 3 10 3 8ZM1 9C0.448 9 0 8.552 0 8C0 7.448 0.448 7 1 7C1.552 7 2 7.448 2 8C2 8.552 1.552 9 1 9Z" fill="url(#paint0_linear_277_35)"/>
<path fill-rule="evenodd" clip-rule="evenodd" d="M8.99044 3.16315C9.20125 3.27565 9.44625 3.45565 9.70212 3.64482L10.8504 4.49149C11.0262 4.62065 11.2071 4.75399 11.3396 4.88399C11.4887 5.03149 11.6671 5.26316 11.6671 5.59399C11.6671 5.92482 11.4887 6.15566 11.3396 6.30399C11.1856 6.44569 11.0221 6.57682 10.8504 6.69649L9.08212 7.99982L10.8504 9.30313C11.0262 9.43231 11.2071 9.56563 11.3396 9.69563C11.4887 9.844 11.6671 10.0748 11.6671 10.4056C11.6671 10.7365 11.4887 10.9681 11.3396 11.1156C11.1854 11.2572 11.022 11.3883 10.8504 11.5081L9.70212 12.3548C9.44625 12.544 9.20212 12.724 8.99044 12.8365C8.77544 12.9515 8.40625 13.0998 8.01375 12.9065C7.62044 12.7131 7.51962 12.3348 7.48375 12.0965C7.44962 11.8631 7.44963 11.5631 7.44963 11.2481V9.28313L6.00461 10.4665C5.87916 10.5687 5.71873 10.6177 5.55759 10.6032C5.39644 10.5888 5.24734 10.5118 5.14211 10.389C5.09063 10.3286 5.05176 10.2586 5.02779 10.1829C5.00381 10.1074 4.99522 10.0277 5.00252 9.94869C5.00983 9.86975 5.03287 9.793 5.0703 9.72306C5.10772 9.65313 5.15878 9.59138 5.22045 9.5415L7.10544 7.99982L5.22045 6.45732C5.15878 6.40742 5.10772 6.34569 5.0703 6.27575C5.03287 6.2058 5.00983 6.12908 5.00252 6.05009C4.99522 5.97111 5.00381 5.89146 5.02779 5.81584C5.05176 5.74022 5.09063 5.67017 5.14211 5.60982C5.24745 5.48704 5.39661 5.4103 5.55776 5.39597C5.7189 5.38165 5.87926 5.43088 6.00461 5.53316L7.44963 6.71565V4.75149C7.44963 4.43649 7.44962 4.13649 7.48375 3.90315C7.51962 3.66482 7.62044 3.28649 8.01375 3.09315C8.40625 2.90065 8.77544 3.04815 8.99044 3.16315ZM8.67375 11.2081V9.20313L10.0887 10.2448C10.1746 10.3081 10.2446 10.3598 10.3046 10.4056C10.2331 10.4598 10.1612 10.5135 10.0887 10.5665L9.00044 11.3681C8.87044 11.464 8.76462 11.5415 8.67544 11.604C8.67375 11.472 8.67319 11.3401 8.67375 11.2081ZM8.67375 4.79149V6.7965L10.0887 5.75482C10.1746 5.69149 10.2446 5.63982 10.3046 5.59399C10.2331 5.53977 10.1612 5.48616 10.0887 5.43316L9.00044 4.63149C8.89275 4.55196 8.78444 4.47334 8.67544 4.39565C8.67375 4.52759 8.67319 4.65954 8.67375 4.79149Z" fill="url(#paint1_linear_277_35)"/>
</g>
<defs>
<linearGradient id="paint0_linear_277_35" x1="1.6" y1="16.005" x2="7.3787" y2="-1.33327" gradientUnits="userSpaceOnUse">
<stop stop-color="#22B4FA"/>
<stop offset="1" stop-color="#6BD6FE"/>
</linearGradient>
<linearGradient id="paint1_linear_277_35" x1="5.66671" y1="13.0032" x2="10.4822" y2="3.37027" gradientUnits="userSpaceOnUse">
<stop stop-color="#22B4FA"/>
<stop offset="1" stop-color="#6BD6FE"/>
</linearGradient>
<clipPath id="clip0_277_35">
<rect width="16" height="16" fill="white"/>
</clipPath>
</defs>
</svg>
