<svg width="16" height="16" viewBox="0 0 16 16" fill="none" xmlns="http://www.w3.org/2000/svg">
<g clip-path="url(#clip0_17_2122)">
<path fill-rule="evenodd" clip-rule="evenodd" d="M15 3C15.552 3 16 3.448 16 4C16 4 16 9.853 16 13.02C16 13.811 15.686 14.568 15.127 15.127C14.568 15.686 13.811 16 13.02 16C10.356 16 5.644 16 2.98 16C2.189 16 1.432 15.686 0.873 15.127C0.314 14.568 0 13.811 0 13.02C0 10.356 0 5.644 0 2.98C0 2.189 0.314 1.432 0.873 0.873C1.432 0.314 2.189 0 2.98 0H12C12.552 0 13 0.448 13 1C13 2.104 13.896 3 15 3ZM15 0C15.552 0 16 0.448 16 1C16 1.552 15.552 2 15 2C14.448 2 14 1.552 14 1C14 0.448 14.448 0 15 0Z" fill="url(#paint0_linear_17_2122)"/>
<path fill-rule="evenodd" clip-rule="evenodd" d="M10.3567 7.53228C10.6598 7.53228 10.9508 7.65271 11.1652 7.86708C11.3796 8.08142 11.5 8.37217 11.5 8.67533V10.7947C11.5 11.4726 11.2307 12.1227 10.7514 12.602C10.2721 13.0813 9.62192 13.3506 8.94408 13.3506H7.17808C6.62058 13.3517 6.08241 13.1466 5.66708 12.7748L2.84062 10.1957L2.83934 10.1945L2.83811 10.1933C2.67714 10.0337 2.56729 9.82975 2.52252 9.6075C2.47774 9.38525 2.50006 9.15475 2.58665 8.94525C2.67323 8.73567 2.82017 8.55667 3.00877 8.43083C3.19728 8.30508 3.4189 8.23825 3.64548 8.23875C3.88801 8.23717 4.12446 8.3145 4.3192 8.45908L4.97525 8.90617V5.14302C4.97525 4.83988 5.09566 4.54914 5.31 4.33478C5.52433 4.12042 5.81508 4 6.11825 4C6.42141 4 6.71208 4.12042 6.9265 4.33478C7.14083 4.54914 7.26125 4.83988 7.26125 5.14302V6.8612C7.47317 6.80984 7.69625 6.82 7.90383 6.89175C8.12358 6.96769 8.31433 7.10859 8.45133 7.2949C8.60416 7.21945 8.77258 7.17967 8.94375 7.17906C9.13641 7.17956 9.32625 7.22871 9.49475 7.32197C9.6405 7.40262 9.76658 7.51399 9.86442 7.64802C10.0172 7.57263 10.1856 7.5329 10.3567 7.53228Z" fill="#45C5C2"/>
<path fill-rule="evenodd" clip-rule="evenodd" d="M11.3567 6.53228C11.6598 6.53228 11.9508 6.65271 12.1652 6.86708C12.3796 7.08142 12.5 7.37217 12.5 7.67533V9.79467C12.5 10.4726 12.2307 11.1227 11.7514 11.602C11.2721 12.0813 10.6219 12.3506 9.94408 12.3506H8.17808C7.62058 12.3517 7.08241 12.1466 6.66708 11.7748L3.84062 9.19567L3.83934 9.1945L3.83811 9.19333C3.67714 9.03367 3.56729 8.82975 3.52252 8.6075C3.47774 8.38525 3.50006 8.15475 3.58665 7.94525C3.67323 7.73567 3.82017 7.55667 4.00877 7.43083C4.19728 7.30508 4.4189 7.23825 4.64548 7.23875C4.88801 7.23717 5.12446 7.3145 5.3192 7.45908L5.97525 7.90617V4.14302C5.97525 3.83988 6.09566 3.54914 6.31 3.33478C6.52433 3.12042 6.81508 3 7.11825 3C7.42141 3 7.71208 3.12042 7.9265 3.33478C8.14083 3.54914 8.26125 3.83988 8.26125 4.14302V5.8612C8.47317 5.80984 8.69625 5.82 8.90383 5.89175C9.12358 5.96769 9.31433 6.10859 9.45133 6.2949C9.60416 6.21945 9.77258 6.17967 9.94375 6.17906C10.1364 6.17956 10.3262 6.22871 10.4947 6.32197C10.6405 6.40262 10.7666 6.51399 10.8644 6.64802C11.0172 6.57263 11.1856 6.5329 11.3567 6.53228Z" fill="url(#paint1_linear_17_2122)"/>
</g>
<defs>
<linearGradient id="paint0_linear_17_2122" x1="3" y1="14" x2="14" y2="2" gradientUnits="userSpaceOnUse">
<stop stop-color="#00DAD4"/>
<stop offset="1" stop-color="#C4FFFD"/>
</linearGradient>
<linearGradient id="paint1_linear_17_2122" x1="5.30005" y1="11.0149" x2="8.84783" y2="4.64066" gradientUnits="userSpaceOnUse">
<stop stop-color="#7EEFEC"/>
<stop offset="1" stop-color="white"/>
</linearGradient>
<clipPath id="clip0_17_2122">
<rect width="16" height="16" fill="white"/>
</clipPath>
</defs>
</svg>
