<svg width="16" height="16" viewBox="0 0 16 16" fill="none" xmlns="http://www.w3.org/2000/svg">
<g clip-path="url(#clip0_16_1884)">
<path fill-rule="evenodd" clip-rule="evenodd" d="M1 13C0.448 13 0 12.552 0 12V3.992C0 1.787 1.787 0 3.992 0C6.357 0 9.643 0 12.008 0C13.067 0 14.082 0.421001 14.831 1.169C15.579 1.918 16 2.933 16 3.992C16 6.357 16 9.643 16 12.008C16 14.213 14.213 16 12.008 16C8.751 16 4 16 4 16C3.448 16 3 15.552 3 15C3 13.896 2.104 13 1 13ZM1 14C1.552 14 2 14.448 2 15C2 15.552 1.552 16 1 16C0.448 16 0 15.552 0 15C0 14.448 0.448 14 1 14Z" fill="url(#paint0_linear_16_1884)"/>
<path d="M3.9939 6.01562C3.854 5.99997 3.6688 5.97926 3.49678 6.0479C3.1173 6.17549 2.97535 6.54959 3.01342 6.8742C3.05165 7.20042 3.27819 7.53105 3.68465 7.56016C5.93844 7.76437 7.92324 9.54146 8.365 11.7384L8.36579 11.7424L8.3668 11.7463C8.38837 11.828 8.40094 11.9193 8.41404 12.022C8.41494 12.0291 8.41585 12.0361 8.41677 12.0432C8.42868 12.137 8.44169 12.2394 8.46378 12.3372C8.5117 12.5504 8.60853 12.7712 8.85914 12.8976C9.10632 13.0435 9.40118 13.0171 9.62785 12.8936C9.85634 12.7692 10.038 12.5336 10.0342 12.2396L10.0342 12.2351L10.0338 12.2306C9.91085 10.6996 9.22769 9.22277 8.15945 8.11491C7.08022 6.97046 5.59123 6.2201 4.02498 6.0191L4.02369 6.01892L4.02239 6.01877C4.01313 6.01777 4.00363 6.01671 3.9939 6.01562Z" fill="#7FD1AE" stroke="#7FD1AE" stroke-width="0.4"/>
<path fill-rule="evenodd" clip-rule="evenodd" d="M2.81111 9.11329C2.6191 9.10281 2.43511 9.14824 2.26977 9.24786C1.98512 9.41215 1.83623 9.70212 1.80599 9.98341C1.776 10.2625 1.85812 10.5726 2.08531 10.7944C2.21181 10.9268 2.36215 10.9914 2.48491 11.0298C2.54715 11.0493 2.60863 11.0638 2.65994 11.0755L2.68851 11.082C2.72937 11.0913 2.76315 11.0991 2.79504 11.1076L2.80434 11.1103L2.81326 11.112C3.85879 11.3484 4.71746 12.2433 4.91515 13.2849C4.96969 13.6609 5.22839 14.0721 5.69135 14.1723C6.02573 14.2566 6.35262 14.1407 6.57501 13.9424C6.79833 13.743 6.95169 13.4276 6.88871 13.0785C6.59468 11.0688 4.86842 9.37353 2.83474 9.11543L2.83002 9.11437L2.81111 9.11329Z" fill="#7FD1AE"/>
<path d="M4.9939 5.01562C4.854 4.99997 4.6688 4.97926 4.49678 5.0479C4.1173 5.17549 3.97535 5.54959 4.01342 5.8742C4.05165 6.20042 4.27819 6.53105 4.68465 6.56016C6.93844 6.76437 8.92324 8.54146 9.365 10.7384L9.36579 10.7424L9.3668 10.7463C9.38837 10.828 9.40094 10.9193 9.41404 11.022C9.41494 11.0291 9.41585 11.0361 9.41677 11.0432C9.42868 11.137 9.44169 11.2394 9.46378 11.3372C9.5117 11.5504 9.60853 11.7712 9.85914 11.8976C10.1063 12.0435 10.4012 12.0171 10.6279 11.8936C10.8563 11.7692 11.038 11.5336 11.0342 11.2396L11.0342 11.2351L11.0338 11.2306C10.9109 9.69956 10.2277 8.22277 9.15945 7.11491C8.08022 5.97046 6.59123 5.2201 5.02498 5.0191L5.02369 5.01892L5.02239 5.01877C5.01313 5.01777 5.00363 5.01671 4.9939 5.01562Z" fill="url(#paint1_linear_16_1884)" stroke="url(#paint2_linear_16_1884)" stroke-width="0.4"/>
<path d="M3.80019 8.31295C3.64743 8.30461 3.50265 8.34056 3.37135 8.4201C3.15044 8.54683 3.02957 8.77466 3.00483 9.00473C2.9802 9.23385 3.04905 9.48109 3.22753 9.65372C3.32159 9.75328 3.43685 9.8052 3.54453 9.83887C3.59879 9.85582 3.65359 9.86886 3.70429 9.88045C3.71374 9.8826 3.72298 9.88475 3.73205 9.88677C3.77332 9.89618 3.81129 9.90481 3.8484 9.91476L3.85114 9.91556L3.8539 9.91608C4.98032 10.1693 5.90139 11.1292 6.11249 12.2521C6.15759 12.5732 6.37468 12.9007 6.73694 12.9775C6.99774 13.0445 7.2596 12.9556 7.44182 12.7931C7.62443 12.6301 7.74108 12.38 7.6913 12.1108C7.4118 10.1889 5.75593 8.56081 3.80979 8.31382L3.80502 8.31322L3.80019 8.31295Z" fill="url(#paint3_linear_16_1884)" stroke="url(#paint4_linear_16_1884)" stroke-width="0.4"/>
</g>
<defs>
<linearGradient id="paint0_linear_16_1884" x1="2" y1="14.0004" x2="16.972" y2="10.5455" gradientUnits="userSpaceOnUse">
<stop stop-color="#62E8AF"/>
<stop offset="1" stop-color="#B3FBDC"/>
</linearGradient>
<linearGradient id="paint1_linear_16_1884" x1="4.00745" y1="11.997" x2="6.05765" y2="3.76113" gradientUnits="userSpaceOnUse">
<stop stop-color="#B3FBDC"/>
<stop offset="1" stop-color="white"/>
</linearGradient>
<linearGradient id="paint2_linear_16_1884" x1="4.00745" y1="11.997" x2="6.05765" y2="3.76113" gradientUnits="userSpaceOnUse">
<stop stop-color="#B3FBDC"/>
<stop offset="1" stop-color="white"/>
</linearGradient>
<linearGradient id="paint3_linear_16_1884" x1="3" y1="13" x2="4.3751" y2="7.48242" gradientUnits="userSpaceOnUse">
<stop stop-color="#B3FBDC"/>
<stop offset="1" stop-color="white"/>
</linearGradient>
<linearGradient id="paint4_linear_16_1884" x1="3" y1="13" x2="4.3751" y2="7.48242" gradientUnits="userSpaceOnUse">
<stop stop-color="#B3FBDC"/>
<stop offset="1" stop-color="white"/>
</linearGradient>
<clipPath id="clip0_16_1884">
<rect width="16" height="16" fill="white"/>
</clipPath>
</defs>
</svg>
