<svg width="16" height="16" viewBox="0 0 16 16" fill="none" xmlns="http://www.w3.org/2000/svg">
<g clip-path="url(#clip0_287_105)">
<path opacity="0.5" fill-rule="evenodd" clip-rule="evenodd" d="M15 3C15.552 3 16 3.448 16 4C16 4 16 9.853 16 13.02C16 13.811 15.686 14.568 15.127 15.127C14.568 15.686 13.811 16 13.02 16C10.356 16 5.644 16 2.98 16C2.189 16 1.432 15.686 0.873 15.127C0.314 14.568 0 13.811 0 13.02C0 10.356 0 5.644 0 2.98C0 2.189 0.314 1.432 0.873 0.873C1.432 0.314 2.189 0 2.98 0H12C12.552 0 13 0.448 13 1C13 2.104 13.896 3 15 3ZM15 0C15.552 0 16 0.448 16 1C16 1.552 15.552 2 15 2C14.448 2 14 1.552 14 1C14 0.448 14.448 0 15 0Z" fill="url(#paint0_linear_287_105)"/>
<path fill-rule="evenodd" clip-rule="evenodd" d="M6.65111 2.56024C6.27895 2.91895 6.06986 3.40547 6.06986 3.91277C6.06986 4.42007 6.27895 4.90659 6.65111 5.26531C7.0233 5.62402 7.52806 5.82555 8.05439 5.82555C8.58066 5.82555 9.08548 5.62402 9.45765 5.26531C9.82982 4.90659 10.0389 4.42007 10.0389 3.91277C10.0389 3.40547 9.82982 2.91895 9.45765 2.56024C9.08548 2.20153 8.58066 2 8.05439 2C7.52806 2 7.0233 2.20153 6.65111 2.56024ZM3.75921 8.67659L5.32877 9.18088C5.51857 9.24209 5.6131 9.27273 5.68454 9.31511C5.80345 9.38583 5.89852 9.48823 5.95821 9.60999C6.01791 9.73169 6.03966 9.86755 6.02083 10.0009C6.00928 10.081 5.97392 10.1706 5.90175 10.3508L5.00187 12.6051C4.90507 12.8463 4.90647 13.1138 5.00579 13.354C5.10511 13.5943 5.295 13.7894 5.53736 13.9003C5.77973 14.0112 6.05664 14.0297 6.31254 13.952C6.56844 13.8743 6.78438 13.7063 6.91709 13.4815L8.05439 11.5639L9.19169 13.4822C9.32441 13.7069 9.54037 13.875 9.79623 13.9527C10.0521 14.0304 10.3291 14.0119 10.5715 13.901C10.8138 13.7901 11.0037 13.5949 11.103 13.3547C11.2023 13.1145 11.2037 12.847 11.1069 12.6058L10.207 10.3508L10.202 10.3381C10.1339 10.1664 10.0993 10.0791 10.088 10.0009C10.0691 9.86755 10.0909 9.73169 10.1506 9.60999C10.2103 9.48823 10.3054 9.38583 10.4242 9.31511C10.4957 9.27273 10.5902 9.24209 10.78 9.18088L12.3496 8.67659C12.6189 8.59137 12.844 8.40965 12.9783 8.16895C13.1126 7.92832 13.1459 7.64715 13.0711 7.38355C12.9965 7.11994 12.8196 6.89406 12.5771 6.75257C12.3346 6.61109 12.0449 6.56483 11.7679 6.62334L10.399 6.90643C8.90566 7.22553 7.35913 7.23596 5.86134 6.93704L5.7098 6.90643L4.34013 6.62334C4.0634 6.56543 3.77415 6.61207 3.53205 6.75366C3.28995 6.89525 3.11345 7.12099 3.03895 7.38432C2.96445 7.64765 2.99762 7.92851 3.13164 8.16895C3.26565 8.40939 3.49028 8.59111 3.75921 8.67659Z" fill="url(#paint1_linear_287_105)"/>
</g>
<defs>
<linearGradient id="paint0_linear_287_105" x1="1.6" y1="16.005" x2="7.3787" y2="-1.33327" gradientUnits="userSpaceOnUse">
<stop stop-color="#22B4FA"/>
<stop offset="1" stop-color="#6BD6FE"/>
</linearGradient>
<linearGradient id="paint1_linear_287_105" x1="4.01102" y1="14.0038" x2="8.95319" y2="1.51063" gradientUnits="userSpaceOnUse">
<stop offset="0.190745" stop-color="#22B4FA"/>
<stop offset="0.896724" stop-color="#7DDCFF"/>
</linearGradient>
<clipPath id="clip0_287_105">
<rect width="16" height="16" fill="white"/>
</clipPath>
</defs>
</svg>
