<svg width="16" height="16" viewBox="0 0 16 16" fill="none" xmlns="http://www.w3.org/2000/svg">
<path fill-rule="evenodd" clip-rule="evenodd" d="M1.875 12.375C1.392 12.375 1 11.983 1 11.5V4.493C1 2.56362 2.56362 1 4.493 1C6.56237 1 9.43762 1 11.507 1C12.4336 1 13.3218 1.36838 13.9771 2.02288C14.6316 2.67825 15 3.56637 15 4.493C15 6.56237 15 9.43762 15 11.507C15 13.4364 13.4364 15 11.507 15C8.65712 15 4.5 15 4.5 15C4.017 15 3.625 14.608 3.625 14.125C3.625 13.159 2.841 12.375 1.875 12.375ZM1.875 13.25C2.358 13.25 2.75 13.642 2.75 14.125C2.75 14.608 2.358 15 1.875 15C1.392 15 1 14.608 1 14.125C1 13.642 1.392 13.25 1.875 13.25Z" fill="url(#paint0_linear_127_2)"/>
<path fill-rule="evenodd" clip-rule="evenodd" d="M0.333333 4.66663C0.149333 4.66663 0 4.51729 0 4.33329V2.99729C0 2.26229 0.595667 1.66663 1.33067 1.66663C2.119 1.66663 3.21433 1.66663 4.00267 1.66663C4.35567 1.66663 4.694 1.80696 4.94367 2.05629C5.193 2.30596 5.33333 2.64429 5.33333 2.99729C5.33333 3.78563 5.33333 3.54763 5.33333 4.33596C5.33333 5.07096 4.73767 5.66663 4.00267 5.66663C2.917 5.66663 1.33333 5.66663 1.33333 5.66663C1.14933 5.66663 1 5.51729 1 5.33329C1 4.96529 0.701333 4.66663 0.333333 4.66663ZM0.333333 4.99996C0.517333 4.99996 0.666667 5.14929 0.666667 5.33329C0.666667 5.51729 0.517333 5.66663 0.333333 5.66663C0.149333 5.66663 0 5.51729 0 5.33329C0 5.14929 0.149333 4.99996 0.333333 4.99996Z" fill="#279FD7"/>
<path fill-rule="evenodd" clip-rule="evenodd" d="M0.999959 4C0.815959 4 0.666626 3.85067 0.666626 3.66667V2.33067C0.666626 1.59567 1.26229 1 1.99729 1C2.78563 1 3.88096 1 4.66929 1C5.02229 1 5.36063 1.14033 5.61029 1.38967C5.85963 1.63933 5.99996 1.97767 5.99996 2.33067C5.99996 3.119 5.99996 2.881 5.99996 3.66933C5.99996 4.40433 5.40429 5 4.66929 5C3.58363 5 1.99996 5 1.99996 5C1.81596 5 1.66663 4.85067 1.66663 4.66667C1.66663 4.29867 1.36796 4 0.999959 4ZM0.999959 4.33333C1.18396 4.33333 1.33329 4.48267 1.33329 4.66667C1.33329 4.85067 1.18396 5 0.999959 5C0.815959 5 0.666626 4.85067 0.666626 4.66667C0.666626 4.48267 0.815959 4.33333 0.999959 4.33333Z" fill="url(#paint1_linear_127_2)"/>
<path fill-rule="evenodd" clip-rule="evenodd" d="M10.3333 4.66663C10.1493 4.66663 10 4.51729 10 4.33329V2.99729C10 2.26229 10.5957 1.66663 11.3307 1.66663C12.119 1.66663 13.2143 1.66663 14.0027 1.66663C14.3557 1.66663 14.694 1.80696 14.9437 2.05629C15.193 2.30596 15.3333 2.64429 15.3333 2.99729C15.3333 3.78563 15.3333 3.54763 15.3333 4.33596C15.3333 5.07096 14.7377 5.66663 14.0027 5.66663C12.917 5.66663 11.3333 5.66663 11.3333 5.66663C11.1493 5.66663 11 5.51729 11 5.33329C11 4.96529 10.7013 4.66663 10.3333 4.66663ZM10.3333 4.99996C10.5173 4.99996 10.6667 5.14929 10.6667 5.33329C10.6667 5.51729 10.5173 5.66663 10.3333 5.66663C10.1493 5.66663 10 5.51729 10 5.33329C10 5.14929 10.1493 4.99996 10.3333 4.99996Z" fill="#279FD7"/>
<path fill-rule="evenodd" clip-rule="evenodd" d="M11 4C10.816 4 10.6666 3.85067 10.6666 3.66667V2.33067C10.6666 1.59567 11.2623 1 11.9973 1C12.7856 1 13.881 1 14.6693 1C15.0223 1 15.3606 1.14033 15.6103 1.38967C15.8596 1.63933 16 1.97767 16 2.33067C16 3.119 16 2.881 16 3.66933C16 4.40433 15.4043 5 14.6693 5C13.5836 5 12 5 12 5C11.816 5 11.6666 4.85067 11.6666 4.66667C11.6666 4.29867 11.368 4 11 4ZM11 4.33333C11.184 4.33333 11.3333 4.48267 11.3333 4.66667C11.3333 4.85067 11.184 5 11 5C10.816 5 10.6666 4.85067 10.6666 4.66667C10.6666 4.48267 10.816 4.33333 11 4.33333Z" fill="url(#paint2_linear_127_2)"/>
<path fill-rule="evenodd" clip-rule="evenodd" d="M0.333333 14.6666C0.149333 14.6666 0 14.5173 0 14.3333V12.9973C0 12.2623 0.595667 11.6666 1.33067 11.6666C2.119 11.6666 3.21433 11.6666 4.00267 11.6666C4.35567 11.6666 4.694 11.807 4.94367 12.0563C5.193 12.306 5.33333 12.6443 5.33333 12.9973C5.33333 13.7856 5.33333 13.5476 5.33333 14.336C5.33333 15.071 4.73767 15.6666 4.00267 15.6666C2.917 15.6666 1.33333 15.6666 1.33333 15.6666C1.14933 15.6666 1 15.5173 1 15.3333C1 14.9653 0.701333 14.6666 0.333333 14.6666ZM0.333333 15C0.517333 15 0.666667 15.1493 0.666667 15.3333C0.666667 15.5173 0.517333 15.6666 0.333333 15.6666C0.149333 15.6666 0 15.5173 0 15.3333C0 15.1493 0.149333 15 0.333333 15Z" fill="#279FD7"/>
<path fill-rule="evenodd" clip-rule="evenodd" d="M0.999959 14C0.815959 14 0.666626 13.8507 0.666626 13.6667V12.3307C0.666626 11.5957 1.26229 11 1.99729 11C2.78563 11 3.88096 11 4.66929 11C5.02229 11 5.36063 11.1403 5.61029 11.3897C5.85963 11.6393 5.99996 11.9777 5.99996 12.3307C5.99996 13.119 5.99996 12.881 5.99996 13.6693C5.99996 14.4043 5.40429 15 4.66929 15C3.58363 15 1.99996 15 1.99996 15C1.81596 15 1.66663 14.8507 1.66663 14.6667C1.66663 14.2987 1.36796 14 0.999959 14ZM0.999959 14.3333C1.18396 14.3333 1.33329 14.4827 1.33329 14.6667C1.33329 14.8507 1.18396 15 0.999959 15C0.815959 15 0.666626 14.8507 0.666626 14.6667C0.666626 14.4827 0.815959 14.3333 0.999959 14.3333Z" fill="url(#paint3_linear_127_2)"/>
<path fill-rule="evenodd" clip-rule="evenodd" d="M10.3333 14.6666C10.1493 14.6666 10 14.5173 10 14.3333V12.9973C10 12.2623 10.5957 11.6666 11.3307 11.6666C12.119 11.6666 13.2143 11.6666 14.0027 11.6666C14.3557 11.6666 14.694 11.807 14.9437 12.0563C15.193 12.306 15.3333 12.6443 15.3333 12.9973C15.3333 13.7856 15.3333 13.5476 15.3333 14.336C15.3333 15.071 14.7377 15.6666 14.0027 15.6666C12.917 15.6666 11.3333 15.6666 11.3333 15.6666C11.1493 15.6666 11 15.5173 11 15.3333C11 14.9653 10.7013 14.6666 10.3333 14.6666ZM10.3333 15C10.5173 15 10.6667 15.1493 10.6667 15.3333C10.6667 15.5173 10.5173 15.6666 10.3333 15.6666C10.1493 15.6666 10 15.5173 10 15.3333C10 15.1493 10.1493 15 10.3333 15Z" fill="#279FD7"/>
<path fill-rule="evenodd" clip-rule="evenodd" d="M11 14C10.816 14 10.6666 13.8507 10.6666 13.6667V12.3307C10.6666 11.5957 11.2623 11 11.9973 11C12.7856 11 13.881 11 14.6693 11C15.0223 11 15.3606 11.1403 15.6103 11.3897C15.8596 11.6393 16 11.9777 16 12.3307C16 13.119 16 12.881 16 13.6693C16 14.4043 15.4043 15 14.6693 15C13.5836 15 12 15 12 15C11.816 15 11.6666 14.8507 11.6666 14.6667C11.6666 14.2987 11.368 14 11 14ZM11 14.3333C11.184 14.3333 11.3333 14.4827 11.3333 14.6667C11.3333 14.8507 11.184 15 11 15C10.816 15 10.6666 14.8507 10.6666 14.6667C10.6666 14.4827 10.816 14.3333 11 14.3333Z" fill="url(#paint4_linear_127_2)"/>
<defs>
<linearGradient id="paint0_linear_127_2" x1="2.4" y1="15.0044" x2="7.45636" y2="-0.166609" gradientUnits="userSpaceOnUse">
<stop stop-color="#22B4FA"/>
<stop offset="1" stop-color="#6BD6FE"/>
</linearGradient>
<linearGradient id="paint1_linear_127_2" x1="0.666626" y1="5" x2="6.66663" y2="3" gradientUnits="userSpaceOnUse">
<stop stop-color="#6BD6FE"/>
<stop offset="1" stop-color="white"/>
</linearGradient>
<linearGradient id="paint2_linear_127_2" x1="10.6666" y1="5" x2="16.6666" y2="3" gradientUnits="userSpaceOnUse">
<stop stop-color="#6BD6FE"/>
<stop offset="1" stop-color="white"/>
</linearGradient>
<linearGradient id="paint3_linear_127_2" x1="0.666626" y1="15" x2="6.66663" y2="13" gradientUnits="userSpaceOnUse">
<stop stop-color="#6BD6FE"/>
<stop offset="1" stop-color="white"/>
</linearGradient>
<linearGradient id="paint4_linear_127_2" x1="10.6666" y1="15" x2="16.6666" y2="13" gradientUnits="userSpaceOnUse">
<stop stop-color="#6BD6FE"/>
<stop offset="1" stop-color="white"/>
</linearGradient>
</defs>
</svg>
