<svg width="16" height="16" viewBox="0 0 16 16" fill="none" xmlns="http://www.w3.org/2000/svg">
<g clip-path="url(#clip0_278_6)">
<path opacity="0.5" fill-rule="evenodd" clip-rule="evenodd" d="M3 8C3 6 1.336 5.837 1.276 5.807C0.780999 5.563 0.576999 4.963 0.820999 4.468C2.126 1.822 4.852 0 8 0C12.415 0 16 3.585 16 8C16 12.415 12.415 16 8 16C4.852 16 2.126 14.178 0.820999 11.532C0.576999 11.037 0.780999 10.437 1.276 10.193C1.336 10.163 3 10 3 8ZM1 9C0.448 9 0 8.552 0 8C0 7.448 0.448 7 1 7C1.552 7 2 7.448 2 8C2 8.552 1.552 9 1 9Z" fill="url(#paint0_linear_278_6)"/>
<path fill-rule="evenodd" clip-rule="evenodd" d="M9.39202 8.38321C9.39202 8.97731 8.82275 9.46165 8.1246 9.46165C7.42644 9.46165 6.85718 8.97731 6.85718 8.38321V4.07843C6.85718 3.48437 7.42644 3 8.1246 3C8.82275 3 9.39202 3.48437 9.39202 4.07843V8.38321ZM6.85718 12.0074C6.85718 11.3032 7.42029 10.729 8.11021 10.729C8.82022 10.729 9.38479 11.3032 9.38479 12.0074C9.38479 12.7115 8.82022 13.2857 8.1246 13.2857C7.42606 13.2857 6.85718 12.7115 6.85718 12.0074Z" fill="url(#paint1_linear_278_6)"/>
</g>
<defs>
<linearGradient id="paint0_linear_278_6" x1="3" y1="14" x2="13" y2="2" gradientUnits="userSpaceOnUse">
<stop stop-color="#FF405B"/>
<stop offset="1" stop-color="#FF8860"/>
</linearGradient>
<linearGradient id="paint1_linear_278_6" x1="7.33246" y1="12" x2="10.8872" y2="10.9488" gradientUnits="userSpaceOnUse">
<stop stop-color="#FF405B"/>
<stop offset="1" stop-color="#FF8860"/>
</linearGradient>
<clipPath id="clip0_278_6">
<rect width="16" height="16" fill="white"/>
</clipPath>
</defs>
</svg>
