<svg width="16" height="16" viewBox="0 0 16 16" fill="none" xmlns="http://www.w3.org/2000/svg">
<path fill-rule="evenodd" clip-rule="evenodd" d="M7.99821 14.9633C7.14819 14.9554 6.35927 14.4702 5.97877 13.7083L5.73354 13.2178H4.45329C2.54556 13.2178 1 11.6714 1 9.76369C1 7.68753 1.03665 6.53032 1.03665 4.45416C1.03665 2.54643 2.58308 1 4.49081 1H11.5091C11.9908 1 12.3818 1.39097 12.3818 1.8727C12.3818 2.83617 13.1637 3.61811 14.1272 3.61811H14.1403C14.622 3.62596 15.0069 4.02217 14.9999 4.5039C14.9999 4.5039 14.9633 6.92827 14.9633 9.76369C14.9633 11.6714 13.4168 13.2178 11.5091 13.2178H10.303L10.0578 13.7083C9.67293 14.4772 8.87789 14.9633 8.01828 14.9633H7.99821ZM14.9999 1.8727C14.9999 2.35444 14.6089 2.74541 14.1272 2.74541C13.6455 2.74541 13.2545 2.35444 13.2545 1.8727C13.2545 1.39097 13.6455 1 14.1272 1C14.6089 1 14.9999 1.39097 14.9999 1.8727Z" fill="url(#paint0_linear_8_333)"/>
<path fill-rule="evenodd" clip-rule="evenodd" d="M4.79371 6.9868C5.42274 6.9868 5.93263 6.47693 5.93263 5.84791C5.93263 5.21888 5.42274 4.70898 4.79371 4.70898C4.1647 4.70898 3.65479 5.21888 3.65479 5.84791C3.65479 6.47693 4.1647 6.9868 4.79371 6.9868ZM10.4883 6.9868C11.1174 6.9868 11.6272 6.47693 11.6272 5.84791C11.6272 5.21888 11.1174 4.70898 10.4883 4.70898C9.8593 4.70898 9.3494 5.21888 9.3494 5.84791C9.3494 6.47693 9.8593 6.9868 10.4883 6.9868Z" fill="#7FD1AE"/>
<path d="M10.745 9.3325V9.33095C10.7408 9.3886 10.7084 9.4563 10.6774 9.52109C10.6579 9.562 10.6388 9.60198 10.6277 9.63737L10.6217 9.64634C10.2534 10.1481 9.77892 10.5498 9.23702 10.8185C8.69512 11.0871 8.10118 11.2152 7.50392 11.1921H7.47774L7.39462 11.1931C6.81349 11.1933 6.23952 11.0569 5.71347 10.7937C5.18746 10.5305 4.72231 10.147 4.3512 9.67028L4.35026 9.66977C4.30649 9.6319 4.27065 9.58468 4.24505 9.5311C4.21946 9.47762 4.20468 9.4189 4.20166 9.35891V9.35994C4.19795 9.32408 4.20129 9.28785 4.21148 9.25344C4.22166 9.21908 4.23846 9.18738 4.26081 9.16031C4.28315 9.13329 4.31054 9.1115 4.34123 9.09635C4.37192 9.08125 4.40524 9.07312 4.43904 9.07251H4.44045C4.49418 9.07962 4.54524 9.10164 4.58857 9.13628L4.58022 9.12913C5.4019 9.8297 6.42142 10.214 7.47358 10.2197H7.46937L7.55068 10.2207C8.57627 10.2228 9.56994 9.84074 10.3581 9.14124C10.399 9.10136 10.4522 9.07873 10.5076 9.07751H10.5109C10.5417 9.07742 10.5722 9.08382 10.6005 9.09631C10.629 9.10884 10.6548 9.12726 10.6766 9.15045C10.6983 9.17363 10.7156 9.20112 10.7273 9.23147C10.7391 9.26181 10.7451 9.29425 10.745 9.32703V9.33095L10.7451 9.32951L10.7455 9.31861L10.7453 9.32609L10.7451 9.32951L10.745 9.3325Z" fill="#7FD1AE"/>
<path d="M10.745 9.33095V9.3325L10.7451 9.32951M10.745 9.33095L10.7451 9.32951M10.745 9.33095V9.32703C10.7451 9.29425 10.7391 9.26181 10.7273 9.23147C10.7156 9.20112 10.6983 9.17363 10.6766 9.15045C10.6548 9.12726 10.629 9.10884 10.6005 9.09631C10.5722 9.08382 10.5417 9.07742 10.5109 9.07751H10.5076C10.4522 9.07873 10.399 9.10136 10.3581 9.14124C9.56994 9.84074 8.57627 10.2228 7.55068 10.2207L7.46937 10.2197H7.47358C6.42142 10.214 5.4019 9.8297 4.58022 9.12913L4.58857 9.13628C4.54524 9.10164 4.49418 9.07962 4.44045 9.07251H4.43904C4.40524 9.07312 4.37192 9.08125 4.34123 9.09635C4.31054 9.1115 4.28315 9.13329 4.26081 9.16031C4.23846 9.18738 4.22166 9.21908 4.21148 9.25344C4.20129 9.28785 4.19795 9.32408 4.20166 9.35994V9.35891C4.20468 9.4189 4.21946 9.47762 4.24505 9.5311C4.27065 9.58468 4.30649 9.6319 4.35026 9.66977L4.3512 9.67028C4.72231 10.147 5.18746 10.5305 5.71347 10.7937C6.23952 11.0569 6.81349 11.1933 7.39462 11.1931L7.47774 11.1921H7.50392C8.10118 11.2152 8.69512 11.0871 9.23702 10.8185C9.77892 10.5498 10.2534 10.1481 10.6217 9.64634L10.6277 9.63737C10.6388 9.60198 10.6579 9.562 10.6774 9.52109C10.7084 9.4563 10.7408 9.3886 10.745 9.33095ZM10.7451 9.32951L10.7455 9.31861C10.7455 9.32109 10.7454 9.32357 10.7453 9.32609L10.7451 9.32951Z" stroke="#7FD1AE" stroke-width="0.6"/>
<path d="M11.2904 8.24168V8.24013C11.2862 8.29778 11.2539 8.36548 11.2229 8.43027C11.2033 8.47118 11.1842 8.51116 11.1731 8.54655L11.1671 8.55552C10.7988 9.05731 10.3243 9.459 9.78243 9.72769C9.24053 9.99633 8.64659 10.1244 8.04933 10.1012H8.02315L7.94003 10.1023C7.3589 10.1025 6.78493 9.96612 6.25888 9.70291C5.73287 9.4397 5.26772 9.05614 4.89661 8.57946L4.89567 8.57895C4.8519 8.54108 4.81606 8.49386 4.79046 8.44028C4.76487 8.38679 4.75009 8.32807 4.74707 8.26809V8.26912C4.74336 8.23326 4.7467 8.19703 4.75689 8.16262C4.76707 8.12826 4.78387 8.09656 4.80622 8.06949C4.82856 8.04247 4.85595 8.02068 4.88664 8.00553C4.91733 7.99043 4.95065 7.9823 4.98445 7.98169H4.98586C5.03959 7.9888 5.09065 8.01082 5.13398 8.04546L5.12563 8.03831C5.94731 8.73888 6.96683 9.12319 8.01899 9.12889H8.01478L8.09609 9.12987C9.12168 9.13197 10.1153 8.74992 10.9035 8.05041C10.9444 8.01054 10.9976 7.98791 11.0531 7.98669H11.0563C11.0871 7.9866 11.1176 7.993 11.1459 8.00549C11.1744 8.01802 11.2002 8.03644 11.222 8.05963C11.2437 8.08281 11.261 8.1103 11.2727 8.14065C11.2845 8.17099 11.2905 8.20343 11.2904 8.23621V8.24013L11.2906 8.23869L11.2909 8.22779L11.2907 8.23527L11.2906 8.23869L11.2904 8.24168Z" fill="url(#paint1_linear_8_333)"/>
<path d="M11.2904 8.24013V8.24168L11.2906 8.23869M11.2904 8.24013L11.2906 8.23869M11.2904 8.24013V8.23621C11.2905 8.20343 11.2845 8.17099 11.2727 8.14065C11.261 8.1103 11.2437 8.08281 11.222 8.05963C11.2002 8.03644 11.1744 8.01802 11.1459 8.00549C11.1176 7.993 11.0871 7.9866 11.0563 7.98669H11.0531C10.9976 7.98791 10.9444 8.01054 10.9035 8.05041C10.1153 8.74992 9.12168 9.13197 8.09609 9.12987L8.01478 9.12889H8.01899C6.96683 9.12319 5.94731 8.73888 5.12563 8.03831L5.13398 8.04546C5.09065 8.01082 5.03959 7.9888 4.98586 7.98169H4.98445C4.95065 7.9823 4.91733 7.99043 4.88664 8.00553C4.85595 8.02068 4.82856 8.04247 4.80622 8.06949C4.78387 8.09656 4.76707 8.12826 4.75689 8.16262C4.7467 8.19703 4.74336 8.23326 4.74707 8.26912V8.26809C4.75009 8.32807 4.76487 8.38679 4.79046 8.44028C4.81606 8.49386 4.8519 8.54108 4.89567 8.57895L4.89661 8.57946C5.26772 9.05614 5.73287 9.4397 6.25888 9.70291C6.78493 9.96612 7.3589 10.1025 7.94003 10.1023L8.02315 10.1012H8.04933C8.64659 10.1244 9.24053 9.99633 9.78243 9.72769C10.3243 9.459 10.7988 9.05731 11.1671 8.55552L11.1731 8.54655C11.1842 8.51116 11.2033 8.47118 11.2229 8.43027C11.2539 8.36548 11.2862 8.29778 11.2904 8.24013ZM11.2906 8.23869L11.2909 8.22779C11.2909 8.23027 11.2908 8.23275 11.2907 8.23527L11.2906 8.23869Z" stroke="url(#paint2_linear_8_333)" stroke-width="0.6"/>
<path fill-rule="evenodd" clip-rule="evenodd" d="M5.172 5.89598C5.80103 5.89598 6.31093 5.38611 6.31093 4.75709C6.31093 4.12806 5.80103 3.61816 5.172 3.61816C4.543 3.61816 4.03308 4.12806 4.03308 4.75709C4.03308 5.38611 4.543 5.89598 5.172 5.89598ZM10.8666 5.89598C11.4957 5.89598 12.0055 5.38611 12.0055 4.75709C12.0055 4.12806 11.4957 3.61816 10.8666 3.61816C10.2376 3.61816 9.72769 4.12806 9.72769 4.75709C9.72769 5.38611 10.2376 5.89598 10.8666 5.89598Z" fill="url(#paint3_linear_8_333)"/>
<defs>
<linearGradient id="paint0_linear_8_333" x1="2.75" y1="13.2182" x2="15.847" y2="10.188" gradientUnits="userSpaceOnUse">
<stop stop-color="#62E8AF"/>
<stop offset="1" stop-color="#B3FBDC"/>
</linearGradient>
<linearGradient id="paint1_linear_8_333" x1="4.74561" y1="10.1039" x2="4.95923" y2="7.46845" gradientUnits="userSpaceOnUse">
<stop stop-color="#B3FBDC"/>
<stop offset="1" stop-color="white"/>
</linearGradient>
<linearGradient id="paint2_linear_8_333" x1="4.74561" y1="10.1039" x2="4.95923" y2="7.46845" gradientUnits="userSpaceOnUse">
<stop stop-color="#B3FBDC"/>
<stop offset="1" stop-color="white"/>
</linearGradient>
<linearGradient id="paint3_linear_8_333" x1="4.03308" y1="5.89598" x2="4.23542" y2="3.06316" gradientUnits="userSpaceOnUse">
<stop stop-color="#B3FBDC"/>
<stop offset="1" stop-color="white"/>
</linearGradient>
</defs>
</svg>
