<svg width="16" height="16" viewBox="0 0 16 16" fill="none" xmlns="http://www.w3.org/2000/svg">
<g clip-path="url(#clip0_88_182)">
<path fill-rule="evenodd" clip-rule="evenodd" d="M12.9824 15C12.9824 15.552 12.5344 16 11.9824 16H3.97442C1.76942 16 -0.0175781 14.213 -0.0175781 12.008C-0.0175781 9.643 -0.0175781 6.357 -0.0175781 3.992C-0.0175781 2.933 0.403422 1.918 1.15142 1.169C1.90042 0.421 2.91542 0 3.97442 0C6.33942 0 9.62542 0 11.9904 0C14.1954 0 15.9824 1.787 15.9824 3.992C15.9824 7.249 15.9824 12 15.9824 12C15.9824 12.552 15.5344 13 14.9824 13C13.8784 13 12.9824 13.896 12.9824 15ZM13.9824 15C13.9824 14.448 14.4304 14 14.9824 14C15.5344 14 15.9824 14.448 15.9824 15C15.9824 15.552 15.5344 16 14.9824 16C14.4304 16 13.9824 15.552 13.9824 15Z" fill="url(#paint0_linear_88_182)"/>
<path fill-rule="evenodd" clip-rule="evenodd" d="M8.16667 12H2.83333C2.37333 12 2 12.3733 2 12.8333C2 13.2933 2.37333 13.6667 2.83333 13.6667H8.16667C8.62667 13.6667 9 13.2933 9 12.8333C9 12.3733 8.62667 12 8.16667 12Z" fill="#D49F34"/>
<path fill-rule="evenodd" clip-rule="evenodd" d="M9.16667 11H3.83333C3.37333 11 3 11.3733 3 11.8333C3 12.2933 3.37333 12.6667 3.83333 12.6667H9.16667C9.62667 12.6667 10 12.2933 10 11.8333C10 11.3733 9.62667 11 9.16667 11Z" fill="url(#paint1_linear_88_182)"/>
<path d="M5.13636 6.04953V6.01878C5.13636 5.45972 4.76346 5.18019 4.14234 5.18019H3.61094C3.39002 5.18019 3.21094 5.35927 3.21094 5.58019V6.48813C3.21094 6.70904 3.39002 6.88813 3.61094 6.88813H4.1742C4.79533 6.88813 5.13636 6.51579 5.13636 6.04953ZM2 4.49336C2 4.27245 2.17909 4.09336 2.4 4.09336H4.23626C5.57187 4.09336 6.37916 4.86991 6.37916 6.01934V6.05009C6.37916 7.32364 5.38514 8.00682 4.14234 8.00682H3.61094C3.39002 8.00682 3.21094 8.18591 3.21094 8.40682V9.25327C3.21094 9.47418 3.03185 9.65327 2.81094 9.65327H2.4C2.17909 9.65327 2 9.47418 2 9.25327V4.49336ZM9.73355 9.71532C8.08766 9.74607 6.87617 8.47252 6.87617 6.88813C6.87561 5.3043 8.05635 4 9.7643 4C10.6432 4 11.2209 4.23661 11.6942 4.62055C11.8568 4.75249 11.8634 4.99255 11.7266 5.15112L11.4636 5.45596C11.3156 5.62753 11.0572 5.63795 10.8718 5.50771C10.5376 5.27299 10.1861 5.14888 9.76374 5.14888C8.83681 5.14888 8.15754 5.91759 8.14972 6.87304C8.15754 7.82848 8.80606 8.59663 9.76374 8.59663C10.244 8.59663 10.5943 8.44787 10.9293 8.19377C11.1007 8.06375 11.3434 8.06458 11.4956 8.21666L11.7317 8.45264C11.8821 8.60296 11.8907 8.84722 11.7335 8.99043C11.2304 9.44868 10.6261 9.71532 9.73355 9.71532Z" fill="#D49F34"/>
<path d="M6.13636 5.04953V5.01878C6.13636 4.45972 5.76346 4.18019 5.14234 4.18019H4.61094C4.39002 4.18019 4.21094 4.35927 4.21094 4.58019V5.48813C4.21094 5.70904 4.39002 5.88813 4.61094 5.88813H5.1742C5.79533 5.88813 6.13636 5.51579 6.13636 5.04953ZM3 3.49336C3 3.27245 3.17909 3.09336 3.4 3.09336H5.23626C6.57187 3.09336 7.37916 3.86991 7.37916 5.01934V5.05009C7.37916 6.32364 6.38514 7.00682 5.14234 7.00682H4.61094C4.39002 7.00682 4.21094 7.18591 4.21094 7.40682V8.25327C4.21094 8.47418 4.03185 8.65327 3.81094 8.65327H3.4C3.17909 8.65327 3 8.47418 3 8.25327V3.49336ZM10.7335 8.71532C9.08766 8.74607 7.87617 7.47252 7.87617 5.88813C7.87561 4.3043 9.05635 3 10.7643 3C11.6432 3 12.2209 3.23661 12.6942 3.62055C12.8568 3.75249 12.8634 3.99255 12.7266 4.15112L12.4636 4.45596C12.3156 4.62753 12.0572 4.63795 11.8718 4.50771C11.5376 4.27299 11.1861 4.14888 10.7637 4.14888C9.83681 4.14888 9.15754 4.91759 9.14972 5.87304C9.15754 6.82848 9.80606 7.59663 10.7637 7.59663C11.244 7.59663 11.5943 7.44787 11.9293 7.19377C12.1007 7.06375 12.3434 7.06458 12.4956 7.21666L12.7317 7.45264C12.8821 7.60296 12.8907 7.84722 12.7335 7.99043C12.2304 8.44868 11.6261 8.71532 10.7335 8.71532Z" fill="url(#paint2_linear_88_182)"/>
</g>
<defs>
<linearGradient id="paint0_linear_88_182" x1="2.98242" y1="14.9988" x2="12.9815" y2="2.99901" gradientUnits="userSpaceOnUse">
<stop stop-color="#FF8860"/>
<stop offset="1" stop-color="#FBD92C"/>
</linearGradient>
<linearGradient id="paint1_linear_88_182" x1="4.75" y1="12.25" x2="5.12555" y2="10.6727" gradientUnits="userSpaceOnUse">
<stop stop-color="#FBD92C"/>
<stop offset="1" stop-color="white"/>
</linearGradient>
<linearGradient id="paint2_linear_88_182" x1="5.462" y1="7.2869" x2="7.94356" y2="3.01136" gradientUnits="userSpaceOnUse">
<stop stop-color="#FBD92C"/>
<stop offset="1" stop-color="white"/>
</linearGradient>
<clipPath id="clip0_88_182">
<rect width="16" height="16" fill="white"/>
</clipPath>
</defs>
</svg>
