<svg width="16" height="16" viewBox="0 0 16 16" fill="none" xmlns="http://www.w3.org/2000/svg">
<g clip-path="url(#clip0_44_190)">
<path fill-rule="evenodd" clip-rule="evenodd" d="M2.25716 2.25716C3.7024 0.811926 5.66255 0 7.70642 0C9.75031 0 11.7105 0.811926 13.1557 2.25716C13.6087 2.71013 13.9994 3.21367 14.3225 3.75453C14.6722 4.34009 14.1713 5.05591 13.6639 5.5117C13.2564 5.87784 13 6.40898 13 7C13 8.10457 13.8954 9 15 9V9C15.1509 9 15.2792 9.13022 15.2482 9.27789C15.0036 10.4424 14.4915 11.5396 13.7466 12.4795C13.5581 12.7174 13.5476 13.0555 13.7331 13.2957C14.053 13.7096 14.3543 14.1331 14.6344 14.5587C14.8204 14.8412 14.7299 15.2191 14.4419 15.3964L13.6099 15.9089C13.3219 16.0862 12.9455 15.996 12.758 15.7144C12.5309 15.3734 12.2878 15.034 12.0332 14.7026C11.8467 14.46 11.508 14.4053 11.2364 14.5463C10.148 15.1113 8.93789 15.4096 7.70642 15.4128C5.66255 15.4128 3.7024 14.601 2.25716 13.1557C0.811926 11.7105 0 9.75029 0 7.70642C0 5.66255 0.811926 3.7024 2.25716 2.25716ZM10.8203 4.20333C9.99445 3.27425 8.87435 2.75229 7.70642 2.75229C6.53851 2.75229 5.41841 3.27425 4.59255 4.20333C3.76671 5.13241 3.30275 6.39252 3.30275 7.70642C3.30275 9.02034 3.76671 10.2804 4.59255 11.2095C5.41841 12.1386 6.53851 12.6606 7.70642 12.6606C8.03699 12.6594 8.36539 12.6164 8.68552 12.5331C9.11808 12.4205 9.16706 11.8767 8.781 11.6514C8.28839 11.364 7.8148 11.1719 7.38478 11.0889C7.0526 11.0247 6.7542 10.7744 6.72806 10.4371L6.65279 9.46506C6.62667 9.1279 6.87967 8.82927 7.21732 8.84788C8.46493 8.91658 9.62987 9.48121 10.6908 10.2602C10.9828 10.4746 11.402 10.4154 11.5615 10.0903C11.9182 9.36356 12.1085 8.54404 12.1101 7.70642C12.1101 6.39252 11.6461 5.13241 10.8203 4.20333Z" fill="url(#paint0_linear_44_190)"/>
<path d="M9.71755 5.25102C8.89171 4.32195 7.77161 3.79999 6.60369 3.79999C5.43577 3.79999 4.31568 4.32195 3.48982 5.25102C2.66397 6.18011 2.20001 7.44021 2.20001 8.75412C2.20001 10.068 2.66397 11.3281 3.48982 12.2572C4.31568 13.1863 5.43577 13.7083 6.60369 13.7083C6.93426 13.7071 7.26265 13.6641 7.58278 13.5808C8.01534 13.4682 8.06432 12.9244 7.67826 12.6991C7.18565 12.4117 6.71206 12.2196 6.28204 12.1365C5.94986 12.0724 5.65146 11.8221 5.62533 11.4848L5.55006 10.5128C5.52394 10.1756 5.77694 9.87697 6.11458 9.89557C7.36219 9.96427 8.52713 10.5289 9.58808 11.3079C9.88002 11.5223 10.2992 11.4631 10.4588 11.138C10.8155 10.4113 11.0058 9.59174 11.0074 8.75412C11.0074 7.44021 10.5434 6.18011 9.71755 5.25102Z" fill="#D49F34"/>
<path d="M10.8203 4.20335C9.99443 3.27428 8.87434 2.75232 7.70641 2.75232C6.5385 2.75232 5.4184 3.27428 4.59254 4.20335C3.7667 5.13244 3.30273 6.39254 3.30273 7.70645C3.30273 9.02037 3.7667 10.2805 4.59254 11.2096C5.4184 12.1386 6.5385 12.6606 7.70641 12.6606C8.03698 12.6594 8.36537 12.6165 8.6855 12.5331C9.11806 12.4206 9.16704 11.8767 8.78098 11.6515C8.28837 11.3641 7.81478 11.1719 7.38476 11.0889C7.05259 11.0247 6.75419 10.7744 6.72805 10.4371L6.65278 9.46509C6.62666 9.12793 6.87966 8.8293 7.21731 8.8479C8.46491 8.91661 9.62986 9.48124 10.6908 10.2603C10.9827 10.4746 11.4019 10.4155 11.5615 10.0903C11.9182 9.36359 12.1085 8.54407 12.1101 7.70645C12.1101 6.39254 11.6461 5.13244 10.8203 4.20335Z" fill="url(#paint1_linear_44_190)"/>
<circle cx="15" cy="7" r="1" fill="url(#paint2_linear_44_190)"/>
</g>
<defs>
<linearGradient id="paint0_linear_44_190" x1="2.86973" y1="14.9988" x2="12.9396" y2="3.43885" gradientUnits="userSpaceOnUse">
<stop stop-color="#FF8860"/>
<stop offset="1" stop-color="#FBD92C"/>
</linearGradient>
<linearGradient id="paint1_linear_44_190" x1="5.50457" y1="10.1835" x2="10.4245" y2="5.81022" gradientUnits="userSpaceOnUse">
<stop stop-color="#FBD92C"/>
<stop offset="1" stop-color="white"/>
</linearGradient>
<linearGradient id="paint2_linear_44_190" x1="14.375" y1="7.87485" x2="15.6249" y2="6.37487" gradientUnits="userSpaceOnUse">
<stop stop-color="#FF8860"/>
<stop offset="1" stop-color="#FBD92C"/>
</linearGradient>
<clipPath id="clip0_44_190">
<rect width="16" height="16" fill="white"/>
</clipPath>
</defs>
</svg>
