<svg width="16" height="16" viewBox="0 0 16 16" fill="none" xmlns="http://www.w3.org/2000/svg">
<g clip-path="url(#clip0_88_198)">
<path fill-rule="evenodd" clip-rule="evenodd" d="M12.9824 15C12.9824 15.552 12.5344 16 11.9824 16H3.97442C1.76942 16 -0.0175781 14.213 -0.0175781 12.008C-0.0175781 9.643 -0.0175781 6.357 -0.0175781 3.992C-0.0175781 2.933 0.403422 1.918 1.15142 1.169C1.90042 0.421 2.91542 0 3.97442 0C6.33942 0 9.62542 0 11.9904 0C14.1954 0 15.9824 1.787 15.9824 3.992C15.9824 7.249 15.9824 12 15.9824 12C15.9824 12.552 15.5344 13 14.9824 13C13.8784 13 12.9824 13.896 12.9824 15ZM13.9824 15C13.9824 14.448 14.4304 14 14.9824 14C15.5344 14 15.9824 14.448 15.9824 15C15.9824 15.552 15.5344 16 14.9824 16C14.4304 16 13.9824 15.552 13.9824 15Z" fill="url(#paint0_linear_88_198)"/>
<path fill-rule="evenodd" clip-rule="evenodd" d="M8.16667 12H2.83333C2.37333 12 2 12.3733 2 12.8333C2 13.2933 2.37333 13.6667 2.83333 13.6667H8.16667C8.62667 13.6667 9 13.2933 9 12.8333C9 12.3733 8.62667 12 8.16667 12Z" fill="#8C4FD9"/>
<path fill-rule="evenodd" clip-rule="evenodd" d="M9.16667 11H3.83333C3.37333 11 3 11.3733 3 11.8333C3 12.2933 3.37333 12.6667 3.83333 12.6667H9.16667C9.62667 12.6667 10 12.2933 10 11.8333C10 11.3733 9.62667 11 9.16667 11Z" fill="url(#paint1_linear_88_198)"/>
<path d="M6.50626 8.74053C6.43163 8.82072 6.30637 8.82596 6.22531 8.75227L5.96951 8.51973C5.90272 8.45901 5.80392 8.45129 5.72504 8.49518C5.34165 8.70849 4.90883 8.81963 4.46838 8.81655C3.02732 8.82436 2 7.75019 2 6.41686C2 5.08821 3.04762 4 4.49805 4C5.94848 4 6.97424 5.07416 6.97424 6.40281V6.41686C6.97288 6.83509 6.86254 7.24467 6.65552 7.60573C6.60472 7.69433 6.61955 7.80804 6.69747 7.87407L6.88153 8.03004C6.96858 8.10381 6.97637 8.23534 6.89864 8.31887L6.50626 8.74053ZM4.80579 7.85043C4.94695 7.81856 4.97242 7.644 4.86266 7.54969L4.49641 7.23501C4.41155 7.16209 4.40301 7.03374 4.47746 6.95022L4.86191 6.51898C4.93584 6.43605 5.06319 6.42927 5.14551 6.50388L5.55175 6.87206C5.65441 6.9651 5.81787 6.9272 5.84742 6.79184C5.87422 6.66902 5.88673 6.54319 5.88447 6.41686C5.89095 6.22664 5.85915 6.03706 5.79095 5.85937C5.72275 5.68168 5.61955 5.51951 5.48747 5.38247C5.35538 5.24544 5.19711 5.13634 5.02205 5.06165C4.84699 4.98697 4.65871 4.94821 4.46838 4.9477C3.64091 4.9477 3.06323 5.60187 3.06323 6.40281V6.41686C3.05675 6.60687 3.08851 6.79625 3.15663 6.97375C3.22474 7.15125 3.32783 7.31326 3.45977 7.45014C3.59171 7.58703 3.74981 7.69602 3.92468 7.77063C4.09955 7.84524 4.28763 7.88395 4.47775 7.88447C4.58842 7.88616 4.69853 7.87465 4.80579 7.85043ZM7.75644 4.27494C7.75644 4.16448 7.84598 4.07494 7.95644 4.07494H9.51756C10.9852 4.07494 12 5.08353 12 6.39813V6.41686C12 7.73146 10.9852 8.75878 9.51756 8.75878H7.95644C7.84598 8.75878 7.75644 8.66924 7.75644 8.55878V4.27494ZM8.98376 5.01171C8.8733 5.01171 8.78376 5.10125 8.78376 5.21171V7.62201C8.78376 7.73247 8.87331 7.82201 8.98376 7.82201H9.51756C10.3575 7.82201 10.9227 7.25371 10.9227 6.42623V6.41686C10.9316 6.22997 10.9014 6.04328 10.8339 5.86876C10.7665 5.69425 10.6633 5.53575 10.531 5.40345C10.3987 5.27115 10.2402 5.16796 10.0657 5.1005C9.89114 5.03304 9.70445 5.00279 9.51756 5.01171H8.98376Z" fill="#8C4FD9"/>
<path d="M7.50626 7.74053C7.43163 7.82072 7.30637 7.82596 7.22531 7.75227L6.96951 7.51973C6.90272 7.45901 6.80392 7.45129 6.72504 7.49518C6.34165 7.70849 5.90883 7.81963 5.46838 7.81655C4.02732 7.82436 3 6.75019 3 5.41686C3 4.08821 4.04762 3 5.49805 3C6.94848 3 7.97424 4.07416 7.97424 5.40281V5.41686C7.97288 5.83509 7.86254 6.24467 7.65552 6.60573C7.60472 6.69433 7.61955 6.80804 7.69747 6.87407L7.88153 7.03004C7.96858 7.10381 7.97637 7.23534 7.89864 7.31887L7.50626 7.74053ZM5.80579 6.85043C5.94695 6.81856 5.97242 6.644 5.86266 6.54969L5.49641 6.23501C5.41155 6.16209 5.40301 6.03374 5.47746 5.95022L5.86191 5.51898C5.93584 5.43605 6.06319 5.42927 6.14551 5.50388L6.55175 5.87206C6.65441 5.9651 6.81787 5.9272 6.84742 5.79184C6.87422 5.66902 6.88673 5.54319 6.88447 5.41686C6.89095 5.22664 6.85915 5.03706 6.79095 4.85937C6.72275 4.68168 6.61955 4.51951 6.48747 4.38247C6.35538 4.24544 6.19711 4.13634 6.02205 4.06165C5.84699 3.98697 5.65871 3.94821 5.46838 3.9477C4.64091 3.9477 4.06323 4.60187 4.06323 5.40281V5.41686C4.05675 5.60687 4.08851 5.79625 4.15663 5.97375C4.22474 6.15125 4.32783 6.31326 4.45977 6.45014C4.59171 6.58703 4.74981 6.69602 4.92468 6.77063C5.09955 6.84524 5.28763 6.88395 5.47775 6.88447C5.58842 6.88616 5.69853 6.87465 5.80579 6.85043ZM8.75644 3.27494C8.75644 3.16448 8.84598 3.07494 8.95644 3.07494H10.5176C11.9852 3.07494 13 4.08353 13 5.39813V5.41686C13 6.73146 11.9852 7.75878 10.5176 7.75878H8.95644C8.84598 7.75878 8.75644 7.66924 8.75644 7.55878V3.27494ZM9.98376 4.01171C9.8733 4.01171 9.78376 4.10125 9.78376 4.21171V6.62201C9.78376 6.73247 9.87331 6.82201 9.98376 6.82201H10.5176C11.3575 6.82201 11.9227 6.25371 11.9227 5.42623V5.41686C11.9316 5.22997 11.9014 5.04328 11.8339 4.86876C11.7665 4.69425 11.6633 4.53575 11.531 4.40345C11.3987 4.27115 11.2402 4.16796 11.0657 4.1005C10.8911 4.03304 10.7045 4.00279 10.5176 4.01171H9.98376Z" fill="url(#paint2_linear_88_198)"/>
</g>
<defs>
<linearGradient id="paint0_linear_88_198" x1="3.98242" y1="14.8571" x2="14.5707" y2="2.50422" gradientUnits="userSpaceOnUse">
<stop stop-color="#A056FF"/>
<stop offset="1" stop-color="#C59AFD"/>
</linearGradient>
<linearGradient id="paint1_linear_88_198" x1="4.75" y1="12.6667" x2="7.31201" y2="9.07997" gradientUnits="userSpaceOnUse">
<stop stop-color="#C59AFD"/>
<stop offset="1" stop-color="white"/>
</linearGradient>
<linearGradient id="paint2_linear_88_198" x1="5.5" y1="7.88525" x2="12.8919" y2="2.84156" gradientUnits="userSpaceOnUse">
<stop stop-color="#C59AFD"/>
<stop offset="1" stop-color="white"/>
</linearGradient>
<clipPath id="clip0_88_198">
<rect width="16" height="16" fill="white"/>
</clipPath>
</defs>
</svg>
