<svg width="16" height="16" viewBox="0 0 16 16" fill="none" xmlns="http://www.w3.org/2000/svg">
<g clip-path="url(#clip0_44_203)">
<path fill-rule="evenodd" clip-rule="evenodd" d="M16 15C16 14.448 15.552 14 15 14C14.448 14 14 14.448 14 15C14 15.552 14.448 16 15 16C15.552 16 16 15.552 16 15ZM13 15C13 13.896 13.896 13 15 13C15.552 13 16 12.552 16 12C16 12 16 7.216 16 3.958C16 1.772 14.228 0 12.042 0H3.958C1.772 0 0 1.772 0 3.958V12.042C0 14.228 1.772 16 3.958 16C7.216 16 12 16 12 16C12.552 16 13 15.552 13 15Z" fill="url(#paint0_linear_44_203)"/>
<g opacity="0.7">
<path d="M9.99231 11.3421C10.2146 11.5998 10.6248 11.7286 11.2232 11.7286C11.4738 11.7286 11.8328 11.6856 12.3 11.5998L12.2488 10.7303L11.3827 10.7626C11.1263 10.7626 10.961 10.6982 10.8984 10.564C10.8357 10.4351 10.8015 10.1668 10.8015 9.75892V7.56385H12.2602V6.6354H10.8015V5.18635H9.65617V6.6354H8.8471V7.5585H9.65617V9.87703C9.65617 10.5961 9.77013 11.0846 9.99231 11.3421Z" fill="url(#paint1_linear_44_203)"/>
<path fill-rule="evenodd" clip-rule="evenodd" d="M6.83567 13.2474L7.92401 12.7697L7.0408 11.4228C7.45107 11.1651 7.74157 10.7895 7.92401 10.2957C8.10063 9.80727 8.19181 9.16328 8.19181 8.36364C8.19181 7.15072 7.97529 6.25447 7.53652 5.67482C7.10348 5.08989 6.33996 4.79999 5.25162 4.79999C4.16329 4.79999 3.39977 5.09509 2.961 5.6801C2.5223 6.2651 2.30005 7.16135 2.30005 8.36885C2.30005 9.57114 2.51657 10.4567 2.94961 11.0148C3.38265 11.5729 4.1519 11.852 5.25162 11.852C5.54793 11.852 5.75872 11.8305 5.89553 11.7929L6.83567 13.2474ZM3.88756 6.35766C4.13674 5.93902 4.58969 5.73238 5.24641 5.73238C5.90322 5.73238 6.35617 5.93895 6.59961 6.35766C6.84313 6.77637 6.96199 7.44517 6.96199 8.36955C6.96199 9.2885 6.84313 9.94643 6.611 10.3325C6.37314 10.7186 5.92018 10.9143 5.24641 10.9143C4.57264 10.9143 4.11404 10.7131 3.87625 10.3216C3.63846 9.93014 3.51953 9.27221 3.51953 8.35869C3.51953 7.43974 3.64412 6.77637 3.88756 6.35766Z" fill="url(#paint2_linear_44_203)"/>
<path d="M9.99231 11.3421C10.2146 11.5998 10.6248 11.7286 11.2232 11.7286C11.4738 11.7286 11.8328 11.6856 12.3 11.5998L12.2488 10.7303L11.3827 10.7626C11.1263 10.7626 10.961 10.6982 10.8984 10.564C10.8357 10.4351 10.8015 10.1668 10.8015 9.75892V7.56385H12.2602V6.6354H10.8015V5.18635H9.65617V6.6354H8.8471V7.5585H9.65617V9.87703C9.65617 10.5961 9.77013 11.0846 9.99231 11.3421Z" stroke="url(#paint3_linear_44_203)" stroke-width="0.4"/>
<path fill-rule="evenodd" clip-rule="evenodd" d="M6.83567 13.2474L7.92401 12.7697L7.0408 11.4228C7.45107 11.1651 7.74157 10.7895 7.92401 10.2957C8.10063 9.80727 8.19181 9.16328 8.19181 8.36364C8.19181 7.15072 7.97529 6.25447 7.53652 5.67482C7.10348 5.08989 6.33996 4.79999 5.25162 4.79999C4.16329 4.79999 3.39977 5.09509 2.961 5.6801C2.5223 6.2651 2.30005 7.16135 2.30005 8.36885C2.30005 9.57114 2.51657 10.4567 2.94961 11.0148C3.38265 11.5729 4.1519 11.852 5.25162 11.852C5.54793 11.852 5.75872 11.8305 5.89553 11.7929L6.83567 13.2474ZM3.88756 6.35766C4.13674 5.93902 4.58969 5.73238 5.24641 5.73238C5.90322 5.73238 6.35617 5.93895 6.59961 6.35766C6.84313 6.77637 6.96199 7.44517 6.96199 8.36955C6.96199 9.2885 6.84313 9.94643 6.611 10.3325C6.37314 10.7186 5.92018 10.9143 5.24641 10.9143C4.57264 10.9143 4.11404 10.7131 3.87625 10.3216C3.63846 9.93014 3.51953 9.27221 3.51953 8.35869C3.51953 7.43974 3.64412 6.77637 3.88756 6.35766Z" stroke="url(#paint4_linear_44_203)" stroke-width="0.4"/>
</g>
<path d="M10.9923 10.3421C11.2146 10.5998 11.6248 10.7286 12.2232 10.7286C12.4074 10.7286 12.6501 10.7054 12.9513 10.659C13.1509 10.6283 13.2911 10.4483 13.2792 10.2467L13.2718 10.121C13.259 9.90388 13.075 9.73676 12.8576 9.74487L12.3827 9.76257C12.1263 9.76257 11.961 9.69816 11.8984 9.56399C11.8357 9.43511 11.8015 9.16678 11.8015 8.75892V6.96385C11.8015 6.74294 11.9806 6.56385 12.2015 6.56385H12.8602C13.0811 6.56385 13.2602 6.38476 13.2602 6.16385V6.0354C13.2602 5.81448 13.0811 5.6354 12.8602 5.6354H12.2015C11.9806 5.6354 11.8015 5.45631 11.8015 5.2354V4.58635C11.8015 4.36543 11.6224 4.18635 11.4015 4.18635H11.0562C10.8353 4.18635 10.6562 4.36543 10.6562 4.58635V5.2354C10.6562 5.45631 10.4771 5.6354 10.2562 5.6354H10.2471C10.0262 5.6354 9.8471 5.81448 9.8471 6.0354V6.1585C9.8471 6.37941 10.0262 6.5585 10.2471 6.5585H10.2562C10.4771 6.5585 10.6562 6.73758 10.6562 6.9585V8.87703C10.6562 9.59612 10.7701 10.0846 10.9923 10.3421Z" fill="url(#paint5_linear_44_203)"/>
<path fill-rule="evenodd" clip-rule="evenodd" d="M7.65081 11.9614C7.75736 12.1262 7.96777 12.1894 8.1475 12.1105L8.49092 11.9598C8.7175 11.8603 8.80034 11.5811 8.66466 11.3742L8.2645 10.7639C8.14167 10.5766 8.20033 10.3276 8.36291 10.1735C8.608 9.94123 8.79361 9.64865 8.92401 9.29574C9.10063 8.80727 9.19181 8.16328 9.19181 7.36364C9.19181 6.15072 8.97529 5.25447 8.53652 4.67482C8.10348 4.08989 7.33996 3.79999 6.25162 3.79999C5.16329 3.79999 4.39977 4.09509 3.961 4.6801C3.5223 5.2651 3.30005 6.16135 3.30005 7.36885C3.30005 8.57114 3.51657 9.45668 3.94961 10.0148C4.38265 10.5729 5.1519 10.852 6.25162 10.852C6.38745 10.852 6.50532 10.8475 6.60632 10.839C6.78028 10.8243 6.95998 10.8926 7.05475 11.0392L7.65081 11.9614ZM4.88756 5.35766C5.13674 4.93902 5.58969 4.73238 6.24641 4.73238C6.90322 4.73238 7.35617 4.93895 7.59961 5.35766C7.84313 5.77637 7.96199 6.44517 7.96199 7.36955C7.96199 8.2885 7.84313 8.94643 7.611 9.33249C7.37314 9.71862 6.92018 9.91432 6.24641 9.91432C5.57264 9.91432 5.11404 9.71311 4.87625 9.32163C4.63846 8.93014 4.51953 8.27221 4.51953 7.35869C4.51953 6.43974 4.64412 5.77637 4.88756 5.35766Z" fill="url(#paint6_linear_44_203)"/>
<path d="M10.9923 10.3421C11.2146 10.5998 11.6248 10.7286 12.2232 10.7286C12.4074 10.7286 12.6501 10.7054 12.9513 10.659C13.1509 10.6283 13.2911 10.4483 13.2792 10.2467L13.2718 10.121C13.259 9.90388 13.075 9.73676 12.8576 9.74487L12.3827 9.76257C12.1263 9.76257 11.961 9.69816 11.8984 9.56399C11.8357 9.43511 11.8015 9.16678 11.8015 8.75892V6.96385C11.8015 6.74294 11.9806 6.56385 12.2015 6.56385H12.8602C13.0811 6.56385 13.2602 6.38476 13.2602 6.16385V6.0354C13.2602 5.81448 13.0811 5.6354 12.8602 5.6354H12.2015C11.9806 5.6354 11.8015 5.45631 11.8015 5.2354V4.58635C11.8015 4.36543 11.6224 4.18635 11.4015 4.18635H11.0562C10.8353 4.18635 10.6562 4.36543 10.6562 4.58635V5.2354C10.6562 5.45631 10.4771 5.6354 10.2562 5.6354H10.2471C10.0262 5.6354 9.8471 5.81448 9.8471 6.0354V6.1585C9.8471 6.37941 10.0262 6.5585 10.2471 6.5585H10.2562C10.4771 6.5585 10.6562 6.73758 10.6562 6.9585V8.87703C10.6562 9.59612 10.7701 10.0846 10.9923 10.3421Z" stroke="url(#paint7_linear_44_203)" stroke-width="0.4"/>
<path fill-rule="evenodd" clip-rule="evenodd" d="M7.65081 11.9614C7.75736 12.1262 7.96777 12.1894 8.1475 12.1105L8.49092 11.9598C8.7175 11.8603 8.80034 11.5811 8.66466 11.3742L8.2645 10.7639C8.14167 10.5766 8.20033 10.3276 8.36291 10.1735C8.608 9.94123 8.79361 9.64865 8.92401 9.29574C9.10063 8.80727 9.19181 8.16328 9.19181 7.36364C9.19181 6.15072 8.97529 5.25447 8.53652 4.67482C8.10348 4.08989 7.33996 3.79999 6.25162 3.79999C5.16329 3.79999 4.39977 4.09509 3.961 4.6801C3.5223 5.2651 3.30005 6.16135 3.30005 7.36885C3.30005 8.57114 3.51657 9.45668 3.94961 10.0148C4.38265 10.5729 5.1519 10.852 6.25162 10.852C6.38745 10.852 6.50532 10.8475 6.60632 10.839C6.78028 10.8243 6.95998 10.8926 7.05475 11.0392L7.65081 11.9614ZM4.88756 5.35766C5.13674 4.93902 5.58969 4.73238 6.24641 4.73238C6.90322 4.73238 7.35617 4.93895 7.59961 5.35766C7.84313 5.77637 7.96199 6.44517 7.96199 7.36955C7.96199 8.2885 7.84313 8.94643 7.611 9.33249C7.37314 9.71862 6.92018 9.91432 6.24641 9.91432C5.57264 9.91432 5.11404 9.71311 4.87625 9.32163C4.63846 8.93014 4.51953 8.27221 4.51953 7.35869C4.51953 6.43974 4.64412 5.77637 4.88756 5.35766Z" stroke="url(#paint8_linear_44_203)" stroke-width="0.4"/>
</g>
<defs>
<linearGradient id="paint0_linear_44_203" x1="-1" y1="18" x2="14" y2="0.999999" gradientUnits="userSpaceOnUse">
<stop stop-color="#2AC5AF"/>
<stop offset="1" stop-color="#86FF9A"/>
</linearGradient>
<linearGradient id="paint1_linear_44_203" x1="1.67505" y1="14.3033" x2="9.3239" y2="4.04135" gradientUnits="userSpaceOnUse">
<stop stop-color="#219989"/>
<stop offset="1" stop-color="#9ED5A7"/>
</linearGradient>
<linearGradient id="paint2_linear_44_203" x1="1.67505" y1="14.3033" x2="9.3239" y2="4.04135" gradientUnits="userSpaceOnUse">
<stop stop-color="#219989"/>
<stop offset="1" stop-color="#9ED5A7"/>
</linearGradient>
<linearGradient id="paint3_linear_44_203" x1="1.67505" y1="14.3033" x2="9.3239" y2="4.04135" gradientUnits="userSpaceOnUse">
<stop stop-color="#219989"/>
<stop offset="1" stop-color="#9ED5A7"/>
</linearGradient>
<linearGradient id="paint4_linear_44_203" x1="1.67505" y1="14.3033" x2="9.3239" y2="4.04135" gradientUnits="userSpaceOnUse">
<stop stop-color="#219989"/>
<stop offset="1" stop-color="#9ED5A7"/>
</linearGradient>
<linearGradient id="paint5_linear_44_203" x1="3.30005" y1="12.2474" x2="14.7934" y2="8.84594" gradientUnits="userSpaceOnUse">
<stop stop-color="#A1FFC7"/>
<stop offset="1" stop-color="white"/>
</linearGradient>
<linearGradient id="paint6_linear_44_203" x1="3.30005" y1="12.2474" x2="14.7934" y2="8.84594" gradientUnits="userSpaceOnUse">
<stop stop-color="#A1FFC7"/>
<stop offset="1" stop-color="white"/>
</linearGradient>
<linearGradient id="paint7_linear_44_203" x1="3.30005" y1="12.2474" x2="14.7934" y2="8.84594" gradientUnits="userSpaceOnUse">
<stop stop-color="#A1FFC7"/>
<stop offset="1" stop-color="white"/>
</linearGradient>
<linearGradient id="paint8_linear_44_203" x1="3.30005" y1="12.2474" x2="14.7934" y2="8.84594" gradientUnits="userSpaceOnUse">
<stop stop-color="#A1FFC7"/>
<stop offset="1" stop-color="white"/>
</linearGradient>
<clipPath id="clip0_44_203">
<rect width="16" height="16" fill="white"/>
</clipPath>
</defs>
</svg>
