<svg width="16" height="16" viewBox="0 0 16 16" fill="none" xmlns="http://www.w3.org/2000/svg">
<g clip-path="url(#clip0_23_2479)">
<path fill-rule="evenodd" clip-rule="evenodd" d="M12 4C10.896 4 10 3.104 10 2C10 1.448 9.552 1 9 1C9 1 7.394 1 6.002 1C4.344 1 3 2.344 3 4.002V11.998C3 13.656 4.344 15 6.002 15H9.998C10.794 15 11.558 14.684 12.121 14.121C12.684 13.558 13 12.794 13 11.998C13 9.346 13 5 13 5C13 4.448 12.552 4 12 4ZM0 7V9C0 9.552 0.448 10 1 10C1.552 10 2 9.552 2 9V7C2 6.448 1.552 6 1 6C0.448 6 0 6.448 0 7ZM14 7V9C14 9.552 14.448 10 15 10C15.552 10 16 9.552 16 9V7C16 6.448 15.552 6 15 6C14.448 6 14 6.448 14 7ZM12 3C12.552 3 13 2.552 13 2C13 1.448 12.552 1 12 1C11.448 1 11 1.448 11 2C11 2.552 11.448 3 12 3Z" fill="url(#paint0_linear_23_2479)"/>
<path fill-rule="evenodd" clip-rule="evenodd" d="M6 14H8C8.552 14 9 13.552 9 13C9 12.448 8.552 12 8 12H6C5.448 12 5 12.448 5 13C5 13.552 5.448 14 6 14Z" fill="#D49F34"/>
<path fill-rule="evenodd" clip-rule="evenodd" d="M7 13H9C9.552 13 10 12.552 10 12C10 11.448 9.552 11 9 11H7C6.448 11 6 11.448 6 12C6 12.552 6.448 13 7 13Z" fill="url(#paint1_linear_23_2479)"/>
<path fill-rule="evenodd" clip-rule="evenodd" d="M6.99999 4C6.20437 4 5.44129 4.31607 4.87868 4.87865C4.31607 5.44127 4 6.20433 4 7.00001C4 7.79562 4.31607 8.55868 4.87868 9.1213C5.44129 9.68392 6.20437 10 6.99999 10C7.79566 10 8.55872 9.68392 9.12129 9.1213C9.68391 8.55868 9.99998 7.79562 9.99998 7.00001C9.99998 6.20433 9.68391 5.44127 9.12129 4.87865C8.55872 4.31607 7.79566 4 6.99999 4Z" fill="#D49F34"/>
<path fill-rule="evenodd" clip-rule="evenodd" d="M7.99999 3C7.20437 3 6.44129 3.31607 5.87868 3.87865C5.31607 4.44127 5 5.20433 5 6.00001C5 6.79562 5.31607 7.55868 5.87868 8.1213C6.44129 8.68392 7.20437 9 7.99999 9C8.79566 9 9.55872 8.68392 10.1213 8.1213C10.6839 7.55868 11 6.79562 11 6.00001C11 5.20433 10.6839 4.44127 10.1213 3.87865C9.55872 3.31607 8.79566 3 7.99999 3Z" fill="url(#paint2_linear_23_2479)"/>
</g>
<defs>
<linearGradient id="paint0_linear_23_2479" x1="3" y1="14.124" x2="11.469" y2="2.5085" gradientUnits="userSpaceOnUse">
<stop stop-color="#FF8860"/>
<stop offset="1" stop-color="#FBD92C"/>
</linearGradient>
<linearGradient id="paint1_linear_23_2479" x1="7" y1="12.5" x2="7.8" y2="10.9" gradientUnits="userSpaceOnUse">
<stop stop-color="#FBD92C"/>
<stop offset="1" stop-color="white"/>
</linearGradient>
<linearGradient id="paint2_linear_23_2479" x1="6.5" y1="7.5" x2="9.5" y2="4.50001" gradientUnits="userSpaceOnUse">
<stop stop-color="#FBD92C"/>
<stop offset="1" stop-color="white"/>
</linearGradient>
<clipPath id="clip0_23_2479">
<rect width="16" height="16" fill="white"/>
</clipPath>
</defs>
</svg>
