<svg width="16" height="16" viewBox="0 0 16 16" fill="none" xmlns="http://www.w3.org/2000/svg">
<g clip-path="url(#clip0_17_2113)">
<path fill-rule="evenodd" clip-rule="evenodd" d="M3 8C3 6 1.336 5.837 1.276 5.807C0.780999 5.563 0.576999 4.963 0.820999 4.468C2.126 1.822 4.852 0 8 0C12.415 0 16 3.585 16 8C16 12.415 12.415 16 8 16C4.852 16 2.126 14.178 0.820999 11.532C0.576999 11.037 0.780999 10.437 1.276 10.193C1.336 10.163 3 10 3 8ZM1 9C0.448 9 0 8.552 0 8C0 7.448 0.448 7 1 7C1.552 7 2 7.448 2 8C2 8.552 1.552 9 1 9Z" fill="url(#paint0_linear_17_2113)"/>
<path fill-rule="evenodd" clip-rule="evenodd" d="M5.86942 4.03953C6.83285 3.98328 7.56558 3.94048 8.4424 4.25445C10.8836 5.12863 10.456 8.12603 8.33045 8.74548C8.26498 8.76455 8.17095 8.7991 8.19843 8.8615C8.20545 8.87745 8.21732 8.8931 8.22995 8.90873L10.2988 11.8658C10.3924 11.9995 10.5453 12.0791 10.7085 12.0791H11.0302C11.2845 12.0791 11.4906 12.2853 11.4906 12.5396C11.4906 12.7939 11.2845 13 11.0302 13H9.99872C9.83292 13 9.67793 12.9178 9.58488 12.7806L7.16267 9.20778C7.06962 9.07055 6.91463 8.98835 6.74883 8.98835H6.27047C5.99435 8.98835 5.77047 9.21223 5.77047 9.48835V11.5791C5.77047 11.8553 5.99435 12.0791 6.27047 12.0791H6.49785C6.75215 12.0791 6.9583 12.2853 6.9583 12.5396C6.9583 12.7939 6.75215 13 6.49785 13H3.96045C3.70615 13 3.5 12.7939 3.5 12.5396C3.5 12.2853 3.70615 12.0791 3.96045 12.0791H4.20645C4.4826 12.0791 4.70645 11.8553 4.70645 11.5791V5.4408C4.70645 5.25868 4.56962 5.10678 4.38812 5.09178C4.26007 5.08118 4.1227 5.06983 3.9776 5.05353C3.74228 5.02708 3.57275 4.823 3.57275 4.5862C3.57275 4.306 3.8076 4.08373 4.08775 4.08925C4.7836 4.10295 5.3589 4.06935 5.86942 4.03953ZM6.44137 5.10928C6.9451 5.08015 7.43763 5.05168 7.88323 5.17838C8.61553 5.38665 8.9636 5.91158 8.96345 6.4565C8.96323 7.15243 8.65887 7.6923 7.83585 7.91385C7.29315 8.05993 6.65685 8.08448 6.23653 8.08088C5.97585 8.07863 5.77562 7.8629 5.7756 7.60218V5.63495C5.77557 5.3588 5.99953 5.13363 6.27528 5.11868C6.33075 5.11568 6.38612 5.11248 6.44137 5.10928Z" fill="#279FD7" stroke="#279FD7" stroke-width="0.6"/>
<path fill-rule="evenodd" clip-rule="evenodd" d="M6.86942 3.23948C7.83285 3.18323 8.56558 3.14043 9.4424 3.4544C11.8836 4.32858 11.456 7.32598 9.33045 7.94543C9.26498 7.9645 9.17095 7.99905 9.19843 8.06145C9.20545 8.0774 9.21732 8.09305 9.22995 8.10868L11.2988 11.0657C11.3924 11.1994 11.5453 11.2791 11.7085 11.2791H12.0302C12.2845 11.2791 12.4906 11.4852 12.4906 11.7395C12.4906 11.9938 12.2845 12.2 12.0302 12.2H10.9987C10.8329 12.2 10.6779 12.1178 10.5849 11.9805L8.16267 8.40773C8.06962 8.2705 7.91463 8.1883 7.74883 8.1883H7.27047C6.99435 8.1883 6.77047 8.41218 6.77047 8.6883V10.7791C6.77047 11.0552 6.99435 11.2791 7.27047 11.2791H7.49785C7.75215 11.2791 7.9583 11.4852 7.9583 11.7395C7.9583 11.9938 7.75215 12.2 7.49785 12.2H4.96045C4.70615 12.2 4.5 11.9938 4.5 11.7395C4.5 11.4852 4.70615 11.2791 4.96045 11.2791H5.20645C5.4826 11.2791 5.70645 11.0552 5.70645 10.7791V4.64075C5.70645 4.45863 5.56962 4.30673 5.38812 4.29173C5.26007 4.28113 5.1227 4.26978 4.9776 4.25348C4.74228 4.22703 4.57275 4.02295 4.57275 3.78615C4.57275 3.50595 4.8076 3.28368 5.08775 3.2892C5.7836 3.3029 6.3589 3.2693 6.86942 3.23948ZM7.44137 4.30923C7.9451 4.2801 8.43763 4.25163 8.88323 4.37833C9.61553 4.5866 9.9636 5.11153 9.96345 5.65645C9.96323 6.35238 9.65887 6.89225 8.83585 7.1138C8.29315 7.25988 7.65685 7.28443 7.23653 7.28083C6.97585 7.27858 6.77562 7.06285 6.7756 6.80213V4.8349C6.77557 4.55875 6.99953 4.33358 7.27528 4.31863C7.33075 4.31563 7.38612 4.31243 7.44137 4.30923Z" fill="url(#paint1_linear_17_2113)" stroke="url(#paint2_linear_17_2113)" stroke-width="0.6"/>
</g>
<defs>
<linearGradient id="paint0_linear_17_2113" x1="1.6" y1="16.005" x2="7.3787" y2="-1.33327" gradientUnits="userSpaceOnUse">
<stop stop-color="#22B4FA"/>
<stop offset="1" stop-color="#6BD6FE"/>
</linearGradient>
<linearGradient id="paint1_linear_17_2113" x1="4.5" y1="12.2" x2="14.0193" y2="10.087" gradientUnits="userSpaceOnUse">
<stop stop-color="#6BD6FE"/>
<stop offset="1" stop-color="white"/>
</linearGradient>
<linearGradient id="paint2_linear_17_2113" x1="4.5" y1="12.2" x2="14.0193" y2="10.087" gradientUnits="userSpaceOnUse">
<stop stop-color="#6BD6FE"/>
<stop offset="1" stop-color="white"/>
</linearGradient>
<clipPath id="clip0_17_2113">
<rect width="16" height="16" fill="white"/>
</clipPath>
</defs>
</svg>
