<svg width="16" height="16" viewBox="0 0 16 16" fill="none" xmlns="http://www.w3.org/2000/svg">
<path fill-rule="evenodd" clip-rule="evenodd" d="M11.9433 14.9623C12.2677 14.7782 12.3637 14.373 12.3637 14C12.3637 13.0963 13.0963 12.3637 14 12.3637C14.373 12.3637 14.7782 12.2677 14.9623 11.9433C15.6228 10.7795 16 9.43382 16 8C16 3.5816 12.4184 0 8 0C3.5816 0 0 3.5816 0 8C0 9.28 0.3008 10.4896 0.8344 11.5624C0.9768 11.8472 1.024 12.1728 0.9416 12.4808L0.4656 14.2616C0.418633 14.4377 0.418807 14.6232 0.466109 14.7993C0.513418 14.9754 0.606182 15.1359 0.735113 15.2649C0.864043 15.3938 1.0246 15.4865 1.20069 15.5339C1.37679 15.5812 1.56222 15.5814 1.7384 15.5344L3.5192 15.0584C3.82832 14.9806 4.15522 15.0185 4.4384 15.1648C5.54473 15.7157 6.76407 16.0016 8 16C9.43382 16 10.7795 15.6228 11.9433 14.9623ZM14.5455 15.6364C15.148 15.6364 15.6364 15.148 15.6364 14.5455C15.6364 13.943 15.148 13.4546 14.5455 13.4546C13.943 13.4546 13.4546 13.943 13.4546 14.5455C13.4546 15.148 13.943 15.6364 14.5455 15.6364Z" fill="url(#paint0_linear_249_87)"/>
<path d="M7.28795 3.93426C7.5699 3.88591 7.96428 3.99578 7.94229 4.3483C7.92712 4.45354 7.91322 4.55918 7.8993 4.66488C7.86273 4.94312 7.82593 5.2224 7.76632 5.4954C7.66767 5.85984 7.0749 5.81522 7.00898 5.45058C6.96496 5.08595 6.92929 4.71963 6.90149 4.35346C6.87101 4.13497 7.06972 3.92341 7.28795 3.93426Z" fill="#279FD7" stroke="#279FD7"/>
<path d="M3.62435 7.06442C3.62453 7.06452 3.62471 7.06462 3.62489 7.06472C3.58932 7.05498 3.55392 7.04503 3.51869 7.03486C3.52145 7.02755 3.52456 7.01996 3.52803 7.01212C3.55445 7.02572 3.58388 7.04195 3.62074 7.06241C3.62076 7.06243 3.62079 7.06244 3.62081 7.06245L3.62435 7.06442Z" fill="#279FD7" stroke="#279FD7"/>
<path d="M11.4071 7.01853C11.3701 7.03087 11.3321 7.04251 11.2931 7.05367C11.3287 7.03551 11.3644 7.01741 11.4002 6.99935C11.4028 7.00574 11.4051 7.01216 11.4071 7.01853ZM11.4165 7.10226C11.4165 7.10225 11.4165 7.10185 11.4168 7.10111L11.4165 7.10226Z" fill="#279FD7" stroke="#279FD7"/>
<path d="M4.00067 10.8971C4.02199 10.8863 4.04325 10.8754 4.06443 10.8644C4.04585 10.8802 4.0273 10.8958 4.00876 10.9111L4.00067 10.8971Z" fill="#279FD7" stroke="#279FD7"/>
<path d="M10.9252 10.908C10.9092 10.8949 10.8932 10.8818 10.8773 10.8687L10.8831 10.8715C10.9017 10.8809 10.9175 10.8889 10.9318 10.8964C10.9296 10.9004 10.9274 10.9043 10.9252 10.908Z" fill="#279FD7" stroke="#279FD7"/>
<path d="M7.45659 12.7424C7.45896 12.717 7.46138 12.6916 7.46385 12.6662C7.46699 12.6914 7.4703 12.7168 7.4738 12.7424C7.47108 12.7425 7.46833 12.7426 7.46555 12.7426C7.46251 12.7426 7.45951 12.7425 7.45659 12.7424Z" fill="#279FD7" stroke="#279FD7"/>
<path d="M3.86347 6.62529C3.66171 6.51329 3.43353 6.38667 3.23243 6.55863C3.02007 6.78922 2.84885 7.28303 3.20854 7.46363C3.57875 7.57983 3.96327 7.66823 4.34591 7.74417C4.71229 7.82003 4.93805 7.29743 4.66255 7.06206C4.53223 6.97063 4.39006 6.89926 4.24781 6.82785C4.16144 6.78451 4.07481 6.74102 3.99101 6.69314C3.95013 6.67337 3.90741 6.64969 3.86347 6.62529Z" fill="#279FD7" stroke="#279FD7"/>
<path d="M11.3266 6.47693C10.9813 6.64892 10.6379 6.82665 10.303 7.01878C9.96824 7.2138 10.1825 7.80174 10.5642 7.73641C10.6815 7.70701 10.8008 7.68141 10.9204 7.65581L10.9226 7.65534C11.2284 7.58974 11.5362 7.52374 11.8183 7.39348C12.0833 7.06972 11.7867 6.35588 11.3266 6.47693Z" fill="#279FD7" stroke="#279FD7"/>
<path d="M5.14194 10.2651C5.06634 10.0508 4.80522 9.90965 4.59477 10.024C4.43274 10.1022 4.27359 10.1873 4.11436 10.2724L4.11337 10.273C3.99749 10.3349 3.88156 10.3969 3.76445 10.4563C3.43921 10.5524 3.35404 10.9654 3.59608 11.196C3.70608 11.3853 3.92324 11.5351 4.14708 11.4372C4.34456 11.2922 4.52572 11.1267 4.70688 10.9611C4.7995 10.8764 4.89216 10.7918 4.98698 10.7099C5.1228 10.6061 5.1802 10.4313 5.14194 10.2651Z" fill="#279FD7" stroke="#279FD7"/>
<path d="M9.79924 10.556C9.65857 10.2659 9.95897 9.89418 10.2718 9.99698C10.4255 10.0644 10.5734 10.1438 10.7214 10.2234L10.7231 10.2244C10.8214 10.2772 10.9197 10.33 11.0198 10.3793C11.0468 10.394 11.0748 10.4081 11.1029 10.4224L11.1051 10.4234C11.2496 10.4966 11.4001 10.5728 11.4646 10.7328C11.4981 11.0816 11.1652 11.5888 10.7702 11.4255C10.4315 11.1556 10.0986 10.8702 9.79924 10.556Z" fill="#279FD7" stroke="#279FD7"/>
<path d="M7.8344 11.6542C7.7206 11.3256 7.1906 11.3304 7.08827 11.6647C7.02227 12.0644 6.97727 12.4698 6.94287 12.8743C7.02127 13.37 7.91287 13.3613 8.00087 12.8723C7.96647 12.689 7.94754 12.5031 7.92854 12.3171L7.92847 12.3161C7.90594 12.0941 7.88334 11.872 7.8344 11.6542Z" fill="#279FD7" stroke="#279FD7"/>
<path d="M7.85173 3.14629C8.13368 3.09794 8.52806 3.20782 8.50607 3.56034C8.4909 3.66558 8.477 3.77122 8.46308 3.87692C8.42651 4.15516 8.38972 4.43443 8.3301 4.70744C8.23145 5.07188 7.63869 5.02726 7.57276 4.66262C7.52874 4.29798 7.49307 3.93167 7.46528 3.56549C7.4348 3.34701 7.63351 3.13544 7.85173 3.14629Z" fill="url(#paint1_linear_249_87)" stroke="url(#paint2_linear_249_87)"/>
<path d="M4.18814 6.27646C4.18832 6.27656 4.1885 6.27666 4.18868 6.27676C4.15311 6.26702 4.1177 6.25707 4.08247 6.2469C4.08524 6.23959 4.08834 6.23199 4.09181 6.22416C4.11823 6.23776 4.14766 6.25399 4.18452 6.27445C4.18454 6.27446 4.18457 6.27448 4.18459 6.27449L4.18814 6.27646Z" fill="url(#paint3_linear_249_87)" stroke="url(#paint4_linear_249_87)"/>
<path d="M11.9709 6.23057C11.9338 6.24291 11.8959 6.25455 11.8569 6.2657C11.8925 6.24754 11.9282 6.22944 11.9639 6.21139C11.9666 6.21778 11.9689 6.2242 11.9709 6.23057ZM11.9803 6.31429C11.9802 6.31428 11.9803 6.31389 11.9806 6.31315L11.9803 6.31429Z" fill="url(#paint5_linear_249_87)" stroke="url(#paint6_linear_249_87)"/>
<path d="M4.56445 10.1092C4.58577 10.0983 4.60703 10.0874 4.62821 10.0765C4.60963 10.0923 4.59109 10.1078 4.57254 10.1231L4.56445 10.1092Z" fill="url(#paint7_linear_249_87)" stroke="url(#paint8_linear_249_87)"/>
<path d="M11.489 10.1201C11.473 10.107 11.457 10.0939 11.4411 10.0807L11.4469 10.0835C11.4655 10.0929 11.4813 10.101 11.4956 10.1084C11.4934 10.1124 11.4912 10.1163 11.489 10.1201Z" fill="url(#paint9_linear_249_87)" stroke="url(#paint10_linear_249_87)"/>
<path d="M8.02037 11.9545C8.02274 11.9291 8.02516 11.9036 8.02763 11.8783C8.03077 11.9035 8.03408 11.9289 8.03758 11.9544C8.03486 11.9545 8.03211 11.9546 8.02933 11.9546C8.02629 11.9546 8.0233 11.9546 8.02037 11.9545Z" fill="url(#paint11_linear_249_87)" stroke="url(#paint12_linear_249_87)"/>
<path d="M4.42726 5.83732C4.2255 5.72533 3.99731 5.5987 3.79621 5.77067C3.58385 6.00126 3.41263 6.49507 3.77232 6.67567C4.14253 6.79187 4.52705 6.88027 4.90969 6.9562C5.27607 7.03207 5.50183 6.50947 5.22633 6.2741C5.09601 6.18267 4.95384 6.1113 4.81159 6.03988C4.72522 5.99654 4.63859 5.95306 4.5548 5.90518C4.51391 5.8854 4.4712 5.86172 4.42726 5.83732Z" fill="url(#paint13_linear_249_87)" stroke="url(#paint14_linear_249_87)"/>
<path d="M11.8904 5.68897C11.5451 5.86095 11.2017 6.03869 10.8668 6.23082C10.532 6.42584 10.7463 7.01378 11.128 6.94845C11.2453 6.91905 11.3646 6.89345 11.4842 6.86785L11.4864 6.86738C11.7922 6.80178 12.1 6.73578 12.3821 6.60551C12.6471 6.28176 12.3505 5.56791 11.8904 5.68897Z" fill="url(#paint15_linear_249_87)" stroke="url(#paint16_linear_249_87)"/>
<path d="M5.70572 9.47715C5.63012 9.26288 5.369 9.12168 5.15855 9.23602C4.99652 9.31428 4.83737 9.39935 4.67814 9.48448L4.67715 9.48502C4.56127 9.54695 4.44534 9.60895 4.32823 9.66835C4.00299 9.76442 3.91782 10.1775 4.15986 10.4081C4.26986 10.5973 4.48702 10.7471 4.71086 10.6492C4.90834 10.5043 5.0895 10.3387 5.27066 10.1731C5.36328 10.0885 5.45594 10.0038 5.55076 9.92195C5.68658 9.81815 5.74398 9.64335 5.70572 9.47715Z" fill="url(#paint17_linear_249_87)" stroke="url(#paint18_linear_249_87)"/>
<path d="M10.363 9.76808C10.2224 9.47795 10.5228 9.10621 10.8356 9.20901C10.9893 9.27641 11.1372 9.35588 11.2852 9.43548L11.2869 9.43641C11.3852 9.48921 11.4835 9.54201 11.5836 9.59135C11.6106 9.60601 11.6386 9.62015 11.6667 9.63441L11.6689 9.63548C11.8134 9.70861 11.9639 9.78481 12.0284 9.94488C12.0619 10.2936 11.729 10.8009 11.334 10.6375C10.9953 10.3676 10.6624 10.0823 10.363 9.76808Z" fill="url(#paint19_linear_249_87)" stroke="url(#paint20_linear_249_87)"/>
<path d="M8.39819 10.8662C8.28439 10.5376 7.75439 10.5424 7.65205 10.8768C7.58605 11.2764 7.54105 11.6818 7.50665 12.0863C7.58505 12.582 8.47665 12.5734 8.56465 12.0844C8.53025 11.901 8.51132 11.7151 8.49232 11.5291L8.49225 11.5282C8.46972 11.3061 8.44712 11.084 8.39819 10.8662Z" fill="url(#paint21_linear_249_87)" stroke="url(#paint22_linear_249_87)"/>
<defs>
<linearGradient id="paint0_linear_249_87" x1="1.6" y1="16.005" x2="7.3787" y2="-1.33327" gradientUnits="userSpaceOnUse">
<stop stop-color="#22B4FA"/>
<stop offset="1" stop-color="#6BD6FE"/>
</linearGradient>
<linearGradient id="paint1_linear_249_87" x1="7.11552" y1="4.74292" x2="8.54153" y2="4.89693" gradientUnits="userSpaceOnUse">
<stop stop-color="#6BD6FE"/>
<stop offset="1" stop-color="white"/>
</linearGradient>
<linearGradient id="paint2_linear_249_87" x1="7.11552" y1="4.74292" x2="8.54153" y2="4.89693" gradientUnits="userSpaceOnUse">
<stop stop-color="#6BD6FE"/>
<stop offset="1" stop-color="white"/>
</linearGradient>
<linearGradient id="paint3_linear_249_87" x1="3.56378" y1="6.96366" x2="5.55229" y2="6.26891" gradientUnits="userSpaceOnUse">
<stop stop-color="#6BD6FE"/>
<stop offset="1" stop-color="white"/>
</linearGradient>
<linearGradient id="paint4_linear_249_87" x1="3.56378" y1="6.96366" x2="5.55229" y2="6.26891" gradientUnits="userSpaceOnUse">
<stop stop-color="#6BD6FE"/>
<stop offset="1" stop-color="white"/>
</linearGradient>
<linearGradient id="paint5_linear_249_87" x1="10.7007" y1="6.95349" x2="12.6862" y2="6.26176" gradientUnits="userSpaceOnUse">
<stop stop-color="#6BD6FE"/>
<stop offset="1" stop-color="white"/>
</linearGradient>
<linearGradient id="paint6_linear_249_87" x1="10.7007" y1="6.95349" x2="12.6862" y2="6.26176" gradientUnits="userSpaceOnUse">
<stop stop-color="#6BD6FE"/>
<stop offset="1" stop-color="white"/>
</linearGradient>
<linearGradient id="paint7_linear_249_87" x1="4.02081" y1="10.6801" x2="5.98149" y2="10.12" gradientUnits="userSpaceOnUse">
<stop stop-color="#6BD6FE"/>
<stop offset="1" stop-color="white"/>
</linearGradient>
<linearGradient id="paint8_linear_249_87" x1="4.02081" y1="10.6801" x2="5.98149" y2="10.12" gradientUnits="userSpaceOnUse">
<stop stop-color="#6BD6FE"/>
<stop offset="1" stop-color="white"/>
</linearGradient>
<linearGradient id="paint9_linear_249_87" x1="10.3274" y1="10.6691" x2="12.2933" y2="10.1025" gradientUnits="userSpaceOnUse">
<stop stop-color="#6BD6FE"/>
<stop offset="1" stop-color="white"/>
</linearGradient>
<linearGradient id="paint10_linear_249_87" x1="10.3274" y1="10.6691" x2="12.2933" y2="10.1025" gradientUnits="userSpaceOnUse">
<stop stop-color="#6BD6FE"/>
<stop offset="1" stop-color="white"/>
</linearGradient>
<linearGradient id="paint11_linear_249_87" x1="7.50665" y1="12.4546" x2="8.80214" y2="12.2676" gradientUnits="userSpaceOnUse">
<stop stop-color="#6BD6FE"/>
<stop offset="1" stop-color="white"/>
</linearGradient>
<linearGradient id="paint12_linear_249_87" x1="7.50665" y1="12.4546" x2="8.80214" y2="12.2676" gradientUnits="userSpaceOnUse">
<stop stop-color="#6BD6FE"/>
<stop offset="1" stop-color="white"/>
</linearGradient>
<linearGradient id="paint13_linear_249_87" x1="3.56378" y1="6.96366" x2="5.55229" y2="6.26891" gradientUnits="userSpaceOnUse">
<stop stop-color="#6BD6FE"/>
<stop offset="1" stop-color="white"/>
</linearGradient>
<linearGradient id="paint14_linear_249_87" x1="3.56378" y1="6.96366" x2="5.55229" y2="6.26891" gradientUnits="userSpaceOnUse">
<stop stop-color="#6BD6FE"/>
<stop offset="1" stop-color="white"/>
</linearGradient>
<linearGradient id="paint15_linear_249_87" x1="10.7007" y1="6.95349" x2="12.6862" y2="6.26176" gradientUnits="userSpaceOnUse">
<stop stop-color="#6BD6FE"/>
<stop offset="1" stop-color="white"/>
</linearGradient>
<linearGradient id="paint16_linear_249_87" x1="10.7007" y1="6.95349" x2="12.6862" y2="6.26176" gradientUnits="userSpaceOnUse">
<stop stop-color="#6BD6FE"/>
<stop offset="1" stop-color="white"/>
</linearGradient>
<linearGradient id="paint17_linear_249_87" x1="4.02081" y1="10.6801" x2="5.98149" y2="10.12" gradientUnits="userSpaceOnUse">
<stop stop-color="#6BD6FE"/>
<stop offset="1" stop-color="white"/>
</linearGradient>
<linearGradient id="paint18_linear_249_87" x1="4.02081" y1="10.6801" x2="5.98149" y2="10.12" gradientUnits="userSpaceOnUse">
<stop stop-color="#6BD6FE"/>
<stop offset="1" stop-color="white"/>
</linearGradient>
<linearGradient id="paint19_linear_249_87" x1="10.3274" y1="10.6691" x2="12.2933" y2="10.1025" gradientUnits="userSpaceOnUse">
<stop stop-color="#6BD6FE"/>
<stop offset="1" stop-color="white"/>
</linearGradient>
<linearGradient id="paint20_linear_249_87" x1="10.3274" y1="10.6691" x2="12.2933" y2="10.1025" gradientUnits="userSpaceOnUse">
<stop stop-color="#6BD6FE"/>
<stop offset="1" stop-color="white"/>
</linearGradient>
<linearGradient id="paint21_linear_249_87" x1="7.50665" y1="12.4546" x2="8.80214" y2="12.2676" gradientUnits="userSpaceOnUse">
<stop stop-color="#6BD6FE"/>
<stop offset="1" stop-color="white"/>
</linearGradient>
<linearGradient id="paint22_linear_249_87" x1="7.50665" y1="12.4546" x2="8.80214" y2="12.2676" gradientUnits="userSpaceOnUse">
<stop stop-color="#6BD6FE"/>
<stop offset="1" stop-color="white"/>
</linearGradient>
</defs>
</svg>
