<svg width="16" height="16" viewBox="0 0 16 16" fill="none" xmlns="http://www.w3.org/2000/svg">
<g clip-path="url(#clip0_112_493)">
<circle cx="4" cy="14" r="1" fill="url(#paint0_linear_112_493)"/>
<path d="M9.5441 15.6723C10.0937 15.8883 10.6799 15.9999 11.2725 16C12.0716 16.0001 12.8578 15.7974 13.5575 15.4112C14.2571 15.0249 14.8474 14.4675 15.273 13.7912C15.6988 13.1147 15.9461 12.3415 15.9918 11.5436C16.031 10.8603 15.9212 10.1779 15.6717 9.54342C15.5899 9.33542 15.5562 9.1107 15.5824 8.88874C15.7107 7.80247 15.604 6.69986 15.268 5.6561C14.8968 4.50326 14.2566 3.45533 13.4002 2.59894C12.5438 1.74256 11.4959 1.10233 10.343 0.731191C9.29921 0.395159 8.19659 0.288466 7.11022 0.416714C6.88836 0.442906 6.66372 0.409292 6.4558 0.32757C5.65572 0.0131077 4.78273 -0.0779847 3.93105 0.0674668C2.96632 0.232232 2.07651 0.692403 1.38446 1.38446C0.692403 2.07651 0.232232 2.96632 0.0674667 3.93106C-0.0779804 4.7827 0.0131023 5.65566 0.327542 6.45573C0.409278 6.6637 0.442885 6.88838 0.416663 7.11029C0.288285 8.19673 0.394907 9.29953 0.730914 10.3435C0.980961 11.1203 1.35319 11.8496 1.83142 12.5047C2.19591 13.004 2.91616 12.9125 3.43104 12.5704C3.61416 12.4487 3.81003 12.3634 3.99933 12.3634C4.8027 12.3634 5.45396 13.0147 5.45396 13.8181C5.45396 13.9925 5.42326 14.1597 5.36698 14.3147C5.23945 14.6658 5.30078 15.1545 5.65638 15.269V15.269C6.70032 15.605 7.80311 15.7116 8.88955 15.5832C9.11146 15.557 9.33613 15.5906 9.5441 15.6723Z" fill="url(#paint1_linear_112_493)"/>
<path d="M10.0631 9.07583C9.89885 8.79389 9.67142 8.55394 9.39867 8.37474C9.13205 8.20343 8.84267 8.0704 8.53902 7.9796C8.35244 7.92291 8.14582 7.8676 7.93193 7.81497C7.74536 7.76303 7.5241 7.70971 7.25084 7.64971C6.92479 7.58137 6.60479 7.48686 6.29387 7.36714C6.13364 7.30491 5.99224 7.20229 5.88338 7.06927C5.80371 6.96042 5.76586 6.82653 5.77675 6.69208C5.77651 6.54791 5.82461 6.40783 5.91337 6.29423C6.03759 6.14873 6.19873 6.03938 6.37987 5.97769C6.6845 5.87301 7.00553 5.82425 7.32747 5.83374C7.57662 5.82961 7.82502 5.8624 8.06456 5.93104C8.22342 5.97573 8.37302 6.0484 8.50639 6.14562C8.59262 6.20717 8.66616 6.28478 8.72296 6.3742C8.7641 6.45186 8.82022 6.52061 8.88805 6.5765C8.95587 6.63239 9.03405 6.67431 9.11816 6.69985C9.20227 6.72539 9.29056 6.73405 9.37799 6.72532C9.46547 6.71659 9.55033 6.69065 9.6277 6.64899C9.70507 6.60733 9.77347 6.55078 9.8289 6.48258C9.88433 6.41439 9.92576 6.33591 9.95073 6.25165C9.9757 6.16739 9.98382 6.07902 9.9745 5.99163C9.96519 5.90424 9.93867 5.81955 9.8965 5.74245C9.75599 5.49389 9.56616 5.27664 9.33873 5.10402C9.07593 4.90215 8.77787 4.75096 8.4597 4.65819C8.0925 4.5497 7.71107 4.49669 7.32816 4.50092C6.84142 4.49045 6.3569 4.5695 5.89871 4.73417C5.48435 4.88501 5.12037 5.14859 4.84778 5.49521C4.5867 5.83986 4.44535 6.26037 4.44527 6.69274C4.43446 7.1232 4.5708 7.54446 4.83178 7.88697C5.08374 8.20429 5.41402 8.45051 5.79008 8.60137C6.07422 8.71069 6.36519 8.80149 6.66107 8.87326L7.68136 9.12514C7.84662 9.16777 8.00587 9.21109 8.15182 9.25577C8.33113 9.30823 8.50227 9.38537 8.66033 9.48503C8.75885 9.54691 8.8417 9.63086 8.90222 9.73023C8.96079 9.85149 8.98787 9.9856 8.98084 10.1201C8.9901 10.2942 8.93982 10.4662 8.83827 10.6079C8.70113 10.7863 8.51559 10.9217 8.30376 10.9978C7.98805 11.1196 7.65107 11.1767 7.31285 11.1657C6.9217 11.1807 6.53256 11.1021 6.17793 10.9365C6.01412 10.8492 5.87342 10.7243 5.76742 10.5719C5.69302 10.4745 5.6465 10.3586 5.63281 10.2367C5.63281 10.06 5.5626 9.89046 5.43762 9.76549C5.31264 9.64051 5.14314 9.57029 4.9664 9.57029C4.78966 9.57029 4.62015 9.64051 4.49518 9.76549C4.3702 9.89046 4.29999 10.06 4.29999 10.2367C4.31097 10.6299 4.44008 11.0108 4.67051 11.3297C4.9008 11.6613 5.20755 11.9326 5.56483 12.1207C6.10845 12.3859 6.70822 12.5155 7.31285 12.4985C7.82662 12.511 8.33759 12.4191 8.8149 12.2286C9.25862 12.0583 9.64387 11.7638 9.9245 11.3803C10.1912 11.0066 10.328 10.5557 10.3137 10.0967C10.3199 9.74103 10.2338 9.38971 10.0638 9.07714L10.0631 9.07583Z" fill="#279FD7"/>
<path d="M11.0632 8.07583C10.8989 7.79389 10.6715 7.55394 10.3987 7.37474C10.1321 7.20343 9.84273 7.0704 9.53908 6.9796C9.35251 6.92291 9.14588 6.8676 8.93199 6.81497C8.74542 6.76303 8.52416 6.70971 8.25091 6.64971C7.92485 6.58137 7.60485 6.48686 7.29393 6.36714C7.13371 6.30491 6.99231 6.20229 6.88344 6.06927C6.80377 5.96042 6.76592 5.82653 6.77681 5.69208C6.77657 5.54791 6.82467 5.40783 6.91343 5.29423C7.03765 5.14873 7.19879 5.03938 7.37993 4.97769C7.68456 4.87301 8.00559 4.82425 8.32753 4.83374C8.57668 4.82961 8.82508 4.8624 9.06462 4.93104C9.22348 4.97573 9.37308 5.0484 9.50645 5.14562C9.59268 5.20717 9.66622 5.28478 9.72302 5.3742C9.76416 5.45186 9.82028 5.52061 9.88811 5.5765C9.95593 5.63239 10.0341 5.67431 10.1182 5.69985C10.2023 5.72539 10.2906 5.73405 10.378 5.72532C10.4655 5.71659 10.5504 5.69065 10.6278 5.64899C10.7051 5.60733 10.7735 5.55078 10.829 5.48258C10.8844 5.41439 10.9258 5.33591 10.9508 5.25165C10.9758 5.16739 10.9839 5.07902 10.9746 4.99163C10.9652 4.90424 10.9387 4.81955 10.8966 4.74245C10.756 4.49389 10.5662 4.27664 10.3388 4.10402C10.076 3.90215 9.77793 3.75096 9.45976 3.65819C9.09256 3.5497 8.71113 3.49669 8.32822 3.50092C7.84148 3.49045 7.35696 3.5695 6.89877 3.73417C6.48441 3.88501 6.12043 4.14859 5.84784 4.49521C5.58676 4.83986 5.44541 5.26037 5.44533 5.69274C5.43452 6.1232 5.57086 6.54446 5.83184 6.88697C6.0838 7.20429 6.41408 7.45051 6.79015 7.60137C7.07428 7.71069 7.36525 7.80149 7.66113 7.87326L8.68142 8.12514C8.84668 8.16777 9.00593 8.21109 9.15188 8.25577C9.33119 8.30823 9.50233 8.38537 9.66039 8.48503C9.75891 8.54691 9.84176 8.63086 9.90228 8.73023C9.96085 8.85149 9.98793 8.9856 9.98091 9.12011C9.99016 9.29417 9.93988 9.46623 9.83833 9.60789C9.70119 9.78634 9.51565 9.92166 9.30382 9.99777C8.98811 10.1196 8.65113 10.1767 8.31291 10.1657C7.92176 10.1807 7.53262 10.1021 7.17799 9.93646C7.01419 9.8492 6.87348 9.72429 6.76748 9.57194C6.69308 9.47446 6.64656 9.35857 6.63287 9.23674C6.63287 9.06 6.56266 8.89046 6.43768 8.76549C6.31271 8.64051 6.1432 8.57029 5.96646 8.57029C5.78972 8.57029 5.62021 8.64051 5.49524 8.76549C5.37026 8.89046 5.30005 9.06 5.30005 9.23674C5.31103 9.62994 5.44015 10.0108 5.67057 10.3297C5.90087 10.6613 6.20761 10.9326 6.56489 11.1207C7.10851 11.3859 7.70828 11.5155 8.31291 11.4985C8.82668 11.511 9.33765 11.4191 9.81496 11.2286C10.2587 11.0583 10.6439 10.7638 10.9246 10.3803C11.1913 10.0066 11.328 9.55566 11.3138 9.09674C11.3199 8.74103 11.2338 8.38971 11.0638 8.07714L11.0632 8.07583Z" fill="url(#paint2_linear_112_493)"/>
</g>
<defs>
<linearGradient id="paint0_linear_112_493" x1="3.2" y1="15.0006" x2="3.92234" y2="12.8333" gradientUnits="userSpaceOnUse">
<stop offset="0.190745" stop-color="#22B4FA"/>
<stop offset="0.896724" stop-color="#7DDCFF"/>
</linearGradient>
<linearGradient id="paint1_linear_112_493" x1="1.59995" y1="16.005" x2="7.37879" y2="-1.33317" gradientUnits="userSpaceOnUse">
<stop offset="0.190745" stop-color="#22B4FA"/>
<stop offset="0.896724" stop-color="#7DDCFF"/>
</linearGradient>
<linearGradient id="paint2_linear_112_493" x1="5.30005" y1="11.5" x2="12.5619" y2="10.1351" gradientUnits="userSpaceOnUse">
<stop stop-color="#6BD6FE"/>
<stop offset="1" stop-color="white"/>
</linearGradient>
<clipPath id="clip0_112_493">
<rect width="16" height="16" fill="white"/>
</clipPath>
</defs>
</svg>
