<svg width="16" height="16" viewBox="0 0 16 16" fill="none" xmlns="http://www.w3.org/2000/svg">
<g clip-path="url(#clip0_12_763)">
<path fill-rule="evenodd" clip-rule="evenodd" d="M11.6885 0.00599931C12.2405 0.00754726 12.5714 0.590798 12.5714 1.14286C12.5714 2.40522 13.5948 3.42857 14.8571 3.42857C15.4092 3.42857 15.9925 3.75947 15.994 4.31152C15.998 5.73124 16 7.93134 16 8V12.5714C16 14.465 14.465 16 12.5714 16H3.42857C1.53502 16 0 14.465 0 12.5714V3.42857C0 1.53502 1.53502 0 3.42857 0H8C8.06866 0 10.2688 0.00201847 11.6885 0.00599931ZM14.8571 2.28571C15.4883 2.28571 16 1.77404 16 1.14286C16 0.511675 15.4883 0 14.8571 0C14.226 0 13.7143 0.511675 13.7143 1.14286C13.7143 1.77404 14.226 2.28571 14.8571 2.28571Z" fill="url(#paint0_linear_12_763)"/>
<path d="M7.29538 12.5253C7.02102 12.3812 6.69333 12.3812 6.41897 12.5253L5.05258 13.243C4.36109 13.6061 3.55333 13.0189 3.68546 12.2491L3.94587 10.7321C3.99838 10.4261 3.89686 10.1139 3.67441 9.89733L2.57184 8.82395C2.01192 8.27883 2.32044 7.3283 3.09376 7.21596L4.61952 6.99429C4.92634 6.94971 5.1916 6.75712 5.32896 6.47914L6.01225 5.09637C6.35809 4.39642 7.35626 4.39642 7.7021 5.09637L8.38539 6.47914C8.52275 6.75712 8.78804 6.94971 9.09486 6.99429L10.6206 7.21596C11.3939 7.3283 11.7025 8.27883 11.1426 8.82395L10.04 9.89733C9.81754 10.1139 9.71599 10.4261 9.76853 10.7321L10.0289 12.2491C10.161 13.0189 9.35326 13.6061 8.66177 13.243L7.29538 12.5253Z" fill="#D49F34"/>
<path d="M8.4382 11.3825C8.16385 11.2384 7.83615 11.2384 7.5618 11.3825L6.19541 12.1001C5.50392 12.4633 4.69615 11.8761 4.82828 11.1063L5.08869 9.58925C5.14121 9.28328 5.03968 8.97109 4.81723 8.75451L3.71466 7.68113C3.15474 7.13601 3.46326 6.18548 4.23658 6.07314L5.76234 5.85147C6.06916 5.80689 6.33442 5.6143 6.47178 5.33632L7.15507 3.95355C7.50091 3.2536 8.49908 3.2536 8.84492 3.95355L9.52821 5.33632C9.66558 5.6143 9.93086 5.80689 10.2377 5.85147L11.7634 6.07314C12.5368 6.18548 12.8453 7.13601 12.2854 7.68113L11.1828 8.75451C10.9604 8.97109 10.8588 9.28328 10.9114 9.58925L11.1717 11.1063C11.3039 11.8761 10.4961 12.4633 9.80459 12.1001L8.4382 11.3825Z" fill="url(#paint1_linear_12_763)"/>
</g>
<defs>
<linearGradient id="paint0_linear_12_763" x1="3" y1="14.9988" x2="12.9991" y2="2.999" gradientUnits="userSpaceOnUse">
<stop stop-color="#FF8860"/>
<stop offset="1" stop-color="#FBD92C"/>
</linearGradient>
<linearGradient id="paint1_linear_12_763" x1="5.7143" y1="10.0149" x2="10.1016" y2="5.44716" gradientUnits="userSpaceOnUse">
<stop stop-color="#FBD92C"/>
<stop offset="1" stop-color="white"/>
</linearGradient>
<clipPath id="clip0_12_763">
<rect width="16" height="16" fill="white"/>
</clipPath>
</defs>
</svg>
