<svg width="16" height="16" viewBox="0 0 16 16" fill="none" xmlns="http://www.w3.org/2000/svg">
<path d="M11.4288 14.3C13.9537 14.3 16 12.2776 16 9.7824C16 8.88489 15.7352 8.04851 15.2786 7.34543C14.9161 6.7873 14.0786 7.0066 13.4505 7.22665C13.2811 7.28601 13.0989 7.31828 12.9093 7.31828C12.0055 7.31828 11.2729 6.58565 11.2729 5.6819C11.2729 5.35177 11.3706 5.04446 11.5388 4.78737C11.8858 4.25678 12.2611 3.5469 11.8443 3.06919C11.0059 2.10833 9.765 1.5 8.3808 1.5C5.85601 1.5 3.80961 3.5224 3.80961 6.0176C3.80961 6.3361 3.8429 6.6466 3.90625 6.94634C3.9667 7.23238 3.72116 7.52328 3.4288 7.52321C1.5352 7.52401 0 9.0408 0 10.912C0 12.7832 1.5352 14.3 3.4288 14.3H11.4288Z" fill="url(#paint0_linear_243_188)"/>
<path d="M13.4547 6.22736C14.0572 6.22736 14.5456 5.73894 14.5456 5.13644C14.5456 4.53394 14.0572 4.04552 13.4547 4.04552C12.8522 4.04552 12.3638 4.53394 12.3638 5.13644C12.3638 5.73894 12.8522 6.22736 13.4547 6.22736Z" fill="url(#paint1_linear_243_188)"/>
<path fill-rule="evenodd" clip-rule="evenodd" d="M8.57069 14.3V12.3754C8.57069 12.2007 8.78197 12.1131 8.90554 12.2367C9.35124 12.6824 10.0758 12.6824 10.5215 12.2367C10.9672 11.791 10.9672 11.0665 10.5215 10.6208L8.23585 8.33513C7.79015 7.88829 7.0656 7.88829 6.61991 8.33513L4.33427 10.6208C3.88858 11.0665 3.88858 11.791 4.33427 12.2367C4.77997 12.6824 5.50452 12.6824 5.95022 12.2367C6.07378 12.1131 6.28506 12.2007 6.28506 12.3754V14.3H8.57069Z" fill="#D49F34"/>
<path d="M9.90554 11.2366V11.2366C9.78197 11.113 9.57069 11.2005 9.57069 11.3753V13.8571C9.57069 14.4879 9.05871 14.9999 8.42788 14.9999C7.79704 14.9999 7.28506 14.4879 7.28506 13.8571V11.3753C7.28506 11.2005 7.07378 11.113 6.95022 11.2366V11.2366C6.50452 11.6823 5.77997 11.6823 5.33427 11.2366C4.88858 10.7909 4.88858 10.0663 5.33427 9.62064L7.61991 7.33501C8.0656 6.88817 8.79015 6.88817 9.23585 7.33501L11.5215 9.62064C11.9672 10.0663 11.9672 10.7909 11.5215 11.2366C11.0758 11.6823 10.3512 11.6823 9.90554 11.2366Z" fill="url(#paint2_linear_243_188)"/>
<defs>
<linearGradient id="paint0_linear_243_188" x1="3" y1="13.4991" x2="10.5069" y2="2.23789" gradientUnits="userSpaceOnUse">
<stop stop-color="#FF8860"/>
<stop offset="1" stop-color="#FBD92C"/>
</linearGradient>
<linearGradient id="paint1_linear_243_188" x1="3" y1="13.4991" x2="10.5069" y2="2.23789" gradientUnits="userSpaceOnUse">
<stop stop-color="#FF8860"/>
<stop offset="1" stop-color="#FBD92C"/>
</linearGradient>
<linearGradient id="paint2_linear_243_188" x1="6.71394" y1="12.9999" x2="10.6668" y2="9.61243" gradientUnits="userSpaceOnUse">
<stop stop-color="#FBD92C"/>
<stop offset="1" stop-color="white"/>
</linearGradient>
</defs>
</svg>
