<svg width="16" height="16" viewBox="0 0 16 16" fill="none" xmlns="http://www.w3.org/2000/svg">
<g clip-path="url(#clip0_42_1589)">
<path fill-rule="evenodd" clip-rule="evenodd" d="M1 13C0.448 13 0 12.552 0 12V3.992C0 1.787 1.787 0 3.992 0C6.357 0 9.643 0 12.008 0C13.067 0 14.082 0.421001 14.831 1.169C15.579 1.918 16 2.933 16 3.992C16 6.357 16 9.643 16 12.008C16 14.213 14.213 16 12.008 16C8.751 16 4 16 4 16C3.448 16 3 15.552 3 15C3 13.896 2.104 13 1 13ZM1 14C1.552 14 2 14.448 2 15C2 15.552 1.552 16 1 16C0.448 16 0 15.552 0 15C0 14.448 0.448 14 1 14Z" fill="url(#paint0_linear_42_1589)"/>
<path d="M7.16996 5.00711C9.14666 4.95368 11.1708 5.19299 12.989 6.0069C13.2724 6.12508 13.4919 6.40224 13.499 6.71456C13.5204 7.11438 13.1893 7.50323 12.7843 7.52232C12.5944 7.54221 12.4185 7.46941 12.247 7.39844L12.2425 7.39662C12.2083 7.3825 12.1745 7.36848 12.1406 7.35532C10.7263 6.75912 9.17334 6.58613 7.65224 6.57746C6.0091 6.57687 4.36238 6.83778 2.81795 7.40234C2.44448 7.55775 1.93559 7.59069 1.6673 7.23066C1.33834 6.83376 1.51689 6.17138 2.00718 6.00238C3.64608 5.36133 5.41181 5.0363 7.16996 5.00711Z" fill="#7FD1AE"/>
<path d="M12.2845 8.88559C10.7233 8.16229 8.97937 7.87228 7.26603 7.9129C5.80525 7.94379 4.34252 8.21036 2.98744 8.76194C2.79479 8.83999 2.58585 8.93078 2.48177 9.1236C2.26528 9.4737 2.48104 9.98893 2.88371 10.0805C3.04258 10.1485 3.20714 10.0933 3.36246 10.0409C3.38998 10.0317 3.41722 10.0225 3.44409 10.0142C5.86516 9.04095 8.64888 8.95652 11.1151 9.81756C11.2213 9.84941 11.3298 9.8976 11.4397 9.94642C11.7391 10.0797 12.0489 10.2173 12.3527 10.0388C12.784 9.78831 12.7532 9.07892 12.2845 8.88559Z" fill="#7FD1AE"/>
<path d="M3.38375 11.4543C5.93899 10.5033 8.8928 10.2281 11.4419 11.3466C11.7056 11.4385 11.9706 11.682 11.9064 11.9873C11.8943 12.2038 11.6995 12.3072 11.5253 12.3997L11.5178 12.4038C11.4868 12.4203 11.4565 12.4364 11.4281 12.4528C11.2574 12.3944 11.0883 12.3306 10.9194 12.2668L10.9144 12.265C10.5503 12.1274 10.1863 11.9899 9.80555 11.9056C7.86989 11.4309 5.82431 11.722 3.9654 12.3723C3.71896 12.4635 3.381 12.5261 3.19246 12.2927C2.94793 12.0438 3.04122 11.5621 3.38375 11.4543Z" fill="#7FD1AE"/>
<path d="M8.16996 4.00711C10.1467 3.95368 12.1708 4.19299 13.989 5.0069C14.2724 5.12508 14.4919 5.40224 14.499 5.71456C14.5204 6.11438 14.1893 6.50323 13.7843 6.52232C13.5944 6.54221 13.4185 6.46941 13.247 6.39844L13.2425 6.39662C13.2083 6.3825 13.1745 6.36848 13.1406 6.35532C11.7263 5.75912 10.1733 5.58613 8.65224 5.57746C7.0091 5.57687 5.36238 5.83778 3.81795 6.40234C3.44448 6.55775 2.93559 6.59069 2.6673 6.23066C2.33834 5.83376 2.51689 5.17138 3.00718 5.00238C4.64608 4.36133 6.41181 4.0363 8.16996 4.00711Z" fill="url(#paint1_linear_42_1589)"/>
<path d="M13.2845 7.88559C11.7233 7.16229 9.97937 6.87228 8.26603 6.9129C6.80525 6.94379 5.34252 7.21036 3.98744 7.76194C3.79479 7.83999 3.58585 7.93078 3.48177 8.1236C3.26528 8.4737 3.48104 8.98893 3.88371 9.0805C4.04258 9.14852 4.20714 9.09325 4.36246 9.04091C4.38998 9.0317 4.41722 9.02248 4.44409 9.01415C6.86516 8.04095 9.64888 7.95652 12.1151 8.81756C12.2213 8.84941 12.3298 8.8976 12.4397 8.94642C12.7391 9.07965 13.0489 9.21729 13.3527 9.03879C13.784 8.78831 13.7532 8.07892 13.2845 7.88559Z" fill="url(#paint2_linear_42_1589)"/>
<path d="M4.38375 10.4543C6.93899 9.50329 9.8928 9.22808 12.4419 10.3466C12.7056 10.4385 12.9706 10.682 12.9064 10.9873C12.8943 11.2038 12.6995 11.3072 12.5253 11.3997L12.5178 11.4038C12.4868 11.4203 12.4565 11.4364 12.4281 11.4528C12.2574 11.3944 12.0883 11.3306 11.9194 11.2668L11.9144 11.265C11.5503 11.1274 11.1863 10.9899 10.8056 10.9056C8.86989 10.4309 6.82431 10.722 4.9654 11.3723C4.71896 11.4635 4.381 11.5261 4.19246 11.2927C3.94793 11.0438 4.04122 10.5621 4.38375 10.4543Z" fill="url(#paint3_linear_42_1589)"/>
</g>
<defs>
<linearGradient id="paint0_linear_42_1589" x1="2" y1="14.0004" x2="16.972" y2="10.5455" gradientUnits="userSpaceOnUse">
<stop stop-color="#62E8AF"/>
<stop offset="1" stop-color="#B3FBDC"/>
</linearGradient>
<linearGradient id="paint1_linear_42_1589" x1="2.5" y1="6.52565" x2="2.66566" y2="3.3773" gradientUnits="userSpaceOnUse">
<stop stop-color="#B3FBDC"/>
<stop offset="1" stop-color="white"/>
</linearGradient>
<linearGradient id="paint2_linear_42_1589" x1="3.39612" y1="9.12383" x2="3.54506" y2="6.36355" gradientUnits="userSpaceOnUse">
<stop stop-color="#B3FBDC"/>
<stop offset="1" stop-color="white"/>
</linearGradient>
<linearGradient id="paint3_linear_42_1589" x1="4.05518" y1="11.4543" x2="4.1738" y2="9.16482" gradientUnits="userSpaceOnUse">
<stop stop-color="#B3FBDC"/>
<stop offset="1" stop-color="white"/>
</linearGradient>
<clipPath id="clip0_42_1589">
<rect width="16" height="16" fill="white"/>
</clipPath>
</defs>
</svg>
