<svg width="16" height="16" viewBox="0 0 16 16" fill="none" xmlns="http://www.w3.org/2000/svg">
<path d="M8 8C7.01509 8 6.03982 8.09702 5.12986 8.28543C4.21993 8.47389 3.39314 8.75011 2.6967 9.09838C2.00026 9.44659 1.44781 9.85995 1.07091 10.3149C0.693993 10.7699 0.5 11.2575 0.5 11.75C0.5 12.2425 0.693993 12.7301 1.07091 13.1851C1.44781 13.6401 2.00026 14.0534 2.6967 14.4016C3.39314 14.7499 4.21993 15.0261 5.12986 15.2146C6.03982 15.403 7.01509 15.5 8 15.5C8.98491 15.5 9.96018 15.403 10.8701 15.2146C11.7801 15.0261 12.6069 14.7499 13.3033 14.4016C13.9997 14.0534 14.5522 13.6401 14.9291 13.1851C15.306 12.7301 15.5 12.2425 15.5 11.75C15.5 11.2575 15.306 10.7699 14.9291 10.3149C14.5522 9.85995 13.9997 9.44659 13.3033 9.09838C12.6069 8.75011 11.7801 8.47389 10.8701 8.28543C9.96018 8.09702 8.98491 8 8 8Z" fill="url(#paint0_linear_243_171)"/>
<path fill-rule="evenodd" clip-rule="evenodd" d="M14.3136 9.72582C14.0235 9.49968 13.6851 9.28924 13.3033 9.09838C12.6069 8.75011 11.7801 8.47389 10.8702 8.28543C9.96022 8.09702 8.98495 8 8.00004 8C7.01513 8 6.03987 8.09702 5.1299 8.28543C4.21997 8.47389 3.39318 8.75011 2.69674 9.09838C2.0003 9.44659 1.44786 9.85995 1.07095 10.3149C0.86235 10.5667 0.709778 10.8285 0.615112 11.0956C0.905128 11.3218 1.2436 11.5322 1.62533 11.7231C2.32177 12.0713 3.14856 12.3475 4.05849 12.536C4.96845 12.7244 5.94372 12.8214 6.92863 12.8214C7.91354 12.8214 8.88881 12.7244 9.79878 12.536C10.7087 12.3475 11.5355 12.0713 12.2319 11.7231C12.9284 11.3748 13.4808 10.9615 13.8577 10.5065C14.0663 10.2547 14.2189 9.9929 14.3136 9.72582Z" fill="#279FD7"/>
<path d="M8 4.25C6.01089 4.25 4.10322 4.64509 2.6967 5.34837C1.29018 6.05161 0.5 7.00545 0.5 8C0.5 8.49248 0.693993 8.98009 1.07091 9.43507C1.44781 9.89005 2.00026 10.3034 2.6967 10.6516C3.39314 10.9999 4.21993 11.2761 5.12986 11.4646C6.03982 11.653 7.01509 11.75 8 11.75C8.98491 11.75 9.96018 11.653 10.8701 11.4646C11.7801 11.2761 12.6069 10.9999 13.3033 10.6516C13.9997 10.3034 14.5522 9.89005 14.9291 9.43507C15.306 8.98009 15.5 8.49248 15.5 8C15.5 7.00545 14.7098 6.05161 13.3033 5.34837C11.8968 4.64509 9.98911 4.25 8 4.25Z" fill="url(#paint1_linear_243_171)"/>
<path fill-rule="evenodd" clip-rule="evenodd" d="M14.3136 5.97581C14.0251 5.75085 13.6872 5.54028 13.3034 5.34837C11.8969 4.64509 9.98918 4.25 8.00007 4.25C6.01096 4.25 4.10329 4.64509 2.69677 5.34837C1.60265 5.89541 0.881493 6.59409 0.615112 7.34562C0.903608 7.57058 1.24154 7.78115 1.62536 7.97305C3.03188 8.67634 4.93955 9.07143 6.92866 9.07143C8.91777 9.07143 10.8254 8.67634 12.232 7.97305C13.3261 7.42602 14.0472 6.72734 14.3136 5.97581Z" fill="#279FD7"/>
<path fill-rule="evenodd" clip-rule="evenodd" d="M5.12986 0.78545C6.03982 0.596996 7.01509 0.5 8 0.5C9.98911 0.5 11.8968 0.895089 13.3033 1.59835C14.7098 2.30161 15.5 3.25544 15.5 4.25C15.5 5.24455 14.7098 6.19839 13.3033 6.90163C11.8968 7.60491 9.98911 8 8 8C6.01089 8 4.10322 7.60491 2.6967 6.90163C1.29018 6.19839 0.5 5.24455 0.5 4.25C0.5 3.98405 0.55658 3.7195 0.667995 3.46074C0.768732 3.22679 1.07556 3.20853 1.30083 3.32743C1.5096 3.43762 1.74752 3.5 2 3.5C2.82843 3.5 3.5 2.82843 3.5 2C3.5 1.90783 3.49169 1.8176 3.47577 1.73003C3.43351 1.49752 3.52443 1.23782 3.74789 1.16092C4.17992 1.01225 4.64299 0.886288 5.12986 0.78545Z" fill="url(#paint2_linear_243_171)"/>
<circle cx="2" cy="2" r="1" fill="url(#paint3_linear_243_171)"/>
<defs>
<linearGradient id="paint0_linear_243_171" x1="2" y1="15.5023" x2="3.46417" y2="6.71622" gradientUnits="userSpaceOnUse">
<stop offset="0.190745" stop-color="#22B4FA"/>
<stop offset="0.896724" stop-color="#7DDCFF"/>
</linearGradient>
<linearGradient id="paint1_linear_243_171" x1="0.5" y1="11.75" x2="40.1429" y2="-0.0357145" gradientUnits="userSpaceOnUse">
<stop stop-color="#6BD6FE"/>
<stop offset="1" stop-color="white"/>
</linearGradient>
<linearGradient id="paint2_linear_243_171" x1="0.5" y1="7.22097" x2="19.7857" y2="-0.571429" gradientUnits="userSpaceOnUse">
<stop stop-color="#6BD6FE"/>
<stop offset="1" stop-color="white"/>
</linearGradient>
<linearGradient id="paint3_linear_243_171" x1="1" y1="3" x2="3.35294" y2="2.41176" gradientUnits="userSpaceOnUse">
<stop stop-color="#6BD6FE"/>
<stop offset="1" stop-color="white"/>
</linearGradient>
</defs>
</svg>
