<svg width="16" height="16" viewBox="0 0 16 16" fill="none" xmlns="http://www.w3.org/2000/svg">
<g clip-path="url(#clip0_249_294)">
<path d="M16.0001 11.6945V4.53444C16.0001 3.82233 15.6518 3.13938 15.0321 2.63584C14.4124 2.13231 13.5718 1.84943 12.6954 1.84943C12.5493 1.84943 12.4092 1.89658 12.306 1.98049C12.2026 2.06441 12.1447 2.17824 12.1447 2.29693V13.932C12.1447 14.0507 12.2026 14.1645 12.306 14.2484C12.4092 14.3324 12.5493 14.3795 12.6954 14.3795C13.5718 14.3795 14.4124 14.0967 15.0321 13.5931C15.6518 13.0895 16.0001 12.4066 16.0001 11.6945Z" fill="url(#paint0_linear_249_294)"/>
<path d="M0 11.6945V4.53444C0 3.82233 0.348165 3.13938 0.967908 2.63584C1.58764 2.13231 2.42819 1.84943 3.30463 1.84943C3.4507 1.84943 3.5908 1.89658 3.69408 1.98049C3.79738 2.06441 3.8554 2.17824 3.8554 2.29693V13.932C3.8554 14.0507 3.79738 14.1645 3.69408 14.2484C3.5908 14.3324 3.4507 14.3795 3.30463 14.3795C2.42819 14.3795 1.58764 14.0967 0.967908 13.5931C0.348165 13.0895 0 12.4066 0 11.6945Z" fill="url(#paint1_linear_249_294)"/>
<path fill-rule="evenodd" clip-rule="evenodd" d="M2.2906 14.2533C2.18181 13.6519 2.18181 12.8465 2.18181 11.7278V5.36636C2.18181 3.52671 2.18181 2.5342 2.66562 1.90338C2.87459 1.86991 3.08852 1.85271 3.30463 1.85271C3.4507 1.85271 3.5908 1.89986 3.69408 1.98378C3.79738 2.0677 3.8554 2.18152 3.8554 2.30021V13.9353C3.8554 14.054 3.79738 14.1678 3.69408 14.2517C3.5908 14.3356 3.4507 14.3828 3.30463 14.3828C2.95714 14.3828 2.61529 14.3383 2.2906 14.2533Z" fill="#D49F34"/>
<path d="M7.56614 15.3433C5.56653 15.3433 4.56779 15.3433 3.94649 14.722C3.3252 14.1007 3.3252 13.102 3.3252 11.1023V4.74095C3.3252 2.74134 3.3252 1.7426 3.94649 1.1213C4.56779 0.5 5.56653 0.5 7.56614 0.5H8.62635C10.626 0.5 11.6247 0.5 12.246 1.1213C12.8673 1.7426 12.8673 2.74134 12.8673 4.74095V11.1023C12.8673 13.102 12.8673 14.1007 12.246 14.722C11.6247 15.3433 10.626 15.3433 8.62635 15.3433H7.56614Z" fill="url(#paint2_linear_249_294)"/>
<path opacity="0.8" d="M10.625 9.20426C10.625 9.42536 10.5553 9.64741 10.4162 9.82516C10.39 9.86001 10.2683 10.0038 10.1726 10.0973L10.1203 10.1484C9.38955 10.9232 7.5712 12.0885 6.64895 12.4618C6.64895 12.4704 6.10085 12.6923 5.8398 12.7H5.80505C5.4048 12.7 5.0307 12.4797 4.8393 12.1225C4.7349 11.926 4.6392 11.3561 4.6305 11.3485C4.5522 10.8373 4.5 10.0548 4.5 9.19576C4.5 8.29501 4.5522 7.47766 4.64785 6.97581C4.64785 6.96731 4.7436 6.50801 4.8045 6.35496C4.9002 6.13464 5.0742 5.94664 5.2917 5.82758C5.46575 5.74339 5.64845 5.70001 5.8398 5.70001C6.03995 5.70939 6.41405 5.83608 6.56195 5.89564C7.53635 6.26991 9.39825 7.49461 10.1117 8.24311C10.2335 8.36221 10.364 8.50766 10.3988 8.54081C10.5467 8.72796 10.625 8.95756 10.625 9.20426Z" fill="#D49F34"/>
<path d="M11.625 7.20426C11.625 7.42536 11.5553 7.64741 11.4162 7.82516C11.39 7.86001 11.2683 8.00376 11.1726 8.09731L11.1203 8.14841C10.3895 8.92321 8.5712 10.0885 7.64895 10.4618C7.64895 10.4704 7.10085 10.6923 6.8398 10.7H6.80505C6.4048 10.7 6.0307 10.4797 5.8393 10.1225C5.7349 9.92601 5.6392 9.35611 5.6305 9.34851C5.5522 8.83731 5.5 8.05481 5.5 7.19576C5.5 6.29501 5.5522 5.47766 5.64785 4.97581C5.64785 4.96731 5.7436 4.50801 5.8045 4.35496C5.9002 4.13464 6.0742 3.94664 6.2917 3.82758C6.46575 3.74339 6.64845 3.70001 6.8398 3.70001C7.03995 3.70939 7.41405 3.83608 7.56195 3.89564C8.53635 4.26991 10.3983 5.49461 11.1117 6.24311C11.2335 6.36221 11.364 6.50766 11.3988 6.54081C11.5467 6.72796 11.625 6.95756 11.625 7.20426Z" fill="url(#paint3_linear_249_294)"/>
</g>
<defs>
<linearGradient id="paint0_linear_249_294" x1="12.8675" y1="13.5954" x2="18.0415" y2="11.6849" gradientUnits="userSpaceOnUse">
<stop stop-color="#FF8860"/>
<stop offset="1" stop-color="#FBD92C"/>
</linearGradient>
<linearGradient id="paint1_linear_249_294" x1="0.722887" y1="13.5954" x2="5.89688" y2="11.6849" gradientUnits="userSpaceOnUse">
<stop stop-color="#FF8860"/>
<stop offset="1" stop-color="#FBD92C"/>
</linearGradient>
<linearGradient id="paint2_linear_249_294" x1="5.11434" y1="14.4145" x2="14.2365" y2="7.37681" gradientUnits="userSpaceOnUse">
<stop stop-color="#FF8860"/>
<stop offset="1" stop-color="#FBD92C"/>
</linearGradient>
<linearGradient id="paint3_linear_249_294" x1="7.03125" y1="8.95001" x2="10.5003" y2="5.91461" gradientUnits="userSpaceOnUse">
<stop stop-color="#FBD92C"/>
<stop offset="1" stop-color="white"/>
</linearGradient>
<clipPath id="clip0_249_294">
<rect width="16" height="16" fill="white"/>
</clipPath>
</defs>
</svg>
