<svg width="16" height="16" viewBox="0 0 16 16" fill="none" xmlns="http://www.w3.org/2000/svg">
<path fill-rule="evenodd" clip-rule="evenodd" d="M11.4288 14.3C13.9537 14.3 16 12.2776 16 9.7824C16 8.88489 15.7352 8.04851 15.2786 7.34543C14.9161 6.7873 14.0786 7.0066 13.4505 7.22665C13.2811 7.28601 13.0989 7.31828 12.9093 7.31828C12.0055 7.31828 11.2729 6.58565 11.2729 5.6819C11.2729 5.35177 11.3706 5.04446 11.5388 4.78737C11.8858 4.25678 12.2611 3.5469 11.8443 3.06919C11.0059 2.10833 9.765 1.5 8.3808 1.5C5.85601 1.5 3.80961 3.5224 3.80961 6.0176C3.80961 6.3361 3.8429 6.6466 3.90625 6.94634C3.9667 7.23238 3.72116 7.52328 3.4288 7.52321C1.5352 7.52401 0 9.0408 0 10.912C0 12.7832 1.5352 14.3 3.4288 14.3H11.4288ZM13.4547 6.22736C14.0572 6.22736 14.5456 5.73894 14.5456 5.13644C14.5456 4.53394 14.0572 4.04552 13.4547 4.04552C12.8522 4.04552 12.3638 4.53394 12.3638 5.13644C12.3638 5.73894 12.8522 6.22736 13.4547 6.22736Z" fill="url(#paint0_linear_67_1508)"/>
<path fill-rule="evenodd" clip-rule="evenodd" d="M5.60005 14.8H8.80005C9.24165 14.8 9.60005 14.4416 9.60005 14C9.60005 13.5584 9.24165 13.2 8.80005 13.2H5.60005C5.15845 13.2 4.80005 13.5584 4.80005 14C4.80005 14.4416 5.15845 14.8 5.60005 14.8Z" fill="#279FD7"/>
<path d="M8.23404 9.43422L7.99964 9.66862L7.99964 7.59982C7.99964 7.15822 7.64124 6.79982 7.19964 6.79982C6.75804 6.79982 6.39964 7.15822 6.39964 7.59982V9.66862L6.16524 9.43422C5.85324 9.12222 5.34604 9.12222 5.03404 9.43422C4.72204 9.74622 4.72204 10.2534 5.03404 10.5654L6.63404 12.1654C6.94604 12.4782 7.45324 12.4782 7.76524 12.1654L9.36524 10.5654C9.67724 10.2534 9.67724 9.74622 9.36524 9.43422C9.05324 9.12222 8.54604 9.12222 8.23404 9.43422Z" fill="#279FD7"/>
<path fill-rule="evenodd" clip-rule="evenodd" d="M6.39997 14H9.59997C10.0416 14 10.4 13.6416 10.4 13.2C10.4 12.7584 10.0416 12.4 9.59997 12.4H6.39997C5.95838 12.4 5.59998 12.7584 5.59998 13.2C5.59998 13.6416 5.95838 14 6.39997 14Z" fill="url(#paint1_linear_67_1508)"/>
<path fill-rule="evenodd" clip-rule="evenodd" d="M8.79994 8.53706C8.79994 8.65939 8.94784 8.72066 9.03434 8.63416C9.34634 8.32216 9.85354 8.32216 10.1655 8.63416C10.4775 8.94616 10.4775 9.45336 10.1655 9.76536L8.56554 11.3654C8.25354 11.6782 7.74634 11.6782 7.43434 11.3654L5.83434 9.76536C5.52234 9.45336 5.52234 8.94616 5.83434 8.63416C6.14634 8.32216 6.65354 8.32216 6.96554 8.63416C7.05204 8.72066 7.19994 8.65939 7.19994 8.53706V6.79976C7.19994 6.35816 7.55834 5.99976 7.99994 5.99976C8.44154 5.99976 8.79994 6.35816 8.79994 6.79976V8.53706Z" fill="url(#paint2_linear_67_1508)"/>
<defs>
<linearGradient id="paint0_linear_67_1508" x1="1.6" y1="14.304" x2="5.43647" y2="-0.0844814" gradientUnits="userSpaceOnUse">
<stop offset="0.190745" stop-color="#22B4FA"/>
<stop offset="0.896724" stop-color="#7DDCFF"/>
</linearGradient>
<linearGradient id="paint1_linear_67_1508" x1="5.59998" y1="14" x2="9.43997" y2="11.12" gradientUnits="userSpaceOnUse">
<stop stop-color="#6BD6FE"/>
<stop offset="1" stop-color="white"/>
</linearGradient>
<linearGradient id="paint2_linear_67_1508" x1="5.60034" y1="11.6" x2="11.3361" y2="10.3711" gradientUnits="userSpaceOnUse">
<stop stop-color="#6BD6FE"/>
<stop offset="1" stop-color="white"/>
</linearGradient>
</defs>
</svg>
