<svg width="16" height="16" viewBox="0 0 16 16" fill="none" xmlns="http://www.w3.org/2000/svg">
<g clip-path="url(#clip0_80_5827)">
<path d="M6.39997 0.5V14.9874C6.37928 15.4126 6.39667 15.4247 6.79408 15.4247H9.28142C9.69366 15.4699 9.59998 15.3399 9.59998 14.9605V0.5H6.39997ZM9.59998 0.510203C9.59998 4.24612 9.47947 7.12338 10.1826 9.58527C10.8463 11.9094 12.1689 13.8039 14.2409 15.2418C14.5479 15.4484 14.6413 15.5655 14.8318 15.115L15.873 13.2851C16.0785 12.924 16.0418 12.924 15.709 12.7079C12.7068 10.4595 11.7635 5.74426 11.71 0.868016C11.7081 0.566925 11.7364 0.465277 11.379 0.510203H9.59998ZM6.39997 0.510203H4.62093C4.26355 0.465277 4.29189 0.566925 4.28997 0.868016C4.23643 5.74426 3.29312 10.4595 0.290987 12.7079C-0.0419065 12.924 -0.0785678 12.924 0.12692 13.2851L1.16814 15.115C1.3587 15.5655 1.452 15.4484 1.75906 15.2418C3.83104 13.8039 5.15363 11.9094 5.81739 9.58527C6.52048 7.12338 6.39997 4.24612 6.39997 0.510203Z" fill="url(#paint0_linear_80_5827)"/>
<path fill-rule="evenodd" clip-rule="evenodd" d="M9.59634 1.84345H8.53899V1.83325H6.40366H6.40002H5.60566C5.4584 1.83325 5.33899 1.95264 5.33899 2.09992V10.9289C5.52535 10.4984 5.68459 10.0504 5.81743 9.58525C6.2513 8.06607 6.37155 6.38873 6.40002 4.44906V14.9874C6.37933 15.4126 6.39671 15.4247 6.79413 15.4247H8.53899V5.78239C8.56747 7.72202 8.68771 9.39935 9.12158 10.9185C9.25442 11.3837 9.41366 11.8316 9.60002 12.2622V4.44908C9.6285 6.38874 9.74875 8.06608 10.1826 9.58525C10.8464 11.9094 12.169 13.8039 14.2409 15.2418C14.2665 15.259 14.2906 15.2755 14.3133 15.2912C14.3433 15.3119 14.3711 15.331 14.3969 15.3479L14.8121 14.6183C15.0081 14.2738 14.9837 14.258 14.6918 14.0695C14.6778 14.0605 14.6632 14.0511 14.648 14.0412C11.6458 11.7928 10.7025 7.07751 10.649 2.20127C10.6489 2.17923 10.6489 2.15827 10.6489 2.13835C10.6492 1.88608 10.6493 1.80182 10.318 1.84345H9.60002H9.59634Z" fill="#D49F34"/>
<path d="M6.40002 14.9874V0.766667C6.40002 0.619392 6.51943 0.5 6.66668 0.5H9.60002V0.510203H11.3791C11.7364 0.465277 11.7081 0.566925 11.71 0.868016C11.7636 5.74426 12.7069 10.4595 15.709 12.7079C16.0419 12.924 16.0786 12.924 15.8731 13.2851L14.8319 15.115C14.6413 15.5655 14.548 15.4484 14.2409 15.2418C12.169 13.8039 10.8464 11.9094 10.1826 9.58527C9.74874 8.0661 9.6285 6.38876 9.60002 4.44914V14.9605C9.60002 15.3399 9.6937 15.4699 9.28146 15.4247H6.79412C6.39671 15.4247 6.37932 15.4126 6.40002 14.9874Z" fill="url(#paint1_linear_80_5827)"/>
</g>
<defs>
<linearGradient id="paint0_linear_80_5827" x1="2.99999" y1="14.4989" x2="12.196" y2="2.67452" gradientUnits="userSpaceOnUse">
<stop stop-color="#FF8860"/>
<stop offset="1" stop-color="#FBD92C"/>
</linearGradient>
<linearGradient id="paint1_linear_80_5827" x1="8.79581" y1="11.7" x2="15.5902" y2="7.32957" gradientUnits="userSpaceOnUse">
<stop stop-color="#FBD92C"/>
<stop offset="1" stop-color="white"/>
</linearGradient>
<clipPath id="clip0_80_5827">
<rect width="16" height="16" fill="white"/>
</clipPath>
</defs>
</svg>
