<svg width="16" height="16" viewBox="0 0 16 16" fill="none" xmlns="http://www.w3.org/2000/svg">
<g clip-path="url(#clip0_42_1646)">
<path d="M7.99989 15.3336C12.0501 15.3336 15.3332 12.0504 15.3332 8.00029C15.3332 7.66076 14.8242 7.60429 14.649 7.89543C14.2752 8.51456 13.7654 9.04056 13.1582 9.43356C12.551 9.82649 11.8623 10.0761 11.1443 10.1635C10.4263 10.2509 9.69789 10.1738 9.01416 9.93789C8.33036 9.70209 7.70929 9.31376 7.19783 8.80229C6.68643 8.29089 6.29808 7.66976 6.06225 6.98603C5.82641 6.3023 5.74927 5.57385 5.83666 4.85588C5.92405 4.13791 6.17367 3.44924 6.56664 2.84203C6.95963 2.23483 7.48556 1.72501 8.10476 1.35119C8.39589 1.17519 8.33943 0.666992 7.99989 0.666992C3.94973 0.666992 0.666626 3.9501 0.666626 8.00029C0.666626 12.0504 3.94973 15.3336 7.99989 15.3336Z" fill="url(#paint0_linear_42_1646)"/>
<path d="M5.3608 9.06177C5.41973 9.10201 5.46507 9.15908 5.491 9.22552L5.60613 9.51812C5.62387 9.56337 5.65073 9.60449 5.68507 9.63893C5.71933 9.67337 5.7604 9.70039 5.8056 9.71832L6.09747 9.83419C6.16367 9.86057 6.22053 9.90623 6.26053 9.96526C6.30053 10.0243 6.32193 10.094 6.32193 10.1653C6.32193 10.2366 6.30053 10.3063 6.26053 10.3653C6.22053 10.4243 6.16367 10.47 6.09747 10.4964L5.8056 10.6115C5.7604 10.6294 5.71933 10.6565 5.68507 10.6909C5.65073 10.7253 5.62387 10.7664 5.60613 10.8117L5.491 11.105C5.37293 11.4057 4.94907 11.4057 4.831 11.105L4.71587 10.8124C4.67993 10.72 4.60807 10.6482 4.5164 10.6115L4.22453 10.4964C4.15827 10.47 4.10147 10.4243 4.0614 10.3653C4.0214 10.3063 4 10.2366 4 10.1653C4 10.094 4.0214 10.0243 4.0614 9.96526C4.10147 9.90623 4.15827 9.86057 4.22453 9.83419L4.5164 9.71832C4.5616 9.70039 4.6026 9.67337 4.63687 9.63893C4.6712 9.60449 4.69807 9.56337 4.71587 9.51812L4.831 9.22552C4.85687 9.15908 4.90227 9.10201 4.96113 9.06177C5.02 9.02153 5.08967 9 5.161 9C5.23227 9 5.30193 9.02153 5.3608 9.06177Z" fill="#B85C68"/>
<path d="M6.491 8.49566C6.46507 8.42922 6.41973 8.37215 6.3608 8.33191C6.30193 8.29167 6.23227 8.27014 6.161 8.27014C6.08967 8.27014 6.02 8.29167 5.96113 8.33191C5.90227 8.37215 5.85687 8.42922 5.831 8.49566L5.71587 8.78826C5.69807 8.83352 5.6712 8.87463 5.63687 8.90907C5.6026 8.94351 5.5616 8.97053 5.5164 8.98846L5.22453 9.10433C5.15827 9.13072 5.10147 9.17637 5.0614 9.2354C5.0214 9.29443 5 9.36411 5 9.43542C5 9.50674 5.0214 9.57642 5.0614 9.63544C5.10147 9.69447 5.15827 9.74013 5.22453 9.76652L5.5164 9.88166C5.60807 9.91832 5.67993 9.99018 5.71587 10.0826L5.831 10.3752C5.94907 10.6758 6.37293 10.6758 6.491 10.3752L6.60613 10.0818C6.62387 10.0366 6.65073 9.99548 6.68507 9.96104C6.71933 9.92661 6.7604 9.89958 6.8056 9.88166L7.09747 9.76652C7.16367 9.74013 7.22053 9.69447 7.26053 9.63544C7.30053 9.57642 7.32193 9.50674 7.32193 9.43542C7.32193 9.36411 7.30053 9.29443 7.26053 9.2354C7.22053 9.17637 7.16367 9.13072 7.09747 9.10433L6.8056 8.98846C6.7604 8.97053 6.71933 8.94351 6.68507 8.90907C6.65073 8.87463 6.62387 8.83352 6.60613 8.78826L6.491 8.49566Z" fill="url(#paint1_linear_42_1646)"/>
<path d="M9.19664 4.06177C9.25551 4.10201 9.30091 4.15908 9.32677 4.22552L9.64211 5.02778C9.65991 5.07324 9.68684 5.11454 9.72131 5.14911C9.75571 5.18369 9.79691 5.21079 9.84231 5.22871L10.6424 5.54551C10.7086 5.5719 10.7654 5.61756 10.8055 5.67659C10.8455 5.73561 10.8669 5.80529 10.8669 5.87661C10.8669 5.94793 10.8455 6.0176 10.8055 6.07663C10.7654 6.13565 10.7086 6.18131 10.6424 6.20771L9.84231 6.52451C9.79697 6.54235 9.75584 6.56933 9.72137 6.60378C9.68697 6.63822 9.65997 6.67938 9.64211 6.7247L9.32677 7.52769C9.20944 7.82836 8.78557 7.82836 8.66677 7.52769L8.35144 6.72543C8.33384 6.68009 8.30704 6.6389 8.27271 6.60444C8.23837 6.56998 8.19731 6.54301 8.15197 6.52524L7.35197 6.20844C7.28571 6.18205 7.22891 6.13639 7.18884 6.07736C7.14884 6.01833 7.12744 5.94866 7.12744 5.87734C7.12744 5.80603 7.14884 5.73635 7.18884 5.67732C7.22891 5.61829 7.28571 5.57263 7.35197 5.54625L8.15197 5.22945C8.19724 5.21143 8.23831 5.1843 8.27264 5.14973C8.30697 5.11516 8.33377 5.0739 8.35144 5.02851L8.66677 4.22552C8.69271 4.15908 8.73804 4.10201 8.79697 4.06177C8.85584 4.02153 8.92551 4 8.99677 4C9.06811 4 9.13777 4.02153 9.19664 4.06177Z" fill="url(#paint2_linear_42_1646)"/>
<path d="M12.0692 0.0617667C12.1281 0.102007 12.1735 0.15908 12.1993 0.22552L12.5147 1.02778C12.5325 1.07324 12.5594 1.11454 12.5939 1.14911C12.6283 1.18369 12.6695 1.21079 12.7149 1.22871L13.5149 1.54551C13.5812 1.5719 13.638 1.61756 13.6781 1.67659C13.7181 1.73561 13.7395 1.80529 13.7395 1.87661C13.7395 1.94793 13.7181 2.0176 13.6781 2.07663C13.638 2.13565 13.5812 2.18131 13.5149 2.20771L12.7149 2.52451C12.6695 2.54235 12.6284 2.56933 12.5939 2.60378C12.5595 2.63822 12.5325 2.67938 12.5147 2.7247L12.1993 3.52769C12.082 3.82836 11.6581 3.82836 11.5393 3.52769L11.224 2.72543C11.2064 2.68009 11.1796 2.6389 11.1453 2.60444C11.1109 2.56998 11.0699 2.54301 11.0245 2.52524L10.2245 2.20844C10.1583 2.18205 10.1015 2.13639 10.0614 2.07736C10.0214 2.01833 10 1.94866 10 1.87734C10 1.80603 10.0214 1.73635 10.0614 1.67732C10.1015 1.61829 10.1583 1.57263 10.2245 1.54625L11.0245 1.22945C11.0698 1.21143 11.1109 1.1843 11.1452 1.14973C11.1795 1.11516 11.2063 1.0739 11.224 1.02851L11.5393 0.22552C11.5653 0.15908 11.6106 0.102007 11.6695 0.0617667C11.7284 0.0215267 11.7981 0 11.8693 0C11.9407 0 12.0103 0.0215267 12.0692 0.0617667Z" fill="url(#paint3_linear_42_1646)"/>
</g>
<defs>
<linearGradient id="paint0_linear_42_1646" x1="1.71424" y1="14.4356" x2="15.1423" y2="7.18898" gradientUnits="userSpaceOnUse">
<stop stop-color="#B65592"/>
<stop offset="0.5" stop-color="#FB6F71"/>
<stop offset="1" stop-color="#F9CB52"/>
</linearGradient>
<linearGradient id="paint1_linear_42_1646" x1="5.16585" y1="10.458" x2="7.29525" y2="9.31307" gradientUnits="userSpaceOnUse">
<stop stop-color="#D4A4C4"/>
<stop offset="0.5" stop-color="#F7B1B3"/>
<stop offset="1" stop-color="#F7E1A3"/>
</linearGradient>
<linearGradient id="paint2_linear_42_1646" x1="7.39455" y1="7.52341" x2="10.8239" y2="5.67948" gradientUnits="userSpaceOnUse">
<stop stop-color="#B65592"/>
<stop offset="0.5" stop-color="#FB6F71"/>
<stop offset="1" stop-color="#F9CB52"/>
</linearGradient>
<linearGradient id="paint3_linear_42_1646" x1="10.2671" y1="3.52341" x2="13.6964" y2="1.67948" gradientUnits="userSpaceOnUse">
<stop stop-color="#B65592"/>
<stop offset="0.5" stop-color="#FB6F71"/>
<stop offset="1" stop-color="#F9CB52"/>
</linearGradient>
<clipPath id="clip0_42_1646">
<rect width="16" height="16" fill="white"/>
</clipPath>
</defs>
</svg>
