<svg width="16" height="16" viewBox="0 0 16 16" fill="none" xmlns="http://www.w3.org/2000/svg">
<path fill-rule="evenodd" clip-rule="evenodd" d="M1.87866 6.91725C1.57491 6.6135 1.57491 6.12044 1.87866 5.81669L6.28532 1.41003C7.49869 0.196657 9.4654 0.196657 10.6788 1.41003C11.9802 2.71145 13.7884 4.51967 15.0898 5.82109C15.6726 6.40384 15.9995 7.19404 16 8.01782C15.9995 8.84159 15.6726 9.63179 15.0898 10.2145C13.7884 11.516 11.9802 13.3242 10.6788 14.6256C9.4654 15.839 7.49869 15.839 6.28532 14.6256C4.49305 12.8333 1.87866 10.2189 1.87866 10.2189C1.57491 9.91519 1.57491 9.42214 1.87866 9.11838C2.48617 8.51087 2.48617 7.52476 1.87866 6.91725ZM1.32838 7.46753C1.63214 7.77129 1.63214 8.26434 1.32838 8.5681C1.02463 8.87185 0.531572 8.87185 0.227817 8.5681C-0.0759389 8.26434 -0.0759389 7.77129 0.227817 7.46753C0.531572 7.16378 1.02463 7.16378 1.32838 7.46753Z" fill="url(#paint0_linear_249_61)"/>
<path fill-rule="evenodd" clip-rule="evenodd" d="M8.4641 5.19693C8.06354 4.93022 7.59198 4.78723 7.11028 4.78723H7.10826C6.41664 4.78723 5.75342 5.06205 5.26361 5.55085C4.77482 6.04065 4.5 6.70387 4.5 7.39549C4.5 8.28181 4.5 9.3821 4.5 10.2715C4.5 11.7237 5.67635 12.9 7.12854 12.9C7.59807 12.9 8.05745 12.7611 8.44788 12.5005L10.4162 11.1882C11.1555 10.6964 11.5987 9.86684 11.5987 8.97951C11.5987 8.88925 11.5987 8.79798 11.5987 8.70773C11.5987 7.82039 11.1555 6.99086 10.4162 6.49903L8.4641 5.19693ZM7.33947 6.8854L9.29161 8.18648C9.46603 8.30209 9.57048 8.49781 9.57048 8.70773V8.97951C9.57048 9.18943 9.46603 9.38515 9.29161 9.50075L7.32324 10.813C7.26544 10.8515 7.19851 10.8718 7.12955 10.8718C6.79794 10.8718 6.52819 10.6031 6.52819 10.2715V7.39549C6.52819 7.24135 6.58904 7.0943 6.69856 6.98579C6.80707 6.87627 6.95411 6.81542 7.10826 6.81542H7.11028C7.19141 6.81542 7.27153 6.83976 7.33947 6.8854Z" fill="#8C4FD9"/>
<path fill-rule="evenodd" clip-rule="evenodd" d="M9.35183 4.31027C8.95108 4.04292 8.4798 3.90002 7.99773 3.90002H7.99525C7.3041 3.90002 6.64032 4.17475 6.15162 4.66382C5.66209 5.15336 5.38745 5.81667 5.38745 6.5081C5.38745 7.39451 5.38745 8.49481 5.38745 9.38444C5.38745 10.836 6.56399 12.0128 8.01599 12.0128C8.48561 12.0128 8.94527 11.8741 9.33524 11.6136L11.3042 10.3013C12.0426 9.80898 12.4857 8.98019 12.4857 8.09239C12.4857 8.0025 12.4857 7.91032 12.4857 7.82043C12.4857 6.93263 12.0426 6.10384 11.3042 5.61154L9.35183 4.31027ZM8.22674 5.99782L10.1791 7.29909C10.3533 7.41525 10.4578 7.6107 10.4578 7.81997V8.09285C10.4578 8.30213 10.3533 8.49757 10.1791 8.61373L8.21014 9.92606C8.15289 9.96433 8.08568 9.98461 8.01682 9.98461C7.68493 9.98461 7.41527 9.71587 7.41527 9.38445V6.5081C7.41527 6.3546 7.47667 6.20709 7.58537 6.09831C7.69406 5.98952 7.84175 5.92822 7.99524 5.92822H7.99773C8.07904 5.92822 8.1587 5.95219 8.22674 5.99782Z" fill="url(#paint1_linear_249_61)"/>
<defs>
<linearGradient id="paint0_linear_249_61" x1="4" y1="14.4617" x2="13.8374" y2="2.24852" gradientUnits="userSpaceOnUse">
<stop stop-color="#A056FF"/>
<stop offset="1" stop-color="#C59AFD"/>
</linearGradient>
<linearGradient id="paint1_linear_249_61" x1="7.16201" y1="12.0128" x2="14.2489" y2="9.94591" gradientUnits="userSpaceOnUse">
<stop stop-color="#C59AFD"/>
<stop offset="1" stop-color="white"/>
</linearGradient>
</defs>
</svg>
