<svg width="16" height="16" viewBox="0 0 16 16" fill="none" xmlns="http://www.w3.org/2000/svg">
<g clip-path="url(#clip0_44_140)">
<path fill-rule="evenodd" clip-rule="evenodd" d="M11.9433 14.9623C12.2677 14.7782 12.3637 14.373 12.3637 14C12.3637 13.0963 13.0963 12.3637 14 12.3637C14.373 12.3637 14.7782 12.2677 14.9623 11.9433C15.6228 10.7795 16 9.43382 16 8C16 3.5816 12.4184 0 8 0C3.5816 0 0 3.5816 0 8C0 9.28 0.3008 10.4896 0.8344 11.5624C0.9768 11.8472 1.024 12.1728 0.9416 12.4808L0.4656 14.2616C0.418633 14.4377 0.418807 14.6232 0.466109 14.7993C0.513418 14.9754 0.606182 15.1359 0.735113 15.2649C0.864043 15.3938 1.0246 15.4865 1.20069 15.5339C1.37679 15.5812 1.56222 15.5814 1.7384 15.5344L3.5192 15.0584C3.82832 14.9806 4.15522 15.0185 4.4384 15.1648C5.54473 15.7157 6.76407 16.0016 8 16C9.43382 16 10.7795 15.6228 11.9433 14.9623ZM14.5455 15.6364C15.148 15.6364 15.6364 15.148 15.6364 14.5455C15.6364 13.943 15.148 13.4546 14.5455 13.4546C13.943 13.4546 13.4546 13.943 13.4546 14.5455C13.4546 15.148 13.943 15.6364 14.5455 15.6364Z" fill="url(#paint0_linear_44_140)"/>
<path fill-rule="evenodd" clip-rule="evenodd" d="M4.96104 11.2645H8.88312C9.41362 11.2645 9.84417 10.8339 9.84417 10.3034C9.84417 9.77295 9.41362 9.34241 8.88312 9.34241H4.96104C4.43055 9.34241 4 9.77295 4 10.3034C4 10.8339 4.43055 11.2645 4.96104 11.2645Z" fill="#45C5C2"/>
<path d="M6.80521 7.28304H4.96104C4.43055 7.28304 4 6.8525 4 6.322C4 5.79151 4.43055 5.36096 4.96104 5.36096H6.80521C7.3357 5.36096 7.76625 5.79151 7.76625 6.322C7.76625 6.8525 7.3357 7.28304 6.80521 7.28304Z" fill="#45C5C2"/>
<path fill-rule="evenodd" clip-rule="evenodd" d="M5.9221 6.32211H7.76627C8.29676 6.32211 8.72731 5.89156 8.72731 5.36107C8.72731 4.83057 8.29676 4.40002 7.76627 4.40002H5.9221C5.39161 4.40002 4.96106 4.83057 4.96106 5.36107C4.96106 5.89156 5.39161 6.32211 5.9221 6.32211Z" fill="url(#paint1_linear_44_140)"/>
<path fill-rule="evenodd" clip-rule="evenodd" d="M5.9221 10.3036H9.84418C10.3747 10.3036 10.8052 9.87301 10.8052 9.34251C10.8052 8.81202 10.3747 8.38147 9.84418 8.38147H5.9221C5.39161 8.38147 4.96106 8.81202 4.96106 9.34251C4.96106 9.87301 5.39161 10.3036 5.9221 10.3036Z" fill="url(#paint2_linear_44_140)"/>
</g>
<defs>
<linearGradient id="paint0_linear_44_140" x1="3" y1="14" x2="14" y2="2" gradientUnits="userSpaceOnUse">
<stop stop-color="#00DAD4"/>
<stop offset="1" stop-color="#C4FFFD"/>
</linearGradient>
<linearGradient id="paint1_linear_44_140" x1="5.71433" y1="6.04755" x2="6.15089" y2="4.45073" gradientUnits="userSpaceOnUse">
<stop stop-color="#7EEFEC"/>
<stop offset="1" stop-color="white"/>
</linearGradient>
<linearGradient id="paint2_linear_44_140" x1="6.12992" y1="10.029" x2="6.42319" y2="8.36449" gradientUnits="userSpaceOnUse">
<stop stop-color="#7EEFEC"/>
<stop offset="1" stop-color="white"/>
</linearGradient>
<clipPath id="clip0_44_140">
<rect width="16" height="16" fill="white"/>
</clipPath>
</defs>
</svg>
