<svg width="16" height="16" viewBox="0 0 16 16" fill="none" xmlns="http://www.w3.org/2000/svg">
<g clip-path="url(#clip0_23_2493)">
<path fill-rule="evenodd" clip-rule="evenodd" d="M11 14.0008V12.0016C11 11.4499 10.552 11.0021 10 11.0021C9.448 11.0021 6.552 11.0021 6 11.0021C5.448 11.0021 5 11.4499 5 12.0016V14.0008C4.448 14.0008 4 14.4486 4 15.0003C4 15.5521 4.448 15.9999 5 15.9999H11C11.552 15.9999 12 15.5521 12 15.0003C12 14.4486 11.552 14.0008 11 14.0008Z" fill="url(#paint0_linear_23_2493)"/>
<path fill-rule="evenodd" clip-rule="evenodd" d="M12.959 12.9943H3.041C2.234 12.9943 1.461 12.6745 0.891 12.1037C0.32 11.534 0 10.7613 0 9.95464C0 7.98251 0 5.01181 0 3.03967C0 2.23302 0.32 1.46036 0.891 0.89061C1.461 0.31986 2.234 0 3.041 0H12C12.552 0 13 0.447804 13 0.999563C13 2.10308 13.896 2.99869 15 2.99869C15.552 2.99869 16 3.44649 16 3.99825V9.99563C15.989 10.7873 15.67 11.5439 15.109 12.1037C14.539 12.6745 13.766 12.9943 12.959 12.9943ZM15 0C15.552 0 16 0.447804 16 0.999563C16 1.55132 15.552 1.99913 15 1.99913C14.448 1.99913 14 1.55132 14 0.999563C14 0.447804 14.448 0 15 0Z" fill="url(#paint1_linear_23_2493)"/>
<path fill-rule="evenodd" clip-rule="evenodd" d="M5.40909 12H9.04545C9.54727 12 9.95455 11.5928 9.95455 11.0909C9.95455 10.5891 9.54727 10.1818 9.04545 10.1818H5.40909C4.90727 10.1818 4.5 10.5891 4.5 11.0909C4.5 11.5928 4.90727 12 5.40909 12ZM6.31818 6.16912L6.05181 5.90276C5.69727 5.54821 5.12091 5.54821 4.76637 5.90276C4.41182 6.25731 4.41182 6.83366 4.76637 7.1882L6.58455 9.00637C6.9391 9.36179 7.51545 9.36179 7.86999 9.00637L9.68818 7.1882C10.0427 6.83366 10.0427 6.25731 9.68818 5.90276C9.33363 5.54821 8.75728 5.54821 8.40273 5.90276L8.13636 6.16912V3.81821C8.13636 3.31639 7.72909 2.90912 7.22727 2.90912C6.72545 2.90912 6.31818 3.31639 6.31818 3.81821V6.16912Z" fill="#8C4FD9"/>
<path fill-rule="evenodd" clip-rule="evenodd" d="M6.31815 11.0909H9.95451C10.4563 11.0909 10.8636 10.6836 10.8636 10.1818C10.8636 9.67998 10.4563 9.27271 9.95451 9.27271H6.31815C5.81633 9.27271 5.40906 9.67998 5.40906 10.1818C5.40906 10.6836 5.81633 11.0909 6.31815 11.0909Z" fill="url(#paint2_linear_23_2493)"/>
<path fill-rule="evenodd" clip-rule="evenodd" d="M7.22739 5.26L6.96103 4.99364C6.60649 4.6391 6.03012 4.6391 5.67558 4.99364C5.32103 5.34819 5.32103 5.92455 5.67558 6.2791L7.49376 8.09728C7.8483 8.45273 8.42467 8.45273 8.77921 8.09728L10.5974 6.2791C10.9519 5.92455 10.9519 5.34819 10.5974 4.99364C10.2428 4.6391 9.66649 4.6391 9.31194 4.99364L9.04557 5.26V2.90909C9.04557 2.40727 8.6383 2 8.13648 2C7.63466 2 7.22739 2.40727 7.22739 2.90909V5.26Z" fill="url(#paint3_linear_23_2493)"/>
</g>
<defs>
<linearGradient id="paint0_linear_23_2493" x1="6" y1="15.6429" x2="8.78552" y2="10.441" gradientUnits="userSpaceOnUse">
<stop stop-color="#A056FF"/>
<stop offset="1" stop-color="#C59AFD"/>
</linearGradient>
<linearGradient id="paint1_linear_23_2493" x1="4" y1="12.0661" x2="12.1603" y2="0.343643" gradientUnits="userSpaceOnUse">
<stop stop-color="#A056FF"/>
<stop offset="1" stop-color="#C59AFD"/>
</linearGradient>
<linearGradient id="paint2_linear_23_2493" x1="6.77269" y1="11.0909" x2="9.72724" y2="8.13634" gradientUnits="userSpaceOnUse">
<stop stop-color="#C59AFD"/>
<stop offset="1" stop-color="white"/>
</linearGradient>
<linearGradient id="paint3_linear_23_2493" x1="6.77307" y1="8.36386" x2="12.2354" y2="6.80351" gradientUnits="userSpaceOnUse">
<stop stop-color="#C59AFD"/>
<stop offset="1" stop-color="white"/>
</linearGradient>
<clipPath id="clip0_23_2493">
<rect width="16" height="16" fill="white"/>
</clipPath>
</defs>
</svg>
