<svg width="16" height="16" viewBox="0 0 16 16" fill="none" xmlns="http://www.w3.org/2000/svg">
<path fill-rule="evenodd" clip-rule="evenodd" d="M13 8C13 10 14.664 10.163 14.724 10.193C15.219 10.437 15.423 11.037 15.179 11.532C13.874 14.178 11.148 16 8 16C3.585 16 0 12.415 0 8C0 3.585 3.585 0 8 0C11.148 0 13.874 1.822 15.179 4.468C15.423 4.963 15.219 5.563 14.724 5.807C14.664 5.837 13 6 13 8ZM15 7C15.552 7 16 7.448 16 8C16 8.552 15.552 9 15 9C14.448 9 14 8.552 14 8C14 7.448 14.448 7 15 7Z" fill="url(#paint0_linear_18_2352)"/>
<path fill-rule="evenodd" clip-rule="evenodd" d="M11.8021 15.039C11.4131 15.04 11.0431 14.812 10.8801 14.432C10.2721 13.008 8.86207 12.008 7.21907 12H7.17907C6.30107 12.005 5.49007 12.292 4.83207 12.777C4.38807 13.104 3.76107 13.009 3.43407 12.564C3.10707 12.12 3.20207 11.493 3.64607 11.166C3.85307 11.014 4.07007 10.875 4.29607 10.749C3.61707 10.032 3.20007 9.065 3.20007 8C3.20007 5.792 4.99207 4 7.20007 4C9.40707 4 11.2001 5.792 11.2001 8C11.2001 9.065 10.7831 10.032 10.1041 10.749C11.2671 11.394 12.1931 12.415 12.7201 13.646C12.8371 13.922 12.8221 14.221 12.7011 14.472C12.4151 14.68 12.1151 14.87 11.8021 15.039ZM7.20007 10C6.09607 10 5.20007 9.104 5.20007 8C5.20007 6.896 6.09607 6 7.20007 6C8.30407 6 9.20007 6.896 9.20007 8C9.20007 9.104 8.30407 10 7.20007 10Z" fill="#D49F34"/>
<path fill-rule="evenodd" clip-rule="evenodd" d="M7.979 11H8.019C9.662 11.008 11.073 12.008 11.681 13.432C11.898 13.94 12.486 14.176 12.993 13.959C13.501 13.742 13.737 13.154 13.52 12.646C12.994 11.415 12.067 10.394 10.904 9.749C11.583 9.032 12 8.065 12 7C12 4.792 10.208 3 8 3C5.792 3 4 4.792 4 7C4 8.065 4.417 9.032 5.096 9.749C4.87 9.875 4.653 10.014 4.447 10.166C4.002 10.493 3.907 11.12 4.234 11.564C4.562 12.009 5.188 12.104 5.633 11.777C6.29 11.292 7.102 11.005 7.979 11ZM8 9C6.896 9 6 8.104 6 7C6 5.896 6.896 5 8 5C9.104 5 10 5.896 10 7C10 8.104 9.104 9 8 9Z" fill="url(#paint1_linear_18_2352)"/>
<defs>
<linearGradient id="paint0_linear_18_2352" x1="3" y1="14.9988" x2="12.9991" y2="2.999" gradientUnits="userSpaceOnUse">
<stop stop-color="#FF8860"/>
<stop offset="1" stop-color="#FBD92C"/>
</linearGradient>
<linearGradient id="paint1_linear_18_2352" x1="6.40016" y1="11.2797" x2="11.8666" y2="6.52585" gradientUnits="userSpaceOnUse">
<stop stop-color="#FBD92C"/>
<stop offset="1" stop-color="white"/>
</linearGradient>
</defs>
</svg>
