<svg width="16" height="16" viewBox="0 0 16 16" fill="none" xmlns="http://www.w3.org/2000/svg">
<g clip-path="url(#clip0_43_1952)">
<path fill-rule="evenodd" clip-rule="evenodd" d="M4.46311 11.5338C3.0489 10.1196 1.75701 11.181 1.69337 11.2022C1.17082 11.3796 0.602306 11.0996 0.424821 10.5771C-0.523408 7.7833 0.115816 4.56738 2.34179 2.34141C5.46367 -0.78047 10.5336 -0.78047 13.6555 2.34141C16.7774 5.46328 16.7774 10.5332 13.6555 13.6551C11.4295 15.8811 8.2136 16.5203 5.41982 15.5721C4.89727 15.3946 4.61726 14.8261 4.79474 14.3035C4.81595 14.2399 5.87732 12.948 4.46311 11.5338ZM3.756 13.6551C3.36568 14.0454 2.73211 14.0454 2.34179 13.6551C1.95147 13.2648 1.95147 12.6312 2.34179 12.2409C2.73211 11.8506 3.36568 11.8506 3.756 12.2409C4.14632 12.6312 4.14632 13.2648 3.756 13.6551Z" fill="url(#paint0_linear_43_1952)"/>
<path d="M9.13451 6.10064C9.24952 5.98776 9.44582 5.95925 9.57399 6.06996C9.81685 6.23676 10.0501 6.41694 10.2835 6.59727C10.4673 6.73922 10.6511 6.88124 10.8398 7.0169C11.1571 7.26235 11.4781 7.50316 11.7991 7.74395C12.1204 7.98484 12.4415 8.22574 12.7589 8.47129C12.8786 8.54522 12.9234 8.67579 12.967 8.80325C12.9777 8.83444 12.9884 8.86547 13 8.89542C12.4444 9.3402 11.8752 9.76751 11.3063 10.1948C10.8574 10.5318 10.4085 10.869 9.96626 11.2145C9.74712 11.3921 9.49944 11.5313 9.23087 11.6212C9.04982 11.4156 9.04547 11.1627 9.04109 10.9088C9.03921 10.8 9.03732 10.691 9.02154 10.5855C9.01166 10.5515 8.99715 10.5008 8.98261 10.4501C8.9681 10.3994 8.95359 10.3487 8.94371 10.3147L8.94124 10.3146C8.74044 10.3026 8.53852 10.2906 8.33762 10.2873C8.11376 10.2873 7.8899 10.2888 7.66604 10.2902C7.04165 10.2943 6.41724 10.2983 5.79282 10.2709L5.77517 10.2765C5.66322 10.3119 5.54707 10.3485 5.4596 10.4298C5.41564 10.6227 5.40301 10.82 5.3904 11.0175C5.37942 11.1892 5.36845 11.361 5.33685 11.5302C5.29425 11.5302 5.25029 11.5343 5.20607 11.5383C5.07396 11.5506 4.93972 11.563 4.8338 11.4677C4.57285 11.2862 4.32135 11.0922 4.06976 10.8982C3.82156 10.7067 3.57331 10.5152 3.31585 10.3356C3.25324 10.2883 3.19062 10.2394 3.12879 10.1911L3.1286 10.191L3.10322 10.1712C2.9247 10.0332 2.74349 9.8987 2.56229 9.76421C2.25401 9.5354 1.94579 9.30661 1.65106 9.06092C1.44392 8.93489 1.45159 8.61485 1.66311 8.4965C2.23655 8.05454 2.81474 7.61832 3.39277 7.18225L3.39317 7.18191C3.85565 6.833 4.31814 6.48409 4.77791 6.13244C4.93902 5.96036 5.31057 5.94172 5.37525 6.21134C5.41509 6.40987 5.41876 6.61229 5.42242 6.81452C5.42462 6.93494 5.4268 7.05527 5.43661 7.17471C5.91931 7.3141 6.42265 7.2969 6.92616 7.2797C7.22636 7.26944 7.5266 7.25919 7.82257 7.2821C7.93994 7.27799 8.05771 7.2795 8.17546 7.281C8.40291 7.2839 8.63041 7.28679 8.85499 7.24924C9.07012 7.10826 9.0582 6.87266 9.04611 6.63409C9.0364 6.44231 9.02659 6.24862 9.13451 6.10064Z" fill="#279FD7"/>
<path d="M10.1345 5.10064C10.2495 4.98776 10.4458 4.95925 10.574 5.06996C10.8168 5.23676 11.0501 5.41694 11.2835 5.59727C11.4673 5.73922 11.6511 5.88124 11.8398 6.0169C12.1571 6.26235 12.4781 6.50316 12.7991 6.74395C13.1204 6.98484 13.4415 7.22574 13.7589 7.47129C13.8786 7.54522 13.9234 7.67579 13.967 7.80325C13.9777 7.83444 13.9884 7.86547 14 7.89542C13.4444 8.3402 12.8752 8.76751 12.3063 9.19477C11.8574 9.53185 11.4085 9.86896 10.9663 10.2145C10.7471 10.3921 10.4994 10.5313 10.2309 10.6212C10.0498 10.4156 10.0455 10.1627 10.0411 9.90885C10.0392 9.80002 10.0373 9.69102 10.0215 9.58547C10.0117 9.55147 9.99715 9.50077 9.98261 9.45007C9.9681 9.3994 9.95359 9.34871 9.94371 9.31472L9.94124 9.31457C9.74044 9.3026 9.53852 9.29057 9.33762 9.28735C9.11376 9.28735 8.8899 9.28879 8.66604 9.29025C8.04165 9.29427 7.41724 9.29832 6.79282 9.27095L6.77517 9.2765C6.66322 9.31186 6.54707 9.34854 6.4596 9.42981C6.41564 9.62274 6.40301 9.82001 6.3904 10.0175C6.37942 10.1892 6.36845 10.361 6.33685 10.5302C6.29425 10.5302 6.25029 10.5343 6.20607 10.5383C6.07396 10.5506 5.93972 10.563 5.8338 10.4677C5.57285 10.2862 5.32135 10.0922 5.06976 9.89816C4.82156 9.7067 4.57331 9.51521 4.31585 9.33561C4.25324 9.28834 4.19062 9.23944 4.12879 9.19112L4.1286 9.191L4.10322 9.17117C3.9247 9.0332 3.74349 8.8987 3.56229 8.76421C3.25401 8.5354 2.94579 8.30661 2.65106 8.06092C2.44392 7.93489 2.45159 7.61485 2.66311 7.4965C3.23655 7.05454 3.81474 6.61832 4.39277 6.18225L4.39317 6.18191C4.85565 5.833 5.31814 5.48409 5.77791 5.13244C5.93902 4.96036 6.31057 4.94172 6.37525 5.21134C6.41509 5.40987 6.41876 5.61229 6.42242 5.81452C6.42462 5.93494 6.4268 6.05527 6.43661 6.17471C6.91931 6.3141 7.42265 6.2969 7.92616 6.2797C8.22636 6.26944 8.5266 6.25919 8.82257 6.2821C8.93994 6.27799 9.05771 6.2795 9.17546 6.281C9.40291 6.2839 9.63041 6.28679 9.85499 6.24924C10.0701 6.10826 10.0582 5.87266 10.0461 5.63409C10.0364 5.44231 10.0266 5.24862 10.1345 5.10064Z" fill="url(#paint1_linear_43_1952)"/>
</g>
<defs>
<linearGradient id="paint0_linear_43_1952" x1="1.59969" y1="16.0019" x2="7.37727" y2="-1.33301" gradientUnits="userSpaceOnUse">
<stop stop-color="#22B4FA"/>
<stop offset="1" stop-color="#6BD6FE"/>
</linearGradient>
<linearGradient id="paint1_linear_43_1952" x1="2.5" y1="10.6212" x2="13.8944" y2="4.79345" gradientUnits="userSpaceOnUse">
<stop stop-color="#6BD6FE"/>
<stop offset="1" stop-color="white"/>
</linearGradient>
<clipPath id="clip0_43_1952">
<rect width="16" height="16" fill="white"/>
</clipPath>
</defs>
</svg>
