<svg width="16" height="16" viewBox="0 0 16 16" fill="none" xmlns="http://www.w3.org/2000/svg">
<g clip-path="url(#clip0_23_2505)">
<path fill-rule="evenodd" clip-rule="evenodd" d="M1 13C0.448 13 0 12.552 0 12V3.992C0 1.787 1.787 0 3.992 0C6.357 0 9.643 0 12.008 0C13.067 0 14.082 0.421001 14.831 1.169C15.579 1.918 16 2.933 16 3.992C16 6.357 16 9.643 16 12.008C16 14.213 14.213 16 12.008 16C8.751 16 4 16 4 16C3.448 16 3 15.552 3 15C3 13.896 2.104 13 1 13ZM1 14C1.552 14 2 14.448 2 15C2 15.552 1.552 16 1 16C0.448 16 0 15.552 0 15C0 14.448 0.448 14 1 14Z" fill="url(#paint0_linear_23_2505)"/>
<path d="M11 12.9027C11 13.036 10.9471 13.1639 10.8528 13.2581C10.7585 13.3524 10.6306 13.4054 10.4973 13.4054H8.50267C8.36937 13.4054 8.2415 13.3524 8.14722 13.2581C8.05295 13.1639 8 13.036 8 12.9027C8 12.7694 8.05295 12.6415 8.14722 12.5472C8.2415 12.453 8.36937 12.4 8.50267 12.4H10.4973C10.6306 12.4 10.7585 12.453 10.8528 12.5472C10.9471 12.6415 11 12.7694 11 12.9027Z" fill="#279FD7" stroke="#279FD7" stroke-width="0.4"/>
<path d="M4.42754 9.40192C4.30589 9.41298 4.19361 9.47189 4.11539 9.56571C4.03721 9.65957 3.99952 9.78063 4.01057 9.90228C4.02164 10.0239 4.08055 10.1362 4.17436 10.2144L4.31811 10.3342C4.72295 10.6715 4.98711 10.8933 5.15728 11.0812C5.31824 11.26 5.3336 11.3436 5.3336 11.3964C5.3336 11.4492 5.31824 11.5334 5.15728 11.7116C4.98773 11.8995 4.72295 12.1207 4.31811 12.4586L4.17436 12.5783C4.12624 12.6165 4.08623 12.664 4.05671 12.7178C4.02718 12.7717 4.00872 12.8309 4.00243 12.8921C3.99613 12.9532 4.00212 13.015 4.02004 13.0737C4.03797 13.1325 4.06746 13.187 4.10679 13.2342C4.14612 13.2814 4.19449 13.3203 4.24906 13.3485C4.30363 13.3768 4.36329 13.3938 4.42454 13.3986C4.48579 13.4034 4.54738 13.396 4.6057 13.3766C4.66402 13.3573 4.71788 13.3265 4.76412 13.286L4.93428 13.1448L4.93485 13.1443C5.30627 12.8349 5.62244 12.5715 5.84103 12.3289C6.07386 12.0715 6.25508 11.7754 6.25508 11.3964C6.25508 11.0174 6.07386 10.7219 5.84103 10.4638C5.62241 10.2213 5.3062 9.95785 4.93472 9.64839L4.93428 9.64803L4.76412 9.50673C4.67025 9.42856 4.54919 9.39086 4.42754 9.40192Z" fill="#279FD7" stroke="#279FD7" stroke-width="0.4"/>
<path d="M12 11.9027C12 12.036 11.9471 12.1639 11.8528 12.2581C11.7585 12.3524 11.6306 12.4054 11.4973 12.4054H9.50267C9.36937 12.4054 9.2415 12.3524 9.14722 12.2581C9.05295 12.1639 9 12.036 9 11.9027C9 11.7694 9.05295 11.6415 9.14722 11.5472C9.2415 11.453 9.36937 11.4 9.50267 11.4H11.4973C11.6306 11.4 11.7585 11.453 11.8528 11.5472C11.9471 11.6415 12 11.7694 12 11.9027Z" fill="url(#paint1_linear_23_2505)" stroke="url(#paint2_linear_23_2505)" stroke-width="0.4"/>
<path d="M5.42754 8.40192C5.30589 8.41298 5.19361 8.47189 5.11539 8.56571C5.03721 8.65957 4.99952 8.78063 5.01057 8.90228C5.02164 9.02393 5.08055 9.13621 5.17436 9.21443L5.31811 9.33423C5.72295 9.67151 5.98711 9.89328 6.15728 10.0812C6.31824 10.26 6.3336 10.3436 6.3336 10.3964C6.3336 10.4492 6.31824 10.5334 6.15728 10.7116C5.98773 10.8995 5.72295 11.1207 5.31811 11.4586L5.17436 11.5783C5.12624 11.6165 5.08623 11.664 5.05671 11.7178C5.02718 11.7717 5.00872 11.8309 5.00243 11.8921C4.99613 11.9532 5.00212 12.015 5.02004 12.0737C5.03797 12.1325 5.06746 12.187 5.10679 12.2342C5.14612 12.2814 5.19449 12.3203 5.24906 12.3485C5.30363 12.3768 5.36329 12.3938 5.42454 12.3986C5.48579 12.4034 5.54738 12.396 5.6057 12.3766C5.66402 12.3573 5.71788 12.3265 5.76412 12.286L5.93428 12.1448L5.93485 12.1443C6.30627 11.8349 6.62244 11.5715 6.84103 11.3289C7.07386 11.0715 7.25508 10.7754 7.25508 10.3964C7.25508 10.0174 7.07386 9.72186 6.84103 9.46385C6.62241 9.22128 6.3062 8.95785 5.93472 8.64839L5.93428 8.64803L5.76412 8.50673C5.67025 8.42856 5.54919 8.39086 5.42754 8.40192Z" fill="url(#paint3_linear_23_2505)" stroke="url(#paint4_linear_23_2505)" stroke-width="0.4"/>
<path d="M11 6.90269C11 7.03603 10.9471 7.16386 10.8528 7.25814C10.7585 7.35241 10.6306 7.40536 10.4973 7.40536H8.50267C8.36937 7.40536 8.2415 7.35241 8.14722 7.25814C8.05295 7.16386 8 7.03603 8 6.90269C8 6.76939 8.05295 6.64152 8.14722 6.54725C8.2415 6.45302 8.36937 6.40002 8.50267 6.40002H10.4973C10.6306 6.40002 10.7585 6.45302 10.8528 6.54725C10.9471 6.64152 11 6.76939 11 6.90269Z" fill="#279FD7" stroke="#279FD7" stroke-width="0.4"/>
<path d="M4.42754 3.40192C4.30589 3.41298 4.19361 3.47189 4.11539 3.56571C4.03721 3.65957 3.99952 3.78063 4.01057 3.90228C4.02164 4.02393 4.08055 4.13621 4.17436 4.21443L4.31811 4.33423C4.72295 4.67151 4.98711 4.89328 5.15728 5.08123C5.31824 5.26002 5.3336 5.34357 5.3336 5.39637C5.3336 5.44922 5.31824 5.53339 5.15728 5.71156C4.98773 5.89951 4.72295 6.1207 4.31811 6.45856L4.17436 6.57833C4.12624 6.61655 4.08623 6.66396 4.05671 6.71784C4.02718 6.77172 4.00872 6.83094 4.00243 6.89207C3.99613 6.95316 4.00212 7.01495 4.02004 7.07368C4.03797 7.13245 4.06746 7.18703 4.10679 7.23424C4.14612 7.28144 4.19449 7.32028 4.24906 7.3485C4.30363 7.37677 4.36329 7.39376 4.42454 7.39861C4.48579 7.40342 4.54738 7.39596 4.6057 7.37664C4.66402 7.35729 4.71788 7.32649 4.76412 7.28604L4.93428 7.14476L4.93485 7.14429C5.30627 6.83486 5.62244 6.57146 5.84103 6.32892C6.07386 6.07155 6.25508 5.77543 6.25508 5.39637C6.25508 5.01736 6.07386 4.72186 5.84103 4.46385C5.62241 4.22128 5.3062 3.95785 4.93472 3.64839L4.93428 3.64803L4.76412 3.50673C4.67025 3.42856 4.54919 3.39086 4.42754 3.40192Z" fill="#279FD7" stroke="#279FD7" stroke-width="0.4"/>
<path d="M12 5.90269C12 6.03603 11.9471 6.16386 11.8528 6.25814C11.7585 6.35241 11.6306 6.40536 11.4973 6.40536H9.50267C9.36937 6.40536 9.2415 6.35241 9.14722 6.25814C9.05295 6.16386 9 6.03603 9 5.90269C9 5.76939 9.05295 5.64152 9.14722 5.54725C9.2415 5.45302 9.36937 5.40002 9.50267 5.40002H11.4973C11.6306 5.40002 11.7585 5.45302 11.8528 5.54725C11.9471 5.64152 12 5.76939 12 5.90269Z" fill="url(#paint5_linear_23_2505)" stroke="url(#paint6_linear_23_2505)" stroke-width="0.4"/>
<path d="M5.42754 2.40192C5.30589 2.41298 5.19361 2.47189 5.11539 2.56571C5.03721 2.65957 4.99952 2.78063 5.01057 2.90228C5.02164 3.02393 5.08055 3.13621 5.17436 3.21443L5.31811 3.33423C5.72295 3.67151 5.98711 3.89328 6.15728 4.08123C6.31824 4.26002 6.3336 4.34357 6.3336 4.39637C6.3336 4.44922 6.31824 4.53339 6.15728 4.71156C5.98773 4.89951 5.72295 5.1207 5.31811 5.45856L5.17436 5.57833C5.12624 5.61655 5.08623 5.66396 5.05671 5.71784C5.02718 5.77172 5.00872 5.83094 5.00243 5.89207C4.99613 5.95316 5.00212 6.01495 5.02004 6.07368C5.03797 6.13245 5.06746 6.18703 5.10679 6.23424C5.14612 6.28144 5.19449 6.32028 5.24906 6.3485C5.30363 6.37677 5.36329 6.39376 5.42454 6.39861C5.48579 6.40342 5.54738 6.39596 5.6057 6.37664C5.66402 6.35729 5.71788 6.32649 5.76412 6.28604L5.93428 6.14476L5.93485 6.14429C6.30627 5.83486 6.62244 5.57146 6.84103 5.32892C7.07386 5.07155 7.25508 4.77543 7.25508 4.39637C7.25508 4.01736 7.07386 3.72186 6.84103 3.46385C6.62241 3.22128 6.3062 2.95785 5.93472 2.64839L5.93428 2.64803L5.76412 2.50673C5.67025 2.42856 5.54919 2.39086 5.42754 2.40192Z" fill="url(#paint7_linear_23_2505)" stroke="url(#paint8_linear_23_2505)" stroke-width="0.4"/>
</g>
<defs>
<linearGradient id="paint0_linear_23_2505" x1="1.6" y1="16.005" x2="7.3787" y2="-1.33327" gradientUnits="userSpaceOnUse">
<stop stop-color="#22B4FA"/>
<stop offset="1" stop-color="#6BD6FE"/>
</linearGradient>
<linearGradient id="paint1_linear_23_2505" x1="9" y1="12.4054" x2="11.4092" y2="10.6081" gradientUnits="userSpaceOnUse">
<stop stop-color="#6BD6FE"/>
<stop offset="1" stop-color="white"/>
</linearGradient>
<linearGradient id="paint2_linear_23_2505" x1="9" y1="12.4054" x2="11.4092" y2="10.6081" gradientUnits="userSpaceOnUse">
<stop stop-color="#6BD6FE"/>
<stop offset="1" stop-color="white"/>
</linearGradient>
<linearGradient id="paint3_linear_23_2505" x1="5" y1="12.4" x2="7.76395" y2="12.0105" gradientUnits="userSpaceOnUse">
<stop stop-color="#6BD6FE"/>
<stop offset="1" stop-color="white"/>
</linearGradient>
<linearGradient id="paint4_linear_23_2505" x1="5" y1="12.4" x2="7.76395" y2="12.0105" gradientUnits="userSpaceOnUse">
<stop stop-color="#6BD6FE"/>
<stop offset="1" stop-color="white"/>
</linearGradient>
<linearGradient id="paint5_linear_23_2505" x1="9" y1="6.40536" x2="11.4092" y2="4.60806" gradientUnits="userSpaceOnUse">
<stop stop-color="#6BD6FE"/>
<stop offset="1" stop-color="white"/>
</linearGradient>
<linearGradient id="paint6_linear_23_2505" x1="9" y1="6.40536" x2="11.4092" y2="4.60806" gradientUnits="userSpaceOnUse">
<stop stop-color="#6BD6FE"/>
<stop offset="1" stop-color="white"/>
</linearGradient>
<linearGradient id="paint7_linear_23_2505" x1="5" y1="6.40002" x2="7.76395" y2="6.01047" gradientUnits="userSpaceOnUse">
<stop stop-color="#6BD6FE"/>
<stop offset="1" stop-color="white"/>
</linearGradient>
<linearGradient id="paint8_linear_23_2505" x1="5" y1="6.40002" x2="7.76395" y2="6.01047" gradientUnits="userSpaceOnUse">
<stop stop-color="#6BD6FE"/>
<stop offset="1" stop-color="white"/>
</linearGradient>
<clipPath id="clip0_23_2505">
<rect width="16" height="16" fill="white"/>
</clipPath>
</defs>
</svg>
