<svg width="16" height="16" viewBox="0 0 16 16" fill="none" xmlns="http://www.w3.org/2000/svg">
<g clip-path="url(#clip0_79_5648)">
<path fill-rule="evenodd" clip-rule="evenodd" d="M3 1.00006C3 0.448061 3.448 6.10352e-05 4 6.10352e-05C4 6.10352e-05 9.853 6.10352e-05 13.02 6.10352e-05C13.811 6.10352e-05 14.568 0.31406 15.127 0.87306C15.686 1.43206 16 2.18906 16 2.98006C16 5.64406 16 10.3561 16 13.0201C16 13.8111 15.686 14.5681 15.127 15.1271C14.568 15.6861 13.811 16.0001 13.02 16.0001C10.356 16.0001 5.644 16.0001 2.98 16.0001C2.189 16.0001 1.432 15.6861 0.873 15.1271C0.314 14.5681 0 13.8111 0 13.0201V4.00006C0 3.44806 0.448 3.00006 1 3.00006C2.104 3.00006 3 2.10406 3 1.00006ZM0 1.00006C0 0.448061 0.448 6.10352e-05 1 6.10352e-05C1.552 6.10352e-05 2 0.448061 2 1.00006C2 1.55206 1.552 2.00006 1 2.00006C0.448 2.00006 0 1.55206 0 1.00006Z" fill="url(#paint0_linear_79_5648)"/>
<path d="M11.0898 11.8271C11.3434 11.4175 11.486 10.9389 11.4543 10.4124C11.3856 9.26896 10.4823 8.30098 9.35709 8.17868C9.02392 8.13968 8.68636 8.17203 8.3666 8.27371C8.04679 8.3754 7.75192 8.54403 7.50147 8.76856C7.25102 8.99307 7.05056 9.26842 6.91331 9.57646C6.77606 9.88456 6.70514 10.2184 6.70514 10.556C6.70514 11.8802 7.76698 12.9493 9.07706 12.9493C9.54196 12.9493 9.97514 12.811 10.3396 12.5769L11.6128 13.8586C11.8189 14.0661 12.1569 14.0661 12.3629 13.8586C12.5689 13.6512 12.5689 13.3109 12.3629 13.1035L11.0898 11.8271ZM9.08236 11.8856C8.73212 11.8856 8.39617 11.7455 8.14851 11.4961C7.9008 11.2468 7.76167 10.9086 7.76167 10.556C7.76167 10.2033 7.9008 9.86516 8.14851 9.61583C8.39617 9.36646 8.73212 9.22638 9.08236 9.22638C9.43262 9.22638 9.76856 9.36646 10.0162 9.61583C10.2639 9.86516 10.4031 10.2033 10.4031 10.556C10.4031 10.9086 10.2639 11.2468 10.0162 11.4961C9.76856 11.7455 9.43262 11.8856 9.08236 11.8856ZM8.89219 7.36497C8.50129 7.37561 8.12617 7.4607 7.78284 7.60428L7.49226 7.16287L5.86517 9.82738C5.8217 9.89875 5.76211 9.95876 5.69125 10.0026C5.62039 10.0464 5.54025 10.0727 5.45736 10.0794C5.37447 10.0862 5.29119 10.0731 5.21426 10.0414C5.13732 10.0095 5.06894 9.95993 5.01466 9.8965L3.89471 8.58287L2.2782 11.1889C2.11444 11.4495 1.76577 11.5186 1.51749 11.3378C1.29561 11.1729 1.23221 10.8645 1.38014 10.6251L3.37701 7.40752C3.56719 7.10437 3.99509 7.07246 4.22754 7.3437L5.34219 8.65203L7.02213 5.90242C7.0683 5.82643 7.13274 5.7634 7.20956 5.71915C7.28639 5.67491 7.37301 5.65087 7.46151 5.64928C7.54995 5.6477 7.63745 5.6686 7.71576 5.71005C7.79409 5.75151 7.86072 5.81218 7.90959 5.88646L8.89219 7.36497ZM10.2604 7.63091C9.92232 7.48197 9.55783 7.39156 9.17746 7.3703L11.5758 3.54637C11.7395 3.28578 12.0883 3.22196 12.3313 3.40278C12.5584 3.56765 12.6165 3.88143 12.4685 4.11545L10.2604 7.63091Z" fill="#279FD7" stroke="#279FD7" stroke-width="0.4"/>
<path d="M12.0898 10.8271C12.3434 10.4175 12.486 9.93888 12.4543 9.41238C12.3856 8.26896 11.4823 7.30098 10.3571 7.17868C10.0239 7.13968 9.68636 7.17203 9.3666 7.27371C9.04679 7.3754 8.75192 7.54403 8.50147 7.76856C8.25102 7.99307 8.05056 8.26842 7.91331 8.57646C7.77606 8.88456 7.70514 9.21836 7.70514 9.55602C7.70514 10.8802 8.76698 11.9493 10.0771 11.9493C10.542 11.9493 10.9751 11.811 11.3396 11.5769L12.6128 12.8586C12.8189 13.0661 13.1569 13.0661 13.3629 12.8586C13.5689 12.6512 13.5689 12.3109 13.3629 12.1035L12.0898 10.8271ZM10.0824 10.8856C9.73212 10.8856 9.39617 10.7455 9.14851 10.4961C8.9008 10.2468 8.76167 9.90862 8.76167 9.55602C8.76167 9.20335 8.9008 8.86516 9.14851 8.61583C9.39617 8.36646 9.73212 8.22638 10.0824 8.22638C10.4326 8.22638 10.7686 8.36646 11.0162 8.61583C11.2639 8.86516 11.4031 9.20335 11.4031 9.55602C11.4031 9.90862 11.2639 10.2468 11.0162 10.4961C10.7686 10.7455 10.4326 10.8856 10.0824 10.8856ZM9.89219 6.36497C9.50129 6.37561 9.12617 6.4607 8.78284 6.60428L8.49226 6.16287L6.86517 8.82738C6.8217 8.89875 6.76211 8.95876 6.69125 9.00257C6.62039 9.0464 6.54025 9.07268 6.45736 9.07943C6.37447 9.08618 6.29119 9.07312 6.21426 9.04136C6.13732 9.00953 6.06894 8.95993 6.01466 8.8965L4.89471 7.58287L3.2782 10.1889C3.11444 10.4495 2.76577 10.5186 2.51749 10.3378C2.29561 10.1729 2.23221 9.86448 2.38014 9.62512L4.37701 6.40752C4.56719 6.10437 4.99509 6.07246 5.22754 6.3437L6.34219 7.65203L8.02213 4.90242C8.0683 4.82643 8.13274 4.7634 8.20956 4.71915C8.28639 4.67491 8.37301 4.65087 8.46151 4.64928C8.54995 4.6477 8.63745 4.6686 8.71576 4.71005C8.79409 4.75151 8.86072 4.81218 8.90959 4.88646L9.89219 6.36497ZM11.2604 6.63091C10.9223 6.48197 10.5578 6.39156 10.1775 6.3703L12.5758 2.54637C12.7395 2.28578 13.0883 2.22196 13.3313 2.40278C13.5584 2.56765 13.6165 2.88143 13.4685 3.11545L11.2604 6.63091Z" fill="url(#paint1_linear_79_5648)" stroke="url(#paint2_linear_79_5648)" stroke-width="0.4"/>
</g>
<defs>
<linearGradient id="paint0_linear_79_5648" x1="1.6" y1="16.0051" x2="7.3787" y2="-1.33321" gradientUnits="userSpaceOnUse">
<stop offset="0.190745" stop-color="#22B4FA"/>
<stop offset="0.896724" stop-color="#7DDCFF"/>
</linearGradient>
<linearGradient id="paint1_linear_79_5648" x1="2.30005" y1="13.0142" x2="15.456" y2="9.56078" gradientUnits="userSpaceOnUse">
<stop stop-color="#6BD6FE"/>
<stop offset="1" stop-color="white"/>
</linearGradient>
<linearGradient id="paint2_linear_79_5648" x1="2.30005" y1="13.0142" x2="15.456" y2="9.56078" gradientUnits="userSpaceOnUse">
<stop stop-color="#6BD6FE"/>
<stop offset="1" stop-color="white"/>
</linearGradient>
<clipPath id="clip0_79_5648">
<rect width="16" height="16" fill="white"/>
</clipPath>
</defs>
</svg>
