<svg width="16" height="16" viewBox="0 0 16 16" fill="none" xmlns="http://www.w3.org/2000/svg">
<g clip-path="url(#clip0_43_1810)">
<path fill-rule="evenodd" clip-rule="evenodd" d="M15.7723 7.47372C15.4688 7.17017 14.9761 7.17017 14.6725 7.47372C14.369 7.77727 14.369 8.27 14.6725 8.57355C14.9761 8.8771 15.4688 8.8771 15.7723 8.57355C16.0759 8.27 16.0759 7.77727 15.7723 7.47372ZM14.1226 9.12346C13.5155 8.51636 13.5155 7.53091 14.1226 6.92381C14.4261 6.62026 14.4261 6.12753 14.1226 5.82398C14.1226 5.82398 11.4918 3.1932 9.70019 1.40158C8.49808 0.199469 6.54919 0.199468 5.34705 1.40161L0.901583 5.84708C-0.300528 7.04919 -0.300528 8.99808 0.901583 10.2002L5.34705 14.6457C6.54919 15.8478 8.49808 15.8478 9.70019 14.6457C11.4918 12.8541 14.1226 10.2233 14.1226 10.2233C14.4261 9.91973 14.4261 9.42701 14.1226 9.12346Z" fill="url(#paint0_linear_43_1810)"/>
<path fill-rule="evenodd" clip-rule="evenodd" d="M5.36304 7.738L5.01677 7.39173C4.55586 6.93083 3.80659 6.93083 3.34568 7.39173C2.88477 7.85264 2.88477 8.60192 3.34568 9.06282L5.70932 11.4265C6.17023 11.8885 6.9195 11.8885 7.38041 11.4265L9.74407 9.06282C10.2049 8.60192 10.2049 7.85264 9.74407 7.39173C9.2831 6.93083 8.53386 6.93083 8.07295 7.39173L7.72667 7.738V2.68182C7.72667 2.02945 7.19722 1.5 6.54486 1.5C5.89249 1.5 5.36304 2.02945 5.36304 2.68182V7.738Z" fill="#7FD1AE"/>
<path fill-rule="evenodd" clip-rule="evenodd" d="M6.36304 6.738L6.01677 6.39173C5.55586 5.93083 4.80659 5.93083 4.34568 6.39173C3.88477 6.85264 3.88477 7.60192 4.34568 8.06282L6.70932 10.4265C7.17023 10.8885 7.9195 10.8885 8.38041 10.4265L10.7441 8.06282C11.2049 7.60192 11.2049 6.85264 10.7441 6.39173C10.2831 5.93083 9.53386 5.93083 9.07295 6.39173L8.72667 6.738V1.68182C8.72667 1.02945 8.19722 0.5 7.54486 0.5C6.89249 0.5 6.36304 1.02945 6.36304 1.68182V6.738Z" fill="url(#paint1_linear_43_1810)"/>
</g>
<defs>
<linearGradient id="paint0_linear_43_1810" x1="2" y1="13.6668" x2="16.8737" y2="10.0172" gradientUnits="userSpaceOnUse">
<stop stop-color="#62E8AF"/>
<stop offset="1" stop-color="#B3FBDC"/>
</linearGradient>
<linearGradient id="paint1_linear_43_1810" x1="4" y1="10.773" x2="8.11215" y2="-0.578622" gradientUnits="userSpaceOnUse">
<stop stop-color="#B3FBDC"/>
<stop offset="1" stop-color="white"/>
</linearGradient>
<clipPath id="clip0_43_1810">
<rect width="16" height="16" fill="white"/>
</clipPath>
</defs>
</svg>
