<svg width="16" height="16" viewBox="0 0 16 16" fill="none" xmlns="http://www.w3.org/2000/svg">
<g clip-path="url(#clip0_15_1647)">
<path fill-rule="evenodd" clip-rule="evenodd" d="M8.02234 1.00023C7.35065 0.994682 6.71023 1.09022 6.11567 1.24576C3.83106 1.83457 2.22298 3.57939 1.54096 5.64656C1.51436 5.72717 1.45319 5.79139 1.37572 5.8261C0.0947393 6.39964 -0.452483 8.0336 0.435887 9.22215L2.15363 11.5155C2.15427 11.5163 2.15497 11.5171 2.15572 11.5179V11.5179C2.35994 11.7893 2.65815 11.9513 2.96331 12.0958V12.0958C2.9656 12.0969 2.96823 12.097 2.97059 12.0961C3.13522 12.034 3.31364 12 3.5 12C4.32843 12 5 12.6716 5 13.5V13.5C5 13.8033 5.11308 14.1277 5.39572 14.2378C6.23535 14.5651 7.11846 14.71 7.9731 14.7131C7.95702 14.7131 7.90706 14.713 7.9765 14.7143H7.98199H7.98654C8.71188 14.7143 9.13605 14.6238 9.51056 14.5439L9.51056 14.5439C9.62279 14.52 9.73056 14.497 9.84063 14.4777C9.85531 14.4749 9.86985 14.4715 9.88428 14.4676C12.1689 13.8788 13.7769 12.134 14.459 10.0668C14.4856 9.98623 14.5468 9.92198 14.6242 9.88731C15.9053 9.31385 16.4525 7.67989 15.5641 6.49123L13.8458 4.19727L13.8448 4.19605L13.8438 4.19487C13.6396 3.92381 13.3416 3.76201 13.0367 3.61763C12.9694 3.58574 12.9175 3.52847 12.8919 3.45854C12.7762 3.14372 12.6366 2.83848 12.4131 2.59172C12.3141 2.48218 12.2046 2.38226 12.0863 2.29374C10.8593 1.37779 9.40436 1.005 8.02568 1.00023H8.02234Z" fill="url(#paint0_linear_15_1647)"/>
<path d="M7.20994 4.80022C8.06323 4.80226 8.85374 5.01056 9.55329 5.53373L9.56274 5.54077C9.57406 5.54924 9.58456 5.5588 9.59407 5.56929L9.60195 5.57803C9.7739 5.76821 9.84903 6.00008 9.80122 6.23269C9.7562 6.45189 9.6128 6.61893 9.45398 6.72274C9.16745 6.91009 8.70248 6.96066 8.37491 6.63661C8.35824 6.62009 8.33968 6.60528 8.31887 6.59442C7.33417 6.07974 5.97876 6.40339 5.29382 7.17793L5.2911 7.181L5.2883 7.18405C5.03601 7.45572 4.90703 7.79852 4.85169 8.19114C4.83396 8.3169 4.93536 8.42476 5.06237 8.42476H5.62663C5.80701 8.42476 5.91011 8.63053 5.80212 8.77503L4.19852 10.9205C4.1109 11.0377 3.93517 11.0377 3.84755 10.9205L2.24395 8.77503C2.13596 8.63053 2.23906 8.42476 2.41944 8.42476H3.03541C3.15017 8.42476 3.24482 8.33605 3.25919 8.22221C3.44985 6.71008 4.51268 5.35105 6.07706 4.94774C6.4419 4.8518 6.82269 4.79652 7.20994 4.80022Z" fill="#7FD1AE"/>
<path d="M10.5524 6.61588L12.156 8.76131C12.264 8.9058 12.1609 9.11157 11.9805 9.11157H11.3645C11.2498 9.11157 11.1551 9.20029 11.1408 9.31413C10.9501 10.8263 9.88726 12.1853 8.32289 12.5886C8.00365 12.6725 7.67334 12.7246 7.33694 12.7339C7.33585 12.7339 7.3348 12.7344 7.33403 12.7351C7.33322 12.7359 7.33212 12.7364 7.33098 12.7364L7.19136 12.7361C6.33728 12.7343 5.54639 12.525 4.84664 12.0017L4.83724 11.9947C4.82589 11.9862 4.81542 11.9766 4.80591 11.9661L4.79802 11.9574C4.62614 11.7673 4.55091 11.5355 4.59874 11.3029C4.64383 11.0836 4.78733 10.9167 4.9462 10.813C5.23297 10.6258 5.69805 10.5758 6.02546 10.9001C6.042 10.9165 6.06041 10.9312 6.08098 10.9421C7.0707 11.4657 8.36601 11.2128 9.10384 10.3611L9.10769 10.3566L9.11168 10.3523C9.36395 10.0806 9.49295 9.73781 9.54827 9.3452C9.566 9.21946 9.4646 9.11157 9.33761 9.11157H8.77333C8.59295 9.11157 8.48987 8.9058 8.59786 8.76131L10.2014 6.61588C10.2891 6.49864 10.4648 6.49864 10.5524 6.61588Z" fill="#7FD1AE"/>
<path d="M8.20994 3.80022C9.06323 3.80226 9.85374 4.01056 10.5533 4.53373L10.5627 4.54077C10.5741 4.54924 10.5846 4.5588 10.5941 4.56929L10.602 4.57803C10.7739 4.76821 10.849 5.00008 10.8012 5.23269C10.7562 5.45189 10.6128 5.61893 10.454 5.72274C10.1674 5.91009 9.70248 5.96066 9.37491 5.63661C9.35824 5.62009 9.33968 5.60528 9.31887 5.59442C8.33417 5.07974 6.97876 5.40339 6.29382 6.17793L6.2911 6.181L6.2883 6.18405C6.03601 6.45572 5.90703 6.79852 5.85169 7.19114C5.83396 7.3169 5.93536 7.42476 6.06237 7.42476H6.62663C6.80701 7.42476 6.91011 7.63053 6.80212 7.77503L5.19852 9.92045C5.1109 10.0377 4.93517 10.0377 4.84755 9.92045L3.24395 7.77503C3.13596 7.63053 3.23906 7.42476 3.41944 7.42476H4.03541C4.15017 7.42476 4.24482 7.33605 4.25919 7.22221C4.44985 5.71008 5.51268 4.35105 7.07706 3.94774C7.4419 3.8518 7.82269 3.79652 8.20994 3.80022Z" fill="url(#paint1_linear_15_1647)"/>
<path d="M11.5524 5.61588L13.156 7.76131C13.264 7.9058 13.1609 8.11157 12.9805 8.11157H12.3645C12.2498 8.11157 12.1551 8.20029 12.1408 8.31413C11.9501 9.82626 10.8873 11.1853 9.32289 11.5886C9.00365 11.6725 8.67334 11.7246 8.33694 11.7339C8.33585 11.7339 8.3348 11.7344 8.33403 11.7351C8.33322 11.7359 8.33212 11.7364 8.33098 11.7364L8.19136 11.7361C7.33728 11.7343 6.54639 11.525 5.84664 11.0017L5.83724 10.9947C5.82589 10.9862 5.81542 10.9766 5.80591 10.9661L5.79802 10.9574C5.62614 10.7673 5.55091 10.5355 5.59874 10.3029C5.64383 10.0836 5.78733 9.91668 5.9462 9.813C6.23297 9.62583 6.69805 9.57579 7.02546 9.90014C7.042 9.9165 7.06041 9.93123 7.08098 9.94211C8.0707 10.4657 9.36601 10.2128 10.1038 9.36105L10.1077 9.3566L10.1117 9.35229C10.3639 9.08061 10.493 8.73781 10.5483 8.3452C10.566 8.21946 10.4646 8.11157 10.3376 8.11157H9.77333C9.59295 8.11157 9.48987 7.9058 9.59786 7.76131L11.2014 5.61588C11.2891 5.49864 11.4648 5.49864 11.5524 5.61588Z" fill="url(#paint2_linear_15_1647)"/>
<circle cx="3" cy="14" r="1" fill="url(#paint3_linear_15_1647)"/>
</g>
<defs>
<linearGradient id="paint0_linear_15_1647" x1="2" y1="13.0004" x2="16.7035" y2="9.04186" gradientUnits="userSpaceOnUse">
<stop stop-color="#62E8AF"/>
<stop offset="1" stop-color="#B3FBDC"/>
</linearGradient>
<linearGradient id="paint1_linear_15_1647" x1="3.19995" y1="10.0084" x2="4.71851" y2="2.55746" gradientUnits="userSpaceOnUse">
<stop stop-color="#B3FBDC"/>
<stop offset="1" stop-color="white"/>
</linearGradient>
<linearGradient id="paint2_linear_15_1647" x1="5.58459" y1="11.7364" x2="7.1032" y2="4.28535" gradientUnits="userSpaceOnUse">
<stop stop-color="#B3FBDC"/>
<stop offset="1" stop-color="white"/>
</linearGradient>
<linearGradient id="paint3_linear_15_1647" x1="2.25" y1="14.7501" x2="4.12149" y2="14.3182" gradientUnits="userSpaceOnUse">
<stop stop-color="#62E8AF"/>
<stop offset="1" stop-color="#B3FBDC"/>
</linearGradient>
<clipPath id="clip0_15_1647">
<rect width="16" height="16" fill="white"/>
</clipPath>
</defs>
</svg>
