<svg width="16" height="16" viewBox="0 0 16 16" fill="none" xmlns="http://www.w3.org/2000/svg">
<g clip-path="url(#clip0_42_1652)">
<path fill-rule="evenodd" clip-rule="evenodd" d="M4.46311 11.5338C3.0489 10.1196 1.75701 11.181 1.69337 11.2022C1.17082 11.3796 0.602306 11.0996 0.424821 10.5771C-0.523408 7.7833 0.115816 4.56738 2.34179 2.34141C5.46367 -0.780469 10.5336 -0.780469 13.6555 2.34141C16.7774 5.46328 16.7774 10.5332 13.6555 13.6551C11.4295 15.8811 8.2136 16.5203 5.41982 15.5721C4.89727 15.3946 4.61726 14.8261 4.79474 14.3035C4.81595 14.2399 5.87732 12.948 4.46311 11.5338ZM3.756 13.6551C3.36568 14.0454 2.73211 14.0454 2.34179 13.6551C1.95147 13.2648 1.95147 12.6312 2.34179 12.2409C2.73211 11.8506 3.36568 11.8506 3.756 12.2409C4.14632 12.6312 4.14632 13.2648 3.756 13.6551Z" fill="url(#paint0_linear_42_1652)"/>
<path d="M8.48311 11.5575C8.87751 11.3999 9.07431 11.3207 9.22871 11.1855C9.26871 11.1511 9.3055 11.1135 9.3399 11.0743C9.4759 10.9199 9.55431 10.7223 9.71191 10.3287C10.4511 8.48075 10.8207 7.55677 10.4623 7.02957C10.3772 6.9043 10.2692 6.79626 10.1439 6.71117C9.61591 6.35277 8.69271 6.72237 6.84471 7.46157C6.45031 7.61917 6.25271 7.69757 6.09833 7.83357C6.05913 7.86797 6.02233 7.90557 5.98793 7.94477C5.85193 8.09915 5.77353 8.29675 5.61593 8.69035C4.87673 10.5383 4.50713 11.4615 4.86553 11.9895C4.95062 12.1149 5.05865 12.2229 5.18393 12.3079C5.71193 12.6663 6.63511 12.2967 8.48311 11.5575Z" fill="#279FD7"/>
<path d="M8.81929 9.71184C9.21369 9.55424 9.41049 9.47504 9.56489 9.33984C9.60489 9.30544 9.64169 9.26784 9.67609 9.22864C9.81209 9.07424 9.89049 8.87664 10.0481 8.48304C10.7873 6.63504 11.1569 5.71107 10.7985 5.18387C10.7134 5.05859 10.6054 4.95056 10.4801 4.86547C9.95209 4.50707 9.02889 4.87667 7.18089 5.61587C6.78649 5.77347 6.58889 5.85187 6.43451 5.98787C6.39531 6.02227 6.35851 6.05987 6.32411 6.09907C6.18811 6.25344 6.10971 6.45104 5.95211 6.84464C5.21291 8.69264 4.84331 9.61584 5.20171 10.1438C5.2868 10.2692 5.39484 10.3772 5.52011 10.4622C6.04811 10.8206 6.97129 10.451 8.81929 9.71184Z" fill="url(#paint1_linear_42_1652)"/>
</g>
<defs>
<linearGradient id="paint0_linear_42_1652" x1="1.59969" y1="16.0019" x2="7.37727" y2="-1.33301" gradientUnits="userSpaceOnUse">
<stop stop-color="#22B4FA"/>
<stop offset="1" stop-color="#6BD6FE"/>
</linearGradient>
<linearGradient id="paint1_linear_42_1652" x1="5.06348" y1="10.6005" x2="11.9732" y2="8.87305" gradientUnits="userSpaceOnUse">
<stop stop-color="#6BD6FE"/>
<stop offset="1" stop-color="white"/>
</linearGradient>
<clipPath id="clip0_42_1652">
<rect width="16" height="16" fill="white"/>
</clipPath>
</defs>
</svg>
