<svg width="16" height="16" viewBox="0 0 16 16" fill="none" xmlns="http://www.w3.org/2000/svg">
<g clip-path="url(#clip0_43_1795)">
<path fill-rule="evenodd" clip-rule="evenodd" d="M7.99977 0C7.58069 0 7.16137 0.1562 6.84811 0.469452L0.469446 6.8488C-0.15708 7.47531 -0.156188 8.52377 0.47036 9.15029L6.84903 15.5297C7.47554 16.1562 8.52491 16.1571 9.15149 15.5306L10.065 14.617C10.5242 14.1577 10.3971 13.3615 10.1498 12.7609C10.0533 12.5263 10 12.2694 10 12C10 10.8954 10.8954 10 12 10C12.2693 10 12.5262 10.0532 12.7607 10.1497C13.3613 10.3969 14.1575 10.524 14.6167 10.0647L15.5301 9.1512C16.1566 8.52469 16.1566 7.47537 15.5301 6.84886L9.15143 0.469452C8.83817 0.1562 8.41886 0 7.99977 0ZM12 13C12.5523 13 13 12.5523 13 12C13 11.4477 12.5523 11 12 11C11.4477 11 11 11.4477 11 12C11 12.5523 11.4477 13 12 13Z" fill="url(#paint0_linear_43_1795)"/>
<path fill-rule="evenodd" clip-rule="evenodd" d="M11.6817 3H10.5C10.223 3 10 3.223 10 3.5C10 3.777 10.223 4 10.5 4C10.5118 4 10.5178 4.01408 10.5096 4.02255L5.98383 8.74171C5.62749 9.11331 5 8.86103 5 8.34617V4.5C5 4.22386 5.22389 4 5.5 4C5.77703 4 6 3.777 6 3.5C6 3.223 5.77703 3 5.5 3H4.31784L2 5.31808V10.6801L5.20701 13.8875L13.7066 5.02512L11.6817 3Z" fill="#7FD1AE"/>
<path d="M1.5 2C1.223 2 1 2.223 1 2.5C1 2.777 1.223 3 1.5 3C1.77614 3 2 3.22386 2 3.5V12.5C2.00014 13.851 3.64613 14.5134 4.58206 13.5391L14.7511 2.93603C14.775 2.91102 14.8018 2.88885 14.8279 2.86609C14.9313 2.77598 15 2.64874 15 2.5C15 2.223 14.777 2 14.5 2H10.5C10.223 2 10 2.223 10 2.5C10 2.777 10.223 3 10.5 3C10.5118 3 10.5178 3.01408 10.5096 3.02255L5.98383 7.74171C5.62749 8.11331 5 7.86103 5 7.34617V3.5C5 3.22386 5.22389 3 5.5 3C5.77703 3 6 2.777 6 2.5C6 2.223 5.77703 2 5.5 2H1.5Z" fill="url(#paint1_linear_43_1795)"/>
</g>
<defs>
<linearGradient id="paint0_linear_43_1795" x1="2" y1="14.0004" x2="16.972" y2="10.5455" gradientUnits="userSpaceOnUse">
<stop stop-color="#62E8AF"/>
<stop offset="1" stop-color="#B3FBDC"/>
</linearGradient>
<linearGradient id="paint1_linear_43_1795" x1="2" y1="13" x2="4.92524" y2="-0.227941" gradientUnits="userSpaceOnUse">
<stop stop-color="#7BFFC6"/>
<stop offset="0.87337" stop-color="#E4FFF3"/>
</linearGradient>
<clipPath id="clip0_43_1795">
<rect width="16" height="16" fill="white"/>
</clipPath>
</defs>
</svg>
