<svg width="16" height="16" viewBox="0 0 16 16" fill="none" xmlns="http://www.w3.org/2000/svg">
<g clip-path="url(#clip0_43_1787)">
<path fill-rule="evenodd" clip-rule="evenodd" d="M4.46311 11.5338C3.0489 10.1196 1.75701 11.181 1.69337 11.2022C1.17082 11.3796 0.602306 11.0996 0.424821 10.5771C-0.523408 7.7833 0.115816 4.56738 2.34179 2.34141C5.46367 -0.780469 10.5336 -0.780469 13.6555 2.34141C16.7774 5.46328 16.7774 10.5332 13.6555 13.6551C11.4295 15.8811 8.2136 16.5203 5.41982 15.5721C4.89727 15.3946 4.61726 14.8261 4.79474 14.3035C4.81595 14.2399 5.87732 12.948 4.46311 11.5338ZM3.756 13.6551C3.36568 14.0454 2.73211 14.0454 2.34179 13.6551C1.95147 13.2648 1.95147 12.6312 2.34179 12.2409C2.73211 11.8506 3.36568 11.8506 3.756 12.2409C4.14632 12.6312 4.14632 13.2648 3.756 13.6551Z" fill="url(#paint0_linear_43_1787)"/>
<path d="M3.85866 5.57628C4.28373 5.38994 4.82758 5.55339 5.04118 5.97511C5.65694 7.04633 6.19534 8.18618 7.04105 9.10155C7.3266 9.43936 7.74948 9.6355 8.19524 9.60499C9.11178 9.66601 9.77334 8.77791 9.90305 7.95515C9.98804 7.5476 9.76463 7.19234 9.58153 6.85125C9.41369 6.22465 9.94009 5.49781 10.6016 5.5098C11.0692 5.51961 11.5934 5.80729 11.6806 6.30204C11.7624 6.76081 11.5727 7.21413 11.3449 7.60319C10.4251 9.13969 9.61749 10.7547 8.50691 12.167C8.22901 12.4819 7.91076 12.9319 7.42686 12.8154C7.03995 12.8045 6.73046 12.5309 6.52884 12.2236C5.46078 10.6871 4.5213 9.06776 3.55024 7.47024C3.31699 7.08991 3.15463 6.63986 3.21129 6.1876C3.24944 5.85524 3.57859 5.68308 3.85866 5.57628Z" fill="#D84F4F"/>
<path d="M4.85866 4.57628C5.28373 4.38994 5.82758 4.55339 6.04118 4.97511C6.65694 6.04633 7.19534 7.18618 8.04105 8.10155C8.3266 8.43936 8.74948 8.6355 9.19524 8.60499C10.1118 8.66601 10.7733 7.77791 10.9031 6.95515C10.988 6.5476 10.7646 6.19234 10.5815 5.85125C10.4137 5.22465 10.9401 4.49781 11.6016 4.5098C12.0692 4.51961 12.5934 4.80729 12.6806 5.30204C12.7624 5.76081 12.5727 6.21413 12.3449 6.60319C11.4251 8.13969 10.6175 9.75466 9.50691 11.167C9.22901 11.4819 8.91076 11.9319 8.42686 11.8154C8.03995 11.8045 7.73046 11.5309 7.52884 11.2236C6.46078 9.6871 5.5213 8.06776 4.55024 6.47024C4.31699 6.08991 4.15463 5.63986 4.21129 5.1876C4.24944 4.85524 4.57859 4.68308 4.85866 4.57628Z" fill="url(#paint1_linear_43_1787)" stroke="url(#paint2_linear_43_1787)" stroke-width="0.5"/>
</g>
<defs>
<linearGradient id="paint0_linear_43_1787" x1="2.99942" y1="13.9973" x2="12.9975" y2="1.99961" gradientUnits="userSpaceOnUse">
<stop stop-color="#FF405B"/>
<stop offset="1" stop-color="#FF8860"/>
</linearGradient>
<linearGradient id="paint1_linear_43_1787" x1="6.62757" y1="11.834" x2="8.77536" y2="5.90757" gradientUnits="userSpaceOnUse">
<stop stop-color="#FF8860"/>
<stop offset="1" stop-color="white"/>
</linearGradient>
<linearGradient id="paint2_linear_43_1787" x1="6.62757" y1="11.834" x2="8.77536" y2="5.90757" gradientUnits="userSpaceOnUse">
<stop stop-color="#FF8860"/>
<stop offset="1" stop-color="white"/>
</linearGradient>
<clipPath id="clip0_43_1787">
<rect width="16" height="16" fill="white"/>
</clipPath>
</defs>
</svg>
