<svg width="16" height="16" viewBox="0 0 16 16" fill="none" xmlns="http://www.w3.org/2000/svg">
<g clip-path="url(#clip0_17_2062)">
<path fill-rule="evenodd" clip-rule="evenodd" d="M1 13C0.448 13 0 12.552 0 12V3.992C0 1.787 1.787 0 3.992 0C6.357 0 9.643 0 12.008 0C13.067 0 14.082 0.421001 14.831 1.169C15.579 1.918 16 2.933 16 3.992C16 6.357 16 9.643 16 12.008C16 14.213 14.213 16 12.008 16C8.751 16 4 16 4 16C3.448 16 3 15.552 3 15C3 13.896 2.104 13 1 13ZM1 14C1.552 14 2 14.448 2 15C2 15.552 1.552 16 1 16C0.448 16 0 15.552 0 15C0 14.448 0.448 14 1 14Z" fill="url(#paint0_linear_17_2062)"/>
<path d="M2.17024 10.5967C2.04557 10.8511 1.98773 11.1331 2.00217 11.4161C2.01662 11.6991 2.10287 11.9737 2.25281 12.2142C2.40275 12.4546 2.61143 12.6529 2.8592 12.7904C3.10696 12.9279 3.38565 13 3.66901 13H10.1952C10.4786 13.0001 10.7573 12.928 11.0052 12.7905C11.253 12.6531 11.4617 12.4548 11.6117 12.2144C11.7617 11.9739 11.848 11.6992 11.8624 11.4162C11.8769 11.1332 11.8191 10.8511 11.6944 10.5967L11.5641 10.3305C11.4888 10.1768 11.3326 10.0793 11.1614 10.0793H2.70325C2.53205 10.0793 2.37579 10.1768 2.30052 10.3305L2.17024 10.5967Z" fill="#D49F34"/>
<path d="M10.1335 7.40951C10.0581 7.25581 9.90191 7.15833 9.73075 7.15833H4.13397C3.96281 7.15833 3.80658 7.25581 3.73129 7.40951L3.14869 8.59897C3.00278 8.89688 3.21965 9.24461 3.55137 9.24461H10.3134C10.6451 9.24461 10.862 8.89688 10.7161 8.59897L10.1335 7.40951Z" fill="#D49F34"/>
<path d="M8.43152 3.93507C8.29422 3.65457 8.08092 3.41824 7.81592 3.25293C7.55092 3.08763 7.24489 3 6.93258 3C6.62023 3 6.31421 3.08763 6.04921 3.25293C5.78422 3.41824 5.57093 3.65457 5.43359 3.93507L4.57873 5.67798C4.43261 5.97591 4.64948 6.32383 4.98131 6.32383H8.88354C9.21531 6.32383 9.43219 5.97596 9.28611 5.67804L8.43152 3.93507Z" fill="#D49F34"/>
<path d="M3.37019 9.59668C3.24552 9.85115 3.18768 10.1331 3.20212 10.4161C3.21657 10.6991 3.30282 10.9737 3.45276 11.2142C3.6027 11.4546 3.81138 11.6529 4.05915 11.7904C4.30691 11.9279 4.5856 12 4.86896 12H11.3952C11.6786 12.0001 11.9573 11.928 12.2051 11.7905C12.4529 11.6531 12.6617 11.4548 12.8116 11.2144C12.9616 10.9739 13.048 10.6992 13.0624 10.4162C13.0769 10.1332 13.019 9.85115 12.8943 9.59668L12.7641 9.33052C12.6888 9.17677 12.5325 9.07928 12.3613 9.07928H3.9032C3.732 9.07928 3.57574 9.17677 3.50047 9.33052L3.37019 9.59668Z" fill="url(#paint1_linear_17_2062)"/>
<path d="M11.3334 6.40951C11.2581 6.25581 11.1019 6.15833 10.9307 6.15833H5.33392C5.16276 6.15833 5.00653 6.25581 4.93124 6.40951L4.34864 7.59897C4.20273 7.89688 4.4196 8.24461 4.75133 8.24461H11.5133C11.845 8.24461 12.0619 7.89688 11.916 7.59897L11.3334 6.40951Z" fill="url(#paint2_linear_17_2062)"/>
<path d="M9.63147 2.93507C9.49417 2.65457 9.28087 2.41824 9.01587 2.25293C8.75087 2.08763 8.44484 2 8.13254 2C7.82019 2 7.51416 2.08763 7.24916 2.25293C6.98418 2.41824 6.77088 2.65457 6.63355 2.93507L5.77868 4.67798C5.63256 4.97591 5.84943 5.32383 6.18126 5.32383H10.0835C10.4153 5.32383 10.6321 4.97596 10.4861 4.67804L9.63147 2.93507Z" fill="url(#paint3_linear_17_2062)"/>
</g>
<defs>
<linearGradient id="paint0_linear_17_2062" x1="3" y1="14.9988" x2="12.9991" y2="2.999" gradientUnits="userSpaceOnUse">
<stop stop-color="#FF8860"/>
<stop offset="1" stop-color="#FBD92C"/>
</linearGradient>
<linearGradient id="paint1_linear_17_2062" x1="5.66611" y1="11.2698" x2="6.46119" y2="8.58451" gradientUnits="userSpaceOnUse">
<stop stop-color="#FBD92C"/>
<stop offset="1" stop-color="white"/>
</linearGradient>
<linearGradient id="paint2_linear_17_2062" x1="6.21734" y1="7.72304" x2="6.74633" y2="5.78083" gradientUnits="userSpaceOnUse">
<stop stop-color="#FBD92C"/>
<stop offset="1" stop-color="white"/>
</linearGradient>
<linearGradient id="paint3_linear_17_2062" x1="6.93233" y1="4.49287" x2="8.48799" y2="2.24626" gradientUnits="userSpaceOnUse">
<stop stop-color="#FBD92C"/>
<stop offset="1" stop-color="white"/>
</linearGradient>
<clipPath id="clip0_17_2062">
<rect width="16" height="16" fill="white"/>
</clipPath>
</defs>
</svg>
