<svg width="16" height="16" viewBox="0 0 16 16" fill="none" xmlns="http://www.w3.org/2000/svg">
<path fill-rule="evenodd" clip-rule="evenodd" d="M11.4288 13.8C13.9537 13.8 16 11.7776 16 9.2824C16 8.38489 15.7352 7.54851 15.2786 6.84543C14.9161 6.2873 14.0786 6.5066 13.4505 6.72665C13.2811 6.78601 13.0989 6.81828 12.9093 6.81828C12.0055 6.81828 11.2729 6.08565 11.2729 5.1819C11.2729 4.85177 11.3706 4.54446 11.5388 4.28737C11.8858 3.75678 12.2611 3.0469 11.8443 2.56919C11.0059 1.60833 9.765 1 8.3808 1C5.85601 1 3.80961 3.0224 3.80961 5.5176C3.80961 5.8361 3.8429 6.1466 3.90625 6.44634C3.9667 6.73238 3.72116 7.02328 3.4288 7.02321C1.5352 7.02401 0 8.5408 0 10.412C0 12.2832 1.5352 13.8 3.4288 13.8H11.4288ZM13.4547 5.72736C14.0572 5.72736 14.5456 5.23894 14.5456 4.63644C14.5456 4.03394 14.0572 3.54552 13.4547 3.54552C12.8522 3.54552 12.3638 4.03394 12.3638 4.63644C12.3638 5.23894 12.8522 5.72736 13.4547 5.72736Z" fill="url(#paint0_linear_17_2155)"/>
<path d="M1.95559 11.3755L2.87399 10.1315C3.46839 9.32746 3.7652 8.92586 4.042 9.01146C4.3188 9.09546 4.3188 9.58907 4.3188 10.5747V10.6675C4.3188 11.0235 4.3188 11.2011 4.4324 11.3131L4.4388 11.3187C4.5548 11.4275 4.7396 11.4275 5.10921 11.4275C5.77481 11.4275 6.10762 11.4275 6.22122 11.6299C6.22282 11.633 6.22442 11.6362 6.22602 11.6395C6.33242 11.8451 6.13962 12.1059 5.75401 12.6275L4.83561 13.8714C4.2412 14.6754 3.9444 15.0778 3.66759 14.9922C3.39079 14.9074 3.39079 14.4146 3.39079 13.4282V13.3354C3.39079 12.9803 3.39079 12.8019 3.27719 12.6907L3.27079 12.6851C3.15479 12.5755 2.96999 12.5755 2.60039 12.5755C1.93479 12.5755 1.602 12.5755 1.4884 12.3739C1.48674 12.3704 1.48514 12.367 1.4836 12.3635C1.3772 12.1587 1.57 11.8971 1.95559 11.3755Z" fill="#279FD7"/>
<path d="M3.04654 10.2845L3.96493 9.04053C4.55934 8.23652 4.85614 7.83492 5.13294 7.92052C5.40974 8.00452 5.40974 8.49812 5.40974 9.48373V9.57653C5.40974 9.93254 5.40974 10.1101 5.52334 10.2221L5.52974 10.2277C5.64575 10.3365 5.83055 10.3365 6.20015 10.3365C6.86576 10.3365 7.19856 10.3365 7.31216 10.5389C7.31376 10.5421 7.31536 10.5453 7.31696 10.5485C7.42336 10.7541 7.23056 11.0149 6.84496 11.5366L5.92655 12.7805C5.33214 13.5845 5.03534 13.9869 4.75854 13.9013C4.48173 13.8165 4.48173 13.3237 4.48173 12.3373V12.2445C4.48173 11.8894 4.48173 11.711 4.36813 11.5998L4.36173 11.5942C4.24573 11.4845 4.06093 11.4846 3.69133 11.4846C3.02574 11.4846 2.69294 11.4845 2.57934 11.2829C2.57768 11.2795 2.57608 11.276 2.57454 11.2725C2.46814 11.0677 2.66094 10.8061 3.04654 10.2845Z" fill="url(#paint1_linear_17_2155)"/>
<path d="M7.41018 9.1936L8.32858 7.94959C8.92298 7.14558 9.21979 6.74397 9.49659 6.82958C9.77339 6.91358 9.77339 7.40718 9.77339 8.39279V8.48559C9.77339 8.84159 9.77339 9.0192 9.88699 9.1312L9.89339 9.1368C10.0094 9.2456 10.1942 9.2456 10.5638 9.2456C11.2294 9.2456 11.5622 9.2456 11.6758 9.448C11.6774 9.45113 11.679 9.45433 11.6806 9.4576C11.787 9.6632 11.5942 9.924 11.2086 10.4456L10.2902 11.6895C9.69579 12.4936 9.39899 12.896 9.12218 12.8104C8.84538 12.7256 8.84538 12.2328 8.84538 11.2463V11.1535C8.84538 10.7984 8.84538 10.62 8.73178 10.5088L8.72538 10.5032C8.60938 10.3936 8.42458 10.3936 8.05497 10.3936C7.38938 10.3936 7.05659 10.3936 6.94299 10.192C6.94133 10.1885 6.93973 10.1851 6.93819 10.1816C6.83179 9.9768 7.02459 9.7152 7.41018 9.1936Z" fill="#279FD7"/>
<path d="M8.50113 8.10278L9.41952 6.85877C10.0139 6.05476 10.3107 5.65315 10.5875 5.73876C10.8643 5.82276 10.8643 6.31636 10.8643 7.30197V7.39477C10.8643 7.75077 10.8643 7.92838 10.9779 8.04038L10.9843 8.04598C11.1003 8.15478 11.2851 8.15478 11.6547 8.15478C12.3203 8.15478 12.6531 8.15478 12.7668 8.35718C12.7684 8.36031 12.77 8.36351 12.7716 8.36678C12.878 8.57238 12.6851 8.83318 12.2995 9.35479L11.3811 10.5987C10.7867 11.4027 10.4899 11.8051 10.2131 11.7195C9.93632 11.6347 9.93632 11.1419 9.93632 10.1555V10.0627C9.93632 9.70759 9.93632 9.52919 9.82272 9.41799L9.81632 9.41239C9.70032 9.30279 9.51552 9.30279 9.14592 9.30279C8.48033 9.30279 8.14753 9.30279 8.03393 9.10119C8.03227 9.09769 8.03067 9.09428 8.02913 9.09079C7.92273 8.88598 8.11553 8.62438 8.50113 8.10278Z" fill="url(#paint2_linear_17_2155)"/>
<defs>
<linearGradient id="paint0_linear_17_2155" x1="1.6" y1="13.804" x2="5.43647" y2="-0.584481" gradientUnits="userSpaceOnUse">
<stop stop-color="#22B4FA"/>
<stop offset="1" stop-color="#6BD6FE"/>
</linearGradient>
<linearGradient id="paint1_linear_17_2155" x1="2.54553" y1="13.9126" x2="8.3155" y2="12.7592" gradientUnits="userSpaceOnUse">
<stop stop-color="#6BD6FE"/>
<stop offset="1" stop-color="white"/>
</linearGradient>
<linearGradient id="paint2_linear_17_2155" x1="8.00012" y1="11.7309" x2="13.7701" y2="10.5774" gradientUnits="userSpaceOnUse">
<stop stop-color="#6BD6FE"/>
<stop offset="1" stop-color="white"/>
</linearGradient>
</defs>
</svg>
