<svg width="16" height="16" viewBox="0 0 16 16" fill="none" xmlns="http://www.w3.org/2000/svg">
<g clip-path="url(#clip0_8_231)">
<path fill-rule="evenodd" clip-rule="evenodd" d="M8 13C6 13 5.837 14.664 5.807 14.724C5.563 15.219 4.963 15.423 4.468 15.179C1.822 13.874 0 11.148 0 8C0 3.585 3.585 0 8 0C12.415 0 16 3.585 16 8C16 11.148 14.178 13.874 11.532 15.179C11.037 15.423 10.437 15.219 10.193 14.724C10.163 14.664 10 13 8 13ZM9 15C9 15.552 8.552 16 8 16C7.448 16 7 15.552 7 15C7 14.448 7.448 14 8 14C8.552 14 9 14.448 9 15Z" fill="url(#paint0_linear_8_231)"/>
<path fill-rule="evenodd" clip-rule="evenodd" d="M7.656 13.018C7.655 12.95 7.661 12.88 7.674 12.811C7.833 11.986 7.94 11.031 7.981 10H6.019C6.06 11.031 6.167 11.986 6.326 12.811C6.43 13.353 6.075 13.878 5.533 13.982C4.991 14.086 4.466 13.731 4.362 13.189C4.182 12.256 4.061 11.171 4.017 10H3C2.448 10 2 9.552 2 9C2 8.448 2.448 8 3 8H4.022C4.127 5.516 4.596 3.419 5.204 2.307C5.709 1.384 6.392 1 7 1C7.608 1 8.291 1.384 8.796 2.307C9.404 3.419 9.873 5.516 9.978 8H14C14.552 8 15 8.448 15 9C15 9.552 14.552 10 14 10H9.983C9.939 11.171 9.818 12.256 9.638 13.189C9.617 13.299 9.578 13.402 9.526 13.495C9.202 13.216 8.72 13 8 13C7.879 13 7.764 13.006 7.656 13.018ZM7.977 8C7.901 6.25 7.637 4.727 7.248 3.722C7.184 3.555 7.086 3.377 7 3.235C6.914 3.377 6.816 3.555 6.752 3.722C6.363 4.727 6.099 6.25 6.023 8H7.977Z" fill="#279FD7"/>
<path fill-rule="evenodd" clip-rule="evenodd" d="M4 9H15C15.552 9 16 8.552 16 8C16 7.448 15.552 7 15 7H4C3.448 7 3 7.448 3 8C3 8.552 3.448 9 4 9Z" fill="url(#paint1_linear_8_231)"/>
<path fill-rule="evenodd" clip-rule="evenodd" d="M8 2.23554C8.086 2.37763 8.184 2.55442 8.248 2.72253C8.713 3.92318 9 5.86462 9 8.05009C9 9.4438 8.881 10.7377 8.674 11.8115C8.57 12.3538 8.925 12.8776 9.467 12.9818C10.009 13.087 10.534 12.7312 10.638 12.1889C10.866 11.0078 11 9.58371 11 8.05009C11 5.11516 10.488 2.57285 9.796 1.30821C9.291 0.384131 8.608 0.000183105 8 0.000183105C7.392 0.000183105 6.709 0.384131 6.204 1.30821C5.512 2.57285 5 5.11516 5 8.05009C5 9.58371 5.134 11.0078 5.362 12.1889C5.466 12.7312 5.991 13.087 6.533 12.9818C7.075 12.8776 7.43 12.3538 7.326 11.8115C7.119 10.7377 7 9.4438 7 8.05009C7 5.86462 7.287 3.92318 7.752 2.72253C7.816 2.55442 7.914 2.37763 8 2.23554Z" fill="url(#paint2_linear_8_231)"/>
</g>
<defs>
<linearGradient id="paint0_linear_8_231" x1="1.6" y1="16.005" x2="7.3787" y2="-1.33327" gradientUnits="userSpaceOnUse">
<stop stop-color="#22B4FA"/>
<stop offset="1" stop-color="#6BD6FE"/>
</linearGradient>
<linearGradient id="paint1_linear_8_231" x1="3" y1="9" x2="7.46352" y2="1.74678" gradientUnits="userSpaceOnUse">
<stop stop-color="#6BD6FE"/>
<stop offset="1" stop-color="white"/>
</linearGradient>
<linearGradient id="paint2_linear_8_231" x1="5" y1="13.0002" x2="12.4015" y2="12.1462" gradientUnits="userSpaceOnUse">
<stop stop-color="#6BD6FE"/>
<stop offset="1" stop-color="white"/>
</linearGradient>
<clipPath id="clip0_8_231">
<rect width="16" height="16" fill="white"/>
</clipPath>
</defs>
</svg>
