<svg width="16" height="16" viewBox="0 0 16 16" fill="none" xmlns="http://www.w3.org/2000/svg">
<g clip-path="url(#clip0_85_106)">
<path fill-rule="evenodd" clip-rule="evenodd" d="M12.9824 15C12.9824 15.552 12.5344 16 11.9824 16H3.97442C1.76942 16 -0.0175781 14.213 -0.0175781 12.008C-0.0175781 9.643 -0.0175781 6.357 -0.0175781 3.992C-0.0175781 2.933 0.403422 1.918 1.15142 1.169C1.90042 0.421 2.91542 0 3.97442 0C6.33942 0 9.62542 0 11.9904 0C14.1954 0 15.9824 1.787 15.9824 3.992C15.9824 7.249 15.9824 12 15.9824 12C15.9824 12.552 15.5344 13 14.9824 13C13.8784 13 12.9824 13.896 12.9824 15ZM13.9824 15C13.9824 14.448 14.4304 14 14.9824 14C15.5344 14 15.9824 14.448 15.9824 15C15.9824 15.552 15.5344 16 14.9824 16C14.4304 16 13.9824 15.552 13.9824 15Z" fill="url(#paint0_linear_85_106)"/>
<path fill-rule="evenodd" clip-rule="evenodd" d="M8.16667 12H2.83333C2.37333 12 2 12.3733 2 12.8333C2 13.2933 2.37333 13.6667 2.83333 13.6667H8.16667C8.62667 13.6667 9 13.2933 9 12.8333C9 12.3733 8.62667 12 8.16667 12Z" fill="#279FD7"/>
<path fill-rule="evenodd" clip-rule="evenodd" d="M9.16667 11H3.83333C3.37333 11 3 11.3733 3 11.8333C3 12.2933 3.37333 12.6667 3.83333 12.6667H9.16667C9.62667 12.6667 10 12.2933 10 11.8333C10 11.3733 9.62667 11 9.16667 11Z" fill="url(#paint1_linear_85_106)"/>
<path d="M9.23053 5.00101C9.23106 5.00165 9.23186 5.00202 9.23269 5.00202C9.84553 5.00228 10.3706 5.1804 10.8057 5.5189C10.846 5.55021 10.8541 5.60733 10.8258 5.64979L10.4336 6.23913C10.4027 6.28562 10.3397 6.29763 10.2931 6.26695C9.92511 6.02505 9.57824 5.87506 9.23137 5.87506C8.8561 5.87506 8.65618 6.04873 8.65618 6.27321V6.29745C8.65618 6.59732 8.85644 6.69728 9.60495 6.89686C10.5026 7.14592 11 7.47036 11 8.24311V8.26768C11 9.16529 10.3269 9.66273 9.38046 9.66273C8.7377 9.63959 8.09494 9.41145 7.58199 8.9786C7.54121 8.94419 7.53679 8.88346 7.57062 8.8422L8.0203 8.29376C8.05518 8.25122 8.11779 8.24497 8.16136 8.27855C8.53824 8.56907 8.93793 8.76512 9.40503 8.76512C9.80319 8.76512 10.0273 8.61602 10.0273 8.34273V8.31614C10.0273 8.06742 9.87824 7.9429 9.12973 7.74298C8.23212 7.51849 7.6852 7.26944 7.6852 6.37216V6.34625C7.6852 5.52443 8.33177 5.00052 9.22836 5C9.22919 5 9.22999 5.00037 9.23053 5.00101V5.00101ZM2.03632 5.22703C2.01811 5.16317 2.06608 5.09962 2.13249 5.09962H2.94477C2.99033 5.09962 3.03013 5.13041 3.04157 5.17451L3.60511 7.34667C3.63054 7.44469 3.76883 7.44716 3.79774 7.3501L4.44673 5.17108C4.45935 5.12868 4.49833 5.09962 4.54257 5.09962H5.14129C5.18585 5.09962 5.22502 5.1291 5.23737 5.1719L5.86384 7.3434C5.89204 7.44114 6.03117 7.43926 6.05672 7.3408L6.61873 5.17451C6.63017 5.13041 6.66997 5.09962 6.71553 5.09962H7.55208C7.61848 5.09962 7.66644 5.16315 7.64826 5.22701L6.43435 9.49015C6.42211 9.53313 6.38285 9.56277 6.33817 9.56277H5.64148C5.59659 9.56277 5.5572 9.53286 5.54515 9.48961L4.93757 7.30947C4.91052 7.2124 4.77312 7.21176 4.74517 7.30858L4.11529 9.4905C4.10293 9.5333 4.06376 9.56277 4.01921 9.56277H3.34768C3.30301 9.56277 3.26376 9.53314 3.25151 9.49018L2.03632 5.22703Z" fill="#279FD7"/>
<path d="M10.2305 4.00101C10.2311 4.00165 10.2319 4.00202 10.2327 4.00202C10.8455 4.00228 11.3706 4.1804 11.8057 4.5189C11.846 4.55021 11.8541 4.60733 11.8258 4.64979L11.4336 5.23913C11.4027 5.28562 11.3397 5.29763 11.2931 5.26695C10.9251 5.02505 10.5782 4.87506 10.2314 4.87506C9.8561 4.87506 9.65618 5.04873 9.65618 5.27321V5.29745C9.65618 5.59732 9.85644 5.69728 10.605 5.89686C11.5026 6.14592 12 6.47036 12 7.24311V7.26768C12 8.16529 11.3269 8.66273 10.3805 8.66273C9.7377 8.63959 9.09494 8.41145 8.58199 7.9786C8.54121 7.94419 8.53679 7.88346 8.57062 7.8422L9.0203 7.29376C9.05518 7.25122 9.11779 7.24497 9.16136 7.27855C9.53824 7.56907 9.93793 7.76512 10.405 7.76512C10.8032 7.76512 11.0273 7.61602 11.0273 7.34273V7.31614C11.0273 7.06742 10.8782 6.9429 10.1297 6.74298C9.23212 6.51849 8.6852 6.26944 8.6852 5.37216V5.34625C8.6852 4.52443 9.33177 4.00052 10.2284 4C10.2292 4 10.23 4.00037 10.2305 4.00101V4.00101ZM3.03632 4.22703C3.01811 4.16317 3.06608 4.09962 3.13249 4.09962H3.94477C3.99033 4.09962 4.03013 4.13041 4.04157 4.17451L4.60511 6.34667C4.63054 6.44469 4.76883 6.44716 4.79774 6.3501L5.44673 4.17108C5.45935 4.12868 5.49833 4.09962 5.54257 4.09962H6.14129C6.18585 4.09962 6.22502 4.1291 6.23737 4.1719L6.86384 6.3434C6.89204 6.44114 7.03117 6.43926 7.05672 6.3408L7.61873 4.17451C7.63017 4.13041 7.66997 4.09962 7.71553 4.09962H8.55208C8.61848 4.09962 8.66644 4.16315 8.64826 4.22701L7.43435 8.49015C7.42211 8.53313 7.38285 8.56277 7.33817 8.56277H6.64148C6.59659 8.56277 6.5572 8.53286 6.54515 8.48961L5.93757 6.30947C5.91052 6.2124 5.77312 6.21176 5.74517 6.30858L5.11529 8.4905C5.10293 8.5333 5.06376 8.56277 5.01921 8.56277H4.34768C4.30301 8.56277 4.26376 8.53314 4.25151 8.49018L3.03632 4.22703Z" fill="url(#paint2_linear_85_106)"/>
</g>
<defs>
<linearGradient id="paint0_linear_85_106" x1="1.58242" y1="16.005" x2="7.36112" y2="-1.33327" gradientUnits="userSpaceOnUse">
<stop offset="0.190745" stop-color="#22B4FA"/>
<stop offset="0.896724" stop-color="#7DDCFF"/>
</linearGradient>
<linearGradient id="paint1_linear_85_106" x1="3" y1="12.6667" x2="7.16171" y2="8.29687" gradientUnits="userSpaceOnUse">
<stop stop-color="#6BD6FE"/>
<stop offset="1" stop-color="white"/>
</linearGradient>
<linearGradient id="paint2_linear_85_106" x1="3" y1="8.66273" x2="12.1252" y2="4.25938" gradientUnits="userSpaceOnUse">
<stop stop-color="#6BD6FE"/>
<stop offset="1" stop-color="white"/>
</linearGradient>
<clipPath id="clip0_85_106">
<rect width="16" height="16" fill="white"/>
</clipPath>
</defs>
</svg>
