<svg width="16" height="16" viewBox="0 0 16 16" fill="none" xmlns="http://www.w3.org/2000/svg">
<g clip-path="url(#clip0_80_5732)">
<path d="M3.60732 0C2.71927 0 2 0.719268 2 1.60732V4.24095C2 4.51759 2.01933 4.79327 2.05761 5.06602C2.38515 4.93811 4.03488 4.31308 5.19683 4.24698C6.32323 4.18336 7.13071 4.6363 7.93818 5.08923C8.74398 5.54216 9.55232 5.9951 10.6779 5.93148C11.8319 5.86625 13.4666 5.24917 13.81 5.11511C13.853 4.82636 13.8747 4.5342 13.8747 4.24095V1.60732C13.8747 0.719268 13.1554 0 12.2673 0H3.60732Z" fill="url(#paint0_linear_80_5732)"/>
<path d="M4.69979 14.7277H11.0612C11.2299 14.7277 11.3918 14.7947 11.511 14.9141C11.6303 15.0334 11.6973 15.1951 11.6973 15.3639C11.6973 15.5326 11.6303 15.6944 11.511 15.8137C11.3918 15.933 11.2299 16 11.0612 16H4.69979C4.53107 16 4.36927 15.933 4.24997 15.8137C4.13067 15.6944 4.06365 15.5326 4.06365 15.3639C4.06365 15.1951 4.13067 15.0334 4.24997 14.9141C4.36927 14.7947 4.53107 14.7277 4.69979 14.7277Z" fill="url(#paint1_linear_80_5732)"/>
<path d="M11.7579 8.83393C10.6799 9.76335 9.30385 10.2746 7.88048 10.2747C7.52551 10.2747 7.17349 10.2429 6.82832 10.1808C6.49127 10.1201 6.33734 9.74004 6.33734 9.39757V9.39757C6.33734 8.59909 5.69004 7.95179 4.89156 7.95179C4.82234 7.95179 4.75426 7.95665 4.68763 7.96606C4.07652 8.05233 3.304 8.17053 2.9587 7.659C2.45723 6.9161 2.12657 6.06356 2 5.1627C2.3257 5.03547 3.97713 4.4095 5.14 4.34334C6.2664 4.27973 7.07388 4.73266 7.88135 5.1856C8.68715 5.63853 9.49549 6.09146 10.621 6.02785C11.7763 5.96254 13.4133 5.34421 13.7542 5.21104C13.5445 6.61885 12.836 7.90451 11.7579 8.83393Z" fill="url(#paint2_linear_80_5732)"/>
<path fill-rule="evenodd" clip-rule="evenodd" d="M13.5662 5.35931C12.8682 5.58849 11.8242 5.88718 11.0105 5.93147C9.84148 5.99509 9.00196 5.54216 8.16506 5.08922C7.32643 4.63629 6.48779 4.18335 5.31793 4.24697C4.11019 4.31313 2.39504 4.93909 2.05676 5.06632C2.07812 5.21268 2.10507 5.35776 2.13746 5.5013C2.83095 5.27902 3.80113 5.01184 4.56718 4.96988C5.73704 4.90626 6.57568 5.3592 7.41431 5.81213C8.25121 6.26506 9.09073 6.718 10.2597 6.65438C11.4582 6.58915 13.156 5.97207 13.5127 5.83801C13.5372 5.67934 13.5551 5.51965 13.5662 5.35931Z" fill="#D84F4F"/>
<path opacity="0.5" d="M8.57343 10.1443C8.15054 10.1893 7.72404 10.1893 7.30115 10.1443V14.6313H8.57343V10.1443Z" fill="url(#paint3_linear_80_5732)"/>
<ellipse cx="4.89159" cy="9.39757" rx="0.722889" ry="0.722889" fill="url(#paint4_linear_80_5732)"/>
<path d="M11.5231 9.00006C11.5232 8.99996 11.5233 9 11.5233 9.00011L11.4503 9.87295C11.4461 9.92252 11.4136 9.96498 11.3674 9.9836C11.1921 10.0543 11.0244 10.1423 10.8667 10.246C10.7045 10.3528 10.4988 10.3827 10.3231 10.3L10.1594 10.2229C9.92424 10.1122 9.6434 10.2001 9.51343 10.4253L9.06714 11.1983C8.93714 11.4235 9.0014 11.7107 9.21494 11.859L9.3621 11.9612C9.52237 12.0725 9.59929 12.2667 9.58707 12.4614C9.58367 12.5156 9.58182 12.5699 9.58152 12.6242C9.58155 12.6796 9.5832 12.7349 9.58645 12.7902C9.5979 12.9842 9.52085 13.1774 9.36115 13.2883L9.21497 13.3897C9.00133 13.538 8.93702 13.8253 9.06703 14.0504L9.51327 14.8234C9.64324 15.0485 9.92403 15.1365 10.1592 15.0258L10.3221 14.9492C10.4972 14.8668 10.7021 14.896 10.864 15.0019C10.9561 15.0622 11.0517 15.117 11.1501 15.1662C11.3244 15.2532 11.4536 15.4167 11.4698 15.6108L11.4848 15.7909C11.5064 16.05 11.723 16.2494 11.983 16.2494H12.8755C13.1354 16.2494 13.352 16.0502 13.3738 15.791L13.3888 15.6114C13.4049 15.4182 13.5333 15.255 13.7066 15.1679C13.8049 15.1184 13.9001 15.0633 13.9921 15.0028C14.1543 14.896 14.3599 14.8662 14.5356 14.9489L14.6994 15.0259C14.9345 15.1367 15.2154 15.0487 15.3453 14.8235L15.7915 14.0505C15.9215 13.8254 15.8573 13.5383 15.6438 13.3899L15.4969 13.2879C15.3365 13.1765 15.2595 12.982 15.272 12.7871C15.2755 12.7331 15.2774 12.679 15.2778 12.6248C15.2778 12.5694 15.276 12.5139 15.2728 12.4586C15.2613 12.2645 15.3383 12.0713 15.498 11.9604L15.6438 11.8593C15.8575 11.711 15.9219 11.4237 15.7919 11.1985L15.3456 10.4257C15.2158 10.2005 14.9349 10.1125 14.6996 10.2233L14.5368 10.3C14.3616 10.3824 14.1569 10.3531 13.9949 10.2473C13.9028 10.1872 13.8073 10.1324 13.7088 10.0833C13.5346 9.99642 13.4054 9.83301 13.389 9.63902L13.3739 9.45835C13.3521 9.19935 13.1355 9.0002 12.8756 9.0002L11.5233 9.00011C11.5232 9.00011 11.5231 9.00012 11.5231 9.00006ZM12.4295 11.5885C12.5656 11.5884 12.7003 11.6152 12.826 11.6672C12.9516 11.7192 13.0659 11.7955 13.1621 11.8916C13.2583 11.9878 13.3346 12.1019 13.3866 12.2276C13.4388 12.3532 13.4656 12.4879 13.4656 12.624C13.4656 12.76 13.4388 12.8947 13.3866 13.0203C13.3346 13.146 13.2583 13.2601 13.1621 13.3563C13.0659 13.4524 12.9516 13.5287 12.826 13.5807C12.7003 13.6327 12.5656 13.6594 12.4295 13.6594C12.1549 13.6593 11.8916 13.5503 11.6974 13.3561C11.5032 13.1619 11.3941 12.8986 11.3941 12.624C11.3941 12.3493 11.5032 12.086 11.6974 11.8918C11.8916 11.6977 12.1549 11.5885 12.4295 11.5885Z" fill="url(#paint5_linear_80_5732)"/>
</g>
<defs>
<linearGradient id="paint0_linear_80_5732" x1="5.39144" y1="5.93736" x2="14.2144" y2="1.13003" gradientUnits="userSpaceOnUse">
<stop stop-color="#FF8860"/>
<stop offset="1" stop-color="white"/>
</linearGradient>
<linearGradient id="paint1_linear_80_5732" x1="4.20392" y1="14.5422" x2="11.4826" y2="5.73917" gradientUnits="userSpaceOnUse">
<stop stop-color="#FF405B"/>
<stop offset="1" stop-color="#FF8860"/>
</linearGradient>
<linearGradient id="paint2_linear_80_5732" x1="4.20392" y1="14.5422" x2="11.4826" y2="5.73917" gradientUnits="userSpaceOnUse">
<stop stop-color="#FF405B"/>
<stop offset="1" stop-color="#FF8860"/>
</linearGradient>
<linearGradient id="paint3_linear_80_5732" x1="7.30093" y1="12.3213" x2="8.57314" y2="12.3213" gradientUnits="userSpaceOnUse">
<stop stop-color="#FD3A84"/>
<stop offset="1" stop-color="#FFA68D"/>
</linearGradient>
<linearGradient id="paint4_linear_80_5732" x1="4.43978" y1="9.93974" x2="5.3434" y2="8.8554" gradientUnits="userSpaceOnUse">
<stop stop-color="#FF405B"/>
<stop offset="1" stop-color="#FF8860"/>
</linearGradient>
<linearGradient id="paint5_linear_80_5732" x1="10.9589" y1="16.2493" x2="17.2085" y2="11.2744" gradientUnits="userSpaceOnUse">
<stop stop-color="#FF8860"/>
<stop offset="1" stop-color="white"/>
</linearGradient>
<clipPath id="clip0_80_5732">
<rect width="16" height="16" fill="white"/>
</clipPath>
</defs>
</svg>
