<svg width="16" height="16" viewBox="0 0 16 16" fill="none" xmlns="http://www.w3.org/2000/svg">
<path d="M3.60732 0C2.71927 0 2 0.719268 2 1.60732V4.24095C2 4.51759 2.01933 4.79327 2.05761 5.06602C2.38515 4.93811 4.03488 4.31308 5.19683 4.24698C6.32323 4.18336 7.13071 4.6363 7.93818 5.08923C8.74398 5.54216 9.55232 5.9951 10.6779 5.93148C11.8319 5.86625 13.4666 5.24917 13.81 5.11511C13.853 4.82636 13.8747 4.5342 13.8747 4.24095V1.60732C13.8747 0.719268 13.1554 0 12.2673 0H3.60732Z" fill="url(#paint0_linear_80_5747)"/>
<path d="M4.69979 14.7277H11.0612C11.2299 14.7277 11.3918 14.7947 11.511 14.9141C11.6303 15.0334 11.6973 15.1951 11.6973 15.3639C11.6973 15.5326 11.6303 15.6944 11.511 15.8137C11.3918 15.933 11.2299 16 11.0612 16H4.69979C4.53107 16 4.36927 15.933 4.24997 15.8137C4.13067 15.6944 4.06365 15.5326 4.06365 15.3639C4.06365 15.1951 4.13067 15.0334 4.24997 14.9141C4.36927 14.7947 4.53107 14.7277 4.69979 14.7277Z" fill="url(#paint1_linear_80_5747)"/>
<path d="M11.7579 8.83393C10.6799 9.76335 9.30385 10.2746 7.88048 10.2747C7.52551 10.2747 7.17349 10.2429 6.82832 10.1808C6.49127 10.1201 6.33734 9.74004 6.33734 9.39757V9.39757C6.33734 8.59909 5.69004 7.95179 4.89156 7.95179C4.82234 7.95179 4.75426 7.95665 4.68763 7.96606C4.07652 8.05233 3.304 8.17053 2.9587 7.659C2.45723 6.9161 2.12657 6.06356 2 5.1627C2.3257 5.03547 3.97713 4.4095 5.14 4.34334C6.2664 4.27973 7.07388 4.73266 7.88135 5.1856C8.68715 5.63853 9.49549 6.09146 10.621 6.02785C11.7763 5.96254 13.4133 5.34421 13.7542 5.21104C13.5445 6.61885 12.836 7.90451 11.7579 8.83393Z" fill="url(#paint2_linear_80_5747)"/>
<path fill-rule="evenodd" clip-rule="evenodd" d="M13.5662 5.35931C12.8682 5.58849 11.8242 5.88718 11.0105 5.93147C9.84148 5.99509 9.00196 5.54216 8.16506 5.08922C7.32643 4.63629 6.48779 4.18335 5.31793 4.24697C4.11019 4.31313 2.39504 4.93909 2.05676 5.06632C2.07812 5.21268 2.10507 5.35776 2.13746 5.5013C2.83095 5.27902 3.80113 5.01184 4.56718 4.96988C5.73704 4.90626 6.57568 5.3592 7.41431 5.81213C8.25121 6.26506 9.09073 6.718 10.2597 6.65438C11.4582 6.58915 13.156 5.97207 13.5127 5.83801C13.5372 5.67934 13.5551 5.51965 13.5662 5.35931Z" fill="#D84F4F"/>
<path opacity="0.5" d="M8.57343 10.1443C8.15054 10.1893 7.72404 10.1893 7.30115 10.1443V14.6313H8.57343V10.1443Z" fill="url(#paint3_linear_80_5747)"/>
<ellipse cx="4.89159" cy="9.39757" rx="0.722889" ry="0.722889" fill="url(#paint4_linear_80_5747)"/>
<path fill-rule="evenodd" clip-rule="evenodd" d="M12.4251 9.87502H13.3001C13.5416 9.87502 13.7376 9.67902 13.7376 9.43751C13.7376 9.196 13.5416 9 13.3001 9H12.4251C12.1836 9 11.9875 9.196 11.9875 9.43751C11.9875 9.67902 12.1836 9.87502 12.4251 9.87502Z" fill="url(#paint5_linear_80_5747)"/>
<path fill-rule="evenodd" clip-rule="evenodd" d="M11.1126 15.5624C11.1126 15.804 10.9166 16 10.6751 16C10.4336 16 10.2376 15.804 10.2376 15.5624C10.2376 15.3209 10.4336 15.1249 10.6751 15.1249C10.9166 15.1249 11.1126 15.3209 11.1126 15.5624ZM10.6751 14.6874C10.4336 14.6874 10.2376 14.4914 10.2376 14.2499V11.1873C9.99605 11.1873 9.80005 10.9913 9.80005 10.7498C9.80005 10.5083 9.99605 10.3123 10.2376 10.3123H15.4877C15.7292 10.3123 15.9252 10.5083 15.9252 10.7498C15.9252 10.9913 15.7292 11.1873 15.4877 11.1873V14.26C15.4877 15.2212 14.7089 16 13.7477 16H11.9876C11.7461 16 11.5501 15.804 11.5501 15.5624C11.5501 15.0794 11.1581 14.6874 10.6751 14.6874Z" fill="url(#paint6_linear_80_5747)"/>
<path fill-rule="evenodd" clip-rule="evenodd" d="M11.55 12.4999V13.8124C11.55 14.054 11.7461 14.25 11.9876 14.25C12.2291 14.25 12.4251 14.054 12.4251 13.8124V12.4999C12.4251 12.2584 12.2291 12.0623 11.9876 12.0623C11.7461 12.0623 11.55 12.2584 11.55 12.4999Z" fill="url(#paint7_linear_80_5747)"/>
<path fill-rule="evenodd" clip-rule="evenodd" d="M13.3002 12.4999V13.8124C13.3002 14.054 13.4962 14.25 13.7377 14.25C13.9792 14.25 14.1752 14.054 14.1752 13.8124V12.4999C14.1752 12.2584 13.9792 12.0623 13.7377 12.0623C13.4962 12.0623 13.3002 12.2584 13.3002 12.4999Z" fill="url(#paint8_linear_80_5747)"/>
<defs>
<linearGradient id="paint0_linear_80_5747" x1="5.39144" y1="5.93736" x2="14.2144" y2="1.13003" gradientUnits="userSpaceOnUse">
<stop stop-color="#FF8860"/>
<stop offset="1" stop-color="white"/>
</linearGradient>
<linearGradient id="paint1_linear_80_5747" x1="4.20392" y1="14.5422" x2="11.4826" y2="5.73917" gradientUnits="userSpaceOnUse">
<stop stop-color="#FF405B"/>
<stop offset="1" stop-color="#FF8860"/>
</linearGradient>
<linearGradient id="paint2_linear_80_5747" x1="4.20392" y1="14.5422" x2="11.4826" y2="5.73917" gradientUnits="userSpaceOnUse">
<stop stop-color="#FF405B"/>
<stop offset="1" stop-color="#FF8860"/>
</linearGradient>
<linearGradient id="paint3_linear_80_5747" x1="7.30093" y1="12.3213" x2="8.57314" y2="12.3213" gradientUnits="userSpaceOnUse">
<stop stop-color="#FD3A84"/>
<stop offset="1" stop-color="#FFA68D"/>
</linearGradient>
<linearGradient id="paint4_linear_80_5747" x1="4.43978" y1="9.93974" x2="5.3434" y2="8.8554" gradientUnits="userSpaceOnUse">
<stop stop-color="#FF405B"/>
<stop offset="1" stop-color="#FF8860"/>
</linearGradient>
<linearGradient id="paint5_linear_80_5747" x1="12.3157" y1="9.76564" x2="12.7105" y2="8.81814" gradientUnits="userSpaceOnUse">
<stop stop-color="#FF405B"/>
<stop offset="1" stop-color="#FF8860"/>
</linearGradient>
<linearGradient id="paint6_linear_80_5747" x1="11" y1="15.5" x2="17.371" y2="11.9848" gradientUnits="userSpaceOnUse">
<stop stop-color="#FF8860"/>
<stop offset="1" stop-color="white"/>
</linearGradient>
<linearGradient id="paint7_linear_80_5747" x1="11.7141" y1="13.9766" x2="12.7987" y2="13.456" gradientUnits="userSpaceOnUse">
<stop stop-color="#FF405B"/>
<stop offset="1" stop-color="#FF8860"/>
</linearGradient>
<linearGradient id="paint8_linear_80_5747" x1="13.4642" y1="13.9766" x2="14.5488" y2="13.456" gradientUnits="userSpaceOnUse">
<stop stop-color="#FF405B"/>
<stop offset="1" stop-color="#FF8860"/>
</linearGradient>
</defs>
</svg>
