<svg width="16" height="16" viewBox="0 0 16 16" fill="none" xmlns="http://www.w3.org/2000/svg">
<path fill-rule="evenodd" clip-rule="evenodd" d="M16 5.943V11C16 11.552 15.552 12 15 12C13.896 12 13 12.896 13 14C13 14.552 12.552 15 12 15C12 15 6.101 15 2.943 15C2.162 15 1.414 14.69 0.862 14.138C0.31 13.586 0 12.838 0 12.057C0 9.823 0 6.177 0 3.943C0 3.162 0.31 2.414 0.862 1.862C1.414 1.31 2.162 1 2.943 1C3.727 1 4.587 1 5.195 1C5.976 1 6.724 1.31 7.276 1.862L8.138 2.724C8.315 2.901 8.555 3 8.805 3H13.057C14.683 3 16 4.317 16 5.943ZM16 14C16 14.552 15.552 15 15 15C14.448 15 14 14.552 14 14C14 13.448 14.448 13 15 13C15.552 13 16 13.448 16 14Z" fill="url(#paint0_linear_80_5758)"/>
<path fill-rule="evenodd" clip-rule="evenodd" d="M4.80366 6C4.35963 6 4 6.35963 4 6.80366V8.12048C4 8.25879 4.00967 8.39663 4.0288 8.533C4.03051 8.54473 4.03188 8.5566 4.03373 8.56829L4 8.58135C4.06328 9.03178 4.22862 9.45805 4.47935 9.8295C4.64928 10.0812 5.02616 10.0279 5.32933 9.98507L5.34382 9.98303C5.37713 9.97832 5.41117 9.97589 5.44578 9.97589C5.84502 9.97589 6.16867 10.2995 6.16867 10.6988C6.16867 10.87 6.24563 11.06 6.41416 11.0904C6.49232 11.1045 6.57119 11.1154 6.65057 11.1232V13.3156H7.28672V11.1171C7.87282 11.0482 8.42802 10.8057 8.87896 10.417C9.41801 9.95226 9.77223 9.30943 9.87712 8.60552C9.76395 8.64972 9.36525 8.8008 8.94101 8.90695C8.79007 8.93672 8.64122 8.95833 8.50523 8.96574C8.43928 8.96933 8.37543 8.96963 8.31344 8.96701C8.3219 8.96665 8.33039 8.96622 8.33893 8.96574C8.91593 8.93312 9.73329 8.62458 9.90499 8.55755C9.92648 8.41318 9.93734 8.2671 9.93734 8.12048V6.80366C9.93734 6.35963 9.5777 6 9.13367 6H4.80366ZM5.7355 8.12076C5.69085 8.11999 5.64518 8.12085 5.59841 8.12349C5.01829 8.15649 4.19498 8.46814 4.02952 8.53273C4.20134 8.46815 5.05644 8.15649 5.65896 8.12348C5.68479 8.12208 5.7103 8.12118 5.7355 8.12076Z" fill="#D03157"/>
<path d="M5.34989 13.3639H8.5306C8.61496 13.3639 8.69588 13.3974 8.75552 13.457C8.81516 13.5167 8.84867 13.5976 8.84867 13.6819C8.84867 13.7663 8.81516 13.8472 8.75552 13.9069C8.69588 13.9665 8.61496 14 8.5306 14H5.34989C5.26554 14 5.18463 13.9665 5.12499 13.9069C5.06534 13.8472 5.03182 13.7663 5.03182 13.6819C5.03182 13.5976 5.06534 13.5167 5.12499 13.457C5.18463 13.3974 5.26554 13.3639 5.34989 13.3639Z" fill="#D03157"/>
<path d="M5.44579 11.0602C5.64542 11.0602 5.80724 10.8984 5.80724 10.6988C5.80724 10.4992 5.64542 10.3373 5.44579 10.3373C5.24617 10.3373 5.08435 10.4992 5.08435 10.6988C5.08435 10.8984 5.24617 11.0602 5.44579 11.0602Z" fill="#D03157"/>
<path fill-rule="evenodd" clip-rule="evenodd" d="M5.80366 5C5.35963 5 5 5.35963 5 5.80366V7.12048C5 7.25879 5.00967 7.39663 5.0288 7.533C5.03051 7.54473 5.03188 7.5566 5.03373 7.56829L5 7.58135C5.06328 8.03178 5.22862 8.45805 5.47935 8.8295C5.64928 9.08124 6.02616 9.02795 6.32933 8.98507L6.34382 8.98303C6.37713 8.97832 6.41117 8.97589 6.44578 8.97589C6.84502 8.97589 7.16867 9.29954 7.16867 9.69878C7.16867 9.87002 7.24563 10.06 7.41416 10.0904C7.49232 10.1045 7.57119 10.1154 7.65057 10.1232V12.3156H8.28672V10.1171C8.87282 10.0482 9.42802 9.80573 9.87896 9.41696C10.418 8.95226 10.7722 8.30943 10.8771 7.60552C10.7639 7.64972 10.3653 7.8008 9.94101 7.90695C9.79007 7.93672 9.64122 7.95833 9.50523 7.96574C9.43928 7.96933 9.37543 7.96963 9.31344 7.96701C9.3219 7.96665 9.33039 7.96622 9.33893 7.96574C9.91593 7.93312 10.7333 7.62458 10.905 7.55755C10.9265 7.41318 10.9373 7.2671 10.9373 7.12048V5.80366C10.9373 5.35963 10.5777 5 10.1337 5H5.80366ZM6.7355 7.12076C6.69085 7.11999 6.64518 7.12085 6.59841 7.12349C6.01829 7.15649 5.19498 7.46814 5.02952 7.53273C5.20134 7.46815 6.05644 7.15649 6.65896 7.12348C6.68479 7.12208 6.7103 7.12118 6.7355 7.12076Z" fill="url(#paint1_linear_80_5758)"/>
<path fill-rule="evenodd" clip-rule="evenodd" d="M5.80366 5C5.35963 5 5 5.35963 5 5.80366V7.12048C5 7.25879 5.00967 7.39663 5.0288 7.533C5.03051 7.54473 5.03188 7.5566 5.03373 7.56829L5 7.58135C5.06328 8.03178 5.22862 8.45805 5.47935 8.8295C5.64928 9.08124 6.02616 9.02795 6.32933 8.98507L6.34382 8.98303C6.37713 8.97832 6.41117 8.97589 6.44578 8.97589C6.84502 8.97589 7.16867 9.29954 7.16867 9.69878C7.16867 9.87002 7.24563 10.06 7.41416 10.0904C7.49232 10.1045 7.57119 10.1154 7.65057 10.1232V12.3156H8.28672V10.1171C8.87282 10.0482 9.42802 9.80573 9.87896 9.41696C10.418 8.95226 10.7722 8.30943 10.8771 7.60552C10.7639 7.64972 10.3653 7.8008 9.94101 7.90695C9.79007 7.93672 9.64122 7.95833 9.50523 7.96574C9.43928 7.96933 9.37543 7.96963 9.31344 7.96701C9.3219 7.96665 9.33039 7.96622 9.33893 7.96574C9.91593 7.93312 10.7333 7.62458 10.905 7.55755C10.9265 7.41318 10.9373 7.2671 10.9373 7.12048V5.80366C10.9373 5.35963 10.5777 5 10.1337 5H5.80366ZM6.7355 7.12076C6.69085 7.11999 6.64518 7.12085 6.59841 7.12349C6.01829 7.15649 5.19498 7.46814 5.02952 7.53273C5.20134 7.46815 6.05644 7.15649 6.65896 7.12348C6.68479 7.12208 6.7103 7.12118 6.7355 7.12076Z" fill="url(#paint2_linear_80_5758)"/>
<path d="M6.34989 12.3639H9.5306C9.61496 12.3639 9.69588 12.3974 9.75552 12.457C9.81516 12.5167 9.84867 12.5976 9.84867 12.6819C9.84867 12.7663 9.81516 12.8472 9.75552 12.9069C9.69588 12.9665 9.61496 13 9.5306 13H6.34989C6.26554 13 6.18463 12.9665 6.12499 12.9069C6.06534 12.8472 6.03182 12.7663 6.03182 12.6819C6.03182 12.5976 6.06534 12.5167 6.12499 12.457C6.18463 12.3974 6.26554 12.3639 6.34989 12.3639Z" fill="url(#paint3_linear_80_5758)"/>
<path d="M6.34989 12.3639H9.5306C9.61496 12.3639 9.69588 12.3974 9.75552 12.457C9.81516 12.5167 9.84867 12.5976 9.84867 12.6819C9.84867 12.7663 9.81516 12.8472 9.75552 12.9069C9.69588 12.9665 9.61496 13 9.5306 13H6.34989C6.26554 13 6.18463 12.9665 6.12499 12.9069C6.06534 12.8472 6.03182 12.7663 6.03182 12.6819C6.03182 12.5976 6.06534 12.5167 6.12499 12.457C6.18463 12.3974 6.26554 12.3639 6.34989 12.3639Z" fill="url(#paint4_linear_80_5758)"/>
<path d="M6.44579 10.0602C6.64542 10.0602 6.80724 9.8984 6.80724 9.69878C6.80724 9.49916 6.64542 9.33734 6.44579 9.33734C6.24617 9.33734 6.08435 9.49916 6.08435 9.69878C6.08435 9.8984 6.24617 10.0602 6.44579 10.0602Z" fill="url(#paint5_linear_80_5758)"/>
<path d="M6.44579 10.0602C6.64542 10.0602 6.80724 9.8984 6.80724 9.69878C6.80724 9.49916 6.64542 9.33734 6.44579 9.33734C6.24617 9.33734 6.08435 9.49916 6.08435 9.69878C6.08435 9.8984 6.24617 10.0602 6.44579 10.0602Z" fill="url(#paint6_linear_80_5758)"/>
<defs>
<linearGradient id="paint0_linear_80_5758" x1="13" y1="4.5" x2="2.39551" y2="14.9202" gradientUnits="userSpaceOnUse">
<stop stop-color="#FE7970"/>
<stop offset="1" stop-color="#DC3282"/>
</linearGradient>
<linearGradient id="paint1_linear_80_5758" x1="6.69572" y1="12.9998" x2="9.83061" y2="7.46043" gradientUnits="userSpaceOnUse">
<stop stop-color="#FF8860"/>
<stop offset="1" stop-color="white"/>
</linearGradient>
<linearGradient id="paint2_linear_80_5758" x1="5.54233" y1="13.3018" x2="10.0478" y2="11.3326" gradientUnits="userSpaceOnUse">
<stop stop-color="#FF6086"/>
<stop offset="1" stop-color="white"/>
</linearGradient>
<linearGradient id="paint3_linear_80_5758" x1="6.69572" y1="12.9998" x2="9.83061" y2="7.46043" gradientUnits="userSpaceOnUse">
<stop stop-color="#FF8860"/>
<stop offset="1" stop-color="white"/>
</linearGradient>
<linearGradient id="paint4_linear_80_5758" x1="5.54233" y1="13.3018" x2="10.0478" y2="11.3326" gradientUnits="userSpaceOnUse">
<stop stop-color="#FF6086"/>
<stop offset="1" stop-color="white"/>
</linearGradient>
<linearGradient id="paint5_linear_80_5758" x1="6.69572" y1="12.9998" x2="9.83061" y2="7.46043" gradientUnits="userSpaceOnUse">
<stop stop-color="#FF8860"/>
<stop offset="1" stop-color="white"/>
</linearGradient>
<linearGradient id="paint6_linear_80_5758" x1="5.54233" y1="13.3018" x2="10.0478" y2="11.3326" gradientUnits="userSpaceOnUse">
<stop stop-color="#FF6086"/>
<stop offset="1" stop-color="white"/>
</linearGradient>
</defs>
</svg>
