<svg width="16" height="16" viewBox="0 0 16 16" fill="none" xmlns="http://www.w3.org/2000/svg">
<path fill-rule="evenodd" clip-rule="evenodd" d="M1 13C0.448 13 0 12.552 0 12V3.992C0 1.787 1.787 0 3.992 0C6.357 0 9.643 0 12.008 0C13.067 0 14.082 0.421001 14.831 1.169C15.579 1.918 16 2.933 16 3.992C16 6.357 16 9.643 16 12.008C16 14.213 14.213 16 12.008 16C8.751 16 4 16 4 16C3.448 16 3 15.552 3 15C3 13.896 2.104 13 1 13ZM1 14C1.552 14 2 14.448 2 15C2 15.552 1.552 16 1 16C0.448 16 0 15.552 0 15C0 14.448 0.448 14 1 14Z" fill="url(#paint0_linear_144_15932)"/>
<path d="M3.3571 10.5904L3.35683 10.589L3.35652 10.5877C3.29588 10.3302 3.29807 10.0676 3.30034 9.79434C3.30094 9.722 3.30155 9.64891 3.30101 9.57496C3.30048 8.94677 3.30071 8.31841 3.30094 7.69002C3.30128 6.79291 3.30161 5.89576 3.29973 4.99908C3.31138 4.78126 3.16468 4.56248 2.95146 4.51524C2.80667 4.47464 2.66238 4.524 2.56018 4.61495C2.45802 4.70585 2.3902 4.84459 2.40119 4.99655C2.39981 6.20044 2.40008 7.40438 2.40034 8.60824C2.40044 9.0902 2.40054 9.57213 2.40054 10.0541C2.3999 10.7842 2.62853 11.5126 3.04623 12.095C3.56264 12.8263 4.37309 13.3222 5.23677 13.4034C5.8874 13.4748 6.55045 13.3144 7.11455 12.9709C7.28923 12.8644 7.51224 12.8662 7.68637 12.9734C8.59723 13.5345 9.77922 13.5762 10.7122 13.0398C11.7162 12.4837 12.3868 11.326 12.3987 10.1266V10.1258C12.3993 8.41685 12.3993 6.70857 12.3987 5.00028C12.4172 4.76445 12.2419 4.52927 12.0075 4.50594C11.8661 4.48067 11.7328 4.53861 11.6402 4.63151C11.5476 4.72448 11.4882 4.85927 11.4989 5.00203C11.4966 5.88177 11.497 6.76364 11.4973 7.64535C11.4978 8.47269 11.4981 9.29987 11.4963 10.125C11.4806 11.0768 10.886 11.9804 10.0538 12.3135L10.0532 12.3136L10.0526 12.3139C9.53864 12.529 8.9479 12.5204 8.43604 12.3029C8.21172 12.2076 8.16709 11.9287 8.27953 11.7125C8.54206 11.2076 8.68464 10.634 8.68167 10.0553C8.68359 8.66713 8.68359 7.27893 8.68232 5.89077C8.69022 5.43805 8.47235 4.98906 8.11305 4.73755C7.70685 4.44189 7.13944 4.43154 6.72404 4.71192C6.34308 4.95852 6.10903 5.42292 6.11693 5.89147C6.1163 7.27685 6.11565 8.66232 6.11758 10.0478C6.11511 10.6257 6.25491 11.2021 6.51758 11.7079C6.63148 11.9272 6.58493 12.2104 6.35684 12.3054C5.87267 12.5072 5.32339 12.5298 4.83135 12.3475L4.83023 12.347C4.09966 12.088 3.52048 11.3965 3.3571 10.5904ZM7.02253 5.88747V5.88478L7.02236 5.88211C7.00782 5.64603 7.21524 5.43989 7.42128 5.46058L7.42363 5.46082L7.42598 5.46092C7.61624 5.46947 7.78817 5.66592 7.77684 5.88221L7.77673 5.88448V5.88674C7.77801 7.29973 7.77865 8.71269 7.77736 10.1256C7.77653 10.3432 7.74312 10.5586 7.68318 10.7663C7.59297 11.0788 7.20392 11.0846 7.11643 10.7713C7.04569 10.5179 7.01451 10.2499 7.02057 9.98571L7.02061 9.98478V9.98386C7.02156 9.30117 7.02156 8.6185 7.02156 7.9358C7.02156 7.25309 7.02156 6.57036 7.02253 5.88747Z" fill="#8C4FD9" stroke="#8C4FD9" stroke-width="0.6"/>
<path d="M4.3571 9.59036L4.35683 9.58905L4.35652 9.58775C4.29588 9.33023 4.29807 9.06759 4.30034 8.79434C4.30094 8.722 4.30155 8.64891 4.30101 8.57496C4.30048 7.94677 4.30071 7.31841 4.30094 6.69002C4.30128 5.79291 4.30161 4.89576 4.29973 3.99908C4.31138 3.78126 4.16468 3.56248 3.95146 3.51524C3.80667 3.47464 3.66238 3.524 3.56018 3.61495C3.45802 3.70585 3.3902 3.84459 3.40119 3.99655C3.39981 5.20044 3.40008 6.40438 3.40034 7.60824C3.40044 8.0902 3.40054 8.57213 3.40054 9.05405C3.3999 9.78422 3.62853 10.5126 4.04623 11.095C4.56264 11.8263 5.37309 12.3222 6.23677 12.4034C6.8874 12.4748 7.55045 12.3144 8.11455 11.9709C8.28923 11.8644 8.51224 11.8662 8.68637 11.9734C9.59723 12.5345 10.7792 12.5762 11.7122 12.0398C12.7162 11.4837 13.3868 10.326 13.3987 9.12664V9.12583C13.3993 7.41685 13.3993 5.70857 13.3987 4.00028C13.4172 3.76445 13.2419 3.52927 13.0075 3.50594C12.8661 3.48067 12.7328 3.53861 12.6402 3.63151C12.5476 3.72448 12.4882 3.85927 12.4989 4.00203C12.4966 4.88177 12.497 5.76364 12.4973 6.64535C12.4978 7.47269 12.4981 8.29987 12.4963 9.12504C12.4806 10.0768 11.886 10.9804 11.0538 11.3135L11.0532 11.3136L11.0526 11.3139C10.5386 11.529 9.9479 11.5204 9.43604 11.3029C9.21172 11.2076 9.16709 10.9287 9.27953 10.7125C9.54206 10.2076 9.68464 9.63399 9.68167 9.05532C9.68359 7.66713 9.68359 6.27893 9.68232 4.89077C9.69022 4.43805 9.47235 3.98906 9.11305 3.73755C8.70685 3.44189 8.13944 3.43154 7.72404 3.71192C7.34308 3.95852 7.10903 4.42292 7.11693 4.89147C7.1163 6.27685 7.11565 7.66232 7.11758 9.04781C7.11511 9.62567 7.25491 10.2021 7.51758 10.7079C7.63148 10.9272 7.58493 11.2104 7.35684 11.3054C6.87267 11.5072 6.32339 11.5298 5.83135 11.3475L5.83023 11.347C5.09966 11.088 4.52048 10.3965 4.3571 9.59036ZM8.02253 4.88747V4.88478L8.02236 4.88211C8.00782 4.64603 8.21524 4.43989 8.42128 4.46058L8.42363 4.46082L8.42598 4.46092C8.61624 4.46947 8.78817 4.66592 8.77684 4.88221L8.77673 4.88448V4.88674C8.77801 6.29973 8.77865 7.71269 8.77736 9.12562C8.77653 9.34318 8.74312 9.55859 8.68318 9.76626C8.59297 10.0788 8.20392 10.0846 8.11643 9.77126C8.04569 9.51793 8.01451 9.24992 8.02057 8.98571L8.02061 8.98478V8.98386C8.02156 8.30117 8.02156 7.6185 8.02156 6.9358C8.02156 6.25309 8.02156 5.57036 8.02253 4.88747Z" fill="url(#paint1_linear_144_15932)" stroke="url(#paint2_linear_144_15932)" stroke-width="0.6"/>
<defs>
<linearGradient id="paint0_linear_144_15932" x1="4" y1="14.8571" x2="14.5882" y2="2.5042" gradientUnits="userSpaceOnUse">
<stop stop-color="#A056FF"/>
<stop offset="1" stop-color="#C59AFD"/>
</linearGradient>
<linearGradient id="paint1_linear_144_15932" x1="5.90002" y1="12.4201" x2="15.4059" y2="8.86785" gradientUnits="userSpaceOnUse">
<stop stop-color="#C59AFD"/>
<stop offset="1" stop-color="white"/>
</linearGradient>
<linearGradient id="paint2_linear_144_15932" x1="5.90002" y1="12.4201" x2="15.4059" y2="8.86785" gradientUnits="userSpaceOnUse">
<stop stop-color="#C59AFD"/>
<stop offset="1" stop-color="white"/>
</linearGradient>
</defs>
</svg>
