<svg width="16" height="16" viewBox="0 0 16 16" fill="none" xmlns="http://www.w3.org/2000/svg">
<path fill-rule="evenodd" clip-rule="evenodd" d="M2.875 13.375C2.392 13.375 2 12.983 2 12.5V5.493C2 3.56362 3.56362 2 5.493 2C7.56237 2 10.4376 2 12.507 2C13.4336 2 14.3218 2.36838 14.9771 3.02288C15.6316 3.67825 16 4.56637 16 5.493C16 7.56237 16 10.4376 16 12.507C16 14.4364 14.4364 16 12.507 16C9.65712 16 5.5 16 5.5 16C5.017 16 4.625 15.608 4.625 15.125C4.625 14.159 3.841 13.375 2.875 13.375ZM2.875 14.25C3.358 14.25 3.75 14.642 3.75 15.125C3.75 15.608 3.358 16 2.875 16C2.392 16 2 15.608 2 15.125C2 14.642 2.392 14.25 2.875 14.25Z" fill="url(#paint0_linear_14_962)"/>
<path fill-rule="evenodd" clip-rule="evenodd" d="M0.5 6.5C0.224 6.5 0 6.276 0 6V3.996C0 2.8935 0.8935 2 1.996 2C3.1785 2 4.8215 2 6.004 2C6.5335 2 7.041 2.2105 7.4155 2.5845C7.7895 2.959 8 3.4665 8 3.996C8 5.1785 8 4.8215 8 6.004C8 7.1065 7.1065 8 6.004 8C4.3755 8 2 8 2 8C1.724 8 1.5 7.776 1.5 7.5C1.5 6.948 1.052 6.5 0.5 6.5ZM0.5 7C0.776 7 1 7.224 1 7.5C1 7.776 0.776 8 0.5 8C0.224 8 0 7.776 0 7.5C0 7.224 0.224 7 0.5 7Z" fill="#279FD7"/>
<path fill-rule="evenodd" clip-rule="evenodd" d="M1.5 5.5C1.224 5.5 1 5.276 1 5V2.996C1 1.8935 1.8935 1 2.996 1C4.1785 1 5.8215 1 7.004 1C7.5335 1 8.041 1.2105 8.4155 1.5845C8.7895 1.959 9 2.4665 9 2.996C9 4.1785 9 3.8215 9 5.004C9 6.1065 8.1065 7 7.004 7C5.3755 7 3 7 3 7C2.724 7 2.5 6.776 2.5 6.5C2.5 5.948 2.052 5.5 1.5 5.5ZM1.5 6C1.776 6 2 6.224 2 6.5C2 6.776 1.776 7 1.5 7C1.224 7 1 6.776 1 6.5C1 6.224 1.224 6 1.5 6Z" fill="url(#paint1_linear_14_962)"/>
<defs>
<linearGradient id="paint0_linear_14_962" x1="3.4" y1="16.0044" x2="8.45636" y2="0.833391" gradientUnits="userSpaceOnUse">
<stop stop-color="#22B4FA"/>
<stop offset="1" stop-color="#6BD6FE"/>
</linearGradient>
<linearGradient id="paint1_linear_14_962" x1="1" y1="7" x2="10" y2="4" gradientUnits="userSpaceOnUse">
<stop stop-color="#6BD6FE"/>
<stop offset="1" stop-color="white"/>
</linearGradient>
</defs>
</svg>
