<svg width="16" height="16" viewBox="0 0 16 16" fill="none" xmlns="http://www.w3.org/2000/svg">
<path fill-rule="evenodd" clip-rule="evenodd" d="M7.99841 12.9982C5.99841 12.9982 5.83541 14.6622 5.80541 14.7222C5.56141 15.2172 4.96141 15.4212 4.46641 15.1772C1.82041 13.8722 -0.00158691 11.1462 -0.00158691 7.99817C-0.00158691 3.58317 3.58341 -0.00183105 7.99841 -0.00183105C12.4134 -0.00183105 15.9984 3.58317 15.9984 7.99817C15.9984 11.1462 14.1764 13.8722 11.5304 15.1772C11.0354 15.4212 10.4354 15.2172 10.1914 14.7222C10.1614 14.6622 9.99841 12.9982 7.99841 12.9982ZM8.99841 14.9982C8.99841 15.5502 8.55041 15.9982 7.99841 15.9982C7.44641 15.9982 6.99841 15.5502 6.99841 14.9982C6.99841 14.4462 7.44641 13.9982 7.99841 13.9982C8.55041 13.9982 8.99841 14.4462 8.99841 14.9982Z" fill="url(#paint0_linear_145_15952)"/>
<path d="M6.91633 3.09094C5.73925 3.09094 4.90733 3.62475 4.54071 3.91631C4.40964 4.02055 4.38348 4.2011 4.46148 4.34931L5.61021 6.53213C5.71971 6.7402 5.98736 6.8011 6.20482 6.71168C6.44157 6.61432 6.69625 6.56316 6.95505 6.56261C7.1962 6.5631 7.434 6.60754 7.65717 6.69253C7.87193 6.77433 8.13079 6.71115 8.23789 6.50784L9.3746 4.35005C9.45284 4.20153 9.42644 4.02053 9.29489 3.91627C8.92696 3.62466 8.09286 3.09094 6.91633 3.09094ZM6.95502 7.55451C6.40747 7.55451 5.9631 7.99888 5.9631 8.54642C5.9631 9.09445 6.40747 9.53832 6.95502 9.53832C7.50304 9.53832 7.94691 9.09445 7.94691 8.54642C7.94691 7.99839 7.50304 7.55451 6.95502 7.55451ZM4.99494 8.92129C4.94581 8.70873 4.76415 8.53762 4.54632 8.54927L1.8792 8.69186C1.71822 8.70047 1.58008 8.80734 1.5519 8.96605C1.47225 9.41461 1.40371 10.381 1.99557 11.3655C2.59347 12.3601 3.51036 12.7827 3.94873 12.9357C4.09828 12.9879 4.2573 12.9246 4.34645 12.7937L5.79235 10.6701C5.91863 10.4846 5.86017 10.2324 5.69232 10.0835C5.64056 10.0376 5.59065 9.98925 5.54259 9.93872C5.51705 9.91199 5.49226 9.88454 5.46824 9.85643C5.44687 9.83117 5.42359 9.80779 5.40323 9.78153C5.40257 9.78085 5.40189 9.78019 5.40122 9.77952C5.35139 9.71559 5.30551 9.64867 5.26385 9.57915C5.25938 9.57219 5.25344 9.56625 5.24947 9.55881C5.24055 9.54443 5.23509 9.52955 5.22714 9.51517C5.20404 9.4743 5.1824 9.43263 5.16224 9.39024C5.08753 9.23757 5.03172 9.08037 4.99494 8.92129Z" fill="#D49F34"/>
<path d="M8.902 8.92339C8.93722 8.77912 8.96106 8.63284 8.96597 8.48755C8.96603 8.48757 8.96599 8.48749 8.96597 8.48755C8.96583 8.48749 8.9658 8.48718 8.96595 8.48718L12.2951 8.66414C12.2956 8.66418 12.2959 8.66457 12.2959 8.66504C12.2959 8.66494 12.2959 8.66514 12.2959 8.66504C12.2969 8.66796 12.7231 9.97554 11.9146 11.3205C11.3168 12.315 10.3989 12.7398 9.95987 12.8938C9.8101 12.9464 9.65064 12.8832 9.56132 12.752L8.13206 10.6529C8.00168 10.4614 8.06945 10.2008 8.24525 10.0499C8.34586 9.96354 8.43785 9.86707 8.51967 9.7618C8.69053 9.54192 8.81318 9.28854 8.87967 9.01813C8.88267 9.0077 8.88458 8.9973 8.88711 8.98739C8.89243 8.96613 8.8974 8.9448 8.902 8.92339Z" fill="#D49F34"/>
<path d="M8.00727 2C6.83019 2 5.99827 2.5338 5.63165 2.82537C5.50058 2.92961 5.47442 3.11016 5.55242 3.25836L6.70115 5.44119C6.81065 5.64926 7.0783 5.71015 7.29576 5.62074C7.53251 5.52337 7.7872 5.47222 8.046 5.47167C8.28715 5.47216 8.52495 5.51659 8.74812 5.60159C8.96287 5.68339 9.22173 5.62021 9.32883 5.41689L10.4655 3.25911C10.5438 3.11058 10.5174 2.92959 10.3858 2.82533C10.0179 2.53371 9.1838 2 8.00727 2ZM8.04596 6.46357C7.49842 6.46357 7.05404 6.90794 7.05404 7.45548C7.05404 8.00351 7.49842 8.44737 8.04596 8.44737C8.59399 8.44737 9.03785 8.00351 9.03785 7.45548C9.03785 6.90745 8.59399 6.46357 8.04596 6.46357ZM6.08588 7.83034C6.03675 7.61779 5.85509 7.44667 5.63726 7.45832L2.97014 7.60092C2.80916 7.60953 2.67103 7.7164 2.64284 7.87511C2.56319 8.32367 2.49466 9.29006 3.08651 10.2745C3.68442 11.2691 4.6013 11.6918 5.03967 11.8447C5.18923 11.8969 5.34825 11.8336 5.43739 11.7027L6.8833 9.57912C7.00957 9.39368 6.95111 9.14143 6.78326 8.99256C6.7315 8.94664 6.68159 8.89831 6.63354 8.84778C6.608 8.82105 6.5832 8.7936 6.55918 8.76549C6.53781 8.74022 6.51453 8.71685 6.49417 8.69059C6.49351 8.68991 6.49283 8.68924 6.49217 8.68858C6.44233 8.62465 6.39646 8.55773 6.35479 8.4882C6.35033 8.48125 6.34439 8.47531 6.34041 8.46787C6.33149 8.45349 6.32604 8.43861 6.31809 8.42423C6.29498 8.38336 6.27334 8.34169 6.25318 8.2993C6.17847 8.14663 6.12266 7.98942 6.08588 7.83034Z" fill="url(#paint1_linear_145_15952)"/>
<path d="M9.99294 7.83245C10.0282 7.68818 10.052 7.5419 10.0569 7.39661C10.057 7.39663 10.0569 7.39655 10.0569 7.39661C10.0568 7.39655 10.0567 7.39624 10.0569 7.39624L13.3861 7.5732C13.3865 7.57324 13.3869 7.57363 13.3869 7.5741C13.3869 7.574 13.3869 7.5742 13.3869 7.5741C13.3879 7.57702 13.814 8.8846 13.0055 10.2296C12.4077 11.2241 11.4898 11.6488 11.0508 11.8029C10.901 11.8555 10.7416 11.7922 10.6523 11.661L9.22301 9.56194C9.09262 9.37044 9.1604 9.10985 9.33619 8.95897C9.43681 8.8726 9.52879 8.77613 9.61061 8.67086C9.78148 8.45098 9.90413 8.19759 9.97061 7.92718C9.97361 7.91676 9.97552 7.90636 9.97806 7.89644C9.98337 7.87519 9.98834 7.85386 9.99294 7.83245Z" fill="url(#paint2_linear_145_15952)"/>
<defs>
<linearGradient id="paint0_linear_145_15952" x1="2.99841" y1="14.997" x2="12.9975" y2="2.99717" gradientUnits="userSpaceOnUse">
<stop stop-color="#FF8860"/>
<stop offset="1" stop-color="#FBD92C"/>
</linearGradient>
<linearGradient id="paint1_linear_145_15952" x1="4.57055" y1="9.39727" x2="9.3855" y2="5.53163" gradientUnits="userSpaceOnUse">
<stop stop-color="#FBD92C"/>
<stop offset="1" stop-color="white"/>
</linearGradient>
<linearGradient id="paint2_linear_145_15952" x1="10.2413" y1="10.7151" x2="12.4535" y2="8.543" gradientUnits="userSpaceOnUse">
<stop stop-color="#FBD92C"/>
<stop offset="1" stop-color="white"/>
</linearGradient>
</defs>
</svg>
