<svg width="16" height="16" viewBox="0 0 16 16" fill="none" xmlns="http://www.w3.org/2000/svg">
<path fill-rule="evenodd" clip-rule="evenodd" d="M14.1969 8.57853C14.1969 9.78053 15.197 9.8785 15.2331 9.89653C15.5306 10.0432 15.6532 10.4038 15.5065 10.7013C14.7222 12.2915 13.0839 13.3865 11.1919 13.3865C8.53851 13.3865 6.38391 11.232 6.38391 8.57853C6.38391 5.9251 8.53851 3.77051 11.1919 3.77051C13.0839 3.77051 14.7222 4.86553 15.5065 6.45579C15.6532 6.75328 15.5306 7.11389 15.2331 7.26053C15.197 7.27856 14.1969 7.37652 14.1969 8.57853ZM15.399 7.97753C15.7307 7.97753 16 8.24678 16 8.57853C16 8.91028 15.7307 9.17953 15.399 9.17953C15.0672 9.17953 14.7979 8.91028 14.7979 8.57853C14.7979 8.24678 15.0672 7.97753 15.399 7.97753Z" fill="url(#paint0_linear_25_2731)"/>
<path fill-rule="evenodd" clip-rule="evenodd" d="M6.69398 6.86892L7.25465 8.56094C7.29087 8.67024 7.39305 8.74403 7.50821 8.74403H8.38945C8.48481 8.74403 8.5715 8.69212 8.62711 8.61466C8.91148 8.21851 9.37608 7.96046 9.90096 7.96046C10.7664 7.96046 11.468 8.66204 11.468 9.52753C11.468 10.393 10.7664 11.0946 9.90096 11.0946C9.37611 11.0946 8.91153 10.8366 8.62714 10.4404C8.57154 10.363 8.48485 10.3111 8.3895 10.3111H6.70955C6.49933 9.77102 6.38396 9.18373 6.38396 8.56974C6.38396 7.97107 6.49364 7.39779 6.69398 6.86892Z" fill="#7FD1AE"/>
<path fill-rule="evenodd" clip-rule="evenodd" d="M6.37497 1.62206L8.3231 7.50123C8.35932 7.61053 8.4615 7.68432 8.57665 7.68432H9.4579C9.55326 7.68432 9.63995 7.63241 9.69556 7.55494C9.97993 7.1588 10.4445 6.90075 10.9694 6.90075C11.8349 6.90075 12.5365 7.60233 12.5365 8.46781C12.5365 9.33326 11.8349 10.0349 10.9694 10.0349C10.4446 10.0349 9.97998 9.77685 9.69559 9.38074C9.63999 9.30329 9.5533 9.25137 9.45795 9.25137H7.47849C7.36394 9.25137 7.26213 9.17833 7.22544 9.06981L6.62776 7.30164C6.54325 7.05163 6.18595 7.06258 6.1169 7.31731L4.21261 14.3434C4.16798 14.5081 3.9398 14.5219 3.87573 14.3639L1.86973 9.41809C1.82886 9.31731 1.73097 9.25137 1.62221 9.25137H0.178074C0.0797277 9.25137 0 9.17163 0 9.0733V7.86239C0 7.76405 0.0797277 7.68432 0.178074 7.68432H2.71584C2.82625 7.68432 2.92528 7.75225 2.96504 7.85525L3.4688 9.16046C3.5616 9.40088 3.90741 9.38348 3.97559 9.13495L6.03421 1.63097C6.08082 1.46103 6.31956 1.45479 6.37497 1.62206Z" fill="url(#paint1_linear_25_2731)"/>
<defs>
<linearGradient id="paint0_linear_25_2731" x1="7.58592" y1="12.1848" x2="16.5841" y2="10.1084" gradientUnits="userSpaceOnUse">
<stop stop-color="#62E8AF"/>
<stop offset="1" stop-color="#B3FBDC"/>
</linearGradient>
<linearGradient id="paint1_linear_25_2731" x1="-1.86808e-07" y1="14.475" x2="3.93319" y2="-0.726055" gradientUnits="userSpaceOnUse">
<stop stop-color="#B3FBDC"/>
<stop offset="1" stop-color="white"/>
</linearGradient>
</defs>
</svg>
