<svg width="16" height="16" viewBox="0 0 16 16" fill="none" xmlns="http://www.w3.org/2000/svg">
<g clip-path="url(#clip0_43_1819)">
<path fill-rule="evenodd" clip-rule="evenodd" d="M1 13C0.448 13 0 12.552 0 12V3.992C0 1.787 1.787 0 3.992 0C6.357 0 9.643 0 12.008 0C13.067 0 14.082 0.421001 14.831 1.169C15.579 1.918 16 2.933 16 3.992C16 6.357 16 9.643 16 12.008C16 14.213 14.213 16 12.008 16C8.751 16 4 16 4 16C3.448 16 3 15.552 3 15C3 13.896 2.104 13 1 13ZM1 14C1.552 14 2 14.448 2 15C2 15.552 1.552 16 1 16C0.448 16 0 15.552 0 15C0 14.448 0.448 14 1 14Z" fill="url(#paint0_linear_43_1819)"/>
<path fill-rule="evenodd" clip-rule="evenodd" d="M4.7273 3.09094C4.00397 3.09094 3.31026 3.37828 2.7988 3.88974C2.28734 4.40119 2 5.09489 2 5.8182C2 6.5415 2.28734 7.2352 2.7988 7.74666C3.31026 8.25811 4.00397 8.54544 4.7273 8.54544C4.00397 8.54544 3.31026 8.83278 2.7988 9.34425C2.28734 9.85571 2 10.5494 2 11.2727C2 11.996 2.28734 12.6897 2.7988 13.2012C3.31026 13.7126 4.00397 14 4.7273 14C5.45061 14 6.14432 13.7126 6.65578 13.2012C7.16726 12.6897 7.45458 11.996 7.45458 11.2727C7.45458 11.996 7.74176 12.6898 8.25322 13.2013C8.76471 13.7127 9.45839 14.0001 10.1817 14.0001C10.9051 14.0001 11.5987 13.7127 12.1102 13.2013C12.6217 12.6898 12.909 11.9961 12.909 11.2728C12.909 10.5495 12.6217 9.85581 12.1102 9.34434C11.5987 8.8329 10.9051 8.54556 10.1817 8.54556C10.9051 8.54556 11.5987 8.25822 12.1102 7.74676C12.6217 7.2353 12.909 6.54161 12.909 5.8183C12.909 5.09499 12.6217 4.4013 12.1102 3.88984C11.5987 3.37839 10.9051 3.09105 10.1817 3.09105C9.49049 3.09107 8.82506 3.35355 8.31996 3.82542C7.81643 4.29582 7.50969 4.93936 7.46126 5.62657C7.46101 5.63016 7.45801 5.63296 7.4544 5.63296C7.44901 5.63296 7.44455 5.62877 7.44416 5.62338C7.39503 4.93799 7.08893 4.29622 6.5869 3.82666C6.08252 3.3549 5.4179 3.09183 4.7273 3.09094ZM7.45458 11.2727C7.45357 11.2137 7.45064 11.1547 7.44579 11.0959C7.44538 11.0909 7.44963 11.0868 7.45458 11.0873C7.45805 11.0873 7.46077 11.0903 7.46054 11.0937C7.45657 11.1533 7.45466 11.213 7.45458 11.2727ZM10.1765 4.71344C10.3592 4.71161 10.5394 4.75571 10.7006 4.84164C10.8619 4.92759 10.9989 5.05266 11.0992 5.20536C11.1996 5.35805 11.2599 5.53349 11.2748 5.71558C11.2897 5.89766 11.2586 6.08057 11.1844 6.24752C11.1409 6.34902 11.0981 6.45075 11.0554 6.55249C10.7843 7.19809 10.5131 7.84404 10.0367 8.43587C9.51701 9.08166 8.6468 9.57743 7.63767 9.6315C7.57706 9.63475 7.51595 9.6364 7.45438 9.6364C7.35269 9.6364 7.26702 9.63711 7.19419 9.6391C7.15569 9.64016 7.12078 9.64156 7.08898 9.64341C6.81303 9.65947 6.77157 9.70867 6.65633 9.84544L6.63312 9.87291C6.4571 10.0801 6.16576 10.7053 5.72652 11.7096C5.67178 11.8447 5.59052 11.9674 5.48755 12.0706C5.38455 12.1738 5.26194 12.2553 5.12692 12.3103C5.03833 12.3464 4.94557 12.3706 4.85108 12.3824C4.81058 12.3875 4.76976 12.3903 4.7288 12.3908C4.71966 12.3909 4.71052 12.3909 4.70136 12.3908C4.55559 12.389 4.41169 12.358 4.27811 12.2996C4.14453 12.2412 4.02402 12.1566 3.92368 12.0508C3.82334 11.9451 3.74524 11.8203 3.69393 11.6838C3.64263 11.5474 3.6192 11.402 3.62502 11.2564C3.63085 11.1107 3.6658 10.9677 3.72782 10.8357C3.80279 10.6644 3.87241 10.5003 3.9393 10.3427C4.25309 9.60333 4.50672 9.00569 4.96983 8.46032C5.463 7.88009 6.24479 7.544 7.09373 7.47009C7.1675 7.46366 7.24178 7.45921 7.31641 7.45676C7.36232 7.45525 7.40837 7.45449 7.45452 7.45449C7.52967 7.45449 7.59628 7.45285 7.6559 7.44925C8.0324 7.42651 8.12995 7.32574 8.33753 7.06779C8.57806 6.76894 8.84724 6.16325 9.17917 5.38884C9.26075 5.1908 9.39877 5.02114 9.57608 4.90105C9.72886 4.79755 9.90504 4.73486 10.0879 4.71801C10.104 4.71651 10.1202 4.71538 10.1365 4.71461C10.1498 4.71398 10.1632 4.71359 10.1765 4.71344ZM4.7274 4.72729C5.01672 4.72729 5.2942 4.84223 5.49879 5.04683C5.70337 5.2514 5.81831 5.52888 5.81831 5.8182C5.81831 6.10753 5.70337 6.38499 5.49879 6.58958C5.35253 6.73583 5.16902 6.83627 4.97056 6.88165C4.89139 6.89977 4.80983 6.90912 4.72732 6.90912C4.43797 6.90912 4.16051 6.79418 3.9559 6.5896C3.75132 6.38501 3.6364 6.10755 3.6364 5.81822C3.6364 5.5289 3.75132 5.25142 3.9559 5.04685C4.10537 4.89738 4.29372 4.79577 4.49718 4.75186C4.57226 4.73564 4.6494 4.72729 4.7274 4.72729ZM10.2992 10.1881C10.5454 10.2147 10.7766 10.3246 10.9534 10.5013C11.158 10.7059 11.2729 10.9834 11.2729 11.2727C11.2729 11.562 11.158 11.8395 10.9534 12.0441C10.7488 12.2487 10.4713 12.3636 10.182 12.3636C10.1639 12.3636 10.1459 12.3632 10.1279 12.3623C10.0962 12.3607 10.0647 12.3578 10.0334 12.3535C9.7989 12.3212 9.57975 12.2133 9.41046 12.0441C9.20588 11.8395 9.09096 11.562 9.09096 11.2727C9.09096 10.9834 9.20588 10.7059 9.41046 10.5013C9.61507 10.2967 9.89253 10.1818 10.1819 10.1818C10.2 10.1818 10.2181 10.1823 10.2361 10.1832C10.2572 10.1842 10.2783 10.1859 10.2992 10.1881Z" fill="#D49F34"/>
<path fill-rule="evenodd" clip-rule="evenodd" d="M5.8183 2C5.09497 2 4.40127 2.28734 3.88981 2.79879C3.37834 3.31024 3.091 4.00395 3.091 4.72726C3.091 5.45056 3.37834 6.14426 3.88981 6.65572C4.40127 7.16716 5.09497 7.4545 5.8183 7.4545C5.09497 7.4545 4.40127 7.74184 3.88981 8.2533C3.37834 8.76477 3.091 9.45845 3.091 10.1818C3.091 10.9051 3.37834 11.5988 3.88981 12.1102C4.40127 12.6217 5.09497 12.909 5.8183 12.909C6.54162 12.909 7.23532 12.6217 7.74678 12.1102C8.25826 11.5988 8.54558 10.9051 8.54558 10.1818C8.54558 10.9051 8.83277 11.5989 9.34423 12.1103C9.85571 12.6218 10.5494 12.9091 11.2727 12.9091C11.9961 12.9091 12.6897 12.6218 13.2012 12.1103C13.7127 11.5989 14 10.9052 14 10.1819C14 9.45855 13.7127 8.76486 13.2012 8.2534C12.6897 7.74196 11.9961 7.45462 11.2727 7.45462C11.9961 7.45462 12.6897 7.16728 13.2012 6.65582C13.7127 6.14436 14 5.45067 14 4.72736C14 4.00404 13.7127 3.31036 13.2012 2.7989C12.6897 2.28744 11.9961 2.00011 11.2727 2.00011C10.5815 2.00013 9.91606 2.26261 9.41097 2.73448C8.90743 3.20487 8.60069 3.84841 8.55226 4.53563C8.55201 4.53921 8.54901 4.54202 8.54541 4.54202C8.54001 4.54202 8.53555 4.53783 8.53516 4.53244C8.48603 3.84705 8.17993 3.20528 7.6779 2.73572C7.17353 2.26396 6.50891 2.00089 5.8183 2ZM8.54558 10.1818C8.54457 10.1228 8.54165 10.0638 8.5368 10.0049C8.53639 9.99997 8.54063 9.99586 8.54558 9.99641C8.54905 9.99641 8.55178 9.99935 8.55154 10.0028C8.54757 10.0624 8.54566 10.122 8.54558 10.1818ZM11.2675 3.6225C11.4502 3.62067 11.6304 3.66477 11.7916 3.7507C11.9529 3.83665 12.0899 3.96171 12.1902 4.11442C12.2906 4.26711 12.3509 4.44255 12.3658 4.62464C12.3807 4.80672 12.3496 4.98963 12.2754 5.15657C12.2319 5.25808 12.1891 5.35981 12.1464 5.46155C11.8753 6.10715 11.6041 6.7531 11.1277 7.34492C10.608 7.99071 9.73781 8.48648 8.72867 8.54055C8.66806 8.5438 8.60695 8.54546 8.54538 8.54546C8.44369 8.54546 8.35803 8.54617 8.28519 8.54816C8.24669 8.54921 8.21178 8.55062 8.17998 8.55247C7.90403 8.56853 7.86257 8.61773 7.74734 8.7545L7.72413 8.78197C7.5481 8.98914 7.25677 9.61437 6.81752 10.6186C6.76278 10.7537 6.68153 10.8765 6.57855 10.9797C6.47556 11.0829 6.35295 11.1644 6.21793 11.2193C6.12933 11.2554 6.03658 11.2796 5.94208 11.2915C5.90158 11.2966 5.86076 11.2994 5.81981 11.2999C5.81067 11.3 5.80152 11.3 5.79237 11.2999C5.64659 11.298 5.50269 11.267 5.36911 11.2086C5.23553 11.1502 5.11503 11.0656 5.01468 10.9599C4.91434 10.8541 4.83624 10.7293 4.78493 10.5929C4.73364 10.4564 4.7102 10.3111 4.71603 10.1654C4.72185 10.0198 4.7568 9.87673 4.81883 9.74478C4.89379 9.57343 4.96341 9.40938 5.0303 9.25177C5.34409 8.51239 5.59773 7.91475 6.06083 7.36938C6.55401 6.78914 7.3358 6.45306 8.18474 6.37914C8.2585 6.37272 8.33278 6.36827 8.40742 6.36582C8.45333 6.36431 8.49937 6.36355 8.54552 6.36355C8.62067 6.36355 8.68728 6.36191 8.7469 6.35831C9.12341 6.33557 9.22095 6.23479 9.42853 5.97685C9.66906 5.678 9.93824 5.07231 10.2702 4.2979C10.3518 4.09986 10.4898 3.9302 10.6671 3.8101C10.8199 3.70661 10.996 3.64392 11.1789 3.62706C11.195 3.62557 11.2112 3.62444 11.2275 3.62367C11.2408 3.62303 11.2542 3.62264 11.2675 3.6225ZM5.8184 3.63635C6.10773 3.63635 6.38521 3.75128 6.58979 3.95589C6.79438 4.16045 6.90931 4.43794 6.90931 4.72726C6.90931 5.01659 6.79438 5.29405 6.58979 5.49863C6.44354 5.64489 6.26002 5.74533 6.06156 5.79071C5.98239 5.80882 5.90084 5.81817 5.81832 5.81817C5.52897 5.81817 5.25151 5.70324 5.04691 5.49865C4.84232 5.29407 4.72741 5.01661 4.72741 4.72728C4.72741 4.43795 4.84232 4.16047 5.04691 3.95591C5.19638 3.80644 5.38473 3.70482 5.58819 3.66091C5.66327 3.6447 5.7404 3.63635 5.8184 3.63635ZM11.3902 9.09719C11.6364 9.12379 11.8676 9.23361 12.0444 9.41037C12.249 9.61496 12.3639 9.89244 12.3639 10.1818C12.3639 10.4711 12.249 10.7486 12.0444 10.9531C11.8398 11.1577 11.5623 11.2727 11.273 11.2727C11.2549 11.2727 11.2369 11.2722 11.2189 11.2713C11.1872 11.2698 11.1557 11.2668 11.1244 11.2625C10.8899 11.2303 10.6707 11.1224 10.5015 10.9531C10.2969 10.7485 10.182 10.4711 10.182 10.1818C10.182 9.89243 10.2969 9.61495 10.5015 9.41036C10.7061 9.20578 10.9835 9.09086 11.2729 9.09086C11.291 9.09086 11.3091 9.09132 11.3271 9.09221C11.3482 9.09326 11.3693 9.09492 11.3902 9.09719Z" fill="url(#paint1_linear_43_1819)"/>
</g>
<defs>
<linearGradient id="paint0_linear_43_1819" x1="3" y1="14.9988" x2="12.9991" y2="2.999" gradientUnits="userSpaceOnUse">
<stop stop-color="#FF8860"/>
<stop offset="1" stop-color="#FBD92C"/>
</linearGradient>
<linearGradient id="paint1_linear_43_1819" x1="5.81826" y1="10.1818" x2="11.2728" y2="4.72733" gradientUnits="userSpaceOnUse">
<stop stop-color="#FBD92C"/>
<stop offset="1" stop-color="white"/>
</linearGradient>
<clipPath id="clip0_43_1819">
<rect width="16" height="16" fill="white"/>
</clipPath>
</defs>
</svg>
