<svg width="16" height="16" viewBox="0 0 16 16" fill="none" xmlns="http://www.w3.org/2000/svg">
<path fill-rule="evenodd" clip-rule="evenodd" d="M3 8C3 6 1.336 5.837 1.276 5.807C0.780999 5.563 0.576999 4.963 0.820999 4.468C2.126 1.822 4.852 0 8 0C12.415 0 16 3.585 16 8C16 12.415 12.415 16 8 16C4.852 16 2.126 14.178 0.820999 11.532C0.576999 11.037 0.780999 10.437 1.276 10.193C1.336 10.163 3 10 3 8ZM1 9C0.448 9 0 8.552 0 8C0 7.448 0.448 7 1 7C1.552 7 2 7.448 2 8C2 8.552 1.552 9 1 9Z" fill="url(#paint0_linear_74_5601)"/>
<path d="M11.9962 7.63394C12.0189 7.72659 12.0039 7.82448 11.9544 7.90607C11.905 7.98766 11.8252 8.04629 11.7326 8.06906L11.1127 8.2214L11.2747 8.82595C11.2994 8.91813 11.2865 9.01636 11.2388 9.09903C11.1911 9.1817 11.1125 9.24204 11.0204 9.26677C10.9282 9.29151 10.83 9.27861 10.7473 9.23092C10.6646 9.18323 10.6043 9.10466 10.5795 9.01248L10.3609 8.19681L9.36774 7.62315V8.76928L9.98189 9.38343C10.0154 9.4169 10.0419 9.45664 10.06 9.50037C10.0781 9.54411 10.0875 9.59098 10.0875 9.63832C10.0875 9.68566 10.0781 9.73254 10.06 9.77627C10.0419 9.82001 10.0154 9.85975 9.98189 9.89322C9.94842 9.92669 9.90868 9.95325 9.86494 9.97136C9.82121 9.98948 9.77433 9.9988 9.72699 9.9988C9.67966 9.9988 9.63278 9.98948 9.58905 9.97136C9.54531 9.95325 9.50557 9.92669 9.4721 9.89322L9.00789 9.42901L8.54278 9.89442C8.5093 9.92789 8.46957 9.95444 8.42583 9.97256C8.3821 9.99068 8.33522 10 8.28788 10C8.24054 10 8.19367 9.99068 8.14993 9.97256C8.1062 9.95444 8.06646 9.92789 8.03299 9.89442C7.99951 9.86095 7.97296 9.82121 7.95484 9.77747C7.93673 9.73374 7.9274 9.68686 7.9274 9.63952C7.9274 9.59218 7.93673 9.54531 7.95484 9.50157C7.97296 9.45784 7.99951 9.4181 8.03299 9.38463L8.64804 8.76928V7.62315L7.65484 8.19681L7.43623 9.01248C7.4115 9.10466 7.35116 9.18323 7.26849 9.23092C7.18582 9.27861 7.08759 9.29151 6.99541 9.26677C6.90323 9.24204 6.82465 9.1817 6.77696 9.09903C6.72927 9.01636 6.71638 8.91813 6.74111 8.82595L6.90305 8.2214L6.2832 8.06906C6.23626 8.05883 6.19184 8.0393 6.15256 8.01162C6.11329 7.98394 6.07996 7.94868 6.05453 7.90792C6.0291 7.86715 6.01209 7.82171 6.00451 7.77426C5.99693 7.72682 5.99892 7.67834 6.01038 7.63167C6.02183 7.58501 6.04251 7.54112 6.07121 7.50258C6.0999 7.46404 6.13602 7.43164 6.17743 7.40728C6.21885 7.38293 6.26472 7.36711 6.31234 7.36077C6.35997 7.35442 6.40838 7.35768 6.45473 7.37035L7.29109 7.57576L8.28818 7L7.29109 6.42424L6.45473 6.62965C6.42668 6.63664 6.39788 6.64016 6.36897 6.64015C6.28112 6.63995 6.19638 6.60763 6.13072 6.54927C6.06506 6.49092 6.02301 6.41056 6.01251 6.32335C6.002 6.23613 6.02375 6.14809 6.07367 6.07581C6.12358 6.00352 6.19822 5.952 6.2835 5.93094L6.90335 5.7786L6.74141 5.17405C6.71668 5.08187 6.72957 4.98364 6.77726 4.90097C6.82495 4.8183 6.90353 4.75796 6.99571 4.73323C7.08789 4.70849 7.18612 4.72139 7.26879 4.76908C7.35146 4.81677 7.4118 4.89534 7.43653 4.98752L7.65514 5.80319L8.64804 6.37655V5.23072L8.03389 4.61537C8.00041 4.5819 7.97386 4.54216 7.95574 4.49843C7.93763 4.45469 7.9283 4.40782 7.9283 4.36048C7.9283 4.26487 7.96628 4.17318 8.03389 4.10558C8.10149 4.03798 8.19318 4 8.28878 4C8.33612 4 8.383 4.00932 8.42673 4.02744C8.47047 4.04556 8.5102 4.07211 8.54368 4.10558L9.00789 4.57099L9.473 4.10558C9.50647 4.07211 9.54621 4.04556 9.58995 4.02744C9.63368 4.00932 9.68056 4 9.72789 4C9.77523 4 9.82211 4.00932 9.86584 4.02744C9.90958 4.04556 9.94932 4.07211 9.98279 4.10558C10.0163 4.13905 10.0428 4.17879 10.0609 4.22253C10.079 4.26626 10.0884 4.31314 10.0884 4.36048C10.0884 4.40782 10.079 4.45469 10.0609 4.49843C10.0428 4.54216 10.0163 4.5819 9.98279 4.61537L9.36774 5.23072V6.37745L10.3609 5.80409L10.5795 4.98842C10.6043 4.89624 10.6646 4.81767 10.7473 4.76998C10.83 4.72229 10.9282 4.70939 11.0204 4.73412C11.1125 4.75886 11.1911 4.8192 11.2388 4.90187C11.2865 4.98454 11.2994 5.08277 11.2747 5.17494L11.1127 5.7795L11.7326 5.93184C11.8171 5.9536 11.8908 6.00533 11.94 6.07739C11.9892 6.14946 12.0106 6.23694 12.0001 6.32357C11.9896 6.4102 11.948 6.49007 11.883 6.5483C11.818 6.60654 11.7341 6.63918 11.6468 6.64015C11.6178 6.64019 11.5889 6.63666 11.5607 6.62965L10.7244 6.42424L9.72759 7L10.7247 7.57576L11.561 7.37035C11.6537 7.34764 11.7516 7.36264 11.8332 7.41207C11.9148 7.4615 11.9734 7.5413 11.9962 7.63394Z" fill="#8C4FD9"/>
<path d="M6.99745 12.4226C7.01259 12.4844 7.00258 12.5497 6.96963 12.604C6.93668 12.6584 6.88348 12.6975 6.82172 12.7127L6.40849 12.8143L6.51644 13.2173C6.53293 13.2788 6.52433 13.3442 6.49254 13.3994C6.46075 13.4545 6.40836 13.4947 6.34691 13.5112C6.28546 13.5277 6.21997 13.5191 6.16486 13.4873C6.10975 13.4555 6.06952 13.4031 6.05303 13.3417L5.90729 12.7979L5.24516 12.4154V13.1795L5.65459 13.589C5.67691 13.6113 5.69461 13.6378 5.70669 13.6669C5.71877 13.6961 5.72498 13.7273 5.72498 13.7589C5.72498 13.7904 5.71877 13.8217 5.70669 13.8508C5.69461 13.88 5.67691 13.9065 5.65459 13.9288C5.63228 13.9511 5.60579 13.9688 5.57663 13.9809C5.54747 13.993 5.51622 13.9992 5.48466 13.9992C5.4531 13.9992 5.42185 13.993 5.3927 13.9809C5.36354 13.9688 5.33705 13.9511 5.31473 13.9288L5.00526 13.6193L4.69519 13.9296C4.67287 13.9519 4.64638 13.9696 4.61722 13.9817C4.58806 13.9938 4.55681 14 4.52525 14C4.4937 14 4.46245 13.9938 4.43329 13.9817C4.40413 13.9696 4.37764 13.9519 4.35532 13.9296C4.33301 13.9073 4.31531 13.8808 4.30323 13.8516C4.29115 13.8225 4.28494 13.7912 4.28494 13.7597C4.28494 13.7281 4.29115 13.6969 4.30323 13.6677C4.31531 13.6386 4.33301 13.6121 4.35532 13.5898L4.76536 13.1795V12.4154L4.10323 12.7979L3.95749 13.3417C3.941 13.4031 3.90077 13.4555 3.84566 13.4873C3.79054 13.5191 3.72506 13.5277 3.66361 13.5112C3.60215 13.4947 3.54977 13.4545 3.51798 13.3994C3.48618 13.3442 3.47759 13.2788 3.49408 13.2173L3.60203 12.8143L3.1888 12.7127C3.1575 12.7059 3.12789 12.6929 3.10171 12.6744C3.07553 12.656 3.0533 12.6325 3.03635 12.6053C3.0194 12.5781 3.00806 12.5478 3.00301 12.5162C2.99795 12.4845 2.99928 12.4522 3.00692 12.4211C3.01455 12.39 3.02834 12.3607 3.04747 12.3351C3.0666 12.3094 3.09068 12.2878 3.11829 12.2715C3.1459 12.2553 3.17648 12.2447 3.20823 12.2405C3.23998 12.2363 3.27226 12.2385 3.30315 12.2469L3.86073 12.3838L4.52545 12L3.86073 11.6162L3.30315 11.7531C3.28445 11.7578 3.26525 11.7601 3.24598 11.7601C3.18741 11.76 3.13092 11.7384 3.08715 11.6995C3.04338 11.6606 3.01534 11.607 3.00834 11.5489C3.00133 11.4908 3.01583 11.4321 3.04911 11.3839C3.08239 11.3357 3.13215 11.3013 3.189 11.2873L3.60223 11.1857L3.49428 10.7827C3.47779 10.7212 3.48638 10.6558 3.51818 10.6006C3.54997 10.5455 3.60235 10.5053 3.66381 10.4888C3.72526 10.4723 3.79074 10.4809 3.84586 10.5127C3.90097 10.5445 3.9412 10.5969 3.95769 10.6583L4.10343 11.2021L4.76536 11.5844V10.8205L4.35592 10.4102C4.33361 10.3879 4.31591 10.3614 4.30383 10.3323C4.29175 10.3031 4.28554 10.2719 4.28554 10.2403C4.28554 10.1766 4.31086 10.1155 4.35592 10.0704C4.40099 10.0253 4.46212 10 4.52585 10C4.55741 10 4.58866 10.0062 4.61782 10.0183C4.64698 10.0304 4.67347 10.0481 4.69579 10.0704L5.00526 10.3807L5.31533 10.0704C5.33765 10.0481 5.36414 10.0304 5.3933 10.0183C5.42245 10.0062 5.4537 10 5.48526 10C5.51682 10 5.54807 10.0062 5.57723 10.0183C5.60639 10.0304 5.63288 10.0481 5.65519 10.0704C5.67751 10.0927 5.69521 10.1192 5.70729 10.1484C5.71937 10.1775 5.72558 10.2088 5.72558 10.2403C5.72558 10.2719 5.71937 10.3031 5.70729 10.3323C5.69521 10.3614 5.67751 10.3879 5.65519 10.4102L5.24516 10.8205V11.585L5.90729 11.2027L6.05303 10.6589C6.06952 10.5975 6.10975 10.5451 6.16486 10.5133C6.21997 10.4815 6.28546 10.4729 6.34691 10.4894C6.40836 10.5059 6.46075 10.5461 6.49254 10.6012C6.52433 10.6564 6.53293 10.7218 6.51644 10.7833L6.40849 11.1863L6.82172 11.2879C6.87805 11.3024 6.9272 11.3369 6.96 11.3849C6.99281 11.433 7.00704 11.4913 7.00004 11.549C6.99305 11.6068 6.96531 11.66 6.92199 11.6989C6.87867 11.7377 6.82271 11.7595 6.76454 11.7601C6.7452 11.7601 6.72593 11.7578 6.70716 11.7531L6.14959 11.6162L5.48506 12L6.14979 12.3838L6.70736 12.2469C6.76913 12.2318 6.83439 12.2418 6.88878 12.2747C6.94318 12.3077 6.98226 12.3609 6.99745 12.4226Z" fill="#8C4FD9"/>
<path d="M12.9962 6.63394C13.0189 6.72659 13.0039 6.82448 12.9544 6.90607C12.905 6.98766 12.8252 7.04629 12.7326 7.06906L12.1127 7.2214L12.2747 7.82595C12.2994 7.91813 12.2865 8.01636 12.2388 8.09903C12.1911 8.1817 12.1125 8.24204 12.0204 8.26677C11.9282 8.29151 11.83 8.27861 11.7473 8.23092C11.6646 8.18323 11.6043 8.10466 11.5795 8.01248L11.3609 7.19681L10.3677 6.62315V7.76928L10.9819 8.38343C11.0154 8.4169 11.0419 8.45664 11.06 8.50037C11.0781 8.54411 11.0875 8.59098 11.0875 8.63832C11.0875 8.68566 11.0781 8.73254 11.06 8.77627C11.0419 8.82001 11.0154 8.85975 10.9819 8.89322C10.9484 8.92669 10.9087 8.95325 10.8649 8.97136C10.8212 8.98948 10.7743 8.9988 10.727 8.9988C10.6797 8.9988 10.6328 8.98948 10.589 8.97136C10.5453 8.95325 10.5056 8.92669 10.4721 8.89322L10.0079 8.42901L9.54278 8.89442C9.5093 8.92789 9.46957 8.95444 9.42583 8.97256C9.3821 8.99068 9.33522 9 9.28788 9C9.24054 9 9.19367 8.99068 9.14993 8.97256C9.1062 8.95444 9.06646 8.92789 9.03299 8.89442C8.99951 8.86095 8.97296 8.82121 8.95484 8.77747C8.93673 8.73374 8.9274 8.68686 8.9274 8.63952C8.9274 8.59218 8.93673 8.54531 8.95484 8.50157C8.97296 8.45784 8.99951 8.4181 9.03299 8.38463L9.64804 7.76928V6.62315L8.65484 7.19681L8.43623 8.01248C8.4115 8.10466 8.35116 8.18323 8.26849 8.23092C8.18582 8.27861 8.08759 8.29151 7.99541 8.26677C7.90323 8.24204 7.82465 8.1817 7.77696 8.09903C7.72927 8.01636 7.71638 7.91813 7.74111 7.82595L7.90305 7.2214L7.2832 7.06906C7.23626 7.05883 7.19184 7.0393 7.15256 7.01162C7.11329 6.98394 7.07996 6.94868 7.05453 6.90792C7.0291 6.86715 7.01209 6.82171 7.00451 6.77426C6.99693 6.72682 6.99892 6.67834 7.01038 6.63167C7.02183 6.58501 7.04251 6.54112 7.07121 6.50258C7.0999 6.46404 7.13602 6.43164 7.17743 6.40728C7.21885 6.38293 7.26472 6.36711 7.31234 6.36077C7.35997 6.35442 7.40838 6.35768 7.45473 6.37035L8.29109 6.57576L9.28818 6L8.29109 5.42424L7.45473 5.62965C7.42668 5.63664 7.39788 5.64016 7.36897 5.64015C7.28112 5.63995 7.19638 5.60763 7.13072 5.54927C7.06506 5.49092 7.02301 5.41056 7.01251 5.32335C7.002 5.23613 7.02375 5.14809 7.07367 5.07581C7.12358 5.00352 7.19822 4.952 7.2835 4.93094L7.90335 4.7786L7.74141 4.17405C7.71668 4.08187 7.72957 3.98364 7.77726 3.90097C7.82495 3.8183 7.90353 3.75796 7.99571 3.73323C8.08789 3.70849 8.18612 3.72139 8.26879 3.76908C8.35146 3.81677 8.4118 3.89534 8.43653 3.98752L8.65514 4.80319L9.64804 5.37655V4.23072L9.03389 3.61537C9.00041 3.5819 8.97386 3.54216 8.95574 3.49843C8.93763 3.45469 8.9283 3.40782 8.9283 3.36048C8.9283 3.26487 8.96628 3.17318 9.03389 3.10558C9.10149 3.03798 9.19318 3 9.28878 3C9.33612 3 9.383 3.00932 9.42673 3.02744C9.47047 3.04556 9.5102 3.07211 9.54368 3.10558L10.0079 3.57099L10.473 3.10558C10.5065 3.07211 10.5462 3.04556 10.5899 3.02744C10.6337 3.00932 10.6806 3 10.7279 3C10.7752 3 10.8221 3.00932 10.8658 3.02744C10.9096 3.04556 10.9493 3.07211 10.9828 3.10558C11.0163 3.13905 11.0428 3.17879 11.0609 3.22253C11.079 3.26626 11.0884 3.31314 11.0884 3.36048C11.0884 3.40782 11.079 3.45469 11.0609 3.49843C11.0428 3.54216 11.0163 3.5819 10.9828 3.61537L10.3677 4.23072V5.37745L11.3609 4.80409L11.5795 3.98842C11.6043 3.89624 11.6646 3.81767 11.7473 3.76998C11.83 3.72229 11.9282 3.70939 12.0204 3.73412C12.1125 3.75886 12.1911 3.8192 12.2388 3.90187C12.2865 3.98454 12.2994 4.08277 12.2747 4.17494L12.1127 4.7795L12.7326 4.93184C12.8171 4.9536 12.8908 5.00533 12.94 5.07739C12.9892 5.14946 13.0106 5.23694 13.0001 5.32357C12.9896 5.4102 12.948 5.49007 12.883 5.5483C12.818 5.60654 12.7341 5.63918 12.6468 5.64015C12.6178 5.64019 12.5889 5.63666 12.5607 5.62965L11.7244 5.42424L10.7276 6L11.7247 6.57576L12.561 6.37035C12.6537 6.34764 12.7516 6.36264 12.8332 6.41207C12.9148 6.4615 12.9734 6.5413 12.9962 6.63394Z" fill="url(#paint1_linear_74_5601)"/>
<path d="M7.99745 11.4226C8.01259 11.4844 8.00258 11.5497 7.96963 11.604C7.93668 11.6584 7.88348 11.6975 7.82172 11.7127L7.40849 11.8143L7.51644 12.2173C7.53293 12.2788 7.52433 12.3442 7.49254 12.3994C7.46075 12.4545 7.40836 12.4947 7.34691 12.5112C7.28546 12.5277 7.21997 12.5191 7.16486 12.4873C7.10975 12.4555 7.06952 12.4031 7.05303 12.3417L6.90729 11.7979L6.24516 11.4154V12.1795L6.65459 12.589C6.67691 12.6113 6.69461 12.6378 6.70669 12.6669C6.71877 12.6961 6.72498 12.7273 6.72498 12.7589C6.72498 12.7904 6.71877 12.8217 6.70669 12.8508C6.69461 12.88 6.67691 12.9065 6.65459 12.9288C6.63228 12.9511 6.60579 12.9688 6.57663 12.9809C6.54747 12.993 6.51622 12.9992 6.48466 12.9992C6.4531 12.9992 6.42185 12.993 6.3927 12.9809C6.36354 12.9688 6.33705 12.9511 6.31473 12.9288L6.00526 12.6193L5.69519 12.9296C5.67287 12.9519 5.64638 12.9696 5.61722 12.9817C5.58806 12.9938 5.55681 13 5.52525 13C5.4937 13 5.46245 12.9938 5.43329 12.9817C5.40413 12.9696 5.37764 12.9519 5.35532 12.9296C5.33301 12.9073 5.31531 12.8808 5.30323 12.8516C5.29115 12.8225 5.28494 12.7912 5.28494 12.7597C5.28494 12.7281 5.29115 12.6969 5.30323 12.6677C5.31531 12.6386 5.33301 12.6121 5.35532 12.5898L5.76536 12.1795V11.4154L5.10323 11.7979L4.95749 12.3417C4.941 12.4031 4.90077 12.4555 4.84566 12.4873C4.79054 12.5191 4.72506 12.5277 4.66361 12.5112C4.60215 12.4947 4.54977 12.4545 4.51798 12.3994C4.48618 12.3442 4.47759 12.2788 4.49408 12.2173L4.60203 11.8143L4.1888 11.7127C4.1575 11.7059 4.12789 11.6929 4.10171 11.6744C4.07553 11.656 4.0533 11.6325 4.03635 11.6053C4.0194 11.5781 4.00806 11.5478 4.00301 11.5162C3.99795 11.4845 3.99928 11.4522 4.00692 11.4211C4.01455 11.39 4.02834 11.3607 4.04747 11.3351C4.0666 11.3094 4.09068 11.2878 4.11829 11.2715C4.1459 11.2553 4.17648 11.2447 4.20823 11.2405C4.23998 11.2363 4.27226 11.2385 4.30315 11.2469L4.86073 11.3838L5.52545 11L4.86073 10.6162L4.30315 10.7531C4.28445 10.7578 4.26525 10.7601 4.24598 10.7601C4.18741 10.76 4.13092 10.7384 4.08715 10.6995C4.04338 10.6606 4.01534 10.607 4.00834 10.5489C4.00133 10.4908 4.01583 10.4321 4.04911 10.3839C4.08239 10.3357 4.13215 10.3013 4.189 10.2873L4.60223 10.1857L4.49428 9.7827C4.47779 9.72124 4.48638 9.65576 4.51818 9.60065C4.54997 9.54553 4.60235 9.50531 4.66381 9.48882C4.72526 9.47233 4.79074 9.48092 4.84586 9.51272C4.90097 9.54451 4.9412 9.5969 4.95769 9.65835L5.10343 10.2021L5.76536 10.5844V9.82048L5.35592 9.41025C5.33361 9.38793 5.31591 9.36144 5.30383 9.33228C5.29175 9.30313 5.28554 9.27188 5.28554 9.24032C5.28554 9.17658 5.31086 9.11546 5.35592 9.07039C5.40099 9.02532 5.46212 9 5.52585 9C5.55741 9 5.58866 9.00622 5.61782 9.01829C5.64698 9.03037 5.67347 9.04807 5.69579 9.07039L6.00526 9.38066L6.31533 9.07039C6.33765 9.04807 6.36414 9.03037 6.3933 9.01829C6.42245 9.00622 6.4537 9 6.48526 9C6.51682 9 6.54807 9.00622 6.57723 9.01829C6.60639 9.03037 6.63288 9.04807 6.65519 9.07039C6.67751 9.0927 6.69521 9.1192 6.70729 9.14835C6.71937 9.17751 6.72558 9.20876 6.72558 9.24032C6.72558 9.27188 6.71937 9.30313 6.70729 9.33228C6.69521 9.36144 6.67751 9.38793 6.65519 9.41025L6.24516 9.82048V10.585L6.90729 10.2027L7.05303 9.65895C7.06952 9.5975 7.10975 9.54511 7.16486 9.51332C7.21997 9.48152 7.28546 9.47293 7.34691 9.48942C7.40836 9.50591 7.46075 9.54613 7.49254 9.60125C7.52433 9.65636 7.53293 9.72184 7.51644 9.7833L7.40849 10.1863L7.82172 10.2879C7.87805 10.3024 7.9272 10.3369 7.96 10.3849C7.99281 10.433 8.00704 10.4913 8.00004 10.549C7.99305 10.6068 7.96531 10.66 7.92199 10.6989C7.87867 10.7377 7.82271 10.7595 7.76454 10.7601C7.7452 10.7601 7.72593 10.7578 7.70716 10.7531L7.14959 10.6162L6.48506 11L7.14979 11.3838L7.70736 11.2469C7.76913 11.2318 7.83439 11.2418 7.88878 11.2747C7.94318 11.3077 7.98226 11.3609 7.99745 11.4226Z" fill="url(#paint2_linear_74_5601)"/>
<defs>
<linearGradient id="paint0_linear_74_5601" x1="4" y1="14.8571" x2="14.5882" y2="2.5042" gradientUnits="userSpaceOnUse">
<stop stop-color="#A056FF"/>
<stop offset="1" stop-color="#C59AFD"/>
</linearGradient>
<linearGradient id="paint1_linear_74_5601" x1="8.50163" y1="9" x2="14.3567" y2="7.04619" gradientUnits="userSpaceOnUse">
<stop stop-color="#C59AFD"/>
<stop offset="1" stop-color="white"/>
</linearGradient>
<linearGradient id="paint2_linear_74_5601" x1="5.00109" y1="13" x2="8.90447" y2="11.6975" gradientUnits="userSpaceOnUse">
<stop stop-color="#C59AFD"/>
<stop offset="1" stop-color="white"/>
</linearGradient>
</defs>
</svg>
