<svg width="16" height="16" viewBox="0 0 16 16" fill="none" xmlns="http://www.w3.org/2000/svg">
<path fill-rule="evenodd" clip-rule="evenodd" d="M7.99821 14.9633C7.14819 14.9554 6.35927 14.4702 5.97877 13.7083L5.73354 13.2178H4.45329C2.54556 13.2178 1 11.6714 1 9.76369C1 7.68753 1.03665 6.53032 1.03665 4.45416C1.03665 2.54643 2.58308 1 4.49081 1H11.5091C11.9908 1 12.3818 1.39097 12.3818 1.8727C12.3818 2.83617 13.1637 3.61811 14.1272 3.61811H14.1403C14.622 3.62596 15.0069 4.02217 14.9999 4.5039C14.9999 4.5039 14.9633 6.92827 14.9633 9.76369C14.9633 11.6714 13.4168 13.2178 11.5091 13.2178H10.303L10.0578 13.7083C9.67293 14.4772 8.87789 14.9633 8.01828 14.9633H7.99821ZM14.9999 1.8727C14.9999 2.35444 14.6089 2.74541 14.1272 2.74541C13.6455 2.74541 13.2545 2.35444 13.2545 1.8727C13.2545 1.39097 13.6455 1 14.1272 1C14.6089 1 14.9999 1.39097 14.9999 1.8727Z" fill="url(#paint0_linear_8_311)"/>
<path fill-rule="evenodd" clip-rule="evenodd" d="M4.52749 10.5997H7.1456C7.62733 10.5997 8.0183 10.2088 8.0183 9.72704C8.0183 9.24531 7.62733 8.85434 7.1456 8.85434H4.52749C4.04576 8.85434 3.65479 9.24531 3.65479 9.72704C3.65479 10.2088 4.04576 10.5997 4.52749 10.5997ZM4.52749 7.10893H9.76371C10.2454 7.10893 10.6364 6.71796 10.6364 6.23623C10.6364 5.7545 10.2454 5.36353 9.76371 5.36353H4.52749C4.04576 5.36353 3.65479 5.7545 3.65479 6.23623C3.65479 6.71796 4.04576 7.10893 4.52749 7.10893Z" fill="#D49F34"/>
<path fill-rule="evenodd" clip-rule="evenodd" d="M5.40017 6.23613H10.6364C11.1181 6.23613 11.5091 5.84516 11.5091 5.36343C11.5091 4.88169 11.1181 4.49072 10.6364 4.49072H5.40017C4.91844 4.49072 4.52747 4.88169 4.52747 5.36343C4.52747 5.84516 4.91844 6.23613 5.40017 6.23613Z" fill="url(#paint1_linear_8_311)"/>
<path fill-rule="evenodd" clip-rule="evenodd" d="M5.40017 9.7271H8.01828C8.50001 9.7271 8.89098 9.33612 8.89098 8.85439C8.89098 8.37266 8.50001 7.98169 8.01828 7.98169H5.40017C4.91844 7.98169 4.52747 8.37266 4.52747 8.85439C4.52747 9.33612 4.91844 9.7271 5.40017 9.7271Z" fill="url(#paint2_linear_8_311)"/>
<defs>
<linearGradient id="paint0_linear_8_311" x1="3.625" y1="14.0895" x2="12.3471" y2="3.59469" gradientUnits="userSpaceOnUse">
<stop stop-color="#FF8860"/>
<stop offset="1" stop-color="#FBD92C"/>
</linearGradient>
<linearGradient id="paint1_linear_8_311" x1="6.27287" y1="5.79978" x2="6.68356" y2="4.15704" gradientUnits="userSpaceOnUse">
<stop stop-color="#FBD92C"/>
<stop offset="1" stop-color="white"/>
</linearGradient>
<linearGradient id="paint2_linear_8_311" x1="5.61834" y1="9.29074" x2="6.22021" y2="7.78608" gradientUnits="userSpaceOnUse">
<stop stop-color="#FBD92C"/>
<stop offset="1" stop-color="white"/>
</linearGradient>
</defs>
</svg>
