<svg width="16" height="16" viewBox="0 0 16 16" fill="none" xmlns="http://www.w3.org/2000/svg">
<g clip-path="url(#clip0_80_5805)">
<path fill-rule="evenodd" clip-rule="evenodd" d="M7.99847 12.9982C5.99849 12.9982 5.8355 14.6622 5.80549 14.7222C5.56144 15.2172 4.96145 15.4212 4.46648 15.1772C1.82047 13.8722 -0.00153035 11.1462 -0.00152748 7.9982C-0.00152681 3.5832 3.58346 -0.00178152 7.99847 -0.00179636C12.4135 -0.0018176 15.9985 3.58316 15.9985 7.99819C15.9985 11.1462 14.1765 13.8722 11.5305 15.1772C11.0355 15.4212 10.4355 15.2172 10.1914 14.7222C10.1615 14.6622 9.99846 12.9982 7.99847 12.9982ZM8.99846 14.9982C8.99844 15.5502 8.55044 15.9982 7.99846 15.9982C7.44648 15.9982 6.99845 15.5502 6.99847 14.9982C6.99848 14.4462 7.44648 13.9982 7.99847 13.9982C8.55045 13.9982 8.99847 14.4462 8.99846 14.9982Z" fill="url(#paint0_linear_80_5805)"/>
<path fill-rule="evenodd" clip-rule="evenodd" d="M13.1484 14.1187C12.9334 14.2998 12.7087 14.4698 12.4753 14.6278C12.8267 12.9932 9.18647 9.0618 7.00001 7.41065C5.33236 8.67141 2.8145 11.2616 1.87429 13.1437C1.51333 12.7146 1.1966 12.2471 0.931152 11.7482C1.69814 9.59164 3.66461 6.79366 4.82735 5.418C2.94735 3.54267 2.01669 3.25467 1.62334 3.25467C1.60087 3.25387 1.57843 3.25464 1.55617 3.25696C1.65429 3.12392 1.75643 2.99402 1.86241 2.86745C2.07134 2.69223 2.28937 2.52748 2.51567 2.37403C2.61764 2.3155 2.96754 2.14441 3.50334 2.164C5.03666 2.21867 7.00001 3.36733 7.00001 3.36733V3.36333C7.00001 3.36333 8.96399 2.21867 10.4973 2.164C11.0295 2.1446 11.3761 2.31143 11.4814 2.37209C13.257 3.57494 14.5236 5.47253 14.8907 7.67445C14.7899 7.07274 14.6196 6.48321 14.3831 5.91764C13.9744 4.94053 13.3751 4.05471 12.62 3.312C12.62 3.312 12.602 3.29733 12.5653 3.284C12.5051 3.26321 12.4417 3.25306 12.378 3.254C11.9834 3.254 11.0547 3.54333 9.17468 5.418C10.8403 7.39072 14.1597 12.287 13.2271 14.0227C13.2011 14.0549 13.1749 14.0869 13.1484 14.1187ZM13.2271 14.0227L13.2253 14.026C14.3761 12.605 15.0029 10.8312 15 9.00265V9C15 10.9023 14.336 12.6496 13.2271 14.0227ZM11.3877 2.30951C11.4191 2.33016 11.4504 2.35101 11.4814 2.37209C11.4955 2.38019 11.5053 2.38638 11.5107 2.39C11.4697 2.36274 11.4287 2.33591 11.3877 2.30951ZM11.3877 2.30951C10.6923 1.86216 9.98006 1.53666 9.25452 1.32207C10.0193 1.54629 10.7366 1.88166 11.3877 2.30951ZM2.67514 2.26866C2.62155 2.30316 2.56837 2.3383 2.51567 2.37403C2.50305 2.38127 2.49427 2.38677 2.48935 2.39C2.55111 2.34857 2.61304 2.30813 2.67514 2.26866ZM2.67514 2.26866C3.10385 1.99614 3.54032 1.77027 3.98299 1.58843C3.52425 1.77536 3.08675 2.00364 2.67514 2.26866ZM3.98299 1.58843C4.96065 1.18681 5.96851 1 6.98933 1H7.00001C5.93262 1 4.91402 1.20904 3.98299 1.58843Z" fill="#7FD1AE"/>
<path fill-rule="evenodd" clip-rule="evenodd" d="M14.2271 13.0227C15.336 11.6496 16 9.90234 16 8V8.00265C16.0028 9.83122 15.3761 11.605 14.2253 13.026L14.2271 13.0227ZM13.2758 14.0138C14.5018 12.7283 10.3856 8.2122 8 6.41065C5.61201 8.216 1.48067 12.7473 2.73466 14.022C4.19083 15.2997 6.06274 16.003 8 16C5.48417 16 3.23958 14.8387 1.77307 13.0229C0.8422 11.2847 4.16055 6.39 5.82734 4.418C3.94734 2.54267 3.01668 2.25467 2.62333 2.25467C2.55948 2.2524 2.49581 2.26283 2.436 2.28533V2.284C2.40698 2.29417 2.38974 2.29948 2.38234 2.30421C1.6277 3.04717 1.02503 3.94085 0.616614 4.91793C0.366214 5.51698 0.190267 6.14291 0.0921628 6.78167C0.435385 4.53537 1.71288 2.5965 3.51566 1.37403C3.61763 1.3155 3.96753 1.14441 4.50333 1.164C6.03665 1.21867 8 2.36733 8 2.36733V2.36333C8 2.36333 9.96398 1.21867 11.4973 1.164C12.0295 1.1446 12.3761 1.31143 12.4814 1.37209C14.257 2.57494 15.5236 4.47253 15.8907 6.67445C15.7898 6.07274 15.6196 5.48321 15.3831 4.91764C14.9744 3.94053 14.3751 3.05471 13.62 2.312C13.62 2.312 13.602 2.29733 13.5653 2.284C13.5051 2.26321 13.4417 2.25306 13.378 2.254C12.9834 2.254 12.0547 2.54333 10.1747 4.418C11.8403 6.39072 15.1597 11.287 14.2271 13.0227C13.9388 13.3797 13.6204 13.7114 13.2758 14.0138ZM11.0514 15.3974C11.8701 15.0594 12.6204 14.5894 13.2758 14.0138C13.2733 14.0166 13.2707 14.0193 13.268 14.022C12.6043 14.6038 11.8544 15.0663 11.0514 15.3974ZM12.3877 1.30951C12.4287 1.33591 12.4697 1.36274 12.5106 1.39C12.5053 1.38638 12.4955 1.38019 12.4814 1.37209C12.4504 1.35101 12.4191 1.33016 12.3877 1.30951ZM10.2545 0.322071C11.0193 0.546285 11.7366 0.881657 12.3877 1.30951C11.6923 0.862157 10.9801 0.536657 10.2545 0.322071ZM8 0H7.98932C6.9685 0 5.96064 0.186813 4.98298 0.588428C4.52424 0.775357 4.08674 1.00364 3.67513 1.26866C3.61303 1.30813 3.5511 1.34857 3.48934 1.39C3.49426 1.38677 3.50304 1.38127 3.51566 1.37403C3.56836 1.3383 3.62154 1.30316 3.67513 1.26866C4.10384 0.996142 4.54031 0.770271 4.98298 0.588428C5.91401 0.209043 6.93261 0 8 0ZM0 8V8.00265C0 8.13984 0.0035814 8.27619 0.0104171 8.41167C0.00349998 8.27532 0 8.13807 0 8ZM1.7063 12.9391C1.72838 12.9672 1.75061 12.9951 1.77307 13.0229L1.774 13.0246C1.75118 12.9963 1.72876 12.9677 1.7063 12.9391Z" fill="url(#paint1_linear_80_5805)"/>
</g>
<defs>
<linearGradient id="paint0_linear_80_5805" x1="7.99878" y1="16.4824" x2="16.141" y2="3.45513" gradientUnits="userSpaceOnUse">
<stop stop-color="#62E8AF"/>
<stop offset="1" stop-color="#B3FBDC"/>
</linearGradient>
<linearGradient id="paint1_linear_80_5805" x1="-2.38419e-07" y1="16" x2="4.70588" y2="-2.82353" gradientUnits="userSpaceOnUse">
<stop stop-color="#B3FBDC"/>
<stop offset="1" stop-color="white"/>
</linearGradient>
<clipPath id="clip0_80_5805">
<rect width="16" height="16" fill="white"/>
</clipPath>
</defs>
</svg>
