<svg width="16" height="16" viewBox="0 0 16 16" fill="none" xmlns="http://www.w3.org/2000/svg">
<g clip-path="url(#clip0_8_311)">
<path fill-rule="evenodd" clip-rule="evenodd" d="M7.99795 15.958C7.02651 15.949 6.12488 15.3945 5.69003 14.5238L5.40976 13.9633H3.94661C1.76635 13.9633 0 12.1959 0 10.0156C0 7.64289 0.0418898 6.32037 0.0418898 3.94761C0.0418898 1.76735 1.80924 0 3.9895 0H12.0104C12.5609 0 13.0078 0.446824 13.0078 0.997375C13.0078 2.09848 13.9014 2.99213 15.0025 2.99213H15.0175C15.568 3.0011 16.0079 3.45391 15.9999 4.00446C15.9999 4.00446 15.958 6.77517 15.958 10.0156C15.958 12.1959 14.1907 13.9633 12.0104 13.9633H10.632L10.3518 14.5238C9.91191 15.4025 9.00331 15.958 8.02089 15.958H7.99795ZM15.9999 0.997375C15.9999 1.54793 15.5531 1.99475 15.0025 1.99475C14.452 1.99475 14.0051 1.54793 14.0051 0.997375C14.0051 0.446824 14.452 0 15.0025 0C15.5531 0 15.9999 0.446824 15.9999 0.997375Z" fill="url(#paint0_linear_8_311)"/>
<path fill-rule="evenodd" clip-rule="evenodd" d="M4.03143 10.9712H7.02356C7.57411 10.9712 8.02093 10.5244 8.02093 9.97381C8.02093 9.42326 7.57411 8.97644 7.02356 8.97644H4.03143C3.48088 8.97644 3.03406 9.42326 3.03406 9.97381C3.03406 10.5244 3.48088 10.9712 4.03143 10.9712ZM4.03143 6.98169H10.0157C10.5662 6.98169 11.0131 6.53486 11.0131 5.98431C11.0131 5.43376 10.5662 4.98694 10.0157 4.98694H4.03143C3.48088 4.98694 3.03406 5.43376 3.03406 5.98431C3.03406 6.53486 3.48088 6.98169 4.03143 6.98169Z" fill="#D49F34"/>
<path fill-rule="evenodd" clip-rule="evenodd" d="M5.02875 5.98413H11.013C11.5635 5.98413 12.0104 5.53731 12.0104 4.98676C12.0104 4.4362 11.5635 3.98938 11.013 3.98938H5.02875C4.4782 3.98938 4.03137 4.4362 4.03137 4.98676C4.03137 5.53731 4.4782 5.98413 5.02875 5.98413Z" fill="url(#paint1_linear_8_311)"/>
<path fill-rule="evenodd" clip-rule="evenodd" d="M5.02875 9.97388H8.02087C8.57142 9.97388 9.01825 9.52705 9.01825 8.9765C9.01825 8.42595 8.57142 7.97913 8.02087 7.97913H5.02875C4.4782 7.97913 4.03137 8.42595 4.03137 8.9765C4.03137 9.52705 4.4782 9.97388 5.02875 9.97388Z" fill="url(#paint2_linear_8_311)"/>
</g>
<defs>
<linearGradient id="paint0_linear_8_311" x1="3" y1="14.9595" x2="12.9681" y2="2.96536" gradientUnits="userSpaceOnUse">
<stop stop-color="#FF8860"/>
<stop offset="1" stop-color="#FBD92C"/>
</linearGradient>
<linearGradient id="paint1_linear_8_311" x1="6.02612" y1="5.48544" x2="6.49548" y2="3.60803" gradientUnits="userSpaceOnUse">
<stop stop-color="#FBD92C"/>
<stop offset="1" stop-color="white"/>
</linearGradient>
<linearGradient id="paint2_linear_8_311" x1="5.27809" y1="9.47519" x2="5.96594" y2="7.75558" gradientUnits="userSpaceOnUse">
<stop stop-color="#FBD92C"/>
<stop offset="1" stop-color="white"/>
</linearGradient>
<clipPath id="clip0_8_311">
<rect width="16" height="16" fill="white"/>
</clipPath>
</defs>
</svg>
