<svg width="16" height="16" viewBox="0 0 16 16" fill="none" xmlns="http://www.w3.org/2000/svg">
<g clip-path="url(#clip0_17_2083)">
<path fill-rule="evenodd" clip-rule="evenodd" d="M1 13C0.448 13 0 12.552 0 12V3.992C0 1.787 1.787 0 3.992 0C6.357 0 9.643 0 12.008 0C13.067 0 14.082 0.421001 14.831 1.169C15.579 1.918 16 2.933 16 3.992C16 6.357 16 9.643 16 12.008C16 14.213 14.213 16 12.008 16C8.751 16 4 16 4 16C3.448 16 3 15.552 3 15C3 13.896 2.104 13 1 13ZM1 14C1.552 14 2 14.448 2 15C2 15.552 1.552 16 1 16C0.448 16 0 15.552 0 15C0 14.448 0.448 14 1 14Z" fill="url(#paint0_linear_17_2083)"/>
<path d="M13.4281 11.6121C13.6114 11.4288 13.7144 11.1803 13.7144 10.921C13.7144 10.6619 13.6114 10.4133 13.4281 10.23C13.2448 10.0468 12.9962 9.94373 12.7371 9.94373H8.85891C8.59975 9.94373 8.35113 10.0468 8.16783 10.23C7.98454 10.4133 7.88159 10.6619 7.88159 10.921C7.88159 11.1803 7.98454 11.4288 8.16783 11.6121C8.35113 11.7954 8.59975 11.8984 8.85891 11.8984H12.7371C12.9962 11.8984 13.2448 11.7954 13.4281 11.6121Z" fill="#279FD7"/>
<path d="M14.8572 9.7781C14.8572 10.0374 14.7543 10.2859 14.571 10.4692C14.3877 10.6525 14.1391 10.7554 13.8799 10.7554H10.0017C9.74257 10.7554 9.49395 10.6525 9.31066 10.4692C9.12736 10.2859 9.02441 10.0374 9.02441 9.7781C9.02441 9.51893 9.12736 9.27032 9.31066 9.08702C9.49395 8.90381 9.74257 8.80078 10.0017 8.80078H13.8799C14.1391 8.80078 14.3877 8.90381 14.571 9.08702C14.7543 9.27032 14.8572 9.51893 14.8572 9.7781Z" fill="url(#paint1_linear_17_2083)"/>
<path d="M6.28387 6.83506C6.28819 6.83939 6.2952 6.83941 6.29954 6.83511L6.30741 6.82733L8.40651 4.72826C8.70386 4.4309 9.18601 4.4309 9.48336 4.72826L9.54001 4.78494C9.83744 5.0823 9.83744 5.56442 9.54001 5.86178L7.4387 7.9631L7.43307 7.96881C7.4288 7.97307 7.4288 7.98 7.43314 7.98427C7.43741 7.98846 7.43748 7.99546 7.43314 7.99972L6.31514 9.11776C6.31087 9.12202 6.30395 9.12194 6.2997 9.11768C6.29546 9.11341 6.28853 9.11334 6.28426 9.1176L3.59155 11.8102C3.33848 12.0633 2.92819 12.0633 2.67512 11.8102C2.30222 11.4371 2.30232 10.8323 2.67533 10.4593L4.61991 8.51469C4.91727 8.21727 4.91725 7.7352 4.61988 7.43785L2.53845 5.35652C2.24107 5.05916 2.24106 4.57703 2.53844 4.27966L2.59508 4.22302C2.89245 3.92565 3.37459 3.92566 3.67195 4.22304L6.28387 6.83506Z" fill="#279FD7"/>
<path d="M7.28387 5.83506C7.28819 5.83939 7.2952 5.83941 7.29954 5.83511L7.30741 5.82733L9.40651 3.72826C9.70386 3.4309 10.186 3.4309 10.4834 3.72826L10.54 3.78494C10.8374 4.0823 10.8374 4.56442 10.54 4.86178L8.4387 6.9631L8.43307 6.96881C8.4288 6.97307 8.4288 6.98 8.43314 6.98427C8.43741 6.98846 8.43748 6.99546 8.43314 6.99972L7.31514 8.11776C7.31087 8.12202 7.30395 8.12194 7.2997 8.11768C7.29546 8.11341 7.28853 8.11334 7.28426 8.1176L4.59155 10.8102C4.33848 11.0633 3.92819 11.0633 3.67512 10.8102C3.30222 10.4371 3.30232 9.83235 3.67533 9.45933L5.61991 7.51469C5.91727 7.21727 5.91725 6.7352 5.61988 6.43785L3.53845 4.35652C3.24107 4.05916 3.24106 3.57703 3.53844 3.27966L3.59508 3.22302C3.89245 2.92565 4.37459 2.92566 4.67195 3.22304L7.28387 5.83506Z" fill="url(#paint2_linear_17_2083)"/>
</g>
<defs>
<linearGradient id="paint0_linear_17_2083" x1="1.6" y1="16.005" x2="7.3787" y2="-1.33327" gradientUnits="userSpaceOnUse">
<stop stop-color="#22B4FA"/>
<stop offset="1" stop-color="#6BD6FE"/>
</linearGradient>
<linearGradient id="paint1_linear_17_2083" x1="9.02441" y1="10.7554" x2="13.7085" y2="7.261" gradientUnits="userSpaceOnUse">
<stop stop-color="#6BD6FE"/>
<stop offset="1" stop-color="white"/>
</linearGradient>
<linearGradient id="paint2_linear_17_2083" x1="3" y1="11" x2="12.1645" y2="8.77673" gradientUnits="userSpaceOnUse">
<stop stop-color="#6BD6FE"/>
<stop offset="1" stop-color="white"/>
</linearGradient>
<clipPath id="clip0_17_2083">
<rect width="16" height="16" fill="white"/>
</clipPath>
</defs>
</svg>
