<svg width="16" height="16" viewBox="0 0 16 16" fill="none" xmlns="http://www.w3.org/2000/svg">
<path d="M5.67834 0.875031C4.51723 1.01246 3.47391 1.77624 2.93636 2.80554C2.56334 3.52726 2.48388 4.37799 2.62411 5.17263C2.74097 5.82237 3.12333 6.37301 3.40847 6.95637C3.60853 7.45931 3.69267 8.01742 3.56553 8.54939C3.44213 9.24024 2.96066 9.78342 2.74378 10.4388C2.26044 11.8644 2.8167 13.4967 3.94696 14.4531L4.01146 14.4952C5.0931 15.3085 6.62819 15.3973 7.82667 14.7925C8.52972 14.4344 9.05039 13.8052 9.42159 13.1218C9.72168 12.5684 10.1994 12.1037 10.7949 11.8813C11.368 11.6438 11.9971 11.6541 12.6066 11.6382C13.8398 11.598 15.0037 10.8342 15.5786 9.74885C15.9227 9.12153 16.0405 8.39142 15.9881 7.68185C15.8376 6.21875 14.7485 4.8903 13.3209 4.50607C12.788 4.39576 12.242 4.41071 11.7017 4.37612C11.4511 4.34901 11.1987 4.30881 10.9631 4.21719C10.4284 4.02181 9.96189 3.65534 9.63754 3.18884C9.34867 2.77376 9.10186 2.32875 8.76341 1.9492C7.97721 1.13492 6.80207 0.717033 5.67834 0.875031Z" fill="url(#paint0_linear_249_68)"/>
<path d="M8.34866 6.21991C8.38311 6.15378 8.45148 6.1123 8.52604 6.1123H9.60895C9.76377 6.1123 9.85988 6.28066 9.78117 6.41398L8.02381 9.39073C8.00563 9.42153 7.99604 9.45664 7.99604 9.49241V11.5215C7.99604 11.632 7.9065 11.7215 7.79604 11.7215H6.81777C6.70731 11.7215 6.61777 11.632 6.61777 11.5215V9.50031C6.61777 9.46461 6.60822 9.42957 6.59011 9.39881L4.8321 6.4138C4.75358 6.28047 4.84971 6.1123 5.00444 6.1123H6.08777C6.16233 6.1123 6.2307 6.15378 6.26515 6.21991L7.12953 7.87926C7.20426 8.02273 7.40955 8.02273 7.48428 7.87926L8.34866 6.21991Z" fill="#D49F34"/>
<path d="M9.47061 5.09796C9.50505 5.03183 9.57343 4.99036 9.64799 4.99036H10.7309C10.8857 4.99036 10.9818 5.15871 10.9031 5.29203L9.14576 8.26878C9.12758 8.29958 9.11799 8.33469 9.11799 8.37046V10.3996C9.11799 10.51 9.02844 10.5996 8.91799 10.5996H7.93972C7.82926 10.5996 7.73972 10.51 7.73972 10.3996V8.37836C7.73972 8.34267 7.73017 8.30762 7.71205 8.27686L5.95405 5.29185C5.87553 5.15853 5.97166 4.99036 6.12639 4.99036H7.20972C7.28428 4.99036 7.35265 5.03183 7.3871 5.09796L8.25148 6.75731C8.32621 6.90078 8.5315 6.90078 8.60623 6.75731L9.47061 5.09796Z" fill="url(#paint1_linear_249_68)"/>
<path fill-rule="evenodd" clip-rule="evenodd" d="M8.59142 1.13465C8.55334 1.1591 8.54963 1.21283 8.58216 1.24422C8.93197 1.58133 9.19546 1.98566 9.45909 2.39039L9.46097 2.39326C9.58844 2.58886 9.71597 2.78453 9.85342 2.97275C9.8814 3.01103 9.93847 3.01024 9.9661 2.97171C10.0538 2.84939 10.1426 2.72779 10.2319 2.6065C10.135 2.73811 10.0387 2.87009 9.94373 3.00296C9.92438 3.03009 9.92683 3.06715 9.94983 3.09133C10.1875 3.34162 10.4443 3.57889 10.7472 3.74985C11.3708 4.0836 12.0925 4.1397 12.7871 4.12754C13.3159 4.11879 13.8232 4.27151 14.3239 4.42222L14.3241 4.42228L14.3325 4.42482C14.3785 4.43863 14.4243 4.40333 14.4227 4.35544C14.4179 4.21713 14.412 4.07931 14.4007 3.9415C14.2131 2.43598 13.0461 1.13604 11.5878 0.744358C11.5579 0.736309 11.5263 0.749449 11.5103 0.776036C11.5034 0.787523 11.4965 0.798997 11.4895 0.810454C11.5128 0.770588 11.4914 0.71941 11.4462 0.708887C10.485 0.485107 9.42908 0.596268 8.59142 1.13465ZM11.4895 0.810454C11.4645 0.851694 11.4391 0.892748 11.4135 0.933626C11.4389 0.893065 11.4641 0.852334 11.4889 0.811417C11.4891 0.811097 11.4893 0.810776 11.4895 0.810454ZM10.4189 2.35332C10.6982 1.97583 10.9775 1.59826 11.2369 1.20732C10.9772 1.59876 10.6975 1.97678 10.4179 2.35475L10.4189 2.35332ZM2.03241 4.8414C2.07024 4.81979 2.11809 4.83843 2.13185 4.87976C2.14471 4.91834 2.15743 4.95699 2.17016 4.99565L2.17221 5.00189C2.25835 5.26362 2.3447 5.52596 2.46892 5.77291C2.54376 5.93067 2.62666 6.08571 2.70968 6.24095L2.71005 6.24164C2.9152 6.62523 3.12098 7.01002 3.20747 7.43976C3.3477 8.08391 3.22336 8.76354 2.93355 9.34879C2.54633 10.0462 2.17202 10.7676 2.0693 11.5682C2.06296 11.6177 2.00934 11.6465 1.96588 11.6221C1.31747 11.2584 0.766729 10.7125 0.43183 10.0462C-0.0730006 9.04498 -0.149658 7.82869 0.278516 6.78628C0.602119 5.94966 1.26146 5.28176 2.03241 4.8414ZM11.5638 15.4433C12.2818 15.4433 12.8638 14.8613 12.8638 14.1433C12.8638 13.4254 12.2818 12.8433 11.5638 12.8433C10.8459 12.8433 10.2638 13.4254 10.2638 14.1433C10.2638 14.8613 10.8459 15.4433 11.5638 15.4433Z" fill="url(#paint2_linear_249_68)"/>
<defs>
<linearGradient id="paint0_linear_249_68" x1="4.09366" y1="19.0134" x2="9.2796" y2="0.842041" gradientUnits="userSpaceOnUse">
<stop stop-color="#FD5900"/>
<stop offset="1" stop-color="#FFDE00"/>
</linearGradient>
<linearGradient id="paint1_linear_249_68" x1="7.10267" y1="9.19728" x2="9.90292" y2="6.54904" gradientUnits="userSpaceOnUse">
<stop stop-color="#FBD92C"/>
<stop offset="1" stop-color="white"/>
</linearGradient>
<linearGradient id="paint2_linear_249_68" x1="1.64656" y1="20.3745" x2="7.35753" y2="0.642275" gradientUnits="userSpaceOnUse">
<stop stop-color="#FD5900"/>
<stop offset="1" stop-color="#FFDE00"/>
</linearGradient>
</defs>
</svg>
