<svg width="16" height="16" viewBox="0 0 16 16" fill="none" xmlns="http://www.w3.org/2000/svg">
<g clip-path="url(#clip0_15_1661)">
<path fill-rule="evenodd" clip-rule="evenodd" d="M4.46445 11.5355C3.05024 10.1213 1.75835 11.1827 1.69471 11.2039C1.17216 11.3814 0.603648 11.1013 0.426164 10.5788C-0.522065 7.78501 0.117159 4.56909 2.34313 2.34312C5.46501 -0.77876 10.535 -0.77876 13.6568 2.34312C16.7787 5.46499 16.7787 10.5349 13.6568 13.6568C11.4309 15.8828 8.21495 16.522 5.42117 15.5738C4.89861 15.3963 4.6186 14.8278 4.79608 14.3052C4.8173 14.2416 5.87867 12.9497 4.46445 11.5355ZM3.75734 13.6568C3.36702 14.0471 2.73345 14.0471 2.34313 13.6568C1.95281 13.2665 1.95281 12.6329 2.34313 12.2426C2.73345 11.8523 3.36702 11.8523 3.75734 12.2426C4.14767 12.6329 4.14767 13.2665 3.75734 13.6568Z" fill="url(#paint0_linear_15_1661)"/>
<path d="M7.20994 5.00017C8.06323 5.00221 8.85374 5.21051 9.55329 5.73368L9.56274 5.74072C9.57406 5.7492 9.58456 5.75875 9.59407 5.76924L9.60195 5.77798C9.7739 5.96816 9.84903 6.20003 9.80122 6.43264C9.7562 6.65185 9.6128 6.81888 9.45398 6.92269C9.16745 7.11004 8.70248 7.16061 8.37491 6.83657C8.35824 6.82005 8.33968 6.80523 8.31887 6.79437C7.33417 6.27969 5.97876 6.60334 5.29382 7.37788L5.2911 7.38095L5.2883 7.384C5.03601 7.65567 4.90703 7.99847 4.85169 8.39109C4.83396 8.51685 4.93536 8.62471 5.06237 8.62471H5.62663C5.80701 8.62471 5.91011 8.83048 5.80212 8.97498L4.19852 11.1204C4.1109 11.2376 3.93517 11.2376 3.84755 11.1204L2.24395 8.97498C2.13596 8.83048 2.23906 8.62471 2.41944 8.62471H3.03541C3.15017 8.62471 3.24482 8.536 3.25919 8.42216C3.44985 6.91003 4.51268 5.551 6.07706 5.14769C6.4419 5.05175 6.82269 4.99647 7.20994 5.00017Z" fill="#7FD1AE"/>
<path d="M10.5524 6.81583L12.156 8.96126C12.264 9.10575 12.1609 9.31153 11.9805 9.31153H11.3645C11.2498 9.31153 11.1551 9.40024 11.1408 9.51408C10.9501 11.0262 9.88726 12.3853 8.32289 12.7886C8.00365 12.8725 7.67334 12.9245 7.33694 12.9338C7.33585 12.9338 7.3348 12.9343 7.33403 12.9351C7.33322 12.9359 7.33212 12.9363 7.33098 12.9363L7.19136 12.9361C6.33728 12.9342 5.54639 12.725 4.84664 12.2017L4.83724 12.1946C4.82589 12.1862 4.81542 12.1766 4.80591 12.1661L4.79802 12.1574C4.62614 11.9673 4.55091 11.7354 4.59874 11.5028C4.64383 11.2836 4.78733 11.1166 4.9462 11.013C5.23297 10.8258 5.69805 10.7757 6.02546 11.1001C6.042 11.1165 6.06041 11.1312 6.08098 11.1421C7.0707 11.6657 8.36601 11.4128 9.10384 10.561L9.10769 10.5566L9.11168 10.5522C9.36395 10.2806 9.49295 9.93776 9.54827 9.54515C9.566 9.41941 9.4646 9.31153 9.33761 9.31153H8.77333C8.59295 9.31153 8.48987 9.10575 8.59786 8.96126L10.2014 6.81583C10.2891 6.6986 10.4648 6.6986 10.5524 6.81583Z" fill="#7FD1AE"/>
<path d="M8.20994 4.00017C9.06323 4.00221 9.85374 4.21051 10.5533 4.73368L10.5627 4.74072C10.5741 4.7492 10.5846 4.75875 10.5941 4.76924L10.602 4.77798C10.7739 4.96816 10.849 5.20003 10.8012 5.43264C10.7562 5.65185 10.6128 5.81888 10.454 5.92269C10.1674 6.11004 9.70248 6.16061 9.37491 5.83657C9.35824 5.82005 9.33968 5.80523 9.31887 5.79437C8.33417 5.27969 6.97876 5.60334 6.29382 6.37788L6.2911 6.38095L6.2883 6.384C6.03601 6.65567 5.90703 6.99847 5.85169 7.39109C5.83396 7.51685 5.93536 7.62471 6.06237 7.62471H6.62663C6.80701 7.62471 6.91011 7.83048 6.80212 7.97498L5.19852 10.1204C5.1109 10.2376 4.93517 10.2376 4.84755 10.1204L3.24395 7.97498C3.13596 7.83048 3.23906 7.62471 3.41944 7.62471H4.03541C4.15017 7.62471 4.24482 7.536 4.25919 7.42216C4.44985 5.91003 5.51268 4.551 7.07706 4.14769C7.4419 4.05175 7.82269 3.99647 8.20994 4.00017Z" fill="url(#paint1_linear_15_1661)"/>
<path d="M11.5524 5.81583L13.156 7.96126C13.264 8.10575 13.1609 8.31153 12.9805 8.31153H12.3645C12.2498 8.31153 12.1551 8.40024 12.1408 8.51408C11.9501 10.0262 10.8873 11.3853 9.32289 11.7886C9.00365 11.8725 8.67334 11.9245 8.33694 11.9338C8.33585 11.9338 8.3348 11.9343 8.33403 11.9351C8.33322 11.9359 8.33212 11.9363 8.33098 11.9363L8.19136 11.9361C7.33728 11.9342 6.54639 11.725 5.84664 11.2017L5.83724 11.1946C5.82589 11.1862 5.81542 11.1766 5.80591 11.1661L5.79802 11.1574C5.62614 10.9673 5.55091 10.7354 5.59874 10.5028C5.64383 10.2836 5.78733 10.1166 5.9462 10.013C6.23297 9.82578 6.69805 9.77574 7.02546 10.1001C7.042 10.1165 7.06041 10.1312 7.08098 10.1421C8.0707 10.6657 9.36601 10.4128 10.1038 9.561L10.1077 9.55656L10.1117 9.55224C10.3639 9.28056 10.493 8.93776 10.5483 8.54515C10.566 8.41941 10.4646 8.31153 10.3376 8.31153H9.77333C9.59295 8.31153 9.48987 8.10575 9.59786 7.96126L11.2014 5.81583C11.2891 5.6986 11.4648 5.6986 11.5524 5.81583Z" fill="url(#paint2_linear_15_1661)"/>
</g>
<defs>
<linearGradient id="paint0_linear_15_1661" x1="2.00096" y1="13.9994" x2="16.97" y2="10.5451" gradientUnits="userSpaceOnUse">
<stop stop-color="#62E8AF"/>
<stop offset="1" stop-color="#B3FBDC"/>
</linearGradient>
<linearGradient id="paint1_linear_15_1661" x1="3.19995" y1="10.2083" x2="4.71851" y2="2.75741" gradientUnits="userSpaceOnUse">
<stop stop-color="#B3FBDC"/>
<stop offset="1" stop-color="white"/>
</linearGradient>
<linearGradient id="paint2_linear_15_1661" x1="5.58459" y1="11.9363" x2="7.1032" y2="4.48531" gradientUnits="userSpaceOnUse">
<stop stop-color="#B3FBDC"/>
<stop offset="1" stop-color="white"/>
</linearGradient>
<clipPath id="clip0_15_1661">
<rect width="16" height="16" fill="white"/>
</clipPath>
</defs>
</svg>
