<svg width="16" height="16" viewBox="0 0 16 16" fill="none" xmlns="http://www.w3.org/2000/svg">
<path opacity="0.5" fill-rule="evenodd" clip-rule="evenodd" d="M15 3C15.552 3 16 3.448 16 4V12.008C16 14.213 14.213 16 12.008 16C9.643 16 6.357 16 3.992 16C2.933 16 1.918 15.579 1.169 14.831C0.421 14.082 0 13.067 0 12.008C0 9.643 0 6.357 0 3.992C0 1.787 1.787 0 3.992 0C7.249 0 12 0 12 0C12.552 0 13 0.448 13 1C13 2.104 13.896 3 15 3ZM15 2C14.448 2 14 1.552 14 1C14 0.448 14.448 0 15 0C15.552 0 16 0.448 16 1C16 1.552 15.552 2 15 2Z" fill="url(#paint0_linear_242_23)"/>
<path fill-rule="evenodd" clip-rule="evenodd" d="M10.5001 3C9.12012 3 8.00012 4.12 8.00012 5.5C8.00012 6.88 9.12012 8 10.5001 8C11.8801 8 13.0001 6.88 13.0001 5.5C13.0001 4.12 11.8801 3 10.5001 3ZM10.5001 5C10.7761 5 11.0001 5.224 11.0001 5.5C11.0001 5.776 10.7761 6 10.5001 6C10.2241 6 10.0001 5.776 10.0001 5.5C10.0001 5.224 10.2241 5 10.5001 5Z" fill="url(#paint1_linear_242_23)"/>
<path fill-rule="evenodd" clip-rule="evenodd" d="M8.27395 10.312L7.38995 8.544C6.91695 7.598 5.94995 7 4.89095 7C4.01495 7 3.19095 7.412 2.66495 8.113C1.80295 9.263 0.19995 11.4 0.19995 11.4C-0.13105 11.842 -0.0420493 12.469 0.399951 12.8C0.841951 13.131 1.46895 13.042 1.79995 12.6C1.79995 12.6 3.40295 10.463 4.26495 9.313C4.41295 9.116 4.64495 9 4.89095 9C5.19195 9 5.46695 9.17 5.60095 9.439L6.60795 11.452C6.86695 11.97 7.35895 12.332 7.93095 12.425C8.50295 12.517 9.08495 12.33 9.49395 11.92L10.355 11.059C10.393 11.021 10.444 11 10.498 11H10.502C10.556 11 10.607 11.021 10.645 11.059L11.297 11.712C11.688 12.102 12.321 12.102 12.712 11.712C13.102 11.321 13.102 10.688 12.712 10.297L12.059 9.645C11.646 9.232 11.086 9 10.502 9H10.498C9.91395 9 9.35395 9.232 8.94095 9.645L8.27395 10.312Z" fill="url(#paint2_linear_242_23)"/>
<defs>
<linearGradient id="paint0_linear_242_23" x1="-2.38419e-07" y1="16" x2="4.70588" y2="-2.82353" gradientUnits="userSpaceOnUse">
<stop stop-color="#B3FBDC"/>
<stop offset="1" stop-color="white"/>
</linearGradient>
<linearGradient id="paint1_linear_242_23" x1="8.62512" y1="7.37514" x2="13.3038" y2="6.29547" gradientUnits="userSpaceOnUse">
<stop stop-color="#62E8AF"/>
<stop offset="1" stop-color="#B3FBDC"/>
</linearGradient>
<linearGradient id="paint2_linear_242_23" x1="1.62556" y1="12.2501" x2="11.8778" y2="7.12235" gradientUnits="userSpaceOnUse">
<stop stop-color="#62E8AF"/>
<stop offset="1" stop-color="#B3FBDC"/>
</linearGradient>
</defs>
</svg>
