<svg width="16" height="16" viewBox="0 0 16 16" fill="none" xmlns="http://www.w3.org/2000/svg">
<path opacity="0.5" fill-rule="evenodd" clip-rule="evenodd" d="M3.13333 14.9333C3.13333 15.5221 2.65547 16 2.06667 16C1.47787 16 1 15.5221 1 14.9333C1 14.3445 1.47787 13.8667 2.06667 13.8667C2.65547 13.8667 3.13333 14.3445 3.13333 14.9333ZM4.25333 0H12.68C14.4795 0.0192 15.9333 1.48373 15.9333 3.28853V12.7115C15.9333 13.584 15.5867 14.4203 14.9701 15.0368C14.3536 15.6533 13.5173 16 12.6448 16H5.26667C4.67787 16 4.2 15.5221 4.2 14.9333C4.2 13.7557 3.24427 12.8 2.06667 12.8C1.47787 12.8 1 12.3221 1 11.7333V3.28853C1 1.48373 2.45387 0.0192 4.25333 0Z" fill="url(#paint0_linear_242_145)"/>
<path fill-rule="evenodd" clip-rule="evenodd" d="M7.36672 3.13334H9.50005C10.0888 3.13334 10.5667 2.65547 10.5667 2.06667C10.5667 1.47787 10.0888 1 9.50005 1H7.36672C6.77792 1 6.30005 1.47787 6.30005 2.06667C6.30005 2.65547 6.77792 3.13334 7.36672 3.13334Z" fill="url(#paint1_linear_242_145)"/>
<path fill-rule="evenodd" clip-rule="evenodd" d="M7.36672 7.13333H9.50005C10.0889 7.13333 10.5667 6.65547 10.5667 6.06667C10.5667 5.47787 10.0889 5 9.50005 5H7.36672C6.77792 5 6.30005 5.47787 6.30005 6.06667C6.30005 6.65547 6.77792 7.13333 7.36672 7.13333Z" fill="url(#paint2_linear_242_145)"/>
<path fill-rule="evenodd" clip-rule="evenodd" d="M7.36672 11.1333H9.50005C10.0889 11.1333 10.5667 10.6555 10.5667 10.0667C10.5667 9.47787 10.0889 9 9.50005 9H7.36672C6.77792 9 6.30005 9.47787 6.30005 10.0667C6.30005 10.6555 6.77792 11.1333 7.36672 11.1333Z" fill="url(#paint3_linear_242_145)"/>
<defs>
<linearGradient id="paint0_linear_242_145" x1="2.06667" y1="16" x2="12.8789" y2="1.32153" gradientUnits="userSpaceOnUse">
<stop stop-color="#9BE862"/>
<stop offset="1" stop-color="#C8FF9F"/>
</linearGradient>
<linearGradient id="paint1_linear_242_145" x1="6.60481" y1="3.13334" x2="7.53294" y2="0.433325" gradientUnits="userSpaceOnUse">
<stop stop-color="#9BE862"/>
<stop offset="1" stop-color="#C8FF9F"/>
</linearGradient>
<linearGradient id="paint2_linear_242_145" x1="6.60481" y1="7.13333" x2="7.53294" y2="4.43333" gradientUnits="userSpaceOnUse">
<stop stop-color="#9BE862"/>
<stop offset="1" stop-color="#C8FF9F"/>
</linearGradient>
<linearGradient id="paint3_linear_242_145" x1="6.60481" y1="11.1333" x2="7.53293" y2="8.43333" gradientUnits="userSpaceOnUse">
<stop stop-color="#9BE862"/>
<stop offset="1" stop-color="#C8FF9F"/>
</linearGradient>
</defs>
</svg>
