<svg width="16" height="16" viewBox="0 0 16 16" fill="none" xmlns="http://www.w3.org/2000/svg">
<path opacity="0.5" fill-rule="evenodd" clip-rule="evenodd" d="M15 3C15.552 3 16 3.448 16 4V12.008C16 14.213 14.213 16 12.008 16C9.643 16 6.357 16 3.992 16C2.933 16 1.918 15.579 1.169 14.831C0.421 14.082 0 13.067 0 12.008C0 9.643 0 6.357 0 3.992C0 1.787 1.787 0 3.992 0C7.249 0 12 0 12 0C12.552 0 13 0.448 13 1C13 2.104 13.896 3 15 3ZM15 2C14.448 2 14 1.552 14 1C14 0.448 14.448 0 15 0C15.552 0 16 0.448 16 1C16 1.552 15.552 2 15 2Z" fill="url(#paint0_linear_242_104)"/>
<path fill-rule="evenodd" clip-rule="evenodd" d="M8.89645 3.89093C8.44481 3.58963 7.9137 3.42859 7.37042 3.42859H7.36762C6.58871 3.42859 5.84066 3.7382 5.28991 4.28937C4.73822 4.84106 4.42871 5.58859 4.42871 6.36781C4.42871 7.36677 4.42871 8.60677 4.42871 9.60937C4.42871 11.2452 5.75463 12.5714 7.391 12.5714C7.92025 12.5714 8.43827 12.4151 8.87776 12.1216L11.0967 10.6426C11.9289 10.0878 12.4282 9.15378 12.4282 8.15326C12.4282 8.05196 12.4282 7.94807 12.4282 7.84677C12.4282 6.84625 11.9289 5.91223 11.0967 5.35742L8.89645 3.89093ZM7.6285 5.79275L9.82871 7.25924C10.0251 7.39015 10.1429 7.61041 10.1429 7.84625V8.15378C10.1429 8.38963 10.0251 8.60989 9.82871 8.7408L7.6098 10.2198C7.54528 10.2629 7.46954 10.2857 7.39193 10.2857C7.0179 10.2857 6.71401 9.98288 6.71401 9.60937V6.36781C6.71401 6.19482 6.7832 6.02859 6.9057 5.90599C7.02819 5.78339 7.19463 5.7143 7.36762 5.7143H7.37042C7.46205 5.7143 7.55183 5.74132 7.6285 5.79275Z" fill="url(#paint1_linear_242_104)"/>
<defs>
<linearGradient id="paint0_linear_242_104" x1="3" y1="14.9988" x2="12.9991" y2="2.999" gradientUnits="userSpaceOnUse">
<stop stop-color="#FF8860"/>
<stop offset="1" stop-color="#FBD92C"/>
</linearGradient>
<linearGradient id="paint1_linear_242_104" x1="5.92862" y1="11.9993" x2="11.7307" y2="5.90695" gradientUnits="userSpaceOnUse">
<stop stop-color="#FF8860"/>
<stop offset="1" stop-color="#FBD92C"/>
</linearGradient>
</defs>
</svg>
