<svg width="16" height="16" viewBox="0 0 16 16" fill="none" xmlns="http://www.w3.org/2000/svg">
<path opacity="0.5" fill-rule="evenodd" clip-rule="evenodd" d="M3 8C3 10 1.336 10.163 1.276 10.193C0.781 10.437 0.577 11.037 0.821 11.532C2.126 14.178 4.852 16 8 16C12.415 16 16 12.415 16 8C16 3.585 12.415 0 8 0C4.852 0 2.126 1.822 0.821 4.468C0.577 4.963 0.781 5.563 1.276 5.807C1.336 5.837 3 6 3 8ZM1 7C0.448 7 0 7.448 0 8C0 8.552 0.448 9 1 9C1.552 9 2 8.552 2 8C2 7.448 1.552 7 1 7Z" fill="url(#paint0_linear_242_78)"/>
<path fill-rule="evenodd" clip-rule="evenodd" d="M7 5.5V8.5C7 8.834 7.167 9.147 7.445 9.332L10.445 11.332C10.905 11.638 11.526 11.514 11.832 11.055C12.138 10.595 12.014 9.974 11.555 9.668L9 7.965V5.5C9 4.948 8.552 4.5 8 4.5C7.448 4.5 7 4.948 7 5.5Z" fill="url(#paint1_linear_242_78)"/>
<defs>
<linearGradient id="paint0_linear_242_78" x1="3" y1="14.9988" x2="12.9991" y2="2.999" gradientUnits="userSpaceOnUse">
<stop stop-color="#FF8860"/>
<stop offset="1" stop-color="#FBD92C"/>
</linearGradient>
<linearGradient id="paint1_linear_242_78" x1="7.93748" y1="11.0618" x2="12.3327" y2="7.29423" gradientUnits="userSpaceOnUse">
<stop stop-color="#FF8860"/>
<stop offset="1" stop-color="#FBD92C"/>
</linearGradient>
</defs>
</svg>
