<svg width="16" height="16" viewBox="0 0 16 16" fill="none" xmlns="http://www.w3.org/2000/svg">
<path opacity="0.5" fill-rule="evenodd" clip-rule="evenodd" d="M1 13C0.448 13 0 12.552 0 12V3.992C0 1.78699 1.78699 0 3.992 0C6.35699 0 9.64299 0 12.008 0C13.067 0 14.0821 0.421006 14.831 1.16901C15.579 1.918 16 2.93299 16 3.992C16 6.35699 16 9.64299 16 12.008C16 14.213 14.213 16 12.008 16C8.75099 16 4 16 4 16C3.448 16 3 15.552 3 15C3 13.896 2.104 13 1 13ZM1 14C1.552 14 2 14.448 2 15C2 15.552 1.552 16 1 16C0.448 16 0 15.552 0 15C0 14.448 0.448 14 1 14Z" fill="url(#paint0_linear_242_73)"/>
<path d="M13.0341 3.02232C12.7946 2.34622 12.1336 1.92696 11.4365 2.01057C11.2757 2.03518 11.1195 2.08385 10.9733 2.15493C10.8193 2.22351 10.6322 2.31914 10.4018 2.43765L8.91366 3.19976C8.74282 3.28759 8.60869 3.35616 8.49379 3.44639C8.19711 3.68065 7.99573 4.0148 7.92717 4.38656C7.9001 4.53213 7.9001 4.68551 7.9001 4.88161V8.32223C7.9001 8.49898 7.6797 8.59653 7.53248 8.49873C7.11466 8.22116 6.62148 8.07 6.11299 8.06965C4.66935 8.07085 3.5 9.27027 3.5 10.75C3.5 12.2291 4.66935 13.4285 6.11239 13.4285C7.55482 13.4285 8.72478 12.2291 8.72478 10.7495V7.25301C8.72478 7.10256 8.88714 7.0034 9.03252 7.04211C9.20943 7.08921 9.39699 7.10384 9.58735 7.08136C9.74435 7.0621 9.89657 7.00616 10.0511 6.937C10.2045 6.86842 10.3915 6.77217 10.6219 6.65427L12.1107 5.89036C12.2822 5.80313 12.4157 5.73456 12.5306 5.64494C12.8254 5.41335 13.0274 5.07831 13.0973 4.70416C13.1242 4.5586 13.1242 4.40581 13.1242 4.20911V4.1628C13.1242 3.89873 13.1242 3.68399 13.1152 3.51316C13.1119 3.3467 13.0845 3.181 13.0341 3.02232Z" fill="url(#paint1_linear_242_73)"/>
<defs>
<linearGradient id="paint0_linear_242_73" x1="4" y1="16" x2="19.6" y2="10.8" gradientUnits="userSpaceOnUse">
<stop stop-color="#C59AFD"/>
<stop offset="1" stop-color="#D6B6FF"/>
</linearGradient>
<linearGradient id="paint1_linear_242_73" x1="5.90606" y1="12.6122" x2="13.5579" y2="5.09446" gradientUnits="userSpaceOnUse">
<stop stop-color="#A056FF"/>
<stop offset="1" stop-color="#C59AFD"/>
</linearGradient>
</defs>
</svg>
