<svg width="16" height="16" viewBox="0 0 16 16" fill="none" xmlns="http://www.w3.org/2000/svg">
<path opacity="0.5" fill-rule="evenodd" clip-rule="evenodd" d="M9.65475 11.0687C9.55114 10.9651 9.3883 10.9522 9.2655 11.0321C8.32541 11.6438 7.20353 11.9991 5.99953 11.9991C4.04468 11.9991 2.30782 11.0631 1.21191 9.61425C0.878931 9.17428 0.965924 8.54633 1.40589 8.21336C1.46389 8.16936 2.99977 7.99938 2.99977 5.99953C2.99977 3.99969 1.46389 3.8297 1.40589 3.7857C0.965924 3.45273 0.878931 2.82478 1.21191 2.38481C2.30782 0.935927 4.04468 0 5.99953 0C9.31027 0 11.9991 2.68879 11.9991 5.99953C11.9991 7.20353 11.6438 8.32542 11.0321 9.2655C10.9522 9.3883 10.9651 9.55114 11.0687 9.65475L11.375 9.96104C11.4913 10.0774 11.6786 10.0762 11.8118 9.97938C12.1545 9.73014 12.5698 9.59325 12.999 9.59325C13.5349 9.59325 14.0489 9.80623 14.4279 10.1852L15.1198 10.8782C16.2914 12.0488 16.2917 13.948 15.1206 15.119C15.1201 15.1195 15.1196 15.1201 15.1193 15.1208V15.1208C15.119 15.1215 15.1185 15.1221 15.118 15.1226C13.947 16.2927 12.0498 16.2924 10.8792 15.1218L10.1852 14.4279C9.80623 14.0489 9.59325 13.5349 9.59325 12.999C9.59325 12.5698 9.73014 12.1545 9.97938 11.8118C10.0762 11.6786 10.0774 11.4913 9.96104 11.375L9.65475 11.0687ZM0.999922 4.99961C1.55188 4.99961 1.99984 5.44757 1.99984 5.99953C1.99984 6.55149 1.55188 6.99945 0.999922 6.99945C0.447965 6.99945 0 6.55149 0 5.99953C0 5.44757 0.447965 4.99961 0.999922 4.99961Z" fill="url(#paint0_linear_242_137)"/>
<path fill-rule="evenodd" clip-rule="evenodd" d="M6.94756 3.99772L7.05155 4.00172C7.56151 4.02772 7.97148 4.43769 7.99748 4.94765L8.00148 5.05164C8.02748 5.5796 8.46544 5.99957 8.9994 5.99957C9.55136 5.99957 9.99932 5.5516 9.99932 4.99964C9.99932 3.34377 8.65543 1.99988 6.99956 1.99988C6.4476 1.99988 5.99963 2.44784 5.99963 2.9998C5.99963 3.53376 6.4196 3.97172 6.94756 3.99772Z" fill="url(#paint1_linear_242_137)"/>
<defs>
<linearGradient id="paint0_linear_242_137" x1="3.99969" y1="14.8571" x2="14.588" y2="2.50502" gradientUnits="userSpaceOnUse">
<stop stop-color="#A056FF"/>
<stop offset="1" stop-color="#C59AFD"/>
</linearGradient>
<linearGradient id="paint1_linear_242_137" x1="6.99956" y1="5.71388" x2="9.64641" y2="2.62588" gradientUnits="userSpaceOnUse">
<stop stop-color="#A056FF"/>
<stop offset="1" stop-color="#C59AFD"/>
</linearGradient>
</defs>
</svg>
