<svg width="16" height="16" viewBox="0 0 16 16" fill="none" xmlns="http://www.w3.org/2000/svg">
<path opacity="0.5" fill-rule="evenodd" clip-rule="evenodd" d="M4.46311 11.5338C3.0489 10.1196 1.75701 11.181 1.69337 11.2022C1.17082 11.3796 0.602306 11.0996 0.424821 10.5771C-0.523408 7.7833 0.115816 4.56738 2.34179 2.34141C5.46367 -0.78047 10.5336 -0.78047 13.6555 2.34141C16.7774 5.46328 16.7774 10.5332 13.6555 13.6551C11.4295 15.8811 8.2136 16.5203 5.41982 15.5721C4.89727 15.3946 4.61726 14.8261 4.79474 14.3035C4.81595 14.2399 5.87732 12.948 4.46311 11.5338ZM3.756 13.6551C3.36568 14.0454 2.73211 14.0454 2.34179 13.6551C1.95147 13.2648 1.95147 12.6312 2.34179 12.2409C2.73211 11.8506 3.36568 11.8506 3.756 12.2409C4.14632 12.6312 4.14632 13.2648 3.756 13.6551Z" fill="url(#paint0_linear_242_118)"/>
<path d="M4.60056 4.7194C4.69617 4.6345 4.75366 4.51642 4.76061 4.39063C4.76758 4.26484 4.72346 4.14143 4.63777 4.04702C4.55208 3.95262 4.43168 3.89478 4.30257 3.886C4.17346 3.87722 4.04597 3.91818 3.94762 4.00007C3.33485 4.52502 2.84417 5.17115 2.50831 5.89532C2.17246 6.6195 1.99917 7.40506 2 8.19959C2 8.32693 2.05196 8.44897 2.14444 8.53901C2.23693 8.62904 2.36236 8.67962 2.49315 8.67962C2.62394 8.67962 2.74938 8.62904 2.84187 8.53901C2.93435 8.44897 2.98631 8.32693 2.98631 8.19959C2.98545 7.54115 3.12901 6.89004 3.40738 6.28987C3.68576 5.68971 4.09255 5.1543 4.60056 4.7194ZM11.5593 4.00007C11.461 3.91818 11.3335 3.87722 11.2043 3.886C11.0753 3.89478 10.9548 3.95262 10.8691 4.04702C10.7834 4.14143 10.7393 4.26484 10.7463 4.39063C10.7533 4.51642 10.8107 4.6345 10.9064 4.7194C11.4144 5.1543 11.8211 5.68971 12.0995 6.28987C12.3779 6.89004 12.5215 7.54115 12.5206 8.19959C12.5206 8.32693 12.5726 8.44897 12.6651 8.53901C12.7575 8.62904 12.883 8.67962 13.0137 8.67962C13.1446 8.67962 13.27 8.62904 13.3625 8.53901C13.455 8.44897 13.5069 8.32693 13.5069 8.19959C13.5077 7.40506 13.3344 6.6195 12.9987 5.89532C12.6627 5.17115 12.1721 4.52502 11.5593 4.00007ZM6.56133 12.6936C6.49796 12.6758 6.43158 12.6705 6.3661 12.6782C6.30063 12.6858 6.2374 12.7062 6.18015 12.738C6.12289 12.7699 6.07278 12.8126 6.03277 12.8636C5.99276 12.9146 5.96368 12.9729 5.94722 13.035C5.93078 13.0972 5.9273 13.1619 5.93701 13.2254C5.94671 13.2889 5.9694 13.3499 6.00373 13.4046C6.03806 13.4595 6.08332 13.507 6.13687 13.5445C6.19039 13.5819 6.25111 13.6086 6.31541 13.6228C7.25871 13.8591 8.24818 13.8591 9.19147 13.6228C9.25575 13.6086 9.31651 13.5819 9.37001 13.5445C9.42356 13.507 9.46882 13.4595 9.50314 13.4046C9.53747 13.3499 9.56022 13.2889 9.56993 13.2254C9.57964 13.1619 9.57606 13.0972 9.5597 13.035C9.54318 12.9729 9.51413 12.9146 9.4741 12.8636C9.43412 12.8126 9.38398 12.7699 9.32674 12.738C9.26949 12.7062 9.20624 12.6858 9.14076 12.6782C9.07528 12.6705 9.0089 12.6758 8.94558 12.6936C8.55608 12.7908 8.15556 12.8398 7.75344 12.8395C7.35139 12.8395 6.95087 12.7905 6.56133 12.6936Z" fill="url(#paint1_linear_242_118)" stroke="url(#paint2_linear_242_118)" stroke-width="0.3"/>
<path d="M5.78076 3.71992C5.78076 4.22913 5.98858 4.71747 6.35852 5.07752C6.72847 5.43759 7.23019 5.63986 7.75337 5.63986C8.27655 5.63986 8.77826 5.43759 9.14823 5.07752C9.51818 4.71747 9.72597 4.22913 9.72597 3.71992C9.72597 3.21073 9.51818 2.72239 9.14823 2.36232C8.77826 2.00227 8.27655 1.79999 7.75337 1.79999C7.23019 1.79999 6.72847 2.00227 6.35852 2.36232C5.98858 2.72239 5.78076 3.21073 5.78076 3.71992ZM12.0274 13.3196C11.5042 13.3196 11.0025 13.1173 10.6325 12.7573C10.2626 12.3972 10.0548 11.9089 10.0548 11.3996C10.0548 10.8904 10.2626 10.4021 10.6325 10.0421C11.0025 9.68199 11.5042 9.47972 12.0274 9.47972C12.5506 9.47972 13.0523 9.68199 13.4222 10.0421C13.7922 10.4021 14 10.8904 14 11.3996C14 11.9089 13.7922 12.3972 13.4222 12.7573C13.0523 13.1173 12.5506 13.3196 12.0274 13.3196Z" fill="url(#paint3_linear_242_118)"/>
<defs>
<linearGradient id="paint0_linear_242_118" x1="1.59969" y1="16.0019" x2="7.37727" y2="-1.33301" gradientUnits="userSpaceOnUse">
<stop stop-color="#22B4FA"/>
<stop offset="1" stop-color="#6BD6FE"/>
</linearGradient>
<linearGradient id="paint1_linear_242_118" x1="3.15069" y1="13.8031" x2="6.31794" y2="2.77467" gradientUnits="userSpaceOnUse">
<stop stop-color="#22B4FA"/>
<stop offset="1" stop-color="#6BD6FE"/>
</linearGradient>
<linearGradient id="paint2_linear_242_118" x1="3.15069" y1="13.8031" x2="6.31794" y2="2.77467" gradientUnits="userSpaceOnUse">
<stop stop-color="#22B4FA"/>
<stop offset="1" stop-color="#6BD6FE"/>
</linearGradient>
<linearGradient id="paint3_linear_242_118" x1="6.60268" y1="13.3232" x2="11.9211" y2="1.93776" gradientUnits="userSpaceOnUse">
<stop stop-color="#22B4FA"/>
<stop offset="1" stop-color="#6BD6FE"/>
</linearGradient>
</defs>
</svg>
