<svg width="16" height="16" viewBox="0 0 16 16" fill="none" xmlns="http://www.w3.org/2000/svg">
<path opacity="0.5" fill-rule="evenodd" clip-rule="evenodd" d="M11.4288 14.3C13.9537 14.3 16 12.2776 16 9.7824C16 8.88489 15.7352 8.04851 15.2786 7.34543C14.9161 6.7873 14.0786 7.0066 13.4505 7.22665C13.2811 7.28601 13.0989 7.31828 12.9093 7.31828C12.0055 7.31828 11.2729 6.58565 11.2729 5.6819C11.2729 5.35177 11.3706 5.04446 11.5388 4.78737C11.8858 4.25678 12.2611 3.5469 11.8443 3.06919C11.0059 2.10833 9.765 1.5 8.3808 1.5C5.85601 1.5 3.80961 3.5224 3.80961 6.0176C3.80961 6.3361 3.8429 6.6466 3.90625 6.94634C3.9667 7.23238 3.72116 7.52328 3.4288 7.52321C1.5352 7.52401 0 9.0408 0 10.912C0 12.7832 1.5352 14.3 3.4288 14.3H11.4288ZM13.4547 6.22736C14.0572 6.22736 14.5456 5.73894 14.5456 5.13644C14.5456 4.53394 14.0572 4.04552 13.4547 4.04552C12.8522 4.04552 12.3638 4.53394 12.3638 5.13644C12.3638 5.73894 12.8522 6.22736 13.4547 6.22736Z" fill="url(#paint0_linear_242_129)"/>
<path d="M9.80973 12.3333C11.3138 12.3333 12.5333 11.1747 12.5333 9.74467C12.5333 8.67711 11.8521 7.76014 10.8799 7.3644C10.7717 7.32034 10.693 7.22351 10.6705 7.10883C10.435 5.90851 9.32546 5 7.99399 5C6.48919 5 5.26966 6.15867 5.26966 7.58867C5.26966 7.76568 5.28861 7.939 5.32443 8.10654C5.36079 8.27657 5.2162 8.45107 5.04233 8.45107V8.45107C3.91519 8.45107 3 9.31933 3 10.3922C3 11.4643 3.91446 12.3333 5.04306 12.3333H9.80973Z" fill="url(#paint1_linear_242_129)"/>
<defs>
<linearGradient id="paint0_linear_242_129" x1="1.6" y1="14.304" x2="5.43647" y2="-0.0844812" gradientUnits="userSpaceOnUse">
<stop stop-color="#22B4FA"/>
<stop offset="1" stop-color="#6BD6FE"/>
</linearGradient>
<linearGradient id="paint1_linear_242_129" x1="3.95333" y1="12.3356" x2="6.07738" y2="4.05074" gradientUnits="userSpaceOnUse">
<stop stop-color="#22B4FA"/>
<stop offset="1" stop-color="#6BD6FE"/>
</linearGradient>
</defs>
</svg>
