<svg width="16" height="16" viewBox="0 0 16 16" fill="none" xmlns="http://www.w3.org/2000/svg">
<path opacity="0.5" fill-rule="evenodd" clip-rule="evenodd" d="M4.00007 14.9999C4.00007 15.5519 3.55206 16 3.00005 16C2.44804 16 2.00002 15.5519 2.00002 14.9999C2.00002 14.4479 2.44804 13.9999 3.00005 13.9999C3.55206 13.9999 4.00007 14.4479 4.00007 14.9999ZM3.00005 12.9999C2.44804 12.9999 2.00002 12.5519 2.00002 11.9999V5.19968C2.00002 5.08923 1.90957 5.00177 1.8013 4.97991C1.34438 4.88767 1 4.48364 1 3.99966C1 3.44765 1.44801 2.99963 2.00002 2.99963H14.0003C14.5523 2.99963 15.0003 3.44765 15.0003 3.99966C15.0003 4.48364 14.6559 4.88767 14.199 4.97991C14.0907 5.00177 14.0003 5.08923 14.0003 5.19968V12.0229C14.0003 14.2199 12.2203 16 10.0232 16H6.00012C5.44811 16 5.0001 15.5519 5.0001 14.9999C5.0001 13.8959 4.10408 12.9999 3.00005 12.9999Z" fill="url(#paint0_linear_242_112)"/>
<path fill-rule="evenodd" clip-rule="evenodd" d="M7.00015 2.00005H9.0002C9.55221 2.00005 10.0002 1.55204 10.0002 1.00003C10.0002 0.448011 9.55221 0 9.0002 0H7.00015C6.44813 0 6.00012 0.448011 6.00012 1.00003C6.00012 1.55204 6.44813 2.00005 7.00015 2.00005Z" fill="url(#paint1_linear_242_112)"/>
<path fill-rule="evenodd" clip-rule="evenodd" d="M5.00012 7.99986V10.9999C5.00012 11.5519 5.44813 12.0002 6.00015 12.0002C6.55216 12.0002 7.00017 11.5519 7.00017 10.9999V7.99986C7.00017 7.44785 6.55216 6.99963 6.00015 6.99963C5.44813 6.99963 5.00012 7.44785 5.00012 7.99986Z" fill="url(#paint2_linear_242_112)"/>
<path fill-rule="evenodd" clip-rule="evenodd" d="M9.00024 7.99986V10.9999C9.00024 11.5519 9.44826 12.0002 10.0003 12.0002C10.5523 12.0002 11.0003 11.5519 11.0003 10.9999V7.99986C11.0003 7.44785 10.5523 6.99963 10.0003 6.99963C9.44826 6.99963 9.00024 7.44785 9.00024 7.99986Z" fill="url(#paint3_linear_242_112)"/>
<defs>
<linearGradient id="paint0_linear_242_112" x1="2.75004" y1="14.3753" x2="15.7458" y2="11.1457" gradientUnits="userSpaceOnUse">
<stop stop-color="#62E8AF"/>
<stop offset="1" stop-color="#B3FBDC"/>
</linearGradient>
<linearGradient id="paint1_linear_242_112" x1="6.50013" y1="1.7501" x2="9.75024" y2="0.250104" gradientUnits="userSpaceOnUse">
<stop stop-color="#62E8AF"/>
<stop offset="1" stop-color="#B3FBDC"/>
</linearGradient>
<linearGradient id="paint2_linear_242_112" x1="5.25013" y1="11.3753" x2="7.20468" y2="11.1949" gradientUnits="userSpaceOnUse">
<stop stop-color="#62E8AF"/>
<stop offset="1" stop-color="#B3FBDC"/>
</linearGradient>
<linearGradient id="paint3_linear_242_112" x1="9.25025" y1="11.3753" x2="11.2048" y2="11.1949" gradientUnits="userSpaceOnUse">
<stop stop-color="#62E8AF"/>
<stop offset="1" stop-color="#B3FBDC"/>
</linearGradient>
</defs>
</svg>
