<svg width="16" height="16" viewBox="0 0 16 16" fill="none" xmlns="http://www.w3.org/2000/svg">
<path d="M3.60732 0C2.71927 0 2 0.719268 2 1.60732V4.24095C2 4.51759 2.01933 4.79327 2.05761 5.06602C2.38515 4.93811 4.03488 4.31308 5.19683 4.24698C6.32323 4.18336 7.13071 4.6363 7.93818 5.08923C8.74398 5.54216 9.55232 5.9951 10.6779 5.93148C11.8319 5.86625 13.4666 5.24917 13.81 5.11511C13.853 4.82636 13.8747 4.5342 13.8747 4.24095V1.60732C13.8747 0.719268 13.1554 0 12.2673 0H3.60732Z" fill="url(#paint0_linear_80_5780)"/>
<path d="M4.69979 14.7277H11.0612C11.2299 14.7277 11.3918 14.7947 11.511 14.9141C11.6303 15.0334 11.6973 15.1951 11.6973 15.3639C11.6973 15.5326 11.6303 15.6944 11.511 15.8137C11.3918 15.933 11.2299 16 11.0612 16H4.69979C4.53107 16 4.36927 15.933 4.24997 15.8137C4.13067 15.6944 4.06365 15.5326 4.06365 15.3639C4.06365 15.1951 4.13067 15.0334 4.24997 14.9141C4.36927 14.7947 4.53107 14.7277 4.69979 14.7277Z" fill="url(#paint1_linear_80_5780)"/>
<path d="M11.7579 8.83393C10.6799 9.76335 9.30385 10.2746 7.88048 10.2747C7.52551 10.2747 7.17349 10.2429 6.82832 10.1808C6.49127 10.1201 6.33734 9.74004 6.33734 9.39757V9.39757C6.33734 8.59909 5.69004 7.95179 4.89156 7.95179C4.82234 7.95179 4.75426 7.95665 4.68763 7.96606C4.07652 8.05233 3.304 8.17053 2.9587 7.659C2.45723 6.9161 2.12657 6.06356 2 5.1627C2.3257 5.03547 3.97713 4.4095 5.14 4.34334C6.2664 4.27973 7.07388 4.73266 7.88135 5.1856C8.68715 5.63853 9.49549 6.09146 10.621 6.02785C11.7763 5.96254 13.4133 5.34421 13.7542 5.21104C13.5445 6.61885 12.836 7.90451 11.7579 8.83393Z" fill="url(#paint2_linear_80_5780)"/>
<path fill-rule="evenodd" clip-rule="evenodd" d="M13.5662 5.35931C12.8682 5.58849 11.8242 5.88718 11.0105 5.93147C9.84148 5.99509 9.00196 5.54216 8.16506 5.08922C7.32643 4.63629 6.48779 4.18335 5.31793 4.24697C4.11019 4.31313 2.39504 4.93909 2.05676 5.06632C2.07812 5.21268 2.10507 5.35776 2.13746 5.5013C2.83095 5.27902 3.80113 5.01184 4.56718 4.96988C5.73704 4.90626 6.57568 5.3592 7.41431 5.81213C8.25121 6.26506 9.09073 6.718 10.2597 6.65438C11.4582 6.58915 13.156 5.97207 13.5127 5.83801C13.5372 5.67934 13.5551 5.51965 13.5662 5.35931Z" fill="#8CC860"/>
<path opacity="0.5" d="M8.57343 10.1443C8.15054 10.1893 7.72404 10.1893 7.30115 10.1443V14.6313H8.57343V10.1443Z" fill="url(#paint3_linear_80_5780)"/>
<ellipse cx="4.89159" cy="9.39757" rx="0.722889" ry="0.722889" fill="url(#paint4_linear_80_5780)"/>
<path d="M12.8848 15.2117C12.8848 15.0663 12.9057 14.9436 12.9474 14.8431C12.9891 14.7428 13.0469 14.6618 13.1213 14.5999C13.1952 14.538 13.2827 14.4933 13.3832 14.4653C13.4835 14.4378 13.5908 14.4237 13.7051 14.4237C13.8134 14.4237 13.9163 14.4378 14.0136 14.4653C14.1107 14.4933 14.1965 14.538 14.2709 14.5999C14.3449 14.6618 14.4034 14.7428 14.4467 14.8431C14.4902 14.9436 14.5117 15.0663 14.5117 15.2117C14.5117 15.3509 14.4902 15.4699 14.4467 15.5688C14.4033 15.6674 14.3449 15.7498 14.2709 15.8147C14.1965 15.8793 14.1107 15.9264 14.0136 15.9559C13.9163 15.9852 13.8134 16 13.7051 16C13.5908 16 13.4835 15.9852 13.3832 15.9559C13.2827 15.9264 13.1952 15.8793 13.1213 15.8147C13.0468 15.7497 12.9893 15.6671 12.9473 15.5687C12.9058 15.4702 12.8848 15.3507 12.8848 15.2117ZM13.0383 13.6263C13.038 13.6263 13.0378 13.626 13.0378 13.6257V13.2835C13.0378 13.1258 13.0539 12.9828 13.0865 12.8547C13.1188 12.7262 13.1683 12.6045 13.2348 12.4884C13.3011 12.3727 13.3869 12.2597 13.4918 12.1501C13.5971 12.0404 13.7239 11.9268 13.8722 11.8094C14.002 11.7075 14.1117 11.6163 14.2011 11.5356C14.2909 11.4556 14.3632 11.3759 14.4191 11.2968C14.4746 11.2181 14.5149 11.1357 14.5394 11.0493C14.5644 10.9625 14.5768 10.8619 14.5768 10.7479C14.5768 10.5717 14.517 10.4261 14.3982 10.3121C14.2792 10.1977 14.0976 10.1405 13.8534 10.1405C13.6405 10.1405 13.4108 10.1853 13.1649 10.2747C12.99 10.3388 12.8104 10.4129 12.6264 10.4973C12.5029 10.5539 12.3555 10.5021 12.2987 10.3787L12.0222 9.77848C11.9702 9.6656 12.0121 9.5311 12.1227 9.4744C12.1997 9.43495 12.28 9.39666 12.3637 9.35952C12.5201 9.28991 12.6822 9.22802 12.8503 9.17387C13.0188 9.12006 13.1897 9.07735 13.3625 9.04641C13.5357 9.01545 13.7056 9 13.8727 9C14.1878 9 14.4721 9.03801 14.7253 9.11368C14.979 9.18935 15.1938 9.29966 15.3698 9.44496C15.5463 9.59026 15.6811 9.76683 15.7754 9.97366C15.8699 10.1808 15.917 10.4169 15.917 10.6827C15.917 10.8774 15.895 11.0513 15.852 11.2043C15.809 11.3573 15.7444 11.4996 15.66 11.6308C15.5746 11.7623 15.4679 11.8891 15.3398 12.0108C15.2117 12.1329 15.0624 12.2621 14.8924 12.3979C14.7627 12.4999 14.6567 12.589 14.5747 12.6647C14.493 12.7403 14.4286 12.8123 14.3826 12.8799C14.3362 12.9482 14.3046 13.0185 14.2874 13.0911C14.2705 13.1634 14.2618 13.2492 14.2618 13.3481V13.3849C14.2618 13.5183 14.1538 13.6263 14.0205 13.6263H13.0383Z" fill="url(#paint5_linear_80_5780)"/>
<defs>
<linearGradient id="paint0_linear_80_5780" x1="3.48434" y1="5.93748" x2="7.86899" y2="-1.73548" gradientUnits="userSpaceOnUse">
<stop stop-color="#C8FF9F"/>
<stop offset="1" stop-color="white"/>
</linearGradient>
<linearGradient id="paint1_linear_80_5780" x1="2.83959" y1="16" x2="10.523" y2="4.73642" gradientUnits="userSpaceOnUse">
<stop stop-color="#9BE862"/>
<stop offset="1" stop-color="#C8FF9F"/>
</linearGradient>
<linearGradient id="paint2_linear_80_5780" x1="2.83959" y1="16" x2="10.523" y2="4.73642" gradientUnits="userSpaceOnUse">
<stop stop-color="#9BE862"/>
<stop offset="1" stop-color="#C8FF9F"/>
</linearGradient>
<linearGradient id="paint3_linear_80_5780" x1="7.39203" y1="14.6313" x2="9.63021" y2="13.7081" gradientUnits="userSpaceOnUse">
<stop stop-color="#9BE862"/>
<stop offset="1" stop-color="#C8FF9F"/>
</linearGradient>
<linearGradient id="paint4_linear_80_5780" x1="4.27197" y1="10.1205" x2="5.22715" y2="8.73111" gradientUnits="userSpaceOnUse">
<stop stop-color="#9BE862"/>
<stop offset="1" stop-color="#C8FF9F"/>
</linearGradient>
<linearGradient id="paint5_linear_80_5780" x1="12.2798" y1="16" x2="17.1297" y2="12.0525" gradientUnits="userSpaceOnUse">
<stop stop-color="#9BE862"/>
<stop offset="1" stop-color="#C8FF9F"/>
</linearGradient>
</defs>
</svg>
