<svg width="16" height="16" viewBox="0 0 16 16" fill="none" xmlns="http://www.w3.org/2000/svg">
<g clip-path="url(#clip0_16_1920)">
<path fill-rule="evenodd" clip-rule="evenodd" d="M15 3C15.552 3 16 3.448 16 4C16 4 16 9.853 16 13.02C16 13.811 15.686 14.568 15.127 15.127C14.568 15.686 13.811 16 13.02 16C10.356 16 5.644 16 2.98 16C2.189 16 1.432 15.686 0.873 15.127C0.314 14.568 0 13.811 0 13.02C0 10.356 0 5.644 0 2.98C0 2.189 0.314 1.432 0.873 0.873C1.432 0.314 2.189 0 2.98 0H12C12.552 0 13 0.448 13 1C13 2.104 13.896 3 15 3ZM15 0C15.552 0 16 0.448 16 1C16 1.552 15.552 2 15 2C14.448 2 14 1.552 14 1C14 0.448 14.448 0 15 0Z" fill="url(#paint0_linear_16_1920)"/>
<path fill-rule="evenodd" clip-rule="evenodd" d="M5.65111 2.56024C5.27895 2.91895 5.06986 3.40547 5.06986 3.91277C5.06986 4.42007 5.27895 4.90659 5.65111 5.26531C6.0233 5.62402 6.52806 5.82555 7.05439 5.82555C7.58066 5.82555 8.08548 5.62402 8.45765 5.26531C8.82982 4.90659 9.03889 4.42007 9.03889 3.91277C9.03889 3.40547 8.82982 2.91895 8.45765 2.56024C8.08548 2.20153 7.58066 2 7.05439 2C6.52806 2 6.0233 2.20153 5.65111 2.56024ZM2.75921 8.67659L4.32877 9.18088C4.51857 9.24209 4.6131 9.27273 4.68454 9.31511C4.80345 9.38583 4.89852 9.48823 4.95821 9.60999C5.01791 9.73169 5.03966 9.86755 5.02083 10.0009C5.00928 10.081 4.97392 10.1706 4.90175 10.3508L4.00187 12.6051C3.90507 12.8463 3.90647 13.1138 4.00579 13.354C4.10511 13.5943 4.295 13.7894 4.53736 13.9003C4.77973 14.0112 5.05664 14.0297 5.31254 13.952C5.56844 13.8743 5.78438 13.7063 5.91709 13.4815L7.05439 11.5639L8.19169 13.4822C8.32441 13.7069 8.54037 13.875 8.79623 13.9527C9.05215 14.0304 9.32906 14.0119 9.57146 13.901C9.8138 13.7901 10.0037 13.5949 10.103 13.3547C10.2023 13.1145 10.2037 12.847 10.1069 12.6058L9.20704 10.3508L9.20198 10.3381C9.13389 10.1664 9.09925 10.0791 9.08797 10.0009C9.06914 9.86755 9.09092 9.73169 9.15055 9.60999C9.21025 9.48823 9.30538 9.38583 9.42425 9.31511C9.49569 9.27273 9.59023 9.24209 9.78002 9.18088L11.3496 8.67659C11.6189 8.59137 11.844 8.40965 11.9783 8.16895C12.1126 7.92832 12.1459 7.64715 12.0711 7.38355C11.9965 7.11994 11.8196 6.89406 11.5771 6.75257C11.3346 6.61109 11.0449 6.56483 10.7679 6.62334L9.39899 6.90643C7.90566 7.22553 6.35913 7.23596 4.86134 6.93704L4.7098 6.90643L3.34013 6.62334C3.0634 6.56543 2.77415 6.61207 2.53205 6.75366C2.28995 6.89525 2.11345 7.12099 2.03895 7.38432C1.96445 7.64765 1.99762 7.92851 2.13164 8.16895C2.26565 8.40939 2.49028 8.59111 2.75921 8.67659Z" fill="#279FD7"/>
<path fill-rule="evenodd" clip-rule="evenodd" d="M6.65111 1.56024C6.27895 1.91895 6.06986 2.40547 6.06986 2.91277C6.06986 3.42007 6.27895 3.90659 6.65111 4.26531C7.0233 4.62402 7.52806 4.82555 8.05439 4.82555C8.58066 4.82555 9.08548 4.62402 9.45765 4.26531C9.82982 3.90659 10.0389 3.42007 10.0389 2.91277C10.0389 2.40547 9.82982 1.91895 9.45765 1.56024C9.08548 1.20153 8.58066 1 8.05439 1C7.52806 1 7.0233 1.20153 6.65111 1.56024ZM3.75921 7.67659L5.32877 8.18088C5.51857 8.24209 5.6131 8.27273 5.68454 8.31511C5.80345 8.38583 5.89852 8.48823 5.95821 8.60999C6.01791 8.73169 6.03966 8.86755 6.02083 9.00092C6.00928 9.08096 5.97392 9.17064 5.90175 9.35079L5.00187 11.6051C4.90507 11.8463 4.90647 12.1138 5.00579 12.354C5.10511 12.5943 5.295 12.7894 5.53736 12.9003C5.77973 13.0112 6.05664 13.0297 6.31254 12.952C6.56844 12.8743 6.78438 12.7063 6.91709 12.4815L8.05439 10.5639L9.19169 12.4822C9.32441 12.7069 9.54037 12.875 9.79623 12.9527C10.0521 13.0304 10.3291 13.0119 10.5715 12.901C10.8138 12.7901 11.0037 12.5949 11.103 12.3547C11.2023 12.1145 11.2037 11.847 11.1069 11.6058L10.207 9.35079L10.202 9.33806C10.1339 9.16638 10.0993 9.07906 10.088 9.00092C10.0691 8.86755 10.0909 8.73169 10.1506 8.60999C10.2103 8.48823 10.3054 8.38583 10.4242 8.31511C10.4957 8.27273 10.5902 8.24209 10.78 8.18088L12.3496 7.67659C12.6189 7.59137 12.844 7.40965 12.9783 7.16895C13.1126 6.92832 13.1459 6.64715 13.0711 6.38355C12.9965 6.11994 12.8196 5.89406 12.5771 5.75257C12.3346 5.61109 12.0449 5.56483 11.7679 5.62334L10.399 5.90643C8.90566 6.22553 7.35913 6.23596 5.86134 5.93704L5.7098 5.90643L4.34013 5.62334C4.0634 5.56543 3.77415 5.61207 3.53205 5.75366C3.28995 5.89525 3.11345 6.12099 3.03895 6.38432C2.96445 6.64765 2.99762 6.92851 3.13164 7.16895C3.26565 7.40939 3.49028 7.59111 3.75921 7.67659Z" fill="url(#paint1_linear_16_1920)"/>
</g>
<defs>
<linearGradient id="paint0_linear_16_1920" x1="1.6" y1="16.005" x2="7.3787" y2="-1.33327" gradientUnits="userSpaceOnUse">
<stop stop-color="#22B4FA"/>
<stop offset="1" stop-color="#6BD6FE"/>
</linearGradient>
<linearGradient id="paint1_linear_16_1920" x1="3" y1="13" x2="15.1009" y2="10.4512" gradientUnits="userSpaceOnUse">
<stop stop-color="#6BD6FE"/>
<stop offset="1" stop-color="white"/>
</linearGradient>
<clipPath id="clip0_16_1920">
<rect width="16" height="16" fill="white"/>
</clipPath>
</defs>
</svg>
