<svg width="16" height="16" viewBox="0 0 16 16" fill="none" xmlns="http://www.w3.org/2000/svg">
<path fill-rule="evenodd" clip-rule="evenodd" d="M5.18301 7.85302L4.12705 6.97302L4.1211 6.96804C3.86621 6.75503 3.73787 6.64778 3.66875 6.50079C3.59981 6.35266 3.59981 6.18401 3.59981 5.84669V4.77796C3.59981 4.18695 3.0806 3.69858 2.51729 3.87742C2.11742 4.00438 1.79589 4.18945 1.52605 4.45929C0.666626 5.31798 0.666626 6.70169 0.666626 9.46769C0.666626 10.7381 0.666626 11.7168 0.750034 12.4869C0.786784 12.8262 1.1587 13 1.5 13C2.32843 13 3 13.6715 3 14.5C3 14.8413 3.17376 15.2132 3.51309 15.25C4.28331 15.3334 5.2622 15.3334 6.53301 15.3334H9.46616C12.2314 15.3334 13.6144 15.3334 14.4732 14.474C15.3326 13.616 15.3326 12.233 15.3326 9.46769C15.3326 6.70242 15.3326 5.31872 14.4732 4.45929C14.1128 4.0989 13.6598 3.88971 13.051 3.76825C12.7051 3.69924 12.3994 3.98194 12.3994 4.33463V5.84742V5.84743C12.3994 6.18474 12.3994 6.3534 12.3297 6.50152C12.2608 6.64965 12.1318 6.75816 11.8714 6.97376L10.8154 7.85376C9.46909 8.97569 8.79596 9.53662 7.99963 9.53662C7.20323 9.53662 6.52934 8.97569 5.18301 7.85302ZM1.19995 15.8C1.75224 15.8 2.19995 15.3523 2.19995 14.8C2.19995 14.2477 1.75224 13.8 1.19995 13.8C0.647666 13.8 0.199951 14.2477 0.199951 14.8C0.199951 15.3523 0.647666 15.8 1.19995 15.8Z" fill="url(#paint0_linear_252_319)"/>
<path fill-rule="evenodd" clip-rule="evenodd" d="M4.58384 9.18629L3.52863 8.30629L3.52386 8.30236C3.26851 8.08891 3.13877 7.98046 3.06959 7.83407C3.00065 7.68595 3.00065 7.51655 3.00065 7.17924V5.66645C3.00065 5.58613 3.00049 5.50779 3.00032 5.43128C2.99999 5.28357 2.99968 5.14273 3.00065 5.00795C3.00945 3.70927 3.07325 3.00091 3.53742 2.53673C3.99276 2.08139 4.68398 2.01231 5.93827 2.00183C5.41474 2.03372 5 2.46841 5 2.99996V6.99996C5 7.22864 5.07676 7.4394 5.20592 7.60786C5.23187 7.74103 5.34888 7.84513 5.49534 7.86347C5.64347 7.95023 5.81593 7.99996 6 7.99996H10C10.5523 7.99996 11 7.55224 11 6.99996V2.99996C11 2.62864 10.7976 2.30459 10.4971 2.1321C10.8167 2.2108 11.0628 2.33637 11.2635 2.53673C11.7269 3.00091 11.7899 3.70927 11.7987 5.00795C11.8002 5.21167 11.8002 5.43151 11.8002 5.66599V7.17924C11.8002 7.51729 11.8002 7.68595 11.7305 7.83407C11.6616 7.98147 11.5318 8.08996 11.273 8.30556L10.217 9.18556C8.86993 10.3082 8.1968 10.8692 7.39973 10.8692C6.60406 10.8692 5.93017 10.3082 4.58384 9.18629Z" fill="#8C4FD9"/>
<path fill-rule="evenodd" clip-rule="evenodd" d="M4.12787 6.97296L5.18308 7.85296C6.52942 8.97489 7.20331 9.53583 7.99897 9.53583C8.79604 9.53583 9.46917 8.97489 10.8162 7.85223L11.8722 6.97223C12.131 6.75663 12.2608 6.64813 12.3298 6.50074C12.3994 6.35261 12.3994 6.18395 12.3994 5.84591V4.33311C12.3994 4.09846 12.3994 3.87847 12.398 3.67461C12.3892 2.37594 12.3261 1.66758 11.8627 1.2034C11.3252 0.666626 10.4614 0.666626 8.73298 0.666626H7.26638C5.538 0.666626 4.67344 0.666626 4.13667 1.2034C3.67249 1.66758 3.60869 2.37594 3.59989 3.67461C3.59893 3.8094 3.59923 3.95023 3.59956 4.09795C3.59973 4.17445 3.59989 4.2528 3.59989 4.33311V5.84591C3.59989 6.18322 3.59989 6.35261 3.66883 6.50074C3.73806 6.64723 3.86741 6.75529 4.12311 6.96903L4.12787 6.97296ZM10.1996 3.52503C10.1996 3.6986 10.0468 3.83938 9.85851 3.83938H9.62637C9.49071 3.83938 9.37804 3.94162 9.35131 4.07462C9.26004 4.52768 9.05811 4.94529 8.77244 5.30296C8.66151 5.44187 8.69124 5.65353 8.85691 5.71805C9.16504 5.83805 9.50337 5.90444 9.85851 5.90444C10.0468 5.90444 10.1996 6.04507 10.1996 6.21865C10.1996 6.39223 10.0468 6.53301 9.85851 6.53301C9.23057 6.53301 8.64404 6.36855 8.14571 6.08439C8.05531 6.03283 7.94391 6.03283 7.85351 6.08441C7.35531 6.36855 6.76877 6.53301 6.14088 6.53301C5.95261 6.53301 5.79979 6.39223 5.79979 6.21865C5.79979 6.04507 5.95261 5.90444 6.14088 5.90444C6.49588 5.90444 6.83417 5.83793 7.14224 5.71803C7.30797 5.65351 7.33771 5.44177 7.22678 5.30279C6.94118 4.94516 6.73931 4.52761 6.64807 4.07462C6.6213 3.94162 6.50864 3.83938 6.37297 3.83938H6.14088C5.95261 3.83938 5.79979 3.6986 5.79979 3.52503C5.79979 3.35145 5.95261 3.21067 6.14088 3.21067H7.39184C7.53911 3.21067 7.65851 3.09129 7.65851 2.94401V2.44757C7.65851 2.274 7.81131 2.13322 7.99964 2.13322C8.18804 2.13322 8.34084 2.274 8.34084 2.44757V2.94401C8.34084 3.09128 8.46024 3.21067 8.60751 3.21067H9.85851C10.0468 3.21067 10.1996 3.35145 10.1996 3.52503ZM7.82471 4.98941C7.91711 5.09806 8.08217 5.09807 8.17451 4.98943C8.38577 4.74102 8.54457 4.45317 8.63564 4.14002C8.68097 3.98407 8.55524 3.83938 8.39284 3.83938H7.60651C7.44411 3.83938 7.31837 3.98407 7.36371 4.14002C7.45477 4.45316 7.61351 4.74099 7.82471 4.98941Z" fill="url(#paint1_linear_252_319)"/>
<path fill-rule="evenodd" clip-rule="evenodd" d="M10.1996 3.52499C10.1996 3.69856 10.0468 3.83934 9.85852 3.83934H9.6264C9.49073 3.83934 9.37807 3.94158 9.35133 4.07458C9.26007 4.52764 9.05812 4.94525 8.77246 5.30292C8.66152 5.44183 8.69126 5.65349 8.85693 5.71801C9.16506 5.83801 9.50339 5.9044 9.85852 5.9044C10.0468 5.9044 10.1996 6.04503 10.1996 6.21861C10.1996 6.39219 10.0468 6.53297 9.85852 6.53297C9.23059 6.53297 8.64406 6.36851 8.14572 6.08435C8.05532 6.03279 7.94392 6.03279 7.85352 6.08437C7.35532 6.36851 6.76879 6.53297 6.1409 6.53297C5.95262 6.53297 5.7998 6.39219 5.7998 6.21861C5.7998 6.04503 5.95262 5.9044 6.1409 5.9044C6.4959 5.9044 6.83419 5.83789 7.14226 5.71799C7.30799 5.65347 7.33772 5.44173 7.22679 5.30275C6.94119 4.94512 6.73932 4.52757 6.64809 4.07458C6.62132 3.94158 6.50866 3.83934 6.37298 3.83934H6.1409C5.95262 3.83934 5.7998 3.69856 5.7998 3.52499C5.7998 3.35141 5.95262 3.21063 6.1409 3.21063H7.39186C7.53912 3.21063 7.65852 3.09125 7.65852 2.94397V2.44753C7.65852 2.27396 7.81132 2.13318 7.99966 2.13318C8.18806 2.13318 8.34087 2.27396 8.34087 2.44753V2.94397C8.34087 3.09124 8.46026 3.21063 8.60752 3.21063H9.85852C10.0468 3.21063 10.1996 3.35141 10.1996 3.52499ZM7.82472 4.98934C7.91712 5.098 8.08219 5.09801 8.17452 4.98937C8.38579 4.74096 8.54459 4.45311 8.63565 4.13996C8.68099 3.98401 8.55525 3.83932 8.39285 3.83932H7.60652C7.44412 3.83932 7.31839 3.98401 7.36372 4.13996C7.45479 4.4531 7.61352 4.74093 7.82472 4.98934Z" fill="url(#paint2_linear_252_319)"/>
<path fill-rule="evenodd" clip-rule="evenodd" d="M10.1667 12H3.83333C3.37333 12 3 12.3733 3 12.8333C3 13.2933 3.37333 13.6667 3.83333 13.6667H10.1667C10.6267 13.6667 11 13.2933 11 12.8333C11 12.3733 10.6267 12 10.1667 12Z" fill="#8C4FD9"/>
<path fill-rule="evenodd" clip-rule="evenodd" d="M11.1667 11H4.83333C4.37333 11 4 11.3733 4 11.8333C4 12.2933 4.37333 12.6667 4.83333 12.6667H11.1667C11.6267 12.6667 12 12.2933 12 11.8333C12 11.3733 11.6267 11 11.1667 11Z" fill="url(#paint3_linear_252_319)"/>
<defs>
<linearGradient id="paint0_linear_252_319" x1="3.98311" y1="14.9399" x2="11.4909" y2="3.93292" gradientUnits="userSpaceOnUse">
<stop stop-color="#A056FF"/>
<stop offset="1" stop-color="#C59AFD"/>
</linearGradient>
<linearGradient id="paint1_linear_252_319" x1="5.79929" y1="9.53583" x2="14.3928" y2="6.69361" gradientUnits="userSpaceOnUse">
<stop stop-color="#C59AFD"/>
<stop offset="1" stop-color="white"/>
</linearGradient>
<linearGradient id="paint2_linear_252_319" x1="6.89975" y1="6.11394" x2="10.7934" y2="2.70703" gradientUnits="userSpaceOnUse">
<stop stop-color="#A056FF"/>
<stop offset="1" stop-color="#C59AFD"/>
</linearGradient>
<linearGradient id="paint3_linear_252_319" x1="6" y1="12.6667" x2="8.43446" y2="8.77154" gradientUnits="userSpaceOnUse">
<stop stop-color="#C59AFD"/>
<stop offset="1" stop-color="white"/>
</linearGradient>
</defs>
</svg>
