<svg width="16" height="16" viewBox="0 0 16 16" fill="none" xmlns="http://www.w3.org/2000/svg">
<g clip-path="url(#clip0_15_1106)">
<path d="M4.31152 15.994C3.75947 15.9925 3.42857 15.4092 3.42857 14.8571C3.42857 13.5948 2.40522 12.5714 1.14286 12.5714C0.590797 12.5714 0.00754833 12.2405 0.00600052 11.6885C0.00201893 10.2688 0 8.06866 0 8V3.42857C0 1.53502 1.53502 0 3.42857 0H12.5714C14.465 0 16 1.53502 16 3.42857V12.5714C16 14.465 14.465 16 12.5714 16H8C7.93134 16 5.73124 15.998 4.31152 15.994Z" fill="url(#paint0_linear_15_1106)"/>
<path d="M1.14286 13.7143C0.511674 13.7143 0 14.226 0 14.8571C0 15.4883 0.511674 16 1.14286 16C1.77404 16 2.28571 15.4883 2.28571 14.8571C2.28571 14.226 1.77404 13.7143 1.14286 13.7143Z" fill="url(#paint1_linear_15_1106)"/>
<path d="M5.96985 5.20018C6.10248 5.19902 6.22921 5.14524 6.32219 5.05064C6.41517 4.95605 6.46676 4.8284 6.46557 4.69577C6.46445 4.56314 6.41067 4.4364 6.31606 4.34343C6.22145 4.25046 6.09381 4.19888 5.96119 4.20003C5.39444 4.2047 4.9097 4.22271 4.50831 4.30138C4.09292 4.38272 3.7302 4.53542 3.43283 4.83279C3.13545 5.13016 2.98276 5.49288 2.90142 5.90827C2.82274 6.30967 2.80474 6.79374 2.80007 7.36115C2.79892 7.49378 2.8505 7.62141 2.94347 7.71603C3.03644 7.81064 3.16318 7.86441 3.29581 7.86554C3.42843 7.86672 3.55608 7.81514 3.65068 7.72216C3.74527 7.62917 3.79906 7.50244 3.80021 7.36981C3.80488 6.79907 3.82355 6.40035 3.88289 6.1003C3.9389 5.81493 4.02424 5.65624 4.14026 5.54022C4.25628 5.42421 4.41497 5.33886 4.70034 5.28285C5.00038 5.22418 5.3991 5.20484 5.96985 5.20018ZM8.6389 4.20003C8.5732 4.19946 8.50806 4.21184 8.4472 4.23644C8.38628 4.26105 8.33088 4.2974 8.28402 4.34343C8.23716 4.38947 8.19987 4.44428 8.17422 4.50473C8.14857 4.56518 8.13507 4.6301 8.13451 4.69577C8.13394 4.76144 8.14632 4.82658 8.1709 4.88747C8.19548 4.94836 8.23188 5.0038 8.27789 5.05064C8.3239 5.09748 8.37874 5.13479 8.43921 5.16045C8.49963 5.18611 8.56454 5.19961 8.63024 5.20018C9.20101 5.20484 9.5997 5.22351 9.89907 5.28285C10.1851 5.33886 10.3432 5.42421 10.4591 5.54022C10.5759 5.65624 10.6612 5.81493 10.7172 6.1003C10.7759 6.40035 10.7946 6.79907 10.7999 7.36981C10.801 7.50244 10.8548 7.62917 10.9494 7.72216C11.044 7.81514 11.1717 7.86672 11.3043 7.86554C11.4369 7.86441 11.5637 7.81064 11.6566 7.71603C11.7496 7.62141 11.8012 7.49378 11.8 7.36115C11.7947 6.7944 11.7774 6.30967 11.6987 5.90827C11.6173 5.49288 11.4639 5.13016 11.1666 4.83279C10.8692 4.53542 10.5065 4.38272 10.0918 4.30138C9.6897 4.22271 9.20562 4.2047 8.63822 4.20003H8.6389ZM3.80021 10.0302C3.79906 9.89756 3.74527 9.77083 3.65068 9.67785C3.55608 9.58487 3.42843 9.53329 3.29581 9.53447C3.16318 9.5356 3.03644 9.58937 2.94347 9.68398C2.8505 9.7786 2.79892 9.90623 2.80007 10.0389C2.80474 10.6056 2.82274 11.0903 2.90142 11.4917C2.98276 11.9071 3.13545 12.2698 3.43283 12.5672C3.7302 12.8646 4.09292 13.0173 4.50831 13.0986C4.9097 13.178 5.39377 13.1953 5.96119 13.2C6.09381 13.2011 6.22145 13.1495 6.31606 13.0566C6.41067 12.9636 6.46445 12.8368 6.46557 12.7043C6.46676 12.5716 6.41517 12.4439 6.32219 12.3494C6.22921 12.2548 6.10248 12.201 5.96985 12.1998C5.3991 12.1951 5.00038 12.1759 4.70034 12.1178C4.41497 12.0618 4.25628 11.9758 4.14026 11.8598C4.02424 11.7438 3.9389 11.5851 3.88289 11.2997C3.82421 10.9997 3.80488 10.601 3.80021 10.0302ZM11.7994 10.0389C11.7999 9.97316 11.7875 9.90803 11.763 9.84716C11.7383 9.78625 11.702 9.73084 11.6559 9.68398C11.6099 9.63713 11.5551 9.59983 11.4946 9.57418C11.4342 9.54853 11.3693 9.53503 11.3036 9.53447C11.2379 9.53391 11.1728 9.54628 11.1119 9.57086C11.051 9.59545 10.9956 9.63184 10.9487 9.67785C10.9019 9.72386 10.8646 9.77871 10.8389 9.83918C10.8133 9.89959 10.7998 9.9645 10.7992 10.0302C10.7946 10.601 10.7759 10.9997 10.7172 11.2997C10.6612 11.5851 10.5759 11.7438 10.4598 11.8598C10.3432 11.9758 10.1851 12.0618 9.89974 12.1178C9.5997 12.1759 9.20101 12.1951 8.63024 12.1998C8.56454 12.2004 8.49963 12.2139 8.43921 12.2396C8.37874 12.2652 8.3239 12.3025 8.27789 12.3494C8.23188 12.3962 8.19548 12.4516 8.1709 12.5126C8.14632 12.5734 8.13394 12.6386 8.13451 12.7043C8.13507 12.7699 8.14857 12.8348 8.17422 12.8953C8.19987 12.9558 8.23716 13.0105 8.28402 13.0566C8.33088 13.1026 8.38628 13.139 8.4472 13.1635C8.50806 13.1882 8.5732 13.2006 8.6389 13.2C9.20562 13.1953 9.6897 13.1773 10.0918 13.0986C10.5072 13.0173 10.8692 12.8646 11.1666 12.5672C11.4639 12.2698 11.6173 11.9071 11.6987 11.4917C11.7774 11.0903 11.7947 10.6063 11.7994 10.0389Z" fill="#279FD7" stroke="#279FD7" stroke-width="0.6"/>
<path d="M6.96985 4.20018C7.10248 4.19902 7.22921 4.14524 7.32219 4.05064C7.41517 3.95605 7.46676 3.8284 7.46557 3.69577C7.46445 3.56314 7.41067 3.4364 7.31606 3.34343C7.22145 3.25046 7.09381 3.19888 6.96119 3.20003C6.39444 3.2047 5.9097 3.22271 5.50831 3.30138C5.09292 3.38272 4.7302 3.53542 4.43283 3.83279C4.13545 4.13016 3.98276 4.49288 3.90142 4.90827C3.82274 5.30967 3.80474 5.79374 3.80007 6.36115C3.79892 6.49378 3.8505 6.62141 3.94347 6.71603C4.03644 6.81064 4.16318 6.86441 4.29581 6.86554C4.42843 6.86672 4.55608 6.81514 4.65068 6.72216C4.74527 6.62917 4.79906 6.50244 4.80021 6.36981C4.80488 5.79907 4.82355 5.40035 4.88289 5.1003C4.9389 4.81493 5.02424 4.65624 5.14026 4.54022C5.25628 4.42421 5.41497 4.33886 5.70034 4.28285C6.00038 4.22418 6.3991 4.20484 6.96985 4.20018ZM9.6389 3.20003C9.5732 3.19946 9.50806 3.21184 9.4472 3.23644C9.38628 3.26105 9.33088 3.2974 9.28402 3.34343C9.23716 3.38947 9.19987 3.44428 9.17422 3.50473C9.14857 3.56518 9.13507 3.6301 9.13451 3.69577C9.13394 3.76144 9.14632 3.82658 9.1709 3.88747C9.19548 3.94836 9.23188 4.0038 9.27789 4.05064C9.3239 4.09748 9.37874 4.13479 9.43921 4.16045C9.49963 4.18611 9.56454 4.19961 9.63024 4.20018C10.201 4.20484 10.5997 4.22351 10.8991 4.28285C11.1851 4.33886 11.3432 4.42421 11.4591 4.54022C11.5759 4.65624 11.6612 4.81493 11.7172 5.1003C11.7759 5.40035 11.7946 5.79907 11.7999 6.36981C11.801 6.50244 11.8548 6.62917 11.9494 6.72216C12.044 6.81514 12.1717 6.86672 12.3043 6.86554C12.4369 6.86441 12.5637 6.81064 12.6566 6.71603C12.7496 6.62141 12.8012 6.49378 12.8 6.36115C12.7947 5.7944 12.7774 5.30967 12.6987 4.90827C12.6173 4.49288 12.4639 4.13016 12.1666 3.83279C11.8692 3.53542 11.5065 3.38272 11.0918 3.30138C10.6897 3.22271 10.2056 3.2047 9.63822 3.20003H9.6389ZM4.80021 9.0302C4.79906 8.89756 4.74527 8.77083 4.65068 8.67785C4.55608 8.58487 4.42843 8.53329 4.29581 8.53447C4.16318 8.5356 4.03644 8.58937 3.94347 8.68398C3.8505 8.7786 3.79892 8.90623 3.80007 9.03886C3.80474 9.60558 3.82274 10.0903 3.90142 10.4917C3.98276 10.9071 4.13545 11.2698 4.43283 11.5672C4.7302 11.8646 5.09292 12.0173 5.50831 12.0986C5.9097 12.178 6.39377 12.1953 6.96119 12.2C7.09381 12.2011 7.22145 12.1495 7.31606 12.0566C7.41067 11.9636 7.46445 11.8368 7.46557 11.7043C7.46676 11.5716 7.41517 11.4439 7.32219 11.3494C7.22921 11.2548 7.10248 11.201 6.96985 11.1998C6.3991 11.1951 6.00038 11.1759 5.70034 11.1178C5.41497 11.0618 5.25628 10.9758 5.14026 10.8598C5.02424 10.7438 4.9389 10.5851 4.88289 10.2997C4.82421 9.99967 4.80488 9.60097 4.80021 9.0302ZM12.7994 9.03886C12.7999 8.97316 12.7875 8.90803 12.763 8.84716C12.7383 8.78625 12.702 8.73084 12.6559 8.68398C12.6099 8.63713 12.5551 8.59983 12.4946 8.57418C12.4342 8.54853 12.3693 8.53503 12.3036 8.53447C12.2379 8.53391 12.1728 8.54628 12.1119 8.57086C12.051 8.59545 11.9956 8.63184 11.9487 8.67785C11.9019 8.72386 11.8646 8.77871 11.8389 8.83918C11.8133 8.89959 11.7998 8.9645 11.7992 9.0302C11.7946 9.60097 11.7759 9.99967 11.7172 10.2997C11.6612 10.5851 11.5759 10.7438 11.4598 10.8598C11.3432 10.9758 11.1851 11.0618 10.8997 11.1178C10.5997 11.1759 10.201 11.1951 9.63024 11.1998C9.56454 11.2004 9.49963 11.2139 9.43921 11.2396C9.37874 11.2652 9.3239 11.3025 9.27789 11.3494C9.23188 11.3962 9.19548 11.4516 9.1709 11.5126C9.14632 11.5734 9.13394 11.6386 9.13451 11.7043C9.13507 11.7699 9.14857 11.8348 9.17422 11.8953C9.19987 11.9558 9.23716 12.0105 9.28402 12.0566C9.33088 12.1026 9.38628 12.139 9.4472 12.1635C9.50806 12.1882 9.5732 12.2006 9.6389 12.2C10.2056 12.1953 10.6897 12.1773 11.0918 12.0986C11.5072 12.0173 11.8692 11.8646 12.1666 11.5672C12.4639 11.2698 12.6173 10.9071 12.6987 10.4917C12.7774 10.0903 12.7947 9.60626 12.7994 9.03886Z" fill="url(#paint2_linear_15_1106)" stroke="url(#paint3_linear_15_1106)" stroke-width="0.6"/>
</g>
<defs>
<linearGradient id="paint0_linear_15_1106" x1="1.6" y1="16.005" x2="7.3787" y2="-1.33327" gradientUnits="userSpaceOnUse">
<stop stop-color="#22B4FA"/>
<stop offset="1" stop-color="#6BD6FE"/>
</linearGradient>
<linearGradient id="paint1_linear_15_1106" x1="1.6" y1="16.005" x2="7.3787" y2="-1.33327" gradientUnits="userSpaceOnUse">
<stop stop-color="#22B4FA"/>
<stop offset="1" stop-color="#6BD6FE"/>
</linearGradient>
<linearGradient id="paint2_linear_15_1106" x1="3.80005" y1="12.2" x2="14.3883" y2="9.55295" gradientUnits="userSpaceOnUse">
<stop stop-color="#6BD6FE"/>
<stop offset="1" stop-color="white"/>
</linearGradient>
<linearGradient id="paint3_linear_15_1106" x1="3.80005" y1="12.2" x2="14.3883" y2="9.55295" gradientUnits="userSpaceOnUse">
<stop stop-color="#6BD6FE"/>
<stop offset="1" stop-color="white"/>
</linearGradient>
<clipPath id="clip0_15_1106">
<rect width="16" height="16" fill="white"/>
</clipPath>
</defs>
</svg>
