<svg width="16" height="16" viewBox="0 0 16 16" fill="none" xmlns="http://www.w3.org/2000/svg">
<g clip-path="url(#clip0_140_15759)">
<path fill-rule="evenodd" clip-rule="evenodd" d="M3 8C3 10 1.336 10.163 1.276 10.193C0.781 10.437 0.577 11.037 0.821 11.532C2.126 14.178 4.852 16 8 16C12.415 16 16 12.415 16 8C16 3.585 12.415 0 8 0C4.852 0 2.126 1.822 0.821 4.468C0.577 4.963 0.781 5.563 1.276 5.807C1.336 5.837 3 6 3 8ZM1 7C0.448 7 0 7.448 0 8C0 8.552 0.448 9 1 9C1.552 9 2 8.552 2 8C2 7.448 1.552 7 1 7Z" fill="url(#paint0_linear_140_15759)"/>
<path opacity="0.8" d="M11.125 9.70426C11.125 9.92536 11.0553 10.1474 10.9162 10.3252C10.89 10.36 10.7683 10.5038 10.6726 10.5973L10.6203 10.6484C9.88955 11.4232 8.0712 12.5885 7.14895 12.9618C7.14895 12.9704 6.60085 13.1923 6.3398 13.2H6.30505C5.9048 13.2 5.5307 12.9797 5.3393 12.6225C5.2349 12.426 5.1392 11.8561 5.1305 11.8485C5.0522 11.3373 5 10.5548 5 9.69576C5 8.79501 5.0522 7.97766 5.14785 7.47581C5.14785 7.46731 5.2436 7.00801 5.3045 6.85496C5.4002 6.63464 5.5742 6.44664 5.7917 6.32758C5.96575 6.24339 6.14845 6.20001 6.3398 6.20001C6.53995 6.20939 6.91405 6.33608 7.06195 6.39564C8.03635 6.76991 9.89825 7.99461 10.6117 8.74311C10.7335 8.86221 10.864 9.00766 10.8988 9.04081C11.0467 9.22796 11.125 9.45756 11.125 9.70426Z" fill="#B85C68"/>
<path d="M12.125 7.70426C12.125 7.92536 12.0553 8.14741 11.9162 8.32516C11.89 8.36001 11.7683 8.50376 11.6726 8.59731L11.6203 8.64841C10.8895 9.42321 9.0712 10.5885 8.14895 10.9618C8.14895 10.9704 7.60085 11.1923 7.3398 11.2H7.30505C6.9048 11.2 6.5307 10.9797 6.3393 10.6225C6.2349 10.426 6.1392 9.85611 6.1305 9.84851C6.0522 9.33731 6 8.55481 6 7.69576C6 6.79501 6.0522 5.97766 6.14785 5.47581C6.14785 5.46731 6.2436 5.00801 6.3045 4.85496C6.4002 4.63464 6.5742 4.44664 6.7917 4.32758C6.96575 4.24339 7.14845 4.20001 7.3398 4.20001C7.53995 4.20939 7.91405 4.33608 8.06195 4.39564C9.03635 4.76991 10.8983 5.99461 11.6117 6.74311C11.7335 6.86221 11.864 7.00766 11.8988 7.04081C12.0467 7.22796 12.125 7.45756 12.125 7.70426Z" fill="url(#paint1_linear_140_15759)"/>
</g>
<defs>
<linearGradient id="paint0_linear_140_15759" x1="-0.231314" y1="0.15744" x2="16.2633" y2="17.1567" gradientUnits="userSpaceOnUse">
<stop stop-color="#F9D423"/>
<stop offset="0.515624" stop-color="#FF4E50"/>
<stop offset="0.991304" stop-color="#8A2387"/>
</linearGradient>
<linearGradient id="paint1_linear_140_15759" x1="6.4375" y1="10.7714" x2="12.3583" y2="7.97561" gradientUnits="userSpaceOnUse">
<stop stop-color="#D4A4C4"/>
<stop offset="0.5" stop-color="#F7B1B3"/>
<stop offset="1" stop-color="#F7E1A3"/>
</linearGradient>
<clipPath id="clip0_140_15759">
<rect width="16" height="16" fill="white"/>
</clipPath>
</defs>
</svg>
