<svg width="16" height="16" viewBox="0 0 16 16" fill="none" xmlns="http://www.w3.org/2000/svg">
<path fill-rule="evenodd" clip-rule="evenodd" d="M1.98534 8.10757C2.43883 8.10757 2.80645 7.73995 2.80645 7.28645V2.2366C2.80645 1.73773 3.21084 1.33337 3.70968 1.33337H7.32258C7.82145 1.33337 8.22581 1.73773 8.22581 2.2366V7.28645C8.22581 7.73995 8.59342 8.10757 9.04692 8.10757H9.10813C9.27035 8.10757 9.42968 8.14579 9.57018 8.21838C9.71063 8.291 9.82731 8.39549 9.90843 8.52125C9.98952 8.64708 10.0323 8.78975 10.0323 8.93496C10.0323 9.08026 9.98964 9.22293 9.90852 9.34872L8.11192 12.1341L6.31622 14.9194C6.23514 15.0453 6.11846 15.1498 5.97796 15.2224C5.83747 15.2951 5.67809 15.3334 5.5158 15.3334C5.35359 15.3334 5.19417 15.2951 5.05368 15.2224C4.91318 15.1498 4.79655 15.0453 4.71542 14.9194L2.91972 12.1341L1.12402 9.34872C1.04743 9.23011 1.00495 9.09623 1.00039 8.95927C0.996785 8.84858 1.01801 8.73839 1.06283 8.63517C1.10765 8.53196 1.17514 8.43786 1.2613 8.35846C1.34747 8.27906 1.45055 8.21591 1.56446 8.17285C1.67836 8.1297 1.80076 8.10753 1.92441 8.10757H1.98534Z" fill="url(#paint0_linear_43_1718)"/>
<path fill-rule="evenodd" clip-rule="evenodd" d="M8.46682 11.5839L9.90852 9.34876C9.98964 9.22296 10.0323 9.0803 10.0323 8.935C10.0323 8.78978 9.98952 8.64712 9.90843 8.52128C9.82731 8.39553 9.71063 8.29104 9.57018 8.21841C9.42968 8.14583 9.27035 8.1076 9.10813 8.1076H9.04692C8.82043 8.1076 8.61537 8.01591 8.46682 7.86763V11.5839ZM8.22871 7.35605C8.22868 7.35566 8.22865 7.35527 8.22861 7.35488C8.22675 7.33233 8.22581 7.30952 8.22581 7.28649V4.44714L7.10065 6.19238C7.03849 6.28868 7.00402 6.39738 7.00032 6.50858C6.99739 6.59844 7.01462 6.68791 7.05099 6.77171C7.08739 6.85551 7.14219 6.93191 7.21212 6.99638C7.28209 7.06084 7.36582 7.11211 7.45829 7.14708C7.55075 7.18211 7.65012 7.20011 7.75052 7.20008H7.80015C7.96334 7.20008 8.11283 7.2587 8.22871 7.35605Z" fill="#279FD7"/>
<path fill-rule="evenodd" clip-rule="evenodd" d="M8.10053 4.85897C8.03837 4.95527 8.0039 5.06397 8.0002 5.17517C7.99726 5.26503 8.0145 5.3545 8.05087 5.4383C8.08727 5.5221 8.14207 5.5985 8.212 5.66297C8.28197 5.72743 8.3657 5.7787 8.45816 5.81367C8.55063 5.8487 8.65 5.8667 8.7504 5.86667H8.80003C9.16823 5.86667 9.4667 6.16513 9.4667 6.53333V10.6333C9.4667 11.0384 9.79503 11.3667 10.2 11.3667H13.1334C13.5384 11.3667 13.8667 11.0384 13.8667 10.6333V6.53333C13.8667 6.16513 14.1652 5.86667 14.5334 5.86667H14.5829C14.7146 5.86667 14.844 5.83563 14.958 5.7767C15.0721 5.71773 15.1668 5.6329 15.2327 5.5308C15.2985 5.42863 15.3332 5.3128 15.3332 5.1949C15.3332 5.07693 15.2986 4.9611 15.2327 4.85897L13.7741 2.5975L12.3161 0.336053C12.2503 0.233887 12.1556 0.14904 12.0415 0.0900466C11.9274 0.0310566 11.798 0 11.6663 0C11.5346 0 11.4051 0.0310566 11.2911 0.0900466C11.177 0.14904 11.0823 0.233887 11.0164 0.336053L9.5585 2.5975L8.10053 4.85897Z" fill="url(#paint1_linear_43_1718)"/>
<defs>
<linearGradient id="paint0_linear_43_1718" x1="1.90323" y1="15.3377" x2="8.77679" y2="2.03242" gradientUnits="userSpaceOnUse">
<stop stop-color="#22B4FA"/>
<stop offset="1" stop-color="#6BD6FE"/>
</linearGradient>
<linearGradient id="paint1_linear_43_1718" x1="9.5" y1="8.83337" x2="16.5031" y2="7.78029" gradientUnits="userSpaceOnUse">
<stop offset="0.171085" stop-color="#6BD6FE"/>
<stop offset="1" stop-color="white"/>
</linearGradient>
</defs>
</svg>
