<svg width="16" height="16" viewBox="0 0 16 16" fill="none" xmlns="http://www.w3.org/2000/svg">
<path fill-rule="evenodd" clip-rule="evenodd" d="M6.05303 2.07777C7.23628 1.86076 8.4578 2.10179 9.46994 2.752C9.95925 3.06634 10.3819 3.46492 10.7214 3.92462C11.1297 4.47776 11.7591 4.86117 12.4347 4.9887C13.0421 5.10335 13.6182 5.34533 14.1254 5.69871C14.6325 6.05208 15.059 6.50885 15.3769 7.03896C15.6947 7.56906 15.8968 8.16047 15.9694 8.77425C16.0424 9.38802 15.9844 10.0103 15.7994 10.6C15.6143 11.1898 15.3065 11.7337 14.8963 12.1959C14.4859 12.6581 13.9823 13.0282 13.4186 13.2817C12.8548 13.5354 12.2434 13.6666 11.6253 13.6672H3.64352C3.13817 13.6658 3.07687 12.871 3.2819 12.4091C3.37619 12.1967 3.42857 11.9616 3.42857 11.7143C3.42857 10.7675 2.66106 10 1.71429 10C1.21991 10 0.774409 10.2093 0.46154 10.5441C0.327287 10.6877 0.0510494 10.6534 0.0271331 10.4583C-0.0811529 9.5746 0.136968 8.68182 0.640513 7.94764C0.779768 7.7446 0.938202 7.55756 1.11282 7.3886C1.67366 6.84591 2.13915 6.16288 2.35751 5.41363C2.5128 4.8808 2.7618 4.37473 3.09775 3.92067C3.81329 2.9536 4.86976 2.2948 6.05303 2.07777ZM1.37146 12.9714C1.8764 12.9714 2.28574 12.5621 2.28574 12.0571C2.28574 11.5522 1.8764 11.1429 1.37146 11.1429C0.86651 11.1429 0.457171 11.5522 0.457171 12.0571C0.457171 12.5621 0.86651 12.9714 1.37146 12.9714Z" fill="url(#paint0_linear_15_1515)"/>
<path d="M5.82474 9.02737C5.03882 8.83131 4.60164 8.20641 4.59998 7.27949C4.59998 6.98331 4.62083 6.84148 4.69509 6.65042C4.87613 6.18323 5.35669 5.83115 5.98826 5.701C6.3028 5.63675 6.39958 5.56751 6.39958 5.40649C6.39958 5.35643 6.43712 5.20625 6.48301 5.0736C6.69075 4.46956 7.07537 3.96647 7.48585 3.76123C7.91552 3.54598 8.13327 3.49759 8.65305 3.50009C9.39224 3.50426 9.76014 3.66445 10.2757 4.20592L10.4116 4.34847C10.5017 4.44308 10.6387 4.47641 10.7621 4.43375L10.813 4.41616C12.042 3.99066 13.2676 4.71484 13.3669 5.92543L13.3763 6.04201C13.3868 6.17268 13.4729 6.28509 13.5963 6.32934L13.6355 6.34341C14.3271 6.5912 14.6517 7.11096 14.5933 7.87602C14.5549 8.37577 14.3213 8.77541 13.9509 8.97314L13.8501 9.0272C13.8018 9.05306 13.7479 9.06666 13.6931 9.06675L9.90698 9.07409C6.93354 9.07993 5.98826 9.06825 5.82474 9.02737Z" fill="#7FD1AE"/>
<path d="M7.22476 7.52737C6.43885 7.33131 6.00167 6.70641 6 5.77949C6 5.48331 6.02086 5.34148 6.09511 5.15042C6.27616 4.68323 6.75672 4.33115 7.38829 4.201C7.70282 4.13675 7.7996 4.06751 7.7996 3.90649C7.7996 3.85643 7.83715 3.70625 7.88303 3.5736C8.09078 2.96956 8.47539 2.46647 8.88587 2.26123C9.31554 2.04598 9.5333 1.99759 10.0531 2.00009C10.7923 2.00426 11.1602 2.16445 11.6758 2.70592L11.8116 2.84847C11.9017 2.94308 12.0387 2.97641 12.1622 2.93375L12.2131 2.91616C13.442 2.49066 14.6676 3.21484 14.7669 4.42543L14.7763 4.54201C14.7868 4.67268 14.8729 4.78509 14.9963 4.82934L15.0355 4.84341C15.7272 5.0912 16.0517 5.61096 15.9933 6.37602C15.9549 6.87577 15.7213 7.27541 15.3509 7.47314L15.2501 7.5272C15.2018 7.55306 15.1479 7.56666 15.0931 7.56675L11.307 7.57409C8.33356 7.57993 7.38829 7.56825 7.22476 7.52737Z" fill="url(#paint1_linear_15_1515)"/>
<defs>
<linearGradient id="paint0_linear_15_1515" x1="2" y1="12.2091" x2="16.3337" y2="7.67302" gradientUnits="userSpaceOnUse">
<stop stop-color="#62E8AF"/>
<stop offset="1" stop-color="#B3FBDC"/>
</linearGradient>
<linearGradient id="paint1_linear_15_1515" x1="6" y1="7.5755" x2="6.95293" y2="0.738952" gradientUnits="userSpaceOnUse">
<stop stop-color="#B3FBDC"/>
<stop offset="1" stop-color="white"/>
</linearGradient>
</defs>
</svg>
