<svg width="16" height="16" viewBox="0 0 16 16" fill="none" xmlns="http://www.w3.org/2000/svg">
<g clip-path="url(#clip0_108_470)">
<path fill-rule="evenodd" clip-rule="evenodd" d="M1 13C0.448 13 0 12.552 0 12V3.992C0 1.787 1.787 0 3.992 0C6.357 0 9.643 0 12.008 0C13.067 0 14.082 0.421001 14.831 1.169C15.579 1.918 16 2.933 16 3.992C16 6.357 16 9.643 16 12.008C16 14.213 14.213 16 12.008 16C8.751 16 4 16 4 16C3.448 16 3 15.552 3 15C3 13.896 2.104 13 1 13ZM1 14C1.552 14 2 14.448 2 15C2 15.552 1.552 16 1 16C0.448 16 0 15.552 0 15C0 14.448 0.448 14 1 14Z" fill="url(#paint0_linear_108_470)"/>
<path d="M13.8328 12.1201C13.8328 12.3794 13.7298 12.6279 13.5465 12.8112C13.3633 12.9945 13.1146 13.0975 12.8555 13.0975H9.97732C9.71815 13.0975 9.46954 12.9945 9.28624 12.8112C9.10294 12.6279 9 12.3794 9 12.1201C9 11.861 9.10294 11.6124 9.28624 11.4291C9.46954 11.2459 9.71815 11.1428 9.97732 11.1428H12.8555C13.1146 11.1428 13.3633 11.2459 13.5465 11.4291C13.7298 11.6124 13.8328 11.861 13.8328 12.1201Z" fill="#D49F34"/>
<path d="M1.00402 7.87654C1.02747 8.13459 1.15244 8.37275 1.35145 8.53869C1.55054 8.70451 1.80733 8.78447 2.06538 8.76102C2.32342 8.73755 2.56158 8.61259 2.72752 8.41359L2.98162 8.10867C3.69706 7.24992 4.16747 6.68959 4.56615 6.32863C4.94541 5.98722 5.12264 5.95464 5.23464 5.95464C5.34672 5.95464 5.52527 5.98722 5.90321 6.32863C6.30189 6.68829 6.77108 7.24992 7.48774 8.10867L7.7418 8.41359C7.82286 8.51567 7.92343 8.60054 8.03771 8.66316C8.152 8.7258 8.27763 8.76495 8.4073 8.7783C8.53688 8.79166 8.66796 8.77895 8.79253 8.74093C8.91719 8.70291 9.03297 8.64035 9.1331 8.55692C9.23323 8.47349 9.3156 8.37089 9.37547 8.25514C9.43543 8.13938 9.47147 8.01283 9.48176 7.88292C9.49196 7.753 9.47613 7.62235 9.43516 7.49864C9.39411 7.37494 9.32879 7.26069 9.24299 7.16261L8.9433 6.80165L8.94228 6.80044C8.28593 6.01259 7.72721 5.34194 7.21275 4.87828C6.66681 4.3844 6.03868 3.99999 5.23464 3.99999C4.43068 3.99999 3.80387 4.3844 3.25657 4.87828C2.74205 5.342 2.18326 6.01275 1.52683 6.80072L1.52606 6.80165L1.22635 7.16261C1.06053 7.36171 0.980554 7.6185 1.00402 7.87654Z" fill="#D49F34"/>
<path d="M14.9756 10.9773C14.9756 11.2366 14.8727 11.4851 14.6894 11.6684C14.5061 11.8517 14.2575 11.9546 13.9983 11.9546H11.1201C10.861 11.9546 10.6124 11.8517 10.4291 11.6684C10.2458 11.4851 10.1428 11.2366 10.1428 10.9773C10.1428 10.7182 10.2458 10.4695 10.4291 10.2862C10.6124 10.103 10.861 10 11.1201 10H13.9983C14.2575 10 14.5061 10.103 14.6894 10.2862C14.8727 10.4695 14.9756 10.7182 14.9756 10.9773Z" fill="url(#paint1_linear_108_470)"/>
<path d="M2.00414 6.87654C2.02759 7.13459 2.15256 7.37275 2.35157 7.53869C2.55066 7.70451 2.80745 7.78447 3.0655 7.76102C3.32354 7.73755 3.5617 7.61259 3.72764 7.41359L3.98174 7.10867C4.69718 6.24992 5.16759 5.68959 5.56628 5.32863C5.94553 4.98722 6.12276 4.95464 6.23476 4.95464C6.34685 4.95464 6.5254 4.98722 6.90333 5.32863C7.30201 5.68829 7.7712 6.24992 8.48786 7.10867L8.74192 7.41359C8.82298 7.51567 8.92355 7.60054 9.03784 7.66316C9.15212 7.7258 9.27775 7.76495 9.40742 7.7783C9.537 7.79166 9.66808 7.77895 9.79265 7.74093C9.91731 7.70291 10.0331 7.64035 10.1332 7.55692C10.2334 7.47349 10.3157 7.37089 10.3756 7.25514C10.4355 7.13938 10.4716 7.01283 10.4819 6.88292C10.4921 6.753 10.4763 6.62235 10.4353 6.49864C10.3942 6.37494 10.3289 6.26069 10.2431 6.16261L9.94342 5.80165L9.94241 5.80044C9.28605 5.01259 8.72733 4.34194 8.21287 3.87828C7.66694 3.3844 7.0388 2.99999 6.23476 2.99999C5.4308 2.99999 4.80399 3.3844 4.25669 3.87828C3.74217 4.342 3.18338 5.01275 2.52696 5.80072L2.52618 5.80165L2.22647 6.16261C2.06065 6.36171 1.98068 6.6185 2.00414 6.87654Z" fill="url(#paint2_linear_108_470)"/>
</g>
<defs>
<linearGradient id="paint0_linear_108_470" x1="3" y1="14.9988" x2="12.9991" y2="2.999" gradientUnits="userSpaceOnUse">
<stop stop-color="#FF8860"/>
<stop offset="1" stop-color="#FBD92C"/>
</linearGradient>
<linearGradient id="paint1_linear_108_470" x1="11.351" y1="11.466" x2="12.0304" y2="9.78613" gradientUnits="userSpaceOnUse">
<stop stop-color="#FBD92C"/>
<stop offset="1" stop-color="white"/>
</linearGradient>
<linearGradient id="paint2_linear_108_470" x1="8.36369" y1="6.58758" x2="6.31733" y2="2.9578" gradientUnits="userSpaceOnUse">
<stop stop-color="#FBD92C"/>
<stop offset="1" stop-color="white"/>
</linearGradient>
<clipPath id="clip0_108_470">
<rect width="16" height="16" fill="white"/>
</clipPath>
</defs>
</svg>
