<svg width="16" height="16" viewBox="0 0 16 16" fill="none" xmlns="http://www.w3.org/2000/svg">
<path fill-rule="evenodd" clip-rule="evenodd" d="M3.88338 8.86112C3.88338 10.5833 2.45049 10.7237 2.39883 10.7495C1.97258 10.9596 1.79691 11.4763 2.00702 11.9026C3.13077 14.1811 5.47816 15.75 8.18894 15.75C11.9907 15.75 15.0778 12.6629 15.0778 8.86112C15.0778 5.05931 11.9907 1.97223 8.18894 1.97223C5.47816 1.97223 3.13077 3.54117 2.00702 5.81967C1.79691 6.24592 1.97258 6.76259 2.39883 6.9727C2.45049 6.99853 3.88338 7.1389 3.88338 8.86112ZM2.16116 8.00001C1.68583 8.00001 1.30005 8.38578 1.30005 8.86112C1.30005 9.33645 1.68583 9.72223 2.16116 9.72223C2.63649 9.72223 3.02227 9.33645 3.02227 8.86112C3.02227 8.38578 2.63649 8.00001 2.16116 8.00001Z" fill="url(#paint0_linear_31_738)"/>
<path fill-rule="evenodd" clip-rule="evenodd" d="M6.4668 6.70834V9.29167C6.4668 9.57928 6.6106 9.84881 6.84999 10.0081L9.43332 11.7303C9.82944 11.9938 10.3642 11.8871 10.6277 11.4918C10.8912 11.0957 10.7844 10.561 10.3892 10.2975L8.18902 8.83098V6.70834C8.18902 6.23301 7.80324 5.84723 7.32791 5.84723C6.85257 5.84723 6.4668 6.23301 6.4668 6.70834Z" fill="#D84F4F"/>
<path fill-rule="evenodd" clip-rule="evenodd" d="M7.32776 6.27774V8.86107C7.32776 9.14868 7.47156 9.41821 7.71095 9.57751L10.2943 11.2997C10.6904 11.5632 11.2251 11.4565 11.4886 11.0612C11.7521 10.6651 11.6454 10.1303 11.2501 9.86685L9.04998 8.40038V6.27774C9.04998 5.8024 8.6642 5.41663 8.18887 5.41663C7.71354 5.41663 7.32776 5.8024 7.32776 6.27774Z" fill="url(#paint1_linear_31_738)"/>
<path fill-rule="evenodd" clip-rule="evenodd" d="M5.31082 0.510326C5.34963 0.571924 5.37585 0.640614 5.38793 0.712414C5.40001 0.784214 5.39772 0.857698 5.38121 0.928608C5.36469 0.999517 5.33427 1.06645 5.2917 1.12551C5.24913 1.18458 5.19527 1.23462 5.13323 1.27272L2.15484 3.11747C2.02914 3.19537 1.87781 3.22057 1.73366 3.18761C1.5895 3.15465 1.46415 3.0662 1.38479 2.94142C1.34598 2.87982 1.31976 2.81113 1.30768 2.73933C1.2956 2.66754 1.29788 2.59405 1.3144 2.52314C1.33092 2.45223 1.36134 2.38531 1.40391 2.32623C1.44648 2.26717 1.50034 2.21713 1.56238 2.17902L4.54154 0.334277C4.66722 0.256381 4.81856 0.231176 4.96272 0.264133C5.10688 0.297089 5.23222 0.385556 5.31158 0.510326H5.31082ZM11.067 0.510326C11.1464 0.385764 11.2716 0.297451 11.4156 0.264502C11.5596 0.231552 11.7107 0.256617 11.8363 0.334277L14.8155 2.17902C14.8775 2.21713 14.9314 2.26717 14.9739 2.32623C15.0165 2.38531 15.0469 2.45223 15.0634 2.52314C15.08 2.59405 15.0823 2.66754 15.0702 2.73933C15.0581 2.81113 15.0319 2.87982 14.9931 2.94142C14.9137 3.0662 14.7884 3.15465 14.6442 3.18761C14.5001 3.22057 14.3487 3.19537 14.223 3.11747L11.2446 1.27272C11.1826 1.23468 11.1286 1.18469 11.086 1.12565C11.0433 1.06661 11.0128 0.999691 10.9962 0.928775C10.9796 0.857865 10.9773 0.78436 10.9893 0.712532C11.0013 0.640704 11.0275 0.571973 11.0663 0.510326H11.067Z" fill="url(#paint2_linear_31_738)" stroke="url(#paint3_linear_31_738)" stroke-width="0.4"/>
<defs>
<linearGradient id="paint0_linear_31_738" x1="3.88338" y1="14.0278" x2="12.4945" y2="3.69445" gradientUnits="userSpaceOnUse">
<stop stop-color="#FF405B"/>
<stop offset="1" stop-color="#FF8860"/>
</linearGradient>
<linearGradient id="paint1_linear_31_738" x1="8.5574" y1="11.4442" x2="10.9651" y2="7.34953" gradientUnits="userSpaceOnUse">
<stop stop-color="#FF8860"/>
<stop offset="1" stop-color="white"/>
</linearGradient>
<linearGradient id="paint2_linear_31_738" x1="3.88338" y1="2.83278" x2="4.5324" y2="-0.802528" gradientUnits="userSpaceOnUse">
<stop stop-color="#FF405B"/>
<stop offset="1" stop-color="#FF8860"/>
</linearGradient>
<linearGradient id="paint3_linear_31_738" x1="3.88338" y1="2.83278" x2="4.5324" y2="-0.802528" gradientUnits="userSpaceOnUse">
<stop stop-color="#FF405B"/>
<stop offset="1" stop-color="#FF8860"/>
</linearGradient>
</defs>
</svg>
