<svg width="16" height="16" viewBox="0 0 16 16" fill="none" xmlns="http://www.w3.org/2000/svg">
<g clip-path="url(#clip0_140_15766)">
<path fill-rule="evenodd" clip-rule="evenodd" d="M3 8C3 10 1.336 10.163 1.276 10.193C0.781 10.437 0.577 11.037 0.821 11.532C2.126 14.178 4.852 16 8 16C12.415 16 16 12.415 16 8C16 3.585 12.415 0 8 0C4.852 0 2.126 1.822 0.821 4.468C0.577 4.963 0.781 5.563 1.276 5.807C1.336 5.837 3 6 3 8ZM1 7C0.448 7 0 7.448 0 8C0 8.552 0.448 9 1 9C1.552 9 2 8.552 2 8C2 7.448 1.552 7 1 7Z" fill="url(#paint0_linear_140_15766)"/>
<path fill-rule="evenodd" clip-rule="evenodd" d="M8.55235 15.9812C8.63307 15.63 8.95253 14.8962 9.12306 14.7358C9.40832 14.4677 9.54261 13.8658 9.46223 13.2187C9.40255 12.7382 9.43358 12.4884 9.63961 11.7878C9.79911 11.2454 9.96273 10.8588 10.0933 10.7151C10.2056 10.5914 10.418 10.2477 10.564 9.95176C10.8439 9.38442 11.3908 8.77017 11.7306 8.64241C12.071 8.51437 12.3824 7.99301 12.3504 7.6039C12.3124 7.14539 12.1826 6.95456 11.9739 7.05246C11.8529 7.10928 11.7707 7.08793 11.6564 6.96869C11.5214 6.82778 11.4975 6.8344 11.4626 7.02337C11.4407 7.14209 11.3617 7.2454 11.287 7.25092C11.1815 7.25877 11.188 7.17564 11.3179 6.88244C11.4099 6.67487 11.4823 6.34904 11.4794 6.15818C11.4743 5.82021 11.1785 5.04169 11.0386 5.00042C11.0002 4.98907 10.7115 5.20932 10.3986 5.48804C9.55594 6.23854 8.23149 7.1883 8.00192 7.20671C7.89147 7.2156 7.68259 7.19843 7.53814 7.16923C7.27243 7.11551 6.87207 7.29654 5.9255 7.89677C5.51654 8.15608 5.27123 8.22721 4.69186 8.25306C4.24655 8.27293 3.83632 8.36283 3.62408 8.48769C3.30854 8.67332 3.28549 8.71125 3.34425 8.94189C3.37956 9.08044 3.60023 9.38419 3.83426 9.61687L4.25918 10.0403L3.99985 10.4515C3.85672 10.678 3.69811 10.9983 3.64904 11.1626C3.59995 11.3268 3.40926 11.6237 3.22462 11.8228C2.9427 12.1267 2.46158 12.8892 2.16626 13.4723C3.62606 15.0278 5.70043 16 7.99999 16C8.18564 16 8.36983 15.9937 8.55235 15.9812Z" fill="#279FD7"/>
<path d="M9.74508 15.0614C9.77799 15.1004 9.72383 15.5591 9.63453 15.8667C6.5 16.5 3.5 15 2.19995 13.4667C2.57814 13.2843 3.12535 12.9224 3.17889 12.7833C3.39492 12.2217 4.06858 11.1066 4.42459 10.7228C4.60922 10.5238 4.79992 10.2269 4.84901 10.0626C4.89807 9.89834 5.05668 9.57799 5.19982 9.35155L5.45914 8.94032L5.03423 8.51689C4.80019 8.28422 4.57952 7.98047 4.54421 7.84191C4.48545 7.61128 4.50851 7.57334 4.82404 7.38771C5.03628 7.26286 5.44651 7.17295 5.89183 7.15308C6.47119 7.12724 6.7165 7.0561 7.12546 6.79679C8.07204 6.19656 8.47239 6.01553 8.7381 6.06925C8.88256 6.09846 9.09143 6.11563 9.20188 6.10673C9.43146 6.08832 10.7559 5.13856 11.5986 4.38806C11.9115 4.10935 12.2002 3.88909 12.2386 3.90044C12.3784 3.94171 12.6743 4.72023 12.6793 5.0582C12.6823 5.24907 12.6099 5.5749 12.5179 5.78247C12.388 6.07566 12.3814 6.1588 12.487 6.15095C12.5617 6.14543 12.6407 6.04211 12.6625 5.92339C12.6974 5.73442 12.7214 5.7278 12.8563 5.86871C12.9706 5.98796 13.0528 6.0093 13.1739 5.95248C13.3825 5.85458 13.5123 6.04541 13.5503 6.50393C13.5824 6.89303 13.271 7.4144 12.9305 7.54243C12.5908 7.67019 12.0438 8.28445 11.764 8.85179C11.618 9.14771 11.4056 9.49146 11.2932 9.61511C11.1627 9.7588 10.9991 10.1454 10.8396 10.6878C10.6335 11.3884 10.6025 11.6382 10.6622 12.1187C10.7426 12.7658 10.6083 13.3677 10.323 13.6358C10.1077 13.8383 9.65514 14.9546 9.74508 15.0614Z" fill="url(#paint1_linear_140_15766)"/>
</g>
<defs>
<linearGradient id="paint0_linear_140_15766" x1="1.6" y1="16.005" x2="7.3787" y2="-1.33327" gradientUnits="userSpaceOnUse">
<stop offset="0.190745" stop-color="#22B4FA"/>
<stop offset="0.896724" stop-color="#7DDCFF"/>
</linearGradient>
<linearGradient id="paint1_linear_140_15766" x1="2.19995" y1="16.0154" x2="15.6525" y2="12.864" gradientUnits="userSpaceOnUse">
<stop stop-color="#6BD6FE"/>
<stop offset="1" stop-color="white"/>
</linearGradient>
<clipPath id="clip0_140_15766">
<rect width="16" height="16" fill="white"/>
</clipPath>
</defs>
</svg>
