<svg width="16" height="16" viewBox="0 0 16 16" fill="none" xmlns="http://www.w3.org/2000/svg">
<g clip-path="url(#clip0_12_786)">
<path d="M5.72254 2.72638L5.46014 3.19678C5.17214 3.71357 5.02815 3.97197 4.80415 4.14237C4.83615 4.11837 4.86575 4.09277 4.89455 4.06477C4.70651 5.17357 4.79642 6.31169 5.15622 7.37723C5.51603 8.44275 6.13448 9.40239 6.95621 10.1702C7.77796 10.938 8.7773 11.4901 9.86472 11.7769C10.9522 12.0636 12.0938 12.0763 13.1873 11.8135L13.1713 11.6615C13.1145 11.0671 13.0857 10.7695 13.1713 10.4935C13.2569 10.2183 13.4473 9.99512 13.8289 9.54952L14.1761 9.14392C15.5177 7.57592 16.1881 6.79112 15.9537 6.03836C15.7201 5.28556 14.7361 5.06237 12.7681 4.61757L12.2593 4.50237C11.7001 4.37597 11.4201 4.31277 11.1953 4.14237C10.9713 3.97197 10.8273 3.71357 10.5393 3.19678L10.2777 2.72638C9.26414 0.908791 8.75774 0 8.00014 0C7.24254 0 6.73614 0.908791 5.72254 2.72638Z" fill="url(#paint0_linear_12_786)"/>
<path opacity="0.5" fill-rule="evenodd" clip-rule="evenodd" d="M9.86421 11.7765C10.8252 12.0301 11.8284 12.0695 12.8034 11.894C13.0071 11.8573 13.2046 11.9972 13.2249 12.2032V12.2032L13.2253 12.2073C13.4275 14.2981 13.5285 15.3434 12.9153 15.8087C12.3033 16.2727 11.3817 15.8487 9.53933 15.0007L9.06333 14.7815C8.53933 14.5399 8.27773 14.4199 8.00014 14.4199C7.72254 14.4199 7.46094 14.5399 6.93774 14.7815L6.46014 15.0007C4.61855 15.8495 3.69696 16.2735 3.08416 15.8079C2.47178 15.3434 2.57284 14.2981 2.77497 12.2073L2.77537 12.2032V12.2032C2.79878 11.9631 2.98537 11.7768 3.20607 11.6793C3.78078 11.4255 4.18186 10.8505 4.18186 10.1818C4.18186 9.27805 3.44923 8.54542 2.5455 8.54542C2.51066 8.54542 2.47608 8.54651 2.44179 8.54866C1.91965 8.58131 1.31561 8.55447 0.985087 8.14895C0.215169 7.20431 -0.132339 6.61182 0.045788 6.03839C0.280055 5.28602 1.26307 5.06345 3.22883 4.61836L3.23216 4.6176L3.74016 4.5024C4.30016 4.376 4.58015 4.3128 4.80415 4.1424V4.1424C4.83424 4.11951 4.88132 4.14513 4.87566 4.18251C4.71326 5.2539 4.8092 6.34922 5.15624 7.37701C5.51601 8.44246 6.13439 9.40203 6.95599 10.1698C7.77766 10.9376 8.77686 11.4897 9.86421 11.7765Z" fill="url(#paint1_linear_12_786)"/>
<circle cx="1.6104" cy="10.3376" r="1.24675" fill="url(#paint2_linear_12_786)"/>
</g>
<defs>
<linearGradient id="paint0_linear_12_786" x1="7.59905" y1="11.1444" x2="15.6069" y2="2.4253" gradientUnits="userSpaceOnUse">
<stop stop-color="#A056FF"/>
<stop offset="1" stop-color="#C59AFD"/>
</linearGradient>
<linearGradient id="paint1_linear_12_786" x1="3.34532" y1="15.1524" x2="11.0016" y2="5.07963" gradientUnits="userSpaceOnUse">
<stop stop-color="#A056FF"/>
<stop offset="1" stop-color="#C59AFD"/>
</linearGradient>
<linearGradient id="paint2_linear_12_786" x1="0.987023" y1="11.4063" x2="2.63714" y2="9.48115" gradientUnits="userSpaceOnUse">
<stop stop-color="#A056FF"/>
<stop offset="1" stop-color="#C59AFD"/>
</linearGradient>
<clipPath id="clip0_12_786">
<rect width="16" height="16" fill="white"/>
</clipPath>
</defs>
</svg>
