<svg width="16" height="16" viewBox="0 0 16 16" fill="none" xmlns="http://www.w3.org/2000/svg">
<g clip-path="url(#clip0_16_2010)">
<path fill-rule="evenodd" clip-rule="evenodd" d="M1 13C0.448 13 0 12.552 0 12V3.992C0 1.787 1.787 0 3.992 0C6.357 0 9.643 0 12.008 0C13.067 0 14.082 0.421001 14.831 1.169C15.579 1.918 16 2.933 16 3.992C16 6.357 16 9.643 16 12.008C16 14.213 14.213 16 12.008 16C8.751 16 4 16 4 16C3.448 16 3 15.552 3 15C3 13.896 2.104 13 1 13ZM1 14C1.552 14 2 14.448 2 15C2 15.552 1.552 16 1 16C0.448 16 0 15.552 0 15C0 14.448 0.448 14 1 14Z" fill="url(#paint0_linear_16_2010)"/>
<path fill-rule="evenodd" clip-rule="evenodd" d="M6.34604 4.79999C6.05317 4.79999 5.7528 4.90927 5.52533 5.13675L2.83675 7.82561C2.38718 8.2752 2.3882 9.01735 2.8371 9.46626L5.52568 12.1551L5.52573 12.1552C5.97462 12.604 6.71715 12.6051 7.16675 12.1556L7.16679 12.1555L7.73546 11.5868L7.0649 10.9162L7.16679 10.4112C7.08826 10.4896 6.8469 10.2533 6.76764 10.1741L7.67689 9.28809C7.59766 9.20886 7.59793 9.06716 7.67649 8.9886L6.412 7.44751C6.44859 7.41093 6.66774 6.73623 6.72812 6.73623C6.78852 6.73623 6.92862 6.62062 6.96521 6.6572L7.06452 6.37575L7.73507 5.70512L7.16679 5.13677C6.93931 4.90929 6.63891 4.79999 6.34604 4.79999Z" fill="#D84F4F"/>
<path d="M8.65365 4.79999C8.45218 4.79999 8.25057 4.87509 8.09996 5.02569L5.03331 8.09268C4.7321 8.39389 4.73253 8.89795 5.03374 9.19916L8.1004 12.2662C8.40161 12.5673 8.90613 12.5678 9.20734 12.2666L12.274 9.19959C12.5752 8.8984 12.5752 8.39389 12.274 8.09269L9.20734 5.02569C9.05674 4.87509 8.85513 4.79999 8.65365 4.79999Z" fill="#D84F4F"/>
<path fill-rule="evenodd" clip-rule="evenodd" d="M7.34604 3.79999C7.05317 3.79999 6.7528 3.90927 6.52533 4.13675L3.83675 6.82561C3.38718 7.2752 3.3882 8.01735 3.8371 8.46626L6.52568 11.1551L6.52573 11.1552C6.97462 11.604 7.71715 11.6051 8.16675 11.1556L8.16679 11.1555L8.73546 10.5868L8.0649 9.91616L8.16679 9.41115C8.08826 9.48962 7.8469 9.25328 7.76764 9.17406L8.67689 8.28809C8.59766 8.20886 8.59793 8.06716 8.67649 7.9886L7.412 6.44751C7.44859 6.41093 7.66774 5.73623 7.72812 5.73623C7.78852 5.73623 7.92862 5.62062 7.96521 5.6572L8.06452 5.37575L8.73507 4.70512L8.16679 4.13677C7.93931 3.90929 7.63891 3.79999 7.34604 3.79999Z" fill="url(#paint1_linear_16_2010)"/>
<path d="M9.65365 3.79999C9.45218 3.79999 9.25057 3.87509 9.09996 4.02569L6.03331 7.09268C5.7321 7.39389 5.73253 7.89795 6.03374 8.19916L9.1004 11.2662C9.40161 11.5673 9.90613 11.5678 10.2073 11.2666L13.274 8.19959C13.5752 7.8984 13.5752 7.39389 13.274 7.09269L10.2073 4.02569C10.0567 3.87509 9.85513 3.79999 9.65365 3.79999Z" fill="url(#paint2_linear_16_2010)"/>
</g>
<defs>
<linearGradient id="paint0_linear_16_2010" x1="3" y1="14" x2="13" y2="2" gradientUnits="userSpaceOnUse">
<stop stop-color="#FF405B"/>
<stop offset="1" stop-color="#FF8860"/>
</linearGradient>
<linearGradient id="paint1_linear_16_2010" x1="4.65185" y1="9.79999" x2="7.95649" y2="6.92512" gradientUnits="userSpaceOnUse">
<stop stop-color="#FF8860"/>
<stop offset="1" stop-color="white"/>
</linearGradient>
<linearGradient id="paint2_linear_16_2010" x1="7.5" y1="9.79999" x2="10.7387" y2="5.66029" gradientUnits="userSpaceOnUse">
<stop stop-color="#FF8860"/>
<stop offset="1" stop-color="white"/>
</linearGradient>
<clipPath id="clip0_16_2010">
<rect width="16" height="16" fill="white"/>
</clipPath>
</defs>
</svg>
