<svg width="16" height="16" viewBox="0 0 16 16" fill="none" xmlns="http://www.w3.org/2000/svg">
<g clip-path="url(#clip0_112_503)">
<path fill-rule="evenodd" clip-rule="evenodd" d="M12.9824 15C12.9824 15.552 12.5344 16 11.9824 16H3.97442C1.76942 16 -0.0175781 14.213 -0.0175781 12.008C-0.0175781 9.643 -0.0175781 6.357 -0.0175781 3.992C-0.0175781 2.933 0.403422 1.918 1.15142 1.169C1.90042 0.421 2.91542 0 3.97442 0C6.33942 0 9.62542 0 11.9904 0C14.1954 0 15.9824 1.787 15.9824 3.992C15.9824 7.249 15.9824 12 15.9824 12C15.9824 12.552 15.5344 13 14.9824 13C13.8784 13 12.9824 13.896 12.9824 15ZM13.9824 15C13.9824 14.448 14.4304 14 14.9824 14C15.5344 14 15.9824 14.448 15.9824 15C15.9824 15.552 15.5344 16 14.9824 16C14.4304 16 13.9824 15.552 13.9824 15Z" fill="url(#paint0_linear_112_503)"/>
<path fill-rule="evenodd" clip-rule="evenodd" d="M11.7314 10.3H12.8763C13.1655 10.3 13.4 10.5785 13.4 10.922V11.178C13.4 11.5215 13.1655 11.8 12.8763 11.8H11.7314C11.4504 12.3911 10.8477 12.8 10.15 12.8C9.45237 12.8 8.84965 12.3911 8.56862 11.8H2.92377C2.63452 11.8 2.40002 11.5215 2.40002 11.178V10.922C2.40002 10.5785 2.63452 10.3 2.92377 10.3H8.56862C8.84965 9.70891 9.45237 9.29999 10.15 9.29999C10.8477 9.29999 11.4504 9.70891 11.7314 10.3Z" fill="#8C4FD9"/>
<path fill-rule="evenodd" clip-rule="evenodd" d="M5.73335 6.46666C5.73335 7.38714 4.98717 8.13331 4.0667 8.13331C3.14622 8.13331 2.40002 7.38714 2.40002 6.46666C2.40002 5.54619 3.14622 4.79999 4.0667 4.79999C4.98717 4.79999 5.73335 5.54619 5.73335 6.46666ZM9.59112 4.79999H11.8756C12.1652 4.79999 12.4 5.05644 12.4 5.37276V7.56054C12.4 7.87689 12.1652 8.13331 11.8756 8.13331H9.59112C9.3015 8.13331 9.0667 7.87689 9.0667 7.56054V5.37276C9.0667 5.05644 9.3015 4.79999 9.59112 4.79999Z" fill="#8C4FD9"/>
<path fill-rule="evenodd" clip-rule="evenodd" d="M12.2314 9.29999H13.3763C13.6655 9.29999 13.9 9.57846 13.9 9.92199V10.178C13.9 10.5215 13.6655 10.8 13.3763 10.8H12.2314C11.9504 11.3911 11.3477 11.8 10.65 11.8C9.95237 11.8 9.34965 11.3911 9.06862 10.8H3.42377C3.13452 10.8 2.90002 10.5215 2.90002 10.178V9.92199C2.90002 9.57846 3.13452 9.29999 3.42377 9.29999H9.06862C9.34965 8.70891 9.95237 8.29999 10.65 8.29999C11.3477 8.29999 11.9504 8.70891 12.2314 9.29999Z" fill="url(#paint1_linear_112_503)"/>
<path fill-rule="evenodd" clip-rule="evenodd" d="M6.23335 5.46666C6.23335 6.38714 5.48717 7.13331 4.5667 7.13331C3.64622 7.13331 2.90002 6.38714 2.90002 5.46666C2.90002 4.54619 3.64622 3.79999 4.5667 3.79999C5.48717 3.79999 6.23335 4.54619 6.23335 5.46666ZM10.0911 3.79999H12.3756C12.6652 3.79999 12.9 4.05644 12.9 4.37276V6.56054C12.9 6.87689 12.6652 7.13331 12.3756 7.13331H10.0911C9.8015 7.13331 9.5667 6.87689 9.5667 6.56054V4.37276C9.5667 4.05644 9.8015 3.79999 10.0911 3.79999Z" fill="url(#paint2_linear_112_503)"/>
</g>
<defs>
<linearGradient id="paint0_linear_112_503" x1="3.98242" y1="14.8571" x2="14.5707" y2="2.5042" gradientUnits="userSpaceOnUse">
<stop stop-color="#A056FF"/>
<stop offset="1" stop-color="#C59AFD"/>
</linearGradient>
<linearGradient id="paint1_linear_112_503" x1="5.65002" y1="11.8" x2="11.3314" y2="5.8481" gradientUnits="userSpaceOnUse">
<stop stop-color="#C59AFD"/>
<stop offset="1" stop-color="white"/>
</linearGradient>
<linearGradient id="paint2_linear_112_503" x1="5.40002" y1="7.13331" x2="10.8167" y2="1.71665" gradientUnits="userSpaceOnUse">
<stop stop-color="#C59AFD"/>
<stop offset="1" stop-color="white"/>
</linearGradient>
<clipPath id="clip0_112_503">
<rect width="16" height="16" fill="white"/>
</clipPath>
</defs>
</svg>
