<svg width="16" height="16" viewBox="0 0 16 16" fill="none" xmlns="http://www.w3.org/2000/svg">
<g clip-path="url(#clip0_8_401)">
<path fill-rule="evenodd" clip-rule="evenodd" d="M15 3C15.552 3 16 3.448 16 4V12.008C16 14.213 14.213 16 12.008 16C9.643 16 6.357 16 3.992 16C2.933 16 1.918 15.579 1.169 14.831C0.421 14.082 0 13.067 0 12.008C0 9.643 0 6.357 0 3.992C0 1.787 1.787 0 3.992 0C7.249 0 12 0 12 0C12.552 0 13 0.448 13 1C13 2.104 13.896 3 15 3ZM15 2C14.448 2 14 1.552 14 1C14 0.448 14.448 0 15 0C15.552 0 16 0.448 16 1C16 1.552 15.552 2 15 2Z" fill="url(#paint0_linear_8_401)"/>
<path d="M9.71423 7.25898C9.57783 7.03631 9.44437 6.8188 9.3146 6.66396C9.17672 6.4988 8.93488 6.2717 8.56474 6.28645C8.1946 6.3012 7.97193 6.54673 7.84732 6.72221C7.73009 6.88811 7.61506 7.11447 7.49709 7.34746L6.03128 10.2378C5.97599 10.3469 5.93027 10.4376 5.88898 10.5157C5.82971 10.43 5.77122 10.3437 5.7135 10.2569L5.58373 10.0608C5.45536 9.86127 5.31833 9.66742 5.17304 9.4798C5.0369 9.30197 4.86576 9.1539 4.67018 9.04478C4.47071 8.94256 4.25238 8.8823 4.0287 8.86782C3.79217 8.85106 3.55501 8.84469 3.31792 8.84865H2.26723C2.12057 8.84865 1.97991 8.9069 1.8762 9.01066C1.7725 9.11435 1.71423 9.25498 1.71423 9.40164C1.71423 9.54831 1.7725 9.689 1.8762 9.7927C1.97991 9.89639 2.12057 9.95464 2.26723 9.95464H3.29506C3.59516 9.95464 3.78244 9.95464 3.92622 9.96865C4.05893 9.98118 4.1135 10.0011 4.14815 10.0203C4.18281 10.0387 4.22999 10.0719 4.31405 10.1758C4.40474 10.2879 4.50944 10.4435 4.67534 10.6934L4.81322 10.8992C4.95184 11.1078 5.08824 11.3121 5.22096 11.4588C5.36253 11.6158 5.60585 11.8252 5.96566 11.8039C6.324 11.7825 6.54078 11.5458 6.66391 11.3733C6.77746 11.2118 6.8888 10.9921 7.00234 10.7686L8.46741 7.8798C8.52566 7.76551 8.57359 7.6704 8.61709 7.58857C8.66649 7.66671 8.72253 7.75814 8.78889 7.86653L9.2711 8.65399C9.41857 8.8951 9.54981 9.10819 9.67663 9.2763C9.81377 9.45842 9.97082 9.6221 10.1869 9.74303C10.4029 9.86395 10.6241 9.91261 10.8512 9.93473C11.0606 9.95464 11.3105 9.95464 11.5929 9.95464H12.5898C12.7365 9.95464 12.8771 9.89639 12.9809 9.7927C13.0846 9.689 13.1428 9.54831 13.1428 9.40164C13.1428 9.25498 13.0846 9.11435 12.9809 9.01066C12.8771 8.9069 12.7365 8.84865 12.5898 8.84865H11.6165C11.3039 8.84865 11.1078 8.84865 10.9574 8.8339C10.8188 8.81989 10.7627 8.79777 10.7273 8.77787C10.6912 8.75796 10.6433 8.72183 10.5599 8.61049C10.4329 8.43085 10.3135 8.24585 10.2023 8.05602L9.7135 7.25898H9.71423Z" fill="#B85C68" stroke="#B85C68"/>
<path d="M10.6287 5.54463C10.4923 5.32196 10.3588 5.10444 10.229 4.94961C10.0912 4.78444 9.84931 4.55735 9.47917 4.57209C9.10903 4.58684 8.88636 4.83237 8.76175 5.00785C8.64452 5.17375 8.52949 5.40011 8.41152 5.63311L6.94571 8.52342C6.89041 8.63254 6.8447 8.72323 6.80341 8.80139C6.74414 8.71566 6.68564 8.62939 6.62793 8.54259L6.49816 8.34646C6.36979 8.14691 6.23276 7.95306 6.08746 7.76544C5.95133 7.58761 5.78019 7.43955 5.58461 7.33042C5.38514 7.2282 5.16681 7.16794 4.94313 7.15346C4.7066 7.13671 4.46944 7.13034 4.23235 7.13429H3.18166C3.035 7.13429 2.89433 7.19254 2.79063 7.2963C2.68692 7.4 2.62866 7.54063 2.62866 7.68729C2.62866 7.83395 2.68692 7.97465 2.79063 8.07834C2.89433 8.18204 3.035 8.24028 3.18166 8.24028H4.20949C4.50958 8.24028 4.69687 8.24028 4.84064 8.25429C4.97336 8.26683 5.02793 8.28674 5.06258 8.30591C5.09723 8.32434 5.14442 8.35752 5.22848 8.46148C5.31917 8.57356 5.42387 8.72913 5.58977 8.97909L5.72765 9.1848C5.86627 9.39346 6.00267 9.5977 6.13539 9.74443C6.27696 9.90148 6.52028 10.1109 6.88009 10.0895C7.23843 10.0681 7.45521 9.83144 7.57834 9.6589C7.69189 9.49743 7.80322 9.2777 7.91677 9.05429L9.38184 6.16545C9.44009 6.05116 9.48802 5.95604 9.53152 5.87421C9.58092 5.95236 9.63696 6.04379 9.70332 6.15217L10.1855 6.93964C10.333 7.18074 10.4642 7.39383 10.5911 7.56194C10.7282 7.74406 10.8853 7.90775 11.1013 8.02867C11.3173 8.14959 11.5385 8.19826 11.7656 8.22038C11.975 8.24028 12.225 8.24028 12.5074 8.24028H13.5042C13.6509 8.24028 13.7915 8.18204 13.8953 8.07834C13.999 7.97465 14.0572 7.83395 14.0572 7.68729C14.0572 7.54063 13.999 7.4 13.8953 7.2963C13.7915 7.19254 13.6509 7.13429 13.5042 7.13429H12.531C12.2183 7.13429 12.0222 7.13429 11.8718 7.11955C11.7332 7.10554 11.6771 7.08342 11.6418 7.06351C11.6056 7.0436 11.5577 7.00747 11.4744 6.89614C11.3473 6.7165 11.228 6.53149 11.1168 6.34167L10.6279 5.54463H10.6287Z" fill="url(#paint1_linear_8_401)" stroke="url(#paint2_linear_8_401)"/>
</g>
<defs>
<linearGradient id="paint0_linear_8_401" x1="1.14286" y1="15.0204" x2="15.7918" y2="7.11491" gradientUnits="userSpaceOnUse">
<stop stop-color="#B65592"/>
<stop offset="0.5" stop-color="#FB6F71"/>
<stop offset="1" stop-color="#F9CB52"/>
</linearGradient>
<linearGradient id="paint1_linear_8_401" x1="3.44499" y1="9.75308" x2="9.45363" y2="3.03905" gradientUnits="userSpaceOnUse">
<stop stop-color="#D4A4C4"/>
<stop offset="0.5" stop-color="#F7B1B3"/>
<stop offset="1" stop-color="#F7E1A3"/>
</linearGradient>
<linearGradient id="paint2_linear_8_401" x1="3.44499" y1="9.75308" x2="9.45363" y2="3.03905" gradientUnits="userSpaceOnUse">
<stop stop-color="#D4A4C4"/>
<stop offset="0.5" stop-color="#F7B1B3"/>
<stop offset="1" stop-color="#F7E1A3"/>
</linearGradient>
<clipPath id="clip0_8_401">
<rect width="16" height="16" fill="white"/>
</clipPath>
</defs>
</svg>
