<svg width="16" height="16" viewBox="0 0 16 16" fill="none" xmlns="http://www.w3.org/2000/svg">
<path d="M12.8839 5.80023V6.31651C12.8839 6.93622 13.0599 7.54195 13.3914 8.05749L14.2039 9.32109C14.9454 10.4754 14.3792 12.0441 13.0892 12.4086C9.71851 13.3634 6.14886 13.3634 2.77815 12.4086C1.48816 12.0441 0.922001 10.4754 1.66343 9.32109L2.476 8.05749C2.80863 7.53782 2.98503 6.93355 2.98422 6.31651V5.80023C2.98422 2.96505 5.20044 0.666687 7.93371 0.666687C10.6669 0.666687 12.8839 2.96505 12.8839 5.80023Z" fill="url(#paint0_linear_148_15999)"/>
<path d="M4.44507 12.8001C4.6847 13.5365 5.15121 14.1782 5.77781 14.6332C6.4044 15.0882 7.15891 15.3333 7.93331 15.3333C8.70771 15.3333 9.46224 15.0882 10.0888 14.6332C10.7154 14.1782 11.1819 13.5365 11.4216 12.8001C9.11511 13.2328 6.75224 13.2328 4.44507 12.8001Z" fill="url(#paint1_linear_148_15999)"/>
<path fill-rule="evenodd" clip-rule="evenodd" d="M12.8839 6.14871V5.80023C12.8839 4.34105 12.2967 3.02407 11.354 2.08943C11.1347 2.03109 10.9043 2 10.6667 2C9.19391 2 8 3.19391 8 4.66667C8 6.13943 9.19391 7.33333 10.6667 7.33333C11.591 7.33333 12.4055 6.86305 12.8839 6.14871Z" fill="#D84F4F"/>
<path d="M11.8672 6.00002C13.34 6.00002 14.5339 4.80611 14.5339 3.33335C14.5339 1.86059 13.34 0.666687 11.8672 0.666687C10.3945 0.666687 9.20056 1.86059 9.20056 3.33335C9.20056 4.80611 10.3945 6.00002 11.8672 6.00002Z" fill="url(#paint2_linear_148_15999)"/>
<defs>
<linearGradient id="paint0_linear_148_15999" x1="3.80849" y1="11.5674" x2="11.5014" y2="1.78554" gradientUnits="userSpaceOnUse">
<stop stop-color="#FF405B"/>
<stop offset="1" stop-color="#FF8860"/>
</linearGradient>
<linearGradient id="paint1_linear_148_15999" x1="5.75316" y1="15.0167" x2="6.64557" y2="12.0674" gradientUnits="userSpaceOnUse">
<stop stop-color="#FF405B"/>
<stop offset="1" stop-color="#FF8860"/>
</linearGradient>
<linearGradient id="paint2_linear_148_15999" x1="10.7238" y1="5.99991" x2="12.4645" y2="1.85537" gradientUnits="userSpaceOnUse">
<stop stop-color="#FF8860"/>
<stop offset="1" stop-color="white"/>
</linearGradient>
</defs>
</svg>
