<svg width="16" height="16" viewBox="0 0 16 16" fill="none" xmlns="http://www.w3.org/2000/svg">
<path fill-rule="evenodd" clip-rule="evenodd" d="M5.23635 12.1664C6.90316 13.2717 6.11937 14.7486 6.11121 14.8152C6.04103 15.3626 6.42833 15.8642 6.97569 15.9344C9.90205 16.3091 12.9271 15.0442 14.6669 12.4207C17.1069 8.7412 16.1004 3.77211 12.421 1.33212C8.74149 -1.10789 3.77242 -0.101405 1.33243 3.57805C-0.407354 6.20161 -0.39545 9.48043 1.08852 12.0304C1.3662 12.5073 1.97899 12.6689 2.45591 12.3912C2.51407 12.3578 3.56954 11.0611 5.23635 12.1664ZM3.29762 13.2805C2.99255 13.7406 3.11832 14.3615 3.57836 14.6666C4.0384 14.9717 4.65936 14.8459 4.96443 14.3859C5.2695 13.9258 5.14373 13.3049 4.68369 12.9998C4.22365 12.6947 3.60269 12.8205 3.29762 13.2805Z" fill="url(#paint0_linear_249_49)"/>
<path fill-rule="evenodd" clip-rule="evenodd" d="M5.973 12.8669C5.8097 12.628 5.57302 12.3896 5.23635 12.1664C4.80596 11.881 4.41634 11.7557 4.07411 11.7275C3.40774 11.013 3 10.0541 3 9C3 6.79087 4.79086 5 6.99998 5C9.20915 5 11 6.79087 11 9C11 11.2091 9.20915 13 6.99998 13C6.64495 13 6.30073 12.9537 5.973 12.8669Z" fill="#D49F34"/>
<path d="M7.99998 12C10.2091 12 12 10.2091 12 8C12 5.79087 10.2091 4 7.99998 4C5.79086 4 4 5.79087 4 8C4 10.2091 5.79086 12 7.99998 12Z" fill="url(#paint1_linear_249_49)"/>
<path d="M7.99999 10C9.10457 10 10 9.10457 10 8C10 6.89543 9.10457 6 7.99999 6C6.89543 6 6 6.89543 6 8C6 9.10457 6.89543 10 7.99999 10Z" fill="url(#paint2_linear_249_49)"/>
<defs>
<linearGradient id="paint0_linear_249_49" x1="2.99982" y1="14.9979" x2="12.9983" y2="2.99882" gradientUnits="userSpaceOnUse">
<stop stop-color="#FF8860"/>
<stop offset="1" stop-color="#FBD92C"/>
</linearGradient>
<linearGradient id="paint1_linear_249_49" x1="6" y1="10" x2="10" y2="6" gradientUnits="userSpaceOnUse">
<stop stop-color="#FBD92C"/>
<stop offset="1" stop-color="white"/>
</linearGradient>
<linearGradient id="paint2_linear_249_49" x1="6.75" y1="9.74971" x2="9.24977" y2="6.74975" gradientUnits="userSpaceOnUse">
<stop stop-color="#FF8860"/>
<stop offset="1" stop-color="#FBD92C"/>
</linearGradient>
</defs>
</svg>
