<svg width="16" height="16" viewBox="0 0 16 16" fill="none" xmlns="http://www.w3.org/2000/svg">
<g clip-path="url(#clip0_8_575)">
<path fill-rule="evenodd" clip-rule="evenodd" d="M13 8C13 10 14.664 10.163 14.724 10.193C15.219 10.437 15.423 11.037 15.179 11.532C13.874 14.178 11.148 16 8 16C3.585 16 0 12.415 0 8C0 3.585 3.585 0 8 0C11.148 0 13.874 1.822 15.179 4.468C15.423 4.963 15.219 5.563 14.724 5.807C14.664 5.837 13 6 13 8ZM15 7C15.552 7 16 7.448 16 8C16 8.552 15.552 9 15 9C14.448 9 14 8.552 14 8C14 7.448 14.448 7 15 7Z" fill="url(#paint0_linear_8_575)"/>
<path d="M3.84838 5.29039C4.15384 4.90521 4.69354 5.07277 5.11382 5.03787C6.00261 5.08092 6.91093 4.93546 7.78366 5.14725C8.85961 5.45213 9.68173 6.49244 9.72313 7.627C9.75186 8.90587 9.73691 10.1859 9.71737 11.4648C9.69213 12.1873 9.13403 12.8379 8.44041 12.9844C7.83413 13.0683 7.21866 13.0031 6.60777 13.0241C5.9165 13.0474 5.21602 12.8239 4.68321 12.3724C3.88629 11.7219 3.50046 10.6083 3.71634 9.59358C3.92418 8.49859 4.82905 7.58279 5.9119 7.37565C6.71226 7.24999 7.52757 7.34656 8.33363 7.31049C8.12121 6.82525 7.67801 6.42844 7.13949 6.39353C6.19782 6.36211 5.25392 6.40517 4.31232 6.37608C3.80132 6.37025 3.51194 5.67555 3.84838 5.29039ZM5.00817 9.93453C4.88646 10.6107 5.29985 11.3298 5.93257 11.5695C6.47801 11.7673 7.07282 11.6428 7.63899 11.68C7.88242 11.6556 8.2246 11.7614 8.367 11.4916C8.44732 10.5512 8.30263 9.60406 8.39222 8.66267C7.71817 8.69873 7.04298 8.64755 6.36892 8.67547C5.69832 8.7034 5.10465 9.26542 5.00817 9.93453Z" fill="#8C4FD9" stroke="#8C4FD9" stroke-width="0.5"/>
<path d="M4.99121 4.1475C5.29666 3.76233 5.83637 3.92989 6.25665 3.89498C7.14543 3.93804 8.05375 3.79257 8.92648 4.00437C10.0024 4.30925 10.8245 5.34956 10.8659 6.48412C10.8947 7.76298 10.8797 9.04302 10.8602 10.3219C10.835 11.0445 10.2769 11.695 9.58323 11.8416C8.97695 11.9254 8.36148 11.8602 7.75059 11.8812C7.05933 11.9045 6.35885 11.681 5.82603 11.2295C5.02911 10.579 4.64329 9.46539 4.85917 8.4507C5.06701 7.3557 5.97187 6.4399 7.05473 6.23277C7.85508 6.1071 8.67039 6.20368 9.47646 6.16761C9.26403 5.68237 8.82083 5.28556 8.28231 5.25065C7.34064 5.21922 6.39674 5.26229 5.45514 5.2332C4.94414 5.22737 4.65477 4.53266 4.99121 4.1475ZM6.15099 8.79165C6.02929 9.46777 6.44267 10.1869 7.07539 10.4266C7.62083 10.6244 8.21564 10.4999 8.78182 10.5371C9.02524 10.5127 9.36742 10.6186 9.50982 10.3487C9.59014 9.40835 9.44546 8.46118 9.53504 7.51978C8.86099 7.55585 8.1858 7.50466 7.51174 7.53258C6.84114 7.56052 6.24747 8.12254 6.15099 8.79165Z" fill="url(#paint1_linear_8_575)" stroke="url(#paint2_linear_8_575)" stroke-width="0.5"/>
</g>
<defs>
<linearGradient id="paint0_linear_8_575" x1="0.0023438" y1="7.76293" x2="16.0027" y2="7.76293" gradientUnits="userSpaceOnUse">
<stop stop-color="#A93AFF"/>
<stop offset="1" stop-color="#FF81FF"/>
</linearGradient>
<linearGradient id="paint1_linear_8_575" x1="6.32044" y1="11.8857" x2="12.5117" y2="10.3168" gradientUnits="userSpaceOnUse">
<stop stop-color="#C59AFD"/>
<stop offset="1" stop-color="white"/>
</linearGradient>
<linearGradient id="paint2_linear_8_575" x1="6.32044" y1="11.8857" x2="12.5117" y2="10.3168" gradientUnits="userSpaceOnUse">
<stop stop-color="#C59AFD"/>
<stop offset="1" stop-color="white"/>
</linearGradient>
<clipPath id="clip0_8_575">
<rect width="16" height="16" fill="white"/>
</clipPath>
</defs>
</svg>
