<svg width="16" height="16" viewBox="0 0 16 16" fill="none" xmlns="http://www.w3.org/2000/svg">
<g clip-path="url(#clip0_67_1413)">
<path fill-rule="evenodd" clip-rule="evenodd" d="M3 8C3 10 1.336 10.163 1.276 10.193C0.781 10.437 0.577 11.037 0.821 11.532C2.126 14.178 4.852 16 8 16C12.415 16 16 12.415 16 8C16 3.585 12.415 0 8 0C4.852 0 2.126 1.822 0.821 4.468C0.577 4.963 0.781 5.563 1.276 5.807C1.336 5.837 3 6 3 8ZM1 7C0.448 7 0 7.448 0 8C0 8.552 0.448 9 1 9C1.552 9 2 8.552 2 8C2 7.448 1.552 7 1 7Z" fill="url(#paint0_linear_67_1413)"/>
<path d="M7.84235 5.75012C6.44746 5.75012 5.30388 6.89415 5.30388 8.28844V8.29216V8.29588V8.92922C5.30388 9.09708 5.37075 9.25806 5.48976 9.37675C5.60877 9.49544 5.77019 9.56212 5.9385 9.56212C6.10681 9.56212 6.26823 9.49544 6.38724 9.37675C6.50625 9.25806 6.57312 9.09708 6.57312 8.92922V8.29588C6.57313 8.2934 6.57313 8.29091 6.57312 8.28844C6.57312 7.58019 7.13349 7.01928 7.84235 7.01928C8.55059 7.01928 9.11158 7.58019 9.11158 8.28844V8.29216V8.29588V11.4601C9.11158 11.4601 9.11779 11.7391 9.22314 12.0563C9.36967 12.4782 9.61235 12.8605 9.93214 13.1729C9.99065 13.2335 10.0606 13.2818 10.1381 13.3151C10.2156 13.3483 10.2989 13.3659 10.3832 13.3667C10.4675 13.3674 10.5511 13.3515 10.6292 13.3197C10.7073 13.2878 10.7781 13.2408 10.8378 13.1814C10.8975 13.1219 10.9446 13.0512 10.9765 12.9734C11.0084 12.8955 11.0244 12.8121 11.0237 12.728C11.0229 12.6439 11.0053 12.5608 10.972 12.4836C10.9386 12.4063 10.8902 12.3364 10.8295 12.2781C10.5864 12.0363 10.4806 11.8129 10.4279 11.6559C10.3746 11.4983 10.3808 11.4601 10.3808 11.4601V8.29588C10.3808 8.2934 10.3808 8.29091 10.3808 8.28844C10.3808 6.89415 9.23659 5.75012 7.84235 5.75012ZM7.83244 7.65386C7.66425 7.65646 7.50399 7.72555 7.38686 7.84593C7.26972 7.96631 7.20529 8.12815 7.20774 8.29588V11.4601C7.20774 11.4601 7.20744 11.8366 7.29946 12.2955C7.39148 12.7549 7.5612 13.3405 8.02828 13.8063C8.08679 13.8668 8.15681 13.9152 8.23427 13.9484C8.31172 13.9817 8.39504 13.9992 8.47936 14C8.56367 14.0008 8.64731 13.9848 8.72536 13.9529C8.80342 13.9212 8.87433 13.8741 8.93396 13.8147C8.99359 13.7552 9.04074 13.6845 9.07265 13.6066C9.10457 13.5288 9.12059 13.4454 9.11983 13.3614C9.11906 13.2772 9.1015 13.1941 9.06815 13.1169C9.03482 13.0397 8.98638 12.9698 8.92566 12.9114C8.75749 12.7444 8.61054 12.3804 8.5439 12.0488C8.47727 11.7166 8.47697 11.4601 8.47697 11.4601V8.29588C8.4782 8.21116 8.46237 8.12706 8.4304 8.04856C8.39844 7.97006 8.351 7.89876 8.29089 7.83888C8.23078 7.77901 8.15923 7.73179 8.08048 7.7C8.00173 7.66822 7.91738 7.65253 7.83244 7.65386ZM5.92859 10.186C5.76062 10.1886 5.60055 10.2575 5.48345 10.3776C5.36635 10.4977 5.30178 10.6592 5.30388 10.8268V12.7255C5.30388 12.8934 5.37075 13.0544 5.48976 13.1731C5.60877 13.2917 5.77019 13.3584 5.9385 13.3584C6.10681 13.3584 6.26823 13.2917 6.38724 13.1731C6.50625 13.0544 6.57312 12.8934 6.57312 12.7255V10.8268C6.57418 10.7422 6.55822 10.6581 6.52619 10.5798C6.49415 10.5015 6.44668 10.4303 6.38658 10.3706C6.32649 10.3108 6.255 10.2637 6.17634 10.232C6.09767 10.2003 6.01342 10.1847 5.92859 10.186ZM11.65 10.1922C11.5667 10.1922 11.4842 10.2086 11.4072 10.2405C11.3302 10.2724 11.2603 10.3191 11.2013 10.378C11.1424 10.437 11.0956 10.5069 11.0637 10.5839C11.0319 10.6609 11.0154 10.7434 11.0154 10.8268C11.0154 10.9951 11.0823 11.1564 11.2013 11.2754C11.3203 11.3945 11.4817 11.4613 11.65 11.4613C11.8183 11.4613 11.9798 11.3945 12.0988 11.2754C12.2178 11.1564 12.2847 10.9951 12.2847 10.8268C12.2847 10.7434 12.2682 10.6609 12.2364 10.5839C12.2044 10.5069 12.1577 10.437 12.0988 10.378C12.0398 10.3191 11.9699 10.2724 11.8929 10.2405C11.8159 10.2086 11.7334 10.1922 11.65 10.1922Z" fill="#B85C68"/>
<path d="M5.67449 4.41159C6.35042 4.03346 7.1136 3.83862 7.88822 3.84642C8.66226 3.85449 9.42072 4.06471 10.0883 4.45621C10.7565 4.84787 11.3107 5.40718 11.6959 6.07872C12.0812 6.75026 12.2841 7.51071 12.2847 8.28475V8.29591V8.92925C12.2847 9.0971 12.2178 9.25809 12.0988 9.37678C11.9798 9.49547 11.8184 9.56215 11.6501 9.56215C11.4818 9.56215 11.3203 9.49547 11.2013 9.37678C11.0823 9.25809 11.0154 9.0971 11.0154 8.92925V8.29591L11.0167 8.28971L11.0154 8.28475C11.0154 7.73182 10.8706 7.18852 10.5953 6.70886C10.32 6.22919 9.9239 5.82988 9.44623 5.55061C8.96913 5.27091 8.42708 5.12078 7.87392 5.11513C7.32077 5.10947 6.77575 5.24849 6.293 5.51838C6.2201 5.56212 6.13915 5.59077 6.05495 5.60265C5.97076 5.61451 5.88503 5.60936 5.80287 5.58749C5.72071 5.56561 5.64378 5.52746 5.57665 5.47531C5.50953 5.42315 5.45358 5.35805 5.41213 5.28388C5.37068 5.2097 5.34456 5.12795 5.33535 5.04349C5.32613 4.95904 5.33398 4.87359 5.35845 4.79223C5.38293 4.71086 5.42351 4.63524 5.47781 4.56985C5.5321 4.50447 5.59899 4.45065 5.67449 4.41159Z" fill="#B85C68"/>
<path d="M4.31355 5.81905C4.41388 5.76693 4.5269 5.74182 4.64075 5.74637C4.75253 5.75068 4.86114 5.78342 4.95557 5.84126C5.05002 5.8991 5.12693 5.98 5.17851 6.07575C5.23011 6.1715 5.25454 6.2787 5.24935 6.38649C5.24415 6.49429 5.20952 6.59885 5.14894 6.68957C4.83608 7.17503 4.66926 7.73522 4.66926 8.307V11.4613C4.66926 11.6295 4.6024 11.7908 4.48339 11.9096C4.36437 12.0286 4.20296 12.0954 4.03464 12.0954C3.86633 12.0954 3.70491 12.0286 3.5859 11.9096C3.46689 11.7908 3.40002 11.6295 3.40002 11.4613V8.25123C3.40085 8.23797 3.40209 8.22475 3.40374 8.21157C3.42073 7.44403 3.65102 6.69496 4.07059 6.04259C4.1293 5.94839 4.21323 5.87117 4.31355 5.81905Z" fill="#B85C68"/>
<path d="M8.68848 4.90393C7.29359 4.90393 6.15001 6.04796 6.15001 7.44225V7.44597V7.44969V8.08303C6.15001 8.25088 6.21688 8.41187 6.33589 8.53056C6.4549 8.64925 6.61632 8.71593 6.78463 8.71593C6.95294 8.71593 7.11436 8.64925 7.23338 8.53056C7.35239 8.41187 7.41925 8.25088 7.41925 8.08303V7.44969C7.41926 7.4472 7.41926 7.44472 7.41925 7.44225C7.41925 6.734 7.97962 6.17309 8.68848 6.17309C9.39672 6.17309 9.95771 6.734 9.95771 7.44225V7.44597V7.44969V10.6139C9.95771 10.6139 9.96393 10.893 10.0693 11.2101C10.2158 11.632 10.4585 12.0143 10.7783 12.3267C10.8368 12.3874 10.9068 12.4356 10.9843 12.4689C11.0617 12.5022 11.145 12.5197 11.2294 12.5205C11.3136 12.5213 11.3973 12.5053 11.4753 12.4735C11.5534 12.4416 11.6243 12.3946 11.6839 12.3352C11.7436 12.2757 11.7907 12.205 11.8227 12.1272C11.8545 12.0493 11.8706 11.9659 11.8698 11.8818C11.869 11.7977 11.8515 11.7146 11.8182 11.6374C11.7848 11.5601 11.7363 11.4903 11.6756 11.4319C11.4326 11.1901 11.3267 10.9667 11.274 10.8097C11.2207 10.6521 11.2269 10.6139 11.2269 10.6139V7.44969C11.2269 7.4472 11.2269 7.44472 11.2269 7.44225C11.2269 6.04796 10.0827 4.90393 8.68848 4.90393ZM8.67857 6.80767C8.51038 6.81027 8.35012 6.87936 8.23299 6.99974C8.11585 7.12012 8.05142 7.28196 8.05387 7.44969V10.6139C8.05387 10.6139 8.05357 10.9904 8.14559 11.4493C8.23761 11.9087 8.40733 12.4943 8.87441 12.9601C8.93292 13.0206 9.00294 13.069 9.0804 13.1022C9.15785 13.1355 9.24117 13.153 9.32549 13.1538C9.4098 13.1546 9.49344 13.1386 9.57149 13.1068C9.64955 13.075 9.72046 13.0279 9.7801 12.9685C9.83972 12.909 9.88687 12.8383 9.91878 12.7604C9.9507 12.6826 9.96672 12.5993 9.96596 12.5152C9.96519 12.431 9.94763 12.3479 9.91428 12.2707C9.88095 12.1935 9.83251 12.1236 9.77179 12.0652C9.60362 11.8982 9.45667 11.5342 9.39003 11.2026C9.3234 10.8704 9.3231 10.6139 9.3231 10.6139V7.44969C9.32433 7.36496 9.3085 7.28087 9.27653 7.20237C9.24457 7.12387 9.19713 7.05257 9.13702 6.99269C9.07691 6.93282 9.00536 6.88559 8.92661 6.85381C8.84786 6.82202 8.76351 6.80634 8.67857 6.80767ZM6.77472 9.33979C6.60675 9.34239 6.44668 9.41131 6.32958 9.53138C6.21248 9.65152 6.14791 9.81303 6.15001 9.98057V11.8793C6.15001 12.0472 6.21688 12.2082 6.33589 12.3269C6.4549 12.4455 6.61632 12.5122 6.78463 12.5122C6.95294 12.5122 7.11436 12.4455 7.23338 12.3269C7.35239 12.2082 7.41925 12.0472 7.41925 11.8793V9.98057C7.42031 9.89597 7.40435 9.81195 7.37232 9.73364C7.34028 9.65526 7.29281 9.58412 7.23272 9.5244C7.17262 9.46462 7.10113 9.41753 7.02247 9.3858C6.9438 9.35414 6.85955 9.33846 6.77472 9.33979ZM12.4962 9.34599C12.4129 9.34599 12.3303 9.36239 12.2533 9.39431C12.1763 9.42616 12.1064 9.47294 12.0474 9.53183C11.9885 9.59078 11.9418 9.66072 11.9099 9.7377C11.878 9.81468 11.8616 9.89724 11.8616 9.98057C11.8616 10.1489 11.9284 10.3102 12.0474 10.4292C12.1664 10.5483 12.3279 10.6151 12.4962 10.6151C12.6645 10.6151 12.8259 10.5483 12.9449 10.4292C13.0639 10.3102 13.1308 10.1489 13.1308 9.98057C13.1308 9.89724 13.1144 9.81468 13.0825 9.7377C13.0506 9.66072 13.0039 9.59078 12.9449 9.53183C12.886 9.47294 12.816 9.42616 12.739 9.39431C12.6621 9.36239 12.5795 9.34599 12.4962 9.34599Z" fill="url(#paint1_linear_67_1413)"/>
<path d="M6.52062 3.5654C7.19655 3.18727 7.95973 2.99243 8.73435 3.00023C9.50839 3.0083 10.2668 3.21852 10.9345 3.61002C11.6027 4.00168 12.1568 4.56099 12.5421 5.23253C12.9273 5.90407 13.1302 6.66452 13.1308 7.43856V7.44972V8.08306C13.1308 8.25091 13.0639 8.4119 12.9449 8.53059C12.8259 8.64928 12.6645 8.71596 12.4962 8.71596C12.3279 8.71596 12.1664 8.64928 12.0475 8.53059C11.9285 8.4119 11.8616 8.25091 11.8616 8.08306V7.44972L11.8628 7.44352L11.8616 7.43856C11.8616 6.88563 11.7168 6.34233 11.4415 5.86266C11.1662 5.383 10.77 4.98369 10.2924 4.70442C9.81526 4.42472 9.27321 4.27458 8.72005 4.26894C8.1669 4.26328 7.62188 4.4023 7.13913 4.67219C7.06623 4.71593 6.98528 4.74458 6.90108 4.75646C6.81689 4.76832 6.73116 4.76317 6.649 4.7413C6.56684 4.71942 6.48991 4.68127 6.42278 4.62912C6.35566 4.57696 6.29971 4.51186 6.25826 4.43769C6.21681 4.36351 6.19069 4.28176 6.18148 4.1973C6.17226 4.11285 6.18011 4.0274 6.20458 3.94604C6.22906 3.86467 6.26965 3.78905 6.32394 3.72366C6.37823 3.65828 6.44512 3.60446 6.52062 3.5654Z" fill="url(#paint2_linear_67_1413)"/>
<path d="M5.15968 4.97286C5.26001 4.92074 5.37303 4.89563 5.48688 4.90018C5.59866 4.90449 5.70727 4.93723 5.8017 4.99507C5.89615 5.05291 5.97306 5.1338 6.02464 5.22956C6.07624 5.32531 6.10067 5.43251 6.09548 5.5403C6.09028 5.6481 6.05565 5.75266 5.99507 5.84338C5.68221 6.32884 5.51539 6.88903 5.51539 7.46081V10.6151C5.51539 10.7833 5.44853 10.9446 5.32952 11.0635C5.2105 11.1824 5.04909 11.2492 4.88077 11.2492C4.71246 11.2492 4.55104 11.1824 4.43203 11.0635C4.31302 10.9446 4.24615 10.7833 4.24615 10.6151V7.40504C4.24698 7.39178 4.24822 7.37855 4.24987 7.36537C4.26686 6.59784 4.49715 5.84877 4.91672 5.1964C4.97543 5.1022 5.05936 5.02498 5.15968 4.97286Z" fill="url(#paint3_linear_67_1413)"/>
</g>
<defs>
<linearGradient id="paint0_linear_67_1413" x1="-4.74032" y1="0.279675" x2="23.3083" y2="21.0729" gradientUnits="userSpaceOnUse">
<stop stop-color="#F9D423"/>
<stop offset="0.515624" stop-color="#FF4E50"/>
<stop offset="0.991304" stop-color="#8A2387"/>
</linearGradient>
<linearGradient id="paint1_linear_67_1413" x1="6.64859" y1="12.6487" x2="13.4774" y2="9.53037" gradientUnits="userSpaceOnUse">
<stop stop-color="#D4A4C4"/>
<stop offset="0.5" stop-color="#F7B1B3"/>
<stop offset="1" stop-color="#F7E1A3"/>
</linearGradient>
<linearGradient id="paint2_linear_67_1413" x1="6.67438" y1="8.366" x2="12.4188" y2="4.595" gradientUnits="userSpaceOnUse">
<stop stop-color="#D4A4C4"/>
<stop offset="0.5" stop-color="#F7B1B3"/>
<stop offset="1" stop-color="#F7E1A3"/>
</linearGradient>
<linearGradient id="paint3_linear_67_1413" x1="4.3783" y1="10.8605" x2="6.51262" y2="10.5249" gradientUnits="userSpaceOnUse">
<stop stop-color="#D4A4C4"/>
<stop offset="0.5" stop-color="#F7B1B3"/>
<stop offset="1" stop-color="#F7E1A3"/>
</linearGradient>
<clipPath id="clip0_67_1413">
<rect width="16" height="16" fill="white"/>
</clipPath>
</defs>
</svg>
