<svg width="16" height="16" viewBox="0 0 16 16" fill="none" xmlns="http://www.w3.org/2000/svg">
<g clip-path="url(#clip0_42_1568)">
<path fill-rule="evenodd" clip-rule="evenodd" d="M1 13C0.448 13 0 12.552 0 12V3.992C0 1.787 1.787 0 3.992 0C6.357 0 9.643 0 12.008 0C13.067 0 14.082 0.421001 14.831 1.169C15.579 1.918 16 2.933 16 3.992C16 6.357 16 9.643 16 12.008C16 14.213 14.213 16 12.008 16C8.751 16 4 16 4 16C3.448 16 3 15.552 3 15C3 13.896 2.104 13 1 13ZM1 14C1.552 14 2 14.448 2 15C2 15.552 1.552 16 1 16C0.448 16 0 15.552 0 15C0 14.448 0.448 14 1 14Z" fill="url(#paint0_linear_42_1568)"/>
<path d="M6.33411 2.02121C6.33411 1.46864 5.88594 1.01985 5.33344 1.01144C5.01063 1.00652 4.70449 1.00124 4.41394 1.00019C3.88408 0.99827 3.47053 1.43442 3.47053 1.96429V3.42049C3.47053 3.97278 3.91824 4.42049 4.47052 4.42049H5.33411C5.8864 4.42049 6.33411 3.97278 6.33411 3.42049V2.02121ZM2.24328 2.24287C2.24328 1.62918 1.64995 1.16122 1.23309 1.61161C0.979018 1.88611 0.790109 2.21675 0.5 2.5C0.234579 2.75915 0.13592 2.98414 0.0888266 3.25313C-0.0173808 3.85976 0.523192 4.42049 1.13905 4.42049H1.24328C1.79557 4.42049 2.24328 3.97278 2.24328 3.42049V2.24287ZM13.7325 4.42049C14.3487 4.42049 14.8407 3.85878 14.6246 3.28175C14.4648 2.85518 14.2457 2.49886 13.9316 2.19169C13.6073 1.87463 13.2295 1.61243 12.7744 1.41761C12.2102 1.1761 11.6522 1.65897 11.6522 2.27267V3.42049C11.6522 3.97278 12.0999 4.42049 12.6522 4.42049H13.7325ZM7.56136 2.02121C7.56136 1.46864 8.00963 1.02084 8.56219 1.02083C8.86054 1.02083 9.14237 1.02075 9.42498 1.02066C9.97724 1.0205 10.4249 1.46817 10.4249 2.02043V3.42049C10.4249 3.97278 9.97721 4.42049 9.42492 4.42049H8.56136C8.00907 4.42049 7.56136 3.97278 7.56136 3.42049V2.02121ZM14.6135 14.7417C14.9065 14.1996 14.3885 13.6205 13.7723 13.6205H12.6522C12.0999 13.6205 11.6522 14.0682 11.6522 14.6205V15C11.6522 15.5523 12.1033 16.0326 12.6503 15.9562C13.0088 15.9061 13.3747 15.7988 13.8589 15.5688C13.9526 15.5243 14.0383 15.4634 14.111 15.3894C14.327 15.1696 14.4881 14.9737 14.6135 14.7417ZM9.42492 13.6205C9.97721 13.6205 10.4249 14.0682 10.4249 14.6205V15.0562C10.4249 15.5861 10.0114 16.0222 9.48151 16.0201C9.19118 16.019 8.88529 16.0136 8.56276 16.0087C8.00998 16.0003 7.56136 15.5515 7.56136 14.9986V14.6205C7.56136 14.0682 8.00907 13.6205 8.56136 13.6205H9.42492ZM5.33268 16.0088C5.88546 16.0003 6.33411 15.5514 6.33411 14.9986V14.6205C6.33411 14.0682 5.8864 13.6205 5.33411 13.6205H4.48298C3.92586 13.6205 3.47616 14.0758 3.48306 14.6329L3.48844 15.0678C3.49494 15.5929 3.90667 16.0221 4.43176 16.0201C4.71645 16.019 5.01577 16.0137 5.33268 16.0088Z" fill="#D84F4F"/>
<path fill-rule="evenodd" clip-rule="evenodd" d="M11.4 10.185V7.81499C11.4 7.35932 11.1645 6.93619 10.777 6.69659C10.3895 6.45673 9.90602 6.43495 9.49852 6.639L9.12602 6.82553C8.68102 7.04811 8.40002 7.50328 8.40002 8.00152V9.99847C8.40002 10.4967 8.68102 10.9519 9.12602 11.1745L9.49852 11.361C9.90602 11.565 10.3895 11.5433 10.777 11.3034C11.1645 11.0638 11.4 10.6407 11.4 10.185Z" fill="#D84F4F"/>
<path fill-rule="evenodd" clip-rule="evenodd" d="M5.40002 6C5.12502 6 4.90002 6.224 4.90002 6.5C4.90002 7.052 4.45002 7.5 3.90002 7.5C3.62502 7.5 3.40002 7.724 3.40002 8V9.996C3.40002 10.5275 3.61002 11.037 3.98502 11.413C4.36502 11.789 4.87502 12 5.40502 12H7.39502C7.93002 12 8.43502 11.789 8.81502 11.413C9.19002 11.037 9.40002 10.5275 9.40002 9.996V8.004C9.40002 7.4725 9.19002 6.963 8.81502 6.587C8.43502 6.211 7.93002 6 7.39502 6H5.40002ZM3.90002 7C4.17502 7 4.40002 6.776 4.40002 6.5C4.40002 6.224 4.17502 6 3.90002 6C3.62502 6 3.40002 6.224 3.40002 6.5C3.40002 6.776 3.62502 7 3.90002 7ZM6.40002 7H7.40002C7.67602 7 7.90002 7.224 7.90002 7.5C7.90002 7.776 7.67602 8 7.40002 8H6.40002C6.12402 8 5.90002 7.776 5.90002 7.5C5.90002 7.224 6.12402 7 6.40002 7Z" fill="#D84F4F"/>
<path fill-rule="evenodd" clip-rule="evenodd" d="M6.40002 5C6.12502 5 5.90002 5.224 5.90002 5.5C5.90002 6.052 5.45002 6.5 4.90002 6.5C4.62502 6.5 4.40002 6.724 4.40002 7V8.996C4.40002 9.5275 4.61002 10.037 4.98502 10.413C5.36502 10.789 5.87502 11 6.40502 11H8.39502C8.93002 11 9.43502 10.789 9.81502 10.413C10.19 10.037 10.4 9.5275 10.4 8.996L10.4 8.79878C10.4 9.19737 10.5874 9.56151 10.884 9.73958L11.1324 9.8888C11.404 10.052 11.7264 10.0346 11.9847 9.84273C12.243 9.65105 12.4 9.31254 12.4 8.948V7.052C12.4 6.68746 12.243 6.34895 11.9847 6.15727C11.7264 5.96539 11.404 5.94796 11.1324 6.1112L10.884 6.26042C10.5874 6.43849 10.4 6.80263 10.4 7.20122L10.4 7.004C10.4 6.4725 10.19 5.963 9.81502 5.587C9.43502 5.211 8.93002 5 8.39502 5H6.40002ZM4.90002 6C5.17502 6 5.40002 5.776 5.40002 5.5C5.40002 5.224 5.17502 5 4.90002 5C4.62502 5 4.40002 5.224 4.40002 5.5C4.40002 5.776 4.62502 6 4.90002 6Z" fill="url(#paint1_linear_42_1568)"/>
<path d="M13.7045 12.6001H14.8246C15.4408 12.6001 15.9305 13.1624 15.7019 13.7347C15.5309 14.1627 15.2989 14.5201 14.9839 14.8281C14.6617 15.1431 14.2866 15.3736 13.8354 15.542C13.2607 15.7566 12.7045 15.2688 12.7045 14.6554V13.6001C12.7045 13.0478 13.1522 12.6001 13.7045 12.6001Z" fill="url(#paint2_linear_42_1568)"/>
<path d="M11.4772 15.001V13.6001C11.4772 13.0478 11.0295 12.6001 10.4772 12.6001H9.61366C9.06137 12.6001 8.61366 13.0478 8.61366 13.6001V14.9987C8.61366 15.5515 9.06227 16.0005 9.6151 15.9959C9.93777 15.9932 10.2438 15.9889 10.5342 15.9818C11.0639 15.9689 11.4772 15.5309 11.4772 15.001Z" fill="url(#paint3_linear_42_1568)"/>
<path d="M7.38642 13.6001V14.9987C7.38642 15.5515 6.9378 16.0005 6.38498 15.9959C6.0623 15.9932 5.75628 15.9889 5.46584 15.9818C4.93613 15.9689 4.52283 15.5309 4.52283 15.001V13.6001C4.52283 13.0478 4.97054 12.6001 5.52283 12.6001H6.38642C6.9387 12.6001 7.38642 13.0478 7.38642 13.6001Z" fill="url(#paint4_linear_42_1568)"/>
<path d="M5.4662 -0.0201979C5.75675 -0.0191465 6.06289 -0.0138609 6.3857 -0.00894536C6.9382 -0.000532337 7.38638 0.448256 7.38638 1.00082V2.4001C7.38638 2.95239 6.93866 3.4001 6.38638 3.4001H5.52279C4.9705 3.4001 4.52279 2.95239 4.52279 2.40011V0.943903C4.52279 0.414037 4.93634 -0.0221154 5.4662 -0.0201979Z" fill="url(#paint5_linear_42_1568)"/>
<path d="M1.01696 1.1713C1.34193 0.854013 1.72043 0.581232 2.17663 0.377714C2.73709 0.127689 3.29555 0.608791 3.29555 1.22249V2.4001C3.29555 2.95239 2.84783 3.4001 2.29555 3.4001H1.22658C0.610717 3.4001 0.118021 2.8391 0.330294 2.26098C0.486857 1.83458 0.702457 1.47838 1.01696 1.1713Z" fill="url(#paint6_linear_42_1568)"/>
<path d="M14.9838 1.1713C15.298 1.47847 15.517 1.8348 15.6768 2.26137C15.893 2.83839 15.4009 3.4001 14.7847 3.4001H13.7044C13.1521 3.4001 12.7044 2.95239 12.7044 2.40011V1.25228C12.7044 0.638584 13.2625 0.155714 13.8267 0.397229C14.2818 0.592046 14.6596 0.854248 14.9838 1.1713Z" fill="url(#paint7_linear_42_1568)"/>
<path d="M10.4772 0.000276897L9.61445 0.000446986C9.06189 0.000451596 8.61362 0.448256 8.61362 1.00082V2.4001C8.61362 2.95239 9.06133 3.4001 9.61362 3.4001H10.4772C11.0295 3.4001 11.4772 2.95239 11.4772 2.40011V1.00004C11.4772 0.447782 11.0295 0.00011231 10.4772 0.000276897Z" fill="url(#paint8_linear_42_1568)"/>
</g>
<defs>
<linearGradient id="paint0_linear_42_1568" x1="3" y1="14" x2="13" y2="2" gradientUnits="userSpaceOnUse">
<stop stop-color="#FF405B"/>
<stop offset="1" stop-color="#FF8860"/>
</linearGradient>
<linearGradient id="paint1_linear_42_1568" x1="6.68484" y1="10.9999" x2="8.25674" y2="6.00989" gradientUnits="userSpaceOnUse">
<stop stop-color="#FF8860"/>
<stop offset="1" stop-color="white"/>
</linearGradient>
<linearGradient id="paint2_linear_42_1568" x1="7.80074" y1="16" x2="8.18159" y2="12.9392" gradientUnits="userSpaceOnUse">
<stop stop-color="#FF8860"/>
<stop offset="1" stop-color="white"/>
</linearGradient>
<linearGradient id="paint3_linear_42_1568" x1="7.80074" y1="16" x2="8.18159" y2="12.9392" gradientUnits="userSpaceOnUse">
<stop stop-color="#FF8860"/>
<stop offset="1" stop-color="white"/>
</linearGradient>
<linearGradient id="paint4_linear_42_1568" x1="7.80074" y1="16" x2="8.18159" y2="12.9392" gradientUnits="userSpaceOnUse">
<stop stop-color="#FF8860"/>
<stop offset="1" stop-color="white"/>
</linearGradient>
<linearGradient id="paint5_linear_42_1568" x1="4.59555" y1="3.40003" x2="4.87567" y2="0.298352" gradientUnits="userSpaceOnUse">
<stop stop-color="#FF8860"/>
<stop offset="1" stop-color="white"/>
</linearGradient>
<linearGradient id="paint6_linear_42_1568" x1="4.59555" y1="3.40003" x2="4.87567" y2="0.298352" gradientUnits="userSpaceOnUse">
<stop stop-color="#FF8860"/>
<stop offset="1" stop-color="white"/>
</linearGradient>
<linearGradient id="paint7_linear_42_1568" x1="4.59555" y1="3.40003" x2="4.87567" y2="0.298352" gradientUnits="userSpaceOnUse">
<stop stop-color="#FF8860"/>
<stop offset="1" stop-color="white"/>
</linearGradient>
<linearGradient id="paint8_linear_42_1568" x1="4.59555" y1="3.40003" x2="4.87567" y2="0.298352" gradientUnits="userSpaceOnUse">
<stop stop-color="#FF8860"/>
<stop offset="1" stop-color="white"/>
</linearGradient>
<clipPath id="clip0_42_1568">
<rect width="16" height="16" fill="white"/>
</clipPath>
</defs>
</svg>
