<svg width="16" height="16" viewBox="0 0 16 16" fill="none" xmlns="http://www.w3.org/2000/svg">
<g clip-path="url(#clip0_17_2128)">
<path fill-rule="evenodd" clip-rule="evenodd" d="M3 8C3 6 1.336 5.837 1.276 5.807C0.780999 5.563 0.576999 4.963 0.820999 4.468C2.126 1.822 4.852 0 8 0C12.415 0 16 3.585 16 8C16 12.415 12.415 16 8 16C4.852 16 2.126 14.178 0.820999 11.532C0.576999 11.037 0.780999 10.437 1.276 10.193C1.336 10.163 3 10 3 8ZM1 9C0.448 9 0 8.552 0 8C0 7.448 0.448 7 1 7C1.552 7 2 7.448 2 8C2 8.552 1.552 9 1 9Z" fill="url(#paint0_linear_17_2128)"/>
<path fill-rule="evenodd" clip-rule="evenodd" d="M11.9512 9.79C12.13 9.885 12.268 10.035 12.365 10.185C12.5541 10.495 12.5388 10.875 12.3548 11.21L11.9972 11.81C11.8081 12.13 11.4555 12.33 11.0927 12.33C10.9139 12.33 10.7146 12.28 10.5511 12.18C10.4182 12.095 10.2649 12.065 10.1014 12.065C9.59553 12.065 9.17144 12.48 9.15612 12.975C9.15612 13.55 8.68598 14 8.09839 14H7.40344C6.81071 14 6.34061 13.55 6.34061 12.975C6.33039 12.48 5.90628 12.065 5.40041 12.065C5.23179 12.065 5.07849 12.095 4.95075 12.18C4.78723 12.28 4.58284 12.33 4.40911 12.33C4.04121 12.33 3.68863 12.13 3.49957 11.81L3.14699 11.21C2.95793 10.885 2.94771 10.495 3.13677 10.185C3.21853 10.035 3.37182 9.885 3.54555 9.79C3.68863 9.72 3.7806 9.605 3.86747 9.47C4.12296 9.04 3.96967 8.475 3.53534 8.22C3.02947 7.935 2.86595 7.3 3.15721 6.805L3.49957 6.215C3.79594 5.72 4.42955 5.545 4.94053 5.835C5.38508 6.075 5.96249 5.915 6.22308 5.49C6.30484 5.35 6.35083 5.2 6.34061 5.05C6.33039 4.855 6.3866 4.67 6.48368 4.52C6.67276 4.21 7.01512 4.01 7.38812 4H8.10857C8.48671 4 8.82907 4.21 9.01812 4.52C9.11012 4.67 9.17144 4.855 9.15612 5.05C9.14589 5.2 9.19189 5.35 9.27362 5.49C9.53421 5.915 10.1116 6.075 10.5613 5.835C11.0672 5.545 11.7059 5.72 11.9972 6.215L12.3395 6.805C12.6358 7.3 12.4723 7.935 11.9614 8.22C11.527 8.475 11.3738 9.04 11.6343 9.47C11.7161 9.605 11.8081 9.72 11.9512 9.79ZM6.30483 9.00501C6.30483 9.79001 6.95378 10.415 7.75601 10.415C8.55824 10.415 9.19187 9.79001 9.19187 9.00501C9.19187 8.22001 8.55824 7.59001 7.75601 7.59001C6.95378 7.59001 6.30483 8.22001 6.30483 9.00501Z" fill="#7FD1AE"/>
<path fill-rule="evenodd" clip-rule="evenodd" d="M12.4512 8.79C12.63 8.885 12.768 9.035 12.865 9.185C13.0541 9.495 13.0388 9.875 12.8549 10.21L12.4972 10.81C12.3081 11.13 11.9555 11.33 11.5927 11.33C11.4139 11.33 11.2146 11.28 11.0511 11.18C10.9182 11.095 10.765 11.065 10.6014 11.065C10.0955 11.065 9.67145 11.48 9.65614 11.975C9.65614 12.55 9.186 13 8.59841 13H7.90345C7.31073 13 6.84063 12.55 6.84063 11.975C6.83041 11.48 6.4063 11.065 5.90043 11.065C5.7318 11.065 5.57851 11.095 5.45076 11.18C5.28725 11.28 5.08286 11.33 4.90913 11.33C4.54122 11.33 4.18865 11.13 3.99959 10.81L3.64701 10.21C3.45795 9.885 3.44773 9.495 3.63679 9.185C3.71855 9.035 3.87184 8.885 4.04557 8.79C4.18864 8.72 4.28062 8.605 4.36749 8.47C4.62298 8.04 4.46969 7.475 4.03535 7.22C3.52949 6.935 3.36597 6.3 3.65723 5.805L3.99959 5.215C4.29595 4.72 4.92957 4.545 5.44055 4.835C5.8851 5.075 6.4625 4.915 6.7231 4.49C6.80486 4.35 6.85085 4.2 6.84063 4.05C6.83041 3.855 6.88661 3.67 6.9837 3.52C7.17277 3.21 7.51514 3.01 7.88814 3H8.60859C8.98673 3 9.32909 3.21 9.51814 3.52C9.61014 3.67 9.67145 3.855 9.65614 4.05C9.64591 4.2 9.69191 4.35 9.77364 4.49C10.0342 4.915 10.6116 5.075 11.0613 4.835C11.5672 4.545 12.2059 4.72 12.4972 5.215L12.8395 5.805C13.1359 6.3 12.9724 6.935 12.4614 7.22C12.027 7.475 11.8738 8.04 12.1344 8.47C12.2161 8.605 12.3081 8.72 12.4512 8.79ZM6.80484 8.00501C6.80484 8.79001 7.4538 9.41501 8.25603 9.41501C9.05826 9.41501 9.69189 8.79001 9.69189 8.00501C9.69189 7.22001 9.05826 6.59001 8.25603 6.59001C7.4538 6.59001 6.80484 7.22001 6.80484 8.00501Z" fill="url(#paint1_linear_17_2128)"/>
</g>
<defs>
<linearGradient id="paint0_linear_17_2128" x1="2" y1="14.0004" x2="16.972" y2="10.5455" gradientUnits="userSpaceOnUse">
<stop stop-color="#62E8AF"/>
<stop offset="1" stop-color="#B3FBDC"/>
</linearGradient>
<linearGradient id="paint1_linear_17_2128" x1="3.5" y1="13" x2="6.57642" y2="1.30959" gradientUnits="userSpaceOnUse">
<stop stop-color="#B3FBDC"/>
<stop offset="1" stop-color="white"/>
</linearGradient>
<clipPath id="clip0_17_2128">
<rect width="16" height="16" fill="white"/>
</clipPath>
</defs>
</svg>
