<svg width="16" height="16" viewBox="0 0 16 16" fill="none" xmlns="http://www.w3.org/2000/svg">
<path fill-rule="evenodd" clip-rule="evenodd" d="M1 13C0.448 13 0 12.552 0 12V3.992C0 1.787 1.787 0 3.992 0C6.357 0 9.643 0 12.008 0C13.067 0 14.082 0.421001 14.831 1.169C15.579 1.918 16 2.933 16 3.992C16 6.357 16 9.643 16 12.008C16 14.213 14.213 16 12.008 16C8.751 16 4 16 4 16C3.448 16 3 15.552 3 15C3 13.896 2.104 13 1 13ZM1 14C1.552 14 2 14.448 2 15C2 15.552 1.552 16 1 16C0.448 16 0 15.552 0 15C0 14.448 0.448 14 1 14Z" fill="url(#paint0_linear_146_15975)"/>
<path fill-rule="evenodd" clip-rule="evenodd" d="M5.375 4.625C5.375 4.27983 5.65483 4 6 4H8.75C9.09517 4 9.375 4.27983 9.375 4.625V5.625C9.375 5.97017 9.09517 6.25 8.75 6.25H6C5.65483 6.25 5.375 5.97017 5.375 5.625V4.625ZM5.375 10.875C5.375 10.5298 5.65483 10.25 6 10.25H8.75C9.09517 10.25 9.375 10.5298 9.375 10.875V11.875C9.375 12.2202 9.09517 12.5 8.75 12.5H6C5.65483 12.5 5.375 12.2202 5.375 11.875V10.875ZM6 7.125C5.65483 7.125 5.375 7.40483 5.375 7.75V8.75C5.375 9.09517 5.65483 9.375 6 9.375H8.75C9.09517 9.375 9.375 9.09517 9.375 8.75V7.75C9.375 7.40483 9.09517 7.125 8.75 7.125H6Z" fill="#D84F4F"/>
<path d="M0.5 7.75C0.5 7.40483 0.779822 7.125 1.125 7.125H3.875C4.22017 7.125 4.5 7.40483 4.5 7.75V8.75C4.5 9.09517 4.22017 9.375 3.875 9.375H1.125C0.779822 9.375 0.5 9.09517 0.5 8.75V7.75Z" fill="#D84F4F"/>
<path d="M1.125 10.25C0.779822 10.25 0.5 10.5298 0.5 10.875V11.875C0.5 12.2202 0.779822 12.5 1.125 12.5H3.875C4.22017 12.5 4.5 12.2202 4.5 11.875V10.875C4.5 10.5298 4.22017 10.25 3.875 10.25H1.125Z" fill="#D84F4F"/>
<path d="M10.25 10.875C10.25 10.5298 10.5298 10.25 10.875 10.25H13.625C13.9701 10.25 14.25 10.5298 14.25 10.875V11.875C14.25 12.2202 13.9701 12.5 13.625 12.5H10.875C10.5298 12.5 10.25 12.2202 10.25 11.875V10.875Z" fill="#D84F4F"/>
<path fill-rule="evenodd" clip-rule="evenodd" d="M6.375 3.625C6.375 3.27983 6.65483 3 7 3H9.75C10.0952 3 10.375 3.27983 10.375 3.625V4.625C10.375 4.97017 10.0952 5.25 9.75 5.25H7C6.65483 5.25 6.375 4.97017 6.375 4.625V3.625ZM6.375 9.875C6.375 9.52983 6.65483 9.25 7 9.25H9.75C10.0952 9.25 10.375 9.52983 10.375 9.875V10.875C10.375 11.2202 10.0952 11.5 9.75 11.5H7C6.65483 11.5 6.375 11.2202 6.375 10.875V9.875ZM7 6.125C6.65483 6.125 6.375 6.40483 6.375 6.75V7.75C6.375 8.09517 6.65483 8.375 7 8.375H9.75C10.0952 8.375 10.375 8.09517 10.375 7.75V6.75C10.375 6.40483 10.0952 6.125 9.75 6.125H7Z" fill="url(#paint1_linear_146_15975)"/>
<path d="M1.5 6.75C1.5 6.40483 1.77982 6.125 2.125 6.125H4.875C5.22017 6.125 5.5 6.40483 5.5 6.75V7.75C5.5 8.09517 5.22017 8.375 4.875 8.375H2.125C1.77982 8.375 1.5 8.09517 1.5 7.75V6.75Z" fill="url(#paint2_linear_146_15975)"/>
<path d="M2.125 9.25C1.77982 9.25 1.5 9.52983 1.5 9.875V10.875C1.5 11.2202 1.77982 11.5 2.125 11.5H4.875C5.22017 11.5 5.5 11.2202 5.5 10.875V9.875C5.5 9.52983 5.22017 9.25 4.875 9.25H2.125Z" fill="url(#paint3_linear_146_15975)"/>
<path d="M11.25 9.875C11.25 9.52983 11.5298 9.25 11.875 9.25H14.625C14.9701 9.25 15.25 9.52983 15.25 9.875V10.875C15.25 11.2202 14.9701 11.5 14.625 11.5H11.875C11.5298 11.5 11.25 11.2202 11.25 10.875V9.875Z" fill="url(#paint4_linear_146_15975)"/>
<defs>
<linearGradient id="paint0_linear_146_15975" x1="3" y1="14" x2="13" y2="2" gradientUnits="userSpaceOnUse">
<stop stop-color="#FF405B"/>
<stop offset="1" stop-color="#FF8860"/>
</linearGradient>
<linearGradient id="paint1_linear_146_15975" x1="7.51741" y1="11.4998" x2="12.0385" y2="7.53521" gradientUnits="userSpaceOnUse">
<stop stop-color="#FF8860"/>
<stop offset="1" stop-color="white"/>
</linearGradient>
<linearGradient id="paint2_linear_146_15975" x1="2.64241" y1="8.37495" x2="3.10268" y2="6.42677" gradientUnits="userSpaceOnUse">
<stop stop-color="#FF8860"/>
<stop offset="1" stop-color="white"/>
</linearGradient>
<linearGradient id="paint3_linear_146_15975" x1="2.64241" y1="11.5" x2="3.10268" y2="9.55177" gradientUnits="userSpaceOnUse">
<stop stop-color="#FF8860"/>
<stop offset="1" stop-color="white"/>
</linearGradient>
<linearGradient id="paint4_linear_146_15975" x1="12.3924" y1="11.5" x2="12.8527" y2="9.55177" gradientUnits="userSpaceOnUse">
<stop stop-color="#FF8860"/>
<stop offset="1" stop-color="white"/>
</linearGradient>
</defs>
</svg>
