<svg width="16" height="16" viewBox="0 0 16 16" fill="none" xmlns="http://www.w3.org/2000/svg">
<g clip-path="url(#clip0_1_31)">
<path fill-rule="evenodd" clip-rule="evenodd" d="M4.99975 3.1706V2.47669C4.99975 1.81977 5.26072 1.18985 5.72466 0.724909C6.1896 0.260967 6.81952 0 7.47644 0H8.52231C9.17923 0 9.80915 0.260967 10.2741 0.724909C10.738 1.18985 10.999 1.81977 10.999 2.47669V3.1716C11.4169 3.31958 11.7999 3.55956 12.1199 3.87852C12.6828 4.44144 12.9987 5.20535 12.9987 6.00125C12.9987 8.65292 12.9987 12.0005 12.9987 12.0005C12.9987 12.5524 12.5508 12.9984 11.9989 12.9984C10.895 12.9984 9.99912 13.8943 9.99912 14.9981C9.99912 15.5501 9.55118 16 8.99925 16C8.99925 16 7.39345 16 6.00162 16C4.34383 16 3 14.6562 3 12.9984V6.00125C3 4.69441 3.8349 3.58355 4.99975 3.1706ZM11.9989 13.9982C12.5508 13.9982 12.9987 14.4462 12.9987 14.9981C12.9987 15.5501 12.5508 15.998 11.9989 15.998C11.4469 15.998 10.999 15.5501 10.999 14.9981C10.999 14.4462 11.4469 13.9982 11.9989 13.9982Z" fill="url(#paint0_linear_1_31)"/>
<path fill-rule="evenodd" clip-rule="evenodd" d="M5.99957 14.0052H7.99932C8.55125 14.0052 8.99919 13.5573 8.99919 13.0054C8.99919 12.4534 8.55125 12.0055 7.99932 12.0055H5.99957C5.44764 12.0055 4.99969 12.4534 4.99969 13.0054C4.99969 13.5573 5.44764 14.0052 5.99957 14.0052ZM5.99957 11.0056H7.99932C8.55125 11.0056 8.99919 10.5577 8.99919 10.0057C8.99919 9.4538 8.55125 9.00586 7.99932 9.00586H5.99957C5.44764 9.00586 4.99969 9.4538 4.99969 10.0057C4.99969 10.5577 5.44764 11.0056 5.99957 11.0056Z" fill="#8CC860"/>
<path fill-rule="evenodd" clip-rule="evenodd" d="M6.99951 13.0052H8.99926C9.55119 13.0052 9.99913 12.5573 9.99913 12.0054C9.99913 11.4534 9.55119 11.0055 8.99926 11.0055H6.99951C6.44758 11.0055 5.99963 11.4534 5.99963 12.0054C5.99963 12.5573 6.44758 13.0052 6.99951 13.0052Z" fill="url(#paint1_linear_1_31)"/>
<path fill-rule="evenodd" clip-rule="evenodd" d="M6.99951 10.0059H8.99926C9.55119 10.0059 9.99913 9.55791 9.99913 9.00598C9.99913 8.45405 9.55119 8.0061 8.99926 8.0061H6.99951C6.44758 8.0061 5.99963 8.45405 5.99963 9.00598C5.99963 9.55791 6.44758 10.0059 6.99951 10.0059Z" fill="url(#paint2_linear_1_31)"/>
</g>
<defs>
<linearGradient id="paint0_linear_1_31" x1="3.7142" y1="16" x2="14.9843" y2="5.75577" gradientUnits="userSpaceOnUse">
<stop stop-color="#9BE862"/>
<stop offset="1" stop-color="#C8FF9F"/>
</linearGradient>
<linearGradient id="paint1_linear_1_31" x1="6.49957" y1="13.0052" x2="7.97631" y2="10.421" gradientUnits="userSpaceOnUse">
<stop stop-color="#C8FF9F"/>
<stop offset="1" stop-color="white"/>
</linearGradient>
<linearGradient id="paint2_linear_1_31" x1="6.49957" y1="10.0059" x2="7.97631" y2="7.42156" gradientUnits="userSpaceOnUse">
<stop stop-color="#C8FF9F"/>
<stop offset="1" stop-color="white"/>
</linearGradient>
<clipPath id="clip0_1_31">
<rect width="16" height="16" fill="white"/>
</clipPath>
</defs>
</svg>
