<svg width="16" height="16" viewBox="0 0 16 16" fill="none" xmlns="http://www.w3.org/2000/svg">
<path fill-rule="evenodd" clip-rule="evenodd" d="M2.4 16H13.8C14.1314 16 14.4 15.7314 14.4 15.4V15C14.4 14.6686 14.1314 14.4 13.8 14.4H2.4096C2.04 14.3904 1.6 14.244 1.6 13.6C1.6 12.956 2.04 12.8096 2.4096 12.8H11.4909C11.7894 12.8 12 12.4985 12 12.2001C12 11.206 12.8059 10.4001 13.8 10.4001C14.0985 10.4001 14.4 10.1894 14.4 9.8909V1.6C14.4 0.717599 13.6824 0 12.8 0H2.4C1.4352 0 0 0.639203 0 2.4V13.6C0 15.3608 1.4352 16 2.4 16ZM14.4 14.0001C15.0627 14.0001 15.6 13.4629 15.6 12.8001C15.6 12.1374 15.0627 11.6001 14.4 11.6001C13.7372 11.6001 13.2 12.1374 13.2 12.8001C13.2 13.4629 13.7372 14.0001 14.4 14.0001Z" fill="url(#paint0_linear_238_45)"/>
<path d="M5.13336 11.8001C5.13336 12.021 5.3124 12.2001 5.53338 12.2001H6.86664C7.08762 12.2001 7.26665 12.021 7.26665 11.8001V7.80011C7.26665 7.57919 7.44575 7.40009 7.66661 7.40009H8.99999C9.22085 7.40009 9.40001 7.22099 9.40001 7.00007V5.4001C9.40001 5.17921 9.22085 5.00009 8.99999 5.00009H7.66661C7.44575 5.00009 7.26665 4.82101 7.26665 4.60009V3.0001C7.26665 2.77919 7.08762 2.6001 6.86664 2.6001H5.53338C5.3124 2.6001 5.13336 2.77919 5.13336 3.0001V4.60009C5.13336 4.82101 4.95426 5.00009 4.73334 5.00009H3.40002C3.1791 5.00009 3 5.17921 3 5.4001V7.00007C3 7.22099 3.1791 7.40009 3.40002 7.40009H4.73334C4.95426 7.40009 5.13336 7.57919 5.13336 7.80011V11.8001Z" fill="#D49F34"/>
<path d="M6.33343 10.6001C6.33343 10.821 6.51247 11.0001 6.73345 11.0001H8.06671C8.28769 11.0001 8.46673 10.821 8.46673 10.6001V6.60016C8.46673 6.37924 8.64583 6.20014 8.86669 6.20014H10.2001C10.4209 6.20014 10.6001 6.02104 10.6001 5.80012V4.20014C10.6001 3.97926 10.4209 3.80014 10.2001 3.80014H8.86669C8.64583 3.80014 8.46673 3.62106 8.46673 3.40014V1.80015C8.46673 1.57923 8.28769 1.40015 8.06671 1.40015H6.73345C6.51247 1.40015 6.33343 1.57923 6.33343 1.80015V3.40014C6.33343 3.62106 6.15433 3.80014 5.93341 3.80014H4.60009C4.37917 3.80014 4.20007 3.97926 4.20007 4.20014V5.80012C4.20007 6.02104 4.37917 6.20014 4.60009 6.20014H5.93341C6.15433 6.20014 6.33343 6.37924 6.33343 6.60016V10.6001Z" fill="url(#paint1_linear_238_45)"/>
<defs>
<linearGradient id="paint0_linear_238_45" x1="2.925" y1="14.9988" x2="12.9667" y2="3.2491" gradientUnits="userSpaceOnUse">
<stop stop-color="#FF8860"/>
<stop offset="1" stop-color="#FBD92C"/>
</linearGradient>
<linearGradient id="paint1_linear_238_45" x1="5.80008" y1="8.60014" x2="10.2308" y2="5.64628" gradientUnits="userSpaceOnUse">
<stop stop-color="#FBD92C"/>
<stop offset="1" stop-color="white"/>
</linearGradient>
</defs>
</svg>
