<svg width="16" height="16" viewBox="0 0 16 16" fill="none" xmlns="http://www.w3.org/2000/svg">
<g clip-path="url(#clip0_15_1169)">
<path fill-rule="evenodd" clip-rule="evenodd" d="M3 8C3 6 1.336 5.837 1.276 5.807C0.780999 5.563 0.576999 4.963 0.820999 4.468C2.126 1.822 4.852 0 8 0C12.415 0 16 3.585 16 8C16 12.415 12.415 16 8 16C4.852 16 2.126 14.178 0.820999 11.532C0.576999 11.037 0.780999 10.437 1.276 10.193C1.336 10.163 3 10 3 8ZM1 9C0.448 9 0 8.552 0 8C0 7.448 0.448 7 1 7C1.552 7 2 7.448 2 8C2 8.552 1.552 9 1 9Z" fill="url(#paint0_linear_15_1169)"/>
<path fill-rule="evenodd" clip-rule="evenodd" d="M6.97642 9.40369V8.69614C6.97642 8.50087 6.81793 8.34237 6.62264 8.34237H5.91511C5.71981 8.34237 5.56132 8.50087 5.56132 8.69614V9.40369C5.56132 9.59896 5.71981 9.75746 5.91511 9.75746H6.62264C6.81793 9.75746 6.97642 9.59896 6.97642 9.40369ZM6.97642 11.8801V11.1725C6.97642 10.9773 6.81793 10.8188 6.62264 10.8188H5.91511C5.71981 10.8188 5.56132 10.9773 5.56132 11.1725V11.8801C5.56132 12.0754 5.71981 12.2339 5.91511 12.2339H6.62264C6.81793 12.2339 6.97642 12.0754 6.97642 11.8801ZM6.97642 6.92727V6.21974C6.97642 6.02444 6.81793 5.86597 6.62264 5.86597H5.91511C5.71981 5.86597 5.56132 6.02444 5.56132 6.21974V6.92727C5.56132 7.12256 5.71981 7.28106 5.91511 7.28106H6.62264C6.81793 7.28106 6.97642 7.12256 6.97642 6.92727ZM11.2614 9.76437C11.4204 9.56124 11.5 9.30746 11.5 9.05477C11.5 8.77284 11.4105 8.51044 11.2415 8.29656C11.2265 8.28223 11.1959 8.24962 11.156 8.20724C11.0905 8.13741 11 8.04103 10.9134 7.95633C10.098 7.10089 7.97012 5.70124 6.85652 5.2735C6.68751 5.20543 6.25995 5.06063 6.0312 5.04993C5.81252 5.04993 5.60372 5.0995 5.4048 5.19572C5.15624 5.33179 4.95739 5.54663 4.848 5.79844C4.7784 5.97336 4.66899 6.49826 4.66899 6.50797C4.55967 7.08153 4.5 8.01564 4.5 9.04506C4.5 10.0268 4.55967 10.9211 4.64915 11.5054C4.65165 11.5075 4.66035 11.55 4.67391 11.6159C4.71447 11.8134 4.79833 12.2216 4.88779 12.3899C5.10652 12.7982 5.53407 13.0499 5.99151 13.0499H6.0312C6.32955 13.0411 6.95595 12.7875 6.95595 12.7777C8.00995 12.351 10.0881 11.0193 10.9233 10.1338L10.9829 10.0754C11.0923 9.96849 11.2315 9.80421 11.2614 9.76437Z" fill="#D49F34"/>
<path fill-rule="evenodd" clip-rule="evenodd" d="M7.87645 8.15381V7.44626C7.87645 7.25099 7.71795 7.0925 7.52266 7.0925H6.81513C6.61984 7.0925 6.46134 7.25099 6.46134 7.44626V8.15381C6.46134 8.34908 6.61984 8.50758 6.81513 8.50758H7.52266C7.71795 8.50758 7.87645 8.34908 7.87645 8.15381ZM7.87645 10.6302V9.92266C7.87645 9.72739 7.71795 9.5689 7.52266 9.5689H6.81513C6.61984 9.5689 6.46134 9.72739 6.46134 9.92266V10.6302C6.46134 10.8255 6.61984 10.984 6.81513 10.984H7.52266C7.71795 10.984 7.87645 10.8255 7.87645 10.6302ZM7.87645 5.67739V4.96986C7.87645 4.77457 7.71795 4.6161 7.52266 4.6161H6.81513C6.61984 4.6161 6.46134 4.77457 6.46134 4.96986V5.67739C6.46134 5.87268 6.61984 6.03118 6.81513 6.03118H7.52266C7.71795 6.03118 7.87645 5.87268 7.87645 5.67739ZM12.1614 8.5145C12.3204 8.31137 12.4 8.05758 12.4 7.8049C12.4 7.52297 12.3105 7.26057 12.1415 7.04668C12.1265 7.03235 12.0959 6.99974 12.0561 6.95737C11.9905 6.88753 11.9 6.79115 11.8134 6.70645C10.998 5.85101 8.87014 4.45137 7.75654 4.02363C7.58753 3.95555 7.15998 3.81075 6.93122 3.80005C6.71254 3.80005 6.50374 3.84963 6.30482 3.94584C6.05626 4.08191 5.85741 4.29675 5.74802 4.54857C5.67842 4.72348 5.56901 5.24838 5.56901 5.2581C5.4597 5.83165 5.40002 6.76577 5.40002 7.79518C5.40002 8.77697 5.45969 9.67125 5.54918 10.2555C5.55167 10.2576 5.56038 10.3001 5.57393 10.366C5.61449 10.5635 5.69835 10.9717 5.78781 11.14C6.00654 11.5483 6.43409 11.8 6.89153 11.8H6.93122C7.22958 11.7912 7.85598 11.5376 7.85598 11.5278C8.90998 11.1011 10.9881 9.76941 11.8233 8.88393L11.8829 8.82553C11.9923 8.71861 12.1315 8.55433 12.1614 8.5145Z" fill="url(#paint1_linear_15_1169)"/>
</g>
<defs>
<linearGradient id="paint0_linear_15_1169" x1="3" y1="14.9988" x2="12.9991" y2="2.999" gradientUnits="userSpaceOnUse">
<stop stop-color="#FF8860"/>
<stop offset="1" stop-color="#FBD92C"/>
</linearGradient>
<linearGradient id="paint1_linear_15_1169" x1="7.15002" y1="9.80005" x2="11.1146" y2="6.33102" gradientUnits="userSpaceOnUse">
<stop stop-color="#FBD92C"/>
<stop offset="1" stop-color="white"/>
</linearGradient>
<clipPath id="clip0_15_1169">
<rect width="16" height="16" fill="white"/>
</clipPath>
</defs>
</svg>
