<svg width="16" height="16" viewBox="0 0 16 16" fill="none" xmlns="http://www.w3.org/2000/svg">
<g clip-path="url(#clip0_14_881)">
<path fill-rule="evenodd" clip-rule="evenodd" d="M1 13C0.448 13 0 12.552 0 12V3.992C0 1.787 1.787 0 3.992 0C6.357 0 9.643 0 12.008 0C13.067 0 14.082 0.421001 14.831 1.169C15.579 1.918 16 2.933 16 3.992C16 6.357 16 9.643 16 12.008C16 14.213 14.213 16 12.008 16C8.751 16 4 16 4 16C3.448 16 3 15.552 3 15C3 13.896 2.104 13 1 13ZM1 14C1.552 14 2 14.448 2 15C2 15.552 1.552 16 1 16C0.448 16 0 15.552 0 15C0 14.448 0.448 14 1 14Z" fill="url(#paint0_linear_14_881)"/>
<path fill-rule="evenodd" clip-rule="evenodd" d="M7.59041 4.16315C7.80122 4.27565 8.04622 4.45565 8.3021 4.64481L9.45041 5.49148C9.62622 5.62064 9.8071 5.75398 9.9396 5.88398C10.0887 6.03148 10.2671 6.26315 10.2671 6.59398C10.2671 6.92481 10.0887 7.15565 9.9396 7.30398C9.78553 7.44568 9.6221 7.57681 9.45041 7.69648L7.6821 8.99981L9.45041 10.3031C9.62622 10.4323 9.8071 10.5656 9.9396 10.6956C10.0887 10.844 10.2671 11.0748 10.2671 11.4056C10.2671 11.7365 10.0887 11.9681 9.9396 12.1156C9.78541 12.2572 9.62197 12.3883 9.45041 12.5081L8.3021 13.3548C8.04622 13.544 7.8021 13.724 7.59041 13.8365C7.37541 13.9515 7.00622 14.0998 6.61372 13.9065C6.22041 13.7131 6.1196 13.3348 6.08373 13.0965C6.0496 12.8631 6.0496 12.5631 6.0496 12.2481V10.2831L4.60458 11.4665C4.47913 11.5687 4.31871 11.6177 4.15756 11.6032C3.99641 11.5888 3.84731 11.5119 3.74208 11.389C3.69061 11.3286 3.65173 11.2586 3.62777 11.1829C3.60379 11.1074 3.5952 11.0277 3.6025 10.9487C3.6098 10.8697 3.63285 10.793 3.67027 10.7231C3.7077 10.6531 3.75875 10.5914 3.82042 10.5415L5.70541 8.99981L3.82042 7.45731C3.75875 7.40742 3.7077 7.34568 3.67027 7.27574C3.63285 7.2058 3.6098 7.12907 3.6025 7.05009C3.5952 6.9711 3.60379 6.89145 3.62777 6.81583C3.65173 6.74022 3.69061 6.67017 3.74208 6.60981C3.84743 6.48703 3.99659 6.41029 4.15773 6.39597C4.31888 6.38164 4.47924 6.43087 4.60458 6.53315L6.0496 7.71565V5.75148C6.0496 5.43648 6.0496 5.13648 6.08373 4.90315C6.1196 4.66481 6.22041 4.28648 6.61372 4.09315C7.00622 3.90065 7.37541 4.04815 7.59041 4.16315ZM7.27372 12.2081V10.2031L8.68872 11.2448C8.7746 11.3081 8.8446 11.3598 8.9046 11.4056C8.8331 11.4599 8.76116 11.5135 8.68872 11.5665L7.60041 12.3681C7.47041 12.464 7.3646 12.5415 7.27541 12.604C7.27372 12.4721 7.27316 12.3401 7.27372 12.2081ZM7.27372 5.79148V7.7965L8.68872 6.75481C8.7746 6.69148 8.8446 6.63981 8.9046 6.59398C8.8331 6.53976 8.76116 6.48615 8.68872 6.43315L7.60041 5.63148C7.49272 5.55195 7.38441 5.47334 7.27541 5.39564C7.27372 5.52758 7.27316 5.65953 7.27372 5.79148Z" fill="#279FD7"/>
<path fill-rule="evenodd" clip-rule="evenodd" d="M8.59041 3.16315C8.80122 3.27565 9.04622 3.45565 9.3021 3.64481L10.4504 4.49148C10.6262 4.62064 10.8071 4.75398 10.9396 4.88398C11.0887 5.03148 11.2671 5.26315 11.2671 5.59398C11.2671 5.92481 11.0887 6.15565 10.9396 6.30398C10.7855 6.44568 10.6221 6.57681 10.4504 6.69648L8.6821 7.99981L10.4504 9.30312C10.6262 9.43231 10.8071 9.56562 10.9396 9.69562C11.0887 9.844 11.2671 10.0748 11.2671 10.4056C11.2671 10.7365 11.0887 10.9681 10.9396 11.1156C10.7854 11.2572 10.622 11.3883 10.4504 11.5081L9.3021 12.3548C9.04622 12.544 8.8021 12.724 8.59041 12.8365C8.37541 12.9515 8.00622 13.0998 7.61372 12.9065C7.22041 12.7131 7.1196 12.3348 7.08373 12.0965C7.0496 11.8631 7.0496 11.5631 7.0496 11.2481V9.28312L5.60458 10.4665C5.47913 10.5687 5.31871 10.6177 5.15756 10.6032C4.99641 10.5888 4.84731 10.5119 4.74208 10.389C4.69061 10.3286 4.65173 10.2586 4.62777 10.1829C4.60379 10.1074 4.5952 10.0277 4.6025 9.94868C4.6098 9.86975 4.63285 9.793 4.67027 9.72306C4.7077 9.65312 4.75875 9.59137 4.82042 9.5415L6.70541 7.99981L4.82042 6.45731C4.75875 6.40742 4.7077 6.34568 4.67027 6.27574C4.63285 6.2058 4.6098 6.12907 4.6025 6.05009C4.5952 5.9711 4.60379 5.89145 4.62777 5.81583C4.65173 5.74022 4.69061 5.67017 4.74208 5.60981C4.84743 5.48703 4.99659 5.41029 5.15773 5.39597C5.31888 5.38164 5.47924 5.43087 5.60458 5.53315L7.0496 6.71565V4.75148C7.0496 4.43648 7.0496 4.13648 7.08373 3.90315C7.1196 3.66481 7.22041 3.28648 7.61372 3.09315C8.00622 2.90065 8.37541 3.04815 8.59041 3.16315ZM8.27372 11.2081V9.20312L9.68872 10.2448C9.7746 10.3081 9.8446 10.3598 9.9046 10.4056C9.8331 10.4599 9.76116 10.5135 9.68872 10.5665L8.60041 11.3681C8.47041 11.464 8.3646 11.5415 8.27541 11.604C8.27372 11.4721 8.27316 11.3401 8.27372 11.2081ZM8.27372 4.79148V6.7965L9.68872 5.75481C9.7746 5.69148 9.8446 5.63981 9.9046 5.59398C9.8331 5.53976 9.76116 5.48615 9.68872 5.43315L8.60041 4.63148C8.49272 4.55195 8.38441 4.47334 8.27541 4.39564C8.27372 4.52758 8.27316 4.65953 8.27372 4.79148Z" fill="url(#paint1_linear_14_881)"/>
</g>
<defs>
<linearGradient id="paint0_linear_14_881" x1="1.6" y1="16.005" x2="7.3787" y2="-1.33327" gradientUnits="userSpaceOnUse">
<stop stop-color="#22B4FA"/>
<stop offset="1" stop-color="#6BD6FE"/>
</linearGradient>
<linearGradient id="paint1_linear_14_881" x1="4.59998" y1="13" x2="12.7086" y2="11.6485" gradientUnits="userSpaceOnUse">
<stop stop-color="#6BD6FE"/>
<stop offset="1" stop-color="white"/>
</linearGradient>
<clipPath id="clip0_14_881">
<rect width="16" height="16" fill="white"/>
</clipPath>
</defs>
</svg>
