<svg width="16" height="16" viewBox="0 0 16 16" fill="none" xmlns="http://www.w3.org/2000/svg">
<g clip-path="url(#clip0_14_892)">
<path fill-rule="evenodd" clip-rule="evenodd" d="M1 13C0.448 13 0 12.552 0 12V3.992C0 1.787 1.787 0 3.992 0C6.357 0 9.643 0 12.008 0C13.067 0 14.082 0.421001 14.831 1.169C15.579 1.918 16 2.933 16 3.992C16 6.357 16 9.643 16 12.008C16 14.213 14.213 16 12.008 16C8.751 16 4 16 4 16C3.448 16 3 15.552 3 15C3 13.896 2.104 13 1 13ZM1 14C1.552 14 2 14.448 2 15C2 15.552 1.552 16 1 16C0.448 16 0 15.552 0 15C0 14.448 0.448 14 1 14Z" fill="url(#paint0_linear_14_892)"/>
<path d="M6.39211 10.2033L8.85049 12.6617L7.20089 13.8989C7.12957 13.9524 7.04537 13.9861 6.95682 13.9965C6.86828 14.007 6.77854 13.9938 6.69672 13.9584C6.6149 13.923 6.5439 13.8665 6.49093 13.7948C6.43796 13.7231 6.40491 13.6386 6.39511 13.55L6.39211 13.4945V10.2033ZM6.39211 4.50578C6.39206 4.41658 6.41561 4.32895 6.46038 4.2518C6.50515 4.17465 6.56953 4.11072 6.64699 4.0665C6.72446 4.02227 6.81225 3.99934 6.90144 4.00001C6.99064 4.00069 7.07807 4.02496 7.15485 4.07035L7.20089 4.10138L10.1422 6.30752C10.2061 6.35533 10.2589 6.41646 10.2968 6.48667C10.3347 6.55688 10.3569 6.63449 10.3619 6.71414C10.3668 6.79378 10.3544 6.87355 10.3255 6.94792C10.2965 7.02229 10.2518 7.08947 10.1943 7.14483L10.1422 7.18837L7.65483 9.05418L11.1392 12.539C11.229 12.6291 11.2811 12.75 11.285 12.8771C11.2888 13.0042 11.2442 13.128 11.1601 13.2233C11.076 13.3187 10.9588 13.3785 10.8322 13.3906C10.7056 13.4026 10.5792 13.3661 10.4786 13.2883L10.4315 13.2467L2.64599 5.4617C2.55623 5.37163 2.50411 5.25078 2.50023 5.12368C2.49635 4.99658 2.54099 4.87277 2.62509 4.7774C2.70919 4.68202 2.82644 4.62224 2.95302 4.61018C3.07961 4.59812 3.20603 4.63469 3.30663 4.71248L3.35367 4.75402L6.39211 7.79145V4.50578ZM5.56131 9.37298L6.277 10.0877L4.18998 11.6527C4.08817 11.729 3.9611 11.7637 3.83463 11.7497C3.70816 11.7356 3.59178 11.674 3.50915 11.5772C3.42653 11.4804 3.38387 11.3558 3.38986 11.2287C3.39584 11.1016 3.45001 10.9815 3.54135 10.893L3.5894 10.8519L5.56131 9.37298Z" fill="#D84F4F"/>
<path d="M7.39211 9.20329L9.85049 11.6617L8.20089 12.8989C8.12957 12.9524 8.04537 12.9861 7.95682 12.9965C7.86828 13.007 7.77854 12.9938 7.69672 12.9584C7.6149 12.923 7.5439 12.8665 7.49093 12.7948C7.43796 12.7231 7.40491 12.6386 7.39511 12.55L7.39211 12.4945V9.20329ZM7.39211 3.50578C7.39206 3.41658 7.41561 3.32895 7.46038 3.2518C7.50515 3.17465 7.56953 3.11072 7.64699 3.0665C7.72446 3.02227 7.81225 2.99934 7.90144 3.00001C7.99064 3.00069 8.07807 3.02496 8.15485 3.07035L8.20089 3.10138L11.1422 5.30752C11.2061 5.35533 11.2589 5.41646 11.2968 5.48667C11.3347 5.55688 11.3569 5.63449 11.3619 5.71414C11.3668 5.79378 11.3544 5.87355 11.3255 5.94792C11.2965 6.02229 11.2518 6.08947 11.1943 6.14483L11.1422 6.18837L8.65483 8.05418L12.1392 11.539C12.229 11.6291 12.2811 11.75 12.285 11.8771C12.2888 12.0042 12.2442 12.128 12.1601 12.2233C12.076 12.3187 11.9588 12.3785 11.8322 12.3906C11.7056 12.4026 11.5792 12.3661 11.4786 12.2883L11.4315 12.2467L3.64599 4.4617C3.55623 4.37163 3.50411 4.25078 3.50023 4.12368C3.49635 3.99658 3.54099 3.87277 3.62509 3.7774C3.70919 3.68202 3.82644 3.62224 3.95302 3.61018C4.07961 3.59812 4.20603 3.63469 4.30663 3.71248L4.35367 3.75402L7.39211 6.79145V3.50578ZM6.56131 8.37298L7.277 9.08768L5.18998 10.6527C5.08817 10.729 4.9611 10.7637 4.83463 10.7497C4.70816 10.7356 4.59178 10.674 4.50915 10.5772C4.42653 10.4804 4.38387 10.3558 4.38986 10.2287C4.39584 10.1016 4.45001 9.98154 4.54135 9.89295L4.5894 9.85191L6.56131 8.37298Z" fill="url(#paint1_linear_14_892)"/>
</g>
<defs>
<linearGradient id="paint0_linear_14_892" x1="3" y1="14" x2="13" y2="2" gradientUnits="userSpaceOnUse">
<stop stop-color="#FF405B"/>
<stop offset="1" stop-color="#FF8860"/>
</linearGradient>
<linearGradient id="paint1_linear_14_892" x1="6.00907" y1="12.9998" x2="9.56659" y2="5.55871" gradientUnits="userSpaceOnUse">
<stop stop-color="#FF8860"/>
<stop offset="1" stop-color="white"/>
</linearGradient>
<clipPath id="clip0_14_892">
<rect width="16" height="16" fill="white"/>
</clipPath>
</defs>
</svg>
