<svg width="16" height="16" viewBox="0 0 16 16" fill="none" xmlns="http://www.w3.org/2000/svg">
<g opacity="0.7">
<path opacity="0.6" d="M6.02739 6.34369L6.02662 6.34464C5.79426 6.63454 5.37162 6.68162 5.08035 6.45045C4.78847 6.21866 4.74111 5.79505 4.97057 5.50379C5.00641 5.4583 5.08 5.35094 5.14349 5.22135C5.20909 5.08742 5.24966 4.95831 5.24966 4.86072C5.24966 4.7619 5.20804 4.63085 5.14175 4.49615C5.0775 4.36557 5.00432 4.25995 4.97284 4.22074L4.97192 4.2196C4.93992 4.17927 4.7996 3.99815 4.66641 3.7369C4.53456 3.47826 4.40002 3.12237 4.40002 2.73665C4.40002 2.35092 4.53456 1.99505 4.66641 1.7364C4.7996 1.47515 4.93992 1.29403 4.97192 1.25371L4.97289 1.2525C5.20456 0.96421 5.62647 0.914495 5.91896 1.14694C6.21082 1.37872 6.25819 1.80234 6.02874 2.09361C5.9929 2.13909 5.91931 2.24645 5.85582 2.37604C5.79022 2.50996 5.74966 2.63906 5.74966 2.73665C5.74966 2.8355 5.79127 2.96655 5.85756 3.10124C5.9218 3.23181 5.99497 3.33742 6.02647 3.37665L6.02739 3.37779C6.05939 3.41811 6.19971 3.59924 6.3329 3.86047C6.46476 4.11912 6.59929 4.475 6.59929 4.86072C6.59929 5.24645 6.46476 5.60234 6.3329 5.86099C6.19971 6.12224 6.05939 6.30335 6.02739 6.34369Z" fill="#279FD7"/>
<path opacity="0.6" d="M8.57622 6.34363L8.57545 6.34458C8.34309 6.63448 7.92047 6.68157 7.62918 6.4504C7.3373 6.21861 7.28994 5.795 7.5194 5.50373C7.55525 5.45825 7.62884 5.35088 7.69232 5.2213C7.75793 5.08737 7.79849 4.95826 7.79849 4.86067C7.79849 4.76185 7.75687 4.6308 7.69058 4.4961C7.62634 4.36552 7.55317 4.25991 7.52167 4.2207L7.52075 4.21955C7.48875 4.17922 7.34842 3.9981 7.21524 3.73685C7.08339 3.4782 6.94885 3.12232 6.94885 2.7366C6.94885 2.35087 7.08339 1.995 7.21524 1.73635C7.34842 1.4751 7.48875 1.29398 7.52075 1.25365L7.52134 1.25291L7.52194 1.25217C7.75382 0.964459 8.1757 0.914132 8.46813 1.14715C8.75969 1.37899 8.80695 1.80238 8.57757 2.09355C8.54173 2.13903 8.46814 2.2464 8.40465 2.37598C8.33905 2.50991 8.29849 2.63901 8.29849 2.7366C8.29849 2.83545 8.34012 2.9665 8.40639 3.10118C8.47063 3.23176 8.5438 3.33737 8.5753 3.3766L8.57622 3.37773C8.60822 3.41806 8.74855 3.59918 8.88173 3.86042C9.01359 4.11907 9.14812 4.47495 9.14812 4.86067C9.14812 5.2464 9.01359 5.60228 8.88173 5.86093C8.74855 6.12218 8.60822 6.3033 8.57622 6.34363Z" fill="#279FD7"/>
</g>
<path d="M6.65239 5.84362L6.65162 5.84457C6.41926 6.13447 5.99662 6.18156 5.70535 5.95039C5.41347 5.7186 5.36611 5.29499 5.59557 5.00372C5.63141 4.95824 5.705 4.85087 5.76849 4.72129C5.83409 4.58736 5.87466 4.45825 5.87466 4.36066C5.87466 4.26184 5.83304 4.13079 5.76675 3.99609C5.7025 3.86551 5.62932 3.75989 5.59784 3.72067L5.59692 3.71954C5.56492 3.67921 5.4246 3.49809 5.29141 3.23684C5.15956 2.9782 5.02502 2.62231 5.02502 2.23659C5.02502 1.85086 5.15956 1.49499 5.29141 1.23634C5.4246 0.975089 5.56492 0.793972 5.59692 0.753646L5.59789 0.752438C5.82956 0.464149 6.25147 0.414434 6.54396 0.646881C6.83582 0.878657 6.88319 1.30227 6.65374 1.59355C6.6179 1.63902 6.54431 1.74639 6.48082 1.87597C6.41522 2.0099 6.37466 2.139 6.37466 2.23659C6.37466 2.33544 6.41627 2.46649 6.48256 2.60117C6.5468 2.73175 6.61997 2.83736 6.65147 2.87659L6.65239 2.87772C6.68439 2.91805 6.82471 3.09917 6.9579 3.36041C7.08976 3.61906 7.22429 3.97494 7.22429 4.36066C7.22429 4.74639 7.08976 5.10227 6.9579 5.36092C6.82471 5.62217 6.68439 5.80329 6.65239 5.84362Z" fill="url(#paint0_linear_15_1760)"/>
<path d="M9.20122 5.84357L9.20045 5.84452C8.96809 6.13442 8.54547 6.18151 8.25418 5.95033C7.9623 5.71855 7.91494 5.29493 8.1444 5.00367C8.18025 4.95818 8.25384 4.85082 8.31732 4.72123C8.38293 4.58731 8.42349 4.4582 8.42349 4.36061C8.42349 4.26178 8.38187 4.13073 8.31558 3.99603C8.25134 3.86546 8.17817 3.75985 8.14667 3.72063L8.14575 3.71948C8.11375 3.67916 7.97342 3.49803 7.84024 3.23678C7.70839 2.97813 7.57385 2.62226 7.57385 2.23653C7.57385 1.85081 7.70839 1.49493 7.84024 1.23629C7.97342 0.975039 8.11375 0.793922 8.14575 0.753592L8.14634 0.752848L8.14694 0.752109C8.37882 0.464398 8.8007 0.414071 9.09313 0.647091C9.38469 0.878926 9.43195 1.30232 9.20257 1.59348C9.16673 1.63897 9.09314 1.74633 9.02965 1.87592C8.96405 2.00985 8.92349 2.13895 8.92349 2.23653C8.92349 2.33538 8.96512 2.46643 9.03139 2.60112C9.09563 2.7317 9.1688 2.83731 9.2003 2.87653L9.20122 2.87767C9.23322 2.918 9.37355 3.09912 9.50673 3.36036C9.63859 3.61901 9.77312 3.97488 9.77312 4.36061C9.77312 4.74633 9.63859 5.10222 9.50673 5.36087C9.37355 5.62212 9.23322 5.80323 9.20122 5.84357Z" fill="url(#paint1_linear_15_1760)"/>
<path fill-rule="evenodd" clip-rule="evenodd" d="M12.87 7.00006H1.82484C1.59002 7.00006 1.40002 7.19007 1.40002 7.42489V9.97377C1.40002 10.279 1.42492 10.5785 1.47277 10.8704C1.54357 11.3022 1.93801 11.5878 2.37554 11.5902L2.54762 11.5912C3.65217 11.5975 4.54246 12.4981 4.53614 13.6026C4.53461 13.8703 4.50499 14.1546 4.47577 14.4349C4.44631 14.7176 4.59531 14.9898 4.85887 15.0964C5.49675 15.3543 6.19341 15.4964 6.92262 15.4964C8.31602 15.4964 9.58665 14.9732 10.5593 14.1187C10.5759 14.1041 10.5921 14.0927 10.6119 14.0827C11.101 13.836 14.9941 11.7884 14.9941 9.12415C14.9941 7.95302 14.0412 7.00006 12.87 7.00006ZM12.4713 11.6617C12.2689 11.8218 11.958 11.5847 12.0225 11.3348C12.1347 10.8995 12.1952 10.4438 12.1952 9.97381V8.09974C12.1952 7.96166 12.3071 7.84974 12.4452 7.84974H12.62C13.3228 7.84974 14.1444 8.54642 14.1444 9.24919C14.1444 10.1802 13.3281 10.9841 12.4713 11.6617ZM2.40002 14.6C2.95231 14.6 3.40002 14.1523 3.40002 13.6C3.40002 13.0478 2.95231 12.6 2.40002 12.6C1.84774 12.6 1.40002 13.0478 1.40002 13.6C1.40002 14.1523 1.84774 14.6 2.40002 14.6Z" fill="url(#paint2_linear_15_1760)"/>
<defs>
<linearGradient id="paint0_linear_15_1760" x1="5.24495" y1="6.09883" x2="8.56925" y2="2.17964" gradientUnits="userSpaceOnUse">
<stop offset="0.190745" stop-color="#22B4FA"/>
<stop offset="0.896724" stop-color="#7DDCFF"/>
</linearGradient>
<linearGradient id="paint1_linear_15_1760" x1="7.79378" y1="6.09877" x2="11.1181" y2="2.17958" gradientUnits="userSpaceOnUse">
<stop offset="0.190745" stop-color="#22B4FA"/>
<stop offset="0.896724" stop-color="#7DDCFF"/>
</linearGradient>
<linearGradient id="paint2_linear_15_1760" x1="2.75944" y1="15.499" x2="4.80174" y2="5.69476" gradientUnits="userSpaceOnUse">
<stop offset="0.190745" stop-color="#22B4FA"/>
<stop offset="0.896724" stop-color="#7DDCFF"/>
</linearGradient>
</defs>
</svg>
