<svg width="16" height="16" viewBox="0 0 16 16" fill="none" xmlns="http://www.w3.org/2000/svg">
<path fill-rule="evenodd" clip-rule="evenodd" d="M13.8194 2.87159C14.0642 3.12581 14.1329 3.50022 13.9999 3.8271C13.9167 4.03154 13.9109 4.25932 13.9838 4.46767L14.115 4.84295C14.2439 5.21166 14.2599 5.60905 14.1604 5.98675C13.941 6.81928 13.529 8.3832 13.2246 9.54361C13.1455 9.8453 12.8119 10 12.5 10C11.6716 10 11 10.6716 11 11.5C11 11.935 11.1852 12.3267 11.481 12.6007C11.6528 12.7599 11.6952 13.0478 11.5037 13.1827C10.6514 13.7833 9.10474 14.826 8.85241 14.984C8.79781 15.0181 8.74027 15.0575 8.68078 15.0982L8.68063 15.0983C8.4647 15.2459 8.22266 15.4113 8.00007 15.4113C7.77749 15.4113 7.53545 15.2459 7.31952 15.0983L7.31937 15.0982C7.25987 15.0575 7.20234 15.0181 7.14774 14.984C6.89541 14.826 5.34874 13.7833 4.49641 13.1827C3.64441 12.5823 3.43907 12.124 3.13941 10.939C3.01942 10.4648 2.18761 7.30654 1.83978 5.98668C1.74025 5.60903 1.75628 5.21168 1.88516 4.84302L2.01642 4.46756C2.08923 4.25928 2.08349 4.03158 2.00029 3.82723C1.86723 3.50048 1.93596 3.1262 2.18065 2.87204C2.34347 2.70292 2.54441 2.49662 2.76074 2.28002C3.00745 2.03286 3.38111 1.96624 3.71271 1.96638C4.15825 1.96654 4.62035 1.84634 4.91474 1.5119L5.18497 1.20492C5.5298 0.813172 6.02648 0.588684 6.54837 0.588684H9.45155C9.97359 0.588684 10.4704 0.813224 10.8154 1.20506L11.1421 1.57618C11.4019 1.87132 11.809 1.9811 12.2019 1.96785C12.3171 1.96397 12.4394 1.96731 12.5613 1.98302C12.8112 2.01523 13.0592 2.09942 13.2395 2.28002C13.4557 2.4964 13.6566 2.70255 13.8194 2.87159ZM13.6 11.8C13.6 12.2416 13.2416 12.6 12.8 12.6C12.3584 12.6 12 12.2416 12 11.8C12 11.3584 12.3584 11 12.8 11C13.2416 11 13.6 11.3584 13.6 11.8Z" fill="url(#paint0_linear_8_175)"/>
<path fill-rule="evenodd" clip-rule="evenodd" d="M10.0615 4.53253C10.0615 4.53253 11.6 6.39487 11.6 6.793C11.6 7.1908 11.4065 7.29586 11.212 7.50295L10.0584 8.72962C9.94899 8.84548 9.72189 9.02143 9.85563 9.3382C9.98904 9.65494 10.1863 10.058 9.96717 10.4669C9.74778 10.8755 9.37218 11.1482 9.13152 11.1032C8.89086 11.0582 8.32542 10.7624 8.11743 10.6271C7.90977 10.4919 7.25067 9.94798 7.25067 9.73969C7.25067 9.5317 7.93194 9.15793 8.05767 9.07288C8.1837 8.98816 8.75745 8.65936 8.76915 8.53027C8.78085 8.40145 8.77653 8.36356 8.60706 8.04463C8.43759 7.72603 8.13285 7.30048 8.18337 7.01731C8.23422 6.73444 8.72631 6.58717 9.07728 6.45466C9.42825 6.32185 10.104 6.07102 10.1884 6.0322C10.2728 5.99308 10.2513 5.95609 9.99552 5.93176C9.73977 5.90743 9.0138 5.81098 8.68656 5.90248C8.35932 5.99368 7.80036 6.13267 7.75506 6.20632C7.70979 6.27994 7.66971 6.28243 7.71624 6.53662C7.76277 6.79084 8.0022 8.01043 8.02563 8.22706C8.04873 8.44366 8.09403 8.58664 7.86108 8.64025C7.6275 8.69356 7.23495 8.78632 7.09998 8.78632C6.96501 8.78632 6.57246 8.69356 6.33921 8.64025C6.10563 8.58664 6.15123 8.44366 6.17433 8.22706C6.19776 8.01043 6.43719 6.79084 6.48372 6.53662C6.53025 6.28243 6.49017 6.27994 6.4449 6.20632C6.3996 6.13267 5.84064 5.99368 5.5134 5.90248C5.18616 5.81098 4.46019 5.90743 4.20444 5.93176C3.94869 5.95609 3.92712 5.99308 4.01154 6.0322C4.09596 6.07102 4.77171 6.32185 5.12268 6.45466C5.47365 6.58717 5.96574 6.73444 6.01659 7.01731C6.06711 7.30048 5.76237 7.72603 5.5929 8.04463C5.42343 8.36356 5.41911 8.40145 5.43081 8.53027C5.44251 8.65936 6.01659 8.98816 6.14229 9.07288C6.26802 9.15793 6.94929 9.5317 6.94929 9.73969C6.94929 9.94798 6.29019 10.4922 6.08253 10.6271C5.87454 10.7624 5.3091 11.0582 5.06844 11.1032C4.82778 11.1482 4.45218 10.8755 4.23279 10.4669C4.0137 10.058 4.21092 9.65494 4.34433 9.3382C4.47807 9.02143 4.25097 8.84548 4.14159 8.72962L2.98791 7.50295C2.79348 7.29586 2.59998 7.1908 2.59998 6.793C2.59998 6.39487 4.1385 4.53253 4.1385 4.53253C4.1385 4.53253 5.43699 4.78087 5.61201 4.78087C5.78703 4.78087 6.16632 4.63483 6.51636 4.51804C6.8664 4.40095 7.09998 4.40002 7.09998 4.40002C7.09998 4.40002 7.33356 4.40095 7.6836 4.51804C8.03364 4.63483 8.41293 4.78087 8.58795 4.78087C8.76297 4.78087 10.0615 4.53253 10.0615 4.53253ZM8.90811 11.6563C9.00333 11.7161 8.9451 11.8285 8.85852 11.8902C8.77161 11.9515 7.60563 12.8556 7.49253 12.9554C7.37946 13.0552 7.21308 13.2204 7.09998 13.2204C6.98688 13.2204 6.8205 13.0552 6.70743 12.9554C6.59433 12.8556 5.42835 11.9515 5.34144 11.8902C5.25486 11.8285 5.19663 11.7161 5.29185 11.6563C5.38737 11.5968 5.68533 11.4462 6.09639 11.2329C6.50745 11.02 7.01985 10.8388 7.09998 10.8388C7.18008 10.8388 7.69251 11.02 8.10357 11.2329C8.51463 11.4462 8.81259 11.5968 8.90811 11.6563Z" fill="#D49F34"/>
<path fill-rule="evenodd" clip-rule="evenodd" d="M11.0615 3.53253C11.0615 3.53253 12.6 5.39487 12.6 5.793C12.6 6.1908 12.4065 6.29586 12.212 6.50295L11.0584 7.72962C10.949 7.84548 10.7219 8.02143 10.8556 8.3382C10.989 8.65494 11.1863 9.05799 10.9672 9.46689C10.7478 9.87546 10.3722 10.1482 10.1315 10.1032C9.89086 10.0582 9.32542 9.76239 9.11743 9.62712C8.90977 9.49185 8.25067 8.94798 8.25067 8.73969C8.25067 8.5317 8.93194 8.15793 9.05767 8.07288C9.1837 7.98816 9.75745 7.65936 9.76915 7.53027C9.78085 7.40145 9.77653 7.36356 9.60706 7.04463C9.43759 6.72603 9.13285 6.30048 9.18337 6.01731C9.23422 5.73444 9.72631 5.58717 10.0773 5.45466C10.4282 5.32185 11.104 5.07102 11.1884 5.0322C11.2728 4.99308 11.2513 4.95609 10.9955 4.93176C10.7398 4.90743 10.0138 4.81098 9.68656 4.90248C9.35932 4.99368 8.80036 5.13267 8.75506 5.20632C8.70979 5.27994 8.66971 5.28243 8.71624 5.53662C8.76277 5.79084 9.0022 7.01043 9.02563 7.22706C9.04873 7.44366 9.09403 7.58664 8.86108 7.64025C8.6275 7.69356 8.23495 7.78632 8.09998 7.78632C7.96501 7.78632 7.57246 7.69356 7.33921 7.64025C7.10563 7.58664 7.15123 7.44366 7.17433 7.22706C7.19776 7.01043 7.43719 5.79084 7.48372 5.53662C7.53025 5.28243 7.49017 5.27994 7.4449 5.20632C7.3996 5.13267 6.84064 4.99368 6.5134 4.90248C6.18616 4.81098 5.46019 4.90743 5.20444 4.93176C4.94869 4.95609 4.92712 4.99308 5.01154 5.0322C5.09596 5.07102 5.77171 5.32185 6.12268 5.45466C6.47365 5.58717 6.96574 5.73444 7.01659 6.01731C7.06711 6.30048 6.76237 6.72603 6.5929 7.04463C6.42343 7.36356 6.41911 7.40145 6.43081 7.53027C6.44251 7.65936 7.01659 7.98816 7.14229 8.07288C7.26802 8.15793 7.94929 8.5317 7.94929 8.73969C7.94929 8.94798 7.29019 9.49215 7.08253 9.62712C6.87454 9.76239 6.3091 10.0582 6.06844 10.1032C5.82778 10.1482 5.45218 9.87546 5.23279 9.46689C5.0137 9.05799 5.21092 8.65494 5.34433 8.3382C5.47807 8.02143 5.25097 7.84548 5.14159 7.72962L3.98791 6.50295C3.79348 6.29586 3.59998 6.1908 3.59998 5.793C3.59998 5.39487 5.1385 3.53253 5.1385 3.53253C5.1385 3.53253 6.43699 3.78087 6.61201 3.78087C6.78703 3.78087 7.16632 3.63483 7.51636 3.51804C7.8664 3.40095 8.09998 3.40002 8.09998 3.40002C8.09998 3.40002 8.33356 3.40095 8.6836 3.51804C9.03364 3.63483 9.41293 3.78087 9.58795 3.78087C9.76297 3.78087 11.0615 3.53253 11.0615 3.53253ZM9.90811 10.6563C10.0033 10.7161 9.9451 10.8285 9.85852 10.8902C9.77161 10.9515 8.60563 11.8556 8.49253 11.9554C8.37946 12.0552 8.21308 12.2204 8.09998 12.2204C7.98688 12.2204 7.8205 12.0552 7.70743 11.9554C7.59433 11.8556 6.42835 10.9515 6.34144 10.8902C6.25486 10.8285 6.19663 10.7161 6.29185 10.6563C6.38737 10.5968 6.68533 10.4462 7.09639 10.2329C7.50745 10.02 8.01985 9.8388 8.09998 9.8388C8.18008 9.8388 8.69251 10.02 9.10357 10.2329C9.51463 10.4462 9.81259 10.5968 9.90811 10.6563Z" fill="url(#paint1_linear_8_175)"/>
<defs>
<linearGradient id="paint0_linear_8_175" x1="4.10957" y1="14.4838" x2="13.5271" y2="4.99132" gradientUnits="userSpaceOnUse">
<stop stop-color="#FF8860"/>
<stop offset="1" stop-color="#FBD92C"/>
</linearGradient>
<linearGradient id="paint1_linear_8_175" x1="5.84998" y1="10.0153" x2="10.2593" y2="5.51621" gradientUnits="userSpaceOnUse">
<stop stop-color="#FBD92C"/>
<stop offset="1" stop-color="white"/>
</linearGradient>
</defs>
</svg>
