<svg width="16" height="16" viewBox="0 0 16 16" fill="none" xmlns="http://www.w3.org/2000/svg">
<g clip-path="url(#clip0_80_5703)">
<path fill-rule="evenodd" clip-rule="evenodd" d="M4.46446 11.5356C5.87864 12.9497 4.81731 14.2417 4.79607 14.3053C4.61858 14.8278 4.89862 15.3964 5.42121 15.5739C8.21499 16.5221 11.4309 15.8829 13.6569 13.6569C16.7787 10.535 16.7787 5.46504 13.6568 2.34318C10.535 -0.778705 5.46499 -0.778688 2.34314 2.34316C0.117163 4.56914 -0.522068 7.78506 0.426164 10.5788C0.603649 11.1014 1.17217 11.3814 1.69472 11.2039C1.75835 11.1827 3.05025 10.1214 4.46446 11.5356ZM2.34314 12.2427C1.95282 12.633 1.95281 13.2666 2.34314 13.6569C2.73346 14.0472 3.36703 14.0472 3.75736 13.6569C4.14768 13.2666 4.14768 12.633 3.75736 12.2427C3.36703 11.8523 2.73346 11.8524 2.34314 12.2427Z" fill="url(#paint0_linear_80_5703)"/>
<path d="M12.9354 5.47973C12.9349 5.47973 12.9344 5.48004 12.9343 5.48049L12.9033 5.56682C12.2206 7.46096 11.5682 9.25168 10.0813 10.8106C10.0538 10.8394 10.0364 10.8768 10.0317 10.9164C9.90715 11.9679 9.42432 12.9452 8.66338 13.6833C8.4508 13.8856 8.16886 13.999 7.8754 14C7.57701 14 7.29084 13.8815 7.07985 13.6705C6.86884 13.4595 6.75031 13.1733 6.75031 12.8749V12.32C6.75031 12.2451 6.70326 12.1788 6.63452 12.149C6.4844 12.084 6.34207 12.0024 6.2102 11.9058C6.13495 11.8506 6.02977 11.8541 5.96383 11.9201L5.31728 12.567C5.20001 12.6842 5.04098 12.7501 4.87515 12.7501C4.70933 12.7501 4.5503 12.6842 4.43304 12.567C4.31578 12.4497 4.2499 12.2907 4.2499 12.1249C4.2499 11.959 4.31578 11.8 4.43304 11.6827L5.08285 11.0329C5.14779 10.968 5.15219 10.8648 5.09935 10.7897C4.92924 10.548 4.8095 10.2745 4.74736 9.98554C4.72866 9.89861 4.65408 9.83299 4.56515 9.83299H4.1251C3.82669 9.83299 3.54052 9.71445 3.32953 9.50346C3.11853 9.29246 3 9.00629 3 8.70791C3.00115 8.41457 3.11446 8.1328 3.31669 7.92033C3.75058 7.47702 4.26788 7.12394 4.83877 6.88135C5.39008 6.64711 5.98087 6.52038 6.57936 6.50779C6.62065 6.50693 6.66065 6.49229 6.69256 6.4661C8.12865 5.28807 9.7404 4.70806 11.4353 4.09669L11.5219 4.06544C11.7193 3.99433 11.9328 3.98086 12.1375 4.02657C12.3422 4.0723 12.5297 4.17535 12.678 4.32368C12.8263 4.47199 12.9294 4.65946 12.9751 4.86417C13.0207 5.06862 13.0074 5.28182 12.9365 5.47894C12.9363 5.47941 12.9359 5.47973 12.9354 5.47973Z" fill="#279FD7"/>
<path d="M12.9354 4.47973C12.9349 4.47973 12.9344 4.48004 12.9343 4.48049L12.9033 4.56682C12.2206 6.46096 11.5682 8.25168 10.0813 9.81057C10.0538 9.83943 10.0364 9.87676 10.0317 9.91639C9.90715 10.9679 9.42432 11.9452 8.66338 12.6833C8.4508 12.8856 8.16886 12.999 7.8754 13C7.57701 13 7.29084 12.8815 7.07985 12.6705C6.86884 12.4595 6.75031 12.1733 6.75031 11.8749V11.32C6.75031 11.2451 6.70326 11.1788 6.63452 11.149C6.4844 11.084 6.34207 11.0024 6.2102 10.9058C6.13495 10.8506 6.02977 10.8541 5.96383 10.9201L5.31728 11.567C5.20001 11.6842 5.04098 11.7501 4.87515 11.7501C4.70933 11.7501 4.5503 11.6842 4.43304 11.567C4.31578 11.4497 4.2499 11.2907 4.2499 11.1249C4.2499 10.959 4.31578 10.8 4.43304 10.6827L5.08285 10.0329C5.14779 9.96798 5.15219 9.86481 5.09935 9.78971C4.92924 9.54804 4.8095 9.27453 4.74736 8.98554C4.72866 8.89861 4.65408 8.83299 4.56515 8.83299H4.1251C3.82669 8.83299 3.54052 8.71445 3.32953 8.50346C3.11853 8.29246 3 8.00629 3 7.70791C3.00115 7.41457 3.11446 7.1328 3.31669 6.92033C3.75058 6.47702 4.26788 6.12394 4.83877 5.88135C5.39008 5.64711 5.98087 5.52038 6.57936 5.50779C6.62065 5.50693 6.66065 5.49229 6.69256 5.4661C8.12865 4.28807 9.7404 3.70806 11.4353 3.09669L11.5219 3.06544C11.7193 2.99433 11.9328 2.98086 12.1375 3.02657C12.3422 3.0723 12.5297 3.17535 12.678 3.32368C12.8263 3.47199 12.9294 3.65946 12.9751 3.86417C13.0207 4.06862 13.0074 4.28182 12.9365 4.47894C12.9363 4.47941 12.9359 4.47973 12.9354 4.47973Z" fill="url(#paint1_linear_80_5703)"/>
</g>
<defs>
<linearGradient id="paint0_linear_80_5703" x1="1.60103" y1="16.0037" x2="7.37864" y2="-1.33124" gradientUnits="userSpaceOnUse">
<stop offset="0.190745" stop-color="#22B4FA"/>
<stop offset="0.896724" stop-color="#7DDCFF"/>
</linearGradient>
<linearGradient id="paint1_linear_80_5703" x1="3" y1="13" x2="14.7664" y2="10.0579" gradientUnits="userSpaceOnUse">
<stop stop-color="#6BD6FE"/>
<stop offset="1" stop-color="white"/>
</linearGradient>
<clipPath id="clip0_80_5703">
<rect width="16" height="16" fill="white"/>
</clipPath>
</defs>
</svg>
