<svg width="16" height="16" viewBox="0 0 16 16" fill="none" xmlns="http://www.w3.org/2000/svg">
<path fill-rule="evenodd" clip-rule="evenodd" d="M13 8C13 10 14.664 10.163 14.724 10.193C15.219 10.437 15.423 11.037 15.179 11.532C13.874 14.178 11.148 16 8 16C3.585 16 0 12.415 0 8C0 3.585 3.585 0 8 0C11.148 0 13.874 1.822 15.179 4.468C15.423 4.963 15.219 5.563 14.724 5.807C14.664 5.837 13 6 13 8ZM15 7C15.552 7 16 7.448 16 8C16 8.552 15.552 9 15 9C14.448 9 14 8.552 14 8C14 7.448 14.448 7 15 7Z" fill="url(#paint0_linear_239_86)"/>
<path d="M8.09267 10.4155L8.09052 10.4266C7.96604 11.0669 7.439 11.6015 6.82217 11.8017C5.87422 12.1143 4.7329 11.594 4.38703 10.6654C4.05517 9.89188 4.34532 8.93625 5.0331 8.45041L5.03353 8.4501C5.56523 8.07785 6.26502 8.00899 6.87513 8.18486C6.87745 7.2931 6.87492 6.40126 6.87238 5.50901V5.5084V5.50805V5.50781L6.87232 5.48493C6.87092 4.99184 6.86952 4.49875 6.86898 4.00553C6.83069 3.6651 7.09943 3.29755 7.48403 3.30863C8.01955 3.30156 8.55635 3.29763 9.09262 3.30153C9.43148 3.28223 9.7716 3.55089 9.78177 3.90576C9.81993 4.25401 9.53145 4.56629 9.19319 4.59604C8.99818 4.61628 8.80334 4.61276 8.61725 4.6094L8.61403 4.60935C8.44047 4.60624 8.27437 4.60338 8.11053 4.61713C8.10935 4.62314 8.1083 4.63133 8.10767 4.64244C8.10679 4.65771 8.10684 4.67418 8.10697 4.69499C8.10712 4.72036 8.10768 4.75794 8.1025 4.79426C8.10079 5.46251 8.10195 6.13103 8.10313 6.7999V6.80034C8.10523 8.001 8.10733 9.20286 8.0928 10.4042L8.09267 10.4155Z" fill="#344CD8"/>
<path d="M5.22014 6.09533L5.22277 6.0949C5.26232 6.08838 5.30373 6.08014 5.34895 6.07113L5.35547 6.06982C5.46577 6.04782 5.59911 6.02123 5.73002 6.02308C5.86764 6.02502 6.01448 6.05823 6.14216 6.16641L6.14301 6.16714L6.14384 6.16786C6.34203 6.34097 6.41373 6.62997 6.37328 6.87482C6.33183 7.12573 6.16251 7.37285 5.84102 7.40524C5.03772 7.5034 4.28546 7.93882 3.85624 8.60622L3.85491 8.6083L3.85351 8.61033C3.15825 9.61564 3.34298 11.0877 4.26062 11.896L4.26283 11.8979L4.26496 11.9C5.11932 12.7154 6.56523 12.8335 7.55152 12.1598L7.55343 12.1585L7.55536 12.1573C8.48458 11.5643 8.95521 10.3724 8.65925 9.33574L8.65742 9.32939L8.65619 9.3229C8.63923 9.23401 8.60147 9.14416 8.55539 9.03677L8.55528 9.0365L8.5546 9.03491C8.47478 8.84888 8.36054 8.59827 8.4586 8.323C8.53532 8.08521 8.74384 7.93508 8.96059 7.88227C9.17824 7.82923 9.43388 7.86691 9.61395 8.04229L9.61741 8.04567L9.62064 8.04925C9.80912 8.25855 9.89623 8.52579 9.96991 8.75182L9.97388 8.764C9.98585 8.8007 9.99749 8.83639 10.0093 8.87154L10.0099 8.87324L10.0105 8.87496C10.4041 10.1431 10.0705 11.5801 9.19731 12.5853L9.19645 12.5863C8.54957 13.3178 7.63325 13.8442 6.6386 13.9595C5.50882 14.1361 4.32431 13.788 3.46086 13.0707C2.49197 12.2932 1.9394 11.0577 2.00705 9.82948C2.06582 8.06679 3.45314 6.45318 5.21752 6.09587L5.22014 6.09533Z" fill="#344CD8"/>
<path d="M9.39259 9.4155L9.39044 9.42656C9.26597 10.0669 8.73893 10.6015 8.12209 10.8017C7.17414 11.1143 6.03283 10.594 5.68695 9.66544C5.35509 8.89188 5.64524 7.93625 6.33303 7.45041L6.33345 7.4501C6.86515 7.07785 7.56494 7.00899 8.17506 7.18486C8.17738 6.2931 8.17484 5.40126 8.1723 4.50901V4.5084V4.50805V4.50781L8.17224 4.48493C8.17084 3.99184 8.16944 3.49875 8.1689 3.00553C8.13062 2.6651 8.39936 2.29755 8.78396 2.30863C9.31948 2.30156 9.85628 2.29763 10.3925 2.30153C10.7314 2.28223 11.0715 2.55089 11.0817 2.90576C11.1199 3.25401 10.8314 3.56629 10.4931 3.59604C10.2981 3.61628 10.1033 3.61276 9.91718 3.6094L9.91396 3.60935C9.74039 3.60624 9.57429 3.60338 9.41046 3.61713C9.40928 3.62314 9.40823 3.63133 9.40759 3.64244C9.40672 3.65771 9.40677 3.67418 9.40689 3.69499C9.40704 3.72036 9.40761 3.75794 9.40243 3.79426C9.40072 4.46251 9.40188 5.13103 9.40305 5.7999V5.80034C9.40515 7.001 9.40726 8.20286 9.39273 9.40423L9.39259 9.4155Z" fill="url(#paint1_linear_239_86)"/>
<path d="M6.54501 5.08989L6.54765 5.08948C6.58723 5.08321 6.6287 5.07523 6.67397 5.06651L6.68051 5.06524C6.79094 5.04394 6.92445 5.0182 7.05534 5.02089C7.19295 5.02371 7.33957 5.05785 7.46656 5.16684L7.4674 5.16757L7.46823 5.1683C7.66532 5.34266 7.73517 5.63211 7.69317 5.8767C7.65012 6.12734 7.47923 6.37338 7.15755 6.40373C6.35364 6.49677 5.59862 6.92739 5.16517 7.59205L5.16382 7.59412L5.16241 7.59615C4.46077 8.59701 4.63613 10.0702 5.5486 10.8843L5.5508 10.8863L5.55292 10.8883C6.40208 11.7092 7.8472 11.8364 8.83776 11.1691L8.83968 11.1678L8.84161 11.1666C9.77459 10.5795 10.2528 9.39067 9.96343 8.35212L9.96165 8.34575L9.96046 8.33925C9.94406 8.25026 9.90687 8.16017 9.86148 8.05249L9.86137 8.05222L9.8607 8.05063C9.78207 7.8641 9.66942 7.61277 9.76923 7.33812C9.84747 7.10082 10.0569 6.95202 10.274 6.9006C10.492 6.84894 10.7474 6.88825 10.9263 7.06477L10.9298 7.06817L10.933 7.07177C11.1201 7.28227 11.2055 7.55006 11.2778 7.77655L11.2817 7.78875C11.2934 7.82553 11.3048 7.86129 11.3165 7.89651L11.317 7.89822L11.3175 7.89994C11.7031 9.17059 11.3604 10.6054 10.4808 11.6051L10.4799 11.6061C9.82842 12.3334 8.90877 12.8539 7.91341 12.9629C6.78252 13.1324 5.60026 12.7767 4.74139 12.054C3.77746 11.2703 3.23277 10.0313 3.30823 8.80352C3.37822 7.04124 4.77577 5.43649 6.54238 5.09041L6.54501 5.08989Z" fill="url(#paint2_linear_239_86)"/>
<defs>
<linearGradient id="paint0_linear_239_86" x1="1" y1="16.0086" x2="18.5597" y2="3.64367" gradientUnits="userSpaceOnUse">
<stop stop-color="#2E4AFA"/>
<stop offset="1" stop-color="#8E9EFF"/>
</linearGradient>
<linearGradient id="paint1_linear_239_86" x1="5.54952" y1="10.8927" x2="10.7998" y2="10.806" gradientUnits="userSpaceOnUse">
<stop stop-color="#8E9EFF"/>
<stop offset="1" stop-color="white"/>
</linearGradient>
<linearGradient id="paint2_linear_239_86" x1="3.72204" y1="13.3901" x2="11.4139" y2="12.41" gradientUnits="userSpaceOnUse">
<stop stop-color="#8E9EFF"/>
<stop offset="1" stop-color="white"/>
</linearGradient>
</defs>
</svg>
