<svg width="16" height="16" viewBox="0 0 16 16" fill="none" xmlns="http://www.w3.org/2000/svg">
<g clip-path="url(#clip0_80_5670)">
<path d="M2.5 5.5C2.16794 4.92481 1.52077 4.63341 1.07215 4.00122C0.369878 5.21731 0.000145925 6.59685 0.000122071 8.00114C9.82179e-05 9.40543 0.369784 10.785 1.07201 12.0011C1.77424 13.2172 2.78425 14.227 4.00051 14.929C5.21677 15.6309 6.5964 16.0003 8.00069 16C8.73694 14.9673 9.23694 12.2227 9.50044 11.7663C10.0066 10.8895 10.6613 9.63427 11.4644 8.00058C11.1135 8.60891 10.6087 9.11319 10.0006 9.4645C9.39252 9.8158 8.70267 10.0008 8.00041 10.0009C7.29815 10.001 6.60824 9.81623 6.00006 9.46511C5.39189 9.11399 4.88688 8.60892 4.53583 8.00071C3.44502 5.96646 2.93769 6.258 2.5 5.5Z" fill="url(#paint0_linear_80_5670)"/>
<path d="M11.062 15.3909C10.0914 15.7929 9.05105 15.9997 8.00046 15.9995L9.4642 10.0002C9.81544 9.39211 10.0004 8.70222 10.0004 7.99994C10.0004 7.29767 9.81549 6.60777 9.46427 5.99963C9.11303 5.3915 8.60786 4.88658 7.99956 4.53564C7.39127 4.1847 6.70129 4.00012 5.99902 4.00044C7.56233 3.85107 8.75389 3.77576 9.57189 3.77576C10.2933 3.77576 13.4118 3.85044 14.9273 3.99982C15.6297 5.21581 15.9997 6.59531 15.9999 7.99962C16.0002 9.05021 15.7934 10.0906 15.3915 11.0612V11.0612C15.2569 11.3862 14.8627 11.49 14.514 11.4436C14.4393 11.4336 14.3631 11.4285 14.2857 11.4285C13.3389 11.4285 12.5714 12.196 12.5714 13.1428C12.5714 13.2027 12.5745 13.2618 12.5805 13.32C12.6384 13.8837 12.6182 14.5573 12.133 14.85C11.7908 15.0564 11.4329 15.2373 11.062 15.3909Z" fill="url(#paint1_linear_80_5670)"/>
<path d="M10.0001 5.00026L14.9274 4.00026C14.2255 2.78399 13.2157 1.77396 11.9995 1.07176C10.7834 0.369546 9.40382 -9.50019e-05 7.99952 1.83149e-08C6.59521 9.50386e-05 5.21568 0.369923 3.99965 1.0723C2.78361 1.77467 1.77394 2.78483 1.07214 4.0012L6 10L6.5 10.5C6.1486 9.89197 6.00024 9.7032 6.00004 9.00093C5.99983 8.29866 6.18454 7.60872 6.53558 7.00048C6.88663 6.39225 7.39164 5.88717 7.99982 5.53604C8.60801 5.1849 9.29786 5.00016 10.0001 5.00026Z" fill="url(#paint2_linear_80_5670)"/>
<path d="M6.99996 12C8.6568 12 9.99987 10.6568 9.99987 9C9.99987 7.34316 8.6568 6 6.99996 6C5.34312 6 4 7.34316 4 9C4 10.6568 5.34312 12 6.99996 12Z" fill="#279FD7"/>
<path d="M8 11C9.65684 11 10.9999 9.6569 10.9999 8C10.9999 6.34304 9.65684 5 7.99994 5C6.34316 5 5 6.34316 5 8C5 9.65684 6.34316 11 8 11Z" fill="url(#paint3_linear_80_5670)"/>
<circle cx="14.6285" cy="13.4857" r="0.914286" fill="url(#paint4_linear_80_5670)"/>
</g>
<defs>
<linearGradient id="paint0_linear_80_5670" x1="5.73225" y1="16" x2="5.73225" y2="4.00122" gradientUnits="userSpaceOnUse">
<stop stop-color="#00B2FF"/>
<stop offset="1" stop-color="#7FDFFF"/>
</linearGradient>
<linearGradient id="paint1_linear_80_5670" x1="6.99912" y1="16.0034" x2="12.1413" y2="3.3805" gradientUnits="userSpaceOnUse">
<stop offset="0.0806759" stop-color="#7DDCFF"/>
<stop offset="0.835001" stop-color="#22B4FA"/>
</linearGradient>
<linearGradient id="paint2_linear_80_5670" x1="2.45767" y1="10.5033" x2="5.45933" y2="-1.38073" gradientUnits="userSpaceOnUse">
<stop offset="0.190745" stop-color="#22B4FA"/>
<stop offset="0.896724" stop-color="#7DDCFF"/>
</linearGradient>
<linearGradient id="paint3_linear_80_5670" x1="5" y1="11" x2="12.0588" y2="9.23533" gradientUnits="userSpaceOnUse">
<stop stop-color="#6BD6FE"/>
<stop offset="1" stop-color="white"/>
</linearGradient>
<linearGradient id="paint4_linear_80_5670" x1="13.8971" y1="14.4006" x2="14.5575" y2="12.419" gradientUnits="userSpaceOnUse">
<stop offset="0.190745" stop-color="#22B4FA"/>
<stop offset="0.896724" stop-color="#7DDCFF"/>
</linearGradient>
<clipPath id="clip0_80_5670">
<rect width="16" height="16" fill="white"/>
</clipPath>
</defs>
</svg>
