<svg width="16" height="16" viewBox="0 0 16 16" fill="none" xmlns="http://www.w3.org/2000/svg">
<path fill-rule="evenodd" clip-rule="evenodd" d="M3.625 8C3.625 9.75 2.169 9.89262 2.1165 9.91887C1.68338 10.1324 1.50488 10.6574 1.71838 11.0905C2.86025 13.4057 5.2455 15 8 15C11.8631 15 15 11.8631 15 8C15 4.13688 11.8631 1 8 1C5.2455 1 2.86025 2.59425 1.71838 4.9095C1.50488 5.34262 1.68338 5.86763 2.1165 6.08113C2.169 6.10738 3.625 6.25 3.625 8ZM1.875 7.125C1.392 7.125 1 7.517 1 8C1 8.483 1.392 8.875 1.875 8.875C2.358 8.875 2.75 8.483 2.75 8C2.75 7.517 2.358 7.125 1.875 7.125Z" fill="url(#paint0_linear_8_25)"/>
<path fill-rule="evenodd" clip-rule="evenodd" d="M6.25 5.8125V8.4375C6.25 8.72975 6.39612 9.00363 6.63937 9.1655L9.26437 10.9155C9.66687 11.1833 10.2102 11.0748 10.478 10.6731C10.7457 10.2706 10.6372 9.72725 10.2356 9.4595L8 7.96938V5.8125C8 5.3295 7.608 4.9375 7.125 4.9375C6.642 4.9375 6.25 5.3295 6.25 5.8125Z" fill="#344CD8"/>
<path fill-rule="evenodd" clip-rule="evenodd" d="M7.125 5.375V8C7.125 8.29225 7.27112 8.56613 7.51437 8.728L10.1394 10.478C10.5419 10.7458 11.0852 10.6373 11.353 10.2356C11.6207 9.83313 11.5122 9.28975 11.1106 9.022L8.875 7.53188V5.375C8.875 4.892 8.483 4.5 8 4.5C7.517 4.5 7.125 4.892 7.125 5.375Z" fill="url(#paint1_linear_8_25)"/>
<defs>
<linearGradient id="paint0_linear_8_25" x1="1.875" y1="15.0075" x2="17.2397" y2="4.18821" gradientUnits="userSpaceOnUse">
<stop stop-color="#2E4AFA"/>
<stop offset="1" stop-color="#8E9EFF"/>
</linearGradient>
<linearGradient id="paint1_linear_8_25" x1="7.12497" y1="10.6249" x2="11.2742" y2="10.5489" gradientUnits="userSpaceOnUse">
<stop stop-color="#8E9EFF"/>
<stop offset="1" stop-color="white"/>
</linearGradient>
</defs>
</svg>
