<svg width="16" height="16" viewBox="0 0 16 16" fill="none" xmlns="http://www.w3.org/2000/svg">
<path d="M8.88573 7.09493C9.18373 7.20678 9.35203 7.50515 9.40781 7.85332L11.5697 14.2569C11.8145 14.9729 11.5008 15.6939 10.7441 15.6939H1.13753C0.872264 15.6939 0.639381 15.6577 0.452915 15.5788C0.264543 15.4991 0.106095 15.367 0.0361558 15.1715C-0.033254 14.9776 0.00345227 14.7741 0.0937449 14.5901C0.183717 14.4067 0.335449 14.2227 0.535539 14.043L8.00472 7.33561C8.26518 7.10174 8.58443 6.98184 8.88573 7.09493Z" fill="url(#paint0_linear_249_209)"/>
<path d="M7.93103 7.51037L7.44645 0.371704L6.17377 2.67219L1.89135 10.4467L1.8911 10.4471C1.67882 10.8297 1.80217 11.3225 2.17951 11.5486L2.17964 11.5486C2.56333 11.7782 3.31033 11.5104 3.72412 11.1655L5.51723 9.57934L7.93103 7.51037Z" fill="url(#paint1_linear_249_209)"/>
<path fill-rule="evenodd" clip-rule="evenodd" d="M11.4353 15.3904L6.30877 13.4441L6.30839 13.4439C5.89619 13.2882 5.69658 12.8224 5.83861 12.4112L6.049 9.09183L8.0047 7.33561C8.26515 7.10174 8.58441 6.98184 8.8857 7.09493C9.1837 7.20678 9.35201 7.50515 9.40779 7.85332L11.5696 14.2569C11.7158 14.6845 11.6629 15.1139 11.4353 15.3904Z" fill="#7FD1AE"/>
<path fill-rule="evenodd" clip-rule="evenodd" d="M7.51318 1.35522L7.93099 7.51035L6.04688 9.12531L6.49241 2.09615L6.80571 1.52983C6.93181 1.39108 7.0963 1.29951 7.28826 1.3036C7.369 1.30532 7.44419 1.32374 7.51318 1.35522Z" fill="#279FD7"/>
<path fill-rule="evenodd" clip-rule="evenodd" d="M7.93048 0.200144C8.1858 0.205582 8.38566 0.378042 8.50917 0.602372L8.50924 0.60251L8.62809 0.817848L10.7463 4.82239C11.0276 5.35418 10.7309 6.02296 10.4292 6.54341C10.2878 6.78719 10.2069 7.07036 10.2069 7.37244C10.2069 8.28657 10.948 9.02762 11.8621 9.02762C12.3992 9.02762 13.0343 9.14773 13.2854 9.62255L15.846 14.4632C15.9258 14.6145 15.9797 14.7634 15.9953 14.9028C16.0111 15.0424 15.99 15.1963 15.8886 15.3202C15.7853 15.4464 15.6367 15.4954 15.4944 15.5011C15.3545 15.5068 15.2015 15.4729 15.0447 15.4134L6.95099 12.3406L6.9506 12.3405C6.58174 12.2011 6.38311 11.8135 6.4472 11.4388C6.45149 11.4137 6.45627 11.3887 6.46106 11.3637C6.47318 11.3003 6.48531 11.2369 6.48939 11.1725L7.12496 1.14503C7.13517 0.983989 7.1842 0.827807 7.26786 0.689822L7.33561 0.578096L7.33573 0.577876C7.46816 0.358705 7.67499 0.194702 7.93048 0.200144ZM12.4138 8.25519C13.0232 8.25519 13.5173 7.76116 13.5173 7.15174C13.5173 6.54232 13.0232 6.04829 12.4138 6.04829C11.8044 6.04829 11.3104 6.54232 11.3104 7.15174C11.3104 7.76116 11.8044 8.25519 12.4138 8.25519Z" fill="url(#paint2_linear_249_209)"/>
<defs>
<linearGradient id="paint0_linear_249_209" x1="1.45643" y1="14.6138" x2="11.9263" y2="11.3564" gradientUnits="userSpaceOnUse">
<stop stop-color="#62E8AF"/>
<stop offset="1" stop-color="#B3FBDC"/>
</linearGradient>
<linearGradient id="paint1_linear_249_209" x1="2.402" y1="11.6377" x2="8.43512" y2="1.76383" gradientUnits="userSpaceOnUse">
<stop offset="0.190745" stop-color="#22B4FA"/>
<stop offset="0.896724" stop-color="#7DDCFF"/>
</linearGradient>
<linearGradient id="paint2_linear_249_209" x1="8.22869" y1="13.589" x2="17.5631" y2="6.58744" gradientUnits="userSpaceOnUse">
<stop stop-color="#FF405B"/>
<stop offset="1" stop-color="#FF8860"/>
</linearGradient>
</defs>
</svg>
