<svg width="16" height="16" viewBox="0 0 16 16" fill="none" xmlns="http://www.w3.org/2000/svg">
<g clip-path="url(#clip0_15_1416)">
<path fill-rule="evenodd" clip-rule="evenodd" d="M12.9824 15C12.9824 15.552 12.5344 16 11.9824 16H3.97442C1.76942 16 -0.0175781 14.213 -0.0175781 12.008C-0.0175781 9.643 -0.0175781 6.357 -0.0175781 3.992C-0.0175781 2.933 0.403422 1.918 1.15142 1.169C1.90042 0.421 2.91542 0 3.97442 0C6.33942 0 9.62542 0 11.9904 0C14.1954 0 15.9824 1.787 15.9824 3.992C15.9824 7.249 15.9824 12 15.9824 12C15.9824 12.552 15.5344 13 14.9824 13C13.8784 13 12.9824 13.896 12.9824 15ZM13.9824 15C13.9824 14.448 14.4304 14 14.9824 14C15.5344 14 15.9824 14.448 15.9824 15C15.9824 15.552 15.5344 16 14.9824 16C14.4304 16 13.9824 15.552 13.9824 15Z" fill="url(#paint0_linear_15_1416)"/>
<path d="M5.14607 9.74433C5.14426 9.74459 5.14258 9.74538 5.14123 9.7466C5.05163 9.82765 4.94986 9.89715 4.83929 9.95175L4.83172 9.95519C4.72506 10.0059 4.61412 10.0471 4.5002 10.0783L4.48576 10.0817C4.35789 10.1271 4.22318 10.1501 4.08752 10.1498H4.07101H3.05542C2.85935 10.1498 2.69218 10.292 2.66063 10.4855L2.54997 11.1644C2.51842 11.3579 2.35125 11.5 2.15518 11.5H1.98399C1.73287 11.5 1.54386 11.2713 1.59115 11.0247L2.31813 7.23358C2.35426 7.04514 2.51911 6.90891 2.71097 6.90891H4.28767L4.33031 6.90822C4.57792 6.90822 4.8159 6.95155 5.036 7.03134L5.02156 7.02652C5.22446 7.10081 5.3971 7.21636 5.53603 7.36286L5.53672 7.36355C5.65709 7.51693 5.74306 7.70263 5.7802 7.90622L5.78158 7.91379C5.82238 8.1552 5.81889 8.40202 5.77126 8.64218L5.77333 8.62911C5.75082 8.743 5.71813 8.85464 5.67566 8.96269L5.68047 8.94962C5.64104 9.05096 5.59885 9.14657 5.55392 9.23644C5.49798 9.32631 5.43607 9.41641 5.36821 9.50674C5.30426 9.59302 5.23115 9.67212 5.15018 9.74266L5.14983 9.74289C5.1487 9.74365 5.14741 9.74414 5.14607 9.74433V9.74433ZM8.50152 10.1492C8.24885 10.1495 8.05915 9.9184 8.10876 9.67065L8.40143 8.20886C8.41793 8.13526 8.42756 8.05135 8.42756 7.96469L8.42619 7.91104V7.91379C8.42554 7.84173 8.39836 7.77243 8.34984 7.71914C8.30156 7.67728 8.24512 7.64589 8.18408 7.62698L8.18064 7.62629C8.08754 7.59748 7.99059 7.5831 7.89314 7.58364L7.85806 7.58433H7.85944H7.41375C7.22269 7.58433 7.05831 7.71945 7.02132 7.9069L6.64239 9.82728C6.60541 10.0147 6.44102 10.1498 6.24996 10.1498H6.08674C5.83471 10.1498 5.64548 9.91958 5.69432 9.67233L6.41669 6.01536C6.45371 5.82795 6.61808 5.69287 6.80911 5.69287H6.97402C7.22552 5.69287 7.41462 5.92221 7.36669 6.16909L7.31566 6.432C7.26774 6.67888 7.45684 6.90822 7.70833 6.90822H8.10361L8.15382 6.90753C8.38148 6.90753 8.60295 6.93573 8.8148 6.98801L8.79623 6.98388C8.96749 7.02171 9.11674 7.10218 9.23711 7.21223L9.23642 7.21154C9.34532 7.29684 9.42 7.41838 9.44689 7.55407L9.44758 7.55751C9.47544 7.73793 9.46607 7.92214 9.42006 8.09881L9.42213 8.08918L9.08042 9.82613C9.04357 10.0135 8.87943 10.1487 8.68849 10.1489L8.50152 10.1492ZM13.4482 8.64737C13.448 8.64757 13.4478 8.64785 13.4477 8.64816C13.4203 8.77243 13.3914 8.87341 13.3571 8.97301L13.3632 8.95169C13.3261 9.06105 13.2807 9.15596 13.225 9.244V9.244C13.2253 9.24351 13.226 9.2439 13.2258 9.24444C13.1819 9.34287 13.1255 9.4352 13.0579 9.51913L13.0599 9.51637C12.9925 9.60029 12.9203 9.67457 12.8419 9.74266L12.8398 9.74472C12.7497 9.82657 12.6472 9.89673 12.5358 9.95175L12.5283 9.95519C12.4216 10.0059 12.3106 10.0471 12.1967 10.0783L12.1823 10.0817C12.0544 10.1271 11.9197 10.1501 11.784 10.1498H11.7675H10.7479C10.5536 10.1498 10.3874 10.2895 10.3539 10.4809L10.2339 11.1662C10.2004 11.3576 10.0342 11.4973 9.83991 11.4973H9.68121C9.43008 11.4973 9.24107 11.2685 9.28837 11.0219L10.0153 7.23083C10.0515 7.04239 10.2163 6.90616 10.4082 6.90616H11.9684L12.0186 6.90547C12.2696 6.90547 12.5111 6.9488 12.7346 7.02927L12.7195 7.02446C12.9169 7.09599 13.0833 7.21154 13.2133 7.36011L13.2147 7.36148C13.3454 7.51418 13.4382 7.70332 13.4747 7.91104L13.476 7.91792C13.5155 8.16403 13.5061 8.41549 13.4485 8.65799L13.4505 8.64875C13.4507 8.64746 13.4493 8.64655 13.4482 8.64737V8.64737ZM11.5908 7.58365C11.5908 7.58365 11.5908 7.58364 11.5907 7.58364H11.2504C11.0577 7.58364 10.8925 7.72092 10.8571 7.91027L10.6536 9.00104C10.6077 9.24711 10.7965 9.47442 11.0468 9.47442H11.1898C11.3617 9.47442 11.5309 9.4586 11.6946 9.42902L11.6774 9.43177C11.8177 9.40701 11.9429 9.3568 12.053 9.28596V9.28596C12.0523 9.28628 12.0517 9.28542 12.0523 9.28493C12.1443 9.20173 12.2216 9.1058 12.282 8.99846L12.2848 8.99296C12.3556 8.86365 12.4086 8.71302 12.4354 8.55414L12.4368 8.54588C12.4709 8.39966 12.4793 8.2486 12.4615 8.0995L12.4622 8.10569C12.4532 8.00147 12.415 7.90189 12.3521 7.81831C12.352 7.81822 12.3519 7.81831 12.3519 7.81841V7.81841C12.352 7.8185 12.3519 7.81859 12.3518 7.81852C12.2712 7.74341 12.1754 7.68653 12.0709 7.65174L12.0654 7.65036C11.9125 7.60059 11.7521 7.57823 11.5915 7.58433V7.58433C11.5918 7.58433 11.5918 7.5839 11.5915 7.58383L11.5908 7.58365ZM3.89429 7.58365C3.89426 7.58365 3.89423 7.58364 3.8942 7.58364H3.5536C3.36109 7.58364 3.19588 7.72077 3.16044 7.90999L2.95609 9.00076C2.90998 9.24691 3.09882 9.47442 3.34925 9.47442H3.49326C3.66521 9.47442 3.83441 9.4586 3.9981 9.42902L3.98091 9.43177C4.12122 9.40701 4.2464 9.3568 4.35645 9.28596V9.28596C4.3558 9.28628 4.35522 9.28542 4.35575 9.28493C4.44778 9.20173 4.52502 9.1058 4.58549 8.99846L4.58824 8.99296C4.65908 8.86365 4.71204 8.71302 4.73887 8.55414L4.74024 8.54588C4.7744 8.39966 4.78277 8.2486 4.76501 8.0995L4.76569 8.10569C4.75662 8.00147 4.71846 7.90189 4.65557 7.81831C4.6555 7.81822 4.65536 7.81831 4.65541 7.81841V7.81841C4.65546 7.8185 4.65534 7.81859 4.65526 7.81852C4.57468 7.74341 4.47886 7.68653 4.37433 7.65174L4.36883 7.65036C4.21599 7.60059 4.05556 7.57823 3.89493 7.58433V7.58433C3.89523 7.58433 3.89529 7.5839 3.895 7.58383L3.89429 7.58365Z" fill="#8C4FD9"/>
<path d="M6.14607 8.74433C6.14426 8.74459 6.14258 8.74538 6.14123 8.7466C6.05163 8.82765 5.94986 8.89715 5.83929 8.95175L5.83172 8.95519C5.72506 9.00591 5.61412 9.04711 5.5002 9.07831L5.48576 9.08175C5.35789 9.12707 5.22318 9.15011 5.08752 9.14984H5.07101H4.05542C3.85935 9.14984 3.69218 9.29197 3.66063 9.48549L3.54997 10.1644C3.51842 10.3579 3.35125 10.5 3.15518 10.5H2.98399C2.73287 10.5 2.54386 10.2713 2.59115 10.0247L3.31813 6.23358C3.35426 6.04514 3.51911 5.90891 3.71097 5.90891H5.28767L5.33031 5.90822C5.57792 5.90822 5.8159 5.95155 6.036 6.03134L6.02156 6.02652C6.22446 6.10081 6.3971 6.21636 6.53603 6.36286L6.53672 6.36355C6.65709 6.51693 6.74306 6.70263 6.7802 6.90622L6.78158 6.91379C6.82238 7.1552 6.81889 7.40202 6.77126 7.64218L6.77333 7.62911C6.75082 7.743 6.71813 7.85464 6.67566 7.96269L6.68047 7.94962C6.64104 8.05096 6.59885 8.14657 6.55392 8.23644C6.49798 8.32631 6.43607 8.41641 6.36821 8.50674C6.30426 8.59302 6.23115 8.67212 6.15018 8.74266L6.14983 8.74289C6.1487 8.74365 6.14741 8.74414 6.14607 8.74433V8.74433ZM9.50152 9.14917C9.24885 9.14952 9.05915 8.9184 9.10876 8.67065L9.40143 7.20886C9.41793 7.13526 9.42756 7.05135 9.42756 6.96469L9.42619 6.91104V6.91379C9.42554 6.84173 9.39836 6.77243 9.34984 6.71914C9.30156 6.67728 9.24512 6.64589 9.18408 6.62698L9.18064 6.62629C9.08754 6.59748 8.99059 6.5831 8.89314 6.58364L8.85806 6.58433H8.85944H8.41375C8.22269 6.58433 8.05831 6.71945 8.02132 6.9069L7.64239 8.82728C7.60541 9.01472 7.44102 9.14984 7.24996 9.14984H7.08674C6.83471 9.14984 6.64548 8.91958 6.69432 8.67233L7.41669 5.01536C7.45371 4.82795 7.61808 4.69287 7.80911 4.69287H7.97402C8.22552 4.69287 8.41462 4.92221 8.36669 5.16909L8.31566 5.432C8.26774 5.67888 8.45684 5.90822 8.70833 5.90822H9.10361L9.15382 5.90753C9.38148 5.90753 9.60295 5.93573 9.8148 5.98801L9.79623 5.98388C9.96749 6.02171 10.1167 6.10218 10.2371 6.21223L10.2364 6.21154C10.3453 6.29684 10.42 6.41838 10.4469 6.55407L10.4476 6.55751C10.4754 6.73793 10.4661 6.92214 10.4201 7.09881L10.4221 7.08918L10.0804 8.82613C10.0436 9.01348 9.87943 9.14865 9.68849 9.14892L9.50152 9.14917ZM14.4482 7.64737C14.448 7.64757 14.4478 7.64785 14.4477 7.64816C14.4203 7.77243 14.3914 7.87341 14.3571 7.97301L14.3632 7.95169C14.3261 8.06105 14.2807 8.15596 14.225 8.244V8.244C14.2253 8.24351 14.226 8.2439 14.2258 8.24444C14.1819 8.34287 14.1255 8.4352 14.0579 8.51913L14.0599 8.51637C13.9925 8.60029 13.9203 8.67457 13.8419 8.74266L13.8398 8.74472C13.7497 8.82657 13.6472 8.89673 13.5358 8.95175L13.5283 8.95519C13.4216 9.00591 13.3106 9.04711 13.1967 9.07831L13.1823 9.08175C13.0544 9.12707 12.9197 9.15011 12.784 9.14984H12.7675H11.7479C11.5536 9.14984 11.3874 9.28947 11.3539 9.48086L11.2339 10.1662C11.2004 10.3576 11.0342 10.4973 10.8399 10.4973H10.6812C10.4301 10.4973 10.2411 10.2685 10.2884 10.0219L11.0153 6.23083C11.0515 6.04239 11.2163 5.90616 11.4082 5.90616H12.9684L13.0186 5.90547C13.2696 5.90547 13.5111 5.9488 13.7346 6.02927L13.7195 6.02446C13.9169 6.09599 14.0833 6.21154 14.2133 6.36011L14.2147 6.36148C14.3454 6.51418 14.4382 6.70332 14.4747 6.91104L14.476 6.91792C14.5155 7.16403 14.5061 7.41549 14.4485 7.65799L14.4505 7.64875C14.4507 7.64746 14.4493 7.64655 14.4482 7.64737V7.64737ZM12.5908 6.58365C12.5908 6.58365 12.5908 6.58364 12.5907 6.58364H12.2504C12.0577 6.58364 11.8925 6.72092 11.8571 6.91027L11.6536 8.00104C11.6077 8.24711 11.7965 8.47442 12.0468 8.47442H12.1898C12.3617 8.47442 12.5309 8.4586 12.6946 8.42902L12.6774 8.43177C12.8177 8.40701 12.9429 8.3568 13.053 8.28596V8.28596C13.0523 8.28628 13.0517 8.28542 13.0523 8.28493C13.1443 8.20173 13.2216 8.1058 13.282 7.99846L13.2848 7.99296C13.3556 7.86365 13.4086 7.71302 13.4354 7.55414L13.4368 7.54588C13.4709 7.39966 13.4793 7.2486 13.4615 7.0995L13.4622 7.10569C13.4532 7.00147 13.415 6.90189 13.3521 6.81831C13.352 6.81822 13.3519 6.81831 13.3519 6.81841V6.81841C13.352 6.8185 13.3519 6.81859 13.3518 6.81852C13.2712 6.74341 13.1754 6.68653 13.0709 6.65174L13.0654 6.65036C12.9125 6.60059 12.7521 6.57823 12.5915 6.58433V6.58433C12.5918 6.58433 12.5918 6.5839 12.5915 6.58383L12.5908 6.58365ZM4.89429 6.58365C4.89426 6.58365 4.89423 6.58364 4.8942 6.58364H4.5536C4.36109 6.58364 4.19588 6.72077 4.16044 6.90999L3.95609 8.00076C3.90998 8.24691 4.09882 8.47442 4.34925 8.47442H4.49326C4.66521 8.47442 4.83441 8.4586 4.9981 8.42902L4.98091 8.43177C5.12122 8.40701 5.2464 8.3568 5.35645 8.28596V8.28596C5.3558 8.28628 5.35522 8.28542 5.35575 8.28493C5.44778 8.20173 5.52502 8.1058 5.58549 7.99846L5.58824 7.99296C5.65908 7.86365 5.71204 7.71302 5.73887 7.55414L5.74024 7.54588C5.7744 7.39966 5.78277 7.2486 5.76501 7.0995L5.76569 7.10569C5.75662 7.00147 5.71846 6.90189 5.65557 6.81831C5.6555 6.81822 5.65536 6.81831 5.65541 6.81841V6.81841C5.65546 6.8185 5.65534 6.81859 5.65526 6.81852C5.57468 6.74341 5.47886 6.68653 5.37433 6.65174L5.36883 6.65036C5.21599 6.60059 5.05556 6.57823 4.89493 6.58433V6.58433C4.89523 6.58433 4.89529 6.5839 4.895 6.58383L4.89429 6.58365Z" fill="url(#paint1_linear_15_1416)"/>
</g>
<defs>
<linearGradient id="paint0_linear_15_1416" x1="3.98242" y1="14.8571" x2="14.5707" y2="2.5042" gradientUnits="userSpaceOnUse">
<stop stop-color="#A056FF"/>
<stop offset="1" stop-color="#C59AFD"/>
</linearGradient>
<linearGradient id="paint1_linear_15_1416" x1="5.5" y1="10.5" x2="14.3168" y2="4.42691" gradientUnits="userSpaceOnUse">
<stop stop-color="#C59AFD"/>
<stop offset="1" stop-color="white"/>
</linearGradient>
<clipPath id="clip0_15_1416">
<rect width="16" height="16" fill="white"/>
</clipPath>
</defs>
</svg>
