<svg width="16" height="16" viewBox="0 0 16 16" fill="none" xmlns="http://www.w3.org/2000/svg">
<g clip-path="url(#clip0_15_1328)">
<path fill-rule="evenodd" clip-rule="evenodd" d="M12.9824 15C12.9824 15.552 12.5344 16 11.9824 16H3.97442C1.76942 16 -0.0175781 14.213 -0.0175781 12.008C-0.0175781 9.643 -0.0175781 6.357 -0.0175781 3.992C-0.0175781 2.933 0.403422 1.918 1.15142 1.169C1.90042 0.421 2.91542 0 3.97442 0C6.33942 0 9.62542 0 11.9904 0C14.1954 0 15.9824 1.787 15.9824 3.992C15.9824 7.249 15.9824 12 15.9824 12C15.9824 12.552 15.5344 13 14.9824 13C13.8784 13 12.9824 13.896 12.9824 15ZM13.9824 15C13.9824 14.448 14.4304 14 14.9824 14C15.5344 14 15.9824 14.448 15.9824 15C15.9824 15.552 15.5344 16 14.9824 16C14.4304 16 13.9824 15.552 13.9824 15Z" fill="url(#paint0_linear_15_1328)"/>
<path d="M0.021206 9.63128C-0.531358 9.63128 -0.980147 10.0795 -0.98856 10.632C-0.993475 10.9548 -0.998761 11.2609 -0.999812 11.5515C-1.00173 12.0813 -0.565577 12.4949 -0.035711 12.4949H1.42049C1.97278 12.4949 2.42049 12.0472 2.42049 11.4949V10.6313C2.42049 10.079 1.97278 9.63128 1.42049 9.63128H0.021206ZM2.42049 2.23293C2.42049 1.61674 1.8445 1.10367 1.29771 1.38776C1.04838 1.51731 0.839011 1.68409 0.61074 1.9069C0.536519 1.97935 0.475743 2.06526 0.43078 2.15872C0.229023 2.57811 0.127842 2.86938 0.0616798 3.15993C-0.0745762 3.75831 0.433239 4.31323 1.04694 4.31323H1.42049C1.97278 4.31323 2.42049 3.86552 2.42049 3.31323V2.23293ZM0.021206 8.40404C-0.531358 8.40404 -0.979163 7.95577 -0.979167 7.40321C-0.97917 7.10486 -0.979253 6.82303 -0.979337 6.54042C-0.979502 5.98816 -0.531832 5.54048 0.020429 5.54048H1.42049C1.97278 5.54048 2.42049 5.98819 2.42049 6.54048V7.40404C2.42049 7.95633 1.97278 8.40404 1.42049 8.40404H0.021206ZM12.7849 1.46873C12.1771 1.36686 11.6205 1.86667 11.6205 2.48292V3.31323C11.6205 3.86552 12.0682 4.31323 12.6205 4.31323H13.5C14.0523 4.31323 14.5347 3.86166 14.4541 3.31529C14.4032 2.97008 14.2957 2.61704 14.0689 2.14106C14.0243 2.04743 13.9648 1.96007 13.8847 1.89416C13.5861 1.64843 13.2114 1.54023 12.7849 1.46873ZM11.6205 6.54048C11.6205 5.98819 12.0682 5.54048 12.6205 5.54048H13.0562C13.5861 5.54048 14.0222 5.95403 14.0201 6.48389C14.019 6.77422 14.0136 7.08011 14.0087 7.40264C14.0003 7.95542 13.5515 8.40404 12.9986 8.40404H12.6205C12.0682 8.40404 11.6205 7.95633 11.6205 7.40404V6.54048ZM14.0088 10.6327C14.0003 10.0799 13.5514 9.63128 12.9986 9.63128H12.6205C12.0682 9.63128 11.6205 10.079 11.6205 10.6313V11.4824C11.6205 12.0395 12.0758 12.4892 12.6329 12.4823L13.0678 12.477C13.5929 12.4705 14.0221 12.0587 14.0201 11.5336C14.019 11.249 14.0137 10.9496 14.0088 10.6327Z" fill="#D84F4F"/>
<path d="M-0.0378355 10.5338C-0.0367841 10.2432 -0.0314984 9.93709 -0.0265829 9.61428C-0.0181699 9.06178 0.430618 8.6136 0.983183 8.6136H2.38247C2.93475 8.6136 3.38247 9.06132 3.38247 9.6136V10.4772C3.38247 11.0295 2.93475 11.4772 2.38247 11.4772H0.926266C0.3964 11.4772 -0.039753 11.0636 -0.0378355 10.5338Z" fill="url(#paint1_linear_15_1328)"/>
<path d="M1.15367 14.983C0.836375 14.658 0.563595 14.2795 0.360077 13.8233C0.110052 13.2629 0.591153 12.7044 1.20485 12.7044H2.38247C2.93475 12.7044 3.38247 13.1521 3.38247 13.7044V14.7734C3.38247 15.3893 2.82146 15.882 2.24334 15.6697C1.81695 15.5131 1.46074 15.2975 1.15367 14.983Z" fill="url(#paint2_linear_15_1328)"/>
<path d="M1.15367 1.01615C1.46084 0.702006 1.81716 0.482953 2.24373 0.323148C2.82076 0.106977 3.38247 0.599058 3.38247 1.21525V2.29555C3.38247 2.84783 2.93475 3.29555 2.38247 3.29555H1.23464C0.620947 3.29555 0.138077 2.73749 0.379591 2.17331C0.574408 1.71822 0.83661 1.3404 1.15367 1.01615Z" fill="url(#paint3_linear_15_1328)"/>
<path d="M-0.0173607 5.52274L-0.0171906 6.38552C-0.017186 6.93809 0.430618 7.38636 0.983183 7.38636H2.38247C2.93475 7.38636 3.38247 6.93864 3.38247 6.38636V5.52279C3.38247 4.97051 2.93475 4.52279 2.38247 4.52279H0.982406C0.430145 4.52279 -0.0175252 4.97048 -0.0173607 5.52274Z" fill="url(#paint4_linear_15_1328)"/>
<path fill-rule="evenodd" clip-rule="evenodd" d="M5.5 13H8.49998C9.05198 13 9.49998 12.552 9.49998 12C9.49998 11.448 9.05198 11 8.49998 11H5.5C4.948 11 4.5 11.448 4.5 12C4.5 12.552 4.948 13 5.5 13Z" fill="#D84F4F"/>
<path fill-rule="evenodd" clip-rule="evenodd" d="M5.5 7H8.49998C9.05198 7 9.49998 6.552 9.49998 6C9.49998 5.448 9.05198 5 8.49998 5H5.5C4.948 5 4.5 5.448 4.5 6C4.5 6.552 4.948 7 5.5 7Z" fill="#D84F4F"/>
<path d="M12.5825 2.2955V1.1754C12.5825 0.559158 13.1449 0.0694431 13.7171 0.298078C14.1451 0.469062 14.5025 0.701109 14.8105 1.0161C15.1256 1.33829 15.356 1.71336 15.5245 2.16458C15.739 2.73922 15.2512 3.2955 14.6379 3.2955H13.5825C13.0302 3.2955 12.5825 2.84779 12.5825 2.2955Z" fill="url(#paint5_linear_15_1328)"/>
<path d="M14.9835 4.52275H13.5825C13.0302 4.52275 12.5825 4.97046 12.5825 5.52275V6.38631C12.5825 6.9386 13.0302 7.38631 13.5825 7.38631H14.9811C15.5339 7.38631 15.9829 6.9377 15.9783 6.38487C15.9756 6.0622 15.9713 5.75619 15.9642 5.46576C15.9514 4.93605 15.5133 4.52275 14.9835 4.52275Z" fill="url(#paint6_linear_15_1328)"/>
<path d="M13.5825 8.61355H14.9811C15.5339 8.61355 15.9829 9.06217 15.9783 9.61499C15.9756 9.93767 15.9713 10.2437 15.9642 10.5341C15.9514 11.0638 15.5133 11.4771 14.9835 11.4771H13.5825C13.0302 11.4771 12.5825 11.0294 12.5825 10.4771V9.61355C12.5825 9.06127 13.0302 8.61355 13.5825 8.61355Z" fill="url(#paint7_linear_15_1328)"/>
<path fill-rule="evenodd" clip-rule="evenodd" d="M6.5 12.0177H9.49998C10.052 12.0177 10.5 11.5697 10.5 11.0177C10.5 10.4657 10.052 10.0177 9.49998 10.0177H6.5C5.948 10.0177 5.5 10.4657 5.5 11.0177C5.5 11.5697 5.948 12.0177 6.5 12.0177Z" fill="url(#paint8_linear_15_1328)"/>
<path fill-rule="evenodd" clip-rule="evenodd" d="M6.5 6H9.49998C10.052 6 10.5 5.552 10.5 5C10.5 4.448 10.052 4 9.49998 4H6.5C5.948 4 5.5 4.448 5.5 5C5.5 5.552 5.948 6 6.5 6Z" fill="url(#paint9_linear_15_1328)"/>
</g>
<defs>
<linearGradient id="paint0_linear_15_1328" x1="2.98242" y1="14" x2="12.9824" y2="2" gradientUnits="userSpaceOnUse">
<stop stop-color="#FF405B"/>
<stop offset="1" stop-color="#FF8860"/>
</linearGradient>
<linearGradient id="paint1_linear_15_1328" x1="0.939007" y1="15.7195" x2="6.93784" y2="13.3802" gradientUnits="userSpaceOnUse">
<stop offset="0.076166" stop-color="#FF8860"/>
<stop offset="1" stop-color="white"/>
</linearGradient>
<linearGradient id="paint2_linear_15_1328" x1="0.939007" y1="15.7195" x2="6.93784" y2="13.3802" gradientUnits="userSpaceOnUse">
<stop offset="0.076166" stop-color="#FF8860"/>
<stop offset="1" stop-color="white"/>
</linearGradient>
<linearGradient id="paint3_linear_15_1328" x1="0.939007" y1="15.7195" x2="6.93784" y2="13.3802" gradientUnits="userSpaceOnUse">
<stop offset="0.076166" stop-color="#FF8860"/>
<stop offset="1" stop-color="white"/>
</linearGradient>
<linearGradient id="paint4_linear_15_1328" x1="0.939007" y1="15.7195" x2="6.93784" y2="13.3802" gradientUnits="userSpaceOnUse">
<stop offset="0.076166" stop-color="#FF8860"/>
<stop offset="1" stop-color="white"/>
</linearGradient>
<linearGradient id="paint5_linear_15_1328" x1="13.5524" y1="11.4769" x2="18.4223" y2="7.97277" gradientUnits="userSpaceOnUse">
<stop stop-color="#FF8860"/>
<stop offset="1" stop-color="white"/>
</linearGradient>
<linearGradient id="paint6_linear_15_1328" x1="13.5524" y1="11.4769" x2="18.4223" y2="7.97277" gradientUnits="userSpaceOnUse">
<stop stop-color="#FF8860"/>
<stop offset="1" stop-color="white"/>
</linearGradient>
<linearGradient id="paint7_linear_15_1328" x1="13.5524" y1="11.4769" x2="18.4223" y2="7.97277" gradientUnits="userSpaceOnUse">
<stop stop-color="#FF8860"/>
<stop offset="1" stop-color="white"/>
</linearGradient>
<linearGradient id="paint8_linear_15_1328" x1="6.92801" y1="12.0177" x2="7.22675" y2="10.2395" gradientUnits="userSpaceOnUse">
<stop stop-color="#FF8860"/>
<stop offset="1" stop-color="white"/>
</linearGradient>
<linearGradient id="paint9_linear_15_1328" x1="6.92801" y1="5.99996" x2="7.22675" y2="4.22177" gradientUnits="userSpaceOnUse">
<stop stop-color="#FF8860"/>
<stop offset="1" stop-color="white"/>
</linearGradient>
<clipPath id="clip0_15_1328">
<rect width="16" height="16" fill="white"/>
</clipPath>
</defs>
</svg>
