<svg width="16" height="16" viewBox="0 0 16 16" fill="none" xmlns="http://www.w3.org/2000/svg">
<g clip-path="url(#clip0_15_1346)">
<path fill-rule="evenodd" clip-rule="evenodd" d="M1 13C0.448 13 0 12.552 0 12V3.992C0 1.787 1.787 0 3.992 0C6.357 0 9.643 0 12.008 0C13.067 0 14.082 0.421001 14.831 1.169C15.579 1.918 16 2.933 16 3.992C16 6.357 16 9.643 16 12.008C16 14.213 14.213 16 12.008 16C8.751 16 4 16 4 16C3.448 16 3 15.552 3 15C3 13.896 2.104 13 1 13ZM1 14C1.552 14 2 14.448 2 15C2 15.552 1.552 16 1 16C0.448 16 0 15.552 0 15C0 14.448 0.448 14 1 14Z" fill="url(#paint0_linear_15_1346)"/>
<path fill-rule="evenodd" clip-rule="evenodd" d="M10.0635 4H4.45989C4.0945 4 3.79399 4.29436 3.80014 4.65975L3.87271 8.48463H10.6043L10.7232 4.65975C10.7234 4.57305 10.7065 4.48717 10.6734 4.40703C10.6404 4.3269 10.5918 4.25409 10.5305 4.19278C10.4692 4.13148 10.3963 4.08289 10.3162 4.04981C10.2361 4.01673 10.1502 3.9998 10.0635 4ZM10.6043 9.67234V8.48464H3.87277V9.67234C3.8292 10.147 4.39848 10.1498 4.78199 10.1517C4.78898 10.1518 4.79591 10.1518 4.80277 10.1518C6.21149 10.159 6.5038 10.81 6.46175 11.5085C6.45125 11.6816 6.44279 11.815 6.43584 11.9243C6.41634 12.2317 6.40888 12.3492 6.40226 12.6236C6.38047 13.518 6.81098 14 7.23842 14C7.66585 14 8.09663 13.5177 8.07483 12.6236C8.06821 12.3492 8.06076 12.2317 8.04125 11.9243C8.03431 11.815 8.02584 11.6816 8.01534 11.5085C7.97304 10.81 8.2656 10.159 9.67407 10.1518C9.68093 10.1518 9.68786 10.1518 9.69485 10.1517C10.0784 10.1498 10.6476 10.147 10.6043 9.67234Z" fill="#D49F34"/>
<path d="M10.0635 4L10.0635 4.5L10.0647 4.5L10.0635 4ZM3.80014 4.65975L3.30021 4.66817L3.30023 4.66923L3.80014 4.65975ZM3.87271 8.48463L3.3728 8.49412C3.37796 8.76651 3.60026 8.98463 3.87271 8.98463V8.48463ZM10.6043 8.48463V8.98463C10.8744 8.98463 11.0956 8.77014 11.104 8.50018L10.6043 8.48463ZM10.7232 4.65975L11.223 4.67529C11.2231 4.6705 11.2232 4.66571 11.2232 4.66092L10.7232 4.65975ZM10.6734 4.40703L10.2113 4.59783L10.2113 4.59783L10.6734 4.40703ZM10.5305 4.19278L10.884 3.83923L10.884 3.83923L10.5305 4.19278ZM10.3162 4.04981L10.507 3.58765L10.507 3.58765L10.3162 4.04981ZM10.6043 8.48464H11.1043C11.1043 8.2085 10.8805 7.98464 10.6043 7.98464V8.48464ZM10.6043 9.67234H10.1043C10.1043 9.68751 10.105 9.70267 10.1064 9.71777L10.6043 9.67234ZM3.87277 8.48464V7.98464C3.59662 7.98464 3.37277 8.2085 3.37277 8.48464H3.87277ZM3.87277 9.67234L4.37067 9.71803C4.37207 9.70284 4.37277 9.68759 4.37277 9.67234H3.87277ZM4.78199 10.1517L4.77952 10.6517L4.77953 10.6517L4.78199 10.1517ZM4.80277 10.1518L4.80009 10.6518L4.80022 10.6518L4.80277 10.1518ZM6.46175 11.5085L6.96083 11.5388L6.96084 11.5385L6.46175 11.5085ZM6.43584 11.9243L5.93685 11.8927L5.93685 11.8927L6.43584 11.9243ZM6.40226 12.6236L6.90211 12.6358L6.90212 12.6357L6.40226 12.6236ZM8.07483 12.6236L7.57498 12.6357L7.57498 12.6358L8.07483 12.6236ZM8.04125 11.9243L8.54024 11.8927L8.54024 11.8927L8.04125 11.9243ZM8.01534 11.5085L7.51626 11.5387L7.51626 11.5388L8.01534 11.5085ZM9.67407 10.1518L9.67662 10.6518L9.67674 10.6518L9.67407 10.1518ZM9.69485 10.1517L9.6973 10.6517L9.69731 10.6517L9.69485 10.1517ZM4.45989 4.5H10.0635V3.5H4.45989V4.5ZM4.30007 4.65133C4.29881 4.57633 4.36281 4.5 4.45989 4.5V3.5C3.82619 3.5 3.28917 4.01239 3.30021 4.66817L4.30007 4.65133ZM4.37262 8.47515L4.30005 4.65026L3.30023 4.66923L3.3728 8.49412L4.37262 8.47515ZM10.6043 7.98463H3.87271V8.98463H10.6043V7.98463ZM10.2235 4.6442L10.1045 8.46909L11.104 8.50018L11.223 4.67529L10.2235 4.6442ZM10.2113 4.59783C10.2192 4.6171 10.2233 4.63774 10.2232 4.65858L11.2232 4.66092C11.2236 4.50836 11.1938 4.35724 11.1356 4.21623L10.2113 4.59783ZM10.1769 4.54634C10.1916 4.56107 10.2033 4.57857 10.2113 4.59783L11.1356 4.21623C11.0774 4.07522 10.9919 3.9471 10.884 3.83923L10.1769 4.54634ZM10.1254 4.51197C10.1447 4.51992 10.1622 4.5316 10.1769 4.54634L10.884 3.83923C10.7761 3.73136 10.648 3.64586 10.507 3.58765L10.1254 4.51197ZM10.0647 4.5C10.0855 4.49995 10.1061 4.50402 10.1254 4.51197L10.507 3.58765C10.366 3.52943 10.2149 3.49965 10.0623 3.5L10.0647 4.5ZM10.1043 8.48464V9.67234H11.1043V8.48464H10.1043ZM3.87277 8.98464H10.6043V7.98464H3.87277V8.98464ZM4.37277 9.67234V8.48464H3.37277V9.67234H4.37277ZM4.78446 9.65173C4.68608 9.65124 4.59571 9.65061 4.50917 9.64416C4.42108 9.63759 4.36027 9.62637 4.32226 9.61397C4.2829 9.60113 4.30447 9.59901 4.33409 9.63631C4.37334 9.68574 4.36957 9.73005 4.37067 9.71803L3.37486 9.62664C3.35418 9.85197 3.40523 10.0746 3.55095 10.2582C3.68704 10.4295 3.86673 10.5172 4.01219 10.5647C4.28614 10.654 4.60954 10.6509 4.77952 10.6517L4.78446 9.65173ZM4.80544 9.65183C4.79846 9.6518 4.79144 9.65176 4.78445 9.65173L4.77953 10.6517C4.78652 10.6517 4.79335 10.6518 4.80009 10.6518L4.80544 9.65183ZM6.96084 11.5385C6.98603 11.1202 6.91734 10.616 6.53485 10.2225C6.15753 9.83422 5.57313 9.65575 4.80532 9.65183L4.80022 10.6518C5.44113 10.6551 5.70724 10.8057 5.81774 10.9194C5.92308 11.0278 5.97952 11.1983 5.96265 11.4784L6.96084 11.5385ZM6.93484 11.956C6.94179 11.8466 6.95029 11.7126 6.96083 11.5388L5.96267 11.4782C5.95221 11.6505 5.94379 11.7834 5.93685 11.8927L6.93484 11.956ZM6.90212 12.6357C6.90849 12.3714 6.91543 12.2619 6.93484 11.956L5.93685 11.8927C5.91724 12.2016 5.90927 12.327 5.90241 12.6116L6.90212 12.6357ZM7.23842 13.5C7.22421 13.5 7.15128 13.4922 7.06504 13.3656C6.97874 13.239 6.89313 13.0044 6.90211 12.6358L5.90241 12.6114C5.8896 13.1372 6.00835 13.5908 6.23872 13.9288C6.46914 14.2669 6.82518 14.5 7.23842 14.5V13.5ZM7.57498 12.6358C7.58396 13.0042 7.49833 13.2388 7.41196 13.3655C7.3256 13.4921 7.25257 13.5 7.23842 13.5V14.5C7.6517 14.5 8.00777 14.2668 8.23821 13.9288C8.46864 13.5908 8.5875 13.1372 8.57468 12.6114L7.57498 12.6358ZM7.54225 11.956C7.56166 12.2619 7.5686 12.3714 7.57498 12.6357L8.57469 12.6116C8.56782 12.327 8.55985 12.2016 8.54024 11.8927L7.54225 11.956ZM7.51626 11.5388C7.5268 11.7126 7.53531 11.8466 7.54225 11.956L8.54024 11.8927C8.53331 11.7834 8.52488 11.6505 8.51443 11.4782L7.51626 11.5388ZM9.67152 9.65183C8.90382 9.65575 8.31942 9.83423 7.94211 10.2225C7.55961 10.616 7.49091 11.1202 7.51626 11.5387L8.51443 11.4783C8.49747 11.1983 8.5539 11.0278 8.65922 10.9194C8.76973 10.8057 9.03585 10.6551 9.67662 10.6518L9.67152 9.65183ZM9.69239 9.65173C9.6854 9.65176 9.67837 9.6518 9.67139 9.65183L9.67674 10.6518C9.68348 10.6518 9.69031 10.6517 9.6973 10.6517L9.69239 9.65173ZM10.1064 9.71777C10.1075 9.72976 10.1038 9.68551 10.143 9.63618C10.1725 9.59896 10.194 9.60112 10.1546 9.61396C10.1166 9.62637 10.0558 9.63759 9.96768 9.64415C9.88112 9.65061 9.79075 9.65124 9.69238 9.65173L9.69731 10.6517C9.86731 10.6509 10.1907 10.654 10.4647 10.5647C10.6101 10.5173 10.7898 10.4296 10.9259 10.2583C11.0716 10.0749 11.1228 9.85226 11.1023 9.6269L10.1064 9.71777Z" fill="#D49F34"/>
<path d="M5.45989 3H11.0635C11.1502 2.9998 11.2361 3.01673 11.3162 3.04981C11.3963 3.08289 11.4692 3.13148 11.5305 3.19278C11.5918 3.25409 11.6404 3.3269 11.6734 3.40703C11.7065 3.48717 11.7234 3.57305 11.7232 3.65975L11.6043 7.48463H4.87271L4.80014 3.65975C4.79399 3.29436 5.0945 3 5.45989 3Z" fill="url(#paint1_linear_15_1346)" stroke="url(#paint2_linear_15_1346)" stroke-linecap="round" stroke-linejoin="round"/>
<path d="M11.6043 7.48462V8.67232C11.6484 9.15565 11.0574 9.14975 10.674 9.1518C9.26556 9.15898 8.97299 9.81001 9.0153 10.5085C9.0553 11.168 9.06581 11.2516 9.07479 11.6236C9.09658 12.5177 8.66581 13 8.23837 13C7.81094 13 7.38042 12.518 7.40222 11.6236C7.41119 11.2516 7.4217 11.168 7.4617 10.5085C7.50376 9.81001 7.21145 9.15898 5.80272 9.1518C5.41939 9.14975 4.82836 9.15565 4.87272 8.67232V7.48462" fill="url(#paint3_linear_15_1346)"/>
<path d="M11.6043 7.48462V8.67232C11.6484 9.15565 11.0574 9.14975 10.674 9.1518C9.26556 9.15898 8.97299 9.81001 9.0153 10.5085C9.0553 11.168 9.06581 11.2516 9.07479 11.6236C9.09658 12.5177 8.66581 13 8.23837 13C7.81094 13 7.38042 12.518 7.40222 11.6236C7.41119 11.2516 7.4217 11.168 7.4617 10.5085C7.50376 9.81001 7.21145 9.15898 5.80272 9.1518C5.41939 9.14975 4.82836 9.15565 4.87272 8.67232V7.48462" stroke="url(#paint4_linear_15_1346)" stroke-linecap="round" stroke-linejoin="round"/>
</g>
<defs>
<linearGradient id="paint0_linear_15_1346" x1="3" y1="14.9988" x2="12.9991" y2="2.999" gradientUnits="userSpaceOnUse">
<stop stop-color="#FF8860"/>
<stop offset="1" stop-color="#FBD92C"/>
</linearGradient>
<linearGradient id="paint1_linear_15_1346" x1="6.53085" y1="6.36347" x2="8.5772" y2="3.2044" gradientUnits="userSpaceOnUse">
<stop stop-color="#FBD92C"/>
<stop offset="1" stop-color="white"/>
</linearGradient>
<linearGradient id="paint2_linear_15_1346" x1="6.53085" y1="6.36347" x2="8.5772" y2="3.2044" gradientUnits="userSpaceOnUse">
<stop stop-color="#FBD92C"/>
<stop offset="1" stop-color="white"/>
</linearGradient>
<linearGradient id="paint3_linear_15_1346" x1="6.55442" y1="11.6212" x2="9.2579" y2="8.31928" gradientUnits="userSpaceOnUse">
<stop stop-color="#FBD92C"/>
<stop offset="1" stop-color="white"/>
</linearGradient>
<linearGradient id="paint4_linear_15_1346" x1="6.55442" y1="11.6212" x2="9.2579" y2="8.31928" gradientUnits="userSpaceOnUse">
<stop stop-color="#FBD92C"/>
<stop offset="1" stop-color="white"/>
</linearGradient>
<clipPath id="clip0_15_1346">
<rect width="16" height="16" fill="white"/>
</clipPath>
</defs>
</svg>
