<svg width="16" height="16" viewBox="0 0 16 16" fill="none" xmlns="http://www.w3.org/2000/svg">
<path fill-rule="evenodd" clip-rule="evenodd" d="M15.4783 6.51342C14.9173 5.93018 14.2952 5.4136 13.6203 4.97201C12.1066 3.91385 10.5152 2.96954 8.8599 2.14744C7.87951 1.65586 6.86576 1.23925 5.82425 0.900423C5.34933 0.725443 4.83831 0.664341 4.3356 0.719888C3.76902 0.805987 3.28577 1.17537 3.05246 1.7003V1.7003C2.91451 2.0323 2.57933 2.24412 2.22022 2.22677C1.91395 2.21198 1.60838 2.24417 1.32774 2.37796C1.01669 2.54459 0.780614 2.8251 0.672298 3.15839C0.458435 3.78607 0.308458 4.43597 0.219583 5.09143C0.0973805 5.89408 0.0251689 6.70228 0.000173625 7.51327C-0.00538214 9.0658 0.122376 10.6184 0.386225 12.1487L0.393141 12.1783C0.5024 12.646 0.625727 13.174 1.05001 13.4596C1.48327 13.7512 2.03597 13.6845 2.51368 13.5957C2.5187 13.5947 2.52354 13.5938 2.5282 13.5928C2.53191 13.5921 2.53548 13.5947 2.53588 13.5984V13.5984C2.60254 13.9845 2.83583 14.3872 3.09136 14.6872C3.40797 15.0149 3.8329 15.2176 4.28838 15.251C5.04938 15.3232 5.80203 15.1121 6.51583 14.8677C7.62122 14.4733 8.6877 13.9734 9.69867 13.3735C11.6567 12.2014 13.4759 10.8183 15.1284 9.24356C15.5228 8.84363 15.9227 8.38259 15.9949 7.8049C16.0393 7.31886 15.7866 6.86615 15.4783 6.51342ZM2.856 2.32529C2.85669 2.32539 2.85726 2.32475 2.85709 2.32407L2.85571 2.31859C2.85567 2.31842 2.85543 2.31842 2.8554 2.31859C2.85537 2.31871 2.85535 2.31883 2.85534 2.31895C2.85532 2.31908 2.85511 2.3191 2.85507 2.31898V2.31898C2.85503 2.31887 2.85487 2.31888 2.85484 2.319L2.85454 2.32055C2.85453 2.32062 2.85453 2.32068 2.85454 2.32074L2.85515 2.32447C2.85522 2.3249 2.85557 2.32524 2.856 2.32529V2.32529Z" fill="url(#paint0_linear_239_107)"/>
<path opacity="0.8" fill-rule="evenodd" clip-rule="evenodd" d="M3.26534 5.97726C3.08846 7.33879 3 8.41742 3 9.21315C3 10.0102 3.08875 11.0657 3.26624 12.3796C3.30673 12.6794 3.58255 12.8895 3.8823 12.849C3.90992 12.8453 3.93725 12.8395 3.964 12.8316C4.95109 12.5402 5.98305 12.1162 7.05986 11.5593C8.14065 11.0004 9.19241 10.3544 10.2151 9.62148C10.461 9.44528 10.5174 9.10314 10.3412 8.85728C10.3037 8.805 10.2573 8.75973 10.2042 8.72353C9.09897 7.97153 8.05086 7.33929 7.05986 6.82681C6.07398 6.31695 5.04796 5.88414 3.98183 5.52832C3.69491 5.43256 3.38471 5.58754 3.28894 5.87444C3.2778 5.90788 3.26989 5.9423 3.26534 5.97726Z" fill="#D47734"/>
<path fill-rule="evenodd" clip-rule="evenodd" d="M4.26534 4.67727C4.08846 6.0388 4 7.11743 4 7.91316C4 8.71024 4.08875 9.76573 4.26624 11.0796C4.30673 11.3794 4.58255 11.5896 4.8823 11.5491C4.90992 11.5453 4.93725 11.5395 4.964 11.5316C5.95109 11.2403 6.98305 10.8162 8.05986 10.2593C9.14065 9.70037 10.1924 9.05444 11.2151 8.32149C11.461 8.14529 11.5174 7.80315 11.3412 7.55729C11.3037 7.50501 9.74909 6.40044 8.05986 5.52682C7.07399 5.01696 6.04796 4.58415 4.98183 4.22833C4.69491 4.13257 4.38471 4.28755 4.28894 4.57445C4.2778 4.60789 4.26989 4.64232 4.26534 4.67727Z" fill="url(#paint1_linear_239_107)"/>
<defs>
<linearGradient id="paint0_linear_239_107" x1="3" y1="14.3539" x2="11.9119" y2="2.6054" gradientUnits="userSpaceOnUse">
<stop stop-color="#FF5E27"/>
<stop offset="1" stop-color="#FFD709"/>
</linearGradient>
<linearGradient id="paint1_linear_239_107" x1="4.66455" y1="11" x2="9.52194" y2="5.9796" gradientUnits="userSpaceOnUse">
<stop stop-color="#FB8F2C"/>
<stop offset="1" stop-color="#FFF2E6"/>
</linearGradient>
</defs>
</svg>
