<svg width="16" height="16" viewBox="0 0 16 16" fill="none" xmlns="http://www.w3.org/2000/svg">
<g clip-path="url(#clip0_85_162)">
<path fill-rule="evenodd" clip-rule="evenodd" d="M12.9824 15C12.9824 15.552 12.5344 16 11.9824 16H3.97442C1.76942 16 -0.0175781 14.213 -0.0175781 12.008C-0.0175781 9.643 -0.0175781 6.357 -0.0175781 3.992C-0.0175781 2.933 0.403422 1.918 1.15142 1.169C1.90042 0.421 2.91542 0 3.97442 0C6.33942 0 9.62542 0 11.9904 0C14.1954 0 15.9824 1.787 15.9824 3.992C15.9824 7.249 15.9824 12 15.9824 12C15.9824 12.552 15.5344 13 14.9824 13C13.8784 13 12.9824 13.896 12.9824 15ZM13.9824 15C13.9824 14.448 14.4304 14 14.9824 14C15.5344 14 15.9824 14.448 15.9824 15C15.9824 15.552 15.5344 16 14.9824 16C14.4304 16 13.9824 15.552 13.9824 15Z" fill="url(#paint0_linear_85_162)"/>
<path fill-rule="evenodd" clip-rule="evenodd" d="M8.16667 12H2.83333C2.37333 12 2 12.3733 2 12.8333C2 13.2933 2.37333 13.6667 2.83333 13.6667H8.16667C8.62667 13.6667 9 13.2933 9 12.8333C9 12.3733 8.62667 12 8.16667 12Z" fill="#8CC860"/>
<path fill-rule="evenodd" clip-rule="evenodd" d="M9.16667 11H3.83333C3.37333 11 3 11.3733 3 11.8333C3 12.2933 3.37333 12.6667 3.83333 12.6667H9.16667C9.62667 12.6667 10 12.2933 10 11.8333C10 11.3733 9.62667 11 9.16667 11Z" fill="url(#paint1_linear_85_162)"/>
<path d="M2.00001 4.82973C2 4.71927 2.08955 4.62972 2.20001 4.62972H3.9269C5.4899 4.62972 6.54479 5.68387 6.54479 7.0653C6.54479 8.44691 5.49065 9.53729 3.9269 9.53729L2.20394 9.5697C2.09203 9.57181 2.00018 9.48167 2.00018 9.36975L2.00001 4.82973ZM3.29057 5.64744C3.18011 5.64744 3.09057 5.73698 3.09057 5.84744V8.39206C3.09057 8.50252 3.18011 8.59206 3.29057 8.59206H3.9269C4.79947 8.59206 5.41742 8.01053 5.41742 7.13796C5.41742 6.26521 4.83571 5.64744 3.9269 5.64744H3.29057ZM7.21728 8.95041C7.13235 8.88412 7.12336 8.76102 7.19208 8.67803L7.57653 8.2138C7.64757 8.12801 7.7746 8.11746 7.86389 8.18405C8.26091 8.48014 8.69341 8.65097 9.17718 8.65097C9.61709 8.65097 9.90237 8.47534 9.90237 8.19006V8.16758C9.90237 7.88229 9.72674 7.75016 8.91364 7.53085C7.90373 7.28925 7.26626 7.00378 7.26626 6.01505V5.99331C7.26626 5.09305 7.99164 4.5 9.00136 4.5C9.6581 4.5 10.2242 4.67976 10.7005 5.02343C10.7852 5.08453 10.8005 5.20248 10.7405 5.28793L10.3904 5.78619C10.3269 5.87649 10.2027 5.89773 10.109 5.83933C9.72565 5.60027 9.34427 5.46624 8.97962 5.46624C8.5622 5.46624 8.34289 5.66361 8.34289 5.9054V5.92715C8.34289 6.25685 8.5622 6.36631 9.41897 6.58636C10.4294 6.84989 11 7.20134 11 8.07967V8.10216C11 9.09032 10.2538 9.63914 9.17718 9.63914C8.49163 9.61917 7.78711 9.39521 7.21728 8.95041Z" fill="#8CC860"/>
<path d="M3.00001 3.82973C3 3.71927 3.08955 3.62972 3.20001 3.62972H4.9269C6.4899 3.62972 7.54479 4.68387 7.54479 6.0653C7.54479 7.44691 6.49065 8.53729 4.9269 8.53729L3.20394 8.5697C3.09203 8.57181 3.00018 8.48167 3.00018 8.36975L3.00001 3.82973ZM4.29057 4.64744C4.18011 4.64744 4.09057 4.73698 4.09057 4.84744V7.39206C4.09057 7.50252 4.18011 7.59206 4.29057 7.59206H4.9269C5.79947 7.59206 6.41742 7.01053 6.41742 6.13796C6.41742 5.26521 5.83571 4.64744 4.9269 4.64744H4.29057ZM8.21728 7.95041C8.13235 7.88412 8.12336 7.76102 8.19208 7.67803L8.57653 7.2138C8.64757 7.12801 8.7746 7.11746 8.86389 7.18405C9.26091 7.48014 9.69341 7.65097 10.1772 7.65097C10.6171 7.65097 10.9024 7.47534 10.9024 7.19006V7.16758C10.9024 6.88229 10.7267 6.75016 9.91364 6.53085C8.90373 6.28925 8.26626 6.00378 8.26626 5.01505V4.99331C8.26626 4.09305 8.99164 3.5 10.0014 3.5C10.6581 3.5 11.2242 3.67976 11.7005 4.02343C11.7852 4.08453 11.8005 4.20248 11.7405 4.28793L11.3904 4.78619C11.3269 4.87649 11.2027 4.89773 11.109 4.83933C10.7257 4.60027 10.3443 4.46624 9.97962 4.46624C9.5622 4.46624 9.34289 4.66361 9.34289 4.9054V4.92715C9.34289 5.25685 9.5622 5.36631 10.419 5.58636C11.4294 5.84989 12 6.20134 12 7.07967V7.10216C12 8.09032 11.2538 8.63914 10.1772 8.63914C9.49163 8.61917 8.78711 8.39521 8.21728 7.95041Z" fill="url(#paint2_linear_85_162)"/>
</g>
<defs>
<linearGradient id="paint0_linear_85_162" x1="1.12528" y1="16" x2="11.6959" y2="0.624479" gradientUnits="userSpaceOnUse">
<stop stop-color="#9BE862"/>
<stop offset="1" stop-color="#C8FF9F"/>
</linearGradient>
<linearGradient id="paint1_linear_85_162" x1="3.875" y1="12.6667" x2="4.59886" y2="10.0065" gradientUnits="userSpaceOnUse">
<stop stop-color="#C8FF9F"/>
<stop offset="1" stop-color="white"/>
</linearGradient>
<linearGradient id="paint2_linear_85_162" x1="4.125" y1="8.63914" x2="8.15712" y2="2.4605" gradientUnits="userSpaceOnUse">
<stop stop-color="#C8FF9F"/>
<stop offset="1" stop-color="white"/>
</linearGradient>
<clipPath id="clip0_85_162">
<rect width="16" height="16" fill="white"/>
</clipPath>
</defs>
</svg>
