<svg width="16" height="16" viewBox="0 0 16 16" fill="none" xmlns="http://www.w3.org/2000/svg">
<g clip-path="url(#clip0_43_1940)">
<path d="M4.31152 15.994C3.75947 15.9925 3.42857 15.4092 3.42857 14.8571C3.42857 13.5948 2.40522 12.5714 1.14286 12.5714C0.590797 12.5714 0.00754833 12.2405 0.00600052 11.6885C0.00201893 10.2688 0 8.06866 0 8V3.42857C0 1.53502 1.53502 0 3.42857 0H12.5714C14.465 0 16 1.53502 16 3.42857V12.5714C16 14.465 14.465 16 12.5714 16H8C7.93134 16 5.73124 15.998 4.31152 15.994Z" fill="url(#paint0_linear_43_1940)"/>
<path d="M1.14286 13.7143C0.511674 13.7143 0 14.226 0 14.8571C0 15.4883 0.511674 16 1.14286 16C1.77404 16 2.28571 15.4883 2.28571 14.8571C2.28571 14.226 1.77404 13.7143 1.14286 13.7143Z" fill="url(#paint1_linear_43_1940)"/>
<path d="M5.50371 4.90021C5.66287 4.89883 5.81495 4.83428 5.92652 4.72077C6.0381 4.60725 6.1 4.45408 6.09858 4.29492C6.09723 4.13577 6.0327 3.98368 5.91917 3.87212C5.80563 3.76056 5.65247 3.69866 5.49332 3.70003C4.81322 3.70564 4.23154 3.72724 3.74986 3.82166C3.2514 3.91927 2.81613 4.1025 2.45929 4.45935C2.10243 4.81619 1.91921 5.25146 1.82159 5.74992C1.72718 6.2316 1.70558 6.81248 1.69997 7.49338C1.6986 7.65253 1.76049 7.80569 1.87206 7.91923C1.98362 8.03276 2.13571 8.09729 2.29486 8.09864C2.45401 8.10006 2.60719 8.03816 2.72071 7.92658C2.83422 7.81501 2.89876 7.66293 2.90015 7.50377C2.90574 6.81888 2.92815 6.34041 2.99936 5.98036C3.06657 5.63791 3.16899 5.44748 3.3082 5.30827C3.44742 5.16905 3.63785 5.06663 3.9803 4.99942C4.34035 4.92901 4.81882 4.9058 5.50371 4.90021ZM8.70657 3.70003C8.62773 3.69935 8.54957 3.7142 8.47653 3.74373C8.40343 3.77325 8.33694 3.81688 8.28072 3.87212C8.22449 3.92736 8.17974 3.99313 8.14896 4.06567C8.11818 4.13822 8.10198 4.21612 8.1013 4.29492C8.10063 4.37372 8.11548 4.4519 8.14497 4.52496C8.17447 4.59803 8.21814 4.66456 8.27336 4.72077C8.32857 4.77697 8.39439 4.82175 8.46695 4.85254C8.53944 4.88333 8.61734 4.89953 8.69618 4.90021C9.3811 4.9058 9.85954 4.92821 10.2188 4.99942C10.562 5.06663 10.7517 5.16905 10.8909 5.30827C11.0309 5.44748 11.1333 5.63791 11.2006 5.98036C11.271 6.34041 11.2934 6.81888 11.2997 7.50377C11.3011 7.66293 11.3657 7.81501 11.4792 7.92658C11.5927 8.03816 11.7459 8.10006 11.9051 8.09864C12.0642 8.09729 12.2163 8.03276 12.3278 7.91923C12.4394 7.80569 12.5013 7.65253 12.4999 7.49338C12.4935 6.81328 12.4727 6.2316 12.3783 5.74992C12.2807 5.25146 12.0966 4.81619 11.7398 4.45935C11.3829 4.1025 10.9477 3.91927 10.45 3.82166C9.96754 3.72724 9.38744 3.70564 8.70657 3.70003ZM12.4991 10.7066C12.4998 10.6278 12.4849 10.5496 12.4554 10.4766C12.4259 10.4035 12.3823 10.337 12.327 10.2808C12.2718 10.2245 12.206 10.1798 12.1335 10.149C12.0609 10.1182 11.983 10.102 11.9042 10.1014C11.8254 10.1007 11.7472 10.1155 11.6742 10.145C11.6011 10.1745 11.5346 10.2182 11.4784 10.2734C11.4222 10.3286 11.3774 10.3944 11.3466 10.467C11.3158 10.5395 11.2996 10.6174 11.2989 10.6962C11.2934 11.3812 11.271 11.8596 11.2006 12.2196C11.1333 12.5621 11.0309 12.7526 10.8917 12.8917C10.7517 13.031 10.562 13.1342 10.2196 13.2014C9.85954 13.271 9.3811 13.2942 8.69618 13.2998C8.61734 13.3005 8.53944 13.3167 8.46695 13.3475C8.39439 13.3783 8.32857 13.423 8.27336 13.4793C8.21814 13.5354 8.17447 13.602 8.14497 13.6751C8.11548 13.7481 8.10063 13.8263 8.1013 13.9051C8.10198 13.9839 8.11818 14.0618 8.14896 14.1343C8.17974 14.2069 8.22449 14.2727 8.28072 14.3279C8.33694 14.3831 8.40343 14.4268 8.47653 14.4562C8.54957 14.4858 8.62773 14.5007 8.70657 14.5C9.38663 14.4944 9.96754 14.4728 10.45 14.3784C10.9485 14.2807 11.3829 14.0975 11.7398 13.7407C12.0966 13.3838 12.2807 12.9486 12.3783 12.4501C12.4727 11.9684 12.4935 11.3875 12.4991 10.7066Z" fill="#279FD7" stroke="#279FD7" stroke-width="0.6"/>
<path d="M6.70366 3.7002C6.86282 3.69881 7.0149 3.63427 7.12648 3.52076C7.23805 3.40724 7.29995 3.25406 7.29853 3.09491C7.29718 2.93575 7.23265 2.78367 7.11912 2.67211C7.00558 2.56054 6.85242 2.49865 6.69327 2.50002C6.01317 2.50562 5.43149 2.52723 4.94981 2.62164C4.45135 2.71926 4.01608 2.90248 3.65924 3.25933C3.30239 3.61618 3.11916 4.05145 3.02155 4.54991C2.92713 5.03158 2.90553 5.61247 2.89992 6.29337C2.89855 6.45252 2.96045 6.60568 3.07201 6.71921C3.18357 6.83275 3.33566 6.89728 3.49481 6.89863C3.65397 6.90005 3.80714 6.83815 3.92066 6.72657C4.03417 6.615 4.09872 6.46292 4.1001 6.30376C4.10569 5.61887 4.1281 5.1404 4.19931 4.78035C4.26652 4.4379 4.36894 4.24747 4.50816 4.10825C4.64737 3.96904 4.83781 3.86662 5.18025 3.79941C5.5403 3.729 6.01877 3.70579 6.70366 3.7002ZM9.90652 2.50002C9.82768 2.49934 9.74952 2.51419 9.67648 2.54372C9.60338 2.57324 9.53689 2.61686 9.48067 2.67211C9.42444 2.72735 9.37969 2.79312 9.34891 2.86566C9.31813 2.9382 9.30193 3.01611 9.30125 3.09491C9.30058 3.17371 9.31543 3.25188 9.34493 3.32494C9.37442 3.39801 9.4181 3.46455 9.47331 3.52076C9.52853 3.57696 9.59434 3.62173 9.6669 3.65253C9.73939 3.68331 9.81729 3.69951 9.89613 3.7002C10.5811 3.70579 11.0595 3.7282 11.4187 3.79941C11.762 3.86662 11.9516 3.96904 12.0908 4.10825C12.2309 4.24747 12.3333 4.4379 12.4005 4.78035C12.4709 5.1404 12.4933 5.61887 12.4997 6.30376C12.5011 6.46292 12.5656 6.615 12.6791 6.72657C12.7926 6.83815 12.9458 6.90005 13.105 6.89863C13.2641 6.89728 13.4162 6.83275 13.5278 6.71921C13.6393 6.60568 13.7012 6.45252 13.6999 6.29337C13.6935 5.61326 13.6727 5.03158 13.5782 4.54991C13.4806 4.05145 13.2966 3.61618 12.9398 3.25933C12.5829 2.90248 12.1477 2.71926 11.65 2.62164C11.1675 2.52723 10.5874 2.50562 9.90652 2.50002ZM13.6991 9.50662C13.6997 9.42778 13.6849 9.34962 13.6554 9.27658C13.6258 9.20348 13.5822 9.13699 13.5269 9.08076C13.4717 9.02454 13.406 8.97978 13.3334 8.949C13.2609 8.91822 13.183 8.90202 13.1042 8.90135C13.0254 8.90067 12.9472 8.91552 12.8742 8.94502C12.8011 8.97452 12.7346 9.01819 12.6783 9.07341C12.6221 9.12862 12.5774 9.19443 12.5466 9.267C12.5158 9.33949 12.4996 9.41739 12.4989 9.49623C12.4933 10.1811 12.4709 10.6596 12.4005 11.0196C12.3333 11.3621 12.2309 11.5525 12.0916 11.6917C11.9516 11.831 11.762 11.9342 11.4195 12.0013C11.0595 12.071 10.5811 12.0942 9.89613 12.0998C9.81729 12.1004 9.73939 12.1166 9.6669 12.1475C9.59434 12.1783 9.52853 12.223 9.47331 12.2792C9.4181 12.3354 9.37442 12.402 9.34493 12.4751C9.31543 12.5481 9.30058 12.6263 9.30125 12.7051C9.30193 12.7839 9.31813 12.8618 9.34891 12.9343C9.37969 13.0069 9.42444 13.0726 9.48067 13.1279C9.53689 13.1831 9.60338 13.2267 9.67648 13.2562C9.74952 13.2858 9.82768 13.3007 9.90652 13.3C10.5866 13.2944 11.1675 13.2728 11.65 13.1783C12.1485 13.0807 12.5829 12.8975 12.9398 12.5407C13.2966 12.1838 13.4806 11.7486 13.5782 11.2501C13.6727 10.7684 13.6935 10.1875 13.6991 9.50662Z" fill="url(#paint2_linear_43_1940)" stroke="url(#paint3_linear_43_1940)" stroke-width="0.6"/>
<circle cx="7" cy="9" r="2" fill="#279FD7"/>
<circle cx="8" cy="8" r="2" fill="url(#paint4_linear_43_1940)"/>
</g>
<defs>
<linearGradient id="paint0_linear_43_1940" x1="1.6" y1="16.005" x2="7.3787" y2="-1.33327" gradientUnits="userSpaceOnUse">
<stop stop-color="#22B4FA"/>
<stop offset="1" stop-color="#6BD6FE"/>
</linearGradient>
<linearGradient id="paint1_linear_43_1940" x1="1.6" y1="16.005" x2="7.3787" y2="-1.33327" gradientUnits="userSpaceOnUse">
<stop stop-color="#22B4FA"/>
<stop offset="1" stop-color="#6BD6FE"/>
</linearGradient>
<linearGradient id="paint2_linear_43_1940" x1="2.8999" y1="13.3" x2="15.6058" y2="10.1235" gradientUnits="userSpaceOnUse">
<stop stop-color="#6BD6FE"/>
<stop offset="1" stop-color="white"/>
</linearGradient>
<linearGradient id="paint3_linear_43_1940" x1="2.8999" y1="13.3" x2="15.6058" y2="10.1235" gradientUnits="userSpaceOnUse">
<stop stop-color="#6BD6FE"/>
<stop offset="1" stop-color="white"/>
</linearGradient>
<linearGradient id="paint4_linear_43_1940" x1="6" y1="10" x2="10.7059" y2="8.82353" gradientUnits="userSpaceOnUse">
<stop stop-color="#6BD6FE"/>
<stop offset="1" stop-color="white"/>
</linearGradient>
<clipPath id="clip0_43_1940">
<rect width="16" height="16" fill="white"/>
</clipPath>
</defs>
</svg>
