<svg width="16" height="16" viewBox="0 0 16 16" fill="none" xmlns="http://www.w3.org/2000/svg">
<g clip-path="url(#clip0_14_1036)">
<path fill-rule="evenodd" clip-rule="evenodd" d="M1 13C0.448 13 0 12.552 0 12V3.992C0 1.787 1.787 0 3.992 0C6.357 0 9.643 0 12.008 0C13.067 0 14.082 0.421001 14.831 1.169C15.579 1.918 16 2.933 16 3.992C16 6.357 16 9.643 16 12.008C16 14.213 14.213 16 12.008 16C8.751 16 4 16 4 16C3.448 16 3 15.552 3 15C3 13.896 2.104 13 1 13ZM1 14C1.552 14 2 14.448 2 15C2 15.552 1.552 16 1 16C0.448 16 0 15.552 0 15C0 14.448 0.448 14 1 14Z" fill="url(#paint0_linear_14_1036)"/>
<path d="M10.4259 9.01887C10.6346 9.01887 10.8348 8.93595 10.9824 8.78834C11.13 8.64074 11.213 8.44055 11.213 8.23181V6.52561C11.2115 6.42147 11.2308 6.31809 11.2698 6.2215C11.3087 6.12492 11.3665 6.03705 11.4398 5.96303C11.5131 5.88901 11.6003 5.83033 11.6965 5.7904C11.7927 5.75047 11.8959 5.73009 12 5.73046V0.539084C12 0.39611 11.9432 0.258991 11.8421 0.157894C11.741 0.0567957 11.6039 0 11.4609 0H3.50002C2 0.5 1.99998 0.5 2 1C2 1 2.00002 1.85703 2.00002 2V6.20485C2.14674 6.06988 2.33977 5.99653 2.5391 6C2.64269 6 2.74525 6.02045 2.84092 6.06017C2.93659 6.09989 3.02347 6.15811 3.09659 6.23148C3.16971 6.30485 3.22763 6.39193 3.26703 6.48773C3.30642 6.58354 3.32652 6.68617 3.32616 6.78976V8.23181C3.32616 8.44055 3.40909 8.64074 3.55669 8.78834C3.70429 8.93595 3.90448 9.01887 4.11323 9.01887C4.32197 9.01887 4.52216 8.93595 4.66976 8.78834C4.81737 8.64074 4.90029 8.44055 4.90029 8.23181V7.83828C4.90029 7.62953 4.98321 7.42934 5.13081 7.28174C5.27842 7.13414 5.47861 7.05121 5.68735 7.05121C5.89609 7.05121 6.09628 7.13414 6.24389 7.28174C6.39149 7.42934 6.47441 7.62953 6.47441 7.83828V8.23181C6.47441 8.33517 6.49477 8.43751 6.53432 8.533C6.57388 8.62849 6.63185 8.71526 6.70494 8.78834C6.77802 8.86143 6.86479 8.9194 6.96028 8.95896C7.05577 8.99851 7.15811 9.01887 7.26147 9.01887C7.36483 9.01887 7.46718 8.99851 7.56267 8.95896C7.65816 8.9194 7.74492 8.86143 7.81801 8.78834C7.8911 8.71526 7.94907 8.62849 7.98862 8.533C8.02818 8.43751 8.04854 8.33517 8.04854 8.23181V5.73046C8.0603 5.52933 8.14849 5.3403 8.29505 5.20206C8.44162 5.06382 8.63547 4.98682 8.83695 4.98682C9.03842 4.98682 9.23227 5.06382 9.37884 5.20206C9.5254 5.3403 9.61359 5.52933 9.62535 5.73046V8.23181C9.625 8.33527 9.64511 8.43777 9.68454 8.53342C9.72397 8.62907 9.78193 8.71598 9.85509 8.78914C9.92824 8.86229 10.0151 8.92026 10.1108 8.95968C10.2065 8.99911 10.309 9.01922 10.4124 9.01887H10.4259Z" fill="#8C4FD9"/>
<path d="M11.4259 8.01887C11.6346 8.01887 11.8348 7.93595 11.9824 7.78834C12.13 7.64074 12.2129 7.44055 12.2129 7.23181V5.52561C12.2115 5.42147 12.2308 5.31809 12.2698 5.2215C12.3087 5.12492 12.3665 5.03705 12.4398 4.96303C12.513 4.88901 12.6003 4.83033 12.6965 4.7904C12.7927 4.75047 12.8959 4.73009 13 4.73046V0.539084C13 0.39611 12.9432 0.258991 12.8421 0.157894C12.741 0.0567957 12.6039 0 12.4609 0H3.53908C3.39611 0 3.25899 0.0567957 3.15789 0.157894C3.0568 0.258991 3 0.39611 3 0.539084V5.20485C3.14672 5.06988 3.33975 4.99653 3.53908 5C3.64267 5 3.74524 5.02045 3.8409 5.06017C3.93657 5.09989 4.02345 5.15811 4.09658 5.23148C4.1697 5.30485 4.22761 5.39193 4.26701 5.48773C4.3064 5.58354 4.3265 5.68617 4.32615 5.78976V7.23181C4.32615 7.44055 4.40907 7.64074 4.55667 7.78834C4.70427 7.93595 4.90447 8.01887 5.11321 8.01887C5.32195 8.01887 5.52214 7.93595 5.66974 7.78834C5.81735 7.64074 5.90027 7.44055 5.90027 7.23181V6.83828C5.90027 6.62953 5.98319 6.42934 6.13079 6.28174C6.2784 6.13414 6.47859 6.05121 6.68733 6.05121C6.89607 6.05121 7.09627 6.13414 7.24387 6.28174C7.39147 6.42934 7.47439 6.62953 7.47439 6.83828V7.23181C7.47439 7.33517 7.49475 7.43751 7.5343 7.533C7.57386 7.62849 7.63183 7.71526 7.70492 7.78834C7.778 7.86143 7.86477 7.9194 7.96026 7.95896C8.05575 7.99851 8.1581 8.01887 8.26146 8.01887C8.36481 8.01887 8.46716 7.99851 8.56265 7.95896C8.65814 7.9194 8.74491 7.86143 8.81799 7.78834C8.89108 7.71526 8.94905 7.62849 8.98861 7.533C9.02816 7.43751 9.04852 7.33517 9.04852 7.23181V4.73046C9.06028 4.52933 9.14847 4.3403 9.29503 4.20206C9.4416 4.06382 9.63545 3.98682 9.83693 3.98682C10.0384 3.98682 10.2323 4.06382 10.3788 4.20206C10.5254 4.3403 10.6136 4.52933 10.6253 4.73046V7.23181C10.625 7.33527 10.6451 7.43777 10.6845 7.53342C10.7239 7.62907 10.7819 7.71598 10.8551 7.78914C10.9282 7.86229 11.0151 7.92026 11.1108 7.95968C11.2064 7.99911 11.3089 8.01922 11.4124 8.01887H11.4259Z" fill="url(#paint1_linear_14_1036)"/>
</g>
<defs>
<linearGradient id="paint0_linear_14_1036" x1="4" y1="14.8571" x2="14.5882" y2="2.5042" gradientUnits="userSpaceOnUse">
<stop stop-color="#A056FF"/>
<stop offset="1" stop-color="#C59AFD"/>
</linearGradient>
<linearGradient id="paint1_linear_14_1036" x1="5.5" y1="8.01887" x2="14.7372" y2="4.1791" gradientUnits="userSpaceOnUse">
<stop stop-color="#C59AFD"/>
<stop offset="1" stop-color="white"/>
</linearGradient>
<clipPath id="clip0_14_1036">
<rect width="16" height="16" fill="white"/>
</clipPath>
</defs>
</svg>
