<svg width="16" height="16" viewBox="0 0 16 16" fill="none" xmlns="http://www.w3.org/2000/svg">
<g clip-path="url(#clip0_91_222)">
<path fill-rule="evenodd" clip-rule="evenodd" d="M1 13C0.448 13 0 12.552 0 12V3.992C0 1.787 1.787 0 3.992 0C6.357 0 9.643 0 12.008 0C13.067 0 14.082 0.421001 14.831 1.169C15.579 1.918 16 2.933 16 3.992C16 6.357 16 9.643 16 12.008C16 14.213 14.213 16 12.008 16C8.751 16 4 16 4 16C3.448 16 3 15.552 3 15C3 13.896 2.104 13 1 13ZM1 14C1.552 14 2 14.448 2 15C2 15.552 1.552 16 1 16C0.448 16 0 15.552 0 15C0 14.448 0.448 14 1 14Z" fill="url(#paint0_linear_91_222)"/>
<path d="M6.50242 3.08733C6.62235 3.20726 6.68973 3.36992 6.68973 3.53953C6.68973 4.12788 7.16723 4.60538 7.75558 4.60538C7.92518 4.60538 8.08784 4.67276 8.20778 4.79269C8.32771 4.91262 8.39508 5.07528 8.39508 5.24489C8.39508 5.4145 8.32771 5.57716 8.20778 5.69709C8.08784 5.81702 7.92518 5.8844 7.75558 5.8844C7.37187 5.8844 7.00948 5.79231 6.68973 5.62859V8.6556C6.68963 9.16657 6.52263 9.66353 6.21413 10.0709C5.90563 10.4782 5.47252 10.7736 4.98069 10.9122C4.48886 11.0507 3.96523 11.0248 3.48947 10.8384C3.01371 10.652 2.61185 10.3153 2.34505 9.87954C2.07824 9.44375 1.96108 8.93274 2.0114 8.42425C2.06172 7.91576 2.27676 7.43762 2.6238 7.06258C2.97084 6.68754 3.43089 6.43612 3.93396 6.34658C4.43703 6.25704 4.95558 6.33428 5.41071 6.56654V3.53953C5.41071 3.36992 5.47809 3.20726 5.59802 3.08733C5.71795 2.9674 5.88061 2.90002 6.05022 2.90002C6.21983 2.90002 6.38249 2.9674 6.50242 3.08733Z" fill="#D49F34"/>
<path d="M7.40232 2.18731C7.52225 2.30724 7.58963 2.4699 7.58963 2.63951C7.58963 3.22786 8.06713 3.70535 8.65548 3.70535C8.82509 3.70535 8.98775 3.77273 9.10768 3.89266C9.22761 4.01259 9.29499 4.17525 9.29499 4.34486C9.29499 4.51447 9.22761 4.67713 9.10768 4.79706C8.98775 4.91699 8.82509 4.98437 8.65548 4.98437C8.27177 4.98437 7.90938 4.89228 7.58963 4.72857V7.75557C7.58954 8.26655 7.42253 8.7635 7.11404 9.17084C6.80554 9.57818 6.37242 9.8736 5.88059 10.0121C5.38876 10.1507 4.86513 10.1248 4.38937 9.93841C3.91361 9.75201 3.51176 9.4153 3.24495 8.97952C2.97814 8.54373 2.86098 8.03272 2.9113 7.52423C2.96162 7.01574 3.17666 6.5376 3.5237 6.16256C3.87074 5.78752 4.33079 5.5361 4.83386 5.44656C5.33693 5.35702 5.85548 5.43425 6.31061 5.66651V2.63951C6.31061 2.4699 6.37799 2.30724 6.49792 2.18731C6.61785 2.06738 6.78051 2 6.95012 2C7.11973 2 7.28239 2.06738 7.40232 2.18731Z" fill="url(#paint1_linear_91_222)"/>
<path d="M13.7144 11.2352C13.7144 11.4944 13.6114 11.743 13.4281 11.9263C13.2448 12.1096 12.9962 12.2125 12.7371 12.2125H8.85891C8.59975 12.2125 8.35113 12.1096 8.16783 11.9263C7.98454 11.743 7.88159 11.4944 7.88159 11.2352C7.88159 10.976 7.98454 10.7274 8.16783 10.5441C8.35113 10.3609 8.59975 10.2579 8.85891 10.2579H12.7371C12.9962 10.2579 13.2448 10.3609 13.4281 10.5441C13.6114 10.7274 13.7144 10.976 13.7144 11.2352Z" fill="#D49F34"/>
<path d="M14.8572 10.0924C14.8572 10.3516 14.7543 10.6001 14.571 10.7834C14.3877 10.9667 14.1391 11.0697 13.8799 11.0697H10.0017C9.74257 11.0697 9.49395 10.9667 9.31066 10.7834C9.12736 10.6001 9.02441 10.3516 9.02441 10.0924C9.02441 9.8332 9.12736 9.58459 9.31066 9.40129C9.49395 9.21808 9.74257 9.11505 10.0017 9.11505H13.8799C14.1391 9.11505 14.3877 9.21808 14.571 9.40129C14.7543 9.58459 14.8572 9.8332 14.8572 10.0924Z" fill="url(#paint2_linear_91_222)"/>
</g>
<defs>
<linearGradient id="paint0_linear_91_222" x1="3" y1="14.9988" x2="12.9991" y2="2.999" gradientUnits="userSpaceOnUse">
<stop stop-color="#FF8860"/>
<stop offset="1" stop-color="#FBD92C"/>
</linearGradient>
<linearGradient id="paint1_linear_91_222" x1="4.49867" y1="8.075" x2="8.43814" y2="4.96472" gradientUnits="userSpaceOnUse">
<stop stop-color="#FBD92C"/>
<stop offset="1" stop-color="white"/>
</linearGradient>
<linearGradient id="paint2_linear_91_222" x1="10.4826" y1="10.581" x2="11.0715" y2="8.82374" gradientUnits="userSpaceOnUse">
<stop stop-color="#FBD92C"/>
<stop offset="1" stop-color="white"/>
</linearGradient>
<clipPath id="clip0_91_222">
<rect width="16" height="16" fill="white"/>
</clipPath>
</defs>
</svg>
