<svg width="16" height="16" viewBox="0 0 16 16" fill="none" xmlns="http://www.w3.org/2000/svg">
<g clip-path="url(#clip0_85_170)">
<path fill-rule="evenodd" clip-rule="evenodd" d="M12.9824 15C12.9824 15.552 12.5344 16 11.9824 16H3.97442C1.76942 16 -0.0175781 14.213 -0.0175781 12.008C-0.0175781 9.643 -0.0175781 6.357 -0.0175781 3.992C-0.0175781 2.933 0.403422 1.918 1.15142 1.169C1.90042 0.421 2.91542 0 3.97442 0C6.33942 0 9.62542 0 11.9904 0C14.1954 0 15.9824 1.787 15.9824 3.992C15.9824 7.249 15.9824 12 15.9824 12C15.9824 12.552 15.5344 13 14.9824 13C13.8784 13 12.9824 13.896 12.9824 15ZM13.9824 15C13.9824 14.448 14.4304 14 14.9824 14C15.5344 14 15.9824 14.448 15.9824 15C15.9824 15.552 15.5344 16 14.9824 16C14.4304 16 13.9824 15.552 13.9824 15Z" fill="url(#paint0_linear_85_170)"/>
<path fill-rule="evenodd" clip-rule="evenodd" d="M8.16667 12H2.83333C2.37333 12 2 12.3733 2 12.8333C2 13.2933 2.37333 13.6667 2.83333 13.6667H8.16667C8.62667 13.6667 9 13.2933 9 12.8333C9 12.3733 8.62667 12 8.16667 12Z" fill="#7FD1AE"/>
<path fill-rule="evenodd" clip-rule="evenodd" d="M9.16667 11H3.83333C3.37333 11 3 11.3733 3 11.8333C3 12.2933 3.37333 12.6667 3.83333 12.6667H9.16667C9.62667 12.6667 10 12.2933 10 11.8333C10 11.3733 9.62667 11 9.16667 11Z" fill="url(#paint1_linear_85_170)"/>
<path d="M2 4.28503C2 4.17457 2.08954 4.08503 2.2 4.08503H3.83479C5.3117 4.08503 6.33473 5.09998 6.33473 6.42403V6.43677C6.33473 7.76254 5.3117 8.78852 3.83479 8.78852H2.2C2.08954 8.78852 2 8.69897 2 8.58852V4.28503ZM3.2339 5.01858C3.12344 5.01858 3.0339 5.10812 3.0339 5.21858V7.659C3.0339 7.76946 3.12344 7.859 3.2339 7.859H3.83479C4.02266 7.86989 4.21072 7.84111 4.38673 7.77454C4.56275 7.70796 4.72278 7.60508 4.85642 7.47259C4.99005 7.3401 5.0943 7.18096 5.16239 7.00552C5.23047 6.83008 5.26086 6.64228 5.25159 6.45432V6.43677C5.2612 6.24813 5.23116 6.05956 5.16339 5.88325C5.09562 5.70693 4.99163 5.54679 4.85814 5.41315C4.72465 5.27951 4.56462 5.17535 4.38838 5.10739C4.21214 5.03943 4.02361 5.00917 3.83495 5.01858H3.2339ZM6.51802 6.45013V6.43677C6.51557 6.11416 6.57779 5.79433 6.70098 5.49616C6.82418 5.19798 7.00587 4.92752 7.23531 4.70072C7.46476 4.47392 7.73732 4.29539 8.03691 4.17566C8.33649 4.05594 8.65702 3.99744 8.97958 4.00363C9.59195 3.97111 10.1936 4.15775 10.6785 4.52645C10.7643 4.59174 10.7733 4.7151 10.7045 4.79817L10.3133 5.27064C10.2394 5.35982 10.106 5.36684 10.0128 5.29802C9.70645 5.07162 9.33227 4.95088 8.94743 4.958C8.19018 4.958 7.59556 5.62485 7.59556 6.42403V6.43677C7.59556 7.29654 8.18832 7.92952 9.02152 7.92952C9.33295 7.93972 9.64017 7.86171 9.90816 7.70555C9.96569 7.67203 9.99841 7.60906 9.99841 7.54247V7.17485C9.99841 7.06439 9.90887 6.97485 9.79841 6.97485H9.15706C9.0466 6.97485 8.95706 6.8853 8.95706 6.77485V6.28121C8.95706 6.17076 9.0466 6.08121 9.15706 6.08121H10.8C10.9105 6.08121 11 6.17076 11 6.28121V8.03291C11 8.09087 10.9751 8.14627 10.9302 8.18293C10.3837 8.62926 9.6984 8.87291 8.99092 8.87053C7.52566 8.87053 6.51802 7.83834 6.51802 6.45013Z" fill="#7FD1AE"/>
<path d="M3 3.28503C3 3.17457 3.08954 3.08503 3.2 3.08503H4.83479C6.3117 3.08503 7.33473 4.09998 7.33473 5.42403V5.43677C7.33473 6.76254 6.3117 7.78852 4.83479 7.78852H3.2C3.08954 7.78852 3 7.69897 3 7.58852V3.28503ZM4.2339 4.01858C4.12344 4.01858 4.0339 4.10812 4.0339 4.21858V6.659C4.0339 6.76946 4.12344 6.859 4.2339 6.859H4.83479C5.02266 6.86989 5.21072 6.84111 5.38673 6.77454C5.56275 6.70796 5.72278 6.60508 5.85642 6.47259C5.99005 6.3401 6.0943 6.18096 6.16239 6.00552C6.23047 5.83008 6.26086 5.64228 6.25159 5.45432V5.43677C6.2612 5.24813 6.23116 5.05956 6.16339 4.88325C6.09562 4.70693 5.99163 4.54679 5.85814 4.41315C5.72465 4.27951 5.56462 4.17535 5.38838 4.10739C5.21214 4.03943 5.02361 4.00917 4.83495 4.01858H4.2339ZM7.51802 5.45013V5.43677C7.51557 5.11416 7.57779 4.79433 7.70098 4.49616C7.82418 4.19798 8.00587 3.92752 8.23531 3.70072C8.46476 3.47392 8.73732 3.29539 9.03691 3.17566C9.33649 3.05594 9.65702 2.99744 9.97958 3.00363C10.592 2.97111 11.1936 3.15775 11.6785 3.52645C11.7643 3.59174 11.7733 3.7151 11.7045 3.79817L11.3133 4.27064C11.2394 4.35982 11.106 4.36684 11.0128 4.29802C10.7065 4.07162 10.3323 3.95088 9.94743 3.958C9.19018 3.958 8.59556 4.62485 8.59556 5.42403V5.43677C8.59556 6.29654 9.18832 6.92952 10.0215 6.92952C10.333 6.93972 10.6402 6.86171 10.9082 6.70555C10.9657 6.67203 10.9984 6.60906 10.9984 6.54247V6.17485C10.9984 6.06439 10.9089 5.97485 10.7984 5.97485H10.1571C10.0466 5.97485 9.95706 5.8853 9.95706 5.77485V5.28121C9.95706 5.17076 10.0466 5.08121 10.1571 5.08121H11.8C11.9105 5.08121 12 5.17076 12 5.28121V7.03291C12 7.09087 11.9751 7.14627 11.9302 7.18293C11.3837 7.62926 10.6984 7.87291 9.99092 7.87053C8.52566 7.87053 7.51802 6.83834 7.51802 5.45013Z" fill="url(#paint2_linear_85_170)"/>
</g>
<defs>
<linearGradient id="paint0_linear_85_170" x1="1.98242" y1="14.0004" x2="16.9544" y2="10.5455" gradientUnits="userSpaceOnUse">
<stop stop-color="#62E8AF"/>
<stop offset="1" stop-color="#B3FBDC"/>
</linearGradient>
<linearGradient id="paint1_linear_85_170" x1="3" y1="12.6667" x2="3.12357" y2="10.5907" gradientUnits="userSpaceOnUse">
<stop stop-color="#B3FBDC"/>
<stop offset="1" stop-color="white"/>
</linearGradient>
<linearGradient id="paint2_linear_85_170" x1="3" y1="7.87055" x2="3.80888" y2="1.8918" gradientUnits="userSpaceOnUse">
<stop stop-color="#B3FBDC"/>
<stop offset="1" stop-color="white"/>
</linearGradient>
<clipPath id="clip0_85_170">
<rect width="16" height="16" fill="white"/>
</clipPath>
</defs>
</svg>
