<svg width="16" height="16" viewBox="0 0 16 16" fill="none" xmlns="http://www.w3.org/2000/svg">
<path fill-rule="evenodd" clip-rule="evenodd" d="M11.4995 4.49985V3.23465C11.4995 2.6423 11.2641 2.07358 10.845 1.65447C10.4259 1.23536 9.85715 1 9.2648 1C8.48608 1 7.51313 1 6.73441 1C6.14206 1 5.57333 1.23536 5.15423 1.65447C4.73512 2.07358 4.49976 2.6423 4.49976 3.23465V4.49985C4.49976 4.98283 4.89174 5.37481 5.37472 5.37481H10.6245C11.1075 5.37481 11.4995 4.98283 11.4995 4.49985Z" fill="url(#paint0_linear_8_118)"/>
<path fill-rule="evenodd" clip-rule="evenodd" d="M3.57851 12.3684H12.4209C13.8453 12.3684 14.9994 11.2134 14.9994 9.78988C14.9994 8.56144 14.9994 7.11862 14.9994 7.11862C14.9994 6.63564 14.6074 6.24366 14.1244 6.24366C13.1585 6.24366 12.3745 5.45969 12.3745 4.49374C12.3745 4.01076 11.9825 3.61877 11.4995 3.61877H3.57851C2.89517 3.61877 2.23895 3.89089 1.75509 4.37387C1.27211 4.85772 1 5.51394 1 6.19729C1 7.28837 1 8.6988 1 9.78988C1 11.2134 2.15408 12.3684 3.57851 12.3684ZM14.1244 3.61877C13.6415 3.61877 13.2495 4.01076 13.2495 4.49374C13.2495 4.97672 13.6415 5.3687 14.1244 5.3687C14.6074 5.3687 14.9994 4.97672 14.9994 4.49374C14.9994 4.01076 14.6074 3.61877 14.1244 3.61877Z" fill="url(#paint1_linear_8_118)"/>
<path fill-rule="evenodd" clip-rule="evenodd" d="M3.62484 12.3684H10.6245V10.6246C11.1058 10.6246 11.4995 10.2326 11.4995 9.74966C11.4995 9.26668 11.1058 8.87469 10.6245 8.87469H3.62484C3.14361 8.87469 2.74988 9.26668 2.74988 9.74966C2.74988 10.2326 3.14361 10.6246 3.62484 10.6246V12.3684Z" fill="#22C0BC"/>
<path fill-rule="evenodd" clip-rule="evenodd" d="M4.49976 8.87521C4.49976 9.35819 4.49976 12.829 4.49976 12.829C4.49976 14.028 5.47184 15 6.67054 15H9.32867C10.5274 15 11.4995 14.028 11.4995 12.829C11.4995 11.0311 11.4995 8.87521 11.4995 8.87521C11.4995 8.39223 11.1075 8.00024 10.6245 8.00024H5.37472C4.89174 8.00024 4.49976 8.39223 4.49976 8.87521Z" fill="url(#paint2_linear_8_118)"/>
<path d="M11.4995 8.87469H4.49976V10.6246H11.4995V8.87469Z" fill="#87D4D1"/>
<path fill-rule="evenodd" clip-rule="evenodd" d="M4.49984 9.74962H11.4995C11.9825 9.74962 12.3745 9.35764 12.3745 8.87466C12.3745 8.39168 11.9825 7.99969 11.4995 7.99969H4.49984C4.01686 7.99969 3.62488 8.39168 3.62488 8.87466C3.62488 9.35764 4.01686 9.74962 4.49984 9.74962Z" fill="url(#paint3_linear_8_118)"/>
<defs>
<linearGradient id="paint0_linear_8_118" x1="7.9996" y1="4.49985" x2="9.74953" y2="1" gradientUnits="userSpaceOnUse">
<stop stop-color="#0BDCD6"/>
<stop offset="1" stop-color="#B5FCFA"/>
</linearGradient>
<linearGradient id="paint1_linear_8_118" x1="1.87496" y1="12.3745" x2="14.9994" y2="4.49986" gradientUnits="userSpaceOnUse">
<stop stop-color="#0BDCD6"/>
<stop offset="1" stop-color="#B5FCFA"/>
</linearGradient>
<linearGradient id="paint2_linear_8_118" x1="5.89973" y1="14.0001" x2="8.50125" y2="9.14391" gradientUnits="userSpaceOnUse">
<stop stop-color="#7EEFEC"/>
<stop offset="1" stop-color="white"/>
</linearGradient>
<linearGradient id="paint3_linear_8_118" x1="3.62488" y1="9.74962" x2="12.3745" y2="7.99969" gradientUnits="userSpaceOnUse">
<stop stop-color="#B5FCFA"/>
<stop offset="1" stop-color="white"/>
</linearGradient>
</defs>
</svg>
