<svg width="16" height="16" viewBox="0 0 16 16" fill="none" xmlns="http://www.w3.org/2000/svg">
<g clip-path="url(#clip0_85_51)">
<path fill-rule="evenodd" clip-rule="evenodd" d="M1 13C0.448 13 0 12.552 0 12V3.992C0 1.787 1.787 0 3.992 0C6.357 0 9.643 0 12.008 0C13.067 0 14.082 0.421001 14.831 1.169C15.579 1.918 16 2.933 16 3.992C16 6.357 16 9.643 16 12.008C16 14.213 14.213 16 12.008 16C8.751 16 4 16 4 16C3.448 16 3 15.552 3 15C3 13.896 2.104 13 1 13ZM1 14C1.552 14 2 14.448 2 15C2 15.552 1.552 16 1 16C0.448 16 0 15.552 0 15C0 14.448 0.448 14 1 14Z" fill="url(#paint0_linear_85_51)"/>
<path d="M1.0873 5.58791C1.0578 5.64572 1.0283 5.7031 1 5.76092C1.44843 6.01006 2.7407 6.6594 3.35419 7.04403C4.12949 7.51877 3.71397 7.31668 3.79649 7.4797C2.99013 8.88398 3.35602 10.1269 3.26076 10.2592C3.19222 10.3696 2.55845 11.0656 2.76252 11.1684C2.965 11.2697 3.28709 11.1106 3.33573 11.0795C3.43695 11.0173 3.54139 10.9268 3.49755 11.1058C3.41186 11.4717 3.02281 12.3515 3.55974 12.1645C3.6251 12.1271 4.48928 11.1744 4.59371 11.1417C6.31292 11.5901 8.23582 11.3845 8.59176 11.2178C8.77709 11.2302 9.30166 11.5602 9.6006 11.7177C9.89958 11.8736 10.714 12.2642 10.4728 11.5543C10.3979 11.3298 9.86252 10.757 9.94942 10.7196C10.1407 10.6434 10.6143 10.9173 10.7965 10.9687C11.3413 11.1213 11.4147 10.9097 11.0707 10.4441C10.7311 9.97856 10.6801 10.0503 10.5724 9.83548C10.4883 9.66247 10.5724 9.47114 10.6346 9.42451C10.745 9.34037 12.3721 8.43713 12.7536 8.09153C13.3189 7.57775 12.7536 6.93639 12.6149 6.84593C11.4426 6.00205 10.2388 6.18265 10.2232 6.04867C10.2153 5.89602 10.2185 5.45555 10.1981 5.30291C10.0813 4.2689 9.60343 4.52919 9.53803 4.52919C9.06011 4.60415 9.23591 5.33559 9.43839 6.02396C9.45396 6.19976 9.2718 6.12201 9.16416 5.93668C8.79664 4.95092 8.64237 4.96807 8.54115 4.93856C8.44306 4.91665 8.0975 5.12711 8.10346 5.52572C8.10505 5.63933 8.24058 6.18145 8.24058 6.34803C8.01498 6.54575 8.00379 6.9942 7.76701 7.15761C7.07743 7.30073 5.42044 6.81681 5.21355 6.79489C4.49726 6.66095 4.18434 7.19827 4.06914 7.06913C3.26076 6.61073 3.03686 6.34803 2.56773 6.24681C2.32935 6.19539 1.52457 5.84022 1.23478 5.66125C1.18814 5.63336 1.13513 5.61303 1.08371 5.58632L1.0873 5.58791ZM9.98729 6.89615C9.99523 6.88814 10.0044 6.89933 10.0136 6.9085C10.0822 7.13569 10.1583 7.35215 10.6099 7.40675C10.6629 7.41314 10.3592 7.59049 10.1507 7.48168C9.96057 7.36648 9.94345 6.94757 9.98729 6.89615ZM11.1584 8.04053C11.2002 8.03414 11.2301 8.03576 11.2596 8.04053C11.3701 8.06844 10.4584 8.54357 10.3875 8.47821C10.344 8.43635 10.8734 8.09357 11.16 8.04053H11.1584ZM11.3968 8.34109C11.4916 8.34903 10.869 8.99361 10.7988 8.92666C10.7474 8.88 11.2022 8.32553 11.3968 8.34109Z" fill="#279FD7"/>
<path d="M2.0873 4.58791C2.0578 4.64572 2.0283 4.7031 2 4.76092C2.44843 5.01006 3.7407 5.6594 4.35419 6.04403C5.12949 6.51877 4.71397 6.31668 4.79649 6.4797C3.99013 7.88398 4.35602 9.12687 4.26076 9.25918C4.19222 9.36962 3.55845 10.0656 3.76252 10.1684C3.965 10.2697 4.28709 10.1106 4.33573 10.0795C4.43695 10.0173 4.54139 9.92684 4.49755 10.1058C4.41186 10.4717 4.02281 11.3515 4.55974 11.1645C4.6251 11.1271 5.48928 10.1744 5.59371 10.1417C7.31292 10.5901 9.23582 10.3845 9.59176 10.2178C9.77709 10.2302 10.3017 10.5602 10.6006 10.7177C10.8996 10.8736 11.714 11.2642 11.4728 10.5543C11.3979 10.3298 10.8625 9.75704 10.9494 9.71956C11.1407 9.64343 11.6143 9.91728 11.7965 9.9687C12.3413 10.1213 12.4147 9.90972 12.0707 9.44412C11.7311 8.97856 11.6801 9.05031 11.5724 8.83548C11.4883 8.66247 11.5724 8.47114 11.6346 8.42451C11.745 8.34037 13.3721 7.43713 13.7536 7.09153C14.3189 6.57775 13.7536 5.93639 13.6149 5.84593C12.4426 5.00205 11.2388 5.18265 11.2232 5.04867C11.2153 4.89602 11.2185 4.45555 11.1981 4.30291C11.0813 3.2689 10.6034 3.52919 10.538 3.52919C10.0601 3.60415 10.2359 4.33559 10.4384 5.02396C10.454 5.19976 10.2718 5.12201 10.1642 4.93668C9.79664 3.95092 9.64237 3.96807 9.54115 3.93856C9.44306 3.91665 9.0975 4.12711 9.10346 4.52572C9.10505 4.63933 9.24058 5.18145 9.24058 5.34803C9.01498 5.54575 9.00379 5.9942 8.76701 6.15761C8.07743 6.30073 6.42044 5.81681 6.21355 5.79489C5.49726 5.66095 5.18434 6.19827 5.06914 6.06913C4.26076 5.61073 4.03686 5.34803 3.56773 5.24681C3.32935 5.19539 2.52457 4.84022 2.23478 4.66125C2.18814 4.63336 2.13513 4.61303 2.08371 4.58632L2.0873 4.58791ZM10.9873 5.89615C10.9952 5.88814 11.0044 5.89933 11.0136 5.9085C11.0822 6.13569 11.1583 6.35215 11.6099 6.40675C11.6629 6.41314 11.3592 6.59049 11.1507 6.48168C10.9606 6.36648 10.9435 5.94757 10.9873 5.89615ZM12.1584 7.04053C12.2002 7.03414 12.2301 7.03576 12.2596 7.04053C12.3701 7.06844 11.4584 7.54357 11.3875 7.47821C11.344 7.43635 11.8734 7.09357 12.16 7.04053H12.1584ZM12.3968 7.34109C12.4916 7.34903 11.869 7.99361 11.7988 7.92666C11.7474 7.88 12.2022 7.32553 12.3968 7.34109Z" fill="url(#paint1_linear_85_51)"/>
</g>
<defs>
<linearGradient id="paint0_linear_85_51" x1="1.6" y1="16.005" x2="7.3787" y2="-1.33327" gradientUnits="userSpaceOnUse">
<stop offset="0.190745" stop-color="#22B4FA"/>
<stop offset="0.896724" stop-color="#7DDCFF"/>
</linearGradient>
<linearGradient id="paint1_linear_85_51" x1="2" y1="11.1903" x2="15.0188" y2="6.11163" gradientUnits="userSpaceOnUse">
<stop stop-color="#6BD6FE"/>
<stop offset="1" stop-color="white"/>
</linearGradient>
<clipPath id="clip0_85_51">
<rect width="16" height="16" fill="white"/>
</clipPath>
</defs>
</svg>
