<svg width="16" height="16" viewBox="0 0 16 16" fill="none" xmlns="http://www.w3.org/2000/svg">
<g clip-path="url(#clip0_15_1684)">
<path fill-rule="evenodd" clip-rule="evenodd" d="M4.46311 11.5338C3.0489 10.1196 1.75701 11.181 1.69337 11.2022C1.17082 11.3796 0.602306 11.0996 0.424821 10.5771C-0.523408 7.7833 0.115816 4.56738 2.34179 2.34141C5.46367 -0.780469 10.5336 -0.780469 13.6555 2.34141C16.7774 5.46328 16.7774 10.5332 13.6555 13.6551C11.4295 15.8811 8.2136 16.5203 5.41982 15.5721C4.89727 15.3946 4.61726 14.8261 4.79474 14.3035C4.81595 14.2399 5.87732 12.948 4.46311 11.5338ZM3.756 13.6551C3.36568 14.0454 2.73211 14.0454 2.34179 13.6551C1.95147 13.2648 1.95147 12.6312 2.34179 12.2409C2.73211 11.8506 3.36568 11.8506 3.756 12.2409C4.14632 12.6312 4.14632 13.2648 3.756 13.6551Z" fill="url(#paint0_linear_15_1684)"/>
<path fill-rule="evenodd" clip-rule="evenodd" d="M11.0011 5.65882C10.2446 4.68006 9.04771 4.04075 7.80752 4.00012C7.64813 3.9949 7.55245 4.16546 7.62952 4.30506C8.07569 5.11323 8.54002 5.91127 9.00424 6.7091C9.19145 7.03088 9.37871 7.35273 9.56471 7.6751C9.64365 7.81193 9.83685 7.8214 9.92258 7.68871C10.104 7.40799 10.2671 7.11527 10.4304 6.82247C10.5716 6.56917 10.7128 6.31577 10.8659 6.07008C10.8735 6.05786 10.8798 6.04486 10.8858 6.03182C10.9001 6.00093 10.9201 5.96945 10.9405 5.93743C10.9974 5.84799 11.0569 5.75449 11.0011 5.65882ZM6.24633 4.09704C5.02715 4.27558 3.873 4.98362 3.23461 6.0443C3.15326 6.17947 3.25313 6.34467 3.41089 6.34797C4.73307 6.37567 6.05706 6.36364 7.37991 6.35162C7.50324 6.35051 7.58052 6.21812 7.52024 6.11054C7.32143 5.75573 7.11791 5.4036 6.91443 5.05151C6.77811 4.81562 6.64172 4.57958 6.50682 4.34295C6.50119 4.33306 6.49469 4.32369 6.48804 4.31445C6.47432 4.29543 6.46135 4.27391 6.44815 4.25197C6.40002 4.17212 6.34867 4.08688 6.24633 4.09704ZM11.0052 7.78901C11.2168 7.4256 11.4285 7.06212 11.6393 6.69838C11.7183 6.56212 11.9108 6.55308 11.9902 6.68906C12.6154 7.7591 12.643 9.12216 12.1962 10.2702C12.1755 10.3235 12.1338 10.3669 12.079 10.3832C11.8898 10.4396 11.6937 10.4252 11.4971 10.4107C11.3816 10.4021 11.2659 10.3936 11.1513 10.3995L11.0658 10.4039C10.6518 10.4256 10.2351 10.4474 9.822 10.4106C9.6718 10.3972 9.59311 10.2327 9.6678 10.1017C10.109 9.32803 10.5572 8.55834 11.0052 7.78901ZM3.0527 7.2751C2.96709 7.27525 2.8742 7.27543 2.83172 7.35695C2.33315 8.50929 2.40329 9.87214 2.99694 10.9739C3.06828 11.1064 3.24961 11.1136 3.33213 10.9878C3.46831 10.7802 3.58909 10.5625 3.70985 10.3449C3.80722 10.1693 3.90459 9.99382 4.00998 9.82371C4.18607 9.50308 4.37257 9.18784 4.55904 8.87264C4.81089 8.44695 5.0627 8.02132 5.28876 7.58258C5.36148 7.4414 5.2587 7.2758 5.09991 7.27486C4.79828 7.27312 4.49676 7.2734 4.19524 7.27371C3.84798 7.27403 3.50067 7.27436 3.15322 7.27158C3.14272 7.27149 3.13222 7.2723 3.12174 7.27319C3.10015 7.27501 3.07672 7.27506 3.0527 7.2751ZM4.09641 11.6329C4.24209 11.4034 4.3747 11.1651 4.5073 10.9268C4.66259 10.6477 4.81783 10.3687 4.99398 10.1042C5.08015 9.97475 5.26922 9.98649 5.34693 10.1212C5.55952 10.4895 5.77402 10.8569 5.98852 11.2244C6.43298 11.9857 6.87748 12.7471 7.30502 13.517C7.38158 13.6549 7.28922 13.8242 7.13152 13.8217C5.91863 13.8018 4.74152 13.1694 3.97174 12.245C3.81389 12.0942 3.92059 11.9239 4.01859 11.7676C4.04767 11.7211 4.076 11.6759 4.09641 11.6329ZM11.7666 11.7101C11.8437 11.5737 11.7403 11.4127 11.5837 11.412C10.2834 11.4064 8.98317 11.408 7.68354 11.4103C7.52506 11.4106 7.42102 11.5745 7.49402 11.7152C7.63137 11.9797 7.78235 12.2372 7.93337 12.4947C8.05254 12.698 8.17176 12.9013 8.28435 13.1082C8.32215 13.1682 8.35611 13.2317 8.39015 13.2952C8.45487 13.416 8.51984 13.5372 8.61174 13.6369C8.65315 13.6818 8.71554 13.6986 8.77587 13.689C9.98665 13.4964 11.1575 12.7882 11.7666 11.7101Z" fill="#279FD7"/>
<path fill-rule="evenodd" clip-rule="evenodd" d="M11.8012 4.45887C11.0446 3.48011 9.84776 2.8408 8.60757 2.80017C8.44818 2.79494 8.3525 2.9655 8.42957 3.10511C8.87574 3.91328 9.34007 4.71132 9.80428 5.50915C9.9915 5.83093 10.1788 6.15278 10.3648 6.47515C10.4437 6.61197 10.6369 6.62145 10.7226 6.48876C10.904 6.20804 11.0672 5.91532 11.2304 5.62252C11.3716 5.36921 11.5129 5.11582 11.666 4.87013C11.6736 4.85791 11.6798 4.84491 11.6858 4.83187C11.7002 4.80098 11.7202 4.7695 11.7405 4.73748C11.7975 4.64804 11.857 4.55454 11.8012 4.45887ZM7.04637 2.89709C5.8272 3.07563 4.67305 3.78367 4.03466 4.84435C3.95331 4.97952 4.05318 5.14471 4.21094 5.14802C5.53311 5.17571 6.85711 5.16369 8.17996 5.15167C8.30329 5.15056 8.38057 5.01817 8.32029 4.91058C8.12148 4.55578 7.91796 4.20365 7.71448 3.85156C7.57816 3.61567 7.44176 3.37963 7.30687 3.143C7.30124 3.13311 7.29474 3.12374 7.28809 3.1145C7.27437 3.09548 7.2614 3.07395 7.2482 3.05202C7.20007 2.97217 7.14872 2.88693 7.04637 2.89709ZM11.8052 6.58906C12.0169 6.22565 12.2285 5.86217 12.4394 5.49843C12.5183 5.36217 12.7108 5.35313 12.7903 5.48911C13.4154 6.55915 13.4431 7.92221 12.9963 9.0703C12.9755 9.12358 12.9339 9.16691 12.8791 9.18323C12.6899 9.23967 12.4938 9.22521 12.2972 9.21071C12.1816 9.20219 12.0659 9.19367 11.9513 9.19952L11.8659 9.20397C11.4518 9.22567 11.0351 9.24749 10.622 9.21065C10.4718 9.19723 10.3932 9.03276 10.4679 8.90178C10.909 8.12808 11.3572 7.35839 11.8052 6.58906ZM3.85275 6.07515C3.76714 6.0753 3.67425 6.07547 3.63177 6.157C3.1332 7.30934 3.20334 8.67219 3.79698 9.77397C3.86833 9.90643 4.04966 9.91367 4.13218 9.78789C4.26835 9.5803 4.38914 9.36256 4.5099 9.14491C4.60727 8.96936 4.70464 8.79386 4.81003 8.62376C4.98611 8.30313 5.17261 7.98789 5.35909 7.67269C5.61094 7.247 5.86274 6.82137 6.08881 6.38263C6.16153 6.24145 6.05874 6.07584 5.89996 6.07491C5.59833 6.07317 5.29681 6.07345 4.99529 6.07376C4.64803 6.07408 4.30072 6.07441 3.95327 6.07163C3.94277 6.07154 3.93227 6.07234 3.92179 6.07324C3.9002 6.07506 3.87677 6.0751 3.85275 6.07515ZM4.89646 10.4329C5.04214 10.2035 5.17474 9.96515 5.30735 9.72684C5.46264 9.44778 5.61787 9.16878 5.79403 8.90421C5.8802 8.7748 6.06927 8.78654 6.14698 8.92121C6.35957 9.28958 6.57407 9.65699 6.78857 10.0244C7.23303 10.7857 7.67753 11.5471 8.10507 12.3171C8.18163 12.4549 8.08926 12.6243 7.93157 12.6217C6.71868 12.6019 5.54157 11.9695 4.77179 11.0451C4.61394 10.8942 4.72064 10.724 4.81864 10.5676C4.84772 10.5212 4.87605 10.476 4.89646 10.4329ZM12.5667 10.5101C12.6437 10.3738 12.5404 10.2128 12.3838 10.2121C11.0835 10.2064 9.78322 10.2081 8.48359 10.2104C8.32511 10.2106 8.22107 10.3746 8.29407 10.5152C8.43142 10.7798 8.58239 11.0373 8.73342 11.2948C8.85259 11.498 8.97181 11.7013 9.08439 11.9082C9.1222 11.9683 9.15615 12.0317 9.1902 12.0952C9.25492 12.216 9.31989 12.3373 9.41178 12.4369C9.4532 12.4818 9.51559 12.4987 9.57592 12.4891C10.7867 12.2965 11.9575 11.5883 12.5667 10.5101Z" fill="url(#paint1_linear_15_1684)"/>
</g>
<defs>
<linearGradient id="paint0_linear_15_1684" x1="1.59969" y1="16.0019" x2="7.37727" y2="-1.33301" gradientUnits="userSpaceOnUse">
<stop offset="0.190745" stop-color="#22B4FA"/>
<stop offset="0.896724" stop-color="#7DDCFF"/>
</linearGradient>
<linearGradient id="paint1_linear_15_1684" x1="3.30005" y1="12.6217" x2="15.0395" y2="9.63361" gradientUnits="userSpaceOnUse">
<stop stop-color="#6BD6FE"/>
<stop offset="1" stop-color="white"/>
</linearGradient>
<clipPath id="clip0_15_1684">
<rect width="16" height="16" fill="white"/>
</clipPath>
</defs>
</svg>
