<svg width="16" height="16" viewBox="0 0 16 16" fill="none" xmlns="http://www.w3.org/2000/svg">
<g clip-path="url(#clip0_44_37)">
<path fill-rule="evenodd" clip-rule="evenodd" d="M11.0854 2.16154C11.7913 2.32613 12 3.27515 12 4C12 5.10457 12.8954 6 14 6C14.5747 6 15.2419 6.18898 15.4146 6.73712C15.9257 8.35941 16.1154 10.0991 15.9313 11.9746C15.9305 11.9818 15.9282 11.9887 15.9245 11.9949C15.9208 12.0011 15.9159 12.0065 15.91 12.0106C14.6977 12.8938 13.3448 13.5657 11.9086 13.998C11.8985 14.001 11.8877 14.0008 11.8777 13.9975C11.8676 13.9941 11.8589 13.9878 11.8526 13.9793C11.5506 13.5653 11.276 13.1293 11.036 12.6713C11.0327 12.665 11.0308 12.658 11.0304 12.6509C11.03 12.6438 11.0312 12.6367 11.0338 12.6301C11.0364 12.6235 11.0404 12.6175 11.0454 12.6125C11.0505 12.6076 11.0566 12.6037 11.0633 12.6013C11.4986 12.44 11.9133 12.246 12.312 12.0166C12.3191 12.0124 12.325 12.0065 12.3293 11.9994C12.3336 11.9923 12.336 11.9843 12.3364 11.976C12.3368 11.9678 12.3351 11.9596 12.3316 11.9521C12.328 11.9446 12.3226 11.9382 12.316 11.9333C12.2313 11.8713 12.148 11.8066 12.068 11.7413C12.0606 11.7354 12.0518 11.7318 12.0425 11.7307C12.0332 11.7297 12.0238 11.7312 12.0153 11.7353C9.42796 12.9113 6.59262 12.9113 3.97462 11.7353C3.96619 11.7315 3.95686 11.7301 3.94768 11.7312C3.93849 11.7324 3.92982 11.7362 3.92262 11.742C3.84262 11.8066 3.75862 11.8713 3.67462 11.9333C3.66801 11.9383 3.66275 11.9448 3.6593 11.9524C3.65585 11.9598 3.65431 11.9681 3.65485 11.9764C3.65537 11.9846 3.65795 11.9926 3.66233 11.9996C3.66671 12.0067 3.67277 12.0125 3.67995 12.0166C4.08001 12.244 4.49729 12.4398 4.92795 12.602C4.93462 12.6043 4.9407 12.608 4.94579 12.613C4.95087 12.6178 4.95485 12.6238 4.95744 12.6304C4.96003 12.637 4.96118 12.644 4.96081 12.651C4.96044 12.6581 4.95855 12.665 4.95529 12.6713C4.71989 13.1296 4.44649 13.5673 4.13795 13.98C4.13145 13.9882 4.12262 13.9942 4.11263 13.9972C4.10264 14.0004 4.09195 14.0004 4.08195 13.9973C2.64818 13.5638 1.29755 12.8922 0.0866207 12.0106C0.0808687 12.0062 0.0760708 12.0007 0.0725174 11.9944C0.0689648 11.9881 0.0667314 11.9812 0.0659543 11.974C-0.213379 9.03665 0.355287 6.06196 2.42995 3.01196C2.43506 3.00393 2.44251 2.99765 2.45129 2.99396C3.47195 2.53329 4.56529 2.19329 5.70795 1.99996C5.71827 1.99833 5.72883 1.99987 5.73825 2.0044C5.74765 2.00893 5.75546 2.01622 5.76062 2.02529C5.82793 2.14268 5.89233 2.26169 5.95376 2.3822C6.09088 2.65122 6.37954 2.81236 6.67976 2.78013C7.55769 2.68588 8.44323 2.68584 9.32116 2.78003C9.62183 2.81228 9.91176 2.65105 10.0469 2.38053C10.1092 2.25573 10.1738 2.13332 10.2353 2.02529C10.2405 2.01633 10.2484 2.0092 10.2578 2.0049C10.2672 2.0006 10.2778 1.99934 10.288 2.00129C10.5566 2.04673 10.8225 2.10026 11.0854 2.16154ZM14.2 4.80002C14.8627 4.80002 15.4 4.26277 15.4 3.60002C15.4 2.93728 14.8627 2.40002 14.2 2.40002C13.5373 2.40002 13 2.93728 13 3.60002C13 4.26277 13.5373 4.80002 14.2 4.80002Z" fill="url(#paint0_linear_44_37)"/>
<path d="M3 9.58667C3 10.4607 3.65 11.1733 4.438 11.1733C5.23867 11.1733 5.87599 10.4613 5.87599 9.58667C5.88866 8.718 5.24467 8 4.438 8C3.63733 8 3 8.712 3 9.58667Z" fill="#D49F34"/>
<path d="M8.31665 9.58667C8.31665 10.4607 8.96598 11.1733 9.75465 11.1733C10.562 11.1733 11.1927 10.4613 11.1927 9.58667C11.2053 8.718 10.5613 8 9.75465 8C8.95332 8 8.31665 8.712 8.31665 9.58667Z" fill="#D49F34"/>
<path d="M3.90869 8.59863C3.90869 9.47263 4.55869 10.1853 5.34669 10.1853C6.14736 10.1853 6.78468 9.4733 6.78468 8.59863C6.79735 7.72996 6.15336 7.01196 5.34669 7.01196C4.54602 7.01196 3.90869 7.72396 3.90869 8.59863Z" fill="url(#paint1_linear_44_37)"/>
<path d="M9.22534 8.59863C9.22534 9.47263 9.87467 10.1853 10.6633 10.1853C11.4707 10.1853 12.1013 9.4733 12.1013 8.59863C12.114 7.72996 11.47 7.01196 10.6633 7.01196C9.86201 7.01196 9.22534 7.72396 9.22534 8.59863Z" fill="url(#paint2_linear_44_37)"/>
</g>
<defs>
<linearGradient id="paint0_linear_44_37" x1="2.99972" y1="13.2492" x2="9.85345" y2="2.28278" gradientUnits="userSpaceOnUse">
<stop stop-color="#FF8860"/>
<stop offset="1" stop-color="#FBD92C"/>
</linearGradient>
<linearGradient id="paint1_linear_44_37" x1="4.62774" y1="9.39196" x2="6.20676" y2="7.9608" gradientUnits="userSpaceOnUse">
<stop stop-color="#FBD92C"/>
<stop offset="1" stop-color="white"/>
</linearGradient>
<linearGradient id="paint2_linear_44_37" x1="9.94439" y1="9.39196" x2="11.5234" y2="7.96079" gradientUnits="userSpaceOnUse">
<stop stop-color="#FBD92C"/>
<stop offset="1" stop-color="white"/>
</linearGradient>
<clipPath id="clip0_44_37">
<rect width="16" height="16" fill="white"/>
</clipPath>
</defs>
</svg>
