<svg width="16" height="16" viewBox="0 0 16 16" fill="none" xmlns="http://www.w3.org/2000/svg">
<g clip-path="url(#clip0_44_15)">
<path fill-rule="evenodd" clip-rule="evenodd" d="M16 15C16 14.448 15.552 14 15 14C14.448 14 14 14.448 14 15C14 15.552 14.448 16 15 16C15.552 16 16 15.552 16 15ZM13 15C13 13.896 13.896 13 15 13C15.552 13 16 12.552 16 12C16 12 16 7.216 16 3.958C16 1.772 14.228 0 12.0419 0H3.958C1.772 0 0 1.772 0 3.958V12.0419C0 14.228 1.772 16 3.958 16C7.216 16 12 16 12 16C12.552 16 13 15.552 13 15Z" fill="url(#paint0_linear_44_15)"/>
<path fill-rule="evenodd" clip-rule="evenodd" d="M3 8.50384C3.00296 8.7749 3.04969 9.04371 3.1384 9.29985C3.55283 10.5418 4.81485 11.7574 5.78442 12.5478C6.31722 12.9826 6.58402 13.1998 7.00002 13.1998C7.41602 13.1998 7.68242 12.9826 8.21522 12.5478C9.1848 11.7574 10.4472 10.5418 10.8616 9.29985C10.9503 9.04367 10.997 8.77489 11 8.50384C11 6.49567 9.41298 5.41807 7.83193 6.32437C7.32815 6.61315 6.67185 6.61315 6.16806 6.32439C4.58701 5.41818 3 6.49602 3 8.50384Z" fill="#DA5CDB"/>
<path fill-rule="evenodd" clip-rule="evenodd" d="M4 7.00384C4.00296 7.2749 4.04969 7.54371 4.1384 7.79985C4.55283 9.04183 5.81485 10.2574 6.78442 11.0478C7.31722 11.4826 7.58402 11.6998 8.00002 11.6998C8.41602 11.6998 8.68242 11.4826 9.21522 11.0478C10.1848 10.2574 11.4472 9.04183 11.8616 7.79985C11.9503 7.54367 11.997 7.27489 12 7.00384C12 4.99567 10.413 3.91807 8.83193 4.82437C8.32815 5.11315 7.67185 5.11315 7.16806 4.82439C5.58701 3.91818 4 4.99602 4 7.00384Z" fill="url(#paint1_linear_44_15)"/>
</g>
<defs>
<linearGradient id="paint0_linear_44_15" x1="1.14286" y1="14.7692" x2="15.7777" y2="2.31222" gradientUnits="userSpaceOnUse">
<stop stop-color="#FE5AFF"/>
<stop offset="1" stop-color="#FE9EFF"/>
</linearGradient>
<linearGradient id="paint1_linear_44_15" x1="4" y1="11.6995" x2="5.178" y2="3.51803" gradientUnits="userSpaceOnUse">
<stop stop-color="#FE9EFF"/>
<stop offset="1" stop-color="white"/>
</linearGradient>
<clipPath id="clip0_44_15">
<rect width="16" height="16" fill="white"/>
</clipPath>
</defs>
</svg>
