<svg width="16" height="16" viewBox="0 0 16 16" fill="none" xmlns="http://www.w3.org/2000/svg">
<path fill-rule="evenodd" clip-rule="evenodd" d="M13 15C13 15.552 12.552 16 12 16H3.992C1.787 16 0 14.213 0 12.008C0 9.643 0 6.357 0 3.992C0 2.933 0.421001 1.918 1.169 1.169C1.918 0.421 2.933 0 3.992 0C6.357 0 9.643 0 12.008 0C14.213 0 16 1.787 16 3.992C16 7.249 16 12 16 12C16 12.552 15.552 13 15 13C13.896 13 13 13.896 13 15ZM14 15C14 14.448 14.448 14 15 14C15.552 14 16 14.448 16 15C16 15.552 15.552 16 15 16C14.448 16 14 15.552 14 15Z" fill="url(#paint0_linear_151_16007)"/>
<path d="M2.25 4C2.11193 4 2 4.11193 2 4.25V4.3C2 4.43807 2.11193 4.55 2.25 4.55H2.3C2.43807 4.55 2.55 4.66193 2.55 4.8V7.6C2.55 7.73807 2.43807 7.85 2.3 7.85H2.25C2.11193 7.85 2 7.96192 2 8.1V8.15C2 8.28808 2.11193 8.4 2.25 8.4H4.5C4.63807 8.4 4.75 8.28808 4.75 8.15V8.1C4.75 7.96192 4.86193 7.85 5 7.85H5.05C5.18808 7.85 5.3 7.73807 5.3 7.6V4.8C5.3 4.66193 5.18808 4.55 5.05 4.55H5C4.86193 4.55 4.75 4.43807 4.75 4.3V4.25C4.75 4.11193 4.63807 4 4.5 4H2.25ZM6.65 4C6.51193 4 6.4 4.11193 6.4 4.25V4.3C6.4 4.43807 6.28808 4.55 6.15 4.55H6.1C5.96192 4.55 5.85 4.66193 5.85 4.8V7.6C5.85 7.73807 5.96192 7.85 6.1 7.85H6.15C6.28808 7.85 6.4 7.96192 6.4 8.1V8.15C6.4 8.28808 6.51193 8.4 6.65 8.4H8.35C8.48808 8.4 8.6 8.28808 8.6 8.15V8.1C8.6 7.96192 8.71193 7.85 8.85 7.85H8.9C9.03807 7.85 9.15 7.73807 9.15 7.6V4.8C9.15 4.66193 9.03807 4.55 8.9 4.55H8.85C8.71193 4.55 8.6 4.43807 8.6 4.3V4.25C8.6 4.11193 8.48808 4 8.35 4H6.65ZM10.5 4C10.3619 4 10.25 4.11193 10.25 4.25V4.3C10.25 4.43807 10.1381 4.55 10 4.55H9.95C9.81192 4.55 9.7 4.66193 9.7 4.8V5.4C9.7 5.53808 9.81192 5.65 9.95 5.65H10C10.1381 5.65 10.25 5.76193 10.25 5.9V5.95C10.25 6.08807 10.3619 6.2 10.5 6.2H11.1C11.2381 6.2 11.35 6.31192 11.35 6.45V6.5C11.35 6.63807 11.4619 6.75 11.6 6.75H11.65C11.7881 6.75 11.9 6.86193 11.9 7V7.6C11.9 7.73807 11.7881 7.85 11.65 7.85H11.05C10.9119 7.85 10.8 7.73807 10.8 7.6V7C10.8 6.86193 10.6881 6.75 10.55 6.75H9.95C9.81192 6.75 9.7 6.86193 9.7 7V7.6C9.7 7.73807 9.81192 7.85 9.95 7.85H10C10.1381 7.85 10.25 7.96192 10.25 8.1V8.15C10.25 8.28808 10.3619 8.4 10.5 8.4H12.2C12.3381 8.4 12.45 8.28808 12.45 8.15V8.1C12.45 7.96192 12.5619 7.85 12.7 7.85H12.75C12.8881 7.85 13 7.73807 13 7.6V7C13 6.86193 12.8881 6.75 12.75 6.75H12.7C12.5619 6.75 12.45 6.63807 12.45 6.5V6.45C12.45 6.31192 12.3381 6.2 12.2 6.2H12.15C12.0119 6.2 11.9 6.08807 11.9 5.95V5.65H11.05C10.9119 5.65 10.8 5.53808 10.8 5.4V4.8C10.8 4.66193 10.9119 4.55 11.05 4.55H11.65C11.7881 4.55 11.9 4.66193 11.9 4.8V5.65H12.75C12.8881 5.65 13 5.53808 13 5.4V4.8C13 4.66193 12.8881 4.55 12.75 4.55H12.7C12.5619 4.55 12.45 4.43807 12.45 4.3V4.25C12.45 4.11193 12.3381 4 12.2 4H10.5ZM3.65 4.8C3.65 4.66193 3.76193 4.55 3.9 4.55H3.95C4.08807 4.55 4.2 4.66193 4.2 4.8V7.6C4.2 7.73807 4.08807 7.85 3.95 7.85H3.9C3.76193 7.85 3.65 7.73807 3.65 7.6V4.8ZM6.95 4.8C6.95 4.66193 7.06192 4.55 7.2 4.55H7.8C7.93808 4.55 8.05 4.66193 8.05 4.8V7.6C8.05 7.73807 7.93808 7.85 7.8 7.85H7.2C7.06192 7.85 6.95 7.73807 6.95 7.6V4.8Z" fill="#D49F34"/>
<path fill-rule="evenodd" clip-rule="evenodd" d="M2.25 9C2.11193 9 2 9.11193 2 9.25V9.3C2 9.43808 2.11193 9.55 2.25 9.55H2.3C2.43807 9.55 2.55 9.66193 2.55 9.8V12.6C2.55 12.7381 2.43807 12.85 2.3 12.85H2.25C2.11193 12.85 2 12.9619 2 13.1V13.15C2 13.2881 2.11193 13.4 2.25 13.4H4.5C4.63807 13.4 4.75 13.2881 4.75 13.15V13.1C4.75 12.9619 4.86193 12.85 5 12.85H5.05C5.18808 12.85 5.3 12.7381 5.3 12.6V11.45C5.3 11.3119 5.18808 11.2 5.05 11.2H5C4.86193 11.2 4.75 11.0881 4.75 10.95V10.9C4.75 10.7619 4.86193 10.65 5 10.65H5.05C5.18808 10.65 5.3 10.5381 5.3 10.4V9.8C5.3 9.66193 5.18808 9.55 5.05 9.55H5C4.86193 9.55 4.75 9.43808 4.75 9.3V9.25C4.75 9.11193 4.63807 9 4.5 9H2.25ZM6.65 9C6.51193 9 6.4 9.11193 6.4 9.25V9.3C6.4 9.43808 6.28808 9.55 6.15 9.55H6.1C5.96192 9.55 5.85 9.66193 5.85 9.8V12.6C5.85 12.7381 5.96192 12.85 6.1 12.85H6.15C6.28808 12.85 6.4 12.9619 6.4 13.1V13.15C6.4 13.2881 6.51193 13.4 6.65 13.4H8.35C8.48808 13.4 8.6 13.2881 8.6 13.15V13.1C8.6 12.9619 8.71193 12.85 8.85 12.85H9.15V13.15C9.15 13.2881 9.26192 13.4 9.4 13.4H10C10.1381 13.4 10.25 13.2881 10.25 13.15V13.1C10.25 12.9619 10.3619 12.85 10.5 12.85H10.55C10.6881 12.85 10.8 12.7381 10.8 12.6V12.55C10.8 12.4119 10.9119 12.3 11.05 12.3H11.1C11.2381 12.3 11.35 12.4119 11.35 12.55V12.6C11.35 12.7381 11.4619 12.85 11.6 12.85H11.65C11.7881 12.85 11.9 12.9619 11.9 13.1V13.15C11.9 13.2881 12.0119 13.4 12.15 13.4H12.75C12.8881 13.4 13 13.2881 13 13.15V13.1C13 12.9619 12.8881 12.85 12.75 12.85H12.7C12.5619 12.85 12.45 12.7381 12.45 12.6V12C12.45 11.8619 12.3381 11.75 12.2 11.75H12.15C12.0119 11.75 11.9 11.6381 11.9 11.5V10.9C11.9 10.7619 12.0119 10.65 12.15 10.65H12.2C12.3381 10.65 12.45 10.5381 12.45 10.4V9.8C12.45 9.66193 12.5619 9.55 12.7 9.55H12.75C12.8881 9.55 13 9.43808 13 9.3V9.25C13 9.11193 12.8881 9 12.75 9H12.15C12.0119 9 11.9 9.11193 11.9 9.25V9.3C11.9 9.43808 11.7881 9.55 11.65 9.55H11.6C11.4619 9.55 11.35 9.66193 11.35 9.8V9.85C11.35 9.98808 11.2381 10.1 11.1 10.1H11.05C10.9119 10.1 10.8 9.98808 10.8 9.85V9.8C10.8 9.66193 10.6881 9.55 10.55 9.55H10.5C10.3619 9.55 10.25 9.43808 10.25 9.3V9.25C10.25 9.11193 10.1381 9 10 9H9.4C9.26192 9 9.15 9.11193 9.15 9.25V9.55H8.85C8.71193 9.55 8.6 9.43808 8.6 9.3V9.25C8.6 9.11193 8.48808 9 8.35 9H6.65ZM9.15 9.55V12.85H9.45C9.58807 12.85 9.7 12.7381 9.7 12.6V12C9.7 11.8619 9.81192 11.75 9.95 11.75H10C10.1381 11.75 10.25 11.6381 10.25 11.5V10.9C10.25 10.7619 10.1381 10.65 10 10.65H9.95C9.81192 10.65 9.7 10.5381 9.7 10.4V9.8C9.7 9.66193 9.58807 9.55 9.45 9.55H9.15ZM3.65 9.8C3.65 9.66193 3.76193 9.55 3.9 9.55H3.95C4.08807 9.55 4.2 9.66193 4.2 9.8V10.4C4.2 10.5381 4.08807 10.65 3.95 10.65H3.9C3.76193 10.65 3.65 10.5381 3.65 10.4V9.8ZM3.65 11.45C3.65 11.3119 3.76193 11.2 3.9 11.2H3.95C4.08807 11.2 4.2 11.3119 4.2 11.45V12.6C4.2 12.7381 4.08807 12.85 3.95 12.85H3.9C3.76193 12.85 3.65 12.7381 3.65 12.6V11.45ZM8.05 9.8C8.05 9.66193 7.93808 9.55 7.8 9.55H7.2C7.06192 9.55 6.95 9.66193 6.95 9.8V12.6C6.95 12.7381 7.06192 12.85 7.2 12.85H7.8C7.93808 12.85 8.05 12.7381 8.05 12.6V9.8Z" fill="#D49F34"/>
<path d="M2.75 3.25C2.61193 3.25 2.5 3.36193 2.5 3.5V3.55C2.5 3.68807 2.61193 3.8 2.75 3.8H2.8C2.93807 3.8 3.05 3.91193 3.05 4.05V6.85C3.05 6.98807 2.93807 7.1 2.8 7.1H2.75C2.61193 7.1 2.5 7.21192 2.5 7.35V7.4C2.5 7.53808 2.61193 7.65 2.75 7.65H5C5.13807 7.65 5.25 7.53808 5.25 7.4V7.35C5.25 7.21192 5.36193 7.1 5.5 7.1H5.55C5.68808 7.1 5.8 6.98807 5.8 6.85V4.05C5.8 3.91193 5.68808 3.8 5.55 3.8H5.5C5.36193 3.8 5.25 3.68807 5.25 3.55V3.5C5.25 3.36193 5.13807 3.25 5 3.25H2.75ZM7.15 3.25C7.01193 3.25 6.9 3.36193 6.9 3.5V3.55C6.9 3.68807 6.78808 3.8 6.65 3.8H6.6C6.46192 3.8 6.35 3.91193 6.35 4.05V6.85C6.35 6.98807 6.46192 7.1 6.6 7.1H6.65C6.78808 7.1 6.9 7.21192 6.9 7.35V7.4C6.9 7.53808 7.01193 7.65 7.15 7.65H8.85C8.98808 7.65 9.1 7.53808 9.1 7.4V7.35C9.1 7.21192 9.21193 7.1 9.35 7.1H9.4C9.53807 7.1 9.65 6.98807 9.65 6.85V4.05C9.65 3.91193 9.53807 3.8 9.4 3.8H9.35C9.21193 3.8 9.1 3.68807 9.1 3.55V3.5C9.1 3.36193 8.98808 3.25 8.85 3.25H7.15ZM11 3.25C10.8619 3.25 10.75 3.36193 10.75 3.5V3.55C10.75 3.68807 10.6381 3.8 10.5 3.8H10.45C10.3119 3.8 10.2 3.91193 10.2 4.05V4.65C10.2 4.78808 10.3119 4.9 10.45 4.9H10.5C10.6381 4.9 10.75 5.01193 10.75 5.15V5.2C10.75 5.33807 10.8619 5.45 11 5.45H11.6C11.7381 5.45 11.85 5.56192 11.85 5.7V5.75C11.85 5.88807 11.9619 6 12.1 6H12.15C12.2881 6 12.4 6.11193 12.4 6.25V6.85C12.4 6.98807 12.2881 7.1 12.15 7.1H11.55C11.4119 7.1 11.3 6.98807 11.3 6.85V6.25C11.3 6.11193 11.1881 6 11.05 6H10.45C10.3119 6 10.2 6.11193 10.2 6.25V6.85C10.2 6.98807 10.3119 7.1 10.45 7.1H10.5C10.6381 7.1 10.75 7.21192 10.75 7.35V7.4C10.75 7.53808 10.8619 7.65 11 7.65H12.7C12.8381 7.65 12.95 7.53808 12.95 7.4V7.35C12.95 7.21192 13.0619 7.1 13.2 7.1H13.25C13.3881 7.1 13.5 6.98807 13.5 6.85V6.25C13.5 6.11193 13.3881 6 13.25 6H13.2C13.0619 6 12.95 5.88807 12.95 5.75V5.7C12.95 5.56192 12.8381 5.45 12.7 5.45H12.65C12.5119 5.45 12.4 5.33807 12.4 5.2V4.9H11.55C11.4119 4.9 11.3 4.78808 11.3 4.65V4.05C11.3 3.91193 11.4119 3.8 11.55 3.8H12.15C12.2881 3.8 12.4 3.91193 12.4 4.05V4.9H13.25C13.3881 4.9 13.5 4.78808 13.5 4.65V4.05C13.5 3.91193 13.3881 3.8 13.25 3.8H13.2C13.0619 3.8 12.95 3.68807 12.95 3.55V3.5C12.95 3.36193 12.8381 3.25 12.7 3.25H11ZM4.15 4.05C4.15 3.91193 4.26193 3.8 4.4 3.8H4.45C4.58807 3.8 4.7 3.91193 4.7 4.05V6.85C4.7 6.98807 4.58807 7.1 4.45 7.1H4.4C4.26193 7.1 4.15 6.98807 4.15 6.85V4.05ZM7.45 4.05C7.45 3.91193 7.56192 3.8 7.7 3.8H8.3C8.43808 3.8 8.55 3.91193 8.55 4.05V6.85C8.55 6.98807 8.43808 7.1 8.3 7.1H7.7C7.56192 7.1 7.45 6.98807 7.45 6.85V4.05Z" fill="url(#paint1_linear_151_16007)"/>
<path fill-rule="evenodd" clip-rule="evenodd" d="M2.75 8.25C2.61193 8.25 2.5 8.36193 2.5 8.5V8.55C2.5 8.68808 2.61193 8.8 2.75 8.8H2.8C2.93807 8.8 3.05 8.91193 3.05 9.05V11.85C3.05 11.9881 2.93807 12.1 2.8 12.1H2.75C2.61193 12.1 2.5 12.2119 2.5 12.35V12.4C2.5 12.5381 2.61193 12.65 2.75 12.65H5C5.13807 12.65 5.25 12.5381 5.25 12.4V12.35C5.25 12.2119 5.36193 12.1 5.5 12.1H5.55C5.68808 12.1 5.8 11.9881 5.8 11.85V10.7C5.8 10.5619 5.68808 10.45 5.55 10.45H5.5C5.36193 10.45 5.25 10.3381 5.25 10.2V10.15C5.25 10.0119 5.36193 9.9 5.5 9.9H5.55C5.68808 9.9 5.8 9.78807 5.8 9.65V9.05C5.8 8.91193 5.68808 8.8 5.55 8.8H5.5C5.36193 8.8 5.25 8.68808 5.25 8.55V8.5C5.25 8.36193 5.13807 8.25 5 8.25H2.75ZM7.15 8.25C7.01193 8.25 6.9 8.36193 6.9 8.5V8.55C6.9 8.68808 6.78808 8.8 6.65 8.8H6.6C6.46192 8.8 6.35 8.91193 6.35 9.05V11.85C6.35 11.9881 6.46192 12.1 6.6 12.1H6.65C6.78808 12.1 6.9 12.2119 6.9 12.35V12.4C6.9 12.5381 7.01193 12.65 7.15 12.65H8.85C8.98808 12.65 9.1 12.5381 9.1 12.4V12.35C9.1 12.2119 9.21193 12.1 9.35 12.1H9.65V12.4C9.65 12.5381 9.76192 12.65 9.9 12.65H10.5C10.6381 12.65 10.75 12.5381 10.75 12.4V12.35C10.75 12.2119 10.8619 12.1 11 12.1H11.05C11.1881 12.1 11.3 11.9881 11.3 11.85V11.8C11.3 11.6619 11.4119 11.55 11.55 11.55H11.6C11.7381 11.55 11.85 11.6619 11.85 11.8V11.85C11.85 11.9881 11.9619 12.1 12.1 12.1H12.15C12.2881 12.1 12.4 12.2119 12.4 12.35V12.4C12.4 12.5381 12.5119 12.65 12.65 12.65H13.25C13.3881 12.65 13.5 12.5381 13.5 12.4V12.35C13.5 12.2119 13.3881 12.1 13.25 12.1H13.2C13.0619 12.1 12.95 11.9881 12.95 11.85V11.25C12.95 11.1119 12.8381 11 12.7 11H12.65C12.5119 11 12.4 10.8881 12.4 10.75V10.15C12.4 10.0119 12.5119 9.9 12.65 9.9H12.7C12.8381 9.9 12.95 9.78807 12.95 9.65V9.05C12.95 8.91193 13.0619 8.8 13.2 8.8H13.25C13.3881 8.8 13.5 8.68808 13.5 8.55V8.5C13.5 8.36193 13.3881 8.25 13.25 8.25H12.65C12.5119 8.25 12.4 8.36193 12.4 8.5V8.55C12.4 8.68808 12.2881 8.8 12.15 8.8H12.1C11.9619 8.8 11.85 8.91193 11.85 9.05V9.1C11.85 9.23808 11.7381 9.35 11.6 9.35H11.55C11.4119 9.35 11.3 9.23808 11.3 9.1V9.05C11.3 8.91193 11.1881 8.8 11.05 8.8H11C10.8619 8.8 10.75 8.68808 10.75 8.55V8.5C10.75 8.36193 10.6381 8.25 10.5 8.25H9.9C9.76192 8.25 9.65 8.36193 9.65 8.5V8.8H9.35C9.21193 8.8 9.1 8.68808 9.1 8.55V8.5C9.1 8.36193 8.98808 8.25 8.85 8.25H7.15ZM9.65 8.8V12.1H9.95C10.0881 12.1 10.2 11.9881 10.2 11.85V11.25C10.2 11.1119 10.3119 11 10.45 11H10.5C10.6381 11 10.75 10.8881 10.75 10.75V10.15C10.75 10.0119 10.6381 9.9 10.5 9.9H10.45C10.3119 9.9 10.2 9.78807 10.2 9.65V9.05C10.2 8.91193 10.0881 8.8 9.95 8.8H9.65ZM4.15 9.05C4.15 8.91193 4.26193 8.8 4.4 8.8H4.45C4.58807 8.8 4.7 8.91193 4.7 9.05V9.65C4.7 9.78807 4.58807 9.9 4.45 9.9H4.4C4.26193 9.9 4.15 9.78807 4.15 9.65V9.05ZM4.15 10.7C4.15 10.5619 4.26193 10.45 4.4 10.45H4.45C4.58807 10.45 4.7 10.5619 4.7 10.7V11.85C4.7 11.9881 4.58807 12.1 4.45 12.1H4.4C4.26193 12.1 4.15 11.9881 4.15 11.85V10.7ZM8.55 9.05C8.55 8.91193 8.43808 8.8 8.3 8.8H7.7C7.56192 8.8 7.45 8.91193 7.45 9.05V11.85C7.45 11.9881 7.56192 12.1 7.7 12.1H8.3C8.43808 12.1 8.55 11.9881 8.55 11.85V9.05Z" fill="url(#paint2_linear_151_16007)"/>
<defs>
<linearGradient id="paint0_linear_151_16007" x1="3" y1="14.9988" x2="12.9991" y2="2.999" gradientUnits="userSpaceOnUse">
<stop stop-color="#FF8860"/>
<stop offset="1" stop-color="#FBD92C"/>
</linearGradient>
<linearGradient id="paint1_linear_151_16007" x1="5.25" y1="6.55" x2="6.76724" y2="2.7569" gradientUnits="userSpaceOnUse">
<stop stop-color="#FBD92C"/>
<stop offset="1" stop-color="white"/>
</linearGradient>
<linearGradient id="paint2_linear_151_16007" x1="5.25" y1="11.55" x2="6.76724" y2="7.7569" gradientUnits="userSpaceOnUse">
<stop stop-color="#FBD92C"/>
<stop offset="1" stop-color="white"/>
</linearGradient>
</defs>
</svg>
