<svg width="16" height="16" viewBox="0 0 16 16" fill="none" xmlns="http://www.w3.org/2000/svg">
<path d="M8.64616 14.3183C8.2531 14.6118 7.7469 14.6118 7.35384 14.3183C6.95882 14.0233 6.5439 13.7788 6.10909 13.5845C5.4303 13.2813 4.72727 13.1296 4 13.1296C3.49091 13.1296 2.99103 13.2091 2.50036 13.3679C2.0097 13.5267 1.53988 13.7505 1.09091 14.0394C0.836363 14.1982 0.59103 14.191 0.354909 14.0177C0.118788 13.8444 0.000484848 13.5917 0 13.2596V2.81945C0 2.66061 0.0334545 2.50899 0.100364 2.36459C0.167273 2.22018 0.267151 2.11189 0.4 2.03969C0.969697 1.70757 1.55467 1.45111 2.15491 1.27032C2.75515 1.08953 3.37018 0.999431 4 1C4.70303 1 5.39103 1.1083 6.064 1.32491C6.55137 1.48177 7.02424 1.69544 7.48262 1.9659C7.80808 2.15794 8.19195 2.15802 8.51745 1.96606C8.97617 1.69552 9.44926 1.4818 9.93672 1.32491C10.6097 1.1083 11.2975 1 12 1C12.6303 1 13.2456 1.0904 13.8458 1.27119C14.4461 1.45198 15.0308 1.70815 15.6 2.03969C15.7333 2.11189 15.8334 2.22018 15.9004 2.36459C15.9673 2.50899 16.0005 2.66061 16 2.81945V13.2596C16 13.5917 15.8819 13.8444 15.6458 14.0177C15.4097 14.191 15.1641 14.1982 14.9091 14.0394C14.4606 13.7505 13.991 13.5267 13.5004 13.3679C13.0097 13.2091 12.5096 13.1296 12 13.1296C11.2727 13.1296 10.5697 13.2813 9.89091 13.5845C9.45609 13.7788 9.04118 14.0233 8.64616 14.3183Z" fill="url(#paint0_linear_16_1863)"/>
<path d="M1.01092 5.84972L1.00005 6.56688C0.995795 6.84753 1.29303 7.03373 1.55258 6.92687C1.87914 6.79242 2.21465 6.68115 2.5591 6.59305C3.10429 6.4536 3.67165 6.38834 4.26115 6.39729C4.67937 6.40425 5.07815 6.44537 5.45749 6.52064C5.66446 6.5617 5.87009 6.6132 6.07437 6.67511C6.32317 6.75053 6.58598 6.57415 6.58993 6.31419L6.59996 5.65287C6.60255 5.48202 6.48866 5.3308 6.32262 5.29051C6.04211 5.22245 5.75714 5.16301 5.46768 5.11218C5.08079 5.04424 4.68567 5.00721 4.28233 5.00109C3.69345 4.99217 3.13042 5.03793 2.59326 5.1384C2.13566 5.22399 1.68604 5.34911 1.24436 5.51375C1.10433 5.56595 1.01319 5.70029 1.01092 5.84972Z" fill="#D49F34"/>
<path d="M1.01092 9.84972L1.00005 10.5669C0.995795 10.8475 1.29303 11.0337 1.55258 10.9269C1.87914 10.7924 2.21465 10.6812 2.5591 10.5931C3.10429 10.4536 3.67165 10.3883 4.26115 10.3973C4.67937 10.4043 5.07815 10.4454 5.45749 10.5206C5.66446 10.5617 5.87009 10.6132 6.07437 10.6751C6.32317 10.7505 6.58598 10.5741 6.58993 10.3142L6.59996 9.65287C6.60255 9.48202 6.48866 9.3308 6.32262 9.29051C6.04211 9.22245 5.75714 9.16301 5.46768 9.11218C5.08079 9.04424 4.68567 9.00721 4.28233 9.00109C3.69345 8.99217 3.13042 9.03793 2.59326 9.1384C2.13566 9.22399 1.68604 9.34911 1.24436 9.51375C1.10433 9.56595 1.01319 9.70029 1.01092 9.84972Z" fill="#D49F34"/>
<path d="M1.41095 4.84972L1.40007 5.56688C1.39582 5.84753 1.69306 6.03373 1.9526 5.92687C2.27917 5.79242 2.61468 5.68115 2.95912 5.59305C3.50432 5.4536 4.07167 5.38834 4.66117 5.39729C5.0794 5.40425 5.47818 5.44537 5.85751 5.52064C6.06449 5.5617 6.27012 5.6132 6.47439 5.67511C6.7232 5.75053 6.986 5.57415 6.98996 5.31419L6.99998 4.65287C7.00258 4.48202 6.88869 4.3308 6.72265 4.29051C6.44214 4.22245 6.15716 4.16301 5.8677 4.11218C5.48081 4.04424 5.08569 4.00721 4.68236 4.00109C4.09347 3.99217 3.53044 4.03793 2.99328 4.1384C2.53569 4.22399 2.08607 4.34911 1.64438 4.51375C1.50435 4.56595 1.41321 4.70029 1.41095 4.84972Z" fill="url(#paint1_linear_16_1863)"/>
<path d="M1.41095 8.84972L1.40007 9.56688C1.39582 9.84753 1.69306 10.0337 1.9526 9.92687C2.27917 9.79242 2.61468 9.68115 2.95912 9.59305C3.50432 9.4536 4.07167 9.38834 4.66117 9.39729C5.0794 9.40425 5.47818 9.44537 5.85751 9.52064C6.06449 9.5617 6.27012 9.6132 6.47439 9.67511C6.7232 9.75053 6.986 9.57415 6.98996 9.31419L6.99998 8.65287C7.00258 8.48202 6.88869 8.3308 6.72265 8.29051C6.44214 8.22245 6.15716 8.16301 5.8677 8.11218C5.48081 8.04424 5.08569 8.00721 4.68236 8.00109C4.09347 7.99217 3.53044 8.03793 2.99328 8.1384C2.53569 8.22399 2.08607 8.34911 1.64438 8.51375C1.50435 8.56595 1.41321 8.70029 1.41095 8.84972Z" fill="url(#paint2_linear_16_1863)"/>
<path d="M14.257 6.62593L10.6828 10.218C10.4969 10.3989 10.2526 10.5 9.99767 10.5H8.74961C8.68057 10.5 8.61684 10.4734 8.56904 10.4255C8.52124 10.3776 8.5 10.3137 8.5 10.2446L8.53187 8.98337C8.53718 8.73327 8.63808 8.4991 8.81334 8.3235L11.3466 5.78513C11.3891 5.74257 11.4635 5.74257 11.506 5.78513L12.3945 6.6701C12.4529 6.7281 12.5379 6.7659 12.6282 6.7659C12.8247 6.7659 12.9787 6.60627 12.9787 6.41467C12.9787 6.3189 12.9415 6.23373 12.8831 6.1699C12.8672 6.1486 12.0211 5.30621 12.0211 5.30621C11.968 5.25299 11.968 5.16253 12.0211 5.10931L12.377 4.74745C12.7062 4.41752 13.2373 4.41752 13.5666 4.74745L14.257 5.43925C14.581 5.76387 14.581 6.296 14.257 6.62593Z" fill="#D49F34"/>
<path d="M14.757 5.12593L11.1828 8.71797C10.9969 8.8989 10.7526 9 10.4977 9H9.24961C9.18057 9 9.11684 8.9734 9.06904 8.9255C9.02124 8.8776 9 8.81373 9 8.74457L9.03187 7.48337C9.03718 7.23327 9.13808 6.9991 9.31334 6.8235L11.8466 4.28513C11.8891 4.24257 11.9635 4.24257 12.006 4.28513L12.8945 5.1701C12.9529 5.2281 13.0379 5.2659 13.1282 5.2659C13.3247 5.2659 13.4787 5.10627 13.4787 4.91467C13.4787 4.8189 13.4415 4.73373 13.3831 4.6699C13.3672 4.6486 12.5211 3.80621 12.5211 3.80621C12.468 3.75299 12.468 3.66253 12.5211 3.60931L12.877 3.24745C13.2062 2.91752 13.7373 2.91752 14.0666 3.24745L14.757 3.93925C15.081 4.26387 15.081 4.796 14.757 5.12593Z" fill="url(#paint3_linear_16_1863)"/>
<defs>
<linearGradient id="paint0_linear_16_1863" x1="3" y1="13.6913" x2="11.1021" y2="2.20013" gradientUnits="userSpaceOnUse">
<stop stop-color="#FF8860"/>
<stop offset="1" stop-color="#FBD92C"/>
</linearGradient>
<linearGradient id="paint1_linear_16_1863" x1="2.80002" y1="5.46807" x2="3.40973" y2="3.72376" gradientUnits="userSpaceOnUse">
<stop stop-color="#FBD92C"/>
<stop offset="1" stop-color="white"/>
</linearGradient>
<linearGradient id="paint2_linear_16_1863" x1="2.80002" y1="9.46807" x2="3.40973" y2="7.72376" gradientUnits="userSpaceOnUse">
<stop stop-color="#FBD92C"/>
<stop offset="1" stop-color="white"/>
</linearGradient>
<linearGradient id="paint3_linear_16_1863" x1="10.5" y1="7.5" x2="13.5" y2="4.5" gradientUnits="userSpaceOnUse">
<stop stop-color="#FBD92C"/>
<stop offset="1" stop-color="white"/>
</linearGradient>
</defs>
</svg>
