<svg width="16" height="16" viewBox="0 0 16 16" fill="none" xmlns="http://www.w3.org/2000/svg">
<g clip-path="url(#clip0_67_1283)">
<path fill-rule="evenodd" clip-rule="evenodd" d="M1 13C0.448 13 0 12.552 0 12V3.992C0 1.787 1.787 0 3.992 0C6.357 0 9.643 0 12.008 0C13.067 0 14.082 0.421001 14.831 1.169C15.579 1.918 16 2.933 16 3.992C16 6.357 16 9.643 16 12.008C16 14.213 14.213 16 12.008 16C8.751 16 4 16 4 16C3.448 16 3 15.552 3 15C3 13.896 2.104 13 1 13ZM1 14C1.552 14 2 14.448 2 15C2 15.552 1.552 16 1 16C0.448 16 0 15.552 0 15C0 14.448 0.448 14 1 14Z" fill="url(#paint0_linear_67_1283)"/>
<path fill-rule="evenodd" clip-rule="evenodd" d="M9.54393 5.70329C9.54393 5.01142 10.1048 4.45055 10.7967 4.45055C11.4885 4.45055 12.0495 5.01142 12.0495 5.70329C12.0495 6.39517 11.4885 6.95604 10.7967 6.95604C10.1048 6.95604 9.54393 6.39517 9.54393 5.70329ZM10.7967 3C9.30373 3 8.0934 4.21031 8.0934 5.70329C8.0934 7.19628 9.30373 8.4066 10.7967 8.4066C12.2897 8.4066 13.5 7.19628 13.5 5.70329C13.5 4.21031 12.2897 3 10.7967 3ZM7.17033 8.93407C6.76973 8.93407 6.44506 9.25873 6.44506 9.65933C6.44506 10.0273 6.719 10.3312 7.074 10.3783L6.18133 11.271L5.18228 10.2719C4.92263 10.0124 4.57044 9.86653 4.20328 9.86653C3.83614 9.86653 3.48402 10.0123 3.22437 10.2719L1.71242 11.7839C1.42919 12.0671 1.42919 12.5263 1.71242 12.8095C1.99567 13.0927 2.45488 13.0927 2.73812 12.8095L4.20328 11.3443L5.20229 12.3434C5.46194 12.603 5.81413 12.7488 6.18133 12.7488C6.54847 12.7488 6.9006 12.6031 7.16027 12.3435L8.09973 11.4039C8.1468 11.759 8.45073 12.0329 8.81866 12.0329C9.2192 12.0329 9.54393 11.7082 9.54393 11.3077V9.65933C9.54393 9.25873 9.2192 8.93407 8.81866 8.93407H7.17033Z" fill="#8C4FD9"/>
<path fill-rule="evenodd" clip-rule="evenodd" d="M10.5439 4.70329C10.5439 4.01142 11.1048 3.45055 11.7967 3.45055C12.4885 3.45055 13.0495 4.01142 13.0495 4.70329C13.0495 5.39517 12.4885 5.95604 11.7967 5.95604C11.1048 5.95604 10.5439 5.39517 10.5439 4.70329ZM11.7967 2C10.3037 2 9.0934 3.21031 9.0934 4.70329C9.0934 6.19628 10.3037 7.4066 11.7967 7.4066C13.2897 7.4066 14.5 6.19628 14.5 4.70329C14.5 3.21031 13.2897 2 11.7967 2ZM8.17033 7.93407C7.76973 7.93407 7.44506 8.25873 7.44506 8.65933C7.44506 8.73923 7.45798 8.81612 7.48184 8.888C7.58626 9.2026 7.73554 9.71675 7.50116 9.95115L7.46418 9.98813C7.30797 10.1444 7.05469 10.1444 6.89848 9.98814L6.18228 9.27193C5.92263 9.0124 5.57044 8.86653 5.20328 8.86653C4.83614 8.86653 4.48402 9.01233 4.22437 9.27187L2.71242 10.7839C2.42919 11.0671 2.42919 11.5263 2.71242 11.8095C2.99567 12.0927 3.45488 12.0927 3.73812 11.8095L4.92043 10.6272C5.07665 10.471 5.32992 10.471 5.48613 10.6272L6.20229 11.3434C6.46194 11.603 6.81413 11.7488 7.18133 11.7488C7.54847 11.7488 7.9006 11.6031 8.16027 11.3435L8.52682 10.9769C8.76121 10.7425 9.27542 10.8918 9.59004 10.9962C9.66191 11.02 9.73878 11.0329 9.81866 11.0329C10.2192 11.0329 10.5439 10.7082 10.5439 10.3077V8.65933C10.5439 8.25873 10.2192 7.93407 9.81866 7.93407H8.17033Z" fill="url(#paint1_linear_67_1283)"/>
</g>
<defs>
<linearGradient id="paint0_linear_67_1283" x1="4" y1="14.8571" x2="14.5882" y2="2.5042" gradientUnits="userSpaceOnUse">
<stop stop-color="#A056FF"/>
<stop offset="1" stop-color="#C59AFD"/>
</linearGradient>
<linearGradient id="paint1_linear_67_1283" x1="5.5" y1="12.0219" x2="16.7137" y2="7.54629" gradientUnits="userSpaceOnUse">
<stop stop-color="#C59AFD"/>
<stop offset="1" stop-color="white"/>
</linearGradient>
<clipPath id="clip0_67_1283">
<rect width="16" height="16" fill="white"/>
</clipPath>
</defs>
</svg>
