<svg width="16" height="16" viewBox="0 0 16 16" fill="none" xmlns="http://www.w3.org/2000/svg">
<path fill-rule="evenodd" clip-rule="evenodd" d="M8.05094 0.500499C7.7386 0.492928 7.43021 0.571638 7.15955 0.72801L2.15118 3.62524C1.89239 3.77492 1.67749 3.99024 1.52808 4.24953C1.37868 4.50881 1.30003 4.80295 1.30005 5.10234V10.8972C1.30005 11.1966 1.3787 11.4906 1.52809 11.7499C1.67748 12.0092 1.89235 12.2244 2.15111 12.3741L7.15947 15.2715C7.41823 15.4212 7.71176 15.5 8.01055 15.5C8.30931 15.5 8.60284 15.4212 8.8616 15.2715L9.92138 14.6584C10.1322 14.5365 10.1807 14.2548 10.0951 14.0268C10.0336 13.8629 10 13.6854 10 13.5C10 12.6716 10.6716 12 11.5 12C11.9657 12 12.3819 12.2122 12.657 12.5453C12.812 12.7329 13.0804 12.8309 13.291 12.709L13.87 12.3741C14.1288 12.2244 14.3437 12.0091 14.4931 11.7498C14.6425 11.4906 14.7211 11.1964 14.7211 10.897V5.10221C14.7211 4.80279 14.6425 4.50866 14.4931 4.24937C14.3437 3.99008 14.1288 3.77476 13.87 3.62508L8.8616 0.72786C8.6146 0.585173 8.33597 0.507091 8.05094 0.500499Z" fill="url(#paint0_linear_243_274)"/>
<path fill-rule="evenodd" clip-rule="evenodd" d="M6.82163 3.78231C6.91883 3.72524 7.02854 3.69741 7.1392 3.70013H7.13978C7.24053 3.7025 7.33846 3.72996 7.42745 3.78216L7.42798 3.78231L7.42854 3.78245L10.658 5.68082C10.9639 5.86067 10.963 6.30337 10.6563 6.48195L7.35848 8.40246C7.21415 8.48653 7.03576 8.48653 6.89142 8.40248L3.59341 6.48209C3.28674 6.30353 3.28581 5.86081 3.59176 5.68096L6.82163 3.78231ZM2.6001 7.47542V11.2275C2.6001 11.4312 2.72763 11.6544 2.90057 11.7561L6.09693 13.6352C6.40631 13.8171 6.79622 13.594 6.79622 13.2352V9.37871C6.79622 9.21352 6.70843 9.06079 6.5657 8.97767L3.29776 7.07438C2.98835 6.8942 2.6001 7.11738 2.6001 7.47542ZM8.15298 13.6352L11.3493 11.7561C11.5223 11.6544 11.6498 11.4312 11.6498 11.2275V7.47523C11.6498 7.11719 11.2615 6.89401 10.9521 7.07422L7.6842 8.97767C7.54147 9.06079 7.45369 9.21352 7.45369 9.37869V13.2352C7.45369 13.594 7.84359 13.8171 8.15298 13.6352Z" fill="#8CC860"/>
<path fill-rule="evenodd" clip-rule="evenodd" d="M7.82163 2.78231C7.91883 2.72524 8.02854 2.69741 8.1392 2.70013C8.23995 2.7025 8.33846 2.72996 8.42745 2.78216L8.42854 2.78245L11.658 4.68082C11.9639 4.86067 11.963 5.30337 11.6563 5.48195L8.35848 7.40246C8.21415 7.48653 8.03576 7.48653 7.89142 7.40248L4.59341 5.48209C4.28674 5.30353 4.28581 4.86081 4.59176 4.68096L7.82163 2.78231ZM3.6001 6.47542V10.2275C3.6001 10.4312 3.72763 10.6544 3.90057 10.7561L7.09693 12.6352C7.40631 12.8171 7.79622 12.594 7.79622 12.2352V8.37871C7.79622 8.21352 7.70843 8.06079 7.5657 7.97767L4.29776 6.07438C3.98835 5.8942 3.6001 6.11738 3.6001 6.47542ZM9.15298 12.6352L12.3493 10.7561C12.5223 10.6544 12.6498 10.4312 12.6498 10.2275V6.47523C12.6498 6.11719 12.2615 5.89401 11.9521 6.07422L8.6842 7.97767C8.54147 8.06079 8.45369 8.21352 8.45369 8.37869V12.2352C8.45369 12.594 8.84359 12.8171 9.15298 12.6352Z" fill="url(#paint1_linear_243_274)"/>
<circle cx="11.7" cy="13.8" r="1" fill="url(#paint2_linear_243_274)"/>
<defs>
<linearGradient id="paint0_linear_243_274" x1="2.2587" y1="15.5" x2="12.5145" y2="2.15271" gradientUnits="userSpaceOnUse">
<stop stop-color="#9BE862"/>
<stop offset="1" stop-color="#C8FF9F"/>
</linearGradient>
<linearGradient id="paint1_linear_243_274" x1="4.73131" y1="12.7" x2="13.0745" y2="6.09341" gradientUnits="userSpaceOnUse">
<stop stop-color="#C8FF9F"/>
<stop offset="1" stop-color="white"/>
</linearGradient>
<linearGradient id="paint2_linear_243_274" x1="10.8428" y1="14.8" x2="12.1641" y2="12.8781" gradientUnits="userSpaceOnUse">
<stop stop-color="#9BE862"/>
<stop offset="1" stop-color="#C8FF9F"/>
</linearGradient>
</defs>
</svg>
