<svg width="16" height="16" viewBox="0 0 16 16" fill="none" xmlns="http://www.w3.org/2000/svg">
<g clip-path="url(#clip0_67_1389)">
<path fill-rule="evenodd" clip-rule="evenodd" d="M1 13C0.448 13 0 12.552 0 12V3.992C0 1.787 1.787 0 3.992 0C6.357 0 9.643 0 12.008 0C13.067 0 14.082 0.421001 14.831 1.169C15.579 1.918 16 2.933 16 3.992C16 6.357 16 9.643 16 12.008C16 14.213 14.213 16 12.008 16C8.751 16 4 16 4 16C3.448 16 3 15.552 3 15C3 13.896 2.104 13 1 13ZM1 14C1.552 14 2 14.448 2 15C2 15.552 1.552 16 1 16C0.448 16 0 15.552 0 15C0 14.448 0.448 14 1 14Z" fill="url(#paint0_linear_67_1389)"/>
<path opacity="0.4" d="M5.85201 3.04911C5.47236 2.88597 5.06321 2.80268 4.65 2.80441C2.96826 2.80441 1.59998 4.17269 1.59998 5.85443H2.53845C2.53845 6.4391 2.774 6.9834 3.21227 7.3982L4.11918 8.30601C4.14919 8.33605 4.18578 8.35868 4.22606 8.3721L5.06977 8.65334C5.20844 8.69957 5.17519 8.90445 5.02901 8.90445C4.91423 8.90445 4.85673 9.04322 4.93787 9.1244L6.46391 10.6512C6.49394 10.6813 6.53055 10.7039 6.57085 10.7174L7.41876 11.0002C7.55701 11.0464 7.52384 11.2506 7.3781 11.2506C7.26317 11.2506 7.20891 11.3871 7.29813 11.4596C7.87861 11.931 8.60652 12.1907 9.36064 12.189L11.6036 12.1446L11.9232 10.5651C11.9247 10.0103 11.8161 9.4607 11.6036 8.94819C11.3913 8.43567 11.0793 7.9704 10.6858 7.57933L6.85681 3.75273C6.57368 3.45177 6.23165 3.21225 5.85201 3.04911Z" fill="#D49F34"/>
<path d="M4.65001 2.80441C5.06322 2.80268 5.47237 2.88597 5.85202 3.04911C6.23166 3.21225 6.57369 3.45177 6.85682 3.75273L10.6858 7.57933C11.0793 7.9704 11.3913 8.43567 11.6036 8.94819C11.8161 9.4607 11.9247 10.0103 11.9232 10.5651C11.9232 10.8181 11.6173 10.9447 11.4384 10.7659L11.077 10.4045C11.0093 10.3367 10.9689 10.2468 10.9571 10.1516C10.8678 9.43022 10.5394 8.75773 10.0223 8.24283L6.18393 4.40637C5.98762 4.19624 5.75008 4.02886 5.48614 3.9147C5.22221 3.80053 4.93757 3.74204 4.65001 3.74288C3.48584 3.74288 2.53846 4.69026 2.53846 5.85443C2.53846 6.4391 2.77401 6.9834 3.21228 7.3982L4.11919 8.30601C4.1492 8.33605 4.18579 8.35868 4.22607 8.3721L5.06978 8.65334C5.20845 8.69957 5.1752 8.90445 5.02902 8.90445C4.91424 8.90445 4.85674 9.04322 4.93788 9.1244L6.46392 10.6512C6.49395 10.6813 6.53056 10.7039 6.57086 10.7174L7.41877 11.0002C7.55702 11.0464 7.52385 11.2506 7.37811 11.2506C7.26318 11.2506 7.20892 11.3871 7.29814 11.4596C7.87862 11.931 8.60653 12.1907 9.36065 12.189C9.7151 12.189 9.89261 11.7605 9.64198 11.5099L6.24498 8.1129C6.08791 7.95583 6.08791 7.70116 6.24498 7.54409L6.33968 7.44939C6.49675 7.29233 6.75141 7.29233 6.90848 7.44939L12.5772 13.1181C12.7343 13.2752 12.7343 13.5299 12.5772 13.6869L12.4825 13.7817C12.3255 13.9387 12.0708 13.9387 11.9137 13.7817L11.3774 13.2453C11.302 13.1699 11.1997 13.1276 11.093 13.1276H9.36065C8.80585 13.1291 8.25627 13.0206 7.74374 12.8081C7.23122 12.5958 6.76595 12.2838 6.37491 11.8902L2.55863 8.07061C2.25497 7.78704 2.0131 7.44385 1.84814 7.06252C1.68319 6.68118 1.59871 6.26991 1.59999 5.85443C1.59999 4.17269 2.96827 2.80441 4.65001 2.80441Z" fill="#D49F34"/>
<path d="M5.55492 2.00003C5.96813 1.99829 6.37728 2.08159 6.75692 2.24473C7.13657 2.40787 7.47859 2.64738 7.76172 2.94835L11.5907 6.77494C11.9842 7.16601 12.2962 7.63129 12.5085 8.14381C12.721 8.65632 12.8296 9.2059 12.8281 9.76068C12.8281 10.0137 12.5222 10.1404 12.3433 9.96147L11.9819 9.60017C11.9142 9.53235 11.8738 9.44243 11.862 9.34726C11.7727 8.62583 11.4443 7.95334 10.9272 7.43844L7.08884 3.60199C6.89253 3.39186 6.65499 3.22448 6.39105 3.11032C6.12712 2.99615 5.84248 2.93766 5.55492 2.9385C4.39074 2.9385 3.44337 3.88588 3.44337 5.05004C3.44337 5.63471 3.67892 6.17902 4.11719 6.59382L5.0241 7.50163C5.0541 7.53166 5.09069 7.5543 5.13098 7.56772L5.97468 7.84896C6.11336 7.89518 6.08011 8.10007 5.93393 8.10007C5.81915 8.10007 5.76165 8.23884 5.84279 8.32002L7.36882 9.84685C7.39886 9.87689 7.43547 9.89953 7.47577 9.91298L8.32368 10.1959C8.46193 10.242 8.42875 10.4462 8.28302 10.4462C8.16809 10.4462 8.11383 10.5828 8.20305 10.6552C8.78353 11.1266 9.51144 11.3863 10.2656 11.3847C10.62 11.3847 10.7975 10.9561 10.5469 10.7055L7.14988 7.30851C6.99282 7.15144 6.99282 6.89678 7.14988 6.73971L7.24458 6.64501C7.40165 6.48794 7.65632 6.48794 7.81339 6.64501L13.4821 12.3137C13.6392 12.4708 13.6392 12.7255 13.4821 12.8826L13.3874 12.9773C13.2304 13.1343 12.9757 13.1343 12.8186 12.9773L12.2823 12.4409C12.2069 12.3655 12.1046 12.3232 11.9979 12.3232H10.2656C9.71076 12.3247 9.16117 12.2162 8.64865 12.0038C8.13612 11.7914 7.67086 11.4794 7.27982 11.0858L3.46354 7.26623C3.15988 6.98266 2.918 6.63947 2.75305 6.25814C2.5881 5.8768 2.50362 5.46553 2.5049 5.05004C2.5049 3.36831 3.87318 2.00003 5.55492 2.00003Z" fill="url(#paint1_linear_67_1389)"/>
</g>
<defs>
<linearGradient id="paint0_linear_67_1389" x1="3" y1="14.9988" x2="12.9991" y2="2.999" gradientUnits="userSpaceOnUse">
<stop stop-color="#FF8860"/>
<stop offset="1" stop-color="#FBD92C"/>
</linearGradient>
<linearGradient id="paint1_linear_67_1389" x1="5.27864" y1="10.3213" x2="10.8262" y2="4.77378" gradientUnits="userSpaceOnUse">
<stop stop-color="#FBD92C"/>
<stop offset="1" stop-color="white"/>
</linearGradient>
<clipPath id="clip0_67_1389">
<rect width="16" height="16" fill="white"/>
</clipPath>
</defs>
</svg>
