<svg width="16" height="16" viewBox="0 0 16 16" fill="none" xmlns="http://www.w3.org/2000/svg">
<g clip-path="url(#clip0_41_1511)">
<path fill-rule="evenodd" clip-rule="evenodd" d="M16 15C16 14.448 15.552 14 15 14C14.448 14 14 14.448 14 15C14 15.552 14.448 16 15 16C15.552 16 16 15.552 16 15ZM13 15C13 13.896 13.896 13 15 13C15.552 13 16 12.552 16 12C16 12 16 7.216 16 3.958C16 1.772 14.228 0 12.042 0H3.958C1.772 0 0 1.772 0 3.958V12.042C0 14.228 1.772 16 3.958 16C7.216 16 12 16 12 16C12.552 16 13 15.552 13 15Z" fill="url(#paint0_linear_41_1511)"/>
<path d="M8.66703 7.93364H9.67431C9.93254 7.93364 10.1419 8.14296 10.1419 8.40118V9.34418C10.1419 9.6024 9.93254 9.81172 9.67431 9.81172H7.78922C7.73736 9.81172 7.69145 9.84515 7.67546 9.89443C6.9416 12.1583 5.73659 13.1757 4.72782 13.6322C4.22131 13.8615 3.76033 13.951 3.42672 13.9834C3.25997 13.9996 3.12532 14.0014 3.03308 13.9993C3.01462 13.9989 3 13.9837 3 13.9652V12.3741C3 12.2366 3.11405 12.1272 3.25062 12.1115C3.48619 12.0844 3.80874 12.0038 4.16553 11.7918C4.88108 11.3667 5.71513 10.4258 6.27418 8.3843C6.95801 5.8862 8.22216 4.72599 9.30224 4.18559C9.84441 3.91433 10.3441 3.7973 10.7076 3.74808C10.8893 3.72346 11.0367 3.71583 11.1379 3.7143C11.1617 3.71393 11.1809 3.73323 11.1809 3.75697V5.15643C11.1809 5.40503 10.9848 5.60568 10.7412 5.65484C9.95624 5.81319 9.43217 6.26239 9.09573 6.70637C8.89122 6.97624 8.75559 7.24433 8.67105 7.44486C8.62869 7.54525 8.599 7.62917 8.57974 7.68841C8.57011 7.71805 8.5631 7.74157 8.55842 7.75798C8.55608 7.76616 8.55431 7.77257 8.55309 7.7771L8.55169 7.78243L8.55127 7.78397L8.55164 7.78463C8.55417 7.78538 8.56992 7.78954 8.66703 7.81399L8.61626 7.80123C8.58026 7.79216 8.54374 7.81399 8.53467 7.84999C8.52396 7.89245 8.55604 7.93364 8.59985 7.93364H8.66703Z" fill="#D84F4F"/>
<path d="M9.52421 6.21934H10.5315C10.7897 6.21934 10.999 6.42866 10.999 6.68689V7.62988C10.999 7.88811 10.7897 8.09743 10.5315 8.09743H8.64639C8.59454 8.09743 8.54863 8.13086 8.53264 8.18014C7.79878 10.444 6.59377 11.4614 5.58499 11.9179C5.07849 12.1472 4.61751 12.2368 4.2839 12.2691C4.11715 12.2853 3.9825 12.2871 3.89026 12.285C3.87179 12.2846 3.85718 12.2694 3.85718 12.2509V10.6598C3.85718 10.5224 3.97123 10.4129 4.1078 10.3972C4.34337 10.3701 4.66592 10.2895 5.0227 10.0775C5.73826 9.65239 6.57231 8.71146 7.13136 6.67001C7.81519 4.17191 9.07934 3.01169 10.1594 2.47129C10.7016 2.20003 11.2013 2.08301 11.5648 2.03378C11.7465 2.00916 11.8939 2.00153 11.9951 2.00001C12.0188 1.99964 12.0381 2.01894 12.0381 2.04268V3.44214C12.0381 3.69074 11.842 3.89138 11.5983 3.94055C10.8134 4.09889 10.2894 4.5481 9.9529 4.99208C9.7484 5.26195 9.61276 5.53004 9.52823 5.73057C9.48587 5.83095 9.45618 5.91488 9.43692 5.97411C9.42729 6.00376 9.42028 6.02727 9.4156 6.04368C9.41326 6.05187 9.41149 6.05827 9.41027 6.06281L9.40887 6.06814L9.40845 6.06968L9.40882 6.07034C9.41135 6.07108 9.4271 6.07524 9.52421 6.0997L9.47344 6.08693C9.43743 6.07786 9.40092 6.0997 9.39185 6.1357C9.38114 6.17815 9.41322 6.21934 9.45702 6.21934H9.52421Z" fill="url(#paint1_linear_41_1511)"/>
</g>
<defs>
<linearGradient id="paint0_linear_41_1511" x1="3" y1="14" x2="13" y2="2" gradientUnits="userSpaceOnUse">
<stop stop-color="#FF405B"/>
<stop offset="1" stop-color="#FF8860"/>
</linearGradient>
<linearGradient id="paint1_linear_41_1511" x1="6.19366" y1="12.2855" x2="10.0764" y2="4.9328" gradientUnits="userSpaceOnUse">
<stop stop-color="#FF8860"/>
<stop offset="1" stop-color="white"/>
</linearGradient>
<clipPath id="clip0_41_1511">
<rect width="16" height="16" fill="white"/>
</clipPath>
</defs>
</svg>
