<svg width="16" height="16" viewBox="0 0 16 16" fill="none" xmlns="http://www.w3.org/2000/svg">
<path d="M7.94698 1.09346L7.93814 1.09613L7.92966 1.09982C6.76271 1.60976 5.61974 2.18723 4.4819 2.7621C3.9258 3.04307 3.37089 3.32342 2.81505 3.59497C2.59213 3.67489 2.40807 3.87385 2.34085 4.08961C2.30586 4.20192 2.2997 4.32839 2.34736 4.44841C2.39536 4.56927 2.49112 4.66625 2.62759 4.73041C3.55684 5.23696 4.51101 5.7093 5.46184 6.17999C6.06418 6.47816 6.66516 6.77566 7.25759 7.08077C8.01798 7.52915 9.01849 7.5772 9.80533 7.14911C10.6027 6.74719 11.3996 6.34777 12.1969 5.94816C12.9152 5.58811 13.634 5.22789 14.3536 4.86556L14.3554 4.86464L14.3573 4.86365C14.3678 4.8579 14.3791 4.85189 14.3912 4.84562C14.4794 4.7987 14.5958 4.73704 14.6896 4.65652C14.8015 4.56074 14.9008 4.4227 14.8963 4.22868C14.8926 4.00758 14.7748 3.8546 14.6419 3.74733C14.5387 3.66414 14.4123 3.59788 14.3112 3.54474C14.2884 3.53276 14.2668 3.52144 14.2469 3.51075L14.2444 3.50937L14.2418 3.50808C13.7389 3.25973 13.2361 3.01035 12.7331 2.76091C11.7269 2.26189 10.7203 1.76258 9.71103 1.27073C9.17389 0.999651 8.5343 0.916268 7.94698 1.09346Z" fill="url(#paint0_linear_236_2)"/>
<path d="M8.73022 14.356L8.73028 14.3578L8.73035 14.3595C8.74168 14.6173 8.88588 14.8404 9.08497 14.9648C9.28493 15.09 9.54721 15.1189 9.78699 14.9784C11.1677 14.322 12.5325 13.6353 13.896 12.9492C14.2024 12.795 14.5088 12.6408 14.8152 12.4871C15.4235 12.2201 15.8452 11.6 15.8501 10.9273C15.9264 9.28703 15.8958 7.64276 15.8634 6.00908C15.9122 5.42071 15.2696 4.98632 14.7466 5.32083C13.3907 5.96771 12.0464 6.64004 10.7041 7.31139C10.3856 7.47073 10.067 7.63 9.74861 7.78888C9.05066 8.11918 8.69551 8.88997 8.71717 9.61461C8.71646 9.95972 8.71505 10.3049 8.71364 10.6507C8.70857 11.8843 8.70351 13.121 8.73022 14.356Z" fill="url(#paint1_linear_236_2)"/>
<path fill-rule="evenodd" clip-rule="evenodd" d="M1.40461 5.2505C1.39653 5.25255 1.38861 5.25525 1.38096 5.25857C1.146 5.36055 1.02664 5.56124 0.966476 5.76287C0.907138 5.96169 0.899373 6.17966 0.898557 6.3496V6.35072C0.899979 6.96596 0.899219 7.58279 0.898458 8.20011V8.20011L0.898457 8.20065L0.898445 8.21128C0.897965 8.60789 0.897486 9.00475 0.897587 9.40152C0.897671 9.7323 1.17636 9.98894 1.48104 10.1177C2.01963 10.3453 2.39757 10.8785 2.39757 11.5C2.39757 11.6076 2.38624 11.7126 2.3647 11.8138C2.2825 12.1999 2.35882 12.6787 2.71178 12.8556C3.34424 13.1725 3.97966 13.4858 4.61456 13.799L4.66195 13.8224C5.34119 14.1572 6.01975 14.4918 6.6934 14.8299L6.69357 14.83C6.82268 14.8946 6.97795 14.9706 7.14163 15.0131C7.30786 15.056 7.49379 15.0673 7.68073 14.9913L7.68728 14.9887L7.69357 14.9854C7.8981 14.8799 7.99792 14.6981 8.04699 14.518C8.09498 14.342 8.09906 14.1508 8.10146 14.0031L8.10147 14.0019V14.0005C8.10093 13.5136 8.10129 13.0265 8.10165 12.5391C8.10238 11.5643 8.10311 10.5885 8.0966 9.61383C8.11822 8.88952 7.75593 8.13891 7.07943 7.7933L7.07925 7.79323C5.80059 7.14183 4.51257 6.50781 3.22521 5.87411L3.22032 5.8717L2.50743 5.52065L2.50261 5.51827L2.49764 5.51623C2.43611 5.49105 2.37419 5.46224 2.30772 5.43131L2.30704 5.431L2.26558 5.41171C2.18469 5.37425 2.09785 5.33502 2.0082 5.3026C1.8287 5.23774 1.6239 5.19489 1.40461 5.2505ZM1.09367 12.2449C1.57285 12.3619 1.97784 12.0687 1.99825 11.5901C2.01866 11.1115 1.64676 10.6287 1.16758 10.5117C0.688412 10.3948 0.283419 10.688 0.263009 11.1666C0.242598 11.6452 0.614499 12.128 1.09367 12.2449Z" fill="url(#paint2_linear_236_2)"/>
<path fill-rule="evenodd" clip-rule="evenodd" d="M7.99182 8.89368C7.58923 9.28407 7.38873 9.86047 7.40515 10.4103C7.40445 10.7544 7.40304 11.0987 7.40164 11.4435L7.40162 11.4464C7.39671 12.645 7.39179 13.8465 7.41601 15.0465C7.50268 15.0439 7.59159 15.0275 7.68074 14.9913L7.68729 14.9888L7.69358 14.9855C7.89811 14.8799 7.99793 14.6981 8.047 14.518C8.09499 14.342 8.09907 14.1509 8.10147 14.0032L8.10148 14.002V14.0005C8.10094 13.5137 8.10129 13.0265 8.10166 12.5391C8.10239 11.5643 8.10311 10.5886 8.09661 9.61388C8.10385 9.37136 8.06805 9.1259 7.99182 8.89368Z" fill="#D84F4F"/>
<path fill-rule="evenodd" clip-rule="evenodd" d="M10 10.4284V12.5713C10 12.9656 10.32 13.2856 10.7143 13.2856C11.1086 13.2856 11.4286 12.9656 11.4286 12.5713V10.4284C11.4286 10.0342 11.1086 9.71415 10.7143 9.71415C10.32 9.71415 10 10.0342 10 10.4284ZM13 9V11.1429C13 11.5372 13.32 11.8572 13.7143 11.8572C14.1086 11.8572 14.4286 11.5372 14.4286 11.1429V9C14.4286 8.60572 14.1086 8.28572 13.7143 8.28572C13.32 8.28572 13 8.60572 13 9Z" fill="#D84F4F"/>
<path fill-rule="evenodd" clip-rule="evenodd" d="M10.7142 9.71443V11.8573C10.7142 12.2515 11.0342 12.5717 11.4285 12.5717C11.8228 12.5717 12.1428 12.2515 12.1428 11.8573V9.71443C12.1428 9.32015 11.8228 9 11.4285 9C11.0342 9 10.7142 9.32015 10.7142 9.71443Z" fill="url(#paint3_linear_236_2)"/>
<path fill-rule="evenodd" clip-rule="evenodd" d="M13.5715 8.21443V10.3573C13.5715 10.7515 13.8915 11.0717 14.2858 11.0717C14.6801 11.0717 15.0001 10.7515 15.0001 10.3573V8.21443C15.0001 7.82015 14.6801 7.5 14.2858 7.5C13.8915 7.5 13.5715 7.82015 13.5715 8.21443Z" fill="url(#paint4_linear_236_2)"/>
<defs>
<linearGradient id="paint0_linear_236_2" x1="4.67249" y1="6.63943" x2="7.6297" y2="-0.288962" gradientUnits="userSpaceOnUse">
<stop stop-color="#FF405B"/>
<stop offset="1" stop-color="#FF8860"/>
</linearGradient>
<linearGradient id="paint1_linear_236_2" x1="10.0574" y1="13.8384" x2="16.2711" y2="8.40662" gradientUnits="userSpaceOnUse">
<stop stop-color="#FF405B"/>
<stop offset="1" stop-color="#FF8860"/>
</linearGradient>
<linearGradient id="paint2_linear_236_2" x1="1.73219" y1="13.8191" x2="7.96747" y2="7.84672" gradientUnits="userSpaceOnUse">
<stop stop-color="#FF405B"/>
<stop offset="1" stop-color="#FF8860"/>
</linearGradient>
<linearGradient id="paint3_linear_236_2" x1="11.1222" y1="12.5717" x2="12.7529" y2="11.0188" gradientUnits="userSpaceOnUse">
<stop stop-color="#FF8860"/>
<stop offset="1" stop-color="white"/>
</linearGradient>
<linearGradient id="paint4_linear_236_2" x1="13.9795" y1="11.0717" x2="15.6102" y2="9.5188" gradientUnits="userSpaceOnUse">
<stop stop-color="#FF8860"/>
<stop offset="1" stop-color="white"/>
</linearGradient>
</defs>
</svg>
