<svg width="17" height="16" viewBox="0 0 17 16" fill="none" xmlns="http://www.w3.org/2000/svg">
<path fill-rule="evenodd" clip-rule="evenodd" d="M13 8C13 10 14.664 10.163 14.724 10.193C15.219 10.437 15.423 11.037 15.179 11.532C13.8741 14.1779 11.148 16 8 16C3.58501 16 0 12.415 0 8C0 3.58501 3.58501 0 8 0C11.148 0 13.8741 1.822 15.179 4.468C15.423 4.96299 15.219 5.56301 14.724 5.80701C14.664 5.83701 13 6 13 8ZM15 7C15.552 7 16 7.448 16 8C16 8.552 15.552 9 15 9C14.448 9 14 8.552 14 8C14 7.448 14.448 7 15 7Z" fill="url(#paint0_linear_44_161)"/>
<path d="M6.30794 4.73782C6.48413 4.28658 7.20848 4.28759 7.38258 4.73989C8.30585 7.0219 9.20533 9.31418 10.1183 11.5993C10.277 11.895 10.1709 12.3029 9.85655 12.4432C9.56609 12.5843 9.17032 12.4545 9.0519 12.1454C8.79324 11.5231 8.55213 10.8936 8.30074 10.2673C7.33011 10.2621 6.35944 10.2642 5.38881 10.2661C5.13636 10.8947 4.89422 11.5293 4.6325 12.1537C4.49237 12.5132 3.9782 12.609 3.70001 12.3546C3.4764 12.1701 3.44857 11.8384 3.57531 11.59C4.48926 9.307 5.38573 7.01675 6.30794 4.73782ZM5.86691 9.06495C6.51813 9.06796 7.17036 9.06796 7.82156 9.06495C7.496 8.24586 7.16624 7.42886 6.84476 6.60979C6.52225 7.42886 6.19355 8.24687 5.86691 9.06495Z" fill="#45C5C2" stroke="#45C5C2" stroke-width="0.4"/>
<path d="M7.20796 3.83779C7.38416 3.38655 8.1085 3.38757 8.28261 3.83986C9.20587 6.12188 10.1054 8.41416 11.0183 10.6993C11.177 10.995 11.0709 11.4029 10.7566 11.5431C10.4661 11.6842 10.0703 11.5545 9.95193 11.2453C9.69327 10.6231 9.45216 9.99357 9.20076 9.36723C8.23014 9.36206 7.25946 9.36413 6.28884 9.36611C6.03639 9.99469 5.79424 10.6293 5.53252 11.2536C5.39239 11.6132 4.87822 11.709 4.60003 11.4545C4.37643 11.2701 4.34859 10.9384 4.47534 10.69C5.38929 8.40698 6.28575 6.11673 7.20796 3.83779ZM6.76694 8.16492C7.41816 8.16794 8.07039 8.16794 8.72158 8.16492C8.39603 7.34583 8.06627 6.52884 7.74479 5.70977C7.42227 6.52884 7.09357 7.34685 6.76694 8.16492Z" fill="url(#paint1_linear_44_161)" stroke="url(#paint2_linear_44_161)" stroke-width="0.4"/>
<defs>
<linearGradient id="paint0_linear_44_161" x1="3" y1="14" x2="14" y2="2" gradientUnits="userSpaceOnUse">
<stop stop-color="#00DAD4"/>
<stop offset="1" stop-color="#C4FFFD"/>
</linearGradient>
<linearGradient id="paint1_linear_44_161" x1="5.7383" y1="10.443" x2="9.03993" y2="5.35181" gradientUnits="userSpaceOnUse">
<stop stop-color="#7EEFEC"/>
<stop offset="1" stop-color="white"/>
</linearGradient>
<linearGradient id="paint2_linear_44_161" x1="5.7383" y1="10.443" x2="9.03993" y2="5.35181" gradientUnits="userSpaceOnUse">
<stop stop-color="#7EEFEC"/>
<stop offset="1" stop-color="white"/>
</linearGradient>
</defs>
</svg>
