<svg width="16" height="16" viewBox="0 0 16 16" fill="none" xmlns="http://www.w3.org/2000/svg">
<g clip-path="url(#clip0_8_707)">
<path fill-rule="evenodd" clip-rule="evenodd" d="M13 8C13 10 14.664 10.163 14.724 10.193C15.219 10.437 15.423 11.037 15.179 11.532C13.874 14.178 11.148 16 8 16C3.585 16 0 12.415 0 8C0 3.585 3.585 0 8 0C11.148 0 13.874 1.822 15.179 4.468C15.423 4.963 15.219 5.563 14.724 5.807C14.664 5.837 13 6 13 8ZM15 7C15.552 7 16 7.448 16 8C16 8.552 15.552 9 15 9C14.448 9 14 8.552 14 8C14 7.448 14.448 7 15 7Z" fill="url(#paint0_linear_8_707)"/>
<path fill-rule="evenodd" clip-rule="evenodd" d="M5.22953 12.2726C5.22953 12.4123 5.17098 12.5468 5.06781 12.6444C4.96186 12.7446 4.81967 12.8 4.67189 12.8C4.52412 12.8 4.38192 12.7446 4.27876 12.6444C4.1756 12.5468 4.11426 12.4123 4.11426 12.2726V8.84398H8.57253C8.63108 8.84135 8.69242 8.83605 8.75097 8.8255C8.90156 8.80707 9.04931 8.7648 9.18592 8.70678C9.32536 8.64876 9.44804 8.55914 9.54003 8.44573C9.58465 8.38509 9.62092 8.31651 9.6432 8.24526C9.67669 8.13978 9.6934 8.029 9.69061 7.92089C9.6934 7.8101 9.67669 7.69937 9.6432 7.59384C9.62092 7.52264 9.58465 7.45407 9.54003 7.39342C9.44804 7.28001 9.32536 7.19034 9.18592 7.13232C9.04931 7.07429 8.90156 7.0321 8.75097 7.01364C8.69242 7.00309 8.63108 6.99781 8.57253 6.99781H4.67189C4.52412 6.99781 4.38192 6.94243 4.27876 6.84221C4.1756 6.74463 4.11426 6.61012 4.11426 6.47035C4.11426 6.33056 4.1756 6.19606 4.27876 6.09584C4.38192 5.99825 4.52412 5.94287 4.67189 5.94287H8.57531C8.5781 5.94287 8.58372 5.94287 8.58651 5.94287C8.69799 5.94287 8.81231 5.95342 8.92385 5.97188C9.17199 6.00617 9.41178 6.0721 9.64042 6.16968C9.95547 6.29892 10.2287 6.50727 10.4378 6.76836C10.5577 6.92661 10.6498 7.10067 10.7111 7.28793C10.7752 7.49364 10.8087 7.70462 10.8059 7.92089C10.8087 8.13453 10.7752 8.34812 10.7111 8.55121C10.6498 8.7385 10.5577 8.91517 10.4378 9.0708C10.2287 9.33185 9.95547 9.54019 9.64042 9.67209C9.41178 9.76707 9.17199 9.83296 8.92385 9.86987C8.81231 9.88573 8.69799 9.89628 8.58651 9.89891C8.58372 9.89891 8.5781 9.89891 8.57531 9.89891H5.22953V12.2726Z" fill="#7FD1AE" stroke="#7FD1AE" stroke-width="0.6"/>
<path fill-rule="evenodd" clip-rule="evenodd" d="M6.37235 11.1297C6.37235 11.2694 6.3138 11.404 6.21064 11.5015C6.10468 11.6017 5.96249 11.6571 5.81472 11.6571C5.66694 11.6571 5.52474 11.6017 5.42158 11.5015C5.31842 11.404 5.25708 11.2694 5.25708 11.1297V7.70109H9.71535C9.7739 7.69847 9.83524 7.69317 9.89379 7.68261C10.0444 7.66418 10.1921 7.62192 10.3287 7.5639C10.4682 7.50588 10.5909 7.41626 10.6828 7.30285C10.7275 7.2422 10.7637 7.17363 10.786 7.10238C10.8195 6.9969 10.8362 6.88611 10.8334 6.77801C10.8362 6.66722 10.8195 6.55649 10.786 6.45095C10.7637 6.37976 10.7275 6.31119 10.6828 6.25054C10.5909 6.13713 10.4682 6.04746 10.3287 5.98943C10.1921 5.93141 10.0444 5.88922 9.89379 5.87076C9.83524 5.86021 9.7739 5.85493 9.71535 5.85493H5.81472C5.66694 5.85493 5.52474 5.79954 5.42158 5.69933C5.31842 5.60174 5.25708 5.46724 5.25708 5.32746C5.25708 5.18768 5.31842 5.05317 5.42158 4.95296C5.52474 4.85537 5.66694 4.79999 5.81472 4.79999H9.71813C9.72092 4.79999 9.72654 4.79999 9.72933 4.79999C9.84081 4.79999 9.95513 4.81054 10.0667 4.829C10.3148 4.86328 10.5546 4.92922 10.7832 5.0268C11.0983 5.15603 11.3716 5.36438 11.5807 5.62548C11.7005 5.78373 11.7926 5.95778 11.8539 6.14504C11.918 6.35075 11.9515 6.56174 11.9487 6.77801C11.9515 6.99165 11.918 7.20524 11.8539 7.40833C11.7926 7.59561 11.7005 7.77229 11.5807 7.92792C11.3716 8.18897 11.0983 8.39731 10.7832 8.5292C10.5546 8.62418 10.3148 8.69008 10.0667 8.72699C9.95513 8.74285 9.84081 8.7534 9.72933 8.75602C9.72654 8.75602 9.72092 8.75602 9.71813 8.75602H6.37235V11.1297Z" fill="url(#paint1_linear_8_707)" stroke="url(#paint2_linear_8_707)" stroke-width="0.6"/>
</g>
<defs>
<linearGradient id="paint0_linear_8_707" x1="2" y1="14.0004" x2="16.972" y2="10.5455" gradientUnits="userSpaceOnUse">
<stop stop-color="#62E8AF"/>
<stop offset="1" stop-color="#B3FBDC"/>
</linearGradient>
<linearGradient id="paint1_linear_8_707" x1="5.25708" y1="11.6571" x2="7.31766" y2="3.61358" gradientUnits="userSpaceOnUse">
<stop stop-color="#B3FBDC"/>
<stop offset="1" stop-color="white"/>
</linearGradient>
<linearGradient id="paint2_linear_8_707" x1="5.25708" y1="11.6571" x2="7.31766" y2="3.61358" gradientUnits="userSpaceOnUse">
<stop stop-color="#B3FBDC"/>
<stop offset="1" stop-color="white"/>
</linearGradient>
<clipPath id="clip0_8_707">
<rect width="16" height="16" fill="white"/>
</clipPath>
</defs>
</svg>
