<svg width="16" height="16" viewBox="0 0 16 16" fill="none" xmlns="http://www.w3.org/2000/svg">
<g clip-path="url(#clip0_8_695)">
<path fill-rule="evenodd" clip-rule="evenodd" d="M13 8C13 10 14.664 10.163 14.724 10.193C15.219 10.437 15.423 11.037 15.179 11.532C13.874 14.178 11.148 16 8 16C3.585 16 0 12.415 0 8C0 3.585 3.585 0 8 0C11.148 0 13.874 1.822 15.179 4.468C15.423 4.963 15.219 5.563 14.724 5.807C14.664 5.837 13 6 13 8ZM15 7C15.552 7 16 7.448 16 8C16 8.552 15.552 9 15 9C14.448 9 14 8.552 14 8C14 7.448 14.448 7 15 7Z" fill="url(#paint0_linear_8_695)"/>
<path d="M8.00137 6.96678C7.89723 6.96678 7.8128 7.0512 7.8128 7.15534V12.6516C7.8128 12.8598 7.64395 13.0286 7.43566 13.0286H6.03066C5.82237 13.0286 5.65355 12.8598 5.65355 12.6516V7.15534C5.65355 7.0512 5.56914 6.96678 5.465 6.96678H3.8057C3.59742 6.96678 3.42859 6.79795 3.42859 6.58968V5.40573C3.42859 5.19748 3.59742 5.02863 3.8057 5.02863H9.65087C9.85916 5.02863 10.0279 5.19748 10.0279 5.40573V6.58968C10.0279 6.79795 9.85916 6.96678 9.65087 6.96678H8.00137Z" fill="#D84F4F"/>
<path d="M9.1442 5.8239C9.04005 5.8239 8.95563 5.90831 8.95563 6.01246V11.5087C8.95563 11.717 8.78677 11.8857 8.57848 11.8857H7.17348C6.9652 11.8857 6.79638 11.717 6.79638 11.5087V6.01246C6.79638 5.90831 6.71196 5.8239 6.60783 5.8239H4.94852C4.74024 5.8239 4.57141 5.65507 4.57141 5.44679V4.26285C4.57141 4.05459 4.74024 3.88574 4.94852 3.88574H10.7937C11.002 3.88574 11.1708 4.05459 11.1708 4.26285V5.44679C11.1708 5.65507 11.002 5.8239 10.7937 5.8239H9.1442Z" fill="url(#paint1_linear_8_695)"/>
</g>
<defs>
<linearGradient id="paint0_linear_8_695" x1="3" y1="14" x2="13" y2="2" gradientUnits="userSpaceOnUse">
<stop stop-color="#FF405B"/>
<stop offset="1" stop-color="#FF8860"/>
</linearGradient>
<linearGradient id="paint1_linear_8_695" x1="6.4562" y1="11.8856" x2="9.41332" y2="6.07769" gradientUnits="userSpaceOnUse">
<stop stop-color="#FF8860"/>
<stop offset="1" stop-color="white"/>
</linearGradient>
<clipPath id="clip0_8_695">
<rect width="16" height="16" fill="white"/>
</clipPath>
</defs>
</svg>
