<svg width="16" height="16" viewBox="0 0 16 16" fill="none" xmlns="http://www.w3.org/2000/svg">
<g clip-path="url(#clip0_15_1636)">
<path fill-rule="evenodd" clip-rule="evenodd" d="M0 8C0 12.1064 3.0936 15.4896 7.0776 15.9472C7.6656 16.0152 8.2352 15.7648 8.6536 15.3464C8.77789 15.2221 8.87644 15.0745 8.94371 14.9122C9.01098 14.7498 9.0456 14.5758 9.0456 14.4C9.0456 14.2242 9.01098 14.0502 8.94371 13.8878C8.87644 13.7255 8.77789 13.5779 8.6536 13.4536C8.2352 13.0352 7.8936 12.4112 8.2096 11.9104C8.6712 11.1784 9.8368 11.3288 11.1312 11.496C13.3736 11.7864 16 12.1256 16 8C16 3.5816 12.4184 0 8 0C3.5816 0 0 3.5816 0 8ZM10.1819 13.6103C10.1819 12.9218 10.7401 12.3636 11.4286 12.3636C12.1172 12.3636 12.6754 12.9218 12.6754 13.6103C12.6754 14.2989 12.1172 14.8571 11.4286 14.8571C10.7401 14.8571 10.1819 14.2989 10.1819 13.6103Z" fill="url(#paint0_linear_15_1636)"/>
<path d="M5.24007 13.0738C4.82005 13.0738 4.40471 12.9711 3.99403 12.7658C3.58335 12.5604 3.25201 12.2898 3 11.9538C3.24267 11.9538 3.49002 11.8582 3.74202 11.667C3.99403 11.4755 4.12003 11.1977 4.12003 10.8337C4.12003 10.3671 4.28337 9.97038 4.61005 9.64367C4.93672 9.31702 5.3334 9.15369 5.80008 9.15369C6.26676 9.15369 6.66344 9.31702 6.99012 9.64367C7.31679 9.97038 7.48015 10.3671 7.48015 10.8337C7.48015 11.4498 7.26079 11.9771 6.82211 12.4158C6.38343 12.8544 5.85608 13.0738 5.24007 13.0738Z" fill="#D84F4F"/>
<path d="M7.62189 8.5157L8.47795 9.37176C8.66681 9.56062 8.97306 9.56062 9.16193 9.37176L13.8321 4.70159C13.9441 4.58959 14.0001 4.45891 14.0001 4.30958C14.0001 4.16024 13.9441 4.02957 13.8321 3.91757L13.0761 3.16155C12.964 3.04954 12.8311 2.99578 12.6773 3.00026C12.5231 3.00511 12.3947 3.05888 12.292 3.16155L7.62188 7.83172C7.43301 8.02058 7.43301 8.32683 7.62189 8.5157Z" fill="#D84F4F"/>
<path d="M5.24007 11.0738C4.82005 11.0738 4.40471 10.9711 3.99403 10.7658C3.58335 10.5604 3.25201 10.2898 3 9.95378C3.24267 9.95378 3.49002 9.85816 3.74202 9.66702C3.99403 9.4755 4.12003 9.19774 4.12003 8.83374C4.12003 8.36707 4.28337 7.97038 4.61005 7.64367C4.93672 7.31702 5.3334 7.15369 5.80008 7.15369C6.26676 7.15369 6.66344 7.31702 6.99012 7.64367C7.31679 7.97038 7.48015 8.36707 7.48015 8.83374C7.48015 9.44977 7.26079 9.97709 6.82211 10.4158C6.38343 10.8544 5.85608 11.0738 5.24007 11.0738Z" fill="url(#paint1_linear_15_1636)"/>
<path d="M7.62189 6.5157L8.47795 7.37176C8.66681 7.56062 8.97306 7.56062 9.16193 7.37176L13.8321 2.70159C13.9441 2.58959 14.0001 2.45891 14.0001 2.30958C14.0001 2.16024 13.9441 2.02957 13.8321 1.91757L13.0761 1.16155C12.964 1.04954 12.8311 0.99578 12.6773 1.00026C12.5231 1.00511 12.3947 1.05888 12.292 1.16155L7.62188 5.83172C7.43301 6.02058 7.43301 6.32683 7.62189 6.5157Z" fill="url(#paint2_linear_15_1636)"/>
</g>
<defs>
<linearGradient id="paint0_linear_15_1636" x1="3" y1="13.9635" x2="12.9692" y2="1.96919" gradientUnits="userSpaceOnUse">
<stop stop-color="#FF405B"/>
<stop offset="1" stop-color="#FF8860"/>
</linearGradient>
<linearGradient id="paint1_linear_15_1636" x1="4.27954" y1="11.0737" x2="5.43986" y2="7.91641" gradientUnits="userSpaceOnUse">
<stop stop-color="#FF8860"/>
<stop offset="1" stop-color="white"/>
</linearGradient>
<linearGradient id="paint2_linear_15_1636" x1="9.34231" y1="7.51327" x2="11.4668" y2="2.45019" gradientUnits="userSpaceOnUse">
<stop stop-color="#FF8860"/>
<stop offset="1" stop-color="white"/>
</linearGradient>
<clipPath id="clip0_15_1636">
<rect width="16" height="16" fill="white"/>
</clipPath>
</defs>
</svg>
