<svg width="16" height="16" viewBox="0 0 16 16" fill="none" xmlns="http://www.w3.org/2000/svg">
<g clip-path="url(#clip0_44_263)">
<path fill-rule="evenodd" clip-rule="evenodd" d="M16 15C16 14.448 15.552 14 15 14C14.448 14 14 14.448 14 15C14 15.552 14.448 16 15 16C15.552 16 16 15.552 16 15ZM13 15C13 13.896 13.896 13 15 13C15.552 13 16 12.552 16 12C16 12 16 7.216 16 3.958C16 1.772 14.228 0 12.042 0H3.958C1.772 0 0 1.772 0 3.958V12.042C0 14.228 1.772 16 3.958 16C7.216 16 12 16 12 16C12.552 16 13 15.552 13 15Z" fill="url(#paint0_linear_44_263)"/>
<path d="M5.80015 9.52545C5.65101 9.30225 5.57141 9.03985 5.57141 8.77145C5.57141 8.41151 5.71438 8.06631 5.9689 7.81179C6.22341 7.55728 6.56861 7.41431 6.92855 7.41431C7.19695 7.41431 7.45935 7.49391 7.68255 7.64305C7.90573 7.79214 8.0797 8.00414 8.18241 8.25208C8.28513 8.50005 8.31198 8.77296 8.25961 9.03622C8.20727 9.29945 8.07801 9.54131 7.88821 9.73111C7.69841 9.92091 7.45655 10.0502 7.19333 10.1025C6.93007 10.1549 6.65715 10.128 6.40918 10.0253C6.16124 9.92259 5.94924 9.74862 5.80015 9.52545Z" fill="#D84F4F" stroke="#D84F4F" stroke-width="0.6"/>
<path d="M1.72874 5.45404C1.5796 5.23084 1.5 4.96844 1.5 4.70004C1.5 4.3401 1.64297 3.9949 1.89749 3.74038C2.152 3.48587 2.4972 3.3429 2.85714 3.3429C3.12554 3.3429 3.38794 3.4225 3.61114 3.57164C3.83431 3.72072 4.00829 3.93272 4.111 4.18067C4.21371 4.42864 4.24057 4.70155 4.1882 4.96481C4.13586 5.22804 4.0066 5.4699 3.8168 5.6597C3.627 5.8495 3.38514 5.97875 3.12191 6.0311C2.85866 6.08347 2.58574 6.05661 2.33777 5.9539C2.08983 5.85118 1.87783 5.67721 1.72874 5.45404Z" fill="#D84F4F" stroke="#D84F4F" stroke-width="0.6"/>
<path d="M9.87156 5.45404C9.72242 5.23084 9.64282 4.96844 9.64282 4.70004C9.64282 4.3401 9.78579 3.9949 10.0403 3.74038C10.2948 3.48587 10.64 3.3429 11 3.3429C11.2684 3.3429 11.5308 3.4225 11.754 3.57164C11.9771 3.72072 12.1511 3.93272 12.2538 4.18067C12.3565 4.42864 12.3834 4.70155 12.331 4.96481C12.2787 5.22804 12.1494 5.4699 11.9596 5.6597C11.7698 5.8495 11.528 5.97875 11.2647 6.0311C11.0015 6.08347 10.7286 6.05661 10.4806 5.9539C10.2327 5.85118 10.0207 5.67721 9.87156 5.45404Z" fill="#D84F4F" stroke="#D84F4F" stroke-width="0.6"/>
<path d="M1.72874 13.5969C1.5796 13.3737 1.5 13.1113 1.5 12.8429C1.5 12.4829 1.64297 12.1377 1.89749 11.8832C2.152 11.6287 2.4972 11.4857 2.85714 11.4857C3.12554 11.4857 3.38794 11.5653 3.61114 11.7145C3.83431 11.8635 4.00829 12.0755 4.111 12.3235C4.21371 12.5715 4.24057 12.8444 4.1882 13.1076C4.13586 13.3709 4.0066 13.6127 3.8168 13.8025C3.627 13.9923 3.38514 14.1216 3.12191 14.1739C2.85866 14.2263 2.58574 14.1994 2.33777 14.0967C2.08983 13.994 1.87783 13.82 1.72874 13.5969Z" fill="#D84F4F" stroke="#D84F4F" stroke-width="0.6"/>
<path d="M9.87156 13.5969C9.72242 13.3737 9.64282 13.1113 9.64282 12.8429C9.64282 12.4829 9.78579 12.1377 10.0403 11.8832C10.2948 11.6287 10.64 11.4857 11 11.4857C11.2684 11.4857 11.5308 11.5653 11.754 11.7145C11.9771 11.8635 12.1511 12.0755 12.2538 12.3235C12.3565 12.5715 12.3834 12.8444 12.331 13.1076C12.2787 13.3709 12.1494 13.6127 11.9596 13.8025C11.7698 13.9923 11.528 14.1216 11.2647 14.1739C11.0015 14.2263 10.7286 14.1994 10.4806 14.0967C10.2327 13.994 10.0207 13.82 9.87156 13.5969Z" fill="#D84F4F" stroke="#D84F4F" stroke-width="0.6"/>
<path d="M6.94298 8.38257C6.79383 8.15937 6.71423 7.89697 6.71423 7.62857C6.71423 7.26862 6.8572 6.92342 7.11172 6.66891C7.36623 6.41439 7.71143 6.27142 8.07138 6.27142C8.33978 6.27142 8.60218 6.35102 8.82538 6.50017C9.04855 6.64925 9.22252 6.86125 9.32523 7.10919C9.42795 7.35717 9.4548 7.63008 9.40243 7.89334C9.35009 8.15657 9.22083 8.39842 9.03103 8.58822C8.84123 8.77802 8.59938 8.90728 8.33615 8.95962C8.07289 9.01199 7.79998 8.98514 7.552 8.88242C7.30406 8.77971 7.09206 8.60574 6.94298 8.38257Z" fill="url(#paint1_linear_44_263)" stroke="url(#paint2_linear_44_263)" stroke-width="0.6"/>
<path d="M2.87157 4.31115C2.72242 4.08795 2.64282 3.82555 2.64282 3.55715C2.64282 3.19721 2.78579 2.85201 3.04031 2.5975C3.29482 2.34298 3.64002 2.20001 3.99997 2.20001C4.26837 2.20001 4.53076 2.27961 4.75396 2.42876C4.97714 2.57784 5.15111 2.78984 5.25382 3.03778C5.35654 3.28576 5.38339 3.55867 5.33102 3.82193C5.27868 4.08516 5.14942 4.32701 4.95962 4.51681C4.76982 4.70661 4.52797 4.83587 4.26474 4.88821C4.00148 4.94058 3.72857 4.91373 3.48059 4.81101C3.23265 4.7083 3.02065 4.53433 2.87157 4.31115Z" fill="url(#paint3_linear_44_263)" stroke="url(#paint4_linear_44_263)" stroke-width="0.6"/>
<path d="M11.0145 4.31115C10.8654 4.08795 10.7858 3.82555 10.7858 3.55715C10.7858 3.19721 10.9287 2.85201 11.1833 2.5975C11.4378 2.34298 11.783 2.20001 12.1429 2.20001C12.4113 2.20001 12.6737 2.27961 12.8969 2.42876C13.1201 2.57784 13.2941 2.78984 13.3968 3.03778C13.4995 3.28576 13.5263 3.55867 13.474 3.82193C13.4216 4.08516 13.2924 4.32701 13.1026 4.51681C12.9128 4.70661 12.6709 4.83587 12.4077 4.88821C12.1444 4.94058 11.8715 4.91373 11.6235 4.81101C11.3756 4.7083 11.1636 4.53433 11.0145 4.31115Z" fill="url(#paint5_linear_44_263)" stroke="url(#paint6_linear_44_263)" stroke-width="0.6"/>
<path d="M2.87157 12.454C2.72242 12.2308 2.64282 11.9684 2.64282 11.7C2.64282 11.3401 2.78579 10.9949 3.04031 10.7404C3.29482 10.4859 3.64002 10.3429 3.99997 10.3429C4.26837 10.3429 4.53076 10.4225 4.75396 10.5716C4.97714 10.7207 5.15111 10.9327 5.25382 11.1807C5.35654 11.4286 5.38339 11.7016 5.33102 11.9648C5.27868 12.228 5.14942 12.4699 4.95962 12.6597C4.76982 12.8495 4.52797 12.9788 4.26474 13.0311C4.00148 13.0835 3.72857 13.0566 3.48059 12.9539C3.23265 12.8512 3.02065 12.6772 2.87157 12.454Z" fill="url(#paint7_linear_44_263)" stroke="url(#paint8_linear_44_263)" stroke-width="0.6"/>
<path d="M11.0145 12.454C10.8654 12.2308 10.7858 11.9684 10.7858 11.7C10.7858 11.3401 10.9287 10.9949 11.1833 10.7404C11.4378 10.4859 11.783 10.3429 12.1429 10.3429C12.4113 10.3429 12.6737 10.4225 12.8969 10.5716C13.1201 10.7207 13.2941 10.9327 13.3968 11.1807C13.4995 11.4286 13.5263 11.7016 13.474 11.9648C13.4216 12.228 13.2924 12.4699 13.1026 12.6597C12.9128 12.8495 12.6709 12.9788 12.4077 13.0311C12.1444 13.0835 11.8715 13.0566 11.6235 12.9539C11.3756 12.8512 11.1636 12.6772 11.0145 12.454Z" fill="url(#paint9_linear_44_263)" stroke="url(#paint10_linear_44_263)" stroke-width="0.6"/>
</g>
<defs>
<linearGradient id="paint0_linear_44_263" x1="3" y1="14" x2="13" y2="2" gradientUnits="userSpaceOnUse">
<stop stop-color="#FF405B"/>
<stop offset="1" stop-color="#FF8860"/>
</linearGradient>
<linearGradient id="paint1_linear_44_263" x1="7.48944" y1="8.98565" x2="8.37536" y2="6.87638" gradientUnits="userSpaceOnUse">
<stop stop-color="#FF8860"/>
<stop offset="1" stop-color="white"/>
</linearGradient>
<linearGradient id="paint2_linear_44_263" x1="7.48944" y1="8.98565" x2="8.37536" y2="6.87638" gradientUnits="userSpaceOnUse">
<stop stop-color="#FF8860"/>
<stop offset="1" stop-color="white"/>
</linearGradient>
<linearGradient id="paint3_linear_44_263" x1="3.41803" y1="4.91424" x2="4.30395" y2="2.80497" gradientUnits="userSpaceOnUse">
<stop stop-color="#FF8860"/>
<stop offset="1" stop-color="white"/>
</linearGradient>
<linearGradient id="paint4_linear_44_263" x1="3.41803" y1="4.91424" x2="4.30395" y2="2.80497" gradientUnits="userSpaceOnUse">
<stop stop-color="#FF8860"/>
<stop offset="1" stop-color="white"/>
</linearGradient>
<linearGradient id="paint5_linear_44_263" x1="11.561" y1="4.91424" x2="12.4469" y2="2.80497" gradientUnits="userSpaceOnUse">
<stop stop-color="#FF8860"/>
<stop offset="1" stop-color="white"/>
</linearGradient>
<linearGradient id="paint6_linear_44_263" x1="11.561" y1="4.91424" x2="12.4469" y2="2.80497" gradientUnits="userSpaceOnUse">
<stop stop-color="#FF8860"/>
<stop offset="1" stop-color="white"/>
</linearGradient>
<linearGradient id="paint7_linear_44_263" x1="3.41803" y1="13.0571" x2="4.30395" y2="10.9478" gradientUnits="userSpaceOnUse">
<stop stop-color="#FF8860"/>
<stop offset="1" stop-color="white"/>
</linearGradient>
<linearGradient id="paint8_linear_44_263" x1="3.41803" y1="13.0571" x2="4.30395" y2="10.9478" gradientUnits="userSpaceOnUse">
<stop stop-color="#FF8860"/>
<stop offset="1" stop-color="white"/>
</linearGradient>
<linearGradient id="paint9_linear_44_263" x1="11.561" y1="13.0571" x2="12.4469" y2="10.9478" gradientUnits="userSpaceOnUse">
<stop stop-color="#FF8860"/>
<stop offset="1" stop-color="white"/>
</linearGradient>
<linearGradient id="paint10_linear_44_263" x1="11.561" y1="13.0571" x2="12.4469" y2="10.9478" gradientUnits="userSpaceOnUse">
<stop stop-color="#FF8860"/>
<stop offset="1" stop-color="white"/>
</linearGradient>
<clipPath id="clip0_44_263">
<rect width="16" height="16" fill="white"/>
</clipPath>
</defs>
</svg>
