<svg width="16" height="16" viewBox="0 0 16 16" fill="none" xmlns="http://www.w3.org/2000/svg">
<g clip-path="url(#clip0_16_1909)">
<path fill-rule="evenodd" clip-rule="evenodd" d="M15 3C15.552 3 16 3.448 16 4V12.008C16 14.213 14.213 16 12.008 16C9.643 16 6.357 16 3.992 16C2.933 16 1.918 15.579 1.169 14.831C0.421 14.082 0 13.067 0 12.008C0 9.643 0 6.357 0 3.992C0 1.787 1.787 0 3.992 0C7.249 0 12 0 12 0C12.552 0 13 0.448 13 1C13 2.104 13.896 3 15 3ZM15 2C14.448 2 14 1.552 14 1C14 0.448 14.448 0 15 0C15.552 0 16 0.448 16 1C16 1.552 15.552 2 15 2Z" fill="url(#paint0_linear_16_1909)"/>
<path d="M12.3966 7.58589C12.4141 7.75542 12.3645 7.92506 12.2587 8.05854L10.6667 9.96818C10.3812 10.312 10.1236 10.621 9.88337 10.8386C9.62051 11.0753 9.29151 11.2859 8.85631 11.2859C8.42112 11.2859 8.09124 11.0753 7.82926 10.8386C7.58903 10.621 7.33139 10.312 7.04503 9.96818L6.79088 9.66354C6.46797 9.27622 6.26952 9.04121 6.10676 8.89325C6.06411 8.85163 6.01608 8.81594 5.96401 8.78706C5.96083 8.78579 5.95858 8.78451 5.95658 8.78392C5.95519 8.78351 5.95373 8.78376 5.95233 8.78411L5.94966 8.78501L5.94486 8.78706C5.89304 8.81602 5.84532 8.85171 5.80295 8.89325C5.64019 9.04034 5.44087 9.27622 5.11883 9.66354L3.55474 11.5401C3.44394 11.6732 3.28481 11.7568 3.11235 11.7726C2.9399 11.7883 2.76826 11.7349 2.63517 11.6241C2.50209 11.5133 2.41848 11.3542 2.40273 11.1817C2.39493 11.0963 2.40403 11.0102 2.4295 10.9284C2.45497 10.8465 2.49631 10.7704 2.55118 10.7045L4.14399 8.79489C4.42948 8.45109 4.68711 8.1421 4.92734 7.9245C5.1902 7.68776 5.5192 7.47712 5.95444 7.47712C6.38963 7.47712 6.71951 7.68776 6.9815 7.9245C7.22172 8.1421 7.47936 8.45109 7.76572 8.79489L8.01987 9.09953C8.34278 9.48685 8.54123 9.72186 8.704 9.86982C8.7462 9.91108 8.79376 9.94651 8.84538 9.97525L8.84822 9.9765L8.84839 9.97656L8.85025 9.97733C8.85409 9.97925 8.85858 9.97933 8.86248 9.97756L8.86589 9.97601C8.91764 9.94713 8.96535 9.91136 9.00776 9.86982C9.17052 9.72273 9.36984 9.48685 9.69189 9.09953L11.256 7.22297C11.3682 7.09471 11.526 7.01542 11.6959 7.00202C11.8659 6.98863 12.0343 7.04221 12.1651 7.15131C12.2961 7.26041 12.3792 7.41637 12.3966 7.58589Z" fill="#8C4FD9" stroke="#8C4FD9"/>
<path d="M12.9966 6.08589C13.014 6.25542 12.9645 6.42506 12.8586 6.55854L11.2667 8.46818C10.9812 8.81198 10.7236 9.12097 10.4833 9.33857C10.2205 9.57531 9.89148 9.78594 9.45629 9.78594C9.0211 9.78594 8.69122 9.57531 8.42923 9.33857C8.189 9.12097 7.93137 8.81198 7.64501 8.46818L7.39086 8.16354C7.06794 7.77622 6.86949 7.54121 6.70673 7.39325C6.66408 7.35163 6.61605 7.31594 6.56399 7.28706C6.56081 7.28579 6.55855 7.28451 6.55655 7.28392C6.55517 7.28351 6.55371 7.28376 6.55231 7.28411L6.54963 7.28501L6.54484 7.28706C6.49301 7.31602 6.4453 7.35171 6.40293 7.39325C6.24016 7.54034 6.04085 7.77622 5.7188 8.16354L4.15471 10.0401C4.04391 10.1732 3.88478 10.2568 3.71233 10.2726C3.53988 10.2883 3.36823 10.2349 3.23515 10.1241C3.10207 10.0133 3.01845 9.85415 3.00271 9.68174C2.99491 9.59628 3.00401 9.51019 3.02948 9.42837C3.05495 9.34648 3.09629 9.27044 3.15116 9.20452L4.74397 7.29489C5.02945 6.95109 5.28709 6.6421 5.52732 6.4245C5.79017 6.18776 6.11918 5.97712 6.55441 5.97712C6.98961 5.97712 7.31949 6.18776 7.58147 6.4245C7.8217 6.6421 8.07933 6.95109 8.36569 7.29489L8.61985 7.59953C8.94276 7.98685 9.14121 8.22186 9.30397 8.36982C9.34617 8.41108 9.39374 8.44651 9.44536 8.47525L9.44819 8.4765L9.44837 8.47656L9.45023 8.47733C9.45406 8.47925 9.45856 8.47933 9.46246 8.47756L9.46586 8.47601C9.51761 8.44713 9.56533 8.41136 9.60774 8.36982C9.7705 8.22273 9.96982 7.98685 10.2919 7.59953L11.856 5.72297C11.9682 5.59471 12.126 5.51542 12.2959 5.50202C12.4659 5.48863 12.6342 5.54221 12.7651 5.65131C12.8961 5.76041 12.9791 5.91637 12.9966 6.08589Z" fill="url(#paint1_linear_16_1909)" stroke="url(#paint2_linear_16_1909)"/>
</g>
<defs>
<linearGradient id="paint0_linear_16_1909" x1="4" y1="14.8571" x2="14.5882" y2="2.5042" gradientUnits="userSpaceOnUse">
<stop stop-color="#A056FF"/>
<stop offset="1" stop-color="#C59AFD"/>
</linearGradient>
<linearGradient id="paint1_linear_16_1909" x1="5.5" y1="10.2753" x2="12.7841" y2="5.19069" gradientUnits="userSpaceOnUse">
<stop stop-color="#C59AFD"/>
<stop offset="1" stop-color="white"/>
</linearGradient>
<linearGradient id="paint2_linear_16_1909" x1="5.5" y1="10.2753" x2="12.7841" y2="5.19069" gradientUnits="userSpaceOnUse">
<stop stop-color="#C59AFD"/>
<stop offset="1" stop-color="white"/>
</linearGradient>
<clipPath id="clip0_16_1909">
<rect width="16" height="16" fill="white"/>
</clipPath>
</defs>
</svg>
