<svg width="16" height="16" viewBox="0 0 16 16" fill="none" xmlns="http://www.w3.org/2000/svg">
<path fill-rule="evenodd" clip-rule="evenodd" d="M1 8.82951C1 7.94711 1 7.50551 1.3144 7.24871C1.4256 7.15751 1.5608 7.08391 1.712 7.03351C2.13623 6.89236 2.69321 7.03101 3.80444 7.30763L3.81519 7.31031C4.66879 7.52391 5.09519 7.63031 5.52719 7.61911C5.68559 7.61511 5.84319 7.59911 5.99759 7.57191C6.41759 7.49751 6.79199 7.31111 7.54082 6.93751L8.64642 6.38553C9.60635 5.90633 10.0856 5.66713 10.636 5.61193C11.1855 5.55681 11.7319 5.6931 12.8221 5.96506L12.8272 5.96633L13.7592 6.19833C14.5512 6.39593 14.9472 6.49513 15.1736 6.73031C15.4 6.96551 15.4 7.27831 15.4 7.9031V7.90311V12.7703C15.4 13.6527 15.4 14.0943 15.0856 14.3511C14.9672 14.4464 14.8325 14.5193 14.688 14.5663C14.2624 14.7079 13.7032 14.5687 12.5848 14.2895C12.4628 14.259 12.3495 14.2306 12.2437 14.2045C11.9534 14.1329 11.7168 13.931 11.5229 13.7035C11.156 13.273 10.6099 13 10 13C8.89543 13 8 13.8954 8 15C8 15.0549 7.97034 15.1061 7.9212 15.1306L7.75362 15.2143L7.75354 15.2143L7.75351 15.2144C6.79355 15.6935 6.31437 15.9327 5.76399 15.9879C5.21445 16.043 4.66809 15.9067 3.57789 15.6348L3.57279 15.6335L2.6408 15.4015C1.8488 15.2039 1.4528 15.1047 1.2264 14.8695C1 14.6343 1 14.3215 1 13.6967V8.82951ZM10 16C10.5523 16 11 15.5523 11 15C11 14.4477 10.5523 14 10 14C9.44771 14 9 14.4477 9 15C9 15.5523 9.44771 16 10 16Z" fill="url(#paint0_linear_252_336)"/>
<path opacity="0.7" fill-rule="evenodd" clip-rule="evenodd" d="M7.61811 1.45459C4.96691 1.45459 2.81812 3.49619 2.81812 6.01458C2.81812 8.51381 4.35011 11.4298 6.7405 12.4722C7.01745 12.5924 7.31614 12.6544 7.61811 12.6544C7.92 12.6544 8.21876 12.5924 8.49571 12.4722C10.8861 11.4306 12.4181 8.51381 12.4181 6.01458C12.4181 3.49619 10.2693 1.45459 7.61811 1.45459ZM7.61811 7.85458C8.04247 7.85458 8.44937 7.686 8.74944 7.38595C9.04952 7.08589 10.1178 6.67892 10.1178 6.25458C10.1178 5.83024 10.1404 3.24144 9.84037 2.94139C9.54029 2.64133 8.04247 2.47276 7.61811 2.47276C7.19374 2.47276 6.78676 2.64133 6.48676 2.94139C6.18668 3.24144 6.01811 5.83024 6.01811 6.25458C6.01811 6.67892 6.18668 7.08589 6.48676 7.38595C6.78676 7.686 7.19374 7.85458 7.61811 7.85458Z" fill="#D84F4F"/>
<path fill-rule="evenodd" clip-rule="evenodd" d="M8.19989 0C5.54869 0 3.3999 2.0416 3.3999 4.55999C3.3999 7.05922 4.9319 9.97515 7.32229 11.0176C7.59924 11.1378 7.89793 11.1998 8.19989 11.1998C8.50179 11.1998 8.80055 11.1378 9.0775 11.0176C11.4679 9.97595 12.9999 7.05922 12.9999 4.55999C12.9999 2.0416 10.8511 0 8.19989 0Z" fill="url(#paint1_linear_252_336)"/>
<path d="M8.60415 6.80412C8.30407 7.10417 7.89717 7.27275 7.4728 7.27275C7.04844 7.27275 6.64145 7.10417 6.34145 6.80412C6.04137 6.50406 5.8728 6.09709 5.8728 5.67275C5.8728 5.24841 6.04137 4.84144 6.34145 4.54138C6.64145 4.24132 7.04844 4.07275 7.4728 4.07275C7.89717 4.07275 8.30407 4.24132 8.60415 4.54138C8.90422 4.84144 9.0728 5.24841 9.0728 5.67275C9.0728 6.09709 8.90422 6.50406 8.60415 6.80412Z" fill="#D84F4F"/>
<path d="M9.33132 5.93132C9.03125 6.23137 8.62434 6.39995 8.19997 6.39995C7.77561 6.39995 7.36863 6.23137 7.06862 5.93132C6.76854 5.63126 6.59998 5.22429 6.59998 4.79995C6.59998 4.37561 6.76854 3.96864 7.06862 3.66858C7.36863 3.36852 7.77561 3.19995 8.19997 3.19995C8.62434 3.19995 9.03125 3.36852 9.33132 3.66858C9.63139 3.96864 9.79998 4.37561 9.79998 4.79995C9.79998 5.22429 9.63139 5.63126 9.33132 5.93132Z" fill="url(#paint2_linear_252_336)"/>
<defs>
<linearGradient id="paint0_linear_252_336" x1="3.7" y1="14.7" x2="9.53944" y2="4.99766" gradientUnits="userSpaceOnUse">
<stop stop-color="#FF405B"/>
<stop offset="1" stop-color="#FF8860"/>
</linearGradient>
<linearGradient id="paint1_linear_252_336" x1="5.1999" y1="9.79983" x2="12.3136" y2="2.48274" gradientUnits="userSpaceOnUse">
<stop stop-color="#FF405B"/>
<stop offset="1" stop-color="#FF8860"/>
</linearGradient>
<linearGradient id="paint2_linear_252_336" x1="7.62515" y1="5.31261" x2="8.65045" y2="4.28731" gradientUnits="userSpaceOnUse">
<stop stop-color="#FF8860"/>
<stop offset="1" stop-color="white"/>
</linearGradient>
</defs>
</svg>
