<svg width="16" height="16" viewBox="0 0 16 16" fill="none" xmlns="http://www.w3.org/2000/svg">
<g clip-path="url(#clip0_43_1679)">
<path fill-rule="evenodd" clip-rule="evenodd" d="M12.9824 15C12.9824 15.552 12.5344 16 11.9824 16H3.97442C1.76942 16 -0.0175781 14.213 -0.0175781 12.008C-0.0175781 9.643 -0.0175781 6.357 -0.0175781 3.992C-0.0175781 2.933 0.403422 1.918 1.15142 1.169C1.90042 0.421 2.91542 0 3.97442 0C6.33942 0 9.62542 0 11.9904 0C14.1954 0 15.9824 1.787 15.9824 3.992C15.9824 7.249 15.9824 12 15.9824 12C15.9824 12.552 15.5344 13 14.9824 13C13.8784 13 12.9824 13.896 12.9824 15ZM13.9824 15C13.9824 14.448 14.4304 14 14.9824 14C15.5344 14 15.9824 14.448 15.9824 15C15.9824 15.552 15.5344 16 14.9824 16C14.4304 16 13.9824 15.552 13.9824 15Z" fill="url(#paint0_linear_43_1679)"/>
<path fill-rule="evenodd" clip-rule="evenodd" d="M8.16667 12H2.83333C2.37333 12 2 12.3733 2 12.8333C2 13.2933 2.37333 13.6667 2.83333 13.6667H8.16667C8.62667 13.6667 9 13.2933 9 12.8333C9 12.3733 8.62667 12 8.16667 12Z" fill="#8C4FD9"/>
<path fill-rule="evenodd" clip-rule="evenodd" d="M9.16667 11H3.83333C3.37333 11 3 11.3733 3 11.8333C3 12.2933 3.37333 12.6667 3.83333 12.6667H9.16667C9.62667 12.6667 10 12.2933 10 11.8333C10 11.3733 9.62667 11 9.16667 11Z" fill="url(#paint1_linear_43_1679)"/>
<path d="M6.52053 8.77127C6.52053 8.86497 6.48897 8.95706 6.42254 9.02315C6.2262 9.21849 5.96838 9.3744 5.64917 9.49089C5.27369 9.62533 4.85767 9.69255 4.40106 9.69255C3.92161 9.69255 3.5005 9.58853 3.13772 9.38053C2.77753 9.16997 2.49847 8.86558 2.30058 8.46728C2.10525 8.069 2.00506 7.601 2 7.06319V6.68647C2 6.13344 2.09258 5.65528 2.27778 5.25192C2.4655 4.84603 2.73439 4.53653 3.08444 4.32344C3.43708 4.10783 3.84931 4 4.32114 4C4.97819 4 5.49189 4.15728 5.86225 4.47183C6.13584 4.70233 6.32706 5.01105 6.43593 5.39798C6.50064 5.62798 6.31108 5.83789 6.07215 5.83789H5.75051C5.554 5.83789 5.39469 5.69154 5.32288 5.50862C5.26226 5.35424 5.17823 5.23189 5.07078 5.14156C4.89828 4.99442 4.65981 4.92086 4.35539 4.92086C3.96725 4.92086 3.67175 5.06672 3.46878 5.35847C3.26583 5.65017 3.16311 6.08397 3.16058 6.65983V7.01369C3.16058 7.59464 3.27092 8.0335 3.49161 8.33031C3.71233 8.62711 4.03575 8.7755 4.46194 8.7755C4.80147 8.7755 5.06384 8.71823 5.24904 8.60366C5.33926 8.54785 5.379 8.44193 5.379 8.33584V7.94644C5.379 7.72553 5.19991 7.54644 4.979 7.54644H4.74019C4.51928 7.54644 4.34019 7.36736 4.34019 7.14644V7.10547C4.34019 6.88456 4.51928 6.70547 4.74019 6.70547H6.12053C6.34144 6.70547 6.52053 6.88456 6.52053 7.10547V8.77127ZM12 6.97183C12 7.51728 11.9036 7.99544 11.7108 8.40639C11.518 8.81736 11.2415 9.13444 10.8813 9.35769C10.5236 9.58094 10.1126 9.69255 9.64839 9.69255C9.18925 9.69255 8.77956 9.58222 8.41933 9.3615C8.05911 9.14081 7.78006 8.82625 7.5822 8.41783C7.38433 8.00686 7.28411 7.53503 7.28158 7.00228V6.72831C7.28158 6.18292 7.37925 5.70347 7.57458 5.28997C7.77244 4.87394 8.05022 4.55556 8.40792 4.33486C8.76814 4.11164 9.17908 4 9.64081 4C10.1025 4 10.5122 4.11164 10.8699 4.33486C11.2301 4.55556 11.5079 4.87394 11.7032 5.28997C11.9011 5.70347 12 6.18167 12 6.72453V6.97183ZM10.8433 6.72072C10.8433 6.13981 10.7392 5.69839 10.5312 5.3965C10.3232 5.09464 10.0264 4.94367 9.64081 4.94367C9.25775 4.94367 8.96219 5.09336 8.75417 5.39269C8.54617 5.6895 8.44089 6.12583 8.43836 6.70167V6.97183C8.43836 7.53756 8.54239 7.97642 8.75039 8.28844C8.95842 8.60047 9.25775 8.7565 9.64839 8.7565C10.0314 8.7565 10.3257 8.60681 10.5312 8.30747C10.7367 8.00558 10.8407 7.56672 10.8433 6.99089V6.72072Z" fill="#8C4FD9"/>
<path d="M7.52053 7.77127C7.52053 7.86497 7.48897 7.95706 7.42254 8.02315C7.2262 8.21849 6.96838 8.3744 6.64917 8.49089C6.27369 8.62533 5.85767 8.69255 5.40106 8.69255C4.92161 8.69255 4.5005 8.58853 4.13772 8.38053C3.77753 8.16997 3.49847 7.86558 3.30058 7.46728C3.10525 7.069 3.00506 6.601 3 6.06319V5.68647C3 5.13344 3.09258 4.65528 3.27778 4.25192C3.4655 3.84603 3.73439 3.53653 4.08444 3.32344C4.43708 3.10783 4.84931 3 5.32114 3C5.97819 3 6.49189 3.15728 6.86225 3.47183C7.13584 3.70233 7.32706 4.01105 7.43593 4.39798C7.50064 4.62798 7.31108 4.83789 7.07215 4.83789H6.75051C6.554 4.83789 6.39469 4.69154 6.32288 4.50862C6.26226 4.35424 6.17823 4.23189 6.07078 4.14156C5.89828 3.99442 5.65981 3.92086 5.35539 3.92086C4.96725 3.92086 4.67175 4.06672 4.46878 4.35847C4.26583 4.65017 4.16311 5.08397 4.16058 5.65983V6.01369C4.16058 6.59464 4.27092 7.0335 4.49161 7.33031C4.71233 7.62711 5.03575 7.7755 5.46194 7.7755C5.80147 7.7755 6.06384 7.71823 6.24904 7.60366C6.33926 7.54785 6.379 7.44193 6.379 7.33584V6.94644C6.379 6.72553 6.19991 6.54644 5.979 6.54644H5.74019C5.51928 6.54644 5.34019 6.36736 5.34019 6.14644V6.10547C5.34019 5.88456 5.51928 5.70547 5.74019 5.70547H7.12053C7.34144 5.70547 7.52053 5.88456 7.52053 6.10547V7.77127ZM13 5.97183C13 6.51728 12.9036 6.99544 12.7108 7.40639C12.518 7.81736 12.2415 8.13444 11.8813 8.35769C11.5236 8.58094 11.1126 8.69255 10.6484 8.69255C10.1893 8.69255 9.77956 8.58222 9.41933 8.3615C9.05911 8.14081 8.78006 7.82625 8.5822 7.41783C8.38433 7.00686 8.28411 6.53503 8.28158 6.00228V5.72831C8.28158 5.18292 8.37925 4.70347 8.57458 4.28997C8.77244 3.87394 9.05022 3.55556 9.40792 3.33486C9.76814 3.11164 10.1791 3 10.6408 3C11.1025 3 11.5122 3.11164 11.8699 3.33486C12.2301 3.55556 12.5079 3.87394 12.7032 4.28997C12.9011 4.70347 13 5.18167 13 5.72453V5.97183ZM11.8433 5.72072C11.8433 5.13981 11.7392 4.69839 11.5312 4.3965C11.3232 4.09464 11.0264 3.94367 10.6408 3.94367C10.2578 3.94367 9.96219 4.09336 9.75417 4.39269C9.54617 4.6895 9.44089 5.12583 9.43836 5.70167V5.97183C9.43836 6.53756 9.54239 6.97642 9.75039 7.28844C9.95842 7.60047 10.2578 7.7565 10.6484 7.7565C11.0314 7.7565 11.3257 7.60681 11.5312 7.30747C11.7367 7.00558 11.8407 6.56672 11.8433 5.99089V5.72072Z" fill="url(#paint2_linear_43_1679)"/>
</g>
<defs>
<linearGradient id="paint0_linear_43_1679" x1="3.98242" y1="14.8571" x2="14.5707" y2="2.5042" gradientUnits="userSpaceOnUse">
<stop stop-color="#A056FF"/>
<stop offset="1" stop-color="#C59AFD"/>
</linearGradient>
<linearGradient id="paint1_linear_43_1679" x1="4.75" y1="12.6667" x2="7.31194" y2="9.07995" gradientUnits="userSpaceOnUse">
<stop stop-color="#C59AFD"/>
<stop offset="1" stop-color="white"/>
</linearGradient>
<linearGradient id="paint2_linear_43_1679" x1="5.5" y1="8.69255" x2="13.5672" y2="3.9687" gradientUnits="userSpaceOnUse">
<stop stop-color="#C59AFD"/>
<stop offset="1" stop-color="white"/>
</linearGradient>
<clipPath id="clip0_43_1679">
<rect width="16" height="16" fill="white"/>
</clipPath>
</defs>
</svg>
