<svg width="16" height="16" viewBox="0 0 16 16" fill="none" xmlns="http://www.w3.org/2000/svg">
<path fill-rule="evenodd" clip-rule="evenodd" d="M3.46094 0.274676C2.84455 -0.0705931 2.05626 -0.150525 1.49466 0.389727C1.12797 0.739992 1 1.23322 1 1.70341V12.3239C1 12.7996 1.76879 13.1555 2.2444 13.1555V13.1555C3.12806 13.1555 3.8444 13.8719 3.8444 14.7555V14.7555C3.8444 14.9139 4.02248 15.0455 4.16024 14.9675L14.2753 9.23548L14.2767 9.2347C14.7918 8.94531 15.2222 8.46194 15.2222 7.82201C15.2222 7.18343 14.7933 6.69842 14.2801 6.40526L14.04 6.26805C14.0396 6.2678 14.0391 6.26772 14.0386 6.26784V6.26784C14.0381 6.26795 14.0376 6.26788 14.0371 6.26763L12.7161 5.51907L8.7509 3.27221L3.464 0.27639L3.46094 0.274676Z" fill="url(#paint0_linear_92_400)"/>
<path opacity="0.7" fill-rule="evenodd" clip-rule="evenodd" d="M8.79134 3.29513C8.45709 3.23296 8.1126 3.20033 7.76063 3.20001C6.31792 3.19874 5.00368 3.74521 4.00016 4.63938L3.99785 4.64169C3.86047 4.76429 3.72877 4.89303 3.60347 5.02829L3.57385 5.06203C3.45961 5.18772 3.35064 5.31799 3.24735 5.45367C3.23124 5.47526 3.21531 5.49698 3.19952 5.51881C3.10381 5.64795 3.01382 5.78057 2.92952 5.91778C2.91295 5.94487 2.89663 5.97207 2.88052 5.99945C2.80073 6.13321 2.72667 6.27081 2.65791 6.4119C2.64176 6.44468 2.62591 6.47768 2.6104 6.51078C2.54658 6.64763 2.48841 6.78793 2.43512 6.93055C2.42111 6.96784 2.40752 7.00528 2.3943 7.04287C2.34633 7.1805 2.30416 7.32006 2.26648 7.46232C2.25321 7.51135 2.24056 7.56056 2.22857 7.60994C2.19874 7.7357 2.17343 7.86338 2.15199 7.99259C2.14 8.06292 2.1293 8.1335 2.11992 8.20425C2.10619 8.31124 2.09641 8.41862 2.08848 8.52713C2.07615 8.6669 2.06886 8.8071 2.06665 8.9474C2.06651 9.12767 2.077 9.30484 2.09286 9.48087C2.09666 9.51785 2.10082 9.55483 2.10534 9.59174C2.12226 9.74591 2.14509 9.89819 2.17385 10.0485C2.17791 10.0705 2.18207 10.0925 2.1864 10.1145C2.26192 10.4862 2.37304 10.8449 2.51561 11.1867V11.1882C2.73929 11.7226 3.04038 12.2157 3.40482 12.6532C3.96345 13.324 4.66789 13.8667 5.47295 14.2236L13.3856 9.73968C13.3953 9.66639 13.4036 9.59291 13.4106 9.51927C13.4183 9.45861 13.422 9.38798 13.4257 9.3173L13.4258 9.31558L13.4294 9.24816C13.4368 9.15142 13.4418 9.05449 13.4444 8.9575C13.4457 7.47605 12.8931 6.12488 11.9842 5.10435L8.79134 3.29513Z" fill="#C38509"/>
<path fill-rule="evenodd" clip-rule="evenodd" d="M8.82728 2.13336C7.38457 2.13209 6.07033 2.67856 5.06681 3.57273L5.0645 3.57504C4.92712 3.69764 4.79542 3.82638 4.67012 3.96164C4.6602 3.97284 4.65035 3.98407 4.6405 3.99538C4.52626 4.12107 4.41728 4.25134 4.314 4.38702C4.29789 4.40861 4.28196 4.43033 4.26617 4.45216C4.17046 4.5813 4.08047 4.71392 3.99616 4.85113C3.9796 4.87822 3.96328 4.90542 3.94717 4.9328C3.86738 5.06656 3.79332 5.20416 3.72456 5.34525C3.70841 5.37803 3.69256 5.41102 3.67705 5.44413C3.61323 5.58098 3.55506 5.72128 3.50176 5.8639C3.48776 5.90119 3.47417 5.93863 3.46095 5.97622C3.41298 6.11385 3.37081 6.25341 3.33312 6.39566C3.31986 6.4447 3.3072 6.4939 3.29522 6.54329C3.26539 6.66905 3.24008 6.79673 3.21864 6.92594C3.20665 6.99627 3.19595 7.06685 3.18656 7.1376C3.17284 7.24459 3.16306 7.35197 3.15513 7.46048C3.1428 7.60025 3.13551 7.74045 3.1333 7.88075C3.13316 8.06102 3.14365 8.23819 3.15951 8.41422C3.16331 8.4512 3.16747 8.48818 3.17199 8.52509C3.18891 8.67926 3.21174 8.83154 3.2405 8.98187C3.24456 9.00388 3.24872 9.02589 3.25305 9.04786C3.32857 9.41952 3.43968 9.77821 3.58226 10.12V10.1215C3.80594 10.656 4.10703 11.149 4.47147 11.5865C5.03712 12.2658 5.75229 12.8137 6.57003 13.1703C6.58863 13.1784 6.60758 13.1807 6.62653 13.1807C6.75133 13.2356 6.87805 13.286 7.0064 13.3318L13.9215 9.37789C14.0149 9.35037 14.0976 9.30404 14.1701 9.23584L14.3754 9.1183C14.4222 8.8986 14.4561 8.67634 14.4772 8.45262C14.4851 8.39147 14.4887 8.32018 14.4924 8.24893C14.4936 8.22638 14.4948 8.2037 14.496 8.18151C14.5035 8.08477 14.5085 7.98784 14.5111 7.89085C14.5139 4.71396 11.9691 2.13614 8.82728 2.13336Z" fill="url(#paint1_linear_92_400)"/>
<circle cx="2.06667" cy="14.9333" r="1.06667" fill="url(#paint2_linear_92_400)"/>
<path d="M9.53337 4.26666C9.337 4.26666 9.17782 4.42584 9.17782 4.62222V6.18193C9.17782 6.48952 8.78091 6.68206 8.48402 6.6016C8.34038 6.56266 8.19119 6.54243 8.04004 6.54222C7.58742 6.54222 7.15332 6.72202 6.83325 7.04209C6.51318 7.36217 6.33337 7.79626 6.33337 8.24889C6.33337 8.70151 6.51318 9.13561 6.83325 9.45568C7.15332 9.77575 7.58742 9.95555 8.04004 9.95555C8.49266 9.95555 8.92676 9.77575 9.24683 9.45568C9.5669 9.13561 9.74671 8.70151 9.74671 8.24889V5.76C9.74671 5.56362 9.90589 5.40444 10.1023 5.40444H10.5289C10.7253 5.40444 10.8845 5.24526 10.8845 5.04889V4.62222C10.8845 4.42584 10.7253 4.26666 10.5289 4.26666H9.74671H9.53337Z" fill="url(#paint3_linear_92_400)"/>
<defs>
<linearGradient id="paint0_linear_92_400" x1="3.66665" y1="14.0526" x2="13.1115" y2="3.2989" gradientUnits="userSpaceOnUse">
<stop stop-color="#FF8860"/>
<stop offset="1" stop-color="#FBD92C"/>
</linearGradient>
<linearGradient id="paint1_linear_92_400" x1="5.97775" y1="10.5322" x2="11.5762" y2="4.844" gradientUnits="userSpaceOnUse">
<stop stop-color="#FBD92C"/>
<stop offset="1" stop-color="white"/>
</linearGradient>
<linearGradient id="paint2_linear_92_400" x1="1.4" y1="15.8665" x2="2.73321" y2="14.2665" gradientUnits="userSpaceOnUse">
<stop stop-color="#FF8860"/>
<stop offset="1" stop-color="#FBD92C"/>
</linearGradient>
<linearGradient id="paint3_linear_92_400" x1="7.18671" y1="9.59958" x2="10.7982" y2="6.13224" gradientUnits="userSpaceOnUse">
<stop stop-color="#FF8860"/>
<stop offset="1" stop-color="#FBD92C"/>
</linearGradient>
</defs>
</svg>
