<svg width="16" height="16" viewBox="0 0 16 16" fill="none" xmlns="http://www.w3.org/2000/svg">
<g clip-path="url(#clip0_17_2128)">
<path fill-rule="evenodd" clip-rule="evenodd" d="M3 8C3 6 1.336 5.837 1.276 5.807C0.780999 5.563 0.576999 4.963 0.820999 4.468C2.126 1.822 4.852 0 8 0C12.415 0 16 3.585 16 8C16 12.415 12.415 16 8 16C4.852 16 2.126 14.178 0.820999 11.532C0.576999 11.037 0.780999 10.437 1.276 10.193C1.336 10.163 3 10 3 8ZM1 9C0.448 9 0 8.552 0 8C0 7.448 0.448 7 1 7C1.552 7 2 7.448 2 8C2 8.552 1.552 9 1 9Z" fill="url(#paint0_linear_17_2128)"/>
<path fill-rule="evenodd" clip-rule="evenodd" d="M11.9512 9.79C12.13 9.885 12.268 10.035 12.365 10.185C12.5541 10.495 12.5388 10.875 12.3548 11.21L11.9972 11.81C11.8081 12.13 11.4555 12.33 11.0927 12.33C10.9139 12.33 10.7146 12.28 10.5511 12.18C10.4182 12.095 10.2649 12.065 10.1014 12.065C9.59553 12.065 9.17144 12.48 9.15612 12.975C9.15612 13.55 8.68598 14 8.09839 14H7.40344C6.81071 14 6.34061 13.55 6.34061 12.975C6.33039 12.48 5.90628 12.065 5.40041 12.065C5.23179 12.065 5.07849 12.095 4.95075 12.18C4.78723 12.28 4.58284 12.33 4.40911 12.33C4.04121 12.33 3.68863 12.13 3.49957 11.81L3.14699 11.21C2.95793 10.885 2.94771 10.495 3.13677 10.185C3.21853 10.035 3.37182 9.885 3.54555 9.79C3.68863 9.72 3.7806 9.605 3.86747 9.47C4.12296 9.04 3.96967 8.475 3.53534 8.22C3.02947 7.935 2.86595 7.3 3.15721 6.805L3.49957 6.215C3.79594 5.72 4.42955 5.545 4.94053 5.835C5.38508 6.075 5.96249 5.915 6.22308 5.49C6.30484 5.35 6.35083 5.2 6.34061 5.05C6.33039 4.855 6.3866 4.67 6.48368 4.52C6.67276 4.21 7.01512 4.01 7.38812 4H8.10857C8.48671 4 8.82907 4.21 9.01812 4.52C9.11012 4.67 9.17144 4.855 9.15612 5.05C9.14589 5.2 9.19189 5.35 9.27362 5.49C9.53421 5.915 10.1116 6.075 10.5613 5.835C11.0672 5.545 11.7059 5.72 11.9972 6.215L12.3395 6.805C12.6358 7.3 12.4723 7.935 11.9614 8.22C11.527 8.475 11.3738 9.04 11.6343 9.47C11.7161 9.605 11.8081 9.72 11.9512 9.79ZM6.30483 9.00501C6.30483 9.79001 6.95378 10.415 7.75601 10.415C8.55824 10.415 9.19187 9.79001 9.19187 9.00501C9.19187 8.22001 8.55824 7.59001 7.75601 7.59001C6.95378 7.59001 6.30483 8.22001 6.30483 9.00501Z" fill="#8CC860"/>
<path fill-rule="evenodd" clip-rule="evenodd" d="M12.4512 8.79C12.63 8.885 12.768 9.035 12.865 9.185C13.0541 9.495 13.0388 9.875 12.8548 10.21L12.4972 10.81C12.3081 11.13 11.9555 11.33 11.5927 11.33C11.4139 11.33 11.2146 11.28 11.0511 11.18C10.9182 11.095 10.7649 11.065 10.6014 11.065C10.0955 11.065 9.67144 11.48 9.65612 11.975C9.65612 12.55 9.18598 13 8.59839 13H7.90344C7.31071 13 6.84061 12.55 6.84061 11.975C6.83039 11.48 6.40628 11.065 5.90041 11.065C5.73179 11.065 5.57849 11.095 5.45075 11.18C5.28723 11.28 5.08284 11.33 4.90911 11.33C4.54121 11.33 4.18863 11.13 3.99957 10.81L3.64699 10.21C3.45793 9.885 3.44771 9.495 3.63677 9.185C3.71853 9.035 3.87182 8.885 4.04555 8.79C4.18863 8.72 4.2806 8.605 4.36747 8.47C4.62296 8.04 4.46967 7.475 4.03534 7.22C3.52947 6.935 3.36595 6.3 3.65721 5.805L3.99957 5.215C4.29594 4.72 4.92955 4.545 5.44053 4.835C5.88508 5.075 6.46249 4.915 6.72308 4.49C6.80484 4.35 6.85083 4.2 6.84061 4.05C6.83039 3.855 6.8866 3.67 6.98368 3.52C7.17276 3.21 7.51512 3.01 7.88812 3H8.60857C8.98671 3 9.32907 3.21 9.51812 3.52C9.61012 3.67 9.67144 3.855 9.65612 4.05C9.64589 4.2 9.69189 4.35 9.77362 4.49C10.0342 4.915 10.6116 5.075 11.0613 4.835C11.5672 4.545 12.2059 4.72 12.4972 5.215L12.8395 5.805C13.1358 6.3 12.9723 6.935 12.4614 7.22C12.027 7.475 11.8738 8.04 12.1343 8.47C12.2161 8.605 12.3081 8.72 12.4512 8.79ZM6.80483 8.00501C6.80483 8.79001 7.45378 9.41501 8.25601 9.41501C9.05824 9.41501 9.69187 8.79001 9.69187 8.00501C9.69187 7.22001 9.05824 6.59001 8.25601 6.59001C7.45378 6.59001 6.80483 7.22001 6.80483 8.00501Z" fill="url(#paint1_linear_17_2128)"/>
</g>
<defs>
<linearGradient id="paint0_linear_17_2128" x1="1.14286" y1="16" x2="11.7135" y2="0.624479" gradientUnits="userSpaceOnUse">
<stop stop-color="#9BE862"/>
<stop offset="1" stop-color="#C8FF9F"/>
</linearGradient>
<linearGradient id="paint1_linear_17_2128" x1="4.6875" y1="13" x2="13.1146" y2="5.99499" gradientUnits="userSpaceOnUse">
<stop stop-color="#C8FF9F"/>
<stop offset="1" stop-color="white"/>
</linearGradient>
<clipPath id="clip0_17_2128">
<rect width="16" height="16" fill="white"/>
</clipPath>
</defs>
</svg>
