<svg width="16" height="16" viewBox="0 0 16 16" fill="none" xmlns="http://www.w3.org/2000/svg">
<g clip-path="url(#clip0_15_1539)">
<path fill-rule="evenodd" clip-rule="evenodd" d="M3 8C3 6 1.336 5.837 1.276 5.807C0.780999 5.563 0.576999 4.963 0.820999 4.468C2.126 1.822 4.852 0 8 0C12.415 0 16 3.585 16 8C16 12.415 12.415 16 8 16C4.852 16 2.126 14.178 0.820999 11.532C0.576999 11.037 0.780999 10.437 1.276 10.193C1.336 10.163 3 10 3 8ZM1 9C0.448 9 0 8.552 0 8C0 7.448 0.448 7 1 7C1.552 7 2 7.448 2 8C2 8.552 1.552 9 1 9Z" fill="url(#paint0_linear_15_1539)"/>
<path d="M12 9C13.1046 9 14.0275 8.08688 13.7162 7.02709C13.646 6.78798 13.5629 6.55234 13.4672 6.32122C13.1154 5.47194 12.5998 4.70026 11.9497 4.05025C11.2997 3.40024 10.5281 2.88463 9.67878 2.53284C9.44766 2.43711 9.21202 2.35402 8.97291 2.28378C7.91312 1.97246 7 2.89543 7 4L7 7C7 8.10457 7.89543 9 9 9H12Z" fill="#8C4FD9"/>
<path d="M13 7.99995C14.1046 7.99995 15.0275 7.08683 14.7162 6.02704C14.646 5.78793 14.5629 5.55229 14.4672 5.32117C14.1154 4.47189 13.5998 3.70021 12.9497 3.0502C12.2997 2.40019 11.5281 1.88458 10.6788 1.53279C10.4477 1.43706 10.212 1.35397 9.97291 1.28373C8.91312 0.972412 8 1.89538 8 2.99995L8 5.99995C8 7.10452 8.89543 7.99995 10 7.99995H13Z" fill="url(#paint1_linear_15_1539)"/>
</g>
<defs>
<linearGradient id="paint0_linear_15_1539" x1="4" y1="14.8571" x2="14.5882" y2="2.5042" gradientUnits="userSpaceOnUse">
<stop stop-color="#A056FF"/>
<stop offset="1" stop-color="#C59AFD"/>
</linearGradient>
<linearGradient id="paint1_linear_15_1539" x1="9.69435" y1="7.99995" x2="16.3023" y2="5.79729" gradientUnits="userSpaceOnUse">
<stop stop-color="#C59AFD"/>
<stop offset="1" stop-color="white"/>
</linearGradient>
<clipPath id="clip0_15_1539">
<rect width="16" height="16" fill="white"/>
</clipPath>
</defs>
</svg>
