<svg width="16" height="16" viewBox="0 0 16 16" fill="none" xmlns="http://www.w3.org/2000/svg">
<path fill-rule="evenodd" clip-rule="evenodd" d="M15 10.3237V6.17624C15 5.37881 14.5879 4.63834 13.9097 4.21903C13.2316 3.79928 12.3855 3.76116 11.6724 4.11825L11.0205 4.44467C10.2417 4.83419 9.75 5.63074 9.75 6.50266V9.99733C9.75 10.8692 10.2417 11.6658 11.0205 12.0553L11.6724 12.3817C12.3855 12.7388 13.2316 12.7007 13.9097 12.281C14.5879 11.8616 15 11.1212 15 10.3237Z" fill="url(#paint0_linear_8_127)"/>
<path fill-rule="evenodd" clip-rule="evenodd" d="M3.625 3.875C3.625 3.392 4.01875 3 4.5 3C4.5 3 6.32875 3 7.99125 3C8.9275 3 9.81125 3.36925 10.4762 4.02725C11.1325 4.68525 11.5 5.57688 11.5 6.507C11.5 7.61038 11.5 8.88962 11.5 9.993C11.5 10.9231 11.1325 11.8147 10.4762 12.4727C9.81125 13.1307 8.9275 13.5 7.99125 13.5C6.88875 13.5 5.61125 13.5 4.50875 13.5C3.58125 13.5 2.68875 13.1307 2.02375 12.4727C1.3675 11.8147 1 10.9231 1 9.993V6.5C1 6.017 1.39375 5.625 1.875 5.625C2.8375 5.625 3.625 4.841 3.625 3.875ZM2.75 3.875C2.75 4.358 2.35625 4.75 1.875 4.75C1.39375 4.75 1 4.358 1 3.875C1 3.392 1.39375 3 1.875 3C2.35625 3 2.75 3.392 2.75 3.875Z" fill="url(#paint1_linear_8_127)"/>
<path fill-rule="evenodd" clip-rule="evenodd" d="M7.125 5.625H5.375C4.892 5.625 4.5 6.017 4.5 6.5C4.5 6.983 4.892 7.375 5.375 7.375H7.125C7.608 7.375 8 6.983 8 6.5C8 6.017 7.608 5.625 7.125 5.625Z" fill="#63D793"/>
<path fill-rule="evenodd" clip-rule="evenodd" d="M8 4.75H6.25C5.767 4.75 5.375 5.142 5.375 5.625C5.375 6.108 5.767 6.5 6.25 6.5H8C8.483 6.5 8.875 6.108 8.875 5.625C8.875 5.142 8.483 4.75 8 4.75Z" fill="url(#paint2_linear_8_127)"/>
<defs>
<linearGradient id="paint0_linear_8_127" x1="11.5" y1="8.24998" x2="14.125" y2="4.74998" gradientUnits="userSpaceOnUse">
<stop stop-color="#41FF8F"/>
<stop offset="1" stop-color="#A1FFC7"/>
</linearGradient>
<linearGradient id="paint1_linear_8_127" x1="1.875" y1="12.625" x2="10.625" y2="3.875" gradientUnits="userSpaceOnUse">
<stop stop-color="#41FF8F"/>
<stop offset="1" stop-color="#A1FFC7"/>
</linearGradient>
<linearGradient id="paint2_linear_8_127" x1="5.375" y1="6.5" x2="8.875" y2="4.75" gradientUnits="userSpaceOnUse">
<stop stop-color="#A1FFC7"/>
<stop offset="1" stop-color="white"/>
</linearGradient>
</defs>
</svg>
