<svg width="16" height="16" viewBox="0 0 16 16" fill="none" xmlns="http://www.w3.org/2000/svg">
<g clip-path="url(#clip0_8_206)">
<path fill-rule="evenodd" clip-rule="evenodd" d="M14.7219 9.264C15.008 9.416 15.2288 9.656 15.3841 9.896C15.6866 10.392 15.6621 11 15.3678 11.536L14.7955 12.496C14.493 13.008 13.9289 13.328 13.3484 13.328C13.0623 13.328 12.7434 13.248 12.4818 13.088C12.2692 12.952 12.024 12.904 11.7623 12.904C10.9529 12.904 10.2744 13.568 10.2498 14.36C10.2498 15.28 9.49762 16 8.55748 16H7.44555C6.49719 16 5.74503 15.28 5.74503 14.36C5.72868 13.568 5.0501 12.904 4.24071 12.904C3.97091 12.904 3.72564 12.952 3.52125 13.088C3.25962 13.248 2.9326 13.328 2.65463 13.328C2.06598 13.328 1.50186 13.008 1.19936 12.496L0.635238 11.536C0.332744 11.016 0.316387 10.392 0.618889 9.896C0.749696 9.656 0.994969 9.416 1.27294 9.264C1.50186 9.152 1.64902 8.968 1.78801 8.752C2.19679 8.064 1.95152 7.16 1.25659 6.752C0.447202 6.296 0.18558 5.28 0.651587 4.488L1.19936 3.544C1.67355 2.752 2.68733 2.472 3.5049 2.936C4.21618 3.32 5.14003 3.064 5.55698 2.384C5.6878 2.16 5.76138 1.92 5.74503 1.68C5.72868 1.368 5.8186 1.072 5.97394 0.832C6.27646 0.336 6.82424 0.016 7.42104 0H8.57377C9.17879 0 9.72657 0.336 10.029 0.832C10.1762 1.072 10.2744 1.368 10.2498 1.68C10.2335 1.92 10.3071 2.16 10.4378 2.384C10.8548 3.064 11.7786 3.32 12.4981 2.936C13.3075 2.472 14.3295 2.752 14.7955 3.544L15.3432 4.488C15.8174 5.28 15.5558 6.296 14.7383 6.752C14.0433 7.16 13.7981 8.064 14.215 8.752C14.3458 8.968 14.493 9.152 14.7219 9.264ZM3.8286 16C4.45978 16 4.97145 15.4883 4.97145 14.8571C4.97145 14.226 4.45978 13.7143 3.8286 13.7143C3.19741 13.7143 2.68574 14.226 2.68574 14.8571C2.68574 15.4883 3.19741 16 3.8286 16Z" fill="url(#paint0_linear_8_206)"/>
<path d="M7.06482 11.3771C5.78125 11.3771 4.74292 10.3771 4.74292 9.12111C4.74292 7.86511 5.78125 6.85712 7.06482 6.85712C8.34838 6.85712 9.3622 7.86511 9.3622 9.12111C9.3622 10.3771 8.34838 11.3771 7.06482 11.3771Z" fill="#63D793"/>
<path d="M8.00964 10.264C6.72608 10.264 5.68774 9.26401 5.68774 8.00801C5.68774 6.75201 6.72608 5.74402 8.00964 5.74402C9.29321 5.74402 10.307 6.75201 10.307 8.00801C10.307 9.26401 9.29321 10.264 8.00964 10.264Z" fill="url(#paint1_linear_8_206)"/>
</g>
<defs>
<linearGradient id="paint0_linear_8_206" x1="1.66669" y1="14.6667" x2="14.9825" y2="2.01663" gradientUnits="userSpaceOnUse">
<stop stop-color="#41FF8F"/>
<stop offset="1" stop-color="#A1FFC7"/>
</linearGradient>
<linearGradient id="paint1_linear_8_206" x1="5.68774" y1="10.264" x2="11.108" y2="8.87917" gradientUnits="userSpaceOnUse">
<stop stop-color="#A1FFC7"/>
<stop offset="1" stop-color="white"/>
</linearGradient>
<clipPath id="clip0_8_206">
<rect width="16" height="16" fill="white"/>
</clipPath>
</defs>
</svg>
