<svg width="16" height="16" viewBox="0 0 16 16" fill="none" xmlns="http://www.w3.org/2000/svg">
<path fill-rule="evenodd" clip-rule="evenodd" d="M6.8944 0.51228C7.5992 -0.157552 8.78265 -0.172091 9.50255 0.478003C10.0674 0.974501 10.6336 1.46942 11.1998 1.96436L11.1999 1.96443L11.2 1.96456L11.2001 1.96466C12.2304 2.86511 13.2605 3.7656 14.2823 4.67559C15.1339 5.49288 14.8321 6.80718 14.1676 7.78794L12.7482 9.86346C12.6697 9.96819 12.6197 10.0548 12.5731 10.1355L12.5731 10.1355C12.5373 10.1976 12.5035 10.2562 12.4603 10.3168C12.4369 10.3496 12.4135 10.3823 12.3911 10.4154C12.1756 10.7237 11.7098 10.7251 11.3747 10.5541C11.1476 10.4382 10.8905 10.3729 10.618 10.3729C9.69735 10.3729 8.95098 11.1193 8.95098 12.04C8.95098 12.5764 9.2044 13.0537 9.59807 13.3587C9.83899 13.5453 9.96644 13.8977 9.79206 14.1476C9.69398 14.2885 9.59609 14.4294 9.49819 14.5703L9.49208 14.5792L9.48637 14.5874C9.2208 14.9697 8.95531 15.3519 8.68708 15.7324C8.54732 15.9359 8.293 16.0076 8.0617 15.9972C7.17492 16.0335 6.26503 15.7106 5.62659 15.0646C5.47961 14.9181 5.33862 14.7623 5.1974 14.6063L5.19361 14.6021L5.19343 14.6019C4.80947 14.1774 4.4233 13.7505 3.90933 13.4976C3.41266 13.2452 2.82147 13.295 2.32178 13.5141C2.22822 13.5459 2.13771 13.5956 2.04707 13.6453L2.04609 13.6458C1.8527 13.752 1.65862 13.8585 1.43299 13.7936C1.09919 13.7125 0.917212 13.3107 1.03686 12.9856C1.13302 12.7589 1.34777 12.6532 1.55287 12.5523L1.55299 12.5523L1.55317 12.5522C1.58384 12.5372 1.61431 12.5222 1.64413 12.5069C2.32983 12.1704 3.12411 12.0135 3.86912 12.2109C4.55984 12.3905 5.15606 12.833 5.64871 13.3501C5.77004 13.4718 5.88541 13.6013 6.00082 13.731L6.00299 13.7334L6.00356 13.734L6.00358 13.734C6.10687 13.85 6.21023 13.9661 6.31797 14.0768C6.45512 14.2177 6.59477 14.0797 6.48216 13.9185C6.22649 13.5526 5.97182 13.1859 5.71713 12.8192L5.71393 12.8145L5.71253 12.8125C5.29068 12.2052 4.86878 11.5977 4.4422 10.9937C4.35999 10.8592 4.26524 10.7312 4.17039 10.6031L4.16922 10.6015C4.00705 10.3827 3.84468 10.1634 3.74401 9.91088C3.73818 9.89634 3.73078 9.88236 3.72166 9.86958L1.80948 7.18358C1.79465 7.15736 1.7801 7.13163 1.76577 7.1067C1.41186 6.39741 1.50336 5.48145 1.98898 4.86147C2.27937 4.53585 2.61105 4.25415 2.94247 3.97269C3.12052 3.82149 3.29848 3.67034 3.46995 3.51248C3.66097 3.34526 3.85158 3.17742 4.04212 3.00963C4.47636 2.62724 4.91055 2.24491 5.35008 1.86959C5.68344 1.56752 6.02289 1.27219 6.36241 0.976792L6.36379 0.975594L6.36517 0.97439L6.36734 0.97251L6.3723 0.968195C6.54659 0.81655 6.7209 0.664897 6.8944 0.51228ZM11.1737 13.707C11.7875 13.707 12.2851 13.2094 12.2851 12.5956C12.2851 11.9818 11.7875 11.4843 11.1737 11.4843C10.5599 11.4843 10.0624 11.9818 10.0624 12.5956C10.0624 13.2094 10.5599 13.707 11.1737 13.707Z" fill="url(#paint0_linear_15_1623)"/>
<path d="M11.1533 6.3673C9.64874 5.9077 8.0553 5.87848 6.49924 5.96748C5.72764 6.04186 4.93673 6.11891 4.21141 6.41645C3.69572 6.68212 3.72273 7.53623 4.24485 7.77798C4.52233 7.90556 4.79924 7.8241 5.07554 7.7428C5.20771 7.7039 5.33982 7.66505 5.47171 7.64914C6.99051 7.38878 8.55817 7.39543 10.0744 7.67039C10.1864 7.68711 10.299 7.71919 10.4116 7.75134C10.675 7.8265 10.9396 7.902 11.2034 7.78197C11.7796 7.53623 11.7487 6.56921 11.1533 6.3673Z" fill="#279FD7"/>
<path d="M11.8202 5.25598C10.3156 4.79638 8.72217 4.76715 7.16611 4.85615C6.39451 4.93053 5.6036 5.00758 4.87828 5.30513C4.36259 5.57079 4.3896 6.4249 4.91172 6.66665C5.1892 6.79424 5.46611 6.71277 5.74241 6.63147C5.87458 6.59258 6.00669 6.55372 6.13858 6.53781C7.65738 6.27745 9.22504 6.2841 10.7412 6.55906C10.8533 6.57578 10.9658 6.60786 11.0785 6.64001C11.3418 6.71517 11.6065 6.79067 11.8703 6.67064C12.4465 6.4249 12.4156 5.45788 11.8202 5.25598Z" fill="url(#paint1_linear_15_1623)"/>
<defs>
<linearGradient id="paint0_linear_15_1623" x1="5.61685" y1="14.2627" x2="9.56903" y2="4.2948" gradientUnits="userSpaceOnUse">
<stop stop-color="#22B4FA"/>
<stop offset="1" stop-color="#76DAFF"/>
</linearGradient>
<linearGradient id="paint1_linear_15_1623" x1="4.50549" y1="6.73352" x2="9.29871" y2="1.87174" gradientUnits="userSpaceOnUse">
<stop stop-color="#6BD6FE"/>
<stop offset="1" stop-color="white"/>
</linearGradient>
</defs>
</svg>
