<svg width="16" height="16" viewBox="0 0 16 16" fill="none" xmlns="http://www.w3.org/2000/svg">
<g clip-path="url(#clip0_30_716)">
<path d="M8 15.7538C12.4183 15.7538 16 12.2272 16 7.87692C16 3.52662 12.4183 0 8 0C3.58172 0 0 3.52662 0 7.87692C0 12.2272 3.58172 15.7538 8 15.7538Z" fill="url(#paint0_linear_30_716)"/>
<g opacity="0.4">
<path d="M10.1528 5.90011C10.0076 5.89754 9.86756 5.95341 9.7651 6.05479L9.52081 6.29658L9.52558 6.30123L7.32614 8.46683C7.16993 8.62064 7.16993 8.87002 7.32614 9.02381L8.49841 10.1781C8.65462 10.3319 8.90788 10.3319 9.06409 10.1781L11.2696 8.00653L11.27 8.00695L12.7223 6.61688C12.9773 6.3728 12.8062 5.94698 12.4506 5.9407L10.1528 5.90011Z" fill="#279FD7"/>
<path d="M4.89137 8.34438C5.03657 8.34181 5.1766 8.39766 5.27902 8.49906L5.52332 8.74083L5.51857 8.7455L7.71801 10.9111C7.87422 11.0649 7.87422 11.3143 7.71801 11.4681L6.54572 12.6223C6.38953 12.7762 6.13625 12.7762 5.98004 12.6223L3.77457 10.4508L3.77414 10.4512L2.32188 9.06116C2.06689 8.81708 2.23796 8.39125 2.5935 8.38498L4.89137 8.34438Z" fill="#279FD7"/>
</g>
<path d="M10.7528 4.40011C10.6075 4.39754 10.4675 4.45341 10.3651 4.55479L10.1208 4.79658L10.1256 4.80123L7.92612 6.96683C7.76991 7.12064 7.76991 7.37002 7.92612 7.52381L9.09839 8.67807C9.2546 8.83188 9.50785 8.83188 9.66407 8.67807L11.8695 6.50653L11.87 6.50695L13.3223 5.11688C13.5772 4.8728 13.4062 4.44698 13.0506 4.4407L10.7528 4.40011Z" fill="url(#paint1_linear_30_716)"/>
<path d="M5.49135 6.84438C5.63655 6.84181 5.77657 6.89766 5.879 6.99906L6.12329 7.24083L6.11855 7.2455L8.31799 9.41111C8.4742 9.56492 8.4742 9.81427 8.31799 9.96808L7.14569 11.1223C6.98951 11.2762 6.73623 11.2762 6.58001 11.1223L4.37455 8.9508L4.37412 8.95123L2.92185 7.56116C2.66687 7.31708 2.83793 6.89125 3.19348 6.88498L5.49135 6.84438Z" fill="url(#paint2_linear_30_716)"/>
</g>
<defs>
<linearGradient id="paint0_linear_30_716" x1="1.6" y1="15.7588" x2="7.21942" y2="-1.36503" gradientUnits="userSpaceOnUse">
<stop offset="0.190745" stop-color="#22B4FA"/>
<stop offset="0.896724" stop-color="#7DDCFF"/>
</linearGradient>
<linearGradient id="paint1_linear_30_716" x1="7.80896" y1="8.79342" x2="14.1962" y2="6.74526" gradientUnits="userSpaceOnUse">
<stop stop-color="#6BD6FE"/>
<stop offset="1" stop-color="white"/>
</linearGradient>
<linearGradient id="paint2_linear_30_716" x1="2.79993" y1="11.2377" x2="9.18718" y2="9.18954" gradientUnits="userSpaceOnUse">
<stop stop-color="#6BD6FE"/>
<stop offset="1" stop-color="white"/>
</linearGradient>
<clipPath id="clip0_30_716">
<rect width="16" height="16" fill="white"/>
</clipPath>
</defs>
</svg>
