<svg width="16" height="16" viewBox="0 0 16 16" fill="none" xmlns="http://www.w3.org/2000/svg">
<path fill-rule="evenodd" clip-rule="evenodd" d="M0.787231 1.48714C0.787231 1.05239 1.13967 0.699951 1.57442 0.699951H2.624C3.05877 0.699951 3.41119 1.05239 3.41119 1.48714C3.41119 1.62866 3.52592 1.74339 3.66744 1.74338L14.5133 1.74313C15.3632 1.74313 16 2.44801 16 3.25715V11.2497C16 12.0584 15.3634 12.7638 14.5133 12.7638H8.12817C7.54849 12.7638 7.07859 12.2938 7.07859 11.7142C7.07859 11.4243 6.84363 11.1894 6.5538 11.1894H6.02901C5.73917 11.1894 5.50421 11.4243 5.50421 11.7142C5.50421 12.2939 5.03424 12.7638 4.45463 12.7638H4.41119C3.8589 12.7638 3.41119 13.2115 3.41119 13.7638V14.3445C3.41119 14.7793 3.05877 15.1317 2.624 15.1317C2.18925 15.1317 1.83681 14.7793 1.83681 14.3445V11.3872C1.83274 11.3418 1.83066 11.2959 1.83066 11.2497V10.1879C1.83066 9.69793 2.21875 9.30264 2.59234 8.98568C2.93273 8.69689 3.14875 8.26599 3.14875 7.78464C3.14875 7.30328 2.93273 6.87238 2.59234 6.58359C2.21875 6.26664 1.83066 5.87135 1.83066 5.38142V3.25715C1.83066 3.21095 1.83274 3.16508 1.83681 3.11969V2.53672C1.83681 2.3918 1.71934 2.27433 1.57442 2.27433C1.13967 2.27433 0.787231 1.92189 0.787231 1.48714Z" fill="url(#paint0_linear_238_62)"/>
<circle cx="1.04958" cy="7.78469" r="1.04958" fill="url(#paint1_linear_238_62)"/>
<path fill-rule="evenodd" clip-rule="evenodd" d="M8.25354 4.44503C8.25354 4.2606 8.10402 4.11108 7.91959 4.11108C7.73515 4.11108 7.58563 4.2606 7.58563 4.44503V5.14645C7.58563 5.31674 7.45446 5.45484 7.296 5.51716C7.00293 5.6324 6.7694 5.86596 6.65424 6.15906C6.59194 6.31754 6.45384 6.44879 6.2835 6.44879H5.58188C5.39744 6.44879 5.24792 6.59831 5.24792 6.78275C5.24792 6.96718 5.39744 7.1167 5.58188 7.1167H6.24198C6.4264 7.1167 6.57594 7.26621 6.57594 7.45067V8.11858C6.57594 8.30304 6.4264 8.45255 6.24198 8.45255H5.58188C5.39744 8.45255 5.24792 8.60207 5.24792 8.7865C5.24792 8.97094 5.39744 9.12045 5.58188 9.12045H6.28974C6.45823 9.12045 6.59541 9.249 6.65872 9.40513C6.77541 9.69292 7.00671 9.92202 7.296 10.0358C7.45446 10.0981 7.58563 10.2362 7.58563 10.4065V10.7902C7.58563 10.9747 7.73515 11.1242 7.91959 11.1242C8.10402 11.1242 8.25354 10.9747 8.25354 10.7902V10.4482C8.25354 10.2637 8.40305 10.1142 8.58751 10.1142H9.25542C9.43988 10.1142 9.58939 10.2637 9.58939 10.4482V10.7902C9.58939 10.9747 9.73891 11.1242 9.92334 11.1242C10.1078 11.1242 10.2573 10.9747 10.2573 10.7902V10.4005C10.2573 10.232 10.3859 10.0948 10.5421 10.0315C10.8263 9.9163 11.0533 9.68936 11.1686 9.40513C11.2319 9.249 11.369 9.12045 11.5375 9.12045H12.2611C12.4455 9.12045 12.595 8.97094 12.595 8.7865C12.595 8.60207 12.4455 8.45255 12.2611 8.45255H11.5853C11.4009 8.45255 11.2514 8.30304 11.2514 8.11858V7.45067C11.2514 7.26621 11.4009 7.1167 11.5853 7.1167H12.2611C12.4455 7.1167 12.595 6.96718 12.595 6.78275C12.595 6.59831 12.4455 6.44879 12.2611 6.44879H11.5438C11.3734 6.44879 11.2353 6.31754 11.1731 6.15906C11.0593 5.86958 10.8301 5.63815 10.5421 5.52146C10.3859 5.45817 10.2573 5.32099 10.2573 5.15243V4.44503C10.2573 4.2606 10.1078 4.11108 9.92334 4.11108C9.73891 4.11108 9.58939 4.2606 9.58939 4.44503V5.1048C9.58939 5.28927 9.43988 5.43878 9.25542 5.43878H8.58751C8.40305 5.43878 8.25354 5.28927 8.25354 5.1048V4.44503ZM7.25168 9.03373C7.25168 9.05409 7.25321 9.07456 7.25824 9.09432C7.30973 9.29663 7.49306 9.44627 7.7114 9.44627H10.1159C10.3741 9.44627 10.5835 9.23693 10.5835 8.97873V6.57422C10.5835 6.35675 10.4349 6.17393 10.2338 6.12169C10.2137 6.11644 10.1928 6.11484 10.172 6.11484H9.59346C9.59123 6.11484 9.58939 6.11301 9.58939 6.11075C9.58939 6.10852 9.58756 6.10668 9.5853 6.10668H8.25763C8.25537 6.10668 8.25354 6.10852 8.25354 6.11075C8.25354 6.11301 8.2517 6.11484 8.24947 6.11484H7.6553C7.63449 6.11484 7.61361 6.11644 7.59345 6.12169C7.42925 6.16436 7.3001 6.29406 7.25824 6.45863C7.25321 6.47839 7.25168 6.49881 7.25168 6.51922V7.11281C7.25168 7.11496 7.24993 7.1167 7.24777 7.1167C7.2456 7.1167 7.24386 7.11845 7.24386 7.12061V8.44864C7.24386 8.4508 7.2456 8.45255 7.24777 8.45255C7.24993 8.45255 7.25168 8.45428 7.25168 8.45644V9.03373Z" fill="#7FD1AE" stroke="#7FD1AE" stroke-width="0.6"/>
<path fill-rule="evenodd" clip-rule="evenodd" d="M9.3031 3.39547C9.3031 3.21104 9.15358 3.06152 8.96915 3.06152C8.78471 3.06152 8.6352 3.21104 8.6352 3.39547V4.09688C8.6352 4.26718 8.50402 4.40528 8.34556 4.4676C8.05249 4.58284 7.81896 4.8164 7.7038 5.1095C7.6415 5.26798 7.5034 5.39923 7.33306 5.39923H6.63144C6.447 5.39923 6.29749 5.54875 6.29749 5.73318C6.29749 5.91762 6.447 6.06714 6.63144 6.06714H7.29155C7.47596 6.06714 7.6255 6.21665 7.6255 6.40111V7.06901C7.6255 7.25348 7.47596 7.40299 7.29155 7.40299H6.63144C6.447 7.40299 6.29749 7.55251 6.29749 7.73694C6.29749 7.92138 6.447 8.07089 6.63144 8.07089H7.3393C7.50779 8.07089 7.64497 8.19944 7.70828 8.35557C7.82497 8.64336 8.05627 8.87246 8.34556 8.98624C8.50402 9.04855 8.6352 9.18663 8.6352 9.3569V9.74068C8.6352 9.92514 8.78471 10.0747 8.96915 10.0747C9.15358 10.0747 9.3031 9.92514 9.3031 9.74068V9.39859C9.3031 9.21413 9.45261 9.06461 9.63707 9.06461H10.305C10.4894 9.06461 10.639 9.21413 10.639 9.39859V9.74068C10.639 9.92514 10.7885 10.0747 10.9729 10.0747C11.1573 10.0747 11.3069 9.92514 11.3069 9.74068V9.35091C11.3069 9.1824 11.4355 9.04522 11.5916 8.98193C11.8759 8.86674 12.1029 8.63979 12.2181 8.35557C12.2814 8.19944 12.4186 8.07089 12.5871 8.07089H13.3106C13.4951 8.07089 13.6446 7.92138 13.6446 7.73694C13.6446 7.55251 13.4951 7.40299 13.3106 7.40299H12.6349C12.4504 7.40299 12.3009 7.25348 12.3009 7.06901V6.40111C12.3009 6.21665 12.4504 6.06714 12.6349 6.06714H13.3106C13.4951 6.06714 13.6446 5.91762 13.6446 5.73318C13.6446 5.54875 13.4951 5.39923 13.3106 5.39923H12.5933C12.423 5.39923 12.2849 5.26798 12.2226 5.1095C12.1088 4.82002 11.8796 4.58859 11.5916 4.4719C11.4355 4.40861 11.3069 4.27143 11.3069 4.10287V3.39547C11.3069 3.21104 11.1573 3.06152 10.9729 3.06152C10.7885 3.06152 10.639 3.21104 10.639 3.39547V4.05524C10.639 4.23971 10.4894 4.38922 10.305 4.38922H9.63707C9.45261 4.38922 9.3031 4.23971 9.3031 4.05524V3.39547ZM8.30124 7.98417C8.30124 8.00453 8.30277 8.025 8.3078 8.04476C8.35929 8.24707 8.54262 8.39671 8.76096 8.39671H11.1655C11.4237 8.39671 11.633 8.18737 11.633 7.92917V5.52466C11.633 5.30718 11.4845 5.12437 11.2834 5.07213C11.2632 5.06688 11.2424 5.06528 11.2215 5.06528H10.643C10.6408 5.06528 10.639 5.06345 10.639 5.06119C10.639 5.05896 10.6371 5.05712 10.6349 5.05712H9.30719C9.30493 5.05712 9.3031 5.05896 9.3031 5.06119C9.3031 5.06345 9.30126 5.06528 9.29903 5.06528H8.70486C8.68405 5.06528 8.66317 5.06688 8.64301 5.07213C8.47881 5.1148 8.34966 5.2445 8.3078 5.40907C8.30277 5.42883 8.30124 5.44925 8.30124 5.46966V6.06325C8.30124 6.0654 8.29949 6.06714 8.29733 6.06714C8.29516 6.06714 8.29342 6.06889 8.29342 6.07105V7.39908C8.29342 7.40123 8.29516 7.40299 8.29733 7.40299C8.29949 7.40299 8.30124 7.40472 8.30124 7.40688V7.98417Z" fill="url(#paint2_linear_238_62)" stroke="url(#paint3_linear_238_62)" stroke-width="0.6"/>
<defs>
<linearGradient id="paint0_linear_238_62" x1="2.68883" y1="13.3281" x2="16.8446" y2="9.88473" gradientUnits="userSpaceOnUse">
<stop stop-color="#62E8AF"/>
<stop offset="1" stop-color="#B3FBDC"/>
</linearGradient>
<linearGradient id="paint1_linear_238_62" x1="0.262396" y1="8.57194" x2="2.22668" y2="8.11865" gradientUnits="userSpaceOnUse">
<stop stop-color="#62E8AF"/>
<stop offset="1" stop-color="#B3FBDC"/>
</linearGradient>
<linearGradient id="paint2_linear_238_62" x1="6.29749" y1="10.0747" x2="8.27676" y2="1.78057" gradientUnits="userSpaceOnUse">
<stop stop-color="#B3FBDC"/>
<stop offset="1" stop-color="white"/>
</linearGradient>
<linearGradient id="paint3_linear_238_62" x1="6.29749" y1="10.0747" x2="8.27676" y2="1.78057" gradientUnits="userSpaceOnUse">
<stop stop-color="#B3FBDC"/>
<stop offset="1" stop-color="white"/>
</linearGradient>
</defs>
</svg>
