<svg width="16" height="16" viewBox="0 0 16 16" fill="none" xmlns="http://www.w3.org/2000/svg">
<g clip-path="url(#clip0_92_293)">
<path fill-rule="evenodd" clip-rule="evenodd" d="M13 15C13 15.552 12.552 16 12 16H3.992C1.787 16 0 14.213 0 12.008C0 9.643 0 6.357 0 3.992C0 2.933 0.421001 1.918 1.169 1.169C1.918 0.421 2.933 0 3.992 0C6.357 0 9.643 0 12.008 0C14.213 0 16 1.787 16 3.992C16 7.249 16 12 16 12C16 12.552 15.552 13 15 13C13.896 13 13 13.896 13 15ZM14 15C14 14.448 14.448 14 15 14C15.552 14 16 14.448 16 15C16 15.552 15.552 16 15 16C14.448 16 14 15.552 14 15Z" fill="url(#paint0_linear_92_293)"/>
<path d="M9.08854 11.4778C9.21667 11.3782 9.33314 11.2617 9.56534 11.0296L12.4633 8.13078C12.5337 8.06125 12.5014 7.94038 12.4084 7.90745C11.9549 7.74938 11.5432 7.49045 11.2043 7.15012C10.8641 6.81129 10.6051 6.3996 10.4471 5.94612C10.4141 5.8531 10.2933 5.82088 10.2237 5.89119L7.32421 8.78918C7.09207 9.02138 6.97561 9.13785 6.87601 9.26598C6.75807 9.41758 6.65627 9.58092 6.57427 9.75378C6.50467 9.90025 6.45267 10.057 6.34867 10.369L6.21394 10.7718L6.00007 11.4126L5.80014 12.0131C5.77521 12.0884 5.77167 12.1691 5.79001 12.2463C5.80827 12.3234 5.84767 12.394 5.90374 12.45C5.95981 12.5061 6.03034 12.5455 6.10747 12.5638C6.18467 12.5821 6.26534 12.5786 6.34067 12.5536L6.94121 12.3537L7.582 12.1398L7.98481 12.0051C8.29681 11.9011 8.45354 11.8498 8.60001 11.7795C8.77287 11.6968 8.93767 11.5964 9.08854 11.4778ZM13.3707 7.22338C13.522 7.07725 13.6426 6.90245 13.7256 6.70924C13.8086 6.51601 13.8523 6.30818 13.8541 6.09789C13.8559 5.88759 13.8159 5.67904 13.7363 5.48439C13.6566 5.28974 13.5391 5.1129 13.3903 4.96416C13.2417 4.81544 13.0649 4.6978 12.8703 4.61811C12.6756 4.53843 12.4671 4.4983 12.2568 4.50006C12.0465 4.50181 11.8387 4.54542 11.6454 4.62835C11.4521 4.71127 11.2773 4.83184 11.1311 4.98304L11.0381 5.07678C10.9938 5.1205 10.9607 5.17434 10.9419 5.23368C10.923 5.293 10.9188 5.35604 10.9297 5.41734C10.9444 5.4957 10.97 5.61142 11.0176 5.74838C11.1128 6.02302 11.293 6.38335 11.6321 6.72244C11.9059 6.99852 12.2391 7.20865 12.6061 7.33692C12.7438 7.38452 12.8588 7.41012 12.9372 7.42478C12.9985 7.43565 13.0615 7.43145 13.1208 7.41258C13.1801 7.39372 13.234 7.36072 13.2777 7.31638L13.3707 7.22338Z" fill="#D49F34"/>
<path fill-rule="evenodd" clip-rule="evenodd" d="M2.30005 5.98428C2.30005 5.8386 2.35792 5.69889 2.46093 5.59588C2.56394 5.49287 2.70365 5.435 2.84933 5.435H7.60982C7.75548 5.435 7.89522 5.49287 7.99822 5.59588C8.10122 5.69889 8.15908 5.8386 8.15908 5.98428C8.15908 6.12996 8.10122 6.26967 7.99822 6.37268C7.89522 6.4757 7.75548 6.53356 7.60982 6.53356H2.84933C2.70365 6.53356 2.56394 6.4757 2.46093 6.37268C2.35792 6.26967 2.30005 6.12996 2.30005 5.98428ZM2.30005 8.9138C2.30005 8.76814 2.35792 8.6284 2.46093 8.5254C2.56394 8.4224 2.70365 8.36454 2.84933 8.36454H5.04647C5.19215 8.36454 5.33188 8.4224 5.43488 8.5254C5.53788 8.6284 5.59575 8.76814 5.59575 8.9138C5.59575 9.05947 5.53788 9.1992 5.43488 9.3022C5.33188 9.4052 5.19215 9.46307 5.04647 9.46307H2.84933C2.70365 9.46307 2.56394 9.4052 2.46093 9.3022C2.35792 9.1992 2.30005 9.05947 2.30005 8.9138ZM2.30005 11.8433C2.30005 11.6976 2.35792 11.5579 2.46093 11.4549C2.56394 11.3519 2.70365 11.294 2.84933 11.294H3.9479C4.09358 11.294 4.23329 11.3519 4.3363 11.4549C4.43931 11.5579 4.49718 11.6976 4.49718 11.8433C4.49718 11.989 4.43931 12.1287 4.3363 12.2317C4.23329 12.3347 4.09358 12.3926 3.9479 12.3926H2.84933C2.70365 12.3926 2.56394 12.3347 2.46093 12.2317C2.35792 12.1287 2.30005 11.989 2.30005 11.8433Z" fill="#D49F34"/>
<path d="M10.0885 10.4778C10.2167 10.3782 10.3331 10.2617 10.5653 10.0296L13.4633 7.13078C13.5337 7.06125 13.5014 6.94038 13.4084 6.90745C12.9549 6.74938 12.5432 6.49045 12.2043 6.15012C11.8641 5.81129 11.6051 5.3996 11.4471 4.94612C11.4141 4.8531 11.2933 4.82088 11.2237 4.89119L8.32421 7.78918C8.09207 8.02138 7.97561 8.13785 7.87601 8.26598C7.75807 8.41758 7.65627 8.58092 7.57427 8.75378C7.50467 8.90025 7.45267 9.05698 7.34867 9.36898L7.21394 9.77178L7.00007 10.4126L6.80014 11.0131C6.77521 11.0884 6.77167 11.1691 6.79001 11.2463C6.80827 11.3234 6.84767 11.394 6.90374 11.45C6.95981 11.5061 7.03034 11.5455 7.10747 11.5638C7.18467 11.5821 7.26534 11.5786 7.34067 11.5536L7.94121 11.3537L8.582 11.1398L8.98481 11.0051C9.29681 10.9011 9.45354 10.8498 9.60001 10.7795C9.77287 10.6968 9.93767 10.5964 10.0885 10.4778ZM14.3707 6.22338C14.522 6.07725 14.6426 5.90245 14.7256 5.70924C14.8086 5.51601 14.8523 5.30818 14.8541 5.09789C14.8559 4.88759 14.8159 4.67904 14.7363 4.48439C14.6566 4.28974 14.5391 4.1129 14.3903 3.96416C14.2417 3.81544 14.0649 3.6978 13.8703 3.61811C13.6756 3.53843 13.4671 3.4983 13.2568 3.50006C13.0465 3.50181 12.8387 3.54542 12.6454 3.62835C12.4521 3.71127 12.2773 3.83184 12.1311 3.98304L12.0381 4.07678C11.9938 4.1205 11.9607 4.17434 11.9419 4.23368C11.923 4.293 11.9188 4.35604 11.9297 4.41734C11.9444 4.4957 11.97 4.61142 12.0176 4.74838C12.1128 5.02302 12.293 5.38335 12.6321 5.72244C12.9059 5.99852 13.2391 6.20865 13.6061 6.33692C13.7438 6.38452 13.8588 6.41012 13.9372 6.42478C13.9985 6.43565 14.0615 6.43145 14.1208 6.41258C14.1801 6.39372 14.234 6.36072 14.2777 6.31638L14.3707 6.22338Z" fill="url(#paint1_linear_92_293)"/>
<path fill-rule="evenodd" clip-rule="evenodd" d="M3.30005 4.98428C3.30005 4.8386 3.35792 4.69889 3.46093 4.59588C3.56394 4.49287 3.70365 4.435 3.84933 4.435H8.60982C8.75548 4.435 8.89522 4.49287 8.99822 4.59588C9.10122 4.69889 9.15908 4.8386 9.15908 4.98428C9.15908 5.12996 9.10122 5.26967 8.99822 5.37268C8.89522 5.4757 8.75548 5.53356 8.60982 5.53356H3.84933C3.70365 5.53356 3.56394 5.4757 3.46093 5.37268C3.35792 5.26967 3.30005 5.12996 3.30005 4.98428ZM3.30005 7.9138C3.30005 7.76814 3.35792 7.6284 3.46093 7.5254C3.56394 7.4224 3.70365 7.36454 3.84933 7.36454H6.04647C6.19215 7.36454 6.33188 7.4224 6.43488 7.5254C6.53788 7.6284 6.59575 7.76814 6.59575 7.9138C6.59575 8.05947 6.53788 8.1992 6.43488 8.3022C6.33188 8.4052 6.19215 8.46307 6.04647 8.46307H3.84933C3.70365 8.46307 3.56394 8.4052 3.46093 8.3022C3.35792 8.1992 3.30005 8.05947 3.30005 7.9138ZM3.30005 10.8433C3.30005 10.6976 3.35792 10.5579 3.46093 10.4549C3.56394 10.3519 3.70365 10.294 3.84933 10.294H4.9479C5.09358 10.294 5.23329 10.3519 5.3363 10.4549C5.43931 10.5579 5.49718 10.6976 5.49718 10.8433C5.49718 10.989 5.43931 11.1287 5.3363 11.2317C5.23329 11.3347 5.09358 11.3926 4.9479 11.3926H3.84933C3.70365 11.3926 3.56394 11.3347 3.46093 11.2317C3.35792 11.1287 3.30005 10.989 3.30005 10.8433Z" fill="url(#paint2_linear_92_293)"/>
</g>
<defs>
<linearGradient id="paint0_linear_92_293" x1="3" y1="14.9988" x2="12.9991" y2="2.999" gradientUnits="userSpaceOnUse">
<stop stop-color="#FF8860"/>
<stop offset="1" stop-color="#FBD92C"/>
</linearGradient>
<linearGradient id="paint1_linear_92_293" x1="8.79737" y1="9.55651" x2="12.835" y2="5.51866" gradientUnits="userSpaceOnUse">
<stop stop-color="#FBD92C"/>
<stop offset="1" stop-color="white"/>
</linearGradient>
<linearGradient id="paint2_linear_92_293" x1="4.76481" y1="9.6532" x2="8.19287" y2="6.76642" gradientUnits="userSpaceOnUse">
<stop stop-color="#FBD92C"/>
<stop offset="1" stop-color="white"/>
</linearGradient>
<clipPath id="clip0_92_293">
<rect width="16" height="16" fill="white"/>
</clipPath>
</defs>
</svg>
