<svg width="16" height="16" viewBox="0 0 16 16" fill="none" xmlns="http://www.w3.org/2000/svg">
<path fill-rule="evenodd" clip-rule="evenodd" d="M7.25 1C5.31712 1 3.75 2.56712 3.75 4.5V7.125C3.75 7.608 4.142 8 4.625 8C5.108 8 5.5 7.608 5.5 7.125V4.5C5.5 3.53312 6.28312 2.75 7.25 2.75C8.21688 2.75 9 3.53312 9 4.5L9.00175 4.55337C9.01487 4.83687 9.13562 5.02325 9.28437 5.14487C9.44012 5.2875 9.6475 5.375 9.875 5.375C9.875 5.375 10.75 5.32425 10.75 4.5C10.75 2.56712 9.18288 1 7.25 1Z" fill="url(#paint0_linear_8_159)"/>
<path fill-rule="evenodd" clip-rule="evenodd" d="M2 8.85749C2 7.41724 3.16725 6.24999 4.6075 6.24999C5.1185 6.24999 9.89075 6.24999 9.89075 6.24999C11.3319 6.24999 12.5 7.41812 12.5 8.85924C12.5 9.93549 12.5 11.3145 12.5 12.3907C12.5 13.0829 12.2252 13.747 11.7361 14.2361C11.247 14.7252 10.5829 15 9.89075 15H5.5C5.017 15 4.625 14.608 4.625 14.125C4.625 13.159 3.841 12.375 2.875 12.375C2.392 12.375 2 11.983 2 11.5V8.85749ZM3.75 14.125C3.75 14.608 3.358 15 2.875 15C2.392 15 2 14.608 2 14.125C2 13.642 2.392 13.25 2.875 13.25C3.358 13.25 3.75 13.642 3.75 14.125ZM6.375 9.74999V11.5C6.375 11.983 6.767 12.375 7.25 12.375C7.733 12.375 8.125 11.983 8.125 11.5V9.74999C8.125 9.26699 7.733 8.87499 7.25 8.87499C6.767 8.87499 6.375 9.26699 6.375 9.74999ZM12.5 6.24999H13.375C13.858 6.24999 14.25 5.85799 14.25 5.37499C14.25 4.89199 13.858 4.49999 13.375 4.49999H12.5C12.017 4.49999 11.625 4.89199 11.625 5.37499C11.625 5.85799 12.017 6.24999 12.5 6.24999ZM13.1186 3.36861L13.9936 2.49361C14.3349 2.15236 14.3349 1.59761 13.9936 1.25636C13.6524 0.915115 13.0976 0.915115 12.7564 1.25636L11.8814 2.13136C11.5401 2.47261 11.5401 3.02736 11.8814 3.36861C12.2226 3.70986 12.7774 3.70986 13.1186 3.36861Z" fill="url(#paint1_linear_8_159)"/>
<path fill-rule="evenodd" clip-rule="evenodd" d="M5.5 10.625V12.375C5.5 12.858 5.892 13.25 6.375 13.25C6.858 13.25 7.25 12.858 7.25 12.375V10.625C7.25 10.142 6.858 9.75 6.375 9.75C5.892 9.75 5.5 10.142 5.5 10.625Z" fill="#64C49C"/>
<path fill-rule="evenodd" clip-rule="evenodd" d="M6.375 9.75V11.5C6.375 11.983 6.767 12.375 7.25 12.375C7.733 12.375 8.125 11.983 8.125 11.5V9.75C8.125 9.267 7.733 8.875 7.25 8.875C6.767 8.875 6.375 9.267 6.375 9.75Z" fill="url(#paint2_linear_8_159)"/>
<path fill-rule="evenodd" clip-rule="evenodd" d="M12.5 6.25H13.375C13.858 6.25 14.25 5.858 14.25 5.375C14.25 4.892 13.858 4.5 13.375 4.5H12.5C12.017 4.5 11.625 4.892 11.625 5.375C11.625 5.858 12.017 6.25 12.5 6.25Z" fill="url(#paint3_linear_8_159)"/>
<path fill-rule="evenodd" clip-rule="evenodd" d="M13.1186 3.36868L13.9936 2.49368C14.3349 2.15243 14.3349 1.59768 13.9936 1.25643C13.6524 0.915176 13.0976 0.915176 12.7564 1.25643L11.8814 2.13143C11.5401 2.47268 11.5401 3.02743 11.8814 3.36868C12.2226 3.70993 12.7774 3.70993 13.1186 3.36868Z" fill="url(#paint4_linear_8_159)"/>
<defs>
<linearGradient id="paint0_linear_8_159" x1="4.625" y1="7.125" x2="9" y2="1.875" gradientUnits="userSpaceOnUse">
<stop stop-color="#62E8AF"/>
<stop offset="1" stop-color="#B4FBDD"/>
</linearGradient>
<linearGradient id="paint1_linear_8_159" x1="2.875" y1="14.125" x2="11.625" y2="7.12499" gradientUnits="userSpaceOnUse">
<stop stop-color="#62E8AF"/>
<stop offset="1" stop-color="#B4FBDD"/>
</linearGradient>
<linearGradient id="paint2_linear_8_159" x1="6.375" y1="12.375" x2="8.125" y2="8.875" gradientUnits="userSpaceOnUse">
<stop stop-color="#B4FBDD"/>
<stop offset="1" stop-color="white"/>
</linearGradient>
<linearGradient id="paint3_linear_8_159" x1="11.625" y1="6.25" x2="14.25" y2="4.5" gradientUnits="userSpaceOnUse">
<stop stop-color="#62E8AF"/>
<stop offset="1" stop-color="#B4FBDD"/>
</linearGradient>
<linearGradient id="paint4_linear_8_159" x1="11.625" y1="3.62505" x2="14.25" y2="1.00005" gradientUnits="userSpaceOnUse">
<stop stop-color="#62E8AF"/>
<stop offset="1" stop-color="#B4FBDD"/>
</linearGradient>
</defs>
</svg>
