<svg width="16" height="16" viewBox="0 0 16 16" fill="none" xmlns="http://www.w3.org/2000/svg">
<path fill-rule="evenodd" clip-rule="evenodd" d="M5.54006 1.33317C6.39368 0.479556 7.55142 0 8.75862 0C9.96582 0 11.1236 0.479556 11.9772 1.33317C12.8308 2.18679 13.3103 3.34452 13.3103 4.55172V5.47316C13.3103 5.5427 13.3369 5.60954 13.3832 5.66135C14.3994 6.7965 14.9635 8.26703 14.9655 9.7931C14.9655 10.6082 14.805 11.4153 14.493 12.1684C14.1811 12.9214 13.7239 13.6057 13.1476 14.182C12.5712 14.7584 11.887 15.2156 11.1339 15.5275C10.3809 15.8394 9.57371 16 8.75862 16C7.68745 16 6.64483 15.7231 5.72645 15.209C5.27451 14.956 5.20599 14.367 5.28462 13.855C5.30154 13.7449 5.31031 13.6321 5.31031 13.5172C5.31031 12.2984 4.32225 11.3103 3.10341 11.3103C2.90084 11.3103 2.70729 11.1889 2.66822 10.9902C2.59127 10.5987 2.55172 10.1979 2.55172 9.7931C2.55454 8.26814 3.11854 6.79892 4.13401 5.66458C4.18039 5.61277 4.2069 5.54593 4.2069 5.47639V4.55172C4.2069 3.34452 4.68646 2.18679 5.54006 1.33317ZM11.1888 4.08557C11.3891 4.17114 11.6137 4.0171 11.5592 3.80626C11.2368 2.55735 10.1193 1.65517 8.75862 1.65517C7.39812 1.65517 6.28072 2.5571 5.95812 3.80574C5.90364 4.01655 6.12819 4.17065 6.32844 4.08513C7.09509 3.75765 7.92152 3.58728 8.75862 3.58621C9.59575 3.58742 10.4222 3.75796 11.1888 4.08557ZM3.10345 14.6207C3.71287 14.6207 4.2069 14.1267 4.2069 13.5172C4.2069 12.9078 3.71287 12.4138 3.10345 12.4138C2.49403 12.4138 2 12.9078 2 13.5172C2 14.1267 2.49403 14.6207 3.10345 14.6207Z" fill="url(#paint0_linear_44_109)"/>
<path d="M7.90343 5.79309C7.75108 5.79309 7.62757 5.91659 7.62757 6.06895V6.62068C7.62757 6.77304 7.75108 6.89654 7.90343 6.89654H8.1793C8.33165 6.89654 8.45516 6.77304 8.45516 6.62068V6.06895C8.45516 5.91659 8.33165 5.79309 8.1793 5.79309H7.90343ZM5.6028 7.04509C5.49508 6.93745 5.32045 6.93748 5.21276 7.04517L5.01759 7.24035C4.90989 7.34804 4.90986 7.52266 5.0175 7.63039L5.21268 7.82575C5.3204 7.93356 5.49513 7.93361 5.60291 7.82584L5.79825 7.6305C5.90603 7.52272 5.90597 7.34799 5.79817 7.24026L5.6028 7.04509ZM10.87 7.04517C10.7623 6.93748 10.5877 6.93745 10.4799 7.04509L10.2846 7.24026C10.1768 7.34799 10.1767 7.52272 10.2845 7.6305L10.4798 7.82584C10.5876 7.93361 10.7623 7.93356 10.8701 7.82575L11.0652 7.63039C11.1729 7.52266 11.1728 7.34804 11.0651 7.24035L10.87 7.04517ZM4.04136 9.65516C3.88901 9.65516 3.7655 9.77866 3.7655 9.93102V10.2069C3.7655 10.3592 3.88901 10.4827 4.04136 10.4827H4.59309C4.74545 10.4827 4.86895 10.3592 4.86895 10.2069V9.93102C4.86895 9.77866 4.74545 9.65516 4.59309 9.65516H4.04136ZM11.4896 9.65516C11.3373 9.65516 11.2138 9.77866 11.2138 9.93102V10.2069C11.2138 10.3592 11.3373 10.4827 11.4896 10.4827H12.0414C12.1937 10.4827 12.3172 10.3592 12.3172 10.2069V9.93102C12.3172 9.77866 12.1937 9.65516 12.0414 9.65516H11.4896ZM5.60291 12.3121C5.49513 12.2043 5.3204 12.2043 5.21268 12.3122L5.0175 12.5075C4.90986 12.6152 4.90989 12.7899 5.01759 12.8976L5.21276 13.0927C5.32045 13.2004 5.49508 13.2005 5.6028 13.0928L5.79817 12.8976C5.90597 12.7899 5.90603 12.6152 5.79825 12.5074L5.60291 12.3121ZM10.8701 12.3122C10.7623 12.2043 10.5876 12.2043 10.4798 12.3121L10.2845 12.5074C10.1767 12.6152 10.1768 12.7899 10.2846 12.8976L10.4799 13.0928C10.5877 13.2005 10.7623 13.2004 10.87 13.0927L11.0651 12.8976C11.1728 12.7899 11.1729 12.6152 11.0652 12.5075L10.8701 12.3122ZM7.90343 13.2414C7.75108 13.2414 7.62757 13.3649 7.62757 13.5172V14.069C7.62757 14.2213 7.75108 14.3448 7.90343 14.3448H8.1793C8.33165 14.3448 8.45516 14.2213 8.45516 14.069V13.5172C8.45516 13.3649 8.33165 13.2414 8.1793 13.2414H7.90343Z" fill="#7FD1AE"/>
<path d="M9.99996 10.3448C9.99996 10.6527 9.9393 10.9577 9.82148 11.2422C9.70363 11.5266 9.53091 11.7851 9.31317 12.0029C9.09543 12.2206 8.83695 12.3933 8.55245 12.5112C8.26796 12.629 7.96305 12.6897 7.65513 12.6897C7.34721 12.6897 7.0423 12.629 6.75781 12.5112C6.47331 12.3933 6.21483 12.2206 5.99709 12.0029C5.77935 11.7851 5.60663 11.5266 5.48879 11.2422C5.37096 10.9577 5.3103 10.6527 5.3103 10.3448C5.3103 10.0369 5.37096 9.732 5.48879 9.4475C5.60663 9.16301 5.77935 8.90452 5.99709 8.68679C6.21483 8.46905 6.47331 8.29633 6.75781 8.17848C7.0423 8.06066 7.34721 8 7.65513 8C7.96305 8 8.26796 8.06066 8.55245 8.17848C8.83695 8.29633 9.09543 8.46905 9.31317 8.68679C9.53091 8.90452 9.70363 9.16301 9.82148 9.4475C9.9393 9.732 9.99996 10.0369 9.99996 10.3448Z" fill="#7FD1AE"/>
<path d="M8.62072 5.51721C8.46836 5.51721 8.34486 5.64072 8.34486 5.79307V6.3448C8.34486 6.49716 8.46836 6.62066 8.62072 6.62066H8.89658C9.04894 6.62066 9.17244 6.49716 9.17244 6.3448V5.79307C9.17244 5.64072 9.04894 5.51721 8.89658 5.51721H8.62072ZM6.32008 6.76921C6.21236 6.66157 6.03774 6.6616 5.93004 6.76929L5.73487 6.96447C5.62717 7.07216 5.62715 7.24678 5.73479 7.35451L5.92996 7.54987C6.03768 7.65768 6.21242 7.65774 6.3202 7.54996L6.51553 7.35462C6.62331 7.24684 6.62326 7.07211 6.51545 6.96438L6.32008 6.76921ZM11.5873 6.76929C11.4796 6.6616 11.3049 6.66157 11.1972 6.76921L11.0018 6.96438C10.894 7.07211 10.894 7.24684 11.0018 7.35462L11.1971 7.54996C11.3049 7.65774 11.4796 7.65768 11.5873 7.54987L11.7825 7.35451C11.8902 7.24678 11.8901 7.07216 11.7824 6.96447L11.5873 6.76929ZM4.75865 9.37928C4.60629 9.37928 4.48279 9.50278 4.48279 9.65514V9.93101C4.48279 10.0834 4.60629 10.2069 4.75865 10.2069H5.31037C5.46273 10.2069 5.58624 10.0834 5.58624 9.93101V9.65514C5.58624 9.50278 5.46273 9.37928 5.31037 9.37928H4.75865ZM12.2069 9.37928C12.0546 9.37928 11.9311 9.50278 11.9311 9.65514V9.93101C11.9311 10.0834 12.0546 10.2069 12.2069 10.2069H12.7587C12.911 10.2069 13.0345 10.0834 13.0345 9.93101V9.65514C13.0345 9.50278 12.911 9.37928 12.7587 9.37928H12.2069ZM6.3202 12.0362C6.21242 11.9284 6.03768 11.9285 5.92996 12.0363L5.73479 12.2316C5.62715 12.3394 5.62717 12.514 5.73487 12.6217L5.93004 12.8169C6.03774 12.9246 6.21236 12.9246 6.32008 12.8169L6.51545 12.6218C6.62326 12.514 6.62331 12.3393 6.51553 12.2315L6.3202 12.0362ZM11.5873 12.0363C11.4796 11.9285 11.3049 11.9284 11.1971 12.0362L11.0018 12.2315C10.894 12.3393 10.894 12.514 11.0018 12.6218L11.1972 12.8169C11.3049 12.9246 11.4796 12.9246 11.5873 12.8169L11.7824 12.6217C11.8901 12.514 11.8902 12.3394 11.7825 12.2316L11.5873 12.0363ZM8.62072 12.9655C8.46836 12.9655 8.34486 13.089 8.34486 13.2413V13.7931C8.34486 13.9454 8.46836 14.0689 8.62072 14.0689H8.89658C9.04894 14.0689 9.17244 13.9454 9.17244 13.7931V13.2413C9.17244 13.089 9.04894 12.9655 8.89658 12.9655H8.62072Z" fill="url(#paint1_linear_44_109)"/>
<path d="M11.1035 9.79313C11.1035 10.101 11.0428 10.406 10.925 10.6905C10.8071 10.975 10.6344 11.2334 10.4167 11.4512C10.1989 11.6689 9.94047 11.8416 9.65597 11.9595C9.37147 12.0773 9.06656 12.138 8.75865 12.138C8.45073 12.138 8.14582 12.0773 7.86132 11.9595C7.57683 11.8416 7.31834 11.6689 7.1006 11.4512C6.88287 11.2334 6.71015 10.975 6.5923 10.6905C6.47448 10.406 6.41382 10.101 6.41382 9.79313C6.41382 9.48521 6.47448 9.1803 6.5923 8.89581C6.71015 8.61131 6.88287 8.35283 7.1006 8.13509C7.31834 7.91735 7.57683 7.74463 7.86132 7.62679C8.14582 7.50897 8.45073 7.4483 8.75865 7.4483C9.06656 7.4483 9.37147 7.50897 9.65597 7.62679C9.94047 7.74463 10.1989 7.91735 10.4167 8.13509C10.6344 8.35283 10.8071 8.61131 10.925 8.89581C11.0428 9.1803 11.1035 9.48521 11.1035 9.79313Z" fill="url(#paint2_linear_44_109)"/>
<defs>
<linearGradient id="paint0_linear_44_109" x1="3.62069" y1="14.0004" x2="15.9675" y2="11.6916" gradientUnits="userSpaceOnUse">
<stop stop-color="#62E8AF"/>
<stop offset="1" stop-color="#B3FBDC"/>
</linearGradient>
<linearGradient id="paint1_linear_44_109" x1="4.48279" y1="14.0689" x2="6.998" y2="4.00808" gradientUnits="userSpaceOnUse">
<stop stop-color="#B3FBDC"/>
<stop offset="1" stop-color="white"/>
</linearGradient>
<linearGradient id="paint2_linear_44_109" x1="6.41382" y1="12.138" x2="7.79313" y2="6.62072" gradientUnits="userSpaceOnUse">
<stop stop-color="#B3FBDC"/>
<stop offset="1" stop-color="white"/>
</linearGradient>
</defs>
</svg>
