<svg width="16" height="16" viewBox="0 0 16 16" fill="none" xmlns="http://www.w3.org/2000/svg">
<g clip-path="url(#clip0_44_171)">
<path fill-rule="evenodd" clip-rule="evenodd" d="M16 15C16 14.448 15.552 14 15 14C14.448 14 14 14.448 14 15C14 15.552 14.448 16 15 16C15.552 16 16 15.552 16 15ZM13 15C13 13.896 13.896 13 15 13C15.552 13 16 12.552 16 12C16 12 16 7.216 16 3.958C16 1.772 14.228 0 12.042 0H3.958C1.772 0 0 1.772 0 3.958V12.042C0 14.228 1.772 16 3.958 16C7.216 16 12 16 12 16C12.552 16 13 15.552 13 15Z" fill="url(#paint0_linear_44_171)"/>
<path d="M5.21154 5.25513C5.16526 5.17738 5.09954 5.11298 5.02089 5.06825C4.94219 5.02353 4.85329 5 4.76279 5C4.67229 5 4.58334 5.02353 4.50466 5.06825C4.42599 5.11298 4.36029 5.17738 4.31401 5.25513L1.55468 10.7738C1.52462 10.8328 1.50654 10.8972 1.50147 10.9632C1.4964 11.0292 1.50446 11.0955 1.52517 11.1584C1.54587 11.2213 1.57883 11.2795 1.62212 11.3296C1.66542 11.3797 1.7182 11.4207 1.77743 11.4503C1.83666 11.4799 1.90116 11.4975 1.96721 11.502C2.03326 11.5066 2.09959 11.4981 2.16231 11.4768C2.22504 11.4556 2.28294 11.4223 2.33271 11.3786C2.38246 11.3349 2.42306 11.2818 2.45221 11.2223L3.21486 9.693C3.27599 9.5704 3.40119 9.49295 3.53819 9.49295H5.98314C6.11996 9.49295 6.24509 9.57028 6.30629 9.69263L7.07131 11.2223C7.10046 11.2818 7.14109 11.3349 7.19084 11.3786C7.24059 11.4223 7.29849 11.4556 7.36127 11.4768C7.42397 11.4981 7.49027 11.5066 7.55632 11.502C7.62239 11.4975 7.68689 11.4799 7.74609 11.4503C7.80536 11.4207 7.85814 11.3797 7.90141 11.3296C7.94471 11.2795 7.97769 11.2213 7.99839 11.1584C8.01909 11.0955 8.02714 11.0292 8.02209 10.9632C8.01699 10.8972 7.99894 10.8328 7.96887 10.7738L5.21154 5.25513ZM4.40076 8.48957C4.13221 8.48957 3.95754 8.20697 4.07759 7.96677L4.43701 7.24753C4.57009 6.98123 4.95011 6.98115 5.08331 7.24743L5.44309 7.96665C5.56329 8.20685 5.38861 8.48957 5.11999 8.48957H4.40076Z" fill="#279FD7" stroke="#279FD7" stroke-width="0.4"/>
<path d="M12.3688 7.32983C12.257 7.32983 12.1498 7.37423 12.0708 7.45328C11.9917 7.53233 11.9473 7.63956 11.9473 7.75138C11.9473 7.75586 11.9421 7.75838 11.9386 7.75568C11.5775 7.48091 11.1366 7.33138 10.6827 7.32983C10.1237 7.32983 9.58758 7.55188 9.19228 7.94716C8.79703 8.34241 8.57495 8.87853 8.57495 9.43751C8.57495 9.99653 8.79703 10.5326 9.19228 10.9279C9.58758 11.3232 10.1237 11.5453 10.6827 11.5453C11.1366 11.5437 11.5775 11.3942 11.9386 11.1194C11.9421 11.1167 11.9473 11.1192 11.9473 11.1237C11.9473 11.2355 11.9917 11.3427 12.0708 11.4218C12.1498 11.5009 12.257 11.5453 12.3688 11.5453C12.4807 11.5453 12.5878 11.5009 12.6669 11.4218C12.746 11.3427 12.7904 11.2355 12.7904 11.1237V7.75138C12.7904 7.63956 12.746 7.53233 12.6669 7.45328C12.5878 7.37423 12.4807 7.32983 12.3688 7.32983ZM10.6827 10.7021C10.4326 10.7021 10.188 10.628 9.98008 10.489C9.77213 10.3501 9.61 10.1526 9.5143 9.92146C9.4186 9.69043 9.39355 9.43616 9.44233 9.19083C9.49115 8.94551 9.6116 8.72018 9.78845 8.54328C9.9653 8.36643 10.1906 8.24598 10.436 8.19721C10.6813 8.14841 10.9356 8.17343 11.1666 8.26918C11.3977 8.36488 11.5952 8.52698 11.7342 8.73496C11.8731 8.94291 11.9473 9.18741 11.9473 9.43751C11.9473 9.77293 11.8141 10.0946 11.5769 10.3318C11.3397 10.5689 11.0181 10.7021 10.6827 10.7021Z" fill="#279FD7" stroke="#279FD7" stroke-width="0.4"/>
<path d="M6.21154 4.25513C6.16526 4.17738 6.09954 4.11298 6.02089 4.06825C5.94219 4.02353 5.85329 4 5.76279 4C5.67229 4 5.58334 4.02353 5.50466 4.06825C5.42599 4.11298 5.36029 4.17738 5.31401 4.25513L2.55468 9.7738C2.52462 9.8328 2.50654 9.89715 2.50147 9.96318C2.4964 10.0292 2.50446 10.0955 2.52517 10.1584C2.54587 10.2213 2.57883 10.2795 2.62212 10.3296C2.66542 10.3797 2.7182 10.4207 2.77743 10.4503C2.83666 10.4799 2.90116 10.4975 2.96721 10.502C3.03326 10.5066 3.09959 10.4981 3.16231 10.4768C3.22504 10.4556 3.28294 10.4223 3.33271 10.3786C3.38246 10.3349 3.42306 10.2818 3.45221 10.2223L4.21486 8.693C4.27599 8.5704 4.40119 8.49295 4.53819 8.49295H6.98314C7.11996 8.49295 7.24509 8.57028 7.30629 8.69263L8.07131 10.2223C8.10046 10.2818 8.14109 10.3349 8.19084 10.3786C8.24059 10.4223 8.29849 10.4556 8.36127 10.4768C8.42397 10.4981 8.49027 10.5066 8.55632 10.502C8.62239 10.4975 8.68689 10.4799 8.74609 10.4503C8.80536 10.4207 8.85814 10.3797 8.90141 10.3296C8.94471 10.2795 8.97769 10.2213 8.99839 10.1584C9.01909 10.0955 9.02714 10.0292 9.02209 9.96318C9.01699 9.89715 8.99894 9.8328 8.96887 9.7738L6.21154 4.25513ZM5.40076 7.48957C5.13221 7.48957 4.95754 7.20697 5.07759 6.96677L5.43701 6.24753C5.57009 5.98123 5.95011 5.98115 6.08331 6.24743L6.44309 6.96665C6.56329 7.20685 6.38861 7.48957 6.11999 7.48957H5.40076Z" fill="url(#paint1_linear_44_171)" stroke="url(#paint2_linear_44_171)" stroke-width="0.4"/>
<path d="M13.3688 6.32983C13.257 6.32983 13.1498 6.37423 13.0708 6.45328C12.9917 6.53233 12.9473 6.63956 12.9473 6.75138C12.9473 6.75586 12.9421 6.75838 12.9386 6.75568C12.5775 6.48091 12.1366 6.33138 11.6827 6.32983C11.1237 6.32983 10.5876 6.55188 10.1923 6.94716C9.79703 7.34241 9.57495 7.87853 9.57495 8.43751C9.57495 8.99653 9.79703 9.53263 10.1923 9.92791C10.5876 10.3232 11.1237 10.5453 11.6827 10.5453C12.1366 10.5437 12.5775 10.3942 12.9386 10.1194C12.9421 10.1167 12.9473 10.1192 12.9473 10.1237C12.9473 10.2355 12.9917 10.3427 13.0708 10.4218C13.1498 10.5009 13.257 10.5453 13.3688 10.5453C13.4807 10.5453 13.5878 10.5009 13.6669 10.4218C13.746 10.3427 13.7904 10.2355 13.7904 10.1237V6.75138C13.7904 6.63956 13.746 6.53233 13.6669 6.45328C13.5878 6.37423 13.4807 6.32983 13.3688 6.32983ZM11.6827 9.70213C11.4326 9.70213 11.188 9.62801 10.9801 9.48901C10.7721 9.35006 10.61 9.15256 10.5143 8.92146C10.4186 8.69043 10.3936 8.43616 10.4423 8.19083C10.4912 7.94551 10.6116 7.72018 10.7885 7.54328C10.9653 7.36643 11.1906 7.24598 11.436 7.19721C11.6813 7.14841 11.9356 7.17343 12.1666 7.26918C12.3977 7.36488 12.5952 7.52698 12.7342 7.73496C12.8731 7.94291 12.9473 8.18741 12.9473 8.43751C12.9473 8.77293 12.8141 9.09461 12.5769 9.33176C12.3397 9.56893 12.0181 9.70213 11.6827 9.70213Z" fill="url(#paint3_linear_44_171)" stroke="url(#paint4_linear_44_171)" stroke-width="0.4"/>
</g>
<defs>
<linearGradient id="paint0_linear_44_171" x1="1.6" y1="16.005" x2="7.3787" y2="-1.33327" gradientUnits="userSpaceOnUse">
<stop stop-color="#22B4FA"/>
<stop offset="1" stop-color="#6BD6FE"/>
</linearGradient>
<linearGradient id="paint1_linear_44_171" x1="2.5" y1="10.5032" x2="10.1719" y2="8.57926" gradientUnits="userSpaceOnUse">
<stop stop-color="#6BD6FE"/>
<stop offset="1" stop-color="white"/>
</linearGradient>
<linearGradient id="paint2_linear_44_171" x1="2.5" y1="10.5032" x2="10.1719" y2="8.57926" gradientUnits="userSpaceOnUse">
<stop stop-color="#6BD6FE"/>
<stop offset="1" stop-color="white"/>
</linearGradient>
<linearGradient id="paint3_linear_44_171" x1="9.57495" y1="10.5453" x2="14.5343" y2="9.30543" gradientUnits="userSpaceOnUse">
<stop stop-color="#6BD6FE"/>
<stop offset="1" stop-color="white"/>
</linearGradient>
<linearGradient id="paint4_linear_44_171" x1="9.57495" y1="10.5453" x2="14.5343" y2="9.30543" gradientUnits="userSpaceOnUse">
<stop stop-color="#6BD6FE"/>
<stop offset="1" stop-color="white"/>
</linearGradient>
<clipPath id="clip0_44_171">
<rect width="16" height="16" fill="white"/>
</clipPath>
</defs>
</svg>
