<svg width="16" height="16" viewBox="0 0 16 16" fill="none" xmlns="http://www.w3.org/2000/svg">
<path fill-rule="evenodd" clip-rule="evenodd" d="M11.2232 10.5961C11.3967 10.9121 11.2811 11.3093 10.9652 11.4829L6.38167 14.0003C5.1196 14.6935 3.53502 14.2324 2.84184 12.9704C2.09837 11.6167 1.06537 9.73592 0.321903 8.38227C-0.0110079 7.77614 -0.0891212 7.06284 0.10355 6.39899C0.297107 5.7354 0.745711 5.17536 1.35185 4.84245C2.70549 4.09898 4.58628 3.06598 5.93993 2.32251C7.20199 1.62933 8.78658 2.09038 9.47975 3.35245C10.5036 5.21664 11.9972 7.93595 11.9972 7.93595C12.1707 8.2519 12.0551 8.64915 11.7392 8.82268C11.1073 9.16974 10.8761 9.96425 11.2232 10.5961ZM11.7955 10.2818C11.622 9.96583 11.7376 9.56857 12.0535 9.39505C12.3695 9.22152 12.7667 9.3371 12.9403 9.65305C13.1138 9.96899 12.9982 10.3662 12.6823 10.5398C12.3663 10.7133 11.9691 10.5977 11.7955 10.2818Z" fill="url(#paint0_linear_7_136)"/>
<path fill-rule="evenodd" clip-rule="evenodd" d="M15.0873 5.19165C15.5058 5.23328 15.8116 5.6067 15.77 6.02517L15.1661 12.0961C14.9998 13.7677 13.5103 14.9877 11.8387 14.8214C10.0457 14.6431 7.55461 14.3953 5.76168 14.2169C4.95885 14.1371 4.22111 13.7413 3.7097 13.1178C3.19912 12.4936 2.9565 11.6923 3.03636 10.8895C3.21471 9.09658 3.46252 6.60543 3.64087 4.81251C3.80715 3.14088 5.29665 1.9209 6.96828 2.08719C9.43744 2.33281 13.0392 2.69109 13.0392 2.69109C13.4577 2.73272 13.7635 3.10614 13.7219 3.52461C13.6386 4.36156 14.2503 5.1084 15.0873 5.19165ZM15.1627 4.43355C14.7442 4.39192 14.4384 4.0185 14.48 3.60003C14.5216 3.18155 14.8951 2.8757 15.3135 2.91733C15.732 2.95896 16.0379 3.33238 15.9962 3.75085C15.9546 4.16933 15.5812 4.47517 15.1627 4.43355Z" fill="url(#paint1_linear_7_136)"/>
<path fill-rule="evenodd" clip-rule="evenodd" d="M3.03637 10.8896C3.03637 10.8896 5.62432 8.07844 6.28842 8.1445C7.0905 8.22429 7.77925 8.75064 8.0665 9.50348L8.60333 10.9105L9.15929 10.4551C9.50354 10.1732 9.94557 10.0395 10.3883 10.0836L10.3913 10.0839C10.8341 10.1279 11.2411 10.346 11.5231 10.6903L11.9682 11.2337C12.2351 11.5596 12.1874 12.0395 11.8615 12.3064C11.5364 12.5727 11.0558 12.5249 10.7895 12.1998L10.3445 11.6556C10.3185 11.6239 10.2807 11.6041 10.2405 11.6001L10.2375 11.5998C10.1965 11.5957 10.1563 11.6078 10.1246 11.6337L9.40696 12.2215C9.06522 12.5014 8.61066 12.5994 8.18396 12.4865C7.75733 12.3729 7.41164 12.0613 7.25436 11.6491L6.64275 10.0471C6.56145 9.83304 6.36579 9.68342 6.1376 9.66072C5.9511 9.64217 5.76647 9.71261 5.63942 9.8508C4.8992 10.6576 3.5228 12.1568 3.5228 12.1568C3.44385 12.2424 3.35102 12.3059 3.24969 12.3471C3.06244 11.8898 2.9866 11.3899 3.03637 10.8896Z" fill="#279FD7"/>
<path d="M10.4652 9.32551C11.5119 9.42963 12.4448 8.6655 12.549 7.61877C12.6531 6.57204 11.889 5.63909 10.8422 5.53497C9.7955 5.43084 8.86255 6.19498 8.75843 7.2417C8.65431 8.28843 9.41844 9.22138 10.4652 9.32551Z" fill="#279FD7"/>
<path fill-rule="evenodd" clip-rule="evenodd" d="M11.6758 4.85235C10.6296 4.74828 9.69606 5.5129 9.59199 6.55909C9.48792 7.60528 10.2525 8.53882 11.2987 8.64289C12.3449 8.74696 13.2785 7.98234 13.3825 6.93615C13.4866 5.88996 12.722 4.95642 11.6758 4.85235ZM11.525 6.36857C11.7342 6.38938 11.8871 6.57609 11.8663 6.78533C11.8455 6.99456 11.6588 7.14749 11.4495 7.12667C11.2403 7.10586 11.0874 6.91915 11.1082 6.70991C11.129 6.50068 11.3157 6.34775 11.525 6.36857Z" fill="url(#paint2_linear_7_136)"/>
<path fill-rule="evenodd" clip-rule="evenodd" d="M9.43672 10.2278L8.89988 8.82083C8.61264 8.06799 7.92464 7.54172 7.12181 7.46186C6.45771 7.3958 5.80196 7.646 5.35033 8.13776C4.61011 8.94458 3.23371 10.4438 3.23371 10.4438C2.94944 10.7539 2.96963 11.2359 3.27975 11.5202C3.58988 11.8045 4.07192 11.7843 4.35619 11.4742C4.35619 11.4742 5.73259 9.97497 6.4728 9.16815C6.59986 9.02997 6.78449 8.95952 6.97098 8.97807C7.19917 9.00077 7.39483 9.15039 7.47613 9.36442L8.08774 10.9664C8.24503 11.3787 8.59072 11.6902 9.01734 11.8038C9.44404 11.9167 9.89936 11.8189 10.2403 11.5389L10.958 10.9511C10.9897 10.9251 11.0299 10.9131 11.0709 10.9171L11.0739 10.9174C11.1148 10.9215 11.1519 10.9413 11.1779 10.9729L11.6229 11.5172C11.8899 11.8423 12.3698 11.89 12.6956 11.6239C13.0208 11.3569 13.0685 10.877 12.8023 10.5511L12.3565 10.0076C12.0745 9.66337 11.6675 9.44525 11.2247 9.40121L11.2217 9.40091C10.779 9.35687 10.3369 9.49052 9.99268 9.77247L9.43672 10.2278Z" fill="url(#paint3_linear_7_136)"/>
<defs>
<linearGradient id="paint0_linear_7_136" x1="-4.85069e-08" y1="14.3228" x2="15.2145" y2="10.3037" gradientUnits="userSpaceOnUse">
<stop stop-color="#6BD6FE"/>
<stop offset="1" stop-color="white"/>
</linearGradient>
<linearGradient id="paint1_linear_7_136" x1="4.31928" y1="14.8406" x2="8.8683" y2="0.962977" gradientUnits="userSpaceOnUse">
<stop stop-color="#22B4FA"/>
<stop offset="1" stop-color="#6BD6FE"/>
</linearGradient>
<linearGradient id="paint2_linear_7_136" x1="9.40345" y1="8.45436" x2="13.9738" y2="7.7831" gradientUnits="userSpaceOnUse">
<stop stop-color="#6BD6FE"/>
<stop offset="1" stop-color="white"/>
</linearGradient>
<linearGradient id="paint3_linear_7_136" x1="2.96147" y1="11.6416" x2="13.0014" y2="7.42731" gradientUnits="userSpaceOnUse">
<stop stop-color="#6BD6FE"/>
<stop offset="1" stop-color="white"/>
</linearGradient>
</defs>
</svg>
