<svg width="16" height="16" viewBox="0 0 16 16" fill="none" xmlns="http://www.w3.org/2000/svg">
<g clip-path="url(#clip0_281_17)">
<path d="M1.04034 1.41997C0.995949 1.62849 1.01587 1.85173 1.039 2.11094C1.07051 2.46408 1.10798 2.88397 0.996885 3.42427C0.907439 3.8593 0.753791 4.3724 0.593545 4.90752C0.307298 5.86341 0 6.8896 0 7.6667C0 11.4822 2.62863 13.114 4.87702 13.8119C5.4613 13.9932 6.02438 13.5118 6.38618 13.0184C6.75013 12.5222 7.33744 12.2 8 12.2C8.66448 12.2 9.25328 12.5241 9.61698 13.0228C9.97789 13.5176 10.5407 14.0014 11.1258 13.8204C13.3662 13.1273 16 11.4978 16 7.6667C16 6.8896 15.6927 5.86341 15.4065 4.90752C15.2462 4.37239 15.0926 3.8593 15.0031 3.42427C14.892 2.88397 14.9295 2.46408 14.961 2.11094C14.9841 1.85173 15.0041 1.62849 14.9597 1.41997C14.8974 1.12748 14.5782 0.990968 14.2851 1.05027C13.9025 1.12768 13.5144 1.28408 13.1149 1.44512C12.365 1.74736 11.5745 2.06593 10.7041 1.90912C9.02181 1.60609 8.02492 1.60609 8.02492 1.60609C8.02492 1.60609 7.02804 1.60609 5.34579 1.90912C4.47424 2.06612 3.66667 1.74658 2.90197 1.444C2.49524 1.28307 2.10065 1.12694 1.715 1.04986C1.42176 0.991244 1.10261 1.12748 1.04034 1.41997Z" fill="url(#paint0_linear_281_17)"/>
<path d="M8 15C8.55229 15 9 14.5523 9 14C9 13.4477 8.55229 13 8 13C7.44772 13 7 13.4477 7 14C7 14.5523 7.44772 15 8 15Z" fill="url(#paint1_linear_281_17)"/>
<path d="M3.6066 5.51536C3.72728 5.37063 3.90048 5.27975 4.08816 5.26269C4.27582 5.24562 4.46258 5.30379 4.60738 5.42438L4.8699 5.64235C5.44326 6.12 5.93134 6.52657 6.26872 6.90091C6.6279 7.29895 6.90748 7.75481 6.90748 8.33951C6.90748 8.92427 6.6279 9.3811 6.26872 9.77814C5.93134 10.1525 5.44326 10.5591 4.8699 11.0367L4.60738 11.2547C4.53605 11.3171 4.45296 11.3646 4.36299 11.3944C4.27303 11.4242 4.17801 11.4358 4.08352 11.4283C3.98904 11.4209 3.897 11.3946 3.81282 11.351C3.72863 11.3075 3.65401 11.2476 3.59334 11.1748C3.53266 11.1019 3.48716 11.0177 3.45951 10.9271C3.43186 10.8365 3.42262 10.7411 3.43233 10.6469C3.44204 10.5526 3.47051 10.4612 3.51607 10.3781C3.56162 10.295 3.62333 10.2219 3.69758 10.1629L3.91934 9.97813C4.54388 9.45692 4.95234 9.1157 5.21391 8.82575C5.46222 8.55088 5.48591 8.42103 5.48591 8.33951C5.48591 8.25806 5.46222 8.12916 5.21391 7.85334C4.9514 7.56339 4.54388 7.22127 3.91934 6.70095L3.69758 6.51614C3.55285 6.39546 3.46197 6.22226 3.4449 6.03459C3.42784 5.84692 3.486 5.66016 3.6066 5.51536ZM11.7403 10.7088C11.7403 10.8973 11.6654 11.0781 11.5321 11.2114C11.3988 11.3447 11.218 11.4196 11.0295 11.4196H8.20904C8.02055 11.4196 7.83974 11.3447 7.70644 11.2114C7.57313 11.0781 7.49826 10.8973 7.49826 10.7088C7.49826 10.5203 7.57313 10.3395 7.70644 10.2062C7.83974 10.0729 8.02055 9.99802 8.20904 9.99802H11.0295C11.218 9.99802 11.3988 10.0729 11.5321 10.2062C11.6654 10.3395 11.7403 10.5203 11.7403 10.7088Z" fill="#D49F34"/>
<path d="M4.43777 4.68419C4.55845 4.53945 4.73166 4.44857 4.91933 4.43151C5.107 4.41445 5.29376 4.47261 5.43856 4.59321L5.70108 4.81118C6.27444 5.28883 6.76251 5.69539 7.0999 6.06974C7.45908 6.46777 7.73865 6.92364 7.73865 7.50833C7.73865 8.09309 7.45908 8.54992 7.0999 8.94696C6.76251 9.32131 6.27444 9.72788 5.70108 10.2055L5.43856 10.4235C5.36723 10.4859 5.28413 10.5334 5.19417 10.5633C5.10421 10.5931 5.00918 10.6046 4.9147 10.5972C4.82021 10.5897 4.72818 10.5635 4.64399 10.5199C4.55981 10.4763 4.48519 10.4164 4.42451 10.3436C4.36384 10.2708 4.31834 10.1866 4.29069 10.0959C4.26303 10.0053 4.2538 9.90997 4.26351 9.81573C4.27322 9.72142 4.30169 9.63006 4.34724 9.54694C4.39279 9.46382 4.45451 9.39068 4.52875 9.33173L4.75052 9.14696C5.37506 8.62575 5.78352 8.28452 6.04509 7.99457C6.29339 7.71971 6.31709 7.58985 6.31709 7.50833C6.31709 7.42688 6.29339 7.29798 6.04509 7.02216C5.78257 6.73221 5.37506 6.39009 4.75052 5.86977L4.52875 5.68497C4.38403 5.56429 4.29314 5.39108 4.27608 5.20341C4.25902 5.01574 4.31718 4.82898 4.43777 4.68419ZM12.5715 9.87762C12.5715 10.0662 12.4966 10.2469 12.3633 10.3802C12.23 10.5135 12.0492 10.5884 11.8607 10.5884H9.04022C8.85173 10.5884 8.67092 10.5135 8.53761 10.3802C8.40431 10.2469 8.32944 10.0662 8.32944 9.87762C8.32944 9.68913 8.40431 9.50832 8.53761 9.37502C8.67092 9.24177 8.85173 9.16684 9.04022 9.16684H11.8607C12.0492 9.16684 12.23 9.24177 12.3633 9.37502C12.4966 9.50832 12.5715 9.68913 12.5715 9.87762Z" fill="url(#paint2_linear_281_17)"/>
</g>
<defs>
<linearGradient id="paint0_linear_281_17" x1="3" y1="14.1263" x2="11.4401" y2="2.52009" gradientUnits="userSpaceOnUse">
<stop stop-color="#FF8860"/>
<stop offset="1" stop-color="#FBD92C"/>
</linearGradient>
<linearGradient id="paint1_linear_281_17" x1="3" y1="14.1263" x2="11.4401" y2="2.52009" gradientUnits="userSpaceOnUse">
<stop stop-color="#FF8860"/>
<stop offset="1" stop-color="#FBD92C"/>
</linearGradient>
<linearGradient id="paint2_linear_281_17" x1="6.33769" y1="9.05665" x2="9.2911" y2="5.07856" gradientUnits="userSpaceOnUse">
<stop stop-color="#FBD92C"/>
<stop offset="1" stop-color="white"/>
</linearGradient>
<clipPath id="clip0_281_17">
<rect width="16" height="16" fill="white"/>
</clipPath>
</defs>
</svg>
