<svg width="16" height="16" viewBox="0 0 16 16" fill="none" xmlns="http://www.w3.org/2000/svg">
<g clip-path="url(#clip0_15_1272)">
<path fill-rule="evenodd" clip-rule="evenodd" d="M1.44225 1.44213C0.945626 1.93876 0.666626 2.61232 0.666626 3.31466C0.666626 3.65216 0.940233 3.92576 1.27774 3.92576H8.20369C8.36576 3.92576 8.52116 3.86138 8.63576 3.74678C8.75036 3.63217 8.81476 3.47673 8.81476 3.31466V1.33317C8.81476 0.964982 8.51629 0.666504 8.14809 0.666504H3.31477C2.61244 0.666504 1.93887 0.945502 1.44225 1.44213ZM0.666626 12.6852C0.666626 13.3876 0.945626 14.0611 1.44225 14.5578C1.93887 15.0544 2.61244 15.3334 3.31477 15.3334H11C11.5523 15.3334 12 14.8856 12 14.3333L12 14C12 12.8954 12.8954 12 14 12L14.3333 12C14.8856 12 15.3333 11.5523 15.3333 11V3.31483C15.3333 2.6125 15.0543 1.93893 14.5577 1.44231C14.061 0.945687 13.3875 0.666687 12.6852 0.666687H10.7037C10.3355 0.666687 10.037 0.965167 10.037 1.33335V3.31483C10.037 3.80107 9.84383 4.26738 9.50003 4.6112C9.15623 4.95501 8.68989 5.14817 8.20369 5.14817H1.33329C0.965106 5.14817 0.666626 5.44665 0.666626 5.81483V12.6852Z" fill="url(#paint0_linear_15_1272)"/>
<circle cx="14" cy="14" r="1" fill="url(#paint1_linear_15_1272)"/>
<path fill-rule="evenodd" clip-rule="evenodd" d="M2 8.69084C2 8.30925 2.30928 8 2.69079 8H11.3092C11.6907 8 12 8.30925 12 8.69084C12 9.07234 11.6907 9.38159 11.3092 9.38159H2.69079C2.30928 9.38159 2 9.07234 2 8.69084ZM2 10.6719C2 10.2523 2.34016 9.91218 2.75977 9.91218H11.2402C11.6598 9.91218 12 10.2523 12 10.6719C12 11.0916 11.6598 11.4318 11.2402 11.4318H2.75977C2.34016 11.4318 2 11.0916 2 10.6719ZM7.0699 12.6953C7.0699 12.3303 6.77398 12.0344 6.40898 12.0344H2.66089C2.29589 12.0344 2 12.3303 2 12.6953C2 13.0603 2.29589 13.3561 2.66089 13.3561H6.40898C6.77398 13.3561 7.0699 13.0603 7.0699 12.6953Z" fill="#8C4FD9"/>
<path fill-rule="evenodd" clip-rule="evenodd" d="M2.93103 7.30924C2.93103 6.92766 3.24031 6.61841 3.62182 6.61841H12.2403C12.6218 6.61841 12.931 6.92766 12.931 7.30924C12.931 7.69074 12.6218 8 12.2403 8H3.62182C3.24031 8 2.93103 7.69074 2.93103 7.30924ZM3 9.6719C3 9.25231 3.34016 8.91215 3.75977 8.91215H12.2402C12.6598 8.91215 13 9.25231 13 9.6719C13 10.0916 12.6598 10.4317 12.2402 10.4317H3.75977C3.34016 10.4317 3 10.0916 3 9.6719ZM8.06987 12C8.06987 11.635 7.77395 11.3391 7.40895 11.3391H3.66086C3.29586 11.3391 2.99997 11.635 2.99997 12C2.99997 12.365 3.29586 12.6608 3.66086 12.6608H7.40895C7.77395 12.6608 8.06987 12.365 8.06987 12Z" fill="url(#paint2_linear_15_1272)"/>
</g>
<defs>
<linearGradient id="paint0_linear_15_1272" x1="4.33329" y1="14.2857" x2="14.0393" y2="2.96217" gradientUnits="userSpaceOnUse">
<stop stop-color="#A056FF"/>
<stop offset="1" stop-color="#C59AFD"/>
</linearGradient>
<linearGradient id="paint1_linear_15_1272" x1="13.5" y1="14.8571" x2="14.8235" y2="13.313" gradientUnits="userSpaceOnUse">
<stop stop-color="#A056FF"/>
<stop offset="1" stop-color="#C59AFD"/>
</linearGradient>
<linearGradient id="paint2_linear_15_1272" x1="5.44827" y1="12.6608" x2="13.7843" y2="8.03048" gradientUnits="userSpaceOnUse">
<stop stop-color="#C59AFD"/>
<stop offset="1" stop-color="white"/>
</linearGradient>
<clipPath id="clip0_15_1272">
<rect width="16" height="16" fill="white"/>
</clipPath>
</defs>
</svg>
