<svg width="16" height="16" viewBox="0 0 16 16" fill="none" xmlns="http://www.w3.org/2000/svg">
<path fill-rule="evenodd" clip-rule="evenodd" d="M7.8642 1.87117C7.09539 1.75564 6.28469 2.08737 5.8265 2.68868C5.52683 3.05472 5.41096 3.51019 5.3951 3.96748C5.38835 4.16194 5.24637 4.32508 5.05201 4.31604V4.31604C4.79773 4.30422 4.53737 4.29211 4.33665 4.43095C4.27558 4.47319 4.22905 4.53393 4.20145 4.60286C4.14025 4.75571 4.14425 4.91241 4.14871 5.08713C4.15105 5.17866 4.15351 5.27515 4.14679 5.37862V5.37862C4.13333 5.4912 4.06101 5.58812 3.95693 5.63309L3.39985 5.87379C1.99343 6.59239 0.965923 7.95169 0.677167 9.45629C0.423024 10.7298 0.689919 12.0935 1.42229 13.185C2.18472 14.3447 3.4454 15.1955 4.84638 15.4711C5.63679 15.6391 6.46591 15.6198 7.25085 15.4308C7.82915 15.2916 8 14.5948 8 14V14C8 12.8954 8.89543 12 10 12C10.1581 12 10.312 12.0184 10.4595 12.053C10.7476 12.1208 11.0782 12.0114 11.1562 11.7259V11.7259C11.4677 10.5968 11.3612 9.36614 10.8574 8.30268C10.3204 7.14064 9.31894 6.19242 8.10984 5.68006C7.92425 5.60141 7.79281 5.43116 7.80245 5.22983V5.22983C7.81388 4.99087 7.82541 4.74991 7.69204 4.54425C7.4899 4.28764 7.16137 4.30228 6.84701 4.3163V4.3163C6.65582 4.32482 6.49528 4.18167 6.50792 3.9907C6.53384 3.5993 6.70421 3.21401 7.09084 3.0344C7.71117 2.69393 8.57925 3.1657 8.59839 3.85104C8.59202 4.43923 8.86893 5.03178 9.37722 5.37139C10.0349 5.84229 11.0141 5.80465 11.6335 5.28999C12.0471 4.96605 12.2734 4.46533 12.3013 3.95874C12.3037 3.91527 12.3331 3.87762 12.3753 3.86718V3.86718C12.5433 3.82568 12.7212 3.78172 12.8232 3.63397C13.0745 3.34688 12.8742 2.8611 12.4961 2.79283C11.895 2.68605 11.2901 3.15169 11.199 3.71975C11.1921 3.76284 11.1867 3.80699 11.1812 3.85146C11.157 4.04825 11.132 4.25141 10.9768 4.39633C10.7026 4.71405 10.1324 4.69655 9.88277 4.35783C9.74514 4.20874 9.73196 4.01564 9.71894 3.8248C9.71369 3.74785 9.70846 3.67127 9.69512 3.59809C9.56303 2.72019 8.77874 1.98408 7.8642 1.87117Z" fill="url(#paint0_linear_112_478)"/>
<path d="M12.1682 0.468137C12.4251 0.320215 12.7968 0.51015 12.8095 0.797239C12.8204 1.26113 12.8277 1.72678 12.8049 2.19067C12.7148 2.55829 12.1336 2.6143 11.9806 2.26244C11.884 1.93072 11.9587 1.57273 11.935 1.2305C11.9414 0.969669 11.8704 0.610807 12.1682 0.468137Z" fill="url(#paint1_linear_112_478)"/>
<path d="M10.4201 1.16393C10.5868 1.10354 10.7763 1.16481 10.8929 1.28822C11.1953 1.57968 11.5059 1.86327 11.7974 2.16525C12.0452 2.39807 11.8557 2.85583 11.5077 2.86108C11.2946 2.89347 11.1397 2.72717 11.0049 2.59763C10.7508 2.3403 10.4775 2.10222 10.2288 1.84052C10.0175 1.6322 10.1314 1.24358 10.4201 1.16393Z" fill="url(#paint2_linear_112_478)"/>
<path d="M13.9991 1.18412C14.3507 0.990688 14.7861 1.41694 14.5902 1.75042C14.3771 2.03927 14.0765 2.25546 13.8315 2.51804C13.6611 2.66858 13.4962 2.90316 13.2321 2.86027C12.8796 2.84102 12.6965 2.35523 12.9761 2.13467C13.3186 1.82044 13.6284 1.46683 13.9991 1.18412Z" fill="url(#paint3_linear_112_478)"/>
<path d="M13.2767 3.09566C13.427 2.81733 13.7886 2.88385 14.0565 2.88385C14.4081 2.90573 14.7706 2.84273 15.115 2.9215C15.482 3.04929 15.4629 3.61908 15.0857 3.71711C14.6476 3.76613 14.205 3.72499 13.765 3.73461C13.6347 3.69523 13.5427 3.79413 13.4416 3.84753C13.6511 3.85978 13.7567 4.05673 13.8997 4.17489C14.1294 4.42608 14.43 4.62389 14.6094 4.91273C14.7679 5.26546 14.3051 5.63834 13.9736 5.42739C13.6866 5.20683 13.4507 4.93286 13.182 4.69304C13.0217 4.53286 12.793 4.36395 12.8467 4.11099C12.8869 3.83703 13.223 3.6856 13.4835 3.78713C13.3286 3.59281 13.11 3.34949 13.2767 3.09566Z" fill="url(#paint4_linear_112_478)"/>
<path d="M2.51527 8.04693C2.73163 7.86352 3.10884 7.94102 3.23849 8.18042C3.36047 8.36681 3.29834 8.61404 3.14465 8.76937C2.58988 9.383 2.35282 10.2524 2.55669 11.0354C2.66369 11.5389 2.96682 11.9769 3.34317 12.3278C3.63849 12.5637 3.47501 13.0826 3.09279 13.1321C2.71831 13.2148 2.48699 12.8481 2.27077 12.6226C1.16393 11.34 1.25242 9.24249 2.51527 8.04693Z" fill="#8C4FD9"/>
<path d="M3.50442 7.56048C3.74698 7.41348 4.10725 7.54948 4.19754 7.80633C4.28861 8.00962 4.18828 8.24396 4.01203 8.37311C3.36745 8.89161 2.99628 9.71281 3.07418 10.5181C3.10045 11.0322 3.33073 11.5125 3.64704 11.9184C3.90149 12.1979 3.65825 12.6844 3.27301 12.6731C2.89016 12.6957 2.71955 12.2972 2.54159 12.0404C1.6508 10.5993 2.06886 8.542 3.50442 7.56048Z" fill="url(#paint5_linear_112_478)"/>
<circle cx="10" cy="14" r="1" fill="url(#paint6_linear_112_478)"/>
<defs>
<linearGradient id="paint0_linear_112_478" x1="3.67125" y1="14.6045" x2="12.8599" y2="4.96588" gradientUnits="userSpaceOnUse">
<stop stop-color="#A056FF"/>
<stop offset="1" stop-color="#C59AFD"/>
</linearGradient>
<linearGradient id="paint1_linear_112_478" x1="12.1521" y1="2.34978" x2="13.266" y2="1.79406" gradientUnits="userSpaceOnUse">
<stop stop-color="#A056FF"/>
<stop offset="1" stop-color="#C59AFD"/>
</linearGradient>
<linearGradient id="paint2_linear_112_478" x1="10.5675" y1="2.74198" x2="11.7017" y2="1.36868" gradientUnits="userSpaceOnUse">
<stop stop-color="#A056FF"/>
<stop offset="1" stop-color="#C59AFD"/>
</linearGradient>
<linearGradient id="paint3_linear_112_478" x1="13.2896" y1="2.74187" x2="14.4266" y2="1.36223" gradientUnits="userSpaceOnUse">
<stop stop-color="#A056FF"/>
<stop offset="1" stop-color="#C59AFD"/>
</linearGradient>
<linearGradient id="paint4_linear_112_478" x1="13.474" y1="5.30217" x2="15.2091" y2="3.33286" gradientUnits="userSpaceOnUse">
<stop stop-color="#A056FF"/>
<stop offset="1" stop-color="#C59AFD"/>
</linearGradient>
<linearGradient id="paint5_linear_112_478" x1="2.61398" y1="12.674" x2="4.90654" y2="12.3554" gradientUnits="userSpaceOnUse">
<stop stop-color="#C59AFD"/>
<stop offset="1" stop-color="white"/>
</linearGradient>
<linearGradient id="paint6_linear_112_478" x1="9.5" y1="14.8571" x2="10.8235" y2="13.313" gradientUnits="userSpaceOnUse">
<stop stop-color="#A056FF"/>
<stop offset="1" stop-color="#C59AFD"/>
</linearGradient>
</defs>
</svg>
