<svg width="16" height="16" viewBox="0 0 16 16" fill="none" xmlns="http://www.w3.org/2000/svg">
<g clip-path="url(#clip0_92_440)">
<path fill-rule="evenodd" clip-rule="evenodd" d="M12.9824 14C12.9824 14.552 12.5344 15 11.9824 15H3.97442C1.76942 15 -0.0175781 13.213 -0.0175781 11.008C-0.0175781 8.643 -0.0175781 7.357 -0.0175781 4.992C-0.0175781 3.933 0.403422 2.918 1.15142 2.169C1.90042 1.421 2.91542 1 3.97442 1C6.33942 1 9.62542 1 11.9904 1C14.1954 1 15.9824 2.787 15.9824 4.992C15.9824 8.249 15.9824 11 15.9824 11C15.9824 11.552 15.5344 12 14.9824 12C13.8784 12 12.9824 12.896 12.9824 14ZM13.9824 14C13.9824 13.448 14.4304 13 14.9824 13C15.5344 13 15.9824 13.448 15.9824 14C15.9824 14.552 15.5344 15 14.9824 15C14.4304 15 13.9824 14.552 13.9824 14Z" fill="url(#paint0_linear_92_440)"/>
<path d="M2.68836 4.73457C3.03063 4.3923 3.49485 4.20001 3.97889 4.20001C4.46293 4.20001 4.92714 4.3923 5.26941 4.73457C5.6117 5.07683 5.80396 5.54105 5.80396 6.02509C5.80396 6.50913 5.6117 6.97335 5.26941 7.31561C4.92714 7.65788 4.46293 7.85015 3.97889 7.85015C3.49485 7.85015 3.03063 7.65788 2.68836 7.31561C2.3461 6.97335 2.15381 6.50913 2.15381 6.02509C2.15381 5.54105 2.3461 5.07683 2.68836 4.73457Z" fill="#279FD7"/>
<path d="M2.06324 9.66906C1.50142 10.0612 1.0735 10.6163 0.837275 11.2595C0.786715 11.3973 0.787688 11.5487 0.840008 11.6859C0.892335 11.823 0.992481 11.9366 1.12199 12.0057C2.00131 12.4741 2.98255 12.7185 3.97884 12.7171C4.97513 12.7185 5.95638 12.4741 6.83571 12.0057C6.96518 11.9366 7.06531 11.823 7.11765 11.6859C7.16998 11.5487 7.17098 11.3973 7.12038 11.2595C6.88418 10.6163 6.45625 10.0612 5.89445 9.66906C5.33262 9.27686 4.66399 9.06659 3.97884 9.06659C3.29369 9.06659 2.62505 9.27686 2.06324 9.66906Z" fill="#279FD7"/>
<path d="M8.7197 5.59493C8.83377 5.48084 8.9885 5.41675 9.1499 5.41675H12.1917C12.353 5.41675 12.5078 5.48084 12.6218 5.59493C12.736 5.70902 12.8 5.86376 12.8 6.02511C12.8 6.18645 12.736 6.34119 12.6218 6.45528C12.5078 6.56937 12.353 6.63347 12.1917 6.63347H9.1499C8.9885 6.63347 8.83377 6.56937 8.7197 6.45528C8.60564 6.34119 8.5415 6.18645 8.5415 6.02511C8.5415 5.86376 8.60564 5.70902 8.7197 5.59493Z" fill="#279FD7"/>
<path d="M8.7197 8.02836C8.60564 8.14243 8.5415 8.29723 8.5415 8.45856C8.5415 8.61989 8.60564 8.77463 8.7197 8.88869C8.83377 9.00283 8.9885 9.06689 9.1499 9.06689H12.1917C12.353 9.06689 12.5078 9.00283 12.6218 8.88869C12.736 8.77463 12.8 8.61989 12.8 8.45856C12.8 8.29723 12.736 8.14243 12.6218 8.02836C12.5078 7.91429 12.353 7.85016 12.1917 7.85016H9.1499C8.9885 7.85016 8.83377 7.91429 8.7197 8.02836Z" fill="#279FD7"/>
<path d="M8.7197 10.4618C8.83377 10.3477 8.9885 10.2836 9.1499 10.2836H12.1917C12.353 10.2836 12.5078 10.3477 12.6218 10.4618C12.736 10.5759 12.8 10.7306 12.8 10.892C12.8 11.0533 12.736 11.2081 12.6218 11.3222C12.5078 11.4362 12.353 11.5004 12.1917 11.5004H9.1499C8.9885 11.5004 8.83377 11.4362 8.7197 11.3222C8.60564 11.2081 8.5415 11.0533 8.5415 10.892C8.5415 10.7306 8.60564 10.5759 8.7197 10.4618Z" fill="#279FD7"/>
<path d="M3.68836 3.73457C4.03063 3.3923 4.49485 3.20001 4.97889 3.20001C5.46293 3.20001 5.92714 3.3923 6.26941 3.73457C6.6117 4.07683 6.80396 4.54105 6.80396 5.02509C6.80396 5.50913 6.6117 5.97335 6.26941 6.31561C5.92714 6.65788 5.46293 6.85015 4.97889 6.85015C4.49485 6.85015 4.03063 6.65788 3.68836 6.31561C3.3461 5.97335 3.15381 5.50913 3.15381 5.02509C3.15381 4.54105 3.3461 4.07683 3.68836 3.73457Z" fill="url(#paint1_linear_92_440)"/>
<path d="M3.06324 8.66906C2.50142 9.06119 2.0735 9.61632 1.83727 10.2595C1.78671 10.3973 1.78769 10.5487 1.84001 10.6859C1.89233 10.823 1.99248 10.9366 2.12199 11.0057C3.00131 11.4741 3.98255 11.7185 4.97884 11.7171C5.97513 11.7185 6.95638 11.4741 7.83571 11.0057C7.96518 10.9366 8.06531 10.823 8.11765 10.6859C8.16998 10.5487 8.17098 10.3973 8.12038 10.2595C7.88418 9.61632 7.45625 9.06119 6.89445 8.66906C6.33262 8.27686 5.66399 8.06659 4.97884 8.06659C4.29369 8.06659 3.62505 8.27686 3.06324 8.66906Z" fill="url(#paint2_linear_92_440)"/>
<path d="M9.7197 4.59493C9.83377 4.48084 9.9885 4.41675 10.1499 4.41675H13.1917C13.353 4.41675 13.5078 4.48084 13.6218 4.59493C13.736 4.70902 13.8 4.86376 13.8 5.02511C13.8 5.18645 13.736 5.34119 13.6218 5.45528C13.5078 5.56937 13.353 5.63347 13.1917 5.63347H10.1499C9.9885 5.63347 9.83377 5.56937 9.7197 5.45528C9.60564 5.34119 9.5415 5.18645 9.5415 5.02511C9.5415 4.86376 9.60564 4.70902 9.7197 4.59493Z" fill="url(#paint3_linear_92_440)"/>
<path d="M9.7197 7.02836C9.60564 7.14243 9.5415 7.29723 9.5415 7.45856C9.5415 7.61989 9.60564 7.77463 9.7197 7.88869C9.83377 8.00283 9.9885 8.06689 10.1499 8.06689H13.1917C13.353 8.06689 13.5078 8.00283 13.6218 7.88869C13.736 7.77463 13.8 7.61989 13.8 7.45856C13.8 7.29723 13.736 7.14243 13.6218 7.02836C13.5078 6.91429 13.353 6.85016 13.1917 6.85016H10.1499C9.9885 6.85016 9.83377 6.91429 9.7197 7.02836Z" fill="url(#paint4_linear_92_440)"/>
<path d="M9.7197 9.46183C9.83377 9.3477 9.9885 9.28363 10.1499 9.28363H13.1917C13.353 9.28363 13.5078 9.3477 13.6218 9.46183C13.736 9.5759 13.8 9.73063 13.8 9.89196C13.8 10.0533 13.736 10.2081 13.6218 10.3222C13.5078 10.4362 13.353 10.5004 13.1917 10.5004H10.1499C9.9885 10.5004 9.83377 10.4362 9.7197 10.3222C9.60564 10.2081 9.5415 10.0533 9.5415 9.89196C9.5415 9.73063 9.60564 9.5759 9.7197 9.46183Z" fill="url(#paint5_linear_92_440)"/>
</g>
<defs>
<linearGradient id="paint0_linear_92_440" x1="1.58242" y1="15.0044" x2="6.1129" y2="-0.530625" gradientUnits="userSpaceOnUse">
<stop offset="0.190745" stop-color="#22B4FA"/>
<stop offset="0.896724" stop-color="#7DDCFF"/>
</linearGradient>
<linearGradient id="paint1_linear_92_440" x1="3.15381" y1="6.85015" x2="7.4481" y2="5.77657" gradientUnits="userSpaceOnUse">
<stop stop-color="#6BD6FE"/>
<stop offset="1" stop-color="white"/>
</linearGradient>
<linearGradient id="paint2_linear_92_440" x1="1.80005" y1="11.7171" x2="8.4806" y2="8.80839" gradientUnits="userSpaceOnUse">
<stop stop-color="#6BD6FE"/>
<stop offset="1" stop-color="white"/>
</linearGradient>
<linearGradient id="paint3_linear_92_440" x1="9.5415" y1="5.63347" x2="12.5564" y2="2.99544" gradientUnits="userSpaceOnUse">
<stop stop-color="#6BD6FE"/>
<stop offset="1" stop-color="white"/>
</linearGradient>
<linearGradient id="paint4_linear_92_440" x1="9.5415" y1="8.06689" x2="12.5564" y2="5.42887" gradientUnits="userSpaceOnUse">
<stop stop-color="#6BD6FE"/>
<stop offset="1" stop-color="white"/>
</linearGradient>
<linearGradient id="paint5_linear_92_440" x1="9.5415" y1="10.5004" x2="12.5564" y2="7.86234" gradientUnits="userSpaceOnUse">
<stop stop-color="#6BD6FE"/>
<stop offset="1" stop-color="white"/>
</linearGradient>
<clipPath id="clip0_92_440">
<rect width="16" height="16" fill="white"/>
</clipPath>
</defs>
</svg>
