<svg width="16" height="16" viewBox="0 0 16 16" fill="none" xmlns="http://www.w3.org/2000/svg">
<g clip-path="url(#clip0_14_824)">
<path fill-rule="evenodd" clip-rule="evenodd" d="M1 13C0.448 13 0 12.552 0 12V3.992C0 1.787 1.787 0 3.992 0C6.357 0 9.643 0 12.008 0C13.067 0 14.082 0.421001 14.831 1.169C15.579 1.918 16 2.933 16 3.992C16 6.357 16 9.643 16 12.008C16 14.213 14.213 16 12.008 16C8.751 16 4 16 4 16C3.448 16 3 15.552 3 15C3 13.896 2.104 13 1 13ZM1 14C1.552 14 2 14.448 2 15C2 15.552 1.552 16 1 16C0.448 16 0 15.552 0 15C0 14.448 0.448 14 1 14Z" fill="url(#paint0_linear_14_824)"/>
<path d="M6.3246 5.31778C6.37852 5.26396 6.42112 5.19988 6.44989 5.12934C6.47866 5.05879 6.49301 4.9832 6.49211 4.90701C6.4912 4.83083 6.47506 4.7556 6.44464 4.68575C6.4142 4.61591 6.3701 4.55286 6.31492 4.50033C6.25974 4.44779 6.19461 4.40683 6.12335 4.37986C6.0521 4.35289 5.97617 4.34046 5.90004 4.34329C5.82391 4.34612 5.74911 4.36417 5.68005 4.39636C5.611 4.42856 5.54909 4.47425 5.49798 4.53074L3.73664 6.38037L3.27994 5.90084C3.22882 5.84434 3.16691 5.79865 3.09786 5.76646C3.02881 5.73427 2.95401 5.71623 2.87788 5.71339C2.80174 5.71056 2.72581 5.72299 2.65456 5.74996C2.5833 5.77693 2.51817 5.81789 2.46299 5.87042C2.40781 5.92296 2.36371 5.98601 2.33328 6.05585C2.30285 6.1257 2.28671 6.20093 2.28581 6.27711C2.28491 6.35329 2.29926 6.42888 2.32803 6.49943C2.3568 6.56998 2.3994 6.63405 2.45332 6.68788L3.32333 7.60128C3.37664 7.65724 3.44077 7.70179 3.51181 7.73223C3.58286 7.76267 3.65935 7.77836 3.73664 7.77836C3.81393 7.77836 3.89042 7.76267 3.96146 7.73223C4.03251 7.70179 4.09664 7.65724 4.14995 7.60128L6.3246 5.31778ZM8.19478 5.87571C8.04339 5.87571 7.89817 5.93586 7.79113 6.04292C7.68403 6.14998 7.62392 6.29518 7.62392 6.44659C7.62392 6.59799 7.68403 6.7432 7.79113 6.85026C7.89817 6.95732 8.04339 7.01747 8.19478 7.01747H12.0006C12.152 7.01747 12.2972 6.95732 12.4043 6.85026C12.5113 6.7432 12.5715 6.59799 12.5715 6.44659C12.5715 6.29518 12.5113 6.14998 12.4043 6.04292C12.2972 5.93586 12.152 5.87571 12.0006 5.87571H8.19478ZM6.3246 10.6459C6.37852 10.5921 6.42112 10.528 6.44989 10.4575C6.47866 10.3869 6.49301 10.3114 6.49211 10.2352C6.4912 10.159 6.47506 10.0837 6.44464 10.0139C6.4142 9.94405 6.3701 9.88105 6.31492 9.82846C6.25974 9.77594 6.19461 9.73499 6.12335 9.70799C6.0521 9.68105 5.97617 9.66858 5.90004 9.67148C5.82391 9.6743 5.74911 9.6923 5.68005 9.72451C5.611 9.75672 5.54909 9.80243 5.49798 9.85887L3.73664 11.7085L3.27994 11.229C3.22882 11.1725 3.16691 11.1268 3.09786 11.0946C3.02881 11.0624 2.95401 11.0444 2.87788 11.0415C2.80174 11.0387 2.72581 11.0512 2.65456 11.0781C2.5833 11.1051 2.51817 11.1461 2.46299 11.1986C2.40781 11.2511 2.36371 11.3142 2.33328 11.384C2.30285 11.4539 2.28671 11.5291 2.28581 11.6053C2.28491 11.6814 2.29926 11.757 2.32803 11.8276C2.3568 11.8981 2.3994 11.9622 2.45332 12.016L3.32333 12.9294C3.37664 12.9854 3.44077 13.03 3.51181 13.0604C3.58286 13.0908 3.65935 13.1065 3.73664 13.1065C3.81393 13.1065 3.89042 13.0908 3.96146 13.0604C4.03251 13.03 4.09664 12.9854 4.14995 12.9294L6.3246 10.6459ZM8.19478 11.2039C8.04339 11.2039 7.89817 11.264 7.79113 11.3711C7.68403 11.4782 7.62392 11.6233 7.62392 11.7748C7.62392 11.9262 7.68403 12.0713 7.79113 12.1784C7.89817 12.2855 8.04339 12.3456 8.19478 12.3456H12.0006C12.152 12.3456 12.2972 12.2855 12.4043 12.1784C12.5113 12.0713 12.5715 11.9262 12.5715 11.7748C12.5715 11.6233 12.5113 11.4782 12.4043 11.3711C12.2972 11.264 12.152 11.2039 12.0006 11.2039H8.19478Z" fill="#8C4FD9" stroke="#8C4FD9" stroke-width="0.6"/>
<path d="M7.46742 4.17496C7.52134 4.12113 7.56394 4.05705 7.59271 3.98651C7.62148 3.91597 7.63583 3.84037 7.63493 3.76419C7.63403 3.68801 7.61788 3.61278 7.58746 3.54293C7.55702 3.47308 7.51292 3.41004 7.45774 3.3575C7.40257 3.30497 7.33743 3.26401 7.26618 3.23704C7.19492 3.21007 7.11899 3.19764 7.04286 3.20047C6.96673 3.2033 6.89193 3.22135 6.82288 3.25354C6.75383 3.28574 6.69191 3.33142 6.6408 3.38792L4.87946 5.23755L4.42276 4.75801C4.37164 4.70152 4.30973 4.65583 4.24069 4.62364C4.17163 4.59145 4.09683 4.5734 4.0207 4.57057C3.94457 4.56773 3.86863 4.58017 3.79738 4.60713C3.72612 4.63411 3.66099 4.67507 3.60581 4.7276C3.55064 4.78013 3.50654 4.84319 3.4761 4.91303C3.44567 4.98288 3.42954 5.05811 3.42863 5.13429C3.42773 5.21047 3.44208 5.28606 3.47085 5.35661C3.49962 5.42716 3.54222 5.49123 3.59614 5.54506L4.46615 6.45845C4.51947 6.51441 4.58359 6.55896 4.65463 6.5894C4.72568 6.61984 4.80217 6.63554 4.87946 6.63554C4.95675 6.63554 5.03324 6.61984 5.10429 6.5894C5.17534 6.55896 5.23946 6.51441 5.29277 6.45845L7.46742 4.17496ZM9.3376 4.73289C9.18621 4.73289 9.04099 4.79304 8.93395 4.9001C8.82685 5.00716 8.76675 5.15236 8.76675 5.30377C8.76675 5.45517 8.82685 5.60037 8.93395 5.70744C9.04099 5.8145 9.18621 5.87464 9.3376 5.87464H13.1434C13.2948 5.87464 13.4401 5.8145 13.5471 5.70744C13.6541 5.60037 13.7143 5.45517 13.7143 5.30377C13.7143 5.15236 13.6541 5.00716 13.5471 4.9001C13.4401 4.79304 13.2948 4.73289 13.1434 4.73289H9.3376ZM7.46742 9.5031C7.52134 9.44929 7.56394 9.3852 7.59271 9.31467C7.62148 9.24409 7.63583 9.16855 7.63493 9.09237C7.63403 9.0162 7.61788 8.94092 7.58746 8.8711C7.55702 8.80122 7.51292 8.73822 7.45774 8.68564C7.40257 8.63312 7.33743 8.59217 7.26618 8.56517C7.19492 8.53823 7.11899 8.52576 7.04286 8.52865C6.96673 8.53148 6.89193 8.54948 6.82288 8.58169C6.75383 8.6139 6.69191 8.6596 6.6408 8.71605L4.87946 10.5657L4.42276 10.0862C4.37164 10.0297 4.30973 9.98402 4.24069 9.95181C4.17163 9.9196 4.09683 9.90154 4.0207 9.89871C3.94457 9.89588 3.86863 9.90835 3.79738 9.93529C3.72612 9.96229 3.66099 10.0032 3.60581 10.0558C3.55064 10.1083 3.50654 10.1713 3.4761 10.2412C3.44567 10.311 3.42954 10.3863 3.42863 10.4624C3.42773 10.5386 3.44208 10.6142 3.47085 10.6848C3.49962 10.7553 3.54222 10.8194 3.59614 10.8732L4.46615 11.7866C4.51947 11.8426 4.58359 11.8871 4.65463 11.9175C4.72568 11.948 4.80217 11.9637 4.87946 11.9637C4.95675 11.9637 5.03324 11.948 5.10429 11.9175C5.17534 11.8871 5.23946 11.8426 5.29277 11.7866L7.46742 9.5031ZM9.3376 10.061C9.18621 10.061 9.04099 10.1212 8.93395 10.2282C8.82685 10.3353 8.76675 10.4805 8.76675 10.632C8.76675 10.7833 8.82685 10.9285 8.93395 11.0356C9.04099 11.1426 9.18621 11.2028 9.3376 11.2028H13.1434C13.2948 11.2028 13.4401 11.1426 13.5471 11.0356C13.6541 10.9285 13.7143 10.7833 13.7143 10.632C13.7143 10.4805 13.6541 10.3353 13.5471 10.2282C13.4401 10.1212 13.2948 10.061 13.1434 10.061H9.3376Z" fill="url(#paint1_linear_14_824)" stroke="url(#paint2_linear_14_824)" stroke-width="0.6"/>
</g>
<defs>
<linearGradient id="paint0_linear_14_824" x1="4" y1="14.8571" x2="14.5882" y2="2.5042" gradientUnits="userSpaceOnUse">
<stop stop-color="#A056FF"/>
<stop offset="1" stop-color="#C59AFD"/>
</linearGradient>
<linearGradient id="paint1_linear_14_824" x1="6.00002" y1="11.9637" x2="15.6638" y2="8.18298" gradientUnits="userSpaceOnUse">
<stop stop-color="#C59AFD"/>
<stop offset="1" stop-color="white"/>
</linearGradient>
<linearGradient id="paint2_linear_14_824" x1="6.00002" y1="11.9637" x2="15.6638" y2="8.18298" gradientUnits="userSpaceOnUse">
<stop stop-color="#C59AFD"/>
<stop offset="1" stop-color="white"/>
</linearGradient>
<clipPath id="clip0_14_824">
<rect width="16" height="16" fill="white"/>
</clipPath>
</defs>
</svg>
