<svg width="16" height="16" viewBox="0 0 16 16" fill="none" xmlns="http://www.w3.org/2000/svg">
<g clip-path="url(#clip0_15_1732)">
<path d="M5.18301 7.85304L4.12705 6.97304C3.8682 6.75671 3.73841 6.64894 3.66875 6.50081C3.59981 6.35268 3.59981 6.18403 3.59981 5.84671V3.67468C2.64653 3.76855 2.00489 3.98047 1.52605 4.45931C0.666626 5.318 0.666626 6.70171 0.666626 9.46771C0.666626 12.2322 0.666626 13.6152 1.52605 14.474C2.38474 15.3334 3.76774 15.3334 6.53301 15.3334H9.46616C12.2314 15.3334 13.6144 15.3334 14.4732 14.474C15.3326 13.616 15.3326 12.233 15.3326 9.46771C15.3326 6.70244 15.3326 5.31874 14.4732 4.45931C13.9943 3.98047 13.352 3.76855 12.3979 3.67468C12.3994 3.88001 12.3994 4.09926 12.3994 4.33465V5.84744C12.3994 6.18476 12.3994 6.35342 12.3297 6.50154C12.2608 6.64967 12.1318 6.75818 11.8714 6.97378L10.8154 7.85378C9.46909 8.97571 8.79596 9.53664 7.99963 9.53664C7.20323 9.53664 6.52934 8.97571 5.18301 7.85304Z" fill="url(#paint0_linear_15_1732)"/>
<path fill-rule="evenodd" clip-rule="evenodd" d="M4.58384 9.18629L3.52863 8.30629L3.52387 8.30236L3.52335 8.30193C3.268 8.08848 3.13877 7.98046 3.06959 7.83407C3.00065 7.68594 3.00065 7.51655 3.00065 7.17924V5.66644C3.00065 5.58613 3.00049 5.50778 3.00032 5.43128C2.99999 5.28356 2.99968 5.14273 3.00065 5.00794C3.00945 3.70927 3.07325 3.00091 3.53743 2.53673C3.99276 2.08139 4.68398 2.01231 5.93827 2.00183C5.41474 2.03372 5 2.4684 5 2.99996V6.99996C5 7.55224 5.44772 7.99996 6 7.99996H10C10.5523 7.99996 11 7.55224 11 6.99996V2.99996C11 2.62864 10.7976 2.30459 10.4971 2.13209C10.8167 2.21079 11.0628 2.33637 11.2635 2.53673C11.7269 3.00091 11.7899 3.70927 11.7987 5.00794C11.8002 5.21166 11.8002 5.4315 11.8002 5.66599V5.66644V7.17924C11.8002 7.51728 11.8002 7.68594 11.7305 7.83407C11.6616 7.98146 11.5318 8.08996 11.273 8.30556L10.217 9.18556C8.86993 10.3082 8.1968 10.8692 7.39973 10.8692C6.60406 10.8692 5.93017 10.3082 4.58384 9.18629Z" fill="#D49F34"/>
<path fill-rule="evenodd" clip-rule="evenodd" d="M4.12787 6.97296L5.18308 7.85296C6.52942 8.97489 7.20331 9.53583 7.99897 9.53583C8.79604 9.53583 9.46917 8.97489 10.8162 7.85223L11.8722 6.97223C12.131 6.75663 12.2608 6.64813 12.3298 6.50074C12.3994 6.35261 12.3994 6.18395 12.3994 5.84591V4.33311C12.3994 4.09846 12.3994 3.87847 12.398 3.67461C12.3892 2.37594 12.3261 1.66758 11.8627 1.2034C11.3252 0.666626 10.4614 0.666626 8.73298 0.666626H7.26638C5.538 0.666626 4.67344 0.666626 4.13667 1.2034C3.67249 1.66758 3.60869 2.37594 3.59989 3.67461C3.59893 3.8094 3.59923 3.95023 3.59956 4.09795C3.59973 4.17445 3.59989 4.2528 3.59989 4.33311V5.84591C3.59989 6.18322 3.59989 6.35261 3.66883 6.50074C3.73806 6.64723 3.86741 6.75529 4.12311 6.96903L4.12787 6.97296Z" fill="url(#paint1_linear_15_1732)"/>
<path fill-rule="evenodd" clip-rule="evenodd" d="M10.1667 12H3.83333C3.37333 12 3 12.3733 3 12.8333C3 13.2933 3.37333 13.6667 3.83333 13.6667H10.1667C10.6267 13.6667 11 13.2933 11 12.8333C11 12.3733 10.6267 12 10.1667 12Z" fill="#D49F34"/>
<path fill-rule="evenodd" clip-rule="evenodd" d="M9.16667 4H5.83333C5.37333 4 5 4.37333 5 4.83333C5 5.29333 5.37333 5.66667 5.83333 5.66667H9.16667C9.62667 5.66667 10 5.29333 10 4.83333C10 4.37333 9.62667 4 9.16667 4Z" fill="#D49F34"/>
<path fill-rule="evenodd" clip-rule="evenodd" d="M11.1667 11H4.83333C4.37333 11 4 11.3733 4 11.8333C4 12.2933 4.37333 12.6667 4.83333 12.6667H11.1667C11.6267 12.6667 12 12.2933 12 11.8333C12 11.3733 11.6267 11 11.1667 11Z" fill="url(#paint2_linear_15_1732)"/>
<path fill-rule="evenodd" clip-rule="evenodd" d="M9.66667 3H6.33333C5.87333 3 5.5 3.37333 5.5 3.83333C5.5 4.29333 5.87333 4.66667 6.33333 4.66667H9.66667C10.1267 4.66667 10.5 4.29333 10.5 3.83333C10.5 3.37333 10.1267 3 9.66667 3Z" fill="url(#paint3_linear_15_1732)"/>
</g>
<defs>
<linearGradient id="paint0_linear_15_1732" x1="3.41649" y1="14.6039" x2="10.2373" y2="4.30689" gradientUnits="userSpaceOnUse">
<stop stop-color="#FF8860"/>
<stop offset="1" stop-color="#FBD92C"/>
</linearGradient>
<linearGradient id="paint1_linear_15_1732" x1="5.24928" y1="8.98085" x2="10.7997" y2="2.37168" gradientUnits="userSpaceOnUse">
<stop stop-color="#FF8860"/>
<stop offset="1" stop-color="#FBD92C"/>
</linearGradient>
<linearGradient id="paint2_linear_15_1732" x1="6" y1="12.25" x2="6.33278" y2="10.6527" gradientUnits="userSpaceOnUse">
<stop stop-color="#FBD92C"/>
<stop offset="1" stop-color="white"/>
</linearGradient>
<linearGradient id="paint3_linear_15_1732" x1="6.75" y1="4.25" x2="7.25" y2="2.75" gradientUnits="userSpaceOnUse">
<stop stop-color="#FBD92C"/>
<stop offset="1" stop-color="white"/>
</linearGradient>
<clipPath id="clip0_15_1732">
<rect width="16" height="16" fill="white"/>
</clipPath>
</defs>
</svg>
