<svg width="16" height="16" viewBox="0 0 16 16" fill="none" xmlns="http://www.w3.org/2000/svg">
<g clip-path="url(#clip0_129_45)">
<path d="M0 10.8928C0 11.5704 0.5456 12.116 1.636 13.2064L2.7936 14.364C3.884 15.4544 4.4296 16 5.1072 16C5.7848 16 6.3312 15.4544 7.4216 14.364L14.364 7.4216C15.4544 6.3304 16 5.784 16 5.1072C16 4.4304 15.4544 3.884 14.364 2.7936L13.2064 1.636C12.116 0.5456 11.5704 0 10.8928 0C10.2896 0 9.792 0.432 8.9216 1.2944L8.0816 2.1328L7.224 2.9912L6.384 3.8296L5.528 4.688L4.688 5.5272L3.8304 6.384L2.992 7.224L2.1336 8.0824L1.2952 8.9216C0.4312 9.792 0 10.2896 0 10.8928Z" fill="url(#paint0_linear_129_45)"/>
<path fill-rule="evenodd" clip-rule="evenodd" d="M0.00309765 10.9805C0.00103257 10.9515 0 10.9223 0 10.8928C0 10.4401 0.24288 10.0468 0.729317 9.51086L1.91196 10.6935C1.98829 10.7647 2.04951 10.8504 2.09196 10.9457C2.13443 11.041 2.15726 11.1439 2.1591 11.2482C2.16094 11.3525 2.14175 11.4561 2.10268 11.5528C2.06361 11.6495 2.00546 11.7374 1.93169 11.8111C1.85792 11.885 1.77005 11.9431 1.67332 11.9822C1.57659 12.0213 1.47298 12.0405 1.36867 12.0386C1.26436 12.0367 1.1615 12.0139 1.0662 11.9714C0.97091 11.929 0.88515 11.8678 0.81403 11.7914L0.00309765 10.9805ZM8.40745 1.80755L8.9216 1.29438C9.14251 1.0755 9.3394 0.88435 9.5201 0.720947L10.7006 1.90485C10.8378 2.05211 10.9125 2.24689 10.909 2.44815C10.9055 2.6494 10.824 2.84142 10.6816 2.98375C10.5393 3.12608 10.3472 3.20761 10.146 3.21116C9.94476 3.21471 9.74999 3.14001 9.60272 3.00279L8.40745 1.80755ZM6.21002 4.00405L6.384 3.82958L7.224 2.99118L7.30855 2.90655L9.23603 4.83407C9.37763 4.98051 9.45603 5.17671 9.45436 5.38039C9.45268 5.58408 9.37108 5.77896 9.22708 5.92306C9.08316 6.06716 8.88832 6.14895 8.68461 6.15082C8.48098 6.15268 8.28468 6.07447 8.13807 5.93303L6.21002 4.00405ZM4.01248 6.20207L4.688 5.52718L5.11177 5.10381L6.30679 6.2997C6.38316 6.37082 6.44439 6.45659 6.48679 6.55188C6.52927 6.64717 6.5521 6.75004 6.55392 6.85435C6.55581 6.95864 6.53661 7.06228 6.49756 7.159C6.45843 7.25573 6.40032 7.34358 6.32658 7.41733C6.25276 7.49115 6.1649 7.54926 6.06818 7.58838C5.97145 7.62744 5.86781 7.64664 5.76352 7.64475C5.65923 7.64293 5.55632 7.62009 5.46106 7.57762C5.36577 7.53515 5.28001 7.47399 5.20889 7.39762L4.01248 6.20207ZM1.81635 8.39993L2.1336 8.08238L2.91508 7.3009L4.84222 9.22889C4.91638 9.3006 4.97552 9.38635 5.01618 9.48118C5.05685 9.57595 5.07823 9.67791 5.07908 9.78104C5.07993 9.88417 5.06023 9.98649 5.02112 10.0819C4.98201 10.1774 4.92429 10.2641 4.85132 10.337C4.77834 10.4099 4.69158 10.4676 4.5961 10.5066C4.5006 10.5455 4.3983 10.5652 4.29515 10.5642C4.19201 10.5633 4.09008 10.5418 3.99532 10.501C3.90056 10.4603 3.81487 10.4011 3.74324 10.3269L1.81635 8.39993Z" fill="#D84F4F"/>
<path d="M10.2553 0.221061C10.2275 0.19368 10.1978 0.1684 10.1663 0.145447L9.07973 1.23095C9.10249 1.26203 9.12838 1.29206 9.15631 1.32004L10.621 2.78464C10.7682 2.92186 10.963 2.99657 11.1642 2.99302C11.3655 2.98946 11.5575 2.90793 11.6999 2.76561C11.8422 2.62327 11.9237 2.43125 11.9273 2.23C11.9308 2.02874 11.8561 1.83396 11.7189 1.68671L10.2564 0.220029L10.2553 0.221061ZM8.0574 2.41901C8.02962 2.39127 7.99987 2.36565 7.96831 2.34236L6.88278 3.42787C6.90576 3.4597 6.93136 3.48951 6.95944 3.51695L9.15631 5.71489C9.30293 5.85633 9.49922 5.93454 9.70286 5.93268C9.90656 5.93081 10.1014 5.84902 10.2453 5.70492C10.3893 5.56081 10.4709 5.36593 10.4726 5.16225C10.4743 4.95856 10.3959 4.76236 10.2543 4.61592L8.0574 2.41901ZM5.86046 4.61592C5.83273 4.58817 5.80295 4.56255 5.77138 4.53926L4.68484 5.62478C4.70763 5.65585 4.73352 5.68692 4.76149 5.71489L6.22713 7.17948C6.29825 7.25584 6.38401 7.317 6.47931 7.35948C6.57456 7.40195 6.67747 7.42478 6.78176 7.4266C6.88606 7.42849 6.98969 7.40929 7.08642 7.37024C7.18315 7.33111 7.271 7.273 7.34482 7.19918C7.41856 7.12544 7.47667 7.03758 7.5158 6.94086C7.55486 6.84413 7.57406 6.74049 7.57216 6.6362C7.57035 6.5319 7.54751 6.42902 7.50504 6.33373C7.46264 6.23844 7.4014 6.15268 7.32504 6.08156L5.86046 4.61592ZM3.66355 6.81286C3.63582 6.78508 3.60604 6.75947 3.57447 6.7362L2.48793 7.82275C2.51072 7.8538 2.53661 7.88384 2.56458 7.91177L4.76149 10.1087C4.83311 10.183 4.9188 10.2422 5.01356 10.2829C5.10832 10.3237 5.21025 10.3451 5.31339 10.3461C5.41654 10.347 5.51885 10.3274 5.61434 10.2884C5.70982 10.2494 5.79659 10.1918 5.86956 10.1188C5.94254 10.0459 6.00026 9.95926 6.03936 9.86377C6.07847 9.76835 6.09817 9.66602 6.09733 9.56289C6.09648 9.45977 6.0751 9.3578 6.03443 9.26304C5.99376 9.1682 5.93462 9.08246 5.86046 9.01075L3.66355 6.81286ZM1.4656 9.01075C1.43792 8.98268 1.40814 8.95671 1.37653 8.93308L0.291016 10.0206C0.313808 10.0518 0.339699 10.0807 0.36767 10.1087L1.83227 11.5733C1.90339 11.6497 1.98915 11.7108 2.08445 11.7533C2.17974 11.7958 2.28261 11.8186 2.38691 11.8204C2.49123 11.8223 2.59483 11.8031 2.69156 11.7641C2.7883 11.7249 2.87616 11.6668 2.94993 11.593C3.0237 11.5193 3.08185 11.4314 3.12092 11.3347C3.16 11.2379 3.17918 11.1343 3.17734 11.03C3.1755 10.9257 3.15267 10.8228 3.11021 10.7275C3.06775 10.6323 3.00654 10.5465 2.93021 10.4754L1.4656 9.01075Z" fill="url(#paint1_linear_129_45)"/>
</g>
<defs>
<linearGradient id="paint0_linear_129_45" x1="3" y1="14" x2="13" y2="2" gradientUnits="userSpaceOnUse">
<stop stop-color="#FF405B"/>
<stop offset="1" stop-color="#FF8860"/>
</linearGradient>
<linearGradient id="paint1_linear_129_45" x1="3.6144" y1="11.8203" x2="7.43392" y2="2.75663" gradientUnits="userSpaceOnUse">
<stop stop-color="#FF8860"/>
<stop offset="1" stop-color="white"/>
</linearGradient>
<clipPath id="clip0_129_45">
<rect width="16" height="16" fill="white"/>
</clipPath>
</defs>
</svg>
