<svg width="16" height="16" viewBox="0 0 16 16" fill="none" xmlns="http://www.w3.org/2000/svg">
<path fill-rule="evenodd" clip-rule="evenodd" d="M4.46311 11.5338C3.0489 10.1196 1.75701 11.181 1.69337 11.2022C1.17082 11.3796 0.602306 11.0996 0.424821 10.5771C-0.523408 7.7833 0.115816 4.56738 2.34179 2.34141C5.46367 -0.780469 10.5336 -0.780469 13.6555 2.34141C16.7774 5.46328 16.7774 10.5332 13.6555 13.6551C11.4295 15.8811 8.2136 16.5203 5.41982 15.5721C4.89727 15.3946 4.61726 14.8261 4.79474 14.3035C4.81595 14.2399 5.87732 12.948 4.46311 11.5338ZM3.756 13.6551C3.36568 14.0454 2.73211 14.0454 2.34179 13.6551C1.95147 13.2648 1.95147 12.6312 2.34179 12.2409C2.73211 11.8506 3.36568 11.8506 3.756 12.2409C4.14632 12.6312 4.14632 13.2648 3.756 13.6551Z" fill="url(#paint0_linear_261_22)"/>
<path d="M2.30407 5.16127C2.11785 5.024 2.01915 4.81087 2.00255 4.60367C1.9858 4.3948 2.05067 4.16432 2.22812 4.00052C3.30975 2.96359 4.72437 2.28729 6.2056 2.07578C8.38192 1.75398 10.6906 2.46849 12.2764 4.00105C12.5118 4.21842 12.5403 4.53615 12.4585 4.78365C12.3777 5.02825 12.1696 5.26405 11.858 5.30515C11.6666 5.34532 11.4992 5.2963 11.3663 5.22422C11.2375 5.15442 11.128 5.05557 11.0486 4.98302C10.007 4.05325 8.60762 3.53655 7.2092 3.55505L7.20602 3.55509L7.20587 3.30452V3.30351L7.20602 3.55509C5.80322 3.55597 4.41022 4.10315 3.37707 5.05092C3.12095 5.32417 2.64772 5.43072 2.30407 5.16127Z" fill="#DA5CDB"/>
<path fill-rule="evenodd" clip-rule="evenodd" d="M3.85449 6.41457C3.95669 6.0696 4.30077 5.86897 4.62602 5.88245C5.81094 5.87927 6.99582 5.88005 8.17987 5.88082L8.20212 5.88085C8.72849 5.8812 9.25469 5.88155 9.78084 5.88155C10.1582 5.85445 10.5718 6.1087 10.6331 6.53595C10.7133 6.98405 10.345 7.4406 9.87414 7.4289C9.55849 7.43857 9.24352 7.43612 8.93422 7.43375L8.93189 7.43372C8.63117 7.43142 8.33577 7.42917 8.04222 7.4374C8.00982 7.4383 7.98414 7.46445 7.98452 7.4968L7.98457 7.49957C7.98487 7.52505 7.98527 7.55805 7.98377 7.59152C7.98629 8.48972 7.98602 9.38787 7.98574 10.2855V10.3098C7.98554 10.9149 7.98537 10.5199 7.98599 11.1248C7.98607 11.1848 8.03527 11.2331 8.09542 11.2321L8.10309 11.232C8.31469 11.2284 8.54637 11.2245 8.77884 11.2531C8.81619 11.2577 8.85202 11.2706 8.88372 11.2908C8.94862 11.3322 9.00574 11.3917 9.03782 11.4721C9.06922 11.5507 9.06734 11.6259 9.05647 11.6839C9.03867 11.7788 8.98724 11.8663 8.96269 11.908C8.96094 11.911 8.95934 11.9137 8.95789 11.9162C8.94157 11.9442 8.93482 11.9563 8.93124 11.9641L8.92579 11.976L8.91917 11.9873C8.70752 12.3463 8.49849 12.7072 8.28894 13.069C8.06327 13.4586 7.83662 13.85 7.60682 14.2387C7.53242 14.3994 7.37962 14.4966 7.21454 14.4999C7.04539 14.5033 6.88617 14.4072 6.81064 14.239C6.56057 13.7959 6.31447 13.3509 6.06909 12.9072C5.88909 12.5818 5.70907 12.2562 5.52804 11.9325C5.50069 11.8867 5.44572 11.7911 5.42697 11.6848C5.41669 11.6266 5.41329 11.5441 5.45009 11.4589C5.48977 11.367 5.56262 11.3031 5.64744 11.2665C5.67177 11.256 5.69759 11.2493 5.72397 11.2468C5.94044 11.2264 6.15517 11.2292 6.35464 11.2319L6.36087 11.2319C6.40057 11.2325 6.43299 11.2005 6.43304 11.1609C6.43377 10.543 6.43357 10.9251 6.43337 10.307C6.43307 9.40287 6.43279 8.49822 6.43532 7.59337C6.43334 7.55665 6.43389 7.5205 6.43432 7.4935L6.43437 7.48965C6.43482 7.461 6.41212 7.43767 6.38339 7.43687C6.11059 7.42942 5.83579 7.4319 5.55549 7.43447L5.55119 7.43452C5.21789 7.43757 4.87677 7.4407 4.53499 7.42577C4.28092 7.4141 4.07002 7.26602 3.94624 7.08175C3.82424 6.90005 3.76639 6.65295 3.85449 6.41457Z" fill="#DA5CDB"/>
<path d="M3.05407 3.91127C2.86785 3.774 2.76915 3.56087 2.75255 3.35367C2.7358 3.1448 2.80067 2.91432 2.97812 2.75052C4.05975 1.71359 5.47437 1.03729 6.9556 0.825782C9.13192 0.503984 11.4406 1.21849 13.0264 2.75105C13.2618 2.96842 13.2903 3.28615 13.2085 3.53365C13.1277 3.77825 12.9196 4.01405 12.608 4.05515C12.4166 4.09532 12.2492 4.0463 12.1163 3.97422C11.9875 3.90442 11.878 3.80557 11.7986 3.73302C10.757 2.80325 9.35762 2.28655 7.9592 2.30505L7.95602 2.30509L7.95587 2.05452V2.05351L7.95602 2.30509C6.55322 2.30597 5.16022 2.85315 4.12707 3.80092C3.87095 4.07417 3.39772 4.18072 3.05407 3.91127Z" fill="url(#paint1_linear_261_22)"/>
<path fill-rule="evenodd" clip-rule="evenodd" d="M4.60449 5.16457C4.70669 4.8196 5.05077 4.61897 5.37602 4.63245C6.56094 4.62927 7.74582 4.63005 8.92987 4.63082L8.95212 4.63085C9.47849 4.6312 10.0047 4.63155 10.5308 4.63155C10.9082 4.60445 11.3218 4.8587 11.3831 5.28595C11.4633 5.73405 11.095 6.1906 10.6241 6.1789C10.3085 6.18857 9.99352 6.18612 9.68422 6.18375L9.68189 6.18372C9.38117 6.18142 9.3248 6.1755 9.03125 6.18372C8.68343 6.19347 8.73457 6.34375 8.73457 6.71484V7.29297C8.73607 7.25949 8.73487 7.31844 8.73457 7.29297C8.73709 8.19117 8.73602 8.13787 8.73574 9.03555V9.05977C8.73554 9.66492 8.73537 9.26987 8.73599 9.87477C8.73607 9.93477 8.78527 9.98312 8.84542 9.9821L8.85309 9.98197C9.06469 9.9784 9.29637 9.9745 9.52884 10.0031C9.56619 10.0077 9.60202 10.0206 9.63372 10.0408C9.69862 10.0822 9.75574 10.1417 9.78782 10.2221C9.81922 10.3007 9.81734 10.3759 9.80647 10.4339C9.78867 10.5288 9.73724 10.6163 9.71269 10.658C9.71094 10.661 9.70934 10.6637 9.70789 10.6662C9.69157 10.6942 9.68482 10.7063 9.68124 10.7141L9.67579 10.726L9.66917 10.7373C9.45752 11.0963 9.24849 11.4572 9.03894 11.819C8.81327 12.2086 8.58662 12.6 8.35682 12.9887C8.28242 13.1494 8.12962 13.2466 7.96454 13.2499C7.79539 13.2533 7.63617 13.1572 7.56064 12.989C7.31057 12.5459 7.06447 12.1009 6.81909 11.6572C6.63909 11.3318 6.45907 11.0062 6.27804 10.6825C6.25069 10.6367 6.19572 10.5411 6.17697 10.4348C6.16669 10.3766 6.16329 10.2941 6.20009 10.2089C6.23977 10.117 6.31262 10.0531 6.39744 10.0165C6.42177 10.006 6.44759 9.99935 6.47397 9.99685C6.69044 9.97642 6.90517 9.97925 7.10464 9.98187L7.11087 9.98195C7.15057 9.98247 7.18299 9.95055 7.18304 9.91095C7.18377 9.293 7.18357 9.6751 7.18337 9.05697C7.18307 8.15287 7.18184 8.8719 7.18437 7.96705C7.18239 7.93032 7.18315 6.88267 7.18358 6.85567C7.18304 6.34152 7.18304 6.17577 6.95542 6.1874C6.68262 6.17995 6.58579 6.1819 6.30549 6.18447L6.30119 6.18452C5.96789 6.18757 5.62677 6.1907 5.28499 6.17577C5.03092 6.1641 4.82002 6.01602 4.69624 5.83175C4.57424 5.65005 4.51639 5.40295 4.60449 5.16457Z" fill="url(#paint2_linear_261_22)"/>
<defs>
<linearGradient id="paint0_linear_261_22" x1="1.14264" y1="14.7664" x2="15.7746" y2="2.31177" gradientUnits="userSpaceOnUse">
<stop stop-color="#FE5AFF"/>
<stop offset="1" stop-color="#FE9EFF"/>
</linearGradient>
<linearGradient id="paint1_linear_261_22" x1="2.75" y1="4.06946" x2="2.94426" y2="0.228866" gradientUnits="userSpaceOnUse">
<stop stop-color="#FE9EFF"/>
<stop offset="1" stop-color="white"/>
</linearGradient>
<linearGradient id="paint2_linear_261_22" x1="4.56201" y1="13.2497" x2="6.5014" y2="3.64226" gradientUnits="userSpaceOnUse">
<stop stop-color="#FE9EFF"/>
<stop offset="1" stop-color="white"/>
</linearGradient>
</defs>
</svg>
