<svg width="16" height="16" viewBox="0 0 16 16" fill="none" xmlns="http://www.w3.org/2000/svg">
<g clip-path="url(#clip0_67_1466)">
<path fill-rule="evenodd" clip-rule="evenodd" d="M5 0H10.18C10.97 0 11.728 0.314 12.287 0.872C12.817 1.403 13.597 2.183 14.128 2.713C14.686 3.272 15 4.03 15 4.82V13.021C15 13.811 14.686 14.569 14.128 15.128C13.569 15.686 12.811 16 12.021 16C9.796 16 6.204 16 3.979 16C3.189 16 2.431 15.686 1.872 15.128C1.314 14.569 1 13.811 1 13.021V4C1 3.448 1.448 3 2 3C3.104 3 4 2.104 4 1C4 0.448 4.448 0 5 0ZM3 1C3 1.552 2.552 2 2 2C1.448 2 1 1.552 1 1C1 0.448 1.448 0 2 0C2.552 0 3 0.448 3 1Z" fill="url(#paint0_linear_67_1466)"/>
<path d="M11.6524 11.7991H9.85198C9.60318 11.7991 9.40186 11.5978 9.40186 11.3489V5.94756C9.40186 5.69876 9.60318 5.49744 9.85198 5.49744H11.6524C11.9013 5.49744 12.1026 5.69876 12.1026 5.94756V11.3489C12.1026 11.5978 11.9013 11.7991 11.6524 11.7991Z" fill="#D49F34"/>
<path d="M8.05149 11.7991H6.25103C6.00223 11.7991 5.8009 11.5978 5.8009 11.349V7.74803C5.8009 7.49923 6.00223 7.29791 6.25103 7.29791H8.05149C8.30029 7.29791 8.50161 7.49923 8.50161 7.74803V11.349C8.50161 11.5978 8.30029 11.7991 8.05149 11.7991Z" fill="#D49F34"/>
<path d="M4.45053 11.7991H2.65007C2.40127 11.7991 2.19995 11.5978 2.19995 11.349V9.54851C2.19995 9.29971 2.40127 9.09839 2.65007 9.09839H4.45053C4.69933 9.09839 4.90066 9.29971 4.90066 9.54851V11.349C4.90066 11.5978 4.69933 11.7991 4.45053 11.7991Z" fill="#D49F34"/>
<path d="M12.7499 10.7017H10.9494C10.7006 10.7017 10.4993 10.5003 10.4993 10.2515V4.85015C10.4993 4.60135 10.7006 4.40002 10.9494 4.40002H12.7499C12.9987 4.40002 13.2 4.60135 13.2 4.85015V10.2515C13.2 10.5003 12.9987 10.7017 12.7499 10.7017Z" fill="url(#paint1_linear_67_1466)"/>
<path d="M9.1489 10.7017H7.34844C7.09964 10.7017 6.89832 10.5004 6.89832 10.2515V6.65062C6.89832 6.40182 7.09964 6.2005 7.34844 6.2005H9.1489C9.3977 6.2005 9.59902 6.40182 9.59902 6.65062V10.2515C9.59902 10.5004 9.3977 10.7017 9.1489 10.7017Z" fill="url(#paint2_linear_67_1466)"/>
<path d="M5.54795 10.7017H3.74749C3.49869 10.7017 3.29736 10.5004 3.29736 10.2516V8.4511C3.29736 8.2023 3.49869 8.00098 3.74749 8.00098H5.54795C5.79675 8.00098 5.99807 8.2023 5.99807 8.4511V10.2516C5.99807 10.5004 5.79675 10.7017 5.54795 10.7017Z" fill="url(#paint3_linear_67_1466)"/>
</g>
<defs>
<linearGradient id="paint0_linear_67_1466" x1="3.625" y1="14.9988" x2="13.7787" y2="4.33656" gradientUnits="userSpaceOnUse">
<stop stop-color="#FF8860"/>
<stop offset="1" stop-color="#FBD92C"/>
</linearGradient>
<linearGradient id="paint1_linear_67_1466" x1="11.1745" y1="9.12625" x2="13.4561" y2="8.1484" gradientUnits="userSpaceOnUse">
<stop stop-color="#FBD92C"/>
<stop offset="1" stop-color="white"/>
</linearGradient>
<linearGradient id="paint2_linear_67_1466" x1="7.57349" y1="9.57639" x2="9.55931" y2="8.3849" gradientUnits="userSpaceOnUse">
<stop stop-color="#FBD92C"/>
<stop offset="1" stop-color="white"/>
</linearGradient>
<linearGradient id="paint3_linear_67_1466" x1="3.97254" y1="10.0265" x2="5.3229" y2="8.67616" gradientUnits="userSpaceOnUse">
<stop stop-color="#FBD92C"/>
<stop offset="1" stop-color="white"/>
</linearGradient>
<clipPath id="clip0_67_1466">
<rect width="16" height="16" fill="white"/>
</clipPath>
</defs>
</svg>
