<svg width="16" height="16" viewBox="0 0 16 16" fill="none" xmlns="http://www.w3.org/2000/svg">
<g clip-path="url(#clip0_67_1450)">
<path fill-rule="evenodd" clip-rule="evenodd" d="M5 0H10.18C10.97 0 11.728 0.314 12.287 0.872C12.817 1.403 13.597 2.183 14.128 2.713C14.686 3.272 15 4.03 15 4.82V13.021C15 13.811 14.686 14.569 14.128 15.128C13.569 15.686 12.811 16 12.021 16C9.796 16 6.204 16 3.979 16C3.189 16 2.431 15.686 1.872 15.128C1.314 14.569 1 13.811 1 13.021V4C1 3.448 1.448 3 2 3C3.104 3 4 2.104 4 1C4 0.448 4.448 0 5 0ZM3 1C3 1.552 2.552 2 2 2C1.448 2 1 1.552 1 1C1 0.448 1.448 0 2 0C2.552 0 3 0.448 3 1Z" fill="url(#paint0_linear_67_1450)"/>
<path fill-rule="evenodd" clip-rule="evenodd" d="M3.44898 4.57141C3.20101 4.57141 3 4.77242 3 5.02039V13.551C3 13.7989 3.20101 14 3.44898 14H7.7346C8.26209 14 8.73854 13.8877 9.16391 13.6628C9.5978 13.4379 9.94236 13.1142 10.1977 12.6916C10.4529 12.26 10.5805 11.7564 10.5805 11.1808C10.5805 10.6413 10.4783 10.2052 10.2741 9.87247C10.2076 9.761 10.1288 9.65823 10.0378 9.56405C9.78459 9.30183 9.73252 8.7907 9.92937 8.48395C9.97086 8.41942 10.0092 8.35164 10.0445 8.28082C10.2146 7.93909 10.2997 7.57043 10.2997 7.17474C10.2997 6.33844 10.0487 5.69547 9.54678 5.24587C9.05332 4.79624 8.37694 4.57141 7.51768 4.57141H3.44898ZM8.01535 7.32309C8.01535 7.97953 7.68358 8.30774 7.01997 8.30774H5.70782C5.45985 8.30774 5.25883 8.10681 5.25883 7.85884V6.80095C5.25883 6.55294 5.45985 6.35193 5.70782 6.35193H6.98166C7.33048 6.35193 7.58999 6.42385 7.76013 6.56775C7.93026 6.70269 8.01535 6.95443 8.01535 7.32309ZM8.01535 11.9902C7.82819 12.1431 7.5432 12.2194 7.16034 12.2194H5.70782C5.45985 12.2194 5.25883 12.0185 5.25883 11.7705V10.5238C5.25883 10.2758 5.45985 10.0748 5.70782 10.0748H7.10929C7.50912 10.0748 7.80694 10.1648 8.0026 10.3445C8.19829 10.5154 8.29612 10.7942 8.29612 11.1808C8.29612 11.5675 8.20255 11.8373 8.01535 11.9902Z" fill="#8C4FD9"/>
<path fill-rule="evenodd" clip-rule="evenodd" d="M5.02039 3C4.77242 3 4.57141 3.20101 4.57141 3.44898V11.9796C4.57141 12.2275 4.77242 12.4286 5.02039 12.4286H9.30601C9.8335 12.4286 10.31 12.3163 10.7353 12.0913C11.1692 11.8665 11.5138 11.5428 11.7691 11.1202C12.0243 10.6886 12.1519 10.185 12.1519 9.60943C12.1519 9.0699 12.0497 8.63378 11.8456 8.30106C11.779 8.18959 11.7002 8.08682 11.6092 7.99264C11.356 7.73042 11.3039 7.21929 11.5008 6.91254C11.5423 6.84801 11.5806 6.78023 11.6159 6.70941C11.786 6.36768 11.8711 5.99902 11.8711 5.60333C11.8711 4.76703 11.6201 4.12406 11.1182 3.67446C10.6247 3.22483 9.94835 3 9.08909 3H5.02039ZM9.58676 5.75168C9.58676 6.40811 9.25499 6.73633 8.59138 6.73633H7.27923C7.03126 6.73633 6.83025 6.5354 6.83025 6.28743V5.22954C6.83025 4.98153 7.03126 4.78052 7.27923 4.78052H8.55308C8.90189 4.78052 9.1614 4.85244 9.33154 4.99634C9.50167 5.13128 9.58676 5.38302 9.58676 5.75168ZM9.58676 10.4188C9.3996 10.5717 9.11461 10.648 8.73175 10.648H7.27923C7.03126 10.648 6.83025 10.4471 6.83025 10.1991V8.95236C6.83025 8.70439 7.03126 8.50335 7.27923 8.50335H8.6807C9.08053 8.50335 9.37835 8.59334 9.57401 8.77311C9.7697 8.94398 9.86753 9.22275 9.86753 9.60943C9.86753 9.9961 9.77396 10.2659 9.58676 10.4188Z" fill="url(#paint1_linear_67_1450)"/>
</g>
<defs>
<linearGradient id="paint0_linear_67_1450" x1="4.5" y1="14.8571" x2="15.212" y2="3.92197" gradientUnits="userSpaceOnUse">
<stop stop-color="#A056FF"/>
<stop offset="1" stop-color="#C59AFD"/>
</linearGradient>
<linearGradient id="paint1_linear_67_1450" x1="6.46653" y1="12.4286" x2="14.1284" y2="10.3752" gradientUnits="userSpaceOnUse">
<stop stop-color="#C59AFD"/>
<stop offset="1" stop-color="white"/>
</linearGradient>
<clipPath id="clip0_67_1450">
<rect width="16" height="16" fill="white"/>
</clipPath>
</defs>
</svg>
