<svg width="16" height="16" viewBox="0 0 16 16" fill="none" xmlns="http://www.w3.org/2000/svg">
<g clip-path="url(#clip0_8_503)">
<path fill-rule="evenodd" clip-rule="evenodd" d="M5 0H10.18C10.97 0 11.728 0.314 12.287 0.872C12.817 1.403 13.597 2.183 14.128 2.713C14.686 3.272 15 4.03 15 4.82V13.021C15 13.811 14.686 14.569 14.128 15.128C13.569 15.686 12.811 16 12.021 16C9.796 16 6.204 16 3.979 16C3.189 16 2.431 15.686 1.872 15.128C1.314 14.569 1 13.811 1 13.021V4C1 3.448 1.448 3 2 3C3.104 3 4 2.104 4 1C4 0.448 4.448 0 5 0ZM3 1C3 1.552 2.552 2 2 2C1.448 2 1 1.552 1 1C1 0.448 1.448 0 2 0C2.552 0 3 0.448 3 1Z" fill="url(#paint0_linear_8_503)"/>
<path fill-rule="evenodd" clip-rule="evenodd" d="M5.51801 13H9.51801C10.07 13 10.518 12.552 10.518 12C10.518 11.448 10.07 11 9.51801 11H5.51801C4.96601 11 4.51801 11.448 4.51801 12C4.51801 12.552 4.96601 13 5.51801 13ZM5.51801 10H7.51801C8.07001 10 8.51801 9.552 8.51801 9C8.51801 8.448 8.07001 8 7.51801 8H5.51801C4.96601 8 4.51801 8.448 4.51801 9C4.51801 9.552 4.96601 10 5.51801 10Z" fill="#4054D4"/>
<path fill-rule="evenodd" clip-rule="evenodd" d="M7.51801 2V5.036C7.51801 6.673 8.84501 8 10.482 8C11.034 8 11.482 7.552 11.482 7C11.482 6.448 11.034 6 10.482 6C9.95001 6 9.51801 5.568 9.51801 5.036V2C9.51801 1.448 9.07001 1 8.51801 1C7.96601 1 7.51801 1.448 7.51801 2Z" fill="#5D6ED5"/>
<path fill-rule="evenodd" clip-rule="evenodd" d="M8 1V4.03625C8 5.6725 9.3275 7 10.9638 7C11.5163 7 11.9638 6.5525 11.9638 6C11.9638 5.4475 11.5163 5 10.9638 5C10.4313 5 10 4.56875 10 4.03625V1C10 0.4475 9.5525 0 9 0C8.4475 0 8 0.4475 8 1Z" fill="url(#paint1_linear_8_503)"/>
<path fill-rule="evenodd" clip-rule="evenodd" d="M6 9H8C8.552 9 9 8.552 9 8C9 7.448 8.552 7 8 7H6C5.448 7 5 7.448 5 8C5 8.552 5.448 9 6 9Z" fill="url(#paint2_linear_8_503)"/>
<path fill-rule="evenodd" clip-rule="evenodd" d="M6 12H10C10.552 12 11 11.552 11 11C11 10.448 10.552 10 10 10H6C5.448 10 5 10.448 5 11C5 11.552 5.448 12 6 12Z" fill="url(#paint3_linear_8_503)"/>
</g>
<defs>
<linearGradient id="paint0_linear_8_503" x1="2" y1="16" x2="14" y2="1" gradientUnits="userSpaceOnUse">
<stop stop-color="#2945FA"/>
<stop offset="1" stop-color="#98A7FF"/>
</linearGradient>
<linearGradient id="paint1_linear_8_503" x1="8" y1="7" x2="11" y2="1" gradientUnits="userSpaceOnUse">
<stop stop-color="#98A7FF"/>
<stop offset="1" stop-color="white"/>
</linearGradient>
<linearGradient id="paint2_linear_8_503" x1="5" y1="9" x2="9" y2="7" gradientUnits="userSpaceOnUse">
<stop stop-color="#98A7FF"/>
<stop offset="1" stop-color="white"/>
</linearGradient>
<linearGradient id="paint3_linear_8_503" x1="5" y1="12" x2="11" y2="10" gradientUnits="userSpaceOnUse">
<stop stop-color="#98A7FF"/>
<stop offset="1" stop-color="white"/>
</linearGradient>
<clipPath id="clip0_8_503">
<rect width="16" height="16" fill="white"/>
</clipPath>
</defs>
</svg>
