<svg width="16" height="16" viewBox="0 0 16 16" fill="none" xmlns="http://www.w3.org/2000/svg">
<g clip-path="url(#clip0_8_185)">
<path d="M13.6847 10.2734C14.3816 9.57635 14.8831 8.70855 15.1392 7.75682C15.3953 6.80509 15.397 5.8028 15.144 4.85022C14.8911 3.89764 14.3924 3.02819 13.698 2.32886C13.0034 1.62953 12.1375 1.12485 11.1866 0.865313C10.2358 0.60578 9.23356 0.600494 8.28009 0.849987C7.32656 1.09947 6.45534 1.59499 5.75351 2.28696C5.05167 2.97892 4.54387 3.84307 4.28091 4.79293C4.01794 5.74279 4.00903 6.74502 4.25507 7.69942C4.33248 8.00009 4.26323 8.32522 4.04486 8.54435L1.01951 11.5689C0.891693 11.6968 0.794273 11.8518 0.734473 12.0225C0.674673 12.1932 0.654019 12.3751 0.67404 12.5548L0.863073 14.257C0.883446 14.4386 0.964927 14.6073 1.09366 14.7368L1.26314 14.9063C1.39229 15.0354 1.56154 15.1168 1.74305 15.1369L3.44517 15.326C3.62489 15.346 3.80681 15.3253 3.97747 15.2655C4.14813 15.2057 4.30316 15.1083 4.43107 14.9805L7.45563 11.9552C7.67563 11.7352 7.99989 11.6675 8.30056 11.7449C9.10689 11.9528 9.94756 11.9786 10.7619 11.8228C10.9096 11.7946 11 11.6503 11 11.5C11 10.6716 11.6716 10 12.5 10C12.8284 10 13.1321 10.1055 13.3792 10.2845C13.4726 10.3522 13.6032 10.355 13.6847 10.2734Z" fill="url(#paint0_linear_8_185)"/>
<path d="M13 13C13.5523 13 14 12.5523 14 12C14 11.4477 13.5523 11 13 11C12.4477 11 12 11.4477 12 12C12 12.5523 12.4477 13 13 13Z" fill="url(#paint1_linear_8_185)"/>
<path d="M9.80179 6.49749C9.65146 6.34185 9.47159 6.21771 9.27279 6.1323C9.07399 6.04689 8.86013 6.00194 8.64379 6.00006C8.42739 5.99818 8.21279 6.03941 8.01253 6.12135C7.81226 6.20329 7.63033 6.32429 7.47733 6.47729C7.32433 6.6303 7.20333 6.81225 7.12139 7.01252C7.03946 7.21279 6.99819 7.42738 7.00006 7.64376C7.00199 7.86014 7.04693 8.07393 7.13233 8.2728C7.21773 8.4716 7.34186 8.6514 7.49753 8.80173C7.80486 9.0986 8.21653 9.26287 8.64379 9.25913C9.07106 9.2554 9.47979 9.084 9.78193 8.78187C10.0841 8.47973 10.2555 8.071 10.2591 7.64376C10.2629 7.21648 10.0986 6.80484 9.80179 6.49749Z" fill="#D49F34"/>
<path d="M4.63632 14.8645L2.78847 13.0533C2.72989 12.9973 2.68306 12.9293 2.6507 12.8549C2.61835 12.7805 2.60112 12.7004 2.60003 12.6193C2.59894 12.5382 2.614 12.4577 2.64434 12.3825C2.67467 12.3073 2.71968 12.2389 2.77672 12.1812C2.83378 12.1236 2.90173 12.0779 2.97663 12.0467C3.05152 12.0157 3.13187 11.9997 3.21297 12C3.29408 12.0003 3.37432 12.0167 3.44902 12.0482C3.52372 12.0798 3.59139 12.1259 3.64808 12.1839L5.5 14L4.63632 14.8645Z" fill="#D49F34"/>
<path d="M3.5862 12.9948L5.00884 14.4019L5.87252 13.5375L4.44581 12.1254C4.38912 12.0674 4.32145 12.0213 4.24675 11.9897C4.17205 11.9581 4.09181 11.9417 4.0107 11.9415C3.9296 11.9412 3.84925 11.9571 3.77436 11.9882C3.69946 12.0193 3.63151 12.0651 3.57445 12.1227C3.51741 12.1803 3.4724 12.2487 3.44207 12.324C3.41173 12.3992 3.39667 12.4797 3.39776 12.5608C3.39885 12.6419 3.41608 12.7219 3.44843 12.7963C3.48079 12.8707 3.52762 12.9387 3.5862 12.9948Z" fill="url(#paint2_linear_8_185)"/>
<path d="M10.2527 4.85319C10.4515 4.93859 10.6313 5.06274 10.7817 5.21838C11.0785 5.52573 11.2427 5.93737 11.239 6.36464C11.2353 6.79189 11.0639 7.20062 10.7618 7.50275C10.4597 7.80489 10.0509 7.97629 9.62365 7.98002C9.19639 7.98375 8.78472 7.81949 8.47739 7.52262C8.32172 7.37229 8.19759 7.19249 8.11219 6.99369C8.02679 6.79482 7.98185 6.58102 7.97992 6.36464C7.97805 6.14827 8.01932 5.93368 8.10125 5.73341C8.18319 5.53314 8.30419 5.35119 8.45719 5.19818C8.61019 5.04517 8.79212 4.92417 8.99239 4.84223C9.19265 4.7603 9.40725 4.71907 9.62365 4.72095C9.83999 4.72283 10.0539 4.76778 10.2527 4.85319Z" fill="url(#paint3_linear_8_185)"/>
</g>
<defs>
<linearGradient id="paint0_linear_8_185" x1="3.41648" y1="14.4156" x2="12.5824" y2="3.41625" gradientUnits="userSpaceOnUse">
<stop stop-color="#FF8860"/>
<stop offset="1" stop-color="#FBD92C"/>
</linearGradient>
<linearGradient id="paint1_linear_8_185" x1="3.41648" y1="14.4156" x2="12.5824" y2="3.41625" gradientUnits="userSpaceOnUse">
<stop stop-color="#FF8860"/>
<stop offset="1" stop-color="#FBD92C"/>
</linearGradient>
<linearGradient id="paint2_linear_8_185" x1="4.01641" y1="13.7868" x2="5.24662" y2="12.5494" gradientUnits="userSpaceOnUse">
<stop stop-color="#FBD92C"/>
<stop offset="1" stop-color="white"/>
</linearGradient>
<linearGradient id="paint3_linear_8_185" x1="8.79466" y1="7.16528" x2="10.4243" y2="5.53569" gradientUnits="userSpaceOnUse">
<stop stop-color="#FBD92C"/>
<stop offset="1" stop-color="white"/>
</linearGradient>
<clipPath id="clip0_8_185">
<rect width="16" height="16" fill="white"/>
</clipPath>
</defs>
</svg>
