<svg width="16" height="16" viewBox="0 0 16 16" fill="none" xmlns="http://www.w3.org/2000/svg">
<g clip-path="url(#clip0_7_234)">
<path fill-rule="evenodd" clip-rule="evenodd" d="M4.46445 11.5356C3.05024 10.1214 1.75835 11.1828 1.69471 11.204C1.17216 11.3815 0.603648 11.1015 0.426164 10.5789C-0.522066 7.78513 0.117159 4.56921 2.34313 2.34324C5.46501 -0.778638 10.535 -0.778638 13.6568 2.34324C16.7787 5.46511 16.7787 10.5351 13.6568 13.6569C11.4309 15.8829 8.21494 16.5221 5.42117 15.5739C4.89861 15.3964 4.6186 14.8279 4.79608 14.3054C4.8173 14.2417 5.87866 12.9498 4.46445 11.5356ZM3.75734 13.6569C3.36702 14.0473 2.73345 14.0473 2.34313 13.6569C1.95281 13.2666 1.95281 12.6331 2.34313 12.2427C2.73345 11.8524 3.36702 11.8524 3.75734 12.2427C4.14767 12.6331 4.14767 13.2666 3.75734 13.6569Z" fill="url(#paint0_linear_7_234)"/>
<path fill-rule="evenodd" clip-rule="evenodd" d="M7.89602 4.89018C7.44459 4.58961 6.91316 4.42847 6.3703 4.42847H6.36802C5.58859 4.42847 4.84116 4.73818 4.28916 5.28904C3.7383 5.84104 3.42859 6.58847 3.42859 7.3679C3.42859 8.36675 3.42859 9.60675 3.42859 10.609C3.42859 12.2456 4.7543 13.5713 6.39087 13.5713C6.92002 13.5713 7.43773 13.4148 7.87773 13.121L10.096 11.6422C10.9292 11.0879 11.4286 10.153 11.4286 9.15304C11.4286 9.05132 11.4286 8.94847 11.4286 8.84675C11.4286 7.84675 10.9292 6.9119 10.096 6.35761L7.89602 4.89018ZM6.62859 6.79304L8.82859 8.25932C9.02516 8.38961 9.14287 8.61018 9.14287 8.84675V9.15304C9.14287 9.38961 9.02516 9.61018 8.82859 9.74047L6.6103 11.2193C6.54516 11.2628 6.46973 11.2856 6.39202 11.2856C6.0183 11.2856 5.7143 10.9828 5.7143 10.609V7.3679C5.7143 7.19418 5.78287 7.02847 5.9063 6.90618C6.02859 6.78275 6.1943 6.71418 6.36802 6.71418H6.3703C6.46173 6.71418 6.55202 6.74161 6.62859 6.79304Z" fill="#D49F34"/>
<path fill-rule="evenodd" clip-rule="evenodd" d="M8.89645 3.89093C8.44481 3.58963 7.9137 3.42859 7.37042 3.42859H7.36762C6.58871 3.42859 5.84066 3.7382 5.28991 4.28937C4.73822 4.84106 4.42871 5.58859 4.42871 6.36781C4.42871 7.36677 4.42871 8.60677 4.42871 9.60937C4.42871 11.2452 5.75463 12.5714 7.391 12.5714C7.92025 12.5714 8.43827 12.4151 8.87776 12.1216L11.0967 10.6426C11.9289 10.0878 12.4282 9.15378 12.4282 8.15326C12.4282 8.05196 12.4282 7.94807 12.4282 7.84677C12.4282 6.84625 11.9289 5.91223 11.0967 5.35742L8.89645 3.89093ZM7.6285 5.79275L9.82871 7.25924C10.0251 7.39015 10.1429 7.61041 10.1429 7.84625V8.15378C10.1429 8.38963 10.0251 8.60989 9.82871 8.7408L7.6098 10.2198C7.54528 10.2629 7.46954 10.2857 7.39193 10.2857C7.0179 10.2857 6.71401 9.98288 6.71401 9.60937V6.36781C6.71401 6.19482 6.7832 6.02859 6.9057 5.90599C7.02819 5.78339 7.19463 5.7143 7.36762 5.7143H7.37042C7.46205 5.7143 7.55183 5.74132 7.6285 5.79275Z" fill="url(#paint1_linear_7_234)"/>
</g>
<defs>
<linearGradient id="paint0_linear_7_234" x1="3.00076" y1="14.9978" x2="12.9979" y2="3.00025" gradientUnits="userSpaceOnUse">
<stop stop-color="#FF8860"/>
<stop offset="1" stop-color="#FBD92C"/>
</linearGradient>
<linearGradient id="paint1_linear_7_234" x1="6.42858" y1="10.2857" x2="10.9595" y2="6.32142" gradientUnits="userSpaceOnUse">
<stop stop-color="#FBD92C"/>
<stop offset="1" stop-color="white"/>
</linearGradient>
<clipPath id="clip0_7_234">
<rect width="16" height="16" fill="white"/>
</clipPath>
</defs>
</svg>
