<svg width="16" height="16" viewBox="0 0 16 16" fill="none" xmlns="http://www.w3.org/2000/svg">
<g clip-path="url(#clip0_8_538)">
<path fill-rule="evenodd" clip-rule="evenodd" d="M16 5.01C16 2.795 14.205 1 11.99 1H4C3.448 1 3 1.448 3 2C3 3.104 2.104 4 1 4C0.448 4 0 4.448 0 5V10.99C0 13.205 1.795 15 4.01 15C6.368 15 9.632 15 11.99 15C14.205 15 16 13.205 16 10.99C16 9.162 16 5.01 16 5.01ZM1 1C0.448 1 0 1.448 0 2C0 2.552 0.448 3 1 3C1.552 3 2 2.552 2 2C2 1.448 1.552 1 1 1Z" fill="url(#paint0_linear_8_538)"/>
<path fill-rule="evenodd" clip-rule="evenodd" d="M3.82201 8.76283L2.29301 10.2928C1.90301 10.6828 1.90301 11.3168 2.29301 11.7068C2.68301 12.0968 3.31701 12.0968 3.70701 11.7068L5.10001 10.3138C5.64001 10.7528 6.32001 10.9998 7.03001 10.9998H7.03501C7.72801 10.9998 8.39401 10.7648 8.92901 10.3428L10.293 11.7068C10.683 12.0968 11.317 12.0968 11.707 11.7068C12.097 11.3168 12.097 10.6828 11.707 10.2928L10.262 8.84783C10.262 8.84783 8.31501 8.99983 8.00001 8.99983H7.03101C6.69701 8.99983 6.38201 8.84283 6.18201 8.57583L3.80001 5.39983C3.46901 4.95783 2.84201 4.86883 2.40001 5.19983C1.95801 5.53083 1.86901 6.15783 2.20001 6.59983L3.82201 8.76283Z" fill="#45C5C2"/>
<path fill-rule="evenodd" clip-rule="evenodd" d="M4.82195 7.76297L3.29295 9.29297C2.90295 9.68297 2.90295 10.317 3.29295 10.707C3.68295 11.097 4.31695 11.097 4.70695 10.707L6.09995 9.31397C6.63995 9.75297 7.31995 9.99997 8.02995 9.99997H8.03495C8.72795 9.99997 9.39395 9.76497 9.92895 9.34297L11.293 10.707C11.683 11.097 12.3169 11.097 12.7069 10.707C13.0969 10.317 13.0969 9.68297 12.7069 9.29297L11.262 7.84797L14.7679 3.63997C15.1219 3.21597 15.0639 2.58497 14.6399 2.23197C14.2159 1.87797 13.585 1.93597 13.232 2.35997L8.84995 7.61797C8.64795 7.85997 8.34995 7.99997 8.03495 7.99997H8.03095C7.69695 7.99997 7.38195 7.84297 7.18195 7.57597L4.79995 4.39997C4.46895 3.95797 3.84195 3.86897 3.39995 4.19997C2.95795 4.53097 2.86895 5.15797 3.19995 5.59997L4.82195 7.76297Z" fill="url(#paint1_linear_8_538)"/>
</g>
<defs>
<linearGradient id="paint0_linear_8_538" x1="3" y1="13.25" x2="12.4312" y2="1.49166" gradientUnits="userSpaceOnUse">
<stop stop-color="#00DAD4"/>
<stop offset="1" stop-color="#C4FFFD"/>
</linearGradient>
<linearGradient id="paint1_linear_8_538" x1="5.40003" y1="9.71398" x2="8.17965" y2="2.79539" gradientUnits="userSpaceOnUse">
<stop stop-color="#7EEFEC"/>
<stop offset="1" stop-color="white"/>
</linearGradient>
<clipPath id="clip0_8_538">
<rect width="16" height="16" fill="white"/>
</clipPath>
</defs>
</svg>
