<svg width="16" height="16" viewBox="0 0 16 16" fill="none" xmlns="http://www.w3.org/2000/svg">
<g clip-path="url(#clip0_43_1731)">
<path fill-rule="evenodd" clip-rule="evenodd" d="M13.2 7.96667C13.2 9.83333 14.7531 9.98547 14.8091 10.0135C15.2711 10.2412 15.4615 10.8012 15.2337 11.2632C14.0157 13.7328 11.4715 15.4333 8.53332 15.4333C4.41265 15.4333 1.06665 12.0873 1.06665 7.96667C1.06665 3.846 4.41265 0.5 8.53332 0.5C11.4715 0.5 14.0157 2.20053 15.2337 4.67013C15.4615 5.13213 15.2711 5.69213 14.8091 5.91987C14.7531 5.94787 13.2 6.1 13.2 7.96667ZM15.0667 7.03333C15.5819 7.03333 16 7.45147 16 7.96667C16 8.48187 15.5819 8.9 15.0667 8.9C14.5515 8.9 14.1333 8.48187 14.1333 7.96667C14.1333 7.45147 14.5515 7.03333 15.0667 7.03333Z" fill="url(#paint0_linear_43_1731)"/>
<path fill-rule="evenodd" clip-rule="evenodd" d="M2.3979 12.2207C1.55874 11.0134 1.06665 9.54705 1.06665 7.9668C1.06665 7.42847 1.12376 6.90337 1.23224 6.39722L5.14292 8.74451C5.83327 9.15886 5.83321 10.1594 5.14279 10.5737L2.3979 12.2207Z" fill="url(#paint1_linear_43_1731)"/>
<path d="M7.18785 4.76672C6.58241 4.7669 5.98393 4.89589 5.43221 5.14519C5.0663 5.3105 4.72649 5.52624 4.42236 5.78529C4.18078 5.99108 4.23871 6.36309 4.51084 6.52634L4.90812 6.76472C5.10315 6.88175 5.34965 6.85079 5.53469 6.71857C6.00263 6.38427 6.56377 6.19781 7.1448 6.18895C7.15915 6.18884 7.1735 6.18884 7.18785 6.18895C7.94223 6.18895 8.66574 6.48863 9.19917 7.02206C9.73261 7.5555 10.0323 8.279 10.0323 9.03339C10.0323 9.78778 9.73261 10.5113 9.19917 11.0447C8.66574 11.5782 7.94223 11.8778 7.18785 11.8778C6.59087 11.8778 6.01251 11.6901 5.53228 11.3463C5.34703 11.2137 5.10007 11.1826 4.9048 11.3L4.50713 11.539C4.23539 11.7024 4.17756 12.0741 4.4188 12.2798C4.72341 12.5396 5.06386 12.7559 5.43051 12.9215C5.98277 13.1711 6.58183 13.3001 7.18785 13.3001C8.31943 13.3001 9.40468 12.8505 10.2048 12.0504C11.005 11.2502 11.4545 10.165 11.4545 9.03339C11.4545 7.90181 11.005 6.81655 10.2048 6.0164C9.40468 5.21625 8.31943 4.76672 7.18785 4.76672Z" fill="#8CC860"/>
<path d="M0 10.8156V5.30158C0 4.4724 0.904656 3.9603 1.6156 4.38702L6.2096 7.14446C6.89995 7.5588 6.89989 8.55939 6.20947 8.97366L1.61549 11.7302C0.904528 12.1568 0 11.6447 0 10.8156Z" fill="url(#paint2_linear_43_1731)"/>
<path d="M8.2545 3.69995C7.64906 3.70013 7.05058 3.82912 6.49886 4.07841C6.13295 4.24372 5.79314 4.45947 5.48901 4.71852C5.24744 4.92431 5.30536 5.29632 5.57749 5.45957L5.97477 5.69795C6.1698 5.81497 6.4163 5.78402 6.60134 5.6518C7.06928 5.3175 7.63042 5.13104 8.21145 5.12217C8.2258 5.12207 8.24015 5.12207 8.2545 5.12217C9.00888 5.12217 9.73239 5.42186 10.2658 5.95529C10.7993 6.48873 11.0989 7.21223 11.0989 7.96662C11.0989 8.72101 10.7993 9.44451 10.2658 9.97795C9.73239 10.5114 9.00888 10.8111 8.2545 10.8111C7.65752 10.811 7.07916 10.6233 6.59893 10.2795C6.41368 10.1469 6.16672 10.1158 5.97145 10.2332L5.57378 10.4722C5.30204 10.6356 5.24421 11.0073 5.48545 11.213C5.79006 11.4728 6.13051 11.6891 6.49716 11.8548C7.04942 12.1043 7.64848 12.2333 8.2545 12.2333C9.38608 12.2333 10.4713 11.7838 11.2715 10.9836C12.0716 10.1835 12.5212 9.0982 12.5212 7.96662C12.5212 6.83504 12.0716 5.74978 11.2715 4.94963C10.4713 4.14948 9.38608 3.69995 8.2545 3.69995Z" fill="url(#paint3_linear_43_1731)"/>
</g>
<defs>
<linearGradient id="paint0_linear_43_1731" x1="2.13332" y1="15.4333" x2="11.9993" y2="1.08285" gradientUnits="userSpaceOnUse">
<stop stop-color="#9BE862"/>
<stop offset="1" stop-color="#C8FF9F"/>
</linearGradient>
<linearGradient id="paint1_linear_43_1731" x1="5.3333" y1="2.19396" x2="5.3333" y2="17.1273" gradientUnits="userSpaceOnUse">
<stop stop-color="#BAFA52"/>
<stop offset="1" stop-color="#3F8F5B"/>
</linearGradient>
<linearGradient id="paint2_linear_43_1731" x1="0.840915" y1="11.8839" x2="7.17955" y2="7.00693" gradientUnits="userSpaceOnUse">
<stop stop-color="#C8FF9F"/>
<stop offset="1" stop-color="white"/>
</linearGradient>
<linearGradient id="paint3_linear_43_1731" x1="6.23185" y1="12.2333" x2="13.2184" y2="7.08402" gradientUnits="userSpaceOnUse">
<stop stop-color="#C8FF9F"/>
<stop offset="1" stop-color="white"/>
</linearGradient>
<clipPath id="clip0_43_1731">
<rect width="16" height="16" fill="white"/>
</clipPath>
</defs>
</svg>
