<svg width="16" height="16" viewBox="0 0 16 16" fill="none" xmlns="http://www.w3.org/2000/svg">
<g clip-path="url(#clip0_41_1466)">
<path d="M16 8C16 12.4184 12.4184 16 8 16C3.5816 16 0 12.4184 0 8C0 3.5816 3.5816 0 8 0C12.4184 0 16 3.5816 16 8Z" fill="url(#paint0_linear_41_1466)"/>
<path d="M4.88664 7.91886C4.66323 8.14185 4.48599 8.40672 4.36506 8.69828C4.24412 8.98985 4.18188 9.30243 4.18188 9.61806C4.18188 9.9337 4.24412 10.2463 4.36506 10.5378C4.48599 10.8294 4.66323 11.0943 4.88664 11.3173C5.33824 11.768 5.95024 12.0211 6.58821 12.0211C7.22624 12.0211 7.83824 11.768 8.2898 11.3173C8.6474 10.9605 8.8978 10.2189 9.069 9.43726C9.3266 8.26927 9.4554 7.68526 8.989 7.21966C8.5234 6.75487 7.9386 6.88367 6.7682 7.13967C5.9858 7.31247 5.24424 7.56127 4.88664 7.91886Z" fill="#279FD7"/>
<path d="M5.73942 6.8115C5.51601 7.03449 5.33877 7.29936 5.21784 7.59092C5.09691 7.88249 5.03467 8.19507 5.03467 8.5107C5.03467 8.82634 5.09691 9.13892 5.21784 9.43049C5.33877 9.72205 5.51601 9.98692 5.73942 10.2099C6.19102 10.6606 6.80302 10.9138 7.44099 10.9138C8.07902 10.9138 8.69102 10.6606 9.14259 10.2099C9.50019 9.8531 9.75059 9.1115 9.92179 8.3299C10.1794 7.1619 10.3082 6.5779 9.84179 6.1123C9.37619 5.6475 8.79139 5.7763 7.62099 6.0323C6.83859 6.2051 6.09702 6.4539 5.73942 6.8115Z" fill="url(#paint1_linear_41_1466)"/>
<path d="M1.97607 2.82394C1.95182 2.80019 1.95237 2.76185 1.97475 2.73633C2.21215 2.46572 2.4671 2.2109 2.73841 1.97421C2.76333 1.95246 2.80062 1.95181 2.82407 1.97514V1.97514L4.02407 3.17514C4.13341 3.28825 4.19396 3.43978 4.19267 3.5971C4.19138 3.75442 4.12835 3.90494 4.01716 4.01624C3.90596 4.12754 3.7555 4.19071 3.59818 4.19215C3.44087 4.19359 3.28927 4.13319 3.17607 4.02394L1.97607 2.82394V2.82394ZM0.623015 8.59994C0.284388 8.59994 0.000244141 8.33857 0.000244141 7.99994V7.99994C0.000244141 7.66132 0.284387 7.39994 0.623014 7.39994H1.60007C1.75919 7.39994 1.9118 7.46314 2.02433 7.57565C2.13685 7.68824 2.20007 7.84082 2.20007 7.99994C2.20007 8.15907 2.13685 8.31165 2.02433 8.42423C1.9118 8.53674 1.75919 8.59994 1.60007 8.59994H0.623015ZM2.82407 14.0239C2.80032 14.0482 2.76195 14.0477 2.7364 14.0253C2.46605 13.7887 2.21184 13.5343 1.97549 13.2637C1.95302 13.238 1.95215 13.1995 1.97607 13.1751V13.1751L3.17607 11.9751C3.28927 11.8659 3.44087 11.8055 3.59818 11.8069C3.7555 11.8084 3.90596 11.8716 4.01716 11.9829C4.12835 12.0941 4.19138 12.2447 4.19267 12.402C4.19396 12.5593 4.13341 12.7109 4.02407 12.8239L2.82407 14.0239V14.0239ZM14.0241 13.1759C14.0483 13.1991 14.0479 13.2371 14.0258 13.2624C13.7886 13.5335 13.5338 13.7883 13.2633 14.0249C13.2379 14.0471 13.1999 14.0478 13.1761 14.0239V14.0239L11.9761 12.8239C11.9171 12.769 11.8698 12.7028 11.837 12.6292C11.8042 12.5556 11.7866 12.4761 11.7852 12.3956C11.7838 12.315 11.7986 12.235 11.8288 12.1602C11.859 12.0855 11.9038 12.0177 11.9609 11.9607C12.0178 11.9037 12.0857 11.8589 12.1604 11.8287C12.2351 11.7985 12.3151 11.7837 12.3957 11.785C12.4762 11.7865 12.5557 11.8041 12.6293 11.8369C12.7029 11.8697 12.7692 11.917 12.8241 11.9759L14.0241 13.1759V13.1759ZM15.3771 7.39994C15.7158 7.39994 15.9999 7.66131 15.9999 7.99994V7.99994C15.9999 8.33858 15.7158 8.59994 15.3771 8.59994H14.4001C14.2409 8.59994 14.0884 8.53674 13.9758 8.42423C13.8633 8.31165 13.8001 8.15907 13.8001 7.99994C13.8001 7.84082 13.8633 7.68824 13.9758 7.57565C14.0884 7.46314 14.2409 7.39994 14.4001 7.39994H15.3771ZM13.1761 1.97594C13.1993 1.95174 13.2372 1.9521 13.2625 1.97419C13.5336 2.21144 13.7884 2.4662 14.025 2.73668C14.0472 2.76207 14.048 2.80016 14.0241 2.82394V2.82394L12.8241 4.02394C12.7692 4.08289 12.7029 4.13017 12.6293 4.16297C12.5557 4.19576 12.4762 4.21339 12.3957 4.21482C12.3151 4.21624 12.2351 4.20141 12.1604 4.17124C12.0857 4.14106 12.0178 4.09615 11.9609 4.03917C11.9038 3.9822 11.859 3.91433 11.8288 3.83962C11.7986 3.76491 11.7838 3.68488 11.7852 3.60432C11.7866 3.52376 11.8042 3.44431 11.837 3.37071C11.8698 3.29711 11.9171 3.23087 11.9761 3.17594L13.1761 1.97594V1.97594ZM8.00007 0.000122071C8.33869 0.000122071 8.60007 0.284265 8.60007 0.622892V1.59994C8.60007 1.75907 8.53687 1.91168 8.42436 2.02421C8.31178 2.13673 8.15919 2.19994 8.00007 2.19994C7.84094 2.19994 7.68836 2.13673 7.57578 2.02421C7.46327 1.91168 7.40007 1.75907 7.40007 1.59994V0.622893C7.40007 0.284266 7.66144 0.000122071 8.00007 0.000122071V0.000122071Z" fill="url(#paint2_linear_41_1466)"/>
</g>
<defs>
<linearGradient id="paint0_linear_41_1466" x1="1.6" y1="16.005" x2="7.3787" y2="-1.33327" gradientUnits="userSpaceOnUse">
<stop stop-color="#22B4FA"/>
<stop offset="1" stop-color="#6BD6FE"/>
</linearGradient>
<linearGradient id="paint1_linear_41_1466" x1="5.03467" y1="10.9138" x2="11.056" y2="9.40641" gradientUnits="userSpaceOnUse">
<stop stop-color="#6BD6FE"/>
<stop offset="1" stop-color="white"/>
</linearGradient>
<linearGradient id="paint2_linear_41_1466" x1="0.000244081" y1="14.0639" x2="18.5031" y2="8.8015" gradientUnits="userSpaceOnUse">
<stop stop-color="#6BD6FE"/>
<stop offset="1" stop-color="white"/>
</linearGradient>
<clipPath id="clip0_41_1466">
<rect width="16" height="16" fill="white"/>
</clipPath>
</defs>
</svg>
