<svg width="16" height="16" viewBox="0 0 16 16" fill="none" xmlns="http://www.w3.org/2000/svg">
<path fill-rule="evenodd" clip-rule="evenodd" d="M0.0174165 8.87263C0.0766019 9.60982 0.787276 10.0321 1.52677 10.0425L2.2824 10.0531C3.38686 10.0686 3.7767 10.4696 3.76117 11.5741L3.74905 12.4365C3.73924 13.1342 4.08612 13.8044 4.72123 14.0935C5.67322 14.5269 6.76363 14.8 8 14.8C11.3456 14.8 13.6224 12.8 14.98 11.0368C15.66 10.1536 16 9.7112 16 8.4C16 7.0892 15.6606 6.64801 14.9819 5.76562L14.98 5.7632C13.6224 4 11.3456 2 8 2C4.6544 2 2.3776 4 1.02 5.7632L1.01752 5.76643C0.339172 6.64908 0 7.0904 0 8.4C0 8.57144 0.0058055 8.72801 0.0174165 8.87263ZM2 13C2.55228 13 3 12.5523 3 12C3 11.4477 2.55228 11 2 11C1.44772 11 1 11.4477 1 12C1 12.5523 1.44772 13 2 13Z" fill="url(#paint0_linear_25_2744)"/>
<path fill-rule="evenodd" clip-rule="evenodd" d="M4.5 9.00003C4.5 8.337 4.76339 7.70107 5.23223 7.23223C5.70107 6.76339 6.33697 6.5 7 6.5C7.66303 6.5 8.29891 6.76339 8.76776 7.23223C9.23661 7.70107 9.5 8.337 9.5 9.00003C9.5 9.66306 9.23661 10.2989 8.76776 10.7678C8.29891 11.2366 7.66303 11.5 7 11.5C6.33697 11.5 5.70107 11.2366 5.23223 10.7678C4.76339 10.2989 4.5 9.66306 4.5 9.00003Z" fill="#D49F34"/>
<path fill-rule="evenodd" clip-rule="evenodd" d="M5.5 8.00003C5.5 7.337 5.76339 6.70107 6.23223 6.23223C6.70107 5.76339 7.33697 5.5 8 5.5C8.66303 5.5 9.29891 5.76339 9.76776 6.23223C10.2366 6.70107 10.5 7.337 10.5 8.00003C10.5 8.66306 10.2366 9.29894 9.76776 9.76779C9.29891 10.2366 8.66303 10.5 8 10.5C7.33697 10.5 6.70107 10.2366 6.23223 9.76779C5.76339 9.29894 5.5 8.66306 5.5 8.00003Z" fill="url(#paint1_linear_25_2744)"/>
<defs>
<linearGradient id="paint0_linear_25_2744" x1="3" y1="13.9991" x2="10.5069" y2="2.73786" gradientUnits="userSpaceOnUse">
<stop stop-color="#FF8860"/>
<stop offset="1" stop-color="#FBD92C"/>
</linearGradient>
<linearGradient id="paint1_linear_25_2744" x1="6.75" y1="9.25002" x2="9.25002" y2="6.75002" gradientUnits="userSpaceOnUse">
<stop stop-color="#FBD92C"/>
<stop offset="1" stop-color="white"/>
</linearGradient>
</defs>
</svg>
