<svg width="16" height="16" viewBox="0 0 16 16" fill="none" xmlns="http://www.w3.org/2000/svg">
<path fill-rule="evenodd" clip-rule="evenodd" d="M1.875 12.375C1.392 12.375 1 11.983 1 11.5V4.493C1 2.56362 2.56362 1 4.493 1C6.56237 1 9.43762 1 11.507 1C12.4336 1 13.3218 1.36838 13.9771 2.02288C14.6316 2.67825 15 3.56637 15 4.493C15 6.56237 15 9.43762 15 11.507C15 13.4364 13.4364 15 11.507 15C8.65712 15 4.5 15 4.5 15C4.017 15 3.625 14.608 3.625 14.125C3.625 13.159 2.841 12.375 1.875 12.375ZM1.875 13.25C2.358 13.25 2.75 13.642 2.75 14.125C2.75 14.608 2.358 15 1.875 15C1.392 15 1 14.608 1 14.125C1 13.642 1.392 13.25 1.875 13.25Z" fill="url(#paint0_linear_8_446)"/>
<path fill-rule="evenodd" clip-rule="evenodd" d="M4.74845 8.58468L5.93284 9.19862L6.50828 11.0324C6.57278 11.2374 6.68277 11.4234 6.82825 11.5754L6.84025 11.5879C7.16372 11.9264 7.63117 12.0683 8.08263 11.9689C8.52459 11.8714 8.89555 11.5529 9.06503 11.1149C9.71997 9.4246 10.4734 6.85785 10.9119 5.72496C11.0923 5.2595 10.9868 4.73006 10.6504 4.37809L10.6474 4.37509C10.2719 3.98263 9.69547 3.88814 9.21602 4.13911C7.93764 4.80755 4.86044 6.26041 4.86044 6.26041C4.61097 6.3784 4.50398 6.67637 4.62147 6.92584C4.73946 7.17532 4.66146 7.66577 4.53448 7.91075C4.40749 8.15572 4.50348 8.45769 4.74845 8.58468ZM3.85354 7.14682C4.04852 7.3418 4.04852 7.65877 3.85354 7.85375C3.65856 8.04923 3.34159 8.04923 3.14661 7.85375C2.95113 7.65877 2.95113 7.3418 3.14661 7.14682C3.34159 6.95184 3.65856 6.95184 3.85354 7.14682Z" fill="#8C4FD9"/>
<path fill-rule="evenodd" clip-rule="evenodd" d="M5.74845 7.58468L6.93284 8.19862L7.50828 10.0324C7.57278 10.2374 7.68277 10.4234 7.82825 10.5754L7.84025 10.5879C8.16372 10.9264 8.63117 11.0683 9.08263 10.9689C9.52459 10.8714 9.89555 10.5529 10.065 10.1149C10.72 8.4246 11.4734 5.85785 11.9119 4.72496C12.0923 4.2595 11.9868 3.73006 11.6504 3.37809L11.6474 3.37509C11.2719 2.98263 10.6955 2.88814 10.216 3.13911C8.93764 3.80755 5.86044 5.26041 5.86044 5.26041C5.61097 5.3784 5.50398 5.67637 5.62147 5.92584C5.73946 6.17532 5.66146 6.66577 5.53448 6.91075C5.40749 7.15572 5.50348 7.45769 5.74845 7.58468ZM4.85354 6.14682C5.04852 6.3418 5.04852 6.65877 4.85354 6.85375C4.65856 7.04923 4.34159 7.04923 4.14661 6.85375C3.95113 6.65877 3.95113 6.3418 4.14661 6.14682C4.34159 5.95184 4.65856 5.95184 4.85354 6.14682Z" fill="url(#paint1_linear_8_446)"/>
<defs>
<linearGradient id="paint0_linear_8_446" x1="4.5" y1="14" x2="13.7647" y2="3.19118" gradientUnits="userSpaceOnUse">
<stop stop-color="#A056FF"/>
<stop offset="1" stop-color="#C59AFD"/>
</linearGradient>
<linearGradient id="paint1_linear_8_446" x1="5.99977" y1="11" x2="13.7991" y2="8.40053" gradientUnits="userSpaceOnUse">
<stop stop-color="#C59AFD"/>
<stop offset="1" stop-color="white"/>
</linearGradient>
</defs>
</svg>
