<svg width="16" height="16" viewBox="0 0 16 16" fill="none" xmlns="http://www.w3.org/2000/svg">
<g clip-path="url(#clip0_17_2095)">
<path fill-rule="evenodd" clip-rule="evenodd" d="M3 8C3 6 1.336 5.837 1.276 5.807C0.780999 5.563 0.576999 4.963 0.820999 4.468C2.126 1.822 4.852 0 8 0C12.415 0 16 3.585 16 8C16 12.415 12.415 16 8 16C4.852 16 2.126 14.178 0.820999 11.532C0.576999 11.037 0.780999 10.437 1.276 10.193C1.336 10.163 3 10 3 8ZM1 9C0.448 9 0 8.552 0 8C0 7.448 0.448 7 1 7C1.552 7 2 7.448 2 8C2 8.552 1.552 9 1 9Z" fill="url(#paint0_linear_17_2095)"/>
<path fill-rule="evenodd" clip-rule="evenodd" d="M6.55904 7.47344C6.55904 8.28761 5.99406 8.94687 5.29691 8.94687C4.59892 8.94687 4.03313 8.28761 4.03313 7.47344C4.03313 6.65926 4.59892 6 5.29607 6C5.99322 6 6.55904 6.65926 6.55904 7.47344ZM10.7688 7.47344C10.7688 8.28761 10.2039 8.94687 9.50589 8.94687C8.80874 8.94687 8.24294 8.28677 8.24294 7.47344C8.24294 6.6601 8.80874 6 9.50589 6C10.2031 6 10.7688 6.65926 10.7688 7.47344ZM11.0559 10.2822C10.9073 10.2073 10.7353 10.1935 10.5766 10.2438C10.418 10.2942 10.2854 10.4047 10.2072 10.5517C10.1786 10.6072 9.47558 11.8929 7.40182 11.8929C5.33817 11.8929 4.63092 10.619 4.59556 10.5525C4.51986 10.403 4.38786 10.2897 4.22862 10.2375C4.06938 10.1853 3.89594 10.1985 3.74644 10.2742C3.59694 10.3499 3.48361 10.4819 3.43144 10.6412C3.37926 10.8004 3.39247 10.9738 3.46817 11.1233C3.51027 11.2067 4.51894 13.1558 7.40182 13.1558C10.2855 13.1558 11.2925 11.2059 11.3338 11.1225C11.408 10.9742 11.4204 10.8025 11.3683 10.645C11.3162 10.4875 11.2039 10.3571 11.0559 10.2822Z" fill="#8C4FD9"/>
<path fill-rule="evenodd" clip-rule="evenodd" d="M7.55904 6.47344C7.55904 7.28761 6.99406 7.94687 6.29691 7.94687C5.59892 7.94687 5.03313 7.28761 5.03313 6.47344C5.03313 5.65926 5.59892 5 6.29607 5C6.99322 5 7.55904 5.65926 7.55904 6.47344ZM11.7688 6.47344C11.7688 7.28761 11.2039 7.94687 10.5059 7.94687C9.80874 7.94687 9.24294 7.28677 9.24294 6.47344C9.24294 5.6601 9.80874 5 10.5059 5C11.2031 5 11.7688 5.65926 11.7688 6.47344ZM12.0559 9.28223C11.9073 9.20727 11.7353 9.19348 11.5766 9.24384C11.418 9.2942 11.2854 9.40471 11.2072 9.55165C11.1786 9.60722 10.4756 10.8929 8.40182 10.8929C6.33817 10.8929 5.63092 9.61901 5.59556 9.5525C5.51986 9.403 5.38786 9.2897 5.22862 9.2375C5.06938 9.18532 4.89594 9.19853 4.74644 9.27423C4.59694 9.34992 4.48361 9.4819 4.43144 9.64116C4.37926 9.8004 4.39247 9.97385 4.46817 10.1233C4.51027 10.2067 5.51894 12.1558 8.40182 12.1558C11.2855 12.1558 12.2925 10.2059 12.3338 10.1225C12.408 9.97416 12.4204 9.80248 12.3683 9.64501C12.3162 9.48753 12.2039 9.35711 12.0559 9.28223Z" fill="url(#paint1_linear_17_2095)"/>
</g>
<defs>
<linearGradient id="paint0_linear_17_2095" x1="4" y1="14.8571" x2="14.5882" y2="2.5042" gradientUnits="userSpaceOnUse">
<stop stop-color="#A056FF"/>
<stop offset="1" stop-color="#C59AFD"/>
</linearGradient>
<linearGradient id="paint1_linear_17_2095" x1="6.40002" y1="12.1558" x2="14.0099" y2="9.31999" gradientUnits="userSpaceOnUse">
<stop stop-color="#C59AFD"/>
<stop offset="1" stop-color="white"/>
</linearGradient>
<clipPath id="clip0_17_2095">
<rect width="16" height="16" fill="white"/>
</clipPath>
</defs>
</svg>
