<svg width="16" height="16" viewBox="0 0 16 16" fill="none" xmlns="http://www.w3.org/2000/svg">
<g clip-path="url(#clip0_43_1960)">
<path fill-rule="evenodd" clip-rule="evenodd" d="M13.2 7.96667C13.2 9.83333 14.7531 9.98547 14.8091 10.0135C15.2711 10.2412 15.4615 10.8012 15.2337 11.2632C14.0157 13.7328 11.4715 15.4333 8.53332 15.4333C4.41265 15.4333 1.06665 12.0873 1.06665 7.96667C1.06665 3.846 4.41265 0.5 8.53332 0.5C11.4715 0.5 14.0157 2.20053 15.2337 4.67013C15.4615 5.13213 15.2711 5.69213 14.8091 5.91987C14.7531 5.94787 13.2 6.1 13.2 7.96667ZM15.0667 7.03333C15.5819 7.03333 16 7.45147 16 7.96667C16 8.48187 15.5819 8.9 15.0667 8.9C14.5515 8.9 14.1333 8.48187 14.1333 7.96667C14.1333 7.45147 14.5515 7.03333 15.0667 7.03333Z" fill="url(#paint0_linear_43_1960)"/>
<path fill-rule="evenodd" clip-rule="evenodd" d="M3.97156 13.8764C2.20509 12.5103 1.06672 10.3704 1.06672 7.96685C1.06672 7.35004 1.14169 6.75059 1.28301 6.17712L7.04985 9.63854C7.9522 10.1801 7.95213 11.488 7.04968 12.0295L3.97156 13.8764Z" fill="#279FD7"/>
<path d="M0 11.6036V4.39636C0 3.31256 1.18246 2.64319 2.11172 3.20095L8.11647 6.80516C9.01881 7.34674 9.01874 8.65459 8.11629 9.19607L2.11159 12.7991C1.18229 13.3567 0 12.6874 0 11.6036Z" fill="url(#paint1_linear_43_1960)"/>
</g>
<defs>
<linearGradient id="paint0_linear_43_1960" x1="2.55998" y1="15.438" x2="7.95344" y2="-0.744383" gradientUnits="userSpaceOnUse">
<stop stop-color="#22B4FA"/>
<stop offset="1" stop-color="#6BD6FE"/>
</linearGradient>
<linearGradient id="paint1_linear_43_1960" x1="-3.27571e-08" y1="13" x2="10.4848" y2="10.6951" gradientUnits="userSpaceOnUse">
<stop stop-color="#6BD6FE"/>
<stop offset="1" stop-color="white"/>
</linearGradient>
<clipPath id="clip0_43_1960">
<rect width="16" height="16" fill="white"/>
</clipPath>
</defs>
</svg>
