<svg width="16" height="16" viewBox="0 0 16 16" fill="none" xmlns="http://www.w3.org/2000/svg">
<g clip-path="url(#clip0_43_1848)">
<path fill-rule="evenodd" clip-rule="evenodd" d="M16 15C16 14.448 15.552 14 15 14C14.448 14 14 14.448 14 15C14 15.552 14.448 16 15 16C15.552 16 16 15.552 16 15ZM13 15C13 13.896 13.896 13 15 13C15.552 13 16 12.552 16 12C16 12 16 7.216 16 3.958C16 1.772 14.228 0 12.042 0H3.958C1.772 0 0 1.772 0 3.958V12.042C0 14.228 1.772 16 3.958 16C7.216 16 12 16 12 16C12.552 16 13 15.552 13 15Z" fill="url(#paint0_linear_43_1848)"/>
<path d="M6.77778 6.94381L4.83797 4.50409L4.83262 4.50879C4.42649 3.9964 3.63026 3.87418 3.04779 4.23144C2.46531 4.5887 2.32637 5.28912 2.7325 5.80151L5.21204 8.91346L2.73784 12.0254C2.33171 12.5331 2.476 13.2382 3.05313 13.5955C3.63026 13.9527 4.43184 13.8305 4.83797 13.3181L6.77778 10.8784L8.72293 13.3181C9.12906 13.8305 9.92529 13.9527 10.5078 13.5955C11.0902 13.2382 11.2292 12.5378 10.8231 12.0254L8.34352 8.91346L10.8177 5.79681C11.2238 5.28913 11.0796 4.584 10.5024 4.22674C9.92529 3.86948 9.12372 3.9917 8.71759 4.50409L6.77778 6.94381Z" fill="#7FD1AE"/>
<path d="M8.00007 5.72158L6.06026 3.28186L6.05491 3.28656C5.64878 2.77417 4.85255 2.65195 4.27008 3.00921C3.6876 3.36647 3.54866 4.0669 3.95479 4.57928L6.43433 7.69123L3.96013 10.8032C3.554 11.3109 3.69829 12.016 4.27542 12.3732C4.85255 12.7305 5.65413 12.6083 6.06026 12.0959L8.00007 9.65617L9.94522 12.0959C10.3514 12.6083 11.1476 12.7305 11.7301 12.3732C12.3125 12.016 12.4515 11.3156 12.0453 10.8032L9.56581 7.69123L12.04 4.57459C12.4461 4.0669 12.3018 3.36177 11.7247 3.00451C11.1476 2.64725 10.346 2.76947 9.93988 3.28186L8.00007 5.72158Z" fill="url(#paint1_linear_43_1848)"/>
</g>
<defs>
<linearGradient id="paint0_linear_43_1848" x1="2" y1="14.0004" x2="16.972" y2="10.5455" gradientUnits="userSpaceOnUse">
<stop stop-color="#62E8AF"/>
<stop offset="1" stop-color="#B3FBDC"/>
</linearGradient>
<linearGradient id="paint1_linear_43_1848" x1="3.72229" y1="12.5778" x2="6.9508" y2="1.27798" gradientUnits="userSpaceOnUse">
<stop stop-color="#B3FBDC"/>
<stop offset="1" stop-color="white"/>
</linearGradient>
<clipPath id="clip0_43_1848">
<rect width="16" height="16" fill="white"/>
</clipPath>
</defs>
</svg>
