<svg width="16" height="16" viewBox="0 0 16 16" fill="none" xmlns="http://www.w3.org/2000/svg">
<g clip-path="url(#clip0_43_1900)">
<path fill-rule="evenodd" clip-rule="evenodd" d="M16 15C16 14.448 15.552 14 15 14C14.448 14 14 14.448 14 15C14 15.552 14.448 16 15 16C15.552 16 16 15.552 16 15ZM13 15C13 13.896 13.896 13 15 13C15.552 13 16 12.552 16 12C16 12 16 7.216 16 3.958C16 1.772 14.228 0 12.042 0H3.958C1.772 0 0 1.772 0 3.958V12.042C0 14.228 1.772 16 3.958 16C7.216 16 12 16 12 16C12.552 16 13 15.552 13 15Z" fill="url(#paint0_linear_43_1900)"/>
<path d="M9.19649 8.96143C9.19649 9.32891 9.15157 9.68415 9.06174 10.0271C8.98008 10.3619 8.84534 10.6641 8.65751 10.9336C8.47785 11.2031 8.24103 11.4154 7.94704 11.5706C7.64489 11.7339 7.28966 11.8155 6.88134 11.8155C6.47303 11.8155 6.12596 11.7339 5.84014 11.5706C5.55432 11.3991 5.32158 11.1745 5.14192 10.8968C4.96226 10.6274 4.82752 10.3211 4.73769 9.97813C4.65603 9.63515 4.61519 9.284 4.61519 8.92468C4.61519 8.56536 4.65603 8.21013 4.73769 7.85898C4.81935 7.50783 4.95818 7.19751 5.15417 6.92802C5.33383 6.65037 5.57473 6.42988 5.87689 6.26655C6.17087 6.10322 6.52611 6.02156 6.94259 6.02156C7.35907 6.02156 7.71022 6.10322 7.99604 6.26655C8.28186 6.43804 8.5146 6.66262 8.69426 6.94027C8.87392 7.21792 9.0005 7.53233 9.07399 7.88348C9.15565 8.23463 9.19649 8.59394 9.19649 8.96143ZM6.86909 13.7877C7.60406 13.7877 8.25736 13.6652 8.829 13.4202C9.40064 13.1589 9.88654 12.8078 10.2867 12.3668C10.6787 11.9176 10.9767 11.395 11.1809 10.7988C11.3851 10.1945 11.4871 9.53715 11.4871 8.82668C11.4871 8.14888 11.3851 7.51599 11.1809 6.92802C10.9849 6.34821 10.695 5.8419 10.3112 5.40909C9.92737 4.97628 9.45781 4.63737 8.9025 4.39239C8.34719 4.1474 7.7143 4.0249 7.00384 4.0249C6.25254 4.0249 5.5829 4.1474 4.99493 4.39239C4.41512 4.63737 3.92514 4.98444 3.52499 5.43359C3.11668 5.87457 2.81044 6.40538 2.60628 7.02602C2.40213 7.63032 2.30005 8.29588 2.30005 9.02268C2.30005 9.71681 2.40621 10.3538 2.61853 10.9336C2.83086 11.5216 3.13301 12.0238 3.52499 12.4403C3.91698 12.8649 4.3947 13.1957 4.95818 13.4325C5.52165 13.6775 6.15862 13.8 6.86909 13.8V13.7877Z" fill="#279FD7"/>
<path d="M10.4215 7.73651C10.4215 8.104 10.3765 8.45923 10.2867 8.80222C10.2051 9.13703 10.0703 9.43919 9.88249 9.70867C9.70283 9.97816 9.46601 10.1905 9.17202 10.3456C8.86987 10.509 8.51463 10.5906 8.10632 10.5906C7.698 10.5906 7.35093 10.509 7.06511 10.3456C6.77929 10.1742 6.54655 9.94958 6.3669 9.67193C6.18724 9.40244 6.05249 9.0962 5.96266 8.75322C5.881 8.41023 5.84017 8.05908 5.84017 7.69977C5.84017 7.34045 5.881 6.98521 5.96266 6.63406C6.04433 6.28291 6.18315 5.97259 6.37914 5.70311C6.5588 5.42545 6.79971 5.20496 7.10186 5.04164C7.39585 4.87831 7.75108 4.79665 8.16756 4.79665C8.58405 4.79665 8.9352 4.87831 9.22102 5.04164C9.50684 5.21313 9.73958 5.4377 9.91923 5.71536C10.0989 5.99301 10.2255 6.30741 10.299 6.65856C10.3806 7.00971 10.4215 7.36903 10.4215 7.73651ZM8.09407 12.5628C8.82903 12.5628 9.48234 12.4403 10.054 12.1953C10.6256 11.934 11.1115 11.5828 11.5117 11.1419C11.9036 10.6927 12.2017 10.1701 12.4059 9.57393C12.61 8.96962 12.7121 8.31224 12.7121 7.60177C12.7121 6.92397 12.61 6.29108 12.4059 5.70311C12.2099 5.1233 11.92 4.61699 11.5362 4.18418C11.1523 3.75136 10.6828 3.41246 10.1275 3.16747C9.57217 2.92248 8.93928 2.79999 8.22881 2.79999C7.47751 2.79999 6.80788 2.92248 6.2199 3.16747C5.64009 3.41246 5.15012 3.75953 4.74997 4.20867C4.34165 4.64965 4.03542 5.18046 3.83126 5.8011C3.6271 6.40541 3.52502 7.07096 3.52502 7.79776C3.52502 8.4919 3.63119 9.12887 3.84351 9.70867C4.05583 10.2966 4.35799 10.7989 4.74997 11.2154C5.14195 11.64 5.61968 11.9707 6.18315 12.2076C6.74663 12.4525 7.3836 12.575 8.09407 12.575V12.5628Z" fill="url(#paint1_linear_43_1900)"/>
</g>
<defs>
<linearGradient id="paint0_linear_43_1900" x1="1.6" y1="16.005" x2="7.3787" y2="-1.33327" gradientUnits="userSpaceOnUse">
<stop stop-color="#22B4FA"/>
<stop offset="1" stop-color="#6BD6FE"/>
</linearGradient>
<linearGradient id="paint1_linear_43_1900" x1="3.52502" y1="12.575" x2="14.4081" y2="10.0179" gradientUnits="userSpaceOnUse">
<stop stop-color="#6BD6FE"/>
<stop offset="1" stop-color="white"/>
</linearGradient>
<clipPath id="clip0_43_1900">
<rect width="16" height="16" fill="white"/>
</clipPath>
</defs>
</svg>
