<svg width="16" height="16" viewBox="0 0 16 16" fill="none" xmlns="http://www.w3.org/2000/svg">
<g clip-path="url(#clip0_43_1880)">
<path fill-rule="evenodd" clip-rule="evenodd" d="M16 15C16 14.448 15.552 14 15 14C14.448 14 14 14.448 14 15C14 15.552 14.448 16 15 16C15.552 16 16 15.552 16 15ZM13 15C13 13.896 13.896 13 15 13C15.552 13 16 12.552 16 12C16 12 16 7.216 16 3.958C16 1.772 14.228 0 12.042 0H3.958C1.772 0 0 1.772 0 3.958V12.042C0 14.228 1.772 16 3.958 16C7.216 16 12 16 12 16C12.552 16 13 15.552 13 15Z" fill="url(#paint0_linear_43_1880)"/>
<path fill-rule="evenodd" clip-rule="evenodd" d="M7.8 10.4H5.7C5.47909 10.4 5.3 10.5791 5.3 10.8V13.6C5.3 13.8209 5.12091 14 4.9 14H3.9C3.67909 14 3.5 13.8209 3.5 13.6V4.4C3.5 4.17909 3.67909 4 3.9 4H7.8C9.33 4 9.95 4.29 10.6 4.88C11.25 5.5 11.5 6.26 11.5 7.23C11.5 8.25 11.24 9.03 10.6 9.58C9.96 10.12 9.3 10.4 7.8 10.4ZM5.69999 5.40002C5.47908 5.40002 5.29999 5.57911 5.29999 5.80002V8.6C5.29999 8.82091 5.47908 9 5.69999 9H7.71999C8.39999 9 8.78 8.81 9.1 8.5C9.42 8.19 9.6 7.8 9.6 7.24C9.6 6.72002 9.43 6.35003 9.1 6.00002C8.77 5.65002 8.25999 5.40002 7.59999 5.40002H5.69999Z" fill="#D48134"/>
<path fill-rule="evenodd" clip-rule="evenodd" d="M8.8 9.4H6.7C6.47909 9.4 6.3 9.57909 6.3 9.8V12.6C6.3 12.8209 6.12091 13 5.9 13H4.9C4.67909 13 4.5 12.8209 4.5 12.6V3.4C4.5 3.17909 4.67909 3 4.9 3H8.8C10.33 3 10.95 3.29 11.6 3.88C12.25 4.5 12.5 5.26 12.5 6.23C12.5 7.25 12.24 8.03 11.6 8.58C10.96 9.12 10.3 9.4 8.8 9.4ZM6.69999 4.40002C6.47908 4.40002 6.29999 4.57911 6.29999 4.80002V7.6C6.29999 7.82091 6.47908 8 6.69999 8H8.71999C9.39999 8 9.78 7.81 10.1 7.5C10.42 7.19 10.6 6.8 10.6 6.24C10.6 5.72002 10.43 5.35003 10.1 5.00002C9.77 4.65002 9.25999 4.40002 8.59999 4.40002H6.69999Z" fill="url(#paint1_linear_43_1880)"/>
</g>
<defs>
<linearGradient id="paint0_linear_43_1880" x1="4.5" y1="17.5" x2="11.5" y2="6" gradientUnits="userSpaceOnUse">
<stop stop-color="#FD4C00"/>
<stop offset="1" stop-color="#FFB800"/>
</linearGradient>
<linearGradient id="paint1_linear_43_1880" x1="6.5" y1="10.5" x2="11.378" y2="6.59756" gradientUnits="userSpaceOnUse">
<stop stop-color="#FBD92C"/>
<stop offset="1" stop-color="white"/>
</linearGradient>
<clipPath id="clip0_43_1880">
<rect width="16" height="16" fill="white"/>
</clipPath>
</defs>
</svg>
