<svg width="16" height="16" viewBox="0 0 16 16" fill="none" xmlns="http://www.w3.org/2000/svg">
<path fill-rule="evenodd" clip-rule="evenodd" d="M12.2 1.93333C12.2 1.41813 12.6181 1 13.1333 1C13.6485 1 14.0667 1.41813 14.0667 1.93333C14.0667 2.44853 13.6485 2.86667 13.1333 2.86667C12.6181 2.86667 12.2 2.44853 12.2 1.93333ZM11.22 15H3.84667C2.27213 14.9832 1 13.7017 1 12.1225V3.87747C1 3.114 1.30333 2.38227 1.8428 1.8428C2.38227 1.30333 3.114 1 3.87747 1H10.3333C10.8485 1 11.2667 1.41813 11.2667 1.93333C11.2667 2.96373 12.1029 3.8 13.1333 3.8C13.6485 3.8 14.0667 4.21813 14.0667 4.73333V12.1225C14.0667 13.7017 12.7945 14.9832 11.22 15Z" fill="url(#paint0_linear_8_289)"/>
<path fill-rule="evenodd" clip-rule="evenodd" d="M9.80009 7.20001H6.06676C5.55156 7.20001 5.13342 7.61815 5.13342 8.13335C5.13342 8.64855 5.55156 9.06668 6.06676 9.06668H9.80009C10.3153 9.06668 10.7334 8.64855 10.7334 8.13335C10.7334 7.61815 10.3153 7.20001 9.80009 7.20001Z" fill="#D49F34"/>
<path fill-rule="evenodd" clip-rule="evenodd" d="M9.8 10.8H3.93333C3.41813 10.8 3 11.2181 3 11.7333C3 12.2485 3.41813 12.6667 3.93333 12.6667H9.8C10.3152 12.6667 10.7333 12.2485 10.7333 11.7333C10.7333 11.2181 10.3152 10.8 9.8 10.8Z" fill="#D49F34"/>
<path fill-rule="evenodd" clip-rule="evenodd" d="M10.8667 6H7.13341C6.61821 6 6.20007 6.41813 6.20007 6.93333C6.20007 7.44853 6.61821 7.86667 7.13341 7.86667H10.8667C11.3819 7.86667 11.8001 7.44853 11.8001 6.93333C11.8001 6.41813 11.3819 6 10.8667 6Z" fill="url(#paint1_linear_8_289)"/>
<path fill-rule="evenodd" clip-rule="evenodd" d="M10.8667 9.60004H4.99998C4.48478 9.60004 4.06665 10.0182 4.06665 10.5334C4.06665 11.0486 4.48478 11.4667 4.99998 11.4667H10.8667C11.3819 11.4667 11.8 11.0486 11.8 10.5334C11.8 10.0182 11.3819 9.60004 10.8667 9.60004Z" fill="url(#paint2_linear_8_289)"/>
<defs>
<linearGradient id="paint0_linear_8_289" x1="3.45" y1="14.124" x2="12.2882" y2="4.22437" gradientUnits="userSpaceOnUse">
<stop stop-color="#FF8860"/>
<stop offset="1" stop-color="#FBD92C"/>
</linearGradient>
<linearGradient id="paint1_linear_8_289" x1="7.60007" y1="7.4" x2="8.16007" y2="5.72" gradientUnits="userSpaceOnUse">
<stop stop-color="#FBD92C"/>
<stop offset="1" stop-color="white"/>
</linearGradient>
<linearGradient id="paint2_linear_8_289" x1="5.99998" y1="11" x2="6.42575" y2="9.23614" gradientUnits="userSpaceOnUse">
<stop stop-color="#FBD92C"/>
<stop offset="1" stop-color="white"/>
</linearGradient>
</defs>
</svg>
