<svg width="16" height="16" viewBox="0 0 16 16" fill="none" xmlns="http://www.w3.org/2000/svg">
<g clip-path="url(#clip0_15_1676)">
<path fill-rule="evenodd" clip-rule="evenodd" d="M1 13C0.448 13 0 12.552 0 12V3.992C0 1.787 1.787 0 3.992 0C6.357 0 9.643 0 12.008 0C13.067 0 14.082 0.421001 14.831 1.169C15.579 1.918 16 2.933 16 3.992C16 6.357 16 9.643 16 12.008C16 14.213 14.213 16 12.008 16C8.751 16 4 16 4 16C3.448 16 3 15.552 3 15C3 13.896 2.104 13 1 13ZM1 14C1.552 14 2 14.448 2 15C2 15.552 1.552 16 1 16C0.448 16 0 15.552 0 15C0 14.448 0.448 14 1 14Z" fill="url(#paint0_linear_15_1676)"/>
<path d="M12.2672 6.41598C12.3152 6.35969 12.3515 6.29438 12.3739 6.22389C12.3963 6.1534 12.4044 6.07914 12.3977 6.00548C12.3911 5.93181 12.3698 5.86022 12.3351 5.7949C12.3004 5.72957 12.253 5.67184 12.1956 5.62509C12.1384 5.57832 12.0723 5.54348 12.0013 5.5226C11.9304 5.50172 11.8559 5.49522 11.7825 5.50347C11.7089 5.51173 11.6378 5.53459 11.5733 5.57069C11.5087 5.60681 11.452 5.65544 11.4065 5.71375L7.57837 10.4026C7.46882 10.3634 7.34973 10.3595 7.23792 10.3916C7.1261 10.4238 7.02723 10.4902 6.95525 10.5816C6.88326 10.673 6.84184 10.7847 6.83678 10.901C6.83178 11.0172 6.86343 11.132 6.92723 11.2293L7.13911 11.5538C7.18689 11.6269 7.25127 11.6877 7.32695 11.7314C7.40269 11.7749 7.48757 11.8001 7.57485 11.8047C7.66212 11.8093 7.74922 11.7933 7.82911 11.758C7.909 11.7226 7.97939 11.6689 8.03468 11.6011L12.2672 6.41598ZM9.30428 6.41598C9.35229 6.35969 9.38854 6.29438 9.41093 6.22389C9.43337 6.1534 9.4415 6.07914 9.43479 6.00548C9.42814 5.93181 9.40684 5.86022 9.37212 5.7949C9.3374 5.72957 9.29002 5.67184 9.23269 5.62509C9.17536 5.57832 9.10934 5.54348 9.03837 5.5226C8.9674 5.50172 8.89297 5.49522 8.81945 5.50347C8.74598 5.51173 8.67485 5.53459 8.6103 5.57069C8.54576 5.60681 8.48905 5.65544 8.44354 5.71375L4.64132 10.3715L3.37836 8.82489C3.28412 8.71432 3.15033 8.64506 3.00566 8.63199C2.86099 8.61892 2.71694 8.66301 2.60439 8.75483C2.49183 8.84665 2.41972 8.97892 2.4035 9.12324C2.38728 9.26761 2.42825 9.41256 2.51762 9.5271L4.21095 11.6011C4.26305 11.665 4.3287 11.7164 4.40313 11.7518C4.47757 11.787 4.55893 11.8054 4.64132 11.8054C4.72371 11.8054 4.80507 11.787 4.87951 11.7518C4.95394 11.7164 5.01959 11.665 5.07169 11.6011L9.30428 6.41598Z" fill="#8C4FD9" stroke="#8C4FD9" stroke-width="0.6"/>
<path d="M12.8672 4.91598C12.9152 4.85969 12.9515 4.79438 12.9739 4.72389C12.9963 4.6534 13.0044 4.57914 12.9977 4.50548C12.9911 4.43181 12.9698 4.36022 12.935 4.2949C12.9003 4.22957 12.8529 4.17184 12.7956 4.12509C12.7383 4.07832 12.6723 4.04348 12.6013 4.0226C12.5303 4.00172 12.4559 3.99522 12.3824 4.00347C12.3089 4.01173 12.2378 4.03459 12.1732 4.07069C12.1087 4.10681 12.052 4.15544 12.0065 4.21375L8.17835 8.90261C8.0688 8.86335 7.94971 8.85955 7.83789 8.89165C7.72607 8.92375 7.62721 8.99023 7.55522 9.08159C7.48323 9.17301 7.44181 9.28472 7.43676 9.40097C7.43176 9.51716 7.4634 9.63205 7.52721 9.72932L7.73908 10.0538C7.78687 10.1269 7.85124 10.1877 7.92693 10.2314C8.00266 10.2749 8.08755 10.3001 8.17482 10.3047C8.2621 10.3093 8.3492 10.2933 8.42908 10.258C8.50897 10.2226 8.57937 10.1689 8.63465 10.1011L12.8672 4.91598ZM9.90425 4.91598C9.95227 4.85969 9.98852 4.79438 10.0109 4.72389C10.0333 4.6534 10.0415 4.57914 10.0348 4.50548C10.0281 4.43181 10.0068 4.36022 9.9721 4.2949C9.93738 4.22957 9.88999 4.17184 9.83266 4.12509C9.77533 4.07832 9.70931 4.04348 9.63835 4.0226C9.56738 4.00172 9.49295 3.99522 9.41943 4.00347C9.34596 4.01173 9.27482 4.03459 9.21028 4.07069C9.14573 4.10681 9.08903 4.15544 9.04352 4.21375L5.24129 8.87153L3.97833 7.32489C3.8841 7.21432 3.75031 7.14506 3.60564 7.13199C3.46097 7.11892 3.31692 7.16301 3.20436 7.25483C3.09181 7.34665 3.0197 7.47892 3.00348 7.62324C2.98725 7.76761 3.02822 7.91256 3.1176 8.0271L4.81093 10.1011C4.86303 10.165 4.92868 10.2164 5.00311 10.2518C5.07754 10.287 5.1589 10.3054 5.24129 10.3054C5.32369 10.3054 5.40505 10.287 5.47948 10.2518C5.55392 10.2164 5.61957 10.165 5.67166 10.1011L9.90425 4.91598Z" fill="url(#paint1_linear_15_1676)" stroke="url(#paint2_linear_15_1676)" stroke-width="0.6"/>
</g>
<defs>
<linearGradient id="paint0_linear_15_1676" x1="4" y1="14.8571" x2="14.5882" y2="2.5042" gradientUnits="userSpaceOnUse">
<stop stop-color="#A056FF"/>
<stop offset="1" stop-color="#C59AFD"/>
</linearGradient>
<linearGradient id="paint1_linear_15_1676" x1="5.5" y1="10.3055" x2="13.9671" y2="5.82943" gradientUnits="userSpaceOnUse">
<stop stop-color="#C59AFD"/>
<stop offset="1" stop-color="white"/>
</linearGradient>
<linearGradient id="paint2_linear_15_1676" x1="5.5" y1="10.3055" x2="13.9671" y2="5.82943" gradientUnits="userSpaceOnUse">
<stop stop-color="#C59AFD"/>
<stop offset="1" stop-color="white"/>
</linearGradient>
<clipPath id="clip0_15_1676">
<rect width="16" height="16" fill="white"/>
</clipPath>
</defs>
</svg>
