<svg width="16" height="16" viewBox="0 0 16 16" fill="none" xmlns="http://www.w3.org/2000/svg">
<g clip-path="url(#clip0_17_2220)">
<path fill-rule="evenodd" clip-rule="evenodd" d="M8 13C6 13 5.837 14.664 5.807 14.724C5.563 15.219 4.963 15.423 4.468 15.179C1.822 13.874 0 11.148 0 8C0 3.585 3.585 0 8 0C12.415 0 16 3.585 16 8C16 11.148 14.178 13.874 11.532 15.179C11.037 15.423 10.437 15.219 10.193 14.724C10.163 14.664 10 13 8 13ZM9 15C9 15.552 8.552 16 8 16C7.448 16 7 15.552 7 15C7 14.448 7.448 14 8 14C8.552 14 9 14.448 9 15Z" fill="url(#paint0_linear_17_2220)"/>
<circle cx="3.0461" cy="8.23068" r="1.84615" fill="#279FD7"/>
<circle cx="11.3538" cy="8.23068" r="1.84615" fill="#279FD7"/>
<circle cx="7.20001" cy="8.23077" r="3.23077" fill="#279FD7"/>
<circle cx="4.0461" cy="7.23068" r="1.84615" fill="url(#paint1_linear_17_2220)"/>
<circle cx="12.3538" cy="7.23068" r="1.84615" fill="url(#paint2_linear_17_2220)"/>
<circle cx="8.20001" cy="7.23077" r="3.23077" fill="url(#paint3_linear_17_2220)"/>
</g>
<defs>
<linearGradient id="paint0_linear_17_2220" x1="1.6" y1="16.005" x2="7.3787" y2="-1.33327" gradientUnits="userSpaceOnUse">
<stop stop-color="#22B4FA"/>
<stop offset="1" stop-color="#6BD6FE"/>
</linearGradient>
<linearGradient id="paint1_linear_17_2220" x1="2.19995" y1="9.07683" x2="6.54384" y2="7.99086" gradientUnits="userSpaceOnUse">
<stop stop-color="#6BD6FE"/>
<stop offset="1" stop-color="white"/>
</linearGradient>
<linearGradient id="paint2_linear_17_2220" x1="10.5077" y1="9.07683" x2="14.8516" y2="7.99086" gradientUnits="userSpaceOnUse">
<stop stop-color="#6BD6FE"/>
<stop offset="1" stop-color="white"/>
</linearGradient>
<linearGradient id="paint3_linear_17_2220" x1="4.96924" y1="10.4615" x2="12.571" y2="8.56109" gradientUnits="userSpaceOnUse">
<stop stop-color="#6BD6FE"/>
<stop offset="1" stop-color="white"/>
</linearGradient>
<clipPath id="clip0_17_2220">
<rect width="16" height="16" fill="white"/>
</clipPath>
</defs>
</svg>
