<svg width="16" height="16" viewBox="0 0 16 16" fill="none" xmlns="http://www.w3.org/2000/svg">
<g clip-path="url(#clip0_282_45)">
<path fill-rule="evenodd" clip-rule="evenodd" d="M15 3C15.552 3 16 3.448 16 4V12.008C16 14.213 14.213 16 12.008 16C9.643 16 6.357 16 3.992 16C2.933 16 1.918 15.579 1.169 14.831C0.421 14.082 0 13.067 0 12.008C0 9.643 0 6.357 0 3.992C0 1.787 1.787 0 3.992 0C7.249 0 12 0 12 0C12.552 0 13 0.448 13 1C13 2.104 13.896 3 15 3ZM15 2C14.448 2 14 1.552 14 1C14 0.448 14.448 0 15 0C15.552 0 16 0.448 16 1C16 1.552 15.552 2 15 2Z" fill="url(#paint0_linear_282_45)"/>
<path d="M2.62329 5.13561C2.60163 5.24393 2.68952 5.33384 2.79998 5.33384H3.39998C3.51043 5.33384 3.59998 5.42338 3.59998 5.53384V12.4672C3.59998 12.5776 3.50937 12.665 3.4002 12.6818C2.84622 12.7673 2.67575 13.2066 2.62329 13.4689C2.60163 13.5773 2.68952 13.6672 2.79998 13.6672H5.73331C5.84377 13.6672 5.93165 13.5773 5.90999 13.4689C5.85753 13.2066 5.68706 12.7673 5.13308 12.6818C5.02392 12.665 4.93331 12.5776 4.93331 12.4672V8.14792C4.93331 7.944 5.20274 7.87086 5.30586 8.04679L8.22298 13.0238C8.51598 13.6772 8.64831 13.6672 9.31664 13.6672H10.2666C10.2666 13.6672 10.2666 13.6672 10.2666 13.6672C10.2666 13.6672 10.9333 13.6672 10.9333 12.6672V5.53384C10.9333 5.42338 11.0229 5.33384 11.1333 5.33384H11.7333C11.8438 5.33384 11.9317 5.24393 11.91 5.13561C11.8517 4.84407 11.6476 4.33384 10.9333 4.33384H9.59998C8.88567 4.33384 8.6816 4.84407 8.62329 5.13561C8.60163 5.24393 8.68952 5.33384 8.79998 5.33384H9.39998C9.51043 5.33384 9.59998 5.42338 9.59998 5.53384V9.85308C9.59998 10.057 9.33055 10.1301 9.22743 9.95421L6.34298 5.03284C6.00131 4.23517 5.74331 4.33384 4.93331 4.33384H3.59998C2.88567 4.33384 2.6816 4.84407 2.62329 5.13561Z" fill="#8C4FD9"/>
<path d="M3.62329 4.13512C3.60163 4.24344 3.68952 4.33335 3.79998 4.33335H4.39998C4.51043 4.33335 4.59998 4.42289 4.59998 4.53335V11.4667C4.59998 11.5771 4.50937 11.6645 4.4002 11.6813C3.84622 11.7668 3.67575 12.2061 3.62329 12.4685C3.60163 12.5768 3.68952 12.6667 3.79998 12.6667H6.73331C6.84377 12.6667 6.93165 12.5768 6.90999 12.4685C6.85753 12.2061 6.68706 11.7668 6.13308 11.6813C6.02392 11.6645 5.93331 11.5771 5.93331 11.4667V7.14743C5.93331 6.94351 6.20274 6.87037 6.30586 7.0463L9.22298 12.0233C9.51598 12.6767 9.64831 12.6667 10.3166 12.6667H11.2666C11.2666 12.6667 11.2666 12.6667 11.2666 12.6667C11.2666 12.6667 11.9333 12.6667 11.9333 11.6667V4.53335C11.9333 4.42289 12.0229 4.33335 12.1333 4.33335H12.7333C12.8438 4.33335 12.9317 4.24344 12.91 4.13512C12.8517 3.84358 12.6476 3.33335 11.9333 3.33335H10.6C9.88567 3.33335 9.6816 3.84358 9.62329 4.13512C9.60163 4.24344 9.68952 4.33335 9.79998 4.33335H10.4C10.5104 4.33335 10.6 4.42289 10.6 4.53335V8.85259C10.6 9.05652 10.3305 9.12966 10.2274 8.95372L7.34298 4.03235C7.00131 3.23468 6.74331 3.33335 5.93331 3.33335H4.59998C3.88567 3.33335 3.6816 3.84358 3.62329 4.13512Z" fill="url(#paint1_linear_282_45)"/>
</g>
<defs>
<linearGradient id="paint0_linear_282_45" x1="4" y1="14.8571" x2="14.5882" y2="2.5042" gradientUnits="userSpaceOnUse">
<stop stop-color="#A056FF"/>
<stop offset="1" stop-color="#C59AFD"/>
</linearGradient>
<linearGradient id="paint1_linear_282_45" x1="5.93331" y1="12.6667" x2="15.0341" y2="9.63437" gradientUnits="userSpaceOnUse">
<stop stop-color="#C59AFD"/>
<stop offset="1" stop-color="white"/>
</linearGradient>
<clipPath id="clip0_282_45">
<rect width="16" height="16" fill="white"/>
</clipPath>
</defs>
</svg>
