<svg width="16" height="16" viewBox="0 0 16 16" fill="none" xmlns="http://www.w3.org/2000/svg">
<path fill-rule="evenodd" clip-rule="evenodd" d="M6.05303 2.07777C7.23628 1.86076 8.4578 2.10179 9.46994 2.752C9.95925 3.06634 10.3819 3.46492 10.7214 3.92462C11.1297 4.47776 11.7591 4.86117 12.4347 4.9887C13.0421 5.10335 13.6182 5.34533 14.1254 5.69871C14.6325 6.05208 15.059 6.50885 15.3769 7.03896C15.6947 7.56906 15.8968 8.16047 15.9694 8.77425C16.0424 9.38802 15.9844 10.0103 15.7994 10.6C15.6143 11.1898 15.3065 11.7337 14.8963 12.1959C14.4859 12.6581 13.9823 13.0282 13.4186 13.2817C12.8548 13.5354 12.2439 13.6666 11.6258 13.6672H11.6253H3.64551H3.64352C3.13817 13.6658 3.07687 12.871 3.2819 12.4091C3.37619 12.1967 3.42857 11.9616 3.42857 11.7143C3.42857 10.7675 2.66106 10 1.71429 10C1.21991 10 0.774409 10.2093 0.46154 10.5441C0.327287 10.6877 0.0510494 10.6534 0.0271331 10.4583C-0.0811529 9.5746 0.136968 8.68182 0.640513 7.94764C0.779768 7.7446 0.938202 7.55756 1.11282 7.3886C1.67366 6.84591 2.13915 6.16288 2.35751 5.41363C2.5128 4.8808 2.7618 4.37473 3.09775 3.92067C3.81329 2.9536 4.86976 2.2948 6.05303 2.07777ZM1.37146 12.9714C1.8764 12.9714 2.28574 12.5621 2.28574 12.0571C2.28574 11.5522 1.8764 11.1429 1.37146 11.1429C0.86651 11.1429 0.457171 11.5522 0.457171 12.0571C0.457171 12.5621 0.86651 12.9714 1.37146 12.9714Z" fill="url(#paint0_linear_15_1151)"/>
<path d="M5.12701 9.62686L9.18512 7.12656C9.27603 7.07086 9.39241 7.07619 9.47751 7.14197C9.86305 7.43888 10.2075 7.73993 10.4373 7.99297C10.4373 7.99297 10.6353 8.19563 10.721 8.32423C10.8594 8.49969 10.9259 8.72903 10.9259 8.95184C10.9259 9.20191 10.853 9.43836 10.7077 9.62745C10.6747 9.66123 10.549 9.80997 10.4304 9.93145C9.73801 10.6876 7.93066 11.9368 6.98009 12.3156C6.84172 12.3766 6.47241 12.504 6.28077 12.5111C6.0961 12.5111 5.9178 12.4708 5.74644 12.3825C5.53572 12.2611 5.37073 12.0726 5.27811 11.8491C5.21848 11.6939 5.12644 11.2281 5.12644 11.2145C5.06681 10.882 5.02223 10.415 5.00023 9.86982C4.99618 9.77205 5.04539 9.67723 5.12701 9.62686Z" fill="#D49F34"/>
<path d="M5.39832 8.28018C5.21944 8.391 4.99424 8.24937 5.00293 8.03663C5.02435 7.53761 5.06139 7.09788 5.10655 6.77076C5.1135 6.76365 5.20554 6.18347 5.31149 5.98731C5.49616 5.62285 5.85855 5.40002 6.24816 5.40002H6.28058C6.53183 5.40654 7.06617 5.62937 7.06617 5.643C7.33533 5.755 7.68674 5.94465 8.06475 6.17281C8.23494 6.27592 8.23903 6.52897 8.06884 6.63386L5.39832 8.28018Z" fill="#D49F34"/>
<path d="M6.01593 8.22684L10.074 5.72654C10.1649 5.67083 10.2813 5.67617 10.3664 5.74195C10.752 6.03885 11.0964 6.33991 11.3262 6.59294C11.3262 6.59294 11.5242 6.79561 11.6099 6.9242C11.7483 7.09967 11.8148 7.329 11.8148 7.55182C11.8148 7.80189 11.7419 8.03833 11.5966 8.22743C11.5636 8.26121 11.4379 8.40995 11.3193 8.53143C10.6269 9.28758 8.81958 10.5368 7.869 10.9155C7.73063 10.9766 7.36133 11.104 7.16969 11.1111C6.98502 11.1111 6.80672 11.0708 6.63536 10.9825C6.42464 10.861 6.25965 10.6726 6.16703 10.4491C6.1074 10.2939 6.01535 9.82808 6.01535 9.81445C5.95573 9.48201 5.91115 9.01498 5.88915 8.4698C5.8851 8.37202 5.9343 8.27721 6.01593 8.22684Z" fill="url(#paint1_linear_15_1151)"/>
<path d="M6.28723 6.88016C6.10835 6.99097 5.88316 6.84934 5.89185 6.6366C5.91326 6.13759 5.95031 5.69786 5.99547 5.37074C6.00242 5.36363 6.09446 4.78345 6.2004 4.58729C6.38507 4.22283 6.74747 4 7.13708 4H7.16949C7.42075 4.00652 7.95509 4.22934 7.95509 4.24297C8.22425 4.35498 8.57565 4.54462 8.95367 4.77278C9.12386 4.87589 9.12795 5.12895 8.95776 5.23384L6.28723 6.88016Z" fill="url(#paint2_linear_15_1151)"/>
<defs>
<linearGradient id="paint0_linear_15_1151" x1="3" y1="12.9371" x2="9.57935" y2="2.10898" gradientUnits="userSpaceOnUse">
<stop stop-color="#FF8860"/>
<stop offset="1" stop-color="#FBD92C"/>
</linearGradient>
<linearGradient id="paint1_linear_15_1151" x1="7.3704" y1="9.75541" x2="10.0711" y2="6.80408" gradientUnits="userSpaceOnUse">
<stop stop-color="#FBD92C"/>
<stop offset="1" stop-color="white"/>
</linearGradient>
<linearGradient id="paint2_linear_15_1151" x1="6.68954" y1="6.18912" x2="8.14315" y2="4.59959" gradientUnits="userSpaceOnUse">
<stop stop-color="#FBD92C"/>
<stop offset="1" stop-color="white"/>
</linearGradient>
</defs>
</svg>
