<svg width="16" height="16" viewBox="0 0 16 16" fill="none" xmlns="http://www.w3.org/2000/svg">
<g clip-path="url(#clip0_44_91)">
<path fill-rule="evenodd" clip-rule="evenodd" d="M4.46311 11.5338C3.0489 10.1196 1.75701 11.181 1.69337 11.2022C1.17082 11.3796 0.602306 11.0996 0.424821 10.5771C-0.523408 7.7833 0.115816 4.56738 2.34179 2.34141C5.46367 -0.780469 10.5336 -0.780469 13.6555 2.34141C16.7774 5.46328 16.7774 10.5332 13.6555 13.6551C11.4295 15.8811 8.2136 16.5203 5.41982 15.5721C4.89727 15.3946 4.61726 14.8261 4.79474 14.3035C4.81595 14.2399 5.87732 12.948 4.46311 11.5338ZM3.756 13.6551C3.36568 14.0454 2.73211 14.0454 2.34179 13.6551C1.95147 13.2648 1.95147 12.6312 2.34179 12.2409C2.73211 11.8506 3.36568 11.8506 3.756 12.2409C4.14632 12.6312 4.14632 13.2648 3.756 13.6551Z" fill="url(#paint0_linear_44_91)"/>
<path d="M10.7313 8.75605C10.9365 8.57458 11.2403 8.53547 11.4724 8.68095V8.68095C11.8091 8.89205 11.8214 9.36314 11.4753 9.55864C10.6198 10.042 9.04967 10.7501 7.19401 10.7501C4.71969 10.7501 3.53509 8.82696 3.14844 8.02431C3.0483 7.81644 3.10366 7.57651 3.27985 7.42753C3.87772 6.92198 5.36107 5.83008 7.02025 5.83008C8.78452 5.83008 9.89601 6.80101 10.3803 7.34502C10.5598 7.5466 10.5366 7.84162 10.3417 8.0283C9.74795 8.597 8.42583 9.71393 7.2001 9.71393C5.84005 9.71393 5.16365 8.71329 4.89955 8.17939C4.80233 7.98286 4.85657 7.7541 5.02798 7.61736C5.3959 7.32387 6.11208 6.86018 6.96464 6.86018C7.72592 6.86018 8.19218 7.15952 8.44477 7.40158C8.60892 7.55889 8.56426 7.80798 8.38962 7.95356V7.95356C8.14653 8.15621 7.76942 8.07193 7.55709 7.83724C7.35387 7.61261 7.0672 7.4 6.71009 7.4C6.36474 7.4 6.07666 7.55708 5.88621 7.69978C5.71811 7.82574 5.67758 8.04954 5.77384 8.23624C5.98228 8.64056 6.43431 9.29834 7.16911 9.29834C8.14889 9.29834 8.97018 8.47482 9.35927 8.00461C9.51405 7.81755 9.51159 7.55441 9.34488 7.37791C8.95619 6.9664 8.13488 6.28706 6.94583 6.28301C5.57397 6.27844 4.61958 7.12663 4.23075 7.54736C4.10164 7.68707 4.0694 7.8845 4.14641 8.05845C4.43544 8.71133 5.32519 10.2786 7.20646 10.2786C8.79712 10.2786 10.1313 9.2868 10.7313 8.75605Z" fill="#8CC860" stroke="#8CC860" stroke-width="0.4"/>
<path d="M11.5614 7.92597C11.7666 7.7445 12.0704 7.70539 12.3025 7.85087V7.85087C12.6392 8.06198 12.6515 8.53306 12.3054 8.72856C11.4499 9.21188 9.87974 9.92004 8.02409 9.92004C5.54977 9.92004 4.36517 7.99688 3.97852 7.19423C3.87838 6.98636 3.93374 6.74643 4.10993 6.59745C4.7078 6.0919 6.19115 5 7.85033 5C9.6146 5 10.7261 5.97093 11.2104 6.51494C11.3898 6.71652 11.3667 7.01154 11.1718 7.19823C10.578 7.76692 9.25591 8.88385 8.03018 8.88385C6.67013 8.88385 5.99373 7.88322 5.72962 7.34931C5.63241 7.15278 5.68665 6.92402 5.85806 6.78728C6.22598 6.49379 6.94216 6.0301 7.79472 6.0301C8.556 6.0301 9.02226 6.32944 9.27485 6.5715C9.439 6.72881 9.39434 6.9779 9.2197 7.12348V7.12348C8.97661 7.32613 8.5995 7.24185 8.38717 7.00716C8.18395 6.78253 7.89728 6.56992 7.54017 6.56992C7.19481 6.56992 6.90674 6.727 6.71629 6.8697C6.54819 6.99566 6.50766 7.21946 6.60391 7.40616C6.81236 7.81048 7.26439 8.46826 7.99919 8.46826C8.97897 8.46826 9.80026 7.64474 10.1893 7.17453C10.3441 6.98747 10.3417 6.72433 10.175 6.54783C9.78626 6.13632 8.96495 5.45698 7.7759 5.45294C6.40405 5.44836 5.44966 6.29655 5.06083 6.71728C4.93172 6.85699 4.89948 7.05442 4.97649 7.22837C5.26551 7.88125 6.15527 9.44856 8.03654 9.44856C9.6272 9.44856 10.9614 8.45672 11.5614 7.92597Z" fill="url(#paint1_linear_44_91)" stroke="url(#paint2_linear_44_91)" stroke-width="0.3"/>
</g>
<defs>
<linearGradient id="paint0_linear_44_91" x1="1.14264" y1="15.9969" x2="11.7113" y2="0.624358" gradientUnits="userSpaceOnUse">
<stop stop-color="#9BE862"/>
<stop offset="1" stop-color="#C8FF9F"/>
</linearGradient>
<linearGradient id="paint1_linear_44_91" x1="4.97632" y1="9.92004" x2="8.73493" y2="3.79042" gradientUnits="userSpaceOnUse">
<stop stop-color="#C8FF9F"/>
<stop offset="1" stop-color="white"/>
</linearGradient>
<linearGradient id="paint2_linear_44_91" x1="4.97632" y1="9.92004" x2="8.73493" y2="3.79042" gradientUnits="userSpaceOnUse">
<stop stop-color="#C8FF9F"/>
<stop offset="1" stop-color="white"/>
</linearGradient>
<clipPath id="clip0_44_91">
<rect width="16" height="16" fill="white"/>
</clipPath>
</defs>
</svg>
