<svg width="16" height="16" viewBox="0 0 16 16" fill="none" xmlns="http://www.w3.org/2000/svg">
<g clip-path="url(#clip0_280_2)">
<path fill-rule="evenodd" clip-rule="evenodd" d="M15.6876 7.07443C16.1041 7.79598 16.1041 8.68503 15.6876 9.40658L14.2509 11.8951C14.0538 12.2365 13.6746 12.4302 13.2826 12.3899L12.4469 12.304C11.3481 12.191 10.3658 12.9901 10.2528 14.0889L10.202 14.5833C10.1496 15.0933 9.71993 15.481 9.20723 15.481H5.16605C4.33309 15.481 3.56303 15.0365 3.14655 14.3153C2.3674 12.9654 1.0918 10.7561 0.312646 9.40658C-0.104215 8.68503 -0.104215 7.79598 0.312646 7.07443L3.14655 2.1657C3.56303 1.44415 4.33309 1 5.16605 1H10.8342C11.6672 1 12.4373 1.44415 12.8537 2.1657L15.6876 7.07443ZM12 15C12.5523 15 13 14.5523 13 14C13 13.4477 12.5523 13 12 13C11.4477 13 11 13.4477 11 14C11 14.5523 11.4477 15 12 15Z" fill="url(#paint0_linear_280_2)"/>
<path opacity="0.5" fill-rule="evenodd" clip-rule="evenodd" d="M4.86028 14.6654C4.86028 14.7232 4.83722 14.7785 4.79649 14.8192C4.75576 14.8602 4.70022 14.883 4.64269 14.883H4.62561C4.21634 14.883 3.8384 14.6648 3.63363 14.3105L1.15326 10.0139C0.948769 9.65965 0.948769 9.22304 1.15326 8.86875L3.63363 4.57246C3.8384 4.21816 4.21634 4 4.62561 4H9.58663C9.99561 4 10.3738 4.21816 10.5783 4.57246C10.5783 4.57246 11.0582 5.40381 11.3385 5.88883C11.3792 5.95946 11.3792 6.04604 11.3385 6.11639C11.2977 6.18673 11.2228 6.23003 11.1414 6.23003H5.11034C4.97221 6.23003 4.86028 6.34195 4.86028 6.48008V8.48084C4.86028 8.61897 4.97221 8.7309 5.11034 8.7309C5.11034 8.7309 11.7728 8.7309 12.8368 8.7309C12.9479 8.7309 13.0641 8.77732 13.1131 8.87871C13.1786 9.014 13.2506 9.21792 13.2116 9.48022C13.1846 9.66307 13.1544 9.84848 13.059 10.0139C13.059 10.0139 12.8804 10.3232 12.736 10.5733C12.6246 10.7664 12.4184 10.8855 12.1954 10.8855H5.11034C4.97221 10.8855 4.86028 10.9974 4.86028 11.1355V14.6654Z" fill="#2A3782"/>
<path fill-rule="evenodd" clip-rule="evenodd" d="M5.75433 13.4643C5.75433 13.5222 5.73126 13.5774 5.69053 13.6181C5.6498 13.6591 5.59427 13.6819 5.53674 13.6819H5.51965C5.11038 13.6819 4.73245 13.4638 4.52767 13.1095L2.0473 8.8129C1.84281 8.4586 1.84281 8.02199 2.0473 7.6677L4.52767 3.37141C4.73245 3.01711 5.11038 2.79895 5.51965 2.79895H10.4807C10.8897 2.79895 11.2679 3.01711 11.4724 3.37141C11.4724 3.37141 11.9523 4.20276 12.2325 4.68778C12.2732 4.75841 12.2732 4.84499 12.2325 4.91534C12.1918 4.98568 12.1169 5.02898 12.0354 5.02898H6.00439C5.86626 5.02898 5.75433 5.1409 5.75433 5.27903V7.27979C5.75433 7.41792 5.86626 7.52985 6.00439 7.52985C6.00439 7.52985 12.6668 7.52985 13.7309 7.52985C13.8419 7.52985 13.9581 7.57627 14.0071 7.67766C14.0726 7.81295 14.1447 8.01687 14.1057 8.27917C14.0786 8.46202 14.0484 8.64743 13.953 8.8129C13.953 8.8129 13.7744 9.1222 13.63 9.37226C13.5187 9.56535 13.3125 9.6844 13.0895 9.6844H6.00439C5.86626 9.6844 5.75433 9.79633 5.75433 9.93446V13.4643Z" fill="url(#paint1_linear_280_2)"/>
</g>
<defs>
<linearGradient id="paint0_linear_280_2" x1="2.5" y1="1" x2="17.5" y2="21.5" gradientUnits="userSpaceOnUse">
<stop stop-color="#AE00FF"/>
<stop offset="1" stop-color="#0810E8"/>
</linearGradient>
<linearGradient id="paint1_linear_280_2" x1="11" y1="16" x2="14.6953" y2="6.79245" gradientUnits="userSpaceOnUse">
<stop stop-color="#8E9EFF"/>
<stop offset="1" stop-color="white"/>
</linearGradient>
<clipPath id="clip0_280_2">
<rect width="16" height="16" fill="white"/>
</clipPath>
</defs>
</svg>
