<svg width="16" height="16" viewBox="0 0 16 16" fill="none" xmlns="http://www.w3.org/2000/svg">
<g clip-path="url(#clip0_15_1558)">
<path fill-rule="evenodd" clip-rule="evenodd" d="M3 8C3 6 1.336 5.837 1.276 5.807C0.780999 5.563 0.576999 4.963 0.820999 4.468C2.126 1.822 4.852 0 8 0C12.415 0 16 3.585 16 8C16 12.415 12.415 16 8 16C4.852 16 2.126 14.178 0.820999 11.532C0.576999 11.037 0.780999 10.437 1.276 10.193C1.336 10.163 3 10 3 8ZM1 9C0.448 9 0 8.552 0 8C0 7.448 0.448 7 1 7C1.552 7 2 7.448 2 8C2 8.552 1.552 9 1 9Z" fill="url(#paint0_linear_15_1558)"/>
<path fill-rule="evenodd" clip-rule="evenodd" d="M3 7.673C3.00004 8.14335 3.24666 8.54317 3.24666 8.54317C4.90127 8.56625 6.69377 9.05392 7.86084 10.1914C7.96172 10.2664 8.01316 10.2 8.08142 10.1014C9.53797 8.08501 12.081 7.29944 14.5503 7.48434C14.6611 7.48073 14.7022 7.33134 14.5843 7.27916C12.1773 6.29335 9.62435 6.70467 7.7354 8.05833C6.37542 7.43501 4.65722 7.24 3 7.673ZM11.099 4.76507C11.9372 3.75053 13.488 3.3391 14.9292 3.57965C15.0004 3.58509 15.0293 3.48828 14.9618 3.4465C13.5506 2.72914 12.0253 2.9596 11.0405 3.55007C9.66977 2.77776 8.1472 2.91946 7.09228 3.49541C7.04857 3.52644 7.05428 3.6167 7.13551 3.62203C8.48852 3.36403 10.2264 3.82001 10.9981 4.76705C11.0329 4.80336 11.0638 4.80104 11.099 4.76507Z" fill="#279FD7"/>
<path fill-rule="evenodd" clip-rule="evenodd" d="M4 6.673C4.00004 7.14335 4.24666 7.54317 4.24666 7.54317C5.90127 7.56625 7.69377 8.05392 8.86084 9.19136C8.96172 9.26644 9.01316 9.19997 9.08142 9.10137C10.538 7.08501 13.081 6.29944 15.5503 6.48434C15.6611 6.48073 15.7022 6.33134 15.5843 6.27916C13.1773 5.29335 10.6243 5.70467 8.7354 7.05833C7.37542 6.43501 5.65722 6.24 4 6.673ZM12.099 3.76507C12.9372 2.75053 14.488 2.3391 15.9292 2.57965C16.0004 2.58509 16.0293 2.48828 15.9618 2.4465C14.5506 1.72914 13.0253 1.9596 12.0405 2.55007C10.6698 1.77776 9.1472 1.91946 8.09228 2.49541C8.04857 2.52644 8.05428 2.6167 8.13551 2.62203C9.48852 2.36403 11.2264 2.82001 11.9981 3.76705C12.0329 3.80336 12.0638 3.80104 12.099 3.76507Z" fill="url(#paint1_linear_15_1558)"/>
</g>
<defs>
<linearGradient id="paint0_linear_15_1558" x1="1.6" y1="16.005" x2="7.3787" y2="-1.33327" gradientUnits="userSpaceOnUse">
<stop stop-color="#22B4FA"/>
<stop offset="1" stop-color="#6BD6FE"/>
</linearGradient>
<linearGradient id="paint1_linear_15_1558" x1="4" y1="9.22367" x2="16.7934" y2="3.91053" gradientUnits="userSpaceOnUse">
<stop stop-color="#6BD6FE"/>
<stop offset="1" stop-color="white"/>
</linearGradient>
<clipPath id="clip0_15_1558">
<rect width="16" height="16" fill="white"/>
</clipPath>
</defs>
</svg>
