<svg width="16" height="16" viewBox="0 0 16 16" fill="none" xmlns="http://www.w3.org/2000/svg">
<g clip-path="url(#clip0_67_1398)">
<path fill-rule="evenodd" clip-rule="evenodd" d="M4.46311 11.5338C3.0489 10.1196 1.75701 11.181 1.69337 11.2022C1.17082 11.3796 0.602306 11.0996 0.424821 10.5771C-0.523408 7.7833 0.115816 4.56738 2.34179 2.34141C5.46367 -0.780469 10.5336 -0.780469 13.6555 2.34141C16.7774 5.46328 16.7774 10.5332 13.6555 13.6551C11.4295 15.8811 8.2136 16.5203 5.41982 15.5721C4.89727 15.3946 4.61726 14.8261 4.79474 14.3035C4.81595 14.2399 5.87732 12.948 4.46311 11.5338ZM3.756 13.6551C3.36568 14.0454 2.73211 14.0454 2.34179 13.6551C1.95147 13.2648 1.95147 12.6312 2.34179 12.2409C2.73211 11.8506 3.36568 11.8506 3.756 12.2409C4.14632 12.6312 4.14632 13.2648 3.756 13.6551Z" fill="url(#paint0_linear_67_1398)"/>
<path opacity="0.8" fill-rule="evenodd" clip-rule="evenodd" d="M2.53249 10.96C3.05189 10.8273 3.78917 10.8599 4.56308 11.6338C5.36948 12.4402 5.37097 13.2068 5.21936 13.7286C5.79028 13.9671 6.42559 14.1 7.11336 14.1C10.1211 14.1 12.1262 11.5571 12.1262 8.76423C12.1262 6.80156 11.3182 5.24868 9.99087 4.36133C9.19936 3.82658 8.21935 3.53009 7.11441 3.53009C6.10312 3.53009 5.19779 3.77681 4.44438 4.22896C2.99369 5.08879 2.09998 6.69991 2.09998 8.76423C2.09998 9.53071 2.25105 10.2784 2.53249 10.96ZM4.14717 13.1039C3.75966 12.8043 3.41988 12.4475 3.13424 12.0482C3.39507 12.0445 3.6571 12.142 3.85598 12.3409C4.06536 12.5503 4.16242 12.8296 4.14717 13.1039ZM9.11785 8.74253C9.11785 6.73061 8.72763 4.51645 7.11385 4.51645C5.5001 4.51645 5.10619 6.70626 5.10619 8.71816C5.10619 10.5818 5.39315 13.0999 7.13344 13.0999C8.87325 13.0999 9.11785 10.6062 9.11785 8.74253Z" fill="url(#paint1_linear_67_1398)"/>
<path d="M11.2344 2.93121C10.4429 2.39647 9.46288 2.09998 8.35794 2.09998C7.34665 2.09998 6.44132 2.3467 5.68791 2.79885C4.23722 3.65867 3.34351 5.26979 3.34351 7.33411C3.34351 10.1264 5.34853 12.6699 8.35689 12.6699C11.3647 12.6699 13.3697 10.1269 13.3697 7.33411C13.3697 5.37144 12.5617 3.81857 11.2344 2.93121ZM8.35738 3.08634C9.97117 3.08634 10.3614 5.3005 10.3614 7.31241C10.3614 9.17608 10.1168 11.6698 8.37697 11.6698C6.63668 11.6698 6.34972 9.15171 6.34972 7.28804C6.34972 5.27614 6.74363 3.08634 8.35738 3.08634Z" fill="url(#paint2_linear_67_1398)"/>
</g>
<defs>
<linearGradient id="paint0_linear_67_1398" x1="15.4564" y1="0.45724" x2="9.21686" y2="16.1246" gradientUnits="userSpaceOnUse">
<stop stop-color="#FE0F7C"/>
<stop offset="1" stop-color="#DF0066"/>
</linearGradient>
<linearGradient id="paint1_linear_67_1398" x1="11.7874" y1="3.83221" x2="7.50637" y2="14.0289" gradientUnits="userSpaceOnUse">
<stop stop-color="#A4004B"/>
<stop offset="1" stop-color="#B40555"/>
</linearGradient>
<linearGradient id="paint2_linear_67_1398" x1="5.7" y1="12.3" x2="12.9" y2="3.89998" gradientUnits="userSpaceOnUse">
<stop offset="0.192487" stop-color="#FF99C8"/>
<stop offset="0.838506" stop-color="#FFF0F7"/>
</linearGradient>
<clipPath id="clip0_67_1398">
<rect width="16" height="16" fill="white"/>
</clipPath>
</defs>
</svg>
