<svg width="16" height="16" viewBox="0 0 16 16" fill="none" xmlns="http://www.w3.org/2000/svg">
<path d="M0.5 10.3286H13.5C13.7761 10.3286 14 10.5525 14 10.8286V12.0786C14 12.5626 13.6524 12.9536 13.2222 12.9536H12.5555C12.2794 12.9536 12.0555 12.7298 12.0555 12.4536V12.0786C12.0555 11.838 11.8805 11.6411 11.6666 11.6411C11.4528 11.6411 11.2778 11.838 11.2778 12.0786V12.4536C11.2778 12.7298 11.0539 12.9536 10.7778 12.9536H9.44445C9.1683 12.9536 8.94445 12.7298 8.94445 12.4536V12.0786C8.94445 11.838 8.76945 11.6411 8.55555 11.6411C8.34166 11.6411 8.16666 11.838 8.16666 12.0786V12.4536C8.16666 12.7298 7.94281 12.9536 7.66666 12.9536H6.33334C6.05719 12.9536 5.83334 12.7298 5.83334 12.4536V12.0786C5.83334 11.838 5.65834 11.6411 5.44445 11.6411C5.23055 11.6411 5.05555 11.838 5.05555 12.0786V12.4536C5.05555 12.7298 4.8317 12.9536 4.55555 12.9536H3.22223C2.94608 12.9536 2.72222 12.7298 2.72222 12.4536V12.0786C2.72222 11.838 2.54723 11.6411 2.33334 11.6411C2.11945 11.6411 1.94445 11.838 1.94445 12.0786V12.4536C1.94445 12.7298 1.72059 12.9536 1.44445 12.9536H0.777775C0.347575 12.9536 0 12.5626 0 12.0786V10.8286C0 10.5525 0.223857 10.3286 0.5 10.3286Z" fill="url(#paint0_linear_249_239)"/>
<path fill-rule="evenodd" clip-rule="evenodd" d="M0 4.75C0 3.78478 0.697575 3 1.55555 3H12.4445C13.3024 3 14 3.78478 14 4.75V4.95235C14 5.13829 13.893 5.29688 13.7545 5.39805C13.4336 5.63321 13.2222 6.0379 13.2222 6.5C13.2222 6.96211 13.4336 7.3668 13.7545 7.60196C13.893 7.70313 14 7.86173 14 8.04766V9.5C14 9.77615 13.7761 10 13.5 10H0.5C0.223857 10 0 9.77615 0 9.5V8.04766C0 7.86173 0.106945 7.70313 0.245486 7.60196C0.566325 7.3668 0.777775 6.96211 0.777775 6.5C0.777775 6.0379 0.566325 5.63321 0.245486 5.39805C0.106945 5.29688 0 5.13829 0 4.95235V4.75ZM15 7.47681C15.5523 7.47681 16 7.02909 16 6.47681C16 5.92452 15.5523 5.47681 15 5.47681C14.4477 5.47681 14 5.92452 14 6.47681C14 7.02909 14.4477 7.47681 15 7.47681Z" fill="url(#paint1_linear_249_239)"/>
<path d="M3.55555 8.60181V6.85181C3.55555 6.36783 3.20799 5.97681 2.77777 5.97681C2.34756 5.97681 2 6.36783 2 6.85181V8.60181C2 9.08579 2.34756 9.47681 2.77777 9.47681C3.20799 9.47681 3.55555 9.08579 3.55555 8.60181Z" fill="#7FD1AE"/>
<path d="M6.66666 8.60181V6.85181C6.66666 6.36783 6.3191 5.97681 5.88889 5.97681C5.45867 5.97681 5.11111 6.36783 5.11111 6.85181V8.60181C5.11111 9.08579 5.45867 9.47681 5.88889 9.47681C6.3191 9.47681 6.66666 9.08579 6.66666 8.60181Z" fill="#7FD1AE"/>
<path d="M9.77777 8.60181V6.85181C9.77777 6.36783 9.43021 5.97681 9 5.97681C8.56979 5.97681 8.22223 6.36783 8.22223 6.85181V8.60181C8.22223 9.08579 8.56979 9.47681 9 9.47681C9.43021 9.47681 9.77777 9.08579 9.77777 8.60181Z" fill="#7FD1AE"/>
<path d="M4.55555 7.60181V5.85181C4.55555 5.36783 4.20799 4.97681 3.77777 4.97681C3.34756 4.97681 3 5.36783 3 5.85181V7.60181C3 8.08579 3.34756 8.47681 3.77777 8.47681C4.20799 8.47681 4.55555 8.08579 4.55555 7.60181Z" fill="url(#paint2_linear_249_239)"/>
<path d="M7.66666 7.60181V5.85181C7.66666 5.36783 7.3191 4.97681 6.88889 4.97681C6.45867 4.97681 6.11111 5.36783 6.11111 5.85181V7.60181C6.11111 8.08579 6.45867 8.47681 6.88889 8.47681C7.3191 8.47681 7.66666 8.08579 7.66666 7.60181Z" fill="url(#paint3_linear_249_239)"/>
<path d="M10.7778 7.60181V5.85181C10.7778 5.36783 10.4302 4.97681 10 4.97681C9.56979 4.97681 9.22223 5.36783 9.22223 5.85181V7.60181C9.22223 8.08579 9.56979 8.47681 10 8.47681C10.4302 8.47681 10.7778 8.08579 10.7778 7.60181Z" fill="url(#paint4_linear_249_239)"/>
<defs>
<linearGradient id="paint0_linear_249_239" x1="1.75" y1="12.6255" x2="7.23682" y2="5.87255" gradientUnits="userSpaceOnUse">
<stop stop-color="#62E8AF"/>
<stop offset="1" stop-color="#B3FBDC"/>
</linearGradient>
<linearGradient id="paint1_linear_249_239" x1="2" y1="9.12519" x2="14.337" y2="2.61798" gradientUnits="userSpaceOnUse">
<stop stop-color="#62E8AF"/>
<stop offset="1" stop-color="#B3FBDC"/>
</linearGradient>
<linearGradient id="paint2_linear_249_239" x1="3" y1="8.47681" x2="3.48604" y2="4.15649" gradientUnits="userSpaceOnUse">
<stop stop-color="#B3FBDC"/>
<stop offset="1" stop-color="white"/>
</linearGradient>
<linearGradient id="paint3_linear_249_239" x1="3" y1="8.47681" x2="3.48604" y2="4.15649" gradientUnits="userSpaceOnUse">
<stop stop-color="#B3FBDC"/>
<stop offset="1" stop-color="white"/>
</linearGradient>
<linearGradient id="paint4_linear_249_239" x1="3" y1="8.47681" x2="3.48604" y2="4.15649" gradientUnits="userSpaceOnUse">
<stop stop-color="#B3FBDC"/>
<stop offset="1" stop-color="white"/>
</linearGradient>
</defs>
</svg>
