<svg width="16" height="16" viewBox="0 0 16 16" fill="none" xmlns="http://www.w3.org/2000/svg">
<path fill-rule="evenodd" clip-rule="evenodd" d="M15 14.125C15 13.642 14.608 13.25 14.125 13.25C13.642 13.25 13.25 13.642 13.25 14.125C13.25 14.608 13.642 15 14.125 15C14.608 15 15 14.608 15 14.125ZM12.375 14.125C12.375 13.159 13.159 12.375 14.125 12.375C14.608 12.375 15 11.983 15 11.5C15 11.5 15 7.314 15 4.46325C15 2.5505 13.4495 1 11.5367 1H4.46325C2.5505 1 1 2.5505 1 4.46325V11.5367C1 13.4495 2.5505 15 4.46325 15C7.314 15 11.5 15 11.5 15C11.983 15 12.375 14.608 12.375 14.125Z" fill="url(#paint0_linear_7_264)"/>
<path fill-rule="evenodd" clip-rule="evenodd" d="M5.375 13.25H8.875C9.358 13.25 9.75 12.858 9.75 12.375C9.75 11.892 9.358 11.5 8.875 11.5H5.375C4.892 11.5 4.5 11.892 4.5 12.375C4.5 12.858 4.892 13.25 5.375 13.25ZM6.25 7.63775L5.99362 7.38138C5.65237 7.04013 5.09763 7.04013 4.75638 7.38138C4.41513 7.72263 4.41513 8.27737 4.75638 8.61862L6.50638 10.3686C6.84763 10.7107 7.40237 10.7107 7.74362 10.3686L9.49362 8.61862C9.83487 8.27737 9.83487 7.72263 9.49362 7.38138C9.15237 7.04013 8.59763 7.04013 8.25638 7.38138L8 7.63775V5.375C8 4.892 7.608 4.5 7.125 4.5C6.642 4.5 6.25 4.892 6.25 5.375V7.63775Z" fill="#344CD8"/>
<path fill-rule="evenodd" clip-rule="evenodd" d="M6.25 12.375H9.75C10.233 12.375 10.625 11.983 10.625 11.5C10.625 11.017 10.233 10.625 9.75 10.625H6.25C5.767 10.625 5.375 11.017 5.375 11.5C5.375 11.983 5.767 12.375 6.25 12.375Z" fill="url(#paint1_linear_7_264)"/>
<path fill-rule="evenodd" clip-rule="evenodd" d="M7.12505 6.76275L6.86868 6.50638C6.52743 6.16513 5.97268 6.16513 5.63143 6.50638C5.29018 6.84763 5.29018 7.40238 5.63143 7.74363L7.38143 9.49363C7.72268 9.83575 8.27743 9.83575 8.61868 9.49363L10.3687 7.74363C10.7099 7.40238 10.7099 6.84763 10.3687 6.50638C10.0274 6.16513 9.47268 6.16513 9.13143 6.50638L8.87505 6.76275V4.5C8.87505 4.017 8.48305 3.625 8.00005 3.625C7.51705 3.625 7.12505 4.017 7.12505 4.5V6.76275Z" fill="url(#paint2_linear_7_264)"/>
<defs>
<linearGradient id="paint0_linear_7_264" x1="1.875" y1="15.0075" x2="17.2397" y2="4.18821" gradientUnits="userSpaceOnUse">
<stop stop-color="#2E4AFA"/>
<stop offset="1" stop-color="#8E9EFF"/>
</linearGradient>
<linearGradient id="paint1_linear_7_264" x1="5.37496" y1="12.375" x2="10.3265" y2="11.9941" gradientUnits="userSpaceOnUse">
<stop stop-color="#8E9EFF"/>
<stop offset="1" stop-color="white"/>
</linearGradient>
<linearGradient id="paint2_linear_7_264" x1="5.37545" y1="9.75022" x2="10.3531" y2="9.64084" gradientUnits="userSpaceOnUse">
<stop stop-color="#8E9EFF"/>
<stop offset="1" stop-color="white"/>
</linearGradient>
</defs>
</svg>
