<svg width="16" height="16" viewBox="0 0 16 16" fill="none" xmlns="http://www.w3.org/2000/svg">
<path fill-rule="evenodd" clip-rule="evenodd" d="M8.38949 9.06474C7.81069 8.62187 7.35443 8.0386 7.06403 7.37014L4.85197 2.19176C4.69885 1.8333 4.27026 1.68004 3.94523 1.89522C3.25686 2.35094 2.64895 2.92071 2.14847 3.58162C1.50199 4.43534 1.05047 5.42038 0.8257 6.46741C0.600936 7.51447 0.608386 8.598 0.847526 9.64187L0.860757 9.69858C1.01196 10.3353 1.8122 10.511 2.46651 10.5003L2.5 10.5C3.60457 10.5 4.5 11.3954 4.5 12.5C4.5 12.7502 4.45406 12.9897 4.37014 13.2104C4.19062 13.6827 4.20705 14.3014 4.65702 14.5313C5.6107 15.0184 6.65955 15.2906 7.72976 15.3287C8.79996 15.3668 9.86549 15.1698 10.8514 14.7517C11.6147 14.428 12.3158 13.9779 12.9261 13.4218C13.2142 13.1593 13.1704 12.7063 12.8604 12.4701L8.38949 9.06474ZM2.3 14C3.01797 14 3.6 13.418 3.6 12.7C3.6 11.9821 3.01797 11.4 2.3 11.4C1.58203 11.4 1 11.9821 1 12.7C1 13.418 1.58203 14 2.3 14Z" fill="url(#paint0_linear_40_1457)"/>
<path opacity="0.7" d="M7.96653 7.03009C7.96834 7.03427 7.97022 7.03844 7.9721 7.04262C8.08964 7.30319 8.38245 7.42178 8.6628 7.366L14.3911 6.22632C14.7901 6.14696 15.0389 5.74248 14.8895 5.36416C14.6039 4.64115 14.2091 3.96458 13.7175 3.3586C13.067 2.55674 12.2607 1.89514 11.3472 1.4138C10.4337 0.932457 9.43219 0.641378 8.403 0.558164C7.62511 0.495265 6.84367 0.552113 6.0857 0.725419C5.68935 0.816042 5.49635 1.24966 5.65612 1.62354L7.96653 7.03009Z" fill="url(#paint1_linear_40_1457)"/>
<path fill-rule="evenodd" clip-rule="evenodd" d="M8.17971 8.95997C7.70195 8.54291 7.32183 8.0241 7.06822 7.44032L5.06045 2.74017C4.86066 2.76872 4.66202 2.80554 4.46503 2.85059C4.08557 2.93735 3.90079 3.35249 4.05375 3.71043L6.26569 8.88655L6.27102 8.89855C6.38355 9.14801 6.66389 9.26155 6.93229 9.20815L8.17971 8.95997Z" fill="#7FD1AE"/>
<path d="M10.1366 7.91176C9.49597 8.04266 9.30941 8.86825 9.83155 9.26184L13.24 11.8317C13.5938 12.0985 14.1031 12.0077 14.3026 11.612C14.8922 10.4434 15.1984 9.14816 15.1912 7.83152C15.1909 7.79166 15.1902 7.75172 15.1893 7.71187C15.179 7.26868 14.7582 6.96756 14.3239 7.0563L10.1366 7.91176Z" fill="url(#paint2_linear_40_1457)"/>
<defs>
<linearGradient id="paint0_linear_40_1457" x1="2.21959" y1="13.6416" x2="13.9671" y2="11.147" gradientUnits="userSpaceOnUse">
<stop stop-color="#62E8AF"/>
<stop offset="1" stop-color="#B3FBDC"/>
</linearGradient>
<linearGradient id="paint1_linear_40_1457" x1="6.76664" y1="6.52393" x2="15.137" y2="3.89068" gradientUnits="userSpaceOnUse">
<stop stop-color="#62E8AF"/>
<stop offset="1" stop-color="#B3FBDC"/>
</linearGradient>
<linearGradient id="paint2_linear_40_1457" x1="10.2514" y1="11.3846" x2="15.4632" y2="9.9755" gradientUnits="userSpaceOnUse">
<stop stop-color="#62E8AF"/>
<stop offset="1" stop-color="#B3FBDC"/>
</linearGradient>
</defs>
</svg>
