<svg width="16" height="16" viewBox="0 0 16 16" fill="none" xmlns="http://www.w3.org/2000/svg">
<g clip-path="url(#clip0_85_8)">
<path d="M16.0001 12.1945V5.03444C16.0001 4.32233 15.6518 3.63938 15.0321 3.13584C14.4124 2.63231 13.5718 2.34943 12.6954 2.34943C12.5493 2.34943 12.4092 2.39658 12.306 2.48049C12.2026 2.56441 12.1447 2.67824 12.1447 2.79693V14.432C12.1447 14.5507 12.2026 14.6645 12.306 14.7484C12.4092 14.8324 12.5493 14.8795 12.6954 14.8795C13.5718 14.8795 14.4124 14.5967 15.0321 14.0931C15.6518 13.5895 16.0001 12.9066 16.0001 12.1945Z" fill="url(#paint0_linear_85_8)"/>
<path d="M0 12.1945V5.03444C0 4.32233 0.348165 3.63938 0.967908 3.13584C1.58764 2.63231 2.42819 2.34943 3.30463 2.34943C3.4507 2.34943 3.5908 2.39658 3.69408 2.48049C3.79738 2.56441 3.8554 2.67824 3.8554 2.79693V14.432C3.8554 14.5507 3.79738 14.6645 3.69408 14.7484C3.5908 14.8324 3.4507 14.8795 3.30463 14.8795C2.42819 14.8795 1.58764 14.5967 0.967908 14.0931C0.348165 13.5895 0 12.9066 0 12.1945Z" fill="url(#paint1_linear_85_8)"/>
<path fill-rule="evenodd" clip-rule="evenodd" d="M2.2906 14.7533C2.18181 14.1519 2.18181 13.3465 2.18181 12.2278V5.86636C2.18181 4.02671 2.18181 3.0342 2.66562 2.40338C2.87459 2.36991 3.08852 2.35271 3.30463 2.35271C3.4507 2.35271 3.5908 2.39986 3.69408 2.48378C3.79738 2.5677 3.8554 2.68152 3.8554 2.80021V14.4353C3.8554 14.554 3.79738 14.6678 3.69408 14.7517C3.5908 14.8356 3.4507 14.8828 3.30463 14.8828C2.95714 14.8828 2.61529 14.8383 2.2906 14.7533Z" fill="#8C4FD9"/>
<path d="M7.56614 15.8433C5.56653 15.8433 4.56779 15.8433 3.94649 15.222C3.3252 14.6007 3.3252 13.602 3.3252 11.6023V5.24095C3.3252 3.24134 3.3252 2.2426 3.94649 1.6213C4.56779 1 5.56653 1 7.56614 1H8.62635C10.626 1 11.6247 1 12.246 1.6213C12.8673 2.2426 12.8673 3.24134 12.8673 5.24095V11.6023C12.8673 13.602 12.8673 14.6007 12.246 15.222C11.6247 15.8433 10.626 15.8433 8.62635 15.8433H7.56614Z" fill="url(#paint2_linear_85_8)"/>
</g>
<defs>
<linearGradient id="paint0_linear_85_8" x1="13.1085" y1="13.9845" x2="18.4449" y2="12.0689" gradientUnits="userSpaceOnUse">
<stop stop-color="#A056FF"/>
<stop offset="1" stop-color="#C59AFD"/>
</linearGradient>
<linearGradient id="paint1_linear_85_8" x1="0.96385" y1="13.9845" x2="6.30025" y2="12.0689" gradientUnits="userSpaceOnUse">
<stop stop-color="#A056FF"/>
<stop offset="1" stop-color="#C59AFD"/>
</linearGradient>
<linearGradient id="paint2_linear_85_8" x1="5.71072" y1="14.783" x2="15.2528" y2="7.62648" gradientUnits="userSpaceOnUse">
<stop stop-color="#A056FF"/>
<stop offset="1" stop-color="#C59AFD"/>
</linearGradient>
<clipPath id="clip0_85_8">
<rect width="16" height="16" fill="white"/>
</clipPath>
</defs>
</svg>
