<svg width="16" height="16" viewBox="0 0 16 16" fill="none" xmlns="http://www.w3.org/2000/svg">
<path fill-rule="evenodd" clip-rule="evenodd" d="M1.875 12.375C1.392 12.375 1 11.983 1 11.5V4.493C1 2.56362 2.56362 1 4.493 1C6.56237 1 9.43762 1 11.507 1C12.4336 1 13.3218 1.36838 13.9771 2.02288C14.6316 2.67825 15 3.56637 15 4.493C15 6.56237 15 9.43762 15 11.507C15 13.4364 13.4364 15 11.507 15C8.65712 15 4.5 15 4.5 15C4.017 15 3.625 14.608 3.625 14.125C3.625 13.159 2.841 12.375 1.875 12.375ZM1.875 13.25C2.358 13.25 2.75 13.642 2.75 14.125C2.75 14.608 2.358 15 1.875 15C1.392 15 1 14.608 1 14.125C1 13.642 1.392 13.25 1.875 13.25Z" fill="url(#paint0_linear_8_255)"/>
<path d="M13.1037 12.8552C13.1037 13.082 13.0136 13.2995 12.8532 13.4598C12.6928 13.6202 12.4753 13.7103 12.2485 13.7103H8.85515C8.62838 13.7103 8.41085 13.6202 8.25046 13.4598C8.09008 13.2995 8 13.082 8 12.8552C8 12.6284 8.09008 12.4108 8.25046 12.2505C8.41085 12.0902 8.62838 12 8.85515 12H12.2485C12.4753 12 12.6928 12.0902 12.8532 12.2505C13.0136 12.4108 13.1037 12.6284 13.1037 12.8552Z" fill="#279FD7"/>
<path d="M14.1037 11.8552C14.1037 12.082 14.0136 12.2995 13.8532 12.4598C13.6928 12.6202 13.4753 12.7103 13.2485 12.7103H9.85515C9.62838 12.7103 9.41085 12.6202 9.25046 12.4598C9.09008 12.2995 9 12.082 9 11.8552C9 11.6284 9.09008 11.4108 9.25046 11.2505C9.41085 11.0902 9.62838 11 9.85515 11H13.2485C13.4753 11 13.6928 11.0902 13.8532 11.2505C14.0136 11.4108 14.1037 11.6284 14.1037 11.8552Z" fill="url(#paint1_linear_8_255)"/>
<path fill-rule="evenodd" clip-rule="evenodd" d="M6.45851 3.15014C6.54923 3.04671 6.65032 2.99698 6.78887 3.00014C6.83498 3.00121 6.88577 3.00852 6.94125 3.02125L6.94051 3.02201C7.01422 3.039 7.09681 3.06656 7.19125 3.10405C7.47455 3.21637 7.51769 3.32386 7.48737 3.85088C7.46099 4.3098 7.54678 4.49437 7.87544 4.68525C8.15552 4.84774 8.38333 4.84258 8.80912 4.66338C8.96346 4.59843 9.13514 4.55669 9.19171 4.57199C9.31437 4.60498 9.67533 5.17494 9.6738 5.33288C9.67323 5.40364 9.55761 5.54031 9.35285 5.71568C8.95312 6.0577 8.86805 6.22688 8.92155 6.56879C8.9859 6.97997 9.10672 7.12484 9.54885 7.32187C10.0136 7.52894 10.0618 7.61602 9.94828 8.03669C9.83437 8.45787 9.72675 8.51974 9.18237 8.48433C8.82194 8.46088 8.70706 8.47741 8.55666 8.57652C8.16439 8.83536 8.049 9.27926 8.2598 9.72179C8.48146 10.1868 8.43683 10.3298 7.98885 10.564C7.691 10.7196 7.55565 10.7077 7.38578 10.5132C7.15378 10.2477 7.0951 10.1868 6.94445 10.0601C6.76249 9.90718 6.54257 9.88423 6.22649 9.98507C5.915 10.0845 5.86596 10.1345 5.72878 10.4866C5.57876 10.8717 5.38523 11.0305 5.1124 10.9952C5.00779 10.9817 4.87819 10.9464 4.82413 10.917C4.77 10.8882 4.67914 10.8406 4.62259 10.8115C4.49823 10.7479 4.46323 10.5628 4.50619 10.2016C4.52388 10.0525 4.52419 9.8585 4.50619 9.77023C4.46792 9.58284 4.14569 9.28198 3.91948 9.22103C3.76946 9.18059 3.27108 9.26189 2.96173 9.37726C2.85619 9.41667 2.78766 9.4093 2.7055 9.34914C2.56209 9.24415 2.33636 8.84755 2.32975 8.68901C2.32459 8.56528 2.49004 8.34175 2.66175 8.24059C2.81933 8.14777 3.01408 7.90269 3.0547 7.7453C3.11086 7.52856 3.0303 7.11499 2.9047 6.97189C2.84524 6.90412 2.65745 6.78978 2.48676 6.71644C2.31609 6.64307 2.12865 6.52884 2.07116 6.4633C1.97708 6.35612 1.97707 6.30663 2.06648 5.97113C2.18129 5.54025 2.32023 5.41117 2.59223 5.48444C2.87825 5.56149 3.23625 5.5362 3.40703 5.42663C3.61539 5.29294 3.82282 4.92256 3.81952 4.68837C3.81819 4.59364 3.76095 4.37913 3.69373 4.21182C3.53106 3.80707 3.57484 3.67429 3.93512 3.46888C4.31434 3.25273 4.44691 3.24848 4.6015 3.44622C4.94112 3.88062 5.04007 3.96936 5.2499 4.02589C5.67752 4.14111 6.16184 3.89147 6.26544 3.50325C6.29381 3.39744 6.38083 3.23866 6.45851 3.15014ZM7.60003 6.99999C7.60003 7.88366 6.8838 8.59998 6.00009 8.59998C5.11645 8.59998 4.40009 7.88366 4.40009 6.99999C4.40009 6.11635 5.11645 5.40001 6.00009 5.40001C6.8838 5.40001 7.60003 6.11635 7.60003 6.99999Z" fill="#279FD7"/>
<path fill-rule="evenodd" clip-rule="evenodd" d="M7.45851 2.15014C7.54923 2.04671 7.65032 1.99698 7.78887 2.00014C7.83498 2.00121 7.88577 2.00852 7.94125 2.02125L7.94051 2.02201C8.01422 2.039 8.09681 2.06656 8.19125 2.10405C8.47455 2.21637 8.51769 2.32386 8.48737 2.85088C8.46099 3.3098 8.54678 3.49437 8.87544 3.68525C9.15552 3.84774 9.38333 3.84258 9.80912 3.66338C9.96346 3.59843 10.1351 3.55669 10.1917 3.57199C10.3144 3.60498 10.6753 4.17494 10.6738 4.33288C10.6732 4.40364 10.5576 4.54031 10.3528 4.71568C9.95312 5.0577 9.86805 5.22688 9.92155 5.56879C9.9859 5.97997 10.1067 6.12484 10.5488 6.32187C11.0136 6.52894 11.0618 6.61602 10.9483 7.03669C10.8344 7.45787 10.7268 7.51974 10.1824 7.48433C9.82194 7.46088 9.70706 7.47741 9.55666 7.57652C9.16439 7.83536 9.049 8.27926 9.2598 8.72179C9.48146 9.18676 9.43683 9.32977 8.98885 9.564C8.691 9.71956 8.55565 9.70773 8.38578 9.5132C8.15378 9.24768 8.0951 9.18676 7.94445 9.06006C7.76249 8.90718 7.54257 8.88423 7.22649 8.98507C6.915 9.08446 6.86596 9.1345 6.72878 9.48657C6.57876 9.8717 6.38523 10.0305 6.1124 9.99522C6.00779 9.98166 5.87819 9.9464 5.82413 9.91705C5.77 9.88821 5.67914 9.84063 5.62259 9.81152C5.49823 9.74792 5.46323 9.56276 5.50619 9.20156C5.52388 9.05251 5.52419 8.8585 5.50619 8.77023C5.46792 8.58284 5.14569 8.28198 4.91948 8.22103C4.76946 8.18059 4.27108 8.26189 3.96173 8.37726C3.85619 8.41667 3.78766 8.4093 3.7055 8.34914C3.56209 8.24415 3.33636 7.84755 3.32975 7.68901C3.32459 7.56528 3.49004 7.34175 3.66175 7.24059C3.81933 7.14777 4.01408 6.90269 4.0547 6.7453C4.11086 6.52856 4.0303 6.11499 3.9047 5.97189C3.84524 5.90412 3.65745 5.78978 3.48676 5.71644C3.31609 5.64307 3.12865 5.52884 3.07116 5.4633C2.97708 5.35612 2.97707 5.30663 3.06648 4.97113C3.18129 4.54025 3.32023 4.41117 3.59223 4.48444C3.87825 4.56149 4.23625 4.5362 4.40703 4.42663C4.61539 4.29294 4.82282 3.92256 4.81952 3.68837C4.81819 3.59364 4.76095 3.37913 4.69373 3.21182C4.53106 2.80707 4.57484 2.67429 4.93512 2.46888C5.31434 2.25273 5.44691 2.24848 5.6015 2.44622C5.94112 2.88062 6.04007 2.96936 6.2499 3.02589C6.67752 3.14111 7.16184 2.89147 7.26544 2.50325C7.29381 2.39744 7.38083 2.23866 7.45851 2.15014ZM8.60003 5.99999C8.60003 6.88366 7.8838 7.59998 7.00009 7.59998C6.11645 7.59998 5.40009 6.88366 5.40009 5.99999C5.40009 5.11635 6.11645 4.40001 7.00009 4.40001C7.8838 4.40001 8.60003 5.11635 8.60003 5.99999Z" fill="url(#paint2_linear_8_255)"/>
<defs>
<linearGradient id="paint0_linear_8_255" x1="2.4" y1="15.0044" x2="7.45636" y2="-0.166609" gradientUnits="userSpaceOnUse">
<stop stop-color="#22B4FA"/>
<stop offset="1" stop-color="#6BD6FE"/>
</linearGradient>
<linearGradient id="paint1_linear_8_255" x1="9" y1="12.7103" x2="13.0986" y2="9.65269" gradientUnits="userSpaceOnUse">
<stop stop-color="#6BD6FE"/>
<stop offset="1" stop-color="white"/>
</linearGradient>
<linearGradient id="paint2_linear_8_255" x1="3" y1="10" x2="12.4118" y2="7.64704" gradientUnits="userSpaceOnUse">
<stop stop-color="#6BD6FE"/>
<stop offset="1" stop-color="white"/>
</linearGradient>
</defs>
</svg>
