<svg width="16" height="16" viewBox="0 0 16 16" fill="none" xmlns="http://www.w3.org/2000/svg">
<path opacity="0.35" d="M15.1704 2C15.6299 2 16 2.47372 16 2.93334V12.2663C16 12.7259 15.6299 13.1996 15.1704 13.1996H11.7459L9.58234 12.4535L6.94615 12.1748L4.77633 12.3368L4.55136 12.0803C4.09573 12.0203 3.77872 11.9562 3.76846 11.4968L3.60522 4.19255C3.59495 3.73306 4.34157 2.14891 4.77636 2H8.06145H15.1704Z" fill="url(#paint0_linear_70_1557)"/>
<path d="M1.89646 2C1.43688 2 1.06667 2.47372 1.06667 2.93334V4.73334C1.06667 5.28562 1.53811 5.71314 2.03062 5.96303C2.7245 6.31508 3.20002 7.03535 3.20002 7.86667C3.20002 8.698 2.72451 9.41827 2.03063 9.77032C1.53812 10.0202 1.06668 10.4477 1.06668 11L1.06667 12.2663C1.06667 12.7259 1.43688 13.1996 1.89646 13.1996H4.20576C4.34721 13.1996 4.48286 13.2558 4.58288 13.3559L5.91624 14.6892C6.1245 14.8974 6.46215 14.8974 6.67047 14.6892L8.0038 13.3559C8.10379 13.2558 8.23947 13.1996 8.38091 13.1996H11.8156C11.8918 13.1996 11.9674 13.1754 12.026 13.1267C14.2841 11.163 14.9708 7.66933 12.877 5.32737C12.055 4.40799 10.8414 3.85831 9.64165 3.84644C8.75131 3.83765 7.49537 4.12542 6.78482 4.77832C5.67501 5.79835 5.34589 7.62629 6.44578 8.78132C6.83239 9.18734 7.60748 9.43641 8.35873 9.45438C9.38603 9.39764 10.0556 8.73833 10.1485 7.89578C10.1519 6.64384 9.14443 6.61013 8.68966 6.99152C8.5104 7.18592 8.46267 7.52272 8.68016 7.70901C8.79558 7.80751 8.99312 7.83253 9.09653 7.7017C9.14725 7.63759 9.1615 7.52848 9.08635 7.47568C9.05254 7.45232 8.99771 7.44778 8.97334 7.48661C8.96646 7.50165 8.96422 7.5264 8.98277 7.53621C8.9896 7.5401 9.0032 7.54037 9.0032 7.53253C9.0032 7.53092 9.00202 7.52957 9.00088 7.52826C8.99956 7.52673 8.99828 7.52526 8.99894 7.52352C8.99931 7.5225 9.00107 7.52165 9.00224 7.52122L9.00416 7.52048C9.00694 7.51957 9.01003 7.52005 9.0128 7.52143C9.02032 7.52517 9.02171 7.53546 9.01958 7.54357C9.01579 7.55759 9.0016 7.5689 8.9879 7.57189C8.94203 7.58234 8.90944 7.53871 8.89968 7.49898C8.88454 7.40933 8.97003 7.34181 9.05206 7.332C9.21776 7.31269 9.34005 7.47008 9.35173 7.62149C9.3737 7.90682 9.10112 8.11162 8.83771 8.12314C8.37126 8.14372 7.8606 7.6985 7.85084 7.26565C7.8383 6.53877 8.29046 5.75633 9.21584 5.73302C10.936 5.71201 11.3597 7.09824 11.3333 8.12607C11.2933 9.71982 10.3486 11.26 7.94417 11.333C5.68018 11.2384 3.74548 8.81972 3.86665 6.67541C3.93437 5.47377 4.61621 4.4291 5.55363 3.60876C6.00914 3.21011 5.71602 2 5.1107 2H1.89646Z" fill="url(#paint1_linear_70_1557)"/>
<path d="M1.06667 8.93334C1.65577 8.93334 2.13334 8.45578 2.13334 7.86667C2.13334 7.27757 1.65577 6.80001 1.06667 6.80001C0.477564 6.80001 0 7.27757 0 7.86667C0 8.45578 0.477564 8.93334 1.06667 8.93334Z" fill="url(#paint2_linear_70_1557)"/>
<path fill-rule="evenodd" clip-rule="evenodd" d="M12.0261 13.1267C11.9677 13.1752 11.8924 13.1995 11.8165 13.1996H15.1705C15.63 13.1996 16 12.7259 16 12.2663V2.93334C16 2.47372 15.63 2 15.1705 2H8.06154H5.11078C5.7161 2 6.00922 3.21011 5.5537 3.60876C4.61629 4.4291 3.93445 5.47377 3.86673 6.67541C3.74556 8.81972 5.68026 11.2384 7.94425 11.333C10.3487 11.26 11.2934 9.71982 11.3333 8.12607C11.3597 7.09824 10.9361 5.71201 9.21592 5.73302C8.29054 5.75633 7.83838 6.53877 7.85092 7.26565C7.86068 7.6985 8.37134 8.14372 8.83779 8.12314C9.1012 8.11162 9.37379 7.90682 9.35181 7.62149C9.34013 7.47008 9.21784 7.31269 9.05213 7.332C8.97011 7.34181 8.88462 7.40933 8.89976 7.49898C8.90952 7.53871 8.94211 7.58234 8.98797 7.57189C9.00168 7.5689 9.01587 7.55759 9.01965 7.54357C9.02179 7.53546 9.0204 7.52517 9.01288 7.52143C9.01011 7.52005 9.00701 7.51957 9.00424 7.52048L9.00232 7.52122C9.00115 7.52165 8.99939 7.5225 8.99901 7.52352C8.99836 7.52526 8.99964 7.52673 9.00096 7.52826C9.0021 7.52957 9.00328 7.53092 9.00328 7.53253C9.00328 7.54037 8.98968 7.5401 8.98285 7.53621C8.9643 7.5264 8.96654 7.50165 8.97341 7.48661C8.99779 7.44778 9.05261 7.45232 9.08643 7.47568C9.16157 7.52848 9.14733 7.63759 9.09661 7.7017C8.9932 7.83253 8.79566 7.80751 8.68024 7.70901C8.46275 7.52272 8.51048 7.18592 8.68974 6.99152C9.14451 6.61013 10.152 6.64384 10.1486 7.89578C10.0557 8.73833 9.38611 9.39764 8.35881 9.45438C7.60756 9.43641 6.83247 9.18734 6.44586 8.78132C5.34597 7.62629 5.67509 5.79835 6.7849 4.77832C7.49545 4.12542 8.75139 3.83765 9.64173 3.84644C10.8415 3.85831 12.055 4.40799 12.8771 5.32737C14.9709 7.66933 14.2842 11.163 12.0261 13.1267Z" fill="url(#paint3_linear_70_1557)"/>
<path fill-rule="evenodd" clip-rule="evenodd" d="M5.66591 2.46667H4.1828C4.78812 2.46667 5.08124 3.67679 4.62573 4.07543C3.68831 4.89578 3.00647 5.94044 2.93875 7.14209C2.81758 9.28639 4.75229 11.7051 7.01627 11.7997C7.95086 11.7713 8.66491 11.5212 9.19102 11.1325C8.82842 11.2484 8.41418 11.3187 7.94417 11.333C5.68018 11.2384 3.74548 8.81972 3.86665 6.67541C3.93437 5.47377 4.61621 4.4291 5.55362 3.60876C5.82337 3.37269 5.83059 2.85206 5.66591 2.46667ZM8.20734 6.20371C7.33631 6.26908 6.91077 7.02688 6.92294 7.73233C6.9327 8.16518 7.44336 8.6104 7.90981 8.58981C8.17322 8.57829 8.44581 8.37349 8.42383 8.08816C8.4222 8.06701 8.41841 8.04574 8.41265 8.02486C8.29953 7.96868 8.19443 7.89162 8.10645 7.80167C8.03036 7.81831 7.95773 7.88245 7.97178 7.96566C7.98154 8.00539 8.01413 8.04902 8.06 8.03856C8.0737 8.03558 8.08789 8.02427 8.09168 8.01024C8.09381 8.00214 8.09242 7.99184 8.0849 7.98811C8.08213 7.98672 8.07904 7.98624 8.07626 7.98715L8.07434 7.9879C8.07317 7.98832 8.07141 7.98918 8.07104 7.99019C8.07038 7.99194 8.07166 7.99341 8.07298 7.99493C8.07413 7.99624 8.0753 7.9976 8.0753 7.9992C8.0753 8.00704 8.0617 8.00678 8.05488 8.00288C8.03632 7.99307 8.03856 7.96832 8.04544 7.95328C8.06981 7.91446 8.12464 7.91899 8.15845 7.94235C8.2336 7.99515 8.21936 8.10427 8.16864 8.16838C8.06522 8.2992 7.86768 8.27419 7.75227 8.17568C7.53477 7.98939 7.58251 7.65259 7.76176 7.45819C7.79381 7.43132 7.8286 7.4065 7.86559 7.38403C7.85678 7.34471 7.85173 7.30513 7.85084 7.26565C7.84434 6.88875 7.96278 6.49692 8.20734 6.20371ZM9.18626 7.98837C9.2088 8.09869 9.22096 8.22302 9.22058 8.36245C9.17559 8.77067 8.99521 9.13587 8.70437 9.41037C9.53486 9.2408 10.0665 8.63972 10.1485 7.89578C10.1519 6.64384 9.14443 6.61013 8.68966 6.99152C8.62035 7.06669 8.5707 7.16314 8.54845 7.26396C8.67603 7.29157 8.79826 7.34984 8.90267 7.44515C8.92073 7.38323 8.98747 7.33972 9.05205 7.332C9.21776 7.31269 9.34005 7.47008 9.35173 7.62149C9.36329 7.77151 9.29341 7.89926 9.18626 7.98837ZM8.96849 7.51307C8.96766 7.50386 8.96993 7.49405 8.97334 7.48661C8.99771 7.44778 9.05254 7.45232 9.08635 7.47568C9.16149 7.52848 9.14725 7.63759 9.09654 7.7017C9.09546 7.70306 9.09438 7.7044 9.09329 7.70572C9.06773 7.65279 9.0389 7.60497 9.00733 7.56198C9.01312 7.55701 9.01767 7.55063 9.01958 7.54357C9.02171 7.53546 9.02032 7.52517 9.0128 7.52143C9.01003 7.52005 9.00694 7.51957 9.00416 7.52048L9.00224 7.52122C9.00107 7.52165 8.99931 7.5225 8.99894 7.52352C8.99828 7.52526 8.99956 7.52673 9.00088 7.52826C9.00202 7.52957 9.0032 7.53092 9.0032 7.53253C9.0032 7.53824 8.99599 7.53965 8.98943 7.53849C8.98256 7.5298 8.97558 7.52133 8.96849 7.51307ZM7.0051 4.59933C7.58105 4.39929 8.20669 4.30811 8.71375 4.31312C9.91353 4.32499 11.1271 4.87467 11.9491 5.79405C13.9093 7.98661 13.4325 11.1887 11.5107 13.1996H11.8156C11.8918 13.1996 11.9674 13.1754 12.026 13.1267C14.2841 11.163 14.9708 7.66933 12.877 5.32737C12.055 4.40799 10.8414 3.85831 9.64165 3.84644C8.83729 3.8385 7.73453 4.07261 7.0051 4.59933Z" fill="#7FD1AE"/>
<defs>
<linearGradient id="paint0_linear_70_1557" x1="8.94136" y1="13.1996" x2="8.94136" y2="2" gradientUnits="userSpaceOnUse">
<stop stop-color="#02AA93"/>
<stop offset="1" stop-color="#67FF80"/>
</linearGradient>
<linearGradient id="paint1_linear_70_1557" x1="1.7667" y1="13.2401" x2="14.8528" y2="9.91744" gradientUnits="userSpaceOnUse">
<stop stop-color="#62E8AF"/>
<stop offset="1" stop-color="#B3FBDC"/>
</linearGradient>
<linearGradient id="paint2_linear_70_1557" x1="1.7667" y1="13.2401" x2="14.8528" y2="9.91744" gradientUnits="userSpaceOnUse">
<stop stop-color="#62E8AF"/>
<stop offset="1" stop-color="#B3FBDC"/>
</linearGradient>
<linearGradient id="paint3_linear_70_1557" x1="3.86133" y1="13.1996" x2="6.92733" y2="-0.0927056" gradientUnits="userSpaceOnUse">
<stop stop-color="#B3FBDC"/>
<stop offset="1" stop-color="white"/>
</linearGradient>
</defs>
</svg>
