<svg width="16" height="16" viewBox="0 0 16 16" fill="none" xmlns="http://www.w3.org/2000/svg">
<g clip-path="url(#clip0_67_1398)">
<path fill-rule="evenodd" clip-rule="evenodd" d="M4.46311 11.5338C3.0489 10.1196 1.75701 11.181 1.69337 11.2022C1.17082 11.3796 0.602306 11.0996 0.424821 10.5771C-0.523408 7.7833 0.115816 4.56738 2.34179 2.34141C5.46367 -0.780469 10.5336 -0.780469 13.6555 2.34141C16.7774 5.46328 16.7774 10.5332 13.6555 13.6551C11.4295 15.8811 8.2136 16.5203 5.41982 15.5721C4.89727 15.3946 4.61726 14.8261 4.79474 14.3035C4.81595 14.2399 5.87732 12.948 4.46311 11.5338ZM3.756 13.6551C3.36568 14.0454 2.73211 14.0454 2.34179 13.6551C1.95147 13.2648 1.95147 12.6312 2.34179 12.2409C2.73211 11.8506 3.36568 11.8506 3.756 12.2409C4.14632 12.6312 4.14632 13.2648 3.756 13.6551Z" fill="url(#paint0_linear_67_1398)"/>
<path opacity="0.8" fill-rule="evenodd" clip-rule="evenodd" d="M2.1137 11.1157C2.59306 10.8798 3.54649 10.6171 4.56313 11.6338C5.69916 12.7698 5.23775 13.8269 5.00127 14.2318C5.55085 14.4493 6.15835 14.5699 6.81343 14.5699C9.8212 14.5699 11.8263 12.027 11.8263 9.23414C11.8263 7.27147 11.0183 5.71859 9.69094 4.83124C8.89944 4.29649 7.91942 4 6.81449 4C5.80319 4 4.89786 4.24672 4.14445 4.69887C2.69376 5.5587 1.80005 7.16982 1.80005 9.23414C1.80005 9.88451 1.90882 10.5214 2.1137 11.1157ZM3.94788 13.6496C3.41528 13.2596 2.96819 12.7637 2.62222 12.1977C3.00788 11.9585 3.52136 12.0062 3.85603 12.3409C4.21286 12.6977 4.24348 13.2578 3.94788 13.6496ZM8.81792 9.21244C8.81792 7.20052 8.42771 4.98636 6.81393 4.98636C5.20017 4.98636 4.80626 7.17617 4.80626 9.18807C4.80626 11.0517 5.09322 13.5698 6.83351 13.5698C8.57332 13.5698 8.81792 11.0761 8.81792 9.21244Z" fill="#279FD7"/>
<path d="M10.9909 3.2312C10.1994 2.69646 9.21935 2.39996 8.11441 2.39996C7.10312 2.39996 6.19779 2.64668 5.44438 3.09883C3.99369 3.95866 3.09998 5.56978 3.09998 7.6341C3.09998 10.4264 5.105 12.9699 8.11336 12.9699C11.1211 12.9699 13.1262 10.4269 13.1262 7.6341C13.1262 5.67143 12.3182 4.11855 10.9909 3.2312ZM8.11385 3.38632C9.72763 3.38632 10.1179 5.60048 10.1179 7.6124C10.1179 9.47607 9.87325 11.9698 8.13344 11.9698C6.39315 11.9698 6.10619 9.45169 6.10619 7.58803C6.10619 5.57613 6.5001 3.38632 8.11385 3.38632Z" fill="url(#paint1_linear_67_1398)"/>
</g>
<defs>
<linearGradient id="paint0_linear_67_1398" x1="1.59969" y1="16.0019" x2="7.37727" y2="-1.33301" gradientUnits="userSpaceOnUse">
<stop offset="0.190745" stop-color="#22B4FA"/>
<stop offset="0.896724" stop-color="#7DDCFF"/>
</linearGradient>
<linearGradient id="paint1_linear_67_1398" x1="3.09998" y1="12.9699" x2="14.9655" y2="10.1561" gradientUnits="userSpaceOnUse">
<stop stop-color="#6BD6FE"/>
<stop offset="1" stop-color="white"/>
</linearGradient>
<clipPath id="clip0_67_1398">
<rect width="16" height="16" fill="white"/>
</clipPath>
</defs>
</svg>
