<svg width="16" height="16" viewBox="0 0 16 16" fill="none" xmlns="http://www.w3.org/2000/svg">
<g clip-path="url(#clip0_8_12)">
<path fill-rule="evenodd" clip-rule="evenodd" d="M3.49691 9.16936L5.86568 10.3972L7.01657 14.0649C7.14555 14.4748 7.36553 14.8468 7.6565 15.1508L7.6805 15.1758C8.32744 15.8527 9.26235 16.1367 10.1653 15.9377C11.0492 15.7427 11.7911 15.1058 12.1301 14.2299C13.4399 10.8492 14.9468 5.7157 15.8237 3.44992C16.1847 2.51901 15.9737 1.46011 15.3008 0.75618L15.2948 0.750181C14.5438 -0.0347428 13.3909 -0.223725 12.432 0.278227C9.87529 1.6151 3.72089 4.52081 3.72089 4.52081C3.22194 4.75679 3.00796 5.35273 3.24293 5.85168C3.47891 6.35064 3.32293 7.33154 3.06895 7.82149C2.81498 8.31145 3.00696 8.91539 3.49691 9.16936ZM1.70708 6.29364C2.09705 6.6836 2.09705 7.31754 1.70708 7.7075C1.31712 8.09847 0.683183 8.09847 0.293221 7.7075C-0.0977405 7.31754 -0.0977405 6.6836 0.293221 6.29364C0.683183 5.90368 1.31712 5.90368 1.70708 6.29364Z" fill="url(#paint0_linear_8_12)"/>
<path fill-rule="evenodd" clip-rule="evenodd" d="M7.84793 11.2492L9.99942 9.00006C10.3808 8.6014 10.3668 7.96827 9.96858 7.58686C9.56912 7.20525 8.93605 7.21931 8.5547 7.61797L6.40321 9.86709C6.02132 10.2663 6.03531 10.8994 6.43476 11.281C6.83297 11.6625 7.46604 11.6484 7.84793 11.2492Z" fill="#8CC860"/>
<path fill-rule="evenodd" clip-rule="evenodd" d="M7.41776 10.3918L9.56925 8.1427C9.9506 7.74404 9.93643 7.1096 9.53769 6.72875C9.13949 6.34734 8.50516 6.36121 8.12381 6.75986L5.97232 9.00899C5.59097 9.40765 5.60513 10.0421 6.00388 10.4229C6.40208 10.8044 7.03641 10.7905 7.41776 10.3918Z" fill="url(#paint1_linear_8_12)"/>
</g>
<defs>
<linearGradient id="paint0_linear_8_12" x1="1.14273" y1="16" x2="11.7138" y2="0.625594" gradientUnits="userSpaceOnUse">
<stop stop-color="#9BE862"/>
<stop offset="1" stop-color="#C8FF9F"/>
</linearGradient>
<linearGradient id="paint1_linear_8_12" x1="6.21418" y1="10.7002" x2="9.81154" y2="7.62482" gradientUnits="userSpaceOnUse">
<stop stop-color="#C8FF9F"/>
<stop offset="1" stop-color="white"/>
</linearGradient>
<clipPath id="clip0_8_12">
<rect width="16" height="16" fill="white"/>
</clipPath>
</defs>
</svg>
