<svg width="16" height="16" viewBox="0 0 16 16" fill="none" xmlns="http://www.w3.org/2000/svg">
<path fill-rule="evenodd" clip-rule="evenodd" d="M11.4288 14.3C13.9537 14.3 16 12.2776 16 9.7824C16 8.88489 15.7352 8.04851 15.2786 7.34543C14.9161 6.7873 14.0786 7.0066 13.4505 7.22665C13.2811 7.28601 13.0989 7.31828 12.9093 7.31828C12.0055 7.31828 11.2729 6.58565 11.2729 5.6819C11.2729 5.35177 11.3706 5.04446 11.5388 4.78737C11.8858 4.25678 12.2611 3.5469 11.8443 3.06919C11.0059 2.10833 9.765 1.5 8.3808 1.5C5.85601 1.5 3.80961 3.5224 3.80961 6.0176C3.80961 6.3361 3.8429 6.6466 3.90625 6.94634C3.9667 7.23238 3.72116 7.52328 3.4288 7.52321C1.5352 7.52401 0 9.0408 0 10.912C0 12.7832 1.5352 14.3 3.4288 14.3H11.4288ZM13.4547 6.22736C14.0572 6.22736 14.5456 5.73894 14.5456 5.13644C14.5456 4.53394 14.0572 4.04552 13.4547 4.04552C12.8522 4.04552 12.3638 4.53394 12.3638 5.13644C12.3638 5.73894 12.8522 6.22736 13.4547 6.22736Z" fill="url(#paint0_linear_17_2291)"/>
<path fill-rule="evenodd" clip-rule="evenodd" d="M7.97591 6.18065C7.98718 6.1555 7.99842 6.13039 8.00898 6.10513C8.42015 6.22022 8.80476 6.42089 9.14067 6.68352C9.56267 7.0219 9.87941 7.47439 10.0869 7.97113L10.0737 7.97408C10.1106 7.98687 10.1273 8.02227 10.1243 8.07981C10.265 8.58639 10.3151 9.12444 10.1951 9.64086C10.1494 9.84793 10.0825 10.0501 9.99845 10.2444C9.93453 10.385 9.86019 10.5207 9.77854 10.6515C9.68115 10.8025 9.57102 10.9447 9.44954 11.077C9.39741 11.1331 9.34232 11.1872 9.28676 11.2398C9.1515 11.3637 9.00393 11.4739 8.849 11.5718C8.67982 11.677 8.49979 11.7655 8.31338 11.8363C7.96369 11.9682 7.59041 12.0385 7.21663 12.0272C6.87383 12.0164 6.53594 11.9544 6.19954 11.8914C6.19954 11.9733 6.19941 12.055 6.19929 12.1366L6.19929 12.1373C6.19917 12.2188 6.19905 12.3004 6.19905 12.3818C6.19647 12.4753 6.19803 12.5692 6.19957 12.6632C6.20303 12.8735 6.20649 13.084 6.16365 13.2907C6.07934 13.2558 6.00918 13.1992 5.93907 13.1425C5.86195 13.0803 5.78487 13.018 5.68904 12.9848C5.68667 12.7429 5.68686 12.5009 5.68705 12.2589C5.68714 12.1491 5.68723 12.0393 5.68707 11.9295C5.68624 11.9062 5.68554 11.8827 5.68486 11.8595C5.68315 11.8009 5.68144 11.7422 5.67722 11.6839C5.63971 11.5884 5.55971 11.5243 5.48174 11.4619C5.46975 11.4522 5.4578 11.4427 5.44606 11.433C5.32305 11.3353 5.20173 11.2348 5.0806 11.1344C5.04144 11.1019 5.0023 11.0695 4.96312 11.0372C4.93028 11.0109 4.89738 10.9848 4.86457 10.9587L4.86409 10.9583C4.81847 10.9221 4.77286 10.8858 4.72748 10.8493L4.72737 10.9998C4.72726 11.1002 4.72716 11.201 4.72748 11.3013C4.72798 11.5007 4.72751 11.7007 4.72702 11.9003L4.72702 11.9038C4.69798 11.8884 4.66717 11.8733 4.63567 11.8578C4.4415 11.7625 4.22064 11.654 4.22191 11.4095L4.21746 11.3716C4.21279 11.1953 4.21433 11.0191 4.21586 10.8429C4.21756 10.6478 4.21926 10.4527 4.21255 10.2576L4.22525 10.2819C4.22103 10.2736 4.21686 10.2654 4.21255 10.2576L4.20913 10.0984C4.20135 9.74423 4.19358 9.39013 4.20812 9.0364C4.21943 8.85393 4.2381 8.67196 4.26662 8.49097C4.27473 8.45549 4.28162 8.41953 4.28851 8.38353C4.30714 8.28627 4.32585 8.18857 4.36893 8.09847L4.40087 8.0852L4.38711 8.05425C4.42186 7.86166 4.51945 7.68515 4.61464 7.51299C4.62859 7.48774 4.6425 7.46259 4.65615 7.4375C4.7491 7.29142 4.8524 7.15221 4.96356 7.01893C4.99577 6.98598 5.02786 6.953 5.05995 6.92005C5.09204 6.88709 5.12413 6.85414 5.15635 6.82119C5.2488 6.73759 5.34473 6.65742 5.44309 6.5807C5.6044 6.46316 5.77604 6.36085 5.95556 6.2733C6.23787 6.14297 6.5394 6.05887 6.84729 6.01657C7.23631 5.97969 7.63127 6.00234 8.00898 6.10513C7.99842 6.13039 7.98718 6.1555 7.97591 6.18065Z" fill="#45C5C2"/>
<path d="M4.22191 11.4095L4.21746 11.3716C4.21284 11.5952 4.21364 11.8191 4.21444 12.0429C4.21467 12.105 4.21489 12.1672 4.21499 12.2294C4.22372 12.3562 4.22024 12.4872 4.21671 12.6191C4.20748 12.9627 4.19812 13.3112 4.40538 13.6005C4.71031 14.0059 5.32411 14.1308 5.75003 13.8445C5.75002 13.8445 5.75004 13.8445 5.75003 13.8445C5.94477 13.7117 6.09235 13.5154 6.16365 13.2907C6.07934 13.2558 6.00918 13.1992 5.93907 13.1425C5.86195 13.0803 5.78487 13.018 5.68904 12.9848C5.69052 13.1776 5.58619 13.3546 5.41897 13.4486C5.41897 13.4486 5.41897 13.4486 5.41897 13.4486C5.23996 13.5135 5.03884 13.4874 4.88638 13.3723C4.71277 13.1999 4.72025 12.9632 4.72754 12.7325C4.73015 12.6502 4.73272 12.5686 4.72703 12.491L4.72699 12.4883C4.72748 12.2935 4.728 12.0986 4.72702 11.9038C4.69798 11.8884 4.66717 11.8733 4.63567 11.8578C4.4415 11.7625 4.22064 11.654 4.22191 11.4095Z" fill="#45C5C2"/>
<path fill-rule="evenodd" clip-rule="evenodd" d="M8.97591 5.18065C8.98718 5.1555 8.99842 5.13039 9.00898 5.10513C9.42015 5.22022 9.80476 5.42089 10.1407 5.68352C10.5627 6.0219 10.8794 6.47439 11.0869 6.97113L11.0737 6.97408C11.1106 6.98687 11.1273 7.02227 11.1243 7.07981C11.265 7.58639 11.3151 8.12444 11.1951 8.64086C11.1494 8.84793 11.0825 9.05008 10.9985 9.24436C10.9345 9.38501 10.8602 9.52072 10.7785 9.65154C10.6811 9.80253 10.571 9.9447 10.4495 10.077C10.3974 10.1331 10.3423 10.1872 10.2868 10.2398C10.1515 10.3637 10.0039 10.4739 9.849 10.5718C9.67982 10.677 9.49979 10.7655 9.31338 10.8363C8.96369 10.9682 8.59041 11.0385 8.21663 11.0272C7.87383 11.0164 7.53594 10.9544 7.19954 10.8914C7.19954 10.9733 7.19941 11.055 7.19929 11.1366L7.19929 11.1373C7.19917 11.2188 7.19905 11.3004 7.19905 11.3818C7.19647 11.4753 7.19803 11.5692 7.19957 11.6632C7.20303 11.8735 7.20649 12.084 7.16365 12.2907C7.07934 12.2558 7.00918 12.1992 6.93907 12.1425C6.86195 12.0803 6.78487 12.018 6.68904 11.9848C6.68667 11.7429 6.68686 11.5009 6.68705 11.2589C6.68714 11.1491 6.68723 11.0393 6.68707 10.9295C6.68624 10.9062 6.68554 10.8827 6.68486 10.8595C6.68315 10.8009 6.68144 10.7422 6.67722 10.6839C6.63971 10.5884 6.55971 10.5243 6.48174 10.4619C6.46975 10.4522 6.4578 10.4427 6.44606 10.433C6.32305 10.3353 6.20173 10.2348 6.0806 10.1344C6.04144 10.1019 6.0023 10.0695 5.96312 10.0372C5.93028 10.0109 5.89738 9.98477 5.86457 9.95869L5.86409 9.95831C5.81847 9.92206 5.77286 9.88581 5.72748 9.84927L5.72737 9.99985C5.72726 10.1002 5.72716 10.201 5.72748 10.3013C5.72798 10.5007 5.72751 10.7007 5.72702 10.9003L5.72702 10.9038C5.69798 10.8884 5.66717 10.8733 5.63567 10.8578C5.4415 10.7625 5.22064 10.654 5.22191 10.4095L5.21746 10.3716C5.21279 10.1953 5.21433 10.0191 5.21586 9.84286C5.21756 9.64777 5.21926 9.45268 5.21255 9.2576L5.22525 9.28195C5.22103 9.27364 5.21686 9.26543 5.21255 9.2576L5.20913 9.09838C5.20135 8.74423 5.19358 8.39013 5.20812 8.0364C5.21943 7.85393 5.2381 7.67196 5.26662 7.49097C5.27473 7.45549 5.28162 7.41953 5.28851 7.38353C5.30714 7.28627 5.32585 7.18857 5.36893 7.09847L5.40087 7.0852L5.38711 7.05425C5.42186 6.86166 5.51945 6.68515 5.61464 6.51299C5.62859 6.48774 5.6425 6.46259 5.65615 6.4375C5.7491 6.29142 5.8524 6.15221 5.96356 6.01893C5.99577 5.98598 6.02786 5.953 6.05995 5.92005C6.09204 5.88709 6.12413 5.85414 6.15635 5.82119C6.2488 5.73759 6.34473 5.65742 6.44309 5.5807C6.6044 5.46316 6.77604 5.36085 6.95556 5.2733C7.23787 5.14297 7.5394 5.05887 7.84729 5.01657C8.23631 4.97969 8.63127 5.00234 9.00898 5.10513C8.99842 5.13039 8.98718 5.1555 8.97591 5.18065Z" fill="url(#paint1_linear_17_2291)"/>
<path d="M5.22191 10.4095L5.21746 10.3716C5.21284 10.5952 5.21364 10.8191 5.21444 11.0429C5.21467 11.105 5.21489 11.1672 5.21499 11.2294C5.22372 11.3562 5.22024 11.4872 5.21671 11.6191C5.20748 11.9627 5.19812 12.3112 5.40538 12.6005C5.71031 13.0059 6.32411 13.1308 6.75003 12.8445C6.75002 12.8445 6.75004 12.8445 6.75003 12.8445C6.94477 12.7117 7.09235 12.5154 7.16365 12.2907C7.07934 12.2558 7.00918 12.1992 6.93907 12.1425C6.86195 12.0803 6.78487 12.018 6.68904 11.9848C6.69052 12.1776 6.58619 12.3546 6.41897 12.4486C6.41897 12.4486 6.41897 12.4486 6.41897 12.4486C6.23996 12.5135 6.03884 12.4874 5.88638 12.3723C5.71277 12.1999 5.72025 11.9632 5.72754 11.7325C5.73015 11.6502 5.73272 11.5686 5.72703 11.491L5.72699 11.4883C5.72748 11.2935 5.728 11.0986 5.72702 10.9038C5.69798 10.8884 5.66717 10.8733 5.63567 10.8578C5.4415 10.7625 5.22064 10.654 5.22191 10.4095Z" fill="url(#paint2_linear_17_2291)"/>
<defs>
<linearGradient id="paint0_linear_17_2291" x1="3" y1="12.7" x2="11.4249" y2="1.21159" gradientUnits="userSpaceOnUse">
<stop stop-color="#00DAD4"/>
<stop offset="1" stop-color="#C4FFFD"/>
</linearGradient>
<linearGradient id="paint1_linear_17_2291" x1="6.41252" y1="11.8573" x2="9.77942" y2="7.09434" gradientUnits="userSpaceOnUse">
<stop stop-color="#7EEFEC"/>
<stop offset="1" stop-color="white"/>
</linearGradient>
<linearGradient id="paint2_linear_17_2291" x1="6.41252" y1="11.8573" x2="9.77942" y2="7.09434" gradientUnits="userSpaceOnUse">
<stop stop-color="#7EEFEC"/>
<stop offset="1" stop-color="white"/>
</linearGradient>
</defs>
</svg>
