<svg width="16" height="16" viewBox="0 0 16 16" fill="none" xmlns="http://www.w3.org/2000/svg">
<path fill-rule="evenodd" clip-rule="evenodd" d="M2.86894 2H13.6827C14.9625 2 16 3.03746 16 4.31724V11.269C16 12.5487 14.9625 13.5862 13.6827 13.5862H2.86894V13.5862C2.645 13.5862 2.5478 13.3222 2.63344 13.1153C2.71411 12.9204 2.75862 12.7068 2.75862 12.4828C2.75862 11.5687 2.01758 10.8276 1.10345 10.8276V10.8276C0.828952 10.8276 0.551697 10.6338 0.551697 10.3593V4.31724C0.551697 3.03746 1.58916 2 2.86894 2Z" fill="url(#paint0_linear_249_159)"/>
<path d="M14.431 12.2655C14.431 12.7987 13.9987 13.231 13.4655 13.231C12.9323 13.231 12.5 12.7987 12.5 12.2655C12.5 11.7323 12.9323 11.3 13.4655 11.3C13.9987 11.3 14.431 11.7323 14.431 12.2655Z" fill="#279FD7"/>
<path d="M0.965517 13.5311C1.49876 13.5311 1.93103 13.0987 1.93103 12.5656C1.93103 12.0324 1.49876 11.6 0.965517 11.6C0.432276 11.6 0 12.0324 0 12.5656C0 13.0987 0.432276 13.5311 0.965517 13.5311Z" fill="url(#paint1_linear_249_159)"/>
<path d="M5.46708 2H10.2821V4.25001C10.2821 4.53845 10.4225 4.80528 10.632 5.00354C11.405 5.73493 11.8871 6.7704 11.8871 7.9185C11.8871 10.1345 10.0906 11.931 7.8746 11.931C5.65853 11.931 3.86206 10.1345 3.86206 7.9185C3.86206 6.7704 4.34424 5.73493 5.11714 5.00354C5.32665 4.80528 5.46708 4.53845 5.46708 4.25001V2Z" fill="#279FD7"/>
<path d="M6.01883 2H10.8339V3.14656C10.8339 3.435 10.9743 3.70183 11.1838 3.90009C11.9568 4.63148 12.4389 5.66696 12.4389 6.81505C12.4389 9.03107 10.6424 10.8276 8.42636 10.8276C6.21029 10.8276 4.41382 9.03107 4.41382 6.81505C4.41382 5.66696 4.896 4.63148 5.66889 3.90009C5.87841 3.70183 6.01883 3.435 6.01883 3.14656V2Z" fill="url(#paint2_linear_249_159)"/>
<path d="M15.0345 11.6552C15.0345 12.1883 14.6022 12.6207 14.069 12.6207C13.5358 12.6207 13.1035 12.1883 13.1035 11.6552C13.1035 11.122 13.5358 10.6896 14.069 10.6896C14.6022 10.6896 15.0345 11.122 15.0345 11.6552Z" fill="url(#paint3_linear_249_159)"/>
<defs>
<linearGradient id="paint0_linear_249_159" x1="2.09652" y1="13.5898" x2="5.37851" y2="0.460241" gradientUnits="userSpaceOnUse">
<stop offset="0.190745" stop-color="#22B4FA"/>
<stop offset="0.896724" stop-color="#7DDCFF"/>
</linearGradient>
<linearGradient id="paint1_linear_249_159" x1="0.193104" y1="13.5317" x2="0.890533" y2="11.4391" gradientUnits="userSpaceOnUse">
<stop offset="0.190745" stop-color="#22B4FA"/>
<stop offset="0.896724" stop-color="#7DDCFF"/>
</linearGradient>
<linearGradient id="paint2_linear_249_159" x1="4.41382" y1="10.8276" x2="13.9525" y2="8.65971" gradientUnits="userSpaceOnUse">
<stop stop-color="#6BD6FE"/>
<stop offset="1" stop-color="white"/>
</linearGradient>
<linearGradient id="paint3_linear_249_159" x1="13.1035" y1="12.6207" x2="15.3753" y2="12.0527" gradientUnits="userSpaceOnUse">
<stop stop-color="#6BD6FE"/>
<stop offset="1" stop-color="white"/>
</linearGradient>
</defs>
</svg>
