<svg width="16" height="16" viewBox="0 0 16 16" fill="none" xmlns="http://www.w3.org/2000/svg">
<g clip-path="url(#clip0_15_1400)">
<path fill-rule="evenodd" clip-rule="evenodd" d="M12.9824 15C12.9824 15.552 12.5344 16 11.9824 16H3.97442C1.76942 16 -0.0175781 14.213 -0.0175781 12.008C-0.0175781 9.643 -0.0175781 6.357 -0.0175781 3.992C-0.0175781 2.933 0.403422 1.918 1.15142 1.169C1.90042 0.421 2.91542 0 3.97442 0C6.33942 0 9.62542 0 11.9904 0C14.1954 0 15.9824 1.787 15.9824 3.992C15.9824 7.249 15.9824 12 15.9824 12C15.9824 12.552 15.5344 13 14.9824 13C13.8784 13 12.9824 13.896 12.9824 15ZM13.9824 15C13.9824 14.448 14.4304 14 14.9824 14C15.5344 14 15.9824 14.448 15.9824 15C15.9824 15.552 15.5344 16 14.9824 16C14.4304 16 13.9824 15.552 13.9824 15Z" fill="url(#paint0_linear_15_1400)"/>
<path fill-rule="evenodd" clip-rule="evenodd" d="M8.16667 12H2.83333C2.37333 12 2 12.3733 2 12.8333C2 13.2933 2.37333 13.6667 2.83333 13.6667H8.16667C8.62667 13.6667 9 13.2933 9 12.8333C9 12.3733 8.62667 12 8.16667 12Z" fill="#8C4FD9"/>
<path d="M5.12195 6.02051V5.9902C5.12195 5.43921 4.75444 5.16371 4.14228 5.16371H4.06624C3.60126 5.16371 3.22432 5.54065 3.22432 6.00563V6.00563C3.22432 6.47061 3.60126 6.84756 4.06624 6.84756H4.17314C4.78529 6.84701 5.12195 6.47949 5.12195 6.02051ZM2 5.09202C2 4.53973 2.44772 4.09202 3 4.09202H4.23485C5.55118 4.09202 6.34682 4.85735 6.34682 5.9902V6.02051C6.34682 7.30599 5.36715 7.949 4.11197 7.949H4.01996C3.5635 7.949 3.19346 8.31904 3.19346 8.7755V9.00526C3.19346 9.33483 2.9263 9.602 2.59673 9.602V9.602C2.26717 9.602 2 9.33483 2 9.00526V5.09202ZM10.9994 8.01016C10.9994 9.11216 10.173 9.72432 8.97894 9.72432C8.32491 9.6999 7.67089 9.50331 7.09276 9.13401C6.83517 8.96946 6.80737 8.6174 7.00137 8.3812V8.3812C7.19802 8.14177 7.54748 8.11288 7.81324 8.27213C8.1734 8.48793 8.56162 8.62177 9.0098 8.62177C9.49963 8.62177 9.80544 8.43829 9.80544 8.10163V8.07077C9.80544 7.76497 9.62195 7.61179 8.70344 7.36715C7.60145 7.09165 6.86696 6.78585 6.86696 5.68385V5.65299C6.86696 4.64301 7.66261 4 8.79546 4C9.39109 4 9.93576 4.1371 10.4031 4.39883C10.6692 4.54783 10.7124 4.8962 10.5375 5.14602V5.14602C10.3527 5.40994 9.99273 5.4687 9.70449 5.32482C9.38402 5.16486 9.06812 5.07169 8.76515 5.07169C8.30617 5.07169 8.06098 5.28603 8.06098 5.56153V5.59238C8.06098 5.9599 8.30617 6.08222 9.25499 6.32686C10.357 6.63322 11 7.03104 11 7.97986L10.9994 8.01016Z" fill="#8C4FD9"/>
<path d="M6.12195 5.02051V4.9902C6.12195 4.43921 5.75444 4.16371 5.14228 4.16371H4.62432C4.4034 4.16371 4.22432 4.34279 4.22432 4.56371V5.44756C4.22432 5.66847 4.4034 5.84756 4.62432 5.84756H5.17314C5.78529 5.84701 6.12195 5.47949 6.12195 5.02051ZM3 3.49202C3 3.2711 3.17909 3.09202 3.4 3.09202H5.23485C6.55118 3.09202 7.34682 3.85735 7.34682 4.9902V5.02051C7.34682 6.30599 6.36715 6.949 5.11197 6.949H4.59346C4.37255 6.949 4.19346 7.12809 4.19346 7.349V8.202C4.19346 8.42291 4.01438 8.602 3.79346 8.602H3.4C3.17909 8.602 3 8.42291 3 8.202V3.49202ZM11.9994 7.01016C11.9994 8.11216 11.173 8.72432 9.97894 8.72432C9.27444 8.69802 8.56994 8.47194 7.9603 8.04542C7.78249 7.92101 7.76249 7.67204 7.90023 7.50434L8.10446 7.25569C8.24407 7.0857 8.49311 7.06308 8.67606 7.1852C9.07486 7.45142 9.50417 7.62177 10.0098 7.62177C10.4996 7.62177 10.8054 7.43829 10.8054 7.10163V7.07077C10.8054 6.76497 10.622 6.61179 9.70344 6.36715C8.60145 6.09165 7.86696 5.78585 7.86696 4.68385V4.65299C7.86696 3.64301 8.66261 3 9.79546 3C10.4548 3 11.0517 3.16801 11.5505 3.48709C11.7255 3.59911 11.7552 3.83505 11.636 4.00532L11.4312 4.29782C11.3053 4.47769 11.0591 4.51994 10.868 4.4119C10.4916 4.19916 10.1195 4.07169 9.76515 4.07169C9.30617 4.07169 9.06098 4.28603 9.06098 4.56153V4.59238C9.06098 4.9599 9.30617 5.08222 10.255 5.32686C11.357 5.63322 12 6.03104 12 6.97986L11.9994 7.01016Z" fill="url(#paint1_linear_15_1400)"/>
<path fill-rule="evenodd" clip-rule="evenodd" d="M9.16667 11H3.83333C3.37333 11 3 11.3733 3 11.8333C3 12.2933 3.37333 12.6667 3.83333 12.6667H9.16667C9.62667 12.6667 10 12.2933 10 11.8333C10 11.3733 9.62667 11 9.16667 11Z" fill="url(#paint2_linear_15_1400)"/>
</g>
<defs>
<linearGradient id="paint0_linear_15_1400" x1="3.98242" y1="14.8571" x2="14.5707" y2="2.5042" gradientUnits="userSpaceOnUse">
<stop stop-color="#A056FF"/>
<stop offset="1" stop-color="#C59AFD"/>
</linearGradient>
<linearGradient id="paint1_linear_15_1400" x1="5.25" y1="8.72432" x2="12.8991" y2="4.71558" gradientUnits="userSpaceOnUse">
<stop stop-color="#C59AFD"/>
<stop offset="1" stop-color="white"/>
</linearGradient>
<linearGradient id="paint2_linear_15_1400" x1="4.75" y1="12.6667" x2="7.31194" y2="9.07995" gradientUnits="userSpaceOnUse">
<stop stop-color="#C59AFD"/>
<stop offset="1" stop-color="white"/>
</linearGradient>
<clipPath id="clip0_15_1400">
<rect width="16" height="16" fill="white"/>
</clipPath>
</defs>
</svg>
