<svg width="16" height="16" viewBox="0 0 16 16" fill="none" xmlns="http://www.w3.org/2000/svg">
<g clip-path="url(#clip0_68_1521)">
<path fill-rule="evenodd" clip-rule="evenodd" d="M8.44553 7.68653C8.39893 7.64588 8.34521 7.61423 8.28706 7.59318L8.12126 7.53315C8.06358 7.51225 8.00278 7.50195 7.94148 7.50405C6.11106 7.5665 3.95981 8.41065 2.63451 9.48743C1.97319 10.0247 1.39777 10.7171 1.30834 11.5052C1.20791 12.3904 1.73385 13.117 2.65833 13.622L2.65896 13.6223C3.18398 13.9084 3.66833 14.0652 4.11128 14.0995C4.30601 14.1146 4.48688 14.216 4.60366 14.3725C4.86416 14.7217 5.25271 15.0375 5.76568 15.3183L5.76603 15.3185C6.64458 15.7988 7.49861 15.7988 8.18603 15.2958C8.81148 14.8381 9.17306 14.0501 9.35851 13.2358C9.72623 11.6214 9.50576 9.44568 8.62966 7.8831C8.60291 7.8354 8.56778 7.79315 8.52656 7.75723L8.44553 7.68653Z" fill="url(#paint0_linear_68_1521)"/>
<path opacity="0.5" fill-rule="evenodd" clip-rule="evenodd" d="M7.54026 9.57389C7.51891 9.69939 7.45051 9.81201 7.34896 9.88881L7.26641 9.95126C7.24404 9.96819 7.22049 9.98314 7.19554 9.99591C5.56086 10.8312 3.26826 11.0432 1.57238 10.6993C1.82025 10.2418 2.20967 9.83261 2.63455 9.4874C3.79828 8.5419 5.59885 7.77576 7.25985 7.56073C7.43982 8.1669 7.54955 8.77944 7.56744 9.35916C7.56841 9.39094 7.56601 9.42254 7.56069 9.45389L7.54026 9.57389Z" fill="url(#paint1_linear_68_1521)"/>
<path fill-rule="evenodd" clip-rule="evenodd" d="M8.34196 8.61955C8.44351 8.54275 8.51191 8.43013 8.53326 8.30463L8.55368 8.18463C8.55901 8.15328 8.56141 8.12168 8.56043 8.0899C8.50591 6.32253 7.59771 4.25005 6.44831 2.98345C5.87293 2.34941 5.15118 1.82248 4.35428 1.74154C3.48021 1.65275 2.72248 2.11325 2.17465 3.01105L2.17425 3.0117C1.88216 3.4917 1.71237 3.94393 1.66515 4.36415C1.64285 4.56268 1.53427 4.7455 1.36888 4.85755C1.01165 5.09955 0.680598 5.4623 0.381631 5.9512L0.381403 5.95158C0.131007 6.3617 -0.0111504 6.78398 -0.00686378 7.20733C-0.00248756 7.63953 0.154285 8.01875 0.408476 8.32973C0.892153 8.92148 1.71455 9.25655 2.55831 9.4286C4.25488 9.77453 6.55158 9.56305 8.18853 8.72665C8.21348 8.71388 8.23703 8.69893 8.25941 8.682L8.34196 8.61955Z" fill="url(#paint2_linear_68_1521)"/>
<path d="M7.94202 7.8951C8.01424 11.1195 11.5138 15.4181 13.1691 12.7058C13.4313 12.2758 13.5597 11.9108 13.5921 11.6003C13.6275 11.2613 13.8491 10.8726 14.1348 10.6867C14.4119 10.5064 14.6915 10.2141 14.9637 9.7698C16.8028 6.75875 10.9324 6.34182 7.94427 7.89495" fill="url(#paint3_linear_68_1521)"/>
<path opacity="0.5" fill-rule="evenodd" clip-rule="evenodd" d="M8.81547 8.24396C8.15946 8.39208 7.53504 8.60637 7.00225 8.8833L7 8.88345C7.03836 10.5959 8.04339 12.6113 9.22547 13.7186C9.27732 13.5603 9.32143 13.3986 9.35851 13.2358C9.69869 11.7423 9.53548 9.76838 8.81547 8.24396Z" fill="url(#paint4_linear_68_1521)"/>
<path d="M7.94202 7.8951C8.01424 11.1195 11.5138 15.4181 13.1691 12.7058C13.4313 12.2758 13.5597 11.9108 13.5921 11.6003C13.6275 11.2613 13.8491 10.8726 14.1348 10.6867C14.4119 10.5064 14.6915 10.2141 14.9637 9.7698C16.8028 6.75875 10.9324 6.34182 7.94427 7.89495" fill="url(#paint5_linear_68_1521)"/>
<path d="M7.94202 7.8951C8.01424 11.1195 11.5138 15.4181 13.1691 12.7058C13.4313 12.2758 13.5597 11.9108 13.5921 11.6003C13.6275 11.2613 13.8491 10.8726 14.1348 10.6867C14.4119 10.5064 14.6915 10.2141 14.9637 9.7698C16.8028 6.75875 10.9324 6.34182 7.94427 7.89495" fill="url(#paint6_linear_68_1521)"/>
<path d="M7.94202 7.8951C8.01424 11.1195 11.5138 15.4181 13.1691 12.7058C13.4313 12.2758 13.5597 11.9108 13.5921 11.6003C13.6275 11.2613 13.8491 10.8726 14.1348 10.6867C14.4119 10.5064 14.6915 10.2141 14.9637 9.7698C16.8028 6.75875 10.9324 6.34182 7.94427 7.89495" stroke="url(#paint7_linear_68_1521)" stroke-width="1.25"/>
<path opacity="0.5" fill-rule="evenodd" clip-rule="evenodd" d="M8.53325 8.30464C8.5119 8.43014 8.4435 8.54277 8.34195 8.61957L8.2594 8.68202C8.23703 8.69894 8.21348 8.71389 8.18853 8.72667C7.70625 8.97309 7.16671 9.16526 6.60211 9.30492C5.7601 7.28956 5.7747 4.4802 6.81397 3.42389C7.78515 4.69725 8.51183 6.51476 8.56043 8.08992C8.5614 8.12169 8.559 8.15329 8.55368 8.18464L8.53325 8.30464Z" fill="url(#paint8_linear_68_1521)"/>
<path d="M8.04873 7.86535C8.16435 7.86297 8.28123 7.85702 8.3992 7.84745C11.7661 7.57402 15.9249 4.42795 13.1474 2.9128C12.6562 2.64515 12.2451 2.52463 11.9002 2.50655C11.571 2.48928 11.2068 2.27587 11.0147 2.00794C10.8241 1.74214 10.5124 1.47374 10.0355 1.21264C6.98585 -0.452502 6.44725 4.55302 7.8418 7.47092C7.90658 7.6063 7.87875 7.75248 7.95168 7.8779" fill="url(#paint9_linear_68_1521)"/>
<path d="M7.95168 7.8779C8.0673 7.87553 8.28123 7.85702 8.3992 7.84745C11.7661 7.57402 15.9249 4.42795 13.1474 2.9128C12.6562 2.64515 12.2451 2.52463 11.9002 2.50655C11.571 2.48928 11.2068 2.27587 11.0147 2.00794C10.8241 1.74214 10.5124 1.47374 10.0355 1.21264C6.98585 -0.452502 6.44725 4.55302 7.8418 7.47092C7.90658 7.6063 7.87875 7.75248 7.95168 7.8779Z" stroke="url(#paint10_linear_68_1521)" stroke-width="1.25"/>
</g>
<defs>
<linearGradient id="paint0_linear_68_1521" x1="2.11942" y1="15.6785" x2="5.0535" y2="6.80979" gradientUnits="userSpaceOnUse">
<stop offset="0.190745" stop-color="#22B4FA"/>
<stop offset="0.896724" stop-color="#7DDCFF"/>
</linearGradient>
<linearGradient id="paint1_linear_68_1521" x1="4.57714" y1="10.8564" x2="5.45026" y2="7.85993" gradientUnits="userSpaceOnUse">
<stop stop-color="#4D4D4D"/>
<stop offset="1" stop-color="#979797"/>
</linearGradient>
<linearGradient id="paint2_linear_68_1521" x1="1.06399" y1="8.60575" x2="9.00519" y2="6.60747" gradientUnits="userSpaceOnUse">
<stop stop-color="#62E8AF"/>
<stop offset="1" stop-color="#B3FBDC"/>
</linearGradient>
<linearGradient id="paint3_linear_68_1521" x1="7.94092" y1="10.1907" x2="15.3118" y2="10.1907" gradientUnits="userSpaceOnUse">
<stop stop-color="#FD3A84"/>
<stop offset="1" stop-color="#FFA68D"/>
</linearGradient>
<linearGradient id="paint4_linear_68_1521" x1="8.26746" y1="13.7177" x2="10.9418" y2="11.3867" gradientUnits="userSpaceOnUse">
<stop stop-color="#4D4D4D"/>
<stop offset="1" stop-color="#979797"/>
</linearGradient>
<linearGradient id="paint5_linear_68_1521" x1="7.94092" y1="10.1907" x2="15.3118" y2="10.1907" gradientUnits="userSpaceOnUse">
<stop stop-color="#FD3A84"/>
<stop offset="1" stop-color="#FFA68D"/>
</linearGradient>
<linearGradient id="paint6_linear_68_1521" x1="9.32414" y1="12.745" x2="13.307" y2="7.36829" gradientUnits="userSpaceOnUse">
<stop stop-color="#FF405B"/>
<stop offset="1" stop-color="#FF8860"/>
</linearGradient>
<linearGradient id="paint7_linear_68_1521" x1="9.32414" y1="12.745" x2="13.307" y2="7.36829" gradientUnits="userSpaceOnUse">
<stop stop-color="#FF405B"/>
<stop offset="1" stop-color="#FF8860"/>
</linearGradient>
<linearGradient id="paint8_linear_68_1521" x1="7.28336" y1="9.304" x2="10.1283" y2="6.96675" gradientUnits="userSpaceOnUse">
<stop stop-color="#4D4D4D"/>
<stop offset="1" stop-color="#979797"/>
</linearGradient>
<linearGradient id="paint9_linear_68_1521" x1="8.41455" y1="7.4401" x2="12.7928" y2="2.22482" gradientUnits="userSpaceOnUse">
<stop stop-color="#FF8860"/>
<stop offset="1" stop-color="#FBD92C"/>
</linearGradient>
<linearGradient id="paint10_linear_68_1521" x1="8.41455" y1="7.4401" x2="12.7928" y2="2.22482" gradientUnits="userSpaceOnUse">
<stop stop-color="#FF8860"/>
<stop offset="1" stop-color="#FBD92C"/>
</linearGradient>
<clipPath id="clip0_68_1521">
<rect width="16" height="16" fill="white"/>
</clipPath>
</defs>
</svg>
