<svg width="16" height="16" viewBox="0 0 16 16" fill="none" xmlns="http://www.w3.org/2000/svg">
<path fill-rule="evenodd" clip-rule="evenodd" d="M11.4411 11.6259C9.99037 13.0026 11.0176 14.3218 11.0372 14.386C11.2009 14.913 10.9061 15.474 10.3791 15.6378C7.56153 16.5127 4.36341 15.7896 2.19637 13.5062C-0.842847 10.3038 -0.710343 5.23559 2.49206 2.19637C5.69446 -0.842847 10.7627 -0.710343 13.8019 2.49206C15.9689 4.77545 16.5239 8.00698 15.503 10.775C15.3119 11.2928 14.7363 11.5578 14.2185 11.3667C14.1555 11.3439 12.8918 10.2491 11.4411 11.6259ZM13.5432 12.3882C13.9232 12.7886 13.9066 13.4219 13.5062 13.8019C13.1058 14.1819 12.4725 14.1653 12.0925 13.7649C11.7125 13.3646 11.7291 12.7312 12.1294 12.3512C12.5298 11.9712 13.1632 11.9878 13.5432 12.3882Z" fill="url(#paint0_linear_243_206)"/>
<path fill-rule="evenodd" clip-rule="evenodd" d="M2.96341 4.56351C4.09256 3.43439 5.62399 2.80005 7.22083 2.80005C8.81767 2.80005 10.3491 3.43439 11.4782 4.56351C12.429 5.51426 13.0289 6.75019 13.1947 8.07025C13.2466 8.48266 12.9047 8.82092 12.4891 8.82092C12.0734 8.82092 11.7429 8.48166 11.6739 8.07177C11.5192 7.15204 11.082 6.29603 10.4139 5.62787C9.56703 4.78102 8.41846 4.30527 7.22083 4.30527C6.0232 4.30527 4.87462 4.78102 4.02777 5.62787C3.18092 6.47472 2.70517 7.62329 2.70517 8.82092C2.70517 10.0186 3.18092 11.1671 4.02777 12.014C4.69593 12.6821 5.55194 13.1193 6.47167 13.274C6.88156 13.343 7.22083 13.6735 7.22083 14.0892C7.22083 14.5048 6.88256 14.8467 6.47015 14.7948C5.15009 14.629 3.91416 14.0291 2.96341 13.0783C1.83429 11.9492 1.19995 10.4178 1.19995 8.82092C1.19995 7.22408 1.83429 5.69266 2.96341 4.56351ZM5.09098 6.69338C5.65482 6.12891 6.41971 5.81135 7.21755 5.81049H7.22083C7.61616 5.81049 8.00762 5.88837 8.37288 6.03965C8.73811 6.19093 9.06999 6.41268 9.34952 6.69223C9.62907 6.97176 9.85082 7.30364 10.0021 7.66887C10.0892 7.87915 10.152 8.0981 10.1895 8.3215C10.2355 8.59477 10.0066 8.82092 9.72952 8.82092C9.45242 8.82092 9.23397 8.59286 9.16538 8.32438C9.07698 7.97818 8.89691 7.65874 8.63997 7.40178C8.26359 7.02542 7.7531 6.81396 7.22083 6.81396C6.68855 6.81396 6.17806 7.02542 5.80168 7.40178C5.42532 7.77816 5.21386 8.28865 5.21386 8.82092C5.21386 9.3532 5.42532 9.86369 5.80168 10.2401C6.05864 10.497 6.37809 10.6771 6.72429 10.7655C6.99277 10.8341 7.22083 11.0525 7.22083 11.3296C7.22083 11.6067 6.99465 11.8356 6.72138 11.7897C6.10825 11.6865 5.53757 11.3951 5.09213 10.9496C4.52756 10.3851 4.21039 9.61934 4.21039 8.82092C4.21039 8.02308 4.52711 7.25785 5.09098 6.69338Z" fill="#D84F4F" stroke="#D84F4F" stroke-width="0.4"/>
<path fill-rule="evenodd" clip-rule="evenodd" d="M3.86344 3.76346C4.99259 2.63434 6.52401 2 8.12085 2C9.71769 2 11.2491 2.63434 12.3783 3.76346C13.329 4.71421 13.9289 5.95014 14.0948 7.2702C14.1466 7.68261 13.8048 8.02087 13.3891 8.02087C12.9735 8.02087 12.6429 7.68161 12.5739 7.27172C12.4192 6.35199 11.9821 5.49598 11.3139 4.82782C10.4671 3.98097 9.31848 3.50522 8.12085 3.50522C6.92322 3.50522 5.77465 3.98097 4.9278 4.82782C4.08095 5.67467 3.60519 6.82324 3.60519 8.02087C3.60519 9.21851 4.08095 10.3671 4.9278 11.2139C5.59596 11.8821 6.45197 12.3193 7.3717 12.474C7.78159 12.5429 8.12085 12.8735 8.12085 13.2891C8.12085 13.7048 7.78258 14.0466 7.37018 13.9948C6.05011 13.829 4.81419 13.229 3.86344 12.2783C2.73431 11.1491 2.09998 9.61772 2.09998 8.02087C2.09998 6.42403 2.73431 4.89261 3.86344 3.76346ZM5.991 5.89333C6.55485 5.32886 7.31973 5.0113 8.11758 5.01044H8.12085C8.51619 5.01044 8.90765 5.08832 9.27291 5.2396C9.63814 5.39088 9.97002 5.61263 10.2495 5.89218C10.5291 6.17171 10.7508 6.50359 10.9021 6.86882C10.9892 7.07911 11.052 7.29806 11.0896 7.52146C11.1356 7.79473 10.9067 8.02087 10.6295 8.02087C10.3524 8.02087 10.134 7.79281 10.0654 7.52434C9.97701 7.17814 9.79693 6.85869 9.54 6.60173C9.16361 6.22537 8.65312 6.01391 8.12085 6.01391C7.58858 6.01391 7.07809 6.22537 6.7017 6.60173C6.32535 6.97811 6.11388 7.4886 6.11388 8.02087C6.11388 8.55315 6.32535 9.06364 6.7017 9.44002C6.95866 9.69696 7.27811 9.87703 7.62431 9.96543C7.89279 10.034 8.12085 10.2525 8.12085 10.5296C8.12085 10.8067 7.89467 11.0356 7.62141 10.9896C7.00827 10.8864 6.4376 10.595 5.99216 10.1496C5.42758 9.58502 5.11041 8.8193 5.11041 8.02087C5.11041 7.22303 5.42714 6.4578 5.991 5.89333Z" fill="url(#paint1_linear_243_206)" stroke="url(#paint2_linear_243_206)" stroke-width="0.4"/>
<defs>
<linearGradient id="paint0_linear_243_206" x1="3.00028" y1="13.9982" x2="12.9984" y2="2.00048" gradientUnits="userSpaceOnUse">
<stop stop-color="#FF405B"/>
<stop offset="1" stop-color="#FF8860"/>
</linearGradient>
<linearGradient id="paint1_linear_243_206" x1="5.52721" y1="13.9997" x2="9.44391" y2="4.67453" gradientUnits="userSpaceOnUse">
<stop stop-color="#FF8860"/>
<stop offset="1" stop-color="white"/>
</linearGradient>
<linearGradient id="paint2_linear_243_206" x1="5.52721" y1="13.9997" x2="9.44391" y2="4.67453" gradientUnits="userSpaceOnUse">
<stop stop-color="#FF8860"/>
<stop offset="1" stop-color="white"/>
</linearGradient>
</defs>
</svg>
