<svg width="16" height="16" viewBox="0 0 16 16" fill="none" xmlns="http://www.w3.org/2000/svg">
<path fill-rule="evenodd" clip-rule="evenodd" d="M2.25219 0.586786C2.48362 0.523925 2.72364 0.50202 2.9627 0.50202C5.07906 0.502654 7.19583 0.502442 9.31247 0.502231L12.4871 0.50202C12.5669 0.502524 12.6472 0.501811 12.7276 0.501098C13.103 0.497766 13.4824 0.494399 13.8424 0.614407C14.592 0.845849 15.2015 1.47255 15.4101 2.2288C15.502 2.52146 15.5009 2.82872 15.4998 3.13277V3.13289C15.4996 3.185 15.4994 3.23702 15.4997 3.28885C15.4992 4.08176 15.4992 4.8749 15.4992 5.66805C15.4992 6.46119 15.4992 7.25434 15.4987 8.04725C15.4997 9.62447 14.9758 11.1941 14.0367 12.4599C12.9214 13.9838 11.207 15.0553 9.34786 15.3848C8.25134 15.5902 7.11001 15.5379 6.03389 15.2462C5.3814 15.0693 5.24645 14.2196 5.29485 13.5453C5.2983 13.4973 5.30005 13.4489 5.30005 13.4C5.30005 12.2954 4.40462 11.4 3.30005 11.4C3.15806 11.4 3.01954 11.4148 2.88592 11.4429C2.22502 11.5821 1.36565 11.5641 1.09871 10.9437C0.733676 10.0953 0.524644 9.18082 0.506361 8.25203C0.496502 6.54539 0.500139 4.83875 0.503777 3.13211L0.504456 2.81169C0.509219 1.78972 1.2645 0.838228 2.25219 0.586786ZM3.3 14.7C3.85228 14.7 4.3 14.2522 4.3 13.7C4.3 13.1477 3.85228 12.7 3.3 12.7C2.74772 12.7 2.3 13.1477 2.3 13.7C2.3 14.2522 2.74772 14.7 3.3 14.7Z" fill="url(#paint0_linear_249_2)"/>
<path d="M3.81118 6.96928C4.13569 6.86428 4.50434 6.96807 4.73459 7.21624C5.55659 8.0275 6.36547 8.85307 7.18985 9.66315C7.31631 9.80629 7.56445 9.84208 7.70165 9.69058C8.55579 8.86978 9.3742 8.00958 10.226 7.18523C10.5314 6.88815 11.0516 6.84639 11.3916 7.11007C11.814 7.41427 11.8843 8.10861 11.4882 8.46296C10.4408 9.52115 9.38017 10.5675 8.33149 11.6257C7.97478 12.1327 7.17911 12.2377 6.74366 11.776C5.63055 10.6593 4.50434 9.55456 3.40436 8.42597C2.96534 7.97618 3.20157 7.12557 3.81118 6.96928Z" fill="#D84F4F" stroke="#D84F4F" stroke-width="0.3"/>
<path d="M4.34683 5.89787C4.67134 5.79287 5.03999 5.89666 5.27024 6.14483C6.09224 6.95609 6.90111 7.78165 7.7255 8.59173C7.85195 8.73488 8.1001 8.77066 8.23729 8.61916C9.09144 7.79837 9.90985 6.93817 10.7617 6.11382C11.0671 5.81673 11.5872 5.77498 11.9273 6.03865C12.3496 6.34286 12.42 7.0372 12.0239 7.39155C10.9764 8.44974 9.91582 9.49605 8.86713 10.5542C8.51043 11.0613 7.71476 11.1663 7.2793 10.7046C6.16619 9.5879 5.03999 8.48315 3.94001 7.35456C3.50099 6.90477 3.73721 6.05416 4.34683 5.89787Z" fill="url(#paint1_linear_249_2)" stroke="url(#paint2_linear_249_2)" stroke-width="0.3"/>
<defs>
<linearGradient id="paint0_linear_249_2" x1="3.3125" y1="13.6327" x2="12.694" y2="2.3815" gradientUnits="userSpaceOnUse">
<stop stop-color="#FF405B"/>
<stop offset="1" stop-color="#FF8860"/>
</linearGradient>
<linearGradient id="paint1_linear_249_2" x1="6.16225" y1="10.9988" x2="7.27589" y2="6.57887" gradientUnits="userSpaceOnUse">
<stop stop-color="#FF8860"/>
<stop offset="1" stop-color="white"/>
</linearGradient>
<linearGradient id="paint2_linear_249_2" x1="6.16225" y1="10.9988" x2="7.27589" y2="6.57887" gradientUnits="userSpaceOnUse">
<stop stop-color="#FF8860"/>
<stop offset="1" stop-color="white"/>
</linearGradient>
</defs>
</svg>
