<svg width="16" height="16" viewBox="0 0 16 16" fill="none" xmlns="http://www.w3.org/2000/svg">
<g clip-path="url(#clip0_14_1058)">
<path fill-rule="evenodd" clip-rule="evenodd" d="M13.2515 8.72313L5.47537 1.01158C5.14706 0.683981 4.7022 0.5 4.2384 0.5C3.77461 0.5 3.32975 0.683981 3.00144 1.01158L2.84984 1.16317C2.51305 1.49446 2.32103 1.94556 2.31573 2.41796C2.31443 2.64859 2.35909 2.87718 2.4471 3.09037C2.53511 3.30356 2.66471 3.49708 2.82833 3.65963L3.94045 4.77148C4.09679 4.92779 4.09669 5.18127 3.94024 5.33745L2.57246 6.7028C2.36067 6.91422 2.44959 7.28953 2.67489 7.4865C3.01318 7.78225 3.22687 8.21699 3.22687 8.70163C3.22687 9.23871 2.96444 9.7145 2.56083 10.0078C2.27877 10.2127 2.11995 10.7031 2.37146 10.9446L5.80646 14.2424C6.0829 14.5074 6.45132 14.6548 6.83423 14.6537C7.21714 14.6526 7.58469 14.503 7.85956 14.2364L12.0313 10.1934C12.1067 10.1184 12.2032 10.0681 12.3079 10.0492C12.4405 10.028 12.5747 10.0183 12.7089 10.0203H12.719C12.8694 10.0205 13.0165 9.97598 13.1415 9.89232C13.2665 9.80866 13.3638 9.68967 13.4209 9.55052C13.478 9.41137 13.4924 9.25837 13.4622 9.11101C13.4321 8.96365 13.3587 8.82862 13.2515 8.72313ZM4.70207 4.01076L3.58866 2.89762C3.52595 2.83516 3.4762 2.76093 3.44225 2.67919C3.4083 2.59746 3.39082 2.50982 3.39082 2.42132C3.39082 2.33281 3.4083 2.24518 3.44225 2.16344C3.4762 2.0817 3.52595 2.00748 3.58866 1.94502L3.7621 1.77191C3.82475 1.70923 3.89914 1.65951 3.98101 1.62559C4.06287 1.59166 4.15063 1.5742 4.23924 1.5742C4.32786 1.5742 4.41561 1.59166 4.49748 1.62559C4.57935 1.65951 4.65374 1.70923 4.71638 1.77191L5.8324 2.87936C5.98975 3.0355 5.99011 3.28984 5.8332 3.44642L5.26743 4.01102C5.11118 4.16694 4.85817 4.16682 4.70207 4.01076ZM1.07562 9.71003C1.66967 9.71003 2.15125 9.22845 2.15125 8.6344C2.15125 8.04035 1.66967 7.55878 1.07562 7.55878C0.481573 7.55878 0 8.04035 0 8.6344C0 9.22845 0.481573 9.71003 1.07562 9.71003Z" fill="url(#paint0_linear_14_1058)"/>
<path d="M5.03283 5.0569C5.19564 5.05589 5.35226 5.1196 5.46812 5.23403L10.6765 10.3782C10.7924 10.4926 10.858 10.6485 10.859 10.8113C10.86 10.9741 10.7963 11.1307 10.6819 11.2466C10.5674 11.3625 10.4117 11.4281 10.2488 11.4291C10.086 11.4301 9.92937 11.3664 9.81351 11.252L4.60511 6.10782C4.48925 5.99339 4.42359 5.83757 4.42258 5.67476C4.42157 5.51185 4.48529 5.35533 4.59972 5.23947C4.7142 5.12356 4.86991 5.05791 5.03283 5.0569Z" fill="#D49F34" stroke="#D49F34" stroke-width="0.6"/>
<path d="M5.03283 3.98121C5.19564 3.9802 5.35226 4.04392 5.46812 4.15835L10.6765 9.30253C10.7924 9.41696 10.858 9.57278 10.859 9.73559C10.86 9.89846 10.7963 10.055 10.6819 10.1709C10.5674 10.2868 10.4117 10.3524 10.2488 10.3535C10.086 10.3545 9.92937 10.2907 9.81351 10.1763L4.60511 5.03213C4.48925 4.9177 4.42359 4.76189 4.42258 4.59908C4.42157 4.43616 4.48529 4.27964 4.59972 4.16379C4.7142 4.04788 4.86991 3.98222 5.03283 3.98121Z" fill="url(#paint1_linear_14_1058)" stroke="url(#paint2_linear_14_1058)" stroke-width="0.6"/>
<path d="M11.6975 13.3779C11.6975 14.5802 12.6625 15.5587 13.8488 15.5587C15.035 15.5587 16 14.5802 16 13.3789C16 12.2515 15.0309 11.1688 14.5099 10.5873C14.4518 10.5225 14.4014 10.4656 14.3634 10.4216C14.3005 10.3466 14.2219 10.2864 14.1332 10.245C14.0445 10.2036 13.9478 10.1822 13.8499 10.1822C13.7521 10.1822 13.6554 10.2036 13.5667 10.245C13.478 10.2864 13.3994 10.3466 13.3365 10.4216C13.2965 10.4687 13.242 10.5295 13.1792 10.6001C12.6612 11.1796 11.6975 12.2589 11.6975 13.3779Z" fill="url(#paint3_linear_14_1058)"/>
</g>
<defs>
<linearGradient id="paint0_linear_14_1058" x1="2.52707" y1="13.768" x2="11.4404" y2="3.58215" gradientUnits="userSpaceOnUse">
<stop stop-color="#FF8860"/>
<stop offset="1" stop-color="#FBD92C"/>
</linearGradient>
<linearGradient id="paint1_linear_14_1058" x1="5.90453" y1="5.88399" x2="6.87308" y2="5.14935" gradientUnits="userSpaceOnUse">
<stop stop-color="#FBD92C"/>
<stop offset="1" stop-color="white"/>
</linearGradient>
<linearGradient id="paint2_linear_14_1058" x1="5.90453" y1="5.88399" x2="6.87308" y2="5.14935" gradientUnits="userSpaceOnUse">
<stop stop-color="#FBD92C"/>
<stop offset="1" stop-color="white"/>
</linearGradient>
<linearGradient id="paint3_linear_14_1058" x1="12.7731" y1="14.2146" x2="15.396" y2="12.1157" gradientUnits="userSpaceOnUse">
<stop stop-color="#FBD92C"/>
<stop offset="1" stop-color="white"/>
</linearGradient>
<clipPath id="clip0_14_1058">
<rect width="16" height="16" fill="white"/>
</clipPath>
</defs>
</svg>
