<svg width="16" height="16" viewBox="0 0 16 16" fill="none" xmlns="http://www.w3.org/2000/svg">
<path d="M0 9.94294C0 9.73075 0.0842858 9.52729 0.234316 9.37727C0.384343 9.22721 0.587829 9.14294 0.8 9.14294H15.2C15.4122 9.14294 15.6157 9.22721 15.7657 9.37727C15.9157 9.52729 16 9.73075 16 9.94294V12.0869C16 12.4685 15.7268 12.7993 15.392 12.9821C14.9172 13.2421 14.3024 13.7593 14.0828 14.7485C13.9864 15.1797 13.642 15.5429 13.2 15.5429H2.8C2.358 15.5429 2.0132 15.1797 1.9172 14.7485C1.6972 13.7589 1.0828 13.2417 0.608 12.9821C0.2732 12.7993 0 12.4685 0 12.0869V9.94294Z" fill="url(#paint0_linear_144_15844)"/>
<path fill-rule="evenodd" clip-rule="evenodd" d="M2.28577 12.5715C2.28577 12.1507 2.62687 11.8096 3.04767 11.8096H11.0477C11.4685 11.8096 11.8096 12.1507 11.8096 12.5715C11.8096 12.9923 11.4685 13.3334 11.0477 13.3334H3.04767C2.62687 13.3334 2.28577 12.9923 2.28577 12.5715Z" fill="#279FD7"/>
<path fill-rule="evenodd" clip-rule="evenodd" d="M3.42859 11.4286C3.42859 11.0078 3.76969 10.6667 4.19049 10.6667H12.1905C12.6113 10.6667 12.9524 11.0078 12.9524 11.4286C12.9524 11.8494 12.6113 12.1905 12.1905 12.1905H4.19049C3.76969 12.1905 3.42859 11.8494 3.42859 11.4286Z" fill="url(#paint1_linear_144_15844)"/>
<path d="M8.4 1.14294L6 3.94294H10L7.6 6.74294" fill="url(#paint2_linear_144_15844)"/>
<path fill-rule="evenodd" clip-rule="evenodd" d="M9.14381 0.275156C9.62304 0.685924 9.67854 1.40741 9.26777 1.88664L8.76787 2.46986C8.65667 2.5996 8.74885 2.80002 8.91972 2.80002H10.0001C10.4464 2.80002 10.8519 3.05984 11.0384 3.46533C11.2248 3.87081 11.1582 4.34777 10.8678 4.68664L8.46777 7.48664C8.05701 7.96587 7.33552 8.02137 6.85629 7.6106C6.37706 7.19983 6.32156 6.47835 6.73233 5.99912L7.23223 5.41589C7.34344 5.28616 7.25125 5.08574 7.08038 5.08574H6.00005C5.55373 5.08574 5.14825 4.82592 4.96175 4.42043C4.77525 4.01494 4.84187 3.53799 5.13233 3.19912L7.53233 0.399116C7.9431 -0.0801132 8.66458 -0.135612 9.14381 0.275156Z" fill="url(#paint3_linear_144_15844)"/>
<defs>
<linearGradient id="paint0_linear_144_15844" x1="1.6" y1="15.5449" x2="2.60936" y2="7.9738" gradientUnits="userSpaceOnUse">
<stop offset="0.190745" stop-color="#22B4FA"/>
<stop offset="0.896724" stop-color="#7DDCFF"/>
</linearGradient>
<linearGradient id="paint1_linear_144_15844" x1="3.42859" y1="12.1905" x2="6.88786" y2="6.78538" gradientUnits="userSpaceOnUse">
<stop stop-color="#6BD6FE"/>
<stop offset="1" stop-color="white"/>
</linearGradient>
<linearGradient id="paint2_linear_144_15844" x1="8" y1="6.74294" x2="8" y2="1.14294" gradientUnits="userSpaceOnUse">
<stop stop-color="#5570FF"/>
<stop offset="1" stop-color="#4DD3FF"/>
</linearGradient>
<linearGradient id="paint3_linear_144_15844" x1="5.48575" y1="7.88822" x2="8.86493" y2="-0.193425" gradientUnits="userSpaceOnUse">
<stop offset="0.190745" stop-color="#22B4FA"/>
<stop offset="0.896724" stop-color="#7DDCFF"/>
</linearGradient>
</defs>
</svg>
