<svg width="16" height="16" viewBox="0 0 16 16" fill="none" xmlns="http://www.w3.org/2000/svg">
<path fill-rule="evenodd" clip-rule="evenodd" d="M9.29085 10.528C8.43254 11.1396 7.38263 11.4992 6.24959 11.4992C4.5391 11.4992 3.01934 10.6802 2.06042 9.41247C1.76906 9.0275 1.84518 8.47804 2.23015 8.18669C2.2809 8.14819 3.6248 7.99945 3.6248 6.24959C3.6248 4.49973 2.2809 4.35099 2.23015 4.31249C1.84518 4.02114 1.76906 3.47168 2.06042 3.08671C3.01934 1.81894 4.5391 1 6.24959 1C9.14649 1 11.4992 3.35269 11.4992 6.24959C11.4992 7.38263 11.1396 8.43254 10.528 9.29085L11.137 9.89981C11.4668 9.57608 11.9113 9.39409 12.3741 9.39409C12.8431 9.39409 13.2928 9.58045 13.6244 9.91205L14.2298 10.5184C15.2553 11.5429 15.2553 13.2053 14.2298 14.2298L14.229 14.2316C13.2044 15.2561 11.5438 15.2561 10.5193 14.2316L9.91205 13.6244C9.58045 13.2928 9.39409 12.8431 9.39409 12.3741C9.39409 11.9113 9.57608 11.4668 9.89981 11.137L9.29085 10.528ZM1.87493 5.37466C2.35789 5.37466 2.74986 5.76663 2.74986 6.24959C2.74986 6.73255 2.35789 7.12452 1.87493 7.12452C1.39197 7.12452 1 6.73255 1 6.24959C1 5.76663 1.39197 5.37466 1.87493 5.37466Z" fill="url(#paint0_linear_7_258)"/>
<path fill-rule="evenodd" clip-rule="evenodd" d="M6.20407 5.37299L6.29506 5.37649C6.74128 5.39924 7.1 5.75796 7.12275 6.20418L7.12625 6.29517C7.149 6.75713 7.53222 7.1246 7.99943 7.1246C8.48239 7.1246 8.87436 6.73264 8.87436 6.24967C8.87436 4.80079 7.69845 3.62488 6.24957 3.62488C5.7666 3.62488 5.37463 4.01685 5.37463 4.49981C5.37463 4.96702 5.74211 5.35024 6.20407 5.37299Z" fill="#8C4FD9"/>
<path fill-rule="evenodd" clip-rule="evenodd" d="M7.07907 4.49799L7.17006 4.50149C7.61628 4.52424 7.975 4.88296 7.99775 5.32918L8.00125 5.42017C8.024 5.88213 8.40722 6.2496 8.87443 6.2496C9.35739 6.2496 9.74936 5.85764 9.74936 5.37467C9.74936 3.92579 8.57345 2.74988 7.12457 2.74988C6.6416 2.74988 6.24963 3.14185 6.24963 3.62481C6.24963 4.09202 6.61711 4.47524 7.07907 4.49799Z" fill="url(#paint1_linear_7_258)"/>
<defs>
<linearGradient id="paint0_linear_7_258" x1="4.49973" y1="14" x2="13.7645" y2="3.19189" gradientUnits="userSpaceOnUse">
<stop stop-color="#A056FF"/>
<stop offset="1" stop-color="#C59AFD"/>
</linearGradient>
<linearGradient id="paint1_linear_7_258" x1="7.12457" y1="6.2496" x2="10.5368" y2="5.11219" gradientUnits="userSpaceOnUse">
<stop stop-color="#C59AFD"/>
<stop offset="1" stop-color="white"/>
</linearGradient>
</defs>
</svg>
