<svg width="16" height="16" viewBox="0 0 16 16" fill="none" xmlns="http://www.w3.org/2000/svg">
<path fill-rule="evenodd" clip-rule="evenodd" d="M4.00452 12.0115V3.98851C4.00452 1.79743 5.77996 0.0209817 7.97005 0.0189834C9.7395 0.0169852 10.8495 0 11.9975 0C14.2006 0 15.986 1.78544 15.986 3.98851V11.9975C15.986 12.549 15.5384 12.9886 14.9869 12.9886C14.7651 12.9896 14.5443 13.0256 14.3345 13.0975C14.0567 13.1935 13.8019 13.3523 13.5911 13.5571C13.3723 13.771 13.2035 14.0347 13.1016 14.3235C13.0276 14.5323 12.9907 14.7521 12.9887 14.9739V14.9869C12.9887 15.5384 12.549 15.986 11.9975 15.986C9.63459 15.986 10.356 16 7.99303 16C5.78995 16 4.00452 14.2146 4.00452 12.0115ZM14.9869 13.9878C15.5384 13.9878 15.986 14.4354 15.986 14.9869C15.986 15.5384 15.5384 15.986 14.9869 15.986C14.4354 15.986 13.9878 15.5384 13.9878 14.9869C13.9878 14.4354 14.4354 13.9878 14.9869 13.9878Z" fill="url(#paint0_linear_235_39)"/>
<path fill-rule="evenodd" clip-rule="evenodd" d="M7.3755 8.00005H3.99646V9.9983H7.3755L7.09975 10.5508C6.85296 11.0434 7.05279 11.6449 7.54636 11.8906C8.03892 12.1374 8.6404 11.9376 8.88618 11.444L9.88531 9.44578C10.0261 9.16503 10.0261 8.83332 9.88531 8.55257L8.88618 6.55431C8.6404 6.06075 8.03892 5.86092 7.54636 6.1077C7.05279 6.35349 6.85296 6.95496 7.09975 7.44753L7.3755 8.00005Z" fill="#8CC860"/>
<path fill-rule="evenodd" clip-rule="evenodd" d="M8.37467 7.0009H0.999126C0.447608 7.0009 0 7.44851 0 8.00003C0 8.55155 0.447608 8.99916 0.999126 8.99916H8.37467L8.09891 9.55167C7.85213 10.0442 8.05195 10.6457 8.54552 10.8915C9.03809 11.1383 9.63956 10.9385 9.88535 10.4449L10.8845 8.44664C11.0254 8.16588 11.0254 7.83417 10.8845 7.55342L9.88535 5.55517C9.63956 5.0616 9.03809 4.86178 8.54552 5.10856C8.05195 5.35434 7.85213 5.95582 8.09891 6.44839L8.37467 7.0009Z" fill="url(#paint1_linear_235_39)"/>
<defs>
<linearGradient id="paint0_linear_235_39" x1="4.86034" y1="16" x2="16.1405" y2="3.71328" gradientUnits="userSpaceOnUse">
<stop stop-color="#9BE862"/>
<stop offset="1" stop-color="#C8FF9F"/>
</linearGradient>
<linearGradient id="paint1_linear_235_39" x1="0.5" y1="8" x2="8.96419" y2="3.84892" gradientUnits="userSpaceOnUse">
<stop stop-color="#C8FF9F"/>
<stop offset="1" stop-color="white"/>
</linearGradient>
</defs>
</svg>
