<svg width="16" height="16" viewBox="0 0 16 16" fill="none" xmlns="http://www.w3.org/2000/svg">
<path fill-rule="evenodd" clip-rule="evenodd" d="M1 13C0.448 13 0 12.552 0 12V3.992C0 1.787 1.787 0 3.992 0C6.357 0 9.643 0 12.008 0C13.067 0 14.082 0.421001 14.831 1.169C15.579 1.918 16 2.933 16 3.992C16 6.357 16 9.643 16 12.008C16 14.213 14.213 16 12.008 16C8.751 16 4 16 4 16C3.448 16 3 15.552 3 15C3 13.896 2.104 13 1 13ZM1 14C1.552 14 2 14.448 2 15C2 15.552 1.552 16 1 16C0.448 16 0 15.552 0 15C0 14.448 0.448 14 1 14Z" fill="url(#paint0_linear_235_19)"/>
<path d="M1.53325 4.16557C1.19182 4.50704 1 4.97015 1 5.45303C1 5.93591 1.19182 6.39901 1.53325 6.74048L2.53555 7.74341C2.54312 7.73457 2.88607 8.06108 2.89428 8.0529L5.42055 5.52661C5.42876 5.51839 5.10224 5.17545 5.11108 5.16787L4.10815 4.16557C3.76669 3.82414 3.30358 3.63232 2.8207 3.63232C2.33782 3.63232 1.87471 3.82414 1.53325 4.16557ZM2.34671 11.4046C2.36902 11.3474 2.40809 11.2982 2.4588 11.2636C2.50951 11.229 2.56949 11.2104 2.63092 11.2104C2.69233 11.2104 2.75232 11.229 2.80303 11.2636C2.85374 11.2982 2.89281 11.3474 2.91512 11.4046L3.01427 11.6573C3.02944 11.6963 3.05254 11.7318 3.0821 11.7614C3.11168 11.7911 3.14707 11.8143 3.18606 11.8297L3.43743 11.9288C3.49449 11.9515 3.54342 11.9909 3.57789 12.0417C3.61236 12.0925 3.63079 12.1525 3.63079 12.214C3.63079 12.2754 3.61236 12.3354 3.57789 12.3862C3.54342 12.4371 3.49449 12.4764 3.43743 12.4991L3.18606 12.5989C3.14715 12.6144 3.11182 12.6376 3.08227 12.6673C3.05272 12.6969 3.02958 12.7323 3.01427 12.7713L2.91512 13.024C2.89281 13.0812 2.85374 13.1303 2.80303 13.165C2.75232 13.1996 2.69233 13.2182 2.63092 13.2182C2.56949 13.2182 2.50951 13.1996 2.4588 13.165C2.40809 13.1303 2.36902 13.0812 2.34671 13.024L2.24755 12.7713C2.23225 12.7323 2.20911 12.6969 2.17956 12.6673C2.15001 12.6376 2.11468 12.6144 2.07576 12.5989L1.8244 12.4991C1.76734 12.4764 1.71841 12.4371 1.68394 12.3862C1.64947 12.3354 1.63104 12.2754 1.63104 12.214C1.63104 12.1525 1.64947 12.0925 1.68394 12.0417C1.71841 11.9909 1.76734 11.9515 1.8244 11.9288L2.07576 11.8297C2.11474 11.8142 2.15011 11.7908 2.17966 11.761C2.20922 11.7312 2.23233 11.6957 2.24755 11.6566L2.34671 11.4046Z" fill="#D49F34"/>
<path d="M11.7155 7.50337C11.7378 7.44615 11.7769 7.397 11.8276 7.36234C11.8783 7.32769 11.9383 7.30914 11.9997 7.30914C12.0611 7.30914 12.1211 7.32769 12.1718 7.36234C12.2225 7.397 12.2616 7.44615 12.2839 7.50337L12.3824 7.75537C12.414 7.83431 12.4759 7.89684 12.5548 7.92781L12.8062 8.02756C12.8631 8.05041 12.9118 8.08973 12.9461 8.14051C12.9804 8.19129 12.9988 8.25112 12.9988 8.31242C12.9988 8.37367 12.9804 8.43355 12.9461 8.48433C12.9118 8.5351 12.8631 8.57443 12.8062 8.59722L12.5548 8.69703C12.5158 8.71247 12.4804 8.7357 12.4508 8.76537C12.4211 8.79498 12.3978 8.83043 12.3824 8.86943L12.2839 9.12206C12.2616 9.17932 12.2225 9.22846 12.1718 9.2631C12.1211 9.29778 12.0611 9.31633 11.9997 9.31633C11.9383 9.31633 11.8783 9.29778 11.8276 9.2631C11.7769 9.22846 11.7378 9.17932 11.7155 9.12206L11.6163 8.86943C11.601 8.83049 11.5779 8.79509 11.5483 8.76548C11.5187 8.73581 11.4834 8.71252 11.4446 8.69703L11.1932 8.59722C11.1363 8.57443 11.0876 8.5351 11.0533 8.48433C11.0189 8.43355 11.0006 8.37367 11.0006 8.31242C11.0006 8.25112 11.0189 8.19129 11.0533 8.14051C11.0876 8.08973 11.1363 8.05041 11.1932 8.02756L11.4446 7.92781C11.4834 7.91232 11.5187 7.88903 11.5483 7.85937C11.5779 7.82972 11.601 7.79432 11.6163 7.75537L11.7155 7.50274V7.50337Z" fill="#D49F34"/>
<path opacity="0.7" d="M9.27313 3.19423C9.2955 3.137 9.33454 3.08785 9.38527 3.0532C9.43593 3.01854 9.49593 3 9.55734 3C9.6188 3 9.6788 3.01854 9.72947 3.0532C9.78019 3.08785 9.81924 3.137 9.8416 3.19423L10.1132 3.8858C10.1283 3.92492 10.1514 3.96049 10.1809 3.99027C10.2105 4.02005 10.2459 4.0434 10.285 4.05885L10.9739 4.33169C11.0311 4.35441 11.08 4.39373 11.1144 4.44457C11.1489 4.49541 11.1673 4.55542 11.1673 4.61683C11.1673 4.67826 11.1489 4.73827 11.1144 4.7891C11.08 4.83994 11.0311 4.87926 10.9739 4.90199L10.2855 5.17483C10.2466 5.19023 10.2111 5.21348 10.1814 5.24314C10.1518 5.2728 10.1285 5.30823 10.1132 5.34724L9.8416 6.03818C9.81924 6.09541 9.78019 6.14456 9.72947 6.17922C9.6788 6.21387 9.6188 6.23241 9.55734 6.23241C9.49593 6.23241 9.43593 6.21387 9.38527 6.17922C9.33454 6.14456 9.2955 6.09541 9.27313 6.03818L9.00158 5.34662C8.9862 5.3076 8.96291 5.27217 8.9333 5.24251C8.90363 5.21285 8.86818 5.1896 8.82918 5.1742L8.14073 4.90136C8.08368 4.87863 8.03476 4.83931 8.00029 4.78847C7.96582 4.73763 7.94739 4.67762 7.94739 4.61621C7.94739 4.55478 7.96582 4.49477 8.00029 4.44394C8.03476 4.3931 8.08368 4.35378 8.14073 4.33105L8.82918 4.05821C8.86823 4.04274 8.90374 4.01939 8.93335 3.98962C8.96302 3.95985 8.98626 3.92429 9.00158 3.88517L9.27313 3.19423Z" fill="#D49F34"/>
<path d="M5.77933 5.83611C5.77174 5.84496 5.42881 5.51843 5.42059 5.52664L2.89432 8.05293C2.88611 8.06111 3.21263 8.40406 3.20379 8.41164L9.25927 14.4665C9.42835 14.6356 9.62905 14.7697 9.84999 14.8613C10.0709 14.9528 10.3077 15 10.5468 15C10.7859 15 11.0228 14.9529 11.2437 14.8615C11.4646 14.77 11.6654 14.6359 11.8345 14.4668C12.0036 14.2978 12.1378 14.097 12.2293 13.8761C12.3208 13.6552 12.368 13.4184 12.368 13.1793C12.368 12.9402 12.321 12.7034 12.2295 12.4824C12.138 12.2615 12.0039 12.0607 11.8348 11.8916L5.77933 5.83611Z" fill="#D49F34"/>
<path d="M2.53325 3.16557C2.19182 3.50704 2 3.97015 2 4.45303C2 4.93591 2.19182 5.39901 2.53325 5.74048L3.53555 6.74341C3.54312 6.73457 3.88607 7.06108 3.89428 7.0529L6.42055 4.52661C6.42876 4.51839 6.10224 4.17545 6.11108 4.16787L5.10815 3.16557C4.76669 2.82414 4.30358 2.63232 3.8207 2.63232C3.33782 2.63232 2.87471 2.82414 2.53325 3.16557ZM3.34671 10.4046C3.36902 10.3474 3.40809 10.2982 3.4588 10.2636C3.50951 10.229 3.56949 10.2104 3.63092 10.2104C3.69233 10.2104 3.75232 10.229 3.80303 10.2636C3.85374 10.2982 3.89281 10.3474 3.91512 10.4046L4.01427 10.6573C4.02944 10.6963 4.05254 10.7318 4.0821 10.7614C4.11168 10.7911 4.14707 10.8143 4.18606 10.8297L4.43743 10.9288C4.49449 10.9515 4.54342 10.9909 4.57789 11.0417C4.61236 11.0925 4.63079 11.1525 4.63079 11.214C4.63079 11.2754 4.61236 11.3354 4.57789 11.3862C4.54342 11.4371 4.49449 11.4764 4.43743 11.4991L4.18606 11.5989C4.14715 11.6144 4.11182 11.6376 4.08227 11.6673C4.05272 11.6969 4.02958 11.7323 4.01427 11.7713L3.91512 12.024C3.89281 12.0812 3.85374 12.1303 3.80303 12.165C3.75232 12.1996 3.69233 12.2182 3.63092 12.2182C3.56949 12.2182 3.50951 12.1996 3.4588 12.165C3.40809 12.1303 3.36902 12.0812 3.34671 12.024L3.24755 11.7713C3.23225 11.7323 3.20911 11.6969 3.17956 11.6673C3.15001 11.6376 3.11468 11.6144 3.07576 11.5989L2.8244 11.4991C2.76734 11.4764 2.71841 11.4371 2.68394 11.3862C2.64947 11.3354 2.63104 11.2754 2.63104 11.214C2.63104 11.1525 2.64947 11.0925 2.68394 11.0417C2.71841 10.9909 2.76734 10.9515 2.8244 10.9288L3.07576 10.8297C3.11474 10.8142 3.15011 10.7908 3.17966 10.761C3.20922 10.7312 3.23233 10.6957 3.24755 10.6566L3.34671 10.4046Z" fill="url(#paint1_linear_235_19)"/>
<path d="M12.7155 6.50337C12.7378 6.44615 12.7769 6.397 12.8276 6.36234C12.8783 6.32769 12.9383 6.30914 12.9997 6.30914C13.0611 6.30914 13.1211 6.32769 13.1718 6.36234C13.2225 6.397 13.2616 6.44615 13.2839 6.50337L13.3824 6.75537C13.414 6.83431 13.4759 6.89684 13.5548 6.92781L13.8062 7.02756C13.8631 7.05041 13.9118 7.08973 13.9461 7.14051C13.9804 7.19129 13.9988 7.25112 13.9988 7.31242C13.9988 7.37367 13.9804 7.43355 13.9461 7.48433C13.9118 7.5351 13.8631 7.57443 13.8062 7.59722L13.5548 7.69703C13.5158 7.71247 13.4804 7.7357 13.4508 7.76537C13.4211 7.79498 13.3978 7.83043 13.3824 7.86943L13.2839 8.12206C13.2616 8.17932 13.2225 8.22846 13.1718 8.2631C13.1211 8.29778 13.0611 8.31633 12.9997 8.31633C12.9383 8.31633 12.8783 8.29778 12.8276 8.2631C12.7769 8.22846 12.7378 8.17932 12.7155 8.12206L12.6163 7.86943C12.601 7.83049 12.5779 7.79509 12.5483 7.76548C12.5187 7.73581 12.4834 7.71252 12.4446 7.69703L12.1932 7.59722C12.1363 7.57443 12.0876 7.5351 12.0533 7.48433C12.0189 7.43355 12.0006 7.37367 12.0006 7.31242C12.0006 7.25112 12.0189 7.19129 12.0533 7.14051C12.0876 7.08973 12.1363 7.05041 12.1932 7.02756L12.4446 6.92781C12.4834 6.91232 12.5187 6.88903 12.5483 6.85937C12.5779 6.82972 12.601 6.79432 12.6163 6.75537L12.7155 6.50274V6.50337Z" fill="url(#paint2_linear_235_19)"/>
<path d="M10.2731 2.19423C10.2955 2.137 10.3345 2.08785 10.3853 2.0532C10.4359 2.01854 10.4959 2 10.5573 2C10.6188 2 10.6788 2.01854 10.7295 2.0532C10.7802 2.08785 10.8192 2.137 10.8416 2.19423L11.1132 2.8858C11.1283 2.92492 11.1514 2.96049 11.1809 2.99027C11.2105 3.02005 11.2459 3.0434 11.285 3.05885L11.9739 3.33169C12.0311 3.35441 12.08 3.39373 12.1144 3.44457C12.1489 3.49541 12.1673 3.55542 12.1673 3.61683C12.1673 3.67826 12.1489 3.73827 12.1144 3.7891C12.08 3.83994 12.0311 3.87926 11.9739 3.90199L11.2855 4.17483C11.2466 4.19023 11.2111 4.21348 11.1814 4.24314C11.1518 4.2728 11.1285 4.30823 11.1132 4.34724L10.8416 5.03818C10.8192 5.09541 10.7802 5.14456 10.7295 5.17922C10.6788 5.21387 10.6188 5.23241 10.5573 5.23241C10.4959 5.23241 10.4359 5.21387 10.3853 5.17922C10.3345 5.14456 10.2955 5.09541 10.2731 5.03818L10.0016 4.34662C9.9862 4.3076 9.96291 4.27217 9.9333 4.24251C9.90363 4.21285 9.86818 4.1896 9.82918 4.1742L9.14073 3.90136C9.08368 3.87863 9.03476 3.83931 9.00029 3.78847C8.96582 3.73763 8.94739 3.67762 8.94739 3.61621C8.94739 3.55478 8.96582 3.49477 9.00029 3.44394C9.03476 3.3931 9.08368 3.35378 9.14073 3.33105L9.82918 3.05821C9.86823 3.04274 9.90374 3.01939 9.93335 2.98962C9.96302 2.95985 9.98626 2.92429 10.0016 2.88517L10.2731 2.19423Z" fill="url(#paint3_linear_235_19)"/>
<path d="M6.77933 4.83611C6.77174 4.84496 6.42881 4.51843 6.42059 4.52664L3.89432 7.05293C3.88611 7.06111 4.21263 7.40406 4.20379 7.41164L10.2593 13.4665C10.4283 13.6356 10.6291 13.7697 10.85 13.8613C11.0709 13.9528 11.3077 14 11.5468 14C11.7859 14 12.0228 13.9529 12.2437 13.8615C12.4646 13.77 12.6654 13.6359 12.8345 13.4668C13.0036 13.2978 13.1378 13.097 13.2293 12.8761C13.3208 12.6552 13.368 12.4184 13.368 12.1793C13.368 11.9402 13.321 11.7034 13.2295 11.4824C13.138 11.2615 13.0039 11.0607 12.8348 10.8916L6.77933 4.83611Z" fill="url(#paint4_linear_235_19)"/>
<defs>
<linearGradient id="paint0_linear_235_19" x1="3" y1="14.9988" x2="12.9991" y2="2.999" gradientUnits="userSpaceOnUse">
<stop stop-color="#FF8860"/>
<stop offset="1" stop-color="#FBD92C"/>
</linearGradient>
<linearGradient id="paint1_linear_235_19" x1="3.10518" y1="9.82171" x2="6.75058" y2="8.14056" gradientUnits="userSpaceOnUse">
<stop stop-color="#FBD92C"/>
<stop offset="1" stop-color="white"/>
</linearGradient>
<linearGradient id="paint2_linear_235_19" x1="12.5002" y1="7.81453" x2="13.5037" y2="6.81546" gradientUnits="userSpaceOnUse">
<stop stop-color="#FBD92C"/>
<stop offset="1" stop-color="white"/>
</linearGradient>
<linearGradient id="paint3_linear_235_19" x1="9.75238" y1="4.42431" x2="11.3686" y2="2.81434" gradientUnits="userSpaceOnUse">
<stop stop-color="#FBD92C"/>
<stop offset="1" stop-color="white"/>
</linearGradient>
<linearGradient id="paint4_linear_235_19" x1="6.26262" y1="11.6316" x2="10.9994" y2="6.89473" gradientUnits="userSpaceOnUse">
<stop stop-color="#FBD92C"/>
<stop offset="1" stop-color="white"/>
</linearGradient>
</defs>
</svg>
