<svg width="16" height="16" viewBox="0 0 16 16" fill="none" xmlns="http://www.w3.org/2000/svg">
<path fill-rule="evenodd" clip-rule="evenodd" d="M5.66698 1.9325H14.0675V10.3331C14.0675 11.5707 13.5756 12.758 12.701 13.6335C11.8255 14.5081 10.6382 15 9.40056 15H4.73358C4.21835 15 3.80019 14.5819 3.80019 14.0666C3.80019 13.0362 2.96386 12.1998 1.9334 12.1998C1.41816 12.1998 1 11.7817 1 11.2665C1 11.2665 1 8.84336 1 6.59947C1 5.36179 1.4919 4.17451 2.36649 3.29899C3.24202 2.42439 4.4293 1.9325 5.66698 1.9325ZM1.9334 13.1332C2.44863 13.1332 2.86679 13.5514 2.86679 14.0666C2.86679 14.5819 2.44863 15 1.9334 15C1.41816 15 1 14.5819 1 14.0666C1 13.5514 1.41816 13.1332 1.9334 13.1332Z" fill="url(#paint0_linear_8_43)"/>
<path fill-rule="evenodd" clip-rule="evenodd" d="M4.73363 12.1998H8.46721C8.98244 12.1998 9.40061 11.7816 9.40061 11.2664C9.40061 10.7512 8.98244 10.333 8.46721 10.333H4.73363C4.21839 10.333 3.80023 10.7512 3.80023 11.2664C3.80023 11.7816 4.21839 12.1998 4.73363 12.1998Z" fill="#D78F40"/>
<path fill-rule="evenodd" clip-rule="evenodd" d="M4.73363 8.46626H6.60042C7.11565 8.46626 7.53381 8.0481 7.53381 7.53287C7.53381 7.01763 7.11565 6.59947 6.60042 6.59947H4.73363C4.21839 6.59947 3.80023 7.01763 3.80023 7.53287C3.80023 8.0481 4.21839 8.46626 4.73363 8.46626ZM10.8007 1.9325C8.99738 1.9325 7.53381 3.39606 7.53381 5.19938C7.53381 7.0027 8.99738 8.46626 10.8007 8.46626C12.604 8.46626 14.0676 7.0027 14.0676 5.19938C14.0676 3.39606 12.604 1.9325 10.8007 1.9325Z" fill="#D6A930"/>
<path fill-rule="evenodd" clip-rule="evenodd" d="M5.66698 7.53281H7.53377C8.049 7.53281 8.46717 7.11465 8.46717 6.59941C8.46717 6.08418 8.049 5.66602 7.53377 5.66602H5.66698C5.15174 5.66602 4.73358 6.08418 4.73358 6.59941C4.73358 7.11465 5.15174 7.53281 5.66698 7.53281Z" fill="url(#paint1_linear_8_43)"/>
<path fill-rule="evenodd" clip-rule="evenodd" d="M5.66679 11.2664H9.40036C9.9156 11.2664 10.3338 10.8483 10.3338 10.3331C10.3338 9.81782 9.9156 9.39966 9.40036 9.39966H5.66679C5.15156 9.39966 4.7334 9.81782 4.7334 10.3331C4.7334 10.8483 5.15156 11.2664 5.66679 11.2664Z" fill="url(#paint2_linear_8_43)"/>
<path d="M11.7341 7.5319C13.5378 7.5319 15 6.06969 15 4.26595C15 2.46222 13.5378 1 11.7341 1C9.93036 1 8.46814 2.46222 8.46814 4.26595C8.46814 6.06969 9.93036 7.5319 11.7341 7.5319Z" fill="url(#paint3_linear_8_43)"/>
<defs>
<linearGradient id="paint0_linear_8_43" x1="1" y1="14.0666" x2="6.60037" y2="2.86589" gradientUnits="userSpaceOnUse">
<stop stop-color="#FF8860"/>
<stop offset="1" stop-color="#FBD92C"/>
</linearGradient>
<linearGradient id="paint1_linear_8_43" x1="4.73356" y1="7.53281" x2="8.46715" y2="5.66602" gradientUnits="userSpaceOnUse">
<stop stop-color="#FBD92C"/>
<stop offset="1" stop-color="white"/>
</linearGradient>
<linearGradient id="paint2_linear_8_43" x1="5.66697" y1="11.2664" x2="9.40054" y2="9.39966" gradientUnits="userSpaceOnUse">
<stop stop-color="#FBD92C"/>
<stop offset="1" stop-color="white"/>
</linearGradient>
<linearGradient id="paint3_linear_8_43" x1="9.28019" y1="6.71043" x2="14.1775" y2="1.81316" gradientUnits="userSpaceOnUse">
<stop stop-color="#FF405B"/>
<stop offset="1" stop-color="#FF8860"/>
</linearGradient>
</defs>
</svg>
