<svg width="16" height="16" viewBox="0 0 16 16" fill="none" xmlns="http://www.w3.org/2000/svg">
<g clip-path="url(#clip0_15_1260)">
<path fill-rule="evenodd" clip-rule="evenodd" d="M11 14.0008V12.0016C11 11.4499 10.552 11.0021 10 11.0021C9.448 11.0021 6.552 11.0021 6 11.0021C5.448 11.0021 5 11.4499 5 12.0016V14.0008C4.448 14.0008 4 14.4486 4 15.0003C4 15.5521 4.448 15.9999 5 15.9999H11C11.552 15.9999 12 15.5521 12 15.0003C12 14.4486 11.552 14.0008 11 14.0008Z" fill="url(#paint0_linear_15_1260)"/>
<path fill-rule="evenodd" clip-rule="evenodd" d="M12.959 12.9943H3.041C2.234 12.9943 1.461 12.6745 0.891 12.1037C0.32 11.534 0 10.7613 0 9.95464C0 7.98251 0 5.01181 0 3.03967C0 2.23302 0.32 1.46036 0.891 0.89061C1.461 0.31986 2.234 0 3.041 0H12C12.552 0 13 0.447804 13 0.999563C13 2.10308 13.896 2.99869 15 2.99869C15.552 2.99869 16 3.44649 16 3.99825V9.99563C15.989 10.7873 15.67 11.5439 15.109 12.1037C14.539 12.6745 13.766 12.9943 12.959 12.9943ZM15 0C15.552 0 16 0.447804 16 0.999563C16 1.55132 15.552 1.99913 15 1.99913C14.448 1.99913 14 1.55132 14 0.999563C14 0.447804 14.448 0 15 0Z" fill="url(#paint1_linear_15_1260)"/>
<path opacity="0.5" fill-rule="evenodd" clip-rule="evenodd" d="M3.00004 10.9999L3.00004 0.9999C3.00004 0.4477 3.052 0 2.5 0C2.1523 0 1 0.5 1.00004 0.9999L1.00004 10.9999C1.00004 11.5521 1.44804 11.9998 2.00004 11.9998C2.55204 11.9998 3.00004 11.5521 3.00004 10.9999Z" fill="#B75A66"/>
<path fill-rule="evenodd" clip-rule="evenodd" d="M3.99951 9.99978V0.999778C3.99951 0.447578 3.55151 -0.00012207 2.99951 -0.00012207C2.44751 -0.00012207 1.99951 0.447578 1.99951 0.999778V9.99978C1.99951 10.552 2.44751 10.9997 2.99951 10.9997C3.55151 10.9997 3.99951 10.552 3.99951 9.99978Z" fill="url(#paint2_linear_15_1260)"/>
</g>
<defs>
<linearGradient id="paint0_linear_15_1260" x1="11.6376" y1="11.088" x2="7.62003" y2="17.8486" gradientUnits="userSpaceOnUse">
<stop stop-color="#AA5EA0"/>
<stop offset="0.408098" stop-color="#FD478C"/>
<stop offset="0.590073" stop-color="#FF7C82"/>
<stop offset="1" stop-color="#FFD495"/>
</linearGradient>
<linearGradient id="paint1_linear_15_1260" x1="15.2752" y1="0.223341" x2="3.76798" y2="15.1187" gradientUnits="userSpaceOnUse">
<stop stop-color="#AA5EA0"/>
<stop offset="0.408098" stop-color="#FD478C"/>
<stop offset="0.590073" stop-color="#FF7C82"/>
<stop offset="1" stop-color="#FFD495"/>
</linearGradient>
<linearGradient id="paint2_linear_15_1260" x1="5" y1="5" x2="1.5" y2="5.5" gradientUnits="userSpaceOnUse">
<stop stop-color="#D4A4C4"/>
<stop offset="0.5" stop-color="#F7B1B3"/>
<stop offset="1" stop-color="#F7E1A3"/>
</linearGradient>
<clipPath id="clip0_15_1260">
<rect width="16" height="16" fill="white"/>
</clipPath>
</defs>
</svg>
