<svg width="16" height="16" viewBox="0 0 16 16" fill="none" xmlns="http://www.w3.org/2000/svg">
<path fill-rule="evenodd" clip-rule="evenodd" d="M9.68362 11.0091C9.51013 10.8357 9.2379 10.8151 9.02792 10.9419C8.18013 11.4544 7.18642 11.7492 6.12457 11.7492C4.2919 11.7492 2.66358 10.8717 1.63617 9.51337C1.32399 9.1009 1.40555 8.51219 1.81802 8.20003C1.87239 8.15878 3.31228 7.99942 3.31228 6.12457C3.31228 4.24971 1.87239 4.09035 1.81802 4.0491C1.40555 3.73694 1.32399 3.14823 1.63617 2.73576C2.66358 1.37744 4.2919 0.5 6.12457 0.5C9.22839 0.5 11.7492 3.02074 11.7492 6.12457C11.7492 7.18642 11.4544 8.18013 10.9419 9.02792C10.8151 9.2379 10.8357 9.51013 11.0091 9.68362C11.204 9.87849 11.5176 9.87264 11.7577 9.73739C12.0388 9.57908 12.3584 9.49368 12.6865 9.49368C13.189 9.49368 13.6709 9.69335 14.0262 10.0486L14.6748 10.6983C15.7732 11.7958 15.7735 13.5763 14.6755 14.674L14.6744 14.6758L14.6732 14.6775C13.5754 15.7744 11.7967 15.7742 10.6993 14.6767L10.0486 14.0262C9.69335 13.6709 9.49368 13.189 9.49368 12.6865C9.49368 12.3584 9.57908 12.0388 9.73739 11.7577C9.87264 11.5176 9.87849 11.204 9.68362 11.0091ZM1.43743 5.18714C1.95488 5.18714 2.37485 5.60711 2.37485 6.12457C2.37485 6.64202 1.95488 7.06199 1.43743 7.06199C0.919968 7.06199 0.5 6.64202 0.5 6.12457C0.5 5.60711 0.919968 5.18714 1.43743 5.18714Z" fill="url(#paint0_linear_249_80)"/>
<path fill-rule="evenodd" clip-rule="evenodd" d="M1.58857 7.04985C1.57731 6.99132 1.57141 6.93089 1.57141 6.86909C1.57141 6.40099 1.90968 6.01142 2.35495 5.93165C2.36799 5.99391 2.37485 6.05844 2.37485 6.12457C2.37485 6.59057 2.03424 6.97751 1.58857 7.04985ZM2.62183 7.82147C2.97568 7.5365 3.31228 7.03104 3.31228 6.12457C3.31228 6.0528 3.31017 5.98354 3.30611 5.91671H4.42856V4.01194C4.42856 3.48623 4.85522 3.05957 5.38094 3.05957C5.90665 3.05957 6.33331 3.48623 6.33331 4.01194V5.91671H8.23808C8.7638 5.91671 9.19046 6.34337 9.19046 6.86909C9.19046 7.39481 8.7638 7.82147 8.23808 7.82147H6.33331V9.72624C6.33331 10.2519 5.90665 10.6786 5.38094 10.6786C4.85522 10.6786 4.42856 10.2519 4.42856 9.72624V7.82147H2.62183Z" fill="#64C89E"/>
<path fill-rule="evenodd" clip-rule="evenodd" d="M5.38094 4.96433H3.47618C2.95047 4.96433 2.5238 5.39099 2.5238 5.91671C2.5238 6.44242 2.95047 6.86908 3.47618 6.86908H5.38094V8.77385C5.38094 9.29957 5.80761 9.72623 6.33332 9.72623C6.85904 9.72623 7.28571 9.29957 7.28571 8.77385V6.86908H9.19047C9.71618 6.86908 10.1428 6.44242 10.1428 5.91671C10.1428 5.39099 9.71618 4.96433 9.19047 4.96433H7.28571V3.05956C7.28571 2.53384 6.85904 2.10718 6.33332 2.10718C5.80761 2.10718 5.38094 2.53384 5.38094 3.05956V4.96433Z" fill="url(#paint1_linear_249_80)"/>
<defs>
<linearGradient id="paint0_linear_249_80" x1="2.37485" y1="13.6254" x2="16.4101" y2="10.3868" gradientUnits="userSpaceOnUse">
<stop stop-color="#62E8AF"/>
<stop offset="1" stop-color="#B3FBDC"/>
</linearGradient>
<linearGradient id="paint1_linear_249_80" x1="4.42856" y1="7.82146" x2="8.23809" y2="4.01194" gradientUnits="userSpaceOnUse">
<stop stop-color="#B9FCE0"/>
<stop offset="1" stop-color="white"/>
</linearGradient>
</defs>
</svg>
