<svg width="16" height="16" viewBox="0 0 16 16" fill="none" xmlns="http://www.w3.org/2000/svg">
<g clip-path="url(#clip0_140_15728)">
<path fill-rule="evenodd" clip-rule="evenodd" d="M4.46311 11.5338C3.0489 10.1196 1.75701 11.181 1.69337 11.2022C1.17082 11.3796 0.602306 11.0996 0.424821 10.5771C-0.523408 7.7833 0.115816 4.56738 2.34179 2.34141C5.46367 -0.780469 10.5336 -0.780469 13.6555 2.34141C16.7774 5.46328 16.7774 10.5332 13.6555 13.6551C11.4295 15.8811 8.2136 16.5203 5.41982 15.5721C4.89727 15.3946 4.61726 14.8261 4.79474 14.3035C4.81595 14.2399 5.87732 12.948 4.46311 11.5338ZM3.756 13.6551C3.36568 14.0454 2.73211 14.0454 2.34179 13.6551C1.95147 13.2648 1.95147 12.6312 2.34179 12.2409C2.73211 11.8506 3.36568 11.8506 3.756 12.2409C4.14632 12.6312 4.14632 13.2648 3.756 13.6551Z" fill="url(#paint0_linear_140_15728)"/>
<path fill-rule="evenodd" clip-rule="evenodd" d="M4.91424 14.1093C5.09068 13.7996 5.36755 13.1543 5.05581 12.3902C5.29685 12.1489 5.6304 12 6 12C6.73867 12 7.33333 12.5947 7.33333 13.3333C7.33333 14.072 6.73867 14.6667 6 14.6667C5.55125 14.6667 5.15565 14.4472 4.91424 14.1093ZM2.47204 10.8503C2.7514 10.785 3.08998 10.7695 3.46126 10.8882C3.78189 10.722 4 10.3874 4 10C4 9.446 3.554 9 3 9C2.446 9 2 9.446 2 10C2 10.3599 2.18824 10.6742 2.47204 10.8503ZM4 5.66667C4 5.29733 4.29733 5 4.66667 5C5.036 5 5.33333 5.29733 5.33333 5.66667C5.33333 6.036 5.036 6.33333 4.66667 6.33333C4.29733 6.33333 4 6.036 4 5.66667ZM9.1448 5.18856C9.24893 5.08442 9.41773 5.08442 9.52187 5.18856L12.4781 8.14477C12.5823 8.24891 12.5823 8.41773 12.4781 8.52187L11.3333 9.66667L9.52187 11.4781C9.41773 11.5823 9.24893 11.5823 9.1448 11.4781L8.18853 10.5219C8.0844 10.4177 8.0844 10.2489 8.18853 10.1448L9.81147 8.52187C9.9156 8.41773 9.9156 8.24891 9.81147 8.14477L8.18853 6.52189C8.0844 6.41775 8.0844 6.24891 8.18853 6.14477L9.1448 5.18856Z" fill="#279FD7"/>
<path d="M5.66667 3.59998C5.29733 3.59998 5 3.89731 5 4.26664C5 4.63598 5.29733 4.93331 5.66667 4.93331C6.036 4.93331 6.33333 4.63598 6.33333 4.26664C6.33333 3.89731 6.036 3.59998 5.66667 3.59998ZM10.5219 3.78854C10.4177 3.6844 10.2489 3.6844 10.1448 3.78854L9.18853 4.74475C9.0844 4.84889 9.0844 5.01773 9.18853 5.12187L10.8115 6.74475C10.9156 6.84889 10.9156 7.01771 10.8115 7.12184L9.18853 8.74478C9.0844 8.84891 9.0844 9.01771 9.18853 9.12184L10.1448 10.0781C10.2489 10.1822 10.4177 10.1822 10.5219 10.0781L12.3333 8.26664L13.4781 7.12184C13.5823 7.01771 13.5823 6.84889 13.4781 6.74475L10.5219 3.78854ZM4 7.59998C3.446 7.59998 3 8.04598 3 8.59998C3 9.15398 3.446 9.59998 4 9.59998C4.554 9.59998 5 9.15398 5 8.59998C5 8.04598 4.554 7.59998 4 7.59998ZM7 10.6C6.26133 10.6 5.66667 11.1946 5.66667 11.9333C5.66667 12.672 6.26133 13.2666 7 13.2666C7.73867 13.2666 8.33333 12.672 8.33333 11.9333C8.33333 11.1946 7.73867 10.6 7 10.6Z" fill="url(#paint1_linear_140_15728)"/>
</g>
<defs>
<linearGradient id="paint0_linear_140_15728" x1="1.59969" y1="16.0019" x2="7.37727" y2="-1.33301" gradientUnits="userSpaceOnUse">
<stop offset="0.190745" stop-color="#22B4FA"/>
<stop offset="0.896724" stop-color="#7DDCFF"/>
</linearGradient>
<linearGradient id="paint1_linear_140_15728" x1="3" y1="13.2666" x2="15.28" y2="9.91412" gradientUnits="userSpaceOnUse">
<stop stop-color="#6BD6FE"/>
<stop offset="1" stop-color="white"/>
</linearGradient>
<clipPath id="clip0_140_15728">
<rect width="16" height="16" fill="white"/>
</clipPath>
</defs>
</svg>
