<svg width="16" height="16" viewBox="0 0 16 16" fill="none" xmlns="http://www.w3.org/2000/svg">
<g clip-path="url(#clip0_12_752)">
<path fill-rule="evenodd" clip-rule="evenodd" d="M11 14.0008V12.0016C11 11.4499 10.552 11.0021 10 11.0021C9.448 11.0021 6.552 11.0021 6 11.0021C5.448 11.0021 5 11.4499 5 12.0016V14.0008C4.448 14.0008 4 14.4486 4 15.0003C4 15.5521 4.448 15.9999 5 15.9999H11C11.552 15.9999 12 15.5521 12 15.0003C12 14.4486 11.552 14.0008 11 14.0008Z" fill="url(#paint0_linear_12_752)"/>
<path fill-rule="evenodd" clip-rule="evenodd" d="M12.959 12.9943H3.041C2.234 12.9943 1.461 12.6745 0.891 12.1037C0.32 11.534 0 10.7613 0 9.95464C0 7.98251 0 5.01181 0 3.03967C0 2.23302 0.32 1.46036 0.891 0.89061C1.461 0.31986 2.234 0 3.041 0H12C12.552 0 13 0.447804 13 0.999563C13 2.10308 13.896 2.99869 15 2.99869C15.552 2.99869 16 3.44649 16 3.99825V9.99563C15.989 10.7873 15.67 11.5439 15.109 12.1037C14.539 12.6745 13.766 12.9943 12.959 12.9943ZM15 0C15.552 0 16 0.447804 16 0.999563C16 1.55132 15.552 1.99913 15 1.99913C14.448 1.99913 14 1.55132 14 0.999563C14 0.447804 14.448 0 15 0Z" fill="url(#paint1_linear_12_752)"/>
<path d="M10.0088 4.14118C10.197 3.953 10.502 3.95293 10.6902 4.14103C10.8785 4.3292 10.8786 4.63442 10.6904 4.82266L9.73434 5.7787C9.32153 6.19151 9.32158 6.86086 9.73444 7.27362L10.6903 8.22925C10.8786 8.4175 10.8786 8.72276 10.6903 8.91101C10.5021 9.09927 10.1968 9.09927 10.0086 8.91101L8.37144 7.27356C7.95874 6.86075 7.95874 6.19162 8.37144 5.77886L10.0088 4.14118ZM4.82265 10.8589C4.6345 11.047 4.32945 11.047 4.14125 10.859C3.95295 10.6708 3.9529 10.3655 4.1412 10.1772L5.09705 9.22167C5.50991 8.80885 5.50996 8.13956 5.0971 7.72675L4.14136 6.77096C3.953 6.5826 3.95311 6.27718 4.14157 6.08893C4.32988 5.90089 4.63498 5.901 4.82312 6.0892L6.46036 7.72675C6.87312 8.13956 6.87307 8.80885 6.46026 9.22156L4.82265 10.8589Z" fill="#D49F34" stroke="#D49F34"/>
<path d="M10.5088 3.14118C10.697 2.953 11.002 2.95293 11.1902 3.14103C11.3785 3.3292 11.3786 3.63442 11.1904 3.82266L10.2343 4.7787C9.82153 5.19151 9.82158 5.86086 10.2344 6.27362L11.1903 7.22925C11.3786 7.4175 11.3786 7.72276 11.1903 7.91101C11.0021 8.09927 10.6968 8.09927 10.5086 7.91101L8.87144 6.27356C8.45874 5.86075 8.45874 5.19162 8.87144 4.77886L10.5088 3.14118ZM5.32265 9.8589C5.1345 10.047 4.82945 10.047 4.64125 9.85896C4.45295 9.67076 4.4529 9.3655 4.6412 9.17725L5.59705 8.22167C6.00991 7.80885 6.00996 7.13956 5.5971 6.72675L4.64136 5.77096C4.453 5.5826 4.45311 5.27718 4.64157 5.08893C4.82988 4.90089 5.13498 4.901 5.32312 5.0892L6.96036 6.72675C7.37312 7.13956 7.37307 7.80885 6.96026 8.22156L5.32265 9.8589Z" fill="url(#paint2_linear_12_752)" stroke="url(#paint3_linear_12_752)"/>
</g>
<defs>
<linearGradient id="paint0_linear_12_752" x1="5.5" y1="15.6872" x2="8.10117" y2="10.6903" gradientUnits="userSpaceOnUse">
<stop stop-color="#FF8860"/>
<stop offset="1" stop-color="#FBD92C"/>
</linearGradient>
<linearGradient id="paint1_linear_12_752" x1="3" y1="12.1812" x2="10.6644" y2="0.855659" gradientUnits="userSpaceOnUse">
<stop stop-color="#FF8860"/>
<stop offset="1" stop-color="#FBD92C"/>
</linearGradient>
<linearGradient id="paint2_linear_12_752" x1="6.20788" y1="8.25" x2="9.70684" y2="4.83525" gradientUnits="userSpaceOnUse">
<stop stop-color="#FBD92C"/>
<stop offset="1" stop-color="white"/>
</linearGradient>
<linearGradient id="paint3_linear_12_752" x1="6.20788" y1="8.25" x2="9.70684" y2="4.83525" gradientUnits="userSpaceOnUse">
<stop stop-color="#FBD92C"/>
<stop offset="1" stop-color="white"/>
</linearGradient>
<clipPath id="clip0_12_752">
<rect width="16" height="16" fill="white"/>
</clipPath>
</defs>
</svg>
