<svg width="16" height="16" viewBox="0 0 16 16" fill="none" xmlns="http://www.w3.org/2000/svg">
<g clip-path="url(#clip0_14_899)">
<path fill-rule="evenodd" clip-rule="evenodd" d="M3 8C3 6 1.336 5.837 1.276 5.807C0.780999 5.563 0.576999 4.963 0.820999 4.468C2.126 1.822 4.852 0 8 0C12.415 0 16 3.585 16 8C16 12.415 12.415 16 8 16C4.852 16 2.126 14.178 0.820999 11.532C0.576999 11.037 0.780999 10.437 1.276 10.193C1.336 10.163 3 10 3 8ZM1 9C0.448 9 0 8.552 0 8C0 7.448 0.448 7 1 7C1.552 7 2 7.448 2 8C2 8.552 1.552 9 1 9Z" fill="url(#paint0_linear_14_899)"/>
<path fill-rule="evenodd" clip-rule="evenodd" d="M7.99044 3.76312C8.20125 3.87562 8.44625 4.05562 8.70212 4.24479L9.85043 5.09146C10.0262 5.22062 10.2071 5.35396 10.3396 5.48396C10.4887 5.63146 10.6671 5.86313 10.6671 6.19396C10.6671 6.52479 10.4887 6.75563 10.3396 6.90396C10.1856 7.04566 10.0221 7.17679 9.85043 7.29646L8.08212 8.59979L9.85043 9.9031C10.0262 10.0323 10.2071 10.1656 10.3396 10.2956C10.4887 10.444 10.6671 10.6748 10.6671 11.0056C10.6671 11.3365 10.4887 11.5681 10.3396 11.7156C10.1854 11.8572 10.022 11.9883 9.85043 12.1081L8.70212 12.9548C8.44625 13.144 8.20212 13.324 7.99044 13.4365C7.77544 13.5515 7.40625 13.6998 7.01375 13.5065C6.62044 13.3131 6.51962 12.9348 6.48375 12.6965C6.44962 12.4631 6.44963 12.1631 6.44963 11.8481V9.8831L5.00461 11.0665C4.87916 11.1687 4.71873 11.2177 4.55759 11.2032C4.39644 11.1888 4.24734 11.1118 4.14211 10.989C4.09063 10.9286 4.05176 10.8585 4.02779 10.7829C4.00381 10.7073 3.99522 10.6277 4.00252 10.5487C4.00983 10.4697 4.03287 10.393 4.0703 10.323C4.10772 10.2531 4.15878 10.1913 4.22045 10.1415L6.10544 8.59979L4.22045 7.05729C4.15878 7.00739 4.10772 6.94566 4.0703 6.87572C4.03287 6.80577 4.00983 6.72905 4.00252 6.65006C3.99522 6.57108 4.00381 6.49143 4.02779 6.41581C4.05176 6.34019 4.09063 6.27014 4.14211 6.20979C4.24745 6.08701 4.39661 6.01027 4.55776 5.99594C4.7189 5.98162 4.87926 6.03085 5.00461 6.13313L6.44963 7.31562V5.35146C6.44963 5.03646 6.44962 4.73646 6.48375 4.50312C6.51962 4.26479 6.62044 3.88646 7.01375 3.69312C7.40625 3.50062 7.77544 3.64812 7.99044 3.76312ZM7.67375 11.8081V9.8031L9.08875 10.8448C9.17462 10.9081 9.24462 10.9598 9.30462 11.0056C9.23312 11.0598 9.16118 11.1135 9.08875 11.1665L8.00044 11.9681C7.87044 12.064 7.76462 12.1415 7.67544 12.204C7.67375 12.072 7.67319 11.9401 7.67375 11.8081ZM7.67375 5.39146V7.39647L9.08875 6.35479C9.17462 6.29146 9.24462 6.23979 9.30462 6.19396C9.23312 6.13974 9.16118 6.08613 9.08875 6.03313L8.00044 5.23146C7.89275 5.15193 7.78444 5.07331 7.67544 4.99562C7.67375 5.12756 7.67319 5.25951 7.67375 5.39146Z" fill="#279FD7"/>
<path fill-rule="evenodd" clip-rule="evenodd" d="M8.99044 2.76312C9.20125 2.87562 9.44625 3.05562 9.70212 3.24479L10.8504 4.09146C11.0262 4.22062 11.2071 4.35396 11.3396 4.48396C11.4887 4.63146 11.6671 4.86313 11.6671 5.19396C11.6671 5.52479 11.4887 5.75563 11.3396 5.90396C11.1856 6.04566 11.0221 6.17679 10.8504 6.29646L9.08212 7.59979L10.8504 8.9031C11.0262 9.03228 11.2071 9.1656 11.3396 9.2956C11.4887 9.44397 11.6671 9.67478 11.6671 10.0056C11.6671 10.3365 11.4887 10.5681 11.3396 10.7156C11.1854 10.8572 11.022 10.9883 10.8504 11.1081L9.70212 11.9548C9.44625 12.144 9.20212 12.324 8.99044 12.4365C8.77544 12.5515 8.40625 12.6998 8.01375 12.5065C7.62044 12.3131 7.51962 11.9348 7.48375 11.6965C7.44962 11.4631 7.44963 11.1631 7.44963 10.8481V8.8831L6.00461 10.0665C5.87916 10.1687 5.71873 10.2177 5.55759 10.2032C5.39644 10.1888 5.24734 10.1118 5.14211 9.98897C5.09063 9.9286 5.05176 9.85853 5.02779 9.78291C5.00381 9.70735 4.99522 9.62766 5.00252 9.54866C5.00983 9.46972 5.03287 9.39297 5.0703 9.32303C5.10772 9.2531 5.15878 9.19135 5.22045 9.14147L7.10544 7.59979L5.22045 6.05729C5.15878 6.00739 5.10772 5.94566 5.0703 5.87572C5.03287 5.80577 5.00983 5.72905 5.00252 5.65006C4.99522 5.57108 5.00381 5.49143 5.02779 5.41581C5.05176 5.34019 5.09063 5.27014 5.14211 5.20979C5.24745 5.08701 5.39661 5.01027 5.55776 4.99594C5.7189 4.98162 5.87926 5.03085 6.00461 5.13313L7.44963 6.31562V4.35146C7.44963 4.03646 7.44962 3.73646 7.48375 3.50312C7.51962 3.26479 7.62044 2.88646 8.01375 2.69312C8.40625 2.50062 8.77544 2.64812 8.99044 2.76312ZM8.67375 10.8081V8.8031L10.0887 9.84478C10.1746 9.9081 10.2446 9.95978 10.3046 10.0056C10.2331 10.0598 10.1612 10.1135 10.0887 10.1665L9.00044 10.9681C8.87044 11.064 8.76462 11.1415 8.67544 11.204C8.67375 11.072 8.67319 10.9401 8.67375 10.8081ZM8.67375 4.39146V6.39647L10.0887 5.35479C10.1746 5.29146 10.2446 5.23979 10.3046 5.19396C10.2331 5.13974 10.1612 5.08613 10.0887 5.03313L9.00044 4.23146C8.89275 4.15193 8.78444 4.07331 8.67544 3.99562C8.67375 4.12756 8.67319 4.25951 8.67375 4.39146Z" fill="url(#paint1_linear_14_899)"/>
</g>
<defs>
<linearGradient id="paint0_linear_14_899" x1="1.6" y1="16.005" x2="7.3787" y2="-1.33327" gradientUnits="userSpaceOnUse">
<stop stop-color="#22B4FA"/>
<stop offset="1" stop-color="#6BD6FE"/>
</linearGradient>
<linearGradient id="paint1_linear_14_899" x1="5" y1="12.6" x2="13.1086" y2="11.2484" gradientUnits="userSpaceOnUse">
<stop stop-color="#6BD6FE"/>
<stop offset="1" stop-color="white"/>
</linearGradient>
<clipPath id="clip0_14_899">
<rect width="16" height="16" fill="white"/>
</clipPath>
</defs>
</svg>
