<svg width="16" height="16" viewBox="0 0 16 16" fill="none" xmlns="http://www.w3.org/2000/svg">
<path fill-rule="evenodd" clip-rule="evenodd" d="M15.4 11.6C15.4 11.904 15.232 12.168 14.976 12.304L8.656 15.856C8.528 15.952 8.368 16 8.2 16C8.032 16 7.872 15.952 7.744 15.856L7.6656 15.8119C7.06019 15.4717 6.99319 14.5835 7.13547 13.9038C7.16582 13.7588 7.18177 13.6085 7.18177 13.4545C7.18177 12.2495 6.20494 11.2727 4.99996 11.2727C4.42299 11.2727 3.89834 11.4967 3.50817 11.8624C3.00098 12.3378 2.2039 12.7423 1.59788 12.4017L1.424 12.304C1.29575 12.2366 1.18842 12.1353 1.11366 12.0112C1.03891 11.8871 0.999603 11.7449 1 11.6V4.4C1 4.096 1.168 3.832 1.424 3.696L7.744 0.144C7.872 0.048 8.032 0 8.2 0C8.368 0 8.528 0.048 8.656 0.144L14.976 3.696C15.232 3.832 15.4 4.096 15.4 4.4V11.6ZM4.99996 14.5454C5.60245 14.5454 6.09086 14.057 6.09086 13.4545C6.09086 12.852 5.60245 12.3636 4.99996 12.3636C4.39746 12.3636 3.90905 12.852 3.90905 13.4545C3.90905 14.057 4.39746 14.5454 4.99996 14.5454Z" fill="url(#paint0_linear_68_1547)"/>
<path d="M7.37033 8.05135L10.7158 9.936C11.2006 10.2091 11.8 9.85877 11.8 9.30233V5.62042C11.8 5.35751 11.6581 5.11507 11.4289 4.98632L8.08342 3.10729C7.59862 2.835 7 3.18536 7 3.74139V7.41775C7 7.68029 7.14153 7.92248 7.37033 8.05135Z" fill="#D49F34"/>
<path d="M8.67929 7.03829L12.0247 8.92294C12.5095 9.19603 13.109 8.84571 13.109 8.28927V4.60736C13.109 4.34445 12.9671 4.10201 12.7378 3.97326L9.39238 2.09423C8.90758 1.82194 8.30896 2.1723 8.30896 2.72833V6.40469C8.30896 6.66723 8.45049 6.90942 8.67929 7.03829Z" fill="url(#paint1_linear_68_1547)"/>
<defs>
<linearGradient id="paint0_linear_68_1547" x1="3.7" y1="14.9988" x2="13.8358" y2="4.05133" gradientUnits="userSpaceOnUse">
<stop stop-color="#FF8860"/>
<stop offset="1" stop-color="#FBD92C"/>
</linearGradient>
<linearGradient id="paint1_linear_68_1547" x1="9.50896" y1="7.26321" x2="12.7791" y2="5.02649" gradientUnits="userSpaceOnUse">
<stop stop-color="#FBD92C"/>
<stop offset="1" stop-color="white"/>
</linearGradient>
</defs>
</svg>
