<svg width="16" height="16" viewBox="0 0 16 16" fill="none" xmlns="http://www.w3.org/2000/svg">
<path fill-rule="evenodd" clip-rule="evenodd" d="M11 14.0008V12.0016C11 11.4499 10.552 11.0021 10 11.0021C9.448 11.0021 6.552 11.0021 6 11.0021C5.448 11.0021 5 11.4499 5 12.0016V14.0008C4.448 14.0008 4 14.4486 4 15.0003C4 15.5521 4.448 15.9999 5 15.9999H11C11.552 15.9999 12 15.5521 12 15.0003C12 14.4486 11.552 14.0008 11 14.0008Z" fill="url(#paint0_linear_249_27)"/>
<path fill-rule="evenodd" clip-rule="evenodd" d="M12.959 12.9943H3.041C2.234 12.9943 1.461 12.6745 0.891 12.1037C0.32 11.534 0 10.7613 0 9.95464C0 7.98251 0 5.01181 0 3.03967C0 2.23302 0.32 1.46036 0.891 0.89061C1.461 0.31986 2.234 0 3.041 0H12C12.552 0 13 0.447804 13 0.999563C13 2.10308 13.896 2.99869 15 2.99869C15.552 2.99869 16 3.44649 16 3.99825V9.99563C15.989 10.7873 15.67 11.5439 15.109 12.1037C14.539 12.6745 13.766 12.9943 12.959 12.9943ZM15 0C15.552 0 16 0.447804 16 0.999563C16 1.55132 15.552 1.99913 15 1.99913C14.448 1.99913 14 1.55132 14 0.999563C14 0.447804 14.448 0 15 0Z" fill="url(#paint1_linear_249_27)"/>
<path d="M5.19385 3.01562C5.05395 2.99997 4.86875 2.97926 4.69673 3.0479C4.31725 3.17549 4.1753 3.54959 4.21337 3.8742C4.2516 4.20042 4.47814 4.53105 4.8846 4.56016C7.13839 4.76437 9.12319 6.54146 9.56495 8.7384L9.56574 8.7424L9.56675 8.7463C9.58832 8.828 9.60089 8.9193 9.61399 9.022C9.61489 9.0291 9.6158 9.0361 9.61672 9.0432C9.62863 9.137 9.64164 9.2394 9.66373 9.3372C9.71165 9.5504 9.80848 9.7712 10.0591 9.8976C10.3063 10.0435 10.6011 10.0171 10.8278 9.8936C11.0563 9.7692 11.2379 9.5336 11.2341 9.2396V9.2351L11.2337 9.2306C11.1108 7.6996 10.4276 6.22277 9.3594 5.11491C8.28017 3.97046 6.79118 3.2201 5.22493 3.0191L5.22364 3.01892L5.22234 3.01877C5.21308 3.01777 5.20358 3.01671 5.19385 3.01562Z" fill="#279FD7" stroke="#279FD7" stroke-width="0.4"/>
<path fill-rule="evenodd" clip-rule="evenodd" d="M4.01106 6.11329C3.81905 6.10281 3.63506 6.14824 3.46972 6.24786C3.18507 6.41215 3.03618 6.70212 3.00594 6.98341C2.97595 7.2625 3.05807 7.5726 3.28526 7.7944C3.41176 7.9268 3.5621 7.9914 3.68486 8.0298C3.7471 8.0493 3.80858 8.0638 3.85989 8.0755L3.88846 8.082C3.92932 8.0913 3.9631 8.0991 3.99499 8.1076L4.00429 8.1103L4.01321 8.112C5.05874 8.3484 5.91741 9.2433 6.1151 10.2849C6.16964 10.6609 6.42834 11.0721 6.8913 11.1723C7.22568 11.2566 7.55257 11.1407 7.77496 10.9424C7.99828 10.743 8.15164 10.4276 8.08866 10.0785C7.79463 8.0688 6.06837 6.37353 4.03469 6.11543L4.02997 6.11437L4.01106 6.11329Z" fill="#279FD7"/>
<path d="M6.19385 2.01562C6.05395 1.99997 5.86875 1.97926 5.69673 2.0479C5.31725 2.17549 5.1753 2.54959 5.21337 2.8742C5.2516 3.20042 5.47814 3.53105 5.8846 3.56016C8.13839 3.76437 10.1232 5.54146 10.5649 7.7384L10.5657 7.7424L10.5667 7.7463C10.5883 7.828 10.6009 7.9193 10.614 8.022C10.6149 8.0291 10.6158 8.0361 10.6167 8.0432C10.6286 8.137 10.6416 8.2394 10.6637 8.3372C10.7116 8.5504 10.8085 8.7712 11.0591 8.8976C11.3062 9.0435 11.6011 9.0171 11.8278 8.8936C12.0562 8.7692 12.2379 8.5336 12.2341 8.2396V8.2351L12.2337 8.2306C12.1108 6.69956 11.4276 5.22277 10.3594 4.11491C9.28017 2.97046 7.79118 2.2201 6.22493 2.0191L6.22364 2.01892L6.22234 2.01877C6.21308 2.01777 6.20358 2.01671 6.19385 2.01562Z" fill="url(#paint2_linear_249_27)" stroke="url(#paint3_linear_249_27)" stroke-width="0.4"/>
<path d="M5.00014 5.31295C4.84738 5.30461 4.7026 5.34056 4.5713 5.4201C4.35039 5.54683 4.22952 5.77466 4.20478 6.00473C4.18015 6.23385 4.249 6.48109 4.42748 6.65372C4.52154 6.75328 4.6368 6.8052 4.74448 6.83887C4.79874 6.85582 4.85354 6.86886 4.90424 6.88045C4.91369 6.8826 4.92293 6.88475 4.932 6.88677C4.97327 6.89618 5.01124 6.90481 5.04835 6.91476L5.05109 6.91556L5.05385 6.91608C6.18027 7.1693 7.10134 8.1292 7.31244 9.2521C7.35754 9.5732 7.57463 9.9007 7.93689 9.9775C8.19769 10.0445 8.45955 9.9556 8.64177 9.7931C8.82438 9.6301 8.94103 9.38 8.89125 9.1108C8.61175 7.1889 6.95588 5.56081 5.00974 5.31382L5.00497 5.31322L5.00014 5.31295Z" fill="url(#paint4_linear_249_27)" stroke="url(#paint5_linear_249_27)" stroke-width="0.4"/>
<defs>
<linearGradient id="paint0_linear_249_27" x1="4.8" y1="16.0015" x2="6.00087" y2="10.234" gradientUnits="userSpaceOnUse">
<stop offset="0.190745" stop-color="#22B4FA"/>
<stop offset="0.896724" stop-color="#7DDCFF"/>
</linearGradient>
<linearGradient id="paint1_linear_249_27" x1="1.6" y1="12.9984" x2="5.5458" y2="-1.57894" gradientUnits="userSpaceOnUse">
<stop offset="0.190745" stop-color="#22B4FA"/>
<stop offset="0.896724" stop-color="#7DDCFF"/>
</linearGradient>
<linearGradient id="paint2_linear_249_27" x1="5.2074" y1="8.99695" x2="13.4701" y2="6.92246" gradientUnits="userSpaceOnUse">
<stop stop-color="#6BD6FE"/>
<stop offset="1" stop-color="white"/>
</linearGradient>
<linearGradient id="paint3_linear_249_27" x1="5.2074" y1="8.99695" x2="13.4701" y2="6.92246" gradientUnits="userSpaceOnUse">
<stop stop-color="#6BD6FE"/>
<stop offset="1" stop-color="white"/>
</linearGradient>
<linearGradient id="paint4_linear_249_27" x1="4.19995" y1="9.99999" x2="9.73066" y2="8.613" gradientUnits="userSpaceOnUse">
<stop stop-color="#6BD6FE"/>
<stop offset="1" stop-color="white"/>
</linearGradient>
<linearGradient id="paint5_linear_249_27" x1="4.19995" y1="9.99999" x2="9.73066" y2="8.613" gradientUnits="userSpaceOnUse">
<stop stop-color="#6BD6FE"/>
<stop offset="1" stop-color="white"/>
</linearGradient>
</defs>
</svg>
