<svg width="16" height="16" viewBox="0 0 16 16" fill="none" xmlns="http://www.w3.org/2000/svg">
<g clip-path="url(#clip0_72_1608)">
<circle cx="3" cy="13" r="1" fill="url(#paint0_linear_72_1608)"/>
<path fill-rule="evenodd" clip-rule="evenodd" d="M11.9007 11.7215C11.9007 11.5859 12.0039 11.4653 12.1395 11.4653H14.2581C15.2201 11.4653 15.9999 10.6653 15.9999 9.67701V5.7621C15.9999 4.77374 15.2201 3.97274 14.2581 3.97274H12.1602C11.8446 3.97274 11.5888 3.71692 11.5888 3.40132V1.78948C11.5888 0.800115 10.809 0.00012207 9.847 0.00012207H5.84198C4.87996 0.00012207 4.10022 0.800115 4.10022 1.78845V4.27957C4.10022 4.41508 3.99697 4.53477 3.86148 4.53477H1.74176C0.779736 4.53477 0 5.33476 0 6.3231V10.238C0 10.7898 0.24308 11.2833 0.625246 11.6115C0.96506 11.9033 1.43471 11.6773 1.79142 11.4063C2.12714 11.1513 2.5459 11 3 11C4.10457 11 5 11.8954 5 13C5 13.3782 4.895 13.732 4.71256 14.0336C4.55715 14.2905 4.42437 14.5867 4.53201 14.8671C4.78679 15.5306 5.41641 16 6.15286 16H10.1589C11.1209 16 11.9007 15.2 11.9007 14.2106V11.7215ZM14.5072 5.7621V9.67701C14.5072 9.81878 14.3958 9.93218 14.2581 9.93218H9.00649C8.93972 9.93112 8.87604 9.90369 8.82938 9.85589C8.78272 9.80809 8.75684 9.74381 8.75738 9.67701V6.3231C8.75738 5.33576 7.97764 4.53477 7.01562 4.53477H5.83895C5.77249 4.53291 5.70947 4.505 5.66341 4.45708C5.61738 4.40914 5.59204 4.34503 5.59287 4.27857V1.78948C5.59204 1.72251 5.61781 1.65794 5.66449 1.60992C5.71118 1.5619 5.77501 1.53434 5.84198 1.53327H9.846C9.91277 1.53434 9.97646 1.56176 10.0231 1.60956C10.0698 1.65736 10.0957 1.72165 10.0951 1.78845V7.9798C10.0951 8.40308 10.4293 8.74639 10.8414 8.74639C10.9408 8.74519 11.0391 8.72442 11.1304 8.68522C11.2218 8.64605 11.3046 8.58922 11.374 8.51802C11.4434 8.44682 11.4981 8.36265 11.535 8.27028C11.5718 8.17794 11.5901 8.07922 11.5888 7.9798V6.07733C11.5888 5.76173 11.8446 5.5059 12.1602 5.5059H14.2581C14.3251 5.50696 14.3889 5.53453 14.4356 5.58253C14.4823 5.63056 14.508 5.69513 14.5072 5.7621ZM4.4111 9.92178L4.41107 9.92796L4.4111 8.02031V9.92178ZM4.6516 7.45682C4.50367 7.5969 4.4111 7.79753 4.4111 8.02031C4.40976 7.92088 4.42801 7.82213 4.46484 7.72979C4.5017 7.63742 4.55638 7.55325 4.62581 7.48205C4.63422 7.47343 4.64282 7.46501 4.6516 7.45682ZM5.44715 7.31517C5.3559 7.27592 5.25778 7.25506 5.15844 7.25372C5.35952 7.25372 5.542 7.3354 5.67621 7.46825C5.6099 7.40368 5.53229 7.35176 5.44715 7.31517ZM10.1579 14.4668C10.2413 14.4668 10.315 14.4249 10.3602 14.3603C10.3528 14.3708 10.3444 14.3808 10.3353 14.3901C10.2886 14.4382 10.2249 14.4658 10.1579 14.4668Z" fill="url(#paint1_linear_72_1608)"/>
<path opacity="0.4" fill-rule="evenodd" clip-rule="evenodd" d="M12.0622 11.4792C12.0863 11.4703 12.1123 11.4654 12.1396 11.4654H13.4822C14.3472 11.3506 14.9999 10.5566 14.9999 9.64586V5.74352C14.9999 4.83129 14.3258 4.07919 13.4558 3.9728H12.1603C12.1179 3.9728 12.0765 3.96818 12.0368 3.95942L11.2854 3.95911C10.9699 3.95899 10.7142 3.7032 10.7142 3.38769V1.78261C10.7142 0.805875 9.7819 0.0136509 8.82058 0.000174522H5.84207C4.88005 0.000174522 4.10032 0.800167 4.10032 1.7885L4.10032 4.27962C4.10032 4.38686 4.03565 4.48419 3.94153 4.52013H4.76095C4.78581 4.529 4.81212 4.53401 4.83899 4.53476H5.83703C5.77131 4.5324 5.70909 4.50456 5.6635 4.45714C5.61748 4.40919 5.59213 4.34508 5.59296 4.27862L5.59296 1.78953C5.59213 1.72256 5.6179 1.65799 5.66459 1.60997C5.71127 1.56195 5.7751 1.53439 5.84207 1.53333H9.84609C9.91287 1.53439 9.97655 1.56181 10.0232 1.60961C10.0699 1.65741 10.0958 1.7217 10.0952 1.7885V7.97985C10.0952 8.40313 10.4294 8.74644 10.8415 8.74644C10.9409 8.74524 11.0392 8.72447 11.1305 8.68527C11.2219 8.6461 11.3047 8.58927 11.3741 8.51807C11.4435 8.44687 11.4982 8.3627 11.5351 8.27033C11.5719 8.17799 11.5902 8.07928 11.5889 7.97985V6.07738C11.5889 5.76178 11.8447 5.50596 12.1603 5.50596H14.2582C14.3252 5.50701 14.389 5.53458 14.4357 5.58258C14.4824 5.63061 14.5081 5.69518 14.5073 5.76215V9.67706C14.5073 9.81883 14.3959 9.93223 14.2582 9.93223H10.9175C10.8839 9.93715 10.8587 9.9675 10.8603 10.0026L10.9281 11.4796H11.9918C12.0173 11.4796 12.0407 11.4795 12.0622 11.4792ZM9.00473 9.93219C8.93864 9.93066 8.8757 9.9033 8.82948 9.85595C8.78282 9.80815 8.75693 9.74386 8.75748 9.67706V6.32315C8.75748 5.33581 7.97774 4.53482 7.01572 4.53482H6.0306C6.98574 4.54305 7.75742 5.33987 7.75742 6.32311V9.677C7.75688 9.7438 7.78276 9.80811 7.82942 9.85591C7.87607 9.90371 7.93976 9.93111 8.00653 9.93219H9.00473Z" fill="url(#paint2_linear_72_1608)"/>
<path fill-rule="evenodd" clip-rule="evenodd" d="M11.9282 11.4796H12.9919C13.0308 11.4796 13.0649 11.4793 13.0949 11.4787C13.1929 11.4767 13.2838 11.4776 13.3766 11.4785C13.4301 11.4791 13.4842 11.4796 13.5407 11.4796H14.2661C15.2361 11.4796 15.9999 10.6311 15.9999 9.64586V5.74352C15.9999 4.75833 15.2136 3.95991 14.2436 3.95991L12.2854 3.95911C11.9699 3.95899 11.7142 3.7032 11.7142 3.38769V1.78261C11.7142 0.797451 10.7658 0 9.79572 0H5.75627C4.78625 0 4 0.79745 4 1.78361V4.26474C4 4.41191 4.12748 4.52013 4.27465 4.52013H5.76097C5.78582 4.529 5.81213 4.53401 5.839 4.53476H7.01568C7.9777 4.53476 8.75743 5.33475 8.75743 6.32311V9.677C8.75689 9.7438 8.78278 9.80811 8.82943 9.85591C8.87609 9.90371 8.93978 9.93111 9.00655 9.93219H11.9178C11.8841 9.937 11.8587 9.96741 11.8603 10.0026L11.9282 11.4796Z" fill="url(#paint3_linear_72_1608)"/>
</g>
<defs>
<linearGradient id="paint0_linear_72_1608" x1="2.2" y1="14.0006" x2="2.92234" y2="11.8333" gradientUnits="userSpaceOnUse">
<stop offset="0.190745" stop-color="#22B4FA"/>
<stop offset="0.896724" stop-color="#7DDCFF"/>
</linearGradient>
<linearGradient id="paint1_linear_72_1608" x1="1.59999" y1="16.005" x2="7.37864" y2="-1.33313" gradientUnits="userSpaceOnUse">
<stop offset="0.190745" stop-color="#22B4FA"/>
<stop offset="0.896724" stop-color="#7DDCFF"/>
</linearGradient>
<linearGradient id="paint2_linear_72_1608" x1="14.9981" y1="5.72627" x2="6.34682" y2="1.30936" gradientUnits="userSpaceOnUse">
<stop stop-color="#4D4D4D"/>
<stop offset="1" stop-color="#979797"/>
</linearGradient>
<linearGradient id="paint3_linear_72_1608" x1="6.24998" y1="10.7613" x2="13.3602" y2="1.84161" gradientUnits="userSpaceOnUse">
<stop stop-color="#FF8860"/>
<stop offset="1" stop-color="#FBD92C"/>
</linearGradient>
<clipPath id="clip0_72_1608">
<rect width="16" height="16" fill="white"/>
</clipPath>
</defs>
</svg>
