<svg width="16" height="16" viewBox="0 0 16 16" fill="none" xmlns="http://www.w3.org/2000/svg">
<g clip-path="url(#clip0_8_587)">
<path fill-rule="evenodd" clip-rule="evenodd" d="M1 13C0.448 13 0 12.552 0 12V3.992C0 1.787 1.787 0 3.992 0C6.357 0 9.643 0 12.008 0C13.067 0 14.082 0.421001 14.831 1.169C15.579 1.918 16 2.933 16 3.992C16 6.357 16 9.643 16 12.008C16 14.213 14.213 16 12.008 16C8.751 16 4 16 4 16C3.448 16 3 15.552 3 15C3 13.896 2.104 13 1 13ZM1 14C1.552 14 2 14.448 2 15C2 15.552 1.552 16 1 16C0.448 16 0 15.552 0 15C0 14.448 0.448 14 1 14Z" fill="url(#paint0_linear_8_587)"/>
<path fill-rule="evenodd" clip-rule="evenodd" d="M4.09524 3.42859C4.24679 3.42859 4.39214 3.48879 4.4993 3.59596C4.60646 3.70312 4.66667 3.84846 4.66667 4.00002V4.9524H5.61905C5.7706 4.9524 5.91596 5.0126 6.02313 5.11977C6.13029 5.22693 6.19046 5.37227 6.19046 5.52383C6.19046 5.67538 6.13029 5.82072 6.02313 5.92789C5.91596 6.03505 5.7706 6.09526 5.61905 6.09526H4.66667V7.04764C4.66667 7.19919 4.60646 7.34455 4.4993 7.45172C4.39214 7.55888 4.24679 7.61905 4.09524 7.61905C3.94369 7.61905 3.79834 7.55888 3.69118 7.45172C3.58401 7.34455 3.52381 7.19919 3.52381 7.04764V6.09526H2.57143C2.41988 6.09526 2.27453 6.03505 2.16737 5.92789C2.0602 5.82072 2 5.67538 2 5.52383C2 5.37227 2.0602 5.22693 2.16737 5.11977C2.27453 5.0126 2.41988 4.9524 2.57143 4.9524H3.52381V4.00002C3.52381 3.84846 3.58401 3.70312 3.69118 3.59596C3.79834 3.48879 3.94369 3.42859 4.09524 3.42859ZM8.09525 5.52383C8.09525 5.37227 8.15542 5.22693 8.26259 5.11977C8.36975 5.0126 8.5151 4.9524 8.66669 4.9524H11.7143C11.8659 4.9524 12.0112 5.0126 12.1184 5.11977C12.2255 5.22693 12.2857 5.37227 12.2857 5.52383C12.2857 5.67538 12.2255 5.82072 12.1184 5.92789C12.0112 6.03505 11.8659 6.09526 11.7143 6.09526H8.66669C8.5151 6.09526 8.36975 6.03505 8.26259 5.92789C8.15542 5.82072 8.09525 5.67538 8.09525 5.52383ZM8.09525 10.0953C8.09525 9.94369 8.15542 9.79834 8.26259 9.69117C8.36975 9.58401 8.5151 9.52384 8.66669 9.52384H11.7143C11.8659 9.52384 12.0112 9.58401 12.1184 9.69117C12.2255 9.79834 12.2857 9.94369 12.2857 10.0953C12.2857 10.2468 12.2255 10.3921 12.1184 10.4993C12.0112 10.6065 11.8659 10.6667 11.7143 10.6667H8.66669C8.5151 10.6667 8.36975 10.6065 8.26259 10.4993C8.15542 10.3921 8.09525 10.2468 8.09525 10.0953ZM2.54857 9.69143C2.65571 9.58446 2.80096 9.52435 2.95238 9.52435C3.10381 9.52435 3.24905 9.58446 3.35619 9.69143L4.09524 10.4305L4.83429 9.69143C4.8866 9.63531 4.94969 9.59025 5.01978 9.55907C5.08987 9.52782 5.16554 9.51105 5.24227 9.50963C5.31899 9.50828 5.39521 9.52242 5.46636 9.55116C5.53751 9.5799 5.60215 9.62271 5.65641 9.67697C5.71067 9.73122 5.75345 9.79583 5.78219 9.867C5.81093 9.93816 5.82504 10.0143 5.82369 10.0911C5.82233 10.1678 5.80554 10.2435 5.77431 10.3136C5.74307 10.3837 5.69805 10.4467 5.6419 10.4991L4.90286 11.2381L5.6419 11.9772C5.69805 12.0295 5.74307 12.0926 5.77431 12.1626C5.80554 12.2328 5.82233 12.3084 5.82369 12.3851C5.82504 12.4619 5.81093 12.5381 5.78219 12.6092C5.75345 12.6804 5.71067 12.745 5.65641 12.7993C5.60215 12.8535 5.53751 12.8963 5.46636 12.9251C5.39521 12.9538 5.31899 12.9679 5.24227 12.9665C5.16554 12.9652 5.08987 12.9484 5.01978 12.9172C4.94969 12.886 4.8866 12.8409 4.83429 12.7848L4.09524 12.0457L3.35619 12.7848C3.24787 12.8857 3.1046 12.9407 2.95655 12.9381C2.80851 12.9354 2.66727 12.8755 2.56257 12.7708C2.45788 12.6661 2.39791 12.5248 2.39529 12.3768C2.39268 12.2288 2.44763 12.0855 2.54857 11.9772L3.28762 11.2381L2.54857 10.4991C2.44156 10.392 2.38145 10.2467 2.38145 10.0953C2.38145 9.94382 2.44156 9.7986 2.54857 9.69143ZM8.09525 12.381C8.09525 12.2294 8.15542 12.0841 8.26259 11.9769C8.36975 11.8698 8.5151 11.8095 8.66669 11.8095H11.7143C11.8659 11.8095 12.0112 11.8698 12.1184 11.9769C12.2255 12.0841 12.2857 12.2294 12.2857 12.381C12.2857 12.5325 12.2255 12.6779 12.1184 12.7851C12.0112 12.8922 11.8659 12.9524 11.7143 12.9524H8.66669C8.5151 12.9524 8.36975 12.8922 8.26259 12.7851C8.15542 12.6779 8.09525 12.5325 8.09525 12.381Z" fill="#279FD7"/>
<path fill-rule="evenodd" clip-rule="evenodd" d="M5.09524 2.28571C5.24679 2.28571 5.39214 2.34591 5.4993 2.45307C5.60646 2.56024 5.66667 2.70558 5.66667 2.85713V3.80951H6.61905C6.7706 3.80951 6.91596 3.86972 7.02313 3.97688C7.13029 4.08405 7.19046 4.22939 7.19046 4.38094C7.19046 4.5325 7.13029 4.67784 7.02313 4.78501C6.91596 4.89217 6.7706 4.95237 6.61905 4.95237H5.66667V5.90475C5.66667 6.05631 5.60646 6.20167 5.4993 6.30883C5.39214 6.416 5.24679 6.47617 5.09524 6.47617C4.94368 6.47617 4.79834 6.416 4.69118 6.30883C4.58401 6.20167 4.52381 6.05631 4.52381 5.90475V4.95237H3.57143C3.41988 4.95237 3.27453 4.89217 3.16737 4.78501C3.0602 4.67784 3 4.5325 3 4.38094C3 4.22939 3.0602 4.08405 3.16737 3.97688C3.27453 3.86972 3.41988 3.80951 3.57143 3.80951H4.52381V2.85713C4.52381 2.70558 4.58401 2.56024 4.69118 2.45307C4.79834 2.34591 4.94368 2.28571 5.09524 2.28571ZM9.09525 4.38094C9.09525 4.22939 9.15542 4.08405 9.26259 3.97688C9.36975 3.86972 9.5151 3.80951 9.66669 3.80951H12.7143C12.8659 3.80951 13.0112 3.86972 13.1184 3.97688C13.2255 4.08405 13.2857 4.22939 13.2857 4.38094C13.2857 4.5325 13.2255 4.67784 13.1184 4.78501C13.0112 4.89217 12.8659 4.95237 12.7143 4.95237H9.66669C9.5151 4.95237 9.36975 4.89217 9.26259 4.78501C9.15542 4.67784 9.09525 4.5325 9.09525 4.38094ZM9.09525 8.95239C9.09525 8.80081 9.15542 8.65546 9.26259 8.54829C9.36975 8.44113 9.5151 8.38096 9.66669 8.38096H12.7143C12.8659 8.38096 13.0112 8.44113 13.1184 8.54829C13.2255 8.65546 13.2857 8.80081 13.2857 8.95239C13.2857 9.10391 13.2255 9.24926 13.1184 9.35643C13.0112 9.46359 12.8659 9.52383 12.7143 9.52383H9.66669C9.5151 9.52383 9.36975 9.46359 9.26259 9.35643C9.15542 9.24926 9.09525 9.10391 9.09525 8.95239ZM3.54857 8.54855C3.65571 8.44158 3.80095 8.38147 3.95238 8.38147C4.10381 8.38147 4.24905 8.44158 4.35619 8.54855L5.09524 9.28764L5.83429 8.54855C5.8866 8.49243 5.94969 8.44736 6.01978 8.41618C6.08987 8.38494 6.16554 8.36816 6.24227 8.36675C6.31899 8.3654 6.39521 8.37954 6.46636 8.40828C6.53751 8.43701 6.60215 8.47983 6.65641 8.53408C6.71067 8.58834 6.75345 8.65295 6.78219 8.72411C6.81093 8.79528 6.82504 8.87146 6.82369 8.94821C6.82233 9.02491 6.80554 9.10057 6.77431 9.17071C6.74307 9.24078 6.69805 9.30384 6.6419 9.35617L5.90286 10.0952L6.6419 10.8343C6.69805 10.8866 6.74307 10.9497 6.77431 11.0198C6.80554 11.0899 6.82233 11.1656 6.82369 11.2422C6.82504 11.319 6.81093 11.3952 6.78219 11.4663C6.75345 11.5375 6.71067 11.6021 6.65641 11.6564C6.60215 11.7106 6.53751 11.7534 6.46636 11.7822C6.39521 11.8109 6.31899 11.8251 6.24227 11.8236C6.16554 11.8223 6.08987 11.8055 6.01978 11.7743C5.94969 11.7431 5.8866 11.698 5.83429 11.6419L5.09524 10.9028L4.35619 11.6419C4.24787 11.7428 4.1046 11.7978 3.95655 11.7952C3.80851 11.7925 3.66727 11.7326 3.56257 11.6279C3.45788 11.5232 3.39791 11.3819 3.39529 11.2339C3.39268 11.0859 3.44763 10.9426 3.54857 10.8343L4.28762 10.0952L3.54857 9.35617C3.44156 9.24907 3.38145 9.10378 3.38145 8.95239C3.38145 8.80093 3.44156 8.65571 3.54857 8.54855ZM9.09525 11.2381C9.09525 11.0865 9.15542 10.9412 9.26259 10.834C9.36975 10.7269 9.5151 10.6666 9.66669 10.6666H12.7143C12.8659 10.6666 13.0112 10.7269 13.1184 10.834C13.2255 10.9412 13.2857 11.0865 13.2857 11.2381C13.2857 11.3897 13.2255 11.535 13.1184 11.6422C13.0112 11.7493 12.8659 11.8095 12.7143 11.8095H9.66669C9.5151 11.8095 9.36975 11.7493 9.26259 11.6422C9.15542 11.535 9.09525 11.3897 9.09525 11.2381Z" fill="url(#paint1_linear_8_587)" stroke="url(#paint2_linear_8_587)" stroke-width="0.4"/>
</g>
<defs>
<linearGradient id="paint0_linear_8_587" x1="1.6" y1="16.005" x2="7.3787" y2="-1.33327" gradientUnits="userSpaceOnUse">
<stop offset="0.190745" stop-color="#22B4FA"/>
<stop offset="0.896724" stop-color="#7DDCFF"/>
</linearGradient>
<linearGradient id="paint1_linear_8_587" x1="3" y1="11.8237" x2="14.986" y2="8.59236" gradientUnits="userSpaceOnUse">
<stop stop-color="#6BD6FE"/>
<stop offset="1" stop-color="white"/>
</linearGradient>
<linearGradient id="paint2_linear_8_587" x1="3" y1="11.8237" x2="14.986" y2="8.59236" gradientUnits="userSpaceOnUse">
<stop stop-color="#6BD6FE"/>
<stop offset="1" stop-color="white"/>
</linearGradient>
<clipPath id="clip0_8_587">
<rect width="16" height="16" fill="white"/>
</clipPath>
</defs>
</svg>
