<svg width="16" height="16" viewBox="0 0 16 16" fill="none" xmlns="http://www.w3.org/2000/svg">
<path fill-rule="evenodd" clip-rule="evenodd" d="M4.46311 11.5338C3.0489 10.1196 1.75701 11.181 1.69337 11.2022C1.17082 11.3796 0.602306 11.0996 0.424821 10.5771C-0.523408 7.7833 0.115816 4.56738 2.34179 2.34141C5.46367 -0.780469 10.5336 -0.780469 13.6555 2.34141C16.7774 5.46328 16.7774 10.5332 13.6555 13.6551C11.4295 15.8811 8.2136 16.5203 5.41982 15.5721C4.89727 15.3946 4.61726 14.8261 4.79474 14.3035C4.81595 14.2399 5.87732 12.948 4.46311 11.5338ZM3.756 13.6551C3.36568 14.0454 2.73211 14.0454 2.34179 13.6551C1.95147 13.2648 1.95147 12.6312 2.34179 12.2409C2.73211 11.8506 3.36568 11.8506 3.756 12.2409C4.14632 12.6312 4.14632 13.2648 3.756 13.6551Z" fill="url(#paint0_linear_261_2)"/>
<path d="M8.42372 8.77698C8.42368 8.55658 8.46705 8.33831 8.55138 8.13465C8.63572 7.93101 8.75935 7.74598 8.91518 7.59011C9.07105 7.43428 9.25608 7.31065 9.45972 7.22631C9.66338 7.14198 9.88165 7.09861 10.102 7.09865C10.3224 7.09865 10.5406 7.14205 10.7443 7.22641C10.9479 7.31075 11.1329 7.43438 11.2887 7.59025C11.4445 7.74608 11.5681 7.93111 11.6524 8.13475C11.7367 8.33835 11.7801 8.55658 11.78 8.77698V9.86765C11.7801 10.088 11.7367 10.3063 11.6524 10.5099C11.5681 10.7135 11.4445 10.8985 11.2887 11.0544C11.1329 11.2102 10.9479 11.3339 10.7443 11.4182C10.5406 11.5026 10.3224 11.546 10.102 11.546C9.88165 11.546 9.66338 11.5026 9.45972 11.4183C9.25608 11.334 9.07105 11.2103 8.91518 11.0545C8.75935 10.8986 8.63572 10.7136 8.55138 10.51C8.46705 10.3063 8.42368 10.088 8.42372 9.86765M8.42372 11.546V4.83331M6.65638 9.86765C6.65642 10.088 6.61305 10.3063 6.52872 10.51C6.44438 10.7136 6.32075 10.8986 6.16492 11.0545C6.00905 11.2103 5.70363 11.4157 5.5 11.5M3.30005 10.0787L3.30005 8.77698C3.30002 8.55658 3.34338 8.33835 3.42768 8.13475C3.51198 7.93111 3.63558 7.74608 3.79142 7.59025C3.94722 7.43438 4.13222 7.31075 4.33582 7.22641C4.53945 7.14205 4.75765 7.09865 4.97805 7.09865C5.19845 7.09861 5.41672 7.14198 5.62038 7.22631C5.82402 7.31065 6.00905 7.43428 6.16492 7.59011C6.32075 7.74598 6.44438 7.93101 6.52872 8.13465C6.61305 8.33831 6.65642 8.55658 6.65638 8.77698M6.65638 7.09865V13.8113" stroke="#279FD7" stroke-width="1.5" stroke-linecap="round" stroke-linejoin="round"/>
<path d="M9.09034 7.44367C9.09031 7.22327 9.13367 7.005 9.21801 6.80133C9.30234 6.5977 9.42597 6.41267 9.58181 6.2568C9.73767 6.10097 9.92271 5.97733 10.1263 5.893C10.33 5.80867 10.5483 5.7653 10.7687 5.76533C10.9891 5.76533 11.2073 5.80873 11.4109 5.8931C11.6145 5.97743 11.7995 6.10107 11.9553 6.25693C12.1111 6.41277 12.2347 6.5978 12.319 6.80143C12.4033 7.00503 12.4467 7.22327 12.4467 7.44367V8.53433C12.4467 8.75473 12.4033 8.97297 12.319 9.17657C12.2347 9.3802 12.1111 9.56523 11.9553 9.72107C11.7995 9.87693 11.6145 10.0006 11.4109 10.0849C11.2073 10.1693 10.9891 10.2127 10.7687 10.2127C10.5483 10.2127 10.33 10.1693 10.1263 10.085C9.92271 10.0007 9.73767 9.87703 9.58181 9.7212C9.42597 9.56533 9.30234 9.3803 9.21801 9.17667C9.13367 8.973 9.09031 8.75473 9.09034 8.53433M9.09034 10.2127V3.5M7.32301 8.53433C7.32304 8.75473 7.27968 8.973 7.19534 9.17667C7.11101 9.3803 6.98738 9.56533 6.83154 9.7212C6.67568 9.87703 6.49064 10.0007 6.28701 10.085C6.08334 10.1693 5.86507 10.2127 5.64467 10.2127C5.42427 10.2127 5.20607 10.1693 5.00244 10.0849C4.79884 10.0006 4.61384 9.87693 4.45804 9.72107C4.30221 9.56523 4.17861 9.3802 4.09431 9.17657C4.01001 8.97297 3.96664 8.75473 3.96667 8.53433V7.44367C3.96664 7.22327 4.01001 7.00503 4.09431 6.80143C4.17861 6.5978 4.30221 6.41277 4.45804 6.25693C4.61384 6.10107 4.79884 5.97743 5.00244 5.8931C5.20607 5.80873 5.42427 5.76533 5.64467 5.76533C5.86507 5.7653 6.08334 5.80867 6.28701 5.893C6.49064 5.97733 6.67568 6.10097 6.83154 6.2568C6.98738 6.41267 7.11101 6.5977 7.19534 6.80133C7.27968 7.005 7.32304 7.22327 7.32301 7.44367M7.32301 5.76533V12.478" stroke="url(#paint1_linear_261_2)" stroke-width="1.5" stroke-linecap="round" stroke-linejoin="round"/>
<defs>
<linearGradient id="paint0_linear_261_2" x1="1.59969" y1="16.0019" x2="7.37727" y2="-1.33301" gradientUnits="userSpaceOnUse">
<stop offset="0.190745" stop-color="#22B4FA"/>
<stop offset="0.896724" stop-color="#7DDCFF"/>
</linearGradient>
<linearGradient id="paint1_linear_261_2" x1="3.96667" y1="12.478" x2="14.0068" y2="10.1072" gradientUnits="userSpaceOnUse">
<stop stop-color="#6BD6FE"/>
<stop offset="1" stop-color="white"/>
</linearGradient>
</defs>
</svg>
