<svg width="16" height="16" viewBox="0 0 16 16" fill="none" xmlns="http://www.w3.org/2000/svg">
<g clip-path="url(#clip0_43_1920)">
<path fill-rule="evenodd" clip-rule="evenodd" d="M8 3C10 3 10.163 1.336 10.193 1.276C10.437 0.780999 11.037 0.576999 11.532 0.820999C14.178 2.126 16 4.852 16 8C16 12.415 12.415 16 8 16C3.585 16 0 12.415 0 8C0 4.852 1.822 2.126 4.468 0.820999C4.963 0.576999 5.563 0.780999 5.807 1.276C5.837 1.336 6 3 8 3ZM7 1C7 0.448 7.448 0 8 0C8.552 0 9 0.448 9 1C9 1.552 8.552 2 8 2C7.448 2 7 1.552 7 1Z" fill="url(#paint0_linear_43_1920)"/>
<path fill-rule="evenodd" clip-rule="evenodd" d="M8.52964 15.9671C8.28929 15.9889 8.0459 16 7.79993 16C6.78855 16 5.82073 15.8119 4.92959 15.4687L5.39648 11.6301C5.03147 11.4071 4.7298 11.0941 4.52031 10.7212C4.31082 10.3482 4.20051 9.92779 4.19995 9.50004C4.19995 8.83698 4.46334 8.20108 4.9322 7.73225C5.40103 7.26339 6.03693 7 6.69999 7C7.36305 7 7.99895 7.26328 8.46778 7.73214C8.93665 8.20097 9.20003 8.83687 9.20003 9.49993C9.19947 9.92768 9.08916 10.3481 8.87967 10.7211C8.67021 11.094 8.36852 11.407 8.0035 11.63L8.52964 15.9671Z" fill="#D49F34"/>
<path d="M8.00004 6C7.33698 6 6.70108 6.26339 6.23225 6.73225C5.76339 7.20108 5.5 7.83698 5.5 8.50004C5.50056 8.92779 5.61087 9.34824 5.82036 9.72118C6.02985 10.0941 6.33152 10.4071 6.69653 10.6301L6.07501 15.74C6.70269 15.9097 7.34981 15.9971 8.00004 16C8.64971 15.9987 9.29648 15.9129 9.92405 15.745L9.30355 10.63C9.66856 10.407 9.97025 10.094 10.1797 9.72105C10.3892 9.34814 10.4995 8.92768 10.5001 8.49993C10.5001 7.83687 10.2367 7.20097 9.76783 6.73214C9.299 6.26328 8.6631 6 8.00004 6Z" fill="url(#paint1_linear_43_1920)"/>
</g>
<defs>
<linearGradient id="paint0_linear_43_1920" x1="3" y1="14.9988" x2="12.9991" y2="2.999" gradientUnits="userSpaceOnUse">
<stop stop-color="#FF8860"/>
<stop offset="1" stop-color="#FBD92C"/>
</linearGradient>
<linearGradient id="paint1_linear_43_1920" x1="6.75002" y1="13.5" x2="10.7501" y2="11.4999" gradientUnits="userSpaceOnUse">
<stop stop-color="#FBD92C"/>
<stop offset="1" stop-color="white"/>
</linearGradient>
<clipPath id="clip0_43_1920">
<rect width="16" height="16" fill="white"/>
</clipPath>
</defs>
</svg>
