<svg width="16" height="16" viewBox="0 0 16 16" fill="none" xmlns="http://www.w3.org/2000/svg">
<g clip-path="url(#clip0_41_1498)">
<path fill-rule="evenodd" clip-rule="evenodd" d="M16 15C16 14.448 15.552 14 15 14C14.448 14 14 14.448 14 15C14 15.552 14.448 16 15 16C15.552 16 16 15.552 16 15ZM13 15C13 13.896 13.896 13 15 13C15.552 13 16 12.552 16 12C16 12 16 7.216 16 3.958C16 1.772 14.228 0 12.042 0H3.958C1.772 0 0 1.772 0 3.958V12.042C0 14.228 1.772 16 3.958 16C7.216 16 12 16 12 16C12.552 16 13 15.552 13 15Z" fill="url(#paint0_linear_41_1498)"/>
<path opacity="0.6" fill-rule="evenodd" clip-rule="evenodd" d="M1.66204 13.4043C1.78705 13.6369 1.9815 13.8475 2.27041 13.9457C2.55792 14.0427 2.84266 13.9974 3.07601 13.907C3.5177 13.739 3.958 13.3435 4.36218 12.8912C4.82473 12.3729 5.31085 11.6931 5.7803 10.9397C6.68666 10.6897 7.61479 10.5141 8.55408 10.415C8.97075 10.91 9.40136 11.3365 9.81803 11.6427C10.207 11.9271 10.6556 12.1635 11.1153 12.1816C11.3658 12.1932 11.6137 12.1308 11.8237 12.0033C12.039 11.8728 12.1987 11.6841 12.3154 11.4657C12.4404 11.2317 12.5168 10.9875 12.5071 10.7381C12.4983 10.4922 12.4004 10.2562 12.2293 10.0686C11.9154 9.7197 11.4015 9.5517 10.8959 9.4677C10.2826 9.37932 9.66029 9.35763 9.04159 9.40309C8.51916 8.71586 8.06365 7.98668 7.68042 7.22417C8.02769 6.3712 8.28742 5.56475 8.40269 4.90565C8.45269 4.62391 8.47908 4.3551 8.46936 4.11213C8.46763 3.87096 8.40731 3.63327 8.29297 3.41684C8.22705 3.29739 8.13345 3.1931 8.01881 3.1115C7.90423 3.02991 7.77154 2.97308 7.63042 2.94513C7.34986 2.88956 7.06097 2.94513 6.79564 3.04464C6.27202 3.23849 5.99563 3.65205 5.89146 4.10826C5.79002 4.54766 5.8359 5.05944 5.95535 5.57638C6.07757 6.10106 6.28591 6.67231 6.55258 7.25001C6.12599 8.23711 5.63332 9.19835 5.07751 10.1281C4.36168 10.3377 3.6717 10.6171 3.01906 10.9617C2.50514 11.246 2.04818 11.582 1.77316 11.9787C1.48147 12.4001 1.39119 12.9015 1.66204 13.4043ZM4.18579 11.489C3.95524 11.5872 3.74273 11.6906 3.54827 11.7966C3.09269 12.0473 2.79684 12.2916 2.64961 12.5048C2.51905 12.6909 2.51628 12.8279 2.59405 12.97C2.60422 12.99 2.61631 13.009 2.63017 13.0269C2.64674 13.0228 2.66298 13.0176 2.67878 13.0114C2.86907 12.939 3.17187 12.7077 3.56077 12.2722C3.78245 12.0206 3.99105 11.7592 4.18579 11.489ZM6.46369 9.76886C6.62902 9.73267 6.79291 9.70037 6.95819 9.66806C7.26097 9.6112 7.56514 9.56209 7.86658 9.52074C7.61395 9.16046 7.37763 8.79049 7.15819 8.41189C6.94018 8.87006 6.70858 9.3226 6.46369 9.76886ZM9.86114 10.3517C10.0476 10.5425 10.2496 10.7197 10.4653 10.8816C10.7986 11.1271 11.032 11.2086 11.157 11.2125C11.1904 11.2162 11.2242 11.2094 11.2529 11.1931C11.3105 11.1509 11.3554 11.0958 11.3834 11.0328C11.4333 10.9542 11.4619 10.8655 11.4668 10.7743C11.4663 10.7435 11.4534 10.714 11.4306 10.6916C11.3584 10.6115 11.1515 10.4952 10.7111 10.4215C10.4639 10.3802 10.1778 10.3582 9.86114 10.3517ZM7.09708 5.81939C7.22486 5.42523 7.3193 5.06336 7.37486 4.74803V4.74932C7.41791 4.50636 7.43458 4.30604 7.42764 4.14837C7.42208 4.01138 7.40125 3.93125 7.38319 3.89248C7.31375 3.90049 7.24589 3.9179 7.1818 3.94417C7.06235 3.98941 6.96235 4.08117 6.90957 4.30992C6.85263 4.55805 6.86791 4.91604 6.97347 5.37224C7.00878 5.52265 7.05 5.6718 7.09708 5.81939Z" fill="#D84F4F"/>
<path fill-rule="evenodd" clip-rule="evenodd" d="M2.65411 12.4812C2.77911 12.7138 2.97357 12.9244 3.26248 13.0226C3.54999 13.1196 3.83473 13.0743 4.06807 12.9839C4.50976 12.8159 4.95007 12.4204 5.35425 11.9681C5.8168 11.4499 6.30292 10.7701 6.77236 10.0166C7.67872 9.76658 8.60686 9.59101 9.54615 9.49192C9.96282 9.98687 10.3934 10.4134 10.8101 10.7197C11.199 11.004 11.6477 11.2405 12.1074 11.2585C12.3578 11.2701 12.6058 11.2077 12.8158 11.0802C13.0311 10.9497 13.1908 10.761 13.3074 10.5426C13.4325 10.3087 13.5089 10.0644 13.4992 9.81499C13.4903 9.56908 13.3925 9.33315 13.2213 9.14553C12.9074 8.79661 12.3935 8.62861 11.8879 8.54461C11.2746 8.45622 10.6524 8.43453 10.0337 8.47999C9.51123 7.79276 9.05572 7.06358 8.67248 6.30107C9.01976 5.4481 9.27948 4.64165 9.39476 3.98255C9.44476 3.70081 9.47115 3.432 9.46143 3.18904C9.45969 2.94787 9.39937 2.71017 9.28504 2.49374C9.21911 2.3743 9.12551 2.27 9.01088 2.18841C8.89629 2.10682 8.7636 2.04998 8.62248 2.02203C8.34192 1.96646 8.05303 2.02203 7.7877 2.12154C7.26409 2.3154 6.98769 2.72895 6.88353 3.18516C6.78209 3.62456 6.82797 4.13634 6.94742 4.65329C7.06964 5.17797 7.27797 5.74921 7.54464 6.32692C7.11805 7.31401 6.62539 8.27525 6.06958 9.20498C5.35375 9.41456 4.66377 9.69398 4.01113 10.0386C3.49721 10.3229 3.04024 10.6589 2.76522 11.0557C2.47354 11.477 2.38326 11.9784 2.65411 12.4812ZM5.17786 10.5659C4.94731 10.6641 4.7348 10.7675 4.54034 10.8735C4.08476 11.1242 3.78891 11.3685 3.64168 11.5817C3.51112 11.7678 3.50834 11.9048 3.58612 12.0469C3.59628 12.0669 3.60837 12.0859 3.62224 12.1038C3.63881 12.0997 3.65505 12.0945 3.67085 12.0883C3.86114 12.0159 4.16393 11.7846 4.55284 11.3491C4.77451 11.0975 4.98311 10.8361 5.17786 10.5659ZM7.45575 8.84576C7.62108 8.80958 7.78497 8.77727 7.95025 8.74496C8.25303 8.6881 8.5572 8.63899 8.85864 8.59764C8.60601 8.23736 8.3697 7.86739 8.15025 7.48879C7.93225 7.94696 7.70065 8.3995 7.45575 8.84576ZM10.8532 9.42864C11.0397 9.61939 11.2417 9.79658 11.4574 9.95848C11.7907 10.204 12.0241 10.2855 12.1491 10.2894C12.1825 10.2931 12.2163 10.2863 12.2449 10.27C12.3025 10.2278 12.3475 10.1727 12.3755 10.1097C12.4253 10.0311 12.454 9.94238 12.4588 9.85122C12.4584 9.82044 12.4455 9.7909 12.4227 9.76852C12.3505 9.68839 12.1435 9.57208 11.7032 9.49842C11.456 9.45707 11.1699 9.4351 10.8532 9.42864ZM8.08914 4.89629C8.21692 4.50213 8.31137 4.14027 8.36692 3.82493V3.82622C8.40998 3.58326 8.42665 3.38294 8.4197 3.22527C8.41415 3.08828 8.39331 3.00816 8.37526 2.96939C8.30581 2.97739 8.23795 2.9948 8.17386 3.02108C8.05442 3.06631 7.95442 3.15807 7.90164 3.38682C7.8447 3.63495 7.85997 3.99294 7.96553 4.44914C8.00085 4.59956 8.04207 4.74871 8.08914 4.89629Z" fill="url(#paint1_linear_41_1498)"/>
</g>
<defs>
<linearGradient id="paint0_linear_41_1498" x1="3" y1="14" x2="13" y2="2" gradientUnits="userSpaceOnUse">
<stop stop-color="#FF405B"/>
<stop offset="1" stop-color="#FF8860"/>
</linearGradient>
<linearGradient id="paint1_linear_41_1498" x1="5.63596" y1="13.0767" x2="9.26719" y2="4.485" gradientUnits="userSpaceOnUse">
<stop stop-color="#FF8860"/>
<stop offset="1" stop-color="white"/>
</linearGradient>
<clipPath id="clip0_41_1498">
<rect width="16" height="16" fill="white"/>
</clipPath>
</defs>
</svg>
