<svg width="16" height="16" viewBox="0 0 16 16" fill="none" xmlns="http://www.w3.org/2000/svg">
<g clip-path="url(#clip0_8_557)">
<path fill-rule="evenodd" clip-rule="evenodd" d="M1 13C0.448 13 0 12.552 0 12V3.992C0 1.787 1.787 0 3.992 0C6.357 0 9.643 0 12.008 0C13.067 0 14.082 0.421001 14.831 1.169C15.579 1.918 16 2.933 16 3.992C16 6.357 16 9.643 16 12.008C16 14.213 14.213 16 12.008 16C8.751 16 4 16 4 16C3.448 16 3 15.552 3 15C3 13.896 2.104 13 1 13ZM1 14C1.552 14 2 14.448 2 15C2 15.552 1.552 16 1 16C0.448 16 0 15.552 0 15C0 14.448 0.448 14 1 14Z" fill="url(#paint0_linear_8_557)"/>
<path d="M12.3912 3.76518C12.1518 3.08908 11.4908 2.66982 10.7936 2.75343C10.6328 2.77805 10.4767 2.82671 10.3304 2.8978C10.1764 2.96637 9.98937 3.06201 9.75899 3.18051L8.27083 3.94263C8.1 4.03045 7.96586 4.09903 7.85097 4.18925C7.55429 4.42352 7.3529 4.75767 7.28434 5.12942C7.25728 5.27499 7.25728 5.42838 7.25728 5.62447V9.53794C6.77843 9.07316 6.13749 8.81299 5.47017 8.81251C4.02653 8.81372 2.85718 10.0131 2.85718 11.4929C2.85718 12.972 4.02653 14.1714 5.46957 14.1714C6.91201 14.1714 8.08196 12.972 8.08196 11.4923V7.66482C8.34061 7.80076 8.63896 7.86031 8.94453 7.82422C9.10153 7.80497 9.25371 7.74903 9.4083 7.67986C9.56169 7.61128 9.74876 7.51504 9.97914 7.39714L11.4679 6.63322C11.6393 6.546 11.7729 6.47742 11.8878 6.3878C12.1825 6.15621 12.3846 5.82117 12.4544 5.44703C12.4815 5.30146 12.4815 5.14867 12.4815 4.95198V4.90566C12.4815 4.64159 12.4815 4.42685 12.4724 4.25602C12.469 4.08956 12.4417 3.92445 12.3912 3.76578" fill="#8CC860"/>
<path d="M13.534 2.62236C13.2946 1.94626 12.6336 1.527 11.9364 1.61061C11.7757 1.63522 11.6195 1.68389 11.4732 1.75497C11.3193 1.82355 11.1322 1.91919 10.9018 2.03769L9.41365 2.79981C9.24282 2.88763 9.10869 2.9562 8.9938 3.04643C8.69711 3.2807 8.49572 3.61485 8.42717 3.9866C8.4001 4.13217 8.4001 4.28556 8.4001 4.48165V8.39512C7.92125 7.93034 7.28031 7.67016 6.61299 7.66969C5.16935 7.67089 4 8.87032 4 10.3501C4 11.8292 5.16935 13.0286 6.61239 13.0286C8.05483 13.0286 9.22478 11.8292 9.22478 10.3495V6.522C9.48343 6.65794 9.78178 6.71749 10.0874 6.6814C10.2443 6.66215 10.3965 6.60621 10.5511 6.53703C10.7045 6.46846 10.8916 6.37222 11.122 6.25432L12.6107 5.4904C12.7822 5.40318 12.9157 5.3346 13.0306 5.24498C13.3253 5.01339 13.5274 4.67835 13.5972 4.3042C13.6243 4.15864 13.6243 4.00585 13.6243 3.80915V3.76284C13.6243 3.49877 13.6243 3.28403 13.6153 3.1132C13.6119 2.94674 13.5845 2.78163 13.534 2.62296" fill="url(#paint1_linear_8_557)"/>
</g>
<defs>
<linearGradient id="paint0_linear_8_557" x1="1.14286" y1="16" x2="11.7135" y2="0.624479" gradientUnits="userSpaceOnUse">
<stop stop-color="#9BE862"/>
<stop offset="1" stop-color="#C8FF9F"/>
</linearGradient>
<linearGradient id="paint1_linear_8_557" x1="5.20303" y1="13.0286" x2="14.5593" y2="6.13433" gradientUnits="userSpaceOnUse">
<stop stop-color="#C8FF9F"/>
<stop offset="1" stop-color="white"/>
</linearGradient>
<clipPath id="clip0_8_557">
<rect width="16" height="16" fill="white"/>
</clipPath>
</defs>
</svg>
