<svg width="17" height="16" viewBox="0 0 17 16" fill="none" xmlns="http://www.w3.org/2000/svg">
<path fill-rule="evenodd" clip-rule="evenodd" d="M13 8C13 10 14.664 10.163 14.724 10.193C15.219 10.437 15.423 11.037 15.179 11.532C13.8741 14.1779 11.148 16 8 16C3.58501 16 0 12.415 0 8C0 3.58501 3.58501 0 8 0C11.148 0 13.8741 1.822 15.179 4.468C15.423 4.96299 15.219 5.56301 14.724 5.80701C14.664 5.83701 13 6 13 8ZM15 7C15.552 7 16 7.448 16 8C16 8.552 15.552 9 15 9C14.448 9 14 8.552 14 8C14 7.448 14.448 7 15 7Z" fill="url(#paint0_linear_44_213)"/>
<g opacity="0.7">
<path d="M9.29366 10.9708C9.47557 11.1816 9.81118 11.287 10.3007 11.287C10.5058 11.287 10.7996 11.2518 11.1818 11.1816L11.1399 10.4702L10.4312 10.4966C10.2215 10.4966 10.0862 10.4439 10.035 10.3342C9.9837 10.2287 9.95575 10.0092 9.95575 9.67547V7.87951H11.1492V7.11986H9.95575V5.93428H9.01865V7.11986H8.35668V7.87513H9.01865V9.7721C9.01865 10.3605 9.11188 10.7601 9.29366 10.9708Z" fill="url(#paint1_linear_44_213)"/>
<path fill-rule="evenodd" clip-rule="evenodd" d="M6.71096 12.5297L7.60142 12.1388L6.8788 11.0368C7.21447 10.826 7.45216 10.5187 7.60142 10.1147C7.74593 9.71503 7.82053 9.18813 7.82053 8.53388C7.82053 7.54149 7.64338 6.80819 7.28438 6.33393C6.93008 5.85536 6.30538 5.61816 5.41492 5.61816C4.52447 5.61816 3.89977 5.85961 3.54078 6.33825C3.18184 6.8169 3 7.55019 3 8.53814C3 9.52183 3.17715 10.2464 3.53146 10.703C3.88577 11.1597 4.51515 11.388 5.41492 11.388C5.65736 11.388 5.82983 11.3704 5.94176 11.3396L6.71096 12.5297ZM4.29887 6.89262C4.50274 6.5501 4.87334 6.38103 5.41066 6.38103C5.94805 6.38103 6.31864 6.55004 6.51782 6.89262C6.71707 7.23521 6.81431 7.7824 6.81431 8.53871C6.81431 9.29058 6.71707 9.82889 6.52714 10.1448C6.33253 10.4607 5.96193 10.6208 5.41066 10.6208C4.8594 10.6208 4.48417 10.4562 4.28962 10.1359C4.09506 9.81556 3.99776 9.27725 3.99776 8.52983C3.99776 7.77796 4.09969 7.23521 4.29887 6.89262Z" fill="url(#paint2_linear_44_213)"/>
<path d="M9.29366 10.9708C9.47557 11.1816 9.81118 11.287 10.3007 11.287C10.5058 11.287 10.7996 11.2518 11.1818 11.1816L11.1399 10.4702L10.4312 10.4966C10.2215 10.4966 10.0862 10.4439 10.035 10.3342C9.9837 10.2287 9.95575 10.0092 9.95575 9.67547V7.87951H11.1492V7.11986H9.95575V5.93428H9.01865V7.11986H8.35668V7.87513H9.01865V9.7721C9.01865 10.3605 9.11188 10.7601 9.29366 10.9708Z" stroke="url(#paint3_linear_44_213)" stroke-width="0.4"/>
<path fill-rule="evenodd" clip-rule="evenodd" d="M6.71096 12.5297L7.60142 12.1388L6.8788 11.0368C7.21447 10.826 7.45216 10.5187 7.60142 10.1147C7.74593 9.71503 7.82053 9.18813 7.82053 8.53388C7.82053 7.54149 7.64338 6.80819 7.28438 6.33393C6.93008 5.85536 6.30538 5.61816 5.41492 5.61816C4.52447 5.61816 3.89977 5.85961 3.54078 6.33825C3.18184 6.8169 3 7.55019 3 8.53814C3 9.52183 3.17715 10.2464 3.53146 10.703C3.88577 11.1597 4.51515 11.388 5.41492 11.388C5.65736 11.388 5.82983 11.3704 5.94176 11.3396L6.71096 12.5297ZM4.29887 6.89262C4.50274 6.5501 4.87334 6.38103 5.41066 6.38103C5.94805 6.38103 6.31864 6.55004 6.51782 6.89262C6.71707 7.23521 6.81431 7.7824 6.81431 8.53871C6.81431 9.29058 6.71707 9.82889 6.52714 10.1448C6.33253 10.4607 5.96193 10.6208 5.41066 10.6208C4.8594 10.6208 4.48417 10.4562 4.28962 10.1359C4.09506 9.81556 3.99776 9.27725 3.99776 8.52983C3.99776 7.77796 4.09969 7.23521 4.29887 6.89262Z" stroke="url(#paint4_linear_44_213)" stroke-width="0.4"/>
</g>
<path d="M10.1119 10.1527C10.2938 10.3634 10.6294 10.4688 11.119 10.4688C11.2597 10.4688 11.4422 10.4523 11.6664 10.4192C11.8575 10.391 11.9915 10.2186 11.9801 10.0258V10.0258C11.9679 9.81807 11.7919 9.65825 11.584 9.66599L11.2495 9.67846C11.0397 9.67846 10.9044 9.62576 10.8532 9.51599C10.8019 9.41054 10.774 9.191 10.774 8.8573V7.46133C10.774 7.24042 10.9531 7.06133 11.174 7.06133H11.5876C11.7974 7.06133 11.9674 6.89128 11.9674 6.68151V6.68151C11.9674 6.47174 11.7974 6.30169 11.5876 6.30169H11.174C10.9531 6.30169 10.774 6.1226 10.774 5.90169V5.5161C10.774 5.29519 10.5949 5.1161 10.374 5.1161H10.2369C10.016 5.1161 9.83688 5.29519 9.83688 5.5161V5.9707C9.83688 6.1535 9.6887 6.30169 9.5059 6.30169V6.30169C9.32311 6.30169 9.17492 6.44987 9.17492 6.63267V6.72597C9.17492 6.90876 9.32311 7.05695 9.5059 7.05695V7.05695C9.6887 7.05695 9.83688 7.20513 9.83688 7.38793V8.95393C9.83688 9.54228 9.93012 9.94194 10.1119 10.1527Z" fill="url(#paint5_linear_44_213)"/>
<path fill-rule="evenodd" clip-rule="evenodd" d="M7.34434 11.4255C7.45089 11.5903 7.6613 11.6535 7.84103 11.5746L7.98657 11.5107C8.21315 11.4113 8.29599 11.1321 8.16031 10.9251L7.92073 10.5598C7.79791 10.3725 7.85774 10.1237 8.01325 9.96247C8.18793 9.7814 8.32252 9.55942 8.41966 9.29651C8.56417 8.89685 8.63877 8.36996 8.63877 7.71571C8.63877 6.72331 8.46162 5.99002 8.10262 5.51576C7.74831 5.03718 7.12362 4.79999 6.23316 4.79999C5.34271 4.79999 4.71801 5.04144 4.35901 5.52008C4.00008 5.99872 3.81824 6.73201 3.81824 7.71996C3.81824 8.70365 3.99539 9.42819 4.3497 9.8848C4.704 10.3415 5.33339 10.5698 6.23316 10.5698C6.32126 10.5698 6.40011 10.5675 6.47018 10.5631C6.64442 10.5521 6.82444 10.6212 6.91922 10.7678L7.34434 11.4255ZM5.11711 6.07445C5.32098 5.73193 5.69158 5.56286 6.2289 5.56286C6.76628 5.56286 7.13688 5.73186 7.33606 6.07445C7.5353 6.41703 7.63255 6.96422 7.63255 7.72054C7.63255 8.4724 7.53531 9.01071 7.34538 9.32658C7.15076 9.6425 6.78017 9.80263 6.2289 9.80263C5.67763 9.80263 5.30241 9.638 5.10785 9.31769C4.9133 8.99738 4.81599 8.45908 4.81599 7.71165C4.81599 6.95978 4.91793 6.41703 5.11711 6.07445Z" fill="url(#paint6_linear_44_213)"/>
<path d="M10.1119 10.1527C10.2938 10.3634 10.6294 10.4688 11.119 10.4688C11.2597 10.4688 11.4422 10.4523 11.6664 10.4192C11.8575 10.391 11.9915 10.2186 11.9801 10.0258V10.0258C11.9679 9.81807 11.7919 9.65825 11.584 9.66599L11.2495 9.67846C11.0397 9.67846 10.9044 9.62576 10.8532 9.51599C10.8019 9.41054 10.774 9.191 10.774 8.8573V7.46133C10.774 7.24042 10.9531 7.06133 11.174 7.06133H11.5876C11.7974 7.06133 11.9674 6.89128 11.9674 6.68151V6.68151C11.9674 6.47174 11.7974 6.30169 11.5876 6.30169H11.174C10.9531 6.30169 10.774 6.1226 10.774 5.90169V5.5161C10.774 5.29519 10.5949 5.1161 10.374 5.1161H10.2369C10.016 5.1161 9.83688 5.29519 9.83688 5.5161V5.9707C9.83688 6.1535 9.6887 6.30169 9.5059 6.30169V6.30169C9.32311 6.30169 9.17492 6.44987 9.17492 6.63267V6.72597C9.17492 6.90876 9.32311 7.05695 9.5059 7.05695V7.05695C9.6887 7.05695 9.83688 7.20513 9.83688 7.38793V8.95393C9.83688 9.54228 9.93012 9.94194 10.1119 10.1527Z" stroke="url(#paint7_linear_44_213)" stroke-width="0.4"/>
<path fill-rule="evenodd" clip-rule="evenodd" d="M7.34434 11.4255C7.45089 11.5903 7.6613 11.6535 7.84103 11.5746L7.98657 11.5107C8.21315 11.4113 8.29599 11.1321 8.16031 10.9251L7.92073 10.5598C7.79791 10.3725 7.85774 10.1237 8.01325 9.96247C8.18793 9.7814 8.32252 9.55942 8.41966 9.29651C8.56417 8.89685 8.63877 8.36996 8.63877 7.71571C8.63877 6.72331 8.46162 5.99002 8.10262 5.51576C7.74831 5.03718 7.12362 4.79999 6.23316 4.79999C5.34271 4.79999 4.71801 5.04144 4.35901 5.52008C4.00008 5.99872 3.81824 6.73201 3.81824 7.71996C3.81824 8.70365 3.99539 9.42819 4.3497 9.8848C4.704 10.3415 5.33339 10.5698 6.23316 10.5698C6.32126 10.5698 6.40011 10.5675 6.47018 10.5631C6.64442 10.5521 6.82444 10.6212 6.91922 10.7678L7.34434 11.4255ZM5.11711 6.07445C5.32098 5.73193 5.69158 5.56286 6.2289 5.56286C6.76628 5.56286 7.13688 5.73186 7.33606 6.07445C7.5353 6.41703 7.63255 6.96422 7.63255 7.72054C7.63255 8.4724 7.53531 9.01071 7.34538 9.32658C7.15076 9.6425 6.78017 9.80263 6.2289 9.80263C5.67763 9.80263 5.30241 9.638 5.10785 9.31769C4.9133 8.99738 4.81599 8.45908 4.81599 7.71165C4.81599 6.95978 4.91793 6.41703 5.11711 6.07445Z" stroke="url(#paint8_linear_44_213)" stroke-width="0.4"/>
<defs>
<linearGradient id="paint0_linear_44_213" x1="-1" y1="18" x2="14" y2="0.999999" gradientUnits="userSpaceOnUse">
<stop stop-color="#2AC5AF"/>
<stop offset="1" stop-color="#86FF9A"/>
</linearGradient>
<linearGradient id="paint1_linear_44_213" x1="2.48864" y1="13.3936" x2="8.74678" y2="4.99746" gradientUnits="userSpaceOnUse">
<stop stop-color="#219989"/>
<stop offset="1" stop-color="#9ED5A7"/>
</linearGradient>
<linearGradient id="paint2_linear_44_213" x1="2.48864" y1="13.3936" x2="8.74678" y2="4.99746" gradientUnits="userSpaceOnUse">
<stop stop-color="#219989"/>
<stop offset="1" stop-color="#9ED5A7"/>
</linearGradient>
<linearGradient id="paint3_linear_44_213" x1="2.48864" y1="13.3936" x2="8.74678" y2="4.99746" gradientUnits="userSpaceOnUse">
<stop stop-color="#219989"/>
<stop offset="1" stop-color="#9ED5A7"/>
</linearGradient>
<linearGradient id="paint4_linear_44_213" x1="2.48864" y1="13.3936" x2="8.74678" y2="4.99746" gradientUnits="userSpaceOnUse">
<stop stop-color="#219989"/>
<stop offset="1" stop-color="#9ED5A7"/>
</linearGradient>
<linearGradient id="paint5_linear_44_213" x1="3.81824" y1="11.7115" x2="13.2219" y2="8.9285" gradientUnits="userSpaceOnUse">
<stop stop-color="#A1FFC7"/>
<stop offset="1" stop-color="white"/>
</linearGradient>
<linearGradient id="paint6_linear_44_213" x1="3.81824" y1="11.7115" x2="13.2219" y2="8.9285" gradientUnits="userSpaceOnUse">
<stop stop-color="#A1FFC7"/>
<stop offset="1" stop-color="white"/>
</linearGradient>
<linearGradient id="paint7_linear_44_213" x1="3.81824" y1="11.7115" x2="13.2219" y2="8.9285" gradientUnits="userSpaceOnUse">
<stop stop-color="#A1FFC7"/>
<stop offset="1" stop-color="white"/>
</linearGradient>
<linearGradient id="paint8_linear_44_213" x1="3.81824" y1="11.7115" x2="13.2219" y2="8.9285" gradientUnits="userSpaceOnUse">
<stop stop-color="#A1FFC7"/>
<stop offset="1" stop-color="white"/>
</linearGradient>
</defs>
</svg>
