<svg width="17" height="16" viewBox="0 0 17 16" fill="none" xmlns="http://www.w3.org/2000/svg">
<path fill-rule="evenodd" clip-rule="evenodd" d="M4 1C4 0.448 4.448 0 5 0H13.008C15.213 0 17 1.787 17 3.992C17 6.357 17 9.643 17 12.008C17 13.067 16.579 14.082 15.831 14.831C15.082 15.579 14.067 16 13.008 16C10.643 16 7.357 16 4.992 16C2.787 16 1 14.213 1 12.008C1 8.751 1 4 1 4C1 3.448 1.448 3 2 3C3.104 3 4 2.104 4 1ZM3 1C3 1.552 2.552 2 2 2C1.448 2 1 1.552 1 1C1 0.448 1.448 0 2 0C2.552 0 3 0.448 3 1Z" fill="url(#paint0_linear_243_262)"/>
<path d="M15.3993 7.92628C15.9519 7.92628 16.4007 7.4781 16.4091 6.9256C16.414 6.60279 16.4193 6.29665 16.4203 6.0061C16.4223 5.47624 15.9861 5.06269 15.4562 5.06269H14C13.4478 5.06269 13 5.5104 13 6.06269V6.92628C13 7.47856 13.4478 7.92628 14 7.92628H15.3993ZM15.1777 3.83545C15.7914 3.83545 16.2593 3.24211 15.8089 2.82525C15.5344 2.57118 15.2038 2.38227 14.9205 2.09216C14.6614 1.82674 14.4364 1.72808 14.1674 1.68099C13.5608 1.57478 13 2.11536 13 2.73122V2.83544C13 3.38773 13.4478 3.83545 14 3.83545H15.1777ZM13 14.8247C13 15.4409 13.5566 15.9539 14.1718 15.9192C14.5838 15.896 14.9297 15.8297 15.2288 15.5237C15.5459 15.1995 15.8081 14.8217 16.0029 14.3666C16.2444 13.8024 15.7616 13.2443 15.1479 13.2443H14C13.4477 13.2443 13 13.692 13 14.2443L13 14.8247ZM15.3993 9.15352C15.9519 9.15352 16.3997 9.60179 16.3997 10.1544C16.3997 10.4527 16.3998 10.7345 16.3999 11.0171C16.4 11.5694 15.9524 12.0171 15.4001 12.0171H14C13.4478 12.0171 13 11.5694 13 11.0171V10.1535C13 9.60123 13.4478 9.15352 14 9.15352H15.3993ZM3.37972 11.2832C3.37972 11.8355 2.93201 12.2832 2.37972 12.2832H1.94406C1.41419 12.2832 0.978088 11.8697 0.980143 11.3398C0.981269 11.0495 0.986612 10.7436 0.991506 10.4211C0.999893 9.86829 1.44879 9.41967 2.00163 9.41967H2.37972C2.93201 9.41967 3.37972 9.86739 3.37972 10.4197V11.2832ZM0.991445 7.191C0.999956 7.74378 1.44883 8.19243 2.00168 8.19243H2.37972C2.93201 8.19243 3.37972 7.74472 3.37972 7.19243V6.3413C3.37972 5.78417 2.92443 5.33448 2.36735 5.34137L1.9324 5.34676C1.40734 5.35326 0.978157 5.76499 0.980177 6.29008C0.981273 6.57476 0.986565 6.87408 0.991445 7.191Z" fill="#D84F4F"/>
<path d="M4.38229 13.722V14.8421C4.38229 15.4584 3.81993 15.9481 3.24767 15.7195C2.81971 15.5485 2.46229 15.3164 2.15429 15.0014C1.83925 14.6793 1.6088 14.3042 1.44035 13.853C1.22581 13.2783 1.71357 12.722 2.32695 12.722H3.38229C3.93457 12.722 4.38229 13.1698 4.38229 13.722Z" fill="url(#paint1_linear_243_262)"/>
<path d="M1.98134 11.4948H3.38229C3.93457 11.4948 4.38229 11.0471 4.38229 10.4948V9.63124C4.38229 9.07895 3.93457 8.63124 3.38229 8.63124H1.98372C1.43088 8.63124 0.981884 9.07985 0.986485 9.63267C0.989171 9.95535 0.993499 10.2614 1.00056 10.5518C1.01344 11.0815 1.45148 11.4948 1.98134 11.4948Z" fill="url(#paint2_linear_243_262)"/>
<path d="M3.38229 7.40399H1.98372C1.43088 7.40399 0.981884 6.95538 0.986485 6.40255C0.989171 6.07987 0.993499 5.77386 1.00056 5.48342C1.01344 4.95371 1.45148 4.54041 1.98134 4.54041H3.38229C3.93457 4.54041 4.38229 4.98812 4.38229 5.54041V6.40399C4.38229 6.95628 3.93457 7.40399 3.38229 7.40399Z" fill="url(#paint3_linear_243_262)"/>
<path d="M17.0026 5.48377C17.0015 5.77432 16.9962 6.08046 16.9913 6.40327C16.9829 6.95577 16.5341 7.40395 15.9816 7.40395H14.5823C14.03 7.40395 13.5823 6.95623 13.5823 6.40395V5.54036C13.5823 4.98807 14.03 4.54036 14.5823 4.54036H16.0385C16.5683 4.54036 17.0045 4.95391 17.0026 5.48377Z" fill="url(#paint4_linear_243_262)"/>
<path d="M15.8111 1.03453C16.1284 1.3595 16.4011 1.738 16.6047 2.1942C16.8547 2.75466 16.3736 3.31312 15.7599 3.31312H14.5823C14.03 3.31312 13.5823 2.8654 13.5823 2.31312V1.24415C13.5823 0.628288 14.1433 0.135592 14.7214 0.347865C15.1478 0.504428 15.504 0.720028 15.8111 1.03453Z" fill="url(#paint5_linear_243_262)"/>
<path d="M15.8111 15.0014C15.5039 15.3155 15.1476 15.5346 14.721 15.6944C14.144 15.9106 13.5823 15.4185 13.5823 14.8023V13.722C13.5823 13.1697 14.03 12.722 14.5823 12.722H15.7301C16.3438 12.722 16.8267 13.2801 16.5852 13.8442C16.3903 14.2993 16.1281 14.6771 15.8111 15.0014Z" fill="url(#paint6_linear_243_262)"/>
<path d="M16.9821 10.4948L16.9819 9.63202C16.9819 9.07946 16.5341 8.63119 15.9816 8.63119H14.5823C14.03 8.63119 13.5823 9.0789 13.5823 9.63119V10.4948C13.5823 11.047 14.03 11.4948 14.5823 11.4948H15.9823C16.5346 11.4948 16.9823 11.0471 16.9821 10.4948Z" fill="url(#paint7_linear_243_262)"/>
<path d="M9.97262 8.99988C9.97262 8.57748 9.53899 8.29268 8.67256 7.72308C7.79467 7.14628 7.35532 6.85748 7.02806 7.06948C6.69995 7.28148 6.69995 7.85348 6.69995 8.99988C6.69995 10.1455 6.69995 10.7183 7.02724 10.9303C7.3545 11.1423 7.79467 10.8535 8.67256 10.2767C9.53981 9.70708 9.97262 9.42228 9.97262 8.99988Z" fill="#D84F4F"/>
<path d="M10.6363 8.00012C10.6363 7.57772 10.2027 7.29292 9.33626 6.72332C8.45837 6.14652 8.01902 5.85772 7.69175 6.06972C7.36365 6.28172 7.36365 6.85372 7.36365 8.00012C7.36365 9.14572 7.36365 9.71852 7.69094 9.93052C8.0182 10.1425 8.45837 9.85372 9.33626 9.27692C10.2035 8.70732 10.6363 8.42252 10.6363 8.00012Z" fill="url(#paint8_linear_243_262)"/>
<defs>
<linearGradient id="paint0_linear_243_262" x1="4" y1="14" x2="14" y2="2" gradientUnits="userSpaceOnUse">
<stop stop-color="#FF405B"/>
<stop offset="1" stop-color="#FF8860"/>
</linearGradient>
<linearGradient id="paint1_linear_243_262" x1="1.95631" y1="15.7765" x2="6.8262" y2="12.2723" gradientUnits="userSpaceOnUse">
<stop stop-color="#FF8860"/>
<stop offset="1" stop-color="white"/>
</linearGradient>
<linearGradient id="paint2_linear_243_262" x1="1.95631" y1="15.7765" x2="6.8262" y2="12.2723" gradientUnits="userSpaceOnUse">
<stop stop-color="#FF8860"/>
<stop offset="1" stop-color="white"/>
</linearGradient>
<linearGradient id="paint3_linear_243_262" x1="1.95631" y1="15.7765" x2="6.8262" y2="12.2723" gradientUnits="userSpaceOnUse">
<stop stop-color="#FF8860"/>
<stop offset="1" stop-color="white"/>
</linearGradient>
<linearGradient id="paint4_linear_243_262" x1="14.5591" y1="15.7459" x2="20.3849" y2="12.6749" gradientUnits="userSpaceOnUse">
<stop stop-color="#FF8860"/>
<stop offset="1" stop-color="white"/>
</linearGradient>
<linearGradient id="paint5_linear_243_262" x1="14.5591" y1="15.7459" x2="20.3849" y2="12.6749" gradientUnits="userSpaceOnUse">
<stop stop-color="#FF8860"/>
<stop offset="1" stop-color="white"/>
</linearGradient>
<linearGradient id="paint6_linear_243_262" x1="14.5591" y1="15.7459" x2="20.3849" y2="12.6749" gradientUnits="userSpaceOnUse">
<stop stop-color="#FF8860"/>
<stop offset="1" stop-color="white"/>
</linearGradient>
<linearGradient id="paint7_linear_243_262" x1="14.5591" y1="15.7459" x2="20.3849" y2="12.6749" gradientUnits="userSpaceOnUse">
<stop stop-color="#FF8860"/>
<stop offset="1" stop-color="white"/>
</linearGradient>
<linearGradient id="paint8_linear_243_262" x1="8.29833" y1="9.99991" x2="9.78388" y2="7.10595" gradientUnits="userSpaceOnUse">
<stop stop-color="#FF8860"/>
<stop offset="1" stop-color="white"/>
</linearGradient>
</defs>
</svg>
