<svg width="16" height="16" viewBox="0 0 16 16" fill="none" xmlns="http://www.w3.org/2000/svg">
<g clip-path="url(#clip0_42_1554)">
<path fill-rule="evenodd" clip-rule="evenodd" d="M11.4386 1.56635C11.3951 1.62264 11.3407 1.66972 11.2789 1.70485C11.2787 1.70497 11.2784 1.70503 11.2782 1.70503V1.70503C11.278 1.70503 11.2777 1.7051 11.2775 1.70523L8.44744 3.37C8.27182 3.47331 8.34509 3.74238 8.54885 3.74238H10.267C12.9693 3.74238 14.3209 3.74238 15.1601 4.58226C16 5.42142 16 6.77299 16 9.47536C16 12.1777 16 13.5293 15.1601 14.3684C14.3209 15.2083 12.9693 15.2083 10.267 15.2083H7.40046C4.69808 15.2083 3.34653 15.2083 2.50737 14.3684C2.05423 13.9157 1.84557 13.3138 1.74949 12.431C1.7024 11.9984 1.99237 11.6169 2.32089 11.3315C2.749 10.9597 3.01969 10.4113 3.01969 9.7997C3.01969 9.17596 2.73814 8.61799 2.2952 8.24593C1.96674 7.97003 1.67796 7.60082 1.69958 7.1724C1.76277 5.92064 1.95038 5.13877 2.50737 4.58226C3.13797 3.95112 4.05792 3.79426 5.62301 3.75527C5.65709 3.75443 5.69085 3.74494 5.72024 3.72766L10.7339 0.778444C10.7948 0.741361 10.8624 0.716765 10.933 0.706083C11.0034 0.695398 11.0753 0.698843 11.1444 0.716217C11.2136 0.733593 11.2786 0.764544 11.3356 0.807279C11.3927 0.850014 11.4407 0.903668 11.4769 0.96513C11.513 1.02659 11.5365 1.09462 11.5461 1.16526C11.5556 1.2359 11.5511 1.30774 11.5326 1.3766C11.5142 1.44546 11.4822 1.50996 11.4386 1.56635ZM2.02825 9.79969C2.02825 10.3598 1.57421 10.8138 1.01412 10.8138C0.454038 10.8138 0 10.3598 0 9.79969C0 9.2396 0.454038 8.78557 1.01412 8.78557C1.57421 8.78557 2.02825 9.2396 2.02825 9.79969Z" fill="url(#paint0_linear_42_1554)"/>
<path fill-rule="evenodd" clip-rule="evenodd" d="M5.07061 9.59362C4.9108 9.59362 4.75255 9.62505 4.6049 9.68623C4.45726 9.74736 4.3231 9.83702 4.2101 9.95004C4.09709 10.063 4.00745 10.1972 3.94629 10.3448C3.88514 10.4925 3.85366 10.6507 3.85366 10.8106C3.85366 10.9704 3.88514 11.1286 3.94629 11.2762C4.00745 11.4239 4.09709 11.5581 4.2101 11.6711C4.3231 11.7841 4.45726 11.8737 4.6049 11.9348C4.75255 11.996 4.9108 12.0275 5.07061 12.0275C5.39337 12.0275 5.7029 11.8993 5.93112 11.6711C6.15935 11.4428 6.28756 11.1333 6.28756 10.8106C6.28756 10.4878 6.15935 10.1782 5.93112 9.95004C5.7029 9.7218 5.39337 9.59362 5.07061 9.59362ZM3.04236 10.8106C3.04236 10.2726 3.25605 9.75675 3.63642 9.37634C4.01679 8.99599 4.53268 8.78229 5.07061 8.78229C5.60854 8.78229 6.12443 8.99599 6.5048 9.37634C6.88515 9.75675 7.09886 10.2726 7.09886 10.8106C7.09886 11.3485 6.88515 11.8644 6.5048 12.2447C6.12443 12.6251 5.60854 12.8388 5.07061 12.8388C4.53268 12.8388 4.01679 12.6251 3.63642 12.2447C3.25605 11.8644 3.04236 11.3485 3.04236 10.8106Z" fill="#8C4FD9"/>
<path d="M8.53715 7.95635C8.43635 8.05709 8.37976 8.19379 8.37976 8.33637C8.37976 8.47889 8.43635 8.6156 8.53715 8.7164C8.63796 8.8172 8.77466 8.87386 8.91718 8.87386H12.8586C13.0012 8.87386 13.1379 8.8172 13.2387 8.7164C13.3395 8.6156 13.3961 8.47889 13.3961 8.33637C13.3961 8.19379 13.3395 8.05709 13.2387 7.95635C13.1379 7.85555 13.0012 7.79889 12.8586 7.79889H8.91718C8.77466 7.79889 8.63796 7.85555 8.53715 7.95635Z" fill="#8C4FD9"/>
<path d="M8.53715 10.1062C8.43635 10.207 8.37976 10.3437 8.37976 10.4862C8.37976 10.6288 8.43635 10.7655 8.53715 10.8663C8.63796 10.9671 8.77466 11.0237 8.91718 11.0237H12.8586C13.0012 11.0237 13.1379 10.9671 13.2387 10.8663C13.3395 10.7655 13.3961 10.6288 13.3961 10.4862C13.3961 10.3437 13.3395 10.207 13.2387 10.1062C13.1379 10.0054 13.0012 9.94876 12.8586 9.94876H8.91718C8.77466 9.94876 8.63796 10.0054 8.53715 10.1062Z" fill="#8C4FD9"/>
<path d="M8.53715 12.256C8.43635 12.3568 8.37976 12.4935 8.37976 12.6361C8.37976 12.7786 8.43635 12.9153 8.53715 13.0161C8.63796 13.117 8.77466 13.1735 8.91718 13.1735H12.8586C13.0012 13.1735 13.1379 13.117 13.2387 13.0161C13.3395 12.9153 13.3961 12.7786 13.3961 12.6361C13.3961 12.4935 13.3395 12.3568 13.2387 12.256C13.1379 12.1552 13.0012 12.0986 12.8586 12.0986H8.91718C8.77466 12.0986 8.63796 12.1552 8.53715 12.256Z" fill="#8C4FD9"/>
<path fill-rule="evenodd" clip-rule="evenodd" d="M6.08477 8.57952C5.92496 8.57952 5.76671 8.61095 5.61906 8.67213C5.47142 8.73326 5.33726 8.82292 5.22426 8.93594C5.11125 9.04892 5.02161 9.18312 4.96045 9.33074C4.8993 9.47841 4.86782 9.63664 4.86782 9.79646C4.86782 9.95628 4.8993 10.1145 4.96045 10.2621C5.02161 10.4098 5.11125 10.544 5.22426 10.657C5.33726 10.77 5.47142 10.8596 5.61906 10.9207C5.76671 10.9819 5.92496 11.0134 6.08477 11.0134C6.40753 11.0134 6.71706 10.8852 6.94528 10.657C7.17351 10.4287 7.30172 10.1192 7.30172 9.79646C7.30172 9.47371 7.17351 9.16413 6.94528 8.93594C6.71706 8.7077 6.40753 8.57952 6.08477 8.57952ZM4.05652 9.79646C4.05652 9.25853 4.27021 8.74265 4.65058 8.36225C5.03095 7.98189 5.54684 7.76819 6.08477 7.76819C6.6227 7.76819 7.13859 7.98189 7.51896 8.36225C7.89931 8.74265 8.11302 9.25853 8.11302 9.79646C8.11302 10.3344 7.89931 10.8503 7.51896 11.2306C7.13859 11.611 6.6227 11.8247 6.08477 11.8247C5.54684 11.8247 5.03095 11.611 4.65058 11.2306C4.27021 10.8503 4.05652 10.3344 4.05652 9.79646Z" fill="url(#paint1_linear_42_1554)"/>
<path d="M9.55131 6.94219C9.45051 7.04293 9.39392 7.17963 9.39392 7.32221C9.39392 7.46473 9.45051 7.60144 9.55131 7.70224C9.65212 7.80304 9.78882 7.8597 9.93134 7.8597H13.8728C14.0153 7.8597 14.1521 7.80304 14.2529 7.70224C14.3537 7.60144 14.4102 7.46473 14.4102 7.32221C14.4102 7.17963 14.3537 7.04293 14.2529 6.94219C14.1521 6.84139 14.0153 6.78473 13.8728 6.78473H9.93134C9.78882 6.78473 9.65212 6.84139 9.55131 6.94219Z" fill="url(#paint2_linear_42_1554)"/>
<path d="M9.55131 9.09199C9.45051 9.1928 9.39392 9.3295 9.39392 9.47209C9.39392 9.61461 9.45051 9.75131 9.55131 9.85211C9.65212 9.95292 9.78882 10.0095 9.93134 10.0095H13.8728C14.0153 10.0095 14.1521 9.95292 14.2529 9.85211C14.3537 9.75131 14.4102 9.61461 14.4102 9.47209C14.4102 9.3295 14.3537 9.1928 14.2529 9.09199C14.1521 8.99126 14.0153 8.9346 13.8728 8.9346H9.93134C9.78882 8.9346 9.65212 8.99126 9.55131 9.09199Z" fill="url(#paint3_linear_42_1554)"/>
<path d="M9.55131 11.2419C9.45051 11.3427 9.39392 11.4794 9.39392 11.622C9.39392 11.7645 9.45051 11.9012 9.55131 12.002C9.65212 12.1028 9.78882 12.1594 9.93134 12.1594H13.8728C14.0153 12.1594 14.1521 12.1028 14.2529 12.002C14.3537 11.9012 14.4102 11.7645 14.4102 11.622C14.4102 11.4794 14.3537 11.3427 14.2529 11.2419C14.1521 11.1411 14.0153 11.0845 13.8728 11.0845H9.93134C9.78882 11.0845 9.65212 11.1411 9.55131 11.2419Z" fill="url(#paint4_linear_42_1554)"/>
</g>
<defs>
<linearGradient id="paint0_linear_42_1554" x1="4" y1="14.172" x2="13.4148" y2="2.05874" gradientUnits="userSpaceOnUse">
<stop stop-color="#A056FF"/>
<stop offset="1" stop-color="#C59AFD"/>
</linearGradient>
<linearGradient id="paint1_linear_42_1554" x1="5.07064" y1="11.8247" x2="9.02573" y2="10.5063" gradientUnits="userSpaceOnUse">
<stop stop-color="#C59AFD"/>
<stop offset="1" stop-color="white"/>
</linearGradient>
<linearGradient id="paint2_linear_42_1554" x1="10.648" y1="12.1594" x2="15.6028" y2="10.6179" gradientUnits="userSpaceOnUse">
<stop stop-color="#C59AFD"/>
<stop offset="1" stop-color="white"/>
</linearGradient>
<linearGradient id="paint3_linear_42_1554" x1="10.648" y1="12.1594" x2="15.6028" y2="10.6179" gradientUnits="userSpaceOnUse">
<stop stop-color="#C59AFD"/>
<stop offset="1" stop-color="white"/>
</linearGradient>
<linearGradient id="paint4_linear_42_1554" x1="10.648" y1="12.1594" x2="15.6028" y2="10.6179" gradientUnits="userSpaceOnUse">
<stop stop-color="#C59AFD"/>
<stop offset="1" stop-color="white"/>
</linearGradient>
<clipPath id="clip0_42_1554">
<rect width="16" height="16" fill="white"/>
</clipPath>
</defs>
</svg>
