<svg width="16" height="16" viewBox="0 0 16 16" fill="none" xmlns="http://www.w3.org/2000/svg">
<g clip-path="url(#clip0_85_89)">
<path fill-rule="evenodd" clip-rule="evenodd" d="M12.9824 15C12.9824 15.552 12.5344 16 11.9824 16H3.97442C1.76942 16 -0.0175781 14.213 -0.0175781 12.008C-0.0175781 9.643 -0.0175781 6.357 -0.0175781 3.992C-0.0175781 2.933 0.403422 1.918 1.15142 1.169C1.90042 0.421 2.91542 0 3.97442 0C6.33942 0 9.62542 0 11.9904 0C14.1954 0 15.9824 1.787 15.9824 3.992C15.9824 7.249 15.9824 12 15.9824 12C15.9824 12.552 15.5344 13 14.9824 13C13.8784 13 12.9824 13.896 12.9824 15ZM13.9824 15C13.9824 14.448 14.4304 14 14.9824 14C15.5344 14 15.9824 14.448 15.9824 15C15.9824 15.552 15.5344 16 14.9824 16C14.4304 16 13.9824 15.552 13.9824 15Z" fill="url(#paint0_linear_85_89)"/>
<path fill-rule="evenodd" clip-rule="evenodd" d="M8.16667 12H2.83333C2.37333 12 2 12.3733 2 12.8333C2 13.2933 2.37333 13.6667 2.83333 13.6667H8.16667C8.62667 13.6667 9 13.2933 9 12.8333C9 12.3733 8.62667 12 8.16667 12Z" fill="#D84F4F"/>
<path fill-rule="evenodd" clip-rule="evenodd" d="M9.16667 11H3.83333C3.37333 11 3 11.3733 3 11.8333C3 12.2933 3.37333 12.6667 3.83333 12.6667H9.16667C9.62667 12.6667 10 12.2933 10 11.8333C10 11.3733 9.62667 11 9.16667 11Z" fill="url(#paint1_linear_85_89)"/>
<path d="M4.22759 4.5C4.68108 4.50124 5.11846 4.66829 5.45732 4.96966C5.7162 5.25398 5.85401 5.62804 5.84146 6.01235C5.85351 6.32506 5.76371 6.63324 5.58558 6.89054C5.50899 7.00118 5.41784 7.09983 5.31522 7.18421C5.10995 7.35299 5.0029 7.65757 5.15283 7.87698L5.55111 8.45984C5.73253 8.72533 5.54241 9.08552 5.22086 9.08552H5.01285C4.87911 9.08552 4.75422 9.01868 4.68003 8.9074L3.92972 7.78193C3.85554 7.67065 3.73064 7.60381 3.5969 7.60381H3.41524C3.19433 7.60381 3.01524 7.7829 3.01524 8.00381V8.68552C3.01524 8.90643 2.83616 9.08552 2.61524 9.08552H2.4C2.17909 9.08552 2 8.90643 2 8.68552V4.90221C2 4.68168 2.17847 4.50276 2.399 4.50285C3.00956 4.50308 3.63104 4.506 4.22759 4.5ZM6.74695 4.9032C6.74695 4.68229 6.92604 4.5032 7.14695 4.5032H8.55793C10.0122 4.5032 11 5.49101 11 6.80808C11 8.09771 10.0122 9.11296 8.55793 9.11296H7.14695C6.92604 9.11296 6.74695 8.93387 6.74695 8.71296V4.9032ZM8.60777 5.40686C8.46114 5.40928 8.31183 5.40965 8.16219 5.40946C7.94128 5.40919 7.7622 5.58778 7.7622 5.80869V7.78003C7.7622 8.00094 7.94128 8.18003 8.1622 8.18003H8.55793C8.74237 8.19161 8.92718 8.16428 9.10038 8.0998C9.27357 8.03533 9.43127 7.93515 9.56323 7.80577C9.69519 7.6764 9.79847 7.52071 9.86637 7.34883C9.93426 7.17695 9.96525 6.99271 9.95732 6.80808C9.96789 6.62568 9.94062 6.44307 9.87722 6.27172C9.81382 6.10037 9.71567 5.94398 9.58893 5.81239C9.46219 5.68079 9.3096 5.57683 9.14075 5.50705C8.9719 5.43726 8.79044 5.40315 8.60777 5.40686ZM3.38735 5.40869C3.16643 5.40869 2.98735 5.58778 2.98735 5.80869V6.32576C2.98735 6.54668 3.16643 6.72576 3.38735 6.72576H4.03049C4.52439 6.72576 4.79878 6.45137 4.79878 6.06723C4.79878 5.6282 4.49695 5.40869 4.00305 5.40869H3.38735Z" fill="#D84F4F"/>
<path d="M5.22759 3.5C5.68108 3.50124 6.11846 3.66829 6.45732 3.96966C6.7162 4.25398 6.85401 4.62804 6.84146 5.01235C6.85351 5.32506 6.76371 5.63324 6.58558 5.89054C6.50899 6.00118 6.41784 6.09983 6.31522 6.18421C6.10995 6.35299 6.0029 6.65757 6.15283 6.87698L6.55111 7.45984C6.73253 7.72533 6.54241 8.08552 6.22086 8.08552H6.01285C5.87911 8.08552 5.75422 8.01868 5.68003 7.9074L4.92972 6.78193C4.85554 6.67065 4.73064 6.60381 4.5969 6.60381H4.41524C4.19433 6.60381 4.01524 6.7829 4.01524 7.00381V7.68552C4.01524 7.90643 3.83616 8.08552 3.61524 8.08552H3.4C3.17909 8.08552 3 7.90643 3 7.68552V3.90221C3 3.68168 3.17847 3.50276 3.399 3.50285C4.00956 3.50308 4.63104 3.506 5.22759 3.5ZM7.74695 3.9032C7.74695 3.68229 7.92604 3.5032 8.14695 3.5032H9.55793C11.0122 3.5032 12 4.49101 12 5.80808C12 7.09771 11.0122 8.11296 9.55793 8.11296H8.14695C7.92604 8.11296 7.74695 7.93387 7.74695 7.71296V3.9032ZM9.60777 4.40686C9.46114 4.40928 9.31183 4.40965 9.16219 4.40946C8.94128 4.40919 8.7622 4.58778 8.7622 4.80869V6.78003C8.7622 7.00094 8.94128 7.18003 9.1622 7.18003H9.55793C9.74237 7.19161 9.92718 7.16428 10.1004 7.0998C10.2736 7.03533 10.4313 6.93515 10.5632 6.80577C10.6952 6.6764 10.7985 6.52071 10.8664 6.34883C10.9343 6.17695 10.9652 5.99271 10.9573 5.80808C10.9679 5.62568 10.9406 5.44307 10.8772 5.27172C10.8138 5.10037 10.7157 4.94398 10.5889 4.81239C10.4622 4.68079 10.3096 4.57683 10.1407 4.50705C9.9719 4.43726 9.79044 4.40315 9.60777 4.40686ZM4.38735 4.40869C4.16643 4.40869 3.98735 4.58778 3.98735 4.80869V5.32576C3.98735 5.54668 4.16643 5.72576 4.38735 5.72576H5.03049C5.52439 5.72576 5.79878 5.45137 5.79878 5.06723C5.79878 4.6282 5.49695 4.40869 5.00305 4.40869H4.38735Z" fill="url(#paint2_linear_85_89)"/>
</g>
<defs>
<linearGradient id="paint0_linear_85_89" x1="2.98242" y1="14" x2="12.9824" y2="2" gradientUnits="userSpaceOnUse">
<stop stop-color="#FF405B"/>
<stop offset="1" stop-color="#FF8860"/>
</linearGradient>
<linearGradient id="paint1_linear_85_89" x1="4.99922" y1="12.6666" x2="5.15008" y2="11.1581" gradientUnits="userSpaceOnUse">
<stop stop-color="#FF8860"/>
<stop offset="1" stop-color="white"/>
</linearGradient>
<linearGradient id="paint2_linear_85_89" x1="5.57042" y1="8.11286" x2="6.43806" y2="4.08252" gradientUnits="userSpaceOnUse">
<stop stop-color="#FF8860"/>
<stop offset="1" stop-color="white"/>
</linearGradient>
<clipPath id="clip0_85_89">
<rect width="16" height="16" fill="white"/>
</clipPath>
</defs>
</svg>
