<svg width="16" height="16" viewBox="0 0 16 16" fill="none" xmlns="http://www.w3.org/2000/svg">
<g clip-path="url(#clip0_72_1582)">
<path fill-rule="evenodd" clip-rule="evenodd" d="M0.727307 7.82547C0.727307 8.14005 0.751531 8.44853 0.798285 8.74965C0.811298 8.83346 0.751428 8.91183 0.666911 8.91888V8.91888C0.266641 8.95223 -0.0308035 9.30375 0.00255259 9.70404C0.0359087 10.1043 0.387433 10.4017 0.787703 10.3684V10.3684C1.07946 10.3441 1.35192 10.5071 1.49464 10.7627C1.58622 10.9268 1.68521 11.0867 1.79119 11.2421C2.10825 11.7072 1.9964 12.3777 1.49296 12.6295V12.6295C1.13371 12.8091 0.988094 13.2459 1.16772 13.6052C1.34735 13.9644 1.7842 14.1101 2.14345 13.9304L3.23009 13.3871C3.54712 13.2286 3.92195 13.2544 4.2332 13.4239C4.47905 13.5578 4.73408 13.679 4.99705 13.7864C5.49643 13.9904 6.02543 13.6606 6.38947 13.2625C6.7884 12.8262 7.36223 12.5526 7.99998 12.5526C8.63772 12.5526 9.21156 12.8262 9.61049 13.2625C9.97453 13.6606 10.5035 13.9904 11.0029 13.7864C11.2659 13.679 11.5209 13.5578 11.7667 13.4239C12.078 13.2544 12.4528 13.2286 12.7699 13.3871L13.8565 13.9304C14.2157 14.1101 14.6526 13.9644 14.8322 13.6052C15.0118 13.2459 14.8662 12.8091 14.507 12.6295V12.6295C14.0035 12.3777 13.8917 11.7072 14.2088 11.2421C14.3147 11.0867 14.4137 10.9268 14.5053 10.7627C14.648 10.5071 14.9205 10.3441 15.2122 10.3684V10.3684C15.6125 10.4017 15.9641 10.1043 15.9974 9.70404C16.0307 9.30375 15.7333 8.95223 15.333 8.91888V8.91888C15.2485 8.91183 15.1887 8.83345 15.2017 8.74965C15.2484 8.44851 15.2726 8.13998 15.2726 7.8254V1.45746C15.2726 0.199013 13.7819 -0.466211 12.8455 0.376103L11.3056 1.76073C11.2001 1.85553 11.0495 1.87969 10.9176 1.82772C10.0225 1.47502 9.03527 1.28006 7.99997 1.28006C6.96467 1.28006 5.97744 1.47502 5.08236 1.82772C4.95043 1.87969 4.79982 1.85553 4.69436 1.76073L3.1543 0.375943C2.21786 -0.46637 0.727307 0.199013 0.727307 1.45746V7.82547Z" fill="url(#paint0_linear_72_1582)"/>
<path fill-rule="evenodd" clip-rule="evenodd" d="M1.83878 11.3111C1.62121 11.0007 1.4317 10.6721 1.27376 10.3278L0.787609 10.3684C0.493729 10.3929 0.226126 10.239 0.0914307 9.99712L4.30319 9.64614C4.70348 9.61276 5.055 9.91021 5.08835 10.3105C5.12169 10.7107 4.82428 11.0623 4.42399 11.0957L1.83878 11.3111ZM4.41712 13.5209C4.18393 13.4021 3.95845 13.2719 3.74169 13.1313L2.14336 13.9304C1.7841 14.1101 1.34726 13.9644 1.16763 13.6052C1.15603 13.582 1.14579 13.5585 1.13688 13.5348L5.12924 11.5386C5.48847 11.3589 5.92534 11.5046 6.10498 11.8638C6.28458 12.2231 6.13898 12.6599 5.77971 12.8395L4.58735 13.4358L4.41712 13.5209ZM14.0803 14.0003C14.0043 13.9896 13.9288 13.9666 13.8564 13.9304L12.2581 13.1313C11.8098 13.4222 11.3243 13.6679 10.8104 13.862L9.95796 13.4358L8.76557 12.8395C8.4063 12.6599 8.26071 12.2231 8.44034 11.8638C8.61994 11.5046 9.05681 11.3589 9.41604 11.5386L13.7796 13.7204C13.9096 13.7853 14.0115 13.8839 14.0803 14.0003ZM15.1719 10.365L14.726 10.3278C14.5485 10.7147 14.3312 11.0818 14.0789 11.4255L10.1214 11.0957C9.72112 11.0623 9.42367 10.7107 9.45702 10.3105C9.49036 9.91021 9.84188 9.61276 10.2422 9.64614L14.6058 10.0098C14.85 10.0301 15.056 10.1689 15.1719 10.365ZM9.45446 8.189C10.057 8.189 10.5454 7.70061 10.5454 7.0981C10.5454 6.4956 10.057 6.0072 9.45446 6.0072C8.85196 6.0072 8.36356 6.4956 8.36356 7.0981C8.36356 7.70061 8.85196 8.189 9.45446 8.189ZM5.09086 8.189C5.69337 8.189 6.18176 7.70061 6.18176 7.0981C6.18176 6.4956 5.69337 6.0072 5.09086 6.0072C4.48836 6.0072 3.99996 6.4956 3.99996 7.0981C3.99996 7.70061 4.48836 8.189 5.09086 8.189ZM7.27266 11.0981C7.87517 11.0981 8.36356 10.6097 8.36356 10.0072C8.36356 9.40469 7.87517 8.91629 7.27266 8.91629C6.67016 8.91629 6.18176 9.40469 6.18176 10.0072C6.18176 10.6097 6.67016 11.0981 7.27266 11.0981Z" fill="#D84F4F"/>
<path d="M10.9695 8.55523L13.7135 8.78388L15.1753 8.9057L15.3331 8.91886C15.7334 8.95221 16.0308 9.30373 15.9974 9.70402C15.9641 10.1043 15.6126 10.4017 15.2123 10.3684L14.7261 10.3278L13.1456 10.1961L10.8487 10.0047C10.4484 9.97136 10.151 9.61984 10.1843 9.21959C10.2177 8.8193 10.5692 8.52185 10.9695 8.55523Z" fill="url(#paint1_linear_72_1582)"/>
<path d="M3.74183 13.1313L5.31472 12.3449L6.50708 11.7486C6.86635 11.569 7.01195 11.1322 6.83235 10.7729C6.65271 10.4137 6.21584 10.268 5.85661 10.4477L3.89284 11.4296L2.50963 12.1211L1.493 12.6295C1.13375 12.8091 0.988132 13.2459 1.16776 13.6052C1.34739 13.9644 1.78423 14.1101 2.14349 13.9304L3.74183 13.1313Z" fill="url(#paint2_linear_72_1582)"/>
<path d="M12.1071 11.4296L10.1433 10.4477C9.78411 10.268 9.34724 10.4137 9.16765 10.7729C8.98801 11.1322 9.13361 11.569 9.49288 11.7486L10.6853 12.3449L12.2581 13.1313L13.8565 13.9304C14.2157 14.1101 14.6526 13.9644 14.8322 13.6052C15.0118 13.2459 14.8662 12.8091 14.5069 12.6295L13.4903 12.1211L12.1071 11.4296Z" fill="url(#paint3_linear_72_1582)"/>
<path d="M5.1513 10.0047L2.85442 10.1961L1.27385 10.3278L0.787703 10.3684C0.387433 10.4017 0.0359087 10.1043 0.00255259 9.70402C-0.0308035 9.30373 0.266641 8.95221 0.666911 8.91886L0.824648 8.9057L2.28645 8.78388L5.03051 8.55523C5.43079 8.52185 5.78232 8.8193 5.81566 9.21959C5.84901 9.61984 5.55159 9.97136 5.1513 10.0047Z" fill="url(#paint4_linear_72_1582)"/>
<path d="M11.2726 6.00722C11.2726 6.60973 10.7842 7.09812 10.1817 7.09812C9.57922 7.09812 9.09082 6.60973 9.09082 6.00722C9.09082 5.40472 9.57922 4.91632 10.1817 4.91632C10.7842 4.91632 11.2726 5.40472 11.2726 6.00722Z" fill="url(#paint5_linear_72_1582)"/>
<path d="M5.8182 7.09812C6.4207 7.09812 6.9091 6.60973 6.9091 6.00722C6.9091 5.40472 6.4207 4.91632 5.8182 4.91632C5.21569 4.91632 4.72729 5.40472 4.72729 6.00722C4.72729 6.60973 5.21569 7.09812 5.8182 7.09812Z" fill="url(#paint6_linear_72_1582)"/>
<path d="M9.09086 8.91628C9.09086 9.51878 8.60246 10.0072 7.99996 10.0072C7.39745 10.0072 6.90906 9.51878 6.90906 8.91628C6.90906 8.31377 7.39745 7.82538 7.99996 7.82538C8.60246 7.82538 9.09086 8.31377 9.09086 8.91628Z" fill="url(#paint7_linear_72_1582)"/>
<circle cx="7.99996" cy="14.7344" r="1.0909" fill="url(#paint8_linear_72_1582)"/>
</g>
<defs>
<linearGradient id="paint0_linear_72_1582" x1="2.99999" y1="12.2565" x2="11.4757" y2="0.638859" gradientUnits="userSpaceOnUse">
<stop stop-color="#FF405B"/>
<stop offset="1" stop-color="#FF8860"/>
</linearGradient>
<linearGradient id="paint1_linear_72_1582" x1="11.8435" y1="10.3709" x2="12.0579" y2="8.73681" gradientUnits="userSpaceOnUse">
<stop stop-color="#FF8860"/>
<stop offset="1" stop-color="white"/>
</linearGradient>
<linearGradient id="paint2_linear_72_1582" x1="2.75258" y1="14.0073" x2="3.56908" y2="10.8971" gradientUnits="userSpaceOnUse">
<stop stop-color="#FF8860"/>
<stop offset="1" stop-color="white"/>
</linearGradient>
<linearGradient id="paint3_linear_72_1582" x1="10.7525" y1="14.0073" x2="11.569" y2="10.8971" gradientUnits="userSpaceOnUse">
<stop stop-color="#FF8860"/>
<stop offset="1" stop-color="white"/>
</linearGradient>
<linearGradient id="paint4_linear_72_1582" x1="1.6617" y1="10.3709" x2="1.87618" y2="8.73681" gradientUnits="userSpaceOnUse">
<stop stop-color="#FF8860"/>
<stop offset="1" stop-color="white"/>
</linearGradient>
<linearGradient id="paint5_linear_72_1582" x1="9.71395" y1="7.09807" x2="10.4261" y2="5.4026" gradientUnits="userSpaceOnUse">
<stop stop-color="#FF8860"/>
<stop offset="1" stop-color="white"/>
</linearGradient>
<linearGradient id="paint6_linear_72_1582" x1="5.35042" y1="7.09807" x2="6.06255" y2="5.4026" gradientUnits="userSpaceOnUse">
<stop stop-color="#FF8860"/>
<stop offset="1" stop-color="white"/>
</linearGradient>
<linearGradient id="paint7_linear_72_1582" x1="7.60803" y1="9.26582" x2="8.54541" y2="8.18899" gradientUnits="userSpaceOnUse">
<stop stop-color="#FF8860"/>
<stop offset="1" stop-color="white"/>
</linearGradient>
<linearGradient id="paint8_linear_72_1582" x1="7.31815" y1="15.5526" x2="8.68177" y2="13.9162" gradientUnits="userSpaceOnUse">
<stop stop-color="#FF405B"/>
<stop offset="1" stop-color="#FF8860"/>
</linearGradient>
<clipPath id="clip0_72_1582">
<rect width="16" height="16" fill="white"/>
</clipPath>
</defs>
</svg>
