<svg width="16" height="16" viewBox="0 0 16 16" fill="none" xmlns="http://www.w3.org/2000/svg">
<path fill-rule="evenodd" clip-rule="evenodd" d="M4.0598 9.02319L6.13247 10.0976L7.1395 13.3068C7.25236 13.6655 7.44484 13.991 7.69944 14.2569L7.72044 14.2788C8.28651 14.8711 9.10455 15.1196 9.8946 14.9455C10.668 14.7749 11.3172 14.2176 11.6138 13.4511C12.7599 10.493 14.0784 6.00124 14.8457 4.01868C15.1616 3.20413 14.977 2.2776 14.3882 1.66166L14.3829 1.65641C13.7259 0.9696 12.7171 0.804241 11.878 1.24345C9.64088 2.41321 4.25578 4.95571 4.25578 4.95571C3.81919 5.16219 3.63196 5.68364 3.83757 6.12022C4.04405 6.55681 3.90756 7.4151 3.68533 7.84381C3.4631 8.27251 3.63109 8.80096 4.0598 9.02319ZM2.4937 6.50694C2.83492 6.84815 2.83492 7.40285 2.4937 7.74407C2.15248 8.08616 1.59779 8.08616 1.25657 7.74407C0.914477 7.40285 0.914477 6.84815 1.25657 6.50694C1.59779 6.16572 2.15248 6.16572 2.4937 6.50694Z" fill="url(#paint0_linear_8_12)"/>
<path fill-rule="evenodd" clip-rule="evenodd" d="M7.86691 10.843L9.74946 8.87505C10.0831 8.52622 10.0709 7.97224 9.72248 7.6385C9.37295 7.3046 8.81901 7.3169 8.48533 7.66572L6.60278 9.63371C6.26862 9.98302 6.28086 10.537 6.63039 10.8709C6.97882 11.2047 7.53276 11.1924 7.86691 10.843Z" fill="#8C4FD9"/>
<path fill-rule="evenodd" clip-rule="evenodd" d="M7.49054 10.0929L9.37309 8.12491C9.70677 7.77608 9.69438 7.22095 9.34548 6.8877C8.99705 6.55397 8.44201 6.5661 8.10833 6.91493L6.22578 8.88291C5.8921 9.23174 5.90449 9.78687 6.25339 10.1201C6.60182 10.4539 7.15686 10.4417 7.49054 10.0929Z" fill="url(#paint1_linear_8_12)"/>
<defs>
<linearGradient id="paint0_linear_8_12" x1="4.4996" y1="14" x2="13.7645" y2="3.19221" gradientUnits="userSpaceOnUse">
<stop stop-color="#A056FF"/>
<stop offset="1" stop-color="#C59AFD"/>
</linearGradient>
<linearGradient id="paint1_linear_8_12" x1="6.89142" y1="10.3627" x2="10.4489" y2="9.20413" gradientUnits="userSpaceOnUse">
<stop stop-color="#C59AFD"/>
<stop offset="1" stop-color="white"/>
</linearGradient>
</defs>
</svg>
