<svg width="16" height="16" viewBox="0 0 16 16" fill="none" xmlns="http://www.w3.org/2000/svg">
<g clip-path="url(#clip0_8_18)">
<path fill-rule="evenodd" clip-rule="evenodd" d="M10.9699 4.75724L10.2119 1.72397C9.9589 0.710653 9.04791 0 8.00293 0C8.00093 0 7.99893 0 7.99693 0C6.95195 0 6.04096 0.710653 5.78797 1.72397L5.02998 4.75724C4.89598 5.29323 5.22198 5.83589 5.75697 5.97056C6.29296 6.10389 6.83595 5.77723 6.96995 5.24257L7.72794 2.20929C7.75893 2.08663 7.86993 1.99996 7.99693 1.99996H8.00293C8.12993 1.99996 8.24093 2.08663 8.27193 2.20929L9.02991 5.24257C9.16391 5.77723 9.7069 6.10389 10.2429 5.97056C10.7779 5.83589 11.1039 5.29323 10.9699 4.75724Z" fill="url(#paint0_linear_8_18)"/>
<path fill-rule="evenodd" clip-rule="evenodd" d="M4.70694 4.00012H11.2928C12.7718 4.00012 14.0198 5.1021 14.2038 6.57008L14.8738 11.932C14.9428 12.479 14.5478 12.932 13.9998 13C12.8958 13 11.9998 13.896 11.9998 14.9999C11.9998 15.5519 11.5518 15.9999 10.9998 15.9999C10.9998 15.9999 6.54991 15.9999 3.90795 15.9999C3.13697 15.9999 2.39698 15.6939 1.85199 15.1479C1.306 14.603 1 13.863 1 13.092L1.008 12.876L1.79599 6.57008C1.97998 5.1021 3.22796 4.00012 4.70694 4.00012ZM14.9998 14.9999C14.9998 15.5519 14.5518 15.9999 13.9998 15.9999C13.4478 15.9999 12.9998 15.5519 12.9998 14.9999C12.9998 14.448 13.4478 14 13.9998 14C14.5518 14 14.9998 14.448 14.9998 14.9999Z" fill="url(#paint1_linear_8_18)"/>
<path fill-rule="evenodd" clip-rule="evenodd" d="M6.99995 11C7.26495 11 7.51994 10.895 7.70694 10.707C7.89494 10.52 7.99994 10.265 7.99994 9.99997C7.99994 9.99997 7.99994 9.49998 7.99994 8.99998C7.99994 8.44799 8.44793 8 8.99992 8C9.26491 8 9.51991 8.105 9.70691 8.293C9.8949 8.47999 9.9999 8.73499 9.9999 8.99998C9.9999 9.38698 9.9999 9.78697 9.9999 9.99997C9.9999 10.796 9.68391 11.5589 9.12092 12.1209C8.55893 12.6839 7.79594 12.9999 6.99995 12.9999C6.20396 12.9999 5.44098 12.6839 4.87899 12.1209C4.316 11.5589 4 10.796 4 9.99997V8.99998C4 8.44799 4.44799 8 4.99998 8C5.55197 8 5.99997 8.44799 5.99997 8.99998V9.99997C5.99997 10.265 6.10497 10.52 6.29296 10.707C6.47996 10.895 6.73496 11 6.99995 11Z" fill="#45C5C2"/>
<path fill-rule="evenodd" clip-rule="evenodd" d="M7.99995 10.0001C8.26495 10.0001 8.51994 9.89508 8.70694 9.70708C8.89494 9.52008 8.99994 9.26509 8.99994 9.00009C8.99994 9.00009 8.99994 8.5001 8.99994 8.00011C8.99994 7.44811 9.44793 7.00012 9.99992 7.00012C10.2649 7.00012 10.5199 7.10512 10.7069 7.29312C10.8949 7.48011 10.9999 7.73511 10.9999 8.00011C10.9999 8.3871 10.9999 8.78709 10.9999 9.00009C10.9999 9.79608 10.6839 10.5591 10.1209 11.1211C9.55893 11.684 8.79594 12 7.99995 12C7.20396 12 6.44098 11.684 5.87899 11.1211C5.316 10.5591 5 9.79608 5 9.00009V8.00011C5 7.44811 5.44799 7.00012 5.99998 7.00012C6.55197 7.00012 6.99997 7.44811 6.99997 8.00011V9.00009C6.99997 9.26509 7.10497 9.52008 7.29296 9.70708C7.47996 9.89508 7.73496 10.0001 7.99995 10.0001Z" fill="url(#paint2_linear_8_18)"/>
</g>
<defs>
<linearGradient id="paint0_linear_8_18" x1="6.1249" y1="5.25031" x2="10.2502" y2="0.750216" gradientUnits="userSpaceOnUse">
<stop stop-color="#00DAD4"/>
<stop offset="1" stop-color="#C4FFFD"/>
</linearGradient>
<linearGradient id="paint1_linear_8_18" x1="3.62496" y1="14.5" x2="11.671" y2="4.25958" gradientUnits="userSpaceOnUse">
<stop stop-color="#00DAD4"/>
<stop offset="1" stop-color="#C4FFFD"/>
</linearGradient>
<linearGradient id="paint2_linear_8_18" x1="6.20001" y1="11.2858" x2="7.8618" y2="7.56341" gradientUnits="userSpaceOnUse">
<stop stop-color="#7EEFEC"/>
<stop offset="1" stop-color="white"/>
</linearGradient>
<clipPath id="clip0_8_18">
<rect width="16" height="16" fill="white"/>
</clipPath>
</defs>
</svg>
