<svg width="16" height="16" viewBox="0 0 16 16" fill="none" xmlns="http://www.w3.org/2000/svg">
<g clip-path="url(#clip0_7_252)">
<path fill-rule="evenodd" clip-rule="evenodd" d="M11 14.0008V12.0016C11 11.4499 10.552 11.0021 10 11.0021C9.448 11.0021 6.552 11.0021 6 11.0021C5.448 11.0021 5 11.4499 5 12.0016V14.0008C4.448 14.0008 4 14.4486 4 15.0003C4 15.5521 4.448 15.9999 5 15.9999H11C11.552 15.9999 12 15.5521 12 15.0003C12 14.4486 11.552 14.0008 11 14.0008Z" fill="url(#paint0_linear_7_252)"/>
<path fill-rule="evenodd" clip-rule="evenodd" d="M12.959 12.9943H3.041C2.234 12.9943 1.461 12.6745 0.891 12.1037C0.32 11.534 0 10.7613 0 9.95465C0 7.98251 0 5.01181 0 3.03967C0 2.23302 0.32 1.46036 0.891 0.89061C1.461 0.31986 2.234 0 3.041 0H12C12.552 0 13 0.447804 13 0.999563C13 2.10308 13.896 2.99869 15 2.99869C15.552 2.99869 16 3.44649 16 3.99825V9.99563C15.989 10.7873 15.67 11.544 15.109 12.1037C14.539 12.6745 13.766 12.9943 12.959 12.9943ZM15 0C15.552 0 16 0.447804 16 0.999563C16 1.55132 15.552 1.99913 15 1.99913C14.448 1.99913 14 1.55132 14 0.999563C14 0.447804 14.448 0 15 0Z" fill="url(#paint1_linear_7_252)"/>
<path fill-rule="evenodd" clip-rule="evenodd" d="M14 9.00305H3.00002C2.44782 9.00305 2.00012 9.45105 2.00012 10.0031C2.00012 10.5551 2.44782 11.0031 3.00002 11.0031H14C14.5522 11.0031 14.9999 10.5551 14.9999 10.0031C14.9999 9.45105 14.5522 9.00305 14 9.00305Z" fill="#279FD7"/>
<path fill-rule="evenodd" clip-rule="evenodd" d="M14.9999 8.00354H3.9999C3.4477 8.00354 3 8.45154 3 9.00354C3 9.55554 3.4477 10.0035 3.9999 10.0035H14.9999C15.5521 10.0035 15.9998 9.55554 15.9998 9.00354C15.9998 8.45154 15.5521 8.00354 14.9999 8.00354Z" fill="url(#paint2_linear_7_252)"/>
</g>
<defs>
<linearGradient id="paint0_linear_7_252" x1="4.8" y1="16.0015" x2="6.00087" y2="10.234" gradientUnits="userSpaceOnUse">
<stop stop-color="#22B4FA"/>
<stop offset="1" stop-color="#6BD6FE"/>
</linearGradient>
<linearGradient id="paint1_linear_7_252" x1="2.28571" y1="11.9948" x2="5.32703" y2="1.0086" gradientUnits="userSpaceOnUse">
<stop stop-color="#15B3FF"/>
<stop offset="1" stop-color="#7EDAFC"/>
</linearGradient>
<linearGradient id="paint2_linear_7_252" x1="3" y1="10.0035" x2="7.46355" y2="2.75038" gradientUnits="userSpaceOnUse">
<stop stop-color="#6BD6FE"/>
<stop offset="1" stop-color="white"/>
</linearGradient>
<clipPath id="clip0_7_252">
<rect width="16" height="16" fill="white"/>
</clipPath>
</defs>
</svg>
