<svg width="16" height="16" viewBox="0 0 16 16" fill="none" xmlns="http://www.w3.org/2000/svg">
<g clip-path="url(#clip0_14_938)">
<path fill-rule="evenodd" clip-rule="evenodd" d="M1 13C0.448 13 0 12.552 0 12V3.992C0 1.787 1.787 0 3.992 0C6.357 0 9.643 0 12.008 0C13.067 0 14.082 0.421001 14.831 1.169C15.579 1.918 16 2.933 16 3.992C16 6.357 16 9.643 16 12.008C16 14.213 14.213 16 12.008 16C8.751 16 4 16 4 16C3.448 16 3 15.552 3 15C3 13.896 2.104 13 1 13ZM1 14C1.552 14 2 14.448 2 15C2 15.552 1.552 16 1 16C0.448 16 0 15.552 0 15C0 14.448 0.448 14 1 14Z" fill="url(#paint0_linear_14_938)"/>
<path fill-rule="evenodd" clip-rule="evenodd" d="M5.90909 9.54545C6.21035 9.54545 6.45455 9.78965 6.45455 10.0909V14.4545C6.45455 14.7558 6.69875 15 7 15C7.30125 15 7.54545 14.7558 7.54545 14.4545V10.0909C7.54545 9.78965 7.78965 9.54545 8.09091 9.54545H12.4545C12.7558 9.54545 13 9.30125 13 9C13 8.69875 12.7558 8.45455 12.4545 8.45455H8.09091C7.78965 8.45455 7.54545 8.21035 7.54545 7.90909V3.54545C7.54545 3.24421 7.30125 3 7 3C6.69875 3 6.45455 3.24421 6.45455 3.54545V7.90909C6.45455 8.21035 6.21035 8.45455 5.90909 8.45455H1.54545C1.24421 8.45455 1 8.69875 1 9C1 9.30125 1.24421 9.54545 1.54545 9.54545H5.90909Z" fill="#B85C68" stroke="#B85C68"/>
<path fill-rule="evenodd" clip-rule="evenodd" d="M6.90909 8.54545C7.21035 8.54545 7.45455 8.78965 7.45455 9.09091V13.4545C7.45455 13.7558 7.69875 14 8 14C8.30125 14 8.54545 13.7558 8.54545 13.4545V9.09091C8.54545 8.78965 8.78965 8.54545 9.09091 8.54545H13.4545C13.7558 8.54545 14 8.30125 14 8C14 7.69875 13.7558 7.45455 13.4545 7.45455H9.09091C8.78965 7.45455 8.54545 7.21035 8.54545 6.90909V2.54545C8.54545 2.24421 8.30125 2 8 2C7.69875 2 7.45455 2.24421 7.45455 2.54545V6.90909C7.45455 7.21035 7.21035 7.45455 6.90909 7.45455H2.54545C2.24421 7.45455 2 7.69875 2 8C2 8.30125 2.24421 8.54545 2.54545 8.54545H6.90909Z" fill="url(#paint1_linear_14_938)" stroke="url(#paint2_linear_14_938)" stroke-linejoin="round"/>
</g>
<defs>
<linearGradient id="paint0_linear_14_938" x1="1.14286" y1="15.0204" x2="15.7918" y2="7.11491" gradientUnits="userSpaceOnUse">
<stop stop-color="#B65592"/>
<stop offset="0.5" stop-color="#FB6F71"/>
<stop offset="1" stop-color="#F9CB52"/>
</linearGradient>
<linearGradient id="paint1_linear_14_938" x1="2.85714" y1="13.2653" x2="13.8438" y2="7.33618" gradientUnits="userSpaceOnUse">
<stop stop-color="#D4A4C4"/>
<stop offset="0.5" stop-color="#F7B1B3"/>
<stop offset="1" stop-color="#F7E1A3"/>
</linearGradient>
<linearGradient id="paint2_linear_14_938" x1="2.85714" y1="13.2653" x2="13.8438" y2="7.33618" gradientUnits="userSpaceOnUse">
<stop stop-color="#D4A4C4"/>
<stop offset="0.5" stop-color="#F7B1B3"/>
<stop offset="1" stop-color="#F7E1A3"/>
</linearGradient>
<clipPath id="clip0_14_938">
<rect width="16" height="16" fill="white"/>
</clipPath>
</defs>
</svg>
