<svg width="16" height="16" viewBox="0 0 16 16" fill="none" xmlns="http://www.w3.org/2000/svg">
<g clip-path="url(#clip0_44_64)">
<path fill-rule="evenodd" clip-rule="evenodd" d="M1 13C0.448 13 0 12.552 0 12V3.992C0 1.787 1.787 0 3.992 0C6.357 0 9.643 0 12.008 0C13.067 0 14.082 0.421001 14.831 1.169C15.579 1.918 16 2.933 16 3.992C16 6.357 16 9.643 16 12.008C16 14.213 14.213 16 12.008 16C8.751 16 4 16 4 16C3.448 16 3 15.552 3 15C3 13.896 2.104 13 1 13ZM1 14C1.552 14 2 14.448 2 15C2 15.552 1.552 16 1 16C0.448 16 0 15.552 0 15C0 14.448 0.448 14 1 14Z" fill="url(#paint0_linear_44_64)"/>
<path d="M3.8 0C3.35817 0 3 0.358172 3 0.8V6.08969C3 6.59401 3.59788 6.85949 3.97199 6.52128L4.84215 5.73463C4.95296 5.63444 5.12166 5.63447 5.23244 5.73472L6.10054 6.52026C6.47459 6.85873 7.07273 6.59331 7.07273 6.08884V0H3.8Z" fill="#B85C68"/>
<path d="M4 0V5.08969C4 5.59401 4.59788 5.85949 4.97199 5.52128L5.84215 4.73463C5.95296 4.63444 6.12166 4.63447 6.23244 4.73472L7.10054 5.52026C7.47459 5.85873 8.07273 5.59331 8.07273 5.08884V0H4Z" fill="url(#paint1_linear_44_64)"/>
<path fill-rule="evenodd" clip-rule="evenodd" d="M8.91424 7.80005H8.05709C7.82972 7.80005 7.61177 7.89036 7.45102 8.05111C7.29026 8.21187 7.19995 8.42989 7.19995 8.65719V11.9299C7.19995 12.016 7.26969 12.0858 7.3558 12.0858H7.90125C7.98728 12.0858 8.05709 12.016 8.05709 11.9299V10.5273C8.05709 10.4412 8.12683 10.3715 8.21294 10.3715H8.75839C8.84442 10.3715 8.91424 10.4412 8.91424 10.5273V11.9299C8.91424 12.016 8.98398 12.0858 9.07008 12.0858H9.61554C9.70156 12.0858 9.77138 12.016 9.77138 11.9299V8.65719C9.77138 8.42989 9.68107 8.21187 9.52032 8.05111C9.35956 7.89036 9.14154 7.80005 8.91424 7.80005ZM10.7844 9.51433H13.0441C13.1301 9.51433 13.2 9.58407 13.2 9.67018V10.3243C13.2 10.355 13.1908 10.3851 13.1738 10.4107L11.6472 12.7006C11.5782 12.8042 11.6524 12.9429 11.7769 12.9429H13.0441C13.1301 12.9429 13.2 13.0126 13.2 13.0988V13.6442C13.2 13.7303 13.1301 13.8 13.0441 13.8H10.7844C10.6983 13.8 10.6285 13.7303 10.6285 13.6442V12.9901C10.6285 12.9593 10.6376 12.9293 10.6547 12.9036L12.1813 10.6137C12.2503 10.5102 12.1761 10.3715 12.0516 10.3715H10.7844C10.6983 10.3715 10.6285 10.3017 10.6285 10.2156V9.67018C10.6285 9.58407 10.6983 9.51433 10.7844 9.51433ZM8.36878 8.65719C8.19665 8.65719 8.05709 8.79675 8.05709 8.96888V9.20265C8.05709 9.37478 8.19665 9.51433 8.36878 9.51433H8.60255C8.77468 9.51433 8.91424 9.37478 8.91424 9.20265V8.96888C8.91424 8.79675 8.77468 8.65719 8.60255 8.65719H8.36878Z" fill="#B85C68"/>
<path fill-rule="evenodd" clip-rule="evenodd" d="M9.71429 7H8.85714C8.62977 7 8.41182 7.09031 8.25106 7.25106C8.09031 7.41182 8 7.62984 8 7.85714V11.1299C8 11.216 8.06974 11.2857 8.15584 11.2857H8.7013C8.78733 11.2857 8.85714 11.216 8.85714 11.1299V9.72727C8.85714 9.64117 8.92688 9.57143 9.01299 9.57143H9.55844C9.64447 9.57143 9.71429 9.64117 9.71429 9.72727V11.1299C9.71429 11.216 9.78403 11.2857 9.87013 11.2857H10.4156C10.5016 11.2857 10.5714 11.216 10.5714 11.1299V7.85714C10.5714 7.62984 10.4811 7.41182 10.3204 7.25106C10.1596 7.09031 9.94158 7 9.71429 7ZM11.5844 8.71429H13.8442C13.9302 8.71429 14 8.78403 14 8.87013V9.52421C14 9.55499 13.9909 9.58506 13.9738 9.6107L12.4472 11.9006C12.3782 12.0042 12.4525 12.1429 12.5769 12.1429H13.8442C13.9302 12.1429 14 12.2126 14 12.2987V12.8442C14 12.9303 13.9302 13 13.8442 13H11.5844C11.4983 13 11.4286 12.9303 11.4286 12.8442V12.1901C11.4286 12.1593 11.4377 12.1292 11.4548 12.1036L12.9813 9.81369C13.0504 9.71013 12.9761 9.57143 12.8517 9.57143H11.5844C11.4983 9.57143 11.4286 9.50169 11.4286 9.41558V8.87013C11.4286 8.78403 11.4983 8.71429 11.5844 8.71429ZM9.16883 7.85714C8.9967 7.85714 8.85714 7.9967 8.85714 8.16883V8.4026C8.85714 8.57473 8.9967 8.71429 9.16883 8.71429H9.4026C9.57473 8.71429 9.71429 8.57473 9.71429 8.4026V8.16883C9.71429 7.9967 9.57473 7.85714 9.4026 7.85714H9.16883Z" fill="url(#paint2_linear_44_64)"/>
</g>
<defs>
<linearGradient id="paint0_linear_44_64" x1="1.14286" y1="15.0204" x2="15.7918" y2="7.11491" gradientUnits="userSpaceOnUse">
<stop stop-color="#B65592"/>
<stop offset="0.5" stop-color="#FB6F71"/>
<stop offset="1" stop-color="#F9CB52"/>
</linearGradient>
<linearGradient id="paint1_linear_44_64" x1="4.29091" y1="5.32534" x2="8.47723" y2="3.70332" gradientUnits="userSpaceOnUse">
<stop stop-color="#D4A4C4"/>
<stop offset="0.5" stop-color="#F7B1B3"/>
<stop offset="1" stop-color="#F7E1A3"/>
</linearGradient>
<linearGradient id="paint2_linear_44_64" x1="8.42857" y1="12.6327" x2="13.9219" y2="9.66809" gradientUnits="userSpaceOnUse">
<stop stop-color="#D4A4C4"/>
<stop offset="0.5" stop-color="#F7B1B3"/>
<stop offset="1" stop-color="#F7E1A3"/>
</linearGradient>
<clipPath id="clip0_44_64">
<rect width="16" height="16" fill="white"/>
</clipPath>
</defs>
</svg>
