<svg width="16" height="16" viewBox="0 0 16 16" fill="none" xmlns="http://www.w3.org/2000/svg">
<g clip-path="url(#clip0_67_1496)">
<path fill-rule="evenodd" clip-rule="evenodd" d="M13 15C13 15.552 12.552 16 12 16H3.992C1.787 16 0 14.213 0 12.008C0 9.643 0 6.357 0 3.992C0 2.933 0.421001 1.918 1.169 1.169C1.918 0.421 2.933 0 3.992 0C6.357 0 9.643 0 12.008 0C14.213 0 16 1.787 16 3.992C16 7.249 16 12 16 12C16 12.552 15.552 13 15 13C13.896 13 13 13.896 13 15ZM14 15C14 14.448 14.448 14 15 14C15.552 14 16 14.448 16 15C16 15.552 15.552 16 15 16C14.448 16 14 15.552 14 15Z" fill="url(#paint0_linear_67_1496)"/>
<path d="M10.0306 5.47116C10.3844 5.82175 10.5612 6.24533 10.5612 6.74177C10.5612 7.23821 10.3844 7.66179 10.0306 8.01239C9.67685 8.36298 9.25175 8.53834 8.75531 8.53834C8.25887 8.53834 7.8354 8.36298 7.48469 8.01239C7.1341 7.66179 6.9588 7.23821 6.9588 6.74177C6.9588 6.25154 7.1341 5.82955 7.48469 5.47579C7.8354 5.12209 8.25887 4.9452 8.75531 4.9452C9.25175 4.9452 9.67685 5.12056 10.0306 5.47116Z" fill="#8C4FD9"/>
<path fill-rule="evenodd" clip-rule="evenodd" d="M-1 8.94789V12.1035L0.601032 12.7458C0.72517 13.3167 1.01533 13.7883 1.47142 14.1607C1.9275 14.533 2.45034 14.7192 3.03994 14.7192C3.68528 14.7192 4.24696 14.502 4.72475 14.0676C5.20254 13.6332 5.47252 13.0964 5.53459 12.4572L8.74604 10.1114C9.67685 10.1114 10.4697 9.78413 11.1244 9.12941C11.779 8.47469 12.1064 7.68502 12.1064 6.76037C12.1064 5.82955 11.779 5.03678 11.1244 4.38206C10.4697 3.72733 9.67685 3.40002 8.74604 3.40002C7.82755 3.40002 7.04257 3.72428 6.39101 4.37273C5.73934 5.02124 5.4074 5.80474 5.39496 6.72317L3.30054 9.72048C3.24469 9.71432 3.15786 9.71121 3.03994 9.71121C2.57448 9.71121 2.14938 9.82602 1.76463 10.0556L-1 8.94789ZM4.34306 13.5231C4.70304 13.1662 4.88303 12.7303 4.88303 12.2152C4.88303 11.7001 4.70304 11.2642 4.34306 10.9073C3.98319 10.5505 3.54882 10.3721 3.03994 10.3721C2.9158 10.3721 2.78545 10.3876 2.64898 10.4186L3.41225 10.7258C3.79077 10.8748 4.05923 11.1354 4.2174 11.5077C4.37568 11.8801 4.38037 12.2524 4.23136 12.6247C4.07624 13.0033 3.81248 13.2717 3.44017 13.43C3.06787 13.5882 2.69545 13.5929 2.32315 13.4439C2.03767 13.3198 1.73365 13.1957 1.41087 13.0716C1.5661 13.3695 1.78951 13.6084 2.08109 13.7883C2.37278 13.9683 2.6924 14.0583 3.03994 14.0583C3.54882 14.0583 3.98319 13.8799 4.34306 13.5231ZM10.3378 8.34749C10.7784 7.91001 10.9987 7.38095 10.9987 6.76037C10.9987 6.13362 10.7799 5.60146 10.3425 5.16397C9.90495 4.72649 9.37284 4.50772 8.74604 4.50772C8.12545 4.50772 7.5964 4.72802 7.15897 5.16861C6.72143 5.60926 6.50272 6.13984 6.50272 6.76037C6.50272 7.38095 6.72143 7.91001 7.15897 8.34749C7.5964 8.78498 8.12545 9.00374 8.74604 9.00374C9.36662 9.00374 9.8972 8.78498 10.3378 8.34749Z" fill="#8C4FD9"/>
<path fill-rule="evenodd" clip-rule="evenodd" d="M-0.106323 7.54787V10.7035L1.49471 11.3458C1.61885 11.9167 1.90901 12.3883 2.36509 12.7606C2.82117 13.133 3.34402 13.3191 3.93362 13.3191C4.57896 13.3191 5.14064 13.102 5.61843 12.6676C6.09622 12.2332 6.3662 11.6963 6.42827 11.0572L9.63971 8.71142C10.5705 8.71142 11.3634 8.38411 12.0181 7.72938C12.6727 7.07466 13.0001 6.285 13.0001 5.36034C13.0001 4.42953 12.6727 3.63676 12.0181 2.98203C11.3634 2.32731 10.5705 2 9.63971 2C8.72122 2 7.93625 2.32425 7.28469 2.97271C6.63302 3.62121 6.30108 4.40471 6.28864 5.32315L4.19422 8.32046C4.13837 8.3143 4.05154 8.31119 3.93362 8.31119C3.46815 8.31119 3.04305 8.426 2.65831 8.65557L-0.106323 7.54787ZM5.23674 12.123C5.59672 11.7662 5.77671 11.3303 5.77671 10.8152C5.77671 10.3001 5.59672 9.86417 5.23674 9.5073C4.87687 9.15048 4.4425 8.97207 3.93362 8.97207C3.80948 8.97207 3.67912 8.98756 3.54266 9.0186L4.30592 9.32578C4.68445 9.47474 4.9529 9.73539 5.11107 10.1077C5.26936 10.4801 5.27405 10.8524 5.12504 11.2247C4.96992 11.6033 4.70615 11.8717 4.33385 12.0299C3.96154 12.1882 3.58913 12.1928 3.21682 12.0439C2.93135 11.9198 2.62733 11.7957 2.30455 11.6715C2.45978 11.9694 2.68318 12.2083 2.97477 12.3883C3.26646 12.5683 3.58607 12.6583 3.93362 12.6583C4.4425 12.6583 4.87687 12.4798 5.23674 12.123ZM11.2315 6.94747C11.6721 6.50999 11.8924 5.98093 11.8924 5.36034C11.8924 4.7336 11.6736 4.20143 11.2362 3.76395C10.7986 3.32647 10.2665 3.1077 9.63971 3.1077C9.01913 3.1077 8.49007 3.32799 8.05264 3.76859C7.61511 4.20923 7.39639 4.73982 7.39639 5.36034C7.39639 5.98093 7.61511 6.50999 8.05264 6.94747C8.49007 7.38495 9.01913 7.60372 9.63971 7.60372C10.2603 7.60372 10.7909 7.38495 11.2315 6.94747Z" fill="url(#paint1_linear_67_1496)"/>
<path d="M10.9242 4.07112C11.278 4.42171 11.4548 4.84529 11.4548 5.34173C11.4548 5.83817 11.278 6.26175 10.9242 6.61235C10.5705 6.96294 10.1454 7.1383 9.64893 7.1383C9.15248 7.1383 8.72902 6.96294 8.37831 6.61235C8.02772 6.26175 7.85242 5.83817 7.85242 5.34173C7.85242 4.85151 8.02772 4.42951 8.37831 4.07575C8.72902 3.72205 9.15248 3.54517 9.64893 3.54517C10.1454 3.54517 10.5705 3.72052 10.9242 4.07112Z" fill="url(#paint2_linear_67_1496)"/>
</g>
<defs>
<linearGradient id="paint0_linear_67_1496" x1="4" y1="14.8571" x2="14.5882" y2="2.5042" gradientUnits="userSpaceOnUse">
<stop stop-color="#A056FF"/>
<stop offset="1" stop-color="#C59AFD"/>
</linearGradient>
<linearGradient id="paint1_linear_67_1496" x1="3.17027" y1="13.3191" x2="15.5279" y2="8.54951" gradientUnits="userSpaceOnUse">
<stop stop-color="#C59AFD"/>
<stop offset="1" stop-color="white"/>
</linearGradient>
<linearGradient id="paint2_linear_67_1496" x1="8.75302" y1="7.1383" x2="12.2635" y2="5.9651" gradientUnits="userSpaceOnUse">
<stop stop-color="#C59AFD"/>
<stop offset="1" stop-color="white"/>
</linearGradient>
<clipPath id="clip0_67_1496">
<rect width="16" height="16" fill="white"/>
</clipPath>
</defs>
</svg>
