<svg width="16" height="16" viewBox="0 0 16 16" fill="none" xmlns="http://www.w3.org/2000/svg">
<path d="M8.70043 2.50017C8.55668 2.49824 8.3712 2.51279 8.11808 2.54107C6.32605 2.74109 4.83113 3.90032 3.12105 6.41544C2.6047 7.17487 1.94105 8.15024 1.64633 8.58304C0.404741 10.4063 0.458228 12.2774 1.77444 13.0642C2.6251 13.5727 3.4471 13.7743 4.74835 13.7941C5.40238 13.804 6.35998 13.8529 6.87633 13.9026C8.31698 14.0412 8.49735 14.038 9.51138 13.8534C10.6463 13.6469 11.5218 13.2168 12.2249 12.5208C12.777 11.9743 13.5653 10.4616 13.6889 9.80027C14.7242 6.58419 11.063 2.66299 8.70043 2.50017Z" fill="url(#paint0_linear_15_1613)"/>
<path d="M8.86637 2.59998C8.79977 2.59998 8.7805 2.72812 8.82152 2.89735C8.82152 2.89735 8.93952 3.43733 9.7312 3.83283C10.2818 4.0899 10.2808 4.23848 9.72755 4.39265C9.48642 4.45983 9.19342 4.58725 9.0765 4.67573C8.88365 4.82165 8.95402 4.88183 9.83375 5.3246C10.3671 5.59308 10.9024 5.89103 11.0231 5.98685C11.2326 6.15318 11.223 6.17648 10.8143 6.4991C10.358 6.85925 9.81812 7.70128 9.81812 8.05275C9.81812 8.24278 9.9072 8.2582 10.6587 8.19828C11.121 8.1614 11.6297 8.115 11.7891 8.09518L12.079 8.05908L12.0376 9.01493C12.0148 9.5406 11.9482 10.1015 11.8895 10.2614C11.8307 10.4212 11.8063 10.5765 11.8351 10.6063C11.9566 10.7321 12.4523 10.4545 12.7923 10.0704C13.1399 9.67768 13.162 9.6696 13.2359 9.91058C13.4848 10.3426 13.595 10.721 13.9812 11.0996C14.0675 11.1076 14.1333 11.0034 14.1886 10.7886C14.359 10.1275 14.2677 9.48748 13.909 8.82653C13.7156 8.47038 13.5263 7.9091 13.488 7.57915C13.4497 7.2492 13.3867 6.8654 13.348 6.72618C13.2894 6.5146 13.4031 6.39113 14.0408 5.97443C14.7668 5.49995 14.9541 5.23 14.6796 5.0544C14.6114 5.01078 14.252 5.14263 13.8809 5.34733C13.5097 5.55205 13.1331 5.71945 13.0439 5.71945C12.9547 5.71945 12.6749 5.46318 12.4223 5.15003C11.9832 4.60575 11.9631 4.54355 11.9631 3.74025C11.9631 2.97698 11.9407 2.89663 11.7187 2.86384C11.5393 2.83733 11.4354 2.92506 11.3279 3.19378C11.2473 3.3951 11.1407 3.55983 11.091 3.55983C11.0413 3.55983 10.5468 3.34385 9.99202 3.07989C9.43732 2.81594 8.9307 2.59998 8.86637 2.59998Z" fill="#D84F4F"/>
<path fill-rule="evenodd" clip-rule="evenodd" d="M8.17287 6.66738C7.8844 6.95588 7.44005 6.97925 7.1804 6.71963C6.92077 6.45998 6.94415 6.01563 7.23265 5.72715C7.52112 5.43865 8.11235 5.2684 8.37197 5.52805C8.63162 5.78768 8.46137 6.3789 8.17287 6.66738ZM7.17287 9.16738C6.8844 9.45588 6.44005 9.47925 6.1804 9.21963C5.92077 8.95998 5.94415 8.51563 6.23265 8.22715C6.52112 7.93865 7.11235 7.7684 7.37197 8.02805C7.63162 8.28768 7.46137 8.8789 7.17287 9.16738ZM9.6804 10.7196C9.94005 10.9793 10.3844 10.9559 10.6729 10.6674C10.9614 10.3789 11.1316 9.78768 10.872 9.52805C10.6123 9.2684 10.0211 9.43865 9.73265 9.72715C9.44415 10.0156 9.42077 10.46 9.6804 10.7196ZM9.67287 13.1674C9.3844 13.4559 8.94005 13.4793 8.6804 13.2196C8.42077 12.96 8.44415 12.5156 8.73265 12.2272C9.02112 11.9387 9.61235 11.7684 9.87197 12.0281C10.1316 12.2877 9.96137 12.8789 9.67287 13.1674ZM5.6804 12.7196C5.94005 12.9793 6.3844 12.9559 6.67287 12.6674C6.96137 12.3789 7.13162 11.7877 6.87197 11.5281C6.61235 11.2684 6.02112 11.4387 5.73265 11.7272C5.44415 12.0156 5.42077 12.46 5.6804 12.7196ZM3.67287 11.6674C3.3844 11.9559 2.94005 11.9793 2.6804 11.7196C2.42077 11.46 2.44415 11.0156 2.73265 10.7272C3.02112 10.4387 3.61235 10.2684 3.87197 10.5281C4.13162 10.7877 3.96137 11.3789 3.67287 11.6674ZM3.6804 8.71963C3.94005 8.97925 4.3844 8.95588 4.67287 8.66738C4.96137 8.3789 5.13162 7.78768 4.87197 7.52805C4.61235 7.2684 4.02112 7.43865 3.73265 7.72715C3.44415 8.01563 3.42077 8.45998 3.6804 8.71963Z" fill="#D84F4F"/>
<path d="M9.56632 2C9.49972 2 9.48045 2.12815 9.52147 2.29737C9.52147 2.29737 9.63948 2.83735 10.4312 3.23285C10.9818 3.48993 10.9808 3.6385 10.4275 3.79268C10.1864 3.85985 9.89337 3.98727 9.77645 4.07575C9.5836 4.22167 9.65397 4.28185 10.5337 4.72463C11.0671 4.9931 11.6023 5.29105 11.723 5.38688C11.9325 5.5532 11.923 5.5765 11.5142 5.89913C11.0579 6.25928 10.5181 7.1013 10.5181 7.45278C10.5181 7.6428 10.6071 7.65822 11.3586 7.5983C11.821 7.56142 12.3297 7.51503 12.4891 7.4952L12.779 7.4591L12.7375 8.41495C12.7148 8.94063 12.6481 9.50152 12.5894 9.6614C12.5307 9.82125 12.5062 9.97647 12.5351 10.0063C12.6566 10.1321 13.1523 9.85455 13.4923 9.4704C13.8399 9.0777 13.862 9.06963 13.9359 9.3106C14.1848 9.7426 14.295 10.121 14.6812 10.4996C14.7674 10.5076 14.8332 10.4034 14.8886 10.1887C15.0589 9.52748 14.9677 8.8875 14.6089 8.22655C14.4156 7.8704 14.2262 7.30913 14.1879 6.97918C14.1497 6.64923 14.0866 6.26543 14.048 6.1262C13.9893 5.91463 14.1031 5.79115 14.7407 5.37445C15.4667 4.89998 15.6541 4.63002 15.3795 4.45442C15.3113 4.4108 14.952 4.54265 14.5808 4.74735C14.2097 4.95208 13.833 5.11947 13.7439 5.11947C13.6547 5.11947 13.3749 4.8632 13.1223 4.55005C12.6832 4.00577 12.663 3.94358 12.663 3.14028C12.663 2.37701 12.6406 2.29665 12.4187 2.26386C12.2393 2.23736 12.1354 2.32509 12.0278 2.5938C11.9472 2.79513 11.8406 2.95985 11.7909 2.95985C11.7413 2.95985 11.2467 2.74388 10.692 2.47992C10.1373 2.21597 9.63065 2 9.56632 2Z" fill="url(#paint1_linear_15_1613)"/>
<path fill-rule="evenodd" clip-rule="evenodd" d="M8.67287 5.76735C8.3844 6.05585 7.94005 6.07923 7.6804 5.8196C7.42077 5.55995 7.44415 5.1156 7.73265 4.82713C8.02112 4.53863 8.61235 4.36838 8.87197 4.62803C9.13162 4.88765 8.96137 5.47888 8.67287 5.76735ZM7.67287 8.26735C7.3844 8.55585 6.94005 8.57923 6.6804 8.3196C6.42077 8.05995 6.44415 7.6156 6.73265 7.32713C7.02112 7.03863 7.61235 6.86838 7.87197 7.12803C8.13162 7.38765 7.96137 7.97888 7.67287 8.26735ZM10.1804 9.8196C10.44 10.0792 10.8844 10.0559 11.1729 9.76735C11.4614 9.47888 11.6316 8.88765 11.372 8.62803C11.1123 8.36838 10.5211 8.53863 10.2326 8.82713C9.94415 9.1156 9.92077 9.55995 10.1804 9.8196ZM10.1729 12.2674C9.8844 12.5559 9.44005 12.5792 9.1804 12.3196C8.92077 12.06 8.94415 11.6156 9.23265 11.3271C9.52112 11.0386 10.1123 10.8684 10.372 11.128C10.6316 11.3877 10.4614 11.9789 10.1729 12.2674ZM6.1804 11.8196C6.44005 12.0792 6.8844 12.0559 7.17287 11.7674C7.46137 11.4789 7.63162 10.8877 7.37197 10.628C7.11235 10.3684 6.52112 10.5386 6.23265 10.8271C5.94415 11.1156 5.92077 11.56 6.1804 11.8196ZM4.17287 10.7674C3.8844 11.0559 3.44005 11.0792 3.1804 10.8196C2.92077 10.56 2.94415 10.1156 3.23265 9.82713C3.52112 9.53863 4.11235 9.36838 4.37197 9.62803C4.63162 9.88765 4.46137 10.4789 4.17287 10.7674ZM4.1804 7.8196C4.44005 8.07923 4.8844 8.05585 5.17287 7.76735C5.46137 7.47888 5.63162 6.88765 5.37197 6.62803C5.11235 6.36838 4.52112 6.53863 4.23265 6.82713C3.94415 7.1156 3.92077 7.55995 4.1804 7.8196Z" fill="url(#paint2_linear_15_1613)"/>
<defs>
<linearGradient id="paint0_linear_15_1613" x1="3.20982" y1="12.5625" x2="10.171" y2="3.033" gradientUnits="userSpaceOnUse">
<stop stop-color="#FF405B"/>
<stop offset="1" stop-color="#FF8860"/>
</linearGradient>
<linearGradient id="paint1_linear_15_1613" x1="11.2136" y1="10.4998" x2="14.6283" y2="4.76102" gradientUnits="userSpaceOnUse">
<stop stop-color="#FF8860"/>
<stop offset="1" stop-color="white"/>
</linearGradient>
<linearGradient id="paint2_linear_15_1613" x1="5.42762" y1="12.4998" x2="7.92798" y2="6.17472" gradientUnits="userSpaceOnUse">
<stop stop-color="#FF8860"/>
<stop offset="1" stop-color="white"/>
</linearGradient>
</defs>
</svg>
