<svg width="16" height="16" viewBox="0 0 16 16" fill="none" xmlns="http://www.w3.org/2000/svg">
<g clip-path="url(#clip0_80_5812)">
<path fill-rule="evenodd" clip-rule="evenodd" d="M4.46311 11.5338C3.0489 10.1196 1.75701 11.181 1.69337 11.2022C1.17082 11.3796 0.602306 11.0996 0.424821 10.5771C-0.523408 7.7833 0.115816 4.56738 2.34179 2.34141C5.46367 -0.780469 10.5336 -0.780469 13.6555 2.34141C16.7774 5.46328 16.7774 10.5332 13.6555 13.6551C11.4295 15.8811 8.2136 16.5203 5.41982 15.5721C4.89727 15.3946 4.61726 14.8261 4.79474 14.3035C4.81595 14.2399 5.87732 12.948 4.46311 11.5338ZM3.756 13.6551C3.36568 14.0454 2.73211 14.0454 2.34179 13.6551C1.95147 13.2648 1.95147 12.6312 2.34179 12.2409C2.73211 11.8506 3.36568 11.8506 3.756 12.2409C4.14632 12.6312 4.14632 13.2648 3.756 13.6551Z" fill="url(#paint0_linear_80_5812)"/>
<path d="M12.0762 6.79585C12.0451 6.75825 11.9828 6.7125 11.9379 6.682C11.9039 6.65885 11.8663 6.64175 11.8265 6.6309C11.7704 6.6156 11.6876 6.5956 11.6375 6.5956H10.8359C10.5193 6.5956 10.2824 6.3051 10.3461 5.99498L10.615 4.68663C10.6345 4.60223 10.6347 4.51451 10.6156 4.43001C10.5966 4.34551 10.5587 4.2664 10.5047 4.19859L10.5056 4.19982C10.4536 4.13725 10.3886 4.08689 10.3149 4.05236C10.2413 4.01781 10.161 3.99994 10.0796 4H10.0661H10.0669C9.69686 4.01193 9.39136 4.27342 9.31241 4.62085L9.31116 4.62619L9.20471 5.14506C9.20136 5.15822 9.19561 5.17056 9.19276 5.18371L8.98391 6.19695C8.93601 6.4293 8.73146 6.59605 8.49421 6.59605H7.13301C6.81641 6.59605 6.57951 6.3055 6.64326 5.99539L6.91206 4.68704C6.93166 4.60264 6.93186 4.51492 6.91276 4.43042C6.89371 4.34592 6.85581 4.26681 6.80191 4.199L6.80271 4.20023C6.75081 4.13766 6.68571 4.0873 6.61206 4.05277C6.53846 4.01822 6.45806 4.00035 6.37676 4.00041H6.36321H6.36401C5.99396 4.01234 5.68846 4.27383 5.60956 4.62126L5.60831 4.6266L5.50096 5.14864C5.49851 5.16048 5.49451 5.1719 5.49196 5.18371L5.28506 6.19615C5.23751 6.4289 5.03271 6.59605 4.79516 6.59605H3.66274C3.29271 6.60795 2.98722 6.86905 2.90786 7.21645L2.90663 7.2218C2.88697 7.3062 2.88663 7.394 2.90563 7.47855C2.92465 7.5632 2.96251 7.64235 3.01641 7.71025L3.01559 7.709C3.11755 7.83155 3.27009 7.90925 3.44113 7.90925H3.45511H3.45429H4.31991C4.63656 7.90925 4.87346 8.1998 4.80966 8.50995L4.59511 9.5534C4.54731 9.78585 4.34271 9.9527 4.10536 9.9527H2.97077C2.60073 9.9646 2.29524 10.2261 2.21589 10.5736L2.21466 10.5788C2.19531 10.6631 2.19513 10.7507 2.21413 10.835C2.23313 10.9194 2.27083 10.9983 2.32444 11.0661L2.32362 11.0648C2.42599 11.1874 2.57853 11.2651 2.74957 11.2651H2.76355H2.76273H3.62836C3.94499 11.2651 4.18189 11.5556 4.11811 11.8658L3.84694 13.1844C3.8274 13.2688 3.82716 13.3565 3.84624 13.441C3.86532 13.5255 3.90322 13.6046 3.95713 13.6724L3.95631 13.6712C4.05868 13.7937 4.21121 13.8714 4.38226 13.8714H4.39581H4.39501C4.57171 13.8658 4.74166 13.8019 4.87821 13.6896C5.01476 13.5773 5.11031 13.4229 5.14986 13.2506L5.15111 13.2452L5.47606 11.6652C5.52386 11.4328 5.72846 11.2659 5.96581 11.2659H7.32791C7.64451 11.2659 7.88141 11.5565 7.81766 11.8666L7.54646 13.1852C7.52696 13.2696 7.52671 13.3573 7.54581 13.4418C7.56486 13.5264 7.60276 13.6054 7.65671 13.6732L7.65586 13.672C7.75821 13.7945 7.91076 13.8718 8.08181 13.8718H8.09536H8.09456C8.27126 13.8663 8.44111 13.8023 8.57761 13.69C8.71416 13.5776 8.80961 13.4233 8.84901 13.2509L8.85026 13.2456L9.17521 11.6656C9.22301 11.4331 9.42761 11.2663 9.66496 11.2663H10.7375C10.9141 11.2607 11.084 11.1969 11.2206 11.0847C11.3571 10.9724 11.4527 10.8181 11.4924 10.6459L11.4936 10.6405C11.5139 10.5562 11.5146 10.4685 11.4959 10.3839C11.4772 10.2992 11.4394 10.2199 11.3855 10.1521L11.3863 10.1533C11.3343 10.0907 11.2691 10.0403 11.1954 10.0057C11.1217 9.9711 11.0413 9.9531 10.9599 9.9531H10.9451H10.9459H10.142C9.82531 9.9531 9.58841 9.66255 9.65221 9.3524L9.86676 8.30895C9.91456 8.07645 10.1192 7.90965 10.3565 7.90965H11.429C11.6058 7.90405 11.7757 7.84015 11.9122 7.7278C12.0488 7.61555 12.1443 7.46115 12.1839 7.2888L12.1851 7.28345C12.1975 7.23 12.1945 7.1412 12.1907 7.0833C12.1882 7.0456 12.1798 7.00865 12.1659 6.9735C12.1445 6.91955 12.1091 6.83805 12.075 6.795C12.0305 6.7391 12.0599 6.77615 12.0716 6.79095C12.0744 6.7945 12.0772 6.798 12.0802 6.80145C12.0915 6.815 12.1183 6.84685 12.0762 6.79585ZM6.44361 9.95145C6.12701 9.95145 5.89011 9.6609 5.95386 9.35075L6.16846 8.3073C6.21626 8.07485 6.42086 7.908 6.65821 7.908H8.02031C8.33691 7.908 8.57381 8.1986 8.51006 8.5087L8.29546 9.5522C8.24766 9.78465 8.04306 9.95145 7.80571 9.95145H6.44361Z" fill="#D49F34"/>
<path d="M12.6375 5.5956C12.6876 5.5956 12.7704 5.6156 12.8265 5.6309C12.8663 5.64175 12.9039 5.65885 12.9379 5.682C12.9828 5.7125 13.0451 5.75825 13.0762 5.79585C13.1183 5.84685 13.0915 5.815 13.0802 5.80145C13.0772 5.798 13.0744 5.7945 13.0716 5.79095C13.0599 5.77615 13.0305 5.7391 13.075 5.795C13.1091 5.83805 13.1445 5.91955 13.1659 5.9735C13.1798 6.00865 13.1882 6.0456 13.1907 6.0833C13.1945 6.1412 13.1975 6.23 13.1851 6.28345L13.1839 6.2888C13.1443 6.46115 13.0488 6.61555 12.9122 6.7278C12.7757 6.84015 12.6058 6.90405 12.429 6.90965H11.3565C11.1192 6.90965 10.9146 7.07645 10.8668 7.30895L10.6522 8.3524C10.5884 8.66255 10.8253 8.9531 11.142 8.9531H11.9459H11.9451H11.9599C12.0413 8.9531 12.1217 8.9711 12.1954 9.0057C12.2691 9.04025 12.3343 9.0907 12.3863 9.15335L12.3855 9.1521C12.4394 9.21995 12.4772 9.2992 12.4959 9.38385C12.5146 9.46845 12.5139 9.55625 12.4936 9.64055L12.4924 9.6459C12.4527 9.8181 12.3571 9.9724 12.2206 10.0847C12.084 10.1969 11.9141 10.2607 11.7375 10.2663H10.665C10.4276 10.2663 10.223 10.4331 10.1752 10.6656L9.85026 12.2456L9.84901 12.2509C9.80961 12.4233 9.71416 12.5776 9.57761 12.69C9.44111 12.8023 9.27126 12.8663 9.09456 12.8718H9.09536H9.08181C8.91076 12.8718 8.75821 12.7945 8.65586 12.672L8.65671 12.6732C8.60276 12.6054 8.56486 12.5264 8.54581 12.4418C8.52671 12.3573 8.52696 12.2696 8.54646 12.1852L8.81766 10.8666C8.88141 10.5565 8.64451 10.2659 8.32791 10.2659H6.96581C6.72846 10.2659 6.52386 10.4328 6.47606 10.6652L6.15111 12.2452L6.14986 12.2506C6.11031 12.4229 6.01476 12.5773 5.87821 12.6896C5.74166 12.8019 5.57171 12.8658 5.39501 12.8714H5.39581H5.38226C5.21121 12.8714 5.05868 12.7937 4.95631 12.6712L4.95713 12.6724C4.90322 12.6046 4.86532 12.5255 4.84624 12.441C4.82716 12.3565 4.8274 12.2688 4.84694 12.1844L5.11811 10.8658C5.18189 10.5556 4.94499 10.2651 4.62836 10.2651H3.76273H3.76355H3.74957C3.57853 10.2651 3.42599 10.1874 3.32362 10.0648L3.32444 10.0661C3.27083 9.9983 3.23313 9.91935 3.21413 9.83495C3.19513 9.75065 3.19531 9.6631 3.21466 9.57885L3.21589 9.57355C3.29524 9.2261 3.60073 8.9646 3.97077 8.9527H5.10536C5.34271 8.9527 5.54731 8.78585 5.59511 8.5534L5.80966 7.50995C5.87346 7.1998 5.63656 6.90925 5.31991 6.90925H4.45429H4.45511H4.44113C4.27009 6.90925 4.11755 6.83155 4.01559 6.709L4.01641 6.71025C3.96251 6.64235 3.92465 6.5632 3.90563 6.47855C3.88663 6.394 3.88697 6.3062 3.90663 6.2218L3.90786 6.21645C3.98722 5.86905 4.29271 5.60795 4.66274 5.59605H5.79516C6.03271 5.59605 6.23751 5.4289 6.28506 5.19615L6.49196 4.18371C6.49451 4.1719 6.49851 4.16048 6.50096 4.14864L6.60831 3.6266L6.60956 3.62126C6.68846 3.27383 6.99396 3.01234 7.36401 3.00041H7.36321H7.37676C7.45806 3.00035 7.53846 3.01822 7.61206 3.05277C7.68571 3.0873 7.75081 3.13766 7.80271 3.20023L7.80191 3.199C7.85581 3.26681 7.89371 3.34592 7.91276 3.43042C7.93186 3.51492 7.93166 3.60264 7.91206 3.68704L7.64326 4.99539C7.57951 5.3055 7.81641 5.59605 8.13301 5.59605H9.49421C9.73146 5.59605 9.93601 5.4293 9.98391 5.19695L10.1928 4.18371C10.1956 4.17056 10.2014 4.15822 10.2047 4.14506L10.3112 3.62619L10.3124 3.62085C10.3914 3.27342 10.6969 3.01193 11.0669 3H11.0661H11.0796C11.161 2.99994 11.2413 3.01781 11.3149 3.05236C11.3886 3.08689 11.4536 3.13725 11.5056 3.19982L11.5047 3.19859C11.5587 3.2664 11.5966 3.34551 11.6156 3.43001C11.6347 3.51451 11.6345 3.60223 11.615 3.68663L11.3461 4.99498C11.2824 5.3051 11.5193 5.5956 11.8359 5.5956H12.6375ZM12.6375 5.5956H12.6367ZM9.29546 8.5522L9.51006 7.5087C9.57381 7.1986 9.33691 6.908 9.02031 6.908H7.65821C7.42086 6.908 7.21626 7.07485 7.16846 7.3073L6.95386 8.35075C6.89011 8.6609 7.12701 8.95145 7.44361 8.95145H8.80571C9.04306 8.95145 9.24766 8.78465 9.29546 8.5522Z" fill="url(#paint1_linear_80_5812)"/>
<path d="M12.6375 5.5956C12.6876 5.5956 12.7704 5.6156 12.8265 5.6309C12.8663 5.64175 12.9039 5.65885 12.9379 5.682C12.9828 5.7125 13.0451 5.75825 13.0762 5.79585C13.1183 5.84685 13.0915 5.815 13.0802 5.80145C13.0772 5.798 13.0744 5.7945 13.0716 5.79095C13.0599 5.77615 13.0305 5.7391 13.075 5.795C13.1091 5.83805 13.1445 5.91955 13.1659 5.9735C13.1798 6.00865 13.1882 6.0456 13.1907 6.0833C13.1945 6.1412 13.1975 6.23 13.1851 6.28345L13.1839 6.2888C13.1443 6.46115 13.0488 6.61555 12.9122 6.7278C12.7757 6.84015 12.6058 6.90405 12.429 6.90965H11.3565C11.1192 6.90965 10.9146 7.07645 10.8668 7.30895L10.6522 8.3524C10.5884 8.66255 10.8253 8.9531 11.142 8.9531H11.9459H11.9451H11.9599C12.0413 8.9531 12.1217 8.9711 12.1954 9.0057C12.2691 9.04025 12.3343 9.0907 12.3863 9.15335L12.3855 9.1521C12.4394 9.21995 12.4772 9.2992 12.4959 9.38385C12.5146 9.46845 12.5139 9.55625 12.4936 9.64055L12.4924 9.6459C12.4527 9.8181 12.3571 9.9724 12.2206 10.0847C12.084 10.1969 11.9141 10.2607 11.7375 10.2663H10.665C10.4276 10.2663 10.223 10.4331 10.1752 10.6656L9.85026 12.2456L9.84901 12.2509C9.80961 12.4233 9.71416 12.5776 9.57761 12.69C9.44111 12.8023 9.27126 12.8663 9.09456 12.8718H9.09536H9.08181C8.91076 12.8718 8.75821 12.7945 8.65586 12.672L8.65671 12.6732C8.60276 12.6054 8.56486 12.5264 8.54581 12.4418C8.52671 12.3573 8.52696 12.2696 8.54646 12.1852L8.81766 10.8666C8.88141 10.5565 8.64451 10.2659 8.32791 10.2659H6.96581C6.72846 10.2659 6.52386 10.4328 6.47606 10.6652L6.15111 12.2452L6.14986 12.2506C6.11031 12.4229 6.01476 12.5773 5.87821 12.6896C5.74166 12.8019 5.57171 12.8658 5.39501 12.8714H5.39581H5.38226C5.21121 12.8714 5.05868 12.7937 4.95631 12.6712L4.95713 12.6724C4.90322 12.6046 4.86532 12.5255 4.84624 12.441C4.82716 12.3565 4.8274 12.2688 4.84694 12.1844L5.11811 10.8658C5.18189 10.5556 4.94499 10.2651 4.62836 10.2651H3.76273H3.76355H3.74957C3.57853 10.2651 3.42599 10.1874 3.32362 10.0648L3.32444 10.0661C3.27083 9.9983 3.23313 9.91935 3.21413 9.83495C3.19513 9.75065 3.19531 9.6631 3.21466 9.57885L3.21589 9.57355C3.29524 9.2261 3.60073 8.9646 3.97077 8.9527H5.10536C5.34271 8.9527 5.54731 8.78585 5.59511 8.5534L5.80966 7.50995C5.87346 7.1998 5.63656 6.90925 5.31991 6.90925H4.45429H4.45511H4.44113C4.27009 6.90925 4.11755 6.83155 4.01559 6.709L4.01641 6.71025C3.96251 6.64235 3.92465 6.5632 3.90563 6.47855C3.88663 6.394 3.88697 6.3062 3.90663 6.2218L3.90786 6.21645C3.98722 5.86905 4.29271 5.60795 4.66274 5.59605H5.79516C6.03271 5.59605 6.23751 5.4289 6.28506 5.19615L6.49196 4.18371C6.49451 4.1719 6.49851 4.16048 6.50096 4.14864L6.60831 3.6266L6.60956 3.62126C6.68846 3.27383 6.99396 3.01234 7.36401 3.00041H7.36321H7.37676C7.45806 3.00035 7.53846 3.01822 7.61206 3.05277C7.68571 3.0873 7.75081 3.13766 7.80271 3.20023L7.80191 3.199C7.85581 3.26681 7.89371 3.34592 7.91276 3.43042C7.93186 3.51492 7.93166 3.60264 7.91206 3.68704L7.64326 4.99539C7.57951 5.3055 7.81641 5.59605 8.13301 5.59605H9.49421C9.73146 5.59605 9.93601 5.4293 9.98391 5.19695L10.1928 4.18371C10.1956 4.17056 10.2014 4.15822 10.2047 4.14506L10.3112 3.62619L10.3124 3.62085C10.3914 3.27342 10.6969 3.01193 11.0669 3H11.0661H11.0796C11.161 2.99994 11.2413 3.01781 11.3149 3.05236C11.3886 3.08689 11.4536 3.13725 11.5056 3.19982L11.5047 3.19859C11.5587 3.2664 11.5966 3.34551 11.6156 3.43001C11.6347 3.51451 11.6345 3.60223 11.615 3.68663L11.3461 4.99498C11.2824 5.3051 11.5193 5.5956 11.8359 5.5956H12.6375ZM12.6375 5.5956H12.6367M9.29546 8.5522L9.51006 7.5087C9.57381 7.1986 9.33691 6.908 9.02031 6.908H7.65821C7.42086 6.908 7.21626 7.07485 7.16846 7.3073L6.95386 8.35075C6.89011 8.6609 7.12701 8.95145 7.44361 8.95145H8.80571C9.04306 8.95145 9.24766 8.78465 9.29546 8.5522Z" stroke="url(#paint2_linear_80_5812)" stroke-width="0.6"/>
</g>
<defs>
<linearGradient id="paint0_linear_80_5812" x1="2.99942" y1="14.9959" x2="12.9966" y2="2.99842" gradientUnits="userSpaceOnUse">
<stop stop-color="#FF8860"/>
<stop offset="1" stop-color="#FBD92C"/>
</linearGradient>
<linearGradient id="paint1_linear_80_5812" x1="5.69851" y1="10.4039" x2="10.634" y2="5.40722" gradientUnits="userSpaceOnUse">
<stop stop-color="#FBD92C"/>
<stop offset="1" stop-color="white"/>
</linearGradient>
<linearGradient id="paint2_linear_80_5812" x1="5.69851" y1="10.4039" x2="10.634" y2="5.40722" gradientUnits="userSpaceOnUse">
<stop stop-color="#FBD92C"/>
<stop offset="1" stop-color="white"/>
</linearGradient>
<clipPath id="clip0_80_5812">
<rect width="16" height="16" fill="white"/>
</clipPath>
</defs>
</svg>
