<svg width="16" height="16" viewBox="0 0 16 16" fill="none" xmlns="http://www.w3.org/2000/svg">
<g clip-path="url(#clip0_71_1575)">
<path fill-rule="evenodd" clip-rule="evenodd" d="M16 15C16 14.448 15.552 14 15 14C14.448 14 14 14.448 14 15C14 15.552 14.448 16 15 16C15.552 16 16 15.552 16 15ZM13 15C13 13.896 13.896 13 15 13C15.552 13 16 12.552 16 12C16 12 16 7.216 16 3.958C16 1.772 14.228 0 12.042 0H3.958C1.772 0 0 1.772 0 3.958V12.042C0 14.228 1.772 16 3.958 16C7.216 16 12 16 12 16C12.552 16 13 15.552 13 15Z" fill="url(#paint0_linear_71_1575)"/>
<path fill-rule="evenodd" clip-rule="evenodd" d="M11.2 3.20014C11.2 3.06521 11.0691 2.969 10.9403 3.00924L3.3403 5.38424C3.2568 5.41033 3.19995 5.48766 3.19995 5.57515V8.2895C3.19995 8.37285 3.25167 8.4475 3.32973 8.47675L6.29105 9.58725C6.4693 9.6541 6.4622 9.90865 6.2805 9.96545L3.3403 10.8842C3.2568 10.9103 3.19995 10.9876 3.19995 11.0751V13.656C3.19995 13.791 3.33082 13.8872 3.45961 13.8469L11.0596 11.4719C11.1431 11.4458 11.2 11.3685 11.2 11.281V8.5667C11.2 8.48335 11.1483 8.4087 11.0702 8.37945L8.10885 7.26895C7.9306 7.2021 7.9377 6.94755 8.1194 6.89075L11.0596 5.97195C11.1431 5.94585 11.2 5.86855 11.2 5.78105V3.20014Z" fill="#D49F34"/>
<path fill-rule="evenodd" clip-rule="evenodd" d="M12.2 2.20014C12.2 2.06521 12.0691 1.969 11.9403 2.00924L4.3403 4.38424C4.2568 4.41033 4.19995 4.48766 4.19995 4.57515V7.2895C4.19995 7.37285 4.25167 7.4475 4.32973 7.47675L7.29105 8.58725C7.4693 8.6541 7.4622 8.90865 7.2805 8.96545L4.3403 9.88425C4.2568 9.91035 4.19995 9.98765 4.19995 10.0751V12.656C4.19995 12.791 4.33082 12.8872 4.45961 12.8469L12.0596 10.4719C12.1431 10.4458 12.2 10.3685 12.2 10.281V7.5667C12.2 7.48335 12.1483 7.4087 12.0702 7.37945L9.10885 6.26895C8.9306 6.2021 8.9377 5.94755 9.1194 5.89075L12.0596 4.97195C12.1431 4.94585 12.2 4.86855 12.2 4.78105V2.20014Z" fill="url(#paint1_linear_71_1575)"/>
</g>
<defs>
<linearGradient id="paint0_linear_71_1575" x1="3" y1="14.9988" x2="12.9991" y2="2.999" gradientUnits="userSpaceOnUse">
<stop stop-color="#FF8860"/>
<stop offset="1" stop-color="#FBD92C"/>
</linearGradient>
<linearGradient id="paint1_linear_71_1575" x1="6.19995" y1="10.1421" x2="11.3846" y2="6.32158" gradientUnits="userSpaceOnUse">
<stop stop-color="#FBD92C"/>
<stop offset="1" stop-color="white"/>
</linearGradient>
<clipPath id="clip0_71_1575">
<rect width="16" height="16" fill="white"/>
</clipPath>
</defs>
</svg>
