<svg width="16" height="16" viewBox="0 0 16 16" fill="none" xmlns="http://www.w3.org/2000/svg">
<g clip-path="url(#clip0_144_15857)">
<path fill-rule="evenodd" clip-rule="evenodd" d="M8 0C5.87826 0 3.84344 0.842857 2.34314 2.34314C0.842857 3.84344 0 5.87826 0 8C0 9.46886 0.403955 10.8961 1.15034 12.1331C1.44298 12.6181 2.11644 12.6383 2.67994 12.5805C2.73819 12.5745 2.79731 12.5714 2.85714 12.5714C3.80392 12.5714 4.57143 13.3389 4.57143 14.2857V14.2857C4.57143 14.7623 4.7059 15.3059 5.15128 15.4756C6.05252 15.8191 7.01693 16 8 16C9.04574 16 10.0704 15.7952 11.0203 15.408C11.7643 15.1046 12.7829 15.5392 13.521 15.8563C13.7362 15.9488 13.9733 16 14.2222 16C15.2041 16 16 15.2041 16 14.2222C16 13.9733 15.9488 13.7362 15.8563 13.521C15.5392 12.7829 15.1046 11.7643 15.408 11.0203C15.7952 10.0704 16 9.04574 16 8C16 5.87826 15.1571 3.84344 13.6568 2.34314C12.1566 0.842857 10.1217 0 8 0Z" fill="url(#paint0_linear_144_15857)"/>
<circle cx="2.28574" cy="14.8571" r="1.14286" fill="url(#paint1_linear_144_15857)"/>
<path fill-rule="evenodd" clip-rule="evenodd" d="M6 7.6C6 7.82091 5.82091 8 5.6 8H4C3.448 8 3 8.448 3 9C3 9.552 3.448 10 4 10H5.6C5.82091 10 6 10.1791 6 10.4V12C6 12.552 6.448 13 7 13C7.552 13 8 12.552 8 12V10.4C8 10.1791 8.17909 10 8.4 10H10C10.552 10 11 9.552 11 9C11 8.448 10.552 8 10 8H8.4C8.17909 8 8 7.82091 8 7.6V6C8 5.448 7.552 5 7 5C6.448 5 6 5.448 6 6V7.6Z" fill="#279FD7"/>
<path fill-rule="evenodd" clip-rule="evenodd" d="M7 6.6C7 6.82091 6.82091 7 6.6 7H5C4.448 7 4 7.448 4 8C4 8.552 4.448 9 5 9H6.6C6.82091 9 7 9.17909 7 9.4V11C7 11.552 7.448 12 8 12C8.552 12 9 11.552 9 11V9.4C9 9.17909 9.17909 9 9.4 9H11C11.552 9 12 8.552 12 8C12 7.448 11.552 7 11 7H9.4C9.17909 7 9 6.82091 9 6.6V5C9 4.448 8.552 4 8 4C7.448 4 7 4.448 7 5V6.6Z" fill="url(#paint2_linear_144_15857)"/>
</g>
<defs>
<linearGradient id="paint0_linear_144_15857" x1="1.6" y1="16.005" x2="7.3787" y2="-1.33327" gradientUnits="userSpaceOnUse">
<stop offset="0.190745" stop-color="#22B4FA"/>
<stop offset="0.896724" stop-color="#7DDCFF"/>
</linearGradient>
<linearGradient id="paint1_linear_144_15857" x1="1.37145" y1="16.0007" x2="2.19698" y2="13.5238" gradientUnits="userSpaceOnUse">
<stop offset="0.190745" stop-color="#22B4FA"/>
<stop offset="0.896724" stop-color="#7DDCFF"/>
</linearGradient>
<linearGradient id="paint2_linear_144_15857" x1="4" y1="12" x2="13.4118" y2="9.64706" gradientUnits="userSpaceOnUse">
<stop stop-color="#6BD6FE"/>
<stop offset="1" stop-color="white"/>
</linearGradient>
<clipPath id="clip0_144_15857">
<rect width="16" height="16" fill="white"/>
</clipPath>
</defs>
</svg>
