<svg width="16" height="16" viewBox="0 0 16 16" fill="none" xmlns="http://www.w3.org/2000/svg">
<path fill-rule="evenodd" clip-rule="evenodd" d="M11.4288 14.3C13.9537 14.3 16 12.2776 16 9.7824C16 8.88489 15.7352 8.04851 15.2786 7.34543C14.9161 6.7873 14.0786 7.0066 13.4505 7.22665C13.2811 7.28601 13.0989 7.31828 12.9093 7.31828C12.0055 7.31828 11.2729 6.58565 11.2729 5.6819C11.2729 5.35177 11.3706 5.04446 11.5388 4.78737C11.8858 4.25678 12.2611 3.5469 11.8443 3.06919C11.0059 2.10833 9.765 1.5 8.3808 1.5C5.85601 1.5 3.80961 3.5224 3.80961 6.0176C3.80961 6.3361 3.8429 6.6466 3.90625 6.94634C3.9667 7.23238 3.72116 7.52328 3.4288 7.52321C1.5352 7.52401 0 9.0408 0 10.912C0 12.7832 1.5352 14.3 3.4288 14.3H11.4288ZM13.4547 6.22736C14.0572 6.22736 14.5456 5.73894 14.5456 5.13644C14.5456 4.53394 14.0572 4.04552 13.4547 4.04552C12.8522 4.04552 12.3638 4.53394 12.3638 5.13644C12.3638 5.73894 12.8522 6.22736 13.4547 6.22736Z" fill="url(#paint0_linear_17_2235)"/>
<path fill-rule="evenodd" clip-rule="evenodd" d="M5.60005 14.8H8.80005C9.24165 14.8 9.60005 14.4416 9.60005 14C9.60005 13.5584 9.24165 13.2 8.80005 13.2H5.60005C5.15845 13.2 4.80005 13.5584 4.80005 14C4.80005 14.4416 5.15845 14.8 5.60005 14.8ZM6.40005 9.5312L6.16565 9.7656C5.85365 10.0776 5.34645 10.0776 5.03445 9.7656C4.72245 9.4536 4.72245 8.9464 5.03445 8.6344L6.63445 7.0344C6.94645 6.7216 7.45365 6.7216 7.76565 7.0344L9.36565 8.6344C9.67765 8.9464 9.67765 9.4536 9.36565 9.7656C9.05365 10.0776 8.54645 10.0776 8.23445 9.7656L8.00005 9.5312V11.6C8.00005 12.0416 7.64165 12.4 7.20005 12.4C6.75845 12.4 6.40005 12.0416 6.40005 11.6V9.5312Z" fill="#354BD9"/>
<path fill-rule="evenodd" clip-rule="evenodd" d="M6.39997 14H9.59997C10.0416 14 10.4 13.6416 10.4 13.2C10.4 12.7584 10.0416 12.4 9.59997 12.4H6.39997C5.95838 12.4 5.59998 12.7584 5.59998 13.2C5.59998 13.6416 5.95838 14 6.39997 14Z" fill="url(#paint1_linear_17_2235)"/>
<path fill-rule="evenodd" clip-rule="evenodd" d="M7.19994 8.73116L6.96554 8.96556C6.65354 9.27756 6.14634 9.27756 5.83434 8.96556C5.52234 8.65356 5.52234 8.14636 5.83434 7.83436L7.43434 6.23436C7.74634 5.92156 8.25354 5.92156 8.56554 6.23436L10.1655 7.83436C10.4775 8.14636 10.4775 8.65356 10.1655 8.96556C9.85354 9.27756 9.34634 9.27756 9.03434 8.96556L8.79994 8.73116V10.8C8.79994 11.2416 8.44154 11.6 7.99994 11.6C7.55834 11.6 7.19994 11.2416 7.19994 10.8V8.73116Z" fill="url(#paint2_linear_17_2235)"/>
<defs>
<linearGradient id="paint0_linear_17_2235" x1="1" y1="14.3069" x2="15.8001" y2="1.2798" gradientUnits="userSpaceOnUse">
<stop stop-color="#2E4AFA"/>
<stop offset="1" stop-color="#8E9EFF"/>
</linearGradient>
<linearGradient id="paint1_linear_17_2235" x1="5.59997" y1="14" x2="10.4" y2="12.4" gradientUnits="userSpaceOnUse">
<stop stop-color="#98A7FF"/>
<stop offset="1" stop-color="white"/>
</linearGradient>
<linearGradient id="paint2_linear_17_2235" x1="8.79994" y1="6.79996" x2="7.19994" y2="11.6" gradientUnits="userSpaceOnUse">
<stop stop-color="white"/>
<stop offset="1" stop-color="#98A7FF"/>
</linearGradient>
</defs>
</svg>
