<svg width="16" height="16" viewBox="0 0 16 16" fill="none" xmlns="http://www.w3.org/2000/svg">
<g clip-path="url(#clip0_92_258)">
<path fill-rule="evenodd" clip-rule="evenodd" d="M1 13C0.448 13 0 12.552 0 12V3.992C0 1.787 1.787 0 3.992 0C6.357 0 9.643 0 12.008 0C13.067 0 14.082 0.421001 14.831 1.169C15.579 1.918 16 2.933 16 3.992C16 6.357 16 9.643 16 12.008C16 14.213 14.213 16 12.008 16C8.751 16 4 16 4 16C3.448 16 3 15.552 3 15C3 13.896 2.104 13 1 13ZM1 14C1.552 14 2 14.448 2 15C2 15.552 1.552 16 1 16C0.448 16 0 15.552 0 15C0 14.448 0.448 14 1 14Z" fill="url(#paint0_linear_92_258)"/>
<path d="M7.09995 3.40002C4.13396 3.40002 1.69995 5.83407 1.69995 8.80002C1.69995 11.766 4.13396 14.2 7.09995 14.2C10.0659 14.2 12.5 11.766 12.5 8.80002C12.5 5.83407 10.0659 3.40002 7.09995 3.40002ZM7.09995 13.5672C4.4828 13.5672 2.33277 11.4172 2.33277 8.80002C2.33277 6.18287 4.4828 4.03284 7.09995 4.03284C9.7171 4.03284 11.8671 6.18287 11.8671 8.80002C11.8671 11.4172 9.7171 13.5672 7.09995 13.5672ZM5.86985 11.715C5.49353 11.5555 5.15485 11.3272 4.86384 11.0361C4.57273 10.7451 4.3444 10.4064 4.18495 10.0301C4.11696 9.8688 3.92971 9.79371 3.77028 9.86206C3.60929 9.92998 3.53423 10.1157 3.60219 10.2767C3.79343 10.7284 4.06721 11.1344 4.41638 11.4836C4.76555 11.8328 5.17156 12.1065 5.6233 12.2978C5.78404 12.3659 5.97001 12.2908 6.03792 12.1296C6.10593 11.9687 6.03083 11.783 5.86985 11.715ZM10.5977 7.32337C10.4064 6.87164 10.1327 6.46562 9.78349 6.11639C9.43435 5.76725 9.02834 5.49354 8.57661 5.30226C8.41654 5.23458 8.22991 5.30876 8.16198 5.47034C8.09398 5.63132 8.16907 5.81703 8.33006 5.88496C8.70637 6.04442 9.04505 6.27282 9.33606 6.56384C9.62715 6.85493 9.85547 7.19361 10.0149 7.56992C10.0831 7.73141 10.2693 7.80584 10.4296 7.73799C10.5906 7.67007 10.6657 7.48437 10.5977 7.32337ZM7.09995 6.58517C5.8788 6.58517 4.8851 7.57887 4.8851 8.80002C4.8851 10.0212 5.8788 11.0149 7.09995 11.0149C8.3211 11.0149 9.3148 10.0212 9.3148 8.80002C9.3148 7.57887 8.3211 6.58517 7.09995 6.58517ZM7.09995 10.3821C6.22769 10.3821 5.51792 9.67229 5.51792 8.80002C5.51792 7.92776 6.22769 7.21799 7.09995 7.21799C7.97222 7.21799 8.68199 7.92776 8.68199 8.80002C8.68199 9.67229 7.97222 10.3821 7.09995 10.3821ZM7.09995 7.8508C6.5765 7.8508 6.15073 8.27657 6.15073 8.80002C6.15073 9.32348 6.5765 9.74925 7.09995 9.74925C7.62341 9.74925 8.04917 9.32348 8.04917 8.80002C8.04917 8.27657 7.62341 7.8508 7.09995 7.8508ZM7.09995 9.11643C6.92538 9.11643 6.78354 8.97459 6.78354 8.80002C6.78354 8.62546 6.92538 8.48362 7.09995 8.48362C7.27452 8.48362 7.41636 8.62546 7.41636 8.80002C7.41636 8.97459 7.27452 9.11643 7.09995 9.11643Z" fill="#8C4FD9" stroke="#8C4FD9" stroke-width="0.4"/>
<path d="M8.2999 2.20001C5.33391 2.20001 2.8999 4.63405 2.8999 7.60001C2.8999 10.566 5.33391 13 8.2999 13C11.2659 13 13.6999 10.566 13.6999 7.60001C13.6999 4.63405 11.2659 2.20001 8.2999 2.20001ZM8.2999 12.3672C5.68275 12.3672 3.53272 10.2172 3.53272 7.60001C3.53272 4.98286 5.68275 2.83283 8.2999 2.83283C10.9171 2.83283 13.0671 4.98286 13.0671 7.60001C13.0671 10.2172 10.9171 12.3672 8.2999 12.3672ZM7.0698 10.515C6.69348 10.3555 6.35481 10.1272 6.0638 9.83612C5.77269 9.54511 5.54435 9.20643 5.3849 8.83012C5.31691 8.66879 5.12966 8.59369 4.97023 8.66204C4.80924 8.72997 4.73418 8.91567 4.80214 9.07667C4.99338 9.5284 5.26716 9.93442 5.61633 10.2836C5.9655 10.6328 6.37151 10.9065 6.82325 11.0978C6.98399 11.1659 7.16996 11.0908 7.23787 10.9296C7.30588 10.7687 7.23078 10.583 7.0698 10.515ZM11.7977 6.12336C11.6064 5.67162 11.3327 5.26561 10.9834 4.91638C10.6343 4.56724 10.2283 4.29353 9.77656 4.10225C9.61649 4.03457 9.42986 4.10875 9.36193 4.27032C9.29393 4.43131 9.36902 4.61702 9.53001 4.68494C9.90632 4.84441 10.245 5.07281 10.536 5.36382C10.8271 5.65492 11.0554 5.99359 11.2149 6.36991C11.2831 6.5314 11.4693 6.60582 11.6296 6.53798C11.7906 6.47005 11.8657 6.28436 11.7977 6.12336ZM8.2999 5.38516C7.07875 5.38516 6.08505 6.37886 6.08505 7.60001C6.08505 8.82117 7.07875 9.81486 8.2999 9.81486C9.52106 9.81486 10.5148 8.82117 10.5148 7.60001C10.5148 6.37886 9.52106 5.38516 8.2999 5.38516ZM8.2999 9.18205C7.42764 9.18205 6.71787 8.47228 6.71787 7.60001C6.71787 6.72775 7.42764 6.01798 8.2999 6.01798C9.17217 6.01798 9.88194 6.72775 9.88194 7.60001C9.88194 8.47228 9.17217 9.18205 8.2999 9.18205ZM8.2999 6.65079C7.77645 6.65079 7.35068 7.07656 7.35068 7.60001C7.35068 8.12347 7.77645 8.54923 8.2999 8.54923C8.82336 8.54923 9.24912 8.12347 9.24912 7.60001C9.24912 7.07656 8.82336 6.65079 8.2999 6.65079ZM8.2999 7.91642C8.12534 7.91642 7.9835 7.77458 7.9835 7.60001C7.9835 7.42545 8.12534 7.2836 8.2999 7.2836C8.47447 7.2836 8.61631 7.42545 8.61631 7.60001C8.61631 7.77458 8.47447 7.91642 8.2999 7.91642Z" fill="url(#paint1_linear_92_258)" stroke="url(#paint2_linear_92_258)" stroke-width="0.4"/>
</g>
<defs>
<linearGradient id="paint0_linear_92_258" x1="4" y1="14.8571" x2="14.5882" y2="2.5042" gradientUnits="userSpaceOnUse">
<stop stop-color="#A056FF"/>
<stop offset="1" stop-color="#C59AFD"/>
</linearGradient>
<linearGradient id="paint1_linear_92_258" x1="5.5999" y1="13" x2="16.1299" y2="9.49001" gradientUnits="userSpaceOnUse">
<stop stop-color="#C59AFD"/>
<stop offset="1" stop-color="white"/>
</linearGradient>
<linearGradient id="paint2_linear_92_258" x1="5.5999" y1="13" x2="16.1299" y2="9.49001" gradientUnits="userSpaceOnUse">
<stop stop-color="#C59AFD"/>
<stop offset="1" stop-color="white"/>
</linearGradient>
<clipPath id="clip0_92_258">
<rect width="16" height="16" fill="white"/>
</clipPath>
</defs>
</svg>
