<svg width="16" height="16" viewBox="0 0 16 16" fill="none" xmlns="http://www.w3.org/2000/svg">
<g clip-path="url(#clip0_43_1770)">
<path fill-rule="evenodd" clip-rule="evenodd" d="M0.999999 13C0.447999 13 0 12.552 0 12V3.992C0 1.78697 1.78697 0 3.992 0C6.35699 0 9.64299 0 12.008 0C13.067 0 14.082 0.421027 14.831 1.16903C15.579 1.91806 16 2.93303 16 3.992C16 6.35699 16 9.64299 16 12.008C16 14.213 14.213 16 12.008 16C8.75099 16 4 16 4 16C3.448 16 3 15.552 3 15C3 13.896 2.104 13 0.999999 13ZM0.999999 14C1.552 14 2 14.448 2 15C2 15.552 1.552 16 0.999999 16C0.447999 16 0 15.552 0 15C0 14.448 0.447999 14 0.999999 14Z" fill="url(#paint0_linear_43_1770)"/>
<path fill-rule="evenodd" clip-rule="evenodd" d="M1.75809 8.44184C1.75809 5.43628 4.19437 3 7.19995 3C10.2055 3 12.6418 5.43628 12.6418 8.44184V10.0007C12.705 9.97844 12.7725 9.97156 12.8389 9.98078C12.9052 9.98995 12.9684 10.0149 13.023 10.0536C13.0777 10.0923 13.1223 10.1435 13.1531 10.2029C13.1839 10.2624 13.2 10.3284 13.2 10.3953V11.5117C13.2 11.6227 13.1558 11.7291 13.0773 11.8076C12.9988 11.8861 12.8924 11.9302 12.7814 11.9302C12.6703 11.9302 12.5638 11.8861 12.4854 11.8076C12.4069 11.7291 12.3627 11.6227 12.3627 11.5117V11.2325H11.8046V8.44184C11.8046 7.22063 11.3195 6.04942 10.4559 5.18588C9.59237 4.32234 8.42117 3.83721 7.19995 3.83721C5.97872 3.83721 4.80751 4.32234 3.94397 5.18588C3.08043 6.04942 2.5953 7.22063 2.5953 8.44184V11.2325H2.03716V11.5117C2.03716 11.6227 1.99306 11.7291 1.91456 11.8076C1.83605 11.8861 1.72958 11.9302 1.61855 11.9302C1.50753 11.9302 1.40106 11.8861 1.32256 11.8076C1.24406 11.7291 1.19995 11.6227 1.19995 11.5117V10.3953C1.19996 10.3284 1.21604 10.2624 1.24682 10.2029C1.27761 10.1435 1.32222 10.0923 1.3769 10.0536C1.43158 10.0149 1.49473 9.98995 1.56106 9.98078C1.62739 9.97156 1.69496 9.97844 1.75809 10.0007V8.44184Z" fill="#279FD7"/>
<path d="M4.96736 9.58593C4.96736 9.1115 4.96736 8.87488 4.85016 8.70966C4.79057 8.62626 4.71242 8.55786 4.62188 8.50986C4.44048 8.41271 4.19602 8.43508 3.70653 8.48024C2.88048 8.55508 2.46857 8.59299 2.17276 8.79895C2.0241 8.90226 1.89847 9.0353 1.80383 9.18966C1.61853 9.49386 1.61853 9.89292 1.61853 10.6911V11.6622C1.61853 12.4531 1.61853 12.8488 1.80718 13.1541C1.87806 13.2685 1.96681 13.3718 2.07006 13.4594C2.34634 13.6955 2.74932 13.7692 3.55583 13.916C4.1229 14.0198 4.40699 14.0717 4.61629 13.9623C4.69332 13.9221 4.76141 13.8674 4.81723 13.8021C4.96736 13.6241 4.96736 13.3456 4.96736 12.7891V9.58593ZM9.43246 9.58593C9.43246 9.1115 9.43246 8.87488 9.54968 8.70966C9.60831 8.62708 9.68642 8.55841 9.77795 8.50986C9.95937 8.41271 10.2038 8.43508 10.6933 8.48024C11.5194 8.55508 11.9313 8.59299 12.2271 8.79895C12.3767 8.9039 12.5022 9.03671 12.596 9.18966C12.7813 9.49326 12.7813 9.89292 12.7813 10.6911V11.6622C12.7813 12.4531 12.7813 12.8488 12.5927 13.1541C12.5218 13.2685 12.4331 13.3718 12.3298 13.4594C12.0535 13.6955 11.6506 13.7692 10.844 13.916C10.2769 14.0198 9.99286 14.0717 9.78357 13.9623C9.70682 13.9225 9.63859 13.8681 9.58262 13.8021C9.43246 13.6241 9.43246 13.3456 9.43246 12.7891V9.58593Z" fill="#279FD7"/>
<path fill-rule="evenodd" clip-rule="evenodd" d="M2.75809 7.44184C2.75809 4.43628 5.19437 2 8.19995 2C11.2055 2 13.6418 4.43628 13.6418 7.44184V9.00075C13.705 8.97844 13.7725 8.97156 13.8389 8.98078C13.9052 8.98995 13.9684 9.01493 14.023 9.0536C14.0777 9.09227 14.1223 9.14349 14.1531 9.20295C14.1839 9.2624 14.2 9.3284 14.2 9.39533V10.5117C14.2 10.6227 14.1558 10.7291 14.0773 10.8076C13.9988 10.8861 13.8924 10.9302 13.7814 10.9302C13.6703 10.9302 13.5638 10.8861 13.4854 10.8076C13.4069 10.7291 13.3627 10.6227 13.3627 10.5117V10.2325H12.8046V7.44184C12.8046 6.22063 12.3195 5.04942 11.4559 4.18588C10.5924 3.32234 9.42117 2.83721 8.19995 2.83721C6.97872 2.83721 5.80751 3.32234 4.94397 4.18588C4.08043 5.04942 3.5953 6.22063 3.5953 7.44184V10.2325H3.03716V10.5117C3.03716 10.6227 2.99306 10.7291 2.91456 10.8076C2.83605 10.8861 2.72958 10.9302 2.61855 10.9302C2.50753 10.9302 2.40106 10.8861 2.32256 10.8076C2.24406 10.7291 2.19995 10.6227 2.19995 10.5117V9.39533C2.19996 9.3284 2.21604 9.2624 2.24682 9.20295C2.27761 9.14349 2.32222 9.09227 2.3769 9.0536C2.43158 9.01493 2.49473 8.98995 2.56106 8.98078C2.62739 8.97156 2.69496 8.97844 2.75809 9.00075V7.44184Z" fill="url(#paint1_linear_43_1770)"/>
<path d="M5.96736 8.58593C5.96736 8.1115 5.96736 7.87488 5.85016 7.70966C5.79057 7.62626 5.71242 7.55786 5.62188 7.50986C5.44048 7.41271 5.19602 7.43508 4.70653 7.48024C3.88048 7.55508 3.46857 7.59299 3.17276 7.79895C3.0241 7.90226 2.89847 8.0353 2.80383 8.18966C2.61853 8.49386 2.61853 8.89292 2.61853 9.69108V10.6622C2.61853 11.4531 2.61853 11.8488 2.80718 12.1541C2.87806 12.2685 2.96681 12.3718 3.07006 12.4594C3.34634 12.6955 3.74932 12.7692 4.55583 12.916C5.1229 13.0198 5.40699 13.0717 5.61629 12.9623C5.69332 12.9221 5.76141 12.8674 5.81723 12.8021C5.96736 12.6241 5.96736 12.3456 5.96736 11.7891V8.58593ZM10.4325 8.58593C10.4325 8.1115 10.4325 7.87488 10.5497 7.70966C10.6083 7.62708 10.6864 7.55841 10.778 7.50986C10.9594 7.41271 11.2038 7.43508 11.6933 7.48024C12.5194 7.55508 12.9313 7.59299 13.2271 7.79895C13.3767 7.9039 13.5022 8.03671 13.596 8.18966C13.7813 8.49326 13.7813 8.89292 13.7813 9.69108V10.6622C13.7813 11.4531 13.7813 11.8488 13.5927 12.1541C13.5218 12.2685 13.4331 12.3718 13.3298 12.4594C13.0535 12.6955 12.6506 12.7692 11.844 12.916C11.2769 13.0198 10.9929 13.0717 10.7836 12.9623C10.7068 12.9225 10.6386 12.8681 10.5826 12.8021C10.4325 12.6241 10.4325 12.3456 10.4325 11.7891V8.58593Z" fill="url(#paint2_linear_43_1770)"/>
</g>
<defs>
<linearGradient id="paint0_linear_43_1770" x1="1.6" y1="16.005" x2="7.3787" y2="-1.33327" gradientUnits="userSpaceOnUse">
<stop offset="0.190745" stop-color="#22B4FA"/>
<stop offset="0.896724" stop-color="#7DDCFF"/>
</linearGradient>
<linearGradient id="paint1_linear_43_1770" x1="2.19995" y1="10.9302" x2="15.6788" y2="6.40218" gradientUnits="userSpaceOnUse">
<stop stop-color="#6BD6FE"/>
<stop offset="1" stop-color="white"/>
</linearGradient>
<linearGradient id="paint2_linear_43_1770" x1="2.61853" y1="13.0232" x2="13.7814" y2="7.44188" gradientUnits="userSpaceOnUse">
<stop stop-color="#6BD6FE"/>
<stop offset="1" stop-color="white"/>
</linearGradient>
<clipPath id="clip0_43_1770">
<rect width="16" height="16" fill="white"/>
</clipPath>
</defs>
</svg>
