<svg width="16" height="16" viewBox="0 0 16 16" fill="none" xmlns="http://www.w3.org/2000/svg">
<g clip-path="url(#clip0_43_1892)">
<path fill-rule="evenodd" clip-rule="evenodd" d="M16 15C16 14.448 15.552 14 15 14C14.448 14 14 14.448 14 15C14 15.552 14.448 16 15 16C15.552 16 16 15.552 16 15ZM13 15C13 13.896 13.896 13 15 13C15.552 13 16 12.552 16 12C16 12 16 7.216 16 3.958C16 1.772 14.228 0 12.042 0H3.958C1.772 0 0 1.772 0 3.958V12.042C0 14.228 1.772 16 3.958 16C7.216 16 12 16 12 16C12.552 16 13 15.552 13 15Z" fill="url(#paint0_linear_43_1892)"/>
<path d="M8.30168 6.70691C8.17638 6.70691 8.07481 6.80847 8.07481 6.93376V13.5464C8.07481 13.797 7.87165 14.0001 7.62106 14.0001H5.93067C5.68007 14.0001 5.47696 13.797 5.47696 13.5464V6.93376C5.47696 6.80847 5.3754 6.70691 5.25011 6.70691H3.25376C3.00317 6.70691 2.80005 6.50378 2.80005 6.2532V4.82877C2.80005 4.57821 3.00317 4.37506 3.25376 4.37506H10.2862C10.5368 4.37506 10.7399 4.57821 10.7399 4.82877V6.2532C10.7399 6.50378 10.5368 6.70691 10.2862 6.70691H8.30168Z" fill="#8C4FD9"/>
<path d="M9.67668 5.33185C9.55138 5.33185 9.44981 5.43341 9.44981 5.5587V12.1713C9.44981 12.4219 9.24665 12.625 8.99606 12.625H7.30567C7.05507 12.625 6.85196 12.4219 6.85196 12.1713V5.5587C6.85196 5.43341 6.7504 5.33185 6.62511 5.33185H4.62876C4.37817 5.33185 4.17505 5.12872 4.17505 4.87814V3.45371C4.17505 3.20315 4.37817 3 4.62876 3H11.6612C11.9118 3 12.1149 3.20315 12.1149 3.45371V4.87814C12.1149 5.12872 11.9118 5.33185 11.6612 5.33185H9.67668Z" fill="url(#paint1_linear_43_1892)"/>
</g>
<defs>
<linearGradient id="paint0_linear_43_1892" x1="4" y1="14.8571" x2="14.5882" y2="2.5042" gradientUnits="userSpaceOnUse">
<stop stop-color="#A056FF"/>
<stop offset="1" stop-color="#C59AFD"/>
</linearGradient>
<linearGradient id="paint1_linear_43_1892" x1="6.16001" y1="12.625" x2="14.1569" y2="10.4261" gradientUnits="userSpaceOnUse">
<stop stop-color="#C59AFD"/>
<stop offset="1" stop-color="white"/>
</linearGradient>
<clipPath id="clip0_43_1892">
<rect width="16" height="16" fill="white"/>
</clipPath>
</defs>
</svg>
