<svg width="16" height="16" viewBox="0 0 16 16" fill="none" xmlns="http://www.w3.org/2000/svg">
<path fill-rule="evenodd" clip-rule="evenodd" d="M6.05303 2.07777C7.23628 1.86076 8.4578 2.10179 9.46994 2.752C9.95925 3.06634 10.3819 3.46492 10.7214 3.92462C11.1297 4.47776 11.7591 4.86117 12.4347 4.9887C13.0421 5.10335 13.6182 5.34533 14.1254 5.69871C14.6325 6.05208 15.059 6.50885 15.3769 7.03896C15.6947 7.56906 15.8968 8.16047 15.9694 8.77425C16.0424 9.38802 15.9844 10.0103 15.7994 10.6C15.6143 11.1898 15.3065 11.7337 14.8963 12.1959C14.4859 12.6581 13.9823 13.0282 13.4186 13.2817C12.8548 13.5354 12.2439 13.6666 11.6258 13.6672H11.6253H3.64551H3.64352C3.13817 13.6658 3.07687 12.871 3.2819 12.4091C3.37619 12.1967 3.42857 11.9616 3.42857 11.7143C3.42857 10.7675 2.66106 10 1.71429 10C1.21991 10 0.774409 10.2093 0.46154 10.5441C0.327287 10.6877 0.0510494 10.6534 0.0271331 10.4583C-0.0811529 9.5746 0.136968 8.68182 0.640513 7.94764C0.779768 7.7446 0.938202 7.55756 1.11282 7.3886C1.67366 6.84591 2.13915 6.16288 2.35751 5.41363C2.5128 4.8808 2.7618 4.37473 3.09775 3.92067C3.81329 2.9536 4.86976 2.2948 6.05303 2.07777ZM1.37146 12.9714C1.8764 12.9714 2.28574 12.5621 2.28574 12.0571C2.28574 11.5522 1.8764 11.1429 1.37146 11.1429C0.86651 11.1429 0.457171 11.5522 0.457171 12.0571C0.457171 12.5621 0.86651 12.9714 1.37146 12.9714Z" fill="url(#paint0_linear_8_358)"/>
<path d="M4.42716 5.59992C4.19874 5.37148 3.82836 5.37148 3.59992 5.59992C3.37148 5.82834 3.37148 6.19872 3.59992 6.42716L4.70698 7.53422C5.0975 7.92474 5.0975 8.55791 4.70698 8.94843L3.59992 10.0555C3.37148 10.2839 3.37148 10.6543 3.59992 10.8827C3.82836 11.1112 4.19874 11.1112 4.42716 10.8827L6.65494 8.65494C6.88339 8.42651 6.88339 8.05612 6.65494 7.8277L4.42716 5.59992Z" fill="#7FD1AE" stroke="#7FD1AE" stroke-width="0.4"/>
<path d="M5.56999 4.4571C5.34157 4.22866 4.97118 4.22866 4.74275 4.4571C4.5143 4.68552 4.5143 5.0559 4.74275 5.28434L5.8498 6.3914C6.24033 6.78192 6.24033 7.41509 5.8498 7.80561L4.74275 8.91266C4.5143 9.1411 4.5143 9.51146 4.74275 9.7399C4.97118 9.96833 5.34157 9.96833 5.56999 9.7399L7.79776 7.51212C8.02621 7.28369 8.02621 6.9133 7.79776 6.68488L5.56999 4.4571Z" fill="url(#paint1_linear_8_358)" stroke="url(#paint2_linear_8_358)" stroke-width="0.4"/>
<path d="M8 10.4479C8 10.0429 8.61036 9.85209 8.90135 10.1338C9.24177 10.4634 9.64454 10.7351 10.0473 10.7351C10.4501 10.7351 10.8529 10.4634 11.1933 10.1338C11.4843 9.85209 12.0946 10.0429 12.0946 10.4479C12.0946 10.5391 12.0635 10.6274 12.0018 10.6945C11.7373 10.9823 10.9408 11.7587 10.0473 11.7587C9.15384 11.7587 8.35739 10.9823 8.09284 10.6945C8.03116 10.6274 8 10.5391 8 10.4479Z" fill="#7FD1AE" stroke="#7FD1AE" stroke-width="0.4"/>
<path d="M9.14282 9.30511C9.14282 8.9001 9.75318 8.70927 10.0442 8.991C10.3846 9.32056 10.7874 9.59223 11.1901 9.59223C11.5929 9.59223 11.9957 9.32056 12.3361 8.991C12.6271 8.70927 13.2374 8.9001 13.2374 9.30511C13.2374 9.39625 13.2063 9.48457 13.1446 9.55167C12.8801 9.83948 12.0836 10.6159 11.1901 10.6159C10.2967 10.6159 9.50021 9.83948 9.23566 9.55167C9.17398 9.48457 9.14282 9.39625 9.14282 9.30511Z" fill="url(#paint3_linear_8_358)" stroke="url(#paint4_linear_8_358)" stroke-width="0.4"/>
<defs>
<linearGradient id="paint0_linear_8_358" x1="2" y1="12.2091" x2="16.3337" y2="7.67302" gradientUnits="userSpaceOnUse">
<stop stop-color="#62E8AF"/>
<stop offset="1" stop-color="#B3FBDC"/>
</linearGradient>
<linearGradient id="paint1_linear_8_358" x1="4.57141" y1="9.91122" x2="7.05628" y2="3.90794" gradientUnits="userSpaceOnUse">
<stop stop-color="#B3FBDC"/>
<stop offset="1" stop-color="white"/>
</linearGradient>
<linearGradient id="paint2_linear_8_358" x1="4.57141" y1="9.91122" x2="7.05628" y2="3.90794" gradientUnits="userSpaceOnUse">
<stop stop-color="#B3FBDC"/>
<stop offset="1" stop-color="white"/>
</linearGradient>
<linearGradient id="paint3_linear_8_358" x1="9.14282" y1="10.6159" x2="9.37619" y2="8.44256" gradientUnits="userSpaceOnUse">
<stop stop-color="#B3FBDC"/>
<stop offset="1" stop-color="white"/>
</linearGradient>
<linearGradient id="paint4_linear_8_358" x1="9.14282" y1="10.6159" x2="9.37619" y2="8.44256" gradientUnits="userSpaceOnUse">
<stop stop-color="#B3FBDC"/>
<stop offset="1" stop-color="white"/>
</linearGradient>
</defs>
</svg>
