<svg width="16" height="16" viewBox="0 0 16 16" fill="none" xmlns="http://www.w3.org/2000/svg">
<path fill-rule="evenodd" clip-rule="evenodd" d="M14.1969 8.57853C14.1969 9.78053 15.197 9.8785 15.2331 9.89653C15.5306 10.0432 15.6532 10.4038 15.5065 10.7013C14.7222 12.2915 13.0839 13.3865 11.1919 13.3865C8.53851 13.3865 6.38391 11.232 6.38391 8.57853C6.38391 5.9251 8.53851 3.77051 11.1919 3.77051C13.0839 3.77051 14.7222 4.86553 15.5065 6.45579C15.6532 6.75328 15.5306 7.11389 15.2331 7.26053C15.197 7.27856 14.1969 7.37652 14.1969 8.57853ZM15.399 7.97753C15.7307 7.97753 16 8.24678 16 8.57853C16 8.91028 15.7307 9.17953 15.399 9.17953C15.0672 9.17953 14.7979 8.91028 14.7979 8.57853C14.7979 8.24678 15.0672 7.97753 15.399 7.97753Z" fill="url(#paint0_linear_25_2731)"/>
<path fill-rule="evenodd" clip-rule="evenodd" d="M6.69393 6.86902L7.2546 8.56104C7.29082 8.67034 7.39301 8.74413 7.50816 8.74413H8.3894C8.48476 8.74413 8.57145 8.69221 8.62707 8.61475C8.91143 8.21861 9.37604 7.96055 9.90091 7.96055C10.7664 7.96055 11.468 8.66214 11.468 9.52762C11.468 10.3931 10.7664 11.0947 9.90091 11.0947C9.37606 11.0947 8.91149 10.8367 8.62709 10.4405C8.57149 10.3631 8.4848 10.3112 8.38946 10.3112H6.7095C6.49928 9.77112 6.38391 9.18383 6.38391 8.56983C6.38391 7.97116 6.49359 7.39789 6.69393 6.86902Z" fill="#B85C68"/>
<path fill-rule="evenodd" clip-rule="evenodd" d="M6.37497 1.62206L8.3231 7.50123C8.35932 7.61053 8.4615 7.68432 8.57665 7.68432H9.4579C9.55326 7.68432 9.63995 7.63241 9.69556 7.55494C9.97993 7.1588 10.4445 6.90075 10.9694 6.90075C11.8349 6.90075 12.5365 7.60233 12.5365 8.46781C12.5365 9.33326 11.8349 10.0349 10.9694 10.0349C10.4446 10.0349 9.97998 9.77685 9.69559 9.38074C9.63999 9.30329 9.5533 9.25137 9.45795 9.25137H7.47849C7.36394 9.25137 7.26213 9.17833 7.22544 9.06981L6.62776 7.30164C6.54325 7.05163 6.18595 7.06258 6.1169 7.31731L4.21261 14.3434C4.16798 14.5081 3.9398 14.5219 3.87573 14.3639L1.86973 9.41809C1.82886 9.31731 1.73097 9.25137 1.62221 9.25137H0.178074C0.0797277 9.25137 0 9.17163 0 9.0733V7.86239C0 7.76405 0.0797277 7.68432 0.178074 7.68432H2.71584C2.82625 7.68432 2.92528 7.75225 2.96504 7.85525L3.4688 9.16046C3.5616 9.40088 3.90741 9.38348 3.97559 9.13495L6.03421 1.63097C6.08082 1.46103 6.31956 1.45479 6.37497 1.62206Z" fill="url(#paint1_linear_25_2731)"/>
<defs>
<linearGradient id="paint0_linear_25_2731" x1="7.07077" y1="12.7978" x2="15.8748" y2="8.04659" gradientUnits="userSpaceOnUse">
<stop stop-color="#B65592"/>
<stop offset="0.5" stop-color="#FB6F71"/>
<stop offset="1" stop-color="#F9CB52"/>
</linearGradient>
<linearGradient id="paint1_linear_25_2731" x1="0.895463" y1="13.6806" x2="12.548" y2="7.60469" gradientUnits="userSpaceOnUse">
<stop stop-color="#D4A4C4"/>
<stop offset="0.5" stop-color="#F7B1B3"/>
<stop offset="1" stop-color="#F7E1A3"/>
</linearGradient>
</defs>
</svg>
