<svg width="16" height="16" viewBox="0 0 16 16" fill="none" xmlns="http://www.w3.org/2000/svg">
<g clip-path="url(#clip0_15_1721)">
<path fill-rule="evenodd" clip-rule="evenodd" d="M3 8C3 6 1.336 5.837 1.276 5.807C0.780999 5.563 0.576999 4.963 0.820999 4.468C2.126 1.822 4.852 0 8 0C12.415 0 16 3.585 16 8C16 12.415 12.415 16 8 16C4.852 16 2.126 14.178 0.820999 11.532C0.576999 11.037 0.780999 10.437 1.276 10.193C1.336 10.163 3 10 3 8ZM1 9C0.448 9 0 8.552 0 8C0 7.448 0.448 7 1 7C1.552 7 2 7.448 2 8C2 8.552 1.552 9 1 9Z" fill="url(#paint0_linear_15_1721)"/>
<path fill-rule="evenodd" clip-rule="evenodd" d="M14.7355 12.9034C14.7432 12.8514 14.7481 12.8003 14.75 12.75C15.0858 10.7754 14.8581 8.89426 12.4659 7.42066C12.3895 7.37363 12.3829 7.2634 12.455 7.2101L12.6739 7.0484C12.752 6.99066 12.7354 6.86914 12.6451 6.83296C8.63924 5.22553 6.51625 6.13476 5.29798 7.9445C5.28048 7.97051 5.25313 7.9895 5.22278 7.99736C3.26479 8.50534 2.95645 9.9657 3.00453 11.5173C3.00835 11.6405 3.17653 11.6839 3.25115 11.5858C3.66869 11.0365 4.26457 10.6229 5.14083 10.4003C5.14462 10.4421 5.16869 10.4838 5.21548 10.5068C7.46692 11.6135 8.02313 14.0206 6.44141 15.9153C7.13052 16.1328 7.86408 16.25 8.625 16.25C11.1918 16.25 13.4471 14.9159 14.7355 12.9034Z" fill="#279FD7"/>
<path fill-rule="evenodd" clip-rule="evenodd" d="M6.48739 15.8096C9.88414 16.9881 14.5149 15.223 13.488 10.9788C13.4411 10.7852 13.0081 10.7894 12.8409 10.8977C12.7415 10.962 12.7056 10.8671 12.643 10.7665C10.8505 7.8873 8.29482 8.19247 5.81384 8.18451C8.70641 8.1394 9.67161 12.8917 6.48752 15.8091" fill="url(#paint1_linear_15_1721)"/>
<path fill-rule="evenodd" clip-rule="evenodd" d="M5.39062 15.4512C7.74951 16.8171 9.96744 14.9576 10.6363 12.2717C10.6656 12.1542 10.5194 12.0682 10.422 12.1402C10.2988 12.2312 10.1529 12.3256 10.0155 12.3806C9.93108 12.4144 9.86567 12.3284 9.89496 12.2423C10.9356 9.18417 8.07011 8.26919 6.25539 8.27222C6.12399 8.27245 6.09755 8.44881 6.21548 8.50677C9.15213 9.95035 9.20467 13.6062 5.39075 15.4517" fill="url(#paint2_linear_15_1721)"/>
<path d="M15.053 12.5C15.0556 12.5112 15.0709 12.5133 15.0761 12.503C15.0789 12.4974 15.0818 12.4918 15.0845 12.4862L15.0846 12.4861V12.486C15.3795 11.8889 15.7306 11.2711 15.75 10.75C16.0858 8.77539 15.8581 6.89426 13.4659 5.42066C13.3895 5.37363 13.3829 5.2634 13.455 5.2101L13.6739 5.0484C13.752 4.99066 13.7354 4.86914 13.6451 4.83296C9.63924 3.22553 7.51625 4.13476 6.29798 5.9445C6.28048 5.97051 6.25313 5.9895 6.22278 5.99736C4.26479 6.50534 3.95645 7.9657 4.00453 9.51728C4.00835 9.64054 4.17653 9.68394 4.25115 9.58576C4.90066 8.7313 5.98171 8.20516 7.87841 8.21561C7.90694 8.21578 7.935 8.2259 7.95726 8.24374C8.17878 8.42113 8.41674 8.56799 8.6547 8.71484C8.73939 8.76709 8.82406 8.81935 8.90801 8.87299C8.91804 8.8794 8.92708 8.88723 8.9349 8.89619C9.25471 9.26241 9.62583 9.60464 10.0004 9.95006C11.3976 11.2386 12.8431 12.5714 11.8536 15.3595L11.8534 15.3596L11.8534 15.3599L11.8535 15.3597L11.8536 15.3595C12.9214 15.0314 14.5991 13.7903 15.2384 12.0704C15.2664 11.9951 15.0846 12.375 15.053 12.5Z" fill="url(#paint3_linear_15_1721)"/>
</g>
<defs>
<linearGradient id="paint0_linear_15_1721" x1="1.6" y1="16.005" x2="7.3787" y2="-1.33327" gradientUnits="userSpaceOnUse">
<stop stop-color="#22B4FA"/>
<stop offset="1" stop-color="#6BD6FE"/>
</linearGradient>
<linearGradient id="paint1_linear_15_1721" x1="5.81384" y1="16.1673" x2="15.0361" y2="13.9106" gradientUnits="userSpaceOnUse">
<stop stop-color="#6BD6FE"/>
<stop offset="1" stop-color="white"/>
</linearGradient>
<linearGradient id="paint2_linear_15_1721" x1="5.39062" y1="15.911" x2="11.7644" y2="14.816" gradientUnits="userSpaceOnUse">
<stop stop-color="#6BD6FE"/>
<stop offset="1" stop-color="white"/>
</linearGradient>
<linearGradient id="paint3_linear_15_1721" x1="4" y1="15.3599" x2="17.8926" y2="11.7299" gradientUnits="userSpaceOnUse">
<stop stop-color="#6BD6FE"/>
<stop offset="1" stop-color="white"/>
</linearGradient>
<clipPath id="clip0_15_1721">
<rect width="16" height="16" fill="white"/>
</clipPath>
</defs>
</svg>
