<svg width="16" height="16" viewBox="0 0 16 16" fill="none" xmlns="http://www.w3.org/2000/svg">
<path fill-rule="evenodd" clip-rule="evenodd" d="M0.810017 12.6636C0.362888 12.6636 0 12.3007 0 11.8536V5.36695C0 3.58086 1.4475 2.13336 3.23359 2.13336C5.14928 2.13336 7.811 2.13336 9.72669 2.13336C10.5845 2.13336 11.4067 2.47438 12.0134 3.08027C12.6193 3.68698 12.9603 4.50914 12.9603 5.36695C12.9603 7.28264 12.9603 9.94436 12.9603 11.86C12.9603 13.6461 11.5128 15.0936 9.72669 15.0936C7.08846 15.0936 3.24007 15.0936 3.24007 15.0936C2.79294 15.0936 2.43005 14.7307 2.43005 14.2836C2.43005 13.3894 1.70428 12.6636 0.810017 12.6636ZM0.810017 13.4736C1.25715 13.4736 1.62003 13.8365 1.62003 14.2836C1.62003 14.7307 1.25715 15.0936 0.810017 15.0936C0.362888 15.0936 0 14.7307 0 14.2836C0 13.8365 0.362888 13.4736 0.810017 13.4736Z" fill="url(#paint0_linear_235_10)"/>
<path fill-rule="evenodd" clip-rule="evenodd" d="M12.9603 5.70067V5.36689C12.9603 4.66909 12.7346 3.99487 12.3243 3.44104L10.6064 5.30201L9.77376 4.46935C9.38324 4.07882 8.75007 4.07882 8.35955 4.46934C7.96902 4.85987 7.96902 5.49303 8.35954 5.88356L9.92816 7.45218C10.1206 7.64462 10.3832 7.75032 10.6553 7.74488C10.9273 7.73944 11.1855 7.62334 11.3701 7.42336L12.9603 5.70067Z" fill="#7FD1AE"/>
<path d="M9.06665 3.8013L10.8108 5.54544L14.4 1.59998" stroke="url(#paint1_linear_235_10)" stroke-width="2" stroke-linecap="round" stroke-linejoin="round"/>
<path d="M4.99617 6.14688C5.14235 5.77252 5.74328 5.77336 5.88772 6.1486C6.65369 8.04182 7.39992 9.94356 8.15736 11.8394C8.28898 12.0847 8.20096 12.4231 7.94019 12.5394C7.69922 12.6565 7.37088 12.5489 7.27264 12.2924C7.05804 11.7761 6.85801 11.2539 6.64945 10.7343C5.84419 10.73 5.0389 10.7317 4.23364 10.7333C4.0242 11.2548 3.82331 11.7813 3.60618 12.2993C3.48992 12.5975 3.06335 12.677 2.83256 12.4659C2.64705 12.3129 2.62396 12.0377 2.72911 11.8316C3.48734 9.9376 4.23108 8.03755 4.99617 6.14688ZM4.63028 9.73679C5.17055 9.73929 5.71166 9.73929 6.25191 9.73679C5.98182 9.05725 5.70824 8.37944 5.44153 7.69992C5.17397 8.37944 4.90127 9.05809 4.63028 9.73679Z" fill="#7FD1AE" stroke="#7FD1AE" stroke-width="0.4"/>
<path d="M6.06282 5.08023C6.209 4.70587 6.80993 4.70671 6.95437 5.08195C7.72034 6.97517 8.46657 8.87691 9.22401 10.7727C9.35563 11.018 9.26761 11.3565 9.00684 11.4728C8.76587 11.5899 8.43753 11.4822 8.33929 11.2257C8.12469 10.7095 7.92466 10.1872 7.7161 9.6676C6.91084 9.66331 6.10555 9.66503 5.30029 9.66667C5.09085 10.1882 4.88996 10.7147 4.67283 11.2326C4.55657 11.5309 4.13 11.6104 3.89921 11.3993C3.7137 11.2462 3.69061 10.9711 3.79576 10.765C4.554 8.87095 5.29773 6.97089 6.06282 5.08023ZM5.69693 8.67014C6.2372 8.67264 6.77831 8.67264 7.31856 8.67014C7.04847 7.9906 6.77489 7.31279 6.50818 6.63327C6.24062 7.31279 5.96792 7.99144 5.69693 8.67014Z" fill="url(#paint2_linear_235_10)" stroke="url(#paint3_linear_235_10)" stroke-width="0.4"/>
<defs>
<linearGradient id="paint0_linear_235_10" x1="1.62003" y1="13.474" x2="13.7476" y2="10.6754" gradientUnits="userSpaceOnUse">
<stop stop-color="#62E8AF"/>
<stop offset="1" stop-color="#B3FBDC"/>
</linearGradient>
<linearGradient id="paint1_linear_235_10" x1="9.06665" y1="5.54544" x2="9.9486" y2="0.776719" gradientUnits="userSpaceOnUse">
<stop stop-color="#B3FBDC"/>
<stop offset="1" stop-color="white"/>
</linearGradient>
<linearGradient id="paint2_linear_235_10" x1="3.73328" y1="11.52" x2="6.06211" y2="3.82478" gradientUnits="userSpaceOnUse">
<stop stop-color="#B3FBDC"/>
<stop offset="1" stop-color="white"/>
</linearGradient>
<linearGradient id="paint3_linear_235_10" x1="3.73328" y1="11.52" x2="6.06211" y2="3.82478" gradientUnits="userSpaceOnUse">
<stop stop-color="#B3FBDC"/>
<stop offset="1" stop-color="white"/>
</linearGradient>
</defs>
</svg>
