<svg width="16" height="16" viewBox="0 0 16 16" fill="none" xmlns="http://www.w3.org/2000/svg">
<path fill-rule="evenodd" clip-rule="evenodd" d="M15 14.125C15 13.642 14.608 13.25 14.125 13.25C13.642 13.25 13.25 13.642 13.25 14.125C13.25 14.608 13.642 15 14.125 15C14.608 15 15 14.608 15 14.125ZM12.375 14.125C12.375 13.159 13.159 12.375 14.125 12.375C14.608 12.375 15 11.983 15 11.5C15 11.5 15 7.314 15 4.46325C15 2.5505 13.4495 1 11.5367 1H4.46325C2.5505 1 1 2.5505 1 4.46325V11.5367C1 13.4495 2.5505 15 4.46325 15C7.314 15 11.5 15 11.5 15C11.983 15 12.375 14.608 12.375 14.125Z" fill="url(#paint0_linear_17_2102)"/>
<path fill-rule="evenodd" clip-rule="evenodd" d="M3.875 13.125H10.375C10.858 13.125 11.25 12.733 11.25 12.25C11.25 11.767 10.858 11.375 10.375 11.375H3.875C3.392 11.375 3 11.767 3 12.25C3 12.733 3.392 13.125 3.875 13.125Z" fill="#D84F4F"/>
<path fill-rule="evenodd" clip-rule="evenodd" d="M6.25005 7.01269L5.99368 6.75631C5.65243 6.41506 5.09768 6.41506 4.75643 6.75631C4.41518 7.09756 4.41518 7.65231 4.75643 7.99356L6.50643 9.74356C6.84768 10.0857 7.40243 10.0857 7.74368 9.74356L9.49368 7.99356C9.83493 7.65231 9.83493 7.09756 9.49368 6.75631C9.15243 6.41506 8.59768 6.41506 8.25643 6.75631L8.00005 7.01269V4.74994C8.00005 4.26694 7.60805 3.87494 7.12505 3.87494C6.64205 3.87494 6.25005 4.26694 6.25005 4.74994V7.01269Z" fill="#D84F4F"/>
<path fill-rule="evenodd" clip-rule="evenodd" d="M4.875 12.125H11.375C11.858 12.125 12.25 11.733 12.25 11.25C12.25 10.767 11.858 10.375 11.375 10.375H4.875C4.392 10.375 4 10.767 4 11.25C4 11.733 4.392 12.125 4.875 12.125Z" fill="url(#paint1_linear_17_2102)"/>
<path fill-rule="evenodd" clip-rule="evenodd" d="M7.12505 5.77518C7.12505 5.90898 6.96328 5.97598 6.86868 5.88138V5.88138C6.52743 5.54013 5.97268 5.54013 5.63143 5.88138C5.29018 6.22263 5.29018 6.77738 5.63143 7.11863L7.38143 8.86863C7.72268 9.21075 8.27743 9.21075 8.61868 8.86863L10.3687 7.11863C10.7099 6.77738 10.7099 6.22263 10.3687 5.88138C10.0274 5.54013 9.47268 5.54013 9.13143 5.88138V5.88138C9.03682 5.97598 8.87505 5.90898 8.87505 5.77518V3.875C8.87505 3.392 8.48305 3 8.00005 3C7.51705 3 7.12505 3.392 7.12505 3.875V5.77518Z" fill="url(#paint2_linear_17_2102)"/>
<defs>
<linearGradient id="paint0_linear_17_2102" x1="3.625" y1="13.25" x2="12.375" y2="2.75" gradientUnits="userSpaceOnUse">
<stop stop-color="#FF405B"/>
<stop offset="1" stop-color="#FF8860"/>
</linearGradient>
<linearGradient id="paint1_linear_17_2102" x1="6.35622" y1="12.125" x2="6.49763" y2="10.5377" gradientUnits="userSpaceOnUse">
<stop stop-color="#FF8860"/>
<stop offset="1" stop-color="white"/>
</linearGradient>
<linearGradient id="paint2_linear_17_2102" x1="6.87465" y1="9.12509" x2="9.08754" y2="4.61004" gradientUnits="userSpaceOnUse">
<stop stop-color="#FF8860"/>
<stop offset="1" stop-color="white"/>
</linearGradient>
</defs>
</svg>
