<svg width="16" height="16" viewBox="0 0 16 16" fill="none" xmlns="http://www.w3.org/2000/svg">
<g clip-path="url(#clip0_144_15909)">
<path fill-rule="evenodd" clip-rule="evenodd" d="M7.99795 15.958C7.02651 15.949 6.12488 15.3945 5.69003 14.5238L5.68616 14.516C5.51676 14.1773 5.1705 13.9633 4.79173 13.9633H3.94661C1.76635 13.9633 0 12.1959 0 10.0156C0 7.64289 0.0418898 6.32037 0.0418898 3.94761C0.0418898 1.76735 1.80924 0 3.9895 0H12.0104C12.5609 0 13.0078 0.446824 13.0078 0.997375C13.0078 2.09848 13.9014 2.99213 15.0025 2.99213H15.0175C15.5679 3.0011 16.0077 3.45374 15.9999 4.00415C15.9999 4.00436 15.9999 4.00426 15.9999 4.00447C15.9998 4.0112 15.958 6.77911 15.958 10.0156C15.958 12.1959 14.1907 13.9633 12.0104 13.9633H11.2501C10.8713 13.9633 10.525 14.1773 10.3556 14.516L10.3518 14.5238C9.91191 15.4025 9.00331 15.958 8.02089 15.958H7.99795ZM15.9999 0.997375C15.9999 1.54793 15.5531 1.99475 15.0025 1.99475C14.452 1.99475 14.0051 1.54793 14.0051 0.997375C14.0051 0.446824 14.452 0 15.0025 0C15.5531 0 15.9999 0.446824 15.9999 0.997375Z" fill="url(#paint0_linear_144_15909)"/>
<path d="M9.66635 3.6032C9.77104 3.48004 9.92453 3.40906 10.0862 3.40906V3.40906C10.5558 3.40906 10.8102 3.95903 10.506 4.31689L4.41788 11.4794C4.31319 11.6025 4.1597 11.6735 3.99806 11.6735V11.6735C3.52839 11.6735 3.27406 11.1235 3.57824 10.7657L9.66635 3.6032Z" fill="#279FD7"/>
<path d="M8.79832 11.6735H9.83138H10.6578C11.0835 11.6735 11.3264 11.1876 11.071 10.8471L5.79254 3.80906C5.60368 3.55725 5.30729 3.40906 4.99254 3.40906H4.59998C3.77593 3.40906 3.30555 4.34982 3.79998 5.00906L8.79832 11.6735Z" fill="#279FD7"/>
<path d="M10.5755 2.69414C10.6802 2.57098 10.8336 2.5 10.9953 2.5V2.5C11.465 2.5 11.7193 3.04998 11.4151 3.40784L5.327 10.5703C5.22231 10.6935 5.06882 10.7645 4.90718 10.7645V10.7645C4.43751 10.7645 4.18318 10.2145 4.48736 9.85663L10.5755 2.69414Z" fill="url(#paint1_linear_144_15909)"/>
<path d="M9.70744 10.7645H10.7405H11.5669C11.9926 10.7645 12.2356 10.2785 11.9802 9.93802L6.70166 2.9C6.5128 2.64819 6.21641 2.5 5.90166 2.5H5.50909C4.68505 2.5 4.21467 3.44077 4.7091 4.1L9.70744 10.7645Z" fill="url(#paint2_linear_144_15909)"/>
</g>
<defs>
<linearGradient id="paint0_linear_144_15909" x1="1.6" y1="15.963" x2="7.35142" y2="-1.33884" gradientUnits="userSpaceOnUse">
<stop offset="0.190745" stop-color="#22B4FA"/>
<stop offset="0.896724" stop-color="#7DDCFF"/>
</linearGradient>
<linearGradient id="paint1_linear_144_15909" x1="3.7157" y1="10.7645" x2="13.6521" y2="8.21827" gradientUnits="userSpaceOnUse">
<stop stop-color="#6BD6FE"/>
<stop offset="1" stop-color="white"/>
</linearGradient>
<linearGradient id="paint2_linear_144_15909" x1="3.50909" y1="10.7645" x2="14.0738" y2="7.85917" gradientUnits="userSpaceOnUse">
<stop stop-color="#6BD6FE"/>
<stop offset="1" stop-color="white"/>
</linearGradient>
<clipPath id="clip0_144_15909">
<rect width="16" height="16" fill="white"/>
</clipPath>
</defs>
</svg>
