<svg width="16" height="16" viewBox="0 0 16 16" fill="none" xmlns="http://www.w3.org/2000/svg">
<g clip-path="url(#clip0_144_15875)">
<path fill-rule="evenodd" clip-rule="evenodd" d="M3 8C3 10 1.336 10.163 1.276 10.193C0.781 10.437 0.577 11.037 0.821 11.532C2.126 14.178 4.852 16 8 16C12.415 16 16 12.415 16 8C16 3.585 12.415 0 8 0C4.852 0 2.126 1.822 0.821 4.468C0.577 4.963 0.781 5.563 1.276 5.807C1.336 5.837 3 6 3 8ZM1 7C0.448 7 0 7.448 0 8C0 8.552 0.448 9 1 9C1.552 9 2 8.552 2 8C2 7.448 1.552 7 1 7Z" fill="url(#paint0_linear_144_15875)"/>
<path d="M10.0664 4.6032C10.1711 4.48004 10.3246 4.40906 10.4862 4.40906V4.40906C10.9559 4.40906 11.2102 4.95903 10.906 5.31689L4.81791 12.4794C4.71322 12.6025 4.55973 12.6735 4.39809 12.6735V12.6735C3.92842 12.6735 3.67408 12.1235 3.97827 11.7657L10.0664 4.6032Z" fill="#279FD7"/>
<path d="M9.19835 12.6735H10.2314H11.0579C11.4835 12.6735 11.7265 12.1876 11.4711 11.8471L6.19256 4.80906C6.00371 4.55725 5.70732 4.40906 5.39256 4.40906H5C4.17595 4.40906 3.70557 5.34982 4.2 6.00906L9.19835 12.6735Z" fill="#279FD7"/>
<path d="M10.9755 3.69414C11.0802 3.57098 11.2337 3.5 11.3953 3.5V3.5C11.865 3.5 12.1193 4.04998 11.8151 4.40784L5.72702 11.5703C5.62234 11.6935 5.46885 11.7645 5.3072 11.7645V11.7645C4.83753 11.7645 4.5832 11.2145 4.88738 10.8566L10.9755 3.69414Z" fill="url(#paint1_linear_144_15875)"/>
<path d="M10.1075 11.7645H11.1405H11.967C12.3926 11.7645 12.6356 11.2785 12.3802 10.938L7.10168 3.9C6.91283 3.64819 6.61644 3.5 6.30168 3.5H5.90912C5.08507 3.5 4.61469 4.44077 5.10912 5.1L10.1075 11.7645Z" fill="url(#paint2_linear_144_15875)"/>
</g>
<defs>
<linearGradient id="paint0_linear_144_15875" x1="1.6" y1="16.005" x2="7.3787" y2="-1.33327" gradientUnits="userSpaceOnUse">
<stop offset="0.190745" stop-color="#22B4FA"/>
<stop offset="0.896724" stop-color="#7DDCFF"/>
</linearGradient>
<linearGradient id="paint1_linear_144_15875" x1="4.11572" y1="11.7645" x2="14.0521" y2="9.21827" gradientUnits="userSpaceOnUse">
<stop stop-color="#6BD6FE"/>
<stop offset="1" stop-color="white"/>
</linearGradient>
<linearGradient id="paint2_linear_144_15875" x1="3.90912" y1="11.7645" x2="14.4738" y2="8.85917" gradientUnits="userSpaceOnUse">
<stop stop-color="#6BD6FE"/>
<stop offset="1" stop-color="white"/>
</linearGradient>
<clipPath id="clip0_144_15875">
<rect width="16" height="16" fill="white"/>
</clipPath>
</defs>
</svg>
