<svg width="16" height="16" viewBox="0 0 16 16" fill="none" xmlns="http://www.w3.org/2000/svg">
<g clip-path="url(#clip0_41_1484)">
<path d="M16 8C16 3.58173 12.4183 0 8 0C3.58173 0 0 3.58173 0 8C0 12.4183 3.58173 16 8 16C12.4183 16 16 12.4183 16 8Z" fill="url(#paint0_linear_41_1484)"/>
<path fill-rule="evenodd" clip-rule="evenodd" d="M14.5615 12.5118C14.9485 11.5728 15.1619 10.544 15.1619 9.46535C15.1619 8.2724 14.9008 7.14047 14.4327 6.12352L14.3918 6.03643L14.2449 5.95338C9.39744 3.26386 4.62008 5.58355 3.07056 7.89101L3.0851 7.86975C4.15523 7.46118 5.38103 7.45982 6.51015 7.96257C8.49079 8.8444 9.51778 10.9851 9.06842 13.0229C9.00425 13.314 8.90991 13.603 8.78395 13.886C8.39291 14.7643 7.75436 15.455 6.98702 15.9127C7.31007 15.9524 7.63908 15.9728 7.97287 15.9728C10.7056 15.9728 13.1183 14.6026 14.5615 12.5118Z" fill="#45C5C2"/>
<path fill-rule="evenodd" clip-rule="evenodd" d="M15.2299 4.57098L15.2707 4.65806C15.7388 5.67501 16 6.80694 16 7.99989C16 11.3601 13.9283 14.2365 10.9924 15.4214C10.5302 15.608 10.0466 15.7526 9.54634 15.8506C9.046 15.9485 8.52898 15.9999 7.99997 15.9999C6.29404 15.9999 4.71282 15.4659 3.41431 14.556C3.50678 14.6049 3.60149 14.6511 3.69851 14.6943L3.69854 14.6943C5.96214 15.7021 8.61414 14.6841 9.62197 12.4205C9.74793 12.1376 9.84227 11.8486 9.90644 11.5575C10.3558 9.51962 9.32882 7.37894 7.34817 6.49711C6.21905 5.99437 4.99326 5.99572 3.92312 6.4043L3.90858 6.42556C5.4581 4.1181 10.2355 1.79841 15.083 4.48793L15.2299 4.57098Z" fill="url(#paint1_linear_41_1484)"/>
</g>
<defs>
<linearGradient id="paint0_linear_41_1484" x1="3" y1="14" x2="14" y2="2" gradientUnits="userSpaceOnUse">
<stop stop-color="#00DAD4"/>
<stop offset="1" stop-color="#C4FFFD"/>
</linearGradient>
<linearGradient id="paint1_linear_41_1484" x1="5.9315" y1="14.183" x2="10.6865" y2="5.40041" gradientUnits="userSpaceOnUse">
<stop stop-color="#7EEFEC"/>
<stop offset="1" stop-color="white"/>
</linearGradient>
<clipPath id="clip0_41_1484">
<rect width="16" height="16" fill="white"/>
</clipPath>
</defs>
</svg>
