<svg width="16" height="16" viewBox="0 0 16 16" fill="none" xmlns="http://www.w3.org/2000/svg">
<g clip-path="url(#clip0_8_238)">
<path fill-rule="evenodd" clip-rule="evenodd" d="M1 13C0.448 13 0 12.552 0 12V3.992C0 1.787 1.787 0 3.992 0C6.357 0 9.643 0 12.008 0C13.067 0 14.082 0.421001 14.831 1.169C15.579 1.918 16 2.933 16 3.992C16 6.357 16 9.643 16 12.008C16 14.213 14.213 16 12.008 16C8.751 16 4 16 4 16C3.448 16 3 15.552 3 15C3 13.896 2.104 13 1 13ZM1 14C1.552 14 2 14.448 2 15C2 15.552 1.552 16 1 16C0.448 16 0 15.552 0 15C0 14.448 0.448 14 1 14Z" fill="url(#paint0_linear_8_238)"/>
<path d="M2.53053 3.78004C2.69646 3.58103 2.93462 3.45606 3.19267 3.43261C3.45071 3.40914 3.7075 3.48912 3.9066 3.65494L4.26756 3.95465C5.05593 4.61141 5.72703 5.17043 6.19094 5.68516C6.68481 6.23246 7.06922 6.85927 7.06922 7.66323C7.06922 8.46727 6.68481 9.0954 6.19094 9.64134C5.72703 10.1561 5.05593 10.7151 4.26756 11.3719L3.9066 11.6716C3.80852 11.7574 3.69427 11.8227 3.57057 11.8638C3.44687 11.9047 3.31621 11.9205 3.1863 11.9103C3.05638 11.9001 2.92983 11.864 2.81408 11.8041C2.69832 11.7442 2.59572 11.6618 2.51229 11.5617C2.42886 11.4616 2.36631 11.3458 2.32828 11.2211C2.29026 11.0965 2.27756 10.9655 2.29091 10.8359C2.30427 10.7062 2.34341 10.5806 2.40605 10.4663C2.46868 10.352 2.55354 10.2514 2.65562 10.1704L2.96055 9.91632C3.81929 9.19967 4.38092 8.73048 4.74058 8.3318C5.082 7.95386 5.11458 7.77531 5.11458 7.66323C5.11458 7.55123 5.082 7.374 4.74058 6.99474C4.37962 6.59606 3.81929 6.12564 2.96055 5.41021L2.65562 5.15611C2.45663 4.99017 2.33166 4.75201 2.3082 4.49397C2.28474 4.23592 2.36471 3.97913 2.53053 3.78004ZM13.7143 10.921C13.7143 11.1802 13.6114 11.4288 13.4281 11.6121C13.2448 11.7954 12.9962 11.8983 12.737 11.8983H8.85887C8.5997 11.8983 8.35109 11.7954 8.16779 11.6121C7.98449 11.4288 7.88155 11.1802 7.88155 10.921C7.88155 10.6618 7.98449 10.4132 8.16779 10.2299C8.35109 10.0467 8.5997 9.94367 8.85887 9.94367H12.737C12.9962 9.94367 13.2448 10.0467 13.4281 10.2299C13.6114 10.4132 13.7143 10.6618 13.7143 10.921Z" fill="#279FD7"/>
<path d="M3.67335 2.63721C3.83928 2.43821 4.07744 2.31324 4.33549 2.28978C4.59353 2.26632 4.85032 2.34629 5.04943 2.51211L5.41038 2.81182C6.19875 3.46859 6.86986 4.02761 7.33376 4.54234C7.82763 5.08963 8.21205 5.71645 8.21205 6.5204C8.21205 7.32445 7.82763 7.95258 7.33376 8.49851C6.86986 9.01324 6.19875 9.57227 5.41038 10.2291L5.04943 10.5288C4.95134 10.6146 4.83709 10.6799 4.71339 10.7209C4.58969 10.7619 4.45904 10.7777 4.32912 10.7675C4.1992 10.7572 4.07265 10.7212 3.9569 10.6612C3.84114 10.6014 3.73854 10.519 3.65511 10.4189C3.57169 10.3187 3.50913 10.203 3.47111 10.0783C3.43308 9.95372 3.42038 9.82265 3.43373 9.69306C3.44709 9.56339 3.48624 9.43777 3.54887 9.32348C3.6115 9.20919 3.69636 9.10862 3.79845 9.02757L4.10337 8.7735C4.96211 8.05684 5.52375 7.58766 5.8834 7.18898C6.22482 6.81104 6.2574 6.63249 6.2574 6.5204C6.2574 6.4084 6.22482 6.23117 5.8834 5.85192C5.52245 5.45324 4.96211 4.98282 4.10337 4.26738L3.79845 4.01328C3.59945 3.84735 3.47448 3.60919 3.45102 3.35115C3.42756 3.0931 3.50753 2.83631 3.67335 2.63721ZM14.8572 9.77816C14.8572 10.0374 14.7542 10.2859 14.5709 10.4692C14.3876 10.6525 14.139 10.7555 13.8798 10.7555H10.0017C9.74252 10.7555 9.49391 10.6525 9.31061 10.4692C9.12732 10.2859 9.02437 10.0374 9.02437 9.77816C9.02437 9.519 9.12732 9.27038 9.31061 9.08708C9.49391 8.90388 9.74252 8.80084 10.0017 8.80084H13.8798C14.139 8.80084 14.3876 8.90388 14.5709 9.08708C14.7542 9.27038 14.8572 9.519 14.8572 9.77816Z" fill="url(#paint1_linear_8_238)"/>
</g>
<defs>
<linearGradient id="paint0_linear_8_238" x1="1.6" y1="16.005" x2="7.3787" y2="-1.33327" gradientUnits="userSpaceOnUse">
<stop stop-color="#22B4FA"/>
<stop offset="1" stop-color="#6BD6FE"/>
</linearGradient>
<linearGradient id="paint1_linear_8_238" x1="3.42859" y1="10.7705" x2="16.2594" y2="6.44991" gradientUnits="userSpaceOnUse">
<stop stop-color="#6BD6FE"/>
<stop offset="1" stop-color="white"/>
</linearGradient>
<clipPath id="clip0_8_238">
<rect width="16" height="16" fill="white"/>
</clipPath>
</defs>
</svg>
