<svg width="16" height="16" viewBox="0 0 16 16" fill="none" xmlns="http://www.w3.org/2000/svg">
<path fill-rule="evenodd" clip-rule="evenodd" d="M1 13C0.448 13 0 12.552 0 12V3.992C0 1.787 1.787 0 3.992 0C6.357 0 9.643 0 12.008 0C13.067 0 14.082 0.421001 14.831 1.169C15.579 1.918 16 2.933 16 3.992C16 6.357 16 9.643 16 12.008C16 14.213 14.213 16 12.008 16C8.751 16 4 16 4 16C3.448 16 3 15.552 3 15C3 13.896 2.104 13 1 13ZM1 14C1.552 14 2 14.448 2 15C2 15.552 1.552 16 1 16C0.448 16 0 15.552 0 15C0 14.448 0.448 14 1 14Z" fill="url(#paint0_linear_144_15920)"/>
<path d="M8.02175 5.93884C8.1504 5.62122 8.64026 5.65451 8.73092 5.9867C9.06644 7.27244 9.38825 8.56235 9.71724 9.8502C10.0863 8.58108 10.4389 7.30642 10.8164 6.04079C10.9386 5.7079 11.4514 5.73841 11.5362 6.08587C12.0445 7.77038 12.5447 9.45771 13.0484 11.1436C13.1489 11.3828 12.9827 11.6887 12.7353 11.7108C12.5534 11.74 12.3661 11.6103 12.3157 11.4237C11.9328 10.1526 11.5552 8.87929 11.1736 7.6074C10.8099 8.89732 10.4382 10.1837 10.0672 11.471C9.98776 11.8322 9.45389 11.862 9.33894 11.5125C8.97717 10.1547 8.6462 8.78705 8.29029 7.42778C8.19508 7.68785 8.09987 7.9486 7.99673 8.2059C7.92191 8.41118 7.67435 8.51589 7.48654 8.42088C7.28889 8.33835 7.1917 8.07137 7.28559 7.86956C7.53053 7.22597 7.76955 6.57893 8.02175 5.93884Z" fill="#279FD7" stroke="#279FD7" stroke-width="0.6"/>
<path d="M4.60581 6.00753C4.65242 5.80501 4.85863 5.66424 5.05234 5.70793C5.22044 5.73706 5.3439 5.89239 5.37345 6.06438C5.70834 7.38968 6.05375 8.71287 6.38076 10.0402C6.50291 9.77325 6.56594 9.47432 6.72223 9.22741C6.96519 8.91953 7.49118 9.20388 7.38873 9.5929C7.1786 10.206 6.92842 10.8045 6.7058 11.4127C6.65852 11.5569 6.56726 11.7053 6.41491 11.7359C6.21463 11.8004 5.98415 11.6645 5.9362 11.448C5.6453 10.3267 5.36556 9.20182 5.07598 8.0797C5.03264 7.92644 4.99389 7.77179 4.97681 7.61297C4.59594 8.89805 4.25121 10.1949 3.87888 11.4827C3.81322 11.7261 3.51378 11.8482 3.31153 11.7095C3.15721 11.6194 3.12111 11.4245 3.07186 11.2615C2.58987 9.61925 2.09867 7.98053 1.61931 6.33763C1.55759 6.15107 1.64887 5.92706 1.81895 5.84523C2.10524 5.68504 2.38759 5.97007 2.41585 6.2669C2.77439 7.49161 3.14211 8.71287 3.49868 9.93833C3.86903 8.62826 4.23415 7.31686 4.60581 6.00753Z" fill="#279FD7" stroke="#279FD7" stroke-width="0.6"/>
<path d="M9.02175 4.93884C9.1504 4.62122 9.64026 4.65451 9.73092 4.9867C9.94318 5.80009 10.1499 6.61515 10.3565 7.43031C10.4566 7.82506 11.0099 7.83373 11.1216 7.44211C11.3502 6.64052 11.5784 5.83886 11.8164 5.04079C11.9386 4.7079 12.4514 4.73841 12.5362 5.08587C13.0445 6.77038 13.5447 8.45771 14.0484 10.1436C14.1489 10.3828 13.9827 10.6887 13.7353 10.7108C13.5534 10.74 13.3661 10.6103 13.3157 10.4237C13.0649 9.59126 12.8164 8.75786 12.5676 7.92453C12.4531 7.54099 11.908 7.545 11.798 7.92986C11.5557 8.77736 11.3113 9.62398 11.0672 10.471C10.9878 10.8322 10.4539 10.862 10.3389 10.5125C10.0485 9.4225 9.77797 8.32621 9.49843 7.233C9.43521 6.98579 9.09167 6.96906 8.99673 7.2059V7.2059C8.92191 7.41118 8.67435 7.51589 8.48654 7.42088C8.28889 7.33835 8.1917 7.07137 8.28559 6.86956C8.53053 6.22597 8.76955 5.57893 9.02175 4.93884Z" fill="url(#paint1_linear_144_15920)" stroke="url(#paint2_linear_144_15920)" stroke-width="0.6"/>
<path d="M5.60581 5.00753C5.65242 4.80501 5.85863 4.66424 6.05234 4.70793C6.22044 4.73706 6.3439 4.89239 6.37345 5.06438C6.63623 6.1043 6.90548 7.14293 7.16725 8.18329C7.23839 8.46603 7.56629 8.47376 7.72223 8.22741V8.22741C7.96519 7.91953 8.49118 8.20388 8.38873 8.5929C8.1786 9.20597 7.92842 9.8045 7.7058 10.4127C7.65852 10.5569 7.56726 10.7053 7.41491 10.7359C7.21463 10.8004 6.98415 10.6645 6.9362 10.448C6.6453 9.3267 6.36556 8.20182 6.07598 7.0797V7.0797C6.04754 6.97911 5.8716 6.97103 5.8425 7.07143C5.51365 8.20605 5.20697 9.34789 4.87888 10.4827C4.81322 10.7261 4.51378 10.8482 4.31153 10.7095C4.15721 10.6194 4.12111 10.4245 4.07186 10.2615C3.58987 8.61925 3.09867 6.98053 2.61931 5.33763C2.55759 5.15107 2.64887 4.92706 2.81895 4.84523C3.09307 4.69185 3.36358 4.94664 3.41089 5.22914C3.41507 5.25413 3.41943 5.27914 3.42655 5.30346C3.65102 6.06978 3.87901 6.83478 4.10553 7.60034C4.21955 7.98568 4.76802 7.98287 4.8767 7.59598C5.11914 6.73291 5.36105 5.86977 5.60581 5.00753Z" fill="url(#paint3_linear_144_15920)" stroke="url(#paint4_linear_144_15920)" stroke-width="0.6"/>
<defs>
<linearGradient id="paint0_linear_144_15920" x1="1.6" y1="16.005" x2="7.3787" y2="-1.33327" gradientUnits="userSpaceOnUse">
<stop offset="0.190745" stop-color="#22B4FA"/>
<stop offset="0.896724" stop-color="#7DDCFF"/>
</linearGradient>
<linearGradient id="paint1_linear_144_15920" x1="8.24951" y1="10.7589" x2="15.1347" y2="9.09808" gradientUnits="userSpaceOnUse">
<stop stop-color="#6BD6FE"/>
<stop offset="1" stop-color="white"/>
</linearGradient>
<linearGradient id="paint2_linear_144_15920" x1="8.24951" y1="10.7589" x2="15.1347" y2="9.09808" gradientUnits="userSpaceOnUse">
<stop stop-color="#6BD6FE"/>
<stop offset="1" stop-color="white"/>
</linearGradient>
<linearGradient id="paint3_linear_144_15920" x1="2.59998" y1="10.7678" x2="9.46026" y2="9.1279" gradientUnits="userSpaceOnUse">
<stop stop-color="#6BD6FE"/>
<stop offset="1" stop-color="white"/>
</linearGradient>
<linearGradient id="paint4_linear_144_15920" x1="2.59998" y1="10.7678" x2="9.46026" y2="9.1279" gradientUnits="userSpaceOnUse">
<stop stop-color="#6BD6FE"/>
<stop offset="1" stop-color="white"/>
</linearGradient>
</defs>
</svg>
