<svg width="16" height="16" viewBox="0 0 16 16" fill="none" xmlns="http://www.w3.org/2000/svg">
<path d="M2.28125 3.5C1.70995 3.5 1.25 3.9913 1.25 4.60155V14.1484C1.25 14.7587 1.70995 15.25 2.28125 15.25H11.2188C11.7901 15.25 12.25 14.7587 12.25 14.1484V12.3125H4V6.4375H9.5V9.25H12.25V4.60155C12.25 3.9913 11.7901 3.5 11.2188 3.5H2.28125Z" fill="url(#paint0_linear_14_999)"/>
<path d="M4.0547 1C3.4704 1 3 1.50175 3 2.125V11.875C3 12.4983 3.4704 13 4.0547 13H13.1953C13.7796 13 14.25 12.4983 14.25 11.875V2.125C14.25 1.50175 13.7796 1 13.1953 1H4.0547ZM5.8125 4H11.4375V10H5.8125V4Z" fill="#D84F4F"/>
<path d="M4.8047 0.25C4.2204 0.25 3.75 0.75175 3.75 1.375V11.125C3.75 11.7483 4.2204 12.25 4.8047 12.25H13.9453C14.5296 12.25 15 11.7483 15 11.125V1.375C15 0.75175 14.5296 0.25 13.9453 0.25H4.8047ZM6.5625 3.25H12.1875V9.25H6.5625V3.25Z" fill="url(#paint1_linear_14_999)"/>
<defs>
<linearGradient id="paint0_linear_14_999" x1="3.3125" y1="13.7812" x2="10.7284" y2="5.45022" gradientUnits="userSpaceOnUse">
<stop stop-color="#FF405B"/>
<stop offset="1" stop-color="#FF8860"/>
</linearGradient>
<linearGradient id="paint1_linear_14_999" x1="6.96303" y1="12.2497" x2="15.6854" y2="2.90772" gradientUnits="userSpaceOnUse">
<stop stop-color="#FF8860"/>
<stop offset="1" stop-color="white"/>
</linearGradient>
</defs>
</svg>
