<svg width="16" height="16" viewBox="0 0 16 16" fill="none" xmlns="http://www.w3.org/2000/svg">
<path fill-rule="evenodd" clip-rule="evenodd" d="M16 12.009V3.991C16 2.339 14.661 1 13.009 1C10.346 1 5.654 1 2.991 1C2.198 1 1.437 1.315 0.876 1.876C0.315 2.437 0 3.198 0 3.991C0 6.642 0 11 0 11C0 11.552 0.448 12 1 12C2.104 12 3 12.896 3 14C3 14.552 3.448 15 4 15H13.009C14.661 15 16 13.661 16 12.009ZM1 13C0.448 13 0 13.448 0 14C0 14.552 0.448 15 1 15C1.552 15 2 14.552 2 14C2 13.448 1.552 13 1 13Z" fill="url(#paint0_linear_14_832)"/>
<path fill-rule="evenodd" clip-rule="evenodd" d="M8 9.00702C8 9.80302 8.32 10.566 8.88 11.128C9.44 11.691 10.2 12.007 11 12.007C12.39 12.007 14 12.007 14 12.007C14.55 12.007 15 11.559 15 11.007C15 10.455 14.55 10.007 14 10.007C14 10.007 12.39 10.007 11 10.007C10.74 10.007 10.48 9.90202 10.29 9.71402C10.11 9.52702 10 9.27202 10 9.00702C10 8.45502 10.45 8.00702 11 8.00702C11.55 8.00702 12 7.55902 12 7.00702C12 6.45502 11.55 6.00702 11 6.00702C9.34 6.00702 8 7.35002 8 9.00702ZM2 8.00702V10.007C2 10.559 2.45 11.007 3 11.007C3.55 11.007 4 10.559 4 10.007V8.00702C4 7.45502 3.55 7.00702 3 7.00702C2.45 7.00702 2 7.45502 2 8.00702Z" fill="#61D792"/>
<path fill-rule="evenodd" clip-rule="evenodd" d="M9 8.00702C9 8.80302 9.31625 9.56602 9.87875 10.128C10.4412 10.691 11.2038 11.007 12 11.007C13.3925 11.007 15 11.007 15 11.007C15.5525 11.007 16 10.559 16 10.007C16 9.45502 15.5525 9.00702 15 9.00702C15 9.00702 13.3925 9.00702 12 9.00702C11.735 9.00702 11.48 8.90202 11.2925 8.71402C11.105 8.52702 11 8.27202 11 8.00702C11 7.45502 11.4475 7.00702 12 7.00702C12.5525 7.00702 13 6.55902 13 6.00702C13 5.45502 12.5525 5.00702 12 5.00702C10.3438 5.00702 9 6.35002 9 8.00702Z" fill="url(#paint1_linear_14_832)"/>
<path fill-rule="evenodd" clip-rule="evenodd" d="M3 7.00702V9.00702C3 9.55902 3.448 10.007 4 10.007C4.552 10.007 5 9.55902 5 9.00702V7.00702C5 6.45502 4.552 6.00702 4 6.00702C3.448 6.00702 3 6.45502 3 7.00702Z" fill="url(#paint2_linear_14_832)"/>
<defs>
<linearGradient id="paint0_linear_14_832" x1="2.5" y1="13.5" x2="13.5" y2="3.5" gradientUnits="userSpaceOnUse">
<stop offset="0.153507" stop-color="#44FF91"/>
<stop offset="0.94046" stop-color="#9DFFC5"/>
</linearGradient>
<linearGradient id="paint1_linear_14_832" x1="10" y1="11.007" x2="15" y2="6.00702" gradientUnits="userSpaceOnUse">
<stop stop-color="#9DFFC5"/>
<stop offset="1" stop-color="white"/>
</linearGradient>
<linearGradient id="paint2_linear_14_832" x1="3" y1="10.007" x2="5" y2="6.00702" gradientUnits="userSpaceOnUse">
<stop stop-color="#9DFFC5"/>
<stop offset="1" stop-color="white"/>
</linearGradient>
</defs>
</svg>
