<svg width="16" height="16" viewBox="0 0 16 16" fill="none" xmlns="http://www.w3.org/2000/svg">
<g clip-path="url(#clip0_21_2445)">
<path fill-rule="evenodd" clip-rule="evenodd" d="M11.6146 14.3821C11.912 14.2133 12 13.8419 12 13.5C12 12.6716 12.6716 12 13.5 12C13.8419 12 14.2133 11.912 14.3821 11.6146C14.9876 10.5479 15.3333 9.31429 15.3333 7.99996C15.3333 3.94976 12.0502 0.666626 7.99996 0.666626C3.94976 0.666626 0.666626 3.94976 0.666626 7.99996C0.666626 9.17329 0.942359 10.2821 1.43149 11.2655C1.56203 11.5266 1.60529 11.825 1.52976 12.1074L1.09343 13.7398C1.05037 13.9012 1.05053 14.0712 1.09389 14.2326C1.13726 14.3941 1.22229 14.5412 1.34048 14.6594C1.45867 14.7776 1.60585 14.8626 1.76726 14.906C1.92868 14.9494 2.09866 14.9496 2.26016 14.9065L3.89256 14.4702C4.17592 14.3988 4.47558 14.4336 4.73516 14.5677C5.7493 15.0727 6.86703 15.3348 7.99996 15.3333C9.31429 15.3333 10.5479 14.9876 11.6146 14.3821ZM14 15C14.5523 15 15 14.5523 15 14C15 13.4477 14.5523 13 14 13C13.4477 13 13 13.4477 13 14C13 14.5523 13.4477 15 14 15Z" fill="url(#paint0_linear_21_2445)"/>
<path d="M9.66668 9.75172C9.39802 9.69392 9.18542 9.81865 8.99722 9.92765C8.80448 10.0399 8.43802 10.3372 8.22795 10.2611C7.15235 9.81825 6.14082 8.87685 5.7029 7.79698C5.62572 7.58245 5.92162 7.21362 6.03308 7.0186C6.14122 6.82982 6.26335 6.61526 6.20768 6.34457C6.15728 6.10132 5.50604 5.2726 5.27574 5.04599C5.12386 4.8963 4.96826 4.81396 4.80854 4.80066C4.20803 4.77488 3.53736 5.57615 3.41973 5.76784C3.12505 6.17658 3.1267 6.72046 3.42468 7.37994C4.14282 9.15132 6.85895 11.8246 8.63695 12.5697C8.96508 12.7231 9.26508 12.8001 9.53462 12.8001C9.79835 12.8001 10.0332 12.7265 10.235 12.5805C10.3873 12.4928 11.2214 11.7888 11.1996 11.1721C11.1864 11.015 11.1042 10.8578 10.9564 10.7056C10.7315 10.4732 9.90815 9.80245 9.66668 9.75172Z" fill="#7FD1AE"/>
<path d="M10.6667 8.75172C10.398 8.69392 10.1854 8.81865 9.99722 8.92765C9.80448 9.03992 9.43802 9.33718 9.22795 9.26112C8.15235 8.81825 7.14082 7.87685 6.7029 6.79698C6.62572 6.58245 6.92162 6.21362 7.03308 6.0186C7.14122 5.82982 7.26335 5.61526 7.20768 5.34457C7.15728 5.10132 6.50604 4.2726 6.27574 4.04599C6.12386 3.8963 5.96826 3.81396 5.80854 3.80066C5.20803 3.77488 4.53736 4.57615 4.41973 4.76784C4.12505 5.17658 4.1267 5.72046 4.42468 6.37994C5.14282 8.15132 7.85895 10.8246 9.63695 11.5697C9.96508 11.7231 10.2651 11.8001 10.5346 11.8001C10.7984 11.8001 11.0332 11.7265 11.235 11.5805C11.3873 11.4928 12.2214 10.7888 12.1996 10.1721C12.1864 10.015 12.1042 9.85778 11.9564 9.70558C11.7315 9.47318 10.9082 8.80245 10.6667 8.75172Z" fill="url(#paint1_linear_21_2445)"/>
</g>
<defs>
<linearGradient id="paint0_linear_21_2445" x1="2.49996" y1="13.5004" x2="16.2243" y2="10.3333" gradientUnits="userSpaceOnUse">
<stop stop-color="#62E8AF"/>
<stop offset="1" stop-color="#B3FBDC"/>
</linearGradient>
<linearGradient id="paint1_linear_21_2445" x1="4.19995" y1="11.8001" x2="6.55289" y2="2.38828" gradientUnits="userSpaceOnUse">
<stop stop-color="#B3FBDC"/>
<stop offset="1" stop-color="white"/>
</linearGradient>
<clipPath id="clip0_21_2445">
<rect width="16" height="16" fill="white"/>
</clipPath>
</defs>
</svg>
