<svg width="16" height="16" viewBox="0 0 16 16" fill="none" xmlns="http://www.w3.org/2000/svg">
<g clip-path="url(#clip0_15_1497)">
<path fill-rule="evenodd" clip-rule="evenodd" d="M12.9824 15C12.9824 15.552 12.5344 16 11.9824 16H3.97442C1.76942 16 -0.0175781 14.213 -0.0175781 12.008C-0.0175781 9.643 -0.0175781 6.357 -0.0175781 3.992C-0.0175781 2.933 0.403422 1.918 1.15142 1.169C1.90042 0.421 2.91542 0 3.97442 0C6.33942 0 9.62542 0 11.9904 0C14.1954 0 15.9824 1.787 15.9824 3.992C15.9824 7.249 15.9824 12 15.9824 12C15.9824 12.552 15.5344 13 14.9824 13C13.8784 13 12.9824 13.896 12.9824 15ZM13.9824 15C13.9824 14.448 14.4304 14 14.9824 14C15.5344 14 15.9824 14.448 15.9824 15C15.9824 15.552 15.5344 16 14.9824 16C14.4304 16 13.9824 15.552 13.9824 15Z" fill="url(#paint0_linear_15_1497)"/>
<path fill-rule="evenodd" clip-rule="evenodd" d="M8.19313 4.70335L7.45232 3.96254C7.34815 3.85849 7.20693 3.80005 7.05969 3.80005C6.91246 3.80005 6.77124 3.85849 6.66707 3.96254L5.92626 4.70335C5.8374 4.79249 5.78144 4.90916 5.76755 5.03426C5.75366 5.15936 5.78265 5.28546 5.84979 5.39193C5.91692 5.4984 6.01822 5.57892 6.13708 5.6203C6.25595 5.66168 6.38535 5.66148 6.50409 5.61972V9.34969C6.45074 9.32735 6.39635 9.30757 6.34111 9.29043L5.30176 8.96447C5.11356 8.90563 4.94905 8.78825 4.8322 8.62942C4.71534 8.47059 4.65224 8.27861 4.65207 8.08143V7.74955C4.91801 7.6234 5.13311 7.4105 5.262 7.14587C5.39088 6.88124 5.42587 6.58063 5.36122 6.29347C5.29656 6.00631 5.13611 5.7497 4.90625 5.56584C4.6764 5.38198 4.39081 5.28181 4.09646 5.28181C3.80212 5.28181 3.51653 5.38198 3.28667 5.56584C3.05681 5.7497 2.89636 6.00631 2.83171 6.29347C2.76706 6.58063 2.80205 6.88124 2.93093 7.14587C3.05981 7.4105 3.27491 7.6234 3.54086 7.74955V8.08143C3.541 8.51549 3.67978 8.93816 3.93697 9.28783C4.19415 9.6375 4.5563 9.89588 4.97062 10.0253L6.00997 10.3505C6.1532 10.3952 6.27839 10.4845 6.36729 10.6054C6.45618 10.7263 6.50411 10.8724 6.50409 11.0224V11.3321C6.24281 11.4559 6.03042 11.6635 5.90067 11.9219C5.77093 12.1803 5.73128 12.4746 5.78803 12.7581C5.84478 13.0416 5.99467 13.298 6.21387 13.4865C6.43308 13.6751 6.70902 13.7849 6.99782 13.7986C7.28662 13.8123 7.57171 13.729 7.80778 13.5621C8.04384 13.3952 8.21732 13.1541 8.30064 12.8772C8.38396 12.6004 8.37234 12.3036 8.26762 12.0341C8.16291 11.7646 7.97111 11.5378 7.72272 11.3899C7.81183 11.2474 7.949 11.1415 8.10942 11.0913L9.14877 10.7661C9.56309 10.6367 9.92524 10.3783 10.1824 10.0286C10.4396 9.67897 10.5784 9.2563 10.5785 8.82224V8.5837C10.7267 8.5548 10.8993 8.49258 11.0482 8.34367C11.223 8.16884 11.2786 7.96142 11.3008 7.79918C11.3193 7.65991 11.3193 7.49545 11.3193 7.34432V7.29247C11.3193 7.1406 11.3193 6.97688 11.3008 6.83761C11.2786 6.67537 11.223 6.46721 11.0482 6.29312C10.9001 6.15027 10.7084 6.06131 10.5037 6.0405C10.3644 6.02198 10.2 6.02198 10.0489 6.02198H9.997C9.84513 6.02198 9.68141 6.02198 9.54214 6.0405C9.3799 6.06273 9.17174 6.11829 8.99765 6.29312C8.8548 6.44118 8.76583 6.63293 8.74503 6.83761C8.72921 6.98893 8.72302 7.1411 8.72651 7.29321V7.34358C8.72651 7.49619 8.72651 7.65991 8.74503 7.79918C8.76726 7.96142 8.82282 8.16958 8.99765 8.34367C9.14581 8.49184 9.31916 8.5548 9.46732 8.5837V8.82224C9.46731 9.01955 9.40428 9.2117 9.28741 9.37067C9.17054 9.52965 9.00595 9.64714 8.81763 9.70602L7.77754 10.0305C7.72264 10.0479 7.66851 10.0677 7.6153 10.0898V5.62047C7.73404 5.66222 7.86343 5.66243 7.9823 5.62104C8.10117 5.57966 8.20247 5.49914 8.2696 5.39267C8.33673 5.2862 8.36573 5.1601 8.35184 5.035C8.33794 4.9099 8.28199 4.79323 8.19313 4.70409" fill="#279FD7"/>
<path fill-rule="evenodd" clip-rule="evenodd" d="M9.19313 3.70335L8.45232 2.96254C8.34815 2.85849 8.20693 2.80005 8.05969 2.80005C7.91246 2.80005 7.77124 2.85849 7.66707 2.96254L6.92626 3.70335C6.8374 3.79249 6.78144 3.90916 6.76755 4.03426C6.75366 4.15936 6.78265 4.28546 6.84979 4.39193C6.91692 4.4984 7.01822 4.57892 7.13708 4.6203C7.25595 4.66168 7.38535 4.66148 7.50409 4.61972V8.34969C7.45074 8.32735 7.39635 8.30757 7.34111 8.29043L6.30176 7.96447C6.11356 7.90563 5.94905 7.78825 5.8322 7.62942C5.71534 7.47059 5.65224 7.27861 5.65207 7.08143V6.74955C5.91801 6.6234 6.13311 6.4105 6.262 6.14587C6.39088 5.88124 6.42587 5.58063 6.36122 5.29347C6.29656 5.00631 6.13611 4.7497 5.90625 4.56584C5.6764 4.38198 5.39081 4.28181 5.09646 4.28181C4.80212 4.28181 4.51653 4.38198 4.28667 4.56584C4.05681 4.7497 3.89636 5.00631 3.83171 5.29347C3.76706 5.58063 3.80205 5.88124 3.93093 6.14587C4.05981 6.4105 4.27491 6.6234 4.54086 6.74955V7.08143C4.541 7.51549 4.67978 7.93816 4.93697 8.28783C5.19415 8.6375 5.5563 8.89588 5.97062 9.02531L7.00997 9.35052C7.1532 9.39522 7.27839 9.48452 7.36729 9.6054C7.45618 9.72627 7.50411 9.87239 7.50409 10.0224V10.3321C7.24281 10.4559 7.03042 10.6635 6.90067 10.9219C6.77093 11.1803 6.73128 11.4746 6.78803 11.7581C6.84478 12.0416 6.99467 12.298 7.21387 12.4865C7.43308 12.6751 7.70902 12.7849 7.99782 12.7986C8.28662 12.8123 8.57171 12.729 8.80778 12.5621C9.04384 12.3952 9.21732 12.1541 9.30064 11.8772C9.38396 11.6004 9.37234 11.3036 9.26762 11.0341C9.16291 10.7646 8.97111 10.5378 8.72272 10.3899C8.81183 10.2474 8.949 10.1415 9.10942 10.0913L10.1488 9.76611C10.5631 9.63668 10.9252 9.3783 11.1824 9.02864C11.4396 8.67897 11.5784 8.2563 11.5785 7.82224V7.5837C11.7267 7.5548 11.8993 7.49258 12.0482 7.34367C12.223 7.16884 12.2786 6.96142 12.3008 6.79918C12.3193 6.65991 12.3193 6.49545 12.3193 6.34432V6.29247C12.3193 6.1406 12.3193 5.97688 12.3008 5.83761C12.2786 5.67537 12.223 5.46721 12.0482 5.29312C11.9001 5.15027 11.7084 5.06131 11.5037 5.0405C11.3644 5.02198 11.2 5.02198 11.0489 5.02198H10.997C10.8451 5.02198 10.6814 5.02198 10.5421 5.0405C10.3799 5.06273 10.1717 5.11829 9.99765 5.29312C9.8548 5.44118 9.76583 5.63293 9.74503 5.83761C9.72921 5.98893 9.72302 6.1411 9.72651 6.29321V6.34358C9.72651 6.49619 9.72651 6.65991 9.74503 6.79918C9.76726 6.96142 9.82282 7.16958 9.99765 7.34367C10.1458 7.49184 10.3192 7.5548 10.4673 7.5837V7.82224C10.4673 8.01955 10.4043 8.2117 10.2874 8.37067C10.1705 8.52965 10.006 8.64714 9.81763 8.70602L8.77754 9.03049C8.72264 9.04792 8.66851 9.06769 8.6153 9.08976V4.62047C8.73404 4.66222 8.86343 4.66243 8.9823 4.62104C9.10117 4.57966 9.20247 4.49914 9.2696 4.39267C9.33673 4.2862 9.36573 4.1601 9.35184 4.035C9.33794 3.9099 9.28199 3.79323 9.19313 3.70409" fill="url(#paint1_linear_15_1497)"/>
</g>
<defs>
<linearGradient id="paint0_linear_15_1497" x1="1.58242" y1="16.005" x2="7.36112" y2="-1.33327" gradientUnits="userSpaceOnUse">
<stop stop-color="#22B4FA"/>
<stop offset="1" stop-color="#6BD6FE"/>
</linearGradient>
<linearGradient id="paint1_linear_15_1497" x1="3.80005" y1="12.8" x2="13.9871" y2="10.6304" gradientUnits="userSpaceOnUse">
<stop stop-color="#6BD6FE"/>
<stop offset="1" stop-color="white"/>
</linearGradient>
<clipPath id="clip0_15_1497">
<rect width="16" height="16" fill="white"/>
</clipPath>
</defs>
</svg>
