<svg width="16" height="16" viewBox="0 0 16 16" fill="none" xmlns="http://www.w3.org/2000/svg">
<g clip-path="url(#clip0_14_968)">
<path fill-rule="evenodd" clip-rule="evenodd" d="M13.625 3.125C14.108 3.125 14.5 3.517 14.5 4V11.007C14.5 12.9364 12.9364 14.5 11.007 14.5C8.93762 14.5 6.06238 14.5 3.993 14.5C3.06638 14.5 2.17825 14.1316 1.52287 13.4771C0.868375 12.8217 0.5 11.9336 0.5 11.007C0.5 8.93762 0.5 6.06238 0.5 3.993C0.5 2.06363 2.06363 0.5 3.993 0.5C6.84288 0.5 11 0.5 11 0.5C11.483 0.5 11.875 0.892 11.875 1.375C11.875 2.341 12.659 3.125 13.625 3.125ZM13.625 2.25C13.142 2.25 12.75 1.858 12.75 1.375C12.75 0.892 13.142 0.5 13.625 0.5C14.108 0.5 14.5 0.892 14.5 1.375C14.5 1.858 14.108 2.25 13.625 2.25Z" fill="url(#paint0_linear_14_968)"/>
<path fill-rule="evenodd" clip-rule="evenodd" d="M7 14C6.724 14 6.5 13.776 6.5 13.5V11.496C6.5 10.3935 7.3935 9.5 8.496 9.5C9.6785 9.5 11.3215 9.5 12.504 9.5C13.0335 9.5 13.541 9.7105 13.9155 10.0845C14.2895 10.459 14.5 10.9665 14.5 11.496C14.5 12.6785 14.5 12.3215 14.5 13.504C14.5 14.6065 13.6065 15.5 12.504 15.5C10.8755 15.5 8.5 15.5 8.5 15.5C8.224 15.5 8 15.276 8 15C8 14.448 7.552 14 7 14ZM7 14.5C7.276 14.5 7.5 14.724 7.5 15C7.5 15.276 7.276 15.5 7 15.5C6.724 15.5 6.5 15.276 6.5 15C6.5 14.724 6.724 14.5 7 14.5Z" fill="#279FD7"/>
<path fill-rule="evenodd" clip-rule="evenodd" d="M8 13C7.724 13 7.5 12.776 7.5 12.5V10.496C7.5 9.3935 8.3935 8.5 9.496 8.5C10.6785 8.5 12.3215 8.5 13.504 8.5C14.0335 8.5 14.541 8.7105 14.9155 9.0845C15.2895 9.459 15.5 9.9665 15.5 10.496C15.5 11.6785 15.5 11.3215 15.5 12.504C15.5 13.6065 14.6065 14.5 13.504 14.5C11.8755 14.5 9.5 14.5 9.5 14.5C9.224 14.5 9 14.276 9 14C9 13.448 8.552 13 8 13ZM8 13.5C8.276 13.5 8.5 13.724 8.5 14C8.5 14.276 8.276 14.5 8 14.5C7.724 14.5 7.5 14.276 7.5 14C7.5 13.724 7.724 13.5 8 13.5Z" fill="url(#paint1_linear_14_968)"/>
</g>
<defs>
<linearGradient id="paint0_linear_14_968" x1="1.9" y1="14.5044" x2="6.95636" y2="-0.666609" gradientUnits="userSpaceOnUse">
<stop stop-color="#22B4FA"/>
<stop offset="1" stop-color="#6BD6FE"/>
</linearGradient>
<linearGradient id="paint1_linear_14_968" x1="7.5" y1="14.5" x2="16.5" y2="11.5" gradientUnits="userSpaceOnUse">
<stop stop-color="#6BD6FE"/>
<stop offset="1" stop-color="white"/>
</linearGradient>
<clipPath id="clip0_14_968">
<rect width="16" height="16" fill="white"/>
</clipPath>
</defs>
</svg>
