<svg width="16" height="16" viewBox="0 0 16 16" fill="none" xmlns="http://www.w3.org/2000/svg">
<path fill-rule="evenodd" clip-rule="evenodd" d="M15.125 3.625C15.608 3.625 16 4.017 16 4.5V11.507C16 13.4364 14.4364 15 12.507 15C10.4376 15 7.56238 15 5.493 15C4.56638 15 3.67825 14.6316 3.02287 13.9771C2.36837 13.3217 2 12.4336 2 11.507C2 9.43762 2 6.56238 2 4.493C2 2.56363 3.56363 1 5.493 1C8.34288 1 12.5 1 12.5 1C12.983 1 13.375 1.392 13.375 1.875C13.375 2.841 14.159 3.625 15.125 3.625ZM15.125 2.75C14.642 2.75 14.25 2.358 14.25 1.875C14.25 1.392 14.642 1 15.125 1C15.608 1 16 1.392 16 1.875C16 2.358 15.608 2.75 15.125 2.75Z" fill="url(#paint0_linear_14_971)"/>
<path fill-rule="evenodd" clip-rule="evenodd" d="M0.5 14.5C0.224 14.5 0 14.276 0 14V11.996C0 10.8935 0.8935 10 1.996 10C3.1785 10 4.8215 10 6.004 10C6.5335 10 7.041 10.2105 7.4155 10.5845C7.7895 10.959 8 11.4665 8 11.996C8 13.1785 8 12.8215 8 14.004C8 15.1065 7.1065 16 6.004 16C4.3755 16 2 16 2 16C1.724 16 1.5 15.776 1.5 15.5C1.5 14.948 1.052 14.5 0.5 14.5ZM0.5 15C0.776 15 1 15.224 1 15.5C1 15.776 0.776 16 0.5 16C0.224 16 0 15.776 0 15.5C0 15.224 0.224 15 0.5 15Z" fill="#279FD7"/>
<path fill-rule="evenodd" clip-rule="evenodd" d="M1.5 13.5C1.224 13.5 1 13.276 1 13V10.996C1 9.8935 1.8935 9 2.996 9C4.1785 9 5.8215 9 7.004 9C7.5335 9 8.041 9.2105 8.4155 9.5845C8.7895 9.959 9 10.4665 9 10.996C9 12.1785 9 11.8215 9 13.004C9 14.1065 8.1065 15 7.004 15C5.3755 15 3 15 3 15C2.724 15 2.5 14.776 2.5 14.5C2.5 13.948 2.052 13.5 1.5 13.5ZM1.5 14C1.776 14 2 14.224 2 14.5C2 14.776 1.776 15 1.5 15C1.224 15 1 14.776 1 14.5C1 14.224 1.224 14 1.5 14Z" fill="url(#paint1_linear_14_971)"/>
<defs>
<linearGradient id="paint0_linear_14_971" x1="3.4" y1="15.0044" x2="8.45636" y2="-0.166609" gradientUnits="userSpaceOnUse">
<stop stop-color="#22B4FA"/>
<stop offset="1" stop-color="#6BD6FE"/>
</linearGradient>
<linearGradient id="paint1_linear_14_971" x1="1" y1="15" x2="10" y2="12" gradientUnits="userSpaceOnUse">
<stop stop-color="#6BD6FE"/>
<stop offset="1" stop-color="white"/>
</linearGradient>
</defs>
</svg>
