<svg width="16" height="16" viewBox="0 0 16 16" fill="none" xmlns="http://www.w3.org/2000/svg">
<path fill-rule="evenodd" clip-rule="evenodd" d="M1.875 13.375C1.392 13.375 1 12.983 1 12.5V5.493C1 3.56362 2.56362 2 4.493 2C6.56237 2 9.43762 2 11.507 2C12.4336 2 13.3218 2.36838 13.9771 3.02288C14.6316 3.67825 15 4.56637 15 5.493C15 7.56237 15 10.4376 15 12.507C15 14.4364 13.4364 16 11.507 16C8.65712 16 4.5 16 4.5 16C4.017 16 3.625 15.608 3.625 15.125C3.625 14.159 2.841 13.375 1.875 13.375ZM1.875 14.25C2.358 14.25 2.75 14.642 2.75 15.125C2.75 15.608 2.358 16 1.875 16C1.392 16 1 15.608 1 15.125C1 14.642 1.392 14.25 1.875 14.25Z" fill="url(#paint0_linear_14_965)"/>
<path fill-rule="evenodd" clip-rule="evenodd" d="M7.5 6.5C7.224 6.5 7 6.276 7 6V3.996C7 2.8935 7.8935 2 8.996 2C10.1785 2 11.8215 2 13.004 2C13.5335 2 14.041 2.2105 14.4155 2.5845C14.7895 2.959 15 3.4665 15 3.996C15 5.1785 15 4.8215 15 6.004C15 7.1065 14.1065 8 13.004 8C11.3755 8 9 8 9 8C8.724 8 8.5 7.776 8.5 7.5C8.5 6.948 8.052 6.5 7.5 6.5ZM7.5 7C7.776 7 8 7.224 8 7.5C8 7.776 7.776 8 7.5 8C7.224 8 7 7.776 7 7.5C7 7.224 7.224 7 7.5 7Z" fill="#279FD7"/>
<path fill-rule="evenodd" clip-rule="evenodd" d="M8.5 5.5C8.224 5.5 8 5.276 8 5V2.996C8 1.8935 8.8935 1 9.996 1C11.1785 1 12.8215 1 14.004 1C14.5335 1 15.041 1.2105 15.4155 1.5845C15.7895 1.959 16 2.4665 16 2.996C16 4.1785 16 3.8215 16 5.004C16 6.1065 15.1065 7 14.004 7C12.3755 7 10 7 10 7C9.724 7 9.5 6.776 9.5 6.5C9.5 5.948 9.052 5.5 8.5 5.5ZM8.5 6C8.776 6 9 6.224 9 6.5C9 6.776 8.776 7 8.5 7C8.224 7 8 6.776 8 6.5C8 6.224 8.224 6 8.5 6Z" fill="url(#paint1_linear_14_965)"/>
<defs>
<linearGradient id="paint0_linear_14_965" x1="2.4" y1="16.0044" x2="7.45636" y2="0.833391" gradientUnits="userSpaceOnUse">
<stop stop-color="#22B4FA"/>
<stop offset="1" stop-color="#6BD6FE"/>
</linearGradient>
<linearGradient id="paint1_linear_14_965" x1="8" y1="7" x2="17" y2="4" gradientUnits="userSpaceOnUse">
<stop stop-color="#6BD6FE"/>
<stop offset="1" stop-color="white"/>
</linearGradient>
</defs>
</svg>
