<svg width="16" height="16" viewBox="0 0 16 16" fill="none" xmlns="http://www.w3.org/2000/svg">
<g clip-path="url(#clip0_8_647)">
<path fill-rule="evenodd" clip-rule="evenodd" d="M13 8C13 10 14.664 10.163 14.724 10.193C15.219 10.437 15.423 11.037 15.179 11.532C13.874 14.178 11.148 16 8 16C3.585 16 0 12.415 0 8C0 3.585 3.585 0 8 0C11.148 0 13.874 1.822 15.179 4.468C15.423 4.963 15.219 5.563 14.724 5.807C14.664 5.837 13 6 13 8ZM15 7C15.552 7 16 7.448 16 8C16 8.552 15.552 9 15 9C14.448 9 14 8.552 14 8C14 7.448 14.448 7 15 7Z" fill="url(#paint0_linear_8_647)"/>
<path fill-rule="evenodd" clip-rule="evenodd" d="M5.48579 4.68567C5.04396 4.68567 4.68579 5.04384 4.68579 5.48567V9.29519V12.3428C4.68579 12.7846 5.04396 13.1428 5.48579 13.1428C5.92762 13.1428 6.28579 12.7846 6.28579 12.3428V10.2952C6.28579 10.1847 6.37533 10.0952 6.48579 10.0952H9.29531C9.73714 10.0952 10.0953 9.73702 10.0953 9.29519V5.48567C10.0953 5.04384 9.73714 4.68567 9.29531 4.68567H5.48579ZM6.48579 6.28567C6.37533 6.28567 6.28579 6.37521 6.28579 6.48567V8.29519C6.28579 8.40565 6.37533 8.49519 6.48579 8.49519H8.29532C8.40577 8.49519 8.49531 8.40565 8.49531 8.29519V6.48567C8.49531 6.37521 8.40577 6.28567 8.29531 6.28567H6.48579Z" fill="#D84F4F"/>
<path fill-rule="evenodd" clip-rule="evenodd" d="M6.62874 3.54279C6.18691 3.54279 5.82874 3.90096 5.82874 4.34279V8.15231V11.1999C5.82874 11.6418 6.18691 11.9999 6.62874 11.9999C7.07056 11.9999 7.42874 11.6418 7.42874 11.1999V9.15231C7.42874 9.04185 7.51828 8.95231 7.62874 8.95231H10.4383C10.8801 8.95231 11.2383 8.59414 11.2383 8.15231V4.34279C11.2383 3.90096 10.8801 3.54279 10.4383 3.54279H6.62874ZM7.62874 5.14279C7.51828 5.14279 7.42874 5.23233 7.42874 5.34279V7.15231C7.42874 7.26277 7.51828 7.35231 7.62874 7.35231H9.43826C9.54872 7.35231 9.63826 7.26277 9.63826 7.15231V5.34279C9.63826 5.23233 9.54872 5.14279 9.43826 5.14279H7.62874Z" fill="url(#paint1_linear_8_647)"/>
</g>
<defs>
<linearGradient id="paint0_linear_8_647" x1="3" y1="14" x2="13" y2="2" gradientUnits="userSpaceOnUse">
<stop stop-color="#FF405B"/>
<stop offset="1" stop-color="#FF8860"/>
</linearGradient>
<linearGradient id="paint1_linear_8_647" x1="7.37371" y1="11.9997" x2="10.921" y2="6.59759" gradientUnits="userSpaceOnUse">
<stop stop-color="#FF8860"/>
<stop offset="1" stop-color="white"/>
</linearGradient>
<clipPath id="clip0_8_647">
<rect width="16" height="16" fill="white"/>
</clipPath>
</defs>
</svg>
