<svg width="16" height="16" viewBox="0 0 16 16" fill="none" xmlns="http://www.w3.org/2000/svg">
<g clip-path="url(#clip0_15_1578)">
<path fill-rule="evenodd" clip-rule="evenodd" d="M3 8C3 6 1.336 5.837 1.276 5.807C0.780999 5.563 0.576999 4.963 0.820999 4.468C2.126 1.822 4.852 0 8 0C12.415 0 16 3.585 16 8C16 12.415 12.415 16 8 16C4.852 16 2.126 14.178 0.820999 11.532C0.576999 11.037 0.780999 10.437 1.276 10.193C1.336 10.163 3 10 3 8ZM1 9C0.448 9 0 8.552 0 8C0 7.448 0.448 7 1 7C1.552 7 2 7.448 2 8C2 8.552 1.552 9 1 9Z" fill="url(#paint0_linear_15_1578)"/>
<path opacity="0.5" d="M3.05168 6.3201C2.8993 6.09848 3.10766 5.78592 3.36739 5.80126C4.36995 5.80013 5.37309 5.80013 6.37565 5.80126C6.53033 5.79558 6.67636 5.89389 6.741 6.03028C7.02208 6.62299 7.31068 7.21229 7.58253 7.80898C7.84742 7.22536 8.14647 6.65766 8.4223 6.07972C8.48119 5.92515 8.63069 5.8007 8.80327 5.80183C9.74404 5.79899 10.6849 5.80013 11.6257 5.80126C11.8588 5.79217 12.0879 6.05869 11.9662 6.27748C11.759 6.67869 11.5501 7.07875 11.344 7.48109C11.2903 7.57656 11.2464 7.69078 11.1397 7.74135C10.9734 7.85331 10.7258 7.74875 10.6704 7.56519C10.6185 7.43393 10.6906 7.29924 10.7483 7.18331C10.877 6.94464 10.996 6.70028 11.1258 6.46217C10.4061 6.46842 9.68693 6.46672 8.96779 6.4633C8.63532 7.16513 8.28955 7.86127 7.94152 8.5557C8.30629 9.33255 8.69997 10.0985 9.03641 10.8874C9.35214 10.3003 9.61652 9.68772 9.92126 9.09557C9.983 9.01431 10.0661 8.9296 10.1787 8.93589C10.4165 8.89439 10.6208 9.18425 10.5071 9.39045C10.1452 10.1616 9.76369 10.9243 9.39661 11.6931C9.3348 11.8455 9.18882 11.9858 9.0157 11.9875C8.89903 11.9381 8.77733 11.8688 8.72995 11.746C8.34322 10.9356 7.95244 10.127 7.57503 9.31263C7.17446 10.1219 6.78025 10.9345 6.37968 11.7438C6.32947 11.8659 6.21 11.9432 6.08936 11.9875C5.91852 11.9898 5.77942 11.8472 5.71362 11.7017C4.82708 9.90702 3.93822 8.11415 3.05168 6.3201ZM3.858 6.45762C4.58985 7.93457 5.32171 9.4115 6.05012 10.8896C6.45818 10.1219 6.81142 9.32626 7.21486 8.5557C6.86741 7.8624 6.55341 7.15263 6.2048 6.45933C5.42272 6.46842 4.64007 6.4724 3.858 6.45762Z" fill="url(#paint1_linear_15_1578)" stroke="url(#paint2_linear_15_1578)" stroke-width="0.6"/>
<path d="M4.05168 5.3201C3.8993 5.09848 4.10766 4.78592 4.36739 4.80126C5.36995 4.80013 6.37309 4.80013 7.37565 4.80126C7.53033 4.79558 7.67636 4.89389 7.741 5.03028C8.02208 5.62299 8.31068 6.21229 8.58253 6.80898C8.84742 6.22536 9.14647 5.65766 9.4223 5.07972C9.48119 4.92515 9.63069 4.8007 9.80327 4.80183C10.744 4.79899 11.6849 4.80013 12.6257 4.80126C12.8588 4.79217 13.0879 5.05869 12.9662 5.27748C12.759 5.67869 12.5501 6.07875 12.344 6.48109C12.2903 6.57656 12.2464 6.69078 12.1397 6.74135C11.9734 6.85331 11.7258 6.74875 11.6704 6.56519C11.6185 6.43393 11.6906 6.29924 11.7483 6.18331C11.877 5.94464 11.996 5.70028 12.1258 5.46217C11.4061 5.46842 10.6869 5.46672 9.96779 5.4633C9.63532 6.16513 9.28955 6.86127 8.94152 7.5557C9.30629 8.33255 9.69997 9.09854 10.0364 9.88736C10.3521 9.30031 10.6165 8.68772 10.9213 8.09557C10.983 8.01431 11.0661 7.9296 11.1787 7.93589C11.4165 7.89439 11.6208 8.18425 11.5071 8.39045C11.1452 9.16161 10.7637 9.92429 10.3966 10.6931C10.3348 10.8455 10.1888 10.9858 10.0157 10.9875C9.89903 10.9381 9.77733 10.8688 9.72995 10.746C9.34322 9.93561 8.95244 9.127 8.57503 8.31263C8.17446 9.1219 7.78025 9.93448 7.37968 10.7438C7.32947 10.8659 7.21 10.9432 7.08936 10.9875C6.91852 10.9898 6.77942 10.8472 6.71362 10.7017C5.82708 8.90702 4.93822 7.11415 4.05168 5.3201ZM4.858 5.45762C5.58985 6.93457 6.32171 8.4115 7.05012 9.88961C7.45818 9.1219 7.81142 8.32626 8.21486 7.5557C7.86741 6.8624 7.55341 6.15263 7.2048 5.45933C6.42272 5.46842 5.64007 5.4724 4.858 5.45762Z" fill="url(#paint3_linear_15_1578)" stroke="url(#paint4_linear_15_1578)" stroke-width="0.6"/>
</g>
<defs>
<linearGradient id="paint0_linear_15_1578" x1="2.34315" y1="13.6569" x2="13.6569" y2="2.34325" gradientUnits="userSpaceOnUse">
<stop stop-color="#0072FF"/>
<stop offset="1" stop-color="#00E5A1"/>
</linearGradient>
<linearGradient id="paint1_linear_15_1578" x1="4.31802" y1="11.0814" x2="8.40311" y2="5.13947" gradientUnits="userSpaceOnUse">
<stop stop-color="#375B88"/>
<stop offset="1" stop-color="#388A72"/>
</linearGradient>
<linearGradient id="paint2_linear_15_1578" x1="4.31802" y1="11.0814" x2="8.40311" y2="5.13947" gradientUnits="userSpaceOnUse">
<stop stop-color="#375B88"/>
<stop offset="1" stop-color="#388A72"/>
</linearGradient>
<linearGradient id="paint3_linear_15_1578" x1="5.31802" y1="10.0814" x2="9.40311" y2="4.13947" gradientUnits="userSpaceOnUse">
<stop stop-color="#6AACFF"/>
<stop offset="1" stop-color="#5FF9CB"/>
</linearGradient>
<linearGradient id="paint4_linear_15_1578" x1="5.31802" y1="10.0814" x2="9.40311" y2="4.13947" gradientUnits="userSpaceOnUse">
<stop stop-color="#6AACFF"/>
<stop offset="1" stop-color="#5FF9CB"/>
</linearGradient>
<clipPath id="clip0_15_1578">
<rect width="16" height="16" fill="white"/>
</clipPath>
</defs>
</svg>
