<svg width="16" height="16" viewBox="0 0 16 16" fill="none" xmlns="http://www.w3.org/2000/svg">
<g clip-path="url(#clip0_8_614)">
<path fill-rule="evenodd" clip-rule="evenodd" d="M5 0H10.18C10.97 0 11.728 0.314 12.287 0.872C12.817 1.403 13.597 2.183 14.128 2.713C14.686 3.272 15 4.03 15 4.82V13.021C15 13.811 14.686 14.569 14.128 15.128C13.569 15.686 12.811 16 12.021 16C9.796 16 6.204 16 3.979 16C3.189 16 2.431 15.686 1.872 15.128C1.314 14.569 1 13.811 1 13.021V4C1 3.448 1.448 3 2 3C3.104 3 4 2.104 4 1C4 0.448 4.448 0 5 0ZM3 1C3 1.552 2.552 2 2 2C1.448 2 1 1.552 1 1C1 0.448 1.448 0 2 0C2.552 0 3 0.448 3 1Z" fill="url(#paint0_linear_8_614)"/>
<path d="M3.85718 6.85712L5.14289 12.8571L7.28575 8.5714L9.42861 12.8571L10.7143 6.85712" stroke="#279FD7" stroke-width="1.6" stroke-linecap="round" stroke-linejoin="round"/>
<path d="M5 5.71429L6.28571 11.7143L8.42857 7.42858L10.5714 11.7143L11.8571 5.71429" stroke="url(#paint1_linear_8_614)" stroke-width="1.6" stroke-linecap="round" stroke-linejoin="round"/>
</g>
<defs>
<linearGradient id="paint0_linear_8_614" x1="2.4" y1="16.005" x2="8.80811" y2="-0.818382" gradientUnits="userSpaceOnUse">
<stop stop-color="#22B4FA"/>
<stop offset="1" stop-color="#6BD6FE"/>
</linearGradient>
<linearGradient id="paint1_linear_8_614" x1="5" y1="11.7143" x2="12.9245" y2="9.45014" gradientUnits="userSpaceOnUse">
<stop stop-color="#6BD6FE"/>
<stop offset="1" stop-color="white"/>
</linearGradient>
<clipPath id="clip0_8_614">
<rect width="16" height="16" fill="white"/>
</clipPath>
</defs>
</svg>
