<svg width="16" height="16" viewBox="0 0 16 16" fill="none" xmlns="http://www.w3.org/2000/svg">
<g clip-path="url(#clip0_8_666)">
<path fill-rule="evenodd" clip-rule="evenodd" d="M13 8C13 10 14.664 10.163 14.724 10.193C15.219 10.437 15.423 11.037 15.179 11.532C13.874 14.178 11.148 16 8 16C3.585 16 0 12.415 0 8C0 3.585 3.585 0 8 0C11.148 0 13.874 1.822 15.179 4.468C15.423 4.963 15.219 5.563 14.724 5.807C14.664 5.837 13 6 13 8ZM15 7C15.552 7 16 7.448 16 8C16 8.552 15.552 9 15 9C14.448 9 14 8.552 14 8C14 7.448 14.448 7 15 7Z" fill="url(#paint0_linear_8_666)"/>
<path fill-rule="evenodd" clip-rule="evenodd" d="M5.85736 10.7689C5.85736 10.4935 6.09935 10.2698 6.39738 10.2698C6.69514 10.2698 6.93712 10.4935 6.93712 10.7689V12.5161C6.93712 12.6433 6.88573 12.7631 6.7914 12.8556C6.69953 12.9477 6.57012 13.0054 6.43499 13.0153C6.24067 13.0277 6.04385 13.0303 5.84952 13.0277C5.68748 13.0228 5.52826 13.0127 5.36621 12.9903C5.18536 12.9677 5.00734 12.9303 4.83181 12.8779C4.68074 12.8355 4.535 12.7756 4.3974 12.7034C4.24632 12.6234 4.10873 12.526 3.98712 12.4138C3.86582 12.304 3.76584 12.1767 3.68497 12.0393C3.59847 11.8947 3.5339 11.7373 3.49598 11.5776C3.45022 11.3929 3.42859 11.2057 3.42859 11.0185C3.42859 10.8315 3.45022 10.6416 3.49598 10.4596C3.53641 10.2973 3.59847 10.1402 3.68497 9.99262C3.76866 9.85556 3.87115 9.73061 3.98994 9.61844C4.11406 9.506 4.25166 9.40888 4.40555 9.32886C4.53782 9.25903 4.67823 9.20165 4.82398 9.15931C4.99386 9.10919 5.16656 9.07437 5.33926 9.04947C5.50381 9.02684 5.66868 9.01439 5.83322 9.01206C6.02755 9.00687 6.2219 9.00946 6.41621 9.02191H8.28108C8.33787 9.02191 8.39172 9.01439 8.44564 9.00454C8.49956 8.99442 8.55349 8.9819 8.60488 8.96193C8.66978 8.93963 8.73182 8.90948 8.79107 8.87466C8.84246 8.84484 8.89106 8.81235 8.93679 8.77501C8.98286 8.73733 9.02333 8.69759 9.05841 8.65265C9.09882 8.60512 9.13397 8.55526 9.16339 8.50281C9.2283 8.39037 9.27689 8.27064 9.30385 8.146C9.34706 7.94368 9.36869 7.73673 9.3659 7.52948C9.36337 7.33238 9.33641 7.13499 9.28788 6.94543C9.25273 6.81325 9.19854 6.69093 9.12578 6.57354C9.06374 6.47384 8.98539 6.38398 8.89352 6.30659C8.79387 6.21906 8.68043 6.14688 8.55914 6.08949C8.51587 6.06949 8.47014 6.05442 8.42155 6.04688C8.37548 6.03442 8.32968 6.02688 8.28108 6.02688H6.93712V8.02368C6.93712 8.29904 6.69514 8.52278 6.39738 8.52278C6.09935 8.52278 5.85736 8.29904 5.85736 8.02368V5.52775C5.85736 5.25239 6.09935 5.02863 6.39738 5.02863H8.28641C8.28927 5.02863 8.2918 5.02863 8.29713 5.02863C8.42401 5.03124 8.55096 5.04602 8.67225 5.07616C8.79919 5.10109 8.92082 5.1408 9.03678 5.19326C9.25273 5.29326 9.45237 5.4205 9.62758 5.57268C9.7978 5.71993 9.94352 5.88717 10.0595 6.0718C10.1864 6.27152 10.2783 6.4863 10.3375 6.71094C10.4049 6.97528 10.4429 7.24745 10.4453 7.51934C10.4482 7.79643 10.4212 8.07092 10.362 8.34311C10.3134 8.56278 10.2322 8.77501 10.1163 8.97205C10.057 9.07437 9.98932 9.17409 9.91123 9.26655C9.83574 9.35642 9.75206 9.43877 9.6602 9.51612C9.56554 9.59354 9.46588 9.66337 9.35777 9.72335C9.24707 9.78799 9.12864 9.84311 9.00702 9.89031C8.89359 9.93032 8.7751 9.9628 8.65347 9.98277C8.53751 10.0054 8.41589 10.0179 8.2946 10.0202C8.2918 10.0202 8.28927 10.0202 8.28641 10.0202H6.39738C6.38393 10.0202 6.37294 10.0202 6.3595 10.0202C6.19208 10.0077 6.02755 10.0054 5.86018 10.0077C5.73888 10.0127 5.61727 10.0202 5.49848 10.0376C5.37969 10.0527 5.26372 10.0776 5.15308 10.1101C5.07754 10.1327 5.00483 10.1625 4.93462 10.1999C4.86692 10.235 4.80768 10.2773 4.75095 10.3271C4.70519 10.3697 4.66476 10.4196 4.63216 10.4744C4.59455 10.537 4.56759 10.6069 4.54848 10.6767C4.52152 10.7889 4.50804 10.9037 4.50804 11.0185C4.50804 11.1335 4.52152 11.2457 4.54848 11.3582C4.56477 11.4303 4.59455 11.4979 4.63216 11.5628C4.66194 11.615 4.70237 11.6651 4.75095 11.7074C4.80486 11.7573 4.86441 11.8022 4.9318 11.8373C5.00201 11.8747 5.07754 11.9046 5.1559 11.9271C5.27469 11.9619 5.39317 11.9868 5.5176 12.002C5.63075 12.017 5.74421 12.0245 5.85736 12.0294V10.7689Z" fill="#D84F4F" stroke="#D84F4F" stroke-width="0.4"/>
<path fill-rule="evenodd" clip-rule="evenodd" d="M7.00018 9.626C7.00018 9.35061 7.24217 9.12687 7.5402 9.12687C7.83796 9.12687 8.07994 9.35061 8.07994 9.626V11.3732C8.07994 11.5005 8.02855 11.6202 7.93422 11.7127C7.84236 11.8048 7.71295 11.8625 7.57781 11.8724C7.38349 11.8848 7.18667 11.8874 6.99235 11.8848C6.8303 11.8799 6.67108 11.8698 6.50903 11.8474C6.32819 11.8249 6.15016 11.7874 5.97464 11.735C5.82356 11.6926 5.67782 11.6327 5.54023 11.5605C5.38915 11.4805 5.25156 11.3831 5.12995 11.2709C5.00864 11.1611 4.90866 11.0338 4.8278 10.8964C4.74129 10.7518 4.67672 10.5944 4.6388 10.4347C4.59304 10.25 4.57141 10.0628 4.57141 9.87557C4.57141 9.68858 4.59304 9.49872 4.6388 9.31672C4.67923 9.15443 4.74129 8.99733 4.8278 8.84974C4.91148 8.71268 5.01398 8.58772 5.13276 8.47556C5.25688 8.36312 5.39448 8.266 5.54837 8.18598C5.68064 8.11615 5.82106 8.05877 5.9668 8.01643C6.13668 7.9663 6.30938 7.93149 6.48208 7.90659C6.64663 7.88396 6.8115 7.87151 6.97604 7.86918C7.17037 7.86398 7.36472 7.86658 7.55904 7.87903H9.42391C9.48069 7.87903 9.53454 7.87151 9.58847 7.86165C9.64239 7.85154 9.69631 7.83902 9.7477 7.81905C9.8126 7.79675 9.87465 7.76659 9.93389 7.73178C9.98528 7.70196 10.0339 7.66947 10.0796 7.63212C10.1257 7.59445 10.1662 7.5547 10.2012 7.50977C10.2416 7.46224 10.2768 7.41238 10.3062 7.35992C10.3711 7.24749 10.4197 7.12776 10.4467 7.00312C10.4899 6.8008 10.5115 6.59384 10.5087 6.38659C10.5062 6.1895 10.4792 5.9921 10.4307 5.80254C10.3956 5.67037 10.3414 5.54805 10.2686 5.43066C10.2066 5.33095 10.1282 5.2411 10.0363 5.1637C9.93669 5.07617 9.82326 5.004 9.70197 4.9466C9.6587 4.92661 9.61296 4.91153 9.56437 4.904C9.5183 4.89154 9.4725 4.884 9.42391 4.884H8.07994V6.8808C8.07994 7.15615 7.83796 7.37989 7.5402 7.37989C7.24217 7.37989 7.00018 7.15615 7.00018 6.8808V4.38487C7.00018 4.10951 7.24217 3.88574 7.5402 3.88574H9.42923C9.4321 3.88574 9.43462 3.88574 9.43995 3.88574C9.56683 3.88835 9.69378 3.90314 9.81507 3.93328C9.94202 3.9582 10.0636 3.99792 10.1796 4.05038C10.3956 4.15038 10.5952 4.27762 10.7704 4.4298C10.9406 4.57704 11.0863 4.74429 11.2024 4.92892C11.3293 5.12864 11.4211 5.34341 11.4804 5.56805C11.5477 5.8324 11.5857 6.10457 11.5881 6.37646C11.591 6.65355 11.564 6.92804 11.5048 7.20022C11.4562 7.4199 11.3751 7.63212 11.2591 7.82917C11.1998 7.93149 11.1321 8.03121 11.0541 8.12367C10.9786 8.21354 10.8949 8.29589 10.803 8.37324C10.7084 8.45066 10.6087 8.52049 10.5006 8.58047C10.3899 8.64511 10.2715 8.70023 10.1498 8.74742C10.0364 8.78743 9.91792 8.81992 9.7963 8.83989C9.68033 8.86252 9.55871 8.87497 9.43742 8.8773C9.43462 8.8773 9.4321 8.8773 9.42923 8.8773H7.5402C7.52675 8.8773 7.51577 8.8773 7.50232 8.8773C7.3349 8.86485 7.17037 8.86252 7.003 8.86485C6.8817 8.86978 6.76009 8.8773 6.6413 8.89468C6.52251 8.90979 6.40654 8.93468 6.29591 8.96717C6.22036 8.9898 6.14765 9.01963 6.07744 9.05704C6.00974 9.09212 5.95051 9.13439 5.89378 9.18425C5.84801 9.22686 5.80758 9.27672 5.77498 9.3315C5.73737 9.39414 5.71042 9.46398 5.6913 9.53381C5.66434 9.64598 5.65086 9.76081 5.65086 9.87557C5.65086 9.9906 5.66434 10.1028 5.6913 10.2153C5.70759 10.2874 5.73737 10.355 5.77498 10.4199C5.80476 10.4721 5.84519 10.5222 5.89378 10.5646C5.94768 10.6144 6.00724 10.6594 6.07462 10.6944C6.14483 10.7318 6.22036 10.7617 6.29872 10.7842C6.41752 10.8191 6.53599 10.844 6.66042 10.8591C6.77357 10.8741 6.88703 10.8816 7.00018 10.8866V9.626Z" fill="url(#paint1_linear_8_666)" stroke="url(#paint2_linear_8_666)" stroke-width="0.4"/>
</g>
<defs>
<linearGradient id="paint0_linear_8_666" x1="3" y1="14" x2="13" y2="2" gradientUnits="userSpaceOnUse">
<stop stop-color="#FF405B"/>
<stop offset="1" stop-color="#FF8860"/>
</linearGradient>
<linearGradient id="paint1_linear_8_666" x1="6.57547" y1="11.8856" x2="9.42433" y2="5.93625" gradientUnits="userSpaceOnUse">
<stop stop-color="#FF8860"/>
<stop offset="1" stop-color="white"/>
</linearGradient>
<linearGradient id="paint2_linear_8_666" x1="6.57547" y1="11.8856" x2="9.42433" y2="5.93625" gradientUnits="userSpaceOnUse">
<stop stop-color="#FF8860"/>
<stop offset="1" stop-color="white"/>
</linearGradient>
<clipPath id="clip0_8_666">
<rect width="16" height="16" fill="white"/>
</clipPath>
</defs>
</svg>
