<svg width="16" height="16" viewBox="0 0 16 16" fill="none" xmlns="http://www.w3.org/2000/svg">
<g clip-path="url(#clip0_8_623)">
<path fill-rule="evenodd" clip-rule="evenodd" d="M5 0H10.18C10.97 0 11.728 0.314 12.287 0.872C12.817 1.403 13.597 2.183 14.128 2.713C14.686 3.272 15 4.03 15 4.82V13.021C15 13.811 14.686 14.569 14.128 15.128C13.569 15.686 12.811 16 12.021 16C9.796 16 6.204 16 3.979 16C3.189 16 2.431 15.686 1.872 15.128C1.314 14.569 1 13.811 1 13.021V4C1 3.448 1.448 3 2 3C3.104 3 4 2.104 4 1C4 0.448 4.448 0 5 0ZM3 1C3 1.552 2.552 2 2 2C1.448 2 1 1.552 1 1C1 0.448 1.448 0 2 0C2.552 0 3 0.448 3 1Z" fill="url(#paint0_linear_8_623)"/>
<path d="M7.09998 8.3904L5.51286 6.39426L5.50849 6.3981C5.1762 5.97888 4.52474 5.87888 4.04816 6.17118C3.57159 6.46349 3.45791 7.03656 3.7902 7.45579L5.81891 10.0019L3.79457 12.5481C3.46229 12.9634 3.58034 13.5404 4.05254 13.8327C4.52474 14.125 5.18057 14.025 5.51286 13.6057L7.09998 11.6096L8.69146 13.6057C9.02375 14.025 9.67521 14.125 10.1518 13.8327C10.6284 13.5404 10.742 12.9673 10.4097 12.5481L8.38104 10.0019L10.4054 7.45194C10.7377 7.03656 10.6196 6.45964 10.1474 6.16734C9.67522 5.87503 9.01938 5.97503 8.68709 6.39426L7.09998 8.3904Z" fill="#7FD1AE"/>
<path d="M8.09998 7.3904L6.51286 5.39426L6.50849 5.3981C6.1762 4.97888 5.52474 4.87888 5.04816 5.17118C4.57159 5.46349 4.45791 6.03656 4.7902 6.45579L6.81891 9.00192L4.79457 11.5481C4.46229 11.9634 4.58034 12.5404 5.05254 12.8327C5.52474 13.125 6.18057 13.025 6.51286 12.6057L8.09998 10.6096L9.69146 12.6057C10.0238 13.025 10.6752 13.125 11.1518 12.8327C11.6284 12.5404 11.742 11.9673 11.4097 11.5481L9.38104 9.00192L11.4054 6.45194C11.7377 6.03656 11.6196 5.45964 11.1474 5.16734C10.6752 4.87503 10.0194 4.97503 9.68709 5.39426L8.09998 7.3904Z" fill="url(#paint1_linear_8_623)"/>
</g>
<defs>
<linearGradient id="paint0_linear_8_623" x1="2.75" y1="14.0004" x2="16.0076" y2="11.3235" gradientUnits="userSpaceOnUse">
<stop stop-color="#62E8AF"/>
<stop offset="1" stop-color="#B3FBDC"/>
</linearGradient>
<linearGradient id="paint1_linear_8_623" x1="4.59998" y1="13" x2="7.24148" y2="3.75472" gradientUnits="userSpaceOnUse">
<stop stop-color="#B3FBDC"/>
<stop offset="1" stop-color="white"/>
</linearGradient>
<clipPath id="clip0_8_623">
<rect width="16" height="16" fill="white"/>
</clipPath>
</defs>
</svg>
