<svg width="16" height="16" viewBox="0 0 16 16" fill="none" xmlns="http://www.w3.org/2000/svg">
<path fill-rule="evenodd" clip-rule="evenodd" d="M12.2857 3.42857C11.024 3.42857 10 2.40457 10 1.14286C10 0.512 9.488 0 8.85714 0C8.85714 0 7.02171 0 5.43086 0C3.536 0 2 1.536 2 3.43086V12.5691C2 14.464 3.536 16 5.43086 16H9.99771C10.9074 16 11.7806 15.6389 12.424 14.9954C13.0674 14.352 13.4286 13.4789 13.4286 12.5691C13.4286 9.53829 13.4286 4.57143 13.4286 4.57143C13.4286 3.94057 12.9166 3.42857 12.2857 3.42857ZM12.2857 2.28571C12.9166 2.28571 13.4286 1.77371 13.4286 1.14286C13.4286 0.512 12.9166 0 12.2857 0C11.6549 0 11.1429 0.512 11.1429 1.14286C11.1429 1.77371 11.6549 2.28571 12.2857 2.28571Z" fill="url(#paint0_linear_30_693)"/>
<path fill-rule="evenodd" clip-rule="evenodd" d="M5.42862 5.7143H7.71434C8.3452 5.7143 8.8572 5.2023 8.8572 4.57145C8.8572 3.94059 8.3452 3.42859 7.71434 3.42859H5.42862C4.79777 3.42859 4.28577 3.94059 4.28577 4.57145C4.28577 5.2023 4.79777 5.7143 5.42862 5.7143Z" fill="#8C4FD9"/>
<path fill-rule="evenodd" clip-rule="evenodd" d="M6.57145 4.57142H8.85716C9.48802 4.57142 10 4.05942 10 3.42856C10 2.79771 9.48802 2.28571 8.85716 2.28571H6.57145C5.94059 2.28571 5.42859 2.79771 5.42859 3.42856C5.42859 4.05942 5.94059 4.57142 6.57145 4.57142Z" fill="url(#paint1_linear_30_693)"/>
<path d="M8.50241 7.08733C8.62234 7.20726 8.68972 7.36992 8.68972 7.53953C8.68972 8.12788 9.16722 8.60538 9.75556 8.60538C9.92517 8.60538 10.0878 8.67275 10.2078 8.79268C10.3277 8.91261 10.3951 9.07527 10.3951 9.24488C10.3951 9.41449 10.3277 9.57715 10.2078 9.69708C10.0878 9.81701 9.92517 9.88439 9.75556 9.88439C9.37186 9.88439 9.00947 9.7923 8.68972 9.62859V12.6556C8.68962 13.1666 8.52262 13.6635 8.21412 14.0708C7.90562 14.4782 7.47251 14.7736 6.98068 14.9122C6.48885 15.0507 5.96523 15.0248 5.48947 14.8384C5.0137 14.652 4.61185 14.3153 4.34505 13.8795C4.07824 13.4437 3.96108 12.9327 4.0114 12.4242C4.06172 11.9158 4.27675 11.4376 4.6238 11.0626C4.97084 10.6875 5.43089 10.4361 5.93396 10.3466C6.43702 10.257 6.95557 10.3343 7.4107 10.5665V7.53953C7.4107 7.36992 7.47808 7.20726 7.59801 7.08733C7.71794 6.9674 7.8806 6.90002 8.05021 6.90002C8.21982 6.90002 8.38248 6.9674 8.50241 7.08733Z" fill="#8C4FD9"/>
<path d="M9.40243 6.18731C9.52237 6.30724 9.58974 6.4699 9.58974 6.63951C9.58974 7.22785 10.0672 7.70535 10.6556 7.70535C10.8252 7.70535 10.9879 7.77273 11.1078 7.89266C11.2277 8.01259 11.2951 8.17525 11.2951 8.34486C11.2951 8.51447 11.2277 8.67713 11.1078 8.79706C10.9879 8.91699 10.8252 8.98436 10.6556 8.98436C10.2719 8.98436 9.9095 8.89227 9.58974 8.72856V11.7556C9.58965 12.2665 9.42265 12.7635 9.11415 13.1708C8.80565 13.5782 8.37254 13.8736 7.88071 14.0121C7.38888 14.1507 6.86525 14.1248 6.38949 13.9384C5.91373 13.752 5.51188 13.4153 5.24507 12.9795C4.97826 12.5437 4.86111 12.0327 4.91142 11.5242C4.96174 11.0157 5.17678 10.5376 5.52382 10.1625C5.87086 9.78751 6.33091 9.53609 6.83398 9.44655C7.33705 9.35701 7.85559 9.43424 8.31073 9.6665V6.63951C8.31073 6.4699 8.37811 6.30724 8.49804 6.18731C8.61797 6.06738 8.78063 6 8.95024 6C9.11984 6 9.2825 6.06738 9.40243 6.18731Z" fill="url(#paint2_linear_30_693)"/>
<defs>
<linearGradient id="paint0_linear_30_693" x1="4.85714" y1="14.8571" x2="15.3958" y2="6.07494" gradientUnits="userSpaceOnUse">
<stop stop-color="#A056FF"/>
<stop offset="1" stop-color="#C59AFD"/>
</linearGradient>
<linearGradient id="paint1_linear_30_693" x1="6.57145" y1="4.57142" x2="10" y2="2.28571" gradientUnits="userSpaceOnUse">
<stop stop-color="#C59AFD"/>
<stop offset="1" stop-color="white"/>
</linearGradient>
<linearGradient id="paint2_linear_30_693" x1="6.49879" y1="14.1" x2="12.978" y2="12.3948" gradientUnits="userSpaceOnUse">
<stop stop-color="#C59AFD"/>
<stop offset="1" stop-color="white"/>
</linearGradient>
</defs>
</svg>
