<svg width="16" height="16" viewBox="0 0 16 16" fill="none" xmlns="http://www.w3.org/2000/svg">
<g clip-path="url(#clip0_15_1225)">
<path fill-rule="evenodd" clip-rule="evenodd" d="M1 13C0.448 13 0 12.552 0 12V3.992C0 1.787 1.787 0 3.992 0C6.357 0 9.643 0 12.008 0C13.067 0 14.082 0.421001 14.831 1.169C15.579 1.918 16 2.933 16 3.992C16 6.357 16 9.643 16 12.008C16 14.213 14.213 16 12.008 16C8.751 16 4 16 4 16C3.448 16 3 15.552 3 15C3 13.896 2.104 13 1 13ZM1 14C1.552 14 2 14.448 2 15C2 15.552 1.552 16 1 16C0.448 16 0 15.552 0 15C0 14.448 0.448 14 1 14Z" fill="url(#paint0_linear_15_1225)"/>
<path d="M5 5.33331C3.34314 5.33331 2 6.67646 2 8.33331C2 9.99017 3.34314 11.3333 5 11.3333C6.18827 11.3314 7.25515 10.63 7.73408 9.55891C7.79349 9.4259 7.9216 9.3331 8.0672 9.33299L9.65547 9.33107C9.84565 9.33086 10 9.4851 10 9.67518V10.32C10 10.51 10.154 10.6641 10.3441 10.6641H11.6559C11.846 10.6641 12 10.51 12 10.32V9.66142C12 9.47753 12.1494 9.32862 12.3333 9.32937C12.5172 9.33001 12.6667 9.18131 12.6667 8.99731V7.67497C12.6667 7.48489 12.5125 7.33075 12.3223 7.33086L8.06763 7.33321C7.92181 7.33331 7.79349 7.24041 7.73387 7.10729C7.25483 6.03635 6.18816 5.33502 5 5.33331ZM5 7.33331C5.55232 7.33331 6 7.78099 6 8.33331C6 8.88563 5.55232 9.33331 5 9.33331C4.44768 9.33331 4 8.88563 4 8.33331C4 7.78099 4.44768 7.33331 5 7.33331Z" fill="#279FD7"/>
<path d="M6.33337 4C4.67651 4 3.33337 5.34315 3.33337 7C3.33337 8.65685 4.67651 10 6.33337 10C7.52164 9.99808 8.58852 9.29664 9.06745 8.2256C9.12687 8.09259 9.25497 7.99979 9.40057 7.99968L10.9888 7.99776C11.179 7.99755 11.3334 8.15179 11.3334 8.34187V8.98667C11.3334 9.17664 11.4874 9.33077 11.6775 9.33077H12.9893C13.1793 9.33077 13.3334 9.17664 13.3334 8.98667V8.32811C13.3334 8.14421 13.4828 7.99531 13.6667 7.99605C13.8506 7.99669 14 7.848 14 7.664V6.34165C14 6.15157 13.8459 5.99744 13.6557 5.99755L9.401 5.99989C9.25519 6 9.12687 5.90709 9.06724 5.77397C8.5882 4.70304 7.52153 4.00171 6.33337 4ZM6.33337 6C6.88569 6 7.33337 6.44768 7.33337 7C7.33337 7.55232 6.88569 8 6.33337 8C5.78105 8 5.33337 7.55232 5.33337 7C5.33337 6.44768 5.78105 6 6.33337 6Z" fill="url(#paint1_linear_15_1225)"/>
</g>
<defs>
<linearGradient id="paint0_linear_15_1225" x1="1.6" y1="16.005" x2="7.3787" y2="-1.33327" gradientUnits="userSpaceOnUse">
<stop stop-color="#22B4FA"/>
<stop offset="1" stop-color="#6BD6FE"/>
</linearGradient>
<linearGradient id="paint1_linear_15_1225" x1="3.33337" y1="10" x2="14.4674" y2="5.05155" gradientUnits="userSpaceOnUse">
<stop stop-color="#6BD6FE"/>
<stop offset="1" stop-color="white"/>
</linearGradient>
<clipPath id="clip0_15_1225">
<rect width="16" height="16" fill="white"/>
</clipPath>
</defs>
</svg>
