<svg width="16" height="16" viewBox="0 0 16 16" fill="none" xmlns="http://www.w3.org/2000/svg">
<g clip-path="url(#clip0_25_2761)">
<path fill-rule="evenodd" clip-rule="evenodd" d="M15 3C15.552 3 16 3.448 16 4V12.008C16 14.213 14.213 16 12.008 16C9.64301 16 6.35701 16 3.992 16C2.93301 16 1.918 15.579 1.16899 14.831C0.420994 14.0819 0 13.067 0 12.008C0 9.64301 0 6.35701 0 3.992C0 1.78701 1.78701 0 3.992 0C7.24901 0 12 0 12 0C12.552 0 13 0.448 13 1C13 2.104 13.896 3 15 3ZM15 2C14.448 2 14 1.552 14 1C14 0.448 14.448 0 15 0C15.552 0 16 0.448 16 1C16 1.552 15.552 2 15 2Z" fill="url(#paint0_linear_25_2761)"/>
<path fill-rule="evenodd" clip-rule="evenodd" d="M7.89602 4.89012C7.44459 4.58955 6.91316 4.42841 6.3703 4.42841H6.36802C5.58859 4.42841 4.84116 4.73812 4.28916 5.28898C3.7383 5.84098 3.42859 6.58841 3.42859 7.36783C3.42859 8.36669 3.42859 9.60669 3.42859 10.609C3.42859 12.2456 4.7543 13.5713 6.39087 13.5713C6.92002 13.5713 7.43773 13.4147 7.87773 13.121L10.096 11.6421C10.9292 11.0879 11.4286 10.153 11.4286 9.15298C11.4286 9.05126 11.4286 8.94841 11.4286 8.84669C11.4286 7.84669 10.9292 6.91183 10.096 6.35755L7.89602 4.89012ZM6.62859 6.79298L8.82859 8.25926C9.02516 8.38955 9.14287 8.61012 9.14287 8.84669V9.15298C9.14287 9.38955 9.02516 9.61012 8.82859 9.74041L6.6103 11.2193C6.54516 11.2627 6.46973 11.2856 6.39202 11.2856C6.0183 11.2856 5.7143 10.9827 5.7143 10.609V7.36783C5.7143 7.19412 5.78287 7.02841 5.9063 6.90612C6.02859 6.78269 6.1943 6.71412 6.36802 6.71412H6.3703C6.46173 6.71412 6.55202 6.74155 6.62859 6.79298Z" fill="#DA5150"/>
<path fill-rule="evenodd" clip-rule="evenodd" d="M8.89645 3.89093C8.44481 3.58963 7.91369 3.42859 7.37043 3.42859H7.36763C6.58871 3.42859 5.84067 3.7382 5.28991 4.28937C4.73822 4.84106 4.42871 5.58859 4.42871 6.36781C4.42871 7.36677 4.42871 8.60677 4.42871 9.60937C4.42871 11.2452 5.75464 12.5714 7.39101 12.5714C7.92025 12.5714 8.43828 12.4151 8.87776 12.1216L11.0967 10.6426C11.9289 10.0878 12.4282 9.15379 12.4282 8.15326C12.4282 8.05196 12.4282 7.94807 12.4282 7.84677C12.4282 6.84625 11.9289 5.91222 11.0967 5.35742L8.89645 3.89093ZM7.62851 5.79275L9.82871 7.25924C10.0251 7.39014 10.1429 7.61041 10.1429 7.84625V8.15379C10.1429 8.38963 10.0251 8.60989 9.82871 8.74079L7.60981 10.2198C7.54528 10.2629 7.46955 10.2857 7.39193 10.2857C7.01791 10.2857 6.71401 9.98288 6.71401 9.60937V6.36781C6.71401 6.19483 6.7832 6.02859 6.90569 5.90599C7.0282 5.78339 7.19463 5.7143 7.36763 5.7143H7.37043C7.46206 5.7143 7.55183 5.74132 7.62851 5.79275Z" fill="url(#paint1_linear_25_2761)"/>
</g>
<defs>
<linearGradient id="paint0_linear_25_2761" x1="3" y1="14" x2="13" y2="2" gradientUnits="userSpaceOnUse">
<stop stop-color="#FF405B"/>
<stop offset="1" stop-color="#FF8860"/>
</linearGradient>
<linearGradient id="paint1_linear_25_2761" x1="5.57144" y1="12.5714" x2="10.1429" y2="4.57142" gradientUnits="userSpaceOnUse">
<stop stop-color="#FF8860"/>
<stop offset="1" stop-color="white"/>
</linearGradient>
<clipPath id="clip0_25_2761">
<rect width="16" height="16" fill="white"/>
</clipPath>
</defs>
</svg>
