<svg width="16" height="16" viewBox="0 0 16 16" fill="none" xmlns="http://www.w3.org/2000/svg">
<g clip-path="url(#clip0_128_16)">
<rect width="16" height="16" rx="3" fill="url(#paint0_linear_128_16)"/>
<path d="M3.5 7.87752C3.5 7.47176 3.82894 7.14282 4.2347 7.14282H9.6224C10.0281 7.14282 10.3571 7.47176 10.3571 7.87752V9.83665C10.3571 10.2424 10.0281 10.5714 9.6224 10.5714H4.2347C3.82894 10.5714 3.5 10.2424 3.5 9.83665V7.87752Z" fill="#D84F4F"/>
<path d="M4.64282 6.7347C4.64282 6.32894 4.97176 6 5.37752 6H10.7652C11.1709 6 11.5 6.32894 11.5 6.7347V8.69383C11.5 9.09954 11.1709 9.42857 10.7652 9.42857H5.37752C4.97176 9.42857 4.64282 9.09954 4.64282 8.69383V6.7347Z" fill="url(#paint1_linear_128_16)"/>
</g>
<defs>
<linearGradient id="paint0_linear_128_16" x1="3" y1="14" x2="13" y2="2" gradientUnits="userSpaceOnUse">
<stop stop-color="#FF405B"/>
<stop offset="1" stop-color="#FF8860"/>
</linearGradient>
<linearGradient id="paint1_linear_128_16" x1="6.60124" y1="9.4285" x2="7.23167" y2="6.42653" gradientUnits="userSpaceOnUse">
<stop stop-color="#FF8860"/>
<stop offset="1" stop-color="white"/>
</linearGradient>
<clipPath id="clip0_128_16">
<rect width="16" height="16" fill="white"/>
</clipPath>
</defs>
</svg>
