<svg width="16" height="16" viewBox="0 0 16 16" fill="none" xmlns="http://www.w3.org/2000/svg">
<path fill-rule="evenodd" clip-rule="evenodd" d="M3.13333 14.9333C3.13333 15.5221 2.65547 16 2.06667 16C1.47787 16 1 15.5221 1 14.9333C1 14.3445 1.47787 13.8667 2.06667 13.8667C2.65547 13.8667 3.13333 14.3445 3.13333 14.9333ZM4.25333 0H12.68C14.4795 0.0192 15.9333 1.48373 15.9333 3.28853V12.7115C15.9333 13.584 15.5867 14.4203 14.9701 15.0368C14.3536 15.6533 13.5173 16 12.6448 16H5.26667C4.67787 16 4.2 15.5221 4.2 14.9333C4.2 13.7557 3.24427 12.8 2.06667 12.8C1.47787 12.8 1 12.3221 1 11.7333V3.28853C1 1.48373 2.45387 0.0192 4.25333 0Z" fill="url(#paint0_linear_73_1839)"/>
<path d="M8.58855 3.35221H6.45522C5.86642 3.35221 5.38855 2.87434 5.38855 2.28554C5.38855 1.69674 5.86642 1.21887 6.45522 1.21887H8.58855C9.17735 1.21887 9.65522 1.69674 9.65522 2.28554C9.65522 2.87434 9.17735 3.35221 8.58855 3.35221Z" fill="#8CC860"/>
<path d="M8.77141 7.77127H6.63808C6.04928 7.77127 5.57141 7.29341 5.57141 6.70461C5.57141 6.11581 6.04928 5.63794 6.63808 5.63794H8.77141C9.36021 5.63794 9.83808 6.11581 9.83808 6.70461C9.83808 7.29341 9.36021 7.77127 8.77141 7.77127Z" fill="#8CC860"/>
<path d="M8.77141 12.3429H6.63808C6.04928 12.3429 5.57141 11.865 5.57141 11.2762C5.57141 10.6874 6.04928 10.2095 6.63808 10.2095H8.77141C9.36021 10.2095 9.83808 10.6874 9.83808 11.2762C9.83808 11.865 9.36021 12.3429 8.77141 12.3429Z" fill="#8CC860"/>
<path fill-rule="evenodd" clip-rule="evenodd" d="M7.52187 2.28556H9.6552C10.244 2.28556 10.7219 1.80769 10.7219 1.21889C10.7219 0.630088 10.244 0.152222 9.6552 0.152222H7.52187C6.93307 0.152222 6.4552 0.630088 6.4552 1.21889C6.4552 1.80769 6.93307 2.28556 7.52187 2.28556Z" fill="url(#paint1_linear_73_1839)"/>
<path fill-rule="evenodd" clip-rule="evenodd" d="M7.70473 6.70474H9.83806C10.4269 6.70474 10.9047 6.22688 10.9047 5.63808C10.9047 5.04928 10.4269 4.57141 9.83806 4.57141H7.70473C7.11593 4.57141 6.63806 5.04928 6.63806 5.63808C6.63806 6.22688 7.11593 6.70474 7.70473 6.70474Z" fill="url(#paint2_linear_73_1839)"/>
<path fill-rule="evenodd" clip-rule="evenodd" d="M7.70473 11.2761H9.83806C10.4269 11.2761 10.9047 10.7983 10.9047 10.2095C10.9047 9.62069 10.4269 9.14282 9.83806 9.14282H7.70473C7.11593 9.14282 6.63806 9.62069 6.63806 10.2095C6.63806 10.7983 7.11593 11.2761 7.70473 11.2761Z" fill="url(#paint3_linear_73_1839)"/>
<defs>
<linearGradient id="paint0_linear_73_1839" x1="2.06667" y1="16" x2="12.8789" y2="1.32153" gradientUnits="userSpaceOnUse">
<stop stop-color="#9BE862"/>
<stop offset="1" stop-color="#C8FF9F"/>
</linearGradient>
<linearGradient id="paint1_linear_73_1839" x1="6.98853" y1="2.28556" x2="8.56392" y2="-0.471368" gradientUnits="userSpaceOnUse">
<stop stop-color="#C8FF9F"/>
<stop offset="1" stop-color="white"/>
</linearGradient>
<linearGradient id="paint2_linear_73_1839" x1="7.17139" y1="6.70474" x2="8.74678" y2="3.94782" gradientUnits="userSpaceOnUse">
<stop stop-color="#C8FF9F"/>
<stop offset="1" stop-color="white"/>
</linearGradient>
<linearGradient id="paint3_linear_73_1839" x1="7.17139" y1="11.2761" x2="8.74678" y2="8.51923" gradientUnits="userSpaceOnUse">
<stop stop-color="#C8FF9F"/>
<stop offset="1" stop-color="white"/>
</linearGradient>
</defs>
</svg>
