<svg width="16" height="16" viewBox="0 0 16 16" fill="none" xmlns="http://www.w3.org/2000/svg">
<path fill-rule="evenodd" clip-rule="evenodd" d="M4.46445 11.5355C3.05024 10.1213 1.75835 11.1827 1.69471 11.2039C1.17216 11.3814 0.603648 11.1013 0.426164 10.5788C-0.522065 7.78501 0.117159 4.56909 2.34313 2.34312C5.46501 -0.778761 10.535 -0.778761 13.6568 2.34312C16.7787 5.46499 16.7787 10.5349 13.6568 13.6568C11.4309 15.8828 8.21495 16.522 5.42117 15.5738C4.89861 15.3963 4.6186 14.8278 4.79608 14.3052C4.8173 14.2416 5.87867 12.9497 4.46445 11.5355ZM3.75734 13.6568C3.36702 14.0471 2.73345 14.0471 2.34313 13.6568C1.95281 13.2665 1.95281 12.6329 2.34313 12.2426C2.73345 11.8523 3.36702 11.8523 3.75734 12.2426C4.14767 12.6329 4.14767 13.2665 3.75734 13.6568Z" fill="url(#paint0_linear_73_1853)"/>
<path d="M12.0803 11.7997C12.0803 11.7997 9.4393 11.6218 8.54633 13.0617C7.86575 14.1591 8.08946 15.4068 8.31177 15.9696C10.0741 15.8417 11.7453 15.137 13.0671 13.9645C14.3889 12.7919 15.1628 12.2345 15.5 10.5C15.1945 11.3278 14.8347 11.9562 12.0803 11.7997Z" fill="#8C4FD9"/>
<path d="M2.34564 3.17915C2.97342 3.74986 4.26516 5.31088 4.41547 6.98604C4.55614 8.55267 5.58985 9.82511 7.16855 9.84199C7.77543 9.84842 8.38955 9.41034 8.38794 8.80346C8.38794 8.61617 8.35579 8.42406 8.30756 8.24722C8.22798 7.97611 8.25173 7.68513 8.37428 7.43055C8.86461 6.41934 9.82919 6.14846 10.5928 5.59945C10.932 5.35589 11.2407 5.09867 11.3773 4.89209C11.7535 4.32138 12.112 2.12771 11.9239 1.55619C10.5928 0.578751 9.27965 0.5 7.5 0.5C3.33145 0.999998 2 3 2 3L2.34564 3.17915Z" fill="#8C4FD9"/>
<path d="M5.38871 5.98604C5.24006 4.31089 3.96264 2.74987 3.34181 2.17916L3 1.88175C4.43052 0.66378 6.24122 -0.00282991 8.11129 9.03047e-06C9.87122 9.03047e-06 11.4976 0.578758 12.814 1.5562C13 2.12772 12.6455 3.32139 12.2734 3.8921C12.1383 4.09868 11.8331 4.3559 11.4976 4.59946C10.7424 5.14846 9.78855 5.41935 9.30366 6.43055C9.18247 6.68514 9.15898 6.97612 9.23768 7.24722C9.28537 7.42406 9.31717 7.61618 9.31717 7.80347C9.31876 8.41035 8.71145 8.84843 8.11129 8.842C6.55008 8.82512 5.52782 7.55268 5.38871 5.98604ZM9.25358 13.0829C10.039 11.5862 12.6566 11.5862 12.6566 11.5862C15.3847 11.5573 15.7536 9.88214 16 9.03572C15.7826 10.789 15.0004 12.421 13.7742 13.6798C12.5478 14.9386 10.9458 15.754 9.21542 16C8.95866 15.4534 8.65501 14.2236 9.25358 13.0829Z" fill="url(#paint1_linear_73_1853)"/>
<defs>
<linearGradient id="paint0_linear_73_1853" x1="4.00057" y1="14.856" x2="14.5868" y2="2.50543" gradientUnits="userSpaceOnUse">
<stop stop-color="#A056FF"/>
<stop offset="1" stop-color="#C59AFD"/>
</linearGradient>
<linearGradient id="paint1_linear_73_1853" x1="6.25" y1="16" x2="19.3709" y2="12.4464" gradientUnits="userSpaceOnUse">
<stop stop-color="#C59AFD"/>
<stop offset="1" stop-color="white"/>
</linearGradient>
</defs>
</svg>
