<svg width="16" height="16" viewBox="0 0 16 16" fill="none" xmlns="http://www.w3.org/2000/svg">
<path fill-rule="evenodd" clip-rule="evenodd" d="M14.7142 14.8572C14.7142 15.488 14.2022 16 13.5713 16C12.9405 16 12.4285 15.488 12.4285 14.8572C12.4285 14.2263 12.9405 13.7143 13.5713 13.7143C14.2022 13.7143 14.7142 14.2263 14.7142 14.8572ZM5.29482 3.4287C5.46967 3.25498 5.66738 3.10298 5.88567 2.97727C6.95994 2.35671 8.82164 1.28129 10.3702 0.387582C11.2708 -0.132413 12.377 -0.128985 13.2742 0.396725C14.1644 0.919005 14.7142 1.879 14.7142 2.91899V11.408C14.7142 12.0355 14.2056 12.5463 13.5782 12.5509H13.5713C12.3245 12.5669 11.2856 13.6057 11.2856 14.8572C11.0353 15.4354 10.3611 15.7029 9.78277 15.4514L6.18166 12.9177C5.96795 12.8252 5.7691 12.7086 5.58853 12.5715C5.58281 12.5715 5.5771 12.5715 5.57138 12.5715C5.57138 12.5715 4.74053 12.5715 3.89711 12.5715C3.12912 12.5715 2.39199 12.2663 1.84799 11.7235C1.30514 11.1795 1 10.4435 1 9.67435V6.32581C1 5.55667 1.30514 4.82068 1.84799 4.27669C2.39199 3.73383 3.12912 3.4287 3.89711 3.4287H5.29482ZM13.5782 12.544C13.5782 12.544 13.577 12.5452 13.5736 12.5486L13.5713 12.5509L13.5782 12.544Z" fill="url(#paint0_linear_73_1899)"/>
<path fill-rule="evenodd" clip-rule="evenodd" d="M5.17129 6.90856L10.02 11.7573C10.466 12.2033 11.1917 12.2017 11.6362 11.7573C12.0806 11.3128 12.0823 10.5871 11.6362 10.141L6.78752 5.29233C6.34144 4.84625 5.61576 4.84787 5.17129 5.29233C4.72683 5.73679 4.72521 6.46248 5.17129 6.90856Z" fill="#D84F4F"/>
<path fill-rule="evenodd" clip-rule="evenodd" d="M6.29239 5.78746L11.1411 10.6362C11.5871 11.0822 12.3128 11.0806 12.7573 10.6362C13.2017 10.1917 13.2034 9.466 12.7573 9.01992L7.90861 4.17124C7.46254 3.72516 6.73685 3.72677 6.29239 4.17124C5.84792 4.6157 5.84631 5.34139 6.29239 5.78746Z" fill="url(#paint1_linear_73_1899)"/>
<defs>
<linearGradient id="paint0_linear_73_1899" x1="3.5714" y1="14" x2="13.734" y2="3.5471" gradientUnits="userSpaceOnUse">
<stop stop-color="#FF405B"/>
<stop offset="1" stop-color="#FF8860"/>
</linearGradient>
<linearGradient id="paint1_linear_73_1899" x1="12.4106" y1="10.9825" x2="13.4621" y2="6.83884" gradientUnits="userSpaceOnUse">
<stop stop-color="#FF8860"/>
<stop offset="1" stop-color="white"/>
</linearGradient>
</defs>
</svg>
