<svg width="16" height="16" viewBox="0 0 16 16" fill="none" xmlns="http://www.w3.org/2000/svg">
<path fill-rule="evenodd" clip-rule="evenodd" d="M14.1997 4.39992C14.7566 4.39992 15.3796 4.74585 15.3894 5.3027C15.3997 5.88978 15.3997 6.54482 15.3997 7.27823V11.2726C15.3997 13.7493 15.3997 14.9885 14.8125 15.5292C14.5325 15.7876 14.1789 15.95 13.8021 15.9932C13.0126 16.0836 12.0899 15.2675 10.2462 13.6365L10.2378 13.6291C9.42742 12.9132 9.0214 12.5546 8.55182 12.4605C8.3195 12.4136 8.08016 12.4136 7.84784 12.4605C7.37695 12.5547 6.97055 12.914 6.15915 13.6315L6.15315 13.6368C4.30941 15.2677 3.3871 16.0836 2.59756 15.9924C2.22016 15.9491 1.86631 15.7869 1.58719 15.5292C1 14.9885 1 13.7501 1 11.2725V7.27743C1 3.84791 1 2.13275 2.05438 1.06638C3.10875 0 4.80631 0 8.19983 0C9.11301 0 9.90333 0 10.5913 0.0207497C11.4246 0.04588 11.7997 1.16635 11.7997 1.99998C11.7997 3.32543 12.8742 4.39992 14.1997 4.39992ZM14.1997 3.19993C14.8625 3.19993 15.3997 2.66269 15.3997 1.99996C15.3997 1.33723 14.8625 0.799988 14.1997 0.799988C13.537 0.799988 12.9998 1.33723 12.9998 1.99996C12.9998 2.66269 13.537 3.19993 14.1997 3.19993Z" fill="url(#paint0_linear_73_1931)"/>
<path fill-rule="evenodd" clip-rule="evenodd" d="M3.37137 5.48711L8.23273 10.3485C8.59866 10.7144 9.19263 10.7144 9.55855 10.3485C9.92448 9.98254 9.92448 9.38857 9.55855 9.02264L4.69719 4.16129C4.33127 3.79536 3.7373 3.79536 3.37137 4.16129C3.00544 4.52721 3.00544 5.12118 3.37137 5.48711Z" fill="#D84F4F"/>
<path fill-rule="evenodd" clip-rule="evenodd" d="M5.13919 5.48711L10.0006 10.3485C10.3665 10.7144 10.9605 10.7144 11.3264 10.3485C11.6923 9.98254 11.6923 9.38857 11.3264 9.02264L6.46502 4.16129C6.09909 3.79536 5.50512 3.79536 5.13919 4.16129C4.77326 4.52721 4.77326 5.12118 5.13919 5.48711Z" fill="url(#paint1_linear_73_1931)"/>
<defs>
<linearGradient id="paint0_linear_73_1931" x1="3.69994" y1="14" x2="13.8366" y2="3.05265" gradientUnits="userSpaceOnUse">
<stop stop-color="#FF405B"/>
<stop offset="1" stop-color="#FF8860"/>
</linearGradient>
<linearGradient id="paint1_linear_73_1931" x1="6.24338" y1="6.59125" x2="7.55391" y2="5.49714" gradientUnits="userSpaceOnUse">
<stop stop-color="#FF8860"/>
<stop offset="1" stop-color="white"/>
</linearGradient>
</defs>
</svg>
