<svg width="16" height="16" viewBox="0 0 16 16" fill="none" xmlns="http://www.w3.org/2000/svg">
<path fill-rule="evenodd" clip-rule="evenodd" d="M3 8C3 6 1.336 5.837 1.276 5.807C0.780999 5.563 0.576999 4.963 0.820999 4.468C2.126 1.822 4.852 0 8 0C12.415 0 16 3.585 16 8C16 12.415 12.415 16 8 16C4.852 16 2.126 14.178 0.820999 11.532C0.576999 11.037 0.780999 10.437 1.276 10.193C1.336 10.163 3 10 3 8ZM1 9C0.448 9 0 8.552 0 8C0 7.448 0.448 7 1 7C1.552 7 2 7.448 2 8C2 8.552 1.552 9 1 9Z" fill="url(#paint0_linear_73_1955)"/>
<path d="M6.67764 6.13822L4.99695 7.47693C4.29215 8.03827 3.93933 8.31936 4.00856 8.63214L4.01189 8.64799C4.0903 8.9591 4.53737 9.07921 5.43151 9.31859C5.92779 9.45205 6.17635 9.51877 6.29312 9.70644L6.29896 9.71645C6.41156 9.90746 6.34734 10.146 6.21972 10.6231L6.18636 10.7482C5.83104 12.0711 5.65421 12.7325 5.99536 12.946C6.33733 13.1596 6.87949 12.7275 7.9663 11.8617L9.64698 10.5238C10.3526 9.96167 10.7046 9.68142 10.6362 9.36781L10.6329 9.35196C10.5536 9.04084 10.1074 8.92074 9.21326 8.68135C8.71698 8.5479 8.46842 8.48117 8.35165 8.2935L8.34581 8.28349C8.23321 8.09332 8.29743 7.85477 8.42505 7.37767L8.45841 7.25256C8.8129 5.9297 8.99056 5.26743 8.64942 5.05391C8.30744 4.84038 7.76445 5.27327 6.67764 6.13822Z" fill="#D49F34"/>
<path d="M7.67764 5.13822L5.99695 6.47693C5.29215 7.03827 4.93933 7.31936 5.00856 7.63214L5.01189 7.64799C5.0903 7.9591 5.53737 8.07921 6.43151 8.31859C6.92779 8.45205 7.17635 8.51877 7.29312 8.70644L7.29896 8.71645C7.41156 8.90746 7.34734 9.14601 7.21972 9.62311L7.18636 9.74822C6.83104 11.0711 6.65421 11.7325 6.99536 11.946C7.33733 12.1596 7.87949 11.7275 8.9663 10.8617L10.647 9.52385C11.3526 8.96167 11.7046 8.68142 11.6362 8.36781L11.6329 8.35196C11.5536 8.04084 11.1074 7.92074 10.2133 7.68135C9.71698 7.5479 9.46842 7.48117 9.35165 7.2935L9.34581 7.28349C9.23321 7.09332 9.29743 6.85477 9.42505 6.37767L9.45841 6.25256C9.8129 4.9297 9.99056 4.26743 9.64942 4.05391C9.30744 3.84038 8.76445 4.27327 7.67764 5.13822Z" fill="url(#paint1_linear_73_1955)"/>
<defs>
<linearGradient id="paint0_linear_73_1955" x1="3" y1="14.9988" x2="12.9991" y2="2.999" gradientUnits="userSpaceOnUse">
<stop stop-color="#FF8860"/>
<stop offset="1" stop-color="#FBD92C"/>
</linearGradient>
<linearGradient id="paint1_linear_73_1955" x1="6.66115" y1="10" x2="10.5932" y2="6.73414" gradientUnits="userSpaceOnUse">
<stop stop-color="#FBD92C"/>
<stop offset="1" stop-color="white"/>
</linearGradient>
</defs>
</svg>
