<svg width="16" height="16" viewBox="0 0 16 16" fill="none" xmlns="http://www.w3.org/2000/svg">
<path fill-rule="evenodd" clip-rule="evenodd" d="M8.0026 0C5.79264 0 4.00085 1.79178 4.00085 4.00175V7.00306C4.00085 7.5553 4.44905 8.0035 5.00129 8.0035C5.55353 8.0035 6.00173 7.5553 6.00173 7.00306V4.00175C6.00173 2.89627 6.89712 2.00088 8.0026 2.00088C9.10809 2.00088 10.0035 2.89627 10.0035 4.00175V7.00306C10.0035 7.5553 10.4517 8.0035 11.0039 8.0035C11.5562 8.0035 12.0044 7.5553 12.0044 7.00306V4.00175C12.0044 1.79178 10.2126 0 8.0026 0Z" fill="url(#paint0_linear_73_2082)"/>
<path fill-rule="evenodd" clip-rule="evenodd" d="M4.00088 6.16077H12.0044C13.1699 6.56694 14.0053 7.67543 14.0053 8.979C14.0053 10.2096 14.0053 11.7863 14.0053 13.0168C14.0053 13.8082 13.6911 14.5675 13.1319 15.1267C12.5726 15.686 11.8133 16.0001 11.0219 16.0001H6.00175C5.44951 16.0001 5.00131 15.5519 5.00131 14.9997C5.00031 14.7776 4.9643 14.5565 4.89227 14.3464C4.79622 14.0683 4.63715 13.8132 4.43206 13.6021C4.21797 13.383 3.95385 13.2139 3.66473 13.1118C3.45564 13.0378 3.23554 13.0008 3.01344 12.9988H3.00044C2.4482 12.9988 2 12.5506 2 11.9984V8.979C2 7.67543 2.83537 6.56694 4.00088 6.16077ZM4.00088 14.9997C4.00088 15.5519 3.55268 16.0001 3.00044 16.0001C2.4482 16.0001 2 15.5519 2 14.9997C2 14.4474 2.4482 13.9992 3.00044 13.9992C3.55268 13.9992 4.00088 14.4474 4.00088 14.9997Z" fill="url(#paint1_linear_73_2082)"/>
<path fill-rule="evenodd" clip-rule="evenodd" d="M6.00171 11.0048V13.0057C6.00171 13.5579 6.44991 14.0061 7.00215 14.0061C7.55439 14.0061 8.00258 13.5579 8.00258 13.0057V11.0048C8.00258 10.4526 7.55439 10.0044 7.00215 10.0044C6.44991 10.0044 6.00171 10.4526 6.00171 11.0048Z" fill="#7FD1AE"/>
<path fill-rule="evenodd" clip-rule="evenodd" d="M7.0022 10.0045V12.0054C7.0022 12.5576 7.45039 13.0058 8.00263 13.0058C8.55488 13.0058 9.00307 12.5576 9.00307 12.0054V10.0045C9.00307 9.45222 8.55488 9.00403 8.00263 9.00403C7.45039 9.00403 7.0022 9.45222 7.0022 10.0045Z" fill="url(#paint2_linear_73_2082)"/>
<defs>
<linearGradient id="paint0_linear_73_2082" x1="5.00129" y1="7.00328" x2="12.4905" y2="5.27505" gradientUnits="userSpaceOnUse">
<stop stop-color="#62E8AF"/>
<stop offset="1" stop-color="#B3FBDC"/>
</linearGradient>
<linearGradient id="paint1_linear_73_2082" x1="3.50066" y1="14.7705" x2="14.4637" y2="11.6837" gradientUnits="userSpaceOnUse">
<stop stop-color="#62E8AF"/>
<stop offset="1" stop-color="#B3FBDC"/>
</linearGradient>
<linearGradient id="paint2_linear_73_2082" x1="7.0022" y1="13.0058" x2="9.00307" y2="9.00403" gradientUnits="userSpaceOnUse">
<stop stop-color="#B3FBDC"/>
<stop offset="1" stop-color="white"/>
</linearGradient>
</defs>
</svg>
