<svg width="16" height="16" viewBox="0 0 16 16" fill="none" xmlns="http://www.w3.org/2000/svg">
<path fill-rule="evenodd" clip-rule="evenodd" d="M3.88338 8.86118C3.88338 10.5834 2.45049 10.7238 2.39883 10.7496C1.97258 10.9597 1.79691 11.4764 2.00702 11.9027C3.13077 14.1812 5.47816 15.7501 8.18894 15.7501C11.9907 15.7501 15.0778 12.663 15.0778 8.86118C15.0778 5.05937 11.9907 1.97229 8.18894 1.97229C5.47816 1.97229 3.13077 3.54123 2.00702 5.81973C1.79691 6.24598 1.97258 6.76265 2.39883 6.97276C2.45049 6.99859 3.88338 7.13896 3.88338 8.86118ZM2.16116 8.00007C1.68583 8.00007 1.30005 8.38584 1.30005 8.86118C1.30005 9.33651 1.68583 9.72229 2.16116 9.72229C2.63649 9.72229 3.02227 9.33651 3.02227 8.86118C3.02227 8.38584 2.63649 8.00007 2.16116 8.00007Z" fill="url(#paint0_linear_73_2127)"/>
<path fill-rule="evenodd" clip-rule="evenodd" d="M11.067 0.510352C11.1463 0.385791 11.2716 0.297478 11.4155 0.264528C11.5595 0.231579 11.7107 0.256644 11.8363 0.334303L14.8154 2.17905C14.8774 2.21715 14.9313 2.26719 14.9739 2.32626C15.0165 2.38533 15.0469 2.45225 15.0634 2.52317C15.0799 2.59408 15.0822 2.66756 15.0701 2.73936C15.058 2.81116 15.0319 2.87985 14.993 2.94145C14.9136 3.06622 14.7883 3.15468 14.6442 3.18764C14.5 3.22059 14.3486 3.1954 14.223 3.1175L11.2446 1.27275C11.1825 1.23471 11.1286 1.18472 11.0859 1.12568C11.0432 1.06663 11.0128 0.999717 10.9961 0.928801C10.9796 0.857892 10.9772 0.784387 10.9893 0.712559C11.0013 0.640731 11.0282 0.571999 11.067 0.510352Z" fill="url(#paint1_linear_73_2127)" stroke="url(#paint2_linear_73_2127)" stroke-width="0.4"/>
<path d="M5 8C5 7.44772 5.44772 7 6 7C6.55228 7 7 7.44772 7 8V11C7 11.5523 6.55228 12 6 12C5.44772 12 5 11.5523 5 11V8Z" fill="#D49F34"/>
<path d="M8 8C8 7.44772 8.44772 7 9 7C9.55228 7 10 7.44772 10 8V11C10 11.5523 9.55228 12 9 12C8.44772 12 8 11.5523 8 11V8Z" fill="#D49F34"/>
<path d="M6 7C6 6.44772 6.44772 6 7 6C7.55228 6 8 6.44772 8 7V10C8 10.5523 7.55228 11 7 11C6.44772 11 6 10.5523 6 10V7Z" fill="url(#paint3_linear_73_2127)"/>
<path d="M9 7C9 6.44772 9.44772 6 10 6C10.5523 6 11 6.44772 11 7V10C11 10.5523 10.5523 11 10 11C9.44772 11 9 10.5523 9 10V7Z" fill="url(#paint4_linear_73_2127)"/>
<defs>
<linearGradient id="paint0_linear_73_2127" x1="3.88338" y1="14.888" x2="12.4937" y2="4.55476" gradientUnits="userSpaceOnUse">
<stop stop-color="#FF8860"/>
<stop offset="1" stop-color="#FBD92C"/>
</linearGradient>
<linearGradient id="paint1_linear_73_2127" x1="11.7497" y1="3.01709" x2="13.4048" y2="0.260397" gradientUnits="userSpaceOnUse">
<stop stop-color="#FF8860"/>
<stop offset="1" stop-color="#FBD92C"/>
</linearGradient>
<linearGradient id="paint2_linear_73_2127" x1="11.7497" y1="3.01709" x2="13.4048" y2="0.260397" gradientUnits="userSpaceOnUse">
<stop stop-color="#FF8860"/>
<stop offset="1" stop-color="#FBD92C"/>
</linearGradient>
<linearGradient id="paint3_linear_73_2127" x1="6.5" y1="9.75" x2="8.22414" y2="9.06034" gradientUnits="userSpaceOnUse">
<stop stop-color="#FBD92C"/>
<stop offset="1" stop-color="white"/>
</linearGradient>
<linearGradient id="paint4_linear_73_2127" x1="9.5" y1="9.75" x2="11.2241" y2="9.06034" gradientUnits="userSpaceOnUse">
<stop stop-color="#FBD92C"/>
<stop offset="1" stop-color="white"/>
</linearGradient>
</defs>
</svg>
