<svg width="16" height="16" viewBox="0 0 16 16" fill="none" xmlns="http://www.w3.org/2000/svg">
<path d="M9.26419 9.43291C8.12418 9.74389 6.90949 9.62367 5.85261 9.09523C4.7957 8.5668 3.97073 7.66723 3.53556 6.5686C2.59792 6.82468 1.76012 7.35944 1.13296 8.10199C0.505813 8.84462 0.118858 9.76011 0.023272 10.7273C-0.0723132 11.6946 0.127985 12.6681 0.597668 13.5191C1.06735 14.3701 1.78428 15.0584 2.65366 15.4931C3.52303 15.9278 4.50388 16.0883 5.46648 15.9535C6.42907 15.8186 7.32804 15.3948 8.04455 14.7379C8.76099 14.0811 9.26121 13.2223 9.47895 12.275C9.69677 11.3277 9.62186 10.3367 9.26419 9.43291Z" fill="url(#paint0_linear_73_2183)"/>
<path d="M9.26427 9.43291C9.48107 9.98011 9.60028 10.5769 9.60028 11.201C9.601 11.8765 9.45882 12.5446 9.18304 13.1613C8.90725 13.7779 8.50412 14.3293 8.00012 14.779C8.53998 15.2613 9.18187 15.6152 9.87788 15.8144C10.5739 16.0135 11.3058 16.0526 12.0191 15.9289C12.7324 15.8051 13.4084 15.5216 13.9965 15.0997C14.5847 14.6777 15.0699 14.1282 15.4157 13.4922C15.7615 12.8563 15.959 12.1503 15.9935 11.4273C16.0279 10.7041 15.8983 9.98273 15.6145 9.31676C15.3306 8.65087 14.8999 8.05778 14.3543 7.58185C13.8089 7.10592 13.1628 6.75951 12.4646 6.5686C12.1895 7.26126 11.7572 7.88054 11.2017 8.37763C10.6464 8.87465 9.98311 9.23596 9.26427 9.43291Z" fill="url(#paint1_linear_73_2183)"/>
<path opacity="0.3" fill-rule="evenodd" clip-rule="evenodd" d="M5.85256 9.1266C6.90944 9.65504 8.12414 9.77526 9.26414 9.46427C9.62182 10.3681 9.69672 11.3591 9.47891 12.3064C9.26116 13.2537 8.76094 14.1125 8.0445 14.7693C7.80487 14.989 7.54483 15.1826 7.26884 15.3481C7.03333 15.1851 6.81132 15.0003 6.60599 14.795C5.70572 13.8947 5.19995 12.6737 5.19995 11.4005C5.19995 10.5873 5.40629 9.79539 5.78996 9.09473C5.81074 9.1055 5.8316 9.11612 5.85256 9.1266Z" fill="#279FD7"/>
<path d="M16.001 11.2005C16.001 12.4737 15.4953 13.6948 14.595 14.595C13.6948 15.4953 12.4737 16.001 11.2006 16.001C9.92739 16.001 8.70633 15.4953 7.80607 14.595C6.90579 13.6948 6.40002 12.4737 6.40002 11.2005C6.40002 9.92737 6.90579 8.70633 7.80607 7.80606C8.70633 6.90579 9.92739 6.40002 11.2006 6.40002C12.4737 6.40002 13.6948 6.90579 14.595 7.80606C15.4953 8.70633 16.001 9.92737 16.001 11.2005Z" fill="url(#paint2_linear_73_2183)"/>
<path opacity="0.3" d="M12.1465 6.2551C12.1465 7.52828 11.6408 8.74932 10.7405 9.64961C9.84027 10.5499 8.61924 11.0556 7.34607 11.0556C6.0729 11.0556 4.85184 10.5499 3.95158 9.64961C3.0513 8.74932 2.54553 7.52828 2.54553 6.2551C2.54553 4.98193 3.0513 3.7609 3.95158 2.86062C4.85184 1.96036 6.0729 1.45459 7.34607 1.45459C8.61924 1.45459 9.84027 1.96036 10.7405 2.86062C11.6408 3.7609 12.1465 4.98193 12.1465 6.2551Z" fill="#8C4FD9"/>
<path d="M12.8005 4.80051C12.8005 6.07369 12.2947 7.29473 11.3944 8.19502C10.4942 9.09524 9.27317 9.60099 8 9.60099C6.72683 9.60099 5.50577 9.09524 4.60551 8.19502C3.70523 7.29473 3.19946 6.07369 3.19946 4.80051C3.19946 3.52734 3.70523 2.30631 4.60551 1.40604C5.50577 0.50577 6.72683 0 8 0C9.27317 0 10.4942 0.50577 11.3944 1.40604C12.2947 2.30631 12.8005 3.52734 12.8005 4.80051Z" fill="url(#paint3_linear_73_2183)"/>
<defs>
<linearGradient id="paint0_linear_73_2183" x1="1.20013" y1="14.8212" x2="10.1678" y2="12.7146" gradientUnits="userSpaceOnUse">
<stop stop-color="#62E8AF"/>
<stop offset="1" stop-color="#B3FBDC"/>
</linearGradient>
<linearGradient id="paint1_linear_73_2183" x1="8.8" y1="16.0025" x2="12.6653" y2="6.16642" gradientUnits="userSpaceOnUse">
<stop stop-color="#22B4FA"/>
<stop offset="1" stop-color="#6BD6FE"/>
</linearGradient>
<linearGradient id="paint2_linear_73_2183" x1="7.36012" y1="16.004" x2="10.8277" y2="5.59998" gradientUnits="userSpaceOnUse">
<stop stop-color="#22B4FA"/>
<stop offset="1" stop-color="#6BD6FE"/>
</linearGradient>
<linearGradient id="paint3_linear_73_2183" x1="5.59971" y1="8.91521" x2="11.9533" y2="1.50267" gradientUnits="userSpaceOnUse">
<stop stop-color="#A056FF"/>
<stop offset="1" stop-color="#C59AFD"/>
</linearGradient>
</defs>
</svg>
