<svg width="16" height="16" viewBox="0 0 16 16" fill="none" xmlns="http://www.w3.org/2000/svg">
<path fill-rule="evenodd" clip-rule="evenodd" d="M2.12188 10.4433C1.43281 10.4859 0.591582 10.2435 0.527052 9.55609C0.50934 9.36742 0.500247 9.17728 0.5 8.98622C0.5 7.28724 1.79965 4.94807 4.36093 2.03408C4.65159 1.70873 5.00762 1.44846 5.40574 1.27033C5.80395 1.09213 6.23525 1 6.67146 1C7.10767 1 7.53898 1.09213 7.9371 1.27033C8.3353 1.44846 8.69133 1.70873 8.98191 2.03408C11.5442 4.94807 12.8438 7.28724 12.8438 8.98622C12.8416 10.6225 12.1907 12.1911 11.0338 13.3481C9.87679 14.5051 8.30809 15.156 6.67191 15.1581C6.18187 15.1575 5.69789 15.0987 5.22921 14.9855C4.55843 14.8235 4.43922 13.9575 4.57988 13.2819C4.61238 13.1259 4.62946 12.9641 4.62946 12.7984C4.62946 11.4952 3.57299 10.4388 2.26977 10.4388C2.2201 10.4388 2.17079 10.4403 2.12188 10.4433ZM2.26981 13.9783C2.92142 13.9783 3.44965 13.45 3.44965 12.7984C3.44965 12.1468 2.92142 11.6186 2.26981 11.6186C1.6182 11.6186 1.08997 12.1468 1.08997 12.7984C1.08997 13.45 1.6182 13.9783 2.26981 13.9783Z" fill="url(#paint0_linear_73_2220)"/>
<path d="M9.66552 12.4388C8.56112 12.4375 7.5023 11.9983 6.72138 11.2173C5.94046 10.4365 5.5012 9.37759 5.5 8.27322C5.5 7.66126 5.68631 6.57443 7.29874 4.22812C7.56583 3.84869 7.92025 3.53905 8.33209 3.32531C8.74394 3.11157 9.20113 3 9.66514 3C10.1291 3 10.5863 3.11157 10.9982 3.32531C11.4101 3.53905 11.7644 3.84869 12.0315 4.22812C13.6447 6.57443 13.831 7.66126 13.831 8.27322C13.8298 9.37759 13.3905 10.4365 12.6097 11.2173C11.8287 11.9983 10.7699 12.4375 9.66552 12.4388Z" fill="#D84F4F"/>
<path d="M11.3345 11.4388C10.2301 11.4375 9.17125 10.9983 8.39032 10.2173C7.6094 9.43645 7.17015 8.37759 7.16895 7.27322C7.16895 6.66126 7.35526 5.57443 8.96769 3.22812C9.23478 2.84869 9.58919 2.53905 10.001 2.32531C10.4129 2.11157 10.8701 2 11.3341 2C11.7981 2 12.2553 2.11157 12.6671 2.32531C13.079 2.53905 13.4334 2.84869 13.7005 3.22812C15.3136 5.57443 15.5 6.66126 15.5 7.27322C15.4988 8.37759 15.0595 9.43645 14.2786 10.2173C13.4977 10.9983 12.4389 11.4375 11.3345 11.4388Z" fill="url(#paint1_linear_73_2220)"/>
<defs>
<linearGradient id="paint0_linear_73_2220" x1="2.81445" y1="13.3884" x2="11.8016" y2="3.98586" gradientUnits="userSpaceOnUse">
<stop stop-color="#FF405B"/>
<stop offset="1" stop-color="#FF8860"/>
</linearGradient>
<linearGradient id="paint1_linear_73_2220" x1="9.5483" y1="11.4386" x2="12.8963" y2="4.40291" gradientUnits="userSpaceOnUse">
<stop stop-color="#FF8860"/>
<stop offset="1" stop-color="white"/>
</linearGradient>
</defs>
</svg>
