<svg width="16" height="16" viewBox="0 0 16 16" fill="none" xmlns="http://www.w3.org/2000/svg">
<path fill-rule="evenodd" clip-rule="evenodd" d="M1 13C0.448 13 0 12.552 0 12V3.992C0 1.787 1.787 0 3.992 0C6.357 0 9.643 0 12.008 0C13.067 0 14.082 0.421001 14.831 1.169C15.579 1.918 16 2.933 16 3.992C16 6.357 16 9.643 16 12.008C16 14.213 14.213 16 12.008 16C8.751 16 4 16 4 16C3.448 16 3 15.552 3 15C3 13.896 2.104 13 1 13ZM1 14C1.552 14 2 14.448 2 15C2 15.552 1.552 16 1 16C0.448 16 0 15.552 0 15C0 14.448 0.448 14 1 14Z" fill="url(#paint0_linear_73_2341)"/>
<path d="M4.69995 5.53333C3.04309 5.53333 1.69995 6.87647 1.69995 8.53333C1.69995 10.1902 3.04309 11.5333 4.69995 11.5333C5.88822 11.5314 6.9551 10.83 7.43403 9.75893C7.49344 9.62591 7.62155 9.53311 7.76715 9.533L9.35542 9.53109C9.5456 9.53087 9.69995 9.68511 9.69995 9.87519V10.52C9.69995 10.71 9.85398 10.8641 10.0441 10.8641H11.3558C11.5459 10.8641 11.7 10.71 11.7 10.52V9.86143C11.7 9.67754 11.8494 9.52863 12.0333 9.52938C12.2172 9.53002 12.3666 9.38133 12.3666 9.19733V7.87498C12.3666 7.6849 12.2125 7.53077 12.0223 7.53087L7.76758 7.53322C7.62177 7.53333 7.49344 7.44042 7.43382 7.3073C6.95478 6.23637 5.88811 5.53503 4.69995 5.53333ZM4.69995 7.53333C5.25227 7.53333 5.69995 7.98101 5.69995 8.53333C5.69995 9.08565 5.25227 9.53333 4.69995 9.53333C4.14763 9.53333 3.69995 9.08565 3.69995 8.53333C3.69995 7.98101 4.14763 7.53333 4.69995 7.53333Z" fill="#D49F34"/>
<path d="M6.03333 4.19995C4.37646 4.19995 3.03333 5.5431 3.03333 7.19995C3.03333 8.85681 4.37646 10.1999 6.03333 10.1999C7.22159 10.198 8.28847 9.49659 8.76741 8.42555C8.82682 8.29254 8.95492 8.19974 9.10052 8.19963L10.6888 8.19771C10.879 8.1975 11.0333 8.35174 11.0333 8.54182V9.18662C11.0333 9.37659 11.1874 9.53073 11.3774 9.53073H12.6892C12.8793 9.53073 13.0333 9.37659 13.0333 9.18662V8.52806C13.0333 8.34417 13.1828 8.19526 13.3667 8.19601C13.5506 8.19665 13.7 8.04795 13.7 7.86395V6.54161C13.7 6.35153 13.5459 6.19739 13.3557 6.1975L9.10095 6.19985C8.95514 6.19995 8.82682 6.10705 8.76719 5.97393C8.28815 4.90299 7.22149 4.20166 6.03333 4.19995ZM6.03333 6.19995C6.58565 6.19995 7.03333 6.64763 7.03333 7.19995C7.03333 7.75227 6.58565 8.19995 6.03333 8.19995C5.48101 8.19995 5.03333 7.75227 5.03333 7.19995C5.03333 6.64763 5.48101 6.19995 6.03333 6.19995Z" fill="url(#paint1_linear_73_2341)"/>
<defs>
<linearGradient id="paint0_linear_73_2341" x1="3" y1="14.9988" x2="12.9991" y2="2.999" gradientUnits="userSpaceOnUse">
<stop stop-color="#FF8860"/>
<stop offset="1" stop-color="#FBD92C"/>
</linearGradient>
<linearGradient id="paint1_linear_73_2341" x1="5.69999" y1="8.69995" x2="8.26378" y2="4.14209" gradientUnits="userSpaceOnUse">
<stop stop-color="#FBD92C"/>
<stop offset="1" stop-color="white"/>
</linearGradient>
</defs>
</svg>
