<svg width="16" height="16" viewBox="0 0 16 16" fill="none" xmlns="http://www.w3.org/2000/svg">
<path fill-rule="evenodd" clip-rule="evenodd" d="M3 1C3 2.104 2.104 3 1 3C0.448 3 0 3.448 0 4V12.008C0 14.213 1.787 16 3.992 16H12.008C13.067 16 14.082 15.579 14.831 14.831C15.579 14.082 16 13.067 16 12.008C16 9.643 16 6.357 16 3.992C16 1.787 14.213 0 12.008 0H4C3.448 0 3 0.448 3 1ZM1 2C1.552 2 2 1.552 2 1C2 0.448 1.552 0 1 0C0.448 0 0 0.448 0 1C0 1.552 0.448 2 1 2Z" fill="url(#paint0_linear_73_2355)"/>
<path fill-rule="evenodd" clip-rule="evenodd" d="M8.08541 7.60893L5.78105 5.30456C5.14547 4.66736 4.11226 4.66736 3.47668 5.30456C2.84111 5.94014 2.84111 6.97335 3.47668 7.60893L5.78105 9.91329L3.47668 12.2177C2.84111 12.8532 2.84111 13.8864 3.47668 14.522C4.11226 15.1592 5.14547 15.1592 5.78105 14.522L8.08541 12.2177L10.3914 14.522C11.027 15.1592 12.0586 15.1592 12.6958 14.522C13.3313 13.8864 13.3313 12.8532 12.6958 12.2177L10.3914 9.91329L12.6958 7.60893C13.3313 6.97335 13.3313 5.94014 12.6958 5.30456C12.0586 4.66736 11.027 4.66736 10.3914 5.30456L8.08541 7.60893Z" fill="#D84F4F"/>
<path fill-rule="evenodd" clip-rule="evenodd" d="M10.588 3.47697L3.67387 10.3911C3.03777 11.0272 3.03823 12.0593 3.67433 12.6954C4.31043 13.3315 5.34248 13.3319 5.97858 12.6958L12.8927 5.78168C13.5288 5.14558 13.5284 4.11353 12.8923 3.47743C12.2562 2.84133 11.2241 2.84087 10.588 3.47697Z" fill="url(#paint1_linear_73_2355)"/>
<path fill-rule="evenodd" clip-rule="evenodd" d="M12.8922 10.391L5.97809 3.47684C5.34199 2.84074 4.30994 2.84121 3.67384 3.47731C3.03774 4.11341 3.03728 5.14546 3.67338 5.78156L10.5875 12.6957C11.2236 13.3318 12.2557 13.3313 12.8918 12.6952C13.5279 12.0591 13.5283 11.0271 12.8922 10.391Z" fill="url(#paint2_linear_73_2355)"/>
<defs>
<linearGradient id="paint0_linear_73_2355" x1="3" y1="14" x2="13" y2="2" gradientUnits="userSpaceOnUse">
<stop stop-color="#FF405B"/>
<stop offset="1" stop-color="#FF8860"/>
</linearGradient>
<linearGradient id="paint1_linear_73_2355" x1="4.82613" y1="12.9754" x2="12.9745" y2="4.82702" gradientUnits="userSpaceOnUse">
<stop stop-color="#FF8860"/>
<stop offset="1" stop-color="white"/>
</linearGradient>
<linearGradient id="paint2_linear_73_2355" x1="6.45546" y1="9.71598" x2="9.71482" y2="6.45663" gradientUnits="userSpaceOnUse">
<stop stop-color="#FF8860"/>
<stop offset="1" stop-color="white"/>
</linearGradient>
</defs>
</svg>
