<svg width="16" height="16" viewBox="0 0 16 16" fill="none" xmlns="http://www.w3.org/2000/svg">
<path d="M11.9433 14.9623C12.2677 14.7782 12.3637 14.373 12.3637 14C12.3637 13.0963 13.0963 12.3637 14 12.3637C14.373 12.3637 14.7782 12.2677 14.9623 11.9433C15.6228 10.7795 16 9.43382 16 8C16 3.5816 12.4184 0 8 0C3.5816 0 0 3.5816 0 8C0 9.28 0.3008 10.4896 0.8344 11.5624C0.9768 11.8472 1.024 12.1728 0.9416 12.4808L0.4656 14.2616C0.418633 14.4377 0.418807 14.6232 0.466109 14.7993C0.513418 14.9754 0.606182 15.1359 0.735113 15.2649C0.864043 15.3938 1.0246 15.4865 1.20069 15.5339C1.37679 15.5812 1.56222 15.5814 1.7384 15.5344L3.5192 15.0584C3.82832 14.9806 4.15522 15.0185 4.4384 15.1648C5.54473 15.7157 6.76407 16.0016 8 16C9.43382 16 10.7795 15.6228 11.9433 14.9623Z" fill="url(#paint0_linear_73_2436)"/>
<path d="M14.5455 15.6364C15.148 15.6364 15.6364 15.148 15.6364 14.5455C15.6364 13.943 15.148 13.4546 14.5455 13.4546C13.943 13.4546 13.4546 13.943 13.4546 14.5455C13.4546 15.148 13.943 15.6364 14.5455 15.6364Z" fill="url(#paint1_linear_73_2436)"/>
<path d="M10.9149 5.15445C10.709 4.94852 10.3751 4.94852 10.1692 5.15444L6.61602 8.70761C6.41009 8.91347 6.07624 8.91347 5.87031 8.70761L5.22181 8.05907C5.01588 7.85314 4.68201 7.85314 4.47609 8.05907L3.8544 8.68074C3.64847 8.88667 3.64847 9.22054 3.85439 9.42648L4.87576 10.4479L5.87925 11.4513C6.08517 11.6573 6.41902 11.6573 6.62496 11.4513L7.61956 10.4568L11.5455 6.5308C11.7514 6.32488 11.7514 5.99101 11.5455 5.78508L10.9149 5.15445Z" fill="#7FD1AE"/>
<path d="M11.4149 4.15445C11.209 3.94852 10.8751 3.94852 10.6692 4.15444L7.11602 7.70761C6.91009 7.91347 6.57624 7.91347 6.37031 7.70761L5.72181 7.05907C5.51588 6.85314 5.18201 6.85314 4.97609 7.05907L4.3544 7.68074C4.14847 7.88667 4.14847 8.22054 4.35439 8.42648L5.37576 9.44788L6.37925 10.4513C6.58517 10.6573 6.91902 10.6573 7.12496 10.4513L8.11956 9.45681L12.0455 5.5308C12.2514 5.32488 12.2514 4.99101 12.0455 4.78508L11.4149 4.15445Z" fill="url(#paint2_linear_73_2436)"/>
<defs>
<linearGradient id="paint0_linear_73_2436" x1="2" y1="14.0004" x2="16.972" y2="10.5455" gradientUnits="userSpaceOnUse">
<stop stop-color="#62E8AF"/>
<stop offset="1" stop-color="#B3FBDC"/>
</linearGradient>
<linearGradient id="paint1_linear_73_2436" x1="1.99999" y1="14.0004" x2="16.972" y2="10.5455" gradientUnits="userSpaceOnUse">
<stop stop-color="#62E8AF"/>
<stop offset="1" stop-color="#B3FBDC"/>
</linearGradient>
<linearGradient id="paint2_linear_73_2436" x1="4.19995" y1="10.6058" x2="5.83484" y2="2.68604" gradientUnits="userSpaceOnUse">
<stop stop-color="#B3FBDC"/>
<stop offset="1" stop-color="white"/>
</linearGradient>
</defs>
</svg>
