<svg width="16" height="16" viewBox="0 0 16 16" fill="none" xmlns="http://www.w3.org/2000/svg">
<path fill-rule="evenodd" clip-rule="evenodd" d="M3 8C3 6 1.336 5.837 1.276 5.807C0.780999 5.563 0.576999 4.963 0.820999 4.468C2.126 1.822 4.852 0 8 0C12.415 0 16 3.585 16 8C16 12.415 12.415 16 8 16C4.852 16 2.126 14.178 0.820999 11.532C0.576999 11.037 0.780999 10.437 1.276 10.193C1.336 10.163 3 10 3 8ZM1 9C0.448 9 0 8.552 0 8C0 7.448 0.448 7 1 7C1.552 7 2 7.448 2 8C2 8.552 1.552 9 1 9Z" fill="url(#paint0_linear_73_2445)"/>
<path d="M7.17612 4.91689C6.55989 4.91689 6.05978 5.41698 6.05978 6.03317C6.05978 6.23054 5.98138 6.41983 5.8418 6.5594C5.70227 6.69896 5.51298 6.77736 5.31561 6.77736C5.11824 6.77736 4.92895 6.69896 4.78938 6.5594C4.64982 6.41983 4.57141 6.23054 4.57141 6.03317C4.57143 5.60645 4.67629 5.18625 4.87678 4.80955C5.07726 4.43284 5.36723 4.11116 5.72118 3.8728C6.07517 3.63444 6.48225 3.4867 6.90671 3.44256C7.33109 3.39842 7.75989 3.45924 8.15532 3.61967C8.55075 3.78011 8.90069 4.03524 9.17444 4.36263C9.44812 4.69003 9.63723 5.07965 9.725 5.49725C9.81284 5.91485 9.79669 6.34763 9.67806 6.75753C9.55936 7.16743 9.34183 7.54188 9.04454 7.84801C8.95319 7.94226 8.86587 8.02958 8.78252 8.11293C8.581 8.30493 8.39174 8.50935 8.21597 8.7252C7.99768 9.00497 7.92027 9.21038 7.92027 9.38203V10.1263C7.92027 10.3236 7.84187 10.5129 7.70229 10.6524C7.56271 10.792 7.37345 10.8704 7.17612 10.8704C6.97871 10.8704 6.78945 10.792 6.64987 10.6524C6.51029 10.5129 6.43189 10.3236 6.43189 10.1263V9.38203C6.43189 8.73213 6.73452 8.2052 7.04111 7.81129C7.26839 7.51956 7.55311 7.23579 7.78534 7.0036C7.85483 6.93414 7.92027 6.86965 7.97681 6.8111C8.12972 6.65373 8.23288 6.45478 8.27342 6.23912C8.31387 6.02345 8.28987 5.80064 8.20446 5.59852C8.11898 5.39641 7.97589 5.22396 7.79296 5.10273C7.6101 4.98149 7.39555 4.91685 7.17612 4.91689ZM7.17612 14.0953C7.43928 14.0953 7.69163 13.9907 7.87768 13.8047C8.06382 13.6185 8.16835 13.3662 8.16835 13.103C8.16835 12.8399 8.06382 12.5874 7.87768 12.4014C7.69163 12.2153 7.43928 12.1107 7.17612 12.1107C6.91296 12.1107 6.66054 12.2153 6.47448 12.4014C6.28835 12.5874 6.18382 12.8399 6.18382 13.103C6.18382 13.3662 6.28835 13.6185 6.47448 13.8047C6.66054 13.9907 6.91296 14.0953 7.17612 14.0953Z" fill="#8C4FD9"/>
<path d="M8.31894 3.77407C7.70271 3.77407 7.2026 4.27416 7.2026 4.89035C7.2026 5.08772 7.1242 5.27701 6.98462 5.41658C6.84509 5.55614 6.6558 5.63454 6.45843 5.63454C6.26106 5.63454 6.07177 5.55614 5.93221 5.41658C5.79264 5.27701 5.71423 5.08772 5.71423 4.89035C5.71425 4.46362 5.81911 4.04343 6.0196 3.66672C6.22008 3.29002 6.51005 2.96834 6.864 2.72998C7.21799 2.49162 7.62508 2.34387 8.04953 2.29974C8.47391 2.2556 8.90271 2.31642 9.29814 2.47685C9.69357 2.63728 10.0435 2.89242 10.3173 3.21981C10.5909 3.5472 10.78 3.93683 10.8678 4.35443C10.9557 4.77203 10.9395 5.2048 10.8209 5.61471C10.7022 6.02461 10.4847 6.39906 10.1874 6.70519C10.096 6.79944 10.0087 6.88675 9.92534 6.97011C9.72382 7.16211 9.53456 7.36653 9.35879 7.58237C9.1405 7.86215 9.06309 8.06755 9.06309 8.23921V8.98344C9.06309 9.18077 8.9847 9.37003 8.84511 9.50961C8.70553 9.64919 8.51628 9.72759 8.31894 9.72759C8.12153 9.72759 7.93228 9.64919 7.7927 9.50961C7.65311 9.37003 7.57471 9.18077 7.57471 8.98344V8.23921C7.57471 7.58931 7.87734 7.06237 8.18393 6.66847C8.41121 6.37674 8.69593 6.09296 8.92816 5.86078C8.99765 5.79132 9.0631 5.72682 9.11963 5.66828C9.27254 5.51091 9.3757 5.31196 9.41624 5.09629C9.45669 4.88063 9.43269 4.65782 9.34729 4.4557C9.2618 4.25359 9.11871 4.08114 8.93578 3.95991C8.75292 3.83867 8.53837 3.77403 8.31894 3.77407ZM8.31894 12.9524C8.5821 12.9524 8.83445 12.8479 9.0205 12.6618C9.20664 12.4757 9.31117 12.2234 9.31117 11.9602C9.31117 11.697 9.20664 11.4446 9.0205 11.2586C8.83445 11.0724 8.5821 10.9679 8.31894 10.9679C8.05578 10.9679 7.80336 11.0724 7.6173 11.2586C7.43117 11.4446 7.32664 11.697 7.32664 11.9602C7.32664 12.2234 7.43117 12.4757 7.6173 12.6618C7.80336 12.8479 8.05578 12.9524 8.31894 12.9524Z" fill="url(#paint1_linear_73_2445)"/>
<defs>
<linearGradient id="paint0_linear_73_2445" x1="4" y1="14.8571" x2="14.5882" y2="2.5042" gradientUnits="userSpaceOnUse">
<stop stop-color="#A056FF"/>
<stop offset="1" stop-color="#C59AFD"/>
</linearGradient>
<linearGradient id="paint1_linear_73_2445" x1="7.01657" y1="12.9524" x2="12.5143" y2="12.0574" gradientUnits="userSpaceOnUse">
<stop stop-color="#C59AFD"/>
<stop offset="1" stop-color="white"/>
</linearGradient>
</defs>
</svg>
