<svg width="16" height="16" viewBox="0 0 16 16" fill="none" xmlns="http://www.w3.org/2000/svg">
<path d="M11.9433 14.9623C12.2677 14.7782 12.3637 14.373 12.3637 14C12.3637 13.0963 13.0963 12.3637 14 12.3637C14.373 12.3637 14.7782 12.2677 14.9623 11.9433C15.6228 10.7795 16 9.43382 16 8C16 3.5816 12.4184 0 8 0C3.5816 0 0 3.5816 0 8C0 9.28 0.3008 10.4896 0.8344 11.5624C0.9768 11.8472 1.024 12.1728 0.9416 12.4808L0.4656 14.2616C0.418633 14.4377 0.418807 14.6232 0.466109 14.7993C0.513418 14.9754 0.606182 15.1359 0.735113 15.2649C0.864043 15.3938 1.0246 15.4865 1.20069 15.5339C1.37679 15.5812 1.56222 15.5814 1.7384 15.5344L3.5192 15.0584C3.82832 14.9806 4.15522 15.0185 4.4384 15.1648C5.54473 15.7157 6.76407 16.0016 8 16C9.43382 16 10.7795 15.6228 11.9433 14.9623Z" fill="url(#paint0_linear_73_2427)"/>
<path d="M14.5455 15.6364C15.148 15.6364 15.6364 15.148 15.6364 14.5455C15.6364 13.943 15.148 13.4546 14.5455 13.4546C13.943 13.4546 13.4546 13.943 13.4546 14.5455C13.4546 15.148 13.943 15.6364 14.5455 15.6364Z" fill="url(#paint1_linear_73_2427)"/>
<path d="M6.66829 7.22078C6.80971 7.22078 6.93387 7.13061 6.99221 7.00179C7.23029 6.47595 7.63021 6.03717 8.13654 5.75162C8.71171 5.42727 9.38496 5.32268 10.0314 5.45726C11.0723 5.66633 11.9177 6.49812 12.1359 7.53894C12.2238 7.93761 12.2212 8.35094 12.1283 8.74853C12.0354 9.14603 11.8545 9.51769 11.5989 9.83603C11.3434 10.1544 11.0196 10.4114 10.6516 10.5881C10.2835 10.7648 9.88063 10.8567 9.47238 10.857C8.90879 10.857 8.35904 10.6821 7.89904 10.3565C7.50354 10.0764 7.19104 9.69678 6.99221 9.25786C6.93387 9.12903 6.80971 9.03894 6.66829 9.03894H5.26043C5.07634 9.03894 4.9271 9.18819 4.9271 9.37228V9.94794C4.9271 10.4479 4.51802 10.857 4.01804 10.857C3.51807 10.857 3.109 10.4479 3.109 9.94794V9.37228C3.109 9.18819 2.9548 9.04469 2.78312 8.97819C2.44288 8.84644 2.19995 8.51519 2.19995 8.12986C2.19995 7.62986 2.60903 7.22078 3.109 7.22078H6.66829ZM9.47238 9.03894C9.97229 9.03894 10.3814 8.62986 10.3814 8.12986C10.3814 7.62986 9.97229 7.22078 9.47238 7.22078C8.97237 7.22078 8.56329 7.62986 8.56329 8.12986C8.56329 8.62986 8.97237 9.03894 9.47238 9.03894Z" fill="#8CC860"/>
<path d="M7.66829 6.22078C7.80971 6.22078 7.93387 6.13061 7.99221 6.00179C8.23029 5.47595 8.63021 5.03717 9.13654 4.75162C9.71171 4.42727 10.385 4.32268 11.0314 4.45726C12.0723 4.66633 12.9177 5.49812 13.1359 6.53894C13.2238 6.93761 13.2212 7.35094 13.1283 7.74853C13.0354 8.14603 12.8545 8.51769 12.5989 8.83603C12.3434 9.15436 12.0196 9.41136 11.6516 9.58811C11.2835 9.76478 10.8806 9.8567 10.4724 9.85703C9.90879 9.85703 9.35904 9.68211 8.89904 9.35653C8.50354 9.07644 8.19104 8.69678 7.99221 8.25786C7.93387 8.12903 7.80971 8.03894 7.66829 8.03894H6.26043C6.07634 8.03894 5.9271 8.18819 5.9271 8.37228V8.94794C5.9271 9.44795 5.51802 9.85703 5.01804 9.85703C4.51807 9.85703 4.109 9.44795 4.109 8.94794V8.37228C4.109 8.18819 3.9548 8.04469 3.78312 7.97819C3.44288 7.84644 3.19995 7.51519 3.19995 7.12986C3.19995 6.62986 3.60903 6.22078 4.109 6.22078H7.66829ZM10.4724 8.03894C10.9723 8.03894 11.3814 7.62986 11.3814 7.12986C11.3814 6.62986 10.9723 6.22078 10.4724 6.22078C9.97237 6.22078 9.56329 6.62986 9.56329 7.12986C9.56329 7.62986 9.97237 8.03894 10.4724 8.03894Z" fill="url(#paint2_linear_73_2427)"/>
<defs>
<linearGradient id="paint0_linear_73_2427" x1="1.14286" y1="16" x2="11.7135" y2="0.624483" gradientUnits="userSpaceOnUse">
<stop stop-color="#9BE862"/>
<stop offset="1" stop-color="#C8FF9F"/>
</linearGradient>
<linearGradient id="paint1_linear_73_2427" x1="1.14285" y1="16" x2="11.7135" y2="0.624473" gradientUnits="userSpaceOnUse">
<stop stop-color="#9BE862"/>
<stop offset="1" stop-color="#C8FF9F"/>
</linearGradient>
<linearGradient id="paint2_linear_73_2427" x1="4.44995" y1="9.85703" x2="8.65042" y2="3.12182" gradientUnits="userSpaceOnUse">
<stop stop-color="#C8FF9F"/>
<stop offset="1" stop-color="white"/>
</linearGradient>
</defs>
</svg>
