<svg width="17" height="16" viewBox="0 0 17 16" fill="none" xmlns="http://www.w3.org/2000/svg">
<path fill-rule="evenodd" clip-rule="evenodd" d="M13.9824 15C13.9824 15.552 13.5344 16 12.9824 16H4.97442C2.76942 16 0.982422 14.213 0.982422 12.008C0.982422 9.643 0.982422 6.357 0.982422 3.992C0.982422 2.933 1.40342 1.918 2.15142 1.169C2.90042 0.421 3.91542 0 4.97442 0C7.33942 0 10.6254 0 12.9904 0C15.1954 0 16.9824 1.787 16.9824 3.992C16.9824 7.249 16.9824 12 16.9824 12C16.9824 12.552 16.5344 13 15.9824 13C14.8784 13 13.9824 13.896 13.9824 15ZM14.9824 15C14.9824 14.448 15.4304 14 15.9824 14C16.5344 14 16.9824 14.448 16.9824 15C16.9824 15.552 16.5344 16 15.9824 16C15.4304 16 14.9824 15.552 14.9824 15Z" fill="url(#paint0_linear_73_2405)"/>
<path fill-rule="evenodd" clip-rule="evenodd" d="M9.19313 4.70335L8.45232 3.96254C8.34815 3.85849 8.20693 3.80005 8.05969 3.80005C7.91246 3.80005 7.77124 3.85849 7.66707 3.96254L6.92626 4.70335C6.8374 4.79249 6.78144 4.90916 6.76755 5.03426C6.75366 5.15936 6.78265 5.28546 6.84979 5.39193C6.91692 5.4984 7.01822 5.57892 7.13708 5.6203C7.25595 5.66168 7.38535 5.66148 7.50409 5.61972V9.34969C7.45074 9.32735 7.39635 9.30757 7.34111 9.29043L6.30176 8.96447C6.11356 8.90563 5.94905 8.78825 5.8322 8.62942C5.71534 8.47059 5.65224 8.27861 5.65207 8.08143V7.74955C5.91801 7.6234 6.13311 7.4105 6.262 7.14587C6.39088 6.88124 6.42587 6.58063 6.36122 6.29347C6.29656 6.00631 6.13611 5.7497 5.90625 5.56584C5.6764 5.38198 5.39081 5.28181 5.09646 5.28181C4.80212 5.28181 4.51653 5.38198 4.28667 5.56584C4.05681 5.7497 3.89636 6.00631 3.83171 6.29347C3.76706 6.58063 3.80205 6.88124 3.93093 7.14587C4.05981 7.4105 4.27491 7.6234 4.54086 7.74955V8.08143C4.541 8.51549 4.67978 8.93816 4.93697 9.28783C5.19415 9.6375 5.5563 9.89588 5.97062 10.0253L7.00997 10.3505C7.1532 10.3952 7.27839 10.4845 7.36729 10.6054C7.45618 10.7263 7.50411 10.8724 7.50409 11.0224V11.3321C7.24281 11.4559 7.03042 11.6635 6.90067 11.9219C6.77093 12.1803 6.73128 12.4746 6.78803 12.7581C6.84478 13.0416 6.99467 13.298 7.21387 13.4865C7.43308 13.6751 7.70902 13.7849 7.99782 13.7986C8.28662 13.8123 8.57171 13.729 8.80778 13.5621C9.04384 13.3952 9.21732 13.1541 9.30064 12.8772C9.38396 12.6004 9.37234 12.3036 9.26762 12.0341C9.16291 11.7646 8.97111 11.5378 8.72272 11.3899C8.81183 11.2474 8.949 11.1415 9.10942 11.0913L10.1488 10.7661C10.5631 10.6367 10.9252 10.3783 11.1824 10.0286C11.4396 9.67897 11.5784 9.2563 11.5785 8.82224V8.5837C11.7267 8.5548 11.8993 8.49258 12.0482 8.34367C12.223 8.16884 12.2786 7.96142 12.3008 7.79918C12.3193 7.65991 12.3193 7.49545 12.3193 7.34432V7.29247C12.3193 7.1406 12.3193 6.97688 12.3008 6.83761C12.2786 6.67537 12.223 6.46721 12.0482 6.29312C11.9001 6.15027 11.7084 6.06131 11.5037 6.0405C11.3644 6.02198 11.2 6.02198 11.0489 6.02198H10.997C10.8451 6.02198 10.6814 6.02198 10.5421 6.0405C10.3799 6.06273 10.1717 6.11829 9.99765 6.29312C9.8548 6.44118 9.76583 6.63293 9.74503 6.83761C9.72921 6.98893 9.72302 7.1411 9.72651 7.29321V7.34358C9.72651 7.49619 9.72651 7.65991 9.74503 7.79918C9.76726 7.96142 9.82282 8.16958 9.99765 8.34367C10.1458 8.49184 10.3192 8.5548 10.4673 8.5837V8.82224C10.4673 9.01955 10.4043 9.2117 10.2874 9.37067C10.1705 9.52965 10.0059 9.64714 9.81763 9.70602L8.77754 10.0305C8.72264 10.0479 8.66851 10.0677 8.6153 10.0898V5.62047C8.73404 5.66222 8.86343 5.66243 8.9823 5.62104C9.10117 5.57966 9.20247 5.49914 9.2696 5.39267C9.33673 5.2862 9.36573 5.1601 9.35184 5.035C9.33794 4.9099 9.28199 4.79249 9.19313 4.70335Z" fill="#D49F34"/>
<path fill-rule="evenodd" clip-rule="evenodd" d="M10.1931 3.70335L9.45232 2.96254C9.34815 2.85849 9.20693 2.80005 9.05969 2.80005C8.91246 2.80005 8.77124 2.85849 8.66707 2.96254L7.92626 3.70335C7.8374 3.79249 7.78144 3.90916 7.76755 4.03426C7.75366 4.15936 7.78265 4.28546 7.84979 4.39193C7.91692 4.4984 8.01822 4.57892 8.13708 4.6203C8.25595 4.66168 8.38535 4.66148 8.50409 4.61972V8.34969C8.45074 8.32735 8.39635 8.30757 8.34111 8.29043L7.30176 7.96447C7.11356 7.90563 6.94905 7.78825 6.8322 7.62942C6.71534 7.47059 6.65224 7.27861 6.65207 7.08143V6.74955C6.91801 6.6234 7.13311 6.4105 7.262 6.14587C7.39088 5.88124 7.42587 5.58063 7.36122 5.29347C7.29656 5.00631 7.13611 4.7497 6.90625 4.56584C6.6764 4.38198 6.39081 4.28181 6.09646 4.28181C5.80212 4.28181 5.51653 4.38198 5.28667 4.56584C5.05681 4.7497 4.89636 5.00631 4.83171 5.29347C4.76706 5.58063 4.80205 5.88124 4.93093 6.14587C5.05981 6.4105 5.27491 6.6234 5.54086 6.74955V7.08143C5.541 7.51549 5.67978 7.93816 5.93697 8.28783C6.19415 8.6375 6.5563 8.89588 6.97062 9.02531L8.00997 9.35052C8.1532 9.39522 8.27839 9.48452 8.36729 9.6054C8.45618 9.72627 8.50411 9.87239 8.50409 10.0224V10.3321C8.24281 10.4559 8.03042 10.6635 7.90067 10.9219C7.77093 11.1803 7.73128 11.4746 7.78803 11.7581C7.84478 12.0416 7.99467 12.298 8.21387 12.4865C8.43308 12.6751 8.70902 12.7849 8.99782 12.7986C9.28662 12.8123 9.57171 12.729 9.80778 12.5621C10.0438 12.3952 10.2173 12.1541 10.3006 11.8772C10.384 11.6004 10.3723 11.3036 10.2676 11.0341C10.1629 10.7646 9.97111 10.5378 9.72272 10.3899C9.81183 10.2474 9.949 10.1415 10.1094 10.0913L11.1488 9.76611C11.5631 9.63668 11.9252 9.3783 12.1824 9.02864C12.4396 8.67897 12.5784 8.2563 12.5785 7.82224V7.5837C12.7267 7.5548 12.8993 7.49258 13.0482 7.34367C13.223 7.16884 13.2786 6.96142 13.3008 6.79918C13.3193 6.65991 13.3193 6.49545 13.3193 6.34432V6.29247C13.3193 6.1406 13.3193 5.97688 13.3008 5.83761C13.2786 5.67537 13.223 5.46721 13.0482 5.29312C12.9001 5.15027 12.7084 5.06131 12.5037 5.0405C12.3644 5.02198 12.2 5.02198 12.0489 5.02198H11.997C11.8451 5.02198 11.6814 5.02198 11.5421 5.0405C11.3799 5.06273 11.1717 5.11829 10.9976 5.29312C10.8548 5.44118 10.7658 5.63293 10.745 5.83761C10.7292 5.98893 10.723 6.1411 10.7265 6.29321V6.34358C10.7265 6.49619 10.7265 6.65991 10.745 6.79918C10.7673 6.96142 10.8228 7.16958 10.9976 7.34367C11.1458 7.49184 11.3192 7.5548 11.4673 7.5837V7.82224C11.4673 8.01955 11.4043 8.2117 11.2874 8.37067C11.1705 8.52965 11.006 8.64714 10.8176 8.70602L9.77754 9.03049C9.72264 9.04792 9.66851 9.06769 9.6153 9.08976V4.62047C9.73404 4.66222 9.86343 4.66243 9.9823 4.62104C10.1012 4.57966 10.2025 4.49914 10.2696 4.39267C10.3367 4.2862 10.3657 4.1601 10.3518 4.035C10.3379 3.9099 10.282 3.79249 10.1931 3.70335Z" fill="url(#paint1_linear_73_2405)"/>
<defs>
<linearGradient id="paint0_linear_73_2405" x1="3.98242" y1="14.9988" x2="13.9815" y2="2.999" gradientUnits="userSpaceOnUse">
<stop stop-color="#FF8860"/>
<stop offset="1" stop-color="#FBD92C"/>
</linearGradient>
<linearGradient id="paint1_linear_73_2405" x1="6.92987" y1="10.3" x2="11.8663" y2="6.09452" gradientUnits="userSpaceOnUse">
<stop stop-color="#FBD92C"/>
<stop offset="1" stop-color="white"/>
</linearGradient>
</defs>
</svg>
