<svg width="16" height="16" viewBox="0 0 16 16" fill="none" xmlns="http://www.w3.org/2000/svg">
<path fill-rule="evenodd" clip-rule="evenodd" d="M12.8 1.06667C12.8 0.477867 13.2779 0 13.8667 0C14.4555 0 14.9333 0.477867 14.9333 1.06667C14.9333 1.65547 14.4555 2.13333 13.8667 2.13333C13.2779 2.13333 12.8 1.65547 12.8 1.06667ZM11.68 16H4.25333C2.45387 15.9808 1 14.5163 1 12.7115V3.28853C1 2.416 1.34667 1.57973 1.9632 0.9632C2.57973 0.346667 3.416 0 4.28853 0H10.6667C11.2555 0 11.7333 0.477867 11.7333 1.06667C11.7333 2.24427 12.6891 3.2 13.8667 3.2C14.4555 3.2 14.9333 3.67787 14.9333 4.26667V12.7115C14.9333 14.5163 13.4795 15.9808 11.68 16Z" fill="url(#paint0_linear_73_2593)"/>
<path fill-rule="evenodd" clip-rule="evenodd" d="M9.27586 12H4.72414C4.32441 12 4 12.3244 4 12.7241C4 13.1239 4.32441 13.4483 4.72414 13.4483H9.27586C9.67559 13.4483 10 13.1239 10 12.7241C10 12.3244 9.67559 12 9.27586 12Z" fill="#8C4FD9"/>
<path fill-rule="evenodd" clip-rule="evenodd" d="M10.2759 11H5.72414C5.32441 11 5 11.3244 5 11.7241C5 12.1239 5.32441 12.4483 5.72414 12.4483H10.2759C10.6756 12.4483 11 12.1239 11 11.7241C11 11.3244 10.6756 11 10.2759 11Z" fill="url(#paint1_linear_73_2593)"/>
<path d="M8.95736 9.01336V6.12307C8.95736 5.72144 9.28296 5.39576 9.68462 5.39576H10.1195C10.2577 5.39576 10.3928 5.3572 10.5077 5.28491C10.6226 5.21264 10.7121 5.10992 10.765 4.98973C10.8179 4.8696 10.8317 4.73733 10.8048 4.60976C10.7778 4.48216 10.7113 4.36504 10.6136 4.27304L8.40318 2.19256C8.27214 2.06928 8.0944 2 7.9091 2C7.72379 2 7.54606 2.06928 7.41502 2.19256L5.20459 4.27304C5.10694 4.36504 5.04038 4.48216 5.01342 4.60976C4.98646 4.73733 5.00032 4.8696 5.0532 4.98973C5.10603 5.10992 5.1956 5.21264 5.31054 5.28491C5.42539 5.3572 5.56054 5.39576 5.6987 5.39576H6.13358C6.53523 5.39576 6.86083 5.72144 6.86083 6.12307V9.01336C6.86083 9.27507 6.97134 9.52603 7.1679 9.71107C7.36446 9.89608 7.63107 10 7.9091 10C8.1871 10 8.45377 9.89608 8.65033 9.71107C8.84694 9.52603 8.95736 9.27507 8.95736 9.01336Z" fill="url(#paint2_linear_73_2593)"/>
<path d="M7.95736 10.0134V7.12307C7.95736 6.72144 8.28296 6.39576 8.68462 6.39576H9.1195C9.25774 6.39576 9.39278 6.3572 9.50766 6.28491C9.62259 6.21264 9.71214 6.10992 9.76499 5.98973C9.8179 5.8696 9.83174 5.73733 9.80478 5.60976C9.77782 5.48216 9.71126 5.36504 9.61358 5.27304L7.40318 3.19256C7.27214 3.06928 7.0944 3 6.9091 3C6.72379 3 6.54606 3.06928 6.41502 3.19256L4.20459 5.27304C4.10694 5.36504 4.04038 5.48216 4.01342 5.60976C3.98646 5.73733 4.00032 5.8696 4.0532 5.98973C4.10603 6.10992 4.1956 6.21264 4.31054 6.28491C4.42539 6.3572 4.56054 6.39576 4.6987 6.39576H5.13358C5.53523 6.39576 5.86083 6.72144 5.86083 7.12307V10.0134C5.86083 10.2751 5.97134 10.526 6.1679 10.7111C6.36446 10.8961 6.63107 11 6.9091 11C7.1871 11 7.45377 10.8961 7.65033 10.7111C7.84694 10.526 7.95736 10.2751 7.95736 10.0134Z" fill="#8C4FD9"/>
<path d="M8.95736 9.01336V6.12307C8.95736 5.72144 9.28296 5.39576 9.68462 5.39576H10.1195C10.2577 5.39576 10.3928 5.3572 10.5077 5.28491C10.6226 5.21264 10.7121 5.10992 10.765 4.98973C10.8179 4.8696 10.8317 4.73733 10.8048 4.60976C10.7778 4.48216 10.7113 4.36504 10.6136 4.27304L8.40318 2.19256C8.27214 2.06928 8.0944 2 7.9091 2C7.72379 2 7.54606 2.06928 7.41502 2.19256L5.20459 4.27304C5.10694 4.36504 5.04038 4.48216 5.01342 4.60976C4.98646 4.73733 5.00032 4.8696 5.0532 4.98973C5.10603 5.10992 5.1956 5.21264 5.31054 5.28491C5.42539 5.3572 5.56054 5.39576 5.6987 5.39576H6.13358C6.53523 5.39576 6.86083 5.72144 6.86083 6.12307V9.01336C6.86083 9.27507 6.97134 9.52603 7.1679 9.71107C7.36446 9.89608 7.63107 10 7.9091 10C8.1871 10 8.45377 9.89608 8.65033 9.71107C8.84694 9.52603 8.95736 9.27507 8.95736 9.01336Z" fill="url(#paint3_linear_73_2593)"/>
<defs>
<linearGradient id="paint0_linear_73_2593" x1="4.48333" y1="14.8571" x2="15.1963" y2="3.97309" gradientUnits="userSpaceOnUse">
<stop stop-color="#A056FF"/>
<stop offset="1" stop-color="#C59AFD"/>
</linearGradient>
<linearGradient id="paint1_linear_73_2593" x1="6.5" y1="12.4483" x2="8.73596" y2="9.36052" gradientUnits="userSpaceOnUse">
<stop stop-color="#C59AFD"/>
<stop offset="1" stop-color="white"/>
</linearGradient>
<linearGradient id="paint2_linear_73_2593" x1="6.45455" y1="10" x2="12.4077" y2="8.5568" gradientUnits="userSpaceOnUse">
<stop stop-color="#C59AFD"/>
<stop offset="1" stop-color="white"/>
</linearGradient>
<linearGradient id="paint3_linear_73_2593" x1="6.45455" y1="10" x2="12.4077" y2="8.5568" gradientUnits="userSpaceOnUse">
<stop stop-color="#C59AFD"/>
<stop offset="1" stop-color="white"/>
</linearGradient>
</defs>
</svg>
