<svg width="16" height="16" viewBox="0 0 16 16" fill="none" xmlns="http://www.w3.org/2000/svg">
<path d="M5.78947 3.21053C5.78947 3.79679 6.02237 4.35905 6.43692 4.7736C6.85148 5.18816 7.41373 5.42105 8 5.42105C8.58627 5.42105 9.14852 5.18816 9.56308 4.7736C9.97763 4.35905 10.2105 3.79679 10.2105 3.21053C10.2105 2.62426 9.97763 2.062 9.56308 1.64745C9.14852 1.23289 8.58627 1 8 1C7.41373 1 6.85148 1.23289 6.43692 1.64745C6.02237 2.062 5.78947 2.62426 5.78947 3.21053ZM1 12.0526C1 12.3429 1.05718 12.6304 1.16827 12.8986C1.27936 13.1668 1.44218 13.4104 1.64745 13.6157C1.85271 13.821 2.0964 13.9838 2.36459 14.0949C2.63279 14.206 2.92024 14.2632 3.21053 14.2632C3.50082 14.2632 3.78826 14.206 4.05646 14.0949C4.32465 13.9838 4.56834 13.821 4.7736 13.6157C4.97887 13.4104 5.1417 13.1668 5.25279 12.8986C5.36388 12.6304 5.42105 12.3429 5.42105 12.0526C5.42105 11.4664 5.18816 10.9041 4.7736 10.4896C4.35905 10.075 3.79679 9.8421 3.21053 9.8421C2.62426 9.8421 2.062 10.075 1.64745 10.4896C1.23289 10.9041 1 11.4664 1 12.0526ZM12.7895 14.2632C12.2032 14.2632 11.6409 14.0303 11.2264 13.6157C10.8118 13.2012 10.5789 12.6389 10.5789 12.0526C10.5789 11.4664 10.8118 10.9041 11.2264 10.4896C11.6409 10.075 12.2032 9.8421 12.7895 9.8421C13.3757 9.8421 13.938 10.075 14.3526 10.4896C14.7671 10.9041 15 11.4664 15 12.0526C15 12.6389 14.7671 13.2012 14.3526 13.6157C13.938 14.0303 13.3757 14.2632 12.7895 14.2632ZM4.46684 4.36147C4.57399 4.26372 4.63841 4.12777 4.64621 3.98294C4.65401 3.83811 4.60456 3.69602 4.50854 3.58733C4.41251 3.47863 4.2776 3.41205 4.13292 3.40193C3.98823 3.39182 3.84537 3.43899 3.73516 3.53326C3.04848 4.13767 2.49861 4.88159 2.12225 5.71538C1.74589 6.54916 1.5517 7.45363 1.55263 8.36842C1.55263 8.51499 1.61085 8.65555 1.71449 8.75919C1.81813 8.86283 1.9587 8.92105 2.10526 8.92105C2.25183 8.92105 2.39239 8.86283 2.49603 8.75919C2.59967 8.65555 2.65789 8.51499 2.65789 8.36842C2.65693 7.61027 2.81781 6.86064 3.12976 6.16964C3.44171 5.47865 3.89756 4.86219 4.46684 4.36147ZM12.2648 3.53326C12.1546 3.43899 12.0118 3.39182 11.8671 3.40193C11.7224 3.41205 11.5875 3.47863 11.4915 3.58733C11.3954 3.69602 11.346 3.83811 11.3538 3.98294C11.3616 4.12777 11.426 4.26372 11.5332 4.36147C12.1024 4.86219 12.5583 5.47865 12.8702 6.16964C13.1822 6.86064 13.3431 7.61027 13.3421 8.36842C13.3421 8.51499 13.4003 8.65555 13.504 8.75919C13.6076 8.86283 13.7482 8.92105 13.8947 8.92105C14.0413 8.92105 14.1819 8.86283 14.2855 8.75919C14.3891 8.65555 14.4474 8.51499 14.4474 8.36842C14.4483 7.45363 14.2541 6.54916 13.8777 5.71538C13.5014 4.88159 12.9515 4.13767 12.2648 3.53326ZM6.66411 13.5425C6.5931 13.5221 6.51871 13.5161 6.44534 13.5248C6.37197 13.5336 6.30111 13.5571 6.23695 13.5937C6.17278 13.6304 6.11663 13.6795 6.07179 13.7383C6.02696 13.797 5.99436 13.8641 5.97593 13.9357C5.9575 14.0073 5.95361 14.0818 5.96448 14.1549C5.97536 14.228 6.00078 14.2981 6.03925 14.3612C6.07772 14.4243 6.12845 14.4791 6.18844 14.5222C6.24844 14.5654 6.31647 14.596 6.38853 14.6124C7.44561 14.8845 8.55439 14.8845 9.61147 14.6124C9.68353 14.596 9.75156 14.5654 9.81156 14.5222C9.87155 14.4791 9.92228 14.4243 9.96075 14.3612C9.99922 14.2981 10.0246 14.228 10.0355 14.1549C10.0464 14.0818 10.0425 14.0073 10.0241 13.9357C10.0056 13.8641 9.97304 13.797 9.92821 13.7383C9.88337 13.6795 9.82722 13.6304 9.76305 13.5937C9.69889 13.5571 9.62803 13.5336 9.55466 13.5248C9.48129 13.5161 9.4069 13.5221 9.33589 13.5425C8.89944 13.6545 8.45059 13.711 8 13.7105C7.54943 13.7106 7.10062 13.6542 6.66411 13.5425Z" fill="url(#paint0_linear_114_810)"/>
<defs>
<linearGradient id="paint0_linear_114_810" x1="2.4" y1="14.8208" x2="7.33754" y2="-0.190402" gradientUnits="userSpaceOnUse">
<stop offset="0.190745" stop-color="#22B4FA"/>
<stop offset="0.896724" stop-color="#7DDCFF"/>
</linearGradient>
</defs>
</svg>
