<svg width="16" height="16" viewBox="0 0 16 16" fill="none" xmlns="http://www.w3.org/2000/svg">
<path fill-rule="evenodd" clip-rule="evenodd" d="M12.8 1.06667C12.8 0.477867 13.2779 0 13.8667 0C14.4555 0 14.9333 0.477867 14.9333 1.06667C14.9333 1.65547 14.4555 2.13333 13.8667 2.13333C13.2779 2.13333 12.8 1.65547 12.8 1.06667ZM11.68 16H4.25333C2.45387 15.9808 1 14.5163 1 12.7115V3.28853C1 2.416 1.34667 1.57973 1.9632 0.9632C2.57973 0.346667 3.416 0 4.28853 0H10.6667C11.2555 0 11.7333 0.477867 11.7333 1.06667C11.7333 2.24427 12.6891 3.2 13.8667 3.2C14.4555 3.2 14.9333 3.67787 14.9333 4.26667V12.7115C14.9333 14.5163 13.4795 15.9808 11.68 16Z" fill="url(#paint0_linear_73_2662)"/>
<path fill-rule="evenodd" clip-rule="evenodd" d="M9.27586 12H4.72414C4.32441 12 4 12.3244 4 12.7241C4 13.1239 4.32441 13.4483 4.72414 13.4483H9.27586C9.67559 13.4483 10 13.1239 10 12.7241C10 12.3244 9.67559 12 9.27586 12Z" fill="#8C4FD9"/>
<path fill-rule="evenodd" clip-rule="evenodd" d="M10.2759 11H5.72414C5.32441 11 5 11.3244 5 11.7241C5 12.1239 5.32441 12.4483 5.72414 12.4483H10.2759C10.6756 12.4483 11 12.1239 11 11.7241C11 11.3244 10.6756 11 10.2759 11Z" fill="url(#paint1_linear_73_2662)"/>
<path fill-rule="evenodd" clip-rule="evenodd" d="M10.1526 7.33195C10.2895 7.40795 10.3951 7.52795 10.4695 7.64795C10.6142 7.89595 10.6025 8.19995 10.4616 8.46795L10.1878 8.94795C10.0431 9.20395 9.77315 9.36395 9.49543 9.36395C9.3585 9.36395 9.20595 9.32395 9.08075 9.24395C8.97906 9.17595 8.8617 9.15195 8.73654 9.15195C8.34927 9.15195 8.02457 9.48395 8.01287 9.87995C8.01287 10.3399 7.65297 10.6999 7.20312 10.6999H6.67109C6.21734 10.6999 5.85746 10.3399 5.85746 9.87995C5.84964 9.48395 5.52494 9.15195 5.13767 9.15195C5.00857 9.15195 4.89124 9.17595 4.79346 9.24395C4.66826 9.32395 4.51177 9.36395 4.37878 9.36395C4.09712 9.36395 3.82724 9.20395 3.68251 8.94795L3.41257 8.46795C3.26786 8.20795 3.26004 7.89595 3.40475 7.64795C3.46734 7.52795 3.58469 7.40795 3.71771 7.33195C3.82724 7.27595 3.89764 7.18395 3.96414 7.07595C4.15974 6.73195 4.04235 6.27995 3.70989 6.07595C3.32263 5.84795 3.19743 5.33995 3.42038 4.94395L3.68251 4.47195C3.90937 4.07595 4.39444 3.93595 4.78564 4.16795C5.12595 4.35995 5.56795 4.23195 5.76749 3.89195C5.83007 3.77995 5.86527 3.65995 5.85746 3.53995C5.84964 3.38395 5.89266 3.23595 5.96697 3.11595C6.11171 2.86795 6.37383 2.70795 6.65937 2.69995H7.21094C7.50038 2.69995 7.76251 2.86795 7.90724 3.11595C7.97764 3.23595 8.02457 3.38395 8.01287 3.53995C8.00503 3.65995 8.04026 3.77995 8.10284 3.89195C8.30232 4.23195 8.74435 4.35995 9.08857 4.16795C9.47586 3.93595 9.96484 4.07595 10.1878 4.47195L10.4499 4.94395C10.6768 5.33995 10.5516 5.84795 10.1604 6.07595C9.82792 6.27995 9.71057 6.73195 9.91008 7.07595C9.97266 7.18395 10.0431 7.27595 10.1526 7.33195ZM6.90002 7.69995C7.45231 7.69995 7.90002 7.25224 7.90002 6.69995C7.90002 6.14767 7.45231 5.69995 6.90002 5.69995C6.34774 5.69995 5.90002 6.14767 5.90002 6.69995C5.90002 7.25224 6.34774 7.69995 6.90002 7.69995Z" fill="#8C4FD9"/>
<path fill-rule="evenodd" clip-rule="evenodd" d="M11.2526 6.632C11.3895 6.708 11.4951 6.828 11.5694 6.948C11.7142 7.196 11.7025 7.5 11.5616 7.768L11.2878 8.248C11.1431 8.504 10.8731 8.664 10.5954 8.664C10.4585 8.664 10.3059 8.624 10.1807 8.544C10.079 8.476 9.96168 8.452 9.83651 8.452C9.44925 8.452 9.12454 8.784 9.11285 9.18C9.11285 9.64 8.75294 10 8.3031 10H7.77107C7.31731 10 6.95743 9.64 6.95743 9.18C6.94962 8.784 6.62491 8.452 6.23765 8.452C6.10854 8.452 5.99122 8.476 5.89343 8.544C5.76823 8.624 5.61174 8.664 5.47876 8.664C5.1971 8.664 4.92722 8.504 4.78248 8.248L4.51254 7.768C4.36783 7.508 4.36002 7.196 4.50473 6.948C4.56731 6.828 4.68467 6.708 4.81768 6.632C4.92722 6.576 4.99762 6.484 5.06411 6.376C5.25971 6.032 5.14233 5.58 4.80987 5.376C4.4226 5.148 4.2974 4.64 4.52036 4.244L4.78248 3.772C5.00934 3.376 5.49442 3.236 5.88562 3.468C6.22593 3.66 6.66793 3.532 6.86747 3.192C6.93005 3.08 6.96525 2.96 6.95743 2.84C6.94962 2.684 6.99263 2.536 7.06694 2.416C7.21168 2.168 7.4738 2.008 7.75934 2H8.31091C8.60036 2 8.86248 2.168 9.00722 2.416C9.07762 2.536 9.12454 2.684 9.11285 2.84C9.105 2.96 9.14023 3.08 9.20282 3.192C9.4023 3.532 9.84433 3.66 10.1885 3.468C10.5758 3.236 11.0648 3.376 11.2878 3.772L11.5499 4.244C11.7768 4.64 11.6516 5.148 11.2604 5.376C10.9279 5.58 10.8105 6.032 11.0101 6.376C11.0726 6.484 11.1431 6.576 11.2526 6.632ZM8 7C8.55229 7 9 6.55228 9 6C9 5.44772 8.55229 5 8 5C7.44772 5 7 5.44772 7 6C7 6.55228 7.44772 7 8 7Z" fill="url(#paint2_linear_73_2662)"/>
<defs>
<linearGradient id="paint0_linear_73_2662" x1="4.48333" y1="14.8571" x2="15.1963" y2="3.97309" gradientUnits="userSpaceOnUse">
<stop stop-color="#A056FF"/>
<stop offset="1" stop-color="#C59AFD"/>
</linearGradient>
<linearGradient id="paint1_linear_73_2662" x1="6.5" y1="12.4483" x2="8.73596" y2="9.36052" gradientUnits="userSpaceOnUse">
<stop stop-color="#C59AFD"/>
<stop offset="1" stop-color="white"/>
</linearGradient>
<linearGradient id="paint2_linear_73_2662" x1="6.21821" y1="10" x2="13.4344" y2="7.81329" gradientUnits="userSpaceOnUse">
<stop stop-color="#C59AFD"/>
<stop offset="1" stop-color="white"/>
</linearGradient>
</defs>
</svg>
