<svg width="16" height="16" viewBox="0 0 16 16" fill="none" xmlns="http://www.w3.org/2000/svg">
<path fill-rule="evenodd" clip-rule="evenodd" d="M12.8 1.06667C12.8 0.477867 13.2779 0 13.8667 0C14.4555 0 14.9333 0.477867 14.9333 1.06667C14.9333 1.65547 14.4555 2.13333 13.8667 2.13333C13.2779 2.13333 12.8 1.65547 12.8 1.06667ZM11.68 16H4.25333C2.45387 15.9808 1 14.5163 1 12.7115V3.28853C1 2.416 1.34667 1.57973 1.9632 0.9632C2.57973 0.346667 3.416 0 4.28853 0H10.6667C11.2555 0 11.7333 0.477867 11.7333 1.06667C11.7333 2.24427 12.6891 3.2 13.8667 3.2C14.4555 3.2 14.9333 3.67787 14.9333 4.26667V12.7115C14.9333 14.5163 13.4795 15.9808 11.68 16Z" fill="url(#paint0_linear_73_2672)"/>
<path fill-rule="evenodd" clip-rule="evenodd" d="M10.0344 12.3715H3.9654C3.43243 12.3715 2.99988 12.8041 2.99988 13.337C2.99988 13.87 3.43243 14.3025 3.9654 14.3025H10.0344C10.5673 14.3025 10.9999 13.87 10.9999 13.337C10.9999 12.8041 10.5673 12.3715 10.0344 12.3715Z" fill="#279FD7"/>
<path fill-rule="evenodd" clip-rule="evenodd" d="M7.45363 9.09692C7.03179 9.30604 6.56361 9.4178 6.0839 9.4178C5.266 9.4178 4.4816 9.09289 3.90325 8.51455C3.32491 7.9362 3 7.1518 3 6.3339C3 5.516 3.32491 4.7316 3.90325 4.15325C4.4816 3.57491 5.266 3.25 6.0839 3.25C6.9018 3.25 7.6862 3.57491 8.26455 4.15325C8.84289 4.7316 9.1678 5.516 9.1678 6.3339C9.1678 6.99496 8.95555 7.63414 8.56879 8.16033L10.4084 10.0131C10.6908 10.2975 10.6892 10.7569 10.4048 11.0393C10.1204 11.3217 9.66096 11.32 9.37859 11.0356L7.45363 9.09692Z" fill="#279FD7"/>
<path fill-rule="evenodd" clip-rule="evenodd" d="M11.2534 11H5.18439C4.65142 11 4.21887 11.4326 4.21887 11.9655C4.21887 12.4985 4.65142 12.931 5.18439 12.931H11.2534C11.7863 12.931 12.2189 12.4985 12.2189 11.9655C12.2189 11.4326 11.7863 11 11.2534 11Z" fill="url(#paint1_linear_73_2672)"/>
<path fill-rule="evenodd" clip-rule="evenodd" d="M8.70371 7.84695C8.28185 8.05608 7.81365 8.16785 7.33393 8.16785C6.51602 8.16785 5.73161 7.84294 5.15326 7.26459C4.57491 6.68624 4.25 5.90183 4.25 5.08393C4.25 4.26602 4.57491 3.48161 5.15326 2.90326C5.73161 2.32491 6.51602 2 7.33393 2C8.15183 2 8.93624 2.32491 9.51459 2.90326C10.0929 3.48161 10.4179 4.26602 10.4179 5.08393C10.4179 5.74498 10.2056 6.38415 9.81886 6.91034L11.6585 8.76311C11.9409 9.04749 11.9392 9.50693 11.6548 9.7893C11.3705 10.0717 10.911 10.07 10.6286 9.78564L8.70371 7.84695Z" fill="url(#paint2_linear_73_2672)"/>
<defs>
<linearGradient id="paint0_linear_73_2672" x1="2.39333" y1="16.005" x2="8.82428" y2="-0.797959" gradientUnits="userSpaceOnUse">
<stop stop-color="#22B4FA"/>
<stop offset="1" stop-color="#6BD6FE"/>
</linearGradient>
<linearGradient id="paint1_linear_73_2672" x1="4.21887" y1="12.931" x2="9.04349" y2="7.93411" gradientUnits="userSpaceOnUse">
<stop stop-color="#6BD6FE"/>
<stop offset="1" stop-color="white"/>
</linearGradient>
<linearGradient id="paint2_linear_73_2672" x1="4.25" y1="10" x2="13.263" y2="7.85399" gradientUnits="userSpaceOnUse">
<stop stop-color="#6BD6FE"/>
<stop offset="1" stop-color="white"/>
</linearGradient>
</defs>
</svg>
