<svg width="16" height="16" viewBox="0 0 16 16" fill="none" xmlns="http://www.w3.org/2000/svg">
<path fill-rule="evenodd" clip-rule="evenodd" d="M11.9994 3.99983V2.55389C11.9994 1.87692 11.7304 1.22695 11.2514 0.747968C10.7725 0.268988 10.1225 0 9.44552 0C8.55556 0 7.44361 0 6.55365 0C5.87667 0 5.2267 0.268988 4.74772 0.747968C4.26874 1.22695 3.99976 1.87692 3.99976 2.55389V3.99983C3.99976 4.5518 4.44774 4.99978 4.99971 4.99978H10.9995C11.5514 4.99978 11.9994 4.5518 11.9994 3.99983Z" fill="url(#paint0_linear_73_2682)"/>
<path fill-rule="evenodd" clip-rule="evenodd" d="M2.94687 12.9925H13.0524C14.6804 12.9925 15.9993 11.6726 15.9993 10.0457C15.9993 8.64167 15.9993 6.99275 15.9993 6.99275C15.9993 6.44077 15.5513 5.99279 14.9994 5.99279C13.8954 5.99279 12.9994 5.09683 12.9994 3.99288C12.9994 3.4409 12.5515 2.99292 11.9995 2.99292H2.94687C2.16591 2.99292 1.41594 3.30391 0.862963 3.85588C0.310987 4.40886 0 5.15883 0 5.93979C0 7.18674 0 8.79867 0 10.0457C0 11.6726 1.31894 12.9925 2.94687 12.9925ZM14.9994 2.99292C14.4474 2.99292 13.9994 3.4409 13.9994 3.99288C13.9994 4.54485 14.4474 4.99283 14.9994 4.99283C15.5513 4.99283 15.9993 4.54485 15.9993 3.99288C15.9993 3.4409 15.5513 2.99292 14.9994 2.99292Z" fill="url(#paint1_linear_73_2682)"/>
<path fill-rule="evenodd" clip-rule="evenodd" d="M2.99983 12.9925H10.9995V10.9995C11.5495 10.9995 11.9994 10.5516 11.9994 9.99959C11.9994 9.44761 11.5495 8.99963 10.9995 8.99963H2.99983C2.44986 8.99963 1.99988 9.44761 1.99988 9.99959C1.99988 10.5516 2.44986 10.9995 2.99983 10.9995V12.9925Z" fill="#279FD7"/>
<path fill-rule="evenodd" clip-rule="evenodd" d="M3.99976 9.00032C3.99976 9.5523 3.99976 13.519 3.99976 13.519C3.99976 14.8893 5.11071 16.0001 6.48065 16.0001H9.51852C10.8885 16.0001 11.9994 14.8893 11.9994 13.519C11.9994 11.4643 11.9994 9.00032 11.9994 9.00032C11.9994 8.44835 11.5514 8.00037 10.9995 8.00037H4.99971C4.44774 8.00037 3.99976 8.44835 3.99976 9.00032Z" fill="url(#paint2_linear_73_2682)"/>
<path d="M11.9994 8.99963H3.99976V10.9995H11.9994V8.99963Z" fill="#279FD7"/>
<path fill-rule="evenodd" clip-rule="evenodd" d="M3.99983 9.99955H11.9995C12.5515 9.99955 12.9994 9.55157 12.9994 8.99959C12.9994 8.44761 12.5515 7.99963 11.9995 7.99963H3.99983C3.44786 7.99963 2.99988 8.44761 2.99988 8.99959C2.99988 9.55157 3.44786 9.99955 3.99983 9.99955Z" fill="url(#paint3_linear_73_2682)"/>
<defs>
<linearGradient id="paint0_linear_73_2682" x1="4.79972" y1="5.00135" x2="6.00154" y2="-0.768126" gradientUnits="userSpaceOnUse">
<stop stop-color="#22B4FA"/>
<stop offset="1" stop-color="#6BD6FE"/>
</linearGradient>
<linearGradient id="paint1_linear_73_2682" x1="1.59993" y1="12.9957" x2="4.00358" y2="1.45667" gradientUnits="userSpaceOnUse">
<stop stop-color="#22B4FA"/>
<stop offset="1" stop-color="#6BD6FE"/>
</linearGradient>
<linearGradient id="paint2_linear_73_2682" x1="3.99976" y1="16.0001" x2="13.4111" y2="13.6472" gradientUnits="userSpaceOnUse">
<stop stop-color="#6BD6FE"/>
<stop offset="1" stop-color="white"/>
</linearGradient>
<linearGradient id="paint3_linear_73_2682" x1="2.99988" y1="9.99955" x2="7.87772" y2="3.90225" gradientUnits="userSpaceOnUse">
<stop stop-color="#6BD6FE"/>
<stop offset="1" stop-color="white"/>
</linearGradient>
</defs>
</svg>
