<svg width="16" height="16" viewBox="0 0 16 16" fill="none" xmlns="http://www.w3.org/2000/svg">
<path fill-rule="evenodd" clip-rule="evenodd" d="M13.6533 1.13778C13.6533 0.509724 14.1631 0 14.7911 0C15.4192 0 15.9289 0.509724 15.9289 1.13778C15.9289 1.76583 15.4192 2.27556 14.7911 2.27556C14.1631 2.27556 13.6533 1.76583 13.6533 1.13778ZM12.4587 16H3.47022C1.55079 15.9795 0 14.4174 0 12.4922V3.50777C0 2.57707 0.369778 1.68505 1.02741 1.02741C1.68505 0.369778 2.57707 0 3.50777 0H11.3778C12.0058 0 12.5156 0.509724 12.5156 1.13778C12.5156 2.39388 13.535 3.41333 14.7911 3.41333C15.4192 3.41333 15.9289 3.92306 15.9289 4.55111V12.4922C15.9289 14.4174 14.3781 15.9795 12.4587 16Z" fill="url(#paint0_linear_73_2693)"/>
<path fill-rule="evenodd" clip-rule="evenodd" d="M3.85231 13.3334H8.11899C8.70779 13.3334 9.18565 12.8555 9.18565 12.2667C9.18565 11.6779 8.70779 11.2001 8.11899 11.2001H3.85231C3.26351 11.2001 2.78564 11.6779 2.78564 12.2667C2.78564 12.8555 3.26351 13.3334 3.85231 13.3334Z" fill="#8C4FD9"/>
<path fill-rule="evenodd" clip-rule="evenodd" d="M3.85244 9.21903H10.5572C11.146 9.21903 11.6239 8.74116 11.6239 8.15236C11.6239 7.56356 11.146 7.08569 10.5572 7.08569H3.85244C3.26364 7.08569 2.78577 7.56356 2.78577 8.15236C2.78577 8.74116 3.26364 9.21903 3.85244 9.21903Z" fill="#8C4FD9"/>
<path fill-rule="evenodd" clip-rule="evenodd" d="M5.07143 11.9619H9.33809C9.92689 11.9619 10.4048 11.4841 10.4048 10.8953C10.4048 10.3065 9.92689 9.82861 9.33809 9.82861H5.07143C4.48263 9.82861 4.00476 10.3065 4.00476 10.8953C4.00476 11.4841 4.48263 11.9619 5.07143 11.9619Z" fill="url(#paint1_linear_73_2693)"/>
<path fill-rule="evenodd" clip-rule="evenodd" d="M5.07155 7.84769H11.7763C12.3651 7.84769 12.843 7.36982 12.843 6.78102C12.843 6.19222 12.3651 5.71436 11.7763 5.71436H5.07155C4.48275 5.71436 4.00488 6.19222 4.00488 6.78102C4.00488 7.36982 4.48275 7.84769 5.07155 7.84769Z" fill="url(#paint2_linear_73_2693)"/>
<defs>
<linearGradient id="paint0_linear_73_2693" x1="3.98222" y1="14.8571" x2="14.5776" y2="2.55084" gradientUnits="userSpaceOnUse">
<stop stop-color="#A056FF"/>
<stop offset="1" stop-color="#C59AFD"/>
</linearGradient>
<linearGradient id="paint1_linear_73_2693" x1="6.21431" y1="11.9619" x2="14.0473" y2="8.26829" gradientUnits="userSpaceOnUse">
<stop stop-color="#C59AFD"/>
<stop offset="1" stop-color="white"/>
</linearGradient>
<linearGradient id="paint2_linear_73_2693" x1="6.21433" y1="11.9619" x2="14.0473" y2="8.26828" gradientUnits="userSpaceOnUse">
<stop stop-color="#C59AFD"/>
<stop offset="1" stop-color="white"/>
</linearGradient>
</defs>
</svg>
