<svg width="16" height="16" viewBox="0 0 16 16" fill="none" xmlns="http://www.w3.org/2000/svg">
<path fill-rule="evenodd" clip-rule="evenodd" d="M2.28571 14.8571C2.28571 15.488 1.77371 16 1.14286 16C0.512 16 0 15.488 0 14.8571C0 14.2263 0.512 13.7143 1.14286 13.7143C1.77371 13.7143 2.28571 14.2263 2.28571 14.8571ZM1.14286 12.5714C0.512 12.5714 0 12.0594 0 11.4286C0 11.4286 0 6.97829 0 3.368C0 2.47429 0.354286 1.61829 0.986286 0.986286C1.61829 0.354286 2.47429 0 3.368 0H9.51886C10.264 0 10.9886 0.241143 11.5851 0.688L14.6229 2.96686C15.4903 3.61714 16 4.63771 16 5.72114C16 7.80229 16 9.94172 16 12.632C16 13.5257 15.6457 14.3817 15.0137 15.0137C14.3817 15.6457 13.5257 16 12.632 16H4.57143C3.94057 16 3.42857 15.488 3.42857 14.8571C3.42857 13.5954 2.40457 12.5714 1.14286 12.5714Z" fill="url(#paint0_linear_73_2868)"/>
<path fill-rule="evenodd" clip-rule="evenodd" d="M12 13.0766V10.9234C12 9.30857 10.7119 8 9.12225 8C8.12325 8 6.87675 8 5.87775 8C4.28813 8 3 9.30857 3 10.9234V13.0766C3 14.6914 4.28813 16 5.87775 16C6.87675 16 8.12325 16 9.12225 16C10.7119 16 12 14.6914 12 13.0766ZM8.625 13.7143C8.625 13.7143 8.9715 10.2857 8.625 10.2857C7.626 10.2857 6.87675 10.2857 5.87775 10.2857C5.53125 10.2857 5.25 10.5714 5.25 10.9234V13.0766C5.25 13.4286 5.53125 13.7143 5.87775 13.7143H6.375V12.5714C6.375 11.9406 6.879 11.4286 7.5 11.4286C8.121 11.4286 8.625 11.9406 8.625 12.5714V13.7143Z" fill="#8CC860"/>
<path fill-rule="evenodd" clip-rule="evenodd" d="M13.2857 12.0766V9.92343C13.2857 8.30857 11.9771 7 10.3623 7C9.34739 7 8.08111 7 7.06625 7C5.45139 7 4.14282 8.30857 4.14282 9.92343V12.0766C4.14282 13.6914 5.45139 15 7.06625 15C8.08111 15 9.34739 15 10.3623 15C11.9771 15 13.2857 13.6914 13.2857 12.0766ZM9.85711 12.7143H10.3623C10.7143 12.7143 11 12.4286 11 12.0766V9.92343C11 9.57143 10.7143 9.28571 10.3623 9.28571C9.34739 9.28571 8.08111 9.28571 7.06625 9.28571C6.71425 9.28571 6.42854 9.57143 6.42854 9.92343V12.0766C6.42854 12.4286 6.71425 12.7143 7.06625 12.7143H7.57139V11.5714C7.57139 10.9406 8.08339 10.4286 8.71425 10.4286C9.34511 10.4286 9.85711 10.9406 9.85711 11.5714V12.7143Z" fill="url(#paint1_linear_73_2868)"/>
<defs>
<linearGradient id="paint0_linear_73_2868" x1="1.14286" y1="16" x2="11.7135" y2="0.624479" gradientUnits="userSpaceOnUse">
<stop stop-color="#9BE862"/>
<stop offset="1" stop-color="#C8FF9F"/>
</linearGradient>
<linearGradient id="paint1_linear_73_2868" x1="5.28568" y1="15" x2="12.1428" y2="8.14286" gradientUnits="userSpaceOnUse">
<stop stop-color="#C8FF9F"/>
<stop offset="1" stop-color="white"/>
</linearGradient>
</defs>
</svg>
