<svg width="16" height="16" viewBox="0 0 16 16" fill="none" xmlns="http://www.w3.org/2000/svg">
<path d="M1.93759 0.93759C1 1.87438 1 3.38317 1 6.39993V7.99992C1 11.0167 1 12.5255 1.93759 13.4623C2.43119 13.9567 3.08398 14.1903 4.03357 14.3007C3.87997 13.6287 3.87997 12.7039 3.87997 11.3727V7.51752C3.87997 5.33675 3.87997 4.24636 4.55436 3.56876C5.22956 2.89117 6.31515 2.89117 8.48792 2.89117H10.7919C12.1135 2.89117 13.0319 2.89117 13.7023 3.04317C13.5919 2.08878 13.3583 1.43359 12.8623 0.93759C11.9255 1.19209e-07 10.4167 0 7.39993 0C4.38317 0 2.87438 1.19209e-07 1.93759 0.93759Z" fill="url(#paint0_linear_73_2768)"/>
<path fill-rule="evenodd" clip-rule="evenodd" d="M4.09187 4.36877C3.93609 4.45168 3.79833 4.55323 3.67439 4.6776C3 5.3552 3 6.44559 3 8.62639V12.4824C3 13.1037 3 13.6364 3.01559 14.0964C3.31223 14.1909 3.6485 14.2559 4.03357 14.3007C3.87997 13.6287 3.87997 12.7039 3.87997 11.3727V7.51753C3.87997 6.03496 3.87997 5.05634 4.09187 4.36877Z" fill="#279FD7"/>
<path d="M3.87988 7.51774C3.87988 5.33693 3.87988 4.24654 4.55428 3.56895C5.22947 2.89136 6.31506 2.89136 8.48786 2.89136H10.7918C12.9638 2.89136 14.0494 2.89136 14.7246 3.56895C15.3998 4.24654 15.3998 5.33693 15.3998 7.51774V11.3737C15.3998 13.5545 15.3998 14.6449 14.7246 15.3225C14.0502 16.0001 12.9638 16.0001 10.7918 16.0001H8.48786C6.31506 16.0001 5.22947 16.0001 4.55428 15.3225C3.87988 14.6449 3.87988 13.5545 3.87988 11.3737V7.51774Z" fill="url(#paint1_linear_73_2768)"/>
<defs>
<linearGradient id="paint0_linear_73_2768" x1="2.27023" y1="14.3051" x2="7.93364" y2="-0.788006" gradientUnits="userSpaceOnUse">
<stop stop-color="#22B4FA"/>
<stop offset="1" stop-color="#6BD6FE"/>
</linearGradient>
<linearGradient id="paint1_linear_73_2768" x1="3.87988" y1="16.0001" x2="17.6167" y2="12.9821" gradientUnits="userSpaceOnUse">
<stop stop-color="#6BD6FE"/>
<stop offset="1" stop-color="white"/>
</linearGradient>
</defs>
</svg>
