<svg width="16" height="16" viewBox="0 0 16 16" fill="none" xmlns="http://www.w3.org/2000/svg">
<path fill-rule="evenodd" clip-rule="evenodd" d="M11.5577 1.51684C12.0604 1.53058 12.3637 2.08802 12.3637 2.59091C12.3637 3.79589 13.3405 4.77273 14.5455 4.77273C15.1844 4.77273 15.9599 5.10488 15.9803 5.74343C16 6.3622 16 7.07466 16 7.9C16 10.9168 16 12.4256 15.0368 13.3624C14.0736 14.3 12.5232 14.3 9.42321 14.3H7.3136C5.53201 14.3 4.6408 14.3 3.8968 13.8992C3.15341 13.4979 2.68158 12.7636 1.73833 11.2956L1.736 11.292L1.192 10.444C0.3976 9.2072 0 8.588 0 7.9C0 7.212 0.3976 6.5928 1.192 5.356L1.7376 4.508C2.6824 3.0368 3.1544 2.3024 3.8984 1.9008C4.6416 1.5 5.5328 1.5 7.3144 1.5H9.424C10.2357 1.5 10.9412 1.5 11.5577 1.51684ZM14.5455 3.68182C15.148 3.68182 15.6364 3.1934 15.6364 2.59091C15.6364 1.98842 15.148 1.5 14.5455 1.5C13.943 1.5 13.4546 1.98842 13.4546 2.59091C13.4546 3.1934 13.943 3.68182 14.5455 3.68182Z" fill="url(#paint0_linear_73_2764)"/>
<path d="M7.30909 6.87923L6.33662 5.90608C6.21941 5.78888 6.08025 5.69593 5.92712 5.63249C5.77399 5.56905 5.60988 5.5364 5.44412 5.53638C5.27834 5.53638 5.11421 5.56905 4.9611 5.63247C4.80796 5.69591 4.66882 5.78888 4.55161 5.90608C4.4344 6.02329 4.34144 6.16243 4.27798 6.31559C4.21456 6.4687 4.18191 6.63281 4.18191 6.79859C4.18191 6.96437 4.21456 7.12848 4.278 7.28161C4.34144 7.43475 4.4344 7.57389 4.55161 7.69109L5.52476 8.66356C5.65626 8.79497 5.65626 9.00817 5.52472 9.13958L4.55159 10.1121C4.31491 10.3488 4.18188 10.6698 4.18188 11.0046C4.18193 11.3393 4.31488 11.6604 4.55159 11.8971C4.7883 12.1338 5.10937 12.2667 5.4441 12.2668C5.77886 12.2668 6.09992 12.1338 6.3366 11.8971L7.30909 10.924C7.4405 10.7924 7.6537 10.7924 7.78511 10.9239L8.75758 11.8971C8.99428 12.1338 9.31534 12.2667 9.65008 12.2668C9.98483 12.2667 10.3059 12.1338 10.5426 11.8971C10.7793 11.6604 10.9123 11.3393 10.9123 11.0046C10.9123 10.6698 10.7793 10.3488 10.5426 10.112L9.56944 9.13958C9.43794 9.00817 9.43791 8.795 9.56946 8.66358L10.5426 7.69109C10.7793 7.45439 10.9123 7.13336 10.9123 6.79859C10.9123 6.46382 10.7793 6.14279 10.5426 5.90608C10.3059 5.66938 9.98485 5.53638 9.65008 5.53638C9.31531 5.53638 8.99428 5.66938 8.75758 5.90608L7.78509 6.87921C7.65367 7.01076 7.4405 7.01073 7.30909 6.87923Z" fill="#D84F4F"/>
<path d="M8.40003 5.78841L7.42757 4.81526C7.31036 4.69805 7.1712 4.60511 7.01806 4.54167C6.86493 4.47823 6.70082 4.44558 6.53506 4.44556C6.36928 4.44556 6.20515 4.47823 6.05204 4.54165C5.89891 4.60509 5.75976 4.69805 5.64256 4.81526C5.52535 4.93247 5.43238 5.07161 5.36892 5.22477C5.3055 5.37788 5.27285 5.54199 5.27285 5.70777C5.27285 5.87355 5.3055 6.03766 5.36894 6.19079C5.43238 6.34392 5.52535 6.48306 5.64256 6.60027L6.6157 7.57274C6.74721 7.70415 6.74721 7.91735 6.61566 8.04876L5.64253 9.02125C5.40585 9.25793 5.27283 9.57898 5.27283 9.91375C5.27287 10.2485 5.40583 10.5696 5.64253 10.8063C5.87924 11.043 6.20032 11.176 6.53504 11.176C6.86981 11.176 7.19086 11.043 7.42754 10.8063L8.40003 9.83313C8.53145 9.70159 8.74464 9.70159 8.87606 9.83309L9.84852 10.8063C10.0852 11.043 10.4063 11.176 10.741 11.176C11.0758 11.176 11.3968 11.043 11.6335 10.8063C11.8702 10.5696 12.0032 10.2485 12.0032 9.91373C12.0032 9.57896 11.8702 9.25793 11.6335 9.02123L10.6604 8.04876C10.5289 7.91735 10.5289 7.70417 10.6604 7.57276L11.6335 6.60027C11.8702 6.36357 12.0032 6.04254 12.0032 5.70777C12.0032 5.373 11.8702 5.05197 11.6335 4.81526C11.3968 4.57856 11.0758 4.44556 10.741 4.44556C10.4063 4.44556 10.0852 4.57856 9.84852 4.81526L8.87603 5.78839C8.74462 5.91993 8.53145 5.91991 8.40003 5.78841Z" fill="url(#paint1_linear_73_2764)"/>
<defs>
<linearGradient id="paint0_linear_73_2764" x1="3" y1="12.7" x2="10.5077" y2="1.43846" gradientUnits="userSpaceOnUse">
<stop stop-color="#FF405B"/>
<stop offset="1" stop-color="#FF8860"/>
</linearGradient>
<linearGradient id="paint1_linear_73_2764" x1="7.19505" y1="11.1759" x2="9.3918" y2="5.94562" gradientUnits="userSpaceOnUse">
<stop stop-color="#FF8860"/>
<stop offset="1" stop-color="white"/>
</linearGradient>
</defs>
</svg>
