<svg width="16" height="16" viewBox="0 0 16 16" fill="none" xmlns="http://www.w3.org/2000/svg">
<path fill-rule="evenodd" clip-rule="evenodd" d="M1 13C0.448 13 0 12.552 0 12V3.992C0 1.787 1.787 0 3.992 0C6.357 0 9.643 0 12.008 0C13.067 0 14.082 0.421001 14.831 1.169C15.579 1.918 16 2.933 16 3.992C16 6.357 16 9.643 16 12.008C16 14.213 14.213 16 12.008 16C8.751 16 4 16 4 16C3.448 16 3 15.552 3 15C3 13.896 2.104 13 1 13ZM1 14C1.552 14 2 14.448 2 15C2 15.552 1.552 16 1 16C0.448 16 0 15.552 0 15C0 14.448 0.448 14 1 14Z" fill="url(#paint0_linear_73_2988)"/>
<path fill-rule="evenodd" clip-rule="evenodd" d="M4.28636 5.71557C4.28636 4.13702 5.5662 2.85718 7.14475 2.85718C8.7233 2.85718 10.0031 4.13702 10.0031 5.71557V6.97349C10.0031 7.14366 10.1127 7.29194 10.2645 7.36893C10.9577 7.72067 11.4324 8.44027 11.4324 9.2707V12.1549C11.4324 12.7201 11.208 13.2625 10.8085 13.662C10.4091 14.0614 9.86667 14.2858 9.30142 14.2858H5.71557C5.32111 14.2858 5.00097 13.9657 5.00097 13.5712C5.00026 13.4126 4.97453 13.2546 4.92308 13.1046C4.85448 12.9059 4.74086 12.7237 4.59437 12.5729C4.44144 12.4164 4.25279 12.2956 4.04627 12.2227C3.89692 12.1699 3.73971 12.1434 3.58107 12.142H3.57178C3.17732 12.142 2.85718 11.8219 2.85718 11.4274V9.2707C2.85718 8.44027 3.3318 7.72068 4.02503 7.36894C4.17679 7.29194 4.28636 7.14367 4.28636 6.97349V5.71557ZM5.71556 6.85768C5.71556 7.07859 5.89464 7.25768 6.11556 7.25768H8.17395C8.39486 7.25768 8.57395 7.07859 8.57395 6.85768V5.71557C8.57395 4.92594 7.93438 4.28637 7.14475 4.28637C6.35512 4.28637 5.71556 4.92594 5.71556 5.71557V6.85768ZM6.43018 10.0032V11.4324C6.43018 11.8269 6.75032 12.147 7.14477 12.147C7.53923 12.147 7.85937 11.8269 7.85937 11.4324V10.0032C7.85937 9.60872 7.53923 9.28858 7.14477 9.28858C6.75032 9.28858 6.43018 9.60872 6.43018 10.0032Z" fill="#D84F4F"/>
<path d="M4.28637 13.571C4.28637 13.9655 3.96623 14.2856 3.57178 14.2856C3.17732 14.2856 2.85718 13.9655 2.85718 13.571C2.85718 13.1765 3.17732 12.8564 3.57178 12.8564C3.96623 12.8564 4.28637 13.1765 4.28637 13.571Z" fill="#D84F4F"/>
<path fill-rule="evenodd" clip-rule="evenodd" d="M5.20067 4.57263C5.20067 2.99408 6.48051 1.71423 8.05906 1.71423C9.63761 1.71423 10.9175 2.99408 10.9175 4.57263V5.83054C10.9175 6.00072 11.027 6.14899 11.1788 6.22599C11.872 6.57772 12.3467 7.29732 12.3467 8.12776V11.0118C12.3467 11.5771 12.1223 12.1195 11.7228 12.5189C11.3234 12.9184 10.781 13.1428 10.2157 13.1428H6.62988C6.23542 13.1428 5.91528 12.8226 5.91528 12.4282C5.91456 12.2695 5.88884 12.1116 5.83739 11.9615C5.76879 11.7629 5.65517 11.5807 5.50867 11.4299C5.35575 11.2734 5.16709 11.1526 4.96058 11.0797C4.81122 11.0268 4.65401 11.0004 4.49537 10.999H4.48608C4.09162 10.999 3.77148 10.6788 3.77148 10.2844V8.12776C3.77148 7.29733 4.2461 6.57773 4.93934 6.226C5.0911 6.149 5.20067 6.00072 5.20067 5.83055V4.57263ZM6.62986 5.71474C6.62986 5.93565 6.80895 6.11474 7.02986 6.11474H9.08826C9.30917 6.11474 9.48826 5.93565 9.48826 5.71474V4.57263C9.48826 3.783 8.84869 3.14343 8.05906 3.14343C7.26943 3.14343 6.62986 3.783 6.62986 4.57263V5.71474ZM7.34448 8.86024V10.2894C7.34448 10.6839 7.66462 11.004 8.05908 11.004C8.45354 11.004 8.77368 10.6839 8.77368 10.2894V8.86024C8.77368 8.46578 8.45354 8.14564 8.05908 8.14564C7.66462 8.14564 7.34448 8.46578 7.34448 8.86024Z" fill="url(#paint1_linear_73_2988)"/>
<path d="M5.20068 12.4283C5.20068 12.8227 4.88054 13.1429 4.48608 13.1429C4.09162 13.1429 3.77148 12.8227 3.77148 12.4283C3.77148 12.0338 4.09162 11.7137 4.48608 11.7137C4.88054 11.7137 5.20068 12.0338 5.20068 12.4283Z" fill="url(#paint2_linear_73_2988)"/>
<defs>
<linearGradient id="paint0_linear_73_2988" x1="3" y1="14" x2="13" y2="2" gradientUnits="userSpaceOnUse">
<stop stop-color="#FF405B"/>
<stop offset="1" stop-color="#FF8860"/>
</linearGradient>
<linearGradient id="paint1_linear_73_2988" x1="6.22058" y1="13.1425" x2="10.6737" y2="5.1874" gradientUnits="userSpaceOnUse">
<stop stop-color="#FF8860"/>
<stop offset="1" stop-color="white"/>
</linearGradient>
<linearGradient id="paint2_linear_73_2988" x1="6.22058" y1="13.1426" x2="10.6737" y2="5.18751" gradientUnits="userSpaceOnUse">
<stop stop-color="#FF8860"/>
<stop offset="1" stop-color="white"/>
</linearGradient>
</defs>
</svg>
