<svg width="16" height="16" viewBox="0 0 16 16" fill="none" xmlns="http://www.w3.org/2000/svg">
<path d="M8 15.7538C12.4183 15.7538 16 12.2272 16 7.87692C16 3.52662 12.4183 0 8 0C3.58172 0 0 3.52662 0 7.87692C0 12.2272 3.58172 15.7538 8 15.7538Z" fill="url(#paint0_linear_73_2898)"/>
<path d="M10.3529 6.20016C10.2076 6.19758 10.0676 6.25346 9.96518 6.35483L9.72088 6.59663L9.72566 6.60128L7.52622 8.76688C7.37 8.92069 7.37 9.17007 7.52622 9.32386L8.69848 10.4782C8.8547 10.632 9.10795 10.632 9.26416 10.4782L11.4696 8.30658L12.9224 6.91693C13.1773 6.67285 13.0063 6.24703 12.6507 6.24075L10.3529 6.20016Z" fill="#8CC860"/>
<path d="M5.09144 8.64437C5.23664 8.6418 5.37667 8.69765 5.4791 8.79905L5.72339 9.04082L5.71864 9.04549L7.91808 11.2111C8.0743 11.3649 8.0743 11.6143 7.91808 11.7681L6.74579 12.9223C6.5896 13.0761 6.33632 13.0761 6.18011 12.9223L3.97464 10.7508L2.52195 9.36115C2.26696 9.11707 2.43803 8.69124 2.79358 8.68496L5.09144 8.64437Z" fill="#8CC860"/>
<path d="M10.9528 4.70016C10.8076 4.69758 10.6676 4.75346 10.5652 4.85483L10.3209 5.09663L10.3256 5.10128L8.12619 7.26688C7.96998 7.42069 7.96998 7.67007 8.12619 7.82386L9.29846 8.97811C9.45467 9.13192 9.70793 9.13192 9.86414 8.97811L12.0696 6.80658L13.5223 5.41693C13.7773 5.17285 13.6062 4.74703 13.2507 4.74075L10.9528 4.70016Z" fill="url(#paint1_linear_73_2898)"/>
<path d="M5.69142 7.14437C5.83662 7.1418 5.97665 7.19765 6.07907 7.29905L6.32337 7.54082L6.31862 7.54549L8.51806 9.71109C8.67427 9.8649 8.67427 10.1143 8.51806 10.2681L7.34577 11.4223C7.18958 11.5761 6.9363 11.5761 6.78009 11.4223L4.57462 9.25079L3.12193 7.86115C2.86694 7.61707 3.03801 7.19124 3.39355 7.18496L5.69142 7.14437Z" fill="url(#paint2_linear_73_2898)"/>
<defs>
<linearGradient id="paint0_linear_73_2898" x1="1.14286" y1="15.7538" x2="11.4922" y2="0.465049" gradientUnits="userSpaceOnUse">
<stop stop-color="#9BE862"/>
<stop offset="1" stop-color="#C8FF9F"/>
</linearGradient>
<linearGradient id="paint1_linear_73_2898" x1="8.71344" y1="9.09347" x2="12.4543" y2="4.89505" gradientUnits="userSpaceOnUse">
<stop stop-color="#C8FF9F"/>
<stop offset="1" stop-color="white"/>
</linearGradient>
<linearGradient id="paint2_linear_73_2898" x1="3.7044" y1="11.5377" x2="7.44524" y2="7.33926" gradientUnits="userSpaceOnUse">
<stop stop-color="#C8FF9F"/>
<stop offset="1" stop-color="white"/>
</linearGradient>
</defs>
</svg>
