<svg width="16" height="16" viewBox="0 0 16 16" fill="none" xmlns="http://www.w3.org/2000/svg">
<path fill-rule="evenodd" clip-rule="evenodd" d="M3.94746 4.88697C3.50114 4.43362 3.01679 3.79749 3.31291 3.23442C4.32553 1.30895 6.31347 0 8.60007 0C11.9137 0 14.6001 2.7488 14.6001 6.1392C14.603 6.99899 14.4267 7.84992 14.0825 8.63781C13.7383 9.42565 13.2337 10.1332 12.6009 10.7152L12.5927 10.7227L12.5924 10.723C12.1887 11.0927 11.8882 11.3678 11.6753 11.568C11.5666 11.67 11.46 11.774 11.3553 11.88L11.3353 11.9016L11.3289 11.9096C11.1393 12.148 11.0985 12.2096 11.0745 12.2656C11.0505 12.3216 11.0321 12.3936 10.9841 12.6976C10.9657 12.8176 10.9633 13.0224 10.9633 13.5816V13.6056C10.9633 13.9328 10.9633 14.2152 10.9433 14.4464C10.9217 14.6912 10.8737 14.9344 10.7449 15.1624C10.6023 15.4161 10.3953 15.6277 10.1449 15.776C9.92247 15.908 9.68487 15.9568 9.44567 15.9792C9.21929 16 8.94332 16 8.62336 16H8.62327H8.57687H8.57678C8.25682 16 7.98085 16 7.75447 15.9792C7.51447 15.9568 7.27767 15.9072 7.05447 15.776C6.80429 15.6276 6.59762 15.416 6.45527 15.1624C6.32727 14.9344 6.27927 14.692 6.25687 14.4464C6.23607 14.2144 6.23607 13.9328 6.23607 13.6056V13.6056V13.5816C6.23607 13.0224 6.23447 12.8176 6.21527 12.6976C6.16727 12.3936 6.15047 12.3216 6.12567 12.2656C6.10167 12.2096 6.06087 12.148 5.87127 11.9088L5.86487 11.9008C5.75378 11.7874 5.64039 11.6761 5.52487 11.5672C5.31047 11.3672 5.00725 11.0888 4.59925 10.7144C3.96654 10.1325 3.462 9.42507 3.11779 8.63733C2.93718 8.22403 3.26949 7.78742 3.64911 7.54386C4.12601 7.23788 4.44201 6.703 4.44201 6.09431C4.44201 5.62392 4.2533 5.19762 3.94746 4.88697ZM2.14733 7.09466C2.78099 7.09466 3.29466 6.58099 3.29466 5.94733C3.29466 5.31368 2.78099 4.8 2.14733 4.8C1.51368 4.8 1 5.31368 1 5.94733C1 6.58099 1.51368 7.09466 2.14733 7.09466Z" fill="url(#paint0_linear_67_1347)"/>
<path d="M9.536 14.5H7C7.0024 14.5776 7.0056 14.6448 7.0112 14.7064C7.0256 14.8744 7.0512 14.9344 7.068 14.9648C7.11547 15.0495 7.18448 15.1201 7.268 15.1696C7.2976 15.1864 7.3568 15.2128 7.5208 15.2272C7.692 15.2432 7.9176 15.244 8.268 15.244C8.6176 15.244 8.844 15.244 9.0152 15.228C9.1784 15.212 9.2384 15.1864 9.268 15.1696C9.35152 15.1201 9.42048 15.0495 9.468 14.9648C9.484 14.9344 9.5096 14.8736 9.524 14.7064C9.5296 14.6456 9.5336 14.5776 9.536 14.5Z" fill="#8CC860"/>
<path d="M9.86803 14.14H7.33203C7.33443 14.2176 7.33763 14.2848 7.34323 14.3464C7.35763 14.5144 7.38323 14.5744 7.40003 14.6048C7.4475 14.6894 7.51651 14.7601 7.60003 14.8096C7.62963 14.8264 7.68883 14.8528 7.85283 14.8672C8.02403 14.8832 8.24963 14.884 8.60003 14.884C8.94963 14.884 9.17603 14.884 9.34723 14.868C9.51043 14.852 9.57043 14.8264 9.60003 14.8096C9.68355 14.7601 9.75251 14.6894 9.80003 14.6048C9.81603 14.5744 9.84163 14.5136 9.85603 14.3464C9.86163 14.2856 9.86563 14.2176 9.86803 14.14Z" fill="url(#paint1_linear_67_1347)"/>
<path fill-rule="evenodd" clip-rule="evenodd" d="M8.77439 6.56825C8.77439 6.98412 8.37591 7.32316 7.8872 7.32316C7.39848 7.32316 7 6.98412 7 6.56825V3.55489C7 3.13905 7.39848 2.79999 7.8872 2.79999C8.37591 2.79999 8.77439 3.13905 8.77439 3.55489V6.56825ZM7 9.10518C7 8.61226 7.39418 8.21036 7.87713 8.21036C8.37413 8.21036 8.76933 8.61226 8.76933 9.10518C8.76933 9.59811 8.37413 10 7.8872 10C7.39822 10 7 9.59811 7 9.10518Z" fill="#8CC860"/>
<path fill-rule="evenodd" clip-rule="evenodd" d="M9.57444 5.76826C9.57444 6.18413 9.17596 6.52317 8.68724 6.52317C8.19853 6.52317 7.80005 6.18413 7.80005 5.76826V2.75491C7.80005 2.33906 8.19853 2 8.68724 2C9.17596 2 9.57444 2.33906 9.57444 2.75491V5.76826ZM7.80005 8.3052C7.80005 7.81227 8.19423 7.41037 8.67718 7.41037C9.17418 7.41037 9.56938 7.81227 9.56938 8.3052C9.56938 8.79812 9.17418 9.20002 8.68724 9.20002C8.19827 9.20002 7.80005 8.79812 7.80005 8.3052Z" fill="url(#paint2_linear_67_1347)"/>
<defs>
<linearGradient id="paint0_linear_67_1347" x1="1.97144" y1="16" x2="13.0427" y2="2.31178" gradientUnits="userSpaceOnUse">
<stop stop-color="#9BE862"/>
<stop offset="1" stop-color="#C8FF9F"/>
</linearGradient>
<linearGradient id="paint1_linear_67_1347" x1="7.64903" y1="14.884" x2="8.03345" y2="13.7374" gradientUnits="userSpaceOnUse">
<stop stop-color="#C8FF9F"/>
<stop offset="1" stop-color="white"/>
</linearGradient>
<linearGradient id="paint2_linear_67_1347" x1="8.02185" y1="9.20002" x2="10.5652" y2="8.65159" gradientUnits="userSpaceOnUse">
<stop stop-color="#C8FF9F"/>
<stop offset="1" stop-color="white"/>
</linearGradient>
</defs>
</svg>
