<svg width="16" height="21" viewBox="0 0 16 21" fill="none" xmlns="http://www.w3.org/2000/svg">
<path fill-rule="evenodd" clip-rule="evenodd" d="M1 14C0.448 14 0 13.552 0 13V4.992C0 2.787 1.787 1 3.992 1C6.357 1 9.643 1 12.008 1C13.067 1 14.082 1.421 14.831 2.169C15.579 2.918 16 3.933 16 4.992C16 7.357 16 10.643 16 13.008C16 15.213 14.213 17 12.008 17C8.751 17 4 17 4 17C3.448 17 3 16.552 3 16C3 14.896 2.104 14 1 14ZM1 15C1.552 15 2 15.448 2 16C2 16.552 1.552 17 1 17C0.448 17 0 16.552 0 16C0 15.448 0.448 15 1 15Z" fill="url(#paint0_linear_73_3256)"/>
<path d="M6.33411 3.02121C6.33411 2.46864 5.88594 2.01985 5.33344 2.01144C5.01063 2.00652 4.70449 2.00124 4.41394 2.00019C3.88408 1.99827 3.47053 2.43442 3.47053 2.96429V4.42049C3.47053 4.97278 3.91824 5.42049 4.47052 5.42049H5.33411C5.8864 5.42049 6.33411 4.97278 6.33411 4.42049V3.02121ZM2.24328 3.24287C2.24328 2.62918 1.64995 2.16122 1.23309 2.61161C0.979015 2.88611 0.790106 3.21675 0.499997 3.5C0.234576 3.75915 0.135917 3.98414 0.088824 4.25313C-0.0173834 4.85976 0.523189 5.42049 1.13905 5.42049H1.24328C1.79557 5.42049 2.24328 4.97278 2.24328 4.42049V3.24287ZM13.7325 5.42049C14.3487 5.42049 14.8407 4.85878 14.6246 4.28175C14.4648 3.85518 14.2457 3.49886 13.9316 3.19169C13.6073 2.87463 13.2295 2.61243 12.7744 2.41761C12.2102 2.1761 11.6522 2.65897 11.6522 3.27267V4.42049C11.6522 4.97278 12.0999 5.42049 12.6522 5.42049H13.7325ZM7.56136 3.02121C7.56136 2.46864 8.00963 2.02084 8.56219 2.02083C8.86054 2.02083 9.14237 2.02075 9.42498 2.02066C9.97724 2.0205 10.4249 2.46817 10.4249 3.02043V4.42049C10.4249 4.97278 9.97721 5.42049 9.42492 5.42049H8.56136C8.00907 5.42049 7.56136 4.97278 7.56136 4.42049V3.02121ZM14.6135 15.7417C14.9065 15.1996 14.3885 14.6205 13.7723 14.6205H12.6522C12.0999 14.6205 11.6522 15.0682 11.6522 15.6205V16C11.6522 16.5523 12.1033 17.0326 12.6503 16.9562C13.0088 16.9061 13.3747 16.7988 13.8589 16.5688C13.9526 16.5243 14.0383 16.4634 14.111 16.3894C14.327 16.1696 14.4881 15.9737 14.6135 15.7417ZM9.42492 14.6205C9.97721 14.6205 10.4249 15.0682 10.4249 15.6205V16.0562C10.4249 16.5861 10.0114 17.0222 9.48151 17.0201C9.19118 17.019 8.88529 17.0136 8.56276 17.0087C8.00998 17.0003 7.56136 16.5515 7.56136 15.9986V15.6205C7.56136 15.0682 8.00907 14.6205 8.56136 14.6205H9.42492ZM5.33268 17.0088C5.88546 17.0003 6.33411 16.5514 6.33411 15.9986V15.6205C6.33411 15.0682 5.8864 14.6205 5.33411 14.6205H4.48298C3.92586 14.6205 3.47616 15.0758 3.48306 15.6329L3.48844 16.0678C3.49494 16.5929 3.90667 17.0221 4.43176 17.0201C4.71645 17.019 5.01577 17.0137 5.33268 17.0088Z" fill="#D84F4F"/>
<path d="M13.7045 13.6001H14.8246C15.4408 13.6001 15.9305 14.1624 15.7019 14.7347C15.5309 15.1627 15.2989 15.5201 14.9839 15.8281C14.6617 16.1431 14.2866 16.3736 13.8354 16.542C13.2607 16.7566 12.7045 16.2688 12.7045 15.6554V14.6001C12.7045 14.0478 13.1522 13.6001 13.7045 13.6001Z" fill="url(#paint1_linear_73_3256)"/>
<path d="M11.4772 16.001V14.6001C11.4772 14.0478 11.0295 13.6001 10.4772 13.6001H9.61366C9.06137 13.6001 8.61366 14.0478 8.61366 14.6001V15.9987C8.61366 16.5515 9.06227 17.0005 9.6151 16.9959C9.93777 16.9932 10.2438 16.9889 10.5342 16.9818C11.0639 16.9689 11.4772 16.5309 11.4772 16.001Z" fill="url(#paint2_linear_73_3256)"/>
<path d="M7.38642 14.6001V15.9987C7.38642 16.5515 6.9378 17.0005 6.38498 16.9959C6.0623 16.9932 5.75628 16.9889 5.46584 16.9818C4.93613 16.9689 4.52283 16.5309 4.52283 16.001V14.6001C4.52283 14.0478 4.97054 13.6001 5.52283 13.6001H6.38642C6.9387 13.6001 7.38642 14.0478 7.38642 14.6001Z" fill="url(#paint3_linear_73_3256)"/>
<path d="M5.46619 0.979743C5.75675 0.980794 6.06288 0.98608 6.38569 0.990995C6.93819 0.999408 7.38637 1.4482 7.38637 2.00076V3.40005C7.38637 3.95233 6.93865 4.40005 6.38637 4.40005H5.52278C4.9705 4.40005 4.52278 3.95233 4.52278 3.40005V1.94384C4.52278 1.41398 4.93633 0.977825 5.46619 0.979743Z" fill="url(#paint4_linear_73_3256)"/>
<path d="M1.01696 2.17125C1.34193 1.85396 1.72042 1.58118 2.17663 1.37767C2.73708 1.12764 3.29554 1.60874 3.29554 2.22244V3.40006C3.29554 3.95234 2.84782 4.40006 2.29554 4.40006H1.22657C0.610709 4.40006 0.118014 3.83905 0.330287 3.26093C0.48685 2.83453 0.70245 2.47833 1.01696 2.17125Z" fill="url(#paint5_linear_73_3256)"/>
<path d="M14.9838 2.17122C15.298 2.47839 15.517 2.83472 15.6768 3.26129C15.893 3.83831 15.4009 4.40003 14.7847 4.40003H13.7044C13.1521 4.40003 12.7044 3.95231 12.7044 3.40003V2.2522C12.7044 1.6385 13.2625 1.15563 13.8267 1.39715C14.2817 1.59197 14.6596 1.85417 14.9838 2.17122Z" fill="url(#paint6_linear_73_3256)"/>
<path d="M10.4772 1.00024L9.61446 1.00041C9.06189 1.00042 8.61362 1.44822 8.61362 2.00079V3.40008C8.61362 3.95236 9.06134 4.40008 9.61362 4.40008H10.4772C11.0295 4.40008 11.4772 3.95236 11.4772 3.40008V2.00001C11.4772 1.44775 11.0295 1.00008 10.4772 1.00024Z" fill="url(#paint7_linear_73_3256)"/>
<path fill-rule="evenodd" clip-rule="evenodd" d="M3.19995 8V12C3.19995 12.552 3.64795 13 4.19995 13C4.75195 13 5.19995 12.552 5.19995 12V8C5.19995 7.448 4.75195 7 4.19995 7C3.64795 7 3.19995 7.448 3.19995 8Z" fill="#D84F4F"/>
<g filter="url(#filter0_d_73_3256)">
<path fill-rule="evenodd" clip-rule="evenodd" d="M9.19995 8V12C9.19995 12.552 9.64795 13 10.2 13C10.752 13 11.2 12.552 11.2 12V8C11.2 7.448 10.752 7 10.2 7C9.64795 7 9.19995 7.448 9.19995 8Z" fill="#D84F4F"/>
</g>
<path fill-rule="evenodd" clip-rule="evenodd" d="M4.18225 6.5V11.5C4.18225 12.052 4.63025 12.5 5.18225 12.5C5.73425 12.5 6.18225 12.052 6.18225 11.5V6.5C6.18225 5.948 5.73425 5.5 5.18225 5.5C4.63025 5.5 4.18225 5.948 4.18225 6.5Z" fill="url(#paint8_linear_73_3256)"/>
<path fill-rule="evenodd" clip-rule="evenodd" d="M10.2 6.5V11.5C10.2 12.052 10.648 12.5 11.2 12.5C11.752 12.5 12.2 12.052 12.2 11.5V6.5C12.2 5.948 11.752 5.5 11.2 5.5C10.648 5.5 10.2 5.948 10.2 6.5Z" fill="url(#paint9_linear_73_3256)"/>
<defs>
<filter id="filter0_d_73_3256" x="5.19995" y="7" width="10" height="14" filterUnits="userSpaceOnUse" color-interpolation-filters="sRGB">
<feFlood flood-opacity="0" result="BackgroundImageFix"/>
<feColorMatrix in="SourceAlpha" type="matrix" values="0 0 0 0 0 0 0 0 0 0 0 0 0 0 0 0 0 0 127 0" result="hardAlpha"/>
<feOffset dy="4"/>
<feGaussianBlur stdDeviation="2"/>
<feComposite in2="hardAlpha" operator="out"/>
<feColorMatrix type="matrix" values="0 0 0 0 0 0 0 0 0 0 0 0 0 0 0 0 0 0 0.25 0"/>
<feBlend mode="normal" in2="BackgroundImageFix" result="effect1_dropShadow_73_3256"/>
<feBlend mode="normal" in="SourceGraphic" in2="effect1_dropShadow_73_3256" result="shape"/>
</filter>
<linearGradient id="paint0_linear_73_3256" x1="3" y1="15" x2="13" y2="3" gradientUnits="userSpaceOnUse">
<stop stop-color="#FF405B"/>
<stop offset="1" stop-color="#FF8860"/>
</linearGradient>
<linearGradient id="paint1_linear_73_3256" x1="7.80074" y1="17" x2="8.18159" y2="13.9392" gradientUnits="userSpaceOnUse">
<stop stop-color="#FF8860"/>
<stop offset="1" stop-color="white"/>
</linearGradient>
<linearGradient id="paint2_linear_73_3256" x1="7.80074" y1="17" x2="8.18159" y2="13.9392" gradientUnits="userSpaceOnUse">
<stop stop-color="#FF8860"/>
<stop offset="1" stop-color="white"/>
</linearGradient>
<linearGradient id="paint3_linear_73_3256" x1="7.80074" y1="17" x2="8.18159" y2="13.9392" gradientUnits="userSpaceOnUse">
<stop stop-color="#FF8860"/>
<stop offset="1" stop-color="white"/>
</linearGradient>
<linearGradient id="paint4_linear_73_3256" x1="4.69227" y1="4.39997" x2="4.98054" y2="1.29997" gradientUnits="userSpaceOnUse">
<stop stop-color="#FF8860"/>
<stop offset="1" stop-color="white"/>
</linearGradient>
<linearGradient id="paint5_linear_73_3256" x1="4.69227" y1="4.39998" x2="4.98054" y2="1.29998" gradientUnits="userSpaceOnUse">
<stop stop-color="#FF8860"/>
<stop offset="1" stop-color="white"/>
</linearGradient>
<linearGradient id="paint6_linear_73_3256" x1="4.69228" y1="4.39995" x2="4.98055" y2="1.29995" gradientUnits="userSpaceOnUse">
<stop stop-color="#FF8860"/>
<stop offset="1" stop-color="white"/>
</linearGradient>
<linearGradient id="paint7_linear_73_3256" x1="4.69228" y1="4.4" x2="4.98055" y2="1.29999" gradientUnits="userSpaceOnUse">
<stop stop-color="#FF8860"/>
<stop offset="1" stop-color="white"/>
</linearGradient>
<linearGradient id="paint8_linear_73_3256" x1="4.75346" y1="12.4998" x2="7.72947" y2="10.4754" gradientUnits="userSpaceOnUse">
<stop stop-color="#FF8860"/>
<stop offset="1" stop-color="white"/>
</linearGradient>
<linearGradient id="paint9_linear_73_3256" x1="10.7712" y1="12.4998" x2="13.7472" y2="10.4754" gradientUnits="userSpaceOnUse">
<stop stop-color="#FF8860"/>
<stop offset="1" stop-color="white"/>
</linearGradient>
</defs>
</svg>
