<svg width="16" height="16" viewBox="0 0 16 16" fill="none" xmlns="http://www.w3.org/2000/svg">
<path d="M9.47743 2.15214C9.97479 2.5993 10.29 3.21395 10.363 3.87877L10.3939 5.69697V7.2121C10.3923 7.77196 10.2182 8.31775 9.89522 8.77511C9.58395 9.21589 9.14895 9.55387 8.64596 9.7468C8.60834 9.7612 8.56883 9.76983 8.52868 9.77361L6.78846 9.93938H3.30303C3.03526 9.93938 2.81818 10.1564 2.81818 10.4242V15.0909C2.81818 15.332 2.7224 15.5632 2.55192 15.7337C2.38143 15.9042 2.1502 16 1.90909 16C1.66799 16 1.43675 15.9042 1.26626 15.7337C1.09578 15.5632 1 15.332 1 15.0909V4.1818C1.0008 3.45873 1.28839 2.76551 1.79968 2.25421C2.31098 1.74292 3.0042 1.45533 3.72727 1.45453H7.66667C8.33547 1.45664 8.98012 1.70498 9.47743 2.15214Z" fill="url(#paint0_linear_73_3299)"/>
<path fill-rule="evenodd" clip-rule="evenodd" d="M10.363 3.87874C10.29 3.21393 9.97479 2.59927 9.47743 2.15211C9.41783 2.09853 9.35612 2.04779 9.2925 2H6.5C5.11929 2 4 3.11929 4 4.5V8.25758C4 8.90519 4.24624 9.49529 4.65021 9.93935H6.78846L8.52868 9.77358C8.56883 9.7698 8.60834 9.76117 8.64596 9.74677C9.14895 9.55385 9.58395 9.21586 9.89522 8.77508C10.2182 8.31773 10.3923 7.77193 10.3939 7.21208V5.69695L10.363 3.87874Z" fill="#D84F4F"/>
<path d="M13.5 0H8.5C7.11929 0 6 1.11929 6 2.5V6.38889C6 7.7696 7.11929 8.88889 8.5 8.88889H13.5C14.8807 8.88889 16 7.7696 16 6.38889V2.5C16 1.11929 14.8807 0 13.5 0Z" fill="url(#paint1_linear_73_3299)"/>
<defs>
<linearGradient id="paint0_linear_73_3299" x1="2.76136" y1="14.1818" x2="11.7115" y2="7.24547" gradientUnits="userSpaceOnUse">
<stop stop-color="#FF405B"/>
<stop offset="1" stop-color="#FF8860"/>
</linearGradient>
<linearGradient id="paint1_linear_73_3299" x1="7.09371" y1="8.4375" x2="14.786" y2="-1.84561" gradientUnits="userSpaceOnUse">
<stop offset="0.244994" stop-color="#FF8860"/>
<stop offset="1" stop-color="white"/>
</linearGradient>
</defs>
</svg>
