<svg width="16" height="16" viewBox="0 0 16 16" fill="none" xmlns="http://www.w3.org/2000/svg">
<path d="M11.4286 4.71429H2.28571C1.02335 4.71429 0 5.73764 0 7.00001V9.85715C0 11.1195 1.02335 12.1429 2.28571 12.1429H11.4286C12.6909 12.1429 13.7143 11.1195 13.7143 9.85715V7.00001C13.7143 5.73764 12.6909 4.71429 11.4286 4.71429Z" fill="url(#paint0_linear_73_3330)"/>
<path d="M14 6.71429C14 5.60972 12.9255 4.71429 11.6 4.71429H4.4C3.07452 4.71429 2 5.60972 2 6.71429V12.1135H11.6C12.9255 12.1135 14 10.8189 14 9.71429V6.71429Z" fill="#B85C68"/>
<path d="M13.4857 3H5.94287C4.55427 3 3.42859 4.02335 3.42859 5.28571V11C3.42859 12.2624 4.55427 13.2857 5.94287 13.2857H13.4857C14.8743 13.2857 16 12.2624 16 11V5.28571C16 4.02335 14.8743 3 13.4857 3Z" fill="url(#paint1_linear_73_3330)"/>
<path d="M14 5.9C14.3866 5.9 14.7 5.5866 14.7 5.2C14.7 4.8134 14.3866 4.5 14 4.5C13.6134 4.5 13.3 4.8134 13.3 5.2C13.3 5.5866 13.6134 5.9 14 5.9Z" fill="url(#paint2_linear_73_3330)"/>
<path d="M12.0999 5.9C12.4865 5.9 12.7999 5.5866 12.7999 5.2C12.7999 4.8134 12.4865 4.5 12.0999 4.5C11.7133 4.5 11.3999 4.8134 11.3999 5.2C11.3999 5.5866 11.7133 5.9 12.0999 5.9Z" fill="url(#paint3_linear_73_3330)"/>
<path d="M10.0999 5.9C10.4865 5.9 10.7999 5.5866 10.7999 5.2C10.7999 4.8134 10.4865 4.5 10.0999 4.5C9.7133 4.5 9.3999 4.8134 9.3999 5.2C9.3999 5.5866 9.7133 5.9 10.0999 5.9Z" fill="url(#paint4_linear_73_3330)"/>
<defs>
<linearGradient id="paint0_linear_73_3330" x1="0.979592" y1="11.6881" x2="9.11615" y2="3.58158" gradientUnits="userSpaceOnUse">
<stop stop-color="#B65592"/>
<stop offset="0.5" stop-color="#FB6F71"/>
<stop offset="1" stop-color="#F9CB52"/>
</linearGradient>
<linearGradient id="paint1_linear_73_3330" x1="4.32655" y1="12.656" x2="14.6829" y2="5.82504" gradientUnits="userSpaceOnUse">
<stop stop-color="#D4A4C4"/>
<stop offset="0.5" stop-color="#F7B1B3"/>
<stop offset="1" stop-color="#F7E1A3"/>
</linearGradient>
<linearGradient id="paint2_linear_73_3330" x1="13.4" y1="5.81429" x2="14.6818" y2="5.12255" gradientUnits="userSpaceOnUse">
<stop stop-color="#B65592"/>
<stop offset="0.5" stop-color="#FB6F71"/>
<stop offset="1" stop-color="#F9CB52"/>
</linearGradient>
<linearGradient id="paint3_linear_73_3330" x1="11.4999" y1="5.81429" x2="12.7817" y2="5.12255" gradientUnits="userSpaceOnUse">
<stop stop-color="#B65592"/>
<stop offset="0.5" stop-color="#FB6F71"/>
<stop offset="1" stop-color="#F9CB52"/>
</linearGradient>
<linearGradient id="paint4_linear_73_3330" x1="9.4999" y1="5.81429" x2="10.7817" y2="5.12255" gradientUnits="userSpaceOnUse">
<stop stop-color="#B65592"/>
<stop offset="0.5" stop-color="#FB6F71"/>
<stop offset="1" stop-color="#F9CB52"/>
</linearGradient>
</defs>
</svg>
