<svg width="24" height="24" viewBox="0 0 24 24" fill="none" xmlns="http://www.w3.org/2000/svg">
<path d="M20 13V10.798C20 8.166 20 6.849 19.23 5.994C19.1594 5.91508 19.0846 5.83997 19.006 5.769C18.151 5 16.834 5 14.202 5H13.828C12.675 5 12.098 5 11.56 4.847C11.2648 4.7626 10.9802 4.64449 10.712 4.495C10.224 4.224 9.816 3.815 9 3L8.45 2.45C8.176 2.176 8.04 2.04 7.896 1.92C7.27667 1.40664 6.51694 1.09194 5.716 1.017C5.53 1 5.336 1 4.95 1C4.067 1 3.626 1 3.258 1.07C2.46784 1.21922 1.741 1.60314 1.17231 2.17165C0.603613 2.74017 0.219472 3.46689 0.0699999 4.257C-6.70552e-08 4.626 0 5.068 0 5.95V13C0 16.771 -1.19209e-07 18.657 1.172 19.828C2.343 21 4.229 21 8 21H12C15.771 21 17.657 21 18.828 19.828C20 18.657 20 16.771 20 13Z" fill="url(#paint0_linear_73_3341)"/>
<path opacity="0.8" fill-rule="evenodd" clip-rule="evenodd" d="M20 10.798V13C20 16.771 20 18.657 18.828 19.828C17.657 21 15.771 21 12 21H8C5.05571 21 3.26053 21 2.05757 20.4422C2 19.5093 2 18.3811 2 17V9.95C2 9.068 2 8.626 2.07 8.257C2.21947 7.46689 2.60361 6.74017 3.17231 6.17165C3.741 5.60314 4.46784 5.21922 5.258 5.07C5.626 5 6.067 5 6.95 5C7.336 5 7.53 5 7.716 5.017C8.5169 5.09194 9.2767 5.40664 9.896 5.92C10.04 6.04 10.176 6.176 10.45 6.44999L11 7L11.0167 7.01671C11.8216 7.8206 12.2273 8.22586 12.712 8.495C12.9802 8.64449 13.2648 8.7626 13.56 8.847C14.098 9 14.675 9 15.828 9H16.202C17.9751 9 19.1514 9 19.9917 9.23509C20 9.69787 20 10.2158 20 10.798Z" fill="#D49F34"/>
<path d="M24 15V12.798C24 10.166 24 8.849 23.23 7.994C23.1594 7.91508 23.0846 7.83997 23.006 7.769C22.151 7 20.834 7 18.202 7H17.828C16.675 7 16.098 7 15.56 6.847C15.2648 6.7626 14.9802 6.64449 14.712 6.495C14.224 6.224 13.816 5.815 13 5L12.45 4.45C12.176 4.176 12.04 4.04 11.896 3.92C11.2767 3.40664 10.5169 3.09194 9.716 3.017C9.53 3 9.336 3 8.95 3C8.067 3 7.626 3 7.258 3.07C6.46784 3.21922 5.741 3.60314 5.17231 4.17165C4.60361 4.74017 4.21947 5.46689 4.07 6.257C4 6.626 4 7.068 4 7.95V15C4 18.771 4 20.657 5.172 21.828C6.343 23 8.229 23 12 23H16C19.771 23 21.657 23 22.828 21.828C24 20.657 24 18.771 24 15Z" fill="url(#paint1_linear_73_3341)"/>
<defs>
<linearGradient id="paint0_linear_73_3341" x1="3.75" y1="19.7485" x2="16.2488" y2="4.74875" gradientUnits="userSpaceOnUse">
<stop stop-color="#FF8860"/>
<stop offset="1" stop-color="#FBD92C"/>
</linearGradient>
<linearGradient id="paint1_linear_73_3341" x1="9" y1="18" x2="19" y2="8" gradientUnits="userSpaceOnUse">
<stop stop-color="#FBD92C"/>
<stop offset="1" stop-color="white"/>
</linearGradient>
</defs>
</svg>
