<svg width="16" height="16" viewBox="0 0 16 16" fill="none" xmlns="http://www.w3.org/2000/svg">
<path d="M16 5.5V11.5C15.999 12.4721 15.6123 13.4042 14.9249 14.0916C14.2375 14.779 13.3055 15.1656 12.3333 15.1667H3.66668C2.69454 15.1656 1.76252 14.779 1.07511 14.0916C0.387708 13.4042 0.00105931 12.4721 0 11.5V4.16668C0.00105931 3.19454 0.387708 2.26251 1.07511 1.57511C1.76252 0.887708 2.69454 0.501059 3.66668 0.5H5.33332C5.48861 0.499906 5.64177 0.53597 5.78066 0.605333L8.00298 1.71679C8.15622 1.79343 8.32521 1.83333 8.49655 1.83333H12.3333C13.3055 1.83439 14.2375 2.22105 14.9249 2.90844C15.6123 3.59586 15.999 4.52786 16 5.5Z" fill="url(#paint0_linear_73_3345)"/>
<path d="M10.9333 10.5138C11.1747 10.2723 11.3103 9.9449 11.3103 9.60346C11.3103 9.26203 11.1747 8.93461 10.9333 8.69315C10.6918 8.45174 10.3644 8.3161 10.023 8.3161H9.09073C8.8946 8.3161 8.73562 8.15712 8.73562 7.96098V7.02876C8.73562 6.68733 8.59997 6.3599 8.35857 6.11844C8.11711 5.87701 7.78969 5.74139 7.44825 5.74139C7.10682 5.74139 6.7794 5.87701 6.53793 6.11844C6.29653 6.3599 6.16088 6.68733 6.16088 7.02876V7.96098C6.16088 8.15712 6.00191 8.3161 5.80577 8.3161H4.87355C4.53211 8.3161 4.20469 8.45174 3.96323 8.69315C3.7218 8.93461 3.58618 9.26203 3.58618 9.60346C3.58618 9.9449 3.7218 10.2723 3.96323 10.5138C4.20469 10.7552 4.53211 10.8908 4.87355 10.8908H5.80577C6.00191 10.8908 6.16088 11.0498 6.16088 11.2459V12.1782C6.16088 12.5196 6.29653 12.847 6.53793 13.0885C6.7794 13.3299 7.10682 13.4655 7.44825 13.4655C7.78969 13.4655 8.11711 13.3299 8.35857 13.0885C8.59997 12.847 8.73562 12.5196 8.73562 12.1782V11.2459C8.73562 11.0498 8.8946 10.8908 9.09073 10.8908H10.023C10.3644 10.8908 10.6918 10.7552 10.9333 10.5138Z" fill="#7FD1AE"/>
<path d="M11.485 9.6862C11.7265 9.44474 11.8621 9.11732 11.8621 8.77589C11.8621 8.43445 11.7265 8.10703 11.485 7.86557C11.2436 7.62416 10.9161 7.48852 10.5747 7.48852H9.64249C9.44635 7.48852 9.28737 7.32954 9.28737 7.1334V6.20118C9.28737 5.85975 9.15173 5.53233 8.91033 5.29087C8.66886 5.04943 8.34144 4.91382 8.00001 4.91382C7.65857 4.91382 7.33115 5.04943 7.08969 5.29087C6.84828 5.53233 6.71264 5.85975 6.71264 6.20118V7.1334C6.71264 7.32954 6.55366 7.48852 6.35753 7.48852H5.42531C5.08387 7.48852 4.75645 7.62416 4.51499 7.86557C4.27355 8.10703 4.13794 8.43445 4.13794 8.77589C4.13794 9.11732 4.27355 9.44474 4.51499 9.6862C4.75645 9.92761 5.08387 10.0633 5.42531 10.0633H6.35753C6.55366 10.0633 6.71264 10.2222 6.71264 10.4184V11.3506C6.71264 11.692 6.84828 12.0194 7.08969 12.2609C7.33115 12.5023 7.65857 12.638 8.00001 12.638C8.34144 12.638 8.66886 12.5023 8.91033 12.2609C9.15173 12.0194 9.28737 11.692 9.28737 11.3506V10.4184C9.28737 10.2222 9.44635 10.0633 9.64249 10.0633H10.5747C10.9161 10.0633 11.2436 9.92761 11.485 9.6862Z" fill="url(#paint1_linear_73_3345)"/>
<defs>
<linearGradient id="paint0_linear_73_3345" x1="2" y1="13.3337" x2="16.8294" y2="9.60057" gradientUnits="userSpaceOnUse">
<stop stop-color="#62E8AF"/>
<stop offset="1" stop-color="#B3FBDC"/>
</linearGradient>
<linearGradient id="paint1_linear_73_3345" x1="4.13794" y1="12.638" x2="6.40974" y2="3.55074" gradientUnits="userSpaceOnUse">
<stop stop-color="#B3FBDC"/>
<stop offset="1" stop-color="white"/>
</linearGradient>
</defs>
</svg>
