<svg width="16" height="16" viewBox="0 0 16 16" fill="none" xmlns="http://www.w3.org/2000/svg">
<path d="M9.57152 8.97558L14.1425 9.37983C15.1683 9.37983 16 8.54004 16 7.50421C16 6.46845 15.1683 5.62866 14.1425 5.62866L9.57152 6.03291C8.76676 6.03291 8.11436 6.69166 8.11436 7.50421C8.11436 8.31818 8.76676 8.97558 9.57152 8.97558Z" fill="url(#paint0_linear_113_590)"/>
<path fill-rule="evenodd" clip-rule="evenodd" d="M10.9683 9.10069L9.56992 8.97702C8.76516 8.97702 8.11276 8.31961 8.11276 7.50564C8.11276 6.6931 8.76516 6.03435 9.56992 6.03435L10.8182 5.92395C10.9107 6.59468 10.9713 7.58367 10.9713 8.66403C10.9713 8.81153 10.9703 8.95727 10.9683 9.10069Z" fill="#8C4FD9"/>
<path d="M2.28786 8.46638C2.33217 8.51118 2.49777 8.70034 2.65336 8.85741C3.56075 9.84124 5.93014 11.45 7.16961 11.9423C7.35778 12.0209 7.83368 12.1881 8.08873 12.1999C8.3321 12.1999 8.56463 12.1433 8.78627 12.0319C9.0631 11.8756 9.2839 11.629 9.40598 11.3385C9.48375 11.1375 9.60588 10.5337 9.60588 10.5228C9.72712 9.86318 9.79321 8.79068 9.79321 7.60503C9.79321 6.47679 9.72712 5.4482 9.62761 4.77768C9.61677 4.76585 9.49464 4.01677 9.36167 3.76004C9.1183 3.29051 8.6424 3 8.13309 3H8.08873C7.7567 3.01098 7.05921 3.30233 7.05921 3.31246C5.88583 3.8048 3.57248 5.33588 2.64247 6.35348C2.64247 6.35348 2.37988 6.61528 2.26612 6.77827C2.0888 7.01301 2.00013 7.30355 2.00013 7.59403C2.00013 7.91833 2.09969 8.21981 2.28786 8.46638Z" fill="url(#paint1_linear_113_590)"/>
<path fill-rule="evenodd" clip-rule="evenodd" d="M2.37193 8.55737C2.33302 8.51464 2.30318 8.48187 2.28786 8.46638C2.09969 8.21981 2.00013 7.91833 2.00013 7.59403C2.00013 7.30354 2.0888 7.01301 2.26612 6.77826C2.37987 6.61528 2.64247 6.35347 2.64247 6.35347C2.72655 6.26147 2.82194 6.16527 2.92678 6.06602C3.11085 6.02284 3.30276 6 3.5 6C4.88071 6 6 7.11928 6 8.5C6 9.3907 5.5342 10.1726 4.8329 10.6154C3.95549 10.0206 3.11512 9.35807 2.65336 8.85741C2.55158 8.75466 2.44552 8.63819 2.37193 8.55737Z" fill="#8C4FD9"/>
<circle cx="2.5" cy="7.69989" r="2.5" transform="rotate(-180 2.5 7.69989)" fill="url(#paint2_linear_113_590)"/>
<defs>
<linearGradient id="paint0_linear_113_590" x1="8.67762" y1="6.56645" x2="11.1645" y2="11.0475" gradientUnits="userSpaceOnUse">
<stop stop-color="#A056FF"/>
<stop offset="1" stop-color="#C59AFD"/>
</linearGradient>
<linearGradient id="paint1_linear_113_590" x1="2.55678" y1="5.29997" x2="9.39105" y2="10.2621" gradientUnits="userSpaceOnUse">
<stop stop-color="#A056FF"/>
<stop offset="1" stop-color="#C59AFD"/>
</linearGradient>
<linearGradient id="paint2_linear_113_590" x1="1.25" y1="10.1999" x2="6.125" y2="8.57489" gradientUnits="userSpaceOnUse">
<stop stop-color="#C59AFD"/>
<stop offset="1" stop-color="white"/>
</linearGradient>
</defs>
</svg>
