<svg width="16" height="16" viewBox="0 0 16 16" fill="none" xmlns="http://www.w3.org/2000/svg">
<path d="M6.42848 6.22431L1.8575 5.82006C0.831694 5.82006 0 6.65985 0 7.69568C0 8.73144 0.831694 9.57123 1.8575 9.57123L6.42848 9.16698C7.23324 9.16698 7.88564 8.50823 7.88564 7.69568C7.88564 6.88171 7.23324 6.22431 6.42848 6.22431Z" fill="url(#paint0_linear_113_547)"/>
<path fill-rule="evenodd" clip-rule="evenodd" d="M5.03173 6.0992L6.43008 6.22287C7.23484 6.22287 7.88724 6.88028 7.88724 7.69425C7.88724 8.50679 7.23484 9.16555 6.43008 9.16555L5.1818 9.27594C5.08929 8.60521 5.02869 7.61622 5.02869 6.53586C5.02869 6.38836 5.02971 6.24262 5.03173 6.0992Z" fill="#8C4FD9"/>
<path d="M13.7121 6.73351C13.6678 6.68871 13.5022 6.49955 13.3466 6.34248C12.4392 5.35865 10.0699 3.74988 8.83039 3.25757C8.64222 3.17901 8.16632 3.01178 7.91127 3C7.6679 3 7.43537 3.05658 7.21373 3.16802C6.9369 3.32425 6.7161 3.57087 6.59402 3.86136C6.51625 4.06235 6.39412 4.66619 6.39412 4.67713C6.27288 5.33671 6.20679 6.40921 6.20679 7.59487C6.20679 8.7231 6.27288 9.75169 6.37239 10.4222C6.38323 10.434 6.50536 11.1831 6.63833 11.4398C6.8817 11.9094 7.3576 12.1999 7.86691 12.1999H7.91127C8.2433 12.1889 8.94079 11.8976 8.94079 11.8874C10.1142 11.3951 12.4275 9.86401 13.3575 8.84641C13.3575 8.84641 13.6201 8.58461 13.7339 8.42163C13.9112 8.18688 13.9999 7.89634 13.9999 7.60586C13.9999 7.28156 13.9003 6.98008 13.7121 6.73351Z" fill="url(#paint1_linear_113_547)"/>
<path fill-rule="evenodd" clip-rule="evenodd" d="M13.6281 6.64252C13.667 6.68525 13.6968 6.71801 13.7121 6.73351C13.9003 6.98008 13.9999 7.28156 13.9999 7.60586C13.9999 7.89634 13.9112 8.18688 13.7339 8.42162C13.6201 8.58461 13.3575 8.84641 13.3575 8.84641C12.8788 9.37028 12.0334 10.0302 11.1656 10.6145C10.4651 10.1715 10 9.39008 10 8.5C10 7.11929 11.1193 6 12.5 6C12.6963 6 12.8874 6.02263 13.0707 6.06543C13.1731 6.16193 13.2657 6.25469 13.3466 6.34248C13.4484 6.44522 13.5545 6.5617 13.6281 6.64252Z" fill="#8C4FD9"/>
<circle cx="13.5" cy="7.5" r="2.5" fill="url(#paint2_linear_113_547)"/>
<defs>
<linearGradient id="paint0_linear_113_547" x1="7.32238" y1="8.63344" x2="4.8355" y2="4.1524" gradientUnits="userSpaceOnUse">
<stop stop-color="#A056FF"/>
<stop offset="1" stop-color="#C59AFD"/>
</linearGradient>
<linearGradient id="paint1_linear_113_547" x1="13.4432" y1="9.89992" x2="6.60895" y2="4.93775" gradientUnits="userSpaceOnUse">
<stop stop-color="#A056FF"/>
<stop offset="1" stop-color="#C59AFD"/>
</linearGradient>
<linearGradient id="paint2_linear_113_547" x1="12.25" y1="10" x2="17.125" y2="8.375" gradientUnits="userSpaceOnUse">
<stop stop-color="#C59AFD"/>
<stop offset="1" stop-color="white"/>
</linearGradient>
</defs>
</svg>
