<svg width="16" height="16" viewBox="0 0 16 16" fill="none" xmlns="http://www.w3.org/2000/svg">
<path d="M8.57152 8.97558L13.1425 9.37983C14.1683 9.37983 15 8.54004 15 7.50421C15 6.46845 14.1683 5.62866 13.1425 5.62866L8.57152 6.03291C7.76676 6.03291 7.11436 6.69166 7.11436 7.50421C7.11436 8.31818 7.76676 8.97558 8.57152 8.97558Z" fill="url(#paint0_linear_113_555)"/>
<path fill-rule="evenodd" clip-rule="evenodd" d="M9.96827 9.10069L8.56992 8.97702C7.76516 8.97702 7.11276 8.31961 7.11276 7.50564C7.11276 6.6931 7.76516 6.03435 8.56992 6.03435L9.8182 5.92395C9.91071 6.59468 9.97131 7.58367 9.97131 8.66403C9.97131 8.81153 9.97029 8.95727 9.96827 9.10069Z" fill="#8C4FD9"/>
<path d="M1.28785 8.46638C1.33216 8.51118 1.49776 8.70034 1.65335 8.85741C2.56074 9.84124 4.93013 11.45 6.1696 11.9423C6.35777 12.0209 6.83367 12.1881 7.08872 12.1999C7.33209 12.1999 7.56462 12.1433 7.78626 12.0319C8.06309 11.8756 8.28389 11.629 8.40597 11.3385C8.48374 11.1375 8.60587 10.5337 8.60587 10.5228C8.72711 9.86318 8.7932 8.79068 8.7932 7.60502C8.7932 6.47679 8.72711 5.4482 8.6276 4.77768C8.61676 4.76585 8.49463 4.01677 8.36166 3.76004C8.11829 3.29051 7.64239 3 7.13308 3H7.08872C6.75669 3.01098 6.0592 3.30233 6.0592 3.31246C4.88582 3.8048 2.57247 5.33588 1.64246 6.35348C1.64246 6.35348 1.37986 6.61528 1.26611 6.77827C1.08879 7.01301 1.00012 7.30355 1.00012 7.59403C1.00012 7.91833 1.09968 8.21981 1.28785 8.46638Z" fill="url(#paint1_linear_113_555)"/>
<defs>
<linearGradient id="paint0_linear_113_555" x1="7.67762" y1="6.56645" x2="10.1645" y2="11.0475" gradientUnits="userSpaceOnUse">
<stop stop-color="#A056FF"/>
<stop offset="1" stop-color="#C59AFD"/>
</linearGradient>
<linearGradient id="paint1_linear_113_555" x1="4.06252" y1="10.4375" x2="11.3276" y2="8.18412" gradientUnits="userSpaceOnUse">
<stop stop-color="#C59AFD"/>
<stop offset="1" stop-color="white"/>
</linearGradient>
</defs>
</svg>
