<svg width="16" height="16" viewBox="0 0 16 16" fill="none" xmlns="http://www.w3.org/2000/svg">
<path d="M7.08566 6.78655C7.03663 6.83504 6.82963 7.01626 6.65774 7.18653C5.58109 8.17953 3.82055 10.7724 3.28179 12.1289C3.19582 12.3348 3.01282 12.8556 2.99993 13.1347C2.99993 13.401 3.06185 13.6555 3.18379 13.898C3.35477 14.201 3.62466 14.4426 3.94255 14.5762C4.1625 14.6613 4.82331 14.795 4.83528 14.795C5.55709 14.9276 6.73077 15 8.02828 15C9.26296 15 10.3886 14.9276 11.1224 14.8187C11.1353 14.8069 11.9551 14.6732 12.236 14.5277C12.7498 14.2614 13.0677 13.7406 13.0677 13.1832V13.1347C13.0557 12.7713 12.7369 12.008 12.7258 12.008C12.187 10.724 10.5115 8.19236 9.3979 7.17461C9.3979 7.17461 9.1114 6.88725 8.93304 6.76277C8.67614 6.56871 8.3582 6.47168 8.04031 6.47168C7.68541 6.47168 7.35549 6.58063 7.08566 6.78655Z" fill="url(#paint0_linear_113_614)"/>
<path fill-rule="evenodd" clip-rule="evenodd" d="M11.5281 9.86807C10.8442 8.81921 10.0304 7.75272 9.39791 7.17464C9.39791 7.17464 9.11141 6.88728 8.93304 6.76279C8.67615 6.56874 8.3582 6.47171 8.04031 6.47171C7.68542 6.47171 7.3555 6.58066 7.08567 6.78658C7.06871 6.80335 7.03285 6.836 6.98609 6.87858C6.89765 6.95912 6.77019 7.07518 6.65775 7.18656C5.93712 7.85119 4.91013 9.23257 4.14817 10.4802C4.86679 10.5729 5.85777 10.6226 6.93394 10.6226C8.16862 10.6226 9.29424 10.5503 10.028 10.4414C10.0312 10.4385 10.0821 10.4284 10.1615 10.4127C10.4082 10.3638 10.9291 10.2605 11.1417 10.1504C11.2871 10.075 11.4168 9.97926 11.5281 9.86807Z" fill="#7FD1AE"/>
<path d="M7.08566 1.31487C7.03663 1.36336 6.82963 1.54458 6.65774 1.71485C5.58109 2.70785 3.82055 5.30077 3.28179 6.65718C3.19582 6.8631 3.01282 7.38389 2.99993 7.66301C2.99993 7.92934 3.06185 8.1838 3.18379 8.42635C3.35477 8.7293 3.62466 8.97093 3.94255 9.10452C4.1625 9.18963 4.82331 9.32328 4.83528 9.32328C5.55709 9.45596 6.73077 9.52829 8.02828 9.52829C9.26296 9.52829 10.3886 9.45596 11.1224 9.34707C11.1353 9.3352 11.9551 9.20155 12.236 9.05604C12.7498 8.78971 13.0677 8.26891 13.0677 7.71155V7.66301C13.0557 7.29965 12.7369 6.53636 12.7258 6.53636C12.187 5.25228 10.5115 2.72068 9.3979 1.70293C9.3979 1.70293 9.1114 1.41557 8.93304 1.29109C8.67614 1.09703 8.3582 1 8.04031 1C7.68541 1 7.35549 1.10895 7.08566 1.31487Z" fill="url(#paint1_linear_113_614)"/>
<defs>
<linearGradient id="paint0_linear_113_614" x1="4.25813" y1="7.53772" x2="5.84068" y2="15.6337" gradientUnits="userSpaceOnUse">
<stop stop-color="#62E8AF"/>
<stop offset="1" stop-color="#B3FBDC"/>
</linearGradient>
<linearGradient id="paint1_linear_113_614" x1="4.25813" y1="2.06604" x2="5.84068" y2="10.162" gradientUnits="userSpaceOnUse">
<stop stop-color="#62E8AF"/>
<stop offset="1" stop-color="#B3FBDC"/>
</linearGradient>
</defs>
</svg>
