<svg width="16" height="16" viewBox="0 0 16 16" fill="none" xmlns="http://www.w3.org/2000/svg">
<g clip-path="url(#clip0_39_1138)">
<path fill-rule="evenodd" clip-rule="evenodd" d="M12.8 1.06667C12.8 0.477867 13.2779 0 13.8667 0C14.4555 0 14.9333 0.477867 14.9333 1.06667C14.9333 1.65547 14.4555 2.13333 13.8667 2.13333C13.2779 2.13333 12.8 1.65547 12.8 1.06667ZM11.68 16H4.25333C2.45387 15.9808 1 14.5163 1 12.7115V3.28853C1 2.416 1.34667 1.57973 1.9632 0.9632C2.57973 0.346667 3.416 0 4.28853 0H10.6667C11.2555 0 11.7333 0.477867 11.7333 1.06667C11.7333 2.24427 12.6891 3.2 13.8667 3.2C14.4555 3.2 14.9333 3.67787 14.9333 4.26667V12.7115C14.9333 14.5163 13.4795 15.9808 11.68 16Z" fill="url(#paint0_linear_39_1138)"/>
<path fill-rule="evenodd" clip-rule="evenodd" d="M9.27586 12H4.72414C4.32441 12 4 12.3244 4 12.7241C4 13.1239 4.32441 13.4483 4.72414 13.4483H9.27586C9.67559 13.4483 10 13.1239 10 12.7241C10 12.3244 9.67559 12 9.27586 12Z" fill="#D49F34"/>
<path fill-rule="evenodd" clip-rule="evenodd" d="M10.2759 11H5.72414C5.32441 11 5 11.3244 5 11.7241C5 12.1239 5.32441 12.4483 5.72414 12.4483H10.2759C10.6756 12.4483 11 12.1239 11 11.7241C11 11.3244 10.6756 11 10.2759 11Z" fill="url(#paint1_linear_39_1138)"/>
<path d="M7.89353 5.86812L7.89387 4.89385C7.89387 4.77646 7.87073 4.66024 7.82581 4.55179C7.7809 4.44334 7.71507 4.34481 7.63208 4.26179C7.54906 4.17878 7.45051 4.11295 7.34209 4.06804C7.23364 4.02312 7.11741 4 7.00002 4C6.88264 4 6.76641 4.02312 6.65794 4.06804C6.54951 4.11295 6.45098 4.17878 6.36796 4.26179C6.28495 4.34481 6.21912 4.44334 6.17421 4.55179C6.12929 4.66024 6.10617 4.77646 6.10617 4.89385L6.10651 5.86812C6.10656 5.99978 5.9998 6.10654 5.86812 6.10647L4.89385 6.10615C4.65681 6.10615 4.42943 6.20031 4.26179 6.36794C4.0942 6.53558 4 6.76294 4 7C4 7.23706 4.0942 7.46442 4.26179 7.63206C4.42943 7.79969 4.65681 7.89385 4.89385 7.89385L5.86812 7.89353C5.9998 7.89346 6.10656 8.00022 6.10651 8.13188L6.10617 9.10615C6.10617 9.34321 6.20035 9.57057 6.36796 9.73821C6.5356 9.90582 6.76296 10 7.00002 10C7.23706 10 7.46444 9.90582 7.63208 9.73821C7.79971 9.57057 7.89387 9.34321 7.89387 9.10615L7.89353 8.13188C7.89349 8.00022 8.00022 7.89346 8.1319 7.89353L9.10617 7.89385C9.34324 7.89385 9.57059 7.79969 9.73823 7.63206C9.90586 7.46442 10 7.23706 10 7C10 6.76294 9.90586 6.53558 9.73823 6.36794C9.57059 6.20031 9.34324 6.10615 9.10617 6.10615L8.1319 6.10647C8.00022 6.10654 7.89349 5.99978 7.89353 5.86812Z" fill="#D49F34"/>
<path d="M8.89353 4.86812L8.89387 3.89385C8.89387 3.77646 8.87073 3.66024 8.82581 3.55179C8.7809 3.44334 8.71507 3.34481 8.63208 3.26179C8.54906 3.17878 8.45051 3.11295 8.34209 3.06804C8.23364 3.02312 8.11741 3 8.00002 3C7.88264 3 7.76641 3.02312 7.65794 3.06804C7.54951 3.11295 7.45098 3.17878 7.36796 3.26179C7.28495 3.34481 7.21912 3.44334 7.17421 3.55179C7.12929 3.66024 7.10617 3.77646 7.10617 3.89385L7.10651 4.86812C7.10656 4.99978 6.9998 5.10654 6.86812 5.10647L5.89385 5.10615C5.65681 5.10615 5.42943 5.20031 5.26179 5.36794C5.0942 5.53558 5 5.76294 5 6C5 6.23706 5.0942 6.46442 5.26179 6.63206C5.42943 6.79969 5.65681 6.89385 5.89385 6.89385L6.86812 6.89353C6.9998 6.89346 7.10656 7.00022 7.10651 7.13188L7.10617 8.10615C7.10617 8.34321 7.20035 8.57057 7.36796 8.73821C7.5356 8.90582 7.76296 9 8.00002 9C8.23706 9 8.46444 8.90582 8.63208 8.73821C8.79971 8.57057 8.89387 8.34321 8.89387 8.10615L8.89353 7.13188C8.89349 7.00022 9.00022 6.89346 9.1319 6.89353L10.1062 6.89385C10.3432 6.89385 10.5706 6.79969 10.7382 6.63206C10.9059 6.46442 11 6.23706 11 6C11 5.76294 10.9059 5.53558 10.7382 5.36794C10.5706 5.20031 10.3432 5.10615 10.1062 5.10615L9.1319 5.10647C9.00022 5.10654 8.89349 4.99978 8.89353 4.86812Z" fill="url(#paint2_linear_39_1138)"/>
</g>
<defs>
<linearGradient id="paint0_linear_39_1138" x1="3.6125" y1="14.9988" x2="13.7685" y2="4.38498" gradientUnits="userSpaceOnUse">
<stop stop-color="#FF8860"/>
<stop offset="1" stop-color="#FBD92C"/>
</linearGradient>
<linearGradient id="paint1_linear_39_1138" x1="6.5" y1="12.0862" x2="6.83034" y2="10.7177" gradientUnits="userSpaceOnUse">
<stop stop-color="#FBD92C"/>
<stop offset="1" stop-color="white"/>
</linearGradient>
<linearGradient id="paint2_linear_39_1138" x1="6.50001" y1="7.5" x2="9.50001" y2="4.49999" gradientUnits="userSpaceOnUse">
<stop stop-color="#FBD92C"/>
<stop offset="1" stop-color="white"/>
</linearGradient>
<clipPath id="clip0_39_1138">
<rect width="16" height="16" fill="white"/>
</clipPath>
</defs>
</svg>
