<svg width="16" height="16" viewBox="0 0 16 16" fill="none" xmlns="http://www.w3.org/2000/svg">
<path fill-rule="evenodd" clip-rule="evenodd" d="M0.846128 0.846125C0.30436 1.38789 0 2.12268 0 2.88886C0 3.25704 0.298476 3.55551 0.666661 3.55551H8.22215C8.39895 3.55551 8.56847 3.48528 8.69349 3.36025C8.81851 3.23523 8.88876 3.06566 8.88876 2.88886V0.727262C8.88876 0.325608 8.56317 0 8.1615 0H2.88885C2.12268 0 1.38789 0.304358 0.846128 0.846125ZM0 13.1111C0 13.8773 0.30436 14.6121 0.846128 15.1539C1.38789 15.6956 2.12268 16 2.88885 16H11.3635C11.9158 16 12.3636 15.5522 12.3635 15V14.5455C12.3635 13.3405 13.3403 12.3637 14.5453 12.3637H14.9998C15.5521 12.3637 15.9998 11.916 15.9998 11.3637V2.88903C15.9998 2.12286 15.6954 1.38807 15.1537 0.846311C14.6119 0.304543 13.8771 0.000183105 13.111 0.000183105H10.9494C10.5477 0.000183105 10.2221 0.325794 10.2221 0.727447V2.88903C10.2221 3.41946 10.0114 3.92816 9.63632 4.30324C9.26127 4.6783 8.75255 4.88901 8.22215 4.88901H0.727264C0.32561 4.88901 0 5.21462 0 5.61627V13.1111Z" fill="url(#paint0_linear_73_3513)"/>
<path d="M14.5454 15.6363C15.1479 15.6363 15.6363 15.1479 15.6363 14.5454C15.6363 13.9429 15.1479 13.4545 14.5454 13.4545C13.9429 13.4545 13.4545 13.9429 13.4545 14.5454C13.4545 15.1479 13.9429 15.6363 14.5454 15.6363Z" fill="url(#paint1_linear_73_3513)"/>
<path fill-rule="evenodd" clip-rule="evenodd" d="M1.45459 8.75369C1.45459 8.33742 1.79199 8.00006 2.20817 8.00006H11.61C12.0262 8.00006 12.3635 8.33742 12.3635 8.75369C12.3635 9.16987 12.0262 9.50723 11.61 9.50723H2.20817C1.79199 9.50723 1.45459 9.16987 1.45459 8.75369ZM1.45459 10.9149C1.45459 10.4571 1.82567 10.086 2.28342 10.086H11.5347C11.9925 10.086 12.3635 10.4571 12.3635 10.9149C12.3635 11.3727 11.9925 11.7438 11.5347 11.7438H2.28342C1.82567 11.7438 1.45459 11.3727 1.45459 10.9149ZM6.98532 13.1221C6.98532 12.7239 6.66251 12.4011 6.26433 12.4011H2.17556C1.77738 12.4011 1.45459 12.7239 1.45459 13.1221C1.45459 13.5203 1.77738 13.843 2.17555 13.843H6.26433C6.66251 13.843 6.98532 13.5203 6.98532 13.1221Z" fill="#D84F4F"/>
<path fill-rule="evenodd" clip-rule="evenodd" d="M2.47021 7.24655C2.47021 6.83028 2.80761 6.49292 3.2238 6.49292H12.6256C13.0418 6.49292 13.3792 6.83028 13.3792 7.24655C13.3792 7.66273 13.0418 8.00009 12.6256 8.00009H3.2238C2.80761 8.00009 2.47021 7.66273 2.47021 7.24655ZM2.54545 9.82396C2.54545 9.36624 2.91653 8.99515 3.37428 8.99515H12.6256C13.0833 8.99515 13.4544 9.36624 13.4544 9.82396C13.4544 10.2818 13.0833 10.6529 12.6256 10.6529H3.37428C2.91653 10.6529 2.54545 10.2818 2.54545 9.82396ZM8.07615 12.3637C8.07615 11.9655 7.75335 11.6427 7.35517 11.6427H3.26639C2.86821 11.6427 2.54542 11.9655 2.54542 12.3637C2.54542 12.7619 2.86821 13.0846 3.26638 13.0846H7.35517C7.75335 13.0846 8.07615 12.7619 8.07615 12.3637Z" fill="url(#paint2_linear_73_3513)"/>
<defs>
<linearGradient id="paint0_linear_73_3513" x1="2.99996" y1="14" x2="13" y2="2.00012" gradientUnits="userSpaceOnUse">
<stop stop-color="#FF405B"/>
<stop offset="1" stop-color="#FF8860"/>
</linearGradient>
<linearGradient id="paint1_linear_73_3513" x1="13.8636" y1="15.3636" x2="15.2272" y2="13.7273" gradientUnits="userSpaceOnUse">
<stop stop-color="#FF405B"/>
<stop offset="1" stop-color="#FF8860"/>
</linearGradient>
<linearGradient id="paint2_linear_73_3513" x1="5.60733" y1="13.0844" x2="7.03547" y2="7.41837" gradientUnits="userSpaceOnUse">
<stop stop-color="#FF8860"/>
<stop offset="1" stop-color="white"/>
</linearGradient>
</defs>
</svg>
