<svg width="16" height="16" viewBox="0 0 16 16" fill="none" xmlns="http://www.w3.org/2000/svg">
<path fill-rule="evenodd" clip-rule="evenodd" d="M11 14.0008V12.0016C11 11.4499 10.552 11.0021 10 11.0021C9.448 11.0021 6.552 11.0021 6 11.0021C5.448 11.0021 5 11.4499 5 12.0016V14.0008C4.448 14.0008 4 14.4486 4 15.0003C4 15.5521 4.448 15.9999 5 15.9999H11C11.552 15.9999 12 15.5521 12 15.0003C12 14.4486 11.552 14.0008 11 14.0008Z" fill="url(#paint0_linear_73_3538)"/>
<path fill-rule="evenodd" clip-rule="evenodd" d="M12.959 12.9943H3.041C2.234 12.9943 1.461 12.6745 0.891 12.1037C0.32 11.534 0 10.7613 0 9.95464C0 7.98251 0 5.01181 0 3.03967C0 2.23302 0.32 1.46036 0.891 0.89061C1.461 0.31986 2.234 0 3.041 0H12C12.552 0 13 0.447804 13 0.999563C13 2.10308 13.896 2.99869 15 2.99869C15.552 2.99869 16 3.44649 16 3.99825V9.99563C15.989 10.7873 15.67 11.5439 15.109 12.1037C14.539 12.6745 13.766 12.9943 12.959 12.9943ZM15 0C15.552 0 16 0.447804 16 0.999563C16 1.55132 15.552 1.99913 15 1.99913C14.448 1.99913 14 1.55132 14 0.999563C14 0.447804 14.448 0 15 0Z" fill="url(#paint1_linear_73_3538)"/>
<path fill-rule="evenodd" clip-rule="evenodd" d="M11.9999 8H5.9999C5.4477 8 5 8.448 5 9C5 9.552 5.4477 10 5.9999 10H11.9999C12.5521 10 12.9998 9.552 12.9998 9C12.9998 8.448 12.5521 8 11.9999 8Z" fill="#7FD1AE"/>
<path fill-rule="evenodd" clip-rule="evenodd" d="M12.9999 7H6.9999C6.4477 7 6 7.448 6 8C6 8.552 6.4477 9 6.9999 9H12.9999C13.5521 9 13.9998 8.552 13.9998 8C13.9998 7.448 13.5521 7 12.9999 7Z" fill="url(#paint2_linear_73_3538)"/>
<path fill-rule="evenodd" clip-rule="evenodd" d="M8.9999 5H5.9999C5.4477 5 5 5.448 5 6C5 6.552 5.4477 7 5.9999 7H8.9999C9.5521 7 9.9998 6.552 9.9998 6C9.9998 5.448 9.5521 5 8.9999 5Z" fill="#7FD1AE"/>
<path fill-rule="evenodd" clip-rule="evenodd" d="M9.9999 4H6.9999C6.4477 4 6 4.448 6 5C6 5.552 6.4477 6 6.9999 6H9.9999C10.5521 6 10.9998 5.552 10.9998 5C10.9998 4.448 10.5521 4 9.9999 4Z" fill="url(#paint3_linear_73_3538)"/>
<path fill-rule="evenodd" clip-rule="evenodd" d="M3.77439 6.56818C3.77439 6.98406 3.37591 7.3231 2.8872 7.3231C2.39848 7.3231 2 6.98406 2 6.56818V3.55483C2 3.13899 2.39848 2.79993 2.8872 2.79993C3.37591 2.79993 3.77439 3.13899 3.77439 3.55483V6.56818ZM2 9.10512C2 8.6122 2.39418 8.2103 2.87713 8.2103C3.37413 8.2103 3.76933 8.6122 3.76933 9.10512C3.76933 9.59805 3.37413 9.99995 2.8872 9.99995C2.39822 9.99995 2 9.59805 2 9.10512Z" fill="#7FD1AE"/>
<path fill-rule="evenodd" clip-rule="evenodd" d="M4.57444 5.76826C4.57444 6.18413 4.17596 6.52317 3.68724 6.52317C3.19853 6.52317 2.80005 6.18413 2.80005 5.76826V2.75491C2.80005 2.33906 3.19853 2 3.68724 2C4.17596 2 4.57444 2.33906 4.57444 2.75491V5.76826ZM2.80005 8.3052C2.80005 7.81227 3.19423 7.41037 3.67718 7.41037C4.17418 7.41037 4.56938 7.81227 4.56938 8.3052C4.56938 8.79812 4.17418 9.20002 3.68724 9.20002C3.19827 9.20002 2.80005 8.79812 2.80005 8.3052Z" fill="url(#paint4_linear_73_3538)"/>
<defs>
<linearGradient id="paint0_linear_73_3538" x1="5" y1="15.3753" x2="11.938" y2="12.8125" gradientUnits="userSpaceOnUse">
<stop stop-color="#62E8AF"/>
<stop offset="1" stop-color="#B3FBDC"/>
</linearGradient>
<linearGradient id="paint1_linear_73_3538" x1="2" y1="11.3704" x2="16.5912" y2="7.22445" gradientUnits="userSpaceOnUse">
<stop stop-color="#62E8AF"/>
<stop offset="1" stop-color="#B3FBDC"/>
</linearGradient>
<linearGradient id="paint2_linear_73_3538" x1="6" y1="9" x2="6.15565" y2="6.50973" gradientUnits="userSpaceOnUse">
<stop stop-color="#B3FBDC"/>
<stop offset="1" stop-color="white"/>
</linearGradient>
<linearGradient id="paint3_linear_73_3538" x1="6" y1="6" x2="6.24753" y2="3.52475" gradientUnits="userSpaceOnUse">
<stop stop-color="#B3FBDC"/>
<stop offset="1" stop-color="white"/>
</linearGradient>
<linearGradient id="paint4_linear_73_3538" x1="2.80005" y1="9.20002" x2="7.2996" y2="4.7645" gradientUnits="userSpaceOnUse">
<stop stop-color="#B3FBDC"/>
<stop offset="1" stop-color="white"/>
</linearGradient>
</defs>
</svg>
