<svg width="16" height="16" viewBox="0 0 16 16" fill="none" xmlns="http://www.w3.org/2000/svg">
<path d="M11.2001 2H4.80009C2.53771 2 1.40571 2 0.703318 2.71755C0.00012207 3.43428 0.00012207 4.58937 0.00012207 6.89793V8.53057C0.00012207 10.8391 0.00012207 11.9942 0.703318 12.711C1.40571 13.4285 2.53771 13.4285 4.80009 13.4285H11.2001C11.5074 13.4285 11.7939 13.4285 12.0613 13.4267C12.3564 13.4247 12.5715 13.1522 12.5715 12.8571C12.5715 11.2791 13.8507 9.99995 15.4286 9.99995C15.7232 9.99995 15.9953 9.78551 15.9977 9.49093C16 9.19499 16 8.87567 16 8.53057V6.89793C16 4.58937 16 3.43428 15.2968 2.71755C14.5944 2 13.4624 2 11.2001 2Z" fill="url(#paint0_linear_73_3603)"/>
<path d="M14.8572 13.4285C15.4884 13.4285 16 12.9168 16 12.2857C16 11.6545 15.4884 11.1428 14.8572 11.1428C14.226 11.1428 13.7143 11.6545 13.7143 12.2857C13.7143 12.9168 14.226 13.4285 14.8572 13.4285Z" fill="url(#paint1_linear_73_3603)"/>
<path d="M10.5142 11.7391C10.5142 11.8972 10.4514 12.0489 10.3396 12.1607C10.2277 12.2726 10.076 12.3354 9.9179 12.3354H0.824785C0.66664 12.3354 0.514978 12.2726 0.403154 12.1607C0.291337 12.0489 0.228516 11.8972 0.228516 11.7391C0.228516 11.581 0.291337 11.4292 0.403154 11.3174C0.514978 11.2056 0.66664 11.1428 0.824785 11.1428H9.9179C10.076 11.1428 10.2277 11.2056 10.3396 11.3174C10.4514 11.4292 10.5142 11.581 10.5142 11.7391Z" fill="#D84F4F"/>
<path d="M11.4285 10.8518C11.4285 11.0777 11.3388 11.2943 11.1791 11.4542C11.0192 11.6139 10.8026 11.7036 10.5767 11.7036H0.851813C0.625892 11.7036 0.409231 11.6139 0.249483 11.4542C0.0897446 11.2943 0 11.0777 0 10.8518C0 10.6259 0.0897446 10.4092 0.249483 10.2495C0.409231 10.0897 0.625892 10 0.851813 10H10.5767C10.8026 10 11.0192 10.0897 11.1791 10.2495C11.3388 10.4092 11.4285 10.6259 11.4285 10.8518Z" fill="url(#paint2_linear_73_3603)"/>
<path d="M7.6652 6.23661C7.45088 6.45094 7.16019 6.57134 6.85708 6.57134C6.55398 6.57134 6.26329 6.45094 6.04896 6.23661C5.83464 6.02229 5.71423 5.7316 5.71423 5.42849C5.71423 5.12539 5.83464 4.8347 6.04896 4.62037C6.26329 4.40605 6.55398 4.28564 6.85708 4.28564C7.16019 4.28564 7.45088 4.40605 7.6652 4.62037C7.87953 4.8347 7.99993 5.12539 7.99993 5.42849C7.99993 5.7316 7.87953 6.02229 7.6652 6.23661Z" fill="#D84F4F"/>
<path d="M4.23661 6.23661C4.02229 6.45094 3.7316 6.57134 3.42849 6.57134C3.12539 6.57134 2.8347 6.45094 2.62037 6.23661C2.40605 6.02229 2.28564 5.7316 2.28564 5.42849C2.28564 5.12539 2.40605 4.8347 2.62037 4.62037C2.8347 4.40605 3.12539 4.28564 3.42849 4.28564C3.7316 4.28564 4.02229 4.40605 4.23661 4.62037C4.45094 4.8347 4.57134 5.12539 4.57134 5.42849C4.57134 5.7316 4.45094 6.02229 4.23661 6.23661Z" fill="#D84F4F"/>
<path d="M4.23661 9.2842C4.02229 9.49854 3.7316 9.61895 3.42849 9.61895C3.12539 9.61895 2.8347 9.49854 2.62037 9.2842C2.40605 9.06986 2.28564 8.77916 2.28564 8.4761C2.28564 8.17293 2.40605 7.88234 2.62037 7.668C2.8347 7.45367 3.12539 7.33325 3.42849 7.33325C3.7316 7.33325 4.02229 7.45367 4.23661 7.668C4.45094 7.88234 4.57134 8.17293 4.57134 8.4761C4.57134 8.77916 4.45094 9.06986 4.23661 9.2842Z" fill="#D84F4F"/>
<path d="M7.6652 9.2842C7.45088 9.49854 7.16019 9.61895 6.85708 9.61895C6.55398 9.61895 6.26329 9.49854 6.04896 9.2842C5.83464 9.06986 5.71423 8.77916 5.71423 8.4761C5.71423 8.17293 5.83464 7.88234 6.04896 7.668C6.26329 7.45367 6.55398 7.33325 6.85708 7.33325C7.16019 7.33325 7.45088 7.45367 7.6652 7.668C7.87953 7.88234 7.99993 8.17293 7.99993 8.4761C7.99993 8.77916 7.87953 9.06986 7.6652 9.2842Z" fill="#D84F4F"/>
<path d="M11.0938 9.2842C10.8794 9.49854 10.5887 9.61895 10.2857 9.61895C9.98251 9.61895 9.69191 9.49854 9.47757 9.2842C9.26324 9.06986 9.14282 8.77916 9.14282 8.4761C9.14282 8.17293 9.26324 7.88234 9.47757 7.668C9.69191 7.45367 9.98251 7.33325 10.2857 7.33325C10.5887 7.33325 10.8794 7.45367 11.0938 7.668C11.3081 7.88234 11.4285 8.17293 11.4285 8.4761C11.4285 8.77916 11.3081 9.06986 11.0938 9.2842Z" fill="#D84F4F"/>
<path d="M11.0938 6.23661C10.8794 6.45094 10.5887 6.57134 10.2857 6.57134C9.98251 6.57134 9.69191 6.45094 9.47757 6.23661C9.26324 6.02229 9.14282 5.7316 9.14282 5.42849C9.14282 5.12539 9.26324 4.8347 9.47757 4.62037C9.69191 4.40605 9.98251 4.28564 10.2857 4.28564C10.5887 4.28564 10.8794 4.40605 11.0938 4.62037C11.3081 4.8347 11.4285 5.12539 11.4285 5.42849C11.4285 5.7316 11.3081 6.02229 11.0938 6.23661Z" fill="#D84F4F"/>
<path d="M8.80802 5.09379C8.5937 5.30812 8.30301 5.42852 7.99991 5.42852C7.6968 5.42852 7.40611 5.30812 7.19179 5.09379C6.97746 4.87946 6.85706 4.58878 6.85706 4.28567C6.85706 3.98257 6.97746 3.69188 7.19179 3.47755C7.40611 3.26323 7.6968 3.14282 7.99991 3.14282C8.30301 3.14282 8.5937 3.26323 8.80802 3.47755C9.02235 3.69188 9.14275 3.98257 9.14275 4.28567C9.14275 4.58878 9.02235 4.87946 8.80802 5.09379Z" fill="url(#paint3_linear_73_3603)"/>
<path d="M5.37956 5.09379C5.16523 5.30812 4.87454 5.42852 4.57144 5.42852C4.26833 5.42852 3.97764 5.30812 3.76332 5.09379C3.54899 4.87946 3.42859 4.58878 3.42859 4.28567C3.42859 3.98257 3.54899 3.69188 3.76332 3.47755C3.97764 3.26323 4.26833 3.14282 4.57144 3.14282C4.87454 3.14282 5.16523 3.26323 5.37956 3.47755C5.59388 3.69188 5.71429 3.98257 5.71429 4.28567C5.71429 4.58878 5.59388 4.87946 5.37956 5.09379Z" fill="url(#paint4_linear_73_3603)"/>
<path d="M5.37956 8.14138C5.16523 8.35571 4.87454 8.47613 4.57144 8.47613C4.26833 8.47613 3.97764 8.35571 3.76332 8.14138C3.54899 7.92704 3.42859 7.63634 3.42859 7.33328C3.42859 7.03011 3.54899 6.73952 3.76332 6.52518C3.97764 6.31084 4.26833 6.19043 4.57144 6.19043C4.87454 6.19043 5.16523 6.31084 5.37956 6.52518C5.59388 6.73952 5.71429 7.03011 5.71429 7.33328C5.71429 7.63634 5.59388 7.92704 5.37956 8.14138Z" fill="url(#paint5_linear_73_3603)"/>
<path d="M8.80802 8.14138C8.5937 8.35571 8.30301 8.47613 7.99991 8.47613C7.6968 8.47613 7.40611 8.35571 7.19179 8.14138C6.97746 7.92704 6.85706 7.63634 6.85706 7.33328C6.85706 7.03011 6.97746 6.73952 7.19179 6.52518C7.40611 6.31084 7.6968 6.19043 7.99991 6.19043C8.30301 6.19043 8.5937 6.31084 8.80802 6.52518C9.02235 6.73952 9.14275 7.03011 9.14275 7.33328C9.14275 7.63634 9.02235 7.92704 8.80802 8.14138Z" fill="url(#paint6_linear_73_3603)"/>
<path d="M12.2366 8.14138C12.0223 8.35571 11.7316 8.47613 11.4285 8.47613C11.1253 8.47613 10.8347 8.35571 10.6204 8.14138C10.4061 7.92704 10.2856 7.63634 10.2856 7.33328C10.2856 7.03011 10.4061 6.73952 10.6204 6.52518C10.8347 6.31084 11.1253 6.19043 11.4285 6.19043C11.7316 6.19043 12.0223 6.31084 12.2366 6.52518C12.4509 6.73952 12.5713 7.03011 12.5713 7.33328C12.5713 7.63634 12.4509 7.92704 12.2366 8.14138Z" fill="url(#paint7_linear_73_3603)"/>
<path d="M12.2366 5.09379C12.0223 5.30812 11.7316 5.42852 11.4285 5.42852C11.1253 5.42852 10.8347 5.30812 10.6204 5.09379C10.4061 4.87946 10.2856 4.58878 10.2856 4.28567C10.2856 3.98257 10.4061 3.69188 10.6204 3.47755C10.8347 3.26323 11.1253 3.14282 11.4285 3.14282C11.7316 3.14282 12.0223 3.26323 12.2366 3.47755C12.4509 3.69188 12.5713 3.98257 12.5713 4.28567C12.5713 4.58878 12.4509 4.87946 12.2366 5.09379Z" fill="url(#paint8_linear_73_3603)"/>
<defs>
<linearGradient id="paint0_linear_73_3603" x1="3.00011" y1="11.9999" x2="9.38349" y2="1.27585" gradientUnits="userSpaceOnUse">
<stop stop-color="#FF405B"/>
<stop offset="1" stop-color="#FF8860"/>
</linearGradient>
<linearGradient id="paint1_linear_73_3603" x1="3.00011" y1="11.9999" x2="9.38349" y2="1.27587" gradientUnits="userSpaceOnUse">
<stop stop-color="#FF405B"/>
<stop offset="1" stop-color="#FF8860"/>
</linearGradient>
<linearGradient id="paint2_linear_73_3603" x1="3.26401" y1="11.7036" x2="3.36114" y2="10.1522" gradientUnits="userSpaceOnUse">
<stop stop-color="#FF8860"/>
<stop offset="1" stop-color="white"/>
</linearGradient>
<linearGradient id="paint3_linear_73_3603" x1="7.50986" y1="5.42847" x2="8.25589" y2="3.65225" gradientUnits="userSpaceOnUse">
<stop stop-color="#FF8860"/>
<stop offset="1" stop-color="white"/>
</linearGradient>
<linearGradient id="paint4_linear_73_3603" x1="4.08139" y1="5.42847" x2="4.82742" y2="3.65225" gradientUnits="userSpaceOnUse">
<stop stop-color="#FF8860"/>
<stop offset="1" stop-color="white"/>
</linearGradient>
<linearGradient id="paint5_linear_73_3603" x1="4.08139" y1="8.47608" x2="4.82742" y2="6.69986" gradientUnits="userSpaceOnUse">
<stop stop-color="#FF8860"/>
<stop offset="1" stop-color="white"/>
</linearGradient>
<linearGradient id="paint6_linear_73_3603" x1="7.50986" y1="8.47608" x2="8.25589" y2="6.69986" gradientUnits="userSpaceOnUse">
<stop stop-color="#FF8860"/>
<stop offset="1" stop-color="white"/>
</linearGradient>
<linearGradient id="paint7_linear_73_3603" x1="10.9384" y1="8.47608" x2="11.6845" y2="6.69986" gradientUnits="userSpaceOnUse">
<stop stop-color="#FF8860"/>
<stop offset="1" stop-color="white"/>
</linearGradient>
<linearGradient id="paint8_linear_73_3603" x1="10.9384" y1="5.42847" x2="11.6845" y2="3.65225" gradientUnits="userSpaceOnUse">
<stop stop-color="#FF8860"/>
<stop offset="1" stop-color="white"/>
</linearGradient>
</defs>
</svg>
