<svg width="16" height="16" viewBox="0 0 16 16" fill="none" xmlns="http://www.w3.org/2000/svg">
<path fill-rule="evenodd" clip-rule="evenodd" d="M3 8C3 6 1.336 5.837 1.276 5.807C0.780999 5.563 0.576999 4.963 0.820999 4.468C2.126 1.822 4.852 0 8 0C12.415 0 16 3.585 16 8C16 12.415 12.415 16 8 16C4.852 16 2.126 14.178 0.820999 11.532C0.576999 11.037 0.780999 10.437 1.276 10.193C1.336 10.163 3 10 3 8ZM1 9C0.448 9 0 8.552 0 8C0 7.448 0.448 7 1 7C1.552 7 2 7.448 2 8C2 8.552 1.552 9 1 9Z" fill="url(#paint0_linear_73_3698)"/>
<path opacity="0.8" d="M7.70546 2.00421C11.1102 2.33789 13.7994 4.99821 14.1121 8.34187L14.1051 8.36588L14.0874 8.40024L14.0825 8.49769C14.0653 8.62609 14.0066 8.74651 13.9136 8.84049C13.8166 8.9384 13.6894 9.00062 13.553 9.01852L13.4702 9.02381L7.6977 8.98019C7.50524 8.98521 7.3194 8.90979 7.18644 8.77274C7.07565 8.65854 7.01027 8.51043 7 8.35524L7.02965 2.59013C7.02432 2.57024 7.02584 2.54921 7.03398 2.5303C7.05066 2.37254 7.1311 2.22809 7.25727 2.12923C7.38348 2.03038 7.54486 1.98535 7.70546 2.00421Z" fill="#B85C68"/>
<path d="M8.70546 1.00421C12.1102 1.33789 14.7994 3.99821 15.1121 7.34187L15.1051 7.36588L15.0874 7.40024L15.0825 7.49769C15.0653 7.62609 15.0066 7.74651 14.9136 7.84049C14.8166 7.9384 14.6894 8.00062 14.553 8.01852L14.4702 8.02381L8.6977 7.98019C8.50524 7.98521 8.3194 7.90979 8.18644 7.77274C8.07565 7.65854 8.01027 7.51043 8 7.35524L8.02965 1.59013C8.02432 1.57024 8.02584 1.54921 8.03398 1.5303C8.05066 1.37254 8.1311 1.22809 8.25727 1.12923C8.38348 1.03038 8.54486 0.985347 8.70546 1.00421Z" fill="url(#paint1_linear_73_3698)"/>
<defs>
<linearGradient id="paint0_linear_73_3698" x1="1.14286" y1="15.0204" x2="15.7918" y2="7.11491" gradientUnits="userSpaceOnUse">
<stop stop-color="#B65592"/>
<stop offset="0.5" stop-color="#FB6F71"/>
<stop offset="1" stop-color="#F9CB52"/>
</linearGradient>
<linearGradient id="paint1_linear_73_3698" x1="9" y1="7.5" x2="13.2363" y2="4.56146" gradientUnits="userSpaceOnUse">
<stop stop-color="#DB97C4"/>
<stop offset="0.401457" stop-color="#FDA7AA"/>
<stop offset="0.926913" stop-color="#FDE49D"/>
</linearGradient>
</defs>
</svg>
