<svg width="16" height="16" viewBox="0 0 16 16" fill="none" xmlns="http://www.w3.org/2000/svg">
<path d="M2.64119 9.64875L2.3832 9.75201C0.7944 10.3872 0 10.7056 0 11.1C0 11.4666 0.31295 11.6224 1.22902 12.0784C1.30044 12.114 1.3757 12.1514 1.45459 12.1909L1.65283 12.263C2.18171 12.4555 2.76675 12.1179 3.25373 11.8357C3.46252 11.7147 3.70501 11.6455 3.96368 11.6455C4.74692 11.6455 5.38186 12.2804 5.38186 13.0637C5.38186 13.3683 5.50707 13.6965 5.79233 13.8036C6.67554 14.1349 7.28796 14.3 8 14.3C8.9872 14.3 9.7816 13.9824 11.3704 13.3464L13.6168 12.448C15.2056 11.8128 16 11.4952 16 11.1C16 10.706 15.2072 10.3887 13.6216 9.75394L13.3588 9.64875C13.1203 9.55328 12.8541 9.55328 12.6156 9.64877L11.3704 10.1472C9.7816 10.7824 8.9864 11.1 8 11.1C7.0128 11.1 6.2184 10.7824 4.62961 10.1472L3.38441 9.64877C3.14587 9.55328 2.87973 9.55328 2.64119 9.64875Z" fill="url(#paint0_linear_252_364)"/>
<path d="M3.63644 14.5909C4.23893 14.5909 4.72735 14.1025 4.72735 13.5C4.72735 12.8975 4.23893 12.4091 3.63644 12.4091C3.03395 12.4091 2.54553 12.8975 2.54553 13.5C2.54553 14.1025 3.03395 14.5909 3.63644 14.5909Z" fill="url(#paint1_linear_252_364)"/>
<path d="M2.3832 6.048C0.7944 5.4128 0 5.0952 0 4.7C0 4.3048 0.7944 3.988 2.3832 3.352L4.6296 2.4536C6.2184 1.8176 7.0136 1.5 8 1.5C8.9872 1.5 9.7816 1.8176 11.3704 2.4536L13.6168 3.352C15.2056 3.9872 16 4.3048 16 4.7C16 5.0952 15.2056 5.412 13.6168 6.048L11.3704 6.9464C9.7816 7.5832 8.9864 7.9 8 7.9C7.0128 7.9 6.2184 7.5824 4.6296 6.9472L2.384 6.0472L2.3832 6.048Z" fill="url(#paint2_linear_252_364)"/>
<path fill-rule="evenodd" clip-rule="evenodd" d="M13.4406 9.68148L13.3588 9.64875C13.1203 9.55328 12.8542 9.55328 12.6156 9.64877L11.3704 10.1472C9.78162 10.7824 8.98642 11.1 8.00002 11.1C7.01282 11.1 6.21842 10.7824 4.62963 10.1472L4.62962 10.1472L3.38443 9.64877C3.14589 9.55328 2.87975 9.55328 2.64121 9.64875L2.38322 9.75201C2.18752 9.83025 2.00387 9.90369 1.83228 9.97305L3.90239 10.8009C5.49119 11.4377 6.28639 11.7546 7.27279 11.7546C8.25999 11.7546 9.05439 11.437 10.6432 10.8018L12.8896 9.90255C13.0853 9.8243 13.269 9.75085 13.4406 9.68148Z" fill="#B85C68"/>
<path fill-rule="evenodd" clip-rule="evenodd" d="M0 4.7C0 5.0952 0.7944 5.412 2.3832 6.048L4.6296 6.9464C6.2184 7.5832 7.0136 7.9 8 7.9C8.9872 7.9 9.7816 7.5824 11.3704 6.9472L13.6168 6.048C15.2056 5.4128 16 5.0952 16 4.7C16 4.3048 15.2056 3.988 13.6168 3.352L11.3704 2.4536C9.7816 1.8176 8.9864 1.5 8 1.5C7.0128 1.5 6.2184 1.8176 4.6296 2.4536L2.384 3.352C0.7944 3.9872 0 4.3048 0 4.7Z" fill="url(#paint3_linear_252_364)"/>
<path d="M3.0128 6.30005L2.3832 6.55205C0.7944 7.18726 0 7.50566 0 7.90006C0 8.29446 0.7944 8.61206 2.3832 9.24806L4.6296 10.1465C6.2184 10.7833 7.0136 11.1001 8 11.1001C8.9872 11.1001 9.7816 10.7825 11.3704 10.1473L13.6168 9.24806C15.2056 8.61286 16 8.29446 16 7.90006C16 7.50566 15.2056 7.18806 13.6168 6.55205L12.9872 6.30005L11.3704 6.94726C9.7816 7.58246 8.9864 7.90006 8 7.90006C7.0128 7.90006 6.2184 7.58246 4.6296 6.94726L3.0136 6.30005H3.0128Z" fill="url(#paint4_linear_252_364)"/>
<path fill-rule="evenodd" clip-rule="evenodd" d="M13.9777 6.69671C13.8638 6.65095 13.7452 6.60344 13.6217 6.55401L13.6168 6.55205L12.9872 6.30005L11.3704 6.94726C9.78158 7.58246 8.98638 7.90006 7.99998 7.90006C7.01278 7.90006 6.21838 7.58246 4.62958 6.94726L4.62958 6.94726L3.01358 6.30005H3.01278L2.38318 6.55205C1.96564 6.71898 1.60297 6.86403 1.29517 6.99434C1.40607 7.03891 1.52154 7.08513 1.64156 7.13317L1.65595 7.13893L3.90235 8.03733C5.49115 8.67413 6.28635 8.99093 7.27275 8.99093C8.25995 8.99093 9.05435 8.67333 10.6431 8.03813L12.8895 7.13893C13.3071 6.97198 13.6699 6.82696 13.9777 6.69671Z" fill="#B85C68"/>
<defs>
<linearGradient id="paint0_linear_252_364" x1="1.14286" y1="14.2839" x2="5.91225" y2="6.07008" gradientUnits="userSpaceOnUse">
<stop stop-color="#D4A4C4"/>
<stop offset="0.5" stop-color="#F7B1B3"/>
<stop offset="1" stop-color="#F7E1A3"/>
</linearGradient>
<linearGradient id="paint1_linear_252_364" x1="1.14286" y1="14.2839" x2="5.91225" y2="6.07008" gradientUnits="userSpaceOnUse">
<stop stop-color="#D4A4C4"/>
<stop offset="0.5" stop-color="#F7B1B3"/>
<stop offset="1" stop-color="#F7E1A3"/>
</linearGradient>
<linearGradient id="paint2_linear_252_364" x1="2.96383" y1="0.3" x2="5.16918" y2="11.976" gradientUnits="userSpaceOnUse">
<stop stop-color="#FFCA64"/>
<stop offset="1" stop-color="#C70000"/>
</linearGradient>
<linearGradient id="paint3_linear_252_364" x1="1.14286" y1="7.50816" x2="7.84983" y2="-1.54062" gradientUnits="userSpaceOnUse">
<stop stop-color="#D4A4C4"/>
<stop offset="0.5" stop-color="#F7B1B3"/>
<stop offset="1" stop-color="#F7E1A3"/>
</linearGradient>
<linearGradient id="paint4_linear_252_364" x1="1.14286" y1="10.8062" x2="5.60826" y2="2.77348" gradientUnits="userSpaceOnUse">
<stop stop-color="#D4A4C4"/>
<stop offset="0.5" stop-color="#F7B1B3"/>
<stop offset="1" stop-color="#F7E1A3"/>
</linearGradient>
</defs>
</svg>
