<svg width="16" height="16" viewBox="0 0 16 16" fill="none" xmlns="http://www.w3.org/2000/svg">
<path fill-rule="evenodd" clip-rule="evenodd" d="M3 8C3 10 1.336 10.163 1.276 10.193C0.781 10.437 0.577 11.037 0.821 11.532C2.126 14.178 4.852 16 8 16C12.415 16 16 12.415 16 8C16 3.585 12.415 0 8 0C4.852 0 2.126 1.822 0.821 4.468C0.577 4.963 0.781 5.563 1.276 5.807C1.336 5.837 3 6 3 8ZM1 7C0.448 7 0 7.448 0 8C0 8.552 0.448 9 1 9C1.552 9 2 8.552 2 8C2 7.448 1.552 7 1 7Z" fill="url(#paint0_linear_73_3736)"/>
<path fill-rule="evenodd" clip-rule="evenodd" d="M6.5 7.90002H4.5C3.948 7.90002 3.5 8.34802 3.5 8.90002C3.5 9.45202 3.948 9.90002 4.5 9.90002H6.5V11.9C6.5 12.452 6.948 12.9 7.5 12.9C8.052 12.9 8.5 12.452 8.5 11.9V9.90002H10.5C11.052 9.90002 11.5 9.45202 11.5 8.90002C11.5 8.34802 11.052 7.90002 10.5 7.90002H8.5V5.90002C8.5 5.34802 8.052 4.90002 7.5 4.90002C6.948 4.90002 6.5 5.34802 6.5 5.90002V7.90002Z" fill="#64C89E"/>
<path fill-rule="evenodd" clip-rule="evenodd" d="M7.5 6.90002H5.5C4.948 6.90002 4.5 7.34802 4.5 7.90002C4.5 8.45202 4.948 8.90002 5.5 8.90002H7.5V10.9C7.5 11.452 7.948 11.9 8.5 11.9C9.052 11.9 9.5 11.452 9.5 10.9V8.90002H11.5C12.052 8.90002 12.5 8.45202 12.5 7.90002C12.5 7.34802 12.052 6.90002 11.5 6.90002H9.5V4.90002C9.5 4.34802 9.052 3.90002 8.5 3.90002C7.948 3.90002 7.5 4.34802 7.5 4.90002V6.90002Z" fill="url(#paint1_linear_73_3736)"/>
<defs>
<linearGradient id="paint0_linear_73_3736" x1="3" y1="14" x2="13" y2="2" gradientUnits="userSpaceOnUse">
<stop stop-color="#62E8AF"/>
<stop offset="1" stop-color="#B9FCE0"/>
</linearGradient>
<linearGradient id="paint1_linear_73_3736" x1="6.5" y1="9.90002" x2="10.5" y2="5.90002" gradientUnits="userSpaceOnUse">
<stop stop-color="#B9FCE0"/>
<stop offset="1" stop-color="white"/>
</linearGradient>
</defs>
</svg>
