<svg width="16" height="16" viewBox="0 0 16 16" fill="none" xmlns="http://www.w3.org/2000/svg">
<path fill-rule="evenodd" clip-rule="evenodd" d="M13.9908 4.50645C13.9908 2.5696 12.4212 1 10.4844 1H3.49771C3.01502 1 2.62328 1.39174 2.62328 1.87443C2.62328 2.83979 1.83979 3.62328 0.874427 3.62328C0.391743 3.62328 0 4.01502 0 4.49771V9.73552C0 11.6724 1.5696 13.242 3.50645 13.242C5.56835 13.242 8.42248 13.242 10.4844 13.242C12.4212 13.242 13.9908 11.6724 13.9908 9.73552C13.9908 8.13707 13.9908 4.50645 13.9908 4.50645ZM0.874427 1C0.391743 1 0 1.39174 0 1.87443C0 2.35711 0.391743 2.74885 0.874427 2.74885C1.35711 2.74885 1.74885 2.35711 1.74885 1.87443C1.74885 1.39174 1.35711 1 0.874427 1Z" fill="url(#paint0_linear_73_3858)"/>
<path fill-rule="evenodd" clip-rule="evenodd" d="M3.34219 7.78798L2.00519 9.12586C1.66416 9.46688 1.66416 10.0213 2.00519 10.3623C2.34621 10.7033 2.9006 10.7033 3.24163 10.3623L4.4597 9.14422C4.93189 9.52809 5.5265 9.74408 6.14735 9.74408H6.15172C6.7577 9.74408 7.34006 9.53859 7.80788 9.16958L9.0006 10.3623C9.34163 10.7033 9.89601 10.7033 10.237 10.3623C10.5781 10.0213 10.5781 9.46688 10.237 9.12586L8.97349 7.86231C8.97349 7.86231 7.27098 7.99522 6.99554 7.99522H6.14822C5.85616 7.99522 5.58072 7.85794 5.40583 7.62447L3.32295 4.84729C3.03351 4.46079 2.48525 4.38297 2.09875 4.6724C1.71225 4.96184 1.63443 5.5101 1.92387 5.8966L3.34219 7.78798Z" fill="#7FD1AE"/>
<path fill-rule="evenodd" clip-rule="evenodd" d="M4.21645 6.91375L2.87945 8.25163C2.53843 8.59265 2.53843 9.14704 2.87945 9.48807C3.22048 9.82909 3.77487 9.82909 4.11589 9.48807L5.33397 8.26999C5.80616 8.65386 6.40077 8.86985 7.02161 8.86985H7.02599C7.63196 8.86985 8.21433 8.66436 8.68215 8.29535L9.87487 9.48807C10.2159 9.82909 10.7703 9.82909 11.1113 9.48807C11.4523 9.14704 11.4523 8.59265 11.1113 8.25163L9.84776 6.98808L12.9135 3.30849C13.223 2.93774 13.1723 2.38597 12.8016 2.0773C12.4308 1.76775 11.8791 1.81847 11.5704 2.18923L7.73864 6.78696C7.56201 6.99857 7.30143 7.12099 7.02599 7.12099H7.02249C6.73043 7.12099 6.45499 6.98371 6.2801 6.75024L4.19722 3.97306C3.90778 3.58656 3.35952 3.50874 2.97302 3.79817C2.58652 4.08761 2.5087 4.63587 2.79813 5.02237L4.21645 6.91375Z" fill="url(#paint1_linear_73_3858)"/>
<path fill-rule="evenodd" clip-rule="evenodd" d="M13.2729 11.862V10.7699C13.2729 10.5641 13.1912 10.3668 13.0456 10.2213C12.9002 10.0758 12.7028 9.99408 12.4971 9.99408C12.2913 9.99408 12.094 10.0758 11.9485 10.2213C11.803 10.3668 11.7213 10.5641 11.7213 10.7699V11.887C11.7213 12.4393 11.2736 12.887 10.7213 12.887H10.5959C10.4769 12.8867 10.3605 12.9218 10.2614 12.9878C10.1671 13.0506 10.0925 13.1387 10.0461 13.242H10.4844C11.6217 13.242 12.6323 12.7009 13.2729 11.862Z" fill="#7FD1AE"/>
<path d="M11.2607 11.9884C11.3598 11.9225 11.4762 11.8874 11.5952 11.8877H11.7206C12.2729 11.8877 12.7206 11.44 12.7206 10.8877V9.77055C12.7206 9.5648 12.8023 9.36747 12.9478 9.22198C13.0933 9.07648 13.2906 8.99475 13.4964 8.99475C13.7021 8.99475 13.8995 9.07648 14.045 9.22198C14.1905 9.36747 14.2722 9.5648 14.2722 9.77055V10.8877C14.2722 11.44 14.7199 11.8877 15.2722 11.8877H15.3977C15.5167 11.8874 15.633 11.9225 15.7321 11.9884C15.8312 12.0544 15.9085 12.1482 15.954 12.2582C15.9997 12.3681 16.0117 12.489 15.9885 12.6058C15.9653 12.7225 15.908 12.8297 15.8238 12.9138L13.9205 14.815C13.8077 14.9276 13.6548 14.9908 13.4954 14.9908C13.336 14.9908 13.1831 14.9276 13.0702 14.815L11.169 12.9138C11.0848 12.8297 11.0275 12.7225 11.0043 12.6058C10.9811 12.489 10.9931 12.3681 11.0388 12.2582C11.0844 12.1482 11.1617 12.0544 11.2607 11.9884Z" fill="url(#paint2_linear_73_3858)"/>
<defs>
<linearGradient id="paint0_linear_73_3858" x1="1.74885" y1="11.7121" x2="14.6412" y2="8.31199" gradientUnits="userSpaceOnUse">
<stop stop-color="#62E8AF"/>
<stop offset="1" stop-color="#B3FBDC"/>
</linearGradient>
<linearGradient id="paint1_linear_73_3858" x1="2.62329" y1="9.74384" x2="4.40494" y2="0.241221" gradientUnits="userSpaceOnUse">
<stop stop-color="#B3FBDC"/>
<stop offset="1" stop-color="white"/>
</linearGradient>
<linearGradient id="paint2_linear_73_3858" x1="11.6187" y1="14.2415" x2="16.377" y2="13.3245" gradientUnits="userSpaceOnUse">
<stop offset="0.162009" stop-color="#4DEBA8"/>
<stop offset="0.915537" stop-color="#97FFD2"/>
</linearGradient>
</defs>
</svg>
