<svg width="16" height="16" viewBox="0 0 16 16" fill="none" xmlns="http://www.w3.org/2000/svg">
<path fill-rule="evenodd" clip-rule="evenodd" d="M13.9908 4.50645C13.9908 2.5696 12.4212 1 10.4844 1H3.49771C3.01502 1 2.62328 1.39174 2.62328 1.87443C2.62328 2.83979 1.83979 3.62328 0.874427 3.62328C0.391743 3.62328 0 4.01502 0 4.49771V9.73552C0 11.6724 1.5696 13.242 3.50645 13.242C5.56835 13.242 8.42248 13.242 10.4844 13.242C12.4212 13.242 13.9908 11.6724 13.9908 9.73552C13.9908 8.13707 13.9908 4.50645 13.9908 4.50645ZM0.874427 1C0.391743 1 0 1.39174 0 1.87443C0 2.35711 0.391743 2.74885 0.874427 2.74885C1.35711 2.74885 1.74885 2.35711 1.74885 1.87443C1.74885 1.39174 1.35711 1 0.874427 1Z" fill="url(#paint0_linear_73_3791)"/>
<path fill-rule="evenodd" clip-rule="evenodd" d="M3.34219 7.78798L2.00519 9.12586C1.66416 9.46688 1.66416 10.0213 2.00519 10.3623C2.34621 10.7033 2.9006 10.7033 3.24163 10.3623L4.4597 9.14422C4.93189 9.52809 5.5265 9.74408 6.14735 9.74408H6.15172C6.7577 9.74408 7.34006 9.53859 7.80788 9.16958L9.0006 10.3623C9.34163 10.7033 9.89601 10.7033 10.237 10.3623C10.5781 10.0213 10.5781 9.46688 10.237 9.12586L8.97349 7.86231C8.97349 7.86231 7.27098 7.99522 6.99554 7.99522H6.14822C5.85616 7.99522 5.58072 7.85794 5.40583 7.62447L3.32295 4.84729C3.03351 4.46079 2.48525 4.38297 2.09875 4.6724C1.71225 4.96184 1.63443 5.5101 1.92387 5.8966L3.34219 7.78798Z" fill="#7FD1AE"/>
<path fill-rule="evenodd" clip-rule="evenodd" d="M4.21645 6.91375L2.87945 8.25163C2.53843 8.59265 2.53843 9.14704 2.87945 9.48807C3.22048 9.82909 3.77487 9.82909 4.11589 9.48807L5.33397 8.26999C5.80616 8.65386 6.40077 8.86985 7.02161 8.86985H7.02599C7.63196 8.86985 8.21433 8.66436 8.68215 8.29535L9.87487 9.48807C10.2159 9.82909 10.7703 9.82909 11.1113 9.48807C11.4523 9.14704 11.4523 8.59265 11.1113 8.25163L9.84776 6.98808L12.9135 3.30849C13.223 2.93774 13.1723 2.38597 12.8016 2.0773C12.4308 1.76775 11.8791 1.81847 11.5704 2.18923L7.73864 6.78696C7.56201 6.99857 7.30143 7.12099 7.02599 7.12099H7.02249C6.73043 7.12099 6.45499 6.98371 6.2801 6.75024L4.19722 3.97306C3.90778 3.58656 3.35952 3.50874 2.97302 3.79817C2.58652 4.08761 2.5087 4.63587 2.79813 5.02237L4.21645 6.91375Z" fill="url(#paint1_linear_73_3791)"/>
<path fill-rule="evenodd" clip-rule="evenodd" d="M13.7545 11.0039L13.4106 10.6618C13.3262 10.5778 13.2188 10.5208 13.102 10.4981C12.9852 10.4753 12.8643 10.4877 12.7545 10.5337C12.6448 10.5796 12.5511 10.6572 12.4855 10.7565C12.4199 10.8558 12.3852 10.9722 12.3858 11.0912L12.3862 11.2167C12.388 11.769 11.9417 12.2181 11.3895 12.2199L10.2723 12.2235C10.0666 12.2241 9.86951 12.3065 9.72449 12.4525C9.57946 12.5984 9.49837 12.796 9.49903 13.0018C9.49929 13.0842 9.51266 13.1652 9.53798 13.242H10.4844C11.974 13.242 13.2463 12.3137 13.7545 11.0039Z" fill="#7FD1AE"/>
<path d="M12.9947 13.7512C12.9292 13.6519 12.8946 13.5353 12.8953 13.4163L12.8958 13.2909C12.898 12.7386 12.4521 12.2891 11.8998 12.2869L10.7827 12.2825C10.577 12.2817 10.38 12.1991 10.2351 12.053C10.0901 11.907 10.0092 11.7093 10.01 11.5036C10.0108 11.2978 10.0934 11.1008 10.2394 10.9559C10.3855 10.8109 10.5832 10.73 10.7889 10.7309L11.906 10.7353C12.4583 10.7375 12.9078 10.2916 12.91 9.73932L12.9105 9.61385C12.9107 9.49483 12.9462 9.37865 13.0126 9.27983C13.0789 9.18101 13.1731 9.10411 13.2832 9.05898C13.3933 9.01377 13.5143 9.00226 13.6309 9.02589C13.7476 9.04951 13.8546 9.10728 13.9383 9.19186L15.832 11.1027C15.9441 11.216 16.0067 11.3691 16.006 11.5285C16.0054 11.6879 15.9416 11.8405 15.8286 11.953L13.9198 13.8466C13.8353 13.9304 13.7279 13.9873 13.6111 14.01C13.4942 14.0328 13.3733 14.0203 13.2636 13.9742C13.1539 13.9281 13.0603 13.8505 12.9947 13.7512Z" fill="url(#paint2_linear_73_3791)"/>
<defs>
<linearGradient id="paint0_linear_73_3791" x1="1.74885" y1="11.7121" x2="14.6412" y2="8.31199" gradientUnits="userSpaceOnUse">
<stop stop-color="#62E8AF"/>
<stop offset="1" stop-color="#B3FBDC"/>
</linearGradient>
<linearGradient id="paint1_linear_73_3791" x1="2.62329" y1="9.74384" x2="4.40494" y2="0.241221" gradientUnits="userSpaceOnUse">
<stop stop-color="#B3FBDC"/>
<stop offset="1" stop-color="white"/>
</linearGradient>
<linearGradient id="paint2_linear_73_3791" x1="10.7595" y1="13.3953" x2="16.2498" y2="11.8782" gradientUnits="userSpaceOnUse">
<stop offset="0.162009" stop-color="#4DEBA8"/>
<stop offset="0.915537" stop-color="#97FFD2"/>
</linearGradient>
</defs>
</svg>
