<svg width="16" height="16" viewBox="0 0 16 16" fill="none" xmlns="http://www.w3.org/2000/svg">
<path fill-rule="evenodd" clip-rule="evenodd" d="M13.9908 4.50645C13.9908 2.5696 12.4212 1 10.4844 1H3.49771C3.01502 1 2.62328 1.39174 2.62328 1.87443C2.62328 2.83979 1.83979 3.62328 0.874427 3.62328C0.391743 3.62328 0 4.01502 0 4.49771V9.73552C0 11.6724 1.5696 13.242 3.50645 13.242C5.56835 13.242 8.42248 13.242 10.4844 13.242C12.4212 13.242 13.9908 11.6724 13.9908 9.73552C13.9908 8.13707 13.9908 4.50645 13.9908 4.50645ZM0.874427 1C0.391743 1 0 1.39174 0 1.87443C0 2.35711 0.391743 2.74885 0.874427 2.74885C1.35711 2.74885 1.74885 2.35711 1.74885 1.87443C1.74885 1.39174 1.35711 1 0.874427 1Z" fill="url(#paint0_linear_73_3876)"/>
<path opacity="0.7" fill-rule="evenodd" clip-rule="evenodd" d="M3.34219 7.78798L2.00519 9.12586C1.66416 9.46688 1.66416 10.0213 2.00519 10.3623C2.34621 10.7033 2.9006 10.7033 3.24163 10.3623L4.4597 9.14422C4.93189 9.52809 5.5265 9.74408 6.14735 9.74408H6.15172C6.7577 9.74408 7.34006 9.53859 7.80788 9.16958L9.0006 10.3623C9.34163 10.7033 9.89601 10.7033 10.237 10.3623C10.5781 10.0213 10.5781 9.46688 10.237 9.12586L8.97349 7.86231C8.97349 7.86231 7.27098 7.99522 6.99554 7.99522H6.14822C5.85616 7.99522 5.58072 7.85794 5.40583 7.62447L3.32295 4.84729C3.03351 4.46079 2.48525 4.38297 2.09875 4.6724C1.71225 4.96184 1.63443 5.5101 1.92387 5.8966L3.34219 7.78798Z" fill="#B85C68"/>
<path fill-rule="evenodd" clip-rule="evenodd" d="M4.21645 6.91375L2.87945 8.25163C2.53843 8.59265 2.53843 9.14704 2.87945 9.48807C3.22048 9.82909 3.77487 9.82909 4.11589 9.48807L5.33397 8.26999C5.80616 8.65386 6.40077 8.86985 7.02161 8.86985H7.02599C7.63196 8.86985 8.21433 8.66436 8.68215 8.29535L9.87487 9.48807C10.2159 9.82909 10.7703 9.82909 11.1113 9.48807C11.4523 9.14704 11.4523 8.59265 11.1113 8.25163L9.84776 6.98808L12.9135 3.30849C13.223 2.93774 13.1723 2.38597 12.8016 2.0773C12.4308 1.76775 11.8791 1.81847 11.5704 2.18923L7.73864 6.78696C7.56201 6.99857 7.30143 7.12099 7.02599 7.12099H7.02249C6.73043 7.12099 6.45499 6.98371 6.2801 6.75024L4.19722 3.97306C3.90778 3.58656 3.35952 3.50874 2.97302 3.79817C2.58652 4.08761 2.5087 4.63587 2.79813 5.02237L4.21645 6.91375Z" fill="url(#paint1_linear_73_3876)"/>
<path opacity="0.7" fill-rule="evenodd" clip-rule="evenodd" d="M13.9778 10.0397C13.8854 10.0136 13.7891 10 13.6914 10H11.0547C10.775 10 10.5067 10.1111 10.3089 10.3089C10.1111 10.5067 10 10.7749 10 11.0547V13.242H10.4844C12.3188 13.242 13.8237 11.8341 13.9778 10.0397Z" fill="#B85C68"/>
<path d="M12.0547 9H14.6914C14.971 9 15.2393 9.11111 15.437 9.3089C15.6349 9.50669 15.7459 9.77495 15.7459 10.0547V14.2883C15.7459 14.4224 15.708 14.5537 15.6367 14.6672C15.5653 14.7807 15.4633 14.8717 15.3424 14.9297C15.2217 14.9878 15.0868 15.0106 14.9536 14.9954C14.8205 14.9803 14.6943 14.9279 14.5895 14.8441L13.9976 14.3707C13.6324 14.0787 13.1136 14.0787 12.7484 14.3707L12.1564 14.8441C12.0517 14.9279 11.9255 14.9803 11.7923 14.9954C11.6591 15.0106 11.5243 14.9878 11.4035 14.9297C11.2827 14.8717 11.1807 14.7807 11.1093 14.6672C11.0379 14.5537 11.0001 14.4224 11 14.2883V10.0547C11 9.77495 11.1111 9.50669 11.3089 9.3089C11.5067 9.11111 11.775 9 12.0547 9Z" fill="url(#paint2_linear_73_3876)"/>
<defs>
<linearGradient id="paint0_linear_73_3876" x1="-23.8575" y1="-0.494761" x2="0.795417" y2="36.2145" gradientUnits="userSpaceOnUse">
<stop stop-color="#F9D423"/>
<stop offset="0.515624" stop-color="#FF4E50"/>
<stop offset="0.991304" stop-color="#8A2387"/>
</linearGradient>
<linearGradient id="paint1_linear_73_3876" x1="3.37279" y1="9.26204" x2="11.5456" y2="3.38093" gradientUnits="userSpaceOnUse">
<stop stop-color="#D4A4C4"/>
<stop offset="0.5" stop-color="#F7B1B3"/>
<stop offset="1" stop-color="#F7E1A3"/>
</linearGradient>
<linearGradient id="paint2_linear_73_3876" x1="2.90714" y1="8.26739" x2="15.9544" y2="21.7137" gradientUnits="userSpaceOnUse">
<stop stop-color="#F9D423"/>
<stop offset="0.515624" stop-color="#FF4E50"/>
<stop offset="0.991304" stop-color="#8A2387"/>
</linearGradient>
</defs>
</svg>
