<svg width="16" height="16" viewBox="0 0 16 16" fill="none" xmlns="http://www.w3.org/2000/svg">
<path d="M13.2574 4.218L12.4829 5.18481C12.4049 5.28322 12.2647 5.29926 12.1678 5.22082C11.2263 4.45891 8.81543 2.50368 8.14653 1.96186C8.04884 1.88183 8.03548 1.73937 8.11424 1.64013L8.86113 0.712544C9.5387 -0.15982 10.7205 -0.239854 11.6738 0.520464L12.7689 1.39282C13.218 1.74497 13.5174 2.20916 13.6198 2.69737C13.738 3.23439 13.6119 3.76181 13.2574 4.218Z" fill="url(#paint0_linear_73_3872)"/>
<path fill-rule="evenodd" clip-rule="evenodd" d="M7.44167 2.90647L11.459 6.15262C11.5559 6.23025 11.5724 6.37271 11.4968 6.47197L6.73417 12.6777C6.43479 13.0611 5.99359 13.278 5.52087 13.286L2.92093 13.318C2.78227 13.3196 2.66094 13.2236 2.62943 13.0859L2.03853 10.5168C1.93611 10.0447 2.03853 9.55644 2.33792 9.18027L3.98258 7.03764C4.19525 6.76058 4.58229 6.70061 4.93156 6.70061C5.62543 6.70061 6.18793 6.13812 6.18793 5.44425C6.18793 5.41308 6.18679 5.38217 6.18456 5.35157C6.1814 5.30815 6.1779 5.26418 6.17438 5.21982C6.1386 4.76941 6.09968 4.27954 6.36886 3.92885L7.12415 2.94488C7.20138 2.84484 7.34397 2.82723 7.44167 2.90647ZM4.51278 5.86303C4.97536 5.86303 5.35035 5.48804 5.35035 5.02546C5.35035 4.56288 4.97536 4.18788 4.51278 4.18788C4.05019 4.18788 3.6752 4.56288 3.6752 5.02546C3.6752 5.48804 4.05019 5.86303 4.51278 5.86303Z" fill="url(#paint1_linear_73_3872)"/>
<path d="M12.472 14.2693H3.85185C3.38209 14.2693 3 14.6575 3 15.1347C3 15.6128 3.38209 16 3.85185 16H12.472C12.9418 16 13.3239 15.6128 13.3239 15.1347C13.3239 14.6575 12.9418 14.2693 12.472 14.2693Z" fill="url(#paint2_linear_73_3872)"/>
<defs>
<linearGradient id="paint0_linear_73_3872" x1="9.46306" y1="3.95292" x2="12.0935" y2="1.15815" gradientUnits="userSpaceOnUse">
<stop stop-color="#FBD92C"/>
<stop offset="1" stop-color="white"/>
</linearGradient>
<linearGradient id="paint1_linear_73_3872" x1="3.78953" y1="12.6634" x2="10.409" y2="5.41579" gradientUnits="userSpaceOnUse">
<stop stop-color="#FF8860"/>
<stop offset="1" stop-color="#FBD92C"/>
</linearGradient>
<linearGradient id="paint2_linear_73_3872" x1="4.93572" y1="15.8917" x2="5.23707" y2="13.7345" gradientUnits="userSpaceOnUse">
<stop stop-color="#FF8860"/>
<stop offset="1" stop-color="#FBD92C"/>
</linearGradient>
</defs>
</svg>
