<svg width="16" height="16" viewBox="0 0 16 16" fill="none" xmlns="http://www.w3.org/2000/svg">
<path d="M1 12.9798C1 12.1516 1.67187 11.4797 2.5 11.4797H13.5C14.3282 11.4797 15 12.1516 15 12.9798C15 13.808 14.3282 14.4799 13.5 14.4799H2.5C1.67187 14.4799 1 13.808 1 12.9798Z" fill="url(#paint0_linear_73_3914)"/>
<path d="M3.91174 6.78987C3.64513 6.4061 3.39095 6.01387 3.14962 5.61369C2.17145 4.00392 1.68237 3.19978 2.22396 2.47816C2.76406 1.75805 3.89825 1.69203 6.16661 1.56001C6.80725 1.524 7.43585 1.5 7.99993 1.5C8.56402 1.5 9.19262 1.524 9.83327 1.56001C12.1016 1.69203 13.2343 1.75805 13.7759 2.47816C14.3175 3.19978 13.8284 4.00541 12.8503 5.61369C12.5967 6.03077 12.3387 6.43435 12.0881 6.78987C11.8031 7.19495 11.461 7.63754 11.098 8.08311C9.78217 9.69586 9.12511 10.5016 7.99993 10.5016C6.87475 10.5016 6.21765 9.69586 4.90192 8.08311C4.53885 7.63754 4.1968 7.19645 3.91174 6.78987Z" fill="url(#paint1_linear_73_3914)"/>
<defs>
<linearGradient id="paint0_linear_73_3914" x1="4.5" y1="14.2656" x2="5.21399" y2="10.3786" gradientUnits="userSpaceOnUse">
<stop stop-color="#A056FF"/>
<stop offset="1" stop-color="#C59AFD"/>
</linearGradient>
<linearGradient id="paint1_linear_73_3914" x1="4.99972" y1="9.85861" x2="10.4837" y2="1.32874" gradientUnits="userSpaceOnUse">
<stop stop-color="#A056FF"/>
<stop offset="1" stop-color="#C59AFD"/>
</linearGradient>
</defs>
</svg>
