<svg width="16" height="16" viewBox="0 0 16 16" fill="none" xmlns="http://www.w3.org/2000/svg">
<path fill-rule="evenodd" clip-rule="evenodd" d="M3 8.00002C3 9.99997 1.336 10.163 1.27601 10.193C0.781004 10.437 0.577 11.037 0.820999 11.5321C2.126 14.1781 4.85201 16 8.00002 16C12.415 16 16 12.415 16 8.00002C16 3.585 12.415 0 8.00002 0C4.85201 0 2.126 1.822 0.820999 4.468C0.577 4.96301 0.781004 5.56301 1.27601 5.80701C1.336 5.83701 3 6.00002 3 8.00002ZM1 7.00002C0.448003 7.00002 0 7.44801 0 8.00002C0 8.55202 0.448003 9.00002 1 9.00002C1.552 9.00002 2 8.55202 2 8.00002C2 7.44801 1.552 7.00002 1 7.00002Z" fill="url(#paint0_linear_73_4012)"/>
<path d="M9.03295 6.64349C9.24012 6.49954 9.45191 6.36232 9.66795 6.23202C10.5371 5.70391 10.9712 5.43986 11.3608 5.73226C11.7496 6.02386 11.7852 6.6362 11.8565 7.86089C11.8759 8.20673 11.8889 8.54612 11.8889 8.85069C11.8889 9.15525 11.8759 9.49464 11.8565 9.84047C11.7852 11.0652 11.7496 11.6767 11.3608 11.9691C10.9712 12.2615 10.5362 11.9975 9.66795 11.4693C9.4428 11.3325 9.2249 11.1932 9.03295 11.0579C8.81424 10.904 8.57527 10.7193 8.33473 10.5233C7.46401 9.81293 7.02905 9.45815 7.02905 8.85069C7.02905 8.24322 7.46401 7.88843 8.33473 7.17808C8.57527 6.98206 8.81343 6.79739 9.03295 6.64349Z" fill="#D49F34"/>
<path d="M5.00389 6.64349C5.21109 6.49954 5.42287 6.36232 5.63891 6.23202C6.50802 5.70391 6.94219 5.43986 7.33179 5.73226C7.72054 6.02386 7.75622 6.6362 7.82749 7.86089C7.84693 8.20673 7.85989 8.54612 7.85989 8.85069C7.85989 9.15525 7.84693 9.49464 7.82749 9.84047C7.75622 11.0652 7.72054 11.6767 7.33179 11.9691C6.94219 12.2615 6.50721 11.9975 5.63891 11.4693C5.41374 11.3325 5.19586 11.1932 5.00389 11.0579C4.7852 10.904 4.54625 10.7193 4.30569 10.5233C3.43496 9.81293 3 9.45815 3 8.85069C3 8.24322 3.43496 7.88843 4.30569 7.17808C4.54625 6.98206 4.78439 6.79739 5.00389 6.64349Z" fill="#D49F34"/>
<path d="M10.144 5.53241C10.3512 5.38846 10.563 5.25123 10.779 5.12094C11.6481 4.59283 12.0823 4.32878 12.4719 4.62118C12.8607 4.91277 12.8963 5.52512 12.9676 6.74981C12.987 7.09565 13 7.43504 13 7.7396C13 8.04417 12.987 8.38355 12.9676 8.72938C12.8963 9.95407 12.8607 10.5656 12.4719 10.858C12.0823 11.1504 11.6473 10.8864 10.779 10.3583C10.5539 10.2214 10.336 10.0821 10.144 9.94678C9.92532 9.7929 9.68636 9.60821 9.44582 9.41221C8.57509 8.70185 8.14014 8.34707 8.14014 7.7396C8.14014 7.13214 8.57509 6.77735 9.44582 6.067C9.68636 5.87098 9.92451 5.6863 10.144 5.53241Z" fill="url(#paint1_linear_73_4012)"/>
<path d="M6.11497 5.53241C6.32217 5.38846 6.53395 5.25123 6.75 5.12094C7.6191 4.59283 8.05327 4.32878 8.44287 4.62118C8.83163 4.91277 8.8673 5.52512 8.93857 6.74981C8.95801 7.09565 8.97097 7.43504 8.97097 7.7396C8.97097 8.04417 8.95801 8.38355 8.93857 8.72938C8.8673 9.95407 8.83163 10.5656 8.44287 10.858C8.05327 11.1504 7.61829 10.8864 6.75 10.3583C6.52482 10.2214 6.30694 10.0821 6.11497 9.94678C5.89628 9.7929 5.65733 9.60821 5.41677 9.41221C4.54604 8.70185 4.11108 8.34707 4.11108 7.7396C4.11108 7.13214 4.54604 6.77735 5.41677 6.067C5.65733 5.87098 5.89547 5.6863 6.11497 5.53241Z" fill="url(#paint2_linear_73_4012)"/>
<defs>
<linearGradient id="paint0_linear_73_4012" x1="3" y1="14.9988" x2="12.9991" y2="2.99901" gradientUnits="userSpaceOnUse">
<stop stop-color="#FF8860"/>
<stop offset="1" stop-color="#FBD92C"/>
</linearGradient>
<linearGradient id="paint1_linear_73_4012" x1="9.3551" y1="9.35941" x2="12.4652" y2="7.02662" gradientUnits="userSpaceOnUse">
<stop stop-color="#FBD92C"/>
<stop offset="1" stop-color="white"/>
</linearGradient>
<linearGradient id="paint2_linear_73_4012" x1="5.32606" y1="9.35941" x2="8.43616" y2="7.0266" gradientUnits="userSpaceOnUse">
<stop stop-color="#FBD92C"/>
<stop offset="1" stop-color="white"/>
</linearGradient>
</defs>
</svg>
