<svg width="16" height="16" viewBox="0 0 16 16" fill="none" xmlns="http://www.w3.org/2000/svg">
<path fill-rule="evenodd" clip-rule="evenodd" d="M3 8.00002C3 9.99997 1.336 10.163 1.27601 10.193C0.781004 10.437 0.577 11.037 0.820999 11.5321C2.126 14.1781 4.85201 16 8.00002 16C12.415 16 16 12.415 16 8.00002C16 3.585 12.415 0 8.00002 0C4.85201 0 2.126 1.822 0.820999 4.468C0.577 4.96301 0.781004 5.56301 1.27601 5.80701C1.336 5.83701 3 6.00002 3 8.00002ZM1 7.00002C0.448003 7.00002 0 7.44801 0 8.00002C0 8.55202 0.448003 9.00002 1 9.00002C1.552 9.00002 2 8.55202 2 8.00002C2 7.44801 1.552 7.00002 1 7.00002Z" fill="url(#paint0_linear_73_4045)"/>
<path d="M11.5 11.8863C11.5 11.9764 11.4384 12.0627 11.3287 12.1264C11.219 12.1901 11.0702 12.2259 10.9151 12.2259C10.76 12.2259 10.6113 12.1901 10.5016 12.1264C10.3919 12.0627 10.3303 11.9764 10.3303 11.8863V5.54715C10.3303 5.45708 10.3919 5.3707 10.5016 5.30701C10.6113 5.24333 10.76 5.20753 10.9151 5.20753C11.0702 5.20753 11.219 5.24333 11.3287 5.30701C11.4384 5.3707 11.5 5.45708 11.5 5.54715V11.8863Z" fill="#8C4FD9"/>
<path d="M6.94526 11.3705C6.6953 11.5441 6.43983 11.7097 6.17923 11.8669C5.13082 12.5039 4.60708 12.8225 4.13712 12.4697C3.66809 12.118 3.6251 11.3793 3.53913 9.90195C3.51568 9.48474 3.50005 9.07534 3.50005 8.70795C3.50005 8.34057 3.51568 7.93117 3.53913 7.51395C3.6251 6.03659 3.66809 5.29892 4.13712 4.9462C4.60708 4.59344 5.13179 4.912 6.17923 5.54903C6.45085 5.71417 6.71369 5.88225 6.94526 6.04541C7.20907 6.23106 7.49729 6.45381 7.78748 6.69026C8.83785 7.54718 9.36255 7.97516 9.36255 8.70795C9.36255 9.44075 8.83785 9.86873 7.78748 10.7256C7.49729 10.9621 7.21003 11.1849 6.94526 11.3705Z" fill="#8C4FD9"/>
<path d="M12.4999 10.8863C12.4999 10.9764 12.4383 11.0627 12.3286 11.1264C12.2189 11.1901 12.0702 11.2259 11.9151 11.2259C11.76 11.2259 11.6112 11.1901 11.5015 11.1264C11.3918 11.0627 11.3302 10.9764 11.3302 10.8863V4.54714C11.3302 4.45707 11.3918 4.37069 11.5015 4.30701C11.6112 4.24332 11.76 4.20752 11.9151 4.20752C12.0702 4.20752 12.2189 4.24332 12.3286 4.30701C12.4383 4.37069 12.4999 4.45707 12.4999 4.54714V10.8863Z" fill="url(#paint1_linear_73_4045)"/>
<path d="M7.94521 10.3705C7.69525 10.5441 7.43978 10.7097 7.17918 10.8668C6.13077 11.5039 5.60703 11.8224 5.13707 11.4697C4.66804 11.118 4.62505 10.3793 4.53908 8.90193C4.51563 8.48473 4.5 8.07532 4.5 7.70794C4.5 7.34055 4.51563 6.93115 4.53908 6.51393C4.62505 5.03658 4.66804 4.2989 5.13707 3.94618C5.60703 3.59343 6.13174 3.91198 7.17918 4.54901C7.4508 4.71415 7.71364 4.88223 7.94521 5.0454C8.20902 5.23104 8.49724 5.4538 8.78743 5.69025C9.8378 6.54717 10.3625 6.97514 10.3625 7.70794C10.3625 8.44074 9.8378 8.86871 8.78743 9.72561C8.49724 9.96207 8.20998 10.1848 7.94521 10.3705Z" fill="url(#paint2_linear_73_4045)"/>
<defs>
<linearGradient id="paint0_linear_73_4045" x1="4" y1="14.8572" x2="14.5883" y2="2.50422" gradientUnits="userSpaceOnUse">
<stop stop-color="#A056FF"/>
<stop offset="1" stop-color="#C59AFD"/>
</linearGradient>
<linearGradient id="paint1_linear_73_4045" x1="11.6226" y1="11.2259" x2="12.886" y2="11.1557" gradientUnits="userSpaceOnUse">
<stop stop-color="#C59AFD"/>
<stop offset="1" stop-color="white"/>
</linearGradient>
<linearGradient id="paint2_linear_73_4045" x1="5.96562" y1="11.6159" x2="11.943" y2="10.1214" gradientUnits="userSpaceOnUse">
<stop stop-color="#C59AFD"/>
<stop offset="1" stop-color="white"/>
</linearGradient>
</defs>
</svg>
