<svg width="16" height="16" viewBox="0 0 16 16" fill="none" xmlns="http://www.w3.org/2000/svg">
<path fill-rule="evenodd" clip-rule="evenodd" d="M3 8.00002C3 9.99997 1.336 10.163 1.27601 10.193C0.781004 10.437 0.577 11.037 0.820999 11.5321C2.126 14.1781 4.85201 16 8.00002 16C12.415 16 16 12.415 16 8.00002C16 3.585 12.415 0 8.00002 0C4.85201 0 2.126 1.822 0.820999 4.468C0.577 4.96301 0.781004 5.56301 1.27601 5.80701C1.336 5.83701 3 6.00002 3 8.00002ZM1 7.00002C0.448003 7.00002 0 7.44801 0 8.00002C0 8.55202 0.448003 9.00002 1 9.00002C1.552 9.00002 2 8.55202 2 8.00002C2 7.44801 1.552 7.00002 1 7.00002Z" fill="url(#paint0_linear_73_3936)"/>
<path d="M11.2457 9.50001C11.2457 8.65516 10.3784 8.08553 8.64542 6.94625C6.88954 5.79258 6.01077 5.21493 5.35621 5.63896C4.69995 6.063 4.69995 7.20706 4.69995 9.50001C4.69995 11.7914 4.69995 12.937 5.35458 13.361C6.00914 13.7851 6.88954 13.2074 8.64542 12.0538C10.38 10.9146 11.2457 10.3448 11.2457 9.50001Z" fill="#7FD1AE"/>
<path d="M12.2457 8.00001C12.2457 7.15516 11.3784 6.58553 9.64542 5.44625C7.88954 4.29258 7.01077 3.71493 6.35621 4.13896C5.69995 4.563 5.69995 5.70706 5.69995 8.00001C5.69995 10.2914 5.69995 11.437 6.35458 11.861C7.00914 12.2851 7.88954 11.7074 9.64542 10.5538C11.38 9.4145 12.2457 8.84486 12.2457 8.00001Z" fill="url(#paint1_linear_73_3936)"/>
<defs>
<linearGradient id="paint0_linear_73_3936" x1="2" y1="14.0005" x2="16.972" y2="10.5455" gradientUnits="userSpaceOnUse">
<stop stop-color="#62E8AF"/>
<stop offset="1" stop-color="#B3FBDC"/>
</linearGradient>
<linearGradient id="paint1_linear_73_3936" x1="5.69995" y1="12" x2="8.49449" y2="2.85384" gradientUnits="userSpaceOnUse">
<stop stop-color="#B3FBDC"/>
<stop offset="1" stop-color="white"/>
</linearGradient>
</defs>
</svg>
