<svg width="16" height="16" viewBox="0 0 16 16" fill="none" xmlns="http://www.w3.org/2000/svg">
<path fill-rule="evenodd" clip-rule="evenodd" d="M3 8.00002C3 9.99997 1.336 10.163 1.27601 10.193C0.781004 10.437 0.577 11.037 0.820999 11.5321C2.126 14.1781 4.85201 16 8.00002 16C12.415 16 16 12.415 16 8.00002C16 3.585 12.415 0 8.00002 0C4.85201 0 2.126 1.822 0.820999 4.468C0.577 4.96301 0.781004 5.56301 1.27601 5.80701C1.336 5.83701 3 6.00002 3 8.00002ZM1 7.00002C0.448003 7.00002 0 7.44801 0 8.00002C0 8.55202 0.448003 9.00002 1 9.00002C1.552 9.00002 2 8.55202 2 8.00002C2 7.44801 1.552 7.00002 1 7.00002Z" fill="url(#paint0_linear_73_3944)"/>
<path d="M8.94 4.79999H6.06C4.64615 4.79999 3.5 5.94614 3.5 7.35999V10.24C3.5 11.6538 4.64615 12.8 6.06 12.8H8.94C10.3538 12.8 11.5 11.6538 11.5 10.24V7.35999C11.5 5.94614 10.3538 4.79999 8.94 4.79999Z" fill="#D84F4F"/>
<path d="M9.94 3.79999H7.06C5.64615 3.79999 4.5 4.94614 4.5 6.35999V9.23999C4.5 10.6538 5.64615 11.8 7.06 11.8H9.94C11.3538 11.8 12.5 10.6538 12.5 9.23999V6.35999C12.5 4.94614 11.3538 3.79999 9.94 3.79999Z" fill="url(#paint1_linear_73_3944)"/>
<defs>
<linearGradient id="paint0_linear_73_3944" x1="3" y1="14" x2="13" y2="2" gradientUnits="userSpaceOnUse">
<stop stop-color="#FF405B"/>
<stop offset="1" stop-color="#FF8860"/>
</linearGradient>
<linearGradient id="paint1_linear_73_3944" x1="6.78482" y1="11.7998" x2="9.39595" y2="5.58301" gradientUnits="userSpaceOnUse">
<stop stop-color="#FF8860"/>
<stop offset="1" stop-color="white"/>
</linearGradient>
</defs>
</svg>
