<svg width="16" height="16" viewBox="0 0 16 16" fill="none" xmlns="http://www.w3.org/2000/svg">
<path fill-rule="evenodd" clip-rule="evenodd" d="M3 8.00002C3 9.99997 1.336 10.163 1.27601 10.193C0.781004 10.437 0.577 11.037 0.820999 11.5321C2.126 14.1781 4.85201 16 8.00002 16C12.415 16 16 12.415 16 8.00002C16 3.585 12.415 0 8.00002 0C4.85201 0 2.126 1.822 0.820999 4.468C0.577 4.96301 0.781004 5.56301 1.27601 5.80701C1.336 5.83701 3 6.00002 3 8.00002ZM1 7.00002C0.448003 7.00002 0 7.44801 0 8.00002C0 8.55202 0.448003 9.00002 1 9.00002C1.552 9.00002 2 8.55202 2 8.00002C2 7.44801 1.552 7.00002 1 7.00002Z" fill="url(#paint0_linear_73_4035)"/>
<path d="M3.5 5.5296C3.5 5.43953 3.56163 5.35315 3.67132 5.28947C3.781 5.22578 3.92976 5.19 4.08489 5.19C4.23998 5.19 4.38874 5.22578 4.49843 5.28947C4.60811 5.35315 4.66974 5.43953 4.66974 5.5296V11.8687C4.66974 11.9588 4.60811 12.0452 4.49843 12.1089C4.38874 12.1726 4.23998 12.2084 4.08489 12.2084C3.92976 12.2084 3.781 12.1726 3.67132 12.1089C3.56163 12.0452 3.5 11.9588 3.5 11.8687V5.5296Z" fill="#8C4FD9"/>
<path d="M8.05474 6.04539C8.3047 5.87175 8.56017 5.70621 8.82077 5.54903C9.86918 4.91197 10.3929 4.59344 10.8629 4.94617C11.3319 5.29792 11.3749 6.03659 11.4609 7.51394C11.4843 7.93115 11.4999 8.34055 11.4999 8.70794C11.4999 9.07532 11.4843 9.48473 11.4609 9.90195C11.3749 11.3793 11.3319 12.117 10.8629 12.4697C10.3929 12.8225 9.86821 12.5039 8.82077 11.8669C8.54915 11.7017 8.28631 11.5336 8.05474 11.3705C7.79093 11.1848 7.50271 10.9621 7.21252 10.7256C6.16215 9.86871 5.63745 9.44074 5.63745 8.70794C5.63745 7.97514 6.16215 7.54717 7.21252 6.69026C7.50271 6.45381 7.78997 6.23103 8.05474 6.04539Z" fill="#8C4FD9"/>
<path d="M4.5 4.5296C4.5 4.43953 4.56163 4.35315 4.67132 4.28947C4.781 4.22578 4.92976 4.19 5.08489 4.19C5.23998 4.19 5.38874 4.22578 5.49843 4.28947C5.60811 4.35315 5.66974 4.43953 5.66974 4.5296V10.8687C5.66974 10.9588 5.60811 11.0452 5.49843 11.1089C5.38874 11.1726 5.23998 11.2084 5.08489 11.2084C4.92976 11.2084 4.781 11.1726 4.67132 11.1089C4.56163 11.0452 4.5 10.9588 4.5 10.8687V4.5296Z" fill="url(#paint1_linear_73_4035)"/>
<path d="M9.05474 5.04539C9.3047 4.87175 9.56017 4.70621 9.82077 4.54903C10.8692 3.91197 11.3929 3.59344 11.8629 3.94617C12.3319 4.29792 12.3749 5.03659 12.4609 6.51394C12.4843 6.93115 12.4999 7.34055 12.4999 7.70794C12.4999 8.07532 12.4843 8.48473 12.4609 8.90195C12.3749 10.3793 12.3319 11.117 11.8629 11.4697C11.3929 11.8225 10.8682 11.5039 9.82077 10.8669C9.54915 10.7017 9.28631 10.5336 9.05474 10.3705C8.79093 10.1848 8.50271 9.96208 8.21252 9.72563C7.16215 8.86871 6.63745 8.44074 6.63745 7.70794C6.63745 6.97514 7.16215 6.54717 8.21252 5.69026C8.50271 5.45381 8.78997 5.23103 9.05474 5.04539Z" fill="url(#paint2_linear_73_4035)"/>
<defs>
<linearGradient id="paint0_linear_73_4035" x1="4" y1="14.8572" x2="14.5883" y2="2.50422" gradientUnits="userSpaceOnUse">
<stop stop-color="#A056FF"/>
<stop offset="1" stop-color="#C59AFD"/>
</linearGradient>
<linearGradient id="paint1_linear_73_4035" x1="4.79244" y1="11.2084" x2="6.05576" y2="11.1382" gradientUnits="userSpaceOnUse">
<stop stop-color="#C59AFD"/>
<stop offset="1" stop-color="white"/>
</linearGradient>
<linearGradient id="paint2_linear_73_4035" x1="8.10308" y1="11.6159" x2="14.0805" y2="10.1214" gradientUnits="userSpaceOnUse">
<stop stop-color="#C59AFD"/>
<stop offset="1" stop-color="white"/>
</linearGradient>
</defs>
</svg>
