<svg width="16" height="16" viewBox="0 0 16 16" fill="none" xmlns="http://www.w3.org/2000/svg">
<path fill-rule="evenodd" clip-rule="evenodd" d="M3 8.00002C3 9.99997 1.336 10.163 1.27601 10.193C0.781004 10.437 0.577 11.037 0.820999 11.5321C2.126 14.1781 4.85201 16 8.00002 16C12.415 16 16 12.415 16 8.00002C16 3.585 12.415 0 8.00002 0C4.85201 0 2.126 1.822 0.820999 4.468C0.577 4.96301 0.781004 5.56301 1.27601 5.80701C1.336 5.83701 3 6.00002 3 8.00002ZM1 7.00002C0.448003 7.00002 0 7.44801 0 8.00002C0 8.55202 0.448003 9.00002 1 9.00002C1.552 9.00002 2 8.55202 2 8.00002C2 7.44801 1.552 7.00002 1 7.00002Z" fill="url(#paint0_linear_73_4022)"/>
<path d="M5.85596 11.0579C5.64878 11.2019 5.43699 11.3391 5.22095 11.4694C4.35185 11.9975 3.9177 12.2616 3.5281 11.9692C3.13931 11.6776 3.10367 11.0652 3.0324 9.84053C3.01296 9.49468 3 9.15528 3 8.85072C3 8.54616 3.01296 8.20677 3.0324 7.86094C3.10367 6.63625 3.13931 6.02469 3.5281 5.73228C3.9177 5.4399 4.35266 5.70393 5.22095 6.23207C5.44611 6.36894 5.66401 6.50824 5.85596 6.64354C6.07467 6.79742 6.31363 6.98212 6.55417 7.17811C7.4249 7.88848 7.85985 8.24325 7.85985 8.85072C7.85985 9.45819 7.4249 9.81298 6.55417 10.5233C6.31363 10.7194 6.07548 10.904 5.85596 11.0579Z" fill="#D49F34"/>
<path d="M9.88505 11.0579C9.67785 11.2019 9.46607 11.3391 9.25002 11.4694C8.38092 11.9975 7.94675 12.2616 7.55715 11.9692C7.16839 11.6776 7.13272 11.0652 7.06145 9.84053C7.04201 9.49468 7.02905 9.15528 7.02905 8.85072C7.02905 8.54616 7.04201 8.20677 7.06145 7.86094C7.13272 6.63625 7.16839 6.02469 7.55715 5.73228C7.94675 5.4399 8.38173 5.70393 9.25002 6.23207C9.4752 6.36894 9.69308 6.50824 9.88505 6.64354C10.1037 6.79742 10.3427 6.98212 10.5832 7.17811C11.454 7.88848 11.8889 8.24325 11.8889 8.85072C11.8889 9.45819 11.454 9.81298 10.5832 10.5233C10.3427 10.7194 10.1045 10.904 9.88505 11.0579Z" fill="#D49F34"/>
<path d="M6.96716 9.9468C6.75999 10.0908 6.5482 10.228 6.33216 10.3583C5.46305 10.8864 5.0289 11.1504 4.6393 10.858C4.25051 10.5664 4.21487 9.95409 4.1436 8.7294C4.12416 8.38356 4.11121 8.04417 4.11121 7.73961C4.11121 7.43505 4.12416 7.09566 4.1436 6.74983C4.21487 5.52514 4.25051 4.91358 4.6393 4.62117C5.0289 4.32879 5.46386 4.59282 6.33216 5.12096C6.55731 5.25783 6.77521 5.39713 6.96716 5.53243C7.18587 5.68631 7.42483 5.87101 7.66537 6.067C8.5361 6.77737 8.97106 7.13214 8.97106 7.73961C8.97106 8.34708 8.5361 8.70186 7.66537 9.41222C7.42483 9.60823 7.18668 9.79291 6.96716 9.9468Z" fill="url(#paint1_linear_73_4022)"/>
<path d="M10.9961 9.9468C10.7889 10.0908 10.5772 10.228 10.3611 10.3583C9.492 10.8864 9.05784 11.1504 8.66823 10.858C8.27948 10.5664 8.2438 9.95409 8.17253 8.7294C8.1531 8.38356 8.14014 8.04417 8.14014 7.73961C8.14014 7.43505 8.1531 7.09566 8.17253 6.74983C8.2438 5.52514 8.27948 4.91358 8.66823 4.62117C9.05784 4.32879 9.49281 4.59282 10.3611 5.12096C10.5863 5.25783 10.8042 5.39713 10.9961 5.53243C11.2148 5.68631 11.4538 5.87101 11.6943 6.067C12.5651 6.77737 13 7.13214 13 7.73961C13 8.34708 12.5651 8.70186 11.6943 9.41222C11.4538 9.60823 11.2156 9.79291 10.9961 9.9468Z" fill="url(#paint2_linear_73_4022)"/>
<defs>
<linearGradient id="paint0_linear_73_4022" x1="3" y1="14.9988" x2="12.9991" y2="2.99901" gradientUnits="userSpaceOnUse">
<stop stop-color="#FF8860"/>
<stop offset="1" stop-color="#FBD92C"/>
</linearGradient>
<linearGradient id="paint1_linear_73_4022" x1="5.32617" y1="9.35941" x2="8.43627" y2="7.02662" gradientUnits="userSpaceOnUse">
<stop stop-color="#FBD92C"/>
<stop offset="1" stop-color="white"/>
</linearGradient>
<linearGradient id="paint2_linear_73_4022" x1="9.35511" y1="9.35941" x2="12.4652" y2="7.0266" gradientUnits="userSpaceOnUse">
<stop stop-color="#FBD92C"/>
<stop offset="1" stop-color="white"/>
</linearGradient>
</defs>
</svg>
