<svg width="16" height="16" viewBox="0 0 16 16" fill="none" xmlns="http://www.w3.org/2000/svg">
<path d="M1.1752 14.1525C1.17325 13.9283 1.25943 13.7124 1.41519 13.5511L2.95152 12.014C2.51865 11.3172 2.33419 10.4945 2.42811 9.67969C2.52203 8.86482 2.88878 8.10564 3.46869 7.52558L4.38175 6.61252C4.52068 6.47359 4.68568 6.36336 4.86721 6.28815C5.04874 6.21301 5.24327 6.17432 5.43976 6.17432C5.63624 6.17432 5.83085 6.21301 6.0123 6.28815C6.19383 6.36336 6.35883 6.47359 6.49776 6.61252L9.56268 9.67833C9.84299 9.95886 10.0005 10.3392 10.0005 10.7359C10.0005 11.1325 9.84299 11.5129 9.56268 11.7934L8.64961 12.7073C8.0694 13.2874 7.30999 13.6541 6.49498 13.7478C5.6799 13.8416 4.85715 13.6568 4.16032 13.2237L2.62407 14.76C2.46283 14.9157 2.24688 15.0019 2.02267 15C1.79854 14.998 1.5841 14.9081 1.42563 14.7496C1.2671 14.5911 1.17716 14.3767 1.1752 14.1525Z" fill="url(#paint0_linear_129_72)"/>
<path fill-rule="evenodd" clip-rule="evenodd" d="M3.50371 7.49055L4.38172 6.61254C4.52065 6.47362 4.68565 6.36339 4.86718 6.28818C5.04871 6.21304 5.24324 6.17434 5.43972 6.17434C5.63621 6.17434 5.83081 6.21304 6.01227 6.28818C6.1938 6.36339 6.3588 6.47362 6.49773 6.61254L9.56264 9.67836C9.66982 9.78562 9.75904 9.90747 9.82837 10.0393C9.71146 10.1428 9.56033 10.2004 9.40328 10.2004C9.23335 10.2004 9.07038 10.133 8.95016 10.0129L8.69967 9.76239L7.44295 11.0192C7.28171 11.1749 7.06569 11.2611 6.84155 11.2591C6.61742 11.2572 6.40298 11.1673 6.24444 11.0088C6.08598 10.8502 5.99604 10.6358 5.99408 10.4117C5.99213 10.1875 6.07831 9.97157 6.23407 9.81033L7.49081 8.55359L6.13489 7.19766L4.87815 8.45441C4.7169 8.61009 4.50096 8.69627 4.27675 8.69432C4.05262 8.69237 3.83817 8.6025 3.67971 8.44396C3.52117 8.28542 3.43123 8.07106 3.42928 7.84685C3.42824 7.72296 3.45408 7.60158 3.50371 7.49055Z" fill="#8CC860"/>
<path d="M7.54567 9.8103C7.38991 9.97155 7.30372 10.1875 7.30568 10.4116C7.30763 10.6358 7.39757 10.8502 7.55604 11.0087C7.71457 11.1672 7.92902 11.2571 8.15315 11.2591C8.37728 11.261 8.5933 11.1749 8.75455 11.0191L10.0113 9.76237L10.2618 10.0129C10.382 10.1329 10.5449 10.2004 10.7149 10.2004C10.8848 10.2004 11.0478 10.1329 11.168 10.0129L12.6855 8.49541C13.2654 7.91535 13.6322 7.15616 13.7261 6.3413C13.82 5.52644 13.6355 4.70376 13.2027 4.00702L14.739 2.46986C14.8207 2.39097 14.8858 2.29667 14.9306 2.19238C14.9754 2.08802 14.999 1.97584 15 1.86238C15.001 1.74885 14.9793 1.63629 14.9364 1.53118C14.8934 1.42614 14.8299 1.33064 14.7496 1.25039C14.6693 1.17014 14.5739 1.10665 14.4688 1.06367C14.3638 1.0207 14.2512 0.999055 14.1377 1.00003C14.0241 1.00101 13.912 1.0246 13.8076 1.06938C13.7034 1.11424 13.609 1.17931 13.5301 1.26098L11.993 2.79731C11.2962 2.36445 10.4735 2.18006 9.65867 2.27391C8.84381 2.36783 8.0847 2.73457 7.50464 3.31455L5.9871 4.83202C5.86703 4.95224 5.79963 5.11521 5.79963 5.2851C5.79963 5.45506 5.86703 5.61803 5.9871 5.73825L6.23761 5.98876L4.98086 7.2455C4.8251 7.40674 4.739 7.62269 4.74087 7.84682C4.74283 8.07103 4.83277 8.2854 4.99131 8.44394C5.14977 8.60248 5.36421 8.69234 5.58835 8.69429C5.81255 8.69625 6.0285 8.61006 6.18974 8.45438L7.44649 7.19764L8.80241 8.55356L7.54567 9.8103Z" fill="url(#paint1_linear_129_72)"/>
<defs>
<linearGradient id="paint0_linear_129_72" x1="1.80555" y1="15" x2="7.63647" y2="6.51901" gradientUnits="userSpaceOnUse">
<stop stop-color="#9BE862"/>
<stop offset="1" stop-color="#C8FF9F"/>
</linearGradient>
<linearGradient id="paint1_linear_129_72" x1="5.47364" y1="11.2591" x2="12.2515" y2="1.40039" gradientUnits="userSpaceOnUse">
<stop stop-color="#9BE862"/>
<stop offset="1" stop-color="#C8FF9F"/>
</linearGradient>
</defs>
</svg>
