<svg width="16" height="16" viewBox="0 0 16 16" fill="none" xmlns="http://www.w3.org/2000/svg">
<path fill-rule="evenodd" clip-rule="evenodd" d="M11.9994 3.99983V2.55389C11.9994 1.87692 11.7304 1.22695 11.2514 0.747968C10.7725 0.268988 10.1225 0 9.44552 0C8.55556 0 7.44361 0 6.55365 0C5.87667 0 5.2267 0.268988 4.74772 0.747968C4.26874 1.22695 3.99976 1.87692 3.99976 2.55389V3.99983C3.99976 4.5518 4.44774 4.99978 4.99971 4.99978H10.9995C11.5514 4.99978 11.9994 4.5518 11.9994 3.99983Z" fill="url(#paint0_linear_73_4236)"/>
<path fill-rule="evenodd" clip-rule="evenodd" d="M2.94687 12.9924H13.0524C14.6804 12.9924 15.9993 11.6725 15.9993 10.0456C15.9993 8.64161 15.9993 6.99269 15.9993 6.99269C15.9993 6.44071 15.5513 5.99273 14.9994 5.99273C13.8954 5.99273 12.9994 5.09677 12.9994 3.99282C12.9994 3.44084 12.5515 2.99286 11.9995 2.99286H2.94687C2.16591 2.99286 1.41594 3.30385 0.862963 3.85582C0.310987 4.4088 0 5.15877 0 5.93973C0 7.18668 0 8.79861 0 10.0456C0 11.6725 1.31894 12.9924 2.94687 12.9924ZM14.9994 2.99286C14.4474 2.99286 13.9994 3.44084 13.9994 3.99282C13.9994 4.54479 14.4474 4.99277 14.9994 4.99277C15.5513 4.99277 15.9993 4.54479 15.9993 3.99282C15.9993 3.44084 15.5513 2.99286 14.9994 2.99286Z" fill="url(#paint1_linear_73_4236)"/>
<path fill-rule="evenodd" clip-rule="evenodd" d="M2.99983 12.9925H10.9995V10.9995C11.5495 10.9995 11.9994 10.5516 11.9994 9.99959C11.9994 9.44761 11.5495 8.99963 10.9995 8.99963H2.99983C2.44986 8.99963 1.99988 9.44761 1.99988 9.99959C1.99988 10.5516 2.44986 10.9995 2.99983 10.9995V12.9925Z" fill="#D84F4F"/>
<path fill-rule="evenodd" clip-rule="evenodd" d="M3.99976 9.00026C3.99976 9.55224 3.99976 13.5189 3.99976 13.5189C3.99976 14.8892 5.11071 16 6.48065 16H9.51852C10.8885 16 11.9994 14.8892 11.9994 13.5189C11.9994 11.4642 11.9994 9.00026 11.9994 9.00026C11.9994 8.44829 11.5514 8.00031 10.9995 8.00031H4.99971C4.44774 8.00031 3.99976 8.44829 3.99976 9.00026Z" fill="url(#paint2_linear_73_4236)"/>
<path d="M11.9994 8.99963H3.99976V10.9995H11.9994V8.99963Z" fill="#D84F4F"/>
<path fill-rule="evenodd" clip-rule="evenodd" d="M3.99983 9.99955H11.9995C12.5515 9.99955 12.9994 9.55157 12.9994 8.99959C12.9994 8.44761 12.5515 7.99963 11.9995 7.99963H3.99983C3.44786 7.99963 2.99988 8.44761 2.99988 8.99959C2.99988 9.55157 3.44786 9.99955 3.99983 9.99955Z" fill="url(#paint3_linear_73_4236)"/>
<defs>
<linearGradient id="paint0_linear_73_4236" x1="5.49969" y1="4.37481" x2="8.10286" y2="-0.623266" gradientUnits="userSpaceOnUse">
<stop stop-color="#FF405B"/>
<stop offset="1" stop-color="#FF8860"/>
</linearGradient>
<linearGradient id="paint1_linear_73_4236" x1="2.99987" y1="11.7425" x2="8.2062" y2="1.74633" gradientUnits="userSpaceOnUse">
<stop stop-color="#FF405B"/>
<stop offset="1" stop-color="#FF8860"/>
</linearGradient>
<linearGradient id="paint2_linear_73_4236" x1="6.28448" y1="15.9998" x2="8.89551" y2="9.78326" gradientUnits="userSpaceOnUse">
<stop stop-color="#FF8860"/>
<stop offset="1" stop-color="white"/>
</linearGradient>
<linearGradient id="paint3_linear_73_4236" x1="5.85578" y1="9.9995" x2="6.00829" y2="8.18402" gradientUnits="userSpaceOnUse">
<stop stop-color="#FF8860"/>
<stop offset="1" stop-color="white"/>
</linearGradient>
</defs>
</svg>
