<svg width="16" height="16" viewBox="0 0 16 16" fill="none" xmlns="http://www.w3.org/2000/svg">
<path fill-rule="evenodd" clip-rule="evenodd" d="M8.99044 14.8641C8.99044 15.4111 8.5465 15.855 7.9995 15.855C7.45251 15.855 7.00857 15.4111 7.00857 14.8641C7.00857 14.3171 7.45251 13.8731 7.9995 13.8731C8.5465 13.8731 8.99044 14.3171 8.99044 14.8641ZM7.9995 12.8822C6.01763 12.8822 5.85809 14.4895 5.82241 14.547C5.53207 15.0098 4.91967 15.1495 4.4569 14.8591C1.64957 13.0963 0.457468 9.28114 0.0858657 7.10305C0.049201 6.88802 0.0244275 6.6819 0.00857251 6.48768C0.00857251 6.48471 0.00758153 6.48173 0.00758153 6.47876C-0.0825939 5.24306 0.63881 4.09258 1.78929 3.63377C1.79226 3.63278 1.79424 3.63179 1.79623 3.6308C2.99328 3.16407 3.94954 2.68049 4.61347 1.62613C4.61644 1.62118 4.61842 1.61721 4.62139 1.61325C5.25956 0.631228 6.34662 0.0346829 7.50998 0.0227916C7.81816 0.00099094 8.13923 0 8.44642 0C9.63753 0 10.7474 0.602491 11.3964 1.60136C11.4014 1.60929 11.4064 1.6182 11.4113 1.62613C12.0564 2.68644 13.0107 3.16605 14.2028 3.62981C14.2048 3.62981 14.2077 3.6308 14.2097 3.63179C15.3612 4.0906 16.0826 5.24306 15.9924 6.47876C15.9924 6.48471 15.9914 6.49065 15.9914 6.4966C15.9736 6.68785 15.9488 6.89 15.9131 7.10305C15.5415 9.28114 14.3494 13.0963 11.5421 14.8591C11.0793 15.1495 10.4669 15.0098 10.1766 14.547C10.1409 14.4895 9.98138 12.8822 7.9995 12.8822Z" fill="url(#paint0_linear_73_4223)"/>
<path fill-rule="evenodd" clip-rule="evenodd" d="M5.25679 11.225C6.5504 10.7328 7.69206 10.757 8.72448 11.1758C9.19823 11.3684 9.73949 11.1399 9.93167 10.6653C10.1243 10.1915 9.89579 9.65029 9.42121 9.45811C7.98497 8.87547 6.39718 8.80806 4.5976 9.49196C4.11972 9.67338 3.87882 10.2094 4.06065 10.6881C4.24207 11.166 4.77808 11.4069 5.25679 11.225Z" fill="#D84F4F"/>
<path fill-rule="evenodd" clip-rule="evenodd" d="M4.67572 7.96672C6.40053 7.31038 7.92274 7.34266 9.29931 7.90101C9.93098 8.15782 10.6527 7.85317 10.9089 7.2204C11.1657 6.58873 10.8611 5.86705 10.2283 5.61081C8.3133 4.83397 6.19624 4.74408 3.7968 5.65595C3.15963 5.89783 2.83842 6.61252 3.08087 7.25079C3.32276 7.88797 4.03744 8.20917 4.67572 7.96672Z" fill="#D84F4F"/>
<path fill-rule="evenodd" clip-rule="evenodd" d="M5.67572 6.96672C7.40053 6.31038 8.92274 6.34266 10.2993 6.90101C10.931 7.15782 11.6527 6.85317 11.9089 6.2204C12.1657 5.58873 11.8611 4.86705 11.2283 4.61081C9.3133 3.83397 7.19624 3.74408 4.7968 4.65595C4.15963 4.89783 3.83842 5.61252 4.08087 6.25079C4.32276 6.88797 5.03744 7.20917 5.67572 6.96672Z" fill="url(#paint1_linear_73_4223)"/>
<path fill-rule="evenodd" clip-rule="evenodd" d="M6.25679 10.225C7.5504 9.73278 8.69206 9.75699 9.72448 10.1758C10.1982 10.3684 10.7395 10.1399 10.9317 9.6653C11.1243 9.19154 10.8958 8.65029 10.4212 8.45811C8.98497 7.87547 7.39718 7.80806 5.5976 8.49196C5.11972 8.67338 4.87882 9.20939 5.06065 9.68809C5.24207 10.166 5.77808 10.4069 6.25679 10.225Z" fill="url(#paint2_linear_73_4223)"/>
<defs>
<linearGradient id="paint0_linear_73_4223" x1="3" y1="13.8731" x2="12.8927" y2="1.89331" gradientUnits="userSpaceOnUse">
<stop stop-color="#FF405B"/>
<stop offset="1" stop-color="#FF8860"/>
</linearGradient>
<linearGradient id="paint1_linear_73_4223" x1="6.28482" y1="7.04753" x2="6.71947" y2="4.331" gradientUnits="userSpaceOnUse">
<stop stop-color="#FF8860"/>
<stop offset="1" stop-color="white"/>
</linearGradient>
<linearGradient id="paint2_linear_73_4223" x1="6.71362" y1="10.2856" x2="7.03961" y2="8.24825" gradientUnits="userSpaceOnUse">
<stop stop-color="#FF8860"/>
<stop offset="1" stop-color="white"/>
</linearGradient>
</defs>
</svg>
