<svg width="16" height="16" viewBox="0 0 16 16" fill="none" xmlns="http://www.w3.org/2000/svg">
<path d="M6.71429 0C6.08309 0 5.57143 0.51168 5.57143 1.14286V8.18965C5.57143 8.75562 4.99455 9.14286 4.42857 9.14286C2.53143 9.14286 1 10.6743 1 12.5714C1 14.4686 2.53143 16 4.42857 16C4.7726 16 5.10461 15.9496 5.41763 15.8559C5.93535 15.7008 6 15.0404 6 14.5C6 13.6716 6.67157 13 7.5 13C7.6769 13 7.84759 12.8849 7.85448 12.7082C7.85625 12.6628 7.85714 12.6172 7.85714 12.5714V5.71429C7.85714 5.08311 8.3688 4.57143 9 4.57143H10.1429C10.7741 4.57143 11.2857 4.05975 11.2857 3.42857V1.14286C11.2857 0.51168 10.7741 0 10.1429 0H6.71429Z" fill="url(#paint0_linear_252_385)"/>
<path d="M8 16C8.55228 16 9 15.5523 9 15C9 14.4477 8.55228 14 8 14C7.44772 14 7 14.4477 7 15C7 15.5523 7.44772 16 8 16Z" fill="url(#paint1_linear_252_385)"/>
<path d="M10.7858 4.37356L9.45188 3.61131C8.5376 3.08887 7.40002 3.74903 7.40002 4.80205V9.21846C7.40002 9.63874 7.58124 9.99644 7.85714 10.2413V5.71429C7.85714 5.08311 8.3688 4.57143 9 4.57143H10.1429C10.3813 4.57143 10.6026 4.49843 10.7858 4.37356Z" fill="#8C4FD9"/>
<path d="M9 8.07564V3.65923C9 2.60621 10.1376 1.94605 11.0519 2.46848L14.9162 4.6767C15.8376 5.20318 15.8376 6.53169 14.9162 7.05817L11.0519 9.26638C10.1376 9.78881 9 9.12866 9 8.07564Z" fill="url(#paint2_linear_252_385)"/>
<defs>
<linearGradient id="paint0_linear_252_385" x1="3.57143" y1="14.8571" x2="13.8571" y2="7.14286" gradientUnits="userSpaceOnUse">
<stop stop-color="#A056FF"/>
<stop offset="1" stop-color="#C59AFD"/>
</linearGradient>
<linearGradient id="paint1_linear_252_385" x1="3.57143" y1="14.8571" x2="13.8571" y2="7.14286" gradientUnits="userSpaceOnUse">
<stop stop-color="#A056FF"/>
<stop offset="1" stop-color="#C59AFD"/>
</linearGradient>
<linearGradient id="paint2_linear_252_385" x1="10.6518" y1="8.93743" x2="15.4358" y2="3.78938" gradientUnits="userSpaceOnUse">
<stop stop-color="#A056FF"/>
<stop offset="1" stop-color="#C59AFD"/>
</linearGradient>
</defs>
</svg>
