<svg width="16" height="16" viewBox="0 0 16 16" fill="none" xmlns="http://www.w3.org/2000/svg">
<path fill-rule="evenodd" clip-rule="evenodd" d="M1 13C0.448 13 0 12.552 0 12V3.992C0 1.787 1.787 0 3.992 0C6.357 0 9.643 0 12.008 0C13.067 0 14.082 0.421001 14.831 1.169C15.579 1.918 16 2.933 16 3.992C16 6.357 16 9.643 16 12.008C16 14.213 14.213 16 12.008 16C8.751 16 4 16 4 16C3.448 16 3 15.552 3 15C3 13.896 2.104 13 1 13ZM1 14C1.552 14 2 14.448 2 15C2 15.552 1.552 16 1 16C0.448 16 0 15.552 0 15C0 14.448 0.448 14 1 14Z" fill="url(#paint0_linear_73_4286)"/>
<path fill-rule="evenodd" clip-rule="evenodd" d="M4.40623 5.5625C4.40623 4.0093 5.66552 2.75 7.21872 2.75C8.77192 2.75 10.0312 4.0093 10.0312 5.5625C10.0312 6.17852 9.423 6.25688 9.33793 6.26482C9.33117 6.26546 9.32469 6.26565 9.3179 6.26555C9.13909 6.26299 8.97631 6.19317 8.85349 6.0807C8.73396 5.98296 8.63692 5.8332 8.62638 5.60539L8.62497 5.5625C8.62497 4.78554 7.99568 4.15625 7.21872 4.15625C6.44177 4.15625 5.81248 4.78554 5.81248 5.5625V6.61721C5.81248 6.81137 5.96987 6.96877 6.16404 6.96877H9.34077C10.4988 6.96877 11.4375 7.90744 11.4375 9.06549V11.9033C11.4375 12.4595 11.2167 12.9931 10.8237 13.3862C10.4306 13.7792 9.89694 14 9.34077 14H5.8125C5.42437 14 5.10937 13.685 5.10937 13.2969C5.10937 12.5206 4.47937 11.8906 3.70312 11.8906C3.315 11.8906 3 11.5756 3 11.1875V9.06408C3 8.23665 3.47943 7.52136 4.17569 7.18078C4.31009 7.11504 4.40623 6.98441 4.40623 6.83479V5.5625ZM6.51562 11.1875V9.78127C6.51562 9.39314 6.83062 9.07814 7.21875 9.07814C7.60687 9.07814 7.92187 9.39314 7.92187 9.78127V11.1875C7.92187 11.5756 7.60687 11.8906 7.21875 11.8906C6.83062 11.8906 6.51562 11.5756 6.51562 11.1875Z" fill="#7FD1AE"/>
<path d="M3.70312 14C4.09125 14 4.40625 13.685 4.40625 13.2969C4.40625 12.9088 4.09125 12.5938 3.70312 12.5938C3.315 12.5938 3 12.9088 3 13.2969C3 13.685 3.315 14 3.70312 14Z" fill="#7FD1AE"/>
<path d="M12.1406 6.96877H11.4375C11.0494 6.96877 10.7344 6.65377 10.7344 6.26564C10.7344 5.87752 11.0494 5.56252 11.4375 5.56252H12.1406C12.5287 5.56252 12.8437 5.87752 12.8437 6.26564C12.8437 6.65377 12.5287 6.96877 12.1406 6.96877Z" fill="#7FD1AE"/>
<path d="M12.6377 3.95027L11.9346 4.65339C11.6604 4.92761 11.2146 4.92761 10.9404 4.65339C10.6662 4.37917 10.6662 3.93339 10.9404 3.65917L11.6435 2.95605C11.9177 2.68183 12.3635 2.68183 12.6377 2.95605C12.9119 3.23027 12.9119 3.67605 12.6377 3.95027Z" fill="#7FD1AE"/>
<path fill-rule="evenodd" clip-rule="evenodd" d="M5.06248 4.8125C5.06248 3.2593 6.32177 2 7.87497 2C9.42817 2 10.6875 3.2593 10.6875 4.8125C10.6875 5.42852 10.0792 5.50688 9.99418 5.51482C9.98742 5.51546 9.98094 5.51565 9.97415 5.51555C9.79534 5.51299 9.63256 5.44317 9.50974 5.3307C9.39021 5.23296 9.29317 5.0832 9.28263 4.85539L9.28122 4.8125C9.28122 4.03554 8.65193 3.40625 7.87497 3.40625C7.09802 3.40625 6.46873 4.03554 6.46873 4.8125V5.86721C6.46873 6.06137 6.62612 6.21877 6.82029 6.21877H9.99702C11.1551 6.21877 12.0937 7.15744 12.0937 8.31549V11.1533C12.0937 11.7095 11.873 12.2431 11.4799 12.6362C11.0869 13.0292 10.5532 13.25 9.99702 13.25H6.46875C6.08062 13.25 5.76562 12.935 5.76562 12.5469C5.76562 11.7706 5.13562 11.1406 4.35937 11.1406C3.97125 11.1406 3.65625 10.8256 3.65625 10.4375V8.31408C3.65625 7.48665 4.13568 6.77136 4.83194 6.43078C4.96634 6.36504 5.06248 6.23441 5.06248 6.08479V4.8125ZM7.17187 10.4375V9.03127C7.17187 8.64314 7.48687 8.32814 7.875 8.32814C8.26312 8.32814 8.57812 8.64314 8.57812 9.03127V10.4375C8.57812 10.8256 8.26312 11.1406 7.875 11.1406C7.48687 11.1406 7.17187 10.8256 7.17187 10.4375Z" fill="url(#paint1_linear_73_4286)"/>
<path d="M4.35937 13.25C4.7475 13.25 5.0625 12.935 5.0625 12.5469C5.0625 12.1588 4.7475 11.8438 4.35937 11.8438C3.97125 11.8438 3.65625 12.1588 3.65625 12.5469C3.65625 12.935 3.97125 13.25 4.35937 13.25Z" fill="url(#paint2_linear_73_4286)"/>
<path d="M12.7969 6.21877H12.0937C11.7056 6.21877 11.3906 5.90377 11.3906 5.51564C11.3906 5.12752 11.7056 4.81252 12.0937 4.81252H12.7969C13.185 4.81252 13.5 5.12752 13.5 5.51564C13.5 5.90377 13.185 6.21877 12.7969 6.21877Z" fill="url(#paint3_linear_73_4286)"/>
<path d="M13.294 3.20027L12.5908 3.90339C12.3166 4.17761 11.8708 4.17761 11.5966 3.90339C11.3224 3.62917 11.3224 3.18339 11.5966 2.90917L12.2998 2.20605C12.574 1.93183 13.0198 1.93183 13.294 2.20605C13.5682 2.48027 13.5682 2.92605 13.294 3.20027Z" fill="url(#paint4_linear_73_4286)"/>
<defs>
<linearGradient id="paint0_linear_73_4286" x1="2" y1="14.0004" x2="16.972" y2="10.5455" gradientUnits="userSpaceOnUse">
<stop stop-color="#62E8AF"/>
<stop offset="1" stop-color="#B3FBDC"/>
</linearGradient>
<linearGradient id="paint1_linear_73_4286" x1="3.65625" y1="13.25" x2="7.37088" y2="0.248824" gradientUnits="userSpaceOnUse">
<stop stop-color="#B3FBDC"/>
<stop offset="1" stop-color="white"/>
</linearGradient>
<linearGradient id="paint2_linear_73_4286" x1="3.65625" y1="13.25" x2="7.37088" y2="0.248817" gradientUnits="userSpaceOnUse">
<stop stop-color="#B3FBDC"/>
<stop offset="1" stop-color="white"/>
</linearGradient>
<linearGradient id="paint3_linear_73_4286" x1="3.65628" y1="13.25" x2="7.37091" y2="0.24882" gradientUnits="userSpaceOnUse">
<stop stop-color="#B3FBDC"/>
<stop offset="1" stop-color="white"/>
</linearGradient>
<linearGradient id="paint4_linear_73_4286" x1="3.65629" y1="13.25" x2="7.37092" y2="0.24883" gradientUnits="userSpaceOnUse">
<stop stop-color="#B3FBDC"/>
<stop offset="1" stop-color="white"/>
</linearGradient>
</defs>
</svg>
