<svg width="16" height="16" viewBox="0 0 16 16" fill="none" xmlns="http://www.w3.org/2000/svg">
<path fill-rule="evenodd" clip-rule="evenodd" d="M15.8799 3.97148C15.8383 3.61931 15.3493 3.51824 15.0473 3.7042C14.7427 3.89179 14.384 4 14 4C12.8954 4 12 3.10457 12 2C12 1.70122 12.0655 1.41774 12.183 1.16314C12.3251 0.85496 12.1833 0.411849 11.8451 0.383723C10.8389 0.300049 9.58626 0.300049 8 0.300049C4.2288 0.300049 2.344 0.300049 1.1712 1.4244C0 2.54952 0 4.3597 0 7.98005C0 11.6004 0 13.4113 1.1712 14.5349C2.3432 15.66 4.2288 15.66 8 15.66C11.7712 15.66 13.6576 15.66 14.828 14.5349C16 13.4106 16 11.6004 16 7.98005C16 6.28575 16 4.98808 15.8799 3.97148Z" fill="url(#paint0_linear_249_262)"/>
<path fill-rule="evenodd" clip-rule="evenodd" d="M14.5001 14.8077C14.9192 13.7985 14.9864 12.3883 14.997 10.2814C14.9983 10.0159 14.7831 9.79945 14.5177 9.79945H12.4705C11.7465 9.79945 11.3841 9.79945 11.0665 9.94585C10.7481 10.0922 10.5121 10.3674 10.0409 10.917L9.55691 11.4818L9.54861 11.4915C9.08214 12.0347 8.84784 12.3075 8.53131 12.453C8.39811 12.5143 8.25707 12.55 8.08491 12.5706C7.81891 12.6026 7.59851 12.3778 7.59851 12.1098V7.20713C7.59851 6.77946 8.11555 6.5653 8.41795 6.86768L9.21451 7.66425C9.26987 7.72153 9.33611 7.76721 9.40931 7.79865C9.48251 7.83009 9.56131 7.84657 9.64099 7.84721C9.72059 7.84785 9.79963 7.83265 9.87331 7.80249C9.94707 7.77225 10.014 7.72769 10.0704 7.67129C10.1267 7.61497 10.1712 7.54793 10.2013 7.47417C10.2315 7.40041 10.2466 7.32145 10.2459 7.24177C10.2452 7.16209 10.2285 7.08337 10.1971 7.01017C10.1656 6.93698 10.1199 6.87079 10.0625 6.81547L7.42251 4.17547C7.31003 4.06311 7.15755 4 6.99851 4C6.83947 4 6.68699 4.06311 6.57451 4.17547L3.93451 6.81547C3.87556 6.8704 3.82828 6.93664 3.79549 7.01025C3.7627 7.08385 3.74506 7.16329 3.74364 7.24385C3.74222 7.32441 3.75704 7.40441 3.78722 7.47913C3.81739 7.55385 3.8623 7.62169 3.91928 7.67873C3.97626 7.73569 4.04412 7.78057 4.11883 7.81081C4.19354 7.84097 4.27357 7.85577 4.35413 7.85433C4.4347 7.85289 4.51414 7.83529 4.58774 7.80249C4.66134 7.76969 4.72758 7.72241 4.78251 7.66345L5.57907 6.86688C5.88147 6.5645 6.39851 6.77866 6.39851 7.20633V12.1098C6.39851 12.3778 6.17811 12.6026 5.91211 12.5706C5.74019 12.5499 5.59923 12.5143 5.46571 12.453C5.14811 12.3066 4.91211 12.0314 4.44091 11.4818L3.95611 10.917L3.95071 10.9107C3.48311 10.3653 3.24849 10.0917 2.93131 9.94585C2.61291 9.79945 2.25131 9.79945 1.52651 9.79945H0.00732419C0.0396023 12.2427 0.215266 13.6178 1.17126 14.5349C2.34326 15.66 4.22886 15.66 8.00006 15.66C11.4379 15.66 13.3095 15.66 14.5001 14.8077Z" fill="#D49F34"/>
<path d="M1.17192 14.5349C2.34312 15.66 4.22872 15.66 7.99992 15.66C11.7719 15.66 13.6575 15.66 14.8287 14.5349C15.8593 13.5456 15.9836 12.0262 15.9984 9.21061C15.9997 8.95587 15.7845 8.74805 15.5191 8.74805H13.4719C12.7479 8.74805 12.3855 8.74805 12.0679 8.88859C11.7495 9.02913 11.5135 9.29333 11.0423 9.82094L10.5583 10.3632C10.0863 10.8908 9.85112 11.155 9.53272 11.2955C9.21432 11.436 8.85272 11.436 8.12872 11.436H7.87192C7.14792 11.436 6.78552 11.436 6.46712 11.2955C6.14952 11.155 5.91352 10.8908 5.44232 10.3632L4.95752 9.82094C4.48632 9.29333 4.25112 9.02913 3.93272 8.88859C3.61432 8.74805 3.25272 8.74805 2.52792 8.74805H0.480751C0.215327 8.74805 0.000135031 8.95587 0.00147103 9.21061C0.016223 12.0262 0.140631 13.5456 1.17192 14.5349Z" fill="url(#paint1_linear_249_262)"/>
<circle cx="14.2" cy="1.79998" r="1.2" fill="url(#paint2_linear_249_262)"/>
<path d="M8.42245 3.17547C8.30997 3.06311 8.15749 3 7.99845 3C7.83941 3 7.68693 3.06311 7.57445 3.17547L4.93445 5.81547C4.8755 5.8704 4.82822 5.93664 4.79543 6.01025C4.76264 6.08385 4.74501 6.16329 4.74358 6.24385C4.74216 6.32441 4.75698 6.40441 4.78716 6.47913C4.81733 6.55385 4.86225 6.62169 4.91922 6.67873C4.9762 6.73569 5.04406 6.78057 5.11877 6.81081C5.19349 6.84097 5.27351 6.85577 5.35407 6.85433C5.43464 6.85289 5.51409 6.83529 5.58769 6.80249C5.66129 6.76969 5.72753 6.72241 5.78245 6.66345L6.57901 5.86688C6.88141 5.5645 7.39845 5.77866 7.39845 6.20633V11.1098C7.39845 11.3778 7.17805 11.6026 6.91205 11.5706C6.74013 11.5499 6.59917 11.5143 6.46565 11.453C6.14805 11.3066 5.91205 11.0314 5.44085 10.4818L4.95605 9.91705C4.48485 9.36745 4.24965 9.09225 3.93125 8.94585C3.61285 8.79945 3.25125 8.79945 2.52645 8.79945H0.479286C0.213862 8.79945 -0.00132981 9.01593 6.18734e-06 9.28137C0.0147582 12.2142 0.139166 13.797 1.17045 14.8274C2.34165 15.9994 4.22725 15.9994 7.99845 15.9994C11.7705 15.9994 13.6561 15.9994 14.8273 14.8274C15.8578 13.797 15.9821 12.2142 15.9969 9.28137C15.9982 9.01593 15.783 8.79945 15.5177 8.79945H13.4705C12.7465 8.79945 12.3841 8.79945 12.0665 8.94585C11.7481 9.09225 11.5121 9.36745 11.0409 9.91705L10.5569 10.4818C10.0849 11.0314 9.84965 11.3066 9.53125 11.453C9.39805 11.5143 9.25701 11.55 9.08485 11.5706C8.81885 11.6026 8.59845 11.3778 8.59845 11.1098V6.20713C8.59845 5.77946 9.11549 5.5653 9.41789 5.86768L10.2145 6.66425C10.2698 6.72153 10.3361 6.76721 10.4093 6.79865C10.4825 6.83009 10.5613 6.84657 10.6409 6.84721C10.7205 6.84785 10.7996 6.83265 10.8733 6.80249C10.947 6.77225 11.014 6.72769 11.0703 6.67129C11.1266 6.61497 11.1711 6.54793 11.2013 6.47417C11.2314 6.40041 11.2465 6.32145 11.2458 6.24177C11.2451 6.16209 11.2285 6.08337 11.197 6.01017C11.1655 5.93698 11.1198 5.87079 11.0625 5.81547L8.42245 3.17547Z" fill="url(#paint3_linear_249_262)"/>
<defs>
<linearGradient id="paint0_linear_249_262" x1="3" y1="14.6989" x2="12.521" y2="2.79669" gradientUnits="userSpaceOnUse">
<stop stop-color="#FF8860"/>
<stop offset="1" stop-color="#FBD92C"/>
</linearGradient>
<linearGradient id="paint1_linear_249_262" x1="4.0007" y1="13.932" x2="6.5174" y2="8.10747" gradientUnits="userSpaceOnUse">
<stop stop-color="#FBD92C"/>
<stop offset="1" stop-color="white"/>
</linearGradient>
<linearGradient id="paint2_linear_249_262" x1="13.45" y1="2.8498" x2="14.9499" y2="1.04983" gradientUnits="userSpaceOnUse">
<stop stop-color="#FF8860"/>
<stop offset="1" stop-color="#FBD92C"/>
</linearGradient>
<linearGradient id="paint3_linear_249_262" x1="3.99924" y1="12.7496" x2="10.3615" y2="4.92026" gradientUnits="userSpaceOnUse">
<stop stop-color="#FBD92C"/>
<stop offset="1" stop-color="white"/>
</linearGradient>
</defs>
</svg>
