<svg width="16" height="16" viewBox="0 0 16 16" fill="none" xmlns="http://www.w3.org/2000/svg">
<path fill-rule="evenodd" clip-rule="evenodd" d="M16 15C16 14.448 15.552 14 15 14C14.448 14 14 14.448 14 15C14 15.552 14.448 16 15 16C15.552 16 16 15.552 16 15ZM13 15C13 13.896 13.896 13 15 13C15.552 13 16 12.552 16 12C16 12 16 7.216 16 3.958C16 1.772 14.228 0 12.0419 0H3.958C1.772 0 0 1.772 0 3.958V12.0419C0 14.228 1.772 16 3.958 16C7.216 16 12 16 12 16C12.552 16 13 15.552 13 15Z" fill="url(#paint0_linear_73_4349)"/>
<path d="M5.15719 7.74087L6.36189 6.10904C7.1416 5.05439 7.53093 4.52759 7.89403 4.63987C8.25712 4.75006 8.25712 5.39754 8.25712 6.69042V6.81215C8.25712 7.27913 8.25712 7.5121 8.40614 7.65902L8.41453 7.66637C8.5667 7.80908 8.80911 7.80908 9.29394 7.80908C10.167 7.80908 10.6036 7.80909 10.7526 8.07459C10.7547 8.07869 10.7568 8.08288 10.7589 8.08718C10.8985 8.35687 10.6456 8.69898 10.1398 9.3832L8.93504 11.0149C8.15533 12.0696 7.766 12.5974 7.4029 12.4852C7.03981 12.3739 7.03981 11.7275 7.03981 10.4336V10.3118C7.03981 9.84599 7.03981 9.61197 6.89079 9.4661L6.8824 9.45875C6.73023 9.31498 6.48782 9.31498 6.00299 9.31498C5.12991 9.31498 4.69336 9.31498 4.54435 9.05053C4.54217 9.04595 4.54007 9.04147 4.53805 9.03689C4.39848 8.76824 4.65139 8.42509 5.15719 7.74087Z" fill="#279FD7"/>
<path d="M5.71969 6.61587L6.92439 4.98404C7.7041 3.92939 8.09343 3.40259 8.45653 3.51487C8.81962 3.62506 8.81962 4.27254 8.81962 5.56542V5.68715C8.81962 6.15413 8.81962 6.3871 8.96864 6.53402L8.97703 6.54137C9.1292 6.68408 9.37161 6.68408 9.85644 6.68408C10.7295 6.68408 11.1661 6.68409 11.3151 6.94959C11.3172 6.95369 11.3193 6.95788 11.3214 6.96218C11.461 7.23187 11.2081 7.57398 10.7023 8.2582L9.49754 9.88993C8.71783 10.9446 8.3285 11.4724 7.9654 11.3602C7.60231 11.2489 7.60231 10.6025 7.60231 9.30856V9.18683C7.60231 8.72099 7.60231 8.48697 7.45329 8.3411L7.4449 8.33375C7.29273 8.18998 7.05032 8.18998 6.56549 8.18998C5.69241 8.18998 5.25586 8.18998 5.10685 7.92553C5.10467 7.92095 5.10257 7.91647 5.10055 7.91189C4.96098 7.64324 5.21389 7.30009 5.71969 6.61587Z" fill="url(#paint1_linear_73_4349)"/>
<defs>
<linearGradient id="paint0_linear_73_4349" x1="1.6" y1="16.005" x2="7.3787" y2="-1.33327" gradientUnits="userSpaceOnUse">
<stop stop-color="#22B4FA"/>
<stop offset="1" stop-color="#6BD6FE"/>
</linearGradient>
<linearGradient id="paint1_linear_73_4349" x1="5.0625" y1="11.375" x2="12.6312" y2="9.86198" gradientUnits="userSpaceOnUse">
<stop stop-color="#6BD6FE"/>
<stop offset="1" stop-color="white"/>
</linearGradient>
</defs>
</svg>
