<svg width="16" height="16" viewBox="0 0 16 16" fill="none" xmlns="http://www.w3.org/2000/svg">
<path fill-rule="evenodd" clip-rule="evenodd" d="M3.625 1.875C3.625 2.841 2.841 3.625 1.875 3.625C1.392 3.625 1 4.017 1 4.5V11.507C1 13.4364 2.56363 15 4.493 15H11.507C12.4336 15 13.3217 14.6316 13.9771 13.9771C14.6316 13.3217 15 12.4336 15 11.507C15 9.43763 15 6.56238 15 4.493C15 2.56363 13.4364 1 11.507 1H4.5C4.017 1 3.625 1.392 3.625 1.875ZM1.875 2.75C2.358 2.75 2.75 2.358 2.75 1.875C2.75 1.392 2.358 1 1.875 1C1.392 1 1 1.392 1 1.875C1 2.358 1.392 2.75 1.875 2.75Z" fill="url(#paint0_linear_73_4404)"/>
<path fill-rule="evenodd" clip-rule="evenodd" d="M7.89027 7.47264L6.35403 5.9364C5.93031 5.5116 5.2415 5.5116 4.81779 5.9364C4.39407 6.36012 4.39407 7.04893 4.81779 7.47264L6.35403 9.00889L4.81779 10.5451C4.39407 10.9688 4.39407 11.6577 4.81779 12.0814C5.2415 12.5062 5.93031 12.5062 6.35403 12.0814L7.89027 10.5451L9.4276 12.0814C9.85132 12.5062 10.539 12.5062 10.9638 12.0814C11.3876 11.6577 11.3876 10.9688 10.9638 10.5451L9.4276 9.00889L10.9638 7.47264C11.3876 7.04893 11.3876 6.36012 10.9638 5.9364C10.539 5.5116 9.85132 5.5116 9.4276 5.9364L7.89027 7.47264Z" fill="#D84F4F"/>
<path fill-rule="evenodd" clip-rule="evenodd" d="M9.55861 4.71804L4.94918 9.32747C4.52512 9.75153 4.52542 10.4396 4.94949 10.8636C5.37356 11.2877 6.06159 11.288 6.48566 10.8639L11.0951 6.25452C11.5192 5.83045 11.5188 5.14242 11.0948 4.71835C10.6707 4.29428 9.98268 4.29398 9.55861 4.71804Z" fill="url(#paint1_linear_73_4404)"/>
<path fill-rule="evenodd" clip-rule="evenodd" d="M11.095 9.32735L6.48554 4.71792C6.06147 4.29385 5.37344 4.29416 4.94937 4.71823C4.5253 5.1423 4.52499 5.83033 4.94906 6.2544L9.55849 10.8638C9.98255 11.2879 10.6706 11.2876 11.0947 10.8635C11.5187 10.4394 11.519 9.75141 11.095 9.32735Z" fill="url(#paint2_linear_73_4404)"/>
<defs>
<linearGradient id="paint0_linear_73_4404" x1="3.625" y1="13.25" x2="12.375" y2="2.75" gradientUnits="userSpaceOnUse">
<stop stop-color="#FF405B"/>
<stop offset="1" stop-color="#FF8860"/>
</linearGradient>
<linearGradient id="paint1_linear_73_4404" x1="5.71736" y1="11.0503" x2="11.1496" y2="5.61808" gradientUnits="userSpaceOnUse">
<stop stop-color="#FF8860"/>
<stop offset="1" stop-color="white"/>
</linearGradient>
<linearGradient id="paint2_linear_73_4404" x1="6.80378" y1="8.87735" x2="8.97669" y2="6.70444" gradientUnits="userSpaceOnUse">
<stop stop-color="#FF8860"/>
<stop offset="1" stop-color="white"/>
</linearGradient>
</defs>
</svg>
