<svg width="16" height="16" viewBox="0 0 16 16" fill="none" xmlns="http://www.w3.org/2000/svg">
<path fill-rule="evenodd" clip-rule="evenodd" d="M16 15C16 14.448 15.552 14 15 14C14.448 14 14 14.448 14 15C14 15.552 14.448 16 15 16C15.552 16 16 15.552 16 15ZM13 15C13 13.896 13.896 13 15 13C15.552 13 16 12.552 16 12C16 12 16 7.216 16 3.958C16 1.772 14.228 0 12.0419 0H3.958C1.772 0 0 1.772 0 3.958V12.0419C0 14.228 1.772 16 3.958 16C7.216 16 12 16 12 16C12.552 16 13 15.552 13 15Z" fill="url(#paint0_linear_73_4412)"/>
<path d="M9.13602 14.5452H4.40875C3.75638 14.5452 3.22693 14.0157 3.22693 13.3633C3.22693 12.711 3.75638 12.1815 4.40875 12.1815H9.13602C9.78838 12.1815 10.3178 12.711 10.3178 13.3633C10.3178 14.0157 9.78838 14.5452 9.13602 14.5452Z" fill="#8CC860"/>
<path fill-rule="evenodd" clip-rule="evenodd" d="M5.59063 13.3634H10.3179C10.9703 13.3634 11.4997 12.8339 11.4997 12.1816C11.4997 11.5292 10.9703 10.9998 10.3179 10.9998H5.59063C4.93827 10.9998 4.40881 11.5292 4.40881 12.1816C4.40881 12.8339 4.93827 13.3634 5.59063 13.3634Z" fill="url(#paint1_linear_73_4412)"/>
<path fill-rule="evenodd" clip-rule="evenodd" d="M7.95445 7.25153C7.95445 7.07082 8.17293 6.98032 8.30071 7.1081C8.76162 7.56901 9.5109 7.56901 9.97181 7.1081C10.4327 6.64719 10.4327 5.89792 9.97181 5.43701L7.60817 3.07337C7.14726 2.61129 6.39799 2.61129 5.93708 3.07337L3.57341 5.43701C3.11257 5.89792 3.11257 6.64719 3.57341 7.1081C4.03439 7.56901 4.78362 7.56901 5.24453 7.1081C5.37232 6.98031 5.59081 7.07082 5.59081 7.25154V9.81801C5.59081 10.4704 6.12027 10.9998 6.77263 10.9998C7.42499 10.9998 7.95445 10.4704 7.95445 9.81801V7.25153Z" fill="#8CC860"/>
<path fill-rule="evenodd" clip-rule="evenodd" d="M9.13634 6.06983C9.13634 5.88912 9.35483 5.79861 9.48262 5.9264C9.94353 6.3873 10.6928 6.3873 11.1537 5.9264C11.6146 5.46549 11.6146 4.71623 11.1537 4.25532L8.79006 1.89171C8.32915 1.42965 7.57989 1.42965 7.11899 1.89171L4.75535 4.25532C4.29444 4.71623 4.29444 5.46549 4.75535 5.9264C5.21626 6.3873 5.96552 6.3873 6.42643 5.9264C6.55421 5.79861 6.77271 5.88912 6.77271 6.06983V8.63631C6.77271 9.28868 7.30216 9.81813 7.95452 9.81813C8.60689 9.81813 9.13634 9.28868 9.13634 8.63631V6.06983Z" fill="url(#paint2_linear_73_4412)"/>
<defs>
<linearGradient id="paint0_linear_73_4412" x1="1.14286" y1="16" x2="11.7135" y2="0.624479" gradientUnits="userSpaceOnUse">
<stop stop-color="#9BE862"/>
<stop offset="1" stop-color="#C8FF9F"/>
</linearGradient>
<linearGradient id="paint1_linear_73_4412" x1="5.29518" y1="13.3634" x2="6.64315" y2="9.82496" gradientUnits="userSpaceOnUse">
<stop stop-color="#C8FF9F"/>
<stop offset="1" stop-color="white"/>
</linearGradient>
<linearGradient id="paint2_linear_73_4412" x1="5.29588" y1="9.81813" x2="12.103" y2="4.71382" gradientUnits="userSpaceOnUse">
<stop stop-color="#C8FF9F"/>
<stop offset="1" stop-color="white"/>
</linearGradient>
</defs>
</svg>
