<svg width="16" height="16" viewBox="0 0 16 16" fill="none" xmlns="http://www.w3.org/2000/svg">
<path fill-rule="evenodd" clip-rule="evenodd" d="M15.9998 4.98097V11.0189C15.9998 12.6649 14.6649 13.9999 13.0189 13.9999C10.3549 13.9999 5.64495 13.9999 2.98097 13.9999C1.33499 13.9999 0 12.6649 0 11.0189V5.99996C0 5.44797 0.447996 4.99997 0.99999 4.99997C2.10398 4.99997 2.99997 4.10398 2.99997 2.99999C2.99997 2.448 3.44797 2 3.99996 2C3.99996 2 9.85191 2 13.0189 2C14.6649 2 15.9998 3.33499 15.9998 4.98097ZM1.99998 2.99999C1.99998 3.55199 1.55199 3.99998 0.99999 3.99998C0.447996 3.99998 0 3.55199 0 2.99999C0 2.448 0.447996 2 0.99999 2C1.55199 2 1.99998 2.448 1.99998 2.99999Z" fill="url(#paint0_linear_73_4470)"/>
<path fill-rule="evenodd" clip-rule="evenodd" d="M2.99999 11.4999H13.9999C14.5519 11.4999 14.9999 11.0519 14.9999 10.4999C14.9999 9.94793 14.5519 9.49994 13.9999 9.49994H2.99999C2.448 9.49994 2 9.94793 2 10.4999C2 11.0519 2.448 11.4999 2.99999 11.4999Z" fill="#D84F4F"/>
<path fill-rule="evenodd" clip-rule="evenodd" d="M9.99987 6.49998H11.9998C12.5518 6.49998 12.9998 6.05199 12.9998 5.49999C12.9998 4.948 12.5518 4.5 11.9998 4.5H9.99987C9.44787 4.5 8.99988 4.948 8.99988 5.49999C8.99988 6.05199 9.44787 6.49998 9.99987 6.49998Z" fill="#D84F4F"/>
<path fill-rule="evenodd" clip-rule="evenodd" d="M3.99996 10.9999H14.9999C15.5514 10.9999 16.0001 10.5519 16.0001 9.99987C16.0001 9.44787 15.5514 8.99988 14.9999 8.99988H3.99996C3.44839 8.99988 2.99976 9.44787 2.99976 9.99987C2.99976 10.5519 3.44839 10.9999 3.99996 10.9999Z" fill="url(#paint1_linear_73_4470)"/>
<path fill-rule="evenodd" clip-rule="evenodd" d="M10.9999 5.99992H12.9998C13.5517 5.99992 13.9998 5.55192 13.9998 4.99993C13.9998 4.44793 13.5517 3.99994 12.9998 3.99994H10.9999C10.448 3.99994 9.99988 4.44793 9.99988 4.99993C9.99988 5.55192 10.448 5.99992 10.9999 5.99992Z" fill="url(#paint2_linear_73_4470)"/>
<defs>
<linearGradient id="paint0_linear_73_4470" x1="2.99997" y1="12.4999" x2="9.85384" y2="1.53371" gradientUnits="userSpaceOnUse">
<stop stop-color="#FF405B"/>
<stop offset="1" stop-color="#FF8860"/>
</linearGradient>
<linearGradient id="paint1_linear_73_4470" x1="6.71267" y1="10.9998" x2="6.83032" y2="9.17906" gradientUnits="userSpaceOnUse">
<stop stop-color="#FF8860"/>
<stop offset="1" stop-color="white"/>
</linearGradient>
<linearGradient id="paint2_linear_73_4470" x1="11.1423" y1="5.99988" x2="11.51" y2="4.24875" gradientUnits="userSpaceOnUse">
<stop stop-color="#FF8860"/>
<stop offset="1" stop-color="white"/>
</linearGradient>
</defs>
</svg>
