<svg width="16" height="16" viewBox="0 0 16 16" fill="none" xmlns="http://www.w3.org/2000/svg">
<path fill-rule="evenodd" clip-rule="evenodd" d="M12.8 1.06667C12.8 0.477867 13.2779 0 13.8667 0C14.4555 0 14.9333 0.477867 14.9333 1.06667C14.9333 1.65547 14.4555 2.13333 13.8667 2.13333C13.2779 2.13333 12.8 1.65547 12.8 1.06667ZM11.68 16H4.25333C2.45387 15.9808 1 14.5163 1 12.7115V3.28853C1 2.416 1.34667 1.57973 1.9632 0.9632C2.57973 0.346667 3.416 0 4.28853 0H10.6667C11.2555 0 11.7333 0.477867 11.7333 1.06667C11.7333 2.24427 12.6891 3.2 13.8667 3.2C14.4555 3.2 14.9333 3.67787 14.9333 4.26667V12.7115C14.9333 14.5163 13.4795 15.9808 11.68 16Z" fill="url(#paint0_linear_73_4604)"/>
<path fill-rule="evenodd" clip-rule="evenodd" d="M9.27586 12H4.72414C4.32441 12 4 12.3244 4 12.7241C4 13.1239 4.32441 13.4483 4.72414 13.4483H9.27586C9.67559 13.4483 10 13.1239 10 12.7241C10 12.3244 9.67559 12 9.27586 12Z" fill="#D84F4F"/>
<path fill-rule="evenodd" clip-rule="evenodd" d="M10.2759 11H5.72414C5.32441 11 5 11.3244 5 11.7241C5 12.1239 5.32441 12.4483 5.72414 12.4483H10.2759C10.6756 12.4483 11 12.1239 11 11.7241C11 11.3244 10.6756 11 10.2759 11Z" fill="url(#paint1_linear_73_4604)"/>
<path d="M6.68127 6.22468L5.9926 5.53553C5.90959 5.45252 5.81104 5.3867 5.7026 5.34177C5.59415 5.29685 5.47794 5.27372 5.36055 5.27371C5.24315 5.27371 5.12692 5.29685 5.01849 5.34176C4.91004 5.38668 4.81151 5.45252 4.7285 5.53552C4.6455 5.61853 4.57966 5.71706 4.53472 5.82552C4.48981 5.93395 4.46669 6.05017 4.46669 6.16757C4.46669 6.28497 4.48981 6.40119 4.53474 6.50964C4.57966 6.61808 4.6455 6.71662 4.7285 6.79962L5.41766 7.48829C5.51079 7.58136 5.51079 7.73233 5.41763 7.8254L4.72849 8.51409C4.56087 8.6817 4.46667 8.90906 4.46667 9.14613C4.4667 9.38318 4.56086 9.61055 4.72849 9.77818C4.89612 9.94581 5.12349 10.04 5.36054 10.04C5.59761 10.04 5.82497 9.94579 5.99258 9.77818L6.68127 9.08904C6.77433 8.99588 6.92531 8.99588 7.01838 9.08901L7.70705 9.77817C7.87468 9.9458 8.10205 10.04 8.33911 10.04C8.57616 10.04 8.80352 9.9458 8.97115 9.77817C9.13877 9.61055 9.23295 9.38318 9.23296 9.14612C9.23296 8.90905 9.13878 8.6817 8.97115 8.51407L8.28199 7.8254C8.18886 7.73233 8.18885 7.58137 8.282 7.48831L8.97115 6.79962C9.13878 6.63199 9.23296 6.40464 9.23296 6.16757C9.23296 5.9305 9.13878 5.70315 8.97115 5.53552C8.80352 5.3679 8.57618 5.27371 8.33911 5.27371C8.10203 5.27371 7.87468 5.36789 7.70705 5.53552L7.01836 6.22467C6.9253 6.31782 6.77433 6.31781 6.68127 6.22468Z" fill="#D84F4F"/>
<path d="M7.68115 4.8105L6.99248 4.12134C6.90947 4.03834 6.81092 3.97251 6.70248 3.92759C6.59403 3.88266 6.47781 3.85954 6.36043 3.85952C6.24303 3.85952 6.1268 3.88266 6.01837 3.92757C5.90992 3.9725 5.81139 4.03834 5.72838 4.12134C5.64538 4.20434 5.57954 4.30288 5.5346 4.41134C5.48969 4.51977 5.46656 4.63599 5.46656 4.75339C5.46656 4.87079 5.48969 4.98701 5.53461 5.09545C5.57954 5.2039 5.64538 5.30243 5.72838 5.38544L6.41754 6.07411C6.51066 6.16717 6.51066 6.31815 6.41751 6.41121L5.72837 7.0999C5.56075 7.26752 5.46655 7.49488 5.46655 7.73195C5.46658 7.96899 5.56074 8.19637 5.72837 8.364C5.896 8.53163 6.12337 8.62578 6.36041 8.62581C6.59749 8.62581 6.82485 8.53161 6.99246 8.364L7.68115 7.67485C7.77421 7.5817 7.92519 7.5817 8.01826 7.67482L8.70693 8.36398C8.87456 8.53161 9.10192 8.62578 9.33897 8.6258C9.57603 8.62578 9.80339 8.53161 9.97102 8.36398C10.1386 8.19637 10.2328 7.96899 10.2328 7.73193C10.2328 7.49486 10.1387 7.26752 9.97102 7.09989L9.28187 6.41121C9.18874 6.31815 9.18872 6.16719 9.28188 6.07412L9.97102 5.38543C10.1387 5.21781 10.2328 4.99046 10.2328 4.75339C10.2328 4.51631 10.1387 4.28897 9.97102 4.12134C9.80339 3.95371 9.57605 3.85952 9.33897 3.85952C9.1019 3.85952 8.87456 3.95371 8.70693 4.12134L8.01824 4.81048C7.92518 4.90364 7.77421 4.90362 7.68115 4.8105Z" fill="url(#paint2_linear_73_4604)"/>
<defs>
<linearGradient id="paint0_linear_73_4604" x1="3.6125" y1="14" x2="13.7693" y2="3.38612" gradientUnits="userSpaceOnUse">
<stop stop-color="#FF405B"/>
<stop offset="1" stop-color="#FF8860"/>
</linearGradient>
<linearGradient id="paint1_linear_73_4604" x1="6.71362" y1="12.4482" x2="6.84648" y2="11.1377" gradientUnits="userSpaceOnUse">
<stop stop-color="#FF8860"/>
<stop offset="1" stop-color="white"/>
</linearGradient>
<linearGradient id="paint2_linear_73_4604" x1="9.06131" y1="9.27351" x2="7.14911" y2="4.59179" gradientUnits="userSpaceOnUse">
<stop stop-color="#FF8860"/>
<stop offset="1" stop-color="white"/>
</linearGradient>
</defs>
</svg>
