<svg width="16" height="16" viewBox="0 0 16 16" fill="none" xmlns="http://www.w3.org/2000/svg">
<g opacity="0.3">
<path d="M5.94562 3.1992L5.70508 3.6304C5.44108 4.10413 5.30909 4.34099 5.10376 4.49719C5.13309 4.47519 5.16022 4.45173 5.18662 4.42606C5.01426 5.44246 5.09667 6.48574 5.42649 7.46248C5.75631 8.43921 6.32323 9.31888 7.07648 10.0227C7.82975 10.7265 8.74582 11.2326 9.74262 11.4955C10.7395 11.7583 11.7859 11.7699 12.7883 11.5291L12.7736 11.3897C12.7216 10.8449 12.6952 10.5721 12.7736 10.3191C12.8521 10.0668 13.0266 9.86221 13.3764 9.45375L13.6947 9.08195C14.9245 7.64461 15.539 6.92521 15.3242 6.23518C15.11 5.54512 14.208 5.34052 12.404 4.93279L11.9376 4.82719C11.4251 4.71133 11.1684 4.65339 10.9624 4.49719C10.757 4.34099 10.625 4.10413 10.361 3.6304L10.1212 3.1992C9.19208 1.53307 8.72788 0.700012 8.03342 0.700012C7.33895 0.700012 6.87475 1.53307 5.94562 3.1992Z" fill="url(#paint0_linear_73_4655)"/>
<path opacity="0.5" fill-rule="evenodd" clip-rule="evenodd" d="M9.74215 11.4951C10.623 11.7276 11.5426 11.7637 12.4364 11.6028C12.6231 11.5692 12.8042 11.6975 12.8228 11.8863L12.8232 11.8901C13.0085 13.8066 13.1011 14.7648 12.539 15.1913C11.978 15.6167 11.1332 15.228 9.44435 14.4507L9.00802 14.2497C8.52768 14.0283 8.28788 13.9183 8.03342 13.9183C7.77895 13.9183 7.53915 14.0283 7.05955 14.2497L6.62176 14.4507C4.93363 15.2287 4.08884 15.6174 3.5271 15.1906C2.96575 14.7648 3.05839 13.8066 3.24368 11.8901L3.24404 11.8863C3.2655 11.6661 3.43655 11.4954 3.63885 11.4061C4.16567 11.1733 4.53333 10.6463 4.53333 10.0333C4.53333 9.20488 3.86175 8.53331 3.03333 8.53331C3.02737 8.53331 3.02142 8.53334 3.01548 8.53341C2.49236 8.53951 1.88273 8.51641 1.55394 8.10949C0.882516 7.2785 0.582469 6.74851 0.741924 6.2352C0.956669 5.54552 1.85776 5.34149 3.65971 4.93349L3.66277 4.9328L4.12844 4.8272C4.64177 4.71134 4.89843 4.6534 5.10376 4.4972C5.13134 4.47621 5.1745 4.4997 5.16931 4.53396C5.02045 5.51608 5.10839 6.52012 5.42651 7.46226C5.7563 8.43893 6.32315 9.31853 7.07628 10.0223C7.82948 10.7261 8.74542 11.2322 9.74215 11.4951Z" fill="url(#paint1_linear_73_4655)"/>
<path d="M2.17619 11.3191C2.80737 11.3191 3.31905 10.8074 3.31905 10.1762C3.31905 9.54502 2.80737 9.03334 2.17619 9.03334C1.545 9.03334 1.03333 9.54502 1.03333 10.1762C1.03333 10.8074 1.545 11.3191 2.17619 11.3191Z" fill="url(#paint2_linear_73_4655)"/>
</g>
<path opacity="0.5" fill-rule="evenodd" clip-rule="evenodd" d="M8.03332 10.7235V13.8849C7.77889 13.885 7.53909 13.995 7.05955 14.2164L6.62175 14.4173C4.93363 15.1954 4.08883 15.5841 3.5271 15.1573C2.96574 14.7315 3.05838 13.7733 3.24367 11.8568L3.24404 11.8529C3.2655 11.6328 3.43654 11.4621 3.63885 11.3728C4.16567 11.14 4.53332 10.6129 4.53332 9.99999C4.53332 9.17157 3.86175 8.49999 3.03332 8.49999L3.01548 8.5001C2.49236 8.5062 1.88273 8.4831 1.55394 8.07617C0.882516 7.24518 0.582469 6.7152 0.741924 6.20188C0.956669 5.51221 1.85776 5.30818 3.65971 4.90018L3.66277 4.89949L4.12843 4.79389C4.64177 4.67802 4.89843 4.62009 5.10376 4.46389C5.13134 4.4429 5.1745 4.46639 5.1693 4.50065C5.02044 5.48277 5.10839 6.48681 5.42651 7.42895C5.75629 8.40562 6.32315 9.28522 7.07628 9.98902C7.37188 10.2652 7.69254 10.511 8.03332 10.7235Z" fill="url(#paint3_linear_73_4655)"/>
<path d="M2.17619 11.2858C2.80737 11.2858 3.31905 10.7741 3.31905 10.1429C3.31905 9.51171 2.80737 9.00004 2.17619 9.00004C1.545 9.00004 1.03333 9.51171 1.03333 10.1429C1.03333 10.7741 1.545 11.2858 2.17619 11.2858Z" fill="url(#paint4_linear_73_4655)"/>
<path fill-rule="evenodd" clip-rule="evenodd" d="M8.03442 0.700012V10.7571C7.69372 10.5446 7.37312 10.2989 7.07758 10.0227C6.32433 9.31888 5.75741 8.43921 5.42759 7.46248C5.09777 6.48574 5.01535 5.44246 5.18772 4.42606C5.16132 4.45173 5.13419 4.47519 5.10485 4.49719C5.31017 4.341 5.44216 4.10416 5.70612 3.6305L5.94671 3.1992L5.94817 3.19658C6.87629 1.53227 7.34037 0.700085 8.03442 0.700012Z" fill="url(#paint5_linear_73_4655)"/>
<defs>
<linearGradient id="paint0_linear_73_4655" x1="10.2326" y1="11.7015" x2="10.2326" y2="0.700012" gradientUnits="userSpaceOnUse">
<stop stop-color="#FD5900"/>
<stop offset="1" stop-color="#FFDE00"/>
</linearGradient>
<linearGradient id="paint1_linear_73_4655" x1="6.83302" y1="15.3667" x2="6.83302" y2="4.48926" gradientUnits="userSpaceOnUse">
<stop stop-color="#FD5900"/>
<stop offset="1" stop-color="#FFDE00"/>
</linearGradient>
<linearGradient id="paint2_linear_73_4655" x1="1.46191" y1="11.176" x2="2.89035" y2="9.46175" gradientUnits="userSpaceOnUse">
<stop stop-color="#FF8860"/>
<stop offset="1" stop-color="#FBD92C"/>
</linearGradient>
<linearGradient id="paint3_linear_73_4655" x1="6.83305" y1="15.3333" x2="6.83305" y2="4.45593" gradientUnits="userSpaceOnUse">
<stop stop-color="#FD5900"/>
<stop offset="1" stop-color="#FFDE00"/>
</linearGradient>
<linearGradient id="paint4_linear_73_4655" x1="1.46191" y1="11.1427" x2="2.89035" y2="9.42843" gradientUnits="userSpaceOnUse">
<stop stop-color="#FF8860"/>
<stop offset="1" stop-color="#FBD92C"/>
</linearGradient>
<linearGradient id="paint5_linear_73_4655" x1="6.56727" y1="10.7571" x2="6.56727" y2="0.700012" gradientUnits="userSpaceOnUse">
<stop stop-color="#FD5900"/>
<stop offset="1" stop-color="#FFDE00"/>
</linearGradient>
</defs>
</svg>
