<svg width="16" height="16" viewBox="0 0 16 16" fill="none" xmlns="http://www.w3.org/2000/svg">
<path d="M5.91229 3.16587L5.67176 3.59707C5.40776 4.0708 5.27576 4.30767 5.07043 4.46387C5.09976 4.44187 5.1269 4.4184 5.1533 4.39273C4.98093 5.40913 5.06334 6.45241 5.39316 7.42915C5.72298 8.40589 6.2899 9.28555 7.04316 9.98942C7.79642 10.6932 8.71249 11.1993 9.70929 11.4622C10.7062 11.725 11.7526 11.7366 12.755 11.4958L12.7403 11.3564C12.6882 10.8116 12.6618 10.5388 12.7403 10.2858C12.8188 10.0335 12.9933 9.82889 13.3431 9.42042L13.6614 9.04862C14.8912 7.61129 15.5057 6.89189 15.2908 6.20185C15.0767 5.51179 14.1747 5.30719 12.3707 4.89946L11.9043 4.79387C11.3918 4.678 11.1351 4.62007 10.929 4.46387C10.7237 4.30767 10.5917 4.0708 10.3277 3.59707L10.0879 3.16587C9.15876 1.49975 8.69456 0.666687 8.00009 0.666687C7.30562 0.666687 6.84142 1.49975 5.91229 3.16587Z" fill="url(#paint0_linear_73_4675)"/>
<path opacity="0.5" fill-rule="evenodd" clip-rule="evenodd" d="M9.70882 11.4618C10.5897 11.6943 11.5093 11.7304 12.4031 11.5695C12.5898 11.5359 12.7709 11.6642 12.7895 11.853L12.7899 11.8568C12.9751 13.7733 13.0678 14.7315 12.5057 15.158C11.9447 15.5834 11.0999 15.1947 9.41102 14.4174L8.97469 14.2164C8.49436 13.995 8.25456 13.885 8.00009 13.885C7.74562 13.885 7.50582 13.995 7.02622 14.2164L6.58843 14.4174C4.9003 15.1954 4.05551 15.5841 3.49378 15.1573C2.93242 14.7315 3.02506 13.7733 3.21035 11.8568L3.21072 11.853C3.23218 11.6328 3.40322 11.4621 3.60552 11.3728C4.13234 11.14 4.5 10.613 4.5 10C4.5 9.17157 3.82843 8.5 3 8.5C2.99404 8.5 2.9881 8.50003 2.98216 8.5001C2.45904 8.5062 1.84941 8.48311 1.52062 8.07618C0.84919 7.24519 0.549143 6.7152 0.708598 6.20189C0.923344 5.51221 1.82444 5.30819 3.62639 4.90019L3.62944 4.89949L4.09511 4.79389C4.60844 4.67803 4.8651 4.62009 5.07044 4.46389C5.09801 4.44291 5.14118 4.46639 5.13598 4.50066C4.98712 5.48277 5.07506 6.48681 5.39318 7.42895C5.72297 8.40562 6.28982 9.28522 7.04296 9.98902C7.79616 10.6928 8.71209 11.1989 9.70882 11.4618Z" fill="url(#paint1_linear_73_4675)"/>
<path d="M2.14286 11.2858C2.77404 11.2858 3.28572 10.7741 3.28572 10.1429C3.28572 9.51171 2.77404 9.00004 2.14286 9.00004C1.51168 9.00004 1 9.51171 1 10.1429C1 10.7741 1.51168 11.2858 2.14286 11.2858Z" fill="url(#paint2_linear_73_4675)"/>
<defs>
<linearGradient id="paint0_linear_73_4675" x1="10.1993" y1="11.6682" x2="10.1993" y2="0.666687" gradientUnits="userSpaceOnUse">
<stop stop-color="#FD5900"/>
<stop offset="1" stop-color="#FFDE00"/>
</linearGradient>
<linearGradient id="paint1_linear_73_4675" x1="6.79969" y1="15.3334" x2="6.79969" y2="4.39276" gradientUnits="userSpaceOnUse">
<stop stop-color="#FD5900"/>
<stop offset="1" stop-color="#FFDE00"/>
</linearGradient>
<linearGradient id="paint2_linear_73_4675" x1="1.42857" y1="11.1427" x2="2.85701" y2="9.42843" gradientUnits="userSpaceOnUse">
<stop stop-color="#FF8860"/>
<stop offset="1" stop-color="#FBD92C"/>
</linearGradient>
</defs>
</svg>
