<svg width="16" height="16" viewBox="0 0 16 16" fill="none" xmlns="http://www.w3.org/2000/svg">
<path fill-rule="evenodd" clip-rule="evenodd" d="M16 15C16 14.448 15.552 14 15 14C14.448 14 14 14.448 14 15C14 15.552 14.448 16 15 16C15.552 16 16 15.552 16 15ZM13 15C13 13.896 13.896 13 15 13C15.552 13 16 12.552 16 12C16 12 16 7.216 16 3.958C16 1.772 14.228 0 12.042 0H3.958C1.772 0 0 1.772 0 3.958V12.042C0 14.228 1.772 16 3.958 16C7.216 16 12 16 12 16C12.552 16 13 15.552 13 15Z" fill="url(#paint0_linear_73_4712)"/>
<path d="M5.80015 9.32544C5.65101 9.10224 5.57141 8.83984 5.57141 8.57144C5.57141 8.21149 5.71438 7.86629 5.9689 7.61178C6.22341 7.35727 6.56861 7.21429 6.92855 7.21429C7.19695 7.21429 7.45935 7.29389 7.68255 7.44304C7.90573 7.59212 8.0797 7.80412 8.18241 8.05207C8.28513 8.30004 8.31198 8.57295 8.25961 8.83621C8.20727 9.09944 8.07801 9.34129 7.88821 9.53109C7.69841 9.72089 7.45655 9.85015 7.19333 9.90249C6.93007 9.95487 6.65715 9.92801 6.40918 9.82529C6.16124 9.72258 5.94924 9.54861 5.80015 9.32544Z" fill="#B85C68" stroke="#B85C68" stroke-width="0.6"/>
<path d="M1.72874 5.25403C1.5796 5.03083 1.5 4.76843 1.5 4.50003C1.5 4.14008 1.64297 3.79488 1.89749 3.54037C2.152 3.28585 2.4972 3.14288 2.85714 3.14288C3.12554 3.14288 3.38794 3.22248 3.61114 3.37163C3.83431 3.52071 4.00829 3.73271 4.111 3.98065C4.21371 4.22863 4.24057 4.50154 4.1882 4.7648C4.13586 5.02803 4.0066 5.26988 3.8168 5.45968C3.627 5.64948 3.38514 5.77874 3.12191 5.83108C2.85866 5.88345 2.58574 5.8566 2.33777 5.75388C2.08983 5.65117 1.87783 5.4772 1.72874 5.25403Z" fill="#B85C68" stroke="#B85C68" stroke-width="0.6"/>
<path d="M9.87156 5.25403C9.72242 5.03083 9.64282 4.76843 9.64282 4.50003C9.64282 4.14008 9.78579 3.79488 10.0403 3.54037C10.2948 3.28585 10.64 3.14288 11 3.14288C11.2684 3.14288 11.5308 3.22248 11.754 3.37163C11.9771 3.52071 12.1511 3.73271 12.2538 3.98065C12.3565 4.22863 12.3834 4.50154 12.331 4.7648C12.2787 5.02803 12.1494 5.26988 11.9596 5.45968C11.7698 5.64948 11.528 5.77874 11.2647 5.83108C11.0015 5.88345 10.7286 5.8566 10.4806 5.75388C10.2327 5.65117 10.0207 5.4772 9.87156 5.25403Z" fill="#B85C68" stroke="#B85C68" stroke-width="0.6"/>
<path d="M1.72874 13.3968C1.5796 13.1736 1.5 12.9112 1.5 12.6428C1.5 12.2829 1.64297 11.9377 1.89749 11.6832C2.152 11.4287 2.4972 11.2857 2.85714 11.2857C3.12554 11.2857 3.38794 11.3653 3.61114 11.5144C3.83431 11.6635 4.00829 11.8755 4.111 12.1235C4.21371 12.3714 4.24057 12.6444 4.1882 12.9076C4.13586 13.1708 4.0066 13.4127 3.8168 13.6025C3.627 13.7923 3.38514 13.9216 3.12191 13.9739C2.85866 14.0263 2.58574 13.9994 2.33777 13.8967C2.08983 13.794 1.87783 13.62 1.72874 13.3968Z" fill="#B85C68" stroke="#B85C68" stroke-width="0.6"/>
<path d="M9.87156 13.3968C9.72242 13.1736 9.64282 12.9112 9.64282 12.6428C9.64282 12.2829 9.78579 11.9377 10.0403 11.6832C10.2948 11.4287 10.64 11.2857 11 11.2857C11.2684 11.2857 11.5308 11.3653 11.754 11.5144C11.9771 11.6635 12.1511 11.8755 12.2538 12.1235C12.3565 12.3714 12.3834 12.6444 12.331 12.9076C12.2787 13.1708 12.1494 13.4127 11.9596 13.6025C11.7698 13.7923 11.528 13.9216 11.2647 13.9739C11.0015 14.0263 10.7286 13.9994 10.4806 13.8967C10.2327 13.794 10.0207 13.62 9.87156 13.3968Z" fill="#B85C68" stroke="#B85C68" stroke-width="0.6"/>
<path d="M6.94298 8.18255C6.79383 7.95935 6.71423 7.69695 6.71423 7.42855C6.71423 7.06861 6.8572 6.72341 7.11172 6.4689C7.36623 6.21438 7.71143 6.07141 8.07138 6.07141C8.33978 6.07141 8.60218 6.15101 8.82538 6.30015C9.04855 6.44924 9.22252 6.66124 9.32523 6.90918C9.42795 7.15715 9.4548 7.43007 9.40243 7.69333C9.35009 7.95655 9.22083 8.19841 9.03103 8.38821C8.84123 8.57801 8.59938 8.70727 8.33615 8.75961C8.07289 8.81198 7.79998 8.78513 7.552 8.68241C7.30406 8.5797 7.09206 8.40573 6.94298 8.18255Z" fill="url(#paint1_linear_73_4712)" stroke="url(#paint2_linear_73_4712)" stroke-width="0.6"/>
<path d="M2.87157 4.11114C2.72242 3.88794 2.64282 3.62554 2.64282 3.35714C2.64282 2.9972 2.78579 2.652 3.04031 2.39749C3.29482 2.14297 3.64002 2 3.99997 2C4.26837 2 4.53076 2.0796 4.75396 2.22874C4.97714 2.37783 5.15111 2.58983 5.25382 2.83777C5.35654 3.08574 5.38339 3.35866 5.33102 3.62191C5.27868 3.88514 5.14942 4.127 4.95962 4.3168C4.76982 4.5066 4.52797 4.63586 4.26474 4.6882C4.00148 4.74057 3.72857 4.71371 3.48059 4.611C3.23265 4.50829 3.02065 4.33431 2.87157 4.11114Z" fill="url(#paint3_linear_73_4712)" stroke="url(#paint4_linear_73_4712)" stroke-width="0.6"/>
<path d="M11.0145 4.11114C10.8654 3.88794 10.7858 3.62554 10.7858 3.35714C10.7858 2.9972 10.9287 2.652 11.1833 2.39749C11.4378 2.14297 11.783 2 12.1429 2C12.4113 2 12.6737 2.0796 12.8969 2.22874C13.1201 2.37783 13.2941 2.58983 13.3968 2.83777C13.4995 3.08574 13.5263 3.35866 13.474 3.62191C13.4216 3.88514 13.2924 4.127 13.1026 4.3168C12.9128 4.5066 12.6709 4.63586 12.4077 4.6882C12.1444 4.74057 11.8715 4.71371 11.6235 4.611C11.3756 4.50829 11.1636 4.33431 11.0145 4.11114Z" fill="url(#paint5_linear_73_4712)" stroke="url(#paint6_linear_73_4712)" stroke-width="0.6"/>
<path d="M2.87157 12.254C2.72242 12.0308 2.64282 11.7684 2.64282 11.5C2.64282 11.1401 2.78579 10.7949 3.04031 10.5404C3.29482 10.2859 3.64002 10.1429 3.99997 10.1429C4.26837 10.1429 4.53076 10.2225 4.75396 10.3716C4.97714 10.5207 5.15111 10.7327 5.25382 10.9807C5.35654 11.2286 5.38339 11.5015 5.33102 11.7648C5.27868 12.028 5.14942 12.2699 4.95962 12.4597C4.76982 12.6495 4.52797 12.7787 4.26474 12.8311C4.00148 12.8835 3.72857 12.8566 3.48059 12.7539C3.23265 12.6512 3.02065 12.4772 2.87157 12.254Z" fill="url(#paint7_linear_73_4712)" stroke="url(#paint8_linear_73_4712)" stroke-width="0.6"/>
<path d="M11.0145 12.254C10.8654 12.0308 10.7858 11.7684 10.7858 11.5C10.7858 11.1401 10.9287 10.7949 11.1833 10.5404C11.4378 10.2859 11.783 10.1429 12.1429 10.1429C12.4113 10.1429 12.6737 10.2225 12.8969 10.3716C13.1201 10.5207 13.2941 10.7327 13.3968 10.9807C13.4995 11.2286 13.5263 11.5015 13.474 11.7648C13.4216 12.028 13.2924 12.2699 13.1026 12.4597C12.9128 12.6495 12.6709 12.7787 12.4077 12.8311C12.1444 12.8835 11.8715 12.8566 11.6235 12.7539C11.3756 12.6512 11.1636 12.4772 11.0145 12.254Z" fill="url(#paint9_linear_73_4712)" stroke="url(#paint10_linear_73_4712)" stroke-width="0.6"/>
<defs>
<linearGradient id="paint0_linear_73_4712" x1="1.14286" y1="15.0204" x2="15.7918" y2="7.11491" gradientUnits="userSpaceOnUse">
<stop stop-color="#B65592"/>
<stop offset="0.5" stop-color="#FB6F71"/>
<stop offset="1" stop-color="#F9CB52"/>
</linearGradient>
<linearGradient id="paint1_linear_73_4712" x1="6.90811" y1="8.61952" x2="9.3932" y2="7.27841" gradientUnits="userSpaceOnUse">
<stop stop-color="#D4A4C4"/>
<stop offset="0.5" stop-color="#F7B1B3"/>
<stop offset="1" stop-color="#F7E1A3"/>
</linearGradient>
<linearGradient id="paint2_linear_73_4712" x1="6.90811" y1="8.61952" x2="9.3932" y2="7.27841" gradientUnits="userSpaceOnUse">
<stop stop-color="#D4A4C4"/>
<stop offset="0.5" stop-color="#F7B1B3"/>
<stop offset="1" stop-color="#F7E1A3"/>
</linearGradient>
<linearGradient id="paint3_linear_73_4712" x1="2.8367" y1="4.54811" x2="5.32179" y2="3.20699" gradientUnits="userSpaceOnUse">
<stop stop-color="#D4A4C4"/>
<stop offset="0.5" stop-color="#F7B1B3"/>
<stop offset="1" stop-color="#F7E1A3"/>
</linearGradient>
<linearGradient id="paint4_linear_73_4712" x1="2.8367" y1="4.54811" x2="5.32179" y2="3.20699" gradientUnits="userSpaceOnUse">
<stop stop-color="#D4A4C4"/>
<stop offset="0.5" stop-color="#F7B1B3"/>
<stop offset="1" stop-color="#F7E1A3"/>
</linearGradient>
<linearGradient id="paint5_linear_73_4712" x1="10.9796" y1="4.54811" x2="13.4647" y2="3.20699" gradientUnits="userSpaceOnUse">
<stop stop-color="#D4A4C4"/>
<stop offset="0.5" stop-color="#F7B1B3"/>
<stop offset="1" stop-color="#F7E1A3"/>
</linearGradient>
<linearGradient id="paint6_linear_73_4712" x1="10.9796" y1="4.54811" x2="13.4647" y2="3.20699" gradientUnits="userSpaceOnUse">
<stop stop-color="#D4A4C4"/>
<stop offset="0.5" stop-color="#F7B1B3"/>
<stop offset="1" stop-color="#F7E1A3"/>
</linearGradient>
<linearGradient id="paint7_linear_73_4712" x1="2.8367" y1="12.691" x2="5.32179" y2="11.3499" gradientUnits="userSpaceOnUse">
<stop stop-color="#D4A4C4"/>
<stop offset="0.5" stop-color="#F7B1B3"/>
<stop offset="1" stop-color="#F7E1A3"/>
</linearGradient>
<linearGradient id="paint8_linear_73_4712" x1="2.8367" y1="12.691" x2="5.32179" y2="11.3499" gradientUnits="userSpaceOnUse">
<stop stop-color="#D4A4C4"/>
<stop offset="0.5" stop-color="#F7B1B3"/>
<stop offset="1" stop-color="#F7E1A3"/>
</linearGradient>
<linearGradient id="paint9_linear_73_4712" x1="10.9796" y1="12.691" x2="13.4647" y2="11.3499" gradientUnits="userSpaceOnUse">
<stop stop-color="#D4A4C4"/>
<stop offset="0.5" stop-color="#F7B1B3"/>
<stop offset="1" stop-color="#F7E1A3"/>
</linearGradient>
<linearGradient id="paint10_linear_73_4712" x1="10.9796" y1="12.691" x2="13.4647" y2="11.3499" gradientUnits="userSpaceOnUse">
<stop stop-color="#D4A4C4"/>
<stop offset="0.5" stop-color="#F7B1B3"/>
<stop offset="1" stop-color="#F7E1A3"/>
</linearGradient>
</defs>
</svg>
