<svg width="16" height="16" viewBox="0 0 16 16" fill="none" xmlns="http://www.w3.org/2000/svg">
<path d="M10.9032 8.40823L10.6144 11.6732C10.6144 12.4059 11.2143 13 11.9541 13C12.694 13 13.2938 12.4059 13.2938 11.6732L13.0051 8.40823C13.0051 7.8334 12.5345 7.3674 11.9541 7.3674C11.3727 7.3674 10.9032 7.8334 10.9032 8.40823Z" fill="url(#paint0_linear_114_790)"/>
<path fill-rule="evenodd" clip-rule="evenodd" d="M10.8137 9.40597L10.902 8.40712C10.902 7.83229 11.3716 7.36629 11.953 7.36629C12.5334 7.36629 13.0039 7.83229 13.0039 8.40712L13.0828 9.29878C12.6037 9.36486 11.8973 9.40814 11.1256 9.40814C11.0202 9.40814 10.9161 9.40741 10.8137 9.40597Z" fill="#7FD1AE"/>
<path d="M11.2668 3.20558C11.2348 3.23723 11.0997 3.35551 10.9875 3.46665C10.2847 4.11479 9.1356 5.80721 8.78395 6.69255C8.72784 6.82695 8.60839 7.16688 8.59998 7.34906C8.59998 7.5229 8.64039 7.68899 8.71999 7.8473C8.83158 8.04504 9.00774 8.20275 9.21523 8.28995C9.35879 8.3455 9.79011 8.43274 9.79792 8.43274C10.2691 8.51934 11.0351 8.56655 11.882 8.56655C12.6879 8.56655 13.4226 8.51934 13.9016 8.44826C13.91 8.44052 14.4451 8.35328 14.6284 8.2583C14.9638 8.08447 15.1713 7.74454 15.1713 7.38074V7.34906C15.1635 7.11189 14.9554 6.61369 14.9481 6.61369C14.5965 5.77556 13.5028 4.12317 12.776 3.45887C12.776 3.45887 12.589 3.27131 12.4726 3.19006C12.3049 3.06339 12.0974 3.00006 11.8899 3.00006C11.6582 3.00006 11.4429 3.07117 11.2668 3.20558Z" fill="url(#paint1_linear_114_790)"/>
<path d="M5.37717 11.5384V7.56681C5.37717 7.26266 5.31537 6.99877 5.19179 6.77536C5.07295 6.54724 4.89232 6.37137 4.6499 6.24778C4.40747 6.12419 4.10801 6.06239 3.7515 6.06239C3.41876 6.06239 3.12642 6.11943 2.87449 6.23351C2.62731 6.3476 2.43242 6.49732 2.28981 6.68273C2.23906 6.75098 2.19764 6.82116 2.16558 6.89328C2.07582 7.09514 1.90395 7.28165 1.68304 7.28165H1.16396C0.943048 7.28165 0.759665 7.10002 0.813382 6.88574C0.84898 6.74373 0.903809 6.60237 0.977868 6.46167C1.12047 6.19073 1.32487 5.94593 1.59106 5.72727C1.86201 5.50386 2.18524 5.32798 2.56076 5.19964C2.94103 5.06655 3.36409 5 3.82993 5C4.39084 5 4.88519 5.09506 5.313 5.2852C5.74557 5.47534 6.08305 5.76292 6.32548 6.14795C6.57265 6.52823 6.69624 7.00597 6.69624 7.5811V11.1747C6.69624 11.4314 6.71764 11.7048 6.76042 11.9947C6.8066 12.2763 6.87297 12.5199 6.95953 12.7253C6.96453 12.7372 6.96719 12.75 6.96719 12.7629V12.7629C6.96719 12.8151 6.92486 12.8574 6.87263 12.8574H5.85266C5.69375 12.8574 5.54774 12.7636 5.50674 12.6101C5.47855 12.5045 5.45437 12.3849 5.43421 12.2513C5.39618 11.9947 5.37717 11.757 5.37717 11.5384ZM5.21145 8.18002C5.42996 8.18002 5.60804 8.35537 5.6114 8.57386L5.61335 8.70081C5.61679 8.92411 5.43672 9.10696 5.2134 9.10696H4.28626C3.91074 9.10696 3.57562 9.13784 3.28091 9.19969C2.9862 9.25674 2.73902 9.34467 2.53937 9.46347C2.33973 9.58228 2.18762 9.73206 2.08304 9.91271C1.97847 10.0886 1.92618 10.2953 1.92618 10.533C1.92618 10.7754 1.98084 10.9964 2.09017 11.1961C2.19951 11.3957 2.36349 11.555 2.58216 11.6738C2.80556 11.7879 3.07888 11.8449 3.40212 11.8449C3.80616 11.8449 4.16267 11.7594 4.47164 11.5882C4.78062 11.4171 5.02542 11.208 5.20604 10.9608C5.22292 10.9383 5.2391 10.9158 5.25456 10.8934C5.40329 10.6781 5.80186 10.5745 5.97558 10.7702V10.7702C6.03453 10.8366 6.06199 10.9266 6.03798 11.0121C5.99235 11.1746 5.91231 11.35 5.79785 11.5384C5.65049 11.7808 5.45322 12.0137 5.20604 12.2371C4.96362 12.4557 4.67367 12.6388 4.33617 12.7861C4.00343 12.9288 3.62791 13 3.20961 13C2.68673 13 2.22802 12.8978 1.83348 12.6935C1.44371 12.489 1.13949 12.2157 0.920825 11.8734C0.706929 11.5265 0.599976 11.139 0.599976 10.7113C0.599976 10.2977 0.68078 9.93409 0.842399 9.62035C1.00402 9.3018 1.23693 9.03802 1.54115 8.82889C1.84537 8.61496 2.21139 8.4534 2.6392 8.34409C3.067 8.23467 3.54472 8.18002 4.07235 8.18002H5.21145Z" fill="url(#paint2_linear_114_790)" stroke="url(#paint3_linear_114_790)" stroke-width="0.4"/>
<defs>
<linearGradient id="paint0_linear_114_790" x1="12.9589" y1="8.07132" x2="10.3496" y2="8.35775" gradientUnits="userSpaceOnUse">
<stop stop-color="#62E8AF"/>
<stop offset="1" stop-color="#B3FBDC"/>
</linearGradient>
<linearGradient id="paint1_linear_114_790" x1="9.42139" y1="7.87089" x2="15.4505" y2="6.22844" gradientUnits="userSpaceOnUse">
<stop stop-color="#62E8AF"/>
<stop offset="1" stop-color="#B3FBDC"/>
</linearGradient>
<linearGradient id="paint2_linear_114_790" x1="1.39588" y1="12.0002" x2="7.46648" y2="10.8853" gradientUnits="userSpaceOnUse">
<stop stop-color="#62E8AF"/>
<stop offset="1" stop-color="#B3FBDC"/>
</linearGradient>
<linearGradient id="paint3_linear_114_790" x1="1.39588" y1="12.0002" x2="7.46648" y2="10.8853" gradientUnits="userSpaceOnUse">
<stop stop-color="#62E8AF"/>
<stop offset="1" stop-color="#B3FBDC"/>
</linearGradient>
</defs>
</svg>
