<svg width="16" height="16" viewBox="0 0 16 16" fill="none" xmlns="http://www.w3.org/2000/svg">
<path fill-rule="evenodd" clip-rule="evenodd" d="M3 8C3 6 1.336 5.837 1.276 5.807C0.780999 5.563 0.576999 4.963 0.820999 4.468C2.126 1.822 4.852 0 8 0C12.415 0 16 3.585 16 8C16 12.415 12.415 16 8 16C4.852 16 2.126 14.178 0.820999 11.532C0.576999 11.037 0.780999 10.437 1.276 10.193C1.336 10.163 3 10 3 8ZM1 9C0.448 9 0 8.552 0 8C0 7.448 0.448 7 1 7C1.552 7 2 7.448 2 8C2 8.552 1.552 9 1 9Z" fill="url(#paint0_linear_73_4959)"/>
<path fill-rule="evenodd" clip-rule="evenodd" d="M7.99996 6.14286C7.84848 6.14286 7.7031 6.08265 7.59596 5.97549C7.48874 5.86833 7.42859 5.72299 7.42859 5.57143C7.42859 5.41988 7.48874 5.27453 7.59596 5.16737C7.7031 5.06021 7.84848 5 7.99996 5H11.0476C11.1606 5.0001 11.271 5.03367 11.3648 5.09646C11.4587 5.15926 11.5319 5.24847 11.5751 5.35282C11.6183 5.45718 11.6296 5.57199 11.6076 5.68277C11.5856 5.79355 11.5312 5.89532 11.4514 5.97524L9.72048 7.7062C9.59448 7.8322 9.68372 8.04762 9.8619 8.04762H11.0476C11.1992 8.04762 11.3445 8.10783 11.4517 8.215C11.5588 8.32216 11.6191 8.46751 11.6191 8.61905C11.6191 8.77061 11.5588 8.91596 11.4517 9.02312C11.3445 9.13029 11.1992 9.19049 11.0476 9.19049H7.99996C7.88707 9.19039 7.77669 9.15682 7.68277 9.09402C7.58892 9.03123 7.51576 8.94202 7.47257 8.83766C7.42931 8.73331 7.41803 8.61849 7.44002 8.50771C7.46201 8.39694 7.51641 8.29516 7.59617 8.21525L9.32717 6.48428C9.45316 6.35829 9.36393 6.14286 9.18574 6.14286H7.99996ZM4.57144 10.7143C4.41989 10.7143 4.27451 10.6541 4.16737 10.5469C4.06022 10.4398 4 10.2944 4 10.1429C4 9.99132 4.06022 9.84597 4.16737 9.73881C4.27451 9.63164 4.41989 9.57144 4.57144 9.57144H6.85715C6.97011 9.57154 7.08049 9.60511 7.17434 9.6679C7.2682 9.7307 7.34142 9.81991 7.38461 9.92426C7.4278 10.0286 7.43916 10.1434 7.41709 10.2542C7.3951 10.365 7.34078 10.4668 7.26094 10.5467L6.29188 11.5158C6.16589 11.6418 6.25512 11.8572 6.4333 11.8572H6.85715C7.0087 11.8572 7.15401 11.9173 7.26123 12.0245C7.36837 12.1317 7.42859 12.2771 7.42859 12.4286C7.42859 12.5801 7.36837 12.7255 7.26123 12.8326C7.15401 12.9399 7.0087 13 6.85715 13H4.57144C4.45848 12.9999 4.3481 12.9664 4.25425 12.9036C4.16032 12.8408 4.08717 12.7516 4.04398 12.6472C4.00072 12.5428 3.98944 12.4281 4.01143 12.3172C4.03342 12.2065 4.08782 12.1047 4.16758 12.0248L5.13668 11.0557C5.26268 10.9297 5.17344 10.7143 4.99526 10.7143H4.57144Z" fill="#279FD7"/>
<path fill-rule="evenodd" clip-rule="evenodd" d="M8.99996 5.14286C8.84848 5.14286 8.7031 5.08265 8.59596 4.97549C8.48874 4.86833 8.42859 4.72299 8.42859 4.57143C8.42859 4.41988 8.48874 4.27453 8.59596 4.16737C8.7031 4.06021 8.84848 4 8.99996 4H12.0476C12.1606 4.0001 12.271 4.03367 12.3648 4.09646C12.4587 4.15926 12.5319 4.24847 12.5751 4.35282C12.6183 4.45718 12.6296 4.57199 12.6076 4.68277C12.5856 4.79355 12.5312 4.89532 12.4514 4.97524L10.7205 6.7062C10.5945 6.8322 10.6837 7.04762 10.8619 7.04762H12.0476C12.1992 7.04762 12.3445 7.10783 12.4517 7.215C12.5588 7.32216 12.6191 7.46751 12.6191 7.61905C12.6191 7.77061 12.5588 7.91596 12.4517 8.02312C12.3445 8.13029 12.1992 8.19049 12.0476 8.19049H8.99996C8.88707 8.19039 8.77669 8.15682 8.68277 8.09402C8.58892 8.03123 8.51576 7.94202 8.47257 7.83766C8.42931 7.73331 8.41803 7.61849 8.44002 7.50771C8.46201 7.39694 8.51641 7.29516 8.59617 7.21525L10.3272 5.48428C10.4532 5.35829 10.3639 5.14286 10.1857 5.14286H8.99996ZM5.57144 9.7143C5.41989 9.7143 5.27451 9.6541 5.16737 9.54693C5.06022 9.43977 5 9.29442 5 9.14287C5 8.99132 5.06022 8.84597 5.16737 8.73881C5.27451 8.63164 5.41989 8.57144 5.57144 8.57144H7.85715C7.97011 8.57154 8.08049 8.60511 8.17434 8.6679C8.2682 8.7307 8.34142 8.81991 8.38461 8.92426C8.4278 9.02861 8.43916 9.14343 8.41709 9.25422C8.3951 9.36499 8.34078 9.46677 8.26094 9.54668L7.29188 10.5158C7.16589 10.6418 7.25512 10.8572 7.4333 10.8572H7.85715C8.0087 10.8572 8.15401 10.9173 8.26123 11.0245C8.36837 11.1317 8.42859 11.2771 8.42859 11.4286C8.42859 11.5801 8.36837 11.7255 8.26123 11.8326C8.15401 11.9399 8.0087 12 7.85715 12H5.57144C5.45848 11.9999 5.3481 11.9664 5.25425 11.9036C5.16032 11.8408 5.08717 11.7516 5.04398 11.6472C5.00072 11.5428 4.98944 11.4281 5.01143 11.3172C5.03342 11.2065 5.08782 11.1047 5.16758 11.0248L6.13668 10.0557C6.26268 9.92974 6.17344 9.7143 5.99526 9.7143H5.57144Z" fill="url(#paint1_linear_73_4959)"/>
<defs>
<linearGradient id="paint0_linear_73_4959" x1="1.6" y1="16.005" x2="7.3787" y2="-1.33327" gradientUnits="userSpaceOnUse">
<stop stop-color="#22B4FA"/>
<stop offset="1" stop-color="#6BD6FE"/>
</linearGradient>
<linearGradient id="paint1_linear_73_4959" x1="5" y1="12" x2="14.0129" y2="9.85407" gradientUnits="userSpaceOnUse">
<stop stop-color="#6BD6FE"/>
<stop offset="1" stop-color="white"/>
</linearGradient>
</defs>
</svg>
