<svg width="16" height="16" viewBox="0 0 16 16" fill="none" xmlns="http://www.w3.org/2000/svg">
<path fill-rule="evenodd" clip-rule="evenodd" d="M3 8C3 6 1.336 5.837 1.276 5.807C0.780999 5.563 0.576999 4.963 0.820999 4.468C2.126 1.822 4.852 0 8 0C12.415 0 16 3.585 16 8C16 12.415 12.415 16 8 16C4.852 16 2.126 14.178 0.820999 11.532C0.576999 11.037 0.780999 10.437 1.276 10.193C1.336 10.163 3 10 3 8ZM1 9C0.448 9 0 8.552 0 8C0 7.448 0.448 7 1 7C1.552 7 2 7.448 2 8C2 8.552 1.552 9 1 9Z" fill="url(#paint0_linear_73_4951)"/>
<path d="M11.558 10.1138C11.5904 10.246 11.569 10.3857 11.4984 10.5022C11.4279 10.6186 11.314 10.7023 11.1818 10.7348L10.2971 10.9522L10.5282 11.8151C10.5635 11.9466 10.5451 12.0868 10.4771 12.2048C10.409 12.3228 10.2968 12.4089 10.1653 12.4442C10.0337 12.4795 9.89353 12.4611 9.77554 12.393C9.65755 12.325 9.57143 12.2128 9.53612 12.0813L9.22411 10.9171L7.80658 10.0984V11.7342L8.68312 12.6107C8.7309 12.6585 8.7688 12.7152 8.79465 12.7776C8.82051 12.84 8.83381 12.9069 8.83381 12.9745C8.83381 13.0421 8.82051 13.109 8.79465 13.1714C8.7688 13.2338 8.7309 13.2905 8.68312 13.3383C8.63535 13.3861 8.57863 13.424 8.51621 13.4498C8.45379 13.4757 8.38689 13.489 8.31933 13.489C8.25176 13.489 8.18486 13.4757 8.12244 13.4498C8.06002 13.424 8.0033 13.3861 7.95553 13.3383L7.29299 12.6758L6.62916 13.34C6.58139 13.3878 6.52467 13.4257 6.46225 13.4515C6.39983 13.4774 6.33293 13.4907 6.26536 13.4907C6.1978 13.4907 6.1309 13.4774 6.06848 13.4515C6.00606 13.4257 5.94934 13.3878 5.90156 13.34C5.85379 13.2922 5.81589 13.2355 5.79004 13.1731C5.76418 13.1107 5.75087 13.0438 5.75087 12.9762C5.75087 12.9086 5.76418 12.8417 5.79004 12.7793C5.81589 12.7169 5.85379 12.6602 5.90156 12.6124L6.77939 11.7342V10.0984L5.36186 10.9171L5.04985 12.0813C5.01455 12.2128 4.92843 12.325 4.81044 12.393C4.69245 12.4611 4.55225 12.4795 4.42069 12.4442C4.28913 12.4089 4.17698 12.3228 4.10892 12.2048C4.04085 12.0868 4.02245 11.9466 4.05775 11.8151L4.28887 10.9522L3.4042 10.7348C3.3372 10.7202 3.2738 10.6923 3.21775 10.6528C3.16169 10.6133 3.11412 10.563 3.07782 10.5048C3.04153 10.4466 3.01726 10.3817 3.00644 10.314C2.99561 10.2463 2.99846 10.1771 3.01481 10.1105C3.03116 10.0439 3.06068 9.98128 3.10163 9.92628C3.14258 9.87127 3.19413 9.82503 3.25324 9.79026C3.31235 9.7555 3.37782 9.73293 3.44579 9.72387C3.51377 9.71482 3.58286 9.71947 3.64901 9.73755L4.8427 10.0307L6.26579 9.20897L4.8427 8.38722L3.64901 8.6804C3.60897 8.69037 3.56786 8.6954 3.5266 8.69538C3.40123 8.69509 3.28029 8.64896 3.18657 8.56568C3.09286 8.48239 3.03285 8.3677 3.01785 8.24323C3.00285 8.11875 3.0339 7.99309 3.10514 7.88993C3.17639 7.78676 3.28291 7.71322 3.40462 7.68316L4.2893 7.46574L4.05818 6.60289C4.02287 6.47133 4.04128 6.33114 4.10935 6.21315C4.17741 6.09516 4.28956 6.00904 4.42112 5.97374C4.55268 5.93843 4.69288 5.95684 4.81087 6.0249C4.92886 6.09297 5.01497 6.20512 5.05028 6.33668L5.36229 7.50083L6.77939 8.31917V6.68379L5.90285 5.80553C5.85507 5.75776 5.81718 5.70104 5.79132 5.63862C5.76547 5.5762 5.75216 5.5093 5.75216 5.44173C5.75216 5.30528 5.80636 5.17442 5.90285 5.07794C5.99933 4.98145 6.1302 4.92725 6.26665 4.92725C6.33421 4.92725 6.40111 4.94055 6.46353 4.96641C6.52595 4.99226 6.58267 5.03016 6.63045 5.07794L7.29299 5.74219L7.95681 5.07794C8.00459 5.03016 8.0613 4.99226 8.12372 4.96641C8.18614 4.94055 8.25305 4.92725 8.32061 4.92725C8.38817 4.92725 8.45508 4.94055 8.5175 4.96641C8.57992 4.99226 8.63663 5.03016 8.68441 5.07794C8.73218 5.12571 8.77008 5.18243 8.79594 5.24485C8.82179 5.30727 8.8351 5.37417 8.8351 5.44173C8.8351 5.5093 8.82179 5.5762 8.79594 5.63862C8.77008 5.70104 8.73218 5.75776 8.68441 5.80553L7.80658 6.68379V8.32045L9.22411 7.50212L9.53612 6.33796C9.57143 6.2064 9.65755 6.09425 9.77554 6.02619C9.89353 5.95812 10.0337 5.93972 10.1653 5.97502C10.2968 6.01032 10.409 6.09644 10.4771 6.21443C10.5451 6.33242 10.5635 6.47262 10.5282 6.60418L10.2971 7.46702L11.1818 7.68444C11.3024 7.71551 11.4076 7.78934 11.4778 7.89219C11.5481 7.99504 11.5785 8.11991 11.5635 8.24355C11.5486 8.36719 11.4892 8.48117 11.3964 8.56429C11.3037 8.64741 11.1839 8.694 11.0594 8.69538C11.018 8.69544 10.9767 8.69041 10.9365 8.6804L9.74285 8.38722L8.32018 9.20897L9.74328 10.0307L10.937 9.73755C11.0692 9.70514 11.2089 9.72655 11.3254 9.7971C11.4418 9.86765 11.5255 9.98154 11.558 10.1138Z" fill="#8C4FD9"/>
<path d="M12.9852 8.68652C13.0176 8.81875 12.9962 8.95845 12.9257 9.07491C12.8551 9.19136 12.7412 9.27503 12.609 9.30754L11.7244 9.52496L11.9555 10.3878C11.9908 10.5194 11.9724 10.6596 11.9043 10.7776C11.8362 10.8955 11.7241 10.9817 11.5925 11.017C11.461 11.0523 11.3208 11.0339 11.2028 10.9658C11.0848 10.8977 10.9987 10.7856 10.9634 10.654L10.6514 9.48987L9.23383 8.67111V10.3069L10.1104 11.1835C10.1581 11.2312 10.196 11.2879 10.2219 11.3504C10.2478 11.4128 10.2611 11.4797 10.2611 11.5473C10.2611 11.6148 10.2478 11.6817 10.2219 11.7441C10.196 11.8066 10.1581 11.8633 10.1104 11.9111C10.0626 11.9588 10.0059 11.9967 9.94346 12.0226C9.88104 12.0484 9.81414 12.0617 9.74657 12.0617C9.67901 12.0617 9.61211 12.0484 9.54969 12.0226C9.48727 11.9967 9.43055 11.9588 9.38277 11.9111L8.72023 11.2485L8.05641 11.9128C8.00863 11.9605 7.95192 11.9984 7.8895 12.0243C7.82707 12.0501 7.76017 12.0635 7.69261 12.0635C7.62505 12.0635 7.55814 12.0501 7.49572 12.0243C7.4333 11.9984 7.37659 11.9605 7.32881 11.9128C7.28104 11.865 7.24314 11.8083 7.21728 11.7459C7.19143 11.6834 7.17812 11.6165 7.17812 11.549C7.17812 11.4814 7.19143 11.4145 7.21728 11.3521C7.24314 11.2897 7.28104 11.2329 7.32881 11.1852L8.20663 10.3069V8.67111L6.78911 9.48987L6.47709 10.654C6.44179 10.7856 6.35567 10.8977 6.23768 10.9658C6.11969 11.0339 5.9795 11.0523 5.84794 11.017C5.71638 10.9817 5.60423 10.8955 5.53616 10.7776C5.4681 10.6596 5.44969 10.5194 5.48499 10.3878L5.71611 9.52496L4.83144 9.30754C4.76444 9.29293 4.70105 9.26506 4.64499 9.22556C4.58894 9.18606 4.54136 9.13573 4.50507 9.07755C4.46878 9.01936 4.44451 8.9545 4.43368 8.88679C4.42286 8.81907 4.42571 8.74988 4.44206 8.68328C4.45841 8.61668 4.48793 8.55404 4.52887 8.49903C4.56982 8.44403 4.62137 8.39778 4.68048 8.36302C4.73959 8.32826 4.80506 8.30568 4.87304 8.29663C4.94101 8.28758 5.01011 8.29223 5.07626 8.31031L6.26994 8.60348L7.69304 7.78173L6.26994 6.95997L5.07626 7.25315C5.03622 7.26313 4.99511 7.26816 4.95385 7.26813C4.82847 7.26785 4.70753 7.22172 4.61382 7.13843C4.52011 7.05514 4.46009 6.94046 4.44509 6.81598C4.43009 6.69151 4.46114 6.56584 4.53239 6.46268C4.60363 6.35951 4.71015 6.28597 4.83187 6.25591L5.71654 6.03849L5.48542 5.17565C5.45012 5.04409 5.46853 4.90389 5.53659 4.7859C5.60466 4.66791 5.7168 4.58179 5.84837 4.54649C5.97993 4.51119 6.12012 4.52959 6.23811 4.59766C6.3561 4.66572 6.44222 4.77787 6.47752 4.90943L6.78953 6.07359L8.20663 6.89192V5.25654L7.33009 4.37829C7.28232 4.33051 7.24442 4.2738 7.21857 4.21137C7.19271 4.14895 7.1794 4.08205 7.1794 4.01449C7.1794 3.87804 7.23361 3.74718 7.33009 3.65069C7.42658 3.5542 7.55744 3.5 7.69389 3.5C7.76146 3.5 7.82836 3.51331 7.89078 3.53916C7.9532 3.56502 8.00992 3.60292 8.05769 3.65069L8.72023 4.31494L9.38406 3.65069C9.43183 3.60292 9.48855 3.56502 9.55097 3.53916C9.61339 3.51331 9.68029 3.5 9.74786 3.5C9.81542 3.5 9.88232 3.51331 9.94474 3.53916C10.0072 3.56502 10.0639 3.60292 10.1117 3.65069C10.1594 3.69846 10.1973 3.75518 10.2232 3.8176C10.249 3.88002 10.2623 3.94692 10.2623 4.01449C10.2623 4.08205 10.249 4.14895 10.2232 4.21137C10.1973 4.2738 10.1594 4.33051 10.1117 4.37829L9.23383 5.25654V6.8932L10.6514 6.07487L10.9634 4.91072C10.9987 4.77916 11.0848 4.66701 11.2028 4.59894C11.3208 4.53088 11.461 4.51247 11.5925 4.54777C11.7241 4.58308 11.8362 4.6692 11.9043 4.78718C11.9724 4.90517 11.9908 5.04537 11.9555 5.17693L11.7244 6.03978L12.609 6.2572C12.7296 6.28826 12.8348 6.36209 12.9051 6.46494C12.9753 6.5678 13.0058 6.69266 12.9908 6.8163C12.9758 6.93994 12.9164 7.05393 12.8237 7.13705C12.7309 7.22016 12.6112 7.26675 12.4866 7.26813C12.4452 7.26819 12.404 7.26316 12.3638 7.25315L11.1701 6.95997L9.74743 7.78173L11.1705 8.60348L12.3642 8.31031C12.4964 8.27789 12.6361 8.29931 12.7526 8.36985C12.8691 8.4404 12.9527 8.5543 12.9852 8.68652Z" fill="url(#paint1_linear_73_4951)"/>
<defs>
<linearGradient id="paint0_linear_73_4951" x1="4" y1="14.8571" x2="14.5882" y2="2.5042" gradientUnits="userSpaceOnUse">
<stop stop-color="#A056FF"/>
<stop offset="1" stop-color="#C59AFD"/>
</linearGradient>
<linearGradient id="paint1_linear_73_4951" x1="6.57044" y1="12.0635" x2="14.9271" y2="9.27489" gradientUnits="userSpaceOnUse">
<stop stop-color="#C59AFD"/>
<stop offset="1" stop-color="white"/>
</linearGradient>
</defs>
</svg>
