<svg width="16" height="16" viewBox="0 0 16 16" fill="none" xmlns="http://www.w3.org/2000/svg">
<path fill-rule="evenodd" clip-rule="evenodd" d="M14.7219 9.264C15.008 9.416 15.2288 9.656 15.3841 9.896C15.6866 10.392 15.6621 11 15.3678 11.536L14.7955 12.496C14.493 13.008 13.9289 13.328 13.3484 13.328C13.0623 13.328 12.7434 13.248 12.4818 13.088C12.2692 12.952 12.024 12.904 11.7623 12.904C10.9529 12.904 10.2744 13.568 10.2498 14.36C10.2498 15.28 9.49762 16 8.55748 16H7.44555C6.49719 16 5.74503 15.28 5.74503 14.36C5.72868 13.568 5.0501 12.904 4.24071 12.904C3.97091 12.904 3.72564 12.952 3.52125 13.088C3.25962 13.248 2.9326 13.328 2.65463 13.328C2.06598 13.328 1.50186 13.008 1.19936 12.496L0.635238 11.536C0.332744 11.016 0.316387 10.392 0.618889 9.896C0.749696 9.656 0.994969 9.416 1.27294 9.264C1.50186 9.152 1.64902 8.968 1.78801 8.752C2.19679 8.064 1.95152 7.16 1.25659 6.752C0.447202 6.296 0.18558 5.28 0.651587 4.488L1.19936 3.544C1.67355 2.752 2.68733 2.472 3.5049 2.936C4.21618 3.32 5.14003 3.064 5.55698 2.384C5.6878 2.16 5.76138 1.92 5.74503 1.68C5.72868 1.368 5.8186 1.072 5.97394 0.832C6.27646 0.336 6.82424 0.016 7.42104 0H8.57377C9.17879 0 9.72657 0.336 10.029 0.832C10.1762 1.072 10.2744 1.368 10.2498 1.68C10.2335 1.92 10.3071 2.16 10.4378 2.384C10.8548 3.064 11.7786 3.32 12.4981 2.936C13.3075 2.472 14.3295 2.752 14.7955 3.544L15.3432 4.488C15.8174 5.28 15.5558 6.296 14.7383 6.752C14.0433 7.16 13.7981 8.064 14.215 8.752C14.3458 8.968 14.493 9.152 14.7219 9.264ZM3.8286 16C4.45978 16 4.97145 15.4883 4.97145 14.8571C4.97145 14.226 4.45978 13.7143 3.8286 13.7143C3.19741 13.7143 2.68574 14.226 2.68574 14.8571C2.68574 15.4883 3.19741 16 3.8286 16Z" fill="url(#paint0_linear_73_4927)"/>
<path d="M9.04997 9.51284C9.04997 9.65878 9.0062 9.80529 8.9187 9.92264C8.9023 9.94562 8.82573 10.0405 8.76555 10.1022L8.73275 10.1359C8.27341 10.6473 7.13042 11.4164 6.55072 11.6628C6.55072 11.6684 6.20619 11.815 6.04212 11.82H6.02029C5.7687 11.82 5.53354 11.6746 5.41323 11.4389C5.34761 11.3092 5.28745 10.9331 5.28198 10.928C5.23276 10.5906 5.19995 10.0742 5.19995 9.50718C5.19995 8.9127 5.23276 8.37326 5.29292 8.04205C5.29292 8.03644 5.35308 7.7333 5.39136 7.63226C5.45152 7.48687 5.56089 7.36281 5.69761 7.28422C5.80696 7.22864 5.92183 7.20001 6.04212 7.20001C6.1679 7.20619 6.40306 7.28983 6.49603 7.32912C7.10853 7.57613 8.27883 8.38446 8.72732 8.87846C8.80384 8.95706 8.8859 9.05304 8.90779 9.07498C9.00071 9.19845 9.04997 9.35004 9.04997 9.51284Z" fill="#8C4FD9"/>
<path d="M10.25 8.11282C10.25 8.25875 10.2063 8.40526 10.1188 8.52261C10.1024 8.5456 10.0258 8.64048 9.96562 8.70221L9.93282 8.73588C9.47348 9.24732 8.33049 10.0164 7.7508 10.2628C7.7508 10.2684 7.40626 10.415 7.24219 10.42H7.22036C6.96878 10.42 6.73362 10.2746 6.61331 10.0388C6.54768 9.90913 6.48753 9.53306 6.48206 9.52798C6.43284 9.19061 6.40002 8.67415 6.40002 8.10716C6.40002 7.51268 6.43284 6.97324 6.49299 6.64203C6.49299 6.63642 6.55315 6.33328 6.59143 6.23223C6.65159 6.08684 6.76096 5.96279 6.89768 5.88419C7.00703 5.82861 7.1219 5.79999 7.24219 5.79999C7.36797 5.80616 7.60313 5.88981 7.69611 5.9291C8.3086 6.1761 9.47891 6.98444 9.92739 7.47843C10.0039 7.55703 10.086 7.65301 10.1079 7.67496C10.2008 7.79843 10.25 7.95002 10.25 8.11282Z" fill="url(#paint1_linear_73_4927)"/>
<defs>
<linearGradient id="paint0_linear_73_4927" x1="4.20002" y1="14.8571" x2="14.8579" y2="3.04469" gradientUnits="userSpaceOnUse">
<stop stop-color="#A056FF"/>
<stop offset="1" stop-color="#C59AFD"/>
</linearGradient>
<linearGradient id="paint1_linear_73_4927" x1="7.36253" y1="10.42" x2="11.2346" y2="9.3444" gradientUnits="userSpaceOnUse">
<stop stop-color="#C59AFD"/>
<stop offset="1" stop-color="white"/>
</linearGradient>
</defs>
</svg>
