<svg width="16" height="16" viewBox="0 0 16 16" fill="none" xmlns="http://www.w3.org/2000/svg">
<path fill-rule="evenodd" clip-rule="evenodd" d="M9.69323 0H13.7419C14.3408 0 14.9151 0.237899 15.3386 0.661365C15.7621 1.08483 15.9999 1.65917 15.9999 2.25804V6.30672C15.9999 6.60613 15.8809 6.89323 15.6692 7.10491L12.6177 10.1564C12.1926 10.5815 11.4816 10.507 10.9232 10.2843C10.6789 10.1869 10.4124 10.1333 10.1333 10.1333C8.95513 10.1333 8 11.0885 8 12.2667C8 12.5457 8.05357 12.8122 8.15099 13.0565C8.37368 13.6149 8.44819 14.3259 8.02307 14.7511L7.43525 15.3389C7.01173 15.7621 6.43749 16 5.83877 16C5.24 16 4.66578 15.7621 4.24236 15.3389L0.661125 11.7577C0.237803 11.3341 0 10.7599 0 10.1612C0 9.5624 0.237803 8.98816 0.661125 8.56475L8.89499 0.3308C9.10672 0.119056 9.39387 6.93333e-05 9.69323 0ZM10.1333 13.3333C10.7224 13.3333 11.2 12.8558 11.2 12.2667C11.2 11.6776 10.7224 11.2 10.1333 11.2C9.54423 11.2 9.06667 11.6776 9.06667 12.2667C9.06667 12.8558 9.54423 13.3333 10.1333 13.3333Z" fill="url(#paint0_linear_73_4989)"/>
<path fill-rule="evenodd" clip-rule="evenodd" d="M10.2 4.36658H8.86662C8.49862 4.36658 8.19995 4.66524 8.19995 5.03324C8.19995 5.40124 8.49862 5.69991 8.86662 5.69991H10.2V7.03324C10.2 7.40124 10.4986 7.69991 10.8666 7.69991C11.2346 7.69991 11.5333 7.40124 11.5333 7.03324V5.69991H12.8666C13.2346 5.69991 13.5333 5.40124 13.5333 5.03324C13.5333 4.66524 13.2346 4.36658 12.8666 4.36658H11.5333V3.03324C11.5333 2.66524 11.2346 2.36658 10.8666 2.36658C10.4986 2.36658 10.2 2.66524 10.2 3.03324V4.36658Z" fill="#64C89E"/>
<path fill-rule="evenodd" clip-rule="evenodd" d="M10.8666 3.69995H9.53324C9.16524 3.69995 8.86658 3.99862 8.86658 4.36662C8.86658 4.73462 9.16524 5.03328 9.53324 5.03328H10.8666V6.36662C10.8666 6.73462 11.1652 7.03328 11.5332 7.03328C11.9012 7.03328 12.1999 6.73462 12.1999 6.36662V5.03328H13.5332C13.9012 5.03328 14.1999 4.73462 14.1999 4.36662C14.1999 3.99862 13.9012 3.69995 13.5332 3.69995H12.1999V2.36662C12.1999 1.99862 11.9012 1.69995 11.5332 1.69995C11.1652 1.69995 10.8666 1.99862 10.8666 2.36662V3.69995Z" fill="url(#paint1_linear_73_4989)"/>
<defs>
<linearGradient id="paint0_linear_73_4989" x1="1.99999" y1="14.0004" x2="16.9719" y2="10.5455" gradientUnits="userSpaceOnUse">
<stop stop-color="#62E8AF"/>
<stop offset="1" stop-color="#B3FBDC"/>
</linearGradient>
<linearGradient id="paint1_linear_73_4989" x1="10.1999" y1="5.69995" x2="12.8666" y2="3.03328" gradientUnits="userSpaceOnUse">
<stop stop-color="#B9FCE0"/>
<stop offset="1" stop-color="white"/>
</linearGradient>
</defs>
</svg>
