<svg width="16" height="16" viewBox="0 0 16 16" fill="none" xmlns="http://www.w3.org/2000/svg">
<path fill-rule="evenodd" clip-rule="evenodd" d="M4.46445 11.5355C3.05024 10.1213 1.75836 11.1827 1.69472 11.2039C1.17216 11.3814 0.60365 11.1014 0.426166 10.5788C-0.522063 7.78504 0.117161 4.56912 2.34313 2.34315C5.46501 -0.778731 10.535 -0.778731 13.6568 2.34315C16.7787 5.46502 16.7787 10.535 13.6568 13.6569C11.4309 15.8828 8.21495 16.5221 5.42117 15.5738C4.89862 15.3963 4.6186 14.8278 4.79609 14.3053C4.8173 14.2416 5.87867 12.9497 4.46445 11.5355ZM3.75735 13.6569C3.36702 14.0472 2.73346 14.0472 2.34313 13.6569C1.95281 13.2665 1.95281 12.633 2.34313 12.2426C2.73346 11.8523 3.36702 11.8523 3.75735 12.2426C4.14767 12.633 4.14767 13.2665 3.75735 13.6569Z" fill="url(#paint0_linear_252_358)"/>
<path d="M7.38434 5.19763C7.37844 5.3302 7.47749 5.44308 7.60819 5.46605C8.09496 5.5517 8.50491 5.74773 8.83799 6.05413C9.17301 6.35493 9.36241 6.77373 9.40614 7.3105C9.41736 7.44813 9.30406 7.5603 9.16599 7.5603H7.87721C7.74179 7.5603 7.63819 7.4496 7.59694 7.32063C7.56111 7.20863 7.49959 7.124 7.41234 7.0667C7.27749 6.96543 7.12336 6.9148 6.94996 6.9148C6.48759 6.9148 6.25639 7.05825 6.25639 7.34515C6.25639 7.50548 6.33666 7.61938 6.49721 7.68688C6.65776 7.75438 6.92106 7.8261 7.28709 7.90205C7.73666 7.98643 8.11234 8.08768 8.41416 8.20583C8.71599 8.3155 8.97934 8.51803 9.20409 8.81335C9.42884 9.10025 9.54124 9.50528 9.54124 10.0285C9.54124 10.7963 9.34216 11.3659 8.94399 11.7371C8.60071 12.0624 8.15631 12.2679 7.61089 12.3535C7.47886 12.3743 7.37851 12.4877 7.38444 12.6213L7.43931 13.8555C7.44564 13.9978 7.33199 14.1166 7.18956 14.1166H6.62219C6.48034 14.1166 6.36689 13.9987 6.37236 13.857L6.42104 12.5966C6.42599 12.468 6.33229 12.3578 6.20624 12.332C5.68879 12.2261 5.25276 12.0067 4.89814 11.6739C4.54419 11.3343 4.34506 10.8817 4.30076 10.3161C4.28996 10.1785 4.40316 10.0664 4.54124 10.0664H6.02269C6.05066 10.0664 6.07336 10.0891 6.07336 10.117C6.07979 10.404 6.16969 10.6065 6.34309 10.7245C6.52289 10.8343 6.71234 10.8891 6.91144 10.8891C7.44449 10.8891 7.71099 10.7245 7.71099 10.3955C7.71099 10.2267 7.62749 10.1044 7.46049 10.0285C7.29359 9.95245 7.02061 9.87228 6.64171 9.78795C6.18574 9.6867 5.81006 9.57703 5.51464 9.45885C5.22564 9.3407 4.97199 9.14243 4.75364 8.86398C4.53529 8.57708 4.42611 8.1805 4.42611 7.67423C4.42611 6.96543 4.60591 6.43385 4.96556 6.07945C5.28434 5.77083 5.69564 5.571 6.19949 5.47993C6.32851 5.45663 6.42586 5.3451 6.42079 5.21408L6.37236 3.9596C6.36689 3.81785 6.48034 3.69995 6.62219 3.69995H7.18956C7.33199 3.69995 7.44564 3.81875 7.43931 3.96105L7.38434 5.19763Z" fill="#7FD1AE"/>
<path d="M8.5097 4.33105C8.5038 4.46362 8.60285 4.5765 8.73355 4.59947C9.22033 4.68512 9.63028 4.88115 9.96335 5.18755C10.2984 5.48835 10.4878 5.90715 10.5315 6.44392C10.5427 6.58155 10.4294 6.69372 10.2914 6.69372H9.00258C8.86715 6.69372 8.76355 6.58302 8.7223 6.45405C8.68648 6.34205 8.62495 6.25742 8.5377 6.20012C8.40285 6.09885 8.24873 6.04822 8.07533 6.04822C7.61295 6.04822 7.38175 6.19167 7.38175 6.47857C7.38175 6.6389 7.46203 6.7528 7.62258 6.8203C7.78313 6.8878 8.04643 6.95952 8.41245 7.03547C8.86203 7.11985 9.2377 7.2211 9.53953 7.33925C9.84135 7.44892 10.1047 7.65145 10.3295 7.94677C10.5542 8.23367 10.6666 8.6387 10.6666 9.16187C10.6666 9.9297 10.4675 10.4993 10.0694 10.8705C9.72608 11.1958 9.28168 11.4013 8.73625 11.4869C8.60423 11.5077 8.50388 11.6211 8.5098 11.7547L8.56468 12.9889C8.571 13.1312 8.45735 13.25 8.31493 13.25H7.74755C7.6057 13.25 7.49225 13.1321 7.49773 12.9904L7.5464 11.73C7.55135 11.6014 7.45765 11.4912 7.3316 11.4654C6.81415 11.3595 6.37813 11.1401 6.0235 10.8073C5.66955 10.4677 5.47043 10.0151 5.42613 9.44955C5.41533 9.3119 5.52853 9.19977 5.6666 9.19977H7.14805C7.17603 9.19977 7.19873 9.22247 7.19873 9.25045C7.20515 9.53737 7.29505 9.73987 7.46845 9.85795C7.64825 9.9677 7.8377 10.0225 8.0368 10.0225C8.56985 10.0225 8.83635 9.85795 8.83635 9.52887C8.83635 9.36012 8.75285 9.23777 8.58585 9.16187C8.41895 9.08587 8.14598 9.0057 7.76708 8.92137C7.3111 8.82012 6.93543 8.71045 6.64 8.59227C6.351 8.47412 6.09735 8.27585 5.879 7.9974C5.66065 7.7105 5.55148 7.31392 5.55148 6.80765C5.55148 6.09885 5.73128 5.56727 6.09093 5.21287C6.4097 4.90425 6.821 4.70442 7.32485 4.61335C7.45388 4.59005 7.55123 4.47852 7.54615 4.3475L7.49773 3.09302C7.49225 2.95127 7.6057 2.83337 7.74755 2.83337H8.31493C8.45735 2.83337 8.571 2.95217 8.56468 3.09447L8.5097 4.33105Z" fill="url(#paint1_linear_252_358)"/>
<defs>
<linearGradient id="paint0_linear_252_358" x1="8.0003" y1="16.4856" x2="16.144" y2="3.45579" gradientUnits="userSpaceOnUse">
<stop stop-color="#62E8AF"/>
<stop offset="1" stop-color="#B3FBDC"/>
</linearGradient>
<linearGradient id="paint1_linear_252_358" x1="5.42541" y1="13.25" x2="10.6141" y2="2.80726" gradientUnits="userSpaceOnUse">
<stop stop-color="#B3FBDC"/>
<stop offset="1" stop-color="white"/>
</linearGradient>
</defs>
</svg>
