<svg width="16" height="16" viewBox="0 0 16 16" fill="none" xmlns="http://www.w3.org/2000/svg">
<g clip-path="url(#clip0_16_1809)">
<path fill-rule="evenodd" clip-rule="evenodd" d="M1 13C0.448 13 0 12.552 0 12V3.992C0 1.787 1.787 0 3.992 0C6.357 0 9.643 0 12.008 0C13.067 0 14.082 0.421001 14.831 1.169C15.579 1.918 16 2.933 16 3.992C16 6.357 16 9.643 16 12.008C16 14.213 14.213 16 12.008 16C8.751 16 4 16 4 16C3.448 16 3 15.552 3 15C3 13.896 2.104 13 1 13ZM1 14C1.552 14 2 14.448 2 15C2 15.552 1.552 16 1 16C0.448 16 0 15.552 0 15C0 14.448 0.448 14 1 14Z" fill="url(#paint0_linear_16_1809)"/>
<path d="M6.33411 2.02121C6.33411 1.46864 5.88594 1.01985 5.33344 1.01144C5.01063 1.00652 4.70449 1.00124 4.41394 1.00019C3.88408 0.99827 3.47053 1.43442 3.47053 1.96429V3.42049C3.47053 3.97278 3.91824 4.42049 4.47052 4.42049H5.33411C5.8864 4.42049 6.33411 3.97278 6.33411 3.42049V2.02121ZM2.24328 2.24287C2.24328 1.62918 1.64995 1.16122 1.23309 1.61161C0.979018 1.88611 0.790109 2.21675 0.5 2.5C0.234579 2.75915 0.13592 2.98414 0.0888266 3.25313C-0.0173808 3.85976 0.523192 4.42049 1.13905 4.42049H1.24328C1.79557 4.42049 2.24328 3.97278 2.24328 3.42049V2.24287ZM13.7325 4.42049C14.3487 4.42049 14.8407 3.85878 14.6246 3.28175C14.4648 2.85518 14.2457 2.49886 13.9316 2.19169C13.6073 1.87463 13.2295 1.61243 12.7744 1.41761C12.2102 1.1761 11.6522 1.65897 11.6522 2.27267V3.42049C11.6522 3.97278 12.0999 4.42049 12.6522 4.42049H13.7325ZM7.56136 2.02121C7.56136 1.46864 8.00963 1.02084 8.56219 1.02083C8.86054 1.02083 9.14237 1.02075 9.42498 1.02066C9.97724 1.0205 10.4249 1.46817 10.4249 2.02043V3.42049C10.4249 3.97278 9.97721 4.42049 9.42492 4.42049H8.56136C8.00907 4.42049 7.56136 3.97278 7.56136 3.42049V2.02121ZM14.6135 14.7417C14.9065 14.1996 14.3885 13.6205 13.7723 13.6205H12.6522C12.0999 13.6205 11.6522 14.0682 11.6522 14.6205V15C11.6522 15.5523 12.1033 16.0326 12.6503 15.9562C13.0088 15.9061 13.3747 15.7988 13.8589 15.5688C13.9526 15.5243 14.0383 15.4634 14.111 15.3894C14.327 15.1696 14.4881 14.9737 14.6135 14.7417ZM9.42492 13.6205C9.97721 13.6205 10.4249 14.0682 10.4249 14.6205V15.0562C10.4249 15.5861 10.0114 16.0222 9.48151 16.0201C9.19118 16.019 8.88529 16.0136 8.56276 16.0087C8.00998 16.0003 7.56136 15.5515 7.56136 14.9986V14.6205C7.56136 14.0682 8.00907 13.6205 8.56136 13.6205H9.42492ZM5.33268 16.0088C5.88546 16.0003 6.33411 15.5514 6.33411 14.9986V14.6205C6.33411 14.0682 5.8864 13.6205 5.33411 13.6205H4.48298C3.92586 13.6205 3.47616 14.0758 3.48306 14.6329L3.48844 15.0678C3.49494 15.5929 3.90667 16.0221 4.43176 16.0201C4.71645 16.019 5.01577 16.0137 5.33268 16.0088Z" fill="#D84F4F"/>
<path d="M13.7045 12.6001H14.8246C15.4408 12.6001 15.9305 13.1624 15.7019 13.7347C15.5309 14.1627 15.2989 14.5201 14.9839 14.8281C14.6617 15.1431 14.2866 15.3736 13.8354 15.542C13.2607 15.7566 12.7045 15.2688 12.7045 14.6554V13.6001C12.7045 13.0478 13.1522 12.6001 13.7045 12.6001Z" fill="url(#paint1_linear_16_1809)"/>
<path d="M11.4772 15.001V13.6001C11.4772 13.0478 11.0295 12.6001 10.4772 12.6001H9.61366C9.06137 12.6001 8.61366 13.0478 8.61366 13.6001V14.9987C8.61366 15.5515 9.06227 16.0005 9.6151 15.9959C9.93777 15.9932 10.2438 15.9889 10.5342 15.9818C11.0639 15.9689 11.4772 15.5309 11.4772 15.001Z" fill="url(#paint2_linear_16_1809)"/>
<path d="M7.38642 13.6001V14.9987C7.38642 15.5515 6.9378 16.0005 6.38498 15.9959C6.0623 15.9932 5.75628 15.9889 5.46584 15.9818C4.93613 15.9689 4.52283 15.5309 4.52283 15.001V13.6001C4.52283 13.0478 4.97054 12.6001 5.52283 12.6001H6.38642C6.9387 12.6001 7.38642 13.0478 7.38642 13.6001Z" fill="url(#paint3_linear_16_1809)"/>
<path d="M5.46619 -0.0202574C5.75675 -0.0192059 6.06288 -0.0139203 6.38569 -0.00900479C6.93819 -0.000591767 7.38637 0.448196 7.38637 1.00076V2.40005C7.38637 2.95233 6.93865 3.40005 6.38637 3.40005H5.52278C4.9705 3.40005 4.52278 2.95233 4.52278 2.40005V0.943844C4.52278 0.413978 4.93633 -0.0221748 5.46619 -0.0202574Z" fill="url(#paint4_linear_16_1809)"/>
<path d="M1.01696 1.17124C1.34193 0.853953 1.72042 0.581173 2.17663 0.377655C2.73708 0.12763 3.29554 0.608731 3.29554 1.22243V2.40005C3.29554 2.95233 2.84782 3.40005 2.29554 3.40005H1.22657C0.610709 3.40005 0.118014 2.83904 0.330287 2.26092C0.48685 1.83452 0.70245 1.47832 1.01696 1.17124Z" fill="url(#paint5_linear_16_1809)"/>
<path d="M14.9838 1.17124C15.298 1.47841 15.517 1.83474 15.6768 2.26131C15.893 2.83833 15.4009 3.40005 14.7847 3.40005H13.7044C13.1521 3.40005 12.7044 2.95233 12.7044 2.40005V1.25222C12.7044 0.638525 13.2625 0.155655 13.8267 0.397169C14.2817 0.591986 14.6596 0.854188 14.9838 1.17124Z" fill="url(#paint6_linear_16_1809)"/>
<path d="M10.4772 0.000217468L9.61445 0.000387557C9.06188 0.000392167 8.61361 0.448196 8.61361 1.00076V2.40005C8.61361 2.95233 9.06133 3.40005 9.61361 3.40005H10.4772C11.0295 3.40005 11.4772 2.95233 11.4772 2.40005V0.999984C11.4772 0.447723 11.0295 5.28805e-05 10.4772 0.000217468Z" fill="url(#paint7_linear_16_1809)"/>
<path fill-rule="evenodd" clip-rule="evenodd" d="M3.19995 7V11C3.19995 11.552 3.64795 12 4.19995 12C4.75195 12 5.19995 11.552 5.19995 11V7C5.19995 6.448 4.75195 6 4.19995 6C3.64795 6 3.19995 6.448 3.19995 7Z" fill="#D84F4F"/>
<g filter="url(#filter0_d_16_1809)">
<path fill-rule="evenodd" clip-rule="evenodd" d="M9.19995 7V11C9.19995 11.552 9.64795 12 10.2 12C10.752 12 11.2 11.552 11.2 11V7C11.2 6.448 10.752 6 10.2 6C9.64795 6 9.19995 6.448 9.19995 7Z" fill="#D84F4F"/>
</g>
<path fill-rule="evenodd" clip-rule="evenodd" d="M4.18225 5.5V10.5C4.18225 11.052 4.63025 11.5 5.18225 11.5C5.73425 11.5 6.18225 11.052 6.18225 10.5V5.5C6.18225 4.948 5.73425 4.5 5.18225 4.5C4.63025 4.5 4.18225 4.948 4.18225 5.5Z" fill="url(#paint8_linear_16_1809)"/>
<path fill-rule="evenodd" clip-rule="evenodd" d="M10.2 5.5V10.5C10.2 11.052 10.648 11.5 11.2 11.5C11.752 11.5 12.2 11.052 12.2 10.5V5.5C12.2 4.948 11.752 4.5 11.2 4.5C10.648 4.5 10.2 4.948 10.2 5.5Z" fill="url(#paint9_linear_16_1809)"/>
</g>
<defs>
<filter id="filter0_d_16_1809" x="5.19995" y="6" width="10" height="14" filterUnits="userSpaceOnUse" color-interpolation-filters="sRGB">
<feFlood flood-opacity="0" result="BackgroundImageFix"/>
<feColorMatrix in="SourceAlpha" type="matrix" values="0 0 0 0 0 0 0 0 0 0 0 0 0 0 0 0 0 0 127 0" result="hardAlpha"/>
<feOffset dy="4"/>
<feGaussianBlur stdDeviation="2"/>
<feComposite in2="hardAlpha" operator="out"/>
<feColorMatrix type="matrix" values="0 0 0 0 0 0 0 0 0 0 0 0 0 0 0 0 0 0 0.25 0"/>
<feBlend mode="normal" in2="BackgroundImageFix" result="effect1_dropShadow_16_1809"/>
<feBlend mode="normal" in="SourceGraphic" in2="effect1_dropShadow_16_1809" result="shape"/>
</filter>
<linearGradient id="paint0_linear_16_1809" x1="3" y1="14" x2="13" y2="2" gradientUnits="userSpaceOnUse">
<stop stop-color="#FF405B"/>
<stop offset="1" stop-color="#FF8860"/>
</linearGradient>
<linearGradient id="paint1_linear_16_1809" x1="7.80074" y1="16" x2="8.18159" y2="12.9392" gradientUnits="userSpaceOnUse">
<stop stop-color="#FF8860"/>
<stop offset="1" stop-color="white"/>
</linearGradient>
<linearGradient id="paint2_linear_16_1809" x1="7.80074" y1="16" x2="8.18159" y2="12.9392" gradientUnits="userSpaceOnUse">
<stop stop-color="#FF8860"/>
<stop offset="1" stop-color="white"/>
</linearGradient>
<linearGradient id="paint3_linear_16_1809" x1="7.80074" y1="16" x2="8.18159" y2="12.9392" gradientUnits="userSpaceOnUse">
<stop stop-color="#FF8860"/>
<stop offset="1" stop-color="white"/>
</linearGradient>
<linearGradient id="paint4_linear_16_1809" x1="4.69227" y1="3.39997" x2="4.98054" y2="0.299968" gradientUnits="userSpaceOnUse">
<stop stop-color="#FF8860"/>
<stop offset="1" stop-color="white"/>
</linearGradient>
<linearGradient id="paint5_linear_16_1809" x1="4.69227" y1="3.39997" x2="4.98054" y2="0.299968" gradientUnits="userSpaceOnUse">
<stop stop-color="#FF8860"/>
<stop offset="1" stop-color="white"/>
</linearGradient>
<linearGradient id="paint6_linear_16_1809" x1="4.69227" y1="3.39997" x2="4.98054" y2="0.299968" gradientUnits="userSpaceOnUse">
<stop stop-color="#FF8860"/>
<stop offset="1" stop-color="white"/>
</linearGradient>
<linearGradient id="paint7_linear_16_1809" x1="4.69227" y1="3.39997" x2="4.98054" y2="0.299968" gradientUnits="userSpaceOnUse">
<stop stop-color="#FF8860"/>
<stop offset="1" stop-color="white"/>
</linearGradient>
<linearGradient id="paint8_linear_16_1809" x1="4.75346" y1="11.4998" x2="7.72947" y2="9.47538" gradientUnits="userSpaceOnUse">
<stop stop-color="#FF8860"/>
<stop offset="1" stop-color="white"/>
</linearGradient>
<linearGradient id="paint9_linear_16_1809" x1="10.7712" y1="11.4998" x2="13.7472" y2="9.47538" gradientUnits="userSpaceOnUse">
<stop stop-color="#FF8860"/>
<stop offset="1" stop-color="white"/>
</linearGradient>
<clipPath id="clip0_16_1809">
<rect width="16" height="16" fill="white"/>
</clipPath>
</defs>
</svg>
