<svg width="16" height="16" viewBox="0 0 16 16" fill="none" xmlns="http://www.w3.org/2000/svg">
<g clip-path="url(#clip0_114_673)">
<path d="M7.42105 0.17502C7.3938 0.201972 7.27874 0.302702 7.1832 0.397347C6.58475 0.949298 5.60616 2.39056 5.3067 3.14451C5.25891 3.25897 5.15719 3.54845 5.15002 3.70359C5.15002 3.85163 5.18444 3.99307 5.25222 4.12789C5.34726 4.29629 5.49728 4.43059 5.67397 4.50485C5.79623 4.55216 6.16354 4.62645 6.17019 4.62645C6.57141 4.7002 7.22379 4.7404 7.945 4.7404C8.63129 4.7404 9.25696 4.7002 9.66483 4.63967C9.67203 4.63307 10.1277 4.55879 10.2838 4.4779C10.5695 4.32986 10.7462 4.04038 10.7462 3.73057V3.70359C10.7395 3.50162 10.5623 3.07735 10.5561 3.07735C10.2566 2.3636 9.32528 0.956433 8.7063 0.390722C8.7063 0.390722 8.54705 0.230991 8.44791 0.161799C8.30511 0.0539328 8.12839 0 7.95169 0C7.75442 0 7.57104 0.0605588 7.42105 0.17502Z" fill="url(#paint0_linear_114_673)"/>
<path d="M7.42105 15.5654C7.3938 15.5384 7.27874 15.4377 7.1832 15.3431C6.58475 14.7911 5.60616 13.3498 5.3067 12.5959C5.25891 12.4814 5.15719 12.192 5.15002 12.0368C5.15002 11.8888 5.18444 11.7473 5.25222 11.6125C5.34726 11.4441 5.49728 11.3098 5.67397 11.2355C5.79623 11.1882 6.16354 11.114 6.17019 11.114C6.57141 11.0402 7.22379 11 7.945 11C8.63129 11 9.25696 11.0402 9.66483 11.1007C9.67203 11.1073 10.1277 11.1816 10.2838 11.2625C10.5695 11.4105 10.7462 11.7 10.7462 12.0098V12.0368C10.7395 12.2388 10.5623 12.663 10.5561 12.663C10.2566 13.3768 9.32528 14.784 8.7063 15.3497C8.7063 15.3497 8.54705 15.5094 8.44791 15.5786C8.30511 15.6865 8.12839 15.7404 7.95169 15.7404C7.75442 15.7404 7.57104 15.6798 7.42105 15.5654Z" fill="url(#paint1_linear_114_673)"/>
<path d="M0.17502 8.32505C0.201972 8.3523 0.302702 8.46736 0.397347 8.56291C0.949298 9.16135 2.39056 10.1399 3.14451 10.4394C3.25897 10.4872 3.54845 10.5889 3.70359 10.5961C3.85163 10.5961 3.99307 10.5617 4.12789 10.4939C4.29629 10.3988 4.43059 10.2488 4.50485 10.0721C4.55216 9.94987 4.62645 9.58256 4.62645 9.57591C4.7002 9.1747 4.7404 8.52231 4.7404 7.8011C4.7404 7.11481 4.7002 6.48914 4.63967 6.08127C4.63307 6.07408 4.55879 5.61842 4.4779 5.46226C4.32986 5.17665 4.04038 4.99994 3.73057 4.99994H3.70359C3.50162 5.00662 3.07735 5.18384 3.07735 5.19001C2.3636 5.48949 0.956433 6.42082 0.390722 7.0398C0.390722 7.0398 0.230991 7.19905 0.161799 7.29819C0.0539328 7.44099 0 7.61772 0 7.79441C0 7.99168 0.0605588 8.17506 0.17502 8.32505Z" fill="url(#paint2_linear_114_673)"/>
<path d="M15.5654 7.27097C15.5384 7.24372 15.4377 7.12866 15.3431 7.03311C14.7911 6.43466 13.3498 5.45608 12.5959 5.15661C12.4814 5.10882 12.192 5.0071 12.0368 4.99994C11.8888 4.99994 11.7473 5.03436 11.6125 5.10214C11.4441 5.19717 11.3098 5.34719 11.2355 5.52389C11.1882 5.64614 11.114 6.01345 11.114 6.02011C11.0402 6.42132 11 7.0737 11 7.79492C11 8.48121 11.0402 9.10688 11.1007 9.51474C11.1073 9.52194 11.1816 9.97759 11.2625 10.1338C11.4105 10.4194 11.7 10.5961 12.0098 10.5961H12.0368C12.2388 10.5894 12.663 10.4122 12.663 10.406C13.3768 10.1065 14.784 9.1752 15.3497 8.55621C15.3497 8.55621 15.5094 8.39696 15.5786 8.29782C15.6865 8.15503 15.7404 7.9783 15.7404 7.8016C15.7404 7.60434 15.6798 7.42095 15.5654 7.27097Z" fill="url(#paint3_linear_114_673)"/>
</g>
<defs>
<linearGradient id="paint0_linear_114_673" x1="6.1993" y1="4.44378" x2="9.03725" y2="0.423154" gradientUnits="userSpaceOnUse">
<stop stop-color="#FF8860"/>
<stop offset="1" stop-color="#FBD92C"/>
</linearGradient>
<linearGradient id="paint1_linear_114_673" x1="6.1993" y1="15.4438" x2="9.03725" y2="11.4232" gradientUnits="userSpaceOnUse">
<stop stop-color="#FF8860"/>
<stop offset="1" stop-color="#FBD92C"/>
</linearGradient>
<linearGradient id="paint2_linear_114_673" x1="0.888825" y1="10.2459" x2="4.44395" y2="6.63184" gradientUnits="userSpaceOnUse">
<stop stop-color="#FF8860"/>
<stop offset="1" stop-color="#FBD92C"/>
</linearGradient>
<linearGradient id="paint3_linear_114_673" x1="11.8888" y1="10.2459" x2="15.4439" y2="6.63184" gradientUnits="userSpaceOnUse">
<stop stop-color="#FF8860"/>
<stop offset="1" stop-color="#FBD92C"/>
</linearGradient>
<clipPath id="clip0_114_673">
<rect width="16" height="16" fill="white"/>
</clipPath>
</defs>
</svg>
