<svg width="16" height="16" viewBox="0 0 16 16" fill="none" xmlns="http://www.w3.org/2000/svg">
<path fill-rule="evenodd" clip-rule="evenodd" d="M16 15C16 14.448 15.552 14 15 14C14.448 14 14 14.448 14 15C14 15.552 14.448 16 15 16C15.552 16 16 15.552 16 15ZM13 15C13 13.896 13.896 13 15 13C15.552 13 16 12.552 16 12C16 12 16 7.216 16 3.958C16 1.772 14.228 0 12.0419 0H3.958C1.772 0 0 1.772 0 3.958V12.0419C0 14.228 1.772 16 3.958 16C7.216 16 12 16 12 16C12.552 16 13 15.552 13 15Z" fill="url(#paint0_linear_73_5148)"/>
<path d="M9.13602 4.99999H4.40875C3.75638 4.99999 3.22693 4.47053 3.22693 3.81817C3.22693 3.16581 3.75638 2.63635 4.40875 2.63635H9.13602C9.78838 2.63635 10.3178 3.16581 10.3178 3.81817C10.3178 4.47053 9.78838 4.99999 9.13602 4.99999Z" fill="#279FD7"/>
<path fill-rule="evenodd" clip-rule="evenodd" d="M5.59063 3.81823H10.3179C10.9703 3.81823 11.4997 3.28877 11.4997 2.63641C11.4997 1.98404 10.9703 1.45459 10.3179 1.45459H5.59063C4.93827 1.45459 4.40881 1.98404 4.40881 2.63641C4.40881 3.28877 4.93827 3.81823 5.59063 3.81823Z" fill="url(#paint1_linear_73_5148)"/>
<path fill-rule="evenodd" clip-rule="evenodd" d="M7.95445 11.2515C7.95445 11.0708 8.17293 10.9803 8.30071 11.1081C8.76162 11.569 9.5109 11.569 9.97181 11.1081C10.4327 10.6472 10.4327 9.89792 9.97181 9.43701L7.60817 7.07337C7.14726 6.61129 6.39799 6.61129 5.93708 7.07337L3.57341 9.43701C3.11257 9.89792 3.11257 10.6472 3.57341 11.1081C4.03439 11.569 4.78362 11.569 5.24453 11.1081C5.37232 10.9803 5.59081 11.0708 5.59081 11.2515V13.818C5.59081 14.4704 6.12027 14.9998 6.77263 14.9998C7.42499 14.9998 7.95445 14.4704 7.95445 13.818V11.2515Z" fill="#279FD7"/>
<path fill-rule="evenodd" clip-rule="evenodd" d="M9.13634 10.0698C9.13634 9.88912 9.35483 9.79861 9.48262 9.9264C9.94353 10.3873 10.6928 10.3873 11.1537 9.9264C11.6146 9.46549 11.6146 8.71623 11.1537 8.25532L8.79006 5.89171C8.32915 5.42965 7.57989 5.42965 7.11899 5.89171L4.75535 8.25532C4.29444 8.71623 4.29444 9.46549 4.75535 9.9264C5.21626 10.3873 5.96552 10.3873 6.42643 9.9264C6.55421 9.79861 6.77271 9.88912 6.77271 10.0698V12.6363C6.77271 13.2887 7.30216 13.8181 7.95452 13.8181C8.60689 13.8181 9.13634 13.2887 9.13634 12.6363V10.0698Z" fill="url(#paint2_linear_73_5148)"/>
<defs>
<linearGradient id="paint0_linear_73_5148" x1="1.6" y1="16.005" x2="7.3787" y2="-1.33327" gradientUnits="userSpaceOnUse">
<stop offset="0.190745" stop-color="#22B4FA"/>
<stop offset="0.896724" stop-color="#7DDCFF"/>
</linearGradient>
<linearGradient id="paint1_linear_73_5148" x1="4.40881" y1="3.81823" x2="10.0815" y2="-0.436319" gradientUnits="userSpaceOnUse">
<stop stop-color="#6BD6FE"/>
<stop offset="1" stop-color="white"/>
</linearGradient>
<linearGradient id="paint2_linear_73_5148" x1="4.40967" y1="13.8181" x2="12.8829" y2="12.0028" gradientUnits="userSpaceOnUse">
<stop stop-color="#6BD6FE"/>
<stop offset="1" stop-color="white"/>
</linearGradient>
</defs>
</svg>
