<svg width="16" height="16" viewBox="0 0 16 16" fill="none" xmlns="http://www.w3.org/2000/svg">
<g clip-path="url(#clip0_114_702)">
<path d="M12.8423 4.365L15.3551 2.26048C15.8732 1.74237 15.8691 0.898141 15.346 0.374966C14.8228 -0.148169 13.9786 -0.152258 13.4605 0.365854L11.356 2.87872C10.9495 3.28518 10.9527 3.94742 11.3631 4.35781C11.7742 4.76893 12.4358 4.77146 12.8423 4.365Z" fill="url(#paint0_linear_114_702)"/>
<path fill-rule="evenodd" clip-rule="evenodd" d="M13.4706 3.84043L12.8424 4.36649C12.436 4.77296 11.7744 4.77043 11.3633 4.35931C10.9529 3.94891 10.9497 3.28668 11.3562 2.88022L11.8761 2.25941C12.1465 2.49732 12.4436 2.77565 12.7454 3.07746C13.0088 3.34083 13.2546 3.5996 13.4706 3.84043Z" fill="#7FD1AE"/>
<path d="M8.90632 7.78664C8.95133 7.78689 9.13051 7.79879 9.28843 7.79953C10.2436 7.83814 12.2529 7.45397 13.1276 7.0766C13.2623 7.02124 13.5871 6.86533 13.7219 6.74246C13.8448 6.61954 13.9337 6.47352 13.9894 6.30529C14.0503 6.08656 14.0372 5.85048 13.9522 5.6421C13.8899 5.50131 13.6466 5.13464 13.6411 5.12911C13.3692 4.73473 12.8609 4.15966 12.262 3.56081C11.6922 2.99097 11.1393 2.50484 10.7504 2.21643C10.7389 2.21593 10.2989 1.89927 10.1021 1.83677C9.742 1.72253 9.35491 1.81617 9.09767 2.07341L9.07526 2.09582C8.91311 2.26906 8.70798 2.7685 8.7131 2.77362C8.36912 3.61494 7.97401 5.55667 8.01825 6.54036C8.01825 6.54036 8.01785 6.80522 8.04272 6.94499C8.07172 7.15312 8.17368 7.34464 8.3204 7.49136C8.48419 7.65516 8.68674 7.75714 8.90632 7.78664Z" fill="url(#paint1_linear_114_702)"/>
<path d="M2.87539 11.4527L0.362526 13.5572C-0.155587 14.0753 -0.151498 14.9195 0.371677 15.4427C0.894812 15.9659 1.73904 15.9699 2.25715 15.4518L4.36167 12.939C4.76813 12.5325 4.76492 11.8703 4.35453 11.4599C3.94341 11.0488 3.28186 11.0462 2.87539 11.4527Z" fill="url(#paint2_linear_114_702)"/>
<path fill-rule="evenodd" clip-rule="evenodd" d="M2.24707 11.9773L2.87521 11.4512C3.28167 11.0447 3.94322 11.0473 4.35434 11.4584C4.76474 11.8688 4.76795 12.531 4.36148 12.9375L3.84156 13.5583C3.57111 13.3204 3.27405 13.042 2.97224 12.7402C2.70887 12.4769 2.46301 12.2181 2.24707 11.9773Z" fill="#7FD1AE"/>
<path d="M6.81133 8.03105C6.76632 8.0308 6.58714 8.0189 6.42922 8.01815C5.47401 7.97954 3.46474 8.36372 2.59006 8.74109C2.45534 8.79645 2.13051 8.95236 1.99574 9.07523C1.87282 9.19815 1.78395 9.34417 1.72829 9.51239C1.66738 9.73113 1.68042 9.96721 1.76548 10.1756C1.82772 10.3164 2.07102 10.6831 2.07654 10.6886C2.34845 11.083 2.85676 11.658 3.45561 12.2569C4.02545 12.8267 4.57835 13.3129 4.96727 13.6013C4.97872 13.6018 5.41875 13.9184 5.61558 13.9809C5.97565 14.0952 6.36274 14.0015 6.61998 13.7443L6.64239 13.7219C6.80455 13.5486 7.00968 13.0492 7.00455 13.0441C7.34853 12.2028 7.74364 10.261 7.6994 9.27733C7.6994 9.27733 7.6998 9.01247 7.67494 8.8727C7.64594 8.66457 7.54397 8.47304 7.39726 8.32633C7.23346 8.16253 7.03091 8.06055 6.81133 8.03105Z" fill="url(#paint3_linear_114_702)"/>
</g>
<defs>
<linearGradient id="paint0_linear_114_702" x1="11.1504" y1="3.1496" x2="13.198" y2="4.79213" gradientUnits="userSpaceOnUse">
<stop stop-color="#62E8AF"/>
<stop offset="1" stop-color="#B3FBDC"/>
</linearGradient>
<linearGradient id="paint1_linear_114_702" x1="7.07279" y1="5.25995" x2="12.4974" y2="8.3618" gradientUnits="userSpaceOnUse">
<stop stop-color="#62E8AF"/>
<stop offset="1" stop-color="#B3FBDC"/>
</linearGradient>
<linearGradient id="paint2_linear_114_702" x1="4.56724" y1="12.6681" x2="2.51964" y2="11.0256" gradientUnits="userSpaceOnUse">
<stop stop-color="#62E8AF"/>
<stop offset="1" stop-color="#B3FBDC"/>
</linearGradient>
<linearGradient id="paint3_linear_114_702" x1="8.64486" y1="10.5577" x2="3.22023" y2="7.45589" gradientUnits="userSpaceOnUse">
<stop stop-color="#62E8AF"/>
<stop offset="1" stop-color="#B3FBDC"/>
</linearGradient>
<clipPath id="clip0_114_702">
<rect width="16" height="16" fill="white"/>
</clipPath>
</defs>
</svg>
