<svg width="16" height="16" viewBox="0 0 16 16" fill="none" xmlns="http://www.w3.org/2000/svg">
<g clip-path="url(#clip0_114_761)">
<path fill-rule="evenodd" clip-rule="evenodd" d="M1.49995 0.699707C1.05813 0.699707 0.699951 1.05789 0.699951 1.49971V6.33304C0.699951 6.77488 1.05813 7.13304 1.49995 7.13304H5.16662C5.27708 7.13304 5.36662 7.22259 5.36662 7.33304V12.1665C5.36662 12.6082 5.72477 12.9665 6.16662 12.9665H8.66662C8.7771 12.9665 8.86662 13.056 8.86662 13.1665V14.4998C8.86662 14.9415 9.22477 15.2998 9.66662 15.2998H14.4999C14.9417 15.2998 15.2999 14.9415 15.2999 14.4998V9.66638C15.2999 9.22453 14.9417 8.86638 14.4999 8.86638H9.66662C9.22479 8.86638 8.86662 9.22455 8.86662 9.66638V10.9998C8.86662 11.1102 8.77706 11.1998 8.66662 11.1998H7.33328C7.22284 11.1998 7.13328 11.1102 7.13328 10.9998V4.99971C7.13328 4.88926 7.22283 4.79971 7.33328 4.79971H8.66662C8.77708 4.79971 8.86662 4.88926 8.86662 4.99971V6.33304C8.86662 6.77488 9.22479 7.13304 9.66662 7.13304H14.4999C14.9417 7.13304 15.2999 6.7749 15.2999 6.33304V1.49971C15.2999 1.05787 14.9417 0.699707 14.4999 0.699707H9.66662C9.22478 0.699707 8.86662 1.05789 8.86662 1.49971V2.83304C8.86662 2.9435 8.77708 3.03304 8.66662 3.03304H7.33328C7.22282 3.03304 7.13328 2.9435 7.13328 2.83304V1.49971C7.13328 1.05789 6.77512 0.699707 6.33328 0.699707H1.49995Z" fill="url(#paint0_linear_114_761)"/>
<path fill-rule="evenodd" clip-rule="evenodd" d="M7.13328 10.5009C7.04851 10.6478 7 10.8182 7 11V12.9665H8.66662C8.7771 12.9665 8.86662 13.056 8.86662 13.1665V14.4998C8.86662 14.9415 9.22477 15.2998 9.66662 15.2998H13.5999V11C13.5999 10.4477 13.1522 10 12.5999 10H8.86662V10.9998C8.86662 11.1102 8.77706 11.1998 8.66662 11.1998H7.33328C7.22284 11.1998 7.13328 11.1102 7.13328 10.9998V10.5009Z" fill="#D49F34"/>
<path d="M14.4 8.7998H9.80005C9.24776 8.7998 8.80005 9.24752 8.80005 9.7998V14.3998C8.80005 14.9521 9.24776 15.3998 9.80005 15.3998H14.4C14.9523 15.3998 15.4 14.9521 15.4 14.3998V9.7998C15.4 9.24752 14.9523 8.7998 14.4 8.7998Z" fill="url(#paint1_linear_114_761)"/>
</g>
<defs>
<linearGradient id="paint0_linear_114_761" x1="3.43744" y1="14.3862" x2="12.5617" y2="3.4364" gradientUnits="userSpaceOnUse">
<stop stop-color="#FF8860"/>
<stop offset="1" stop-color="#FBD92C"/>
</linearGradient>
<linearGradient id="paint1_linear_114_761" x1="9" y1="15" x2="16" y2="9.00005" gradientUnits="userSpaceOnUse">
<stop stop-color="#FBD92C"/>
<stop offset="1" stop-color="white"/>
</linearGradient>
<clipPath id="clip0_114_761">
<rect width="16" height="16" fill="white"/>
</clipPath>
</defs>
</svg>
