<svg width="16" height="16" viewBox="0 0 16 16" fill="none" xmlns="http://www.w3.org/2000/svg">
<path d="M12.7952 2.40848C13.9977 3.45936 14.8583 4.72446 15.2037 6.32251L15.2084 6.34401C15.2139 6.3699 15.217 6.3963 15.2176 6.42278L15.218 6.44485C15.2272 6.92458 15.0486 7.34436 14.6953 7.61412C14.3626 7.86842 13.9549 7.92818 13.603 7.87971C12.9683 7.79241 12.2496 7.29275 12.1849 6.43278C12.1817 6.38898 12.1737 6.34527 12.1576 6.30436C11.3991 4.36807 9.08738 3.16042 7.16875 3.41303L7.16115 3.41402L7.15345 3.41489C6.46347 3.4887 5.86029 3.81439 5.2999 4.30091C5.12041 4.45675 5.13115 4.73361 5.31051 4.88961L6.1074 5.58264C6.36215 5.80419 6.25502 6.22143 5.92504 6.29285L1.02526 7.35322C0.757517 7.4112 0.509334 7.19536 0.529604 6.92216L0.899953 1.92266C0.924906 1.58596 1.32325 1.42198 1.578 1.64353L2.44791 2.40007C2.60998 2.54102 2.8526 2.53199 3.01272 2.38887C5.13921 0.487499 8.30938 -0.126431 11.0141 1.2254C11.6471 1.538 12.2528 1.92763 12.7952 2.40848Z" fill="url(#paint0_linear_36_829)"/>
<path d="M15.2855 9.07793L14.9153 14.0775C14.8904 14.4142 14.4919 14.5781 14.2373 14.3566L13.3673 13.6C13.2052 13.4591 12.9626 13.4681 12.8025 13.6113C10.6761 15.5126 7.50583 16.1266 4.80111 14.7748C4.24719 14.5012 3.71684 14.1689 3.23029 13.769L3.22465 13.7672L3.2188 13.7652L3.02191 13.5933C1.81798 12.5417 0.958033 11.2748 0.612576 9.67632L0.607898 9.65489C0.602309 9.62895 0.599285 9.60255 0.598753 9.57604L0.598367 9.554C0.589085 9.07444 0.767576 8.65463 1.12078 8.3849C1.45375 8.13064 1.86143 8.07117 2.21322 8.11977C2.84806 8.20771 3.56632 8.70823 3.63036 9.56843C3.63366 9.61181 3.64154 9.65525 3.65719 9.69594C4.41187 11.651 6.55182 12.8847 8.64001 12.588L8.65088 12.5865L8.66183 12.5853C9.35176 12.5114 9.95496 12.1857 10.5153 11.6992C10.6948 11.5434 10.6841 11.2665 10.5047 11.1105L9.70783 10.4175C9.45308 10.1959 9.56023 9.77872 9.89021 9.70729L14.79 8.64693C15.0576 8.58893 15.3059 8.80478 15.2855 9.07793Z" fill="url(#paint1_linear_36_829)"/>
<defs>
<linearGradient id="paint0_linear_36_829" x1="3.2828" y1="6.97047" x2="6.63705" y2="-1.02274" gradientUnits="userSpaceOnUse">
<stop stop-color="#FF405B"/>
<stop offset="1" stop-color="#FF8860"/>
</linearGradient>
<linearGradient id="paint1_linear_36_829" x1="3.35215" y1="14.5776" x2="6.70718" y2="6.584" gradientUnits="userSpaceOnUse">
<stop stop-color="#FF405B"/>
<stop offset="1" stop-color="#FF8860"/>
</linearGradient>
</defs>
</svg>
