<svg width="16" height="16" viewBox="0 0 16 16" fill="none" xmlns="http://www.w3.org/2000/svg">
<path d="M10.9032 7.59177L10.6144 4.32679C10.6144 3.59407 11.2143 3 11.9541 3C12.694 3 13.2938 3.59407 13.2938 4.32679L13.0051 7.59177C13.0051 8.1666 12.5345 8.6326 11.9541 8.6326C11.3727 8.6326 10.9032 8.1666 10.9032 7.59177Z" fill="url(#paint0_linear_114_790)"/>
<path fill-rule="evenodd" clip-rule="evenodd" d="M10.8138 6.59399L10.9021 7.59284C10.9021 8.16767 11.3717 8.63367 11.9531 8.63367C12.5335 8.63367 13.004 8.16767 13.004 7.59284L13.0829 6.70118C12.6038 6.6351 11.8974 6.59182 11.1257 6.59182C11.0203 6.59182 10.9162 6.59255 10.8138 6.59399Z" fill="#D84F4F"/>
<path d="M11.2668 12.7944C11.2348 12.7628 11.0997 12.6445 10.9875 12.5333C10.2847 11.8852 9.1356 10.1928 8.78395 9.30745C8.72784 9.17305 8.60839 8.83312 8.59998 8.65094C8.59998 8.4771 8.64039 8.31101 8.71999 8.1527C8.83158 7.95496 9.00774 7.79725 9.21523 7.71005C9.35879 7.6545 9.79011 7.56726 9.79792 7.56726C10.2691 7.48066 11.0351 7.43345 11.882 7.43345C12.6879 7.43345 13.4226 7.48066 13.9016 7.55174C13.91 7.55948 14.4451 7.64672 14.6284 7.7417C14.9638 7.91553 15.1713 8.25546 15.1713 8.61926V8.65094C15.1635 8.88811 14.9554 9.38631 14.9481 9.38631C14.5965 10.2244 13.5028 11.8768 12.776 12.5411C12.776 12.5411 12.589 12.7287 12.4726 12.8099C12.3049 12.9366 12.0974 12.9999 11.8899 12.9999C11.6582 12.9999 11.4429 12.9288 11.2668 12.7944Z" fill="url(#paint1_linear_114_790)"/>
<path d="M5.37717 10.5384V6.56681C5.37717 6.26266 5.31537 5.99877 5.19179 5.77536C5.07295 5.54724 4.89232 5.37137 4.6499 5.24778C4.40747 5.12419 4.10801 5.06239 3.7515 5.06239C3.41876 5.06239 3.12642 5.11943 2.87449 5.23351C2.62731 5.3476 2.43242 5.49732 2.28981 5.68273C2.23906 5.75098 2.19764 5.82116 2.16558 5.89328C2.07582 6.09514 1.90395 6.28165 1.68304 6.28165H1.16396C0.943048 6.28165 0.759665 6.10002 0.813382 5.88574C0.84898 5.74373 0.903809 5.60237 0.977868 5.46167C1.12047 5.19073 1.32487 4.94593 1.59106 4.72727C1.86201 4.50386 2.18524 4.32798 2.56076 4.19964C2.94103 4.06655 3.36409 4 3.82993 4C4.39084 4 4.88519 4.09506 5.313 4.2852C5.74557 4.47534 6.08305 4.76292 6.32548 5.14795C6.57265 5.52823 6.69624 6.00597 6.69624 6.5811V10.1747C6.69624 10.4314 6.71764 10.7048 6.76042 10.9947C6.8066 11.2763 6.87297 11.5199 6.95953 11.7253C6.96453 11.7372 6.96719 11.75 6.96719 11.7629V11.7629C6.96719 11.8151 6.92486 11.8574 6.87263 11.8574H5.85266C5.69375 11.8574 5.54774 11.7636 5.50674 11.6101C5.47855 11.5045 5.45437 11.3849 5.43421 11.2513C5.39618 10.9947 5.37717 10.757 5.37717 10.5384ZM5.21145 7.18002C5.42996 7.18002 5.60804 7.35537 5.6114 7.57386L5.61335 7.70081C5.61679 7.92411 5.43672 8.10696 5.2134 8.10696H4.28626C3.91074 8.10696 3.57562 8.13784 3.28091 8.19969C2.9862 8.25674 2.73902 8.34467 2.53937 8.46347C2.33973 8.58228 2.18762 8.73206 2.08304 8.91271C1.97847 9.08857 1.92618 9.2953 1.92618 9.53301C1.92618 9.77541 1.98084 9.99643 2.09017 10.1961C2.19951 10.3957 2.36349 10.555 2.58216 10.6738C2.80556 10.7879 3.07888 10.8449 3.40212 10.8449C3.80616 10.8449 4.16267 10.7594 4.47164 10.5882C4.78062 10.4171 5.02542 10.208 5.20604 9.96076C5.22292 9.93826 5.2391 9.91581 5.25456 9.89343C5.40329 9.67811 5.80186 9.5745 5.97558 9.77022V9.77022C6.03453 9.83663 6.06199 9.92664 6.03798 10.0121C5.99235 10.1746 5.91231 10.35 5.79785 10.5384C5.65049 10.7808 5.45322 11.0137 5.20604 11.2371C4.96362 11.4557 4.67367 11.6388 4.33617 11.7861C4.00343 11.9288 3.62791 12 3.20961 12C2.68673 12 2.22802 11.8978 1.83348 11.6935C1.44371 11.489 1.13949 11.2157 0.920825 10.8734C0.706929 10.5265 0.599976 10.139 0.599976 9.71126C0.599976 9.2977 0.68078 8.93409 0.842399 8.62035C1.00402 8.3018 1.23693 8.03802 1.54115 7.82889C1.84537 7.61496 2.21139 7.4534 2.6392 7.34409C3.067 7.23467 3.54472 7.18002 4.07235 7.18002H5.21145Z" fill="url(#paint2_linear_114_790)" stroke="url(#paint3_linear_114_790)" stroke-width="0.4"/>
<defs>
<linearGradient id="paint0_linear_114_790" x1="12.7914" y1="7.92852" x2="9.70958" y2="6.16929" gradientUnits="userSpaceOnUse">
<stop stop-color="#FF405B"/>
<stop offset="1" stop-color="#FF8860"/>
</linearGradient>
<linearGradient id="paint1_linear_114_790" x1="9.8321" y1="8.12926" x2="13.165" y2="12.8507" gradientUnits="userSpaceOnUse">
<stop stop-color="#FF405B"/>
<stop offset="1" stop-color="#FF8860"/>
</linearGradient>
<linearGradient id="paint2_linear_114_790" x1="1.79383" y1="11" x2="6.8718" y2="6.15012" gradientUnits="userSpaceOnUse">
<stop stop-color="#FF405B"/>
<stop offset="1" stop-color="#FF8860"/>
</linearGradient>
<linearGradient id="paint3_linear_114_790" x1="1.79383" y1="11" x2="6.8718" y2="6.15012" gradientUnits="userSpaceOnUse">
<stop stop-color="#FF405B"/>
<stop offset="1" stop-color="#FF8860"/>
</linearGradient>
</defs>
</svg>
