<svg width="16" height="16" viewBox="0 0 16 16" fill="none" xmlns="http://www.w3.org/2000/svg">
<path fill-rule="evenodd" clip-rule="evenodd" d="M15 3C15.552 3 16 3.448 16 4V12.008C16 14.213 14.213 16 12.008 16C9.643 16 6.357 16 3.992 16C2.933 16 1.918 15.579 1.169 14.831C0.421 14.082 0 13.067 0 12.008C0 9.643 0 6.357 0 3.992C0 1.787 1.787 0 3.992 0C7.249 0 12 0 12 0C12.552 0 13 0.448 13 1C13 2.104 13.896 3 15 3ZM15 2C14.448 2 14 1.552 14 1C14 0.448 14.448 0 15 0C15.552 0 16 0.448 16 1C16 1.552 15.552 2 15 2Z" fill="url(#paint0_linear_73_5310)"/>
<path fill-rule="evenodd" clip-rule="evenodd" d="M9.62334 4.97541C9.22834 4.71241 8.76334 4.57141 8.28834 4.57141H8.28634C7.60434 4.57141 6.95034 4.84241 6.46734 5.32441C5.98534 5.80741 5.71434 6.46141 5.71434 7.14341C5.71434 8.01741 5.71434 9.10241 5.71434 9.97941C5.71434 11.4114 6.87434 12.5714 8.30634 12.5714C8.76934 12.5714 9.22234 12.4344 9.60734 12.1774L11.5483 10.8834C12.2773 10.3984 12.7143 9.58041 12.7143 8.70541C12.7143 8.61641 12.7143 8.52641 12.7143 8.43741C12.7143 7.56241 12.2773 6.74441 11.5483 6.25941L9.62334 4.97541ZM2.28577 6.57141V10.5714C2.28577 11.1234 2.73377 11.5714 3.28577 11.5714C3.83777 11.5714 4.28577 11.1234 4.28577 10.5714V6.57141C4.28577 6.01941 3.83777 5.57141 3.28577 5.57141C2.73377 5.57141 2.28577 6.01941 2.28577 6.57141ZM8.51434 6.64041L10.4393 7.92341C10.6113 8.03741 10.7143 8.23041 10.7143 8.43741V8.70541C10.7143 8.91241 10.6113 9.10541 10.4393 9.21941L8.49834 10.5134C8.44134 10.5514 8.37534 10.5714 8.30734 10.5714C7.98034 10.5714 7.71434 10.3064 7.71434 9.97941V7.14341C7.71434 6.99141 7.77434 6.84641 7.88234 6.73941C7.98934 6.63141 8.13434 6.57141 8.28634 6.57141H8.28834C8.36834 6.57141 8.44734 6.59541 8.51434 6.64041Z" fill="#D49F34"/>
<path fill-rule="evenodd" clip-rule="evenodd" d="M10.338 3.83313C9.9428 3.5695 9.47807 3.42859 9.00271 3.42859H9.00026C8.31871 3.42859 7.66417 3.6995 7.18226 4.18177C6.69953 4.6645 6.42871 5.31859 6.42871 6.0004C6.42871 6.87449 6.42871 7.95949 6.42871 8.83677C6.42871 10.2681 7.58889 11.4286 9.02071 11.4286C9.4838 11.4286 9.93708 11.2918 10.3216 11.0349L12.2632 9.74086C12.9913 9.2554 13.4283 8.43813 13.4283 7.56267C13.4283 7.47404 13.4283 7.38313 13.4283 7.29449C13.4283 6.41904 12.9913 5.60177 12.2632 5.11631L10.338 3.83313ZM9.22852 5.49722L11.1537 6.7804C11.3255 6.89495 11.4286 7.08768 11.4286 7.29404V7.56313C11.4286 7.76949 11.3255 7.96222 11.1537 8.07677L9.21216 9.37086C9.15571 9.40859 9.08943 9.42859 9.02152 9.42859C8.69425 9.42859 8.42834 9.16359 8.42834 8.83677V6.0004C8.42834 5.84904 8.48889 5.70359 8.59607 5.59631C8.70325 5.48904 8.84889 5.42859 9.00025 5.42859H9.0027C9.08288 5.42859 9.16143 5.45222 9.22852 5.49722Z" fill="url(#paint1_linear_73_5310)"/>
<path fill-rule="evenodd" clip-rule="evenodd" d="M3.42859 6.1427V10.1427C3.42859 10.6947 3.87659 11.1427 4.42859 11.1427C4.98059 11.1427 5.42859 10.6947 5.42859 10.1427V6.1427C5.42859 5.5907 4.98059 5.1427 4.42859 5.1427C3.87659 5.1427 3.42859 5.5907 3.42859 6.1427Z" fill="url(#paint2_linear_73_5310)"/>
<defs>
<linearGradient id="paint0_linear_73_5310" x1="3" y1="14.9988" x2="12.9991" y2="2.999" gradientUnits="userSpaceOnUse">
<stop stop-color="#FF8860"/>
<stop offset="1" stop-color="#FBD92C"/>
</linearGradient>
<linearGradient id="paint1_linear_73_5310" x1="8.1786" y1="9.42858" x2="12.1432" y2="5.95981" gradientUnits="userSpaceOnUse">
<stop stop-color="#FBD92C"/>
<stop offset="1" stop-color="white"/>
</linearGradient>
<linearGradient id="paint2_linear_73_5310" x1="3.92859" y1="9.6427" x2="5.72859" y2="9.0427" gradientUnits="userSpaceOnUse">
<stop stop-color="#FBD92C"/>
<stop offset="1" stop-color="white"/>
</linearGradient>
</defs>
</svg>
