<svg width="16" height="16" viewBox="0 0 16 16" fill="none" xmlns="http://www.w3.org/2000/svg">
<path d="M8.64616 14.3183C8.2531 14.6118 7.7469 14.6118 7.35384 14.3183C6.95882 14.0233 6.5439 13.7788 6.10909 13.5845C5.4303 13.2813 4.72727 13.1296 4 13.1296C3.49091 13.1296 2.99103 13.2091 2.50036 13.3679C2.0097 13.5267 1.53988 13.7505 1.09091 14.0394C0.836363 14.1982 0.59103 14.191 0.354909 14.0177C0.118788 13.8444 0.000484848 13.5917 0 13.2596V2.81945C0 2.66061 0.0334545 2.50899 0.100364 2.36459C0.167273 2.22018 0.267151 2.11189 0.4 2.03969C0.969697 1.70757 1.55467 1.45111 2.15491 1.27032C2.75515 1.08953 3.37018 0.999434 4 1C4.70303 1 5.39103 1.1083 6.064 1.32491C6.55137 1.48177 7.02424 1.69544 7.48262 1.9659C7.80808 2.15794 8.19195 2.15802 8.51745 1.96606C8.97617 1.69552 9.44926 1.4818 9.93672 1.32491C10.6097 1.1083 11.2975 1 12 1C12.6303 1 13.2456 1.0904 13.8458 1.27119C14.4461 1.45198 15.0308 1.70815 15.6 2.03969C15.7333 2.11189 15.8334 2.22018 15.9004 2.36459C15.9673 2.50899 16.0005 2.66061 16 2.81945V13.2596C16 13.5917 15.8819 13.8444 15.6458 14.0177C15.4097 14.191 15.1641 14.1982 14.9091 14.0394C14.4606 13.7505 13.991 13.5267 13.5004 13.3679C13.0097 13.2091 12.5096 13.1296 12 13.1296C11.2727 13.1296 10.5697 13.2813 9.89091 13.5845C9.45609 13.7788 9.04118 14.0233 8.64616 14.3183Z" fill="url(#paint0_linear_73_5420)"/>
<path d="M1.01092 5.84972L1.00005 6.56688C0.99579 6.84753 1.29303 7.03373 1.55258 6.92687C1.87914 6.79242 2.21465 6.68115 2.5591 6.59305C3.10429 6.4536 3.67165 6.38834 4.26115 6.39729C4.67937 6.40425 5.07815 6.44537 5.45749 6.52064C5.66446 6.5617 5.87009 6.6132 6.07437 6.67511C6.32317 6.75053 6.58598 6.57415 6.58993 6.31419L6.59996 5.65287C6.60255 5.48202 6.48866 5.3308 6.32262 5.29051C6.04211 5.22245 5.75714 5.16301 5.46768 5.11218C5.08079 5.04424 4.68567 5.00721 4.28233 5.00109C3.69345 4.99217 3.13042 5.03793 2.59326 5.1384C2.13566 5.22399 1.68604 5.34911 1.24436 5.51375C1.10433 5.56595 1.01319 5.70029 1.01092 5.84972Z" fill="#8CC860"/>
<path d="M1.01092 9.84972L1.00005 10.5669C0.99579 10.8475 1.29303 11.0337 1.55258 10.9269C1.87914 10.7924 2.21465 10.6812 2.5591 10.5931C3.10429 10.4536 3.67165 10.3883 4.26115 10.3973C4.67937 10.4043 5.07815 10.4454 5.45749 10.5206C5.66446 10.5617 5.87009 10.6132 6.07437 10.6751C6.32317 10.7505 6.58598 10.5741 6.58993 10.3142L6.59996 9.65287C6.60255 9.48202 6.48866 9.3308 6.32262 9.29051C6.04211 9.22245 5.75714 9.16301 5.46768 9.11218C5.08079 9.04424 4.68567 9.00721 4.28233 9.00109C3.69345 8.99217 3.13042 9.03793 2.59326 9.1384C2.13566 9.22399 1.68604 9.34911 1.24436 9.51375C1.10433 9.56595 1.01319 9.70029 1.01092 9.84972Z" fill="#8CC860"/>
<path d="M9.02614 5.66004L8.96644 6.37478C8.94309 6.65449 9.22695 6.86051 9.49317 6.77158C9.82813 6.65968 10.1704 6.57152 10.5201 6.50709C11.0735 6.40509 11.644 6.37863 12.2315 6.42771C12.6483 6.46314 13.0434 6.53132 13.4167 6.63226C13.6204 6.68733 13.822 6.75271 14.0216 6.82839C14.2647 6.92058 14.5389 6.7625 14.5606 6.50342L14.6156 5.84432C14.6298 5.67404 14.5265 5.51542 14.3636 5.46391C14.0884 5.37691 13.8081 5.29819 13.5228 5.22777C13.1414 5.13363 12.7497 5.06977 12.3478 5.0362C11.7608 4.98719 11.196 4.99449 10.6533 5.05814C10.1909 5.11236 9.73379 5.20657 9.28192 5.34075C9.13866 5.38329 9.03858 5.5111 9.02614 5.66004Z" fill="#8CC860"/>
<path d="M9.02222 9.69722L8.97208 10.4127C8.95247 10.6927 9.23907 10.8949 9.50407 10.8024C9.83751 10.686 10.1786 10.5933 10.5274 10.5242C11.0794 10.4148 11.6495 10.3807 12.2376 10.4219C12.6548 10.4518 13.0507 10.5147 13.4254 10.6106C13.6298 10.663 13.8323 10.7256 14.0329 10.7987C14.2772 10.8876 14.5492 10.7259 14.5674 10.4665L14.6137 9.80676C14.6256 9.63631 14.5202 9.47908 14.3566 9.42975C14.0802 9.34643 13.7989 9.27147 13.5127 9.20487C13.1301 9.11584 12.7376 9.05723 12.3352 9.02903C11.7477 8.98787 11.183 9.00272 10.6412 9.07362C10.1796 9.13402 9.72374 9.23433 9.2737 9.37454C9.13102 9.41899 9.03267 9.54813 9.02222 9.69722Z" fill="#8CC860"/>
<path d="M1.41095 4.84972L1.40007 5.56688C1.39582 5.84753 1.69306 6.03373 1.9526 5.92687C2.27917 5.79242 2.61468 5.68115 2.95912 5.59305C3.50432 5.4536 4.07167 5.38834 4.66117 5.39729C5.0794 5.40425 5.47818 5.44537 5.85751 5.52064C6.06449 5.5617 6.27012 5.6132 6.47439 5.67511C6.7232 5.75053 6.986 5.57415 6.98996 5.31419L6.99998 4.65287C7.00258 4.48202 6.88869 4.3308 6.72265 4.29051C6.44214 4.22245 6.15716 4.16301 5.8677 4.11218C5.48081 4.04424 5.08569 4.00721 4.68236 4.00109C4.09347 3.99217 3.53044 4.03793 2.99328 4.1384C2.53569 4.22399 2.08607 4.34911 1.64438 4.51375C1.50435 4.56595 1.41321 4.70029 1.41095 4.84972Z" fill="url(#paint1_linear_73_5420)"/>
<path d="M1.41095 8.84972L1.40007 9.56688C1.39582 9.84753 1.69306 10.0337 1.9526 9.92687C2.27917 9.79242 2.61468 9.68115 2.95912 9.59305C3.50432 9.4536 4.07167 9.38834 4.66117 9.39729C5.0794 9.40425 5.47818 9.44537 5.85751 9.52064C6.06449 9.5617 6.27012 9.6132 6.47439 9.67511C6.7232 9.75053 6.986 9.57415 6.98996 9.31419L6.99998 8.65287C7.00258 8.48202 6.88869 8.3308 6.72265 8.29051C6.44214 8.22245 6.15716 8.16301 5.8677 8.11218C5.48081 8.04424 5.08569 8.00721 4.68236 8.00109C4.09347 7.99217 3.53044 8.03793 2.99328 8.1384C2.53569 8.22399 2.08607 8.34911 1.64438 8.51375C1.50435 8.56595 1.41321 8.70029 1.41095 8.84972Z" fill="url(#paint2_linear_73_5420)"/>
<path d="M9.42731 4.65063L9.36518 5.36517C9.34088 5.64479 9.62404 5.85177 9.89056 5.76375C10.2259 5.65299 10.5685 5.566 10.9184 5.50275C11.4721 5.40263 12.0427 5.37811 12.6301 5.42919C13.0467 5.46603 13.4415 5.53556 13.8145 5.63776C14.018 5.69352 14.2195 5.75958 14.4188 5.83594C14.6616 5.92896 14.9363 5.77182 14.9588 5.51281L15.0161 4.8539C15.0309 4.68367 14.9281 4.5247 14.7654 4.47264C14.4905 4.3847 14.2105 4.30503 13.9254 4.23363C13.5444 4.1382 13.1529 4.07302 12.751 4.03808C12.1643 3.98707 11.5994 3.99246 11.0565 4.05426C10.5939 4.10691 10.1365 4.19956 9.68417 4.33221C9.54077 4.37426 9.44026 4.50173 9.42731 4.65063Z" fill="url(#paint3_linear_73_5420)"/>
<path d="M9.42525 8.66828L9.36766 9.3832C9.34514 9.66298 9.62961 9.86815 9.89556 9.77843C10.2302 9.66555 10.5723 9.57638 10.9217 9.51091C11.4748 9.40728 12.0452 9.37913 12.6329 9.42647C13.0498 9.46067 13.445 9.52768 13.8187 9.62751C14.0225 9.68197 14.2244 9.74676 14.4242 9.82185C14.6675 9.91332 14.9413 9.75443 14.9621 9.49529L15.0152 8.83603C15.029 8.66571 14.9252 8.50739 14.7621 8.45637C14.4866 8.37018 14.2061 8.29229 13.9206 8.22271C13.539 8.1297 13.1471 8.067 12.745 8.03462C12.158 7.98734 11.5931 7.99632 11.0506 8.06157C10.5884 8.11716 10.1316 8.21272 9.68008 8.34823C9.53694 8.3912 9.43725 8.51931 9.42525 8.66828Z" fill="url(#paint4_linear_73_5420)"/>
<defs>
<linearGradient id="paint0_linear_73_5420" x1="1.14286" y1="14.5385" x2="9.47033" y2="0.223471" gradientUnits="userSpaceOnUse">
<stop stop-color="#9BE862"/>
<stop offset="1" stop-color="#C8FF9F"/>
</linearGradient>
<linearGradient id="paint1_linear_73_5420" x1="2.10002" y1="5.95742" x2="3.25602" y2="3.06363" gradientUnits="userSpaceOnUse">
<stop stop-color="#C8FF9F"/>
<stop offset="1" stop-color="white"/>
</linearGradient>
<linearGradient id="paint2_linear_73_5420" x1="2.10002" y1="9.95742" x2="3.25602" y2="7.06363" gradientUnits="userSpaceOnUse">
<stop stop-color="#C8FF9F"/>
<stop offset="1" stop-color="white"/>
</linearGradient>
<linearGradient id="paint3_linear_73_5420" x1="10.0354" y1="5.80476" x2="11.3954" y2="3.00103" gradientUnits="userSpaceOnUse">
<stop stop-color="#C8FF9F"/>
<stop offset="1" stop-color="white"/>
</linearGradient>
<linearGradient id="paint4_linear_73_5420" x1="10.0407" y1="9.81853" x2="11.3828" y2="7.00621" gradientUnits="userSpaceOnUse">
<stop stop-color="#C8FF9F"/>
<stop offset="1" stop-color="white"/>
</linearGradient>
</defs>
</svg>
