<svg width="16" height="16" viewBox="0 0 16 16" fill="none" xmlns="http://www.w3.org/2000/svg">
<path d="M16 4.66668V12C15.999 12.9721 15.6123 13.9042 14.9249 14.5916C14.2375 15.279 13.3055 15.6656 12.3333 15.6667H3.66668C2.69454 15.6656 1.76252 15.279 1.07511 14.5916C0.387708 13.9042 0.00105931 12.9721 0 12V4.66668C0.00105931 3.69454 0.387708 2.76251 1.07511 2.07511C1.76252 1.38771 2.69454 1.00106 3.66668 1H12.3333C13.3055 1.00106 14.2375 1.38771 14.9249 2.07511C15.6123 2.76251 15.999 3.69454 16 4.66668ZM5.33332 3.33332C5.33332 3.53112 5.39197 3.72444 5.50188 3.88891C5.61175 4.05335 5.76792 4.18152 5.95065 4.25721C6.13338 4.33291 6.33446 4.35272 6.52841 4.31412C6.7224 4.27553 6.90058 4.1803 7.04044 4.04044C7.1803 3.90058 7.27553 3.7224 7.31412 3.52841C7.35272 3.33446 7.33291 3.13338 7.25721 2.95065C7.18152 2.76792 7.05335 2.61175 6.88891 2.50188C6.72444 2.39197 6.53112 2.33333 6.33332 2.33333C6.06811 2.33333 5.81377 2.4387 5.62623 2.62623C5.4387 2.81377 5.33332 3.06811 5.33332 3.33332ZM2 3.33332C2 3.53112 2.05865 3.72444 2.16852 3.88891C2.2784 4.05335 2.43459 4.18152 2.61732 4.25721C2.80006 4.33291 3.0011 4.35272 3.19509 4.31412C3.38908 4.27553 3.56725 4.1803 3.70712 4.04044C3.84695 3.90058 3.94221 3.7224 3.98077 3.52841C4.01937 3.33446 3.99956 3.13338 3.92389 2.95065C3.84819 2.76792 3.72003 2.61175 3.55556 2.50188C3.39112 2.39197 3.19779 2.33333 3 2.33333C2.73479 2.33333 2.48044 2.4387 2.29288 2.62623C2.10535 2.81377 2 3.06811 2 3.33332Z" fill="url(#paint0_linear_129_56)"/>
<path d="M2.7757 8.74119C2.58817 8.92874 2.48279 9.18309 2.48279 9.4483C2.48279 9.71352 2.58817 9.96786 2.7757 10.1554C2.96323 10.343 3.21757 10.4483 3.48279 10.4483H10.8161C11.0813 10.4483 11.3357 10.343 11.5232 10.1554C11.7107 9.96786 11.8161 9.71352 11.8161 9.4483C11.8161 9.18309 11.7107 8.92874 11.5232 8.74119C11.3357 8.55366 11.0813 8.4483 10.8161 8.4483H3.48279C3.21757 8.4483 2.96323 8.55366 2.7757 8.74119Z" fill="#8C4FD9"/>
<path d="M8.14946 13.7816H3.48279C3.21757 13.7816 2.96323 13.6763 2.7757 13.4887C2.58817 13.3012 2.48279 13.0468 2.48279 12.7816C2.48279 12.5164 2.58817 12.2621 2.7757 12.0745C2.96323 11.887 3.21757 11.7816 3.48279 11.7816H8.14946C8.41468 11.7816 8.66902 11.887 8.85658 12.0745C9.04411 12.2621 9.14946 12.5164 9.14946 12.7816C9.14946 13.0468 9.04411 13.3012 8.85658 13.4887C8.66902 13.6763 8.41468 13.7816 8.14946 13.7816Z" fill="#8C4FD9"/>
<path d="M3.87909 7.63773C3.69156 7.82529 3.58618 8.07963 3.58618 8.34485C3.58618 8.61006 3.69156 8.86441 3.87909 9.05197C4.06662 9.2395 4.32097 9.34485 4.58618 9.34485H11.9195C12.1847 9.34485 12.4391 9.2395 12.6266 9.05197C12.8141 8.86441 12.9195 8.61006 12.9195 8.34485C12.9195 8.07963 12.8141 7.82529 12.6266 7.63773C12.4391 7.4502 12.1847 7.34485 11.9195 7.34485H4.58618C4.32097 7.34485 4.06662 7.4502 3.87909 7.63773Z" fill="url(#paint1_linear_129_56)"/>
<path d="M9.25286 12.6782H4.58618C4.32097 12.6782 4.06662 12.5728 3.87909 12.3853C3.69156 12.1977 3.58618 11.9434 3.58618 11.6782C3.58618 11.4129 3.69156 11.1586 3.87909 10.9711C4.06662 10.7835 4.32097 10.6782 4.58618 10.6782H9.25286C9.51807 10.6782 9.77242 10.7835 9.95998 10.9711C10.1475 11.1586 10.2529 11.4129 10.2529 11.6782C10.2529 11.9434 10.1475 12.1977 9.95998 12.3853C9.77242 12.5728 9.51807 12.6782 9.25286 12.6782Z" fill="url(#paint2_linear_129_56)"/>
<defs>
<linearGradient id="paint0_linear_129_56" x1="4" y1="14.6191" x2="13.5426" y2="2.47394" gradientUnits="userSpaceOnUse">
<stop stop-color="#A056FF"/>
<stop offset="1" stop-color="#C59AFD"/>
</linearGradient>
<linearGradient id="paint1_linear_129_56" x1="5.91951" y1="9.34485" x2="8.87619" y2="4.74557" gradientUnits="userSpaceOnUse">
<stop stop-color="#C59AFD"/>
<stop offset="1" stop-color="white"/>
</linearGradient>
<linearGradient id="paint2_linear_129_56" x1="5.25285" y1="12.6782" x2="8.48489" y2="9.087" gradientUnits="userSpaceOnUse">
<stop stop-color="#C59AFD"/>
<stop offset="1" stop-color="white"/>
</linearGradient>
</defs>
</svg>
