<svg width="16" height="16" viewBox="0 0 16 16" fill="none" xmlns="http://www.w3.org/2000/svg">
<path d="M2.1558 13.8406C2.1558 14.2671 2.32519 14.6762 2.62677 14.9778C2.92835 15.2794 3.33746 15.4488 3.76394 15.4488C4.19042 15.4488 4.59953 15.2794 4.90112 14.9778C5.2027 14.6762 5.37209 14.2671 5.37209 13.8406C5.37209 13.4141 5.2027 13.0051 4.90112 12.7035C4.59953 12.4019 4.19042 12.2325 3.76394 12.2325C3.33746 12.2325 2.92835 12.4019 2.62677 12.7035C2.32519 13.0051 2.1558 13.4141 2.1558 13.8406ZM6.44418 13.8406C6.44418 14.2671 6.61362 14.6762 6.9152 14.9778C7.21678 15.2794 7.62582 15.4488 8.05233 15.4488C8.47883 15.4488 8.88787 15.2794 9.18945 14.9778C9.49104 14.6762 9.66047 14.2671 9.66047 13.8406C9.66047 13.4141 9.49104 13.0051 9.18945 12.7035C8.88787 12.4019 8.47883 12.2325 8.05233 12.2325C7.62582 12.2325 7.21678 12.4019 6.9152 12.7035C6.61362 13.0051 6.44418 13.4141 6.44418 13.8406ZM10.7326 13.8406C10.7326 14.2671 10.902 14.6762 11.2036 14.9778C11.5052 15.2794 11.9142 15.4488 12.3407 15.4488C12.7672 15.4488 13.1763 15.2794 13.4778 14.9778C13.7794 14.6762 13.9489 14.2671 13.9489 13.8406C13.9489 13.4141 13.7794 13.0051 13.4778 12.7035C13.1763 12.4019 12.7672 12.2325 12.3407 12.2325C11.9142 12.2325 11.5052 12.4019 11.2036 12.7035C10.902 13.0051 10.7326 13.4141 10.7326 13.8406Z" fill="url(#paint0_linear_114_802)"/>
<path d="M8.23955 0.657275L12.9846 4.04656C13.6036 4.48876 13.6036 5.40883 12.9846 5.851L8.23955 9.24028C7.50569 9.76451 6.48633 9.23995 6.48633 8.33808V8.2751C6.48633 7.66273 5.98991 7.16633 5.37756 7.16633H3.16003C2.54766 7.16633 2.05126 6.66994 2.05126 6.05757V3.84003C2.05126 3.22768 2.54766 2.73127 3.16003 2.73127H5.37756C5.98991 2.73127 6.48633 2.23485 6.48633 1.6225V1.55951C6.48633 0.657675 7.50569 0.133084 8.23955 0.657275Z" fill="url(#paint1_linear_114_802)"/>
<defs>
<linearGradient id="paint0_linear_114_802" x1="2.99816" y1="14.6447" x2="4.45017" y2="10.0813" gradientUnits="userSpaceOnUse">
<stop stop-color="#A056FF"/>
<stop offset="1" stop-color="#C59AFD"/>
</linearGradient>
<linearGradient id="paint1_linear_114_802" x1="2.86537" y1="7.19879" x2="9.87304" y2="-0.407921" gradientUnits="userSpaceOnUse">
<stop stop-color="#A056FF"/>
<stop offset="1" stop-color="#C59AFD"/>
</linearGradient>
</defs>
</svg>
