<svg width="16" height="16" viewBox="0 0 16 16" fill="none" xmlns="http://www.w3.org/2000/svg">
<g clip-path="url(#clip0_25_2624)">
<path fill-rule="evenodd" clip-rule="evenodd" d="M4.99975 3.1706V2.47669C4.99975 1.81977 5.26072 1.18985 5.72466 0.724909C6.1896 0.260967 6.81952 0 7.47644 0H8.52231C9.17923 0 9.80915 0.260967 10.2741 0.724909C10.738 1.18985 10.999 1.81977 10.999 2.47669V3.1716C11.4169 3.31958 11.7999 3.55956 12.1199 3.87852C12.6828 4.44144 12.9987 5.20535 12.9987 6.00125C12.9987 8.65292 12.9987 12.0005 12.9987 12.0005C12.9987 12.5524 12.5508 12.9984 11.9989 12.9984C10.895 12.9984 9.99912 13.8943 9.99912 14.9981C9.99912 15.5501 9.55118 16 8.99925 16C8.99925 16 7.39345 16 6.00162 16C4.34383 16 3 14.6562 3 12.9984V6.00125C3 4.69441 3.8349 3.58355 4.99975 3.1706ZM11.9989 13.9982C12.5508 13.9982 12.9987 14.4462 12.9987 14.9981C12.9987 15.5501 12.5508 15.998 11.9989 15.998C11.4469 15.998 10.999 15.5501 10.999 14.9981C10.999 14.4462 11.4469 13.9982 11.9989 13.9982Z" fill="url(#paint0_linear_25_2624)"/>
<path fill-rule="evenodd" clip-rule="evenodd" d="M5.99963 13.0053H7.99938C8.55131 13.0053 8.99926 12.5574 8.99926 12.0054C8.99926 11.4535 8.55131 11.0055 7.99938 11.0055H5.99963C5.4477 11.0055 4.99976 11.4535 4.99976 12.0054C4.99976 12.5574 5.4477 13.0053 5.99963 13.0053ZM5.99963 10.0057H7.99938C8.55131 10.0057 8.99926 9.55773 8.99926 9.0058C8.99926 8.45386 8.55131 8.00592 7.99938 8.00592H5.99963C5.4477 8.00592 4.99976 8.45386 4.99976 9.0058C4.99976 9.55773 5.4477 10.0057 5.99963 10.0057Z" fill="#7FD1AE"/>
<path fill-rule="evenodd" clip-rule="evenodd" d="M6.99951 12.0054H8.99926C9.55119 12.0054 9.99913 11.5574 9.99913 11.0055C9.99913 10.4536 9.55119 10.0056 8.99926 10.0056H6.99951C6.44758 10.0056 5.99963 10.4536 5.99963 11.0055C5.99963 11.5574 6.44758 12.0054 6.99951 12.0054Z" fill="url(#paint1_linear_25_2624)"/>
<path fill-rule="evenodd" clip-rule="evenodd" d="M6.99951 9.00573H8.99926C9.55119 9.00573 9.99913 8.55779 9.99913 8.00586C9.99913 7.45393 9.55119 7.00598 8.99926 7.00598H6.99951C6.44758 7.00598 5.99963 7.45393 5.99963 8.00586C5.99963 8.55779 6.44758 9.00573 6.99951 9.00573Z" fill="url(#paint2_linear_25_2624)"/>
</g>
<defs>
<linearGradient id="paint0_linear_25_2624" x1="4.24984" y1="14.0004" x2="13.9036" y2="12.6083" gradientUnits="userSpaceOnUse">
<stop stop-color="#62E8AF"/>
<stop offset="1" stop-color="#B3FBDC"/>
</linearGradient>
<linearGradient id="paint1_linear_25_2624" x1="5.99963" y1="12.0054" x2="6.30729" y2="9.54413" gradientUnits="userSpaceOnUse">
<stop stop-color="#B3FBDC"/>
<stop offset="1" stop-color="white"/>
</linearGradient>
<linearGradient id="paint2_linear_25_2624" x1="5.99963" y1="9.00573" x2="6.30729" y2="6.5445" gradientUnits="userSpaceOnUse">
<stop stop-color="#B3FBDC"/>
<stop offset="1" stop-color="white"/>
</linearGradient>
<clipPath id="clip0_25_2624">
<rect width="16" height="16" fill="white"/>
</clipPath>
</defs>
</svg>
