<svg width="16" height="16" viewBox="0 0 16 16" fill="none" xmlns="http://www.w3.org/2000/svg">
<path opacity="0.7" fill-rule="evenodd" clip-rule="evenodd" d="M13.8602 1.79021C14.3546 1.79021 14.7553 1.38946 14.7553 0.895105C14.7553 0.400752 14.3546 0 13.8602 0C13.3659 0 12.9651 0.400752 12.9651 0.895105C12.9651 1.38946 13.3659 1.79021 13.8602 1.79021ZM14.2383 2.50074C14.3763 2.45869 14.5315 2.54109 14.5315 2.68531V12.4196V12.6154V13.6503C14.5315 14.2735 14.2839 14.8712 13.8433 15.3118C13.4026 15.7524 12.805 16 12.1818 16H4.34965C3.72648 16 3.12884 15.7524 2.6882 15.3118C2.24755 14.8712 2 14.2735 2 13.6503V12.6154V12.4196V2.68531C2 2.06214 2.24755 1.4645 2.6882 1.02386C3.12884 0.58321 3.72648 0.335658 4.34965 0.335658H11.5952C11.8735 0.335658 12.0699 0.616773 12.0699 0.895099C12.0699 1.82201 12.8213 2.57342 13.7483 2.57342C13.9187 2.57342 14.0833 2.548 14.2383 2.50074Z" fill="url(#paint0_linear_272_2)"/>
<path d="M5.45455 13.7902C5.94891 13.7902 6.34966 13.3895 6.34966 12.8951C6.34966 12.4008 5.94891 12 5.45455 12C4.9602 12 4.55945 12.4008 4.55945 12.8951C4.55945 13.3895 4.9602 13.7902 5.45455 13.7902Z" fill="#8C4FD9"/>
<path d="M8.40002 3C7.33916 3 6.32174 3.42143 5.5716 4.17157C4.82145 4.92172 4.40002 5.93913 4.40002 7C4.40002 9.01312 5.89256 10.6822 7.88046 10.9595C8.15995 10.9985 8.35449 10.7157 8.2509 10.4532L7.88002 9.51333C7.79279 9.35924 7.76976 9.17699 7.81593 9.00605C7.8621 8.8351 7.97374 8.68922 8.12669 8.6L8.70002 8.26667C8.85411 8.17943 9.03636 8.1564 9.20731 8.20257C9.36904 8.24625 9.50834 8.34854 9.59844 8.48896C9.60871 8.50497 9.61929 8.52081 9.63111 8.53572L10.6446 9.81317C10.782 9.98629 11.0353 10.0166 11.1937 9.86249C11.5272 9.53807 11.8021 9.157 12.005 8.73599C12.2659 8.19453 12.401 7.60105 12.4 7C12.4 5.93913 11.9786 4.92172 11.2285 4.17157C10.4783 3.42143 9.46089 3 8.40002 3ZM8.40002 6.33333C8.57684 6.33333 8.7464 6.40357 8.87143 6.5286C8.99645 6.65362 9.06669 6.82319 9.06669 7C9.06669 7.17681 8.99645 7.34638 8.87143 7.4714C8.7464 7.59643 8.57684 7.66667 8.40002 7.66667C8.22321 7.66667 8.05364 7.59643 7.92862 7.4714C7.8036 7.34638 7.73336 7.17681 7.73336 7C7.73336 6.82319 7.8036 6.65362 7.92862 6.5286C8.05364 6.40357 8.22321 6.33333 8.40002 6.33333ZM8.74584 9.01383C8.58148 9.10939 8.51159 9.31069 8.58138 9.48753L9.9495 12.9545C10.0393 13.182 10.3104 13.2764 10.522 13.1538L11.4457 12.6189C11.657 12.4965 11.7103 12.215 11.5584 12.0239L9.24028 9.10704C9.12146 8.95753 8.91094 8.91784 8.74584 9.01383Z" fill="#8C4FD9"/>
<defs>
<linearGradient id="paint0_linear_272_2" x1="5.18882" y1="14.8571" x2="15.875" y2="4.91819" gradientUnits="userSpaceOnUse">
<stop stop-color="#A056FF"/>
<stop offset="1" stop-color="#C59AFD"/>
</linearGradient>
</defs>
</svg>
