<svg width="17" height="16" viewBox="0 0 17 16" fill="none" xmlns="http://www.w3.org/2000/svg">
<path fill-rule="evenodd" clip-rule="evenodd" d="M3.875 6.25C4.841 6.25 5.625 7.034 5.625 8C5.625 8.966 4.841 9.75 3.875 9.75C3.392 9.75 3 10.142 3 10.625V10.6267C3 11.787 3.46113 12.8991 4.281 13.719C5.10088 14.5389 6.213 15 7.37325 15C7.94988 15 8.54838 15 9.125 15C10.2852 15 11.3983 14.5389 12.219 13.719C13.0389 12.8982 13.5 11.7852 13.5 10.625C13.5 8.97912 13.5 7.02088 13.5 5.375C13.5 4.21475 13.0389 3.10175 12.219 2.281C11.3983 1.46113 10.2852 1 9.125 1C8.54838 1 7.94988 1 7.37325 1C6.213 1 5.10088 1.46113 4.281 2.281C3.46113 3.10087 3 4.21475 3 5.375V5.37675C3.00088 5.85975 3.39288 6.25 3.875 6.25ZM3 8C3 8.483 3.392 8.875 3.875 8.875C4.358 8.875 4.75 8.483 4.75 8C4.75 7.517 4.358 7.125 3.875 7.125C3.392 7.125 3 7.517 3 8Z" fill="url(#paint0_linear_1_214)"/>
<path fill-rule="evenodd" clip-rule="evenodd" d="M6.5 4.50623V6.25623C6.5 6.73923 6.892 7.13123 7.375 7.13123C7.858 7.13123 8.25 6.73923 8.25 6.25623V4.50623C8.25 4.02323 7.858 3.63123 7.375 3.63123C6.892 3.63123 6.5 4.02323 6.5 4.50623Z" fill="#D6594F"/>
<path fill-rule="evenodd" clip-rule="evenodd" d="M7.375 3.6311V5.3811C7.375 5.8641 7.767 6.2561 8.25 6.2561C8.733 6.2561 9.125 5.8641 9.125 5.3811V3.6311C9.125 3.1481 8.733 2.7561 8.25 2.7561C7.767 2.7561 7.375 3.1481 7.375 3.6311Z" fill="url(#paint1_linear_1_214)"/>
<defs>
<linearGradient id="paint0_linear_1_214" x1="3" y1="15.0061" x2="12.625" y2="1.88113" gradientUnits="userSpaceOnUse">
<stop stop-color="#FF425B"/>
<stop offset="1" stop-color="#FF8760"/>
</linearGradient>
<linearGradient id="paint1_linear_1_214" x1="7.375" y1="6.2561" x2="9.125" y2="2.7561" gradientUnits="userSpaceOnUse">
<stop stop-color="#FF8760"/>
<stop offset="1" stop-color="white"/>
</linearGradient>
</defs>
</svg>
