<svg width="16" height="16" viewBox="0 0 16 16" fill="none" xmlns="http://www.w3.org/2000/svg">
<g clip-path="url(#clip0_8_298)">
<path d="M8.03582 12.5908L12.5816 8.04502C12.9124 7.7191 13.3578 7.53718 13.8221 7.53889C14.2866 7.5406 14.7315 7.72582 15.0599 8.05414C15.3884 8.38246 15.5737 8.82731 15.5756 9.29168C15.5775 9.75611 15.3957 10.2024 15.07 10.5334L10.5242 15.0791C10.2595 15.3442 9.92765 15.5322 9.56424 15.6231L8.15443 15.9751C8.01422 16.0101 7.86739 16.0081 7.72819 15.9696C7.58894 15.931 7.46206 15.857 7.35987 15.7549C7.25763 15.6528 7.18361 15.526 7.14489 15.3868C7.10617 15.2476 7.10414 15.1008 7.13891 14.9606L7.49187 13.5507C7.58286 13.1873 7.77091 12.8556 8.03582 12.5908Z" fill="url(#paint0_linear_8_298)"/>
<path fill-rule="evenodd" clip-rule="evenodd" d="M4.29014 0.470574C4.29014 0.345769 4.24056 0.226079 4.15231 0.137829C4.06406 0.0495785 3.94436 0 3.81956 0C3.69476 0 3.57506 0.0495785 3.48681 0.137829C3.39856 0.226079 3.34898 0.345769 3.34898 0.470574V0.727816C3.34898 0.845639 3.25347 0.941148 3.13565 0.941148H2.87841C2.504 0.941148 2.14492 1.08988 1.88017 1.35463C1.61542 1.61939 1.46669 1.97846 1.46669 2.35287V8.614C1.46669 8.87934 1.73469 9.06663 2.00003 9.06663C2.88368 9.06663 3.60002 9.78297 3.60002 10.6666C3.60002 11.5503 2.88368 12.2666 2.00003 12.2666C1.73469 12.2666 1.46669 12.4539 1.46669 12.7192V13.6467C1.46669 14.0211 1.61542 14.3802 1.88017 14.6449C2.14492 14.9096 2.504 15.0584 2.87841 15.0584H5.97461C6.08736 15.0584 6.17941 14.9703 6.19904 14.8593C6.20651 14.8169 6.21552 14.7744 6.22608 14.7318L6.57898 13.322C6.71077 12.793 6.98405 12.3098 7.36959 11.9244L11.9153 7.37858C12.1246 7.16882 12.367 6.99538 12.6325 6.86509C12.7091 6.82744 12.7605 6.75096 12.7605 6.66552V2.35287C12.7605 1.97846 12.6118 1.61939 12.347 1.35463C12.0822 1.08988 11.7232 0.941148 11.3487 0.941148H11.0915C10.9737 0.941148 10.8782 0.845639 10.8782 0.727816V0.470574C10.8782 0.345769 10.8286 0.226079 10.7404 0.137829C10.6521 0.0495785 10.5324 0 10.4076 0C10.2828 0 10.1631 0.0495785 10.0749 0.137829C9.9866 0.226079 9.93705 0.345769 9.93705 0.470574V0.727816C9.93705 0.845639 9.84153 0.941148 9.72372 0.941148H7.79749C7.67967 0.941148 7.58415 0.845639 7.58415 0.727816V0.470574C7.58415 0.345769 7.53455 0.226079 7.44634 0.137829C7.35807 0.0495785 7.23839 0 7.1136 0C6.9888 0 6.86906 0.0495785 6.78085 0.137829C6.69258 0.226079 6.64298 0.345769 6.64298 0.470574V0.727816C6.64298 0.845639 6.54752 0.941148 6.42965 0.941148H4.50347C4.38564 0.941148 4.29014 0.845639 4.29014 0.727816V0.470574ZM1.46669 11.7333C2.05579 11.7333 2.53335 11.2557 2.53335 10.6666C2.53335 10.0775 2.05579 9.59996 1.46669 9.59996C0.877585 9.59996 0.400024 10.0775 0.400024 10.6666C0.400024 11.2557 0.877585 11.7333 1.46669 11.7333Z" fill="url(#paint1_linear_8_298)"/>
<path fill-rule="evenodd" clip-rule="evenodd" d="M4.5333 9.33327H6.39996C6.91516 9.33327 7.33329 8.91514 7.33329 8.39994C7.33329 7.88475 6.91516 7.46661 6.39996 7.46661H4.5333C4.01811 7.46661 3.59998 7.88475 3.59998 8.39994C3.59998 8.91514 4.01811 9.33327 4.5333 9.33327Z" fill="#279FD7"/>
<path d="M8.26662 5.46663H4.5333C4.01811 5.46663 3.59998 5.0485 3.59998 4.5333C3.59998 4.01811 4.01811 3.59998 4.5333 3.59998H8.26662C8.78182 3.59998 9.19995 4.01811 9.19995 4.5333C9.19995 5.0485 8.78182 5.46663 8.26662 5.46663Z" fill="#279FD7"/>
<path fill-rule="evenodd" clip-rule="evenodd" d="M5.46665 4.53328H9.19997C9.71517 4.53328 10.1333 4.11515 10.1333 3.59996C10.1333 3.08476 9.71517 2.66663 9.19997 2.66663H5.46665C4.95146 2.66663 4.53333 3.08476 4.53333 3.59996C4.53333 4.11515 4.95146 4.53328 5.46665 4.53328Z" fill="url(#paint2_linear_8_298)"/>
<path fill-rule="evenodd" clip-rule="evenodd" d="M5.46665 8.39998H7.33331C7.84851 8.39998 8.26664 7.98185 8.26664 7.46665C8.26664 6.95146 7.84851 6.53333 7.33331 6.53333H5.46665C4.95146 6.53333 4.53333 6.95146 4.53333 7.46665C4.53333 7.98185 4.95146 8.39998 5.46665 8.39998Z" fill="url(#paint3_linear_8_298)"/>
</g>
<defs>
<linearGradient id="paint0_linear_8_298" x1="7.9604" y1="16.0026" x2="11.0162" y2="6.83376" gradientUnits="userSpaceOnUse">
<stop stop-color="#22B4FA"/>
<stop offset="1" stop-color="#6BD6FE"/>
</linearGradient>
<linearGradient id="paint1_linear_8_298" x1="1.63607" y1="15.0631" x2="7.95587" y2="-0.501355" gradientUnits="userSpaceOnUse">
<stop stop-color="#22B4FA"/>
<stop offset="1" stop-color="#6BD6FE"/>
</linearGradient>
<linearGradient id="paint2_linear_8_298" x1="4.53333" y1="4.53328" x2="9.01331" y2="1.1733" gradientUnits="userSpaceOnUse">
<stop stop-color="#6BD6FE"/>
<stop offset="1" stop-color="white"/>
</linearGradient>
<linearGradient id="paint3_linear_8_298" x1="4.53333" y1="8.39998" x2="8.26664" y2="6.53333" gradientUnits="userSpaceOnUse">
<stop stop-color="#6BD6FE"/>
<stop offset="1" stop-color="white"/>
</linearGradient>
<clipPath id="clip0_8_298">
<rect width="16" height="16" fill="white"/>
</clipPath>
</defs>
</svg>
