<svg width="16" height="16" viewBox="0 0 16 16" fill="none" xmlns="http://www.w3.org/2000/svg">
<path fill-rule="evenodd" clip-rule="evenodd" d="M8.125 1C6.67513 1 5.5 2.17513 5.5 3.625V7.125C5.5 8.57487 6.67513 9.75 8.125 9.75C9.57488 9.75 10.75 8.57487 10.75 7.125V3.625C10.75 2.17513 9.57488 1 8.125 1Z" fill="url(#paint0_linear_8_147)"/>
<path fill-rule="evenodd" clip-rule="evenodd" d="M9 13.25V12.375H9.875C10.358 12.375 10.75 11.983 10.75 11.5C10.75 11.017 10.358 10.625 9.875 10.625H6.333C5.38975 10.625 4.625 9.86025 4.625 8.917V7.125C4.625 6.642 4.233 6.25 3.75 6.25H2.875C2.392 6.25 2 6.642 2 7.125C2 7.608 2.392 8 2.875 8V8.917C2.875 10.8271 4.42288 12.375 6.333 12.375H7.25V13.25H6.375C5.892 13.25 5.5 13.642 5.5 14.125C5.5 14.608 5.892 15 6.375 15H9.875C10.358 15 10.75 14.608 10.75 14.125C10.75 13.642 10.358 13.25 9.875 13.25H9ZM13.375 11.5C13.375 11.983 12.983 12.375 12.5 12.375C12.017 12.375 11.625 11.983 11.625 11.5C11.625 11.017 12.017 10.625 12.5 10.625C12.983 10.625 13.375 11.017 13.375 11.5ZM13.375 8C13.858 8 14.25 7.608 14.25 7.125C14.25 6.642 13.858 6.25 13.375 6.25H12.5C12.017 6.25 11.625 6.642 11.625 7.125V8.875C11.625 9.358 12.017 9.75 12.5 9.75C12.983 9.75 13.375 9.358 13.375 8.875V8Z" fill="url(#paint1_linear_8_147)"/>
<path fill-rule="evenodd" clip-rule="evenodd" d="M7.05005 8.20001H8.55005C8.96405 8.20001 9.30005 7.86401 9.30005 7.45001C9.30005 7.03601 8.96405 6.70001 8.55005 6.70001H7.05005C6.63605 6.70001 6.30005 7.03601 6.30005 7.45001C6.30005 7.86401 6.63605 8.20001 7.05005 8.20001Z" fill="#D49F34"/>
<path fill-rule="evenodd" clip-rule="evenodd" d="M7.75 7.5H9.25C9.664 7.5 10 7.164 10 6.75C10 6.336 9.664 6 9.25 6H7.75C7.336 6 7 6.336 7 6.75C7 7.164 7.336 7.5 7.75 7.5Z" fill="url(#paint2_linear_8_147)"/>
<defs>
<linearGradient id="paint0_linear_8_147" x1="6.48437" y1="9.20248" x2="11.7569" y2="5.40596" gradientUnits="userSpaceOnUse">
<stop stop-color="#FF8860"/>
<stop offset="1" stop-color="#FBD92C"/>
</linearGradient>
<linearGradient id="paint1_linear_8_147" x1="4.29687" y1="14.4525" x2="9.18362" y2="6.24211" gradientUnits="userSpaceOnUse">
<stop stop-color="#FF8860"/>
<stop offset="1" stop-color="#FBD92C"/>
</linearGradient>
<linearGradient id="paint2_linear_8_147" x1="7.75" y1="7.125" x2="8.35" y2="5.925" gradientUnits="userSpaceOnUse">
<stop stop-color="#FBD92C"/>
<stop offset="1" stop-color="white"/>
</linearGradient>
</defs>
</svg>
