<svg width="16" height="16" viewBox="0 0 16 16" fill="none" xmlns="http://www.w3.org/2000/svg">
<path d="M14.8571 4.42857C15.4093 4.42857 15.9969 4.76003 15.9992 5.31218C15.9997 5.44712 16 5.54594 16 5.57143V9.70885C16 10.7097 15.5626 11.6606 14.8027 12.3119L12.963 13.8888C12.3415 14.4215 11.5501 14.7143 10.7317 14.7143H5.26828C4.44992 14.7143 3.65848 14.4215 3.03697 13.8888L1.19727 12.3119C0.437361 11.6606 0 10.7097 0 9.70885V4.42857C0 2.53502 1.53502 1 3.42857 1H11.4286C11.4541 1 11.5529 1.00028 11.6878 1.00083C12.24 1.00309 12.5714 1.5907 12.5714 2.14286C12.5714 3.40527 13.5947 4.42857 14.8571 4.42857Z" fill="url(#paint0_linear_29_661)"/>
<path d="M14.8571 3.28571C15.4883 3.28571 15.9999 2.77404 15.9999 2.14286C15.9999 1.51167 15.4883 1 14.8571 1C14.2259 1 13.7142 1.51167 13.7142 2.14286C13.7142 2.77404 14.2259 3.28571 14.8571 3.28571Z" fill="url(#paint1_linear_29_661)"/>
<path d="M2.5 7C2.5 5.89543 3.39543 5 4.5 5H9.5C10.6046 5 11.5 5.89543 11.5 7V9.86585C11.5 10.4497 11.2449 11.0044 10.8016 11.3844L9.81173 12.2328C9.44925 12.5435 8.98757 12.7143 8.51015 12.7143H5.48985C5.01243 12.7143 4.55075 12.5435 4.18827 12.2328L3.19842 11.3844C2.75513 11.0044 2.5 10.4497 2.5 9.86584V7Z" stroke="#D84F4F"/>
<path d="M3.5 6C3.5 4.89543 4.39543 4 5.5 4H10.5C11.6046 4 12.5 4.89543 12.5 6V8.86585C12.5 9.4497 12.2449 10.0044 11.8016 10.3844L10.8117 11.2328C10.4492 11.5435 9.98757 11.7143 9.51015 11.7143H6.48985C6.01243 11.7143 5.55075 11.5435 5.18827 11.2328L4.19842 10.3844C3.75513 10.0044 3.5 9.44969 3.5 8.86584V6Z" stroke="url(#paint2_linear_29_661)"/>
<defs>
<linearGradient id="paint0_linear_29_661" x1="3" y1="13" x2="11.2432" y2="1.45946" gradientUnits="userSpaceOnUse">
<stop stop-color="#FF405B"/>
<stop offset="1" stop-color="#FF8860"/>
</linearGradient>
<linearGradient id="paint1_linear_29_661" x1="3" y1="13" x2="11.2432" y2="1.45946" gradientUnits="userSpaceOnUse">
<stop stop-color="#FF405B"/>
<stop offset="1" stop-color="#FF8860"/>
</linearGradient>
<linearGradient id="paint2_linear_29_661" x1="6.07042" y1="11.7141" x2="8.31803" y2="5.47096" gradientUnits="userSpaceOnUse">
<stop stop-color="#FF8860"/>
<stop offset="1" stop-color="white"/>
</linearGradient>
</defs>
</svg>
