<svg width="16" height="16" viewBox="0 0 16 16" fill="none" xmlns="http://www.w3.org/2000/svg">
<path opacity="0.5" fill-rule="evenodd" clip-rule="evenodd" d="M12.5858 3.42857C11.324 3.42857 10.3 2.40457 10.3 1.14286C10.3 0.512 9.78805 0 9.15719 0C9.15719 0 7.32176 0 5.73091 0C3.83605 0 2.30005 1.536 2.30005 3.43086V12.5691C2.30005 14.464 3.83605 16 5.73091 16H10.2978C11.2075 16 12.0806 15.6389 12.724 14.9954C13.3675 14.352 13.7286 13.4789 13.7286 12.5691C13.7286 9.53829 13.7286 4.57143 13.7286 4.57143C13.7286 3.94057 13.2166 3.42857 12.5858 3.42857ZM12.5858 2.28571C13.2166 2.28571 13.7286 1.77371 13.7286 1.14286C13.7286 0.512 13.2166 0 12.5858 0C11.9549 0 11.4429 0.512 11.4429 1.14286C11.4429 1.77371 11.9549 2.28571 12.5858 2.28571Z" fill="url(#paint0_linear_272_8)"/>
<path fill-rule="evenodd" clip-rule="evenodd" d="M6.87149 13.7143H9.15721C9.78807 13.7143 10.3001 13.2023 10.3001 12.5714C10.3001 11.9406 9.78807 11.4286 9.15721 11.4286H6.87149C6.24064 11.4286 5.72864 11.9406 5.72864 12.5714C5.72864 13.2023 6.24064 13.7143 6.87149 13.7143Z" fill="url(#paint1_linear_272_8)"/>
<defs>
<linearGradient id="paint0_linear_272_8" x1="5.15719" y1="14.8571" x2="15.6958" y2="6.07494" gradientUnits="userSpaceOnUse">
<stop stop-color="#A056FF"/>
<stop offset="1" stop-color="#C59AFD"/>
</linearGradient>
<linearGradient id="paint1_linear_272_8" x1="6.8715" y1="13.551" x2="7.97986" y2="10.9648" gradientUnits="userSpaceOnUse">
<stop stop-color="#A056FF"/>
<stop offset="1" stop-color="#C59AFD"/>
</linearGradient>
</defs>
</svg>
