<svg width="16" height="16" viewBox="0 0 16 16" fill="none" xmlns="http://www.w3.org/2000/svg">
<path fill-rule="evenodd" clip-rule="evenodd" d="M3.94746 4.88697C3.50114 4.43362 3.01679 3.79749 3.31291 3.23442C4.32553 1.30895 6.31347 0 8.60007 0C11.9137 0 14.6001 2.7488 14.6001 6.1392C14.603 6.99899 14.4267 7.84992 14.0825 8.63781C13.7383 9.42565 13.2337 10.1332 12.6009 10.7152L12.5927 10.7227L12.5924 10.723C12.1887 11.0927 11.8882 11.3678 11.6753 11.568C11.5666 11.67 11.46 11.774 11.3553 11.88L11.3353 11.9016L11.3289 11.9096C11.1393 12.148 11.0985 12.2096 11.0745 12.2656C11.0505 12.3216 11.0321 12.3936 10.9841 12.6976C10.9657 12.8176 10.9633 13.0224 10.9633 13.5816V13.6056C10.9633 13.9328 10.9633 14.2152 10.9433 14.4464C10.9217 14.6912 10.8737 14.9344 10.7449 15.1624C10.6023 15.4161 10.3953 15.6277 10.1449 15.776C9.92247 15.908 9.68487 15.9568 9.44567 15.9792C9.21929 16 8.94332 16 8.62336 16H8.62327H8.57687H8.57678C8.25682 16 7.98085 16 7.75447 15.9792C7.51447 15.9568 7.27767 15.9072 7.05447 15.776C6.80429 15.6276 6.59762 15.416 6.45527 15.1624C6.32727 14.9344 6.27927 14.692 6.25687 14.4464C6.23607 14.2144 6.23607 13.9328 6.23607 13.6056V13.6056V13.5816C6.23607 13.0224 6.23447 12.8176 6.21527 12.6976C6.16727 12.3936 6.15047 12.3216 6.12567 12.2656C6.10167 12.2096 6.06087 12.148 5.87127 11.9088L5.86487 11.9008C5.75378 11.7874 5.64039 11.6761 5.52487 11.5672C5.31047 11.3672 5.00725 11.0888 4.59925 10.7144C3.96654 10.1325 3.462 9.42507 3.11779 8.63733C2.93718 8.22403 3.26949 7.78742 3.64911 7.54386C4.12601 7.23788 4.44201 6.703 4.44201 6.09431C4.44201 5.62392 4.2533 5.19762 3.94746 4.88697ZM2.14733 7.09466C2.78099 7.09466 3.29466 6.58099 3.29466 5.94733C3.29466 5.31368 2.78099 4.8 2.14733 4.8C1.51368 4.8 1 5.31368 1 5.94733C1 6.58099 1.51368 7.09466 2.14733 7.09466Z" fill="url(#paint0_linear_15_1074)"/>
<path d="M9.536 14.5H7C7.0024 14.5776 7.0056 14.6448 7.0112 14.7064C7.0256 14.8744 7.0512 14.9344 7.068 14.9648C7.11547 15.0495 7.18448 15.1201 7.268 15.1696C7.2976 15.1864 7.3568 15.2128 7.5208 15.2272C7.692 15.2432 7.9176 15.244 8.268 15.244C8.6176 15.244 8.844 15.244 9.0152 15.228C9.1784 15.212 9.2384 15.1864 9.268 15.1696C9.35152 15.1201 9.42048 15.0495 9.468 14.9648C9.484 14.9344 9.5096 14.8736 9.524 14.7064C9.5296 14.6456 9.5336 14.5776 9.536 14.5Z" fill="#D84F4F"/>
<path d="M8.67543 4.91439C8.90983 4.57937 8.83383 4.11269 8.50524 3.87293V3.87186C8.42743 3.81503 8.33906 3.7744 8.2453 3.75238C8.15154 3.73037 8.05426 3.7274 7.95932 3.74367C7.86439 3.75995 7.77372 3.79512 7.6926 3.84711C7.61154 3.8991 7.54172 3.96685 7.48732 4.04633L5.40226 7.03265C5.32439 7.14502 5.2782 7.27627 5.2686 7.41265C5.259 7.54897 5.28631 7.68539 5.34764 7.80758C5.40748 7.92875 5.4998 8.03089 5.61436 8.10251C5.72892 8.17414 5.86119 8.21249 5.99628 8.21323H7.49692L6.23607 10.02C6.12348 10.1817 6.07831 10.3808 6.1101 10.5753C6.14183 10.7697 6.24807 10.9441 6.40626 11.0615C6.48402 11.1183 6.57239 11.1589 6.66615 11.181C6.75996 11.203 6.85719 11.2059 6.95212 11.1897C7.04706 11.1734 7.13778 11.1382 7.21884 11.0862C7.29991 11.0342 7.36972 10.9665 7.42418 10.887L9.50924 7.90177C9.58727 7.78929 9.63356 7.65782 9.64316 7.52129C9.65276 7.3847 9.62535 7.24806 9.5638 7.12577C9.50386 7.00481 9.41143 6.90289 9.29687 6.83147C9.18231 6.76001 9.05015 6.72182 8.91516 6.72118H7.41452L8.67543 4.91439Z" fill="#D84F4F"/>
<path d="M9.74208 3.84774C9.97648 3.51272 9.90048 3.04604 9.57189 2.80628V2.80521C9.49408 2.74838 9.40571 2.70775 9.31195 2.68573C9.21819 2.66372 9.12091 2.66075 9.02597 2.67702C8.93104 2.6933 8.84037 2.72847 8.75925 2.78046C8.67819 2.83245 8.60837 2.9002 8.55397 2.97968L6.46891 5.96599C6.39104 6.07837 6.34485 6.20962 6.33525 6.34599C6.32565 6.48231 6.35296 6.61874 6.41429 6.74093C6.47413 6.8621 6.56645 6.96423 6.68101 7.03586C6.79557 7.10749 6.92784 7.14584 7.06293 7.14658H8.56357L7.30272 8.95336C7.19013 9.11506 7.14496 9.31416 7.17675 9.50861C7.20848 9.70301 7.31472 9.87741 7.47291 9.99485C7.55067 10.0516 7.63904 10.0923 7.7328 10.1143C7.82661 10.1363 7.92384 10.1393 8.01877 10.123C8.11371 10.1067 8.20443 10.0716 8.28549 10.0196C8.36656 9.96759 8.43637 9.89986 8.49083 9.82034L10.5759 6.83511C10.6539 6.72263 10.7002 6.59117 10.7098 6.45463C10.7194 6.31805 10.692 6.18141 10.6305 6.05911C10.5705 5.93815 10.4781 5.83623 10.3635 5.76482C10.249 5.69335 10.1168 5.65517 9.98181 5.65453H8.48117L9.74208 3.84774Z" fill="url(#paint1_linear_15_1074)"/>
<path d="M9.86803 14.14H7.33203C7.33443 14.2176 7.33763 14.2848 7.34323 14.3464C7.35763 14.5144 7.38323 14.5744 7.40003 14.6048C7.4475 14.6894 7.51651 14.7601 7.60003 14.8096C7.62963 14.8264 7.68883 14.8528 7.85283 14.8672C8.02403 14.8832 8.24963 14.884 8.60003 14.884C8.94963 14.884 9.17603 14.884 9.34723 14.868C9.51043 14.852 9.57043 14.8264 9.60003 14.8096C9.68355 14.7601 9.75251 14.6894 9.80003 14.6048C9.81603 14.5744 9.84163 14.5136 9.85603 14.3464C9.86163 14.2856 9.86563 14.2176 9.86803 14.14Z" fill="url(#paint2_linear_15_1074)"/>
<defs>
<linearGradient id="paint0_linear_15_1074" x1="3.55002" y1="14" x2="13.7147" y2="3.63195" gradientUnits="userSpaceOnUse">
<stop stop-color="#FF405B"/>
<stop offset="1" stop-color="#FF8860"/>
</linearGradient>
<linearGradient id="paint1_linear_15_1074" x1="7.58383" y1="10.1332" x2="10.8152" y2="5.62183" gradientUnits="userSpaceOnUse">
<stop stop-color="#FF8860"/>
<stop offset="1" stop-color="white"/>
</linearGradient>
<linearGradient id="paint2_linear_15_1074" x1="8.05632" y1="14.8839" x2="8.13888" y2="14.214" gradientUnits="userSpaceOnUse">
<stop stop-color="#FF8860"/>
<stop offset="1" stop-color="white"/>
</linearGradient>
</defs>
</svg>
