<svg width="16" height="16" viewBox="0 0 16 16" fill="none" xmlns="http://www.w3.org/2000/svg">
<g clip-path="url(#clip0_63_817)">
<path fill-rule="evenodd" clip-rule="evenodd" d="M16 5.943V11C16 11.552 15.552 12 15 12C13.896 12 13 12.896 13 14C13 14.552 12.552 15 12 15C12 15 6.101 15 2.943 15C2.162 15 1.414 14.69 0.862 14.138C0.31 13.586 0 12.838 0 12.057C0 9.823 0 6.177 0 3.943C0 3.162 0.31 2.414 0.862 1.862C1.414 1.31 2.162 1 2.943 1C3.727 1 4.587 1 5.195 1C5.976 1 6.724 1.31 7.276 1.862L8.138 2.724C8.315 2.901 8.555 3 8.805 3H13.057C14.683 3 16 4.317 16 5.943ZM16 14C16 14.552 15.552 15 15 15C14.448 15 14 14.552 14 14C14 13.448 14.448 13 15 13C15.552 13 16 13.448 16 14Z" fill="url(#paint0_linear_63_817)"/>
<path fill-rule="evenodd" clip-rule="evenodd" d="M11.0417 11.2917H3.125C2.78 11.2917 2.5 11.5717 2.5 11.9167C2.5 12.2617 2.78 12.5417 3.125 12.5417H11.0417C11.3867 12.5417 11.6667 12.2617 11.6667 11.9167C11.6667 11.5717 11.3867 11.2917 11.0417 11.2917Z" fill="#D49F34"/>
<path fill-rule="evenodd" clip-rule="evenodd" d="M11.0416 12.5417V11.2917C11.0416 10.9467 10.7616 10.6667 10.4166 10.6667C10.0716 10.6667 9.79163 10.9467 9.79163 11.2917V12.5417C9.79163 12.8867 10.0716 13.1667 10.4166 13.1667C10.7616 13.1667 11.0416 12.8867 11.0416 12.5417Z" fill="#D49F34"/>
<path fill-rule="evenodd" clip-rule="evenodd" d="M11.875 10.4583H3.95837C3.61337 10.4583 3.33337 10.7383 3.33337 11.0833C3.33337 11.4283 3.61337 11.7083 3.95837 11.7083H11.875C12.22 11.7083 12.5 11.4283 12.5 11.0833C12.5 10.7383 12.22 10.4583 11.875 10.4583Z" fill="url(#paint1_linear_63_817)"/>
<path fill-rule="evenodd" clip-rule="evenodd" d="M11.875 11.7083V10.4583C11.875 10.1133 11.595 9.83331 11.25 9.83331C10.905 9.83331 10.625 10.1133 10.625 10.4583V11.7083C10.625 12.0533 10.905 12.3333 11.25 12.3333C11.595 12.3333 11.875 12.0533 11.875 11.7083Z" fill="url(#paint2_linear_63_817)"/>
<path d="M9.09109 7.33331C9.09109 6.80528 8.54902 6.44926 7.46591 5.73721C6.36849 5.01617 5.81926 4.65515 5.41016 4.92016C5 5.18518 5 5.90022 5 7.33331C5 8.7654 5 9.48145 5.40914 9.74646C5.81824 10.0115 6.36849 9.65046 7.46591 8.92941C8.55005 8.21737 9.09109 7.86135 9.09109 7.33331Z" fill="#D49F34"/>
<path d="M9.92446 6.5C9.92446 5.97197 9.3824 5.61595 8.29929 4.9039C7.20186 4.18286 6.65264 3.82183 6.24353 4.08685C5.83337 4.35187 5.83337 5.06691 5.83337 6.5C5.83337 7.93209 5.83337 8.64813 6.24251 8.91315C6.65162 9.17817 7.20186 8.81714 8.29929 8.0961C9.38342 7.38405 9.92446 7.02803 9.92446 6.5Z" fill="url(#paint3_linear_63_817)"/>
</g>
<defs>
<linearGradient id="paint0_linear_63_817" x1="3" y1="14.124" x2="11.469" y2="2.5085" gradientUnits="userSpaceOnUse">
<stop stop-color="#FF8860"/>
<stop offset="1" stop-color="#FBD92C"/>
</linearGradient>
<linearGradient id="paint1_linear_63_817" x1="5.62504" y1="11.3958" x2="5.79238" y2="10.1686" gradientUnits="userSpaceOnUse">
<stop stop-color="#FBD92C"/>
<stop offset="1" stop-color="white"/>
</linearGradient>
<linearGradient id="paint2_linear_63_817" x1="10.9375" y1="11.7083" x2="11.9375" y2="11.2083" gradientUnits="userSpaceOnUse">
<stop stop-color="#FBD92C"/>
<stop offset="1" stop-color="white"/>
</linearGradient>
<linearGradient id="paint3_linear_63_817" x1="6.85615" y1="7.75" x2="9.30666" y2="5.74494" gradientUnits="userSpaceOnUse">
<stop stop-color="#FBD92C"/>
<stop offset="1" stop-color="white"/>
</linearGradient>
<clipPath id="clip0_63_817">
<rect width="16" height="16" fill="white"/>
</clipPath>
</defs>
</svg>
