<svg width="16" height="16" viewBox="0 0 16 16" fill="none" xmlns="http://www.w3.org/2000/svg">
<path fill-rule="evenodd" clip-rule="evenodd" d="M16 5.943V11C16 11.552 15.552 12 15 12C13.896 12 13 12.896 13 14C13 14.552 12.552 15 12 15C12 15 6.101 15 2.943 15C2.162 15 1.414 14.69 0.862 14.138C0.31 13.586 0 12.838 0 12.057C0 9.823 0 6.177 0 3.943C0 3.162 0.31 2.414 0.862 1.862C1.414 1.31 2.162 1 2.943 1C3.727 1 4.587 1 5.195 1C5.976 1 6.724 1.31 7.276 1.862L8.138 2.724C8.315 2.901 8.555 3 8.805 3H13.057C14.683 3 16 4.317 16 5.943ZM16 14C16 14.552 15.552 15 15 15C14.448 15 14 14.552 14 14C14 13.448 14.448 13 15 13C15.552 13 16 13.448 16 14Z" fill="url(#paint0_linear_63_1067)"/>
<path fill-rule="evenodd" clip-rule="evenodd" d="M6.93744 6.20001C6.43239 6.20001 6.02217 6.36407 5.33471 6.63918L4.2473 7.07388L4.23162 7.08018C3.88905 7.21753 3.61153 7.32883 3.42033 7.42917C3.32143 7.48082 3.22621 7.53903 3.15297 7.60971C3.07714 7.68222 3.00023 7.79208 3.00023 7.93974C3.00023 8.08733 3.0775 8.19718 3.15297 8.2697C3.23326 8.34189 3.3231 8.40259 3.41997 8.45023C3.61103 8.55064 3.88771 8.66128 4.22906 8.79785L4.2473 8.80513L5.33471 9.24023L5.33576 9.24069C6.02256 9.51546 6.43226 9.67939 6.93744 9.67939C7.44289 9.67939 7.85304 9.51533 8.53974 9.24023L9.62755 8.80553L9.64323 8.79923C9.9858 8.66187 10.2633 8.55057 10.4546 8.45023C10.5535 8.39859 10.6487 8.34038 10.7219 8.2697C10.7977 8.19718 10.8746 8.08733 10.8746 7.93974C10.8746 7.79208 10.7973 7.68222 10.7219 7.60971C10.6483 7.53903 10.5531 7.48042 10.4549 7.42917C10.2647 7.32922 9.98973 7.21911 9.65091 7.08346L9.62788 7.07427L8.54014 6.63918L8.53909 6.63872C7.85226 6.36394 7.44262 6.20001 6.93744 6.20001ZM3.45869 9.20072L3.45793 9.19961C3.43102 9.17559 3.39966 9.15708 3.3656 9.14514C3.33154 9.13319 3.29544 9.12814 3.25941 9.13018C3.22339 9.13214 3.18808 9.14127 3.15556 9.15695C3.12308 9.17257 3.09394 9.19449 3.06989 9.22139C3.04584 9.2483 3.02733 9.27974 3.01542 9.31379C3.00351 9.34785 2.99842 9.38388 3.00042 9.41998C3.00453 9.49269 3.03734 9.56087 3.09168 9.60944L3.09243 9.61016L3.09427 9.61167L3.09939 9.61606C3.10234 9.61902 3.1067 9.62269 3.11195 9.62702L3.11586 9.6303C3.20623 9.70335 3.30036 9.77153 3.39788 9.83473C3.59345 9.96145 3.8817 10.1241 4.26371 10.2768L5.29248 10.6884L5.33461 10.7052C6.02204 10.9803 6.43226 11.1444 6.93731 11.1444C7.44269 11.1444 7.85252 10.9803 8.53948 10.7054L8.58214 10.6884L9.61094 10.2764C9.91302 10.1573 10.2029 10.0093 10.4764 9.83433C10.5741 9.7712 10.6683 9.70295 10.7588 9.62998L10.7753 9.61567L10.7804 9.61127L10.7822 9.60983L10.7833 9.60911C10.8377 9.56054 10.8705 9.49236 10.8746 9.41958C10.8787 9.3468 10.8537 9.2754 10.8051 9.22107C10.7566 9.16673 10.6884 9.13385 10.6156 9.12978C10.5428 9.12571 10.4714 9.15072 10.4171 9.19928L10.4164 9.2L10.4068 9.20807L10.3636 9.24246C10.3034 9.28859 10.2413 9.33217 10.1776 9.37325C10.0091 9.48271 9.7523 9.62853 9.40659 9.76661L8.37818 10.1779C7.63648 10.4746 7.32555 10.5947 6.93731 10.5947C6.54907 10.5947 6.23781 10.4746 5.49651 10.1779L4.4677 9.76733C4.19874 9.66135 3.94067 9.52964 3.6971 9.37397C3.61474 9.32062 3.53491 9.26248 3.45869 9.20072ZM3.25958 10.6182C3.33203 10.6139 3.4032 10.6385 3.45757 10.6865L3.45869 10.6873L3.46784 10.6946C3.54141 10.7537 3.61792 10.8089 3.6971 10.8602C3.9407 11.0157 4.19877 11.1474 4.4677 11.2531L5.49651 11.6645C6.23781 11.9611 6.54907 12.0813 6.93731 12.0813C7.32555 12.0813 7.63648 11.9611 8.37818 11.6645L9.40659 11.2531C9.7523 11.1151 10.0091 10.9693 10.1776 10.8598C10.2413 10.8188 10.3034 10.7751 10.3636 10.7291L10.4068 10.6946L10.4156 10.6869L10.4171 10.6858C10.4714 10.6378 10.5426 10.6132 10.6151 10.6174C10.6875 10.6216 10.7554 10.6544 10.8037 10.7085C10.8521 10.7626 10.8771 10.8337 10.8733 10.9061C10.8695 10.9786 10.8372 11.0466 10.7833 11.0953L10.7826 11.096L10.7804 11.0979L10.7753 11.1023C10.7698 11.1071 10.7643 11.1119 10.7588 11.1166C10.6683 11.1896 10.5741 11.2577 10.4764 11.3209C10.2029 11.496 9.91308 11.6442 9.61094 11.7633L8.58214 12.175L8.53968 12.1919L8.53581 12.1934C7.85107 12.4675 7.44184 12.6313 6.93731 12.6313C6.43305 12.6313 6.02335 12.4674 5.33789 12.1932L5.33461 12.1919L5.29251 12.175L4.26371 11.7633C3.8817 11.6106 3.59345 11.448 3.39824 11.3213C3.30046 11.2579 3.22611 11.2037 3.17482 11.1646L3.11586 11.1169L3.11195 11.1136C3.1067 11.1092 3.10234 11.1056 3.09939 11.1026L3.09427 11.0982L3.09243 11.0968L3.09171 11.096C3.0379 11.0473 3.00518 10.9794 3.00134 10.9068C2.9975 10.8344 3.02254 10.7633 3.07091 10.7092C3.1193 10.6552 3.18713 10.6224 3.25958 10.6182Z" fill="#8C4FD9"/>
<path fill-rule="evenodd" clip-rule="evenodd" d="M7.86249 5.20001C7.35744 5.20001 6.94722 5.36407 6.25976 5.63918L5.17235 6.07388L5.15667 6.08018C4.8141 6.21753 4.53657 6.32883 4.34538 6.42917C4.24648 6.48082 4.15126 6.53903 4.07802 6.60971C4.00219 6.68222 3.92528 6.79208 3.92528 6.93974C3.92528 7.08733 4.00255 7.19718 4.07802 7.2697C4.15831 7.34189 4.24815 7.40259 4.34502 7.45023C4.53608 7.55064 4.81276 7.66128 5.15411 7.79785L5.17235 7.80513L6.25976 8.24023L6.26081 8.24069C6.94761 8.51546 7.35731 8.67939 7.86249 8.67939C8.36794 8.67939 8.77809 8.51533 9.46479 8.24023L10.5526 7.80553L10.5683 7.79923C10.9108 7.66187 11.1884 7.55057 11.3796 7.45023C11.4785 7.39859 11.5737 7.34038 11.647 7.2697C11.7228 7.19718 11.7997 7.08733 11.7997 6.93974C11.7997 6.79208 11.7224 6.68222 11.647 6.60971C11.5733 6.53903 11.4781 6.48042 11.3799 6.42917C11.1898 6.32922 10.9148 6.21911 10.576 6.08346L10.5529 6.07427L9.46519 5.63918L9.46414 5.63872C8.77731 5.36394 8.36767 5.20001 7.86249 5.20001ZM4.38373 8.20072L4.38298 8.19961C4.35607 8.17559 4.3247 8.15708 4.29064 8.14514C4.25659 8.13319 4.22049 8.12814 4.18446 8.13018C4.14843 8.13214 4.11313 8.14127 4.08061 8.15695C4.04813 8.17257 4.01899 8.19449 3.99494 8.22139C3.97089 8.2483 3.95238 8.27974 3.94047 8.31379C3.92856 8.34785 3.92347 8.38388 3.92547 8.41998C3.92958 8.49269 3.96239 8.56087 4.01673 8.60944L4.01748 8.61016L4.01932 8.61167L4.02444 8.61606C4.02739 8.61902 4.03175 8.62269 4.037 8.62702L4.04091 8.6303C4.13127 8.70335 4.22541 8.77153 4.32293 8.83473C4.5185 8.96145 4.80675 9.12407 5.18876 9.27678L6.21753 9.68844L6.25966 9.70524C6.94709 9.98034 7.35731 10.1444 7.86236 10.1444C8.36774 10.1444 8.77757 9.98035 9.46453 9.70538L9.50719 9.68844L10.536 9.27638C10.8381 9.15734 11.1279 9.00929 11.4015 8.83433C11.4991 8.7712 11.5933 8.70295 11.6838 8.62998L11.7003 8.61567L11.7054 8.61127L11.7073 8.60983L11.7084 8.60911C11.7627 8.56054 11.7955 8.49236 11.7996 8.41958C11.8037 8.3468 11.7787 8.2754 11.7302 8.22107C11.6816 8.16673 11.6134 8.13385 11.5406 8.12978C11.4679 8.12571 11.3965 8.15072 11.3421 8.19928L11.3414 8.2L11.3319 8.20807L11.2886 8.24246C11.2285 8.28859 11.1664 8.33217 11.1026 8.37325C10.9341 8.48271 10.6773 8.62853 10.3316 8.76661L9.30322 9.17788C8.56153 9.47457 8.2506 9.59467 7.86236 9.59467C7.47412 9.59467 7.16286 9.47457 6.42156 9.17788L5.39275 8.76733C5.12379 8.66135 4.86572 8.52964 4.62215 8.37397C4.53979 8.32062 4.45996 8.26248 4.38373 8.20072ZM4.18463 9.61816C4.25708 9.61389 4.32825 9.6385 4.38262 9.68654L4.38373 9.68733L4.39289 9.69461C4.46645 9.75368 4.54297 9.80893 4.62215 9.86019C4.86575 10.0157 5.12382 10.1474 5.39275 10.2531L6.42156 10.6645C7.16286 10.9611 7.47412 11.0813 7.86236 11.0813C8.2506 11.0813 8.56153 10.9611 9.30322 10.6645L10.3316 10.2531C10.6773 10.1151 10.9341 9.96932 11.1026 9.85979C11.1664 9.81878 11.2285 9.77514 11.2886 9.72907L11.3319 9.69461L11.3407 9.68694L11.3421 9.68582C11.3965 9.63778 11.4677 9.61317 11.5401 9.61744C11.6126 9.62164 11.6804 9.65439 11.7288 9.70853C11.7772 9.7626 11.8022 9.83367 11.7984 9.90612C11.7946 9.97857 11.7622 10.0466 11.7084 10.0953L11.7077 10.096L11.7054 10.0979L11.7003 10.1023C11.6949 10.1071 11.6894 10.1119 11.6838 10.1166C11.5933 10.1896 11.4991 10.2577 11.4015 10.3209C11.1279 10.496 10.8381 10.6442 10.536 10.7633L9.50719 11.175L9.46473 11.1919L9.46086 11.1934C8.77612 11.4675 8.36689 11.6313 7.86236 11.6313C7.3581 11.6313 6.9484 11.4674 6.26294 11.1932L6.25966 11.1919L6.21756 11.175L5.18876 10.7633C4.80675 10.6106 4.5185 10.448 4.32329 10.3213C4.22551 10.2579 4.15116 10.2037 4.09987 10.1646L4.04091 10.1169L4.037 10.1136C4.03175 10.1092 4.02739 10.1056 4.02444 10.1026L4.01932 10.0982L4.01748 10.0968L4.01676 10.096C3.96295 10.0473 3.93023 9.97936 3.92639 9.90685C3.92255 9.8344 3.94759 9.76332 3.99595 9.70925C4.04435 9.65517 4.11218 9.62243 4.18463 9.61816Z" fill="url(#paint1_linear_63_1067)"/>
<defs>
<linearGradient id="paint0_linear_63_1067" x1="4" y1="14" x2="13" y2="2" gradientUnits="userSpaceOnUse">
<stop stop-color="#A056FF"/>
<stop offset="1" stop-color="#C59AFD"/>
</linearGradient>
<linearGradient id="paint1_linear_63_1067" x1="5.8938" y1="11.6313" x2="13.2068" y2="8.6465" gradientUnits="userSpaceOnUse">
<stop stop-color="#C59AFD"/>
<stop offset="1" stop-color="white"/>
</linearGradient>
</defs>
</svg>
