<svg width="16" height="16" viewBox="0 0 16 16" fill="none" xmlns="http://www.w3.org/2000/svg">
<path fill-rule="evenodd" clip-rule="evenodd" d="M16 5.943V11C16 11.552 15.552 12 15 12C13.896 12 13 12.896 13 14C13 14.552 12.552 15 12 15C12 15 6.101 15 2.943 15C2.162 15 1.414 14.69 0.862 14.138C0.31 13.586 0 12.838 0 12.057C0 9.823 0 6.177 0 3.943C0 3.162 0.31 2.414 0.862 1.862C1.414 1.31 2.162 1 2.943 1C3.727 1 4.587 1 5.195 1C5.976 1 6.724 1.31 7.276 1.862L8.138 2.724C8.315 2.901 8.555 3 8.805 3H13.057C14.683 3 16 4.317 16 5.943ZM16 14C16 14.552 15.552 15 15 15C14.448 15 14 14.552 14 14C14 13.448 14.448 13 15 13C15.552 13 16 13.448 16 14Z" fill="url(#paint0_linear_63_866)"/>
<path fill-rule="evenodd" clip-rule="evenodd" d="M5.41816 13.2H8.69088C9.14252 13.2 9.50907 12.8335 9.50907 12.3818C9.50907 11.9302 9.14252 11.5636 8.69088 11.5636H5.41816C4.96652 11.5636 4.59998 11.9302 4.59998 12.3818C4.59998 12.8335 4.96652 13.2 5.41816 13.2ZM6.23634 7.95219L5.99661 7.71247C5.67752 7.39337 5.1588 7.39337 4.83971 7.71247C4.52062 8.03156 4.52062 8.55027 4.83971 8.86937L6.47607 10.5057C6.79516 10.8256 7.31388 10.8256 7.63297 10.5057L9.26933 8.86937C9.58843 8.55027 9.58843 8.03156 9.26933 7.71247C8.95024 7.39337 8.43153 7.39337 8.11244 7.71247L7.8727 7.95219V5.83637C7.8727 5.38473 7.50616 5.01819 7.05452 5.01819C6.60288 5.01819 6.23634 5.38473 6.23634 5.83637V7.95219Z" fill="#8CC860"/>
<path fill-rule="evenodd" clip-rule="evenodd" d="M6.23627 12.3818H9.509C9.96064 12.3818 10.3272 12.0152 10.3272 11.5636C10.3272 11.112 9.96064 10.7454 9.509 10.7454H6.23627C5.78464 10.7454 5.41809 11.112 5.41809 11.5636C5.41809 12.0152 5.78464 12.3818 6.23627 12.3818Z" fill="url(#paint1_linear_63_866)"/>
<path fill-rule="evenodd" clip-rule="evenodd" d="M7.05465 7.13401L6.81493 6.89429C6.49584 6.5752 5.97711 6.5752 5.65802 6.89429C5.33893 7.21338 5.33893 7.73211 5.65802 8.0512L7.29438 9.68756C7.61347 10.0075 8.1322 10.0075 8.45129 9.68756L10.0877 8.0512C10.4067 7.73211 10.4067 7.21338 10.0877 6.89429C9.76854 6.5752 9.24984 6.5752 8.93075 6.89429L8.69101 7.13401V5.01819C8.69101 4.56656 8.32447 4.20001 7.87283 4.20001C7.4212 4.20001 7.05465 4.56656 7.05465 5.01819V7.13401Z" fill="url(#paint2_linear_63_866)"/>
<defs>
<linearGradient id="paint0_linear_63_866" x1="1.14286" y1="15" x2="9.89435" y2="0.452068" gradientUnits="userSpaceOnUse">
<stop stop-color="#9BE862"/>
<stop offset="1" stop-color="#C8FF9F"/>
</linearGradient>
<linearGradient id="paint1_linear_63_866" x1="6.03173" y1="12.3818" x2="6.96494" y2="9.9321" gradientUnits="userSpaceOnUse">
<stop stop-color="#C8FF9F"/>
<stop offset="1" stop-color="white"/>
</linearGradient>
<linearGradient id="paint2_linear_63_866" x1="6.03223" y1="9.92749" x2="10.7449" y2="6.39375" gradientUnits="userSpaceOnUse">
<stop stop-color="#C8FF9F"/>
<stop offset="1" stop-color="white"/>
</linearGradient>
</defs>
</svg>
