<svg width="16" height="16" viewBox="0 0 16 16" fill="none" xmlns="http://www.w3.org/2000/svg">
<path fill-rule="evenodd" clip-rule="evenodd" d="M16 5.943V11C16 11.552 15.552 12 15 12C13.896 12 13 12.896 13 14C13 14.552 12.552 15 12 15C12 15 6.101 15 2.943 15C2.162 15 1.414 14.69 0.862 14.138C0.31 13.586 0 12.838 0 12.057C0 9.823 0 6.177 0 3.943C0 3.162 0.31 2.414 0.862 1.862C1.414 1.31 2.162 1 2.943 1C3.727 1 4.587 1 5.195 1C5.976 1 6.724 1.31 7.276 1.862L8.138 2.724C8.315 2.901 8.555 3 8.805 3H13.057C14.683 3 16 4.317 16 5.943ZM16 14C16 14.552 15.552 15 15 15C14.448 15 14 14.552 14 14C14 13.448 14.448 13 15 13C15.552 13 16 13.448 16 14Z" fill="url(#paint0_linear_63_961)"/>
<path fill-rule="evenodd" clip-rule="evenodd" d="M10.8 10.1412C10.8 11.3888 9.77685 12.4 8.51445 12.4H4.51445C3.56765 12.4 2.80005 11.6416 2.80005 10.706C2.80005 9.7704 3.56765 9.012 4.51445 9.0116C4.66062 9.01167 4.78338 8.8662 4.75318 8.72313C4.72148 8.57327 4.70485 8.41807 4.70485 8.2588C4.70485 7.0112 5.72805 6 6.99045 6C8.01818 6 8.88785 6.67073 9.17538 7.59333C9.25205 7.83947 9.42231 8.05187 9.64678 8.1786C10.3357 8.56767 10.8 9.3008 10.8 10.1412Z" fill="#279FD7"/>
<path fill-rule="evenodd" clip-rule="evenodd" d="M11.8 9.1412C11.8 10.3888 10.7768 11.4 9.51445 11.4H5.51445C4.56765 11.4 3.80005 10.6416 3.80005 9.706C3.80005 8.7704 4.56765 8.012 5.51445 8.0116C5.66062 8.01167 5.78338 7.8662 5.75318 7.72313C5.72148 7.57327 5.70485 7.41807 5.70485 7.2588C5.70485 6.0112 6.72805 5 7.99045 5C9.01818 5 9.88785 5.67073 10.1754 6.59333C10.252 6.83947 10.4223 7.05187 10.6468 7.1786C11.3357 7.56767 11.8 8.3008 11.8 9.1412Z" fill="url(#paint1_linear_63_961)"/>
<defs>
<linearGradient id="paint0_linear_63_961" x1="1.6" y1="15.0044" x2="7.08732" y2="1.07902" gradientUnits="userSpaceOnUse">
<stop offset="0.0605141" stop-color="#1CB5FF"/>
<stop offset="0.891783" stop-color="#80DDFF"/>
</linearGradient>
<linearGradient id="paint1_linear_63_961" x1="3.80005" y1="11.4" x2="12.9104" y2="8.55302" gradientUnits="userSpaceOnUse">
<stop stop-color="#6BD6FE"/>
<stop offset="1" stop-color="white"/>
</linearGradient>
</defs>
</svg>
