<svg width="16" height="16" viewBox="0 0 16 16" fill="none" xmlns="http://www.w3.org/2000/svg">
<path fill-rule="evenodd" clip-rule="evenodd" d="M16 5.943V11C16 11.552 15.552 12 15 12C13.896 12 13 12.896 13 14C13 14.552 12.552 15 12 15C12 15 6.101 15 2.943 15C2.162 15 1.414 14.69 0.862 14.138C0.31 13.586 0 12.838 0 12.057C0 9.823 0 6.177 0 3.943C0 3.162 0.31 2.414 0.862 1.862C1.414 1.31 2.162 1 2.943 1C3.727 1 4.587 1 5.195 1C5.976 1 6.724 1.31 7.276 1.862L8.138 2.724C8.315 2.901 8.555 3 8.805 3H13.057C14.683 3 16 4.317 16 5.943ZM16 14C16 14.552 15.552 15 15 15C14.448 15 14 14.552 14 14C14 13.448 14.448 13 15 13C15.552 13 16 13.448 16 14Z" fill="url(#paint0_linear_63_1035)"/>
<path fill-rule="evenodd" clip-rule="evenodd" d="M8.79235 12.6924C9.1 12.3851 9.1 11.8898 9.1 10.9V9.731C8.58305 9.5553 7.8897 9.4125 7 9.4125C6.1103 9.4125 5.41695 9.5553 4.9 9.731V10.9C4.9 11.8898 4.9 12.3851 5.20765 12.6924C5.51495 13 6.0102 13 7 13C7.9898 13 8.48505 13 8.79235 12.6924ZM8.792 6.30765C8.48505 6 7.99015 6 7 6C6.00985 6 5.51495 6 5.2073 6.30765C5.0351 6.47985 4.95915 6.7112 4.9259 7.05525C5.1219 7.05 5.3382 7.05 5.5755 7.05H8.42485C8.66215 7.05 8.87845 7.05 9.0741 7.05525C9.04085 6.7112 8.9642 6.47985 8.792 6.30765ZM3.80765 7.70765C4.11495 7.4 4.6102 7.4 5.6 7.4H8.4C9.3898 7.4 9.88505 7.4 10.1924 7.70765C10.5 8.01495 10.5 8.5102 10.5 9.5C10.5 10.4898 10.5 10.985 10.1924 11.2923C10.0202 11.4649 9.7888 11.5405 9.44475 11.5738C9.45 11.3781 9.45 11.1618 9.45 10.9249V9.8647C9.47258 9.87444 9.49509 9.88436 9.51755 9.89445C9.54917 9.90967 9.58347 9.91837 9.61847 9.92006C9.65347 9.92181 9.68847 9.9165 9.72143 9.90448C9.75433 9.89241 9.78454 9.87392 9.81021 9.85006C9.83587 9.82614 9.85647 9.79738 9.87082 9.76536C9.88517 9.73339 9.89298 9.69886 9.8938 9.6638C9.89456 9.62874 9.88832 9.59392 9.87543 9.56131C9.86253 9.5287 9.84323 9.49901 9.81867 9.47404C9.79411 9.44902 9.76483 9.42913 9.73245 9.41565C9.12975 9.1451 8.232 8.88715 7 8.88715C5.768 8.88715 4.87025 9.1451 4.26755 9.41565C4.20589 9.44528 4.15826 9.49784 4.13478 9.56212C4.1113 9.62641 4.11384 9.69728 4.14187 9.7597C4.16987 9.82212 4.22115 9.87112 4.28476 9.89632C4.34837 9.92146 4.4193 9.92082 4.48245 9.89445L4.55 9.8647V10.9249C4.55 11.1618 4.55 11.3781 4.55525 11.5738C4.2112 11.5409 3.97985 11.4649 3.80765 11.2923C3.5 10.985 3.5 10.4898 3.5 9.5C3.5 8.5102 3.5 8.01495 3.80765 7.70765Z" fill="#279FD7"/>
<path fill-rule="evenodd" clip-rule="evenodd" d="M9.79235 11.6924C10.1 11.3851 10.1 10.8898 10.1 9.9V8.731C9.58305 8.5553 8.8897 8.4125 8 8.4125C7.1103 8.4125 6.41695 8.5553 5.9 8.731V9.9C5.9 10.8898 5.9 11.3851 6.20765 11.6924C6.51495 12 7.0102 12 8 12C8.9898 12 9.48505 12 9.79235 11.6924ZM9.792 5.30765C9.48505 5 8.99015 5 8 5C7.00985 5 6.51495 5 6.2073 5.30765C6.0351 5.47985 5.95915 5.7112 5.9259 6.05525C6.1219 6.05 6.3382 6.05 6.5755 6.05H9.42485C9.66215 6.05 9.87845 6.05 10.0741 6.05525C10.0408 5.7112 9.9642 5.47985 9.792 5.30765ZM4.80765 6.70765C5.11495 6.4 5.6102 6.4 6.6 6.4H9.4C10.3898 6.4 10.8851 6.4 11.1924 6.70765C11.5 7.01495 11.5 7.5102 11.5 8.5C11.5 9.4898 11.5 9.98505 11.1924 10.2923C11.0202 10.4649 10.7888 10.5405 10.4448 10.5738C10.45 10.3781 10.45 10.1618 10.45 9.92485V8.8647C10.4726 8.87444 10.4951 8.88436 10.5175 8.89445C10.5492 8.90967 10.5835 8.91837 10.6185 8.92006C10.6535 8.92181 10.6885 8.9165 10.7214 8.90448C10.7543 8.89241 10.7845 8.87392 10.8102 8.85006C10.8359 8.82614 10.8565 8.79738 10.8708 8.76536C10.8852 8.73339 10.893 8.69886 10.8938 8.6638C10.8946 8.62874 10.8883 8.59392 10.8754 8.56131C10.8625 8.5287 10.8432 8.49901 10.8187 8.47404C10.7941 8.44902 10.7648 8.42913 10.7325 8.41565C10.1298 8.1451 9.232 7.88715 8 7.88715C6.768 7.88715 5.87025 8.1451 5.26755 8.41565C5.20589 8.44528 5.15826 8.49784 5.13478 8.56212C5.1113 8.62641 5.11384 8.69728 5.14187 8.7597C5.16987 8.82212 5.22115 8.87112 5.28476 8.89632C5.34837 8.92146 5.4193 8.92082 5.48245 8.89445L5.55 8.8647V9.92485C5.55 10.1618 5.55 10.3781 5.55525 10.5738C5.2112 10.5409 4.97985 10.4649 4.80765 10.2923C4.5 9.98505 4.5 9.4898 4.5 8.5C4.5 7.5102 4.5 7.01495 4.80765 6.70765Z" fill="url(#paint1_linear_63_1035)"/>
<defs>
<linearGradient id="paint0_linear_63_1035" x1="1.6" y1="15.0044" x2="7.08732" y2="1.07902" gradientUnits="userSpaceOnUse">
<stop offset="0.0605141" stop-color="#1CB5FF"/>
<stop offset="0.891783" stop-color="#80DDFF"/>
</linearGradient>
<linearGradient id="paint1_linear_63_1035" x1="4.5" y1="12" x2="12.7353" y2="9.94118" gradientUnits="userSpaceOnUse">
<stop stop-color="#6BD6FE"/>
<stop offset="1" stop-color="white"/>
</linearGradient>
</defs>
</svg>
