<svg width="16" height="16" viewBox="0 0 16 16" fill="none" xmlns="http://www.w3.org/2000/svg">
<path fill-rule="evenodd" clip-rule="evenodd" d="M16 5.943V11C16 11.552 15.552 12 15 12C13.896 12 13 12.896 13 14C13 14.552 12.552 15 12 15C12 15 6.101 15 2.943 15C2.162 15 1.414 14.69 0.862 14.138C0.31 13.586 0 12.838 0 12.057C0 9.823 0 6.177 0 3.943C0 3.162 0.31 2.414 0.862 1.862C1.414 1.31 2.162 1 2.943 1C3.727 1 4.587 1 5.195 1C5.976 1 6.724 1.31 7.276 1.862L8.138 2.724C8.315 2.901 8.555 3 8.805 3H13.057C14.683 3 16 4.317 16 5.943ZM16 14C16 14.552 15.552 15 15 15C14.448 15 14 14.552 14 14C14 13.448 14.448 13 15 13C15.552 13 16 13.448 16 14Z" fill="url(#paint0_linear_63_917)"/>
<path d="M5.71161 6.16429C6.02186 5.85404 6.44265 5.67975 6.88141 5.67975C7.32018 5.67975 7.74096 5.85404 8.0512 6.16429C8.36145 6.47455 8.53576 6.89534 8.53576 7.3341C8.53576 7.77286 8.36145 8.19365 8.0512 8.5039C7.74096 8.81415 7.32018 8.98844 6.88141 8.98844C6.44265 8.98844 6.02186 8.81415 5.71161 8.5039C5.40136 8.19365 5.22705 7.77286 5.22705 7.3341C5.22705 6.89534 5.40136 6.47455 5.71161 6.16429Z" fill="#8C4FD9"/>
<path d="M5.14503 10.6371C4.63577 10.9926 4.24788 11.4958 4.03374 12.0787C3.98791 12.2037 3.9888 12.3409 4.03623 12.4652C4.08366 12.5896 4.17444 12.6925 4.29182 12.7552C5.08888 13.1797 5.97834 13.4013 6.88144 13.4C7.78452 13.4013 8.67398 13.1797 9.47104 12.7552C9.58842 12.6925 9.6792 12.5896 9.72664 12.4652C9.77407 12.3409 9.77495 12.2037 9.72912 12.0787C9.51498 11.4958 9.12709 10.9926 8.61783 10.6371C8.10857 10.2816 7.50247 10.091 6.88144 10.091C6.26038 10.091 5.65428 10.2816 5.14503 10.6371Z" fill="#8C4FD9"/>
<path d="M6.73541 4.88457C7.04566 4.57432 7.46646 4.40002 7.90522 4.40002C8.34398 4.40002 8.76476 4.57432 9.07501 4.88457C9.38526 5.19483 9.55957 5.61561 9.55957 6.05437C9.55957 6.49313 9.38526 6.91393 9.07501 7.22418C8.76476 7.53443 8.34398 7.70872 7.90522 7.70872C7.46646 7.70872 7.04566 7.53443 6.73541 7.22418C6.42517 6.91393 6.25085 6.49313 6.25085 6.05437C6.25085 5.61561 6.42517 5.19483 6.73541 4.88457Z" fill="url(#paint1_linear_63_917)"/>
<path d="M6.16883 9.35736C5.65957 9.71284 5.27168 10.216 5.05754 10.799C5.01171 10.9239 5.01261 11.0612 5.06003 11.1855C5.10746 11.3099 5.19824 11.4127 5.31562 11.4755C6.11268 11.9 7.00214 12.1215 7.90524 12.1203C8.80832 12.1215 9.69778 11.9 10.4948 11.4755C10.6122 11.4127 10.703 11.3099 10.7504 11.1855C10.7979 11.0612 10.7988 10.9239 10.7529 10.799C10.5388 10.216 10.1509 9.71284 9.64163 9.35736C9.13238 9.00189 8.52628 8.81128 7.90524 8.81128C7.28419 8.81128 6.67809 9.00189 6.16883 9.35736Z" fill="url(#paint2_linear_63_917)"/>
<defs>
<linearGradient id="paint0_linear_63_917" x1="4" y1="14" x2="13" y2="2" gradientUnits="userSpaceOnUse">
<stop stop-color="#A056FF"/>
<stop offset="1" stop-color="#C59AFD"/>
</linearGradient>
<linearGradient id="paint1_linear_63_917" x1="7.07803" y1="7.70872" x2="10.304" y2="6.63338" gradientUnits="userSpaceOnUse">
<stop stop-color="#C59AFD"/>
<stop offset="1" stop-color="white"/>
</linearGradient>
<linearGradient id="paint2_linear_63_917" x1="6.46452" y1="12.1203" x2="11.134" y2="9.40953" gradientUnits="userSpaceOnUse">
<stop stop-color="#C59AFD"/>
<stop offset="1" stop-color="white"/>
</linearGradient>
</defs>
</svg>
