<svg width="16" height="16" viewBox="0 0 16 16" fill="none" xmlns="http://www.w3.org/2000/svg">
<path fill-rule="evenodd" clip-rule="evenodd" d="M16 5.943V11C16 11.552 15.552 12 15 12C13.896 12 13 12.896 13 14C13 14.552 12.552 15 12 15C12 15 6.101 15 2.943 15C2.162 15 1.414 14.69 0.862 14.138C0.31 13.586 0 12.838 0 12.057C0 9.823 0 6.177 0 3.943C0 3.162 0.31 2.414 0.862 1.862C1.414 1.31 2.162 1 2.943 1C3.727 1 4.587 1 5.195 1C5.976 1 6.724 1.31 7.276 1.862L8.138 2.724C8.315 2.901 8.555 3 8.805 3H13.057C14.683 3 16 4.317 16 5.943ZM16 14C16 14.552 15.552 15 15 15C14.448 15 14 14.552 14 14C14 13.448 14.448 13 15 13C15.552 13 16 13.448 16 14Z" fill="url(#paint0_linear_63_832)"/>
<path fill-rule="evenodd" clip-rule="evenodd" d="M8.79813 5.93292C7.8784 5.93292 7.13196 6.67937 7.13196 7.59909C7.13196 8.51882 7.8784 9.26527 8.79813 9.26527C9.71786 9.26527 10.4643 8.51882 10.4643 7.59909C10.4643 6.67937 9.71786 5.93292 8.79813 5.93292ZM8.79813 7.26586C8.98208 7.26586 9.13136 7.41515 9.13136 7.59909C9.13136 7.78304 8.98208 7.93233 8.79813 7.93233C8.61419 7.93233 8.4649 7.78304 8.4649 7.59909C8.4649 7.41515 8.61419 7.26586 8.79813 7.26586Z" fill="#7FD1AE"/>
<path fill-rule="evenodd" clip-rule="evenodd" d="M7.31438 10.8062L6.72522 9.62784C6.40998 8.99736 5.76551 8.59882 5.05972 8.59882C4.47589 8.59882 3.92672 8.8734 3.57616 9.3406C3.00166 10.107 1.93331 11.5313 1.93331 11.5313C1.71271 11.8259 1.77202 12.2437 2.0666 12.4643C2.36118 12.6849 2.77906 12.6256 2.99966 12.331C2.99966 12.331 4.06801 10.9068 4.64251 10.1404C4.74114 10.0091 4.89576 9.93175 5.05972 9.93175C5.26032 9.93175 5.4436 10.0451 5.53291 10.2243L6.20404 11.5659C6.37666 11.9112 6.70456 12.1524 7.08578 12.2144C7.467 12.2757 7.85489 12.1511 8.12747 11.8778L8.7013 11.304C8.72663 11.2787 8.76062 11.2647 8.79661 11.2647H8.79927C8.83526 11.2647 8.86925 11.2787 8.89458 11.304L9.32912 11.7392C9.5897 11.9991 10.0116 11.9991 10.2722 11.7392C10.5321 11.4786 10.5321 11.0568 10.2722 10.7962L9.83696 10.3616C9.56171 10.0864 9.18849 9.93175 8.79927 9.93175H8.79661C8.40739 9.93175 8.03417 10.0864 7.75891 10.3616L7.31438 10.8062Z" fill="#7FD1AE"/>
<path fill-rule="evenodd" clip-rule="evenodd" d="M10.1311 4.59998C9.21141 4.59998 8.46497 5.34642 8.46497 6.26615C8.46497 7.18588 9.21141 7.93232 10.1311 7.93232C11.0509 7.93232 11.7973 7.18588 11.7973 6.26615C11.7973 5.34642 11.0509 4.59998 10.1311 4.59998ZM10.1311 5.93291C10.3151 5.93291 10.4644 6.0822 10.4644 6.26615C10.4644 6.45009 10.3151 6.59938 10.1311 6.59938C9.94719 6.59938 9.7979 6.45009 9.7979 6.26615C9.7979 6.0822 9.94719 5.93291 10.1311 5.93291Z" fill="url(#paint1_linear_63_832)"/>
<path fill-rule="evenodd" clip-rule="evenodd" d="M8.64727 9.47321L8.05811 8.2949C7.74287 7.66442 7.09839 7.26587 6.3926 7.26587C5.80877 7.26587 5.2596 7.54045 4.90904 8.00765C4.33455 8.77409 3.2662 10.1983 3.2662 10.1983C3.04559 10.4929 3.10491 10.9108 3.39949 11.1314C3.69407 11.352 4.11194 11.2927 4.33255 10.9981C4.33255 10.9981 5.4009 9.57385 5.97539 8.80741C6.07403 8.67612 6.22865 8.59881 6.3926 8.59881C6.59321 8.59881 6.77649 8.71211 6.86579 8.89139L7.53693 10.233C7.70954 10.5782 8.03745 10.8195 8.41867 10.8815C8.79989 10.9428 9.18777 10.8181 9.46036 10.5449L10.0342 9.97107C10.0595 9.94574 10.0935 9.93174 10.1295 9.93174H10.1322C10.1681 9.93174 10.2021 9.94574 10.2275 9.97107L10.662 10.4063C10.9226 10.6662 11.3445 10.6662 11.6051 10.4063C11.865 10.1457 11.865 9.72381 11.6051 9.46322L11.1699 9.02868C10.8946 8.75343 10.5214 8.59881 10.1322 8.59881H10.1295C9.74027 8.59881 9.36705 8.75343 9.0918 9.02868L8.64727 9.47321Z" fill="url(#paint2_linear_63_832)"/>
<defs>
<linearGradient id="paint0_linear_63_832" x1="2" y1="13.2504" x2="16.7438" y2="9.36204" gradientUnits="userSpaceOnUse">
<stop stop-color="#62E8AF"/>
<stop offset="1" stop-color="#B3FBDC"/>
</linearGradient>
<linearGradient id="paint1_linear_63_832" x1="8.46497" y1="7.93232" x2="9.44507" y2="4.01191" gradientUnits="userSpaceOnUse">
<stop stop-color="#B3FBDC"/>
<stop offset="1" stop-color="white"/>
</linearGradient>
<linearGradient id="paint2_linear_63_832" x1="3.13293" y1="11.2646" x2="3.70191" y2="6.3318" gradientUnits="userSpaceOnUse">
<stop stop-color="#B3FBDC"/>
<stop offset="1" stop-color="white"/>
</linearGradient>
</defs>
</svg>
