<svg width="16" height="16" viewBox="0 0 16 16" fill="none" xmlns="http://www.w3.org/2000/svg">
<path fill-rule="evenodd" clip-rule="evenodd" d="M16 5.943V11C16 11.552 15.552 12 15 12C13.896 12 13 12.896 13 14C13 14.552 12.552 15 12 15C12 15 6.101 15 2.943 15C2.162 15 1.414 14.69 0.862 14.138C0.31 13.586 0 12.838 0 12.057C0 9.823 0 6.177 0 3.943C0 3.162 0.31 2.414 0.862 1.862C1.414 1.31 2.162 1 2.943 1C3.727 1 4.587 1 5.195 1C5.976 1 6.724 1.31 7.276 1.862L8.138 2.724C8.315 2.901 8.555 3 8.805 3H13.057C14.683 3 16 4.317 16 5.943ZM16 14C16 14.552 15.552 15 15 15C14.448 15 14 14.552 14 14C14 13.448 14.448 13 15 13C15.552 13 16 13.448 16 14Z" fill="url(#paint0_radial_63_1053)"/>
<path opacity="0.7" fill-rule="evenodd" clip-rule="evenodd" d="M6.26665 6.9536L6.06591 6.8116C5.77931 6.6088 5.43695 6.49997 5.08595 6.5H4.84115C4.67918 6.5 4.51598 6.51 4.36358 6.564C3.41045 6.9024 2.75488 8.13793 2.80248 10.9409C2.81208 11.5057 2.94408 12.1297 3.45365 12.3733C3.62748 12.4568 3.81795 12.5001 4.01081 12.4997C4.22758 12.5032 4.44058 12.4424 4.62278 12.3249C4.78675 12.2177 4.93075 12.0785 5.07475 11.9393C5.25231 11.7673 5.42991 11.5953 5.64431 11.4841C5.87791 11.363 6.13718 11.2997 6.40025 11.2997H7.19985C7.46298 11.2997 7.72218 11.3629 7.95578 11.4837C8.16931 11.5949 8.34631 11.7659 8.52358 11.9372L8.52571 11.9393C8.66965 12.0785 8.81371 12.2177 8.97691 12.3249C9.13291 12.4273 9.33491 12.4997 9.58931 12.4997C9.78218 12.5001 9.97265 12.4568 10.1464 12.3733C10.656 12.1297 10.788 11.5053 10.7976 10.9409C10.8452 8.13793 10.1896 6.9024 9.23651 6.5644C9.08371 6.51 8.91971 6.5 8.75851 6.5H8.51371C8.16265 6.50007 7.82031 6.60907 7.53378 6.812L7.33298 6.9536C7.17711 7.06387 6.99085 7.12313 6.79985 7.12313C6.60885 7.12313 6.42258 7.06387 6.26665 6.9536ZM9.00171 7.95453C9.09638 7.95453 9.18718 7.99213 9.25418 8.05913C9.32111 8.12607 9.35871 8.21687 9.35871 8.3116C9.35871 8.40627 9.32111 8.49707 9.25418 8.564C9.18718 8.631 9.09638 8.6686 9.00171 8.6686C8.90698 8.6686 8.81618 8.631 8.74925 8.564C8.68231 8.49707 8.64465 8.40627 8.64465 8.3116C8.64465 8.21687 8.68231 8.12607 8.74925 8.05913C8.81618 7.99213 8.90698 7.95453 9.00171 7.95453ZM4.59838 8.07353C4.69308 8.07353 4.78388 8.1112 4.85085 8.17813C4.91781 8.24507 4.95541 8.33587 4.95541 8.4306V8.7876H5.31245C5.40711 8.7876 5.49791 8.8252 5.56491 8.8922C5.63185 8.95913 5.66945 9.04993 5.66945 9.1446C5.66945 9.23933 5.63185 9.33013 5.56491 9.39707C5.49791 9.46407 5.40711 9.50167 5.31245 9.50167H4.95541V9.85867C4.95541 9.95333 4.91781 10.0442 4.85085 10.1111C4.78388 10.1781 4.69308 10.2157 4.59838 10.2157C4.50371 10.2157 4.41288 10.1781 4.34595 10.1111C4.27898 10.0442 4.24138 9.95333 4.24138 9.85867V9.50167H3.88435C3.78965 9.50167 3.69885 9.46407 3.63188 9.39707C3.56495 9.33013 3.52731 9.23933 3.52731 9.1446C3.52731 9.04993 3.56495 8.95913 3.63188 8.8922C3.69885 8.8252 3.78965 8.7876 3.88435 8.7876H4.24138V8.4306C4.24138 8.33587 4.27898 8.24507 4.34595 8.17813C4.41288 8.1112 4.50371 8.07353 4.59838 8.07353ZM10.0728 9.0256C10.0728 9.12033 10.0352 9.21113 9.96818 9.27807C9.90125 9.345 9.81045 9.38267 9.71571 9.38267C9.62105 9.38267 9.53025 9.345 9.46331 9.27807C9.39631 9.21113 9.35871 9.12033 9.35871 9.0256C9.35871 8.93093 9.39631 8.84013 9.46331 8.77313C9.53025 8.7062 9.62105 8.6686 9.71571 8.6686C9.81045 8.6686 9.90125 8.7062 9.96818 8.77313C10.0352 8.84013 10.0728 8.93093 10.0728 9.0256ZM8.28765 9.38267C8.38231 9.38267 8.47311 9.345 8.54011 9.27807C8.60705 9.21113 8.64465 9.12033 8.64465 9.0256C8.64465 8.93093 8.60705 8.84013 8.54011 8.77313C8.47311 8.7062 8.38231 8.6686 8.28765 8.6686C8.19298 8.6686 8.10211 8.7062 8.03518 8.77313C7.96825 8.84013 7.93065 8.93093 7.93065 9.0256C7.93065 9.12033 7.96825 9.21113 8.03518 9.27807C8.10211 9.345 8.19298 9.38267 8.28765 9.38267ZM9.35871 9.73967C9.35871 9.645 9.32111 9.5542 9.25418 9.4872C9.18718 9.42027 9.09638 9.38267 9.00171 9.38267C8.90698 9.38267 8.81618 9.42027 8.74925 9.4872C8.68231 9.5542 8.64465 9.645 8.64465 9.73967C8.64465 9.83433 8.68231 9.9252 8.74925 9.99213C8.81618 10.0591 8.90698 10.0967 9.00171 10.0967C9.09638 10.0967 9.18718 10.0591 9.25418 9.99213C9.32111 9.9252 9.35871 9.83433 9.35871 9.73967Z" fill="#D0234C"/>
<path fill-rule="evenodd" clip-rule="evenodd" d="M7.26665 5.9536L7.06591 5.8116C6.77931 5.6088 6.43695 5.49997 6.08595 5.5H5.84115C5.67918 5.5 5.51598 5.51 5.36358 5.564C4.41045 5.9024 3.75488 7.13793 3.80248 9.94093C3.81208 10.5057 3.94408 11.1297 4.45365 11.3733C4.62748 11.4568 4.81795 11.5001 5.01081 11.4997C5.22758 11.5032 5.44058 11.4424 5.62278 11.3249C5.78675 11.2177 5.93075 11.0785 6.07475 10.9393C6.25231 10.7673 6.42991 10.5953 6.64431 10.4841C6.87791 10.363 7.13718 10.2997 7.40025 10.2997H8.19985C8.46298 10.2997 8.72218 10.3629 8.95578 10.4837C9.16931 10.5949 9.34631 10.7659 9.52358 10.9372L9.52571 10.9393C9.66965 11.0785 9.81371 11.2177 9.97691 11.3249C10.1329 11.4273 10.3349 11.4997 10.5893 11.4997C10.7822 11.5001 10.9726 11.4568 11.1464 11.3733C11.656 11.1297 11.788 10.5053 11.7976 9.94093C11.8452 7.13793 11.1896 5.9024 10.2365 5.5644C10.0837 5.51 9.91971 5.5 9.75851 5.5H9.51371C9.16265 5.50007 8.82031 5.60907 8.53378 5.812L8.33298 5.9536C8.17711 6.06387 7.99085 6.12313 7.79985 6.12313C7.60885 6.12313 7.42258 6.06387 7.26665 5.9536ZM10.0017 6.95453C10.0964 6.95453 10.1872 6.99213 10.2542 7.05913C10.3211 7.12607 10.3587 7.21687 10.3587 7.3116C10.3587 7.40627 10.3211 7.49707 10.2542 7.564C10.1872 7.631 10.0964 7.6686 10.0017 7.6686C9.90698 7.6686 9.81618 7.631 9.74925 7.564C9.68231 7.49707 9.64465 7.40627 9.64465 7.3116C9.64465 7.21687 9.68231 7.12607 9.74925 7.05913C9.81618 6.99213 9.90698 6.95453 10.0017 6.95453ZM5.59838 7.07353C5.69308 7.07353 5.78388 7.1112 5.85085 7.17813C5.91781 7.24507 5.95541 7.33587 5.95541 7.4306V7.7876H6.31245C6.40711 7.7876 6.49791 7.8252 6.56491 7.8922C6.63185 7.95913 6.66945 8.04993 6.66945 8.1446C6.66945 8.23933 6.63185 8.33013 6.56491 8.39707C6.49791 8.46407 6.40711 8.50167 6.31245 8.50167H5.95541V8.85867C5.95541 8.95333 5.91781 9.0442 5.85085 9.11113C5.78388 9.17807 5.69308 9.21573 5.59838 9.21573C5.50371 9.21573 5.41288 9.17807 5.34595 9.11113C5.27898 9.0442 5.24138 8.95333 5.24138 8.85867V8.50167H4.88435C4.78965 8.50167 4.69885 8.46407 4.63188 8.39707C4.56495 8.33013 4.52731 8.23933 4.52731 8.1446C4.52731 8.04993 4.56495 7.95913 4.63188 7.8922C4.69885 7.8252 4.78965 7.7876 4.88435 7.7876H5.24138V7.4306C5.24138 7.33587 5.27898 7.24507 5.34595 7.17813C5.41288 7.1112 5.50371 7.07353 5.59838 7.07353ZM11.0728 8.0256C11.0728 8.12033 11.0352 8.21113 10.9682 8.27807C10.9012 8.345 10.8104 8.38267 10.7157 8.38267C10.621 8.38267 10.5302 8.345 10.4633 8.27807C10.3963 8.21113 10.3587 8.12033 10.3587 8.0256C10.3587 7.93093 10.3963 7.84013 10.4633 7.77313C10.5302 7.7062 10.621 7.6686 10.7157 7.6686C10.8104 7.6686 10.9012 7.7062 10.9682 7.77313C11.0352 7.84013 11.0728 7.93093 11.0728 8.0256ZM9.28765 8.38267C9.38231 8.38267 9.47311 8.345 9.54011 8.27807C9.60705 8.21113 9.64465 8.12033 9.64465 8.0256C9.64465 7.93093 9.60705 7.84013 9.54011 7.77313C9.47311 7.7062 9.38231 7.6686 9.28765 7.6686C9.19298 7.6686 9.10211 7.7062 9.03518 7.77313C8.96825 7.84013 8.93065 7.93093 8.93065 8.0256C8.93065 8.12033 8.96825 8.21113 9.03518 8.27807C9.10211 8.345 9.19298 8.38267 9.28765 8.38267ZM10.3587 8.73967C10.3587 8.645 10.3211 8.5542 10.2542 8.4872C10.1872 8.42027 10.0964 8.38267 10.0017 8.38267C9.90698 8.38267 9.81618 8.42027 9.74925 8.4872C9.68231 8.5542 9.64465 8.645 9.64465 8.73967C9.64465 8.83433 9.68231 8.9252 9.74925 8.99213C9.81618 9.05907 9.90698 9.09667 10.0017 9.09667C10.0964 9.09667 10.1872 9.05907 10.2542 8.99213C10.3211 8.9252 10.3587 8.83433 10.3587 8.73967Z" fill="url(#paint1_linear_63_1053)"/>
<defs>
<radialGradient id="paint0_radial_63_1053" cx="0" cy="0" r="1" gradientUnits="userSpaceOnUse" gradientTransform="translate(22.5 -5) rotate(141.605) scale(33.812 28.9481)">
<stop stop-color="#FFF44F"/>
<stop offset="0.06" stop-color="#FFE847"/>
<stop offset="0.168" stop-color="#FFC830"/>
<stop offset="0.304" stop-color="#FF980E"/>
<stop offset="0.447651" stop-color="#FF8B16"/>
<stop offset="0.505622" stop-color="#FF672A"/>
<stop offset="0.617049" stop-color="#FF3647"/>
<stop offset="0.83341" stop-color="#E31587"/>
</radialGradient>
<linearGradient id="paint1_linear_63_1053" x1="6.08486" y1="11.4997" x2="7.65667" y2="6.50984" gradientUnits="userSpaceOnUse">
<stop stop-color="#FF8860"/>
<stop offset="1" stop-color="white"/>
</linearGradient>
</defs>
</svg>
