<svg width="16" height="16" viewBox="0 0 16 16" fill="none" xmlns="http://www.w3.org/2000/svg">
<path fill-rule="evenodd" clip-rule="evenodd" d="M16 5.943V11C16 11.552 15.552 12 15 12C13.896 12 13 12.896 13 14C13 14.552 12.552 15 12 15C12 15 6.101 15 2.943 15C2.162 15 1.414 14.69 0.862 14.138C0.31 13.586 0 12.838 0 12.057C0 9.823 0 6.177 0 3.943C0 3.162 0.31 2.414 0.862 1.862C1.414 1.31 2.162 1 2.943 1C3.727 1 4.587 1 5.195 1C5.976 1 6.724 1.31 7.276 1.862L8.138 2.724C8.315 2.901 8.555 3 8.805 3H13.057C14.683 3 16 4.317 16 5.943ZM16 14C16 14.552 15.552 15 15 15C14.448 15 14 14.552 14 14C14 13.448 14.448 13 15 13C15.552 13 16 13.448 16 14Z" fill="url(#paint0_linear_63_998)"/>
<path fill-rule="evenodd" clip-rule="evenodd" d="M5.69676 6.78733C5.786 6.6354 5.62108 6.32332 5.45544 6.3834C4.98065 6.55562 4.54439 6.83071 4.18041 7.19469C4.06812 7.30698 3.96429 7.42616 3.86934 7.55121L4.04406 7.3577C4.10331 7.29209 4.2041 7.28732 4.27403 7.3414C4.2839 7.34902 4.29388 7.35661 4.30399 7.36415C4.53202 7.53509 4.81128 7.68009 5.12675 7.79349C5.21377 7.82478 5.30701 7.77187 5.33199 7.68283C5.42895 7.33722 5.55198 7.03383 5.69676 6.78733ZM3.98913 7.68394C3.9148 7.62573 3.8054 7.63595 3.75274 7.71431C3.442 8.17657 3.24581 8.70805 3.18266 9.26413C3.1722 9.35617 3.24594 9.4345 3.33857 9.4345H4.93054C5.01758 9.4345 5.08857 9.36508 5.09232 9.27812C5.10514 8.98184 5.13286 8.69605 5.17416 8.42546C5.18638 8.34542 5.13865 8.26816 5.06192 8.2423C4.6705 8.11036 4.32179 7.93413 4.03679 7.72042C4.02075 7.70842 4.00487 7.69626 3.98913 7.68394ZM3.33859 9.87982C3.24594 9.87982 3.17222 9.95814 3.18266 10.0502C3.24597 10.6076 3.44296 11.1403 3.75503 11.6034C3.80776 11.6816 3.9171 11.6917 3.99126 11.6334C4.00623 11.6216 4.02141 11.6099 4.03679 11.5984C4.32196 11.3847 4.67089 11.2085 5.06258 11.0766C5.13938 11.0507 5.18712 10.9734 5.17485 10.8933C5.13318 10.6214 5.1052 10.3341 5.09234 10.0362C5.08857 9.94923 5.01758 9.87982 4.93054 9.87982H3.33859ZM3.89662 11.7985C3.98409 11.9107 4.07878 12.018 4.18041 12.1196C4.54439 12.4836 4.98065 12.7587 5.45544 12.9309C5.62108 12.991 5.786 12.6789 5.69676 12.5269C5.55259 12.2815 5.42998 11.9796 5.33321 11.6358C5.30816 11.5469 5.21502 11.494 5.12805 11.5252C4.81205 11.6387 4.53233 11.7839 4.30399 11.9551C4.29386 11.9625 4.28385 11.9701 4.27399 11.9776C4.20393 12.0314 4.10332 12.0268 4.04404 11.9614L3.89662 11.7985ZM7.58897 12.5269C7.49974 12.6788 7.66463 12.991 7.83028 12.9309C8.30507 12.7587 8.74132 12.4836 9.10531 12.1196C9.12971 12.0952 9.15371 12.0705 9.17729 12.0454C9.24199 11.9768 9.22816 11.8674 9.14766 11.8182C9.12485 11.8042 9.10158 11.7905 9.07792 11.7769C8.8152 11.6266 8.50913 11.5047 8.17395 11.4159C8.08842 11.3932 8.00264 11.4474 7.98034 11.533C7.87967 11.9196 7.74733 12.2573 7.58897 12.5269ZM9.40715 12.0297C9.41577 12.0197 9.43091 12.0183 9.44109 12.0268C9.45138 12.0353 9.46663 12.0341 9.47534 12.0239L9.72259 11.7348C9.73717 11.7178 9.73512 11.6921 9.71779 11.6778C9.70169 11.6646 9.69801 11.6413 9.70926 11.6238C10.0827 11.0414 10.2857 10.3597 10.2857 9.65714C10.2857 8.95544 10.0833 8.27461 9.71069 7.69274C9.69978 7.67569 9.70344 7.65307 9.71901 7.64015C9.73576 7.62628 9.73757 7.60148 9.72344 7.58495L9.47434 7.29369C9.46618 7.28413 9.45182 7.28299 9.44214 7.29101C9.43255 7.29899 9.41837 7.29765 9.41025 7.28819C9.34934 7.21701 9.28547 7.14797 9.21875 7.08125C8.53557 6.39808 7.609 6.01428 6.64286 6.01428C5.67672 6.01428 4.75014 6.39808 4.06697 7.08125C3.3838 7.76442 3 8.691 3 9.65714C3 10.6233 3.3838 11.5499 4.06697 12.233C4.75014 12.9162 5.67672 13.3 6.64286 13.3C7.609 13.3 8.53557 12.9162 9.21875 12.233C9.28433 12.1674 9.34715 12.0996 9.40715 12.0297ZM9.15141 7.49901C9.23156 7.44997 9.24506 7.34095 9.18071 7.27248C9.15602 7.2462 9.13088 7.22026 9.10531 7.19469C8.74132 6.83071 8.30507 6.55562 7.83028 6.3834C7.66463 6.32332 7.49974 6.63545 7.58899 6.78739C7.74793 7.05802 7.88067 7.39722 7.98147 7.78558C8.00372 7.87129 8.08958 7.92554 8.17515 7.90283C8.50986 7.81398 8.81552 7.6922 9.07792 7.54228C9.10267 7.52827 9.12717 7.51385 9.15141 7.49901ZM9.65099 7.90259C9.60498 7.82369 9.50125 7.8045 9.42405 7.85332C9.38352 7.87895 9.34191 7.90397 9.29925 7.92838C8.99233 8.10397 8.63711 8.24398 8.25049 8.34338C8.16856 8.36445 8.1148 8.44367 8.12638 8.52746C8.15953 8.76754 8.18218 9.01881 8.19338 9.27812C8.19715 9.36508 8.26814 9.4345 8.35517 9.4345H9.94713C10.0398 9.4345 10.1135 9.35619 10.103 9.26413C10.0483 8.78212 9.89362 8.31858 9.65099 7.90259ZM9.94713 9.87982C10.0398 9.87982 10.1135 9.95812 10.103 10.0502C10.0482 10.5334 9.89282 10.9981 9.64913 11.4149C9.60302 11.4938 9.49926 11.5127 9.42204 11.4639C9.38173 11.4384 9.34078 11.4139 9.29925 11.3904C8.99217 11.2149 8.63674 11.075 8.24988 10.9756C8.16788 10.9545 8.11411 10.8752 8.12574 10.7914C8.15924 10.5499 8.1821 10.2971 8.19338 10.0362C8.19715 9.94923 8.26814 9.87982 8.35517 9.87982H9.94713ZM5.7964 10.8908C5.7068 10.9067 5.61996 10.8479 5.6069 10.7578C5.57414 10.5317 5.55086 10.2928 5.53885 10.0446C5.53448 9.9544 5.60719 9.87982 5.69751 9.87982H7.58819C7.67853 9.87982 7.75122 9.95438 7.74687 10.0446C7.73582 10.2732 7.71518 10.4939 7.68639 10.704C7.67451 10.7906 7.5939 10.8497 7.50701 10.8399C7.28533 10.8146 7.05774 10.8017 6.82677 10.8017C6.47203 10.8017 6.12552 10.8324 5.7964 10.8908ZM5.79574 8.42828C5.70609 8.41235 5.61919 8.47124 5.60619 8.56136C5.5738 8.78604 5.55076 9.02325 5.53885 9.26969C5.53448 9.35991 5.60717 9.4345 5.69751 9.4345H7.5882C7.67854 9.4345 7.75123 9.35991 7.74687 9.26969C7.7359 9.04287 7.71551 8.82385 7.68708 8.61525C7.67525 8.52853 7.59459 8.46937 7.50764 8.47927C7.28576 8.50455 7.05797 8.51756 6.82677 8.51756C6.47179 8.51756 6.12507 8.48681 5.79574 8.42828ZM6.64286 6.53983C6.9838 6.53983 7.32308 7.05541 7.53586 7.85069C7.56027 7.94197 7.49777 8.03285 7.40379 8.04261C7.21569 8.06213 7.02272 8.07222 6.82677 8.07222C6.50121 8.07222 6.18432 8.04434 5.88467 7.99182C5.79531 7.97614 5.73938 7.88731 5.76372 7.79993C5.97719 7.03352 6.30923 6.53983 6.64286 6.53983ZM6.82677 11.247C7.02226 11.247 7.21477 11.257 7.40247 11.2764C7.49653 11.2861 7.55907 11.3771 7.53456 11.4685C7.3217 12.261 6.9831 12.7744 6.64286 12.7744C6.30993 12.7744 5.97858 12.2828 5.76507 11.5192C5.74062 11.4317 5.79658 11.3428 5.886 11.3272C6.18526 11.2748 6.50169 11.247 6.82677 11.247Z" fill="#8C4FD9" stroke="#8C4FD9" stroke-width="0.4"/>
<path fill-rule="evenodd" clip-rule="evenodd" d="M6.91111 5.57303C7.00036 5.42111 6.83544 5.10902 6.66979 5.1691C6.195 5.34133 5.75875 5.61641 5.39476 5.9804C5.28248 6.09268 5.17865 6.21186 5.08369 6.33692L5.25841 6.14341C5.31766 6.07779 5.41846 6.07303 5.48839 6.12711C5.49826 6.13473 5.50824 6.14232 5.51834 6.14986C5.74638 6.3208 6.02564 6.46579 6.34111 6.5792C6.42812 6.61048 6.52136 6.55757 6.54634 6.46854C6.64331 6.12292 6.76634 5.81953 6.91111 5.57303ZM5.20348 6.46964C5.12916 6.41144 5.01976 6.42166 4.96709 6.50001C4.65635 6.96227 4.46017 7.49376 4.39702 8.04984C4.38656 8.14188 4.46029 8.2202 4.55293 8.2202H6.1449C6.23193 8.2202 6.30292 8.15078 6.30668 8.06383C6.3195 7.76755 6.34722 7.48176 6.38851 7.21116C6.40074 7.13112 6.35301 7.05386 6.27628 7.028C5.88486 6.89606 5.53615 6.71983 5.25115 6.50612C5.2351 6.49412 5.21922 6.48196 5.20348 6.46964ZM4.55294 8.66552C4.46029 8.66552 4.38658 8.74384 4.39702 8.83588C4.46033 9.39331 4.65732 9.92603 4.96939 10.3891C5.02212 10.4673 5.13145 10.4774 5.20562 10.4191C5.22059 10.4073 5.23576 10.3956 5.25115 10.3841C5.53631 10.1704 5.88525 9.9942 6.27693 9.86231C6.35373 9.83645 6.40148 9.75912 6.3892 9.67902C6.34754 9.40711 6.31956 9.11981 6.30669 8.82188C6.30292 8.73494 6.23193 8.66552 6.1449 8.66552H4.55294ZM5.11098 10.5842C5.19845 10.6964 5.29313 10.8037 5.39476 10.9053C5.75875 11.2693 6.195 11.5444 6.66979 11.7166C6.83544 11.7767 7.00036 11.4646 6.91111 11.3126C6.76695 11.0672 6.64433 10.7653 6.54756 10.4215C6.52252 10.3326 6.42937 10.2797 6.34241 10.311C6.02641 10.4244 5.74668 10.5696 5.51834 10.7408C5.50822 10.7482 5.49821 10.7558 5.48834 10.7633C5.41828 10.8171 5.31768 10.8125 5.2584 10.7471L5.11098 10.5842ZM8.80333 11.3126C8.7141 11.4645 8.87899 11.7767 9.04463 11.7166C9.51942 11.5444 9.95568 11.2693 10.3197 10.9053C10.3441 10.8809 10.3681 10.8562 10.3916 10.8311C10.4563 10.7625 10.4425 10.6531 10.362 10.6039C10.3392 10.59 10.3159 10.5762 10.2923 10.5626C10.0296 10.4123 9.72349 10.2904 9.3883 10.2016C9.30278 10.1789 9.217 10.2331 9.1947 10.3187C9.09403 10.7053 8.96169 11.043 8.80333 11.3126ZM10.6215 10.8154C10.6301 10.8054 10.6453 10.804 10.6554 10.8125C10.6657 10.8211 10.681 10.8198 10.6897 10.8096L10.9369 10.5205C10.9515 10.5035 10.9495 10.4778 10.9321 10.4635C10.916 10.4503 10.9124 10.427 10.9236 10.4095C11.2971 9.82713 11.5001 9.14545 11.5001 8.44285C11.5001 7.74114 11.2976 7.06031 10.925 6.47845C10.9141 6.4614 10.9178 6.43878 10.9334 6.42586C10.9501 6.41198 10.9519 6.38718 10.9378 6.37066L10.6887 6.0794C10.6805 6.06984 10.6662 6.0687 10.6565 6.07672C10.6469 6.08469 10.6327 6.08336 10.6246 6.07389C10.5637 6.00271 10.4998 5.93368 10.4331 5.86696C9.74993 5.18378 8.82335 4.79999 7.85721 4.79999C6.89107 4.79999 5.9645 5.18378 5.28132 5.86696C4.59815 6.55013 4.21436 7.47671 4.21436 8.44285C4.21436 9.40898 4.59815 10.3356 5.28132 11.0187C5.9645 11.7019 6.89107 12.0857 7.85721 12.0857C8.82335 12.0857 9.74993 11.7019 10.4331 11.0187C10.4987 10.9531 10.5615 10.8853 10.6215 10.8154ZM10.3658 6.28471C10.4459 6.23567 10.4594 6.12666 10.3951 6.05819C10.3704 6.03191 10.3452 6.00597 10.3197 5.9804C9.95568 5.61641 9.51942 5.34133 9.04463 5.1691C8.87899 5.10902 8.7141 5.42115 8.80335 5.5731C8.96228 5.84373 9.09502 6.18292 9.19582 6.57129C9.21807 6.65699 9.30393 6.71125 9.38951 6.68853C9.72421 6.59969 10.0299 6.4779 10.2923 6.32798C10.317 6.31398 10.3415 6.29955 10.3658 6.28471ZM10.8653 6.68829C10.8193 6.60939 10.7156 6.5902 10.6384 6.63902C10.5979 6.66466 10.5563 6.68967 10.5136 6.71409C10.2067 6.88968 9.85146 7.02969 9.46484 7.12909C9.38291 7.15015 9.32915 7.22937 9.34074 7.31316C9.37388 7.55325 9.39653 7.80451 9.40773 8.06383C9.4115 8.15078 9.48249 8.2202 9.56952 8.2202H11.1615C11.2541 8.2202 11.3278 8.14189 11.3174 8.04984C11.2627 7.56783 11.108 7.10429 10.8653 6.68829ZM11.1615 8.66552C11.2541 8.66552 11.3278 8.74383 11.3174 8.83587C11.2625 9.31911 11.1072 9.78378 10.8635 10.2006C10.8174 10.2795 10.7136 10.2984 10.6364 10.2496C10.5961 10.2241 10.5551 10.1996 10.5136 10.1761C10.2065 10.0006 9.85109 9.86066 9.46424 9.7613C9.38224 9.74025 9.32846 9.66095 9.34009 9.5771C9.37359 9.33565 9.39645 9.08285 9.40773 8.82189C9.4115 8.73494 9.48249 8.66552 9.56952 8.66552H11.1615ZM7.01075 9.6765C6.92115 9.6924 6.83431 9.63357 6.82126 9.54352C6.7885 9.31741 6.76522 9.07855 6.7532 8.83033C6.74884 8.7401 6.82154 8.66552 6.91187 8.66552H8.80254C8.89288 8.66552 8.96557 8.74009 8.96122 8.83033C8.95017 9.05894 8.92954 9.27961 8.90074 9.4897C8.88887 9.57634 8.80825 9.63545 8.72137 9.62556C8.49968 9.60034 8.2721 9.58737 8.04113 9.58737C7.68639 9.58737 7.33988 9.61807 7.01075 9.6765ZM7.0101 7.21399C6.92045 7.19806 6.83354 7.25695 6.82055 7.34706C6.78816 7.57174 6.76512 7.80896 6.7532 8.05539C6.74884 8.14562 6.82153 8.2202 6.91187 8.2202H8.80256C8.8929 8.2202 8.96559 8.14562 8.96122 8.05539C8.95025 7.82858 8.92986 7.60956 8.90143 7.40095C8.88961 7.31424 8.80894 7.25507 8.72199 7.26497C8.50012 7.29025 8.27232 7.30327 8.04113 7.30327C7.68615 7.30327 7.33943 7.27251 7.0101 7.21399ZM7.85721 5.32554C8.19816 5.32554 8.53743 5.84111 8.75021 6.63639C8.77463 6.72768 8.71213 6.81856 8.61815 6.82831C8.43004 6.84784 8.23708 6.85793 8.04113 6.85793C7.71557 6.85793 7.39867 6.83005 7.09902 6.77752C7.00966 6.76185 6.95374 6.67302 6.97808 6.58563C7.19154 5.81923 7.52358 5.32554 7.85721 5.32554ZM8.04113 10.0327C8.23661 10.0327 8.42913 10.0427 8.61683 10.0621C8.71089 10.0718 8.77343 10.1628 8.74891 10.2542C8.53605 11.0467 8.19745 11.5602 7.85721 11.5602C7.52429 11.5602 7.19294 11.0685 6.97942 10.3049C6.95497 10.2175 7.01093 10.1285 7.10035 10.1129C7.39962 10.0605 7.71605 10.0327 8.04113 10.0327Z" fill="url(#paint1_linear_63_998)" stroke="url(#paint2_linear_63_998)" stroke-width="0.4"/>
<defs>
<linearGradient id="paint0_linear_63_998" x1="4" y1="14" x2="13" y2="2" gradientUnits="userSpaceOnUse">
<stop stop-color="#A056FF"/>
<stop offset="1" stop-color="#C59AFD"/>
</linearGradient>
<linearGradient id="paint1_linear_63_998" x1="6.03578" y1="12.0857" x2="13.1394" y2="9.71784" gradientUnits="userSpaceOnUse">
<stop stop-color="#C59AFD"/>
<stop offset="1" stop-color="white"/>
</linearGradient>
<linearGradient id="paint2_linear_63_998" x1="6.03578" y1="12.0857" x2="13.1394" y2="9.71784" gradientUnits="userSpaceOnUse">
<stop stop-color="#C59AFD"/>
<stop offset="1" stop-color="white"/>
</linearGradient>
</defs>
</svg>
