<svg width="16" height="16" viewBox="0 0 16 16" fill="none" xmlns="http://www.w3.org/2000/svg">
<path fill-rule="evenodd" clip-rule="evenodd" d="M16 5.943V11C16 11.552 15.552 12 15 12C13.896 12 13 12.896 13 14C13 14.552 12.552 15 12 15C12 15 6.101 15 2.943 15C2.162 15 1.414 14.69 0.862 14.138C0.31 13.586 0 12.838 0 12.057C0 9.823 0 6.177 0 3.943C0 3.162 0.31 2.414 0.862 1.862C1.414 1.31 2.162 1 2.943 1C3.727 1 4.587 1 5.195 1C5.976 1 6.724 1.31 7.276 1.862L8.138 2.724C8.315 2.901 8.555 3 8.805 3H13.057C14.683 3 16 4.317 16 5.943ZM16 14C16 14.552 15.552 15 15 15C14.448 15 14 14.552 14 14C14 13.448 14.448 13 15 13C15.552 13 16 13.448 16 14Z" fill="url(#paint0_linear_63_948)"/>
<path fill-rule="evenodd" clip-rule="evenodd" d="M8.50002 12.0005V11.0009C8.50002 10.725 8.27602 10.5011 8.00002 10.5011C7.72402 10.5011 6.27601 10.5011 6.00001 10.5011C5.724 10.5011 5.5 10.725 5.5 11.0009V12.0005C5.224 12.0005 5 12.2244 5 12.5002C5 12.7761 5.224 13 5.5 13H8.50002C8.77602 13 9.00003 12.7761 9.00003 12.5002C9.00003 12.2244 8.77602 12.0005 8.50002 12.0005Z" fill="#B85C68"/>
<path fill-rule="evenodd" clip-rule="evenodd" d="M9.47954 12.4972H4.52051C4.11701 12.4972 3.7305 12.3373 3.4455 12.0519C3.16 11.767 3 11.3807 3 10.9774C3 9.99128 3 8.50592 3 7.51984C3 7.11652 3.16 6.73019 3.4455 6.44531C3.7305 6.15993 4.11701 6 4.52051 6H9.00004C9.27604 6 9.50004 6.2239 9.50004 6.49978C9.50004 7.05155 9.94804 7.49935 10.5 7.49935C10.7761 7.49935 11.0001 7.72326 11.0001 7.99914V10.9978C10.9946 11.3937 10.8351 11.772 10.5545 12.0519C10.2695 12.3373 9.88304 12.4972 9.47954 12.4972ZM10.5 6C10.7761 6 11.0001 6.2239 11.0001 6.49978C11.0001 6.77567 10.7761 6.99957 10.5 6.99957C10.224 6.99957 10 6.77567 10 6.49978C10 6.2239 10.224 6 10.5 6Z" fill="#B85C68"/>
<path fill-rule="evenodd" clip-rule="evenodd" d="M9.50002 12.0005V11.0009C9.50002 10.725 9.27602 10.5011 9.00002 10.5011C8.72402 10.5011 7.27601 10.5011 7.00001 10.5011C6.724 10.5011 6.5 10.725 6.5 11.0009V12.0005C6.224 12.0005 6 12.2244 6 12.5002C6 12.7761 6.224 13 6.5 13H9.50002C9.77602 13 10 12.7761 10 12.5002C10 12.2244 9.77602 12.0005 9.50002 12.0005Z" fill="url(#paint1_linear_63_948)"/>
<path fill-rule="evenodd" clip-rule="evenodd" d="M10.4795 11.4972H5.52051C5.11701 11.4972 4.7305 11.3373 4.4455 11.0519C4.16 10.767 4 10.3807 4 9.97735C4 8.99128 4 7.50592 4 6.51984C4 6.11652 4.16 5.73019 4.4455 5.44531C4.7305 5.15993 5.11701 5 5.52051 5H10C10.276 5 10.5 5.2239 10.5 5.49978C10.5 6.05155 10.948 6.49935 11.5 6.49935C11.7761 6.49935 12.0001 6.72326 12.0001 6.99914V9.99785C11.9946 10.3937 11.8351 10.772 11.5545 11.0519C11.2695 11.3373 10.883 11.4972 10.4795 11.4972ZM11.5 5C11.7761 5 12.0001 5.2239 12.0001 5.49978C12.0001 5.77567 11.7761 5.99957 11.5 5.99957C11.224 5.99957 11 5.77567 11 5.49978C11 5.2239 11.224 5 11.5 5Z" fill="url(#paint2_linear_63_948)"/>
<defs>
<linearGradient id="paint0_linear_63_948" x1="1.14286" y1="14.1429" x2="14.8457" y2="5.69153" gradientUnits="userSpaceOnUse">
<stop stop-color="#B65592"/>
<stop offset="0.5" stop-color="#FB6F71"/>
<stop offset="1" stop-color="#F9CB52"/>
</linearGradient>
<linearGradient id="paint1_linear_63_948" x1="6.28572" y1="12.847" x2="8.99376" y2="10.5077" gradientUnits="userSpaceOnUse">
<stop stop-color="#D4A4C4"/>
<stop offset="0.5" stop-color="#F7B1B3"/>
<stop offset="1" stop-color="#F7E1A3"/>
</linearGradient>
<linearGradient id="paint2_linear_63_948" x1="4.57143" y1="11.0994" x2="11.1322" y2="6.73983" gradientUnits="userSpaceOnUse">
<stop stop-color="#D4A4C4"/>
<stop offset="0.5" stop-color="#F7B1B3"/>
<stop offset="1" stop-color="#F7E1A3"/>
</linearGradient>
</defs>
</svg>
