<svg width="16" height="16" viewBox="0 0 16 16" fill="none" xmlns="http://www.w3.org/2000/svg">
<g clip-path="url(#clip0_25_2707)">
<path fill-rule="evenodd" clip-rule="evenodd" d="M4.46311 11.5338C3.0489 10.1196 1.75701 11.181 1.69337 11.2022C1.17082 11.3796 0.602306 11.0996 0.424821 10.5771C-0.523408 7.7833 0.115816 4.56738 2.34179 2.34141C5.46367 -0.780469 10.5336 -0.780469 13.6555 2.34141C16.7774 5.46328 16.7774 10.5332 13.6555 13.6551C11.4295 15.8811 8.2136 16.5203 5.41982 15.5721C4.89727 15.3946 4.61726 14.8261 4.79474 14.3035C4.81595 14.2399 5.87732 12.948 4.46311 11.5338ZM3.756 13.6551C3.36568 14.0454 2.73211 14.0454 2.34179 13.6551C1.95147 13.2648 1.95147 12.6312 2.34179 12.2409C2.73211 11.8506 3.36568 11.8506 3.756 12.2409C4.14632 12.6312 4.14632 13.2648 3.756 13.6551Z" fill="url(#paint0_linear_25_2707)"/>
<path d="M4.00059 5.51939C4.0962 5.43449 4.15369 5.3164 4.16064 5.19062C4.16761 5.06482 4.12349 4.94142 4.0378 4.84701C3.95211 4.75261 3.83171 4.69477 3.7026 4.68598C3.57349 4.6772 3.446 4.71817 3.34765 4.80005C2.73488 5.32501 2.2442 5.97114 1.90834 6.69531C1.57249 7.41949 1.3992 8.20505 1.40003 8.99958C1.40003 9.12692 1.45199 9.24896 1.54447 9.339C1.63696 9.42903 1.76239 9.4796 1.89318 9.4796C2.02397 9.4796 2.14941 9.42903 2.2419 9.339C2.33438 9.24896 2.38634 9.12692 2.38634 8.99958C2.38548 8.34113 2.52904 7.69004 2.80741 7.08986C3.08579 6.4897 3.49258 5.95428 4.00059 5.51939ZM10.9593 4.80005C10.861 4.71817 10.7335 4.6772 10.6043 4.68598C10.4753 4.69477 10.3548 4.75261 10.2691 4.84701C10.1834 4.94142 10.1393 5.06482 10.1463 5.19062C10.1533 5.3164 10.2107 5.43449 10.3064 5.51939C10.8144 5.95428 11.2211 6.4897 11.4995 7.08986C11.7779 7.69004 11.9215 8.34113 11.9206 8.99958C11.9206 9.12692 11.9726 9.24896 12.0651 9.339C12.1575 9.42903 12.283 9.4796 12.4137 9.4796C12.5446 9.4796 12.67 9.42903 12.7625 9.339C12.855 9.24896 12.9069 9.12692 12.9069 8.99958C12.9077 8.20505 12.7344 7.41949 12.3987 6.69531C12.0627 5.97114 11.5721 5.32501 10.9593 4.80005ZM5.96136 13.4936C5.89799 13.4758 5.83161 13.4705 5.76613 13.4782C5.70066 13.4858 5.63743 13.5062 5.58018 13.538C5.52292 13.5699 5.47281 13.6126 5.4328 13.6635C5.39279 13.7146 5.36371 13.7729 5.34725 13.835C5.33081 13.8972 5.32733 13.9619 5.33704 14.0254C5.34674 14.0889 5.36943 14.1499 5.40376 14.2046C5.43809 14.2595 5.48335 14.307 5.5369 14.3445C5.59042 14.3819 5.65114 14.4085 5.71544 14.4228C6.65874 14.6591 7.64821 14.6591 8.5915 14.4228C8.65578 14.4085 8.71654 14.3819 8.77004 14.3445C8.82359 14.307 8.86885 14.2595 8.90317 14.2046C8.9375 14.1499 8.96025 14.0889 8.96996 14.0254C8.97967 13.9619 8.97609 13.8972 8.95973 13.835C8.94321 13.7729 8.91416 13.7146 8.87413 13.6635C8.83415 13.6126 8.78401 13.5699 8.72677 13.538C8.66952 13.5062 8.60627 13.4858 8.54079 13.4782C8.47531 13.4705 8.40893 13.4758 8.34561 13.4936C7.95611 13.5908 7.55559 13.6398 7.15347 13.6395C6.75142 13.6395 6.3509 13.5905 5.96136 13.4936Z" fill="#279FD7"/>
<path d="M5.18079 4.51991C5.18079 5.02911 5.38861 5.51746 5.75855 5.87751C6.1285 6.23757 6.63022 6.43985 7.1534 6.43985C7.67658 6.43985 8.17829 6.23757 8.54826 5.87751C8.91821 5.51746 9.12605 5.02911 9.12605 4.51991C9.12605 4.01072 8.91821 3.52237 8.54826 3.16231C8.17829 2.80226 7.67658 2.59998 7.1534 2.59998C6.63022 2.59998 6.1285 2.80226 5.75855 3.16231C5.38861 3.52237 5.18079 4.01072 5.18079 4.51991ZM11.4274 14.1196C10.9042 14.1196 10.4025 13.9173 10.0325 13.5573C9.6626 13.1972 9.45476 12.7088 9.45476 12.1996C9.45476 11.6904 9.6626 11.2021 10.0325 10.8421C10.4025 10.482 10.9042 10.2797 11.4274 10.2797C11.9506 10.2797 12.4523 10.482 12.8222 10.8421C13.1922 11.2021 13.4 11.6904 13.4 12.1996C13.4 12.7088 13.1922 13.1972 12.8222 13.5573C12.4523 13.9173 11.9506 14.1196 11.4274 14.1196Z" fill="#279FD7"/>
<path d="M5.00059 4.2194C5.0962 4.1345 5.15369 4.01642 5.16064 3.89063C5.16761 3.76484 5.12349 3.64143 5.0378 3.54702C4.95211 3.45262 4.83171 3.39478 4.7026 3.386C4.57349 3.37722 4.446 3.41818 4.34765 3.50007C3.73488 4.02502 3.2442 4.67115 2.90834 5.39532C2.57249 6.1195 2.3992 6.90506 2.40003 7.69959C2.40003 7.82693 2.45199 7.94897 2.54447 8.03901C2.63696 8.12904 2.76239 8.17962 2.89318 8.17962C3.02397 8.17962 3.14941 8.12904 3.2419 8.03901C3.33438 7.94897 3.38634 7.82693 3.38634 7.69959C3.38548 7.04115 3.52904 6.39005 3.80741 5.78987C4.08579 5.18971 4.49258 4.6543 5.00059 4.2194ZM11.9593 3.50007C11.861 3.41818 11.7335 3.37722 11.6043 3.386C11.4753 3.39478 11.3548 3.45262 11.2691 3.54702C11.1834 3.64143 11.1393 3.76484 11.1463 3.89063C11.1533 4.01642 11.2107 4.1345 11.3064 4.2194C11.8144 4.6543 12.2211 5.18971 12.4995 5.78987C12.7779 6.39005 12.9215 7.04115 12.9206 7.69959C12.9206 7.82693 12.9726 7.94897 13.0651 8.03901C13.1575 8.12904 13.283 8.17962 13.4137 8.17962C13.5446 8.17962 13.67 8.12904 13.7625 8.03901C13.855 7.94897 13.9069 7.82693 13.9069 7.69959C13.9077 6.90506 13.7344 6.1195 13.3987 5.39532C13.0627 4.67115 12.5721 4.02502 11.9593 3.50007ZM6.96136 12.1936C6.89799 12.1758 6.83161 12.1705 6.76613 12.1782C6.70066 12.1858 6.63743 12.2062 6.58018 12.238C6.52292 12.2699 6.47281 12.3126 6.4328 12.3636C6.39279 12.4146 6.36371 12.4729 6.34725 12.535C6.33081 12.5972 6.32733 12.6619 6.33704 12.7254C6.34674 12.7889 6.36943 12.8499 6.40376 12.9046C6.43809 12.9595 6.48335 13.007 6.5369 13.0445C6.59042 13.0819 6.65114 13.1086 6.71544 13.1228C7.65874 13.3591 8.64821 13.3591 9.5915 13.1228C9.65578 13.1086 9.71654 13.0819 9.77004 13.0445C9.82359 13.007 9.86885 12.9595 9.90317 12.9046C9.9375 12.8499 9.96025 12.7889 9.96996 12.7254C9.97967 12.6619 9.97609 12.5972 9.95973 12.535C9.94321 12.4729 9.91416 12.4146 9.87413 12.3636C9.83415 12.3126 9.78401 12.2699 9.72677 12.238C9.66952 12.2062 9.60627 12.1858 9.54079 12.1782C9.47531 12.1705 9.40893 12.1758 9.34561 12.1936C8.95611 12.2908 8.55559 12.3398 8.15347 12.3395C7.75142 12.3395 7.3509 12.2905 6.96136 12.1936Z" fill="url(#paint1_linear_25_2707)" stroke="url(#paint2_linear_25_2707)" stroke-width="0.3"/>
<path d="M6.18079 3.21992C6.18079 3.72913 6.38861 4.21747 6.75855 4.57752C7.1285 4.93759 7.63022 5.13986 8.1534 5.13986C8.67658 5.13986 9.17829 4.93759 9.54826 4.57752C9.91821 4.21747 10.126 3.72913 10.126 3.21992C10.126 2.71073 9.91821 2.22239 9.54826 1.86232C9.17829 1.50227 8.67658 1.29999 8.1534 1.29999C7.63022 1.29999 7.1285 1.50227 6.75855 1.86232C6.38861 2.22239 6.18079 2.71073 6.18079 3.21992ZM12.4274 12.8196C11.9042 12.8196 11.4025 12.6173 11.0325 12.2573C10.6626 11.8972 10.4548 11.4089 10.4548 10.8996C10.4548 10.3904 10.6626 9.90211 11.0325 9.54213C11.4025 9.18199 11.9042 8.97972 12.4274 8.97972C12.9506 8.97972 13.4523 9.18199 13.8222 9.54213C14.1922 9.90211 14.4 10.3904 14.4 10.8996C14.4 11.4089 14.1922 11.8972 13.8222 12.2573C13.4523 12.6173 12.9506 12.8196 12.4274 12.8196Z" fill="url(#paint3_linear_25_2707)"/>
</g>
<defs>
<linearGradient id="paint0_linear_25_2707" x1="1.59969" y1="16.0019" x2="7.37727" y2="-1.33301" gradientUnits="userSpaceOnUse">
<stop stop-color="#22B4FA"/>
<stop offset="1" stop-color="#6BD6FE"/>
</linearGradient>
<linearGradient id="paint1_linear_25_2707" x1="2.40002" y1="13.3" x2="15.6669" y2="9.45086" gradientUnits="userSpaceOnUse">
<stop stop-color="#6BD6FE"/>
<stop offset="1" stop-color="white"/>
</linearGradient>
<linearGradient id="paint2_linear_25_2707" x1="2.40002" y1="13.3" x2="15.6669" y2="9.45086" gradientUnits="userSpaceOnUse">
<stop stop-color="#6BD6FE"/>
<stop offset="1" stop-color="white"/>
</linearGradient>
<linearGradient id="paint3_linear_25_2707" x1="6.18079" y1="12.8196" x2="16.138" y2="11.0435" gradientUnits="userSpaceOnUse">
<stop stop-color="#6BD6FE"/>
<stop offset="1" stop-color="white"/>
</linearGradient>
<clipPath id="clip0_25_2707">
<rect width="16" height="16" fill="white"/>
</clipPath>
</defs>
</svg>
