<svg width="16" height="16" viewBox="0 0 16 16" fill="none" xmlns="http://www.w3.org/2000/svg">
<path fill-rule="evenodd" clip-rule="evenodd" d="M6.90914 2.09091C6.90914 1.48842 7.39755 1 8.00005 1C8.60254 1 9.09096 1.48842 9.09096 2.09091C9.09096 2.6934 8.60254 3.18182 8.00005 3.18182C7.39755 3.18182 6.90914 2.6934 6.90914 2.09091ZM6.53169 3.44137L6.93324 3.72535C7.24509 3.94596 7.61768 4.06442 7.99957 4.06442C8.38153 4.06442 8.75411 3.94596 9.06597 3.72535L9.46749 3.44217C10.0405 3.03634 10.7252 2.81832 11.4274 2.8182H11.917C12.2394 2.8182 12.5674 2.8382 12.873 2.947C14.7792 3.62296 16.0903 6.09402 15.9951 11.7001C15.9759 12.8288 15.7119 14.0776 14.6928 14.5648C14.3452 14.7319 13.9642 14.8183 13.5785 14.8175C13.0697 14.8175 12.6658 14.6728 12.3538 14.468C12.0276 14.2537 11.7398 13.9755 11.452 13.6973L11.4514 13.6968L11.4467 13.6922C11.0923 13.3498 10.7383 13.0078 10.3115 12.7856C9.84429 12.544 9.32589 12.4176 8.79957 12.4176H7.20044C6.67418 12.4177 6.15569 12.5442 5.68853 12.7864C5.25992 13.0087 4.90485 13.3526 4.54981 13.6964L4.54941 13.6968C4.26142 13.9752 3.97343 14.2536 3.64546 14.468C3.28104 14.7029 2.8551 14.8246 2.42153 14.8175C2.03577 14.8183 1.65484 14.7319 1.30719 14.5648C0.28805 14.0776 0.0240648 12.8296 0.0048648 11.7001C-0.0903302 6.09402 1.22079 3.62296 3.12708 2.9462C3.43186 2.8382 3.75825 2.8182 4.08223 2.8182H4.5718C5.27383 2.81814 5.95861 3.03587 6.53169 3.44137Z" fill="url(#paint0_linear_15_1130)"/>
<path d="M11.8579 6.45453C12.0473 6.45453 12.229 6.52976 12.3629 6.66367C12.4967 6.79758 12.572 6.9792 12.572 7.16858C12.572 7.35795 12.4967 7.53958 12.3629 7.67349C12.229 7.80739 12.0473 7.88263 11.8579 7.88263C11.6686 7.88263 11.4869 7.80739 11.353 7.67349C11.2191 7.53958 11.1439 7.35795 11.1439 7.16858C11.1439 6.9792 11.2191 6.79758 11.353 6.66367C11.4869 6.52976 11.6686 6.45453 11.8579 6.45453ZM3.05133 6.69254C3.24071 6.69254 3.42233 6.76777 3.55624 6.90168C3.69015 7.0356 3.76538 7.21722 3.76538 7.40659V8.12064H4.47943C4.66881 8.12064 4.85043 8.19591 4.98434 8.3298C5.11825 8.46369 5.19348 8.64529 5.19348 8.83468C5.19348 9.02406 5.11825 9.20573 4.98434 9.33962C4.85043 9.47351 4.66881 9.54871 4.47943 9.54871H3.76538V10.2628C3.76538 10.4522 3.69015 10.6338 3.55624 10.7677C3.42233 10.9016 3.24071 10.9769 3.05133 10.9769C2.86195 10.9769 2.68033 10.9016 2.54642 10.7677C2.41251 10.6338 2.33728 10.4522 2.33728 10.2628V9.54871H1.62323C1.43385 9.54871 1.25223 9.47351 1.11832 9.33962C0.984409 9.20573 0.90918 9.02406 0.90918 8.83468C0.90918 8.64529 0.984409 8.46369 1.11832 8.3298C1.25223 8.19591 1.43385 8.12064 1.62323 8.12064H2.33728V7.40659C2.33728 7.21722 2.41251 7.0356 2.54642 6.90168C2.68033 6.76777 2.86195 6.69254 3.05133 6.69254ZM14.0001 8.59671C14.0001 8.78602 13.9249 8.96769 13.7909 9.10158C13.657 9.23548 13.4754 9.31075 13.2861 9.31075C13.0967 9.31075 12.9151 9.23548 12.7811 9.10158C12.6472 8.96769 12.572 8.78602 12.572 8.59671C12.572 8.40733 12.6472 8.22566 12.7811 8.09177C12.9151 7.95787 13.0967 7.88263 13.2861 7.88263C13.4754 7.88263 13.657 7.95787 13.7909 8.09177C13.9249 8.22566 14.0001 8.40733 14.0001 8.59671ZM10.4298 9.31075C10.6192 9.31075 10.8008 9.23548 10.9348 9.10158C11.0687 8.96769 11.1439 8.78602 11.1439 8.59671C11.1439 8.40733 11.0687 8.22566 10.9348 8.09177C10.8008 7.95787 10.6192 7.88263 10.4298 7.88263C10.2405 7.88263 10.0589 7.95787 9.92497 8.09177C9.791 8.22566 9.7158 8.40733 9.7158 8.59671C9.7158 8.78602 9.791 8.96769 9.92497 9.10158C10.0589 9.23548 10.2405 9.31075 10.4298 9.31075ZM12.572 10.0248C12.572 9.8354 12.4967 9.6538 12.3629 9.51984C12.229 9.38595 12.0473 9.31075 11.8579 9.31075C11.6686 9.31075 11.4869 9.38595 11.353 9.51984C11.2191 9.6538 11.1439 9.8354 11.1439 10.0248C11.1439 10.2142 11.2191 10.3958 11.353 10.5297C11.4869 10.6636 11.6686 10.7388 11.8579 10.7388C12.0473 10.7388 12.229 10.6636 12.3629 10.5297C12.4967 10.3958 12.572 10.2142 12.572 10.0248Z" fill="#8C4FD9"/>
<path d="M12.4033 5.72723C12.5927 5.72723 12.7744 5.80246 12.9083 5.93638C13.0422 6.07029 13.1174 6.2519 13.1174 6.44129C13.1174 6.63066 13.0422 6.81228 12.9083 6.94619C12.7744 7.0801 12.5927 7.15534 12.4033 7.15534C12.214 7.15534 12.0323 7.0801 11.8984 6.94619C11.7646 6.81228 11.6893 6.63066 11.6893 6.44129C11.6893 6.2519 11.7646 6.07029 11.8984 5.93638C12.0323 5.80246 12.214 5.72723 12.4033 5.72723ZM3.59674 5.96525C3.78612 5.96525 3.96774 6.04048 4.10165 6.17439C4.23556 6.3083 4.31079 6.48992 4.31079 6.6793V7.19334C4.31079 7.3038 4.40033 7.39334 4.51079 7.39334H5.02484C5.21422 7.39334 5.39584 7.46862 5.52975 7.60251C5.66366 7.7364 5.73889 7.918 5.73889 8.10738C5.73889 8.29676 5.66366 8.47843 5.52975 8.61233C5.39584 8.74622 5.21422 8.82142 5.02484 8.82142H4.51079C4.40033 8.82142 4.31079 8.91096 4.31079 9.02142V9.53553C4.31079 9.72491 4.23556 9.90651 4.10165 10.0404C3.96774 10.1743 3.78612 10.2496 3.59674 10.2496C3.40736 10.2496 3.22574 10.1743 3.09183 10.0404C2.95792 9.90651 2.88269 9.72491 2.88269 9.53553V9.02142C2.88269 8.91096 2.79315 8.82142 2.68269 8.82142H2.16864C1.97926 8.82142 1.79764 8.74622 1.66373 8.61233C1.52982 8.47843 1.45459 8.29676 1.45459 8.10738C1.45459 7.918 1.52982 7.7364 1.66373 7.60251C1.79764 7.46862 1.97926 7.39334 2.16864 7.39334H2.68269C2.79315 7.39334 2.88269 7.3038 2.88269 7.19334V6.6793C2.88269 6.48992 2.95792 6.3083 3.09183 6.17439C3.22574 6.04048 3.40736 5.96525 3.59674 5.96525ZM14.5455 7.86942C14.5455 8.05873 14.4703 8.2404 14.3363 8.37429C14.2025 8.50818 14.0209 8.58345 13.8315 8.58345C13.6421 8.58345 13.4605 8.50818 13.3265 8.37429C13.1926 8.2404 13.1174 8.05873 13.1174 7.86942C13.1174 7.68003 13.1926 7.49836 13.3265 7.36447C13.4605 7.23058 13.6421 7.15534 13.8315 7.15534C14.0209 7.15534 14.2025 7.23058 14.3363 7.36447C14.4703 7.49836 14.5455 7.68003 14.5455 7.86942ZM10.9752 8.58345C11.1646 8.58345 11.3462 8.50818 11.4802 8.37429C11.6141 8.2404 11.6893 8.05873 11.6893 7.86942C11.6893 7.68003 11.6141 7.49836 11.4802 7.36447C11.3462 7.23058 11.1646 7.15534 10.9752 7.15534C10.7859 7.15534 10.6043 7.23058 10.4704 7.36447C10.3364 7.49836 10.2612 7.68003 10.2612 7.86942C10.2612 8.05873 10.3364 8.2404 10.4704 8.37429C10.6043 8.50818 10.7859 8.58345 10.9752 8.58345ZM13.1174 9.29749C13.1174 9.10811 13.0422 8.92651 12.9083 8.79254C12.7744 8.65865 12.5927 8.58345 12.4033 8.58345C12.214 8.58345 12.0323 8.65865 11.8984 8.79254C11.7646 8.92651 11.6893 9.10811 11.6893 9.29749C11.6893 9.48687 11.7646 9.66847 11.8984 9.80236C12.0323 9.93633 12.214 10.0115 12.4033 10.0115C12.5927 10.0115 12.7744 9.93633 12.9083 9.80236C13.0422 9.66847 13.1174 9.48687 13.1174 9.29749Z" fill="url(#paint1_linear_15_1130)"/>
<defs>
<linearGradient id="paint0_linear_15_1130" x1="4.5" y1="12.5" x2="10.8921" y2="3.9196" gradientUnits="userSpaceOnUse">
<stop stop-color="#A056FF"/>
<stop offset="1" stop-color="#C59AFD"/>
</linearGradient>
<linearGradient id="paint1_linear_15_1130" x1="4.72732" y1="10.2496" x2="12.0714" y2="3.16317" gradientUnits="userSpaceOnUse">
<stop stop-color="#C59AFD"/>
<stop offset="1" stop-color="white"/>
</linearGradient>
</defs>
</svg>
