<svg width="16" height="16" viewBox="0 0 16 16" fill="none" xmlns="http://www.w3.org/2000/svg">
<g clip-path="url(#clip0_7_258)">
<path fill-rule="evenodd" clip-rule="evenodd" d="M9.47526 10.8892C8.49434 11.5881 7.29443 11.9991 5.99953 11.9991C4.04468 11.9991 2.30782 11.0631 1.21191 9.61425C0.878931 9.17428 0.965924 8.54633 1.40589 8.21336C1.46389 8.16936 2.99977 7.99938 2.99977 5.99953C2.99977 3.99969 1.46389 3.8297 1.40589 3.7857C0.965924 3.45273 0.878931 2.82478 1.21191 2.38481C2.30782 0.935927 4.04468 0 5.99953 0C9.31027 0 11.9991 2.68879 11.9991 5.99953C11.9991 7.29443 11.5881 8.49434 10.8892 9.47526L11.5851 10.1712C11.9621 9.80123 12.47 9.59325 12.999 9.59325C13.5349 9.59325 14.0489 9.80623 14.4279 10.1852L15.1198 10.8782C16.2917 12.0491 16.2917 13.9489 15.1198 15.1198L15.1188 15.1218C13.9479 16.2927 12.0501 16.2927 10.8792 15.1218L10.1852 14.4279C9.80623 14.0489 9.59325 13.5349 9.59325 12.999C9.59325 12.47 9.80123 11.9621 10.1712 11.5851L9.47526 10.8892ZM0.999922 4.99961C1.55188 4.99961 1.99984 5.44757 1.99984 5.99953C1.99984 6.55149 1.55188 6.99945 0.999922 6.99945C0.447965 6.99945 0 6.55149 0 5.99953C0 5.44757 0.447965 4.99961 0.999922 4.99961Z" fill="url(#paint0_linear_7_258)"/>
<path fill-rule="evenodd" clip-rule="evenodd" d="M5.94756 4.99772L6.05155 5.00172C6.56151 5.02772 6.97148 5.43769 6.99748 5.94765L7.00148 6.05164C7.02748 6.5796 7.46544 6.99957 7.9994 6.99957C8.55136 6.99957 8.99932 6.5516 8.99932 5.99964C8.99932 4.34377 7.65543 2.99988 5.99956 2.99988C5.4476 2.99988 4.99963 3.44784 4.99963 3.9998C4.99963 4.53376 5.4196 4.97172 5.94756 4.99772Z" fill="#8C4FD9"/>
<path fill-rule="evenodd" clip-rule="evenodd" d="M6.94756 3.99772L7.05155 4.00172C7.56151 4.02772 7.97148 4.43769 7.99748 4.94765L8.00148 5.05164C8.02748 5.5796 8.46544 5.99957 8.9994 5.99957C9.55136 5.99957 9.99932 5.5516 9.99932 4.99964C9.99932 3.34377 8.65543 1.99988 6.99956 1.99988C6.4476 1.99988 5.99963 2.44784 5.99963 2.9998C5.99963 3.53376 6.4196 3.97172 6.94756 3.99772Z" fill="url(#paint1_linear_7_258)"/>
</g>
<defs>
<linearGradient id="paint0_linear_7_258" x1="3.99969" y1="14.8571" x2="14.588" y2="2.50502" gradientUnits="userSpaceOnUse">
<stop stop-color="#A056FF"/>
<stop offset="1" stop-color="#C59AFD"/>
</linearGradient>
<linearGradient id="paint1_linear_7_258" x1="6.99956" y1="5.99957" x2="10.8993" y2="4.69967" gradientUnits="userSpaceOnUse">
<stop stop-color="#C59AFD"/>
<stop offset="1" stop-color="white"/>
</linearGradient>
<clipPath id="clip0_7_258">
<rect width="16" height="16" fill="white"/>
</clipPath>
</defs>
</svg>
