<svg width="16" height="16" viewBox="0 0 16 16" fill="none" xmlns="http://www.w3.org/2000/svg">
<path fill-rule="evenodd" clip-rule="evenodd" d="M1.875 12.375C1.392 12.375 1 11.983 1 11.5V4.493C1 2.56362 2.56362 1 4.493 1C6.56237 1 9.43762 1 11.507 1C12.4336 1 13.3218 1.36838 13.9771 2.02288C14.6316 2.67825 15 3.56637 15 4.493C15 6.56237 15 9.43762 15 11.507C15 13.4364 13.4364 15 11.507 15C8.65712 15 4.5 15 4.5 15C4.017 15 3.625 14.608 3.625 14.125C3.625 13.159 2.841 12.375 1.875 12.375ZM1.875 13.25C2.358 13.25 2.75 13.642 2.75 14.125C2.75 14.608 2.358 15 1.875 15C1.392 15 1 14.608 1 14.125C1 13.642 1.392 13.25 1.875 13.25Z" fill="url(#paint0_linear_8_557)"/>
<path d="M11.8423 4.29456C11.6328 3.70297 11.0544 3.33612 10.4444 3.40928C10.3037 3.43081 10.1671 3.4734 10.0391 3.53559C9.90435 3.5956 9.74067 3.67928 9.53908 3.78297L8.23695 4.44982C8.08747 4.52667 7.9701 4.58667 7.86957 4.66562C7.60997 4.8706 7.43376 5.16298 7.37377 5.48827C7.35009 5.61564 7.35009 5.74985 7.35009 5.92144V9.34572C6.9311 8.93904 6.37027 8.71138 5.78637 8.71097C4.52318 8.71202 3.5 9.76152 3.5 11.0563C3.5 12.3505 4.52318 13.4 5.78584 13.4C7.04797 13.4 8.07168 12.3505 8.07168 11.0558V7.70674C8.298 7.82569 8.55906 7.8778 8.82643 7.84622C8.96381 7.82937 9.09697 7.78042 9.23223 7.7199C9.36645 7.6599 9.53013 7.57568 9.73172 7.47252L11.0344 6.80409C11.1844 6.72777 11.3012 6.66777 11.4018 6.58935C11.6597 6.38671 11.8365 6.09355 11.8976 5.76617C11.9212 5.6388 11.9212 5.50511 11.9212 5.333V5.29248C11.9212 5.06142 11.9212 4.87352 11.9133 4.72404C11.9104 4.57839 11.8864 4.43392 11.8423 4.29508" fill="#8C4FD9"/>
<path d="M12.8423 3.29456C12.6328 2.70297 12.0544 2.33612 11.4444 2.40928C11.3037 2.43081 11.1671 2.4734 11.0391 2.53559C10.9044 2.5956 10.7407 2.67928 10.5391 2.78297L9.23695 3.44982C9.08747 3.52667 8.9701 3.58667 8.86957 3.66562C8.60997 3.8706 8.43376 4.16298 8.37377 4.48827C8.35009 4.61564 8.35009 4.74985 8.35009 4.92144V8.34572C7.9311 7.93904 7.37027 7.71138 6.78637 7.71097C5.52318 7.71202 4.5 8.76152 4.5 10.0563C4.5 11.3505 5.52318 12.4 6.78584 12.4C8.04797 12.4 9.07168 11.3505 9.07168 10.0558V6.70674C9.298 6.82569 9.55906 6.8778 9.82643 6.84622C9.96381 6.82937 10.097 6.78042 10.2322 6.7199C10.3664 6.6599 10.5301 6.57568 10.7317 6.47252L12.0344 5.80409C12.1844 5.72777 12.3012 5.66777 12.4018 5.58935C12.6597 5.38671 12.8365 5.09355 12.8976 4.76617C12.9212 4.6388 12.9212 4.50511 12.9212 4.333V4.29248C12.9212 4.06142 12.9212 3.87352 12.9133 3.72404C12.9104 3.57839 12.8864 3.43392 12.8423 3.29508" fill="url(#paint1_linear_8_557)"/>
<defs>
<linearGradient id="paint0_linear_8_557" x1="4.5" y1="14" x2="13.7647" y2="3.19118" gradientUnits="userSpaceOnUse">
<stop stop-color="#A056FF"/>
<stop offset="1" stop-color="#C59AFD"/>
</linearGradient>
<linearGradient id="paint1_linear_8_557" x1="6.60531" y1="12.4" x2="15.062" y2="10.0262" gradientUnits="userSpaceOnUse">
<stop stop-color="#C59AFD"/>
<stop offset="1" stop-color="white"/>
</linearGradient>
</defs>
</svg>
