<svg width="16" height="16" viewBox="0 0 16 16" fill="none" xmlns="http://www.w3.org/2000/svg">
<path d="M7.81075 12.6809L12.2363 8.25545C12.5584 7.93815 12.9919 7.76105 13.444 7.76271C13.8961 7.76437 14.3293 7.94469 14.649 8.26433C14.9688 8.58396 15.1492 9.01704 15.1511 9.46913C15.1529 9.92127 14.976 10.3558 14.6588 10.678L10.2333 15.1035C9.97559 15.3615 9.65253 15.5446 9.29874 15.6331L7.92623 15.9758C7.78972 16.0098 7.64678 16.0079 7.51126 15.9704C7.3757 15.9328 7.25217 15.8608 7.15269 15.7614C7.05316 15.662 6.98109 15.5385 6.94339 15.403C6.9057 15.2675 6.90372 15.1245 6.93758 14.988L7.2812 13.6155C7.36978 13.2617 7.55285 12.9387 7.81075 12.6809Z" fill="url(#paint0_linear_8_729)"/>
<path fill-rule="evenodd" clip-rule="evenodd" d="M4.0056 0.484546C4.0056 0.356036 3.95455 0.232792 3.86368 0.141921C3.77281 0.0510505 3.64956 0 3.52105 0C3.39255 0 3.2693 0.0510505 3.17843 0.141921C3.08756 0.232792 3.0365 0.356036 3.0365 0.484546V0.749425C3.0365 0.870747 2.93816 0.969092 2.81684 0.969092H2.55196C2.16643 0.969092 1.79669 1.12224 1.52408 1.39486C1.25147 1.66747 1.09832 2.0372 1.09832 2.42273V8.86975C1.09832 9.14299 1.37431 9.33585 1.64755 9.33585C2.55744 9.33585 3.29505 10.0735 3.29505 10.9834C3.29505 11.8932 2.55744 12.6309 1.64755 12.6309C1.37431 12.6309 1.09832 12.8237 1.09832 13.097V14.0519C1.09832 14.4374 1.25147 14.8071 1.52408 15.0797C1.79669 15.3523 2.16643 15.5055 2.55196 15.5055H5.7401C5.85619 15.5055 5.95097 15.4148 5.97118 15.3005C5.97887 15.2569 5.98815 15.2131 5.99903 15.1692L6.36241 13.7175C6.49811 13.1728 6.7795 12.6753 7.17649 12.2784L11.8572 7.59766C12.0727 7.38168 12.3223 7.20309 12.5956 7.06893C12.6746 7.03015 12.7274 6.9514 12.7274 6.86343V2.42273C12.7274 2.0372 12.5743 1.66747 12.3017 1.39486C12.029 1.12224 11.6593 0.969092 11.2738 0.969092H11.0089C10.8876 0.969092 10.7892 0.870747 10.7892 0.749425V0.484546C10.7892 0.356036 10.7382 0.232792 10.6473 0.141921C10.5564 0.0510505 10.4332 0 10.3047 0C10.1762 0 10.053 0.0510505 9.96209 0.141921C9.8712 0.232792 9.82018 0.356036 9.82018 0.484546V0.749425C9.82018 0.870747 9.72183 0.969092 9.60052 0.969092H7.61709C7.49578 0.969092 7.39742 0.870747 7.39742 0.749425V0.484546C7.39742 0.356036 7.34635 0.232792 7.25552 0.141921C7.16463 0.0510505 7.0414 0 6.91289 0C6.78439 0 6.6611 0.0510505 6.57027 0.141921C6.47938 0.232792 6.42831 0.356036 6.42831 0.484546V0.749425C6.42831 0.870747 6.33001 0.969092 6.20864 0.969092H4.22527C4.10395 0.969092 4.0056 0.870747 4.0056 0.749425V0.484546ZM1.09833 12.0817C1.70493 12.0817 2.19667 11.5899 2.19667 10.9833C2.19667 10.3768 1.70493 9.88501 1.09833 9.88501C0.49174 9.88501 0 10.3768 0 10.9833C0 11.5899 0.49174 12.0817 1.09833 12.0817Z" fill="url(#paint1_linear_8_729)"/>
<path fill-rule="evenodd" clip-rule="evenodd" d="M4.25596 9.61038H6.17805C6.70854 9.61038 7.13909 9.17983 7.13909 8.64933C7.13909 8.11884 6.70854 7.68829 6.17805 7.68829H4.25596C3.72547 7.68829 3.29492 8.11884 3.29492 8.64933C3.29492 9.17983 3.72547 9.61038 4.25596 9.61038Z" fill="#279FD7"/>
<path d="M8.10013 5.62893H4.25596C3.72547 5.62893 3.29492 5.19838 3.29492 4.66789C3.29492 4.13739 3.72547 3.70685 4.25596 3.70685H8.10013C8.63062 3.70685 9.06117 4.13739 9.06117 4.66789C9.06117 5.19838 8.63062 5.62893 8.10013 5.62893Z" fill="#279FD7"/>
<path fill-rule="evenodd" clip-rule="evenodd" d="M5.21702 4.66787H9.06119C9.59168 4.66787 10.0222 4.23732 10.0222 3.70683C10.0222 3.17634 9.59168 2.74579 9.06119 2.74579H5.21702C4.68653 2.74579 4.25598 3.17634 4.25598 3.70683C4.25598 4.23732 4.68653 4.66787 5.21702 4.66787Z" fill="url(#paint2_linear_8_729)"/>
<path fill-rule="evenodd" clip-rule="evenodd" d="M5.21702 8.64938H7.13911C7.6696 8.64938 8.10015 8.21883 8.10015 7.68834C8.10015 7.15784 7.6696 6.72729 7.13911 6.72729H5.21702C4.68653 6.72729 4.25598 7.15784 4.25598 7.68834C4.25598 8.21883 4.68653 8.64938 5.21702 8.64938Z" fill="url(#paint3_linear_8_729)"/>
<defs>
<linearGradient id="paint0_linear_8_729" x1="7.73733" y1="16.0025" x2="10.7123" y2="7.07623" gradientUnits="userSpaceOnUse">
<stop stop-color="#22B4FA"/>
<stop offset="1" stop-color="#6BD6FE"/>
</linearGradient>
<linearGradient id="paint1_linear_8_729" x1="1.27274" y1="15.5103" x2="7.78019" y2="-0.51624" gradientUnits="userSpaceOnUse">
<stop stop-color="#22B4FA"/>
<stop offset="1" stop-color="#6BD6FE"/>
</linearGradient>
<linearGradient id="paint2_linear_8_729" x1="4.25598" y1="4.66787" x2="8.86898" y2="1.20812" gradientUnits="userSpaceOnUse">
<stop stop-color="#6BD6FE"/>
<stop offset="1" stop-color="white"/>
</linearGradient>
<linearGradient id="paint3_linear_8_729" x1="4.25598" y1="8.64938" x2="8.10015" y2="6.72729" gradientUnits="userSpaceOnUse">
<stop stop-color="#6BD6FE"/>
<stop offset="1" stop-color="white"/>
</linearGradient>
</defs>
</svg>
