<svg width="16" height="16" viewBox="0 0 16 16" fill="none" xmlns="http://www.w3.org/2000/svg">
<path fill-rule="evenodd" clip-rule="evenodd" d="M15 16C15.552 16 16 15.552 16 15C16 14.448 15.552 14 15 14C14.448 14 14 14.448 14 15C14 15.552 14.448 16 15 16ZM5 2C5 1.448 4.552 1 4 1C3.448 1 3 1.448 3 2V2.128C1.274 2.575 0 4.143 0 6.009C0 7.837 0 10.163 0 11.991C0 13.054 0.422 14.074 1.174 14.826C1.926 15.578 2.946 16 4.009 16C7.266 16 12 16 12 16C12.552 16 13 15.552 13 15C13 13.896 13.896 13 15 13C15.552 13 16 12.552 16 12V5.998C16 4.938 15.579 3.921 14.829 3.171C14.232 2.574 13.466 2.186 12.644 2.052L12.437 1.638C11.935 0.634 10.909 0 9.787 0C9.288 0 8.712 0 8.213 0C7.091 0 6.065 0.634 5.563 1.638L5.382 2H5Z" fill="url(#paint0_linear_242_15)"/>
<path fill-rule="evenodd" clip-rule="evenodd" d="M8 6.00006C5.792 6.00006 4 7.79206 4 10.0001C4 12.2081 5.792 14.0001 8 14.0001C10.208 14.0001 12 12.2081 12 10.0001C12 7.79206 10.208 6.00006 8 6.00006ZM8 8.00006C9.104 8.00006 10 8.89606 10 10.0001C10 11.1041 9.104 12.0001 8 12.0001C6.896 12.0001 6 11.1041 6 10.0001C6 8.89606 6.896 8.00006 8 8.00006Z" fill="#D49F34"/>
<path fill-rule="evenodd" clip-rule="evenodd" d="M9 5C6.792 5 5 6.792 5 9C5 11.208 6.792 13 9 13C11.208 13 13 11.208 13 9C13 6.792 11.208 5 9 5ZM9 7C10.104 7 11 7.896 11 9C11 10.104 10.104 11 9 11C7.896 11 7 10.104 7 9C7 7.896 7.896 7 9 7Z" fill="url(#paint1_linear_242_15)"/>
<defs>
<linearGradient id="paint0_linear_242_15" x1="3" y1="14.9988" x2="12.9991" y2="2.999" gradientUnits="userSpaceOnUse">
<stop stop-color="#FF8860"/>
<stop offset="1" stop-color="#FBD92C"/>
</linearGradient>
<linearGradient id="paint1_linear_242_15" x1="7" y1="11" x2="11" y2="7" gradientUnits="userSpaceOnUse">
<stop stop-color="#FBD92C"/>
<stop offset="1" stop-color="white"/>
</linearGradient>
</defs>
</svg>
