<svg width="16" height="16" viewBox="0 0 16 16" fill="none" xmlns="http://www.w3.org/2000/svg">
<g clip-path="url(#clip0_8_456)">
<path fill-rule="evenodd" clip-rule="evenodd" d="M3 8C3 6 1.336 5.837 1.276 5.807C0.780999 5.563 0.576999 4.963 0.820999 4.468C2.126 1.822 4.852 0 8 0C12.415 0 16 3.585 16 8C16 12.415 12.415 16 8 16C4.852 16 2.126 14.178 0.820999 11.532C0.576999 11.037 0.780999 10.437 1.276 10.193C1.336 10.163 3 10 3 8ZM1 9C0.448 9 0 8.552 0 8C0 7.448 0.448 7 1 7C1.552 7 2 7.448 2 8C2 8.552 1.552 9 1 9Z" fill="url(#paint0_linear_8_456)"/>
<path fill-rule="evenodd" clip-rule="evenodd" d="M8.24907 8.8118C8.24907 9.4059 7.67981 9.89025 6.98165 9.89025C6.28349 9.89025 5.71423 9.4059 5.71423 8.8118V4.50702C5.71423 3.91296 6.28349 3.42859 6.98165 3.42859C7.67981 3.42859 8.24907 3.91296 8.24907 4.50702V8.8118ZM5.71423 12.436C5.71423 11.7318 6.27735 11.1577 6.96727 11.1577C7.67727 11.1577 8.24185 11.7318 8.24185 12.436C8.24185 13.1402 7.67728 13.7143 6.98165 13.7143C6.28311 13.7143 5.71423 13.1402 5.71423 12.436Z" fill="#D84F4F"/>
<path fill-rule="evenodd" clip-rule="evenodd" d="M9.39202 7.66898C9.39202 8.26308 8.82275 8.74742 8.1246 8.74742C7.42644 8.74742 6.85718 8.26308 6.85718 7.66898V3.3642C6.85718 2.77014 7.42644 2.28577 8.1246 2.28577C8.82275 2.28577 9.39202 2.77014 9.39202 3.3642V7.66898ZM6.85718 11.2932C6.85718 10.589 7.42029 10.0148 8.11021 10.0148C8.82022 10.0148 9.38479 10.589 9.38479 11.2932C9.38479 11.9973 8.82022 12.5715 8.1246 12.5715C7.42606 12.5715 6.85718 11.9973 6.85718 11.2932Z" fill="url(#paint1_linear_8_456)"/>
</g>
<defs>
<linearGradient id="paint0_linear_8_456" x1="15.9526" y1="0.101432" x2="0.0791621" y2="15.8427" gradientUnits="userSpaceOnUse">
<stop stop-color="#FE7970"/>
<stop offset="1" stop-color="#DC3282"/>
</linearGradient>
<linearGradient id="paint1_linear_8_456" x1="7.58113" y1="12.5713" x2="11.6854" y2="10.1631" gradientUnits="userSpaceOnUse">
<stop stop-color="#FF8860"/>
<stop offset="1" stop-color="white"/>
</linearGradient>
<clipPath id="clip0_8_456">
<rect width="16" height="16" fill="white"/>
</clipPath>
</defs>
</svg>
