<svg width="16" height="16" viewBox="0 0 16 16" fill="none" xmlns="http://www.w3.org/2000/svg">
<path d="M8.95118 5.8335C8.85414 5.6835 9.13 5.885 8.95118 5.79C8.80809 5.72 8.71614 5.605 8.63436 5.47C8.37377 5.04 8.52704 4.475 8.96141 4.22C9.47236 3.935 9.63586 3.3 9.3395 2.805L8.99718 2.215C8.70591 1.72 8.06718 1.545 7.56132 1.835C7.11164 2.075 6.53423 1.915 6.27364 1.49C6.19191 1.35 6.14591 1.2 6.15614 1.05C6.17145 0.855 6.11014 0.67 6.01814 0.52C5.82909 0.21 5.48673 0 5.10859 0H4.38814C4.01514 0.01 3.67277 0.21 3.4837 0.52C3.38661 0.67 3.33041 0.855 3.34063 1.05C3.35084 1.2 3.30486 1.35 3.2231 1.49C2.9625 1.915 2.38509 2.075 1.94054 1.835C1.42957 1.545 0.795954 1.72 0.499586 2.215L0.157227 2.805C-0.134028 3.3 0.0294859 3.935 0.535354 4.22C0.969686 4.475 1.12298 5.04 0.86749 5.47C0.780622 5.605 0.688645 5.72 0.545572 5.79C0.37184 5.885 0.218545 6.035 0.13679 6.185C-0.0522732 6.495 -0.0420504 6.885 0.147009 7.21L0.499586 7.81C0.688645 8.13 1.04122 8.33 1.40913 8.33C1.58286 8.33 1.78725 8.28 1.95076 8.18C2.07851 8.095 2.2318 8.065 2.40043 8.065C2.9063 8.065 3.33041 8.48 3.34063 8.975C3.34063 9.55 3.81073 10 4.40345 10H5.09841C5.686 10 6.15614 9.55 6.15614 8.975C6.17145 8.48 5.59555 7.065 6.10141 7.065C6.26495 7.065 6.41823 7.095 6.55109 7.18C6.71459 7.28 6.91391 7.33 7.09273 7.33C7.45554 7.33 7.80809 7.13 7.99718 6.81L8.35486 6.21C8.53882 5.875 9.14027 6.1435 8.95118 5.8335Z" fill="url(#paint0_linear_249_278)"/>
<path fill-rule="evenodd" clip-rule="evenodd" d="M8.93143 5.77989C8.92701 5.78662 8.93118 5.80261 8.95117 5.8335C9.04634 5.98954 8.94124 5.99901 8.7899 6.01265C8.64056 6.0261 8.44621 6.04362 8.35485 6.21L7.99717 6.81C7.80807 7.13 7.45553 7.33 7.09271 7.33C6.91389 7.33 6.71457 7.28 6.55107 7.18C6.41821 7.095 6.26494 7.065 6.10139 7.065C5.78989 7.065 5.88859 7.60156 6.00684 8.12945C5.20604 8.39229 4.62983 9.12714 4.62677 10H4.40344C3.81071 10 3.34061 9.55 3.34061 8.975C3.33039 8.48 2.90628 8.065 2.40041 8.065C2.23179 8.065 2.07849 8.095 1.95075 8.18C1.78723 8.28 1.58284 8.33 1.40911 8.33C1.04121 8.33 0.68863 8.13 0.499571 7.81L0.146993 7.21C0.135155 7.18965 0.124017 7.16904 0.113586 7.14822C0.142358 7.07288 0.177804 6.99888 0.220102 6.927L0.699405 6.101C1.11432 5.408 2.00138 5.163 2.71675 5.569C3.33912 5.905 4.14749 5.681 4.51232 5.086C4.62678 4.89 4.69116 4.68 4.67686 4.47C4.66255 4.197 4.74124 3.938 4.87716 3.728C5.14186 3.294 5.62117 3.014 6.14337 3H7.15201C7.6814 3 8.16071 3.294 8.42537 3.728C8.55417 3.938 8.64002 4.197 8.61857 4.47C8.61616 4.50532 8.61598 4.54064 8.61789 4.5759C8.47054 4.84841 8.46357 5.1882 8.63435 5.47C8.7123 5.59869 8.7995 5.7092 8.93143 5.77989ZM8.95117 5.79C8.94448 5.78673 8.9379 5.78336 8.93143 5.77989C8.94847 5.75393 9.09315 5.86543 8.95117 5.79Z" fill="#8C4FD9"/>
<path fill-rule="evenodd" clip-rule="evenodd" d="M15.1111 10.659C14.9752 10.449 14.782 10.239 14.5316 10.106C14.3313 10.008 14.2026 9.847 14.0881 9.658C13.7233 9.056 13.9379 8.265 14.546 7.908C15.2613 7.509 15.4902 6.62 15.0753 5.927L14.596 5.101C14.1883 4.408 13.294 4.163 12.5858 4.569C11.9563 4.905 11.1479 4.681 10.7831 4.086C10.6687 3.89 10.6043 3.68 10.6186 3.47C10.64 3.197 10.5542 2.938 10.4254 2.728C10.1607 2.294 9.68141 2 9.15202 2H8.14339C7.62119 2.014 7.14188 2.294 6.87718 2.728C6.74126 2.938 6.66257 3.197 6.67687 3.47C6.69118 3.68 6.6268 3.89 6.51234 4.086C6.1475 4.681 5.33913 4.905 4.71676 4.569C4.00139 4.163 3.11434 4.408 2.69942 5.101L2.22012 5.927C1.81236 6.62 2.04128 7.509 2.7495 7.908C3.35756 8.265 3.57217 9.056 3.21449 9.658C3.09287 9.847 2.9641 10.008 2.7638 10.106C2.52058 10.239 2.30596 10.449 2.19151 10.659C1.92682 11.093 1.94113 11.639 2.20581 12.094L2.69942 12.934C2.9641 13.382 3.45771 13.662 3.97278 13.662C4.216 13.662 4.50215 13.592 4.73107 13.452C4.90991 13.333 5.12452 13.291 5.3606 13.291C6.06881 13.291 6.66257 13.872 6.67687 14.565C6.67687 15.37 7.33501 16 8.16483 16H9.13777C9.96039 16 10.6186 15.37 10.6186 14.565C10.64 13.872 11.2338 13.291 11.942 13.291C12.1709 13.291 12.3855 13.333 12.5715 13.452C12.8004 13.592 13.0795 13.662 13.3298 13.662C13.8378 13.662 14.3313 13.382 14.596 12.934L15.0968 12.094C15.3543 11.625 15.3758 11.093 15.1111 10.659ZM6.62677 9.00699C6.62677 10.106 7.53531 10.981 8.65843 10.981C9.78155 10.981 10.6686 10.106 10.6686 9.00699C10.6686 7.90799 9.78155 7.026 8.65843 7.026C7.53531 7.026 6.62677 7.90799 6.62677 9.00699Z" fill="url(#paint1_linear_249_278)"/>
<path d="M5.99999 15C5.99999 15.5523 5.55228 16 4.99999 16C4.44771 16 3.99999 15.5523 3.99999 15C3.99999 14.4477 4.44771 14 4.99999 14C5.55228 14 5.99999 14.4477 5.99999 15Z" fill="url(#paint2_linear_249_278)"/>
<defs>
<linearGradient id="paint0_linear_249_278" x1="2.37169" y1="9.28571" x2="9.03379" y2="1.91218" gradientUnits="userSpaceOnUse">
<stop stop-color="#A056FF"/>
<stop offset="1" stop-color="#C59AFD"/>
</linearGradient>
<linearGradient id="paint1_linear_249_278" x1="5.325" y1="16" x2="18.4202" y2="11.8532" gradientUnits="userSpaceOnUse">
<stop stop-color="#C59AFD"/>
<stop offset="1" stop-color="white"/>
</linearGradient>
<linearGradient id="paint2_linear_249_278" x1="5.325" y1="16" x2="18.4202" y2="11.8532" gradientUnits="userSpaceOnUse">
<stop stop-color="#C59AFD"/>
<stop offset="1" stop-color="white"/>
</linearGradient>
</defs>
</svg>
