<svg width="16" height="16" viewBox="0 0 16 16" fill="none" xmlns="http://www.w3.org/2000/svg">
<g clip-path="url(#clip0_7_158)">
<path fill-rule="evenodd" clip-rule="evenodd" d="M16 5.443V11.5C16 12.052 15.552 12.5 15 12.5C13.896 12.5 13 13.396 13 14.5C13 15.052 12.552 15.5 12 15.5C12 15.5 6.101 15.5 2.943 15.5C2.162 15.5 1.414 15.19 0.862 14.638C0.31 14.086 0 13.338 0 12.557C0 10.323 0 5.677 0 3.443C0 2.662 0.31 1.914 0.862 1.362C1.414 0.81 2.162 0.5 2.943 0.5C3.727 0.5 4.587 0.5 5.195 0.5C5.976 0.5 6.724 0.81 7.276 1.362L8.138 2.224C8.315 2.401 8.555 2.5 8.805 2.5H13.057C14.683 2.5 16 3.817 16 5.443ZM16 14.5C16 15.052 15.552 15.5 15 15.5C14.448 15.5 14 15.052 14 14.5C14 13.948 14.448 13.5 15 13.5C15.552 13.5 16 13.948 16 14.5Z" fill="url(#paint0_linear_7_158)"/>
<path opacity="0.7" fill-rule="evenodd" clip-rule="evenodd" d="M3.00004 10.5H14.0001C14.5516 10.5 14.9995 10.052 14.9995 9.5C14.9995 8.948 14.5516 8.5 14.0001 8.5H3.00004C2.44847 8.5 2.00061 8.948 2.00061 9.5C2.00061 10.052 2.44847 10.5 3.00004 10.5Z" fill="#279FD7"/>
<path fill-rule="evenodd" clip-rule="evenodd" d="M4.00016 9.5H15.0002C15.5517 9.5 15.9996 9.052 15.9996 8.5C15.9996 7.948 15.5517 7.5 15.0002 7.5H4.00016C3.44859 7.5 3.00073 7.948 3.00073 8.5C3.00073 9.052 3.44859 9.5 4.00016 9.5Z" fill="url(#paint1_linear_7_158)"/>
</g>
<defs>
<linearGradient id="paint0_linear_7_158" x1="1.6" y1="15.5047" x2="6.74118" y2="-0.949139" gradientUnits="userSpaceOnUse">
<stop offset="0.190745" stop-color="#22B4FA"/>
<stop offset="0.896724" stop-color="#7DDCFF"/>
</linearGradient>
<linearGradient id="paint1_linear_7_158" x1="3.00073" y1="9.5" x2="7.46443" y2="2.24713" gradientUnits="userSpaceOnUse">
<stop stop-color="#6BD6FE"/>
<stop offset="1" stop-color="white"/>
</linearGradient>
<clipPath id="clip0_7_158">
<rect width="16" height="16" fill="white"/>
</clipPath>
</defs>
</svg>
