<svg width="16" height="16" viewBox="0 0 16 16" fill="none" xmlns="http://www.w3.org/2000/svg">
<g clip-path="url(#clip0_8_141)">
<path fill-rule="evenodd" clip-rule="evenodd" d="M1.9999 16.0003C2.55191 16.0003 2.99992 15.5522 2.99992 15.0002C2.99992 14.4482 2.55191 14.0002 1.9999 14.0002C1.4479 14.0002 0.999888 14.4482 0.999888 15.0002C0.999888 15.5522 1.4479 16.0003 1.9999 16.0003ZM1.9999 13.0002C3.10392 13.0002 3.99994 13.8962 3.99994 15.0002C3.99994 15.5522 4.44794 16.0003 4.99995 16.0003H11C12.0611 16.0003 13.0781 15.5792 13.8281 14.8282C14.5791 14.0782 15.0001 13.0612 15.0001 12.0002V6.0001C15.3231 6.0001 15.6401 5.84309 15.8321 5.55509C16.1381 5.09508 16.0141 4.47407 15.5551 4.16807C15.5551 4.16807 12.0321 1.81903 10.385 0.721011C9.68003 0.251004 8.84601 0 7.998 0C7.14999 0 6.32097 0.251004 5.61496 0.721011L0.444879 4.16807C-0.014128 4.47407 -0.13813 5.09508 0.167875 5.55509C0.359878 5.84309 0.676883 6.0001 0.999888 6.0001V12.0002C0.999888 12.5522 1.4479 13.0002 1.9999 13.0002Z" fill="url(#paint0_linear_8_141)"/>
<path fill-rule="evenodd" clip-rule="evenodd" d="M10.0001 9.00008C10.0001 8.44807 9.55209 8.00006 9.00008 8.00006H5.00002C4.44801 8.00006 4 8.44807 4 9.00008V13.0001C4 13.5521 4.44801 14.0002 5.00002 14.0002H9.00008C9.55209 14.0002 10.0001 13.5521 10.0001 13.0001V9.00008ZM7.80006 10.0001C7.91052 10.0001 8.00006 10.0896 8.00006 10.2001V11.8001C8.00006 11.9106 7.91052 12.0001 7.80006 12.0001H6.20003C6.08958 12.0001 6.00003 11.9106 6.00003 11.8001V10.2001C6.00003 10.0896 6.08958 10.0001 6.20003 10.0001H7.80006Z" fill="#7FD1AE"/>
<path fill-rule="evenodd" clip-rule="evenodd" d="M11 8.00008C11 7.44807 10.552 7.00006 9.99996 7.00006H5.99989C5.44789 7.00006 4.99988 7.44807 4.99988 8.00008V12.0001C4.99988 12.5521 5.44789 13.0002 5.99989 13.0002H9.99996C10.552 13.0002 11 12.5521 11 12.0001V8.00008ZM8.79994 9.00009C8.9104 9.00009 8.99994 9.08964 8.99994 9.20009V10.8001C8.99994 10.9106 8.9104 11.0001 8.79994 11.0001H7.19991C7.08945 11.0001 6.99991 10.9106 6.99991 10.8001V9.20009C6.99991 9.08964 7.08945 9.00009 7.19991 9.00009H8.79994Z" fill="url(#paint1_linear_8_141)"/>
</g>
<defs>
<linearGradient id="paint0_linear_8_141" x1="2" y1="14.0007" x2="16.972" y2="10.5458" gradientUnits="userSpaceOnUse">
<stop stop-color="#62E8AF"/>
<stop offset="1" stop-color="#B3FBDC"/>
</linearGradient>
<linearGradient id="paint1_linear_8_141" x1="4.99988" y1="13.0002" x2="6.76461" y2="5.94122" gradientUnits="userSpaceOnUse">
<stop stop-color="#B3FBDC"/>
<stop offset="1" stop-color="white"/>
</linearGradient>
<clipPath id="clip0_8_141">
<rect width="16" height="16" fill="white"/>
</clipPath>
</defs>
</svg>
