<svg width="16" height="16" viewBox="0 0 16 16" fill="none" xmlns="http://www.w3.org/2000/svg">
<path fill-rule="evenodd" clip-rule="evenodd" d="M12.2857 3.42857C11.024 3.42857 10 2.40457 10 1.14286C10 0.512 9.488 0 8.85714 0C8.85714 0 7.02171 0 5.43086 0C3.536 0 2 1.536 2 3.43086V12.5691C2 14.464 3.536 16 5.43086 16H9.99771C10.9074 16 11.7806 15.6389 12.424 14.9954C13.0674 14.352 13.4286 13.4789 13.4286 12.5691C13.4286 9.53829 13.4286 4.57143 13.4286 4.57143C13.4286 3.94057 12.9166 3.42857 12.2857 3.42857ZM12.2857 2.28571C12.9166 2.28571 13.4286 1.77371 13.4286 1.14286C13.4286 0.512 12.9166 0 12.2857 0C11.6549 0 11.1429 0.512 11.1429 1.14286C11.1429 1.77371 11.6549 2.28571 12.2857 2.28571Z" fill="url(#paint0_linear_23_2471)"/>
<path fill-rule="evenodd" clip-rule="evenodd" d="M5.42862 5.7143H7.71434C8.3452 5.7143 8.8572 5.2023 8.8572 4.57145C8.8572 3.94059 8.3452 3.42859 7.71434 3.42859H5.42862C4.79777 3.42859 4.28577 3.94059 4.28577 4.57145C4.28577 5.2023 4.79777 5.7143 5.42862 5.7143Z" fill="#8C4FD9"/>
<path fill-rule="evenodd" clip-rule="evenodd" d="M6.57145 4.57142H8.85716C9.48802 4.57142 10 4.05942 10 3.42856C10 2.79771 9.48802 2.28571 8.85716 2.28571H6.57145C5.94059 2.28571 5.42859 2.79771 5.42859 3.42856C5.42859 4.05942 5.94059 4.57142 6.57145 4.57142Z" fill="url(#paint1_linear_23_2471)"/>
<path fill-rule="evenodd" clip-rule="evenodd" d="M6.57138 8C5.66211 8 4.79001 8.36122 4.14703 9.00417C3.50405 9.64717 3.14282 10.5192 3.14282 11.4286C3.14282 12.3379 3.50405 13.2099 4.14703 13.8529C4.79001 14.4959 5.66211 14.8571 6.57138 14.8571C7.48072 14.8571 8.35279 14.4959 8.99572 13.8529C9.63872 13.2099 9.99995 12.3379 9.99995 11.4286C9.99995 10.5192 9.63872 9.64717 8.99572 9.00417C8.35279 8.36122 7.48072 8 6.57138 8Z" fill="#8C4FD9"/>
<path fill-rule="evenodd" clip-rule="evenodd" d="M7.71433 6.85712C6.80505 6.85712 5.93295 7.21834 5.28997 7.86129C4.64699 8.50428 4.28577 9.37635 4.28577 10.2857C4.28577 11.195 4.64699 12.067 5.28997 12.71C5.93295 13.353 6.80505 13.7143 7.71433 13.7143C8.62367 13.7143 9.49574 13.353 10.1387 12.71C10.7817 12.067 11.1429 11.195 11.1429 10.2857C11.1429 9.37635 10.7817 8.50428 10.1387 7.86129C9.49574 7.21834 8.62367 6.85712 7.71433 6.85712Z" fill="url(#paint2_linear_23_2471)"/>
<defs>
<linearGradient id="paint0_linear_23_2471" x1="4.85714" y1="14.8571" x2="15.3958" y2="6.07494" gradientUnits="userSpaceOnUse">
<stop stop-color="#A056FF"/>
<stop offset="1" stop-color="#C59AFD"/>
</linearGradient>
<linearGradient id="paint1_linear_23_2471" x1="6.57145" y1="4.57142" x2="10" y2="2.28571" gradientUnits="userSpaceOnUse">
<stop stop-color="#C59AFD"/>
<stop offset="1" stop-color="white"/>
</linearGradient>
<linearGradient id="paint2_linear_23_2471" x1="6.00005" y1="13.7143" x2="12.6857" y2="11.4857" gradientUnits="userSpaceOnUse">
<stop stop-color="#C59AFD"/>
<stop offset="1" stop-color="white"/>
</linearGradient>
</defs>
</svg>
