<svg width="16" height="16" viewBox="0 0 16 16" fill="none" xmlns="http://www.w3.org/2000/svg">
<g clip-path="url(#clip0_15_1586)">
<path fill-rule="evenodd" clip-rule="evenodd" d="M11 14.0008V12.0016C11 11.4499 10.552 11.0021 10 11.0021C9.448 11.0021 6.552 11.0021 6 11.0021C5.448 11.0021 5 11.4499 5 12.0016V14.0008C4.448 14.0008 4 14.4486 4 15.0003C4 15.5521 4.448 15.9999 5 15.9999H11C11.552 15.9999 12 15.5521 12 15.0003C12 14.4486 11.552 14.0008 11 14.0008Z" fill="url(#paint0_linear_15_1586)"/>
<path fill-rule="evenodd" clip-rule="evenodd" d="M12.959 12.9943H3.041C2.234 12.9943 1.461 12.6745 0.891 12.1037C0.32 11.534 0 10.7613 0 9.95464C0 7.98251 0 5.01181 0 3.03967C0 2.23302 0.32 1.46036 0.891 0.89061C1.461 0.31986 2.234 0 3.041 0H12C12.552 0 13 0.447804 13 0.999563C13 2.10308 13.896 2.99869 15 2.99869C15.552 2.99869 16 3.44649 16 3.99825V9.99563C15.989 10.7873 15.67 11.5439 15.109 12.1037C14.539 12.6745 13.766 12.9943 12.959 12.9943ZM15 0C15.552 0 16 0.447804 16 0.999563C16 1.55132 15.552 1.99913 15 1.99913C14.448 1.99913 14 1.55132 14 0.999563C14 0.447804 14.448 0 15 0Z" fill="url(#paint1_linear_15_1586)"/>
<path fill-rule="evenodd" clip-rule="evenodd" d="M10.9999 7.99945H-0.000100136C-0.5523 7.99945 -1 8.44745 -1 8.99945C-1 9.55145 -0.5523 9.99945 -0.000100136 9.99945H10.9999C11.5521 9.99945 11.9998 9.55145 11.9998 8.99945C11.9998 8.44745 11.5521 7.99945 10.9999 7.99945Z" fill="#B85C68"/>
<path fill-rule="evenodd" clip-rule="evenodd" d="M11.9998 7H0.999778C0.447578 7 -0.00012207 7.448 -0.00012207 8C-0.00012207 8.552 0.447578 9 0.999778 9H11.9998C12.552 9 12.9997 8.552 12.9997 8C12.9997 7.448 12.552 7 11.9998 7Z" fill="url(#paint2_linear_15_1586)"/>
</g>
<defs>
<linearGradient id="paint0_linear_15_1586" x1="4.57143" y1="15.6939" x2="9.98748" y2="11.0153" gradientUnits="userSpaceOnUse">
<stop stop-color="#B65592"/>
<stop offset="0.5" stop-color="#FB6F71"/>
<stop offset="1" stop-color="#F9CB52"/>
</linearGradient>
<linearGradient id="paint1_linear_15_1586" x1="1.14286" y1="12.1987" x2="14.2643" y2="3.47964" gradientUnits="userSpaceOnUse">
<stop stop-color="#B65592"/>
<stop offset="0.5" stop-color="#FB6F71"/>
<stop offset="1" stop-color="#F9CB52"/>
</linearGradient>
<linearGradient id="paint2_linear_15_1586" x1="0.928436" y1="8.87755" x2="2.08357" y2="4.82561" gradientUnits="userSpaceOnUse">
<stop stop-color="#D4A4C4"/>
<stop offset="0.5" stop-color="#F7B1B3"/>
<stop offset="1" stop-color="#F7E1A3"/>
</linearGradient>
<clipPath id="clip0_15_1586">
<rect width="16" height="16" fill="white"/>
</clipPath>
</defs>
</svg>
