<svg width="16" height="16" viewBox="0 0 16 16" fill="none" xmlns="http://www.w3.org/2000/svg">
<g clip-path="url(#clip0_25_2638)">
<path fill-rule="evenodd" clip-rule="evenodd" d="M4.99975 4.1706V2.47669C4.99975 1.81977 5.26072 1.18985 5.72466 0.724909C6.1896 0.260967 6.81952 0 7.47644 0H8.52231C9.17923 0 9.80915 0.260967 10.2741 0.724909C10.738 1.18985 10.999 1.81977 10.999 2.47669V4.1716C11.4169 4.31958 11.7999 4.55956 12.1199 4.87852C12.6828 5.44144 12.9987 6.20535 12.9987 7.00125C12.9987 9.65292 12.9987 12.0005 12.9987 12.0005C12.9987 12.5524 12.5508 12.9984 11.9989 12.9984C10.895 12.9984 9.99912 13.8943 9.99912 14.9981C9.99912 15.5501 9.55118 16 8.99925 16C8.99925 16 7.39345 16 6.00162 16C4.34383 16 3 14.6562 3 12.9984V7.00125C3 5.69441 3.8349 4.58355 4.99975 4.1706ZM11.9989 13.9982C12.5508 13.9982 12.9987 14.4462 12.9987 14.9981C12.9987 15.5501 12.5508 15.998 11.9989 15.998C11.4469 15.998 10.999 15.5501 10.999 14.9981C10.999 14.4462 11.4469 13.9982 11.9989 13.9982Z" fill="url(#paint0_linear_25_2638)"/>
<path d="M8.85309 3.14645C8.75942 3.05275 8.63235 3.00008 8.49989 3C8.43415 2.99998 8.36915 3.0129 8.30842 3.03803C8.24775 3.06316 8.19262 3.1 8.14615 3.14645C8.09969 3.19289 8.06289 3.24804 8.03775 3.30873C8.01262 3.36943 7.99969 3.43447 7.99969 3.50016L8.00062 5.16673C7.99829 5.23383 8.00942 5.30072 8.03349 5.36341C8.05755 5.42611 8.09395 5.48331 8.14062 5.53163C8.18722 5.57993 8.24309 5.61835 8.30495 5.6446C8.36675 5.67084 8.43315 5.68437 8.50035 5.68437C8.56749 5.68437 8.63395 5.67084 8.69575 5.6446C8.75755 5.61836 8.81342 5.57993 8.86009 5.53163C8.90669 5.48331 8.94315 5.42611 8.96715 5.36341C8.99122 5.30073 9.00242 5.23383 9.00002 5.16673L8.99955 3.49969C8.99949 3.36719 8.94682 3.24014 8.85309 3.14645Z" fill="#D49F34"/>
<path d="M6.85342 3.14645C6.75969 3.05275 6.63269 3.00008 6.50015 3C6.43449 2.99998 6.36942 3.0129 6.30875 3.03803C6.24802 3.06316 6.19289 3.1 6.14642 3.14645C6.10002 3.19289 6.06316 3.24804 6.03803 3.30873C6.01291 3.36943 5.99998 3.43447 6 3.50016L6.00095 5.16673C5.99857 5.23383 6.00975 5.30072 6.03379 5.36341C6.05784 5.42611 6.09429 5.48331 6.14089 5.53163C6.18755 5.57993 6.24342 5.61835 6.30522 5.6446C6.36702 5.67084 6.43349 5.68437 6.50062 5.68437C6.56775 5.68437 6.63422 5.67084 6.69602 5.6446C6.75782 5.61835 6.81375 5.57993 6.86035 5.53163C6.90702 5.48331 6.94342 5.42611 6.96749 5.36341C6.99155 5.30072 7.00269 5.23383 7.00035 5.16673L6.99982 3.49969C6.99975 3.36719 6.94709 3.24014 6.85342 3.14645Z" fill="#D49F34"/>
<path fill-rule="evenodd" clip-rule="evenodd" d="M3.75 14.5H8.25C8.664 14.5 9 14.164 9 13.75C9 13.336 8.664 13 8.25 13H3.75C3.336 13 3 12.586 3 13C3 13.414 3 14.5 3.75 14.5Z" fill="#D49F34"/>
<path fill-rule="evenodd" clip-rule="evenodd" d="M3.75 13.5H9.25C9.664 13.5 10 13.164 10 12.75C10 12.336 9.664 12 9.25 12H3.75C3.336 12 3 12.336 3 12.75C3 13.164 3.336 13.5 3.75 13.5Z" fill="url(#paint1_linear_25_2638)"/>
<path d="M9.35309 2.14645C9.25942 2.05275 9.13235 2.00008 8.99989 2C8.93415 1.99998 8.86915 2.0129 8.80842 2.03803C8.74775 2.06316 8.69262 2.1 8.64615 2.14645C8.59969 2.19289 8.56289 2.24804 8.53775 2.30873C8.51262 2.36943 8.49969 2.43447 8.49969 2.50016L8.50062 4.16673C8.49829 4.23383 8.50942 4.30072 8.53349 4.36341C8.55755 4.42611 8.59395 4.48331 8.64062 4.53163C8.68722 4.57993 8.74309 4.61835 8.80495 4.6446C8.86675 4.67084 8.93315 4.68437 9.00035 4.68437C9.06749 4.68437 9.13395 4.67084 9.19575 4.6446C9.25755 4.61836 9.31342 4.57993 9.36009 4.53163C9.40669 4.48331 9.44315 4.42611 9.46715 4.36341C9.49122 4.30073 9.50242 4.23383 9.50002 4.16673L9.49955 2.49969C9.49949 2.36719 9.44682 2.24014 9.35309 2.14645Z" fill="url(#paint2_linear_25_2638)"/>
<path d="M7.35342 2.14645C7.25969 2.05275 7.13269 2.00008 7.00015 2C6.93449 1.99998 6.86942 2.0129 6.80875 2.03803C6.74802 2.06316 6.69289 2.1 6.64642 2.14645C6.60002 2.19289 6.56316 2.24804 6.53803 2.30873C6.51291 2.36943 6.49998 2.43447 6.5 2.50016L6.50095 4.16673C6.49857 4.23383 6.50975 4.30072 6.53379 4.36341C6.55784 4.42611 6.59429 4.48331 6.64089 4.53163C6.68755 4.57993 6.74342 4.61835 6.80522 4.6446C6.86702 4.67084 6.93349 4.68437 7.00062 4.68437C7.06775 4.68437 7.13422 4.67084 7.19602 4.6446C7.25782 4.61835 7.31375 4.57993 7.36035 4.53163C7.40702 4.48331 7.44342 4.42611 7.46749 4.36341C7.49155 4.30072 7.50269 4.23383 7.50035 4.16673L7.49982 2.49969C7.49975 2.36719 7.44709 2.24014 7.35342 2.14645Z" fill="url(#paint3_linear_25_2638)"/>
</g>
<defs>
<linearGradient id="paint0_linear_25_2638" x1="4.87477" y1="14.9988" x2="14.6339" y2="7.67984" gradientUnits="userSpaceOnUse">
<stop stop-color="#FF8860"/>
<stop offset="1" stop-color="#FBD92C"/>
</linearGradient>
<linearGradient id="paint1_linear_25_2638" x1="4.75" y1="13.125" x2="5.05732" y2="11.6909" gradientUnits="userSpaceOnUse">
<stop stop-color="#FBD92C"/>
<stop offset="1" stop-color="white"/>
</linearGradient>
<linearGradient id="paint2_linear_25_2638" x1="7.25008" y1="4.01328" x2="8.584" y2="2.52235" gradientUnits="userSpaceOnUse">
<stop stop-color="#FBD92C"/>
<stop offset="1" stop-color="white"/>
</linearGradient>
<linearGradient id="paint3_linear_25_2638" x1="7.25008" y1="4.01328" x2="8.584" y2="2.52235" gradientUnits="userSpaceOnUse">
<stop stop-color="#FBD92C"/>
<stop offset="1" stop-color="white"/>
</linearGradient>
<clipPath id="clip0_25_2638">
<rect width="16" height="16" fill="white"/>
</clipPath>
</defs>
</svg>
