<svg width="16" height="16" viewBox="0 0 16 16" fill="none" xmlns="http://www.w3.org/2000/svg">
<g clip-path="url(#clip0_25_2664)">
<path fill-rule="evenodd" clip-rule="evenodd" d="M4.46445 11.5355C3.05024 10.1213 1.75835 11.1827 1.69471 11.2039C1.17216 11.3814 0.603648 11.1013 0.426164 10.5788C-0.522065 7.78501 0.117159 4.56909 2.34313 2.34312C5.46501 -0.77876 10.535 -0.77876 13.6568 2.34312C16.7787 5.46499 16.7787 10.5349 13.6568 13.6568C11.4309 15.8828 8.21495 16.522 5.42117 15.5738C4.89861 15.3963 4.6186 14.8278 4.79608 14.3052C4.8173 14.2416 5.87867 12.9497 4.46445 11.5355ZM3.75734 13.6568C3.36702 14.0471 2.73345 14.0471 2.34313 13.6568C1.95281 13.2665 1.95281 12.6329 2.34313 12.2426C2.73345 11.8523 3.36702 11.8523 3.75734 12.2426C4.14767 12.6329 4.14767 13.2665 3.75734 13.6568Z" fill="url(#paint0_linear_25_2664)"/>
<path fill-rule="evenodd" clip-rule="evenodd" d="M3 9C3 6.79464 4.79462 5 6.99998 5C9.20536 5 11 6.79464 11 9C11 11.2054 9.20536 13 6.99998 13C4.79462 13 3 11.2054 3 9ZM4.10476 8.96192C4.10476 10.5373 5.38654 11.8191 6.9619 11.8191C8.53724 11.8191 9.81904 10.5373 9.81904 8.96192C9.81904 7.38654 8.53724 6.10476 6.9619 6.10476C5.38654 6.10476 4.10476 7.38654 4.10476 8.96192ZM5.32384 9C5.32384 8.07571 6.07574 7.32381 7.00001 7.32381C7.92431 7.32381 8.67622 8.07571 8.67622 9C8.67622 9.92428 7.92431 10.6762 7.00001 10.6762C6.07574 10.6762 5.32384 9.92428 5.32384 9ZM6.3905 9C6.3905 9.33627 6.66374 9.60953 7.00001 9.60953C7.33632 9.60953 7.60954 9.33627 7.60954 9C7.60954 8.66369 7.33632 8.39047 7.00001 8.39047C6.66374 8.39047 6.3905 8.66369 6.3905 9Z" fill="#8C4FD9"/>
<path fill-rule="evenodd" clip-rule="evenodd" d="M4 8C4 5.79464 5.79462 4 7.99998 4C10.2054 4 12 5.79464 12 8C12 10.2054 10.2054 12 7.99998 12C5.79462 12 4 10.2054 4 8ZM5.10476 7.96192C5.10476 9.53726 6.38654 10.8191 7.9619 10.8191C9.53724 10.8191 10.819 9.53726 10.819 7.96192C10.819 6.38654 9.53724 5.10476 7.9619 5.10476C6.38654 5.10476 5.10476 6.38654 5.10476 7.96192ZM6.32384 8C6.32384 7.07571 7.07574 6.32381 8.00001 6.32381C8.92431 6.32381 9.67622 7.07571 9.67622 8C9.67622 8.92428 8.92431 9.67618 8.00001 9.67618C7.07574 9.67618 6.32384 8.92428 6.32384 8ZM7.3905 8C7.3905 8.33627 7.66374 8.60953 8.00001 8.60953C8.33632 8.60953 8.60954 8.33627 8.60954 8C8.60954 7.66369 8.33632 7.39047 8.00001 7.39047C7.66374 7.39047 7.3905 7.66369 7.3905 8Z" fill="url(#paint1_linear_25_2664)" stroke="url(#paint2_linear_25_2664)" stroke-width="0.4"/>
</g>
<defs>
<linearGradient id="paint0_linear_25_2664" x1="4.00057" y1="14.856" x2="14.5868" y2="2.50543" gradientUnits="userSpaceOnUse">
<stop stop-color="#A056FF"/>
<stop offset="1" stop-color="#C59AFD"/>
</linearGradient>
<linearGradient id="paint1_linear_25_2664" x1="6" y1="12" x2="13.8" y2="9.4" gradientUnits="userSpaceOnUse">
<stop stop-color="#C59AFD"/>
<stop offset="1" stop-color="white"/>
</linearGradient>
<linearGradient id="paint2_linear_25_2664" x1="6" y1="12" x2="13.8" y2="9.4" gradientUnits="userSpaceOnUse">
<stop stop-color="#C59AFD"/>
<stop offset="1" stop-color="white"/>
</linearGradient>
<clipPath id="clip0_25_2664">
<rect width="16" height="16" fill="white"/>
</clipPath>
</defs>
</svg>
