<svg width="16" height="16" viewBox="0 0 16 16" fill="none" xmlns="http://www.w3.org/2000/svg">
<g clip-path="url(#clip0_25_2650)">
<path fill-rule="evenodd" clip-rule="evenodd" d="M4.99975 4.17061V2.4767C4.99975 1.81978 5.26072 1.18986 5.72466 0.724916C6.1896 0.260974 6.81952 6.49691e-06 7.47644 6.49691e-06H8.52231C9.17923 6.49691e-06 10 3.66867e-05 10.5 2.53618e-05C10.6339 2.83953e-05 10.8037 2.53517e-05 10.9998 1.9974e-05C12.1044 -1.03201e-05 13 0.895385 13 1.99993V2.50001C13 3.00001 12.9987 4.00001 13 4.50001C13 5.50001 12.9987 6.20536 12.9987 7.00126C12.9987 9.65292 12.9987 12.0005 12.9987 12.0005C12.9987 12.5524 12.5508 12.9984 11.9989 12.9984C10.895 12.9984 9.99912 13.8943 9.99912 14.9981C9.99912 15.5501 9.55118 16 8.99925 16C8.99925 16 7.39345 16 6.00162 16C4.34383 16 3 14.6562 3 12.9984V7.00126C3 5.69442 3.8349 4.58356 4.99975 4.17061ZM11.9989 13.9983C12.5508 13.9983 12.9987 14.4462 12.9987 14.9981C12.9987 15.5501 12.5508 15.998 11.9989 15.998C11.4469 15.998 10.999 15.5501 10.999 14.9981C10.999 14.4462 11.4469 13.9983 11.9989 13.9983Z" fill="url(#paint0_linear_25_2650)"/>
<path fill-rule="evenodd" clip-rule="evenodd" d="M4.75 12.5H10.25C10.664 12.5 11 12.164 11 11.75C11 11.336 10.664 11 10.25 11H4.75C4.336 11 4 11.336 4 11.75C4 12.164 4.336 12.5 4.75 12.5Z" fill="#8C4FD9"/>
<path fill-rule="evenodd" clip-rule="evenodd" d="M5.75 11.5H11.25C11.664 11.5 12 11.164 12 10.75C12 10.336 11.664 10 11.25 10H5.75C5.336 10 5 10.336 5 10.75C5 11.164 5.336 11.5 5.75 11.5Z" fill="url(#paint1_linear_25_2650)"/>
<path d="M10.9088 2.14641C10.8151 2.05272 10.688 2.00005 10.5556 1.99997C10.4898 1.99995 10.4248 2.01287 10.3641 2.03799C10.3034 2.06313 10.2483 2.09997 10.2018 2.14641C10.1554 2.19286 10.1186 2.24801 10.0934 2.3087C10.0683 2.36939 10.0554 2.43444 10.0554 2.50013L10.0563 4.16669C10.054 4.23379 10.0651 4.30069 10.0892 4.36338C10.1132 4.42607 10.1496 4.48328 10.1963 4.53159C10.2429 4.5799 10.2988 4.61832 10.3606 4.64457C10.4224 4.67081 10.4888 4.68433 10.556 4.68433C10.6232 4.68433 10.6896 4.67081 10.7514 4.64457C10.8132 4.61833 10.8691 4.5799 10.9158 4.53159C10.9624 4.48328 10.9988 4.42607 11.0228 4.36338C11.0469 4.30069 11.0581 4.23379 11.0557 4.16669L11.0552 2.49965C11.0552 2.36715 11.0025 2.24011 10.9088 2.14641Z" fill="#8C4FD9"/>
<path d="M8.85309 2.18507C8.75942 2.09137 8.63235 2.0387 8.49989 2.03862C8.43415 2.0386 8.36915 2.05152 8.30842 2.07665C8.24775 2.10178 8.19262 2.13862 8.14615 2.18507C8.09969 2.23151 8.06289 2.28666 8.03775 2.34735C8.01262 2.40805 7.99969 2.47309 7.99969 2.53878L8.00062 4.20535C7.99829 4.27245 8.00942 4.33934 8.03349 4.40203C8.05755 4.46473 8.09395 4.52193 8.14062 4.57025C8.18722 4.61855 8.24309 4.65697 8.30495 4.68322C8.36675 4.70946 8.43315 4.72299 8.50035 4.72299C8.56749 4.72299 8.63395 4.70946 8.69575 4.68322C8.75755 4.65698 8.81342 4.61855 8.86009 4.57025C8.90669 4.52193 8.94315 4.46473 8.96715 4.40203C8.99122 4.33935 9.00242 4.27245 9.00002 4.20535L8.99955 2.53831C8.99949 2.40581 8.94682 2.27876 8.85309 2.18507Z" fill="#8C4FD9"/>
<path d="M6.85342 2.18507C6.75969 2.09137 6.63269 2.0387 6.50015 2.03862C6.43449 2.0386 6.36942 2.05152 6.30875 2.07665C6.24802 2.10178 6.19289 2.13862 6.14642 2.18507C6.10002 2.23151 6.06316 2.28666 6.03803 2.34735C6.01291 2.40805 5.99998 2.47309 6 2.53878L6.00095 4.20535C5.99857 4.27245 6.00975 4.33934 6.03379 4.40203C6.05784 4.46473 6.09429 4.52193 6.14089 4.57025C6.18755 4.61855 6.24342 4.65697 6.30522 4.68322C6.36702 4.70946 6.43349 4.72299 6.50062 4.72299C6.56775 4.72299 6.63422 4.70946 6.69602 4.68322C6.75782 4.65697 6.81375 4.61855 6.86035 4.57025C6.90702 4.52193 6.94342 4.46473 6.96749 4.40203C6.99155 4.33934 7.00269 4.27245 7.00035 4.20535L6.99982 2.53831C6.99975 2.40581 6.94709 2.27876 6.85342 2.18507Z" fill="#8C4FD9"/>
<path d="M11.4088 1.10668C11.3151 1.01299 11.188 0.960313 11.0556 0.960233C10.9898 0.960213 10.9248 0.973133 10.8641 0.99826C10.8034 1.02339 10.7483 1.06023 10.7018 1.10668C10.6554 1.15313 10.6186 1.20827 10.5934 1.26897C10.5683 1.32966 10.5554 1.39471 10.5554 1.46039L10.5563 3.12696C10.554 3.19406 10.5651 3.26095 10.5892 3.32365C10.6132 3.38634 10.6496 3.44355 10.6963 3.49186C10.7429 3.54017 10.7988 3.57859 10.8606 3.60483C10.9224 3.63107 10.9888 3.6446 11.056 3.6446C11.1232 3.6446 11.1896 3.63107 11.2514 3.60483C11.3132 3.57859 11.3691 3.54017 11.4158 3.49186C11.4624 3.44355 11.4988 3.38634 11.5228 3.32365C11.5469 3.26096 11.5581 3.19406 11.5557 3.12696L11.5552 1.45992C11.5552 1.32742 11.5025 1.20037 11.4088 1.10668Z" fill="url(#paint2_linear_25_2650)"/>
<path d="M9.35309 1.14533C9.25942 1.05164 9.13235 0.998966 8.99989 0.998886C8.93415 0.998866 8.86915 1.01179 8.80842 1.03691C8.74775 1.06205 8.69262 1.09889 8.64615 1.14533C8.59969 1.19178 8.56289 1.24693 8.53775 1.30762C8.51262 1.36831 8.49969 1.43336 8.49969 1.49905L8.50062 3.16561C8.49829 3.23271 8.50942 3.29961 8.53349 3.3623C8.55755 3.42499 8.59395 3.4822 8.64062 3.53051C8.68722 3.57882 8.74309 3.61724 8.80495 3.64349C8.86675 3.66973 8.93315 3.68325 9.00035 3.68325C9.06749 3.68325 9.13395 3.66973 9.19575 3.64349C9.25755 3.61725 9.31342 3.57882 9.36009 3.53051C9.40669 3.4822 9.44315 3.42499 9.46715 3.3623C9.49122 3.29961 9.50242 3.23271 9.50002 3.16561L9.49955 1.49857C9.49949 1.36607 9.44682 1.23903 9.35309 1.14533Z" fill="url(#paint3_linear_25_2650)"/>
<path d="M7.35342 1.14533C7.25969 1.05164 7.13269 0.998966 7.00015 0.998886C6.93449 0.998866 6.86942 1.01179 6.80875 1.03691C6.74802 1.06205 6.69289 1.09889 6.64642 1.14533C6.60002 1.19178 6.56316 1.24693 6.53803 1.30762C6.51291 1.36831 6.49998 1.43336 6.5 1.49905L6.50095 3.16561C6.49857 3.23271 6.50975 3.29961 6.53379 3.3623C6.55784 3.42499 6.59429 3.4822 6.64089 3.53051C6.68755 3.57882 6.74342 3.61724 6.80522 3.64349C6.86702 3.66973 6.93349 3.68325 7.00062 3.68325C7.06775 3.68325 7.13422 3.66973 7.19602 3.64349C7.25782 3.61724 7.31375 3.57882 7.36035 3.53051C7.40702 3.4822 7.44342 3.42499 7.46749 3.3623C7.49155 3.29961 7.50269 3.23271 7.50035 3.16561L7.49982 1.49857C7.49975 1.36607 7.44709 1.23903 7.35342 1.14533Z" fill="url(#paint4_linear_25_2650)"/>
</g>
<defs>
<linearGradient id="paint0_linear_25_2650" x1="5.5" y1="14.8571" x2="15.7012" y2="7.41878" gradientUnits="userSpaceOnUse">
<stop stop-color="#A056FF"/>
<stop offset="1" stop-color="#C59AFD"/>
</linearGradient>
<linearGradient id="paint1_linear_25_2650" x1="6.75" y1="11.5" x2="8.96751" y2="8.05054" gradientUnits="userSpaceOnUse">
<stop stop-color="#C59AFD"/>
<stop offset="1" stop-color="white"/>
</linearGradient>
<linearGradient id="paint2_linear_25_2650" x1="7.764" y1="3.68325" x2="11.7243" y2="1.23213" gradientUnits="userSpaceOnUse">
<stop stop-color="#C59AFD"/>
<stop offset="1" stop-color="white"/>
</linearGradient>
<linearGradient id="paint3_linear_25_2650" x1="7.764" y1="3.68325" x2="11.7243" y2="1.23213" gradientUnits="userSpaceOnUse">
<stop stop-color="#C59AFD"/>
<stop offset="1" stop-color="white"/>
</linearGradient>
<linearGradient id="paint4_linear_25_2650" x1="7.764" y1="3.68325" x2="11.7243" y2="1.23213" gradientUnits="userSpaceOnUse">
<stop stop-color="#C59AFD"/>
<stop offset="1" stop-color="white"/>
</linearGradient>
<clipPath id="clip0_25_2650">
<rect width="16" height="16" fill="white"/>
</clipPath>
</defs>
</svg>
