<svg width="16" height="16" viewBox="0 0 16 16" fill="none" xmlns="http://www.w3.org/2000/svg">
<g clip-path="url(#clip0_25_2613)">
<path fill-rule="evenodd" clip-rule="evenodd" d="M8.99044 14.8641C8.99044 15.4111 8.5465 15.855 7.9995 15.855C7.45251 15.855 7.00857 15.4111 7.00857 14.8641C7.00857 14.3171 7.45251 13.8731 7.9995 13.8731C8.5465 13.8731 8.99044 14.3171 8.99044 14.8641ZM7.9995 12.8822C6.01763 12.8822 5.85809 14.4895 5.82241 14.547C5.53207 15.0098 4.91967 15.1495 4.4569 14.8591C1.64957 13.0963 0.457468 9.28114 0.0858657 7.10305C0.049201 6.88802 0.0244275 6.6819 0.00857252 6.48768C0.00857252 6.48471 0.00758153 6.48173 0.00758153 6.47876C-0.0825939 5.24306 0.63881 4.09258 1.78929 3.63377C1.79226 3.63278 1.79424 3.63179 1.79623 3.6308C2.99328 3.16407 3.94954 2.68049 4.61347 1.62613C4.61644 1.62118 4.61842 1.61721 4.62139 1.61325C5.25956 0.631228 6.34662 0.0346829 7.50998 0.0227916C7.81816 0.000990941 8.13923 0 8.44642 0C9.63753 0 10.7474 0.602491 11.3964 1.60136C11.4014 1.60929 11.4064 1.6182 11.4113 1.62613C12.0564 2.68644 13.0107 3.16605 14.2028 3.62981C14.2048 3.62981 14.2077 3.6308 14.2097 3.63179C15.3612 4.0906 16.0826 5.24306 15.9924 6.47876C15.9924 6.48471 15.9914 6.49065 15.9914 6.4966C15.9736 6.68785 15.9488 6.89 15.9131 7.10305C15.5415 9.28114 14.3494 13.0963 11.5421 14.8591C11.0793 15.1495 10.4669 15.0098 10.1766 14.547C10.1409 14.4895 9.98138 12.8822 7.9995 12.8822Z" fill="url(#paint0_linear_25_2613)"/>
<path fill-rule="evenodd" clip-rule="evenodd" d="M8.21799 7.71032C8.21799 8.23016 7.71988 8.65397 7.10899 8.65397C6.49811 8.65397 6 8.23016 6 7.71032V3.94363C6 3.42382 6.49811 3 7.10899 3C7.71988 3 8.21799 3.42382 8.21799 3.94363V7.71032ZM6 10.8815C6 10.2653 6.49273 9.76296 7.09641 9.76296C7.71767 9.76296 8.21167 10.2653 8.21167 10.8815C8.21167 11.4977 7.71767 12 7.10899 12C6.49777 12 6 11.4977 6 10.8815Z" fill="#D49F34"/>
<path fill-rule="evenodd" clip-rule="evenodd" d="M9.21823 6.71032C9.21823 7.23016 8.72013 7.65397 8.10924 7.65397C7.49835 7.65397 7.00024 7.23016 7.00024 6.71032V2.94363C7.00024 2.42382 7.49835 2 8.10924 2C8.72013 2 9.21823 2.42382 9.21823 2.94363V6.71032ZM7.00024 9.88149C7.00024 9.26534 7.49297 8.76296 8.09665 8.76296C8.71791 8.76296 9.21191 9.26534 9.21191 9.88149C9.21191 10.4977 8.71791 11 8.10924 11C7.49802 11 7.00024 10.4977 7.00024 9.88149Z" fill="url(#paint1_linear_25_2613)"/>
</g>
<defs>
<linearGradient id="paint0_linear_25_2613" x1="3" y1="14.8629" x2="12.8918" y2="2.88326" gradientUnits="userSpaceOnUse">
<stop stop-color="#FF8860"/>
<stop offset="1" stop-color="#FBD92C"/>
</linearGradient>
<linearGradient id="paint1_linear_25_2613" x1="7.55474" y1="8.75002" x2="9.64574" y2="8.23471" gradientUnits="userSpaceOnUse">
<stop stop-color="#FBD92C"/>
<stop offset="1" stop-color="white"/>
</linearGradient>
<clipPath id="clip0_25_2613">
<rect width="16" height="16" fill="white"/>
</clipPath>
</defs>
</svg>
