<svg width="16" height="16" viewBox="0 0 16 16" fill="none" xmlns="http://www.w3.org/2000/svg">
<path d="M14.8571 4.42857C15.4093 4.42857 15.9969 4.76003 15.9992 5.31218C15.9997 5.44712 16 5.54594 16 5.57143V9.70885C16 10.7097 15.5626 11.6606 14.8027 12.3119L12.963 13.8888C12.3415 14.4215 11.5501 14.7143 10.7317 14.7143H5.26828C4.44992 14.7143 3.65848 14.4215 3.03697 13.8888L1.19727 12.3119C0.437361 11.6606 0 10.7097 0 9.70885V4.42857C0 2.53502 1.53502 1 3.42857 1H11.4286C11.4541 1 11.5529 1.00028 11.6878 1.00083C12.24 1.00309 12.5714 1.5907 12.5714 2.14286C12.5714 3.40527 13.5947 4.42857 14.8571 4.42857Z" fill="url(#paint0_linear_29_619)"/>
<path d="M14.8571 3.28571C15.4883 3.28571 15.9999 2.77404 15.9999 2.14286C15.9999 1.51167 15.4883 1 14.8571 1C14.2259 1 13.7142 1.51167 13.7142 2.14286C13.7142 2.77404 14.2259 3.28571 14.8571 3.28571Z" fill="url(#paint1_linear_29_619)"/>
<path d="M2.5 7C2.5 5.89543 3.39543 5 4.5 5H9.5C10.6046 5 11.5 5.89543 11.5 7V9.86585C11.5 10.4497 11.2449 11.0044 10.8016 11.3844L9.81173 12.2328C9.44925 12.5435 8.98757 12.7143 8.51015 12.7143H5.48985C5.01243 12.7143 4.55075 12.5435 4.18827 12.2328L3.19842 11.3844C2.75513 11.0044 2.5 10.4497 2.5 9.86584V7Z" stroke="#8C4FD9"/>
<path d="M7 7.54688V8.62236C7 8.92443 7.24481 9.16924 7.54688 9.16924C7.84894 9.16924 8.09375 8.92443 8.09375 8.62236V7.54688C8.09375 7.24483 7.84894 7 7.54688 7C7.24481 7 7 7.24483 7 7.54688Z" fill="#8C4FD9"/>
<path d="M9 7.54688V8.62236C9 8.92443 9.24481 9.16924 9.54688 9.16924C9.84894 9.16924 10.0938 8.92443 10.0938 8.62236V7.54688C10.0938 7.24483 9.84894 7 9.54688 7C9.24481 7 9 7.24483 9 7.54688Z" fill="#8C4FD9"/>
<path d="M4.5 7.54688V8.62236C4.5 8.92443 4.74481 9.16924 5.04688 9.16924C5.34894 9.16924 5.59375 8.92443 5.59375 8.62236V7.54688C5.59375 7.24483 5.34894 7 5.04688 7C4.74481 7 4.5 7.24483 4.5 7.54688Z" fill="#8C4FD9"/>
<path d="M7.45117 6.69788V7.77336C7.45117 8.07543 7.69598 8.32024 7.99805 8.32024C8.30011 8.32024 8.54492 8.07543 8.54492 7.77336V6.69788C8.54492 6.39583 8.30011 6.151 7.99805 6.151C7.69598 6.151 7.45117 6.39583 7.45117 6.69788Z" fill="url(#paint2_linear_29_619)"/>
<path d="M9.60229 6.69788V7.77336C9.60229 8.07543 9.84711 8.32024 10.1492 8.32024C10.4512 8.32024 10.696 8.07543 10.696 7.77336V6.69788C10.696 6.39583 10.4512 6.151 10.1492 6.151C9.84711 6.151 9.60229 6.39583 9.60229 6.69788Z" fill="url(#paint3_linear_29_619)"/>
<path d="M5.30005 6.69788V7.77336C5.30005 8.07543 5.54486 8.32024 5.84692 8.32024C6.14899 8.32024 6.3938 8.07543 6.3938 7.77336V6.69788C6.3938 6.39583 6.14899 6.151 5.84692 6.151C5.54486 6.151 5.30005 6.39583 5.30005 6.69788Z" fill="url(#paint4_linear_29_619)"/>
<path d="M3.5 6C3.5 4.89543 4.39543 4 5.5 4H10.5C11.6046 4 12.5 4.89543 12.5 6V8.86585C12.5 9.4497 12.2449 10.0044 11.8016 10.3844L10.8117 11.2328C10.4492 11.5435 9.98757 11.7143 9.51015 11.7143H6.48985C6.01243 11.7143 5.55075 11.5435 5.18827 11.2328L4.19842 10.3844C3.75513 10.0044 3.5 9.44969 3.5 8.86584V6Z" stroke="url(#paint5_linear_29_619)"/>
<defs>
<linearGradient id="paint0_linear_29_619" x1="4" y1="13.7347" x2="12.7639" y2="1.8061" gradientUnits="userSpaceOnUse">
<stop stop-color="#A056FF"/>
<stop offset="1" stop-color="#C59AFD"/>
</linearGradient>
<linearGradient id="paint1_linear_29_619" x1="4" y1="13.7347" x2="12.7639" y2="1.8061" gradientUnits="userSpaceOnUse">
<stop stop-color="#A056FF"/>
<stop offset="1" stop-color="#C59AFD"/>
</linearGradient>
<linearGradient id="paint2_linear_29_619" x1="7.72461" y1="8.32024" x2="8.87695" y2="8.12656" gradientUnits="userSpaceOnUse">
<stop stop-color="#C59AFD"/>
<stop offset="1" stop-color="white"/>
</linearGradient>
<linearGradient id="paint3_linear_29_619" x1="9.87573" y1="8.32024" x2="11.0281" y2="8.12656" gradientUnits="userSpaceOnUse">
<stop stop-color="#C59AFD"/>
<stop offset="1" stop-color="white"/>
</linearGradient>
<linearGradient id="paint4_linear_29_619" x1="5.57349" y1="8.32024" x2="6.72583" y2="8.12656" gradientUnits="userSpaceOnUse">
<stop stop-color="#C59AFD"/>
<stop offset="1" stop-color="white"/>
</linearGradient>
<linearGradient id="paint5_linear_29_619" x1="5.75" y1="11.7143" x2="14.2192" y2="8.42072" gradientUnits="userSpaceOnUse">
<stop stop-color="#C59AFD"/>
<stop offset="1" stop-color="white"/>
</linearGradient>
</defs>
</svg>
