<svg width="16" height="16" viewBox="0 0 16 16" fill="none" xmlns="http://www.w3.org/2000/svg">
<g clip-path="url(#clip0_25_2598)">
<path fill-rule="evenodd" clip-rule="evenodd" d="M8.99044 14.8641C8.99044 15.4111 8.5465 15.855 7.9995 15.855C7.45251 15.855 7.00857 15.4111 7.00857 14.8641C7.00857 14.3171 7.45251 13.8731 7.9995 13.8731C8.5465 13.8731 8.99044 14.3171 8.99044 14.8641ZM7.9995 12.8822C6.01763 12.8822 5.85809 14.4895 5.82241 14.547C5.53207 15.0098 4.91967 15.1495 4.4569 14.8591C1.64957 13.0963 0.457468 9.28114 0.0858657 7.10305C0.049201 6.88802 0.0244275 6.6819 0.00857252 6.48768C0.00857252 6.48471 0.00758153 6.48173 0.00758153 6.47876C-0.0825939 5.24306 0.63881 4.09258 1.78929 3.63377C1.79226 3.63278 1.79424 3.63179 1.79623 3.6308C2.99328 3.16407 3.94954 2.68049 4.61347 1.62613C4.61644 1.62118 4.61842 1.61721 4.62139 1.61325C5.25956 0.631228 6.34662 0.0346829 7.50998 0.0227916C7.81816 0.000990941 8.13923 0 8.44642 0C9.63753 0 10.7474 0.602491 11.3964 1.60136C11.4014 1.60929 11.4064 1.6182 11.4113 1.62613C12.0564 2.68644 13.0107 3.16605 14.2028 3.62981C14.2048 3.62981 14.2077 3.6308 14.2097 3.63179C15.3612 4.0906 16.0826 5.24306 15.9924 6.47876C15.9924 6.48471 15.9914 6.49065 15.9914 6.4966C15.9736 6.68785 15.9488 6.89 15.9131 7.10305C15.5415 9.28114 14.3494 13.0963 11.5421 14.8591C11.0793 15.1495 10.4669 15.0098 10.1766 14.547C10.1409 14.4895 9.98138 12.8822 7.9995 12.8822Z" fill="url(#paint0_linear_25_2598)"/>
<circle cx="7.5" cy="8.5" r="1.5" fill="#279FD7"/>
<circle cx="3.5" cy="8.5" r="1.5" fill="#279FD7"/>
<circle cx="11.5" cy="8.5" r="1.5" fill="#279FD7"/>
<circle cx="8" cy="7.5" r="1.5" fill="url(#paint1_linear_25_2598)"/>
<circle cx="4" cy="7.5" r="1.5" fill="url(#paint2_linear_25_2598)"/>
<circle cx="12" cy="7.5" r="1.5" fill="url(#paint3_linear_25_2598)"/>
</g>
<defs>
<linearGradient id="paint0_linear_25_2598" x1="1.6" y1="15.86" x2="7.28471" y2="-1.35223" gradientUnits="userSpaceOnUse">
<stop stop-color="#22B4FA"/>
<stop offset="1" stop-color="#6BD6FE"/>
</linearGradient>
<linearGradient id="paint1_linear_25_2598" x1="6.5" y1="9" x2="10.0294" y2="8.11765" gradientUnits="userSpaceOnUse">
<stop stop-color="#6BD6FE"/>
<stop offset="1" stop-color="white"/>
</linearGradient>
<linearGradient id="paint2_linear_25_2598" x1="2.5" y1="9" x2="6.02941" y2="8.11765" gradientUnits="userSpaceOnUse">
<stop stop-color="#6BD6FE"/>
<stop offset="1" stop-color="white"/>
</linearGradient>
<linearGradient id="paint3_linear_25_2598" x1="10.5" y1="9" x2="14.0294" y2="8.11765" gradientUnits="userSpaceOnUse">
<stop stop-color="#6BD6FE"/>
<stop offset="1" stop-color="white"/>
</linearGradient>
<clipPath id="clip0_25_2598">
<rect width="16" height="16" fill="white"/>
</clipPath>
</defs>
</svg>
