<svg width="16" height="16" viewBox="0 0 16 16" fill="none" xmlns="http://www.w3.org/2000/svg">
<path fill-rule="evenodd" clip-rule="evenodd" d="M10.1053 12.9476C10.1053 13.4124 9.72807 13.7897 9.26322 13.7897C8.79838 13.7897 8.42111 13.4124 8.42111 12.9476C8.42111 12.4827 8.79838 12.1054 9.26322 12.1054C9.72807 12.1054 10.1053 12.4827 10.1053 12.9476ZM3.16465 4.52645C3.2935 4.39845 3.43918 4.28645 3.60002 4.19381C4.39161 3.73655 5.76341 2.94412 6.90447 2.28559C7.56805 1.90243 8.38321 1.90496 9.04427 2.29233C9.70028 2.67717 10.1053 3.38455 10.1053 4.15087V10.4061C10.1053 10.8684 9.73059 11.2448 9.26827 11.2482H9.26322C8.34448 11.26 7.579 12.0254 7.579 12.9476C7.39458 13.3737 6.89773 13.5707 6.47162 13.3855L3.81813 11.5185C3.66066 11.4503 3.51413 11.3644 3.38108 11.2633C3.37686 11.2633 3.37265 11.2633 3.36844 11.2633C3.36844 11.2633 2.75623 11.2633 2.13475 11.2633C1.56885 11.2633 1.02569 11.0385 0.624846 10.6385C0.224844 10.2376 0 9.69533 0 9.12859V6.6612C0 6.09446 0.224844 5.55214 0.624846 5.1513C1.02569 4.75129 1.56885 4.52645 2.13475 4.52645H3.16465ZM9.26827 11.2431C9.26827 11.2431 9.26743 11.244 9.2649 11.2465L9.26322 11.2482L9.26827 11.2431ZM11.0653 6.90127C11.0653 6.90127 11.5326 7.23559 11.5326 7.88486C11.5326 8.53413 11.0653 8.86844 11.0653 8.86844C10.6787 9.12613 10.5743 9.64908 10.832 10.0365C11.0897 10.423 11.6126 10.5274 12 10.2697C12 10.2697 13.2169 9.4815 13.2169 7.88486C13.2169 6.28822 12 5.5 12 5.5C11.6126 5.24231 11.0897 5.34674 10.832 5.73326C10.5743 6.12064 10.6787 6.64359 11.0653 6.90127Z" fill="url(#paint0_linear_30_675)"/>
<path fill-rule="evenodd" clip-rule="evenodd" d="M2.64661 11.2154V6.2107C2.64661 5.74586 3.02556 5.36859 3.48872 5.36859C3.95188 5.36859 4.33083 5.74586 4.33083 6.2107V11.2634H3.09293C2.94135 11.2634 2.78977 11.2474 2.64661 11.2154Z" fill="#8CC860"/>
<path fill-rule="evenodd" clip-rule="evenodd" d="M3.48877 5.36854V10.4212C3.48877 10.886 3.86772 11.2633 4.33088 11.2633C4.79404 11.2633 5.17299 10.886 5.17299 10.4212V5.36854C5.17299 4.90369 4.79404 4.52643 4.33088 4.52643C3.86772 4.52643 3.48877 4.90369 3.48877 5.36854Z" fill="url(#paint1_linear_30_675)"/>
<path d="M14.3158 7.89469C14.3158 7.24543 13.8484 6.91111 13.8484 6.91111C13.4619 6.65342 13.3574 6.13047 13.6151 5.7431C13.8728 5.35657 14.3958 5.25215 14.7831 5.50984C14.7831 5.50984 16 6.29805 16 7.89469C16 9.49134 14.7831 10.2796 14.7831 10.2796C14.3958 10.5372 13.8728 10.4328 13.6151 10.0463C13.3574 9.65892 13.4619 9.13597 13.8484 8.87828C13.8484 8.87828 14.3158 8.54396 14.3158 7.89469Z" fill="url(#paint2_linear_30_675)"/>
<defs>
<linearGradient id="paint0_linear_30_675" x1="0.944061" y1="13.7897" x2="8.37959" y2="1.66511" gradientUnits="userSpaceOnUse">
<stop stop-color="#9BE862"/>
<stop offset="1" stop-color="#C8FF9F"/>
</linearGradient>
<linearGradient id="paint1_linear_30_675" x1="3.6993" y1="11.2633" x2="6.11026" y2="10.7359" gradientUnits="userSpaceOnUse">
<stop stop-color="#C8FF9F"/>
<stop offset="1" stop-color="white"/>
</linearGradient>
<linearGradient id="paint2_linear_30_675" x1="13.6542" y1="10.4209" x2="17.0553" y2="7.94736" gradientUnits="userSpaceOnUse">
<stop stop-color="#9BE862"/>
<stop offset="1" stop-color="#C8FF9F"/>
</linearGradient>
</defs>
</svg>
