<svg width="16" height="16" viewBox="0 0 16 16" fill="none" xmlns="http://www.w3.org/2000/svg">
<g clip-path="url(#clip0_58_828)">
<path fill-rule="evenodd" clip-rule="evenodd" d="M1 13C0.448 13 0 12.552 0 12V3.992C0 1.787 1.787 0 3.992 0C6.357 0 9.643 0 12.008 0C13.067 0 14.082 0.421001 14.831 1.169C15.579 1.918 16 2.933 16 3.992C16 6.357 16 9.643 16 12.008C16 14.213 14.213 16 12.008 16C8.751 16 4 16 4 16C3.448 16 3 15.552 3 15C3 13.896 2.104 13 1 13ZM1 14C1.552 14 2 14.448 2 15C2 15.552 1.552 16 1 16C0.448 16 0 15.552 0 15C0 14.448 0.448 14 1 14Z" fill="url(#paint0_linear_58_828)"/>
<path opacity="0.7" fill-rule="evenodd" clip-rule="evenodd" d="M3.19995 7.75157C3.19995 5.57213 4.99382 3.79999 7.19998 3.79999C9.40608 3.79999 11.2 5.57213 11.2 7.75157C11.2 9.18136 10.5192 10.0409 9.5574 11.2554L9.5574 11.2554L9.49579 11.3332C9.06019 11.8835 8.52659 12.5579 7.91336 13.4312C7.75116 13.6621 7.48467 13.8 7.19998 13.8C6.91533 13.8 6.6487 13.6621 6.48644 13.4311C5.86681 12.5485 5.33094 11.8718 4.89348 11.3196L4.83305 11.2433C3.87675 10.0367 3.19995 9.18269 3.19995 7.75157ZM6 7.49995C6 6.83959 6.53956 6.29999 7.2 6.29999C7.86044 6.29999 8.4 6.83959 8.4 7.49995C8.4 8.16036 7.86039 8.69999 7.2 8.69999C6.53961 8.69999 6 8.16036 6 7.49995Z" fill="#B85C68"/>
<path fill-rule="evenodd" clip-rule="evenodd" d="M4.19995 6.75157C4.19995 4.57213 5.99382 2.79999 8.19998 2.79999C10.4061 2.79999 12.2 4.57213 12.2 6.75157C12.2 8.18136 11.5192 9.04092 10.5574 10.2554L10.5574 10.2554L10.4958 10.3332C10.0602 10.8835 9.52659 11.5579 8.91336 12.4312C8.75116 12.6621 8.48467 12.8 8.19998 12.8C7.91533 12.8 7.6487 12.6621 7.48644 12.4311C6.86681 11.5485 6.33094 10.8718 5.89348 10.3196L5.83305 10.2433C4.87675 9.03669 4.19995 8.18269 4.19995 6.75157ZM7 6.49995C7 5.83959 7.53956 5.29999 8.2 5.29999C8.86044 5.29999 9.4 5.83959 9.4 6.49995C9.4 7.16036 8.86039 7.69999 8.2 7.69999C7.53961 7.69999 7 7.16036 7 6.49995Z" fill="url(#paint1_linear_58_828)"/>
</g>
<defs>
<linearGradient id="paint0_linear_58_828" x1="-0.231281" y1="0.15744" x2="16.2633" y2="17.1567" gradientUnits="userSpaceOnUse">
<stop stop-color="#F9D423"/>
<stop offset="0.515624" stop-color="#FF4E50"/>
<stop offset="0.991304" stop-color="#8A2387"/>
</linearGradient>
<linearGradient id="paint1_linear_58_828" x1="4.77138" y1="12.1877" x2="12.7431" y2="8.74609" gradientUnits="userSpaceOnUse">
<stop stop-color="#D4A4C4"/>
<stop offset="0.5" stop-color="#F7B1B3"/>
<stop offset="1" stop-color="#F7E1A3"/>
</linearGradient>
<clipPath id="clip0_58_828">
<rect width="16" height="16" fill="white"/>
</clipPath>
</defs>
</svg>
