<svg width="16" height="16" viewBox="0 0 16 16" fill="none" xmlns="http://www.w3.org/2000/svg">
<g clip-path="url(#clip0_54_670)">
<path fill-rule="evenodd" clip-rule="evenodd" d="M5 0H10.18C10.97 0 11.728 0.314 12.287 0.872C12.817 1.403 13.597 2.183 14.128 2.713C14.686 3.272 15 4.03 15 4.82V13.021C15 13.811 14.686 14.569 14.128 15.128C13.569 15.686 12.811 16 12.021 16C9.796 16 6.204 16 3.979 16C3.189 16 2.431 15.686 1.872 15.128C1.314 14.569 1 13.811 1 13.021V4C1 3.448 1.448 3 2 3C3.104 3 4 2.104 4 1C4 0.448 4.448 0 5 0ZM3 1C3 1.552 2.552 2 2 2C1.448 2 1 1.552 1 1C1 0.448 1.448 0 2 0C2.552 0 3 0.448 3 1Z" fill="url(#paint0_linear_54_670)"/>
<path fill-rule="evenodd" clip-rule="evenodd" d="M10.1091 13.3182H5.44238C5.03256 13.3182 4.69995 13.6508 4.69995 14.0606C4.69995 14.4704 5.03256 14.803 5.44238 14.803H10.1091C10.5189 14.803 10.8515 14.4704 10.8515 14.0606C10.8515 13.6508 10.5189 13.3182 10.1091 13.3182Z" fill="#D84F4F"/>
<path fill-rule="evenodd" clip-rule="evenodd" d="M8.41208 10.7545H5.44238C5.03256 10.7545 4.69995 11.0871 4.69995 11.4969C4.69995 11.9068 5.03256 12.2394 5.44238 12.2394H8.41208C8.8219 12.2394 9.15451 11.9068 9.15451 11.4969C9.15451 11.0871 8.8219 10.7545 8.41208 10.7545Z" fill="#D84F4F"/>
<path fill-rule="evenodd" clip-rule="evenodd" d="M9.26059 9.79999H6.29089C5.88107 9.79999 5.54846 10.1326 5.54846 10.5424C5.54846 10.9522 5.88107 11.2848 6.29089 11.2848H9.26059C9.67041 11.2848 10.003 10.9522 10.003 10.5424C10.003 10.1326 9.67041 9.79999 9.26059 9.79999Z" fill="url(#paint1_linear_54_670)"/>
<path fill-rule="evenodd" clip-rule="evenodd" d="M10.9576 12.3637H6.29089C5.88107 12.3637 5.54846 12.6963 5.54846 13.1061C5.54846 13.516 5.88107 13.8486 6.29089 13.8486H10.9576C11.3674 13.8486 11.7 13.516 11.7 13.1061C11.7 12.6963 11.3674 12.3637 10.9576 12.3637Z" fill="url(#paint2_linear_54_670)"/>
<path fill-rule="evenodd" clip-rule="evenodd" d="M3.12153 10.0532C3.21529 10.2277 3.36113 10.3856 3.57781 10.4593C3.79344 10.532 4.007 10.4981 4.18201 10.4302C4.51327 10.3042 4.8435 10.0076 5.14664 9.66837C5.49355 9.27971 5.85814 8.76986 6.21022 8.20477C6.88999 8.01725 7.58609 7.88558 8.29056 7.81126C8.60307 8.18247 8.92602 8.50235 9.23853 8.73206C9.53023 8.94529 9.86669 9.12266 10.2115 9.13623C10.3993 9.14488 10.5853 9.09808 10.7428 9.00248C10.9042 8.90458 11.024 8.76308 11.1115 8.59928C11.2053 8.42381 11.2626 8.24063 11.2553 8.05357C11.2487 7.86914 11.1753 7.69218 11.0469 7.55147C10.8115 7.28978 10.4261 7.16378 10.0469 7.10078C9.58693 7.03449 9.12022 7.01822 8.65619 7.05232C8.26437 6.53689 7.92274 5.99001 7.63531 5.41813C7.89577 4.7784 8.09056 4.17356 8.17702 3.67923C8.21452 3.46793 8.23431 3.26632 8.22702 3.0841C8.22572 2.90322 8.18048 2.72495 8.09473 2.56263C8.04529 2.47305 7.97508 2.39482 7.88911 2.33363C7.80317 2.27244 7.70365 2.22981 7.59781 2.20884C7.38739 2.16717 7.17072 2.20884 6.97173 2.28348C6.57901 2.42887 6.37172 2.73904 6.2936 3.08119C6.21752 3.41074 6.25193 3.79458 6.34151 4.18229C6.43318 4.5758 6.58943 5.00423 6.78943 5.43751C6.46949 6.17783 6.09999 6.89876 5.68314 7.59605C5.14626 7.75324 4.62878 7.9628 4.1393 8.22124C3.75386 8.43451 3.41113 8.68651 3.20487 8.98406C2.98611 9.30006 2.91839 9.67613 3.12153 10.0532ZM5.01434 8.61676C4.84143 8.69042 4.68205 8.76796 4.53621 8.84743C4.19452 9.03547 3.97263 9.21868 3.86221 9.37861C3.76429 9.51818 3.76221 9.62091 3.82054 9.72753C3.82816 9.74248 3.83723 9.75678 3.84763 9.77018C3.86006 9.76709 3.87224 9.76322 3.88409 9.75854C4.0268 9.70427 4.2539 9.53078 4.54558 9.20415C4.71184 9.01542 4.86828 8.8194 5.01434 8.61676ZM6.72277 7.32664C6.84676 7.29951 6.96968 7.27527 7.09364 7.25104C7.32073 7.2084 7.54885 7.17157 7.77493 7.14055C7.58546 6.87034 7.40823 6.59287 7.24364 6.30892C7.08014 6.65254 6.90644 6.99195 6.72277 7.32664ZM9.27085 7.7638C9.4107 7.90687 9.56219 8.03975 9.72398 8.16119C9.97399 8.34534 10.149 8.40643 10.2428 8.40934C10.2678 8.41218 10.2931 8.40706 10.3147 8.3948C10.3578 8.3632 10.3916 8.32183 10.4126 8.27458C10.45 8.21563 10.4714 8.1491 10.4751 8.08074C10.4747 8.05765 10.4651 8.0355 10.448 8.01871C10.3938 7.95862 10.2386 7.87139 9.90836 7.81614C9.72294 7.78512 9.50836 7.76865 9.27085 7.7638ZM7.19781 4.36454C7.29364 4.06892 7.36448 3.79752 7.40614 3.56102V3.56199C7.43843 3.37977 7.45094 3.22953 7.44573 3.11128C7.44156 3.00853 7.42593 2.94844 7.41239 2.91936C7.36031 2.92536 7.30942 2.93842 7.26135 2.95813C7.17177 2.99206 7.09676 3.06088 7.05718 3.23244C7.01447 3.41854 7.02593 3.68703 7.1051 4.02918C7.13159 4.14199 7.1625 4.25385 7.19781 4.36454Z" fill="#D84F4F"/>
<path fill-rule="evenodd" clip-rule="evenodd" d="M3.86555 9.36087C3.9593 9.53533 4.10515 9.69332 4.32183 9.76698C4.53746 9.83967 4.75102 9.80575 4.92602 9.7379C5.25729 9.6119 5.58752 9.31532 5.89065 8.97605C6.23757 8.58739 6.60216 8.07754 6.95424 7.51244C7.63401 7.32493 8.33011 7.19326 9.03458 7.11894C9.34708 7.49015 9.67004 7.81003 9.98254 8.03974C10.2743 8.25297 10.6107 8.43034 10.9555 8.44391C11.1433 8.45256 11.3293 8.40576 11.4868 8.31015C11.6483 8.21226 11.7681 8.07076 11.8556 7.90696C11.9493 7.73149 12.0066 7.54831 11.9993 7.36124C11.9927 7.17681 11.9193 6.99986 11.791 6.85915C11.5555 6.59746 11.1701 6.47146 10.7909 6.40846C10.3309 6.34217 9.86424 6.3259 9.40021 6.36C9.00839 5.84457 8.66676 5.29768 8.37933 4.7258C8.63979 4.08608 8.83458 3.48124 8.92104 2.98691C8.95854 2.77561 8.97833 2.574 8.97104 2.39178C8.96974 2.2109 8.9245 2.03263 8.83875 1.87031C8.7893 1.78072 8.7191 1.7025 8.63313 1.64131C8.54719 1.58011 8.44767 1.53749 8.34183 1.51652C8.13141 1.47485 7.91474 1.51652 7.71575 1.59116C7.32303 1.73655 7.11574 2.04671 7.03761 2.38887C6.96153 2.71842 6.99595 3.10225 7.08553 3.48996C7.1772 3.88347 7.33345 4.31191 7.53345 4.74519C7.21351 5.48551 6.84401 6.20644 6.42715 6.90373C5.89028 7.06092 5.3728 7.27048 4.88332 7.52892C4.49788 7.74219 4.15515 7.99419 3.94889 8.29174C3.73012 8.60774 3.66241 8.9838 3.86555 9.36087ZM5.75836 7.92444C5.58545 7.9981 5.42607 8.07564 5.28022 8.15511C4.93854 8.34314 4.71665 8.52636 4.60623 8.68629C4.50831 8.82585 4.50623 8.92859 4.56456 9.03521C4.57218 9.05016 4.58125 9.06446 4.59165 9.07785C4.60408 9.07477 4.61626 9.0709 4.62811 9.06622C4.77082 9.01195 4.99792 8.83845 5.2896 8.51182C5.45585 8.3231 5.6123 8.12707 5.75836 7.92444ZM7.46678 6.63432C7.59078 6.60718 7.7137 6.58295 7.83766 6.55872C8.06474 6.51608 8.29287 6.47925 8.51895 6.44823C8.32948 6.17802 8.15224 5.90055 7.98766 5.6166C7.82415 5.96022 7.65045 6.29963 7.46678 6.63432ZM10.0149 7.07148C10.1547 7.21454 10.3062 7.34743 10.468 7.46886C10.718 7.65302 10.893 7.71411 10.9868 7.71702C11.0118 7.71986 11.0372 7.71474 11.0587 7.70248C11.1019 7.67088 11.1356 7.62951 11.1566 7.58226C11.194 7.52331 11.2154 7.45678 11.2191 7.38842C11.2188 7.36533 11.2091 7.34318 11.192 7.32639C11.1378 7.26629 10.9826 7.17906 10.6524 7.12382C10.467 7.0928 10.2524 7.07633 10.0149 7.07148ZM7.94183 3.67222C8.03766 3.3766 8.10849 3.1052 8.15016 2.8687V2.86967C8.18245 2.68745 8.19495 2.53721 8.18975 2.41895C8.18558 2.31621 8.16995 2.25612 8.15641 2.22704C8.10433 2.23304 8.05343 2.2461 8.00537 2.26581C7.91578 2.29974 7.84078 2.36855 7.8012 2.54012C7.75849 2.72621 7.76995 2.9947 7.84912 3.33686C7.87561 3.44967 7.90652 3.56153 7.94183 3.67222Z" fill="url(#paint3_linear_54_670)"/>
</g>
<defs>
<linearGradient id="paint0_linear_54_670" x1="3.625" y1="14" x2="13.7796" y2="3.33769" gradientUnits="userSpaceOnUse">
<stop stop-color="#FF405B"/>
<stop offset="1" stop-color="#FF8860"/>
</linearGradient>
<linearGradient id="paint1_linear_54_670" x1="6.82069" y1="11.2848" x2="7.00709" y2="9.95347" gradientUnits="userSpaceOnUse">
<stop stop-color="#FF8860"/>
<stop offset="1" stop-color="white"/>
</linearGradient>
<linearGradient id="paint2_linear_54_670" x1="7.30535" y1="13.8485" x2="7.44157" y2="12.5049" gradientUnits="userSpaceOnUse">
<stop stop-color="#FF8860"/>
<stop offset="1" stop-color="white"/>
</linearGradient>
<linearGradient id="paint3_linear_54_670" x1="6.10194" y1="9.80752" x2="8.82536" y2="3.36375" gradientUnits="userSpaceOnUse">
<stop stop-color="#FF8860"/>
<stop offset="1" stop-color="white"/>
</linearGradient>
<clipPath id="clip0_54_670">
<rect width="16" height="16" fill="white"/>
</clipPath>
</defs>
</svg>
