<svg width="16" height="16" viewBox="0 0 16 16" fill="none" xmlns="http://www.w3.org/2000/svg">
<g clip-path="url(#clip0_58_775)">
<path fill-rule="evenodd" clip-rule="evenodd" d="M5 0H10.18C10.97 0 11.728 0.314 12.287 0.872C12.817 1.403 13.597 2.183 14.128 2.713C14.686 3.272 15 4.03 15 4.82V13.021C15 13.811 14.686 14.569 14.128 15.128C13.569 15.686 12.811 16 12.021 16C9.796 16 6.204 16 3.979 16C3.189 16 2.431 15.686 1.872 15.128C1.314 14.569 1 13.811 1 13.021V4C1 3.448 1.448 3 2 3C3.104 3 4 2.104 4 1C4 0.448 4.448 0 5 0ZM3 1C3 1.552 2.552 2 2 2C1.448 2 1 1.552 1 1C1 0.448 1.448 0 2 0C2.552 0 3 0.448 3 1Z" fill="url(#paint0_linear_58_775)"/>
<path fill-rule="evenodd" clip-rule="evenodd" d="M7.21429 10.9643H11.9285C12.3622 10.9643 12.7142 10.6123 12.7142 10.1786C12.7142 9.74488 12.3622 9.39288 11.9285 9.39288H7.21429C6.78058 9.39288 6.42859 9.74488 6.42859 10.1786C6.42859 10.6123 6.78058 10.9643 7.21429 10.9643Z" fill="#8C4FD9"/>
<path fill-rule="evenodd" clip-rule="evenodd" d="M3.2857 10.9643H4.85711C5.29082 10.9643 5.64281 10.6123 5.64281 10.1786C5.64281 9.74488 5.29082 9.39288 4.85711 9.39288H3.2857C2.852 9.39288 2.5 9.74488 2.5 10.1786C2.5 10.6123 2.852 10.9643 3.2857 10.9643Z" fill="#8C4FD9"/>
<path fill-rule="evenodd" clip-rule="evenodd" d="M7.99998 10.5714H12.7142C13.1475 10.5714 13.5 10.2194 13.5 9.7857C13.5 9.352 13.1475 9 12.7142 9H7.99998C7.56661 9 7.21411 9.352 7.21411 9.7857C7.21411 10.2194 7.56661 10.5714 7.99998 10.5714Z" fill="url(#paint1_linear_58_775)"/>
<path fill-rule="evenodd" clip-rule="evenodd" d="M4.07147 10.5714H5.64287C6.07647 10.5714 6.42858 10.2194 6.42858 9.7857C6.42858 9.352 6.07647 9 5.64287 9H4.07147C3.63787 9 3.28577 9.352 3.28577 9.7857C3.28577 10.2194 3.63787 10.5714 4.07147 10.5714Z" fill="url(#paint2_linear_58_775)"/>
<path fill-rule="evenodd" clip-rule="evenodd" d="M3.2857 13.3215H7.99989C8.4336 13.3215 8.78559 12.9695 8.78559 12.5358C8.78559 12.1021 8.4336 11.7501 7.99989 11.7501H3.2857C2.852 11.7501 2.5 12.1021 2.5 12.5358C2.5 12.9695 2.852 13.3215 3.2857 13.3215Z" fill="#8C4FD9"/>
<path fill-rule="evenodd" clip-rule="evenodd" d="M10.3571 13.3215H11.9285C12.3622 13.3215 12.7142 12.9695 12.7142 12.5358C12.7142 12.1021 12.3622 11.7501 11.9285 11.7501H10.3571C9.92341 11.7501 9.57141 12.1021 9.57141 12.5358C9.57141 12.9695 9.92341 13.3215 10.3571 13.3215Z" fill="#8C4FD9"/>
<path fill-rule="evenodd" clip-rule="evenodd" d="M4.07139 12.9285H8.78557C9.21895 12.9285 9.57145 12.5765 9.57145 12.1428C9.57145 11.7091 9.21895 11.3571 8.78557 11.3571H4.07139C3.63802 11.3571 3.28552 11.7091 3.28552 12.1428C3.28552 12.5765 3.63802 12.9285 4.07139 12.9285Z" fill="url(#paint3_linear_58_775)"/>
<path fill-rule="evenodd" clip-rule="evenodd" d="M11.1428 12.9285H12.7142C13.1478 12.9285 13.4999 12.5765 13.4999 12.1428C13.4999 11.7091 13.1478 11.3571 12.7142 11.3571H11.1428C10.7092 11.3571 10.3571 11.7091 10.3571 12.1428C10.3571 12.5765 10.7092 12.9285 11.1428 12.9285Z" fill="url(#paint4_linear_58_775)"/>
<path fill-rule="evenodd" clip-rule="evenodd" d="M3.06357 5.85809C3.03653 5.87227 3.00811 5.88717 3.00267 5.91627C3.00153 5.92237 3.00064 5.92908 3 5.93656V5.9428C3 5.94488 3.00861 6.04524 3.02584 6.24375C3.04307 6.44023 3.05168 6.67321 3.05168 6.94287C3.05168 6.97175 3.05579 6.99561 3.06401 7.01455C3.07096 7.03048 3.08471 7.04199 3.09892 7.05207L4.88604 8.31593C4.92221 8.34104 4.95495 8.3536 4.98421 8.3536C5.01523 8.3536 5.03676 8.33369 5.04881 8.29403C5.17171 7.84863 5.27619 7.53058 5.36225 7.33975C5.36849 7.3259 5.37369 7.31159 5.37561 7.29649C5.37649 7.2896 5.37693 7.28355 5.37693 7.27821C5.37693 7.26781 5.35884 7.25109 5.32267 7.22807C5.28651 7.20303 5.09619 7.08603 4.75169 6.87697C4.72984 6.86352 4.7086 6.85044 4.68797 6.83773C4.61284 6.79145 4.54589 6.75023 4.48712 6.71399C4.35465 6.63229 4.36793 6.43796 4.51003 6.37448L5.28621 6.02768C5.29055 6.02575 5.29515 6.02404 5.29977 6.02232C5.31547 6.01648 5.33143 6.01055 5.33793 5.99588C5.3418 5.98716 5.34427 5.97545 5.34532 5.96081C5.34619 5.94885 5.34481 5.93688 5.34271 5.92511C5.30776 5.72823 5.27525 5.39555 5.24517 4.92712C5.24344 4.89993 5.22708 4.88635 5.19608 4.88635C5.16508 4.88635 5.11081 4.90411 5.03331 4.93961C4.95752 4.97512 4.64663 5.1162 4.10063 5.36284C3.60132 5.58716 3.26001 5.74989 3.07671 5.85109C3.07244 5.85345 3.06803 5.85576 3.06357 5.85809ZM6.55519 8.67249L8.57801 3.65116L8.66328 3.4066L8.66784 3.39588C8.71441 3.28603 8.65236 3.16049 8.53679 3.13077L8.05261 3.00621C7.95948 2.98228 7.86296 3.02917 7.82517 3.11763C7.34751 4.23503 6.62843 5.99073 5.66803 8.38469C5.62452 8.49311 5.68527 8.61545 5.79805 8.64589L6.32332 8.78793C6.41867 8.81376 6.51831 8.76413 6.55519 8.67249ZM11 5.94501C11 5.93935 10.9998 5.93376 10.9991 5.92817C10.9985 5.92329 10.9978 5.91873 10.9969 5.91451C10.9911 5.8868 10.9638 5.87308 10.9376 5.85984C10.9318 5.85695 10.9261 5.85408 10.9207 5.85109C10.7372 5.74989 10.3951 5.58716 9.89417 5.36284C9.34992 5.1162 9.03909 4.97512 8.96156 4.93961C8.88572 4.90411 8.83232 4.88635 8.80136 4.88635C8.77035 4.88635 8.75401 4.89993 8.75225 4.92712C8.72221 5.39548 8.68963 5.72823 8.65469 5.92511C8.65261 5.93688 8.65125 5.94885 8.65209 5.96081C8.65313 5.97545 8.65561 5.98716 8.65945 5.99588C8.66595 6.01053 8.68183 6.01645 8.69745 6.02228C8.70216 6.02403 8.70683 6.02577 8.71121 6.02775L9.48332 6.37265C9.62621 6.43652 9.63941 6.63353 9.50588 6.71523C9.30497 6.83808 9.02791 7.007 8.67473 7.22183C8.63857 7.24277 8.62049 7.26052 8.62049 7.27509C8.62049 7.28284 8.62108 7.29129 8.62237 7.30052C8.62413 7.31288 8.62816 7.32479 8.63297 7.33636C8.70257 7.50345 8.7682 7.69089 8.82972 7.89903C8.89347 8.11425 8.93223 8.24388 8.94601 8.28771C8.9598 8.33155 8.97873 8.3536 9.00287 8.3536C9.02699 8.3536 9.06316 8.34104 9.11135 8.31593L10.9122 7.04316C10.9345 7.02429 10.9458 6.99093 10.9458 6.94287C10.9475 6.67321 10.9655 6.34307 11 5.95223V5.94501Z" fill="#8C4FD9"/>
<path fill-rule="evenodd" clip-rule="evenodd" d="M4.06357 4.85809C4.03653 4.87227 4.00811 4.88717 4.00267 4.91627C4.00153 4.92237 4.00064 4.92908 4 4.93656V4.9428C4 4.94488 4.00861 5.04524 4.02584 5.24375C4.04307 5.44023 4.05168 5.67321 4.05168 5.94287C4.05168 5.97175 4.05579 5.99561 4.06401 6.01455C4.07096 6.03048 4.08471 6.04199 4.09892 6.05207L5.88604 7.31593C5.92221 7.34104 5.95495 7.3536 5.98421 7.3536C6.01523 7.3536 6.03676 7.33369 6.04881 7.29403C6.17171 6.84863 6.27619 6.53058 6.36225 6.33975C6.36849 6.3259 6.37369 6.31159 6.37561 6.29649C6.37649 6.2896 6.37693 6.28355 6.37693 6.27821C6.37693 6.26781 6.35884 6.25109 6.32267 6.22807C6.28651 6.20303 6.09619 6.08603 5.75169 5.87697C5.72984 5.86352 5.7086 5.85044 5.68797 5.83773C5.61284 5.79145 5.54589 5.75023 5.48712 5.71399C5.35465 5.63229 5.36793 5.43796 5.51003 5.37448L6.28621 5.02768C6.29055 5.02575 6.29515 5.02404 6.29977 5.02232C6.31547 5.01648 6.33143 5.01055 6.33793 4.99588C6.3418 4.98716 6.34427 4.97545 6.34532 4.96081C6.34619 4.94885 6.34481 4.93688 6.34271 4.92511C6.30776 4.72823 6.27525 4.39555 6.24517 3.92712C6.24344 3.89993 6.22708 3.88635 6.19608 3.88635C6.16508 3.88635 6.11081 3.90411 6.03331 3.93961C5.95752 3.97512 5.64663 4.1162 5.10063 4.36284C4.60132 4.58716 4.26001 4.74989 4.07671 4.85109C4.07244 4.85345 4.06803 4.85576 4.06357 4.85809ZM7.55519 7.67249L9.57801 2.65116L9.66328 2.4066L9.66784 2.39588C9.71441 2.28603 9.65236 2.16049 9.53679 2.13077L9.05261 2.00621C8.95948 1.98228 8.86296 2.02917 8.82517 2.11763C8.34751 3.23503 7.62843 4.99073 6.66803 7.38469C6.62452 7.49311 6.68527 7.61545 6.79805 7.64589L7.32332 7.78793C7.41867 7.81376 7.51831 7.76413 7.55519 7.67249ZM12 4.94501C12 4.93935 11.9998 4.93376 11.9991 4.92817C11.9985 4.92329 11.9978 4.91873 11.9969 4.91451C11.9911 4.8868 11.9638 4.87308 11.9376 4.85984C11.9318 4.85695 11.9261 4.85408 11.9207 4.85109C11.7372 4.74989 11.3951 4.58716 10.8942 4.36284C10.3499 4.1162 10.0391 3.97512 9.96156 3.93961C9.88572 3.90411 9.83232 3.88635 9.80136 3.88635C9.77035 3.88635 9.75401 3.89993 9.75225 3.92712C9.72221 4.39548 9.68963 4.72823 9.65469 4.92511C9.65261 4.93688 9.65125 4.94885 9.65209 4.96081C9.65313 4.97545 9.65561 4.98716 9.65945 4.99588C9.66595 5.01053 9.68183 5.01645 9.69745 5.02228C9.70216 5.02403 9.70683 5.02577 9.71121 5.02775L10.4833 5.37265C10.6262 5.43652 10.6394 5.63353 10.5059 5.71523C10.305 5.83808 10.0279 6.007 9.67473 6.22183C9.63857 6.24277 9.62049 6.26052 9.62049 6.27509C9.62049 6.28284 9.62108 6.29129 9.62237 6.30052C9.62413 6.31288 9.62816 6.32479 9.63297 6.33636C9.70257 6.50345 9.7682 6.69089 9.82972 6.89903C9.89347 7.11425 9.93223 7.24388 9.94601 7.28771C9.9598 7.33155 9.97873 7.3536 10.0029 7.3536C10.027 7.3536 10.0632 7.34104 10.1113 7.31593L11.9122 6.04316C11.9345 6.02429 11.9458 5.99093 11.9458 5.94287C11.9475 5.67321 11.9655 5.34307 12 4.95223V4.94501Z" fill="url(#paint5_linear_58_775)"/>
</g>
<defs>
<linearGradient id="paint0_linear_58_775" x1="4.5" y1="14.8571" x2="15.212" y2="3.92197" gradientUnits="userSpaceOnUse">
<stop stop-color="#A056FF"/>
<stop offset="1" stop-color="#C59AFD"/>
</linearGradient>
<linearGradient id="paint1_linear_58_775" x1="8.78559" y1="10.5714" x2="11.237" y2="7.30277" gradientUnits="userSpaceOnUse">
<stop stop-color="#C59AFD"/>
<stop offset="1" stop-color="white"/>
</linearGradient>
<linearGradient id="paint2_linear_58_775" x1="4.07147" y1="10.5714" x2="6.42858" y2="9" gradientUnits="userSpaceOnUse">
<stop stop-color="#C59AFD"/>
<stop offset="1" stop-color="white"/>
</linearGradient>
<linearGradient id="paint3_linear_58_775" x1="4.857" y1="12.9285" x2="7.30837" y2="9.65989" gradientUnits="userSpaceOnUse">
<stop stop-color="#C59AFD"/>
<stop offset="1" stop-color="white"/>
</linearGradient>
<linearGradient id="paint4_linear_58_775" x1="11.1428" y1="12.9285" x2="13.4999" y2="11.3571" gradientUnits="userSpaceOnUse">
<stop stop-color="#C59AFD"/>
<stop offset="1" stop-color="white"/>
</linearGradient>
<linearGradient id="paint5_linear_58_775" x1="6" y1="7.79474" x2="13.1521" y2="4.50346" gradientUnits="userSpaceOnUse">
<stop stop-color="#C59AFD"/>
<stop offset="1" stop-color="white"/>
</linearGradient>
<clipPath id="clip0_58_775">
<rect width="16" height="16" fill="white"/>
</clipPath>
</defs>
</svg>
