<svg width="16" height="16" viewBox="0 0 16 16" fill="none" xmlns="http://www.w3.org/2000/svg">
<g clip-path="url(#clip0_58_885)">
<path fill-rule="evenodd" clip-rule="evenodd" d="M5 0H10.18C10.97 0 11.728 0.314 12.287 0.872C12.817 1.403 13.597 2.183 14.128 2.713C14.686 3.272 15 4.03 15 4.82V13.021C15 13.811 14.686 14.569 14.128 15.128C13.569 15.686 12.811 16 12.021 16C9.796 16 6.204 16 3.979 16C3.189 16 2.431 15.686 1.872 15.128C1.314 14.569 1 13.811 1 13.021V4C1 3.448 1.448 3 2 3C3.104 3 4 2.104 4 1C4 0.448 4.448 0 5 0ZM3 1C3 1.552 2.552 2 2 2C1.448 2 1 1.552 1 1C1 0.448 1.448 0 2 0C2.552 0 3 0.448 3 1Z" fill="url(#paint0_linear_58_885)"/>
<path fill-rule="evenodd" clip-rule="evenodd" d="M10.1091 13.3182H5.44238C5.03256 13.3182 4.69995 13.6508 4.69995 14.0606C4.69995 14.4704 5.03256 14.803 5.44238 14.803H10.1091C10.5189 14.803 10.8515 14.4704 10.8515 14.0606C10.8515 13.6508 10.5189 13.3182 10.1091 13.3182Z" fill="#D84F4F"/>
<path fill-rule="evenodd" clip-rule="evenodd" d="M8.41208 10.7545H5.44238C5.03256 10.7545 4.69995 11.0871 4.69995 11.4969C4.69995 11.9068 5.03256 12.2394 5.44238 12.2394H8.41208C8.8219 12.2394 9.15451 11.9068 9.15451 11.4969C9.15451 11.0871 8.8219 10.7545 8.41208 10.7545Z" fill="#D84F4F"/>
<path fill-rule="evenodd" clip-rule="evenodd" d="M9.26059 9.79999H6.29089C5.88107 9.79999 5.54846 10.1326 5.54846 10.5424C5.54846 10.9522 5.88107 11.2848 6.29089 11.2848H9.26059C9.67041 11.2848 10.003 10.9522 10.003 10.5424C10.003 10.1326 9.67041 9.79999 9.26059 9.79999Z" fill="url(#paint1_linear_58_885)"/>
<path fill-rule="evenodd" clip-rule="evenodd" d="M10.9576 12.3637H6.29089C5.88107 12.3637 5.54846 12.6963 5.54846 13.1061C5.54846 13.516 5.88107 13.8486 6.29089 13.8486H10.9576C11.3674 13.8486 11.7 13.516 11.7 13.1061C11.7 12.6963 11.3674 12.3637 10.9576 12.3637Z" fill="url(#paint2_linear_58_885)"/>
<path fill-rule="evenodd" clip-rule="evenodd" d="M6.51291 9.00938C6.10971 9.00931 5.71361 8.90337 5.36421 8.70215C5.01483 8.50092 4.72441 8.21146 4.52202 7.86275C4.31963 7.51402 4.21237 7.11826 4.21097 6.71507C4.20957 6.31188 4.31408 5.91539 4.51405 5.56528C4.71401 5.21517 5.00242 4.9237 5.35041 4.72005C5.6984 4.5164 6.09376 4.40772 6.49694 4.40486C6.90012 4.40201 7.29699 4.50509 7.64784 4.70379C7.99867 4.90248 8.29116 5.18983 8.49607 5.53708C8.56065 5.64644 8.67472 5.72045 8.80129 5.72068L10.5513 5.72045C10.6253 5.72048 10.6983 5.73715 10.765 5.76921C10.8317 5.80128 10.8903 5.84793 10.9365 5.90572L11.3742 6.45276C11.4208 6.51122 11.4461 6.58358 11.4463 6.6583V6.75634C11.4463 6.83105 11.4209 6.90354 11.3742 6.96188L10.9365 7.50892C10.8903 7.56671 10.8317 7.61336 10.765 7.64543C10.6983 7.67749 10.6253 7.69416 10.5513 7.69418L10.2167 7.69418L9.71674 7.69395L8.80129 7.69395C8.67402 7.69395 8.56065 7.7682 8.49607 7.87755C8.29256 8.22245 8.00257 8.50828 7.65477 8.70678C7.30696 8.90527 6.91337 9.00958 6.51291 9.00938ZM5.8904 6.70727C5.88887 6.61877 5.90497 6.53085 5.93778 6.44863C5.97059 6.36641 6.01943 6.29155 6.08149 6.22841C6.14353 6.16528 6.21754 6.11514 6.29916 6.0809C6.3808 6.04668 6.46843 6.02904 6.55696 6.02904C6.64548 6.02904 6.73311 6.04668 6.81475 6.0809C6.89638 6.11514 6.97038 6.16528 7.03242 6.22841C7.09448 6.29155 7.14332 6.36641 7.17613 6.44863C7.20894 6.53085 7.22504 6.61877 7.22351 6.70728C7.22047 6.88205 7.14891 7.04865 7.02424 7.17116C6.89957 7.2937 6.73176 7.36235 6.55696 7.36236C6.38215 7.36235 6.21434 7.2937 6.08967 7.17116C5.965 7.04865 5.89344 6.88205 5.8904 6.70727ZM10.2213 6.87534L10.2169 7.69391L9.71695 7.69367L9.72119 6.87251C9.72082 6.83933 9.72704 6.80641 9.73952 6.77567C9.75199 6.74492 9.77046 6.71696 9.79384 6.69343C9.81724 6.6699 9.84507 6.65125 9.87574 6.63859C9.90641 6.62593 9.93929 6.6195 9.97247 6.61966C10.0056 6.61983 10.0385 6.6266 10.069 6.6396C10.0995 6.65258 10.1272 6.6715 10.1503 6.69528C10.1735 6.71905 10.1916 6.7472 10.2038 6.77807C10.2159 6.80895 10.2221 6.84216 10.2213 6.87534Z" fill="#D84F4F"/>
<path fill-rule="evenodd" clip-rule="evenodd" d="M6.51291 7.59519C6.10971 7.59513 5.71361 7.48919 5.36421 7.28796C5.01483 7.08674 4.72441 6.79727 4.52202 6.44856C4.31963 6.09984 4.21237 5.70408 4.21097 5.30089C4.20957 4.89769 4.31408 4.5012 4.51405 4.1511C4.71401 3.80098 5.00242 3.50952 5.35041 3.30586C5.6984 3.10222 6.09376 2.99354 6.49694 2.99068C6.90012 2.98783 7.29699 3.0909 7.64784 3.2896C7.99867 3.4883 8.29116 3.77565 8.49607 4.1229C8.56065 4.23225 8.67472 4.30627 8.80129 4.3065L10.5513 4.30627C10.6253 4.3063 10.6983 4.32297 10.765 4.35503C10.8317 4.38709 10.8903 4.43374 10.9365 4.49153L11.3742 5.03858C11.4208 5.09704 11.4461 5.16939 11.4463 5.24411V5.34216C11.4463 5.41687 11.4209 5.48936 11.3742 5.54769L10.9365 6.09474C10.8903 6.15253 10.8317 6.19918 10.765 6.23124C10.6983 6.2633 10.6253 6.27997 10.5513 6.28L10.2167 6.28L9.71674 6.27976L8.80129 6.27977C8.67402 6.27976 8.56065 6.35402 8.49607 6.46337C8.29256 6.80827 8.00257 7.0941 7.65477 7.29259C7.30696 7.49109 6.91337 7.5954 6.51291 7.59519ZM5.8904 5.29309C5.88887 5.20459 5.90497 5.11667 5.93778 5.03445C5.97059 4.95223 6.01943 4.87736 6.08149 4.81423C6.14353 4.75109 6.21754 4.70095 6.29916 4.66672C6.3808 4.63249 6.46843 4.61486 6.55696 4.61485C6.64548 4.61486 6.73311 4.63249 6.81475 4.66672C6.89638 4.70095 6.97038 4.75109 7.03242 4.81423C7.09448 4.87736 7.14332 4.95223 7.17613 5.03445C7.20894 5.11667 7.22504 5.20459 7.22351 5.29309C7.22047 5.46787 7.14891 5.63446 7.02424 5.75698C6.89957 5.87951 6.73176 5.94816 6.55696 5.94817C6.38215 5.94816 6.21434 5.87951 6.08967 5.75698C5.965 5.63446 5.89344 5.46787 5.8904 5.29309ZM10.2213 5.46115L10.2169 6.27973L9.71695 6.27949L9.72119 5.45832C9.72082 5.42514 9.72704 5.39223 9.73952 5.36149C9.75199 5.33074 9.77046 5.30278 9.79384 5.27925C9.81724 5.25571 9.84507 5.23707 9.87574 5.2244C9.90641 5.21175 9.93929 5.20531 9.97247 5.20547C10.0056 5.20565 10.0385 5.21242 10.069 5.22541C10.0995 5.2384 10.1272 5.25732 10.1503 5.2811C10.1735 5.30486 10.1916 5.33302 10.2038 5.36389C10.2159 5.39476 10.2221 5.42798 10.2213 5.46115Z" fill="url(#paint3_linear_58_885)"/>
</g>
<defs>
<linearGradient id="paint0_linear_58_885" x1="3.625" y1="14" x2="13.7796" y2="3.33769" gradientUnits="userSpaceOnUse">
<stop stop-color="#FF405B"/>
<stop offset="1" stop-color="#FF8860"/>
</linearGradient>
<linearGradient id="paint1_linear_58_885" x1="6.82069" y1="11.2848" x2="7.00709" y2="9.95347" gradientUnits="userSpaceOnUse">
<stop stop-color="#FF8860"/>
<stop offset="1" stop-color="white"/>
</linearGradient>
<linearGradient id="paint2_linear_58_885" x1="7.30535" y1="13.8485" x2="7.44157" y2="12.5049" gradientUnits="userSpaceOnUse">
<stop stop-color="#FF8860"/>
<stop offset="1" stop-color="white"/>
</linearGradient>
<linearGradient id="paint3_linear_58_885" x1="8.71152" y1="8.32381" x2="6.79943" y2="3.64209" gradientUnits="userSpaceOnUse">
<stop stop-color="#FF8860"/>
<stop offset="1" stop-color="white"/>
</linearGradient>
<clipPath id="clip0_58_885">
<rect width="16" height="16" fill="white"/>
</clipPath>
</defs>
</svg>
