<svg width="16" height="16" viewBox="0 0 16 16" fill="none" xmlns="http://www.w3.org/2000/svg">
<g clip-path="url(#clip0_274_145)">
<path fill-rule="evenodd" clip-rule="evenodd" d="M5 0H10.18C10.97 0 11.728 0.314 12.287 0.872C12.817 1.403 13.597 2.183 14.128 2.713C14.686 3.272 15 4.03 15 4.82V13.021C15 13.811 14.686 14.569 14.128 15.128C13.569 15.686 12.811 16 12.021 16C9.796 16 6.204 16 3.979 16C3.189 16 2.431 15.686 1.872 15.128C1.314 14.569 1 13.811 1 13.021V4C1 3.448 1.448 3 2 3C3.104 3 4 2.104 4 1C4 0.448 4.448 0 5 0ZM3 1C3 1.552 2.552 2 2 2C1.448 2 1 1.552 1 1C1 0.448 1.448 0 2 0C2.552 0 3 0.448 3 1Z" fill="url(#paint0_linear_274_145)"/>
<path fill-rule="evenodd" clip-rule="evenodd" d="M4.72052 5.00884C5.00527 5.04543 5.2638 5.19365 5.4393 5.42087C5.4434 5.42617 5.44735 5.43159 5.45117 5.43711L8.59 9.98766C8.66616 10.0981 8.67742 10.2408 8.61944 10.3618C8.56145 10.4828 8.44313 10.5635 8.30935 10.5732C8.19065 10.5819 8.04329 10.6397 7.91216 10.7404C7.77935 10.8422 7.70208 10.9577 7.678 11.0447C7.63993 11.1825 7.52665 11.2865 7.38616 11.3128C7.24573 11.339 7.10254 11.283 7.0172 11.1683L3.72348 6.7412C3.54962 6.51439 3.47239 6.22803 3.50883 5.94445C3.54542 5.65977 3.69366 5.40118 3.92091 5.22571C4.14817 5.05026 4.43577 4.97223 4.72052 5.00884ZM9.37051 10.9821C10.0994 11.0758 10.6019 11.7471 10.5086 12.4733C10.4971 12.5626 10.5246 12.6267 10.5694 12.6767C10.622 12.7355 10.6903 12.7645 10.7283 12.7694C10.8685 12.7874 10.9866 12.8829 11.0335 13.0163C11.0804 13.1497 11.0482 13.2981 10.9501 13.3999C10.5321 13.8342 9.89275 14.0615 9.30196 13.9856C8.40129 13.8698 7.77655 13.0377 7.89232 12.137C7.98566 11.4108 8.64158 10.8884 9.37051 10.9821Z" fill="#D84F4F"/>
<path fill-rule="evenodd" clip-rule="evenodd" d="M5.72052 4.00884C6.00527 4.04543 6.2638 4.19365 6.4393 4.42087C6.4434 4.42617 6.44735 4.43159 6.45117 4.43711L9.59 8.98766C9.66616 9.0981 9.67742 9.24081 9.61944 9.36181C9.56145 9.48279 9.44313 9.56346 9.30935 9.57324C9.19065 9.58194 9.04329 9.6397 8.91216 9.74035C8.77935 9.84223 8.70208 9.95773 8.678 10.0447C8.63993 10.1825 8.52665 10.2865 8.38616 10.3128C8.24573 10.339 8.10254 10.283 8.0172 10.1683L4.72348 5.7412C4.54962 5.51439 4.47239 5.22803 4.50883 4.94445C4.54542 4.65977 4.69366 4.40118 4.92091 4.22571C5.14817 4.05026 5.43577 3.97223 5.72052 4.00884ZM10.3705 9.98212C11.0994 10.0758 11.6019 10.7471 11.5086 11.4733C11.4971 11.5626 11.5246 11.6267 11.5694 11.6767C11.622 11.7355 11.6903 11.7645 11.7283 11.7694C11.8685 11.7874 11.9866 11.8829 12.0335 12.0163C12.0804 12.1497 12.0482 12.2981 11.9501 12.3999C11.5321 12.8342 10.8928 13.0615 10.302 12.9856C9.40129 12.8698 8.77655 12.0377 8.89232 11.137C8.98566 10.4108 9.64158 9.88841 10.3705 9.98212Z" fill="url(#paint1_linear_274_145)"/>
</g>
<defs>
<linearGradient id="paint0_linear_274_145" x1="3.625" y1="14" x2="13.7796" y2="3.33769" gradientUnits="userSpaceOnUse">
<stop stop-color="#FF405B"/>
<stop offset="1" stop-color="#FF8860"/>
</linearGradient>
<linearGradient id="paint1_linear_274_145" x1="6.65765" y1="12.9998" x2="9.95017" y2="6.41955" gradientUnits="userSpaceOnUse">
<stop stop-color="#FF8860"/>
<stop offset="1" stop-color="white"/>
</linearGradient>
<clipPath id="clip0_274_145">
<rect width="16" height="16" fill="white"/>
</clipPath>
</defs>
</svg>
