<svg width="16" height="16" viewBox="0 0 16 16" fill="none" xmlns="http://www.w3.org/2000/svg">
<g clip-path="url(#clip0_62_274)">
<path fill-rule="evenodd" clip-rule="evenodd" d="M5 0H10.18C10.97 0 11.728 0.314 12.287 0.872C12.817 1.403 13.597 2.183 14.128 2.713C14.686 3.272 15 4.03 15 4.82V13.021C15 13.811 14.686 14.569 14.128 15.128C13.569 15.686 12.811 16 12.021 16C9.796 16 6.204 16 3.979 16C3.189 16 2.431 15.686 1.872 15.128C1.314 14.569 1 13.811 1 13.021V4C1 3.448 1.448 3 2 3C3.104 3 4 2.104 4 1C4 0.448 4.448 0 5 0ZM3 1C3 1.552 2.552 2 2 2C1.448 2 1 1.552 1 1C1 0.448 1.448 0 2 0C2.552 0 3 0.448 3 1Z" fill="url(#paint0_linear_62_274)"/>
<path fill-rule="evenodd" clip-rule="evenodd" d="M8.4122 10.4545H5.4425C5.03268 10.4545 4.70007 10.7871 4.70007 11.197C4.70007 11.6068 5.03268 11.9394 5.4425 11.9394H8.4122C8.82202 11.9394 9.15463 11.6068 9.15463 11.197C9.15463 10.7871 8.82202 10.4545 8.4122 10.4545Z" fill="#63D793"/>
<path fill-rule="evenodd" clip-rule="evenodd" d="M10.1092 13.3182H5.4425C5.03268 13.3182 4.70007 13.6508 4.70007 14.0606C4.70007 14.4704 5.03268 14.803 5.4425 14.803H10.1092C10.519 14.803 10.8516 14.4704 10.8516 14.0606C10.8516 13.6508 10.519 13.3182 10.1092 13.3182Z" fill="#63D793"/>
<path fill-rule="evenodd" clip-rule="evenodd" d="M9.26071 9.5H6.29101C5.88119 9.5 5.54858 9.83261 5.54858 10.2424C5.54858 10.6522 5.88119 10.9849 6.29101 10.9849H9.26071C9.67053 10.9849 10.0031 10.6522 10.0031 10.2424C10.0031 9.83261 9.67053 9.5 9.26071 9.5Z" fill="url(#paint1_linear_62_274)"/>
<path fill-rule="evenodd" clip-rule="evenodd" d="M10.9577 12.3637H6.29101C5.88119 12.3637 5.54858 12.6963 5.54858 13.1061C5.54858 13.516 5.88119 13.8486 6.29101 13.8486H10.9577C11.3675 13.8486 11.7001 13.516 11.7001 13.1061C11.7001 12.6963 11.3675 12.3637 10.9577 12.3637Z" fill="url(#paint2_linear_62_274)"/>
<path fill-rule="evenodd" clip-rule="evenodd" d="M9.00164 5.33669C8.86051 5.35788 8.71675 5.32215 8.60196 5.23736C8.48717 5.15255 8.41078 5.02562 8.38957 4.88451C8.36838 4.74338 8.40411 4.5996 8.4889 4.48483C8.57371 4.37003 8.70063 4.29363 8.84175 4.27244L10.6155 4.00598C10.7566 3.98477 10.9004 4.0205 11.0152 4.10531C11.13 4.1901 11.2064 4.31702 11.2276 4.45816L11.494 6.2319C11.5152 6.37303 11.4795 6.51679 11.3947 6.63158C11.3099 6.74636 11.183 6.82276 11.0418 6.84395C10.9007 6.86516 10.757 6.82943 10.6422 6.74462C10.5274 6.65983 10.451 6.53291 10.4298 6.39177V6.39177C10.4026 6.21111 10.1706 6.15345 10.0621 6.30039L9.14258 7.545C8.94472 7.81263 8.64867 7.99075 8.31952 8.0402C7.99037 8.08965 7.65506 8.00638 7.38729 7.8087L6.09298 6.85248C6.07402 6.83844 6.05248 6.82827 6.02959 6.82257C6.00669 6.81687 5.98289 6.81574 5.95957 6.81924C5.93623 6.82274 5.91383 6.83081 5.89362 6.84299C5.87342 6.85518 5.85581 6.87122 5.84181 6.89022L4.45934 8.76149C4.37259 8.87063 4.24685 8.94185 4.10864 8.96013C3.97042 8.9784 3.83049 8.94233 3.71836 8.85948C3.60621 8.77662 3.53061 8.65349 3.50746 8.516C3.48433 8.3785 3.51544 8.2374 3.5943 8.12241L4.97677 6.25112C5.17463 5.98349 5.47068 5.80538 5.79983 5.75592C6.12897 5.70648 6.46428 5.78974 6.73206 5.98744L8.02637 6.94364C8.04533 6.9577 8.06687 6.96786 8.08976 6.97355C8.11266 6.97927 8.13644 6.9804 8.15978 6.9769C8.1831 6.97338 8.20552 6.96532 8.22573 6.95313C8.24593 6.94095 8.26354 6.9249 8.27752 6.90592L9.19684 5.6609C9.30522 5.51412 9.18207 5.30958 9.00164 5.33669V5.33669Z" fill="#63D793"/>
<path fill-rule="evenodd" clip-rule="evenodd" d="M10.0016 4.33669C9.86051 4.35788 9.71675 4.32215 9.60196 4.23736C9.48717 4.15255 9.41078 4.02562 9.38957 3.88451C9.36838 3.74338 9.40411 3.5996 9.4889 3.48483C9.57371 3.37003 9.70063 3.29363 9.84175 3.27244L11.6155 3.00598C11.7566 2.98477 11.9004 3.0205 12.0152 3.10531C12.13 3.1901 12.2064 3.31702 12.2276 3.45816L12.494 5.2319C12.5152 5.37303 12.4795 5.51679 12.3947 5.63158C12.3099 5.74636 12.183 5.82276 12.0418 5.84395C11.9007 5.86516 11.757 5.82943 11.6422 5.74462C11.5274 5.65983 11.451 5.53291 11.4298 5.39177V5.39177C11.4026 5.21111 11.1706 5.15345 11.0621 5.30039L10.1426 6.545C9.94472 6.81263 9.64867 6.99075 9.31952 7.0402C8.99037 7.08965 8.65506 7.00638 8.38729 6.8087L7.09298 5.85248C7.07402 5.83844 7.05248 5.82827 7.02959 5.82257C7.00669 5.81687 6.98289 5.81574 6.95957 5.81924C6.93623 5.82274 6.91383 5.83081 6.89362 5.84299C6.87342 5.85518 6.85581 5.87122 6.84181 5.89022L5.45934 7.76149C5.37259 7.87063 5.24685 7.94185 5.10864 7.96013C4.97042 7.9784 4.83049 7.94233 4.71836 7.85948C4.60621 7.77662 4.53061 7.65349 4.50746 7.516C4.48433 7.3785 4.51544 7.2374 4.5943 7.12241L5.97677 5.25112C6.17463 4.98349 6.47068 4.80538 6.79983 4.75592C7.12897 4.70648 7.46428 4.78974 7.73206 4.98744L9.02637 5.94364C9.04533 5.9577 9.06687 5.96786 9.08976 5.97355C9.11266 5.97927 9.13644 5.9804 9.15978 5.9769C9.1831 5.97338 9.20552 5.96532 9.22573 5.95313C9.24593 5.94095 9.26354 5.9249 9.27752 5.90592L10.1968 4.6609C10.3052 4.51412 10.1821 4.30958 10.0016 4.33669V4.33669Z" fill="url(#paint3_linear_62_274)"/>
</g>
<defs>
<linearGradient id="paint0_linear_62_274" x1="2.16667" y1="14.6667" x2="15.382" y2="3.10324" gradientUnits="userSpaceOnUse">
<stop stop-color="#41FF8F"/>
<stop offset="1" stop-color="#A1FFC7"/>
</linearGradient>
<linearGradient id="paint1_linear_62_274" x1="5.54858" y1="10.9849" x2="9.11223" y2="8.31212" gradientUnits="userSpaceOnUse">
<stop stop-color="#A1FFC7"/>
<stop offset="1" stop-color="white"/>
</linearGradient>
<linearGradient id="paint2_linear_62_274" x1="5.54858" y1="13.8486" x2="9.25843" y2="10.0062" gradientUnits="userSpaceOnUse">
<stop stop-color="#A1FFC7"/>
<stop offset="1" stop-color="white"/>
</linearGradient>
<linearGradient id="paint3_linear_62_274" x1="4.5" y1="7.96477" x2="13.1038" y2="4.49884" gradientUnits="userSpaceOnUse">
<stop stop-color="#A1FFC7"/>
<stop offset="1" stop-color="white"/>
</linearGradient>
<clipPath id="clip0_62_274">
<rect width="16" height="16" fill="white"/>
</clipPath>
</defs>
</svg>
