<svg width="16" height="16" viewBox="0 0 16 16" fill="none" xmlns="http://www.w3.org/2000/svg">
<g clip-path="url(#clip0_274_9)">
<path fill-rule="evenodd" clip-rule="evenodd" d="M1 13C0.448 13 0 12.552 0 12V3.992C0 1.787 1.787 0 3.992 0C6.357 0 9.643 0 12.008 0C13.067 0 14.082 0.421001 14.831 1.169C15.579 1.918 16 2.933 16 3.992C16 6.357 16 9.643 16 12.008C16 14.213 14.213 16 12.008 16C8.751 16 4 16 4 16C3.448 16 3 15.552 3 15C3 13.896 2.104 13 1 13ZM1 14C1.552 14 2 14.448 2 15C2 15.552 1.552 16 1 16C0.448 16 0 15.552 0 15C0 14.448 0.448 14 1 14Z" fill="url(#paint0_linear_274_9)"/>
<path d="M2.69972 4.9892C2.58653 5.00345 2.50123 5.09909 2.5 5.21318V9.29472C2.5 9.41455 2.60272 9.52012 2.72256 9.52012H4.76261V10.2748H3.25468V11.0295H5.89563V8.76402H7.13781C7.05427 8.76039 6.98737 8.6935 6.98374 8.60994V7.68316C6.98089 7.61184 7.03224 7.54193 7.10073 7.52909C7.11256 7.52763 7.12454 7.52763 7.13639 7.52909H7.62012C7.69715 7.52909 7.77277 7.60042 7.77277 7.68173V8.66044H8.53886V5.21323C8.53444 5.09139 8.43671 4.99364 8.31488 4.98924" fill="#279FD7"/>
<path d="M6.47598 7.25466C6.42104 7.26201 6.37047 7.28849 6.33314 7.32946C6.29583 7.37043 6.27416 7.42326 6.27197 7.47863V11.5587C6.27197 11.6772 6.38038 11.7842 6.50022 11.7842H8.2387C8.4029 11.7842 8.536 11.9173 8.536 12.0815V12.6167C8.536 12.7809 8.6691 12.914 8.8333 12.914H9.74949C9.91369 12.914 10.0468 12.7809 10.0468 12.6167V12.0815C10.0468 11.9173 10.1799 11.7842 10.3441 11.7842H12.0854C12.1445 11.782 12.2006 11.7576 12.2425 11.7158C12.2843 11.674 12.3087 11.6178 12.3108 11.5587V7.47863C12.3084 7.41963 12.2838 7.36373 12.2421 7.32197C12.2003 7.28021 12.1444 7.25569 12.0854 7.25323M7.02665 12.5374V12.9962C7.02665 13.1604 7.15975 13.2935 7.32395 13.2935H11.2588C11.423 13.2935 11.5561 13.1604 11.5561 12.9962V12.5374" fill="#279FD7"/>
<path d="M3.88893 3.79999C3.77574 3.81424 3.69044 3.90988 3.68921 4.02397V8.10551C3.68921 8.22534 3.79193 8.33091 3.91177 8.33091H5.95182V9.0856H4.44388V9.84027H7.08484V7.57481H8.32702C8.24348 7.57118 8.17658 7.50429 8.17295 7.42073V6.49395C8.17009 6.42263 8.22145 6.35272 8.28994 6.33988C8.30177 6.33842 8.31375 6.33842 8.3256 6.33988H8.80933C8.88636 6.33988 8.96198 6.41121 8.96198 6.49252V7.47123H9.72807V4.02402C9.72365 3.90218 9.62592 3.80443 9.50408 3.80003" fill="url(#paint1_linear_274_9)"/>
<path d="M7.66519 6.06545C7.61025 6.0728 7.55968 6.09929 7.52235 6.14025C7.48504 6.18122 7.46337 6.23405 7.46118 6.28942V10.3695C7.46118 10.4879 7.56959 10.5949 7.68943 10.5949H9.42791C9.59211 10.5949 9.72521 10.728 9.72521 10.8922V11.4275C9.72521 11.5917 9.85831 11.7248 10.0225 11.7248H10.9387C11.1029 11.7248 11.236 11.5917 11.236 11.4275V10.8922C11.236 10.728 11.3691 10.5949 11.5333 10.5949H13.2746C13.3337 10.5928 13.3898 10.5684 13.4317 10.5266C13.4735 10.4848 13.4979 10.4286 13.5 10.3695V6.28942C13.4976 6.23042 13.473 6.17452 13.4313 6.13276C13.3895 6.09101 13.3336 6.06648 13.2746 6.06403M8.21586 11.3482V11.807C8.21586 11.9712 8.34896 12.1043 8.51315 12.1043H12.4481C12.6123 12.1043 12.7454 11.9712 12.7454 11.807V11.3482" fill="url(#paint2_linear_274_9)"/>
</g>
<defs>
<linearGradient id="paint0_linear_274_9" x1="1.6" y1="16.005" x2="7.3787" y2="-1.33327" gradientUnits="userSpaceOnUse">
<stop offset="0.190745" stop-color="#22B4FA"/>
<stop offset="0.896724" stop-color="#7DDCFF"/>
</linearGradient>
<linearGradient id="paint1_linear_274_9" x1="3.68921" y1="9.84027" x2="10.7939" y2="8.06451" gradientUnits="userSpaceOnUse">
<stop stop-color="#6BD6FE"/>
<stop offset="1" stop-color="white"/>
</linearGradient>
<linearGradient id="paint2_linear_274_9" x1="7.46118" y1="12.1043" x2="14.5659" y2="10.3285" gradientUnits="userSpaceOnUse">
<stop stop-color="#6BD6FE"/>
<stop offset="1" stop-color="white"/>
</linearGradient>
<clipPath id="clip0_274_9">
<rect width="16" height="16" fill="white"/>
</clipPath>
</defs>
</svg>
