<svg width="16" height="16" viewBox="0 0 16 16" fill="none" xmlns="http://www.w3.org/2000/svg">
<g clip-path="url(#clip0_274_115)">
<path fill-rule="evenodd" clip-rule="evenodd" d="M5 0H10.18C10.97 0 11.728 0.314 12.287 0.872C12.817 1.403 13.597 2.183 14.128 2.713C14.686 3.272 15 4.03 15 4.82V13.021C15 13.811 14.686 14.569 14.128 15.128C13.569 15.686 12.811 16 12.021 16C9.796 16 6.204 16 3.979 16C3.189 16 2.431 15.686 1.872 15.128C1.314 14.569 1 13.811 1 13.021V4C1 3.448 1.448 3 2 3C3.104 3 4 2.104 4 1C4 0.448 4.448 0 5 0ZM3 1C3 1.552 2.552 2 2 2C1.448 2 1 1.552 1 1C1 0.448 1.448 0 2 0C2.552 0 3 0.448 3 1Z" fill="url(#paint0_linear_274_115)"/>
<path fill-rule="evenodd" clip-rule="evenodd" d="M8.70201 5.52767C8.23951 5.5 7.68109 5.5 7.00006 5.5H6.99612C6.97384 5.5 6.95303 5.51113 6.94066 5.52968L5.62954 7.49637C5.60001 7.54069 5.63176 7.60002 5.68501 7.60002H7.40358C7.42588 7.60002 7.44668 7.58889 7.45904 7.57034L8.75261 5.63038C8.78095 5.58788 8.753 5.53072 8.70201 5.52767ZM6.11227 5.50277C4.80244 5.51723 4.07149 5.60012 3.58562 6.0856C3.25465 6.41697 3.11048 6.8624 3.048 7.52779C3.04435 7.56662 3.07507 7.60002 3.11407 7.60002H4.80355C4.82584 7.60002 4.84665 7.58889 4.85902 7.57034L6.16831 5.60622C6.19797 5.56172 6.16576 5.50218 6.11227 5.50277ZM10.9521 7.52775C10.9557 7.5666 10.925 7.60002 10.886 7.60002H8.28503C8.23178 7.60002 8.20003 7.54069 8.22956 7.49637L9.45423 5.65918C9.46935 5.63648 9.49685 5.62523 9.52345 5.63127C9.8991 5.7163 10.1842 5.85573 10.4145 6.0856C10.7454 6.41695 10.8893 6.86239 10.9521 7.52775ZM3.00872 8.26474C3 8.62477 3 9.03337 3 9.49996C3 11.3856 3 12.3288 3.5856 12.914C4.17162 13.5 5.11442 13.5 7.00004 13.5C8.88566 13.5 9.82888 13.5 10.4141 12.914C11.0001 12.3284 11.0001 11.3856 11.0001 9.49996C11.0001 9.03342 11.0001 8.62474 10.9914 8.26474C10.9905 8.22866 10.9609 8.19994 10.9248 8.19994H3.07525C3.03915 8.19994 3.0096 8.22866 3.00872 8.26474Z" fill="#279FD7"/>
<path fill-rule="evenodd" clip-rule="evenodd" d="M9.70201 4.52767C9.23951 4.5 8.68109 4.5 8.00006 4.5H7.99612C7.97384 4.5 7.95303 4.51113 7.94066 4.52968L6.62954 6.49637C6.60001 6.54069 6.63176 6.60002 6.68501 6.60002H8.40358C8.42588 6.60002 8.44668 6.58889 8.45904 6.57034L9.75261 4.63038C9.78095 4.58788 9.753 4.53072 9.70201 4.52767ZM7.11227 4.50277C5.80244 4.51723 5.07149 4.60012 4.58562 5.0856C4.25465 5.41697 4.11048 5.8624 4.048 6.52779C4.04435 6.56662 4.07507 6.60002 4.11407 6.60002H5.80355C5.82584 6.60002 5.84665 6.58889 5.85902 6.57034L7.16831 4.60622C7.19797 4.56172 7.16576 4.50218 7.11227 4.50277ZM11.9521 6.52775C11.9557 6.5666 11.925 6.60002 11.886 6.60002H9.28503C9.23178 6.60002 9.20003 6.54069 9.22956 6.49637L10.4542 4.65918C10.4693 4.63648 10.4968 4.62523 10.5234 4.63127C10.8991 4.7163 11.1842 4.85573 11.4145 5.0856C11.7454 5.41695 11.8893 5.86239 11.9521 6.52775ZM4.00872 7.26474C4 7.62477 4 8.03337 4 8.49996C4 10.3856 4 11.3288 4.5856 11.914C5.17162 12.5 6.11442 12.5 8.00004 12.5C9.88566 12.5 10.8289 12.5 11.4141 11.914C12.0001 11.3284 12.0001 10.3856 12.0001 8.49996C12.0001 8.03342 12.0001 7.62474 11.9914 7.26474C11.9905 7.22866 11.9609 7.19994 11.9248 7.19994H4.07525C4.03915 7.19994 4.0096 7.22866 4.00872 7.26474Z" fill="url(#paint1_linear_274_115)"/>
</g>
<defs>
<linearGradient id="paint0_linear_274_115" x1="2.4" y1="16.005" x2="8.80811" y2="-0.818382" gradientUnits="userSpaceOnUse">
<stop stop-color="#22B4FA"/>
<stop offset="1" stop-color="#6BD6FE"/>
</linearGradient>
<linearGradient id="paint1_linear_274_115" x1="4" y1="12.5" x2="13.4119" y2="10.147" gradientUnits="userSpaceOnUse">
<stop stop-color="#6BD6FE"/>
<stop offset="1" stop-color="white"/>
</linearGradient>
<clipPath id="clip0_274_115">
<rect width="16" height="16" fill="white"/>
</clipPath>
</defs>
</svg>
