<svg width="16" height="16" viewBox="0 0 16 16" fill="none" xmlns="http://www.w3.org/2000/svg">
<g clip-path="url(#clip0_44_357)">
<path fill-rule="evenodd" clip-rule="evenodd" d="M1 13C0.448 13 0 12.552 0 12V3.992C0 1.787 1.787 0 3.992 0C6.357 0 9.643 0 12.008 0C13.067 0 14.082 0.421001 14.831 1.169C15.579 1.918 16 2.933 16 3.992C16 6.357 16 9.643 16 12.008C16 14.213 14.213 16 12.008 16C8.751 16 4 16 4 16C3.448 16 3 15.552 3 15C3 13.896 2.104 13 1 13ZM1 14C1.552 14 2 14.448 2 15C2 15.552 1.552 16 1 16C0.448 16 0 15.552 0 15C0 14.448 0.448 14 1 14Z" fill="url(#paint0_linear_44_357)"/>
<path d="M5.50242 3.08733C5.62235 3.20726 5.68973 3.36992 5.68973 3.53953C5.68973 4.12788 6.16723 4.60538 6.75558 4.60538C6.92518 4.60538 7.08784 4.67276 7.20778 4.79269C7.32771 4.91262 7.39508 5.07528 7.39508 5.24489C7.39508 5.4145 7.32771 5.57716 7.20778 5.69709C7.08784 5.81702 6.92518 5.8844 6.75558 5.8844C6.37187 5.8844 6.00948 5.79231 5.68973 5.62859V8.6556C5.68963 9.16657 5.52263 9.66353 5.21413 10.0709C4.90563 10.4782 4.47252 10.7736 3.98069 10.9122C3.48886 11.0507 2.96523 11.0248 2.48947 10.8384C2.01371 10.652 1.61185 10.3153 1.34505 9.87954C1.07824 9.44375 0.961082 8.93274 1.0114 8.42425C1.06172 7.91576 1.27676 7.43762 1.6238 7.06258C1.97084 6.68754 2.43089 6.43612 2.93396 6.34658C3.43703 6.25704 3.95558 6.33428 4.41071 6.56654V3.53953C4.41071 3.36992 4.47809 3.20726 4.59802 3.08733C4.71795 2.9674 4.88061 2.90002 5.05022 2.90002C5.21983 2.90002 5.38249 2.9674 5.50242 3.08733Z" fill="#D49F34"/>
<path d="M6.40245 2.18731C6.52238 2.30724 6.58975 2.4699 6.58975 2.63951C6.58975 3.22786 7.06725 3.70535 7.6556 3.70535C7.82521 3.70535 7.98787 3.77273 8.1078 3.89266C8.22773 4.01259 8.29511 4.17525 8.29511 4.34486C8.29511 4.51447 8.22773 4.67713 8.1078 4.79706C7.98787 4.91699 7.82521 4.98437 7.6556 4.98437C7.27189 4.98437 6.90951 4.89228 6.58975 4.72857V7.75557C6.58966 8.26655 6.42266 8.7635 6.11416 9.17084C5.80566 9.57818 5.37255 9.8736 4.88072 10.0121C4.38888 10.1507 3.86526 10.1248 3.38949 9.93841C2.91373 9.75201 2.51188 9.4153 2.24507 8.97952C1.97826 8.54373 1.86111 8.03272 1.91142 7.52423C1.96174 7.01574 2.17678 6.5376 2.52382 6.16256C2.87086 5.78752 3.33092 5.5361 3.83398 5.44656C4.33705 5.35702 4.8556 5.43425 5.31074 5.66651V2.63951C5.31074 2.4699 5.37811 2.30724 5.49804 2.18731C5.61798 2.06738 5.78064 2 5.95024 2C6.11985 2 6.28251 2.06738 6.40245 2.18731Z" fill="url(#paint1_linear_44_357)"/>
<path fill-rule="evenodd" clip-rule="evenodd" d="M7 9.50243C7 9.22491 7.22493 9 7.5024 9H13.7704C14.0478 9 14.2727 9.22491 14.2727 9.50243C14.2727 9.77988 14.0478 10.0048 13.7704 10.0048H7.5024C7.22493 10.0048 7 9.77988 7 9.50243ZM7 11.7482C7 11.443 7.24739 11.1956 7.55256 11.1956H13.7202C14.0254 11.1956 14.2727 11.443 14.2727 11.7482C14.2727 12.0534 14.0254 12.3008 13.7202 12.3008H7.55256C7.24739 12.3008 7 12.0534 7 11.7482ZM10.6873 13.8788C10.6873 13.6134 10.4721 13.3981 10.2066 13.3981H7.48071C7.21526 13.3981 7.00006 13.6134 7.00006 13.8788C7.00006 14.1443 7.21526 14.3594 7.48071 14.3594H10.2066C10.4721 14.3594 10.6873 14.1443 10.6873 13.8788Z" fill="#D49F34"/>
<path fill-rule="evenodd" clip-rule="evenodd" d="M7.67712 8.50243C7.67712 8.22491 7.90206 8 8.17952 8H14.4475C14.725 8 14.9499 8.22491 14.9499 8.50243C14.9499 8.77988 14.725 9.00479 14.4475 9.00479H8.17952C7.90206 9.00479 7.67712 8.77988 7.67712 8.50243ZM7.67712 10.7482C7.67712 10.443 7.92451 10.1956 8.22969 10.1956H14.3973C14.7025 10.1956 14.9499 10.443 14.9499 10.7482C14.9499 11.0534 14.7025 11.3008 14.3973 11.3008H8.22969C7.92451 11.3008 7.67712 11.0534 7.67712 10.7482ZM11.3644 12.8788C11.3644 12.6134 11.1492 12.3981 10.8837 12.3981H8.15784C7.89238 12.3981 7.67719 12.6134 7.67719 12.8788C7.67719 13.1443 7.89238 13.3594 8.15783 13.3594H10.8837C11.1492 13.3594 11.3644 13.1443 11.3644 12.8788Z" fill="url(#paint2_linear_44_357)"/>
</g>
<defs>
<linearGradient id="paint0_linear_44_357" x1="3" y1="14.9988" x2="12.9991" y2="2.999" gradientUnits="userSpaceOnUse">
<stop stop-color="#FF8860"/>
<stop offset="1" stop-color="#FBD92C"/>
</linearGradient>
<linearGradient id="paint1_linear_44_357" x1="3.4988" y1="8.075" x2="7.43826" y2="4.96472" gradientUnits="userSpaceOnUse">
<stop stop-color="#FBD92C"/>
<stop offset="1" stop-color="white"/>
</linearGradient>
<linearGradient id="paint2_linear_44_357" x1="9.49531" y1="12.0196" x2="12.0548" y2="8.5463" gradientUnits="userSpaceOnUse">
<stop stop-color="#FBD92C"/>
<stop offset="1" stop-color="white"/>
</linearGradient>
<clipPath id="clip0_44_357">
<rect width="16" height="16" fill="white"/>
</clipPath>
</defs>
</svg>
