<svg width="16" height="16" viewBox="0 0 16 16" fill="none" xmlns="http://www.w3.org/2000/svg">
<g clip-path="url(#clip0_51_474)">
<path fill-rule="evenodd" clip-rule="evenodd" d="M1 13C0.448 13 0 12.552 0 12V3.992C0 1.787 1.787 0 3.992 0C6.357 0 9.643 0 12.008 0C13.067 0 14.082 0.421001 14.831 1.169C15.579 1.918 16 2.933 16 3.992C16 6.357 16 9.643 16 12.008C16 14.213 14.213 16 12.008 16C8.751 16 4 16 4 16C3.448 16 3 15.552 3 15C3 13.896 2.104 13 1 13ZM1 14C1.552 14 2 14.448 2 15C2 15.552 1.552 16 1 16C0.448 16 0 15.552 0 15C0 14.448 0.448 14 1 14Z" fill="url(#paint0_linear_51_474)"/>
<path d="M7.34884 9.23584L7.34927 9.23614L11.0484 7.75649C11.17 7.70783 11.3024 7.79742 11.3024 7.92841V9.94615C11.3024 10.0924 11.1372 10.1849 10.9996 10.1354C10.793 10.0612 10.5715 10.0324 10.3503 10.0527C10.0161 10.0833 9.70154 10.2244 9.45632 10.4535C9.21108 10.6827 9.04909 10.987 8.99587 11.3184C8.94267 11.6498 9.00127 11.9895 9.16245 12.2839C9.32362 12.5783 9.5782 12.8107 9.88605 12.9445C10.1939 13.0782 10.5375 13.1057 10.8627 13.0226C11.1879 12.9395 11.4762 12.7505 11.6821 12.4854C11.8881 12.2204 11.9999 11.8943 12 11.5587V7.11398C12 6.58235 12 6.13676 11.9628 5.7814C11.9576 5.73244 11.9514 5.68359 11.9442 5.63489C11.9079 5.39211 11.8447 5.16605 11.7214 4.97675C11.6463 4.8604 11.5482 4.76069 11.4331 4.68373L11.4298 4.6814C11.1005 4.4628 10.7307 4.47815 10.3498 4.57535C9.98142 4.6693 9.52467 4.86048 8.96467 5.09489L7.99071 5.50234C7.72791 5.61209 7.50559 5.70559 7.33116 5.80188C7.14511 5.90421 6.98559 6.02512 6.86558 6.20559C6.74559 6.38606 6.69535 6.58001 6.67255 6.79119C6.65117 6.98932 6.65117 7.23071 6.65117 7.51538V10.8759C6.65117 11.0222 6.48603 11.1147 6.34837 11.0652C6.14186 10.991 5.92034 10.9622 5.69913 10.9825C5.3649 11.0131 5.05036 11.1541 4.80512 11.3833C4.55987 11.6125 4.39788 11.9168 4.34468 12.2482C4.29146 12.5796 4.35007 12.9193 4.51125 13.2137C4.67242 13.5081 4.92702 13.7405 5.23487 13.8742C5.54272 14.008 5.88633 14.0355 6.21153 13.9524C6.53671 13.8692 6.82501 13.6802 7.03092 13.4152C7.23685 13.1501 7.3487 12.8241 7.34884 12.4884V9.23584Z" fill="#7FD1AE"/>
<path d="M5.02329 4.34885C5.02329 4.25632 4.98653 4.1676 4.92111 4.10218C4.85569 4.03676 4.76695 4 4.67444 4C4.58193 4 4.49319 4.03676 4.42777 4.10218C4.36235 4.1676 4.32559 4.25632 4.32559 4.34885V6.68985C4.32559 6.83613 4.16047 6.92859 4.02282 6.87913C3.81629 6.80491 3.59479 6.7761 3.37358 6.7964C3.03932 6.82704 2.72479 6.96807 2.47956 7.19724C2.23432 7.42641 2.07233 7.73069 2.01911 8.06209C1.96591 8.3935 2.02452 8.73318 2.18569 9.0276C2.34687 9.32201 2.60144 9.55442 2.9093 9.68815C3.21716 9.82191 3.56077 9.84938 3.88596 9.76628C4.21116 9.68315 4.49943 9.49418 4.70537 9.22913C4.9113 8.96407 5.02314 8.638 5.02329 8.30235V6.10833C5.02329 5.95734 5.19843 5.86505 5.33581 5.92767C5.58016 6.03905 5.8374 6.09303 6.0698 6.09303C6.16233 6.09303 6.25104 6.05629 6.31647 5.99087C6.38189 5.92545 6.41864 5.83672 6.41864 5.7442C6.41864 5.65167 6.38189 5.56296 6.31647 5.49753C6.25104 5.43211 6.16233 5.39536 6.0698 5.39536C5.81696 5.38919 5.5734 5.29884 5.37771 5.13861C5.17584 4.97257 5.02329 4.72001 5.02329 4.34885Z" fill="#7FD1AE"/>
<path d="M8.34884 8.23584L8.34927 8.23614L12.0484 6.75649C12.17 6.70783 12.3024 6.79742 12.3024 6.92841V8.94615C12.3024 9.09242 12.1372 9.18489 11.9996 9.13542C11.793 9.06122 11.5715 9.0324 11.3503 9.0527C11.0161 9.08335 10.7015 9.22437 10.4563 9.45354C10.2111 9.68271 10.0491 9.98699 9.99587 10.3184C9.94267 10.6498 10.0013 10.9895 10.1624 11.2839C10.3236 11.5783 10.5782 11.8107 10.8861 11.9445C11.1939 12.0782 11.5375 12.1057 11.8627 12.0226C12.1879 11.9395 12.4762 11.7505 12.6821 11.4854C12.8881 11.2204 12.9999 10.8943 13 10.5587V6.11398C13 5.58235 13 5.13676 12.9628 4.7814C12.9576 4.73244 12.9514 4.68359 12.9442 4.63489C12.9079 4.39211 12.8447 4.16605 12.7214 3.97675C12.6463 3.8604 12.5482 3.76069 12.4331 3.68373L12.4298 3.6814C12.1005 3.4628 11.7307 3.47815 11.3498 3.57535C10.9814 3.6693 10.5247 3.86048 9.96467 4.09489L8.99071 4.50234C8.72791 4.61209 8.50559 4.70559 8.33116 4.80188C8.14511 4.90421 7.98559 5.02512 7.86558 5.20559C7.74559 5.38606 7.69535 5.58001 7.67255 5.79119C7.65117 5.98932 7.65117 6.23071 7.65117 6.51538V9.87592C7.65117 10.0222 7.48603 10.1147 7.34837 10.0652C7.14186 9.99099 6.92034 9.96218 6.69913 9.98247C6.3649 10.0131 6.05036 10.1541 5.80512 10.3833C5.55987 10.6125 5.39788 10.9168 5.34468 11.2482C5.29146 11.5796 5.35007 11.9193 5.51125 12.2137C5.67242 12.5081 5.92702 12.7405 6.23487 12.8742C6.54272 13.008 6.88633 13.0355 7.21153 12.9524C7.53671 12.8692 7.82501 12.6802 8.03092 12.4152C8.23685 12.1501 8.3487 11.8241 8.34884 11.4884V8.23584Z" fill="url(#paint1_linear_51_474)"/>
<path d="M6.02329 3.34885C6.02329 3.25632 5.98653 3.1676 5.92111 3.10218C5.85569 3.03676 5.76695 3 5.67444 3C5.58193 3 5.49319 3.03676 5.42777 3.10218C5.36235 3.1676 5.32559 3.25632 5.32559 3.34885V5.68985C5.32559 5.83613 5.16047 5.92859 5.02282 5.87913C4.81629 5.80491 4.59479 5.7761 4.37358 5.7964C4.03932 5.82704 3.72479 5.96807 3.47956 6.19724C3.23432 6.42641 3.07233 6.73069 3.01911 7.06209C2.96591 7.3935 3.02452 7.73318 3.18569 8.0276C3.34687 8.32201 3.60144 8.55442 3.9093 8.68815C4.21716 8.82191 4.56077 8.84938 4.88596 8.76628C5.21116 8.68315 5.49943 8.49418 5.70537 8.22913C5.9113 7.96407 6.02314 7.638 6.02329 7.30235V5.10833C6.02329 4.95734 6.19843 4.86505 6.33581 4.92767C6.58016 5.03905 6.8374 5.09303 7.0698 5.09303C7.16233 5.09303 7.25104 5.05629 7.31647 4.99087C7.38189 4.92545 7.41864 4.83672 7.41864 4.7442C7.41864 4.65167 7.38189 4.56296 7.31647 4.49753C7.25104 4.43211 7.16233 4.39536 7.0698 4.39536C6.81696 4.38919 6.5734 4.29884 6.37771 4.13861C6.17584 3.97257 6.02329 3.72001 6.02329 3.34885Z" fill="url(#paint2_linear_51_474)"/>
</g>
<defs>
<linearGradient id="paint0_linear_51_474" x1="2" y1="14.0004" x2="16.972" y2="10.5455" gradientUnits="userSpaceOnUse">
<stop stop-color="#62E8AF"/>
<stop offset="1" stop-color="#B3FBDC"/>
</linearGradient>
<linearGradient id="paint1_linear_51_474" x1="5.32556" y1="12.9994" x2="8.67413" y2="2.16985" gradientUnits="userSpaceOnUse">
<stop stop-color="#B3FBDC"/>
<stop offset="1" stop-color="white"/>
</linearGradient>
<linearGradient id="paint2_linear_51_474" x1="3" y1="8.81335" x2="5.15677" y2="2.25604" gradientUnits="userSpaceOnUse">
<stop stop-color="#B3FBDC"/>
<stop offset="1" stop-color="white"/>
</linearGradient>
<clipPath id="clip0_51_474">
<rect width="16" height="16" fill="white"/>
</clipPath>
</defs>
</svg>
