<svg width="16" height="16" viewBox="0 0 16 16" fill="none" xmlns="http://www.w3.org/2000/svg">
<g clip-path="url(#clip0_274_93)">
<path fill-rule="evenodd" clip-rule="evenodd" d="M1 13C0.448 13 0 12.552 0 12V3.992C0 1.787 1.787 0 3.992 0C6.357 0 9.643 0 12.008 0C13.067 0 14.082 0.421001 14.831 1.169C15.579 1.918 16 2.933 16 3.992C16 6.357 16 9.643 16 12.008C16 14.213 14.213 16 12.008 16C8.751 16 4 16 4 16C3.448 16 3 15.552 3 15C3 13.896 2.104 13 1 13ZM1 14C1.552 14 2 14.448 2 15C2 15.552 1.552 16 1 16C0.448 16 0 15.552 0 15C0 14.448 0.448 14 1 14Z" fill="url(#paint0_linear_274_93)"/>
<g opacity="0.7">
<path d="M8.19121 8.6123L5.79507 8.86865L5.74655 8.90454C5.62111 8.9917 5.62111 9.2583 5.74655 9.34546L5.79507 9.38135L8.19121 9.6377C8.27707 9.74769 8.52665 10.0675 8.53451 10.0778C8.61354 10.178 8.74157 10.178 8.82052 10.0778L9.42934 9.30623C9.46885 9.25619 9.48861 9.19056 9.48861 9.125C9.48861 9.05944 9.46885 8.99381 9.42934 8.94377L8.82251 8.17474C8.74349 8.07459 8.61552 8.07459 8.5365 8.17474L8.19121 8.6123ZM4.62074 9.38484C4.61597 9.38442 4.61192 9.38135 4.60706 9.38135C4.49525 9.38135 4.40479 9.49599 4.40479 9.6377V13.2436C4.40479 13.3854 4.49525 13.5 4.60706 13.5C4.71886 13.5 4.80934 13.3854 4.80934 13.2436V11.0196C5.26487 12.0284 6.06441 12.7608 7.00572 12.9314C7.11634 12.9514 7.21887 12.8541 7.23466 12.7139C7.23602 12.7016 7.23664 12.6894 7.23664 12.6772C7.23664 12.5516 7.16391 12.442 7.06301 12.4236C5.91574 12.216 4.99996 11.0554 4.836 9.6014C4.82086 9.46721 4.72585 9.37512 4.62074 9.38484ZM4.40479 5.00635V8.6123C4.40479 8.75401 4.49525 8.86865 4.60706 8.86865C4.61192 8.86865 4.61597 8.86558 4.62074 8.86516C4.72585 8.87488 4.82086 8.78279 4.83599 8.6486C4.99995 7.1946 5.91574 6.03406 7.06301 5.82629C7.16391 5.80801 7.23664 5.69838 7.23664 5.57269C7.23664 5.56068 7.23602 5.5484 7.23466 5.53614C7.21887 5.39594 7.11634 5.29856 7.00572 5.31859C6.06441 5.48929 5.26487 6.22158 4.80934 7.23043V5.00635C4.80934 4.86465 4.71886 4.75 4.60706 4.75C4.49525 4.75 4.40479 4.86465 4.40479 5.00635Z" stroke="#D49F34" stroke-width="0.4"/>
<path d="M5.79484 8.86865H8.19097L8.53626 8.43109C8.61529 8.33094 8.74325 8.33094 8.82228 8.43109L9.22683 8.94377C9.26634 8.99381 9.2861 9.05944 9.2861 9.125C9.2861 9.19062 9.26634 9.25619 9.22683 9.30623L8.82029 9.8215C8.74134 9.92163 8.6133 9.9215 8.53427 9.8215C8.52641 9.81113 8.27684 9.49134 8.19097 9.38135H5.79484L8.57816 11.3963C8.64694 11.4475 8.7278 11.4424 8.79254 11.3911L9.3306 10.9349C9.73917 10.5861 10.2125 10.4068 10.702 10.4068C10.8153 10.4068 10.9043 10.294 10.9043 10.1504V8.09961C10.9043 7.95605 10.8153 7.84326 10.702 7.84326C10.2125 7.84326 9.73917 7.66381 9.3306 7.31519L8.79254 6.85889C8.7278 6.80761 8.64694 6.80249 8.57816 6.85376L5.79484 8.86865ZM4 5.00635C4 5.14804 4.09047 5.2627 4.20227 5.2627H5.01138C5.12318 5.2627 5.21365 5.14804 5.21365 5.00635C5.21365 4.86465 5.12318 4.75 5.01138 4.75H4.20227C4.09047 4.75 4 4.86465 4 5.00635ZM5.21365 13.2436C5.21365 13.102 5.12318 12.9872 5.01138 12.9872H4.20227C4.09047 12.9872 4 13.102 4 13.2436C4 13.3854 4.09047 13.5 4.20227 13.5H5.01138C5.12318 13.5 5.21365 13.3854 5.21365 13.2436ZM5.21365 9.6377V8.6123C5.21365 8.4706 5.12318 8.35596 5.01138 8.35596H4.20227C4.09047 8.35596 4 8.4706 4 8.6123V9.6377C4 9.77938 4.09047 9.894 4.20227 9.894H5.01138C5.12318 9.894 5.21365 9.77938 5.21365 9.6377ZM6.83185 12.2011V13.2265C6.83185 13.3683 6.9223 13.4829 7.03412 13.4829H7.84324C7.955 13.4829 8.04551 13.3683 8.04551 13.2265V12.2011C8.04551 12.0595 7.955 11.9449 7.84324 11.9449H7.03412C6.9223 11.9449 6.83185 12.0595 6.83185 12.2011ZM6.83185 5.02344V6.04883C6.83185 6.19054 6.9223 6.30518 7.03412 6.30518H7.84324C7.955 6.30518 8.04551 6.19054 8.04551 6.04883V5.02344C8.04551 4.88174 7.955 4.76709 7.84324 4.76709H7.03412C6.9223 4.76709 6.83185 4.88174 6.83185 5.02344Z" stroke="#D49F34" stroke-width="0.6"/>
</g>
<path d="M9.44121 7.3623L7.04507 7.61865L6.99655 7.65454C6.87111 7.7417 6.87111 8.0083 6.99655 8.09546L7.04507 8.13135L9.44121 8.3877C9.52707 8.49769 9.77665 8.8175 9.78451 8.82775C9.86354 8.928 9.99157 8.928 10.0705 8.82775L10.6793 8.05623C10.7188 8.00619 10.7386 7.94056 10.7386 7.875C10.7386 7.80944 10.7188 7.74381 10.6793 7.69377L10.0725 6.92474C9.99349 6.82459 9.86552 6.82459 9.7865 6.92474L9.44121 7.3623ZM5.87074 8.13484C5.86597 8.13442 5.86192 8.13135 5.85706 8.13135C5.74525 8.13135 5.65479 8.24599 5.65479 8.3877V11.9936C5.65479 12.1354 5.74525 12.25 5.85706 12.25C5.96886 12.25 6.05934 12.1354 6.05934 11.9936V9.76963C6.51487 10.7784 7.31441 11.5108 8.25572 11.6814C8.36634 11.7014 8.46887 11.6041 8.48466 11.4639C8.48602 11.4516 8.48664 11.4394 8.48664 11.4272C8.48664 11.3016 8.41391 11.192 8.31301 11.1736C7.16574 10.966 6.24996 9.80537 6.086 8.3514C6.07086 8.21721 5.97585 8.12512 5.87074 8.13484ZM5.65479 3.75635V7.3623C5.65479 7.50401 5.74525 7.61865 5.85706 7.61865C5.86192 7.61865 5.86597 7.61558 5.87074 7.61516C5.97585 7.62488 6.07086 7.53279 6.08599 7.3986C6.24995 5.9446 7.16574 4.78406 8.31301 4.57629C8.41391 4.55801 8.48664 4.44838 8.48664 4.32269C8.48664 4.31068 8.48602 4.2984 8.48466 4.28614C8.46887 4.14594 8.36634 4.04856 8.25572 4.06859C7.31441 4.23929 6.51487 4.97158 6.05934 5.98043V3.75635C6.05934 3.61465 5.96886 3.5 5.85706 3.5C5.74525 3.5 5.65479 3.61465 5.65479 3.75635Z" stroke="url(#paint1_linear_274_93)" stroke-width="0.4"/>
<path d="M7.04484 7.61865H9.44097C9.55556 7.61112 9.55556 7.61112 10.1111 7.61112H10.4768C10.5163 7.66116 10.5361 7.80944 10.5361 7.875C10.5361 7.94063 10.5163 8.08131 10.4768 8.13135H10.1111C9.55556 8.13135 9.65347 8.13135 9.44097 8.13135C9.66451 8.13135 9.43311 8.12097 9.44097 8.13135H7.04484L9.82816 10.1463C9.89694 10.1975 9.9778 10.1924 10.0425 10.1411L10.5806 9.68487C10.9892 9.33612 11.4625 9.15675 11.952 9.15675C12.0653 9.15675 12.1543 9.044 12.1543 8.90038V6.84961C12.1543 6.70605 12.0653 6.59326 11.952 6.59326C11.4625 6.59326 10.9892 6.41381 10.5806 6.06519L10.0425 5.60889C9.9778 5.55761 9.89694 5.55249 9.82816 5.60376L7.04484 7.61865ZM5.25 3.75635C5.25 3.89804 5.34047 4.0127 5.45227 4.0127H6.26138C6.37318 4.0127 6.46365 3.89804 6.46365 3.75635C6.46365 3.61465 6.37318 3.5 6.26138 3.5H5.45227C5.34047 3.5 5.25 3.61465 5.25 3.75635ZM6.46365 11.9936C6.46365 11.852 6.37318 11.7372 6.26138 11.7372H5.45227C5.34047 11.7372 5.25 11.852 5.25 11.9936C5.25 12.1354 5.34047 12.25 5.45227 12.25H6.26138C6.37318 12.25 6.46365 12.1354 6.46365 11.9936ZM6.46365 8.3877V7.3623C6.46365 7.2206 6.37318 7.10596 6.26138 7.10596H5.45227C5.34047 7.10596 5.25 7.2206 5.25 7.3623V8.3877C5.25 8.52938 5.34047 8.644 5.45227 8.644H6.26138C6.37318 8.644 6.46365 8.52938 6.46365 8.3877ZM8.08185 10.9511V11.9765C8.08185 12.1183 8.1723 12.2329 8.28413 12.2329H9.09324C9.205 12.2329 9.29551 12.1183 9.29551 11.9765V10.9511C9.29551 10.8095 9.205 10.6949 9.09324 10.6949H8.28413C8.1723 10.6949 8.08185 10.8095 8.08185 10.9511ZM8.08185 3.77344V4.79883C8.08185 4.94054 8.1723 5.05518 8.28413 5.05518H9.09324C9.205 5.05518 9.29551 4.94054 9.29551 4.79883V3.77344C9.29551 3.63174 9.205 3.51709 9.09324 3.51709H8.28413C8.1723 3.51709 8.08185 3.63174 8.08185 3.77344Z" fill="url(#paint2_linear_274_93)"/>
<path d="M9.44097 8.13135C9.65347 8.13135 9.55556 8.13135 10.1111 8.13135H10.4768C10.5163 8.08131 10.5361 7.94063 10.5361 7.875C10.5361 7.80944 10.5163 7.66116 10.4768 7.61112H10.1111C9.55556 7.61112 9.55556 7.61112 9.44097 7.61865H7.04484L9.82816 5.60376C9.89694 5.55249 9.9778 5.55761 10.0425 5.60889L10.5806 6.06519C10.9892 6.41381 11.4625 6.59326 11.952 6.59326C12.0653 6.59326 12.1543 6.70605 12.1543 6.84961V8.90038C12.1543 9.044 12.0653 9.15675 11.952 9.15675C11.4625 9.15675 10.9892 9.33612 10.5806 9.68487L10.0425 10.1411C9.9778 10.1924 9.89694 10.1975 9.82816 10.1463L7.04484 8.13135H9.44097ZM9.44097 8.13135C9.43311 8.12097 9.66451 8.13135 9.44097 8.13135ZM5.25 3.75635C5.25 3.89804 5.34047 4.0127 5.45227 4.0127H6.26138C6.37318 4.0127 6.46365 3.89804 6.46365 3.75635C6.46365 3.61465 6.37318 3.5 6.26138 3.5H5.45227C5.34047 3.5 5.25 3.61465 5.25 3.75635ZM6.46365 11.9936C6.46365 11.852 6.37318 11.7372 6.26138 11.7372H5.45227C5.34047 11.7372 5.25 11.852 5.25 11.9936C5.25 12.1354 5.34047 12.25 5.45227 12.25H6.26138C6.37318 12.25 6.46365 12.1354 6.46365 11.9936ZM6.46365 8.3877V7.3623C6.46365 7.2206 6.37318 7.10596 6.26138 7.10596H5.45227C5.34047 7.10596 5.25 7.2206 5.25 7.3623V8.3877C5.25 8.52938 5.34047 8.644 5.45227 8.644H6.26138C6.37318 8.644 6.46365 8.52938 6.46365 8.3877ZM8.08185 10.9511V11.9765C8.08185 12.1183 8.1723 12.2329 8.28413 12.2329H9.09324C9.205 12.2329 9.29551 12.1183 9.29551 11.9765V10.9511C9.29551 10.8095 9.205 10.6949 9.09324 10.6949H8.28413C8.1723 10.6949 8.08185 10.8095 8.08185 10.9511ZM8.08185 3.77344V4.79883C8.08185 4.94054 8.1723 5.05518 8.28413 5.05518H9.09324C9.205 5.05518 9.29551 4.94054 9.29551 4.79883V3.77344C9.29551 3.63174 9.205 3.51709 9.09324 3.51709H8.28413C8.1723 3.51709 8.08185 3.63174 8.08185 3.77344Z" stroke="url(#paint3_linear_274_93)" stroke-width="0.6"/>
</g>
<defs>
<linearGradient id="paint0_linear_274_93" x1="8" y1="16" x2="8" y2="0" gradientUnits="userSpaceOnUse">
<stop stop-color="#FFA800"/>
<stop offset="1" stop-color="#FFF737"/>
</linearGradient>
<linearGradient id="paint1_linear_274_93" x1="6.92574" y1="10.0625" x2="10.7265" y2="7.85421" gradientUnits="userSpaceOnUse">
<stop stop-color="#FBD92C"/>
<stop offset="1" stop-color="white"/>
</linearGradient>
<linearGradient id="paint2_linear_274_93" x1="6.97608" y1="10.0625" x2="11.2311" y2="6.70501" gradientUnits="userSpaceOnUse">
<stop stop-color="#FBD92C"/>
<stop offset="1" stop-color="white"/>
</linearGradient>
<linearGradient id="paint3_linear_274_93" x1="6.97608" y1="10.0625" x2="11.2311" y2="6.70501" gradientUnits="userSpaceOnUse">
<stop stop-color="#FBD92C"/>
<stop offset="1" stop-color="white"/>
</linearGradient>
<clipPath id="clip0_274_93">
<rect width="16" height="16" fill="white"/>
</clipPath>
</defs>
</svg>
