<svg width="16" height="16" viewBox="0 0 16 16" fill="none" xmlns="http://www.w3.org/2000/svg">
<g clip-path="url(#clip0_274_50)">
<path fill-rule="evenodd" clip-rule="evenodd" d="M5 0H10.18C10.97 0 11.728 0.314 12.287 0.872C12.817 1.403 13.597 2.183 14.128 2.713C14.686 3.272 15 4.03 15 4.82V13.021C15 13.811 14.686 14.569 14.128 15.128C13.569 15.686 12.811 16 12.021 16C9.796 16 6.204 16 3.979 16C3.189 16 2.431 15.686 1.872 15.128C1.314 14.569 1 13.811 1 13.021V4C1 3.448 1.448 3 2 3C3.104 3 4 2.104 4 1C4 0.448 4.448 0 5 0ZM3 1C3 1.552 2.552 2 2 2C1.448 2 1 1.552 1 1C1 0.448 1.448 0 2 0C2.552 0 3 0.448 3 1Z" fill="url(#paint0_linear_274_50)"/>
<path fill-rule="evenodd" clip-rule="evenodd" d="M10.0086 6.00332L8.67553 6.77297C8.30723 6.98562 8.18104 7.45656 8.39369 7.82487L9.16335 9.15796C9.37599 9.52626 9.84693 9.65244 10.2152 9.43981L11.5483 8.67014C11.9166 8.45751 12.0428 7.98657 11.8302 7.61827L11.0605 6.28517C10.8479 5.91687 10.3769 5.79067 10.0086 6.00332ZM4.72885 6.71155H6.18655C6.58907 6.71155 6.91539 7.03786 6.91539 7.4404V8.89808C6.91539 9.30062 6.58907 9.62693 6.18655 9.62693H4.72885C4.32631 9.62693 4 9.30062 4 8.89808V7.4404C4 7.03786 4.32631 6.71155 4.72885 6.71155ZM4.72885 11.0022H6.18655C6.58907 11.0022 6.91539 11.3286 6.91539 11.7311V13.1888C6.91539 13.5913 6.58907 13.9176 6.18655 13.9176H4.72885C4.32631 13.9176 4 13.5913 4 13.1888V11.7311C4 11.3286 4.32631 11.0022 4.72885 11.0022ZM8.73751 11.0846H10.1952C10.5977 11.0846 10.9241 11.411 10.9241 11.8135V13.2712C10.9241 13.6737 10.5977 14 10.1952 14H8.73751C8.33499 14 8.00867 13.6737 8.00867 13.2712V11.8135C8.00867 11.411 8.33499 11.0846 8.73751 11.0846Z" fill="#279FD7"/>
<path fill-rule="evenodd" clip-rule="evenodd" d="M10.9087 5.1033L9.57556 5.87295C9.20726 6.0856 9.08106 6.55654 9.29371 6.92484L10.0634 8.25794C10.276 8.62624 10.747 8.75242 11.1153 8.53978L12.4483 7.77012C12.8166 7.55748 12.9428 7.08654 12.7302 6.71824L11.9605 5.38515C11.7479 5.01684 11.277 4.89065 10.9087 5.1033ZM5.62888 5.81152H7.08658C7.4891 5.81152 7.81541 6.13783 7.81541 6.54037V7.99806C7.81541 8.40059 7.4891 8.72691 7.08658 8.72691H5.62888C5.22634 8.72691 4.90002 8.40059 4.90002 7.99806V6.54037C4.90002 6.13783 5.22634 5.81152 5.62888 5.81152ZM5.62888 10.1022H7.08658C7.4891 10.1022 7.81541 10.4285 7.81541 10.8311V12.2888C7.81541 12.6913 7.4891 13.0176 7.08658 13.0176H5.62888C5.22634 13.0176 4.90002 12.6913 4.90002 12.2888V10.8311C4.90002 10.4285 5.22634 10.1022 5.62888 10.1022ZM9.63753 10.1846H11.0952C11.4978 10.1846 11.8241 10.5109 11.8241 10.9135V12.3711C11.8241 12.7737 11.4978 13.1 11.0952 13.1H9.63753C9.23501 13.1 8.9087 12.7737 8.9087 12.3711V10.9135C8.9087 10.5109 9.23501 10.1846 9.63753 10.1846Z" fill="url(#paint1_linear_274_50)"/>
</g>
<defs>
<linearGradient id="paint0_linear_274_50" x1="2.4" y1="16.005" x2="8.80811" y2="-0.818382" gradientUnits="userSpaceOnUse">
<stop stop-color="#22B4FA"/>
<stop offset="1" stop-color="#6BD6FE"/>
</linearGradient>
<linearGradient id="paint1_linear_274_50" x1="4.90002" y1="13.1" x2="14.2559" y2="10.8091" gradientUnits="userSpaceOnUse">
<stop stop-color="#6BD6FE"/>
<stop offset="1" stop-color="white"/>
</linearGradient>
<clipPath id="clip0_274_50">
<rect width="16" height="16" fill="white"/>
</clipPath>
</defs>
</svg>
