<svg width="16" height="16" viewBox="0 0 16 16" fill="none" xmlns="http://www.w3.org/2000/svg">
<g clip-path="url(#clip0_58_1005)">
<path fill-rule="evenodd" clip-rule="evenodd" d="M5 0H10.18C10.97 0 11.728 0.314 12.287 0.872C12.817 1.403 13.597 2.183 14.128 2.713C14.686 3.272 15 4.03 15 4.82V13.021C15 13.811 14.686 14.569 14.128 15.128C13.569 15.686 12.811 16 12.021 16C9.796 16 6.204 16 3.979 16C3.189 16 2.431 15.686 1.872 15.128C1.314 14.569 1 13.811 1 13.021V4C1 3.448 1.448 3 2 3C3.104 3 4 2.104 4 1C4 0.448 4.448 0 5 0ZM3 1C3 1.552 2.552 2 2 2C1.448 2 1 1.552 1 1C1 0.448 1.448 0 2 0C2.552 0 3 0.448 3 1Z" fill="url(#paint0_linear_58_1005)"/>
<path fill-rule="evenodd" clip-rule="evenodd" d="M7.21429 10.9643H11.9285C12.3622 10.9643 12.7142 10.6123 12.7142 10.1786C12.7142 9.74488 12.3622 9.39288 11.9285 9.39288H7.21429C6.78058 9.39288 6.42859 9.74488 6.42859 10.1786C6.42859 10.6123 6.78058 10.9643 7.21429 10.9643Z" fill="#344CD8"/>
<path fill-rule="evenodd" clip-rule="evenodd" d="M3.2857 10.9643H4.85711C5.29082 10.9643 5.64281 10.6123 5.64281 10.1786C5.64281 9.74488 5.29082 9.39288 4.85711 9.39288H3.2857C2.852 9.39288 2.5 9.74488 2.5 10.1786C2.5 10.6123 2.852 10.9643 3.2857 10.9643Z" fill="#344CD8"/>
<path fill-rule="evenodd" clip-rule="evenodd" d="M7.99998 10.5714H12.7142C13.1475 10.5714 13.5 10.2194 13.5 9.7857C13.5 9.352 13.1475 9 12.7142 9H7.99998C7.56661 9 7.21411 9.352 7.21411 9.7857C7.21411 10.2194 7.56661 10.5714 7.99998 10.5714Z" fill="url(#paint1_linear_58_1005)"/>
<path fill-rule="evenodd" clip-rule="evenodd" d="M4.07147 10.5714H5.64287C6.07647 10.5714 6.42858 10.2194 6.42858 9.7857C6.42858 9.352 6.07647 9 5.64287 9H4.07147C3.63787 9 3.28577 9.352 3.28577 9.7857C3.28577 10.2194 3.63787 10.5714 4.07147 10.5714Z" fill="url(#paint2_linear_58_1005)"/>
<path fill-rule="evenodd" clip-rule="evenodd" d="M3.2857 13.3215H7.99989C8.4336 13.3215 8.78559 12.9695 8.78559 12.5358C8.78559 12.1021 8.4336 11.7501 7.99989 11.7501H3.2857C2.852 11.7501 2.5 12.1021 2.5 12.5358C2.5 12.9695 2.852 13.3215 3.2857 13.3215Z" fill="#344CD8"/>
<path fill-rule="evenodd" clip-rule="evenodd" d="M10.3571 13.3215H11.9285C12.3622 13.3215 12.7142 12.9695 12.7142 12.5358C12.7142 12.1021 12.3622 11.7501 11.9285 11.7501H10.3571C9.92341 11.7501 9.57141 12.1021 9.57141 12.5358C9.57141 12.9695 9.92341 13.3215 10.3571 13.3215Z" fill="#344CD8"/>
<path fill-rule="evenodd" clip-rule="evenodd" d="M4.07139 12.9285H8.78557C9.21895 12.9285 9.57145 12.5765 9.57145 12.1428C9.57145 11.7091 9.21895 11.3571 8.78557 11.3571H4.07139C3.63802 11.3571 3.28552 11.7091 3.28552 12.1428C3.28552 12.5765 3.63802 12.9285 4.07139 12.9285Z" fill="url(#paint3_linear_58_1005)"/>
<path fill-rule="evenodd" clip-rule="evenodd" d="M11.1428 12.9285H12.7142C13.1478 12.9285 13.4999 12.5765 13.4999 12.1428C13.4999 11.7091 13.1478 11.3571 12.7142 11.3571H11.1428C10.7092 11.3571 10.3571 11.7091 10.3571 12.1428C10.3571 12.5765 10.7092 12.9285 11.1428 12.9285Z" fill="url(#paint4_linear_58_1005)"/>
<path d="M6.70142 5.12129C6.77713 5.34514 6.58674 5.55206 6.35043 5.55206H6.07712C5.90926 5.55206 5.77607 5.42203 5.70099 5.27189V5.27189C5.65934 5.18857 5.60424 5.11735 5.53571 5.05823C5.46718 4.9991 5.38588 4.95408 5.29181 4.92318C5.19909 4.89092 5.09629 4.8748 4.98342 4.8748C4.78319 4.8748 4.61052 4.92385 4.46539 5.02194C4.32161 5.12004 4.21074 5.26181 4.13281 5.44725C4.05621 5.63269 4.01791 5.8571 4.01791 6.12048C4.01791 6.39461 4.05688 6.6244 4.13482 6.80984C4.2141 6.99394 4.32497 7.13302 4.46741 7.22708C4.61119 7.3198 4.78118 7.36616 4.97737 7.36616C5.08756 7.36616 5.18767 7.35205 5.2777 7.32384C5.36908 7.29562 5.44904 7.25463 5.51757 7.20088C5.58744 7.14578 5.64456 7.07927 5.6889 7.00133V7.00133C5.7713 6.85835 5.9044 6.73397 6.06942 6.73496L6.35406 6.73667C6.58906 6.73808 6.77453 6.94457 6.68558 7.16207C6.66952 7.20134 6.65174 7.24048 6.63223 7.27949C6.54489 7.45687 6.42462 7.61879 6.27143 7.76527C6.11824 7.91039 5.93145 8.02596 5.71107 8.11196C5.49204 8.19796 5.24075 8.24096 4.95721 8.24096C4.58364 8.24096 4.24904 8.15899 3.95341 7.99505C3.65912 7.82977 3.42665 7.58923 3.25599 7.27344C3.08533 6.95766 3 6.57334 3 6.12048C3 5.66628 3.08667 5.28129 3.26002 4.9655C3.43337 4.64972 3.66786 4.40985 3.96349 4.24591C4.25912 4.08197 4.59036 4 4.95721 4C5.20716 4 5.43829 4.03494 5.6506 4.10481C5.86292 4.17335 6.0497 4.27413 6.21096 4.40716C6.37221 4.53886 6.50323 4.70078 6.60401 4.89294C6.64189 4.96517 6.67436 5.04128 6.70142 5.12129Z" fill="#344CD8"/>
<path d="M7.91569 5.06024C7.99006 5.06024 8.06137 5.08979 8.11396 5.14236C8.16654 5.19495 8.19609 5.26628 8.19609 5.34063V5.80796H8.66341C8.73778 5.80796 8.80909 5.83751 8.86168 5.89008C8.91427 5.94267 8.9438 6.01398 8.9438 6.08835C8.9438 6.16273 8.91427 6.23404 8.86168 6.28663C8.80909 6.3392 8.73778 6.36875 8.66341 6.36875H8.19609V6.83607C8.19609 6.91043 8.16654 6.98176 8.11396 7.03435C8.06137 7.08692 7.99006 7.11647 7.91569 7.11647C7.84133 7.11647 7.77 7.08692 7.71743 7.03435C7.66484 6.98176 7.63529 6.91043 7.63529 6.83607V6.36875H7.16796C7.09361 6.36875 7.02228 6.3392 6.96971 6.28663C6.91712 6.23404 6.88757 6.16273 6.88757 6.08835C6.88757 6.01398 6.91712 5.94267 6.96971 5.89008C7.02228 5.83751 7.09361 5.80796 7.16796 5.80796H7.63529V5.34063C7.63529 5.26628 7.66484 5.19495 7.71743 5.14236C7.77 5.08979 7.84133 5.06024 7.91569 5.06024Z" fill="#344CD8"/>
<path d="M9.97184 5.06024C10.0462 5.06024 10.1175 5.08979 10.1701 5.14236C10.2227 5.19495 10.2522 5.26628 10.2522 5.34063V5.80796H10.7196C10.7939 5.80796 10.8652 5.83751 10.9178 5.89008C10.9704 5.94267 11 6.01398 11 6.08835C11 6.16273 10.9704 6.23404 10.9178 6.28663C10.8652 6.3392 10.7939 6.36875 10.7196 6.36875H10.2522V6.83607C10.2522 6.91043 10.2227 6.98176 10.1701 7.03435C10.1175 7.08692 10.0462 7.11647 9.97184 7.11647C9.89748 7.11647 9.82615 7.08692 9.77358 7.03435C9.72099 6.98176 9.69145 6.91043 9.69145 6.83607V6.36875H9.22412C9.14976 6.36875 9.07843 6.3392 9.02586 6.28663C8.97327 6.23404 8.94373 6.16273 8.94373 6.08835C8.94373 6.01398 8.97327 5.94267 9.02586 5.89008C9.07843 5.83751 9.14976 5.80796 9.22412 5.80796H9.69145V5.34063C9.69145 5.26628 9.72099 5.19495 9.77358 5.14236C9.82615 5.08979 9.89748 5.06024 9.97184 5.06024Z" fill="#344CD8"/>
<path d="M7.70142 4.12129C7.77713 4.34514 7.58674 4.55206 7.35043 4.55206H7.07712C6.90926 4.55206 6.77607 4.42203 6.70099 4.27189V4.27189C6.65934 4.18857 6.60424 4.11735 6.53571 4.05823C6.46718 3.9991 6.38588 3.95408 6.29181 3.92318C6.19909 3.89092 6.09629 3.8748 5.98342 3.8748C5.78319 3.8748 5.61052 3.92385 5.46539 4.02194C5.32161 4.12004 5.21074 4.26181 5.13281 4.44725C5.05621 4.63269 5.01791 4.8571 5.01791 5.12048C5.01791 5.39461 5.05688 5.6244 5.13482 5.80984C5.2141 5.99394 5.32497 6.13302 5.46741 6.22708C5.61119 6.3198 5.78118 6.36616 5.97737 6.36616C6.08756 6.36616 6.18767 6.35205 6.2777 6.32384C6.36908 6.29562 6.44904 6.25463 6.51757 6.20088C6.58744 6.14578 6.64456 6.07927 6.6889 6.00133V6.00133C6.7713 5.85835 6.9044 5.73397 7.06942 5.73496L7.35406 5.73667C7.58906 5.73808 7.77453 5.94457 7.68558 6.16207C7.66952 6.20134 7.65174 6.24048 7.63223 6.27949C7.54489 6.45687 7.42462 6.61879 7.27143 6.76527C7.11824 6.91039 6.93145 7.02596 6.71107 7.11196C6.49204 7.19796 6.24075 7.24096 5.95721 7.24096C5.58364 7.24096 5.24904 7.15899 4.95341 6.99505C4.65912 6.82977 4.42665 6.58923 4.25599 6.27344C4.08533 5.95766 4 5.57334 4 5.12048C4 4.66628 4.08667 4.28129 4.26002 3.9655C4.43337 3.64972 4.66786 3.40985 4.96349 3.24591C5.25912 3.08197 5.59036 3 5.95721 3C6.20716 3 6.43829 3.03494 6.6506 3.10481C6.86292 3.17335 7.0497 3.27413 7.21096 3.40716C7.37221 3.53886 7.50323 3.70078 7.60401 3.89294C7.64189 3.96517 7.67436 4.04128 7.70142 4.12129Z" fill="url(#paint5_linear_58_1005)"/>
<path d="M8.91569 4.06024C8.99006 4.06024 9.06137 4.08979 9.11396 4.14236C9.16654 4.19495 9.19609 4.26628 9.19609 4.34063V4.80796H9.66341C9.73778 4.80796 9.80909 4.83751 9.86168 4.89008C9.91427 4.94267 9.9438 5.01398 9.9438 5.08835C9.9438 5.16273 9.91427 5.23404 9.86168 5.28663C9.80909 5.3392 9.73778 5.36875 9.66341 5.36875H9.19609V5.83607C9.19609 5.91043 9.16654 5.98176 9.11396 6.03435C9.06137 6.08692 8.99006 6.11647 8.91569 6.11647C8.84133 6.11647 8.77 6.08692 8.71743 6.03435C8.66484 5.98176 8.63529 5.91043 8.63529 5.83607V5.36875H8.16796C8.09361 5.36875 8.02228 5.3392 7.96971 5.28663C7.91712 5.23404 7.88757 5.16273 7.88757 5.08835C7.88757 5.01398 7.91712 4.94267 7.96971 4.89008C8.02228 4.83751 8.09361 4.80796 8.16796 4.80796H8.63529V4.34063C8.63529 4.26628 8.66484 4.19495 8.71743 4.14236C8.77 4.08979 8.84133 4.06024 8.91569 4.06024Z" fill="url(#paint6_linear_58_1005)"/>
<path d="M10.9718 4.06024C11.0462 4.06024 11.1175 4.08979 11.1701 4.14236C11.2227 4.19495 11.2522 4.26628 11.2522 4.34063V4.80796H11.7196C11.7939 4.80796 11.8652 4.83751 11.9178 4.89008C11.9704 4.94267 12 5.01398 12 5.08835C12 5.16273 11.9704 5.23404 11.9178 5.28663C11.8652 5.3392 11.7939 5.36875 11.7196 5.36875H11.2522V5.83607C11.2522 5.91043 11.2227 5.98176 11.1701 6.03435C11.1175 6.08692 11.0462 6.11647 10.9718 6.11647C10.8975 6.11647 10.8262 6.08692 10.7736 6.03435C10.721 5.98176 10.6914 5.91043 10.6914 5.83607V5.36875H10.2241C10.1498 5.36875 10.0784 5.3392 10.0259 5.28663C9.97327 5.23404 9.94373 5.16273 9.94373 5.08835C9.94373 5.01398 9.97327 4.94267 10.0259 4.89008C10.0784 4.83751 10.1498 4.80796 10.2241 4.80796H10.6914V4.34063C10.6914 4.26628 10.721 4.19495 10.7736 4.14236C10.8262 4.08979 10.8975 4.06024 10.9718 4.06024Z" fill="url(#paint7_linear_58_1005)"/>
</g>
<defs>
<linearGradient id="paint0_linear_58_1005" x1="1.875" y1="16.0086" x2="18.534" y2="5.74425" gradientUnits="userSpaceOnUse">
<stop stop-color="#2E4AFA"/>
<stop offset="1" stop-color="#8E9EFF"/>
</linearGradient>
<linearGradient id="paint1_linear_58_1005" x1="7.21406" y1="10.5714" x2="13.1156" y2="9.96608" gradientUnits="userSpaceOnUse">
<stop stop-color="#8E9EFF"/>
<stop offset="1" stop-color="white"/>
</linearGradient>
<linearGradient id="paint2_linear_58_1005" x1="3.28574" y1="10.5714" x2="6.25961" y2="10.4189" gradientUnits="userSpaceOnUse">
<stop stop-color="#8E9EFF"/>
<stop offset="1" stop-color="white"/>
</linearGradient>
<linearGradient id="paint3_linear_58_1005" x1="3.28547" y1="12.9285" x2="9.18705" y2="12.3232" gradientUnits="userSpaceOnUse">
<stop stop-color="#8E9EFF"/>
<stop offset="1" stop-color="white"/>
</linearGradient>
<linearGradient id="paint4_linear_58_1005" x1="10.357" y1="12.9285" x2="13.3309" y2="12.776" gradientUnits="userSpaceOnUse">
<stop stop-color="#8E9EFF"/>
<stop offset="1" stop-color="white"/>
</linearGradient>
<linearGradient id="paint5_linear_58_1005" x1="3.99997" y1="7.24096" x2="7.59518" y2="7.15855" gradientUnits="userSpaceOnUse">
<stop stop-color="#8E9EFF"/>
<stop offset="1" stop-color="white"/>
</linearGradient>
<linearGradient id="paint6_linear_58_1005" x1="7.88756" y1="6.11647" x2="9.83708" y2="6.06648" gradientUnits="userSpaceOnUse">
<stop stop-color="#8E9EFF"/>
<stop offset="1" stop-color="white"/>
</linearGradient>
<linearGradient id="paint7_linear_58_1005" x1="9.94371" y1="6.11647" x2="11.8932" y2="6.06648" gradientUnits="userSpaceOnUse">
<stop stop-color="#8E9EFF"/>
<stop offset="1" stop-color="white"/>
</linearGradient>
<clipPath id="clip0_58_1005">
<rect width="16" height="16" fill="white"/>
</clipPath>
</defs>
</svg>
