<svg width="16" height="16" viewBox="0 0 16 16" fill="none" xmlns="http://www.w3.org/2000/svg">
<g clip-path="url(#clip0_58_865)">
<path fill-rule="evenodd" clip-rule="evenodd" d="M5 0H10.18C10.97 0 11.728 0.314 12.287 0.872C12.817 1.403 13.597 2.183 14.128 2.713C14.686 3.272 15 4.03 15 4.82V13.021C15 13.811 14.686 14.569 14.128 15.128C13.569 15.686 12.811 16 12.021 16C9.796 16 6.204 16 3.979 16C3.189 16 2.431 15.686 1.872 15.128C1.314 14.569 1 13.811 1 13.021V4C1 3.448 1.448 3 2 3C3.104 3 4 2.104 4 1C4 0.448 4.448 0 5 0ZM3 1C3 1.552 2.552 2 2 2C1.448 2 1 1.552 1 1C1 0.448 1.448 0 2 0C2.552 0 3 0.448 3 1Z" fill="url(#paint0_linear_58_865)"/>
<path fill-rule="evenodd" clip-rule="evenodd" d="M7.57501 3.40002C6.83451 3.40002 6.18373 3.89092 5.98029 4.60293L5.30344 6.97192C5.2959 6.9983 5.28633 7.0067 5.28125 7.01069C5.27301 7.01718 5.25821 7.02441 5.2379 7.0263C5.21756 7.02819 5.20169 7.02381 5.19239 7.01895C5.18667 7.01597 5.17572 7.00948 5.16345 6.98494C4.92591 6.50986 4.44036 6.20979 3.90923 6.20979H3.66341C3.29703 6.20979 3 6.5068 3 6.8732C3 7.23959 3.29703 7.53662 3.66341 7.53662H3.90923C3.93779 7.53662 3.96391 7.55275 3.9767 7.57831C4.54861 8.72215 6.22788 8.5661 6.57921 7.33643L7.25607 4.96744C7.29676 4.82504 7.42692 4.72685 7.57501 4.72685H9.28294C9.64933 4.72685 9.94635 4.42983 9.94635 4.06344C9.94635 3.69705 9.64933 3.40002 9.28294 3.40002H7.57501ZM8.69837 6.35531C8.43929 6.09623 8.01925 6.09623 7.76017 6.35531C7.50109 6.61439 7.50109 7.03444 7.76017 7.29352L8.22744 7.7608C8.29221 7.82557 8.29221 7.93058 8.22744 7.99535L7.76017 8.46263C7.50109 8.72171 7.50109 9.14176 7.76017 9.40084C8.01925 9.65992 8.43929 9.65992 8.69837 9.40084L9.16565 8.93357C9.23043 8.86879 9.33543 8.86879 9.40021 8.93357L9.86749 9.40084C10.1266 9.65992 10.5466 9.65992 10.8057 9.40084C11.0648 9.14176 11.0648 8.72171 10.8057 8.46263L10.3384 7.99535C10.2736 7.93058 10.2736 7.82557 10.3384 7.7608L10.8057 7.29352C11.0648 7.03444 11.0648 6.61439 10.8057 6.35531C10.5466 6.09623 10.1266 6.09623 9.86749 6.35531L9.40021 6.82258C9.33543 6.88736 9.23043 6.88736 9.16565 6.82258L8.69837 6.35531Z" fill="#D84F4F"/>
<path fill-rule="evenodd" clip-rule="evenodd" d="M8.57501 2.40002C7.83451 2.40002 7.18373 2.89092 6.98029 3.60293L6.30344 5.97192C6.2959 5.9983 6.28633 6.0067 6.28125 6.01069C6.27301 6.01718 6.25821 6.02441 6.2379 6.0263C6.21756 6.02819 6.20169 6.02381 6.19239 6.01895C6.18667 6.01597 6.17572 6.00948 6.16345 5.98494C5.92591 5.50986 5.44036 5.20979 4.90923 5.20979H4.66341C4.29703 5.20979 4 5.5068 4 5.8732C4 6.23959 4.29703 6.53662 4.66341 6.53662H4.90923C4.93779 6.53662 4.96391 6.55275 4.9767 6.57831C5.54861 7.72215 7.22788 7.5661 7.57921 6.33643L8.25607 3.96744C8.29676 3.82504 8.42692 3.72685 8.57501 3.72685H10.2829C10.6493 3.72685 10.9464 3.42983 10.9464 3.06344C10.9464 2.69705 10.6493 2.40002 10.2829 2.40002H8.57501ZM9.69837 5.35531C9.43929 5.09623 9.01925 5.09623 8.76017 5.35531C8.50109 5.61439 8.50109 6.03444 8.76017 6.29352L9.22744 6.7608C9.29221 6.82557 9.29221 6.93058 9.22744 6.99535L8.76017 7.46263C8.50109 7.72171 8.50109 8.14176 8.76017 8.40084C9.01925 8.65992 9.43929 8.65992 9.69837 8.40084L10.1656 7.93357C10.2304 7.86879 10.3354 7.86879 10.4002 7.93357L10.8675 8.40084C11.1266 8.65992 11.5466 8.65992 11.8057 8.40084C12.0648 8.14176 12.0648 7.72171 11.8057 7.46263L11.3384 6.99535C11.2736 6.93058 11.2736 6.82557 11.3384 6.7608L11.8057 6.29352C12.0648 6.03444 12.0648 5.61439 11.8057 5.35531C11.5466 5.09623 11.1266 5.09623 10.8675 5.35531L10.4002 5.82258C10.3354 5.88736 10.2304 5.88736 10.1656 5.82258L9.69837 5.35531Z" fill="url(#paint1_linear_58_865)"/>
<path fill-rule="evenodd" clip-rule="evenodd" d="M8.41208 10.4545H5.44238C5.03256 10.4545 4.69995 10.7871 4.69995 11.197C4.69995 11.6068 5.03256 11.9394 5.44238 11.9394H8.41208C8.8219 11.9394 9.15451 11.6068 9.15451 11.197C9.15451 10.7871 8.8219 10.4545 8.41208 10.4545Z" fill="#D84F4F"/>
<path fill-rule="evenodd" clip-rule="evenodd" d="M10.1091 13.3182H5.44238C5.03256 13.3182 4.69995 13.6508 4.69995 14.0606C4.69995 14.4704 5.03256 14.803 5.44238 14.803H10.1091C10.5189 14.803 10.8515 14.4704 10.8515 14.0606C10.8515 13.6508 10.5189 13.3182 10.1091 13.3182Z" fill="#D84F4F"/>
<path fill-rule="evenodd" clip-rule="evenodd" d="M9.26059 9.5H6.29089C5.88107 9.5 5.54846 9.83261 5.54846 10.2424C5.54846 10.6522 5.88107 10.9849 6.29089 10.9849H9.26059C9.67041 10.9849 10.003 10.6522 10.003 10.2424C10.003 9.83261 9.67041 9.5 9.26059 9.5Z" fill="url(#paint2_linear_58_865)"/>
<path fill-rule="evenodd" clip-rule="evenodd" d="M10.9576 12.3637H6.29089C5.88107 12.3637 5.54846 12.6963 5.54846 13.1061C5.54846 13.516 5.88107 13.8486 6.29089 13.8486H10.9576C11.3674 13.8486 11.7 13.516 11.7 13.1061C11.7 12.6963 11.3674 12.3637 10.9576 12.3637Z" fill="url(#paint3_linear_58_865)"/>
</g>
<defs>
<linearGradient id="paint0_linear_58_865" x1="3.625" y1="14" x2="13.7796" y2="3.33769" gradientUnits="userSpaceOnUse">
<stop stop-color="#FF405B"/>
<stop offset="1" stop-color="#FF8860"/>
</linearGradient>
<linearGradient id="paint1_linear_58_865" x1="6.28482" y1="8.59502" x2="7.95067" y2="3.47332" gradientUnits="userSpaceOnUse">
<stop stop-color="#FF8860"/>
<stop offset="1" stop-color="white"/>
</linearGradient>
<linearGradient id="paint2_linear_58_865" x1="6.82069" y1="10.9848" x2="7.00709" y2="9.65348" gradientUnits="userSpaceOnUse">
<stop stop-color="#FF8860"/>
<stop offset="1" stop-color="white"/>
</linearGradient>
<linearGradient id="paint3_linear_58_865" x1="7.30535" y1="13.8485" x2="7.44157" y2="12.5049" gradientUnits="userSpaceOnUse">
<stop stop-color="#FF8860"/>
<stop offset="1" stop-color="white"/>
</linearGradient>
<clipPath id="clip0_58_865">
<rect width="16" height="16" fill="white"/>
</clipPath>
</defs>
</svg>
