<svg width="16" height="16" viewBox="0 0 16 16" fill="none" xmlns="http://www.w3.org/2000/svg">
<path fill-rule="evenodd" clip-rule="evenodd" d="M0 15C0 14.448 0.448 14 1 14C1.552 14 2 14.448 2 15C2 15.552 1.552 16 1 16C0.448 16 0 15.552 0 15ZM3 15C3 13.896 2.104 13 1 13C0.448 13 0 12.552 0 12C0 12 0 7.216 0 3.958C0 1.772 1.772 0 3.9581 0H12.042C14.228 0 16 1.772 16 3.958V12.0419C16 14.228 14.228 16 12.042 16C8.784 16 4 16 4 16C3.448 16 3 15.552 3 15Z" fill="url(#paint0_linear_242_2)"/>
<path fill-rule="evenodd" clip-rule="evenodd" d="M5.53776 9.66672L5.16587 9.29486C4.67089 8.79987 3.86623 8.79987 3.37124 9.29486C2.87625 9.78984 2.87625 10.5945 3.37124 11.0895L5.90964 13.6278C6.40463 14.1241 7.20928 14.1241 7.70426 13.6278L10.2427 11.0895C10.7377 10.5945 10.7377 9.78984 10.2427 9.29486C9.74767 8.79987 8.94301 8.79987 8.44803 9.29486L8.07614 9.66672V4.53842C8.07614 3.83783 7.50755 3.26923 6.80695 3.26923C6.10635 3.26923 5.53776 3.83783 5.53776 4.53842V9.66672Z" fill="#279FD7"/>
<path fill-rule="evenodd" clip-rule="evenodd" d="M6.80703 7.87159C6.80703 8.06566 6.5724 8.16285 6.43517 8.02562V8.02562C5.94018 7.53064 5.13552 7.53064 4.64053 8.02562C4.14554 8.52061 4.14554 9.32528 4.64053 9.82026L7.17891 12.3587C7.6739 12.8549 8.47858 12.8549 8.97357 12.3587L11.512 9.82026C12.0069 9.32528 12.0069 8.52061 11.512 8.02562C11.0169 7.53064 10.2123 7.53064 9.71731 8.02562V8.02562C9.58008 8.16285 9.34543 8.06565 9.34543 7.87158V3.2692C9.34543 2.5686 8.77683 2 8.07623 2C7.37564 2 6.80703 2.5686 6.80703 3.2692V7.87159Z" fill="url(#paint1_linear_242_2)"/>
<defs>
<linearGradient id="paint0_linear_242_2" x1="1.6" y1="16.005" x2="7.3787" y2="-1.33327" gradientUnits="userSpaceOnUse">
<stop offset="0.190745" stop-color="#22B4FA"/>
<stop offset="0.896724" stop-color="#7DDCFF"/>
</linearGradient>
<linearGradient id="paint1_linear_242_2" x1="4.26929" y1="12.7308" x2="13.4963" y2="11.0941" gradientUnits="userSpaceOnUse">
<stop stop-color="#6BD6FE"/>
<stop offset="1" stop-color="white"/>
</linearGradient>
</defs>
</svg>
