<svg width="16" height="16" viewBox="0 0 16 16" fill="none" xmlns="http://www.w3.org/2000/svg">
<g clip-path="url(#clip0_8_213)">
<path fill-rule="evenodd" clip-rule="evenodd" d="M2.63333 14.9333C2.63333 15.5221 2.15547 16 1.56667 16C0.977867 16 0.5 15.5221 0.5 14.9333C0.5 14.3445 0.977867 13.8667 1.56667 13.8667C2.15547 13.8667 2.63333 14.3445 2.63333 14.9333ZM3.75333 0H12.18C13.9795 0.0192 15.4333 1.48373 15.4333 3.28853V12.7115C15.4333 13.584 15.0867 14.4203 14.4701 15.0368C13.8536 15.6533 13.0173 16 12.1448 16H4.76667C4.17787 16 3.7 15.5221 3.7 14.9333C3.7 13.7557 2.74427 12.8 1.56667 12.8C0.977867 12.8 0.5 12.3221 0.5 11.7333V3.28853C0.5 1.48373 1.95387 0.0192 3.75333 0Z" fill="url(#paint0_linear_8_213)"/>
<path d="M8.08855 3.35221H5.95522C5.36642 3.35221 4.88855 2.87434 4.88855 2.28554C4.88855 1.69674 5.36642 1.21887 5.95522 1.21887H8.08855C8.67735 1.21887 9.15522 1.69674 9.15522 2.28554C9.15522 2.87434 8.67735 3.35221 8.08855 3.35221Z" fill="#D84F4F"/>
<path d="M8.27141 7.77133H6.13808C5.54928 7.77133 5.07141 7.29347 5.07141 6.70467C5.07141 6.11587 5.54928 5.638 6.13808 5.638H8.27141C8.86021 5.638 9.33808 6.11587 9.33808 6.70467C9.33808 7.29347 8.86021 7.77133 8.27141 7.77133Z" fill="#D84F4F"/>
<path d="M8.27141 12.3429H6.13808C5.54928 12.3429 5.07141 11.865 5.07141 11.2762C5.07141 10.6874 5.54928 10.2095 6.13808 10.2095H8.27141C8.86021 10.2095 9.33808 10.6874 9.33808 11.2762C9.33808 11.865 8.86021 12.3429 8.27141 12.3429Z" fill="#D84F4F"/>
<path fill-rule="evenodd" clip-rule="evenodd" d="M7.02187 2.28556H9.1552C9.744 2.28556 10.2219 1.80769 10.2219 1.21889C10.2219 0.630088 9.744 0.152222 9.1552 0.152222H7.02187C6.43307 0.152222 5.9552 0.630088 5.9552 1.21889C5.9552 1.80769 6.43307 2.28556 7.02187 2.28556Z" fill="url(#paint1_linear_8_213)"/>
<path fill-rule="evenodd" clip-rule="evenodd" d="M7.20473 6.70474H9.33806C9.92686 6.70474 10.4047 6.22688 10.4047 5.63808C10.4047 5.04928 9.92686 4.57141 9.33806 4.57141H7.20473C6.61593 4.57141 6.13806 5.04928 6.13806 5.63808C6.13806 6.22688 6.61593 6.70474 7.20473 6.70474Z" fill="url(#paint2_linear_8_213)"/>
<path fill-rule="evenodd" clip-rule="evenodd" d="M7.20473 11.2762H9.33806C9.92686 11.2762 10.4047 10.7984 10.4047 10.2096C10.4047 9.62075 9.92686 9.14288 9.33806 9.14288H7.20473C6.61593 9.14288 6.13806 9.62075 6.13806 10.2096C6.13806 10.7984 6.61593 11.2762 7.20473 11.2762Z" fill="url(#paint3_linear_8_213)"/>
</g>
<defs>
<linearGradient id="paint0_linear_8_213" x1="3.3" y1="14" x2="13.4017" y2="2.68607" gradientUnits="userSpaceOnUse">
<stop stop-color="#FF405B"/>
<stop offset="1" stop-color="#FF8860"/>
</linearGradient>
<linearGradient id="paint1_linear_8_213" x1="7.17377" y1="2.28551" x2="7.56604" y2="0.417617" gradientUnits="userSpaceOnUse">
<stop stop-color="#FF8860"/>
<stop offset="1" stop-color="white"/>
</linearGradient>
<linearGradient id="paint2_linear_8_213" x1="7.35663" y1="6.7047" x2="7.7489" y2="4.83681" gradientUnits="userSpaceOnUse">
<stop stop-color="#FF8860"/>
<stop offset="1" stop-color="white"/>
</linearGradient>
<linearGradient id="paint3_linear_8_213" x1="7.35663" y1="11.2762" x2="7.7489" y2="9.40828" gradientUnits="userSpaceOnUse">
<stop stop-color="#FF8860"/>
<stop offset="1" stop-color="white"/>
</linearGradient>
<clipPath id="clip0_8_213">
<rect width="16" height="16" fill="white"/>
</clipPath>
</defs>
</svg>
