<svg width="16" height="16" viewBox="0 0 16 16" fill="none" xmlns="http://www.w3.org/2000/svg">
<g clip-path="url(#clip0_62_294)">
<path fill-rule="evenodd" clip-rule="evenodd" d="M1 13C0.448 13 0 12.552 0 12V3.992C0 1.787 1.787 0 3.992 0C6.357 0 9.643 0 12.008 0C13.067 0 14.082 0.421001 14.831 1.169C15.579 1.918 16 2.933 16 3.992C16 6.357 16 9.643 16 12.008C16 14.213 14.213 16 12.008 16C8.751 16 4 16 4 16C3.448 16 3 15.552 3 15C3 13.896 2.104 13 1 13ZM1 14C1.552 14 2 14.448 2 15C2 15.552 1.552 16 1 16C0.448 16 0 15.552 0 15C0 14.448 0.448 14 1 14Z" fill="url(#paint0_linear_62_294)"/>
<path fill-rule="evenodd" clip-rule="evenodd" d="M2.77908 6.16492C3.01617 5.11049 3.82125 4.44051 4.97205 4.34493V3.98548C4.97205 3.76498 5.13506 3.59998 5.35241 3.59998C5.56975 3.59998 5.73276 3.76498 5.73276 3.98548V4.34491H8.66711V3.98548C8.66711 3.76498 8.83011 3.59998 9.04746 3.59998C9.25987 3.59998 9.42781 3.76498 9.42781 3.98548V4.34491H9.42786C10.5689 4.44541 11.384 5.11991 11.6211 6.16492C11.667 6.34742 11.6917 6.93442 11.6981 7.22842H2.70154C2.70796 6.93492 2.73266 6.35242 2.77908 6.16492ZM2.69995 7.22845V11.035C2.69995 12.615 3.69776 13.6 5.26363 13.6H9.13138C10.7121 13.6 11.7 12.635 11.7 11.0655V7.22845H2.69995ZM4.75483 9.40551C4.7647 9.63501 4.95242 9.81551 5.17965 9.80501C5.40192 9.79551 5.57975 9.60551 5.56987 9.37501C5.56494 9.15051 5.38216 8.97501 5.15989 8.97501C4.93266 8.98551 4.75483 9.17551 4.75483 9.40551ZM6.78505 9.40551C6.79494 9.63501 6.98264 9.81551 7.20987 9.80501C7.43214 9.79551 7.60998 9.60551 7.6001 9.37501C7.59516 9.15051 7.41238 8.97501 7.19011 8.97501C6.96288 8.98551 6.78505 9.17551 6.78505 9.40551ZM8.81526 11.22C8.81526 11.45 8.99801 11.64 9.22524 11.645C9.45741 11.645 9.64511 11.455 9.64511 11.22C9.64511 10.9855 9.45741 10.7955 9.22524 10.7955H9.2203C8.99307 10.8005 8.81032 10.99 8.81526 11.22ZM7.20987 11.62C6.98264 11.6305 6.79494 11.45 6.78505 11.22C6.78505 10.99 6.96288 10.8005 7.19011 10.79C7.41238 10.79 7.59516 10.9655 7.6001 11.1905C7.60998 11.4205 7.43214 11.6105 7.20987 11.62ZM5.17474 11.62C4.94751 11.6305 4.75981 11.45 4.74993 11.22C4.74993 10.99 4.92775 10.8005 5.15498 10.79C5.37727 10.79 5.56003 10.9655 5.56497 11.1905C5.57484 11.4205 5.39703 11.6105 5.17474 11.62ZM9.22523 8.98037C8.99801 8.98537 8.82018 9.17037 8.82018 9.40038V9.40538C8.82512 9.63488 9.01283 9.80988 9.24005 9.80489C9.46233 9.80038 9.64017 9.61038 9.63523 9.38037C9.62535 9.15987 9.44752 8.98037 9.22523 8.98037Z" fill="#D84F4F"/>
<path fill-rule="evenodd" clip-rule="evenodd" d="M3.69995 10.035V6.22845H12.7V10.0655C12.7 11.635 11.7121 12.6 10.1314 12.6H6.26363C4.69776 12.6 3.69995 11.615 3.69995 10.035ZM6.17965 8.80501C5.95242 8.81551 5.7647 8.63501 5.75483 8.40551C5.75483 8.17551 5.93266 7.98551 6.15989 7.97501C6.38216 7.97501 6.56494 8.15051 6.56987 8.37501C6.57975 8.60551 6.40192 8.79551 6.17965 8.80501ZM8.20987 8.80501C7.98264 8.81551 7.79494 8.63501 7.78505 8.40551C7.78505 8.17551 7.96288 7.98551 8.19011 7.97501C8.41238 7.97501 8.59516 8.15051 8.6001 8.37501C8.60998 8.60551 8.43214 8.79551 8.20987 8.80501ZM10.2252 10.645C9.99801 10.64 9.81526 10.45 9.81526 10.22C9.81032 9.98999 9.99307 9.80049 10.2203 9.79549H10.2252C10.4574 9.79549 10.6451 9.98549 10.6451 10.22C10.6451 10.455 10.4574 10.645 10.2252 10.645ZM7.78505 10.22C7.79494 10.45 7.98264 10.6305 8.20987 10.62C8.43214 10.6105 8.60998 10.4205 8.6001 10.1905C8.59516 9.96546 8.41238 9.78996 8.19011 9.78996C7.96288 9.80046 7.78505 9.98996 7.78505 10.22ZM5.74993 10.22C5.75981 10.45 5.94751 10.6305 6.17474 10.62C6.39703 10.6105 6.57484 10.4205 6.56497 10.1905C6.56003 9.96546 6.37727 9.78996 6.15498 9.78996C5.92775 9.80046 5.74993 9.98996 5.74993 10.22ZM9.82018 8.40038C9.82018 8.17037 9.99801 7.98537 10.2252 7.98037C10.4475 7.98037 10.6254 8.15987 10.6352 8.38037C10.6402 8.61038 10.4623 8.80038 10.24 8.80489C10.0128 8.80988 9.82512 8.63488 9.82018 8.40537V8.40038Z" fill="url(#paint1_linear_62_294)"/>
<path opacity="0.4" d="M3.70154 6.22842C3.70796 5.93492 3.73266 5.35242 3.77908 5.16492C4.01619 4.11041 4.82136 3.44041 5.97229 3.34491H10.4279C11.5689 3.44541 12.384 4.11991 12.6211 5.16492C12.667 5.34742 12.6917 5.93442 12.6981 6.22842H3.70154Z" fill="url(#paint2_linear_62_294)"/>
<path d="M6.35241 4.89499C6.56975 4.89499 6.73276 4.73049 6.73276 4.50999V2.98548C6.73276 2.76498 6.56975 2.59998 6.35241 2.59998C6.13506 2.59998 5.97205 2.76498 5.97205 2.98548V4.50999C5.97205 4.73049 6.13506 4.89499 6.35241 4.89499Z" fill="url(#paint3_linear_62_294)"/>
<path d="M10.0475 4.89499C10.2599 4.89499 10.4278 4.73049 10.4278 4.50999V2.98548C10.4278 2.76498 10.2599 2.59998 10.0475 2.59998C9.83012 2.59998 9.66711 2.76498 9.66711 2.98548V4.50999C9.66711 4.73049 9.83012 4.89499 10.0475 4.89499Z" fill="url(#paint4_linear_62_294)"/>
</g>
<defs>
<linearGradient id="paint0_linear_62_294" x1="3" y1="14" x2="13" y2="2" gradientUnits="userSpaceOnUse">
<stop stop-color="#FF405B"/>
<stop offset="1" stop-color="#FF8860"/>
</linearGradient>
<linearGradient id="paint1_linear_62_294" x1="6.27039" y1="12.5999" x2="7.86167" y2="7.24822" gradientUnits="userSpaceOnUse">
<stop stop-color="#FF8860"/>
<stop offset="1" stop-color="white"/>
</linearGradient>
<linearGradient id="paint2_linear_62_294" x1="6.27099" y1="6.22836" x2="6.61954" y2="3.6392" gradientUnits="userSpaceOnUse">
<stop stop-color="#FF8860"/>
<stop offset="1" stop-color="white"/>
</linearGradient>
<linearGradient id="paint3_linear_62_294" x1="6.18931" y1="4.89494" x2="7.20961" y2="4.08973" gradientUnits="userSpaceOnUse">
<stop stop-color="#FF8860"/>
<stop offset="1" stop-color="white"/>
</linearGradient>
<linearGradient id="paint4_linear_62_294" x1="9.88437" y1="4.89494" x2="10.9047" y2="4.08975" gradientUnits="userSpaceOnUse">
<stop stop-color="#FF8860"/>
<stop offset="1" stop-color="white"/>
</linearGradient>
<clipPath id="clip0_62_294">
<rect width="16" height="16" fill="white"/>
</clipPath>
</defs>
</svg>
