<svg width="16" height="16" viewBox="0 0 16 16" fill="none" xmlns="http://www.w3.org/2000/svg">
<g clip-path="url(#clip0_52_504)">
<path fill-rule="evenodd" clip-rule="evenodd" d="M5 0H10.18C10.97 0 11.728 0.314 12.287 0.872C12.817 1.403 13.597 2.183 14.128 2.713C14.686 3.272 15 4.03 15 4.82V13.021C15 13.811 14.686 14.569 14.128 15.128C13.569 15.686 12.811 16 12.021 16C9.796 16 6.204 16 3.979 16C3.189 16 2.431 15.686 1.872 15.128C1.314 14.569 1 13.811 1 13.021V4C1 3.448 1.448 3 2 3C3.104 3 4 2.104 4 1C4 0.448 4.448 0 5 0ZM3 1C3 1.552 2.552 2 2 2C1.448 2 1 1.552 1 1C1 0.448 1.448 0 2 0C2.552 0 3 0.448 3 1Z" fill="url(#paint0_linear_52_504)"/>
<path fill-rule="evenodd" clip-rule="evenodd" d="M8.4122 10.4545H5.4425C5.03268 10.4545 4.70007 10.7871 4.70007 11.197C4.70007 11.6068 5.03268 11.9394 5.4425 11.9394H8.4122C8.82202 11.9394 9.15463 11.6068 9.15463 11.197C9.15463 10.7871 8.82202 10.4545 8.4122 10.4545Z" fill="#D49F34"/>
<path fill-rule="evenodd" clip-rule="evenodd" d="M10.1092 13.3182H5.4425C5.03268 13.3182 4.70007 13.6508 4.70007 14.0606C4.70007 14.4704 5.03268 14.803 5.4425 14.803H10.1092C10.519 14.803 10.8516 14.4704 10.8516 14.0606C10.8516 13.6508 10.519 13.3182 10.1092 13.3182Z" fill="#D49F34"/>
<path fill-rule="evenodd" clip-rule="evenodd" d="M9.26071 9.5H6.29101C5.88119 9.5 5.54858 9.83261 5.54858 10.2424C5.54858 10.6522 5.88119 10.9849 6.29101 10.9849H9.26071C9.67053 10.9849 10.0031 10.6522 10.0031 10.2424C10.0031 9.83261 9.67053 9.5 9.26071 9.5Z" fill="url(#paint1_linear_52_504)"/>
<path fill-rule="evenodd" clip-rule="evenodd" d="M10.9577 12.3637H6.29101C5.88119 12.3637 5.54858 12.6963 5.54858 13.1061C5.54858 13.516 5.88119 13.8486 6.29101 13.8486H10.9577C11.3675 13.8486 11.7001 13.516 11.7001 13.1061C11.7001 12.6963 11.3675 12.3637 10.9577 12.3637Z" fill="url(#paint2_linear_52_504)"/>
<path fill-rule="evenodd" clip-rule="evenodd" d="M7.33646 7.07273H6.14555C5.92464 7.07273 5.74555 7.25181 5.74555 7.47273V8.96364C5.74555 9.18455 5.56647 9.36364 5.34555 9.36364H5.0001C4.77918 9.36364 4.6001 9.18455 4.6001 8.96364V3.4C4.6001 3.17909 4.77918 3 5.0001 3H7.33646C8.3101 3 8.70464 3.18455 9.11828 3.56C9.53192 3.95455 9.69101 4.43818 9.69101 5.05545C9.69101 5.70455 9.52555 6.20091 9.11828 6.55091C8.71101 6.89455 8.29101 7.07273 7.33646 7.07273ZM6.14555 3.89092C5.92463 3.89092 5.74555 4.07001 5.74555 4.29092V5.78182C5.74555 6.00273 5.92463 6.18182 6.14555 6.18182H7.28555C7.71827 6.18182 7.9601 6.06091 8.16373 5.86364C8.36737 5.66636 8.48192 5.41818 8.48192 5.06182C8.48192 4.73092 8.37373 4.49547 8.16373 4.27274C7.95373 4.05001 7.62918 3.89092 7.20918 3.89092H6.14555Z" fill="#D49F34"/>
<path fill-rule="evenodd" clip-rule="evenodd" d="M8.37284 6.37272H7.18193C6.96102 6.37272 6.78193 6.5518 6.78193 6.77272V8.26362C6.78193 8.48454 6.60284 8.66362 6.38193 8.66362H6.03647C5.81556 8.66362 5.63647 8.48454 5.63647 8.26362V2.69999C5.63647 2.47907 5.81556 2.29999 6.03647 2.29999H8.37284C9.34647 2.29999 9.74102 2.48453 10.1547 2.85999C10.5683 3.25453 10.7274 3.73817 10.7274 4.35544C10.7274 5.00453 10.5619 5.5009 10.1547 5.8509C9.74738 6.19453 9.32738 6.37272 8.37284 6.37272ZM7.18192 3.19091C6.96101 3.19091 6.78192 3.37 6.78192 3.59091V5.08181C6.78192 5.30272 6.96101 5.48181 7.18192 5.48181H8.32192C8.75465 5.48181 8.99647 5.3609 9.20011 5.16362C9.40375 4.96635 9.51829 4.71817 9.51829 4.36181C9.51829 4.03091 9.41011 3.79546 9.20011 3.57273C8.99011 3.35 8.66556 3.19091 8.24556 3.19091H7.18192Z" fill="url(#paint3_linear_52_504)" stroke="url(#paint4_linear_52_504)" stroke-width="0.3"/>
</g>
<defs>
<linearGradient id="paint0_linear_52_504" x1="3.625" y1="14.9988" x2="13.7787" y2="4.33656" gradientUnits="userSpaceOnUse">
<stop stop-color="#FF8860"/>
<stop offset="1" stop-color="#FBD92C"/>
</linearGradient>
<linearGradient id="paint1_linear_52_504" x1="6.66222" y1="10.6136" x2="7.10768" y2="9.27727" gradientUnits="userSpaceOnUse">
<stop stop-color="#FBD92C"/>
<stop offset="1" stop-color="white"/>
</linearGradient>
<linearGradient id="paint2_linear_52_504" x1="7.08647" y1="13.4773" x2="7.42515" y2="12.0742" gradientUnits="userSpaceOnUse">
<stop stop-color="#FBD92C"/>
<stop offset="1" stop-color="white"/>
</linearGradient>
<linearGradient id="paint3_linear_52_504" x1="6.9092" y1="7.07272" x2="10.0134" y2="4.58934" gradientUnits="userSpaceOnUse">
<stop stop-color="#FBD92C"/>
<stop offset="1" stop-color="white"/>
</linearGradient>
<linearGradient id="paint4_linear_52_504" x1="6.9092" y1="7.07272" x2="10.0134" y2="4.58934" gradientUnits="userSpaceOnUse">
<stop stop-color="#FBD92C"/>
<stop offset="1" stop-color="white"/>
</linearGradient>
<clipPath id="clip0_52_504">
<rect width="16" height="16" fill="white"/>
</clipPath>
</defs>
</svg>
