<svg width="16" height="16" viewBox="0 0 16 16" fill="none" xmlns="http://www.w3.org/2000/svg">
<g clip-path="url(#clip0_274_164)">
<path fill-rule="evenodd" clip-rule="evenodd" d="M1 13C0.448 13 0 12.552 0 12V3.992C0 1.787 1.787 0 3.992 0C6.357 0 9.643 0 12.008 0C13.067 0 14.082 0.421001 14.831 1.169C15.579 1.918 16 2.933 16 3.992C16 6.357 16 9.643 16 12.008C16 14.213 14.213 16 12.008 16C8.751 16 4 16 4 16C3.448 16 3 15.552 3 15C3 13.896 2.104 13 1 13ZM1 14C1.552 14 2 14.448 2 15C2 15.552 1.552 16 1 16C0.448 16 0 15.552 0 15C0 14.448 0.448 14 1 14Z" fill="url(#paint0_linear_274_164)"/>
<path fill-rule="evenodd" clip-rule="evenodd" d="M4.92311 10.4904C4.8562 10.2761 4.81089 10.0024 4.80819 9.86209C4.80632 9.74161 4.82851 9.55328 4.83468 9.50122C4.8357 9.49236 4.8362 9.48746 4.8362 9.48746L2.71906 11.2198C2.34875 11.5188 1.85211 11.5188 1.61784 11.2187C1.38788 10.9234 1.50609 10.4575 1.87155 10.1773L1.88613 10.166L5.76635 7.18842L3.59248 7.19271L3.59302 7.1911C3.22434 7.19001 2.98358 6.94171 3.05268 6.64209C3.12015 6.34846 3.46077 6.11524 3.8149 6.11524H3.82138L8.10911 6.11035L6.70241 4.96537L6.70292 4.96486C6.48481 4.78457 6.5124 4.50009 6.75903 4.32788C7.00195 4.15784 7.37446 4.1573 7.59627 4.3268L7.60498 4.33436L10.9783 6.9249L10.9777 6.92551C11.3082 7.17989 11.5906 7.49123 11.8118 7.84477C12.1741 8.42392 12.342 9.10365 12.2911 9.78489C12.2726 10.0205 12.2274 10.2533 12.1562 10.4785C12.0103 10.9398 11.7661 11.364 11.4403 11.7217C11.0904 12.1072 10.6636 12.4153 10.1874 12.626C9.66896 12.8562 9.10778 12.9749 8.54044 12.9741C7.9736 12.977 7.41259 12.8601 6.89403 12.6314C6.41722 12.4232 5.98986 12.1165 5.64003 11.7315C5.31368 11.3749 5.06899 10.9514 4.92311 10.4904ZM8.54103 11.3428C9.20228 11.3417 9.81232 11.0897 10.2484 10.6448C10.4547 10.4369 10.614 10.1874 10.716 9.9128C10.8107 9.652 10.8472 9.37356 10.8228 9.09716C10.7991 8.82454 10.7181 8.56542 10.5886 8.33009C10.4612 8.09907 10.2851 7.89125 10.0697 7.71525C9.63605 7.36855 9.09621 7.18174 8.54103 7.18621C7.98525 7.18292 7.44534 7.37125 7.01224 7.71955C6.79632 7.89716 6.62031 8.10549 6.49291 8.3371C6.3628 8.57192 6.28239 8.83213 6.25868 9.10475C6.23413 9.38125 6.27084 9.65967 6.36609 9.9204C6.46692 10.1945 6.62606 10.4435 6.83252 10.6502C7.26916 11.094 7.87919 11.3439 8.54103 11.3428ZM7.59308 8.2307C7.32696 8.45582 7.15104 8.77273 7.13104 9.13276C7.10995 9.50307 7.25895 9.84691 7.51968 10.1017C7.80756 10.3763 8.19121 10.5277 8.58904 10.5239C8.98653 10.5276 9.36976 10.3761 9.6574 10.1017C9.91862 9.84691 10.0671 9.50307 10.0466 9.13276C10.0266 8.77324 9.85012 8.45582 9.5845 8.2307C9.32269 8.00938 8.97177 7.87447 8.58853 7.87447C8.22513 7.87211 7.87252 7.99832 7.59308 8.2307Z" fill="#D49F34"/>
<path fill-rule="evenodd" clip-rule="evenodd" d="M6.12306 9.29043C6.05615 9.07611 6.01084 8.8024 6.00814 8.66208C6.00627 8.54159 6.02846 8.35326 6.03463 8.30121C6.03565 8.29234 6.03615 8.28745 6.03615 8.28745L3.91901 10.0198C3.5487 10.3188 3.05206 10.3188 2.81779 10.0187C2.58783 9.72336 2.70604 9.25752 3.0715 8.97731L3.08608 8.966L6.9663 5.98841L4.79244 5.9927L4.79298 5.99109C4.42429 5.99 4.18353 5.74169 4.25263 5.44208C4.3201 5.14845 4.66072 4.91523 5.01485 4.91523H5.02133L9.30906 4.91034L7.90236 3.76536L7.90287 3.76485C7.68476 3.58456 7.71235 3.30008 7.95898 3.12786C8.2019 2.95783 8.57442 2.95729 8.79622 3.12678L8.80493 3.13434L12.1782 5.72489L12.1777 5.72549C12.5082 5.97988 12.7906 6.29122 13.0117 6.64475C13.374 7.22391 13.5419 7.90364 13.491 8.58488C13.4726 8.82046 13.4273 9.05325 13.3561 9.27853C13.2102 9.7398 12.9661 10.164 12.6403 10.5217C12.2903 10.9072 11.8635 11.2153 11.3874 11.426C10.8689 11.6562 10.3077 11.7749 9.74039 11.7741C9.17355 11.777 8.61254 11.6601 8.09398 11.4314C7.61718 11.2232 7.18981 10.9165 6.83999 10.5315C6.51363 10.1748 6.26894 9.75137 6.12306 9.29043ZM9.74098 10.1428C10.4022 10.1417 11.0123 9.88966 11.4484 9.44483C11.6546 9.23693 11.814 8.98736 11.9159 8.71279C12.0107 8.45199 12.0471 8.17354 12.0227 7.89714C11.999 7.62453 11.918 7.36541 11.7885 7.13008C11.6611 6.89906 11.4851 6.69124 11.2697 6.51524C10.836 6.16854 10.2962 5.98173 9.74098 5.9862C9.18521 5.98291 8.64529 6.17124 8.21219 6.51954C7.99627 6.69715 7.82026 6.90548 7.69286 7.13709C7.56275 7.3719 7.48234 7.63212 7.45863 7.90474C7.43408 8.18123 7.47079 8.45966 7.56604 8.72038C7.66687 8.99452 7.82601 9.24351 8.03247 9.45023C8.46912 9.89397 9.07914 10.1439 9.74098 10.1428ZM8.79303 7.03069C8.52691 7.2558 8.35099 7.57272 8.33099 7.93275C8.3099 8.30306 8.4589 8.64689 8.71963 8.90171C9.00751 9.17627 9.39116 9.32772 9.78899 9.32384C10.1865 9.32756 10.5697 9.17609 10.8574 8.90171C11.1186 8.64689 11.2671 8.30306 11.2466 7.93275C11.2266 7.57323 11.0501 7.2558 10.7845 7.03069C10.5226 6.80937 10.1717 6.67445 9.78848 6.67445C9.42508 6.6721 9.07248 6.79831 8.79303 7.03069Z" fill="url(#paint1_linear_274_164)"/>
</g>
<defs>
<linearGradient id="paint0_linear_274_164" x1="8" y1="16" x2="8" y2="0" gradientUnits="userSpaceOnUse">
<stop stop-color="#FDA700"/>
<stop offset="1" stop-color="#FFDE00"/>
</linearGradient>
<linearGradient id="paint1_linear_274_164" x1="5.39995" y1="9.58061" x2="9.69404" y2="4.29507" gradientUnits="userSpaceOnUse">
<stop stop-color="#FBD92C"/>
<stop offset="1" stop-color="white"/>
</linearGradient>
<clipPath id="clip0_274_164">
<rect width="16" height="16" fill="white"/>
</clipPath>
</defs>
</svg>
