<svg width="16" height="16" viewBox="0 0 16 16" fill="none" xmlns="http://www.w3.org/2000/svg">
<g clip-path="url(#clip0_62_87)">
<path fill-rule="evenodd" clip-rule="evenodd" d="M1 13C0.448 13 0 12.552 0 12V3.992C0 1.787 1.787 0 3.992 0C6.357 0 9.643 0 12.008 0C13.067 0 14.082 0.421001 14.831 1.169C15.579 1.918 16 2.933 16 3.992C16 6.357 16 9.643 16 12.008C16 14.213 14.213 16 12.008 16C8.751 16 4 16 4 16C3.448 16 3 15.552 3 15C3 13.896 2.104 13 1 13ZM1 14C1.552 14 2 14.448 2 15C2 15.552 1.552 16 1 16C0.448 16 0 15.552 0 15C0 14.448 0.448 14 1 14Z" fill="url(#paint0_linear_62_87)"/>
<path d="M7.30005 4.20001C4.82839 4.20001 2.80005 6.22838 2.80005 8.70001C2.80005 11.1716 4.82839 13.2 7.30005 13.2C9.77168 13.2 11.8 11.1716 11.8 8.70001C11.8 6.22838 9.77168 4.20001 7.30005 4.20001ZM7.30005 12.6727C5.11909 12.6727 3.32739 10.881 3.32739 8.70001C3.32739 6.51905 5.11909 4.72736 7.30005 4.72736C9.48101 4.72736 11.2727 6.51905 11.2727 8.70001C11.2727 10.881 9.48101 12.6727 7.30005 12.6727ZM6.27496 11.1292C5.96137 10.9963 5.67914 10.806 5.43663 10.5634C5.19404 10.3209 5.00375 10.0387 4.87088 9.7251C4.81422 9.59066 4.65818 9.52808 4.52532 9.58504C4.39117 9.64164 4.32862 9.79639 4.38525 9.93056C4.54462 10.307 4.77277 10.6453 5.06374 10.9363C5.35471 11.2273 5.69306 11.4554 6.0695 11.6148C6.20345 11.6716 6.35843 11.609 6.41502 11.4747C6.47169 11.3406 6.40912 11.1858 6.27496 11.1292ZM10.2148 7.46947C10.0555 7.09302 9.82736 6.75468 9.53633 6.46365C9.24539 6.1727 8.90704 5.94461 8.53059 5.78521C8.3972 5.72881 8.24168 5.79063 8.18508 5.92527C8.1284 6.05943 8.19098 6.21418 8.32514 6.27079C8.63873 6.40368 8.92096 6.59401 9.16347 6.83652C9.40605 7.0791 9.59632 7.36133 9.7292 7.67493C9.78601 7.8095 9.94119 7.87152 10.0748 7.81499C10.2089 7.75838 10.2715 7.60364 10.2148 7.46947ZM7.30005 6.8543C6.28242 6.8543 5.45434 7.68239 5.45434 8.70001C5.45434 9.71764 6.28242 10.5457 7.30005 10.5457C8.31768 10.5457 9.14576 9.71764 9.14576 8.70001C9.14576 7.68239 8.31768 6.8543 7.30005 6.8543ZM7.30005 10.0184C6.57316 10.0184 5.98169 9.4269 5.98169 8.70001C5.98169 7.97313 6.57316 7.38165 7.30005 7.38165C8.02694 7.38165 8.61841 7.97313 8.61841 8.70001C8.61841 9.4269 8.02694 10.0184 7.30005 10.0184ZM7.30005 7.90899C6.86384 7.90899 6.50903 8.2638 6.50903 8.70001C6.50903 9.13623 6.86384 9.49103 7.30005 9.49103C7.73626 9.49103 8.09107 9.13623 8.09107 8.70001C8.09107 8.2638 7.73626 7.90899 7.30005 7.90899ZM7.30005 8.96369C7.15458 8.96369 7.03638 8.84549 7.03638 8.70001C7.03638 8.55454 7.15458 8.43634 7.30005 8.43634C7.44552 8.43634 7.56372 8.55454 7.56372 8.70001C7.56372 8.84549 7.44552 8.96369 7.30005 8.96369Z" fill="#8C4FD9" stroke="#8C4FD9" stroke-width="0.4"/>
<path d="M8.30005 3.20001C5.82839 3.20001 3.80005 5.22838 3.80005 7.70001C3.80005 10.1716 5.82839 12.2 8.30005 12.2C10.7717 12.2 12.8 10.1716 12.8 7.70001C12.8 5.22838 10.7717 3.20001 8.30005 3.20001ZM8.30005 11.6727C6.11909 11.6727 4.32739 9.88097 4.32739 7.70001C4.32739 5.51905 6.11909 3.72736 8.30005 3.72736C10.481 3.72736 12.2727 5.51905 12.2727 7.70001C12.2727 9.88097 10.481 11.6727 8.30005 11.6727ZM7.27496 10.1292C6.96137 9.99628 6.67914 9.80601 6.43663 9.56344C6.19404 9.32093 6.00375 9.03869 5.87088 8.7251C5.81422 8.59066 5.65818 8.52808 5.52532 8.58504C5.39117 8.64164 5.32862 8.79639 5.38525 8.93056C5.54462 9.307 5.77277 9.64535 6.06374 9.93629C6.35471 10.2273 6.69306 10.4554 7.0695 10.6148C7.20345 10.6716 7.35843 10.609 7.41502 10.4747C7.47169 10.3406 7.40912 10.1858 7.27496 10.1292ZM11.2148 6.46947C11.0555 6.09302 10.8274 5.75468 10.5363 5.46365C10.2454 5.1727 9.90704 4.94461 9.53059 4.78521C9.3972 4.72881 9.24168 4.79063 9.18508 4.92527C9.1284 5.05943 9.19098 5.21418 9.32514 5.27079C9.63873 5.40368 9.92096 5.59401 10.1635 5.83652C10.406 6.0791 10.5963 6.36133 10.7292 6.67493C10.786 6.8095 10.9412 6.87152 11.0748 6.81499C11.2089 6.75838 11.2715 6.60364 11.2148 6.46947ZM8.30005 5.8543C7.28242 5.8543 6.45434 6.68239 6.45434 7.70001C6.45434 8.71764 7.28242 9.54572 8.30005 9.54572C9.31768 9.54572 10.1458 8.71764 10.1458 7.70001C10.1458 6.68239 9.31768 5.8543 8.30005 5.8543ZM8.30005 9.01838C7.57316 9.01838 6.98169 8.4269 6.98169 7.70001C6.98169 6.97313 7.57316 6.38165 8.30005 6.38165C9.02694 6.38165 9.61841 6.97313 9.61841 7.70001C9.61841 8.4269 9.02694 9.01838 8.30005 9.01838ZM8.30005 6.90899C7.86384 6.90899 7.50903 7.2638 7.50903 7.70001C7.50903 8.13623 7.86384 8.49103 8.30005 8.49103C8.73626 8.49103 9.09107 8.13623 9.09107 7.70001C9.09107 7.2638 8.73626 6.90899 8.30005 6.90899ZM8.30005 7.96369C8.15458 7.96369 8.03638 7.84549 8.03638 7.70001C8.03638 7.55454 8.15458 7.43634 8.30005 7.43634C8.44552 7.43634 8.56372 7.55454 8.56372 7.70001C8.56372 7.84549 8.44552 7.96369 8.30005 7.96369Z" fill="url(#paint1_linear_62_87)" stroke="url(#paint2_linear_62_87)" stroke-width="0.4"/>
</g>
<defs>
<linearGradient id="paint0_linear_62_87" x1="4" y1="14.8571" x2="14.5882" y2="2.5042" gradientUnits="userSpaceOnUse">
<stop stop-color="#A056FF"/>
<stop offset="1" stop-color="#C59AFD"/>
</linearGradient>
<linearGradient id="paint1_linear_62_87" x1="6.05005" y1="12.2" x2="14.825" y2="9.27501" gradientUnits="userSpaceOnUse">
<stop stop-color="#C59AFD"/>
<stop offset="1" stop-color="white"/>
</linearGradient>
<linearGradient id="paint2_linear_62_87" x1="6.05005" y1="12.2" x2="14.825" y2="9.27501" gradientUnits="userSpaceOnUse">
<stop stop-color="#C59AFD"/>
<stop offset="1" stop-color="white"/>
</linearGradient>
<clipPath id="clip0_62_87">
<rect width="16" height="16" fill="white"/>
</clipPath>
</defs>
</svg>
