<svg width="16" height="16" viewBox="0 0 16 16" fill="none" xmlns="http://www.w3.org/2000/svg">
<g clip-path="url(#clip0_62_401)">
<path fill-rule="evenodd" clip-rule="evenodd" d="M1 13C0.448 13 0 12.552 0 12V3.992C0 1.787 1.787 0 3.992 0C6.357 0 9.643 0 12.008 0C13.067 0 14.082 0.421001 14.831 1.169C15.579 1.918 16 2.933 16 3.992C16 6.357 16 9.643 16 12.008C16 14.213 14.213 16 12.008 16C8.751 16 4 16 4 16C3.448 16 3 15.552 3 15C3 13.896 2.104 13 1 13ZM1 14C1.552 14 2 14.448 2 15C2 15.552 1.552 16 1 16C0.448 16 0 15.552 0 15C0 14.448 0.448 14 1 14Z" fill="url(#paint0_linear_62_401)"/>
<path fill-rule="evenodd" clip-rule="evenodd" d="M7.31427 10.9643H12.0285C12.4622 10.9643 12.8142 10.6123 12.8142 10.1786C12.8142 9.74488 12.4622 9.39288 12.0285 9.39288H7.31427C6.88056 9.39288 6.52856 9.74488 6.52856 10.1786C6.52856 10.6123 6.88056 10.9643 7.31427 10.9643Z" fill="#8C4FD9"/>
<path fill-rule="evenodd" clip-rule="evenodd" d="M3.38568 10.9643H4.95709C5.39079 10.9643 5.74279 10.6123 5.74279 10.1786C5.74279 9.74488 5.39079 9.39288 4.95709 9.39288H3.38568C2.95197 9.39288 2.59998 9.74488 2.59998 10.1786C2.59998 10.6123 2.95197 10.9643 3.38568 10.9643Z" fill="#8C4FD9"/>
<path fill-rule="evenodd" clip-rule="evenodd" d="M8.09996 10.5714H12.8141C13.2475 10.5714 13.6 10.2194 13.6 9.7857C13.6 9.352 13.2475 9 12.8141 9H8.09996C7.66659 9 7.31409 9.352 7.31409 9.7857C7.31409 10.2194 7.66659 10.5714 8.09996 10.5714Z" fill="url(#paint1_linear_62_401)"/>
<path fill-rule="evenodd" clip-rule="evenodd" d="M4.17145 10.5714H5.74285C6.17645 10.5714 6.52855 10.2194 6.52855 9.7857C6.52855 9.352 6.17645 9 5.74285 9H4.17145C3.73785 9 3.38574 9.352 3.38574 9.7857C3.38574 10.2194 3.73785 10.5714 4.17145 10.5714Z" fill="url(#paint2_linear_62_401)"/>
<path fill-rule="evenodd" clip-rule="evenodd" d="M3.38568 13.3215H8.09986C8.53357 13.3215 8.88557 12.9695 8.88557 12.5358C8.88557 12.1021 8.53357 11.7501 8.09986 11.7501H3.38568C2.95197 11.7501 2.59998 12.1021 2.59998 12.5358C2.59998 12.9695 2.95197 13.3215 3.38568 13.3215Z" fill="#8C4FD9"/>
<path fill-rule="evenodd" clip-rule="evenodd" d="M10.4571 13.3215H12.0285C12.4622 13.3215 12.8142 12.9695 12.8142 12.5358C12.8142 12.1021 12.4622 11.7501 12.0285 11.7501H10.4571C10.0234 11.7501 9.67139 12.1021 9.67139 12.5358C9.67139 12.9695 10.0234 13.3215 10.4571 13.3215Z" fill="#8C4FD9"/>
<path fill-rule="evenodd" clip-rule="evenodd" d="M4.17137 12.9285H8.88555C9.31892 12.9285 9.67142 12.5765 9.67142 12.1428C9.67142 11.7091 9.31892 11.3571 8.88555 11.3571H4.17137C3.738 11.3571 3.3855 11.7091 3.3855 12.1428C3.3855 12.5765 3.738 12.9285 4.17137 12.9285Z" fill="url(#paint3_linear_62_401)"/>
<path fill-rule="evenodd" clip-rule="evenodd" d="M11.2427 12.9285H12.8141C13.2477 12.9285 13.5998 12.5765 13.5998 12.1428C13.5998 11.7091 13.2477 11.3571 12.8141 11.3571H11.2427C10.8091 11.3571 10.457 11.7091 10.457 12.1428C10.457 12.5765 10.8091 12.9285 11.2427 12.9285Z" fill="url(#paint4_linear_62_401)"/>
<path d="M12.0905 7.93494C12.2072 7.8183 12.2727 7.66014 12.2727 7.49516C12.2727 7.33024 12.2072 7.17203 12.0905 7.05538C11.9739 6.9388 11.8157 6.87323 11.6508 6.87323H9.18284C9.01792 6.87323 8.85971 6.9388 8.74307 7.05538C8.62642 7.17203 8.56091 7.33024 8.56091 7.49516C8.56091 7.66014 8.62642 7.8183 8.74307 7.93494C8.85971 8.05158 9.01792 8.11709 9.18284 8.11709H11.6508C11.8157 8.11709 11.9739 8.05158 12.0905 7.93494Z" fill="#8C4FD9"/>
<path d="M12.8178 7.20771C12.9345 7.09106 13 6.93291 13 6.76793C13 6.603 12.9345 6.44479 12.8178 6.32815C12.7012 6.21156 12.543 6.146 12.3781 6.146H9.91014C9.74522 6.146 9.58701 6.21156 9.47036 6.32815C9.35372 6.44479 9.28821 6.603 9.28821 6.76793C9.28821 6.93291 9.35372 7.09106 9.47036 7.20771C9.58701 7.32435 9.74522 7.38986 9.91014 7.38986H12.3781C12.543 7.38986 12.7012 7.32435 12.8178 7.20771Z" fill="url(#paint5_linear_62_401)"/>
<path d="M7.94441 5.8952C7.89315 5.81244 7.82032 5.72968 7.72591 5.67727C7.65037 5.63865 7.60179 5.5752 7.55863 5.50071C7.42104 5.26347 7.50197 4.95175 7.7313 4.81106C8.00105 4.65382 8.0874 4.30347 7.93092 4.03037L7.75019 3.70486C7.5964 3.43175 7.25917 3.3352 6.99208 3.4952C6.75469 3.62761 6.44984 3.53934 6.31227 3.30486C6.26911 3.22761 6.24481 3.14486 6.25022 3.0621C6.25828 2.95451 6.22592 2.85244 6.17737 2.76968C6.07755 2.59865 5.89678 2.48279 5.69716 2.48279H5.31677C5.11985 2.48831 4.93907 2.59865 4.83925 2.76968C4.788 2.85244 4.75834 2.95451 4.76373 3.0621C4.76912 3.14486 4.74484 3.22761 4.70168 3.30486C4.56407 3.53934 4.25924 3.62761 4.02455 3.4952C3.75475 3.3352 3.42022 3.43175 3.26376 3.70486L3.08299 4.03037C2.92923 4.30347 3.01557 4.65382 3.28265 4.81106C3.51193 4.95175 3.59289 5.26347 3.45799 5.50071C3.41213 5.5752 3.36358 5.63865 3.28804 5.67727C3.1963 5.72968 3.11537 5.81244 3.07221 5.8952C2.97241 6.06623 2.9778 6.2814 3.0776 6.46071L3.26376 6.79175C3.36358 6.9683 3.5497 7.07864 3.74395 7.07864C3.83567 7.07864 3.94359 7.05106 4.02994 6.99589C4.09737 6.94899 4.17829 6.93244 4.26733 6.93244C4.5344 6.93244 4.75834 7.1614 4.76373 7.4345C4.76373 7.75175 5.01192 8.00002 5.32485 8.00002H5.69177C6.00201 8.00002 6.25022 7.75175 6.25022 7.4345C6.25828 7.1614 6.48222 6.93244 6.7493 6.93244C6.83562 6.93244 6.91655 6.94899 6.98669 6.99589C7.07303 7.05106 7.17824 7.07864 7.27267 7.07864C7.4642 7.07864 7.65037 6.9683 7.75019 6.79175L7.93902 6.46071C8.03615 6.27589 8.04425 6.06623 7.94441 5.8952Z" fill="#8C4FD9"/>
<path fill-rule="evenodd" clip-rule="evenodd" d="M8.48446 5.19448C8.57886 5.24689 8.65169 5.32965 8.70296 5.41241C8.8028 5.58344 8.79469 5.7931 8.69757 5.97792L8.50873 6.30896C8.40891 6.48551 8.22275 6.59586 8.03121 6.59586C7.93678 6.59586 7.83158 6.56827 7.74523 6.5131C7.6751 6.4662 7.59416 6.44965 7.50784 6.44965C7.24076 6.44965 7.01683 6.67861 7.00876 6.95172C7.00876 7.26896 6.76055 7.51723 6.45032 7.51723H6.0834C5.77046 7.51723 5.52227 7.26896 5.52227 6.95172C5.51688 6.67861 5.29295 6.44965 5.02587 6.44965C4.93683 6.44965 4.85592 6.4662 4.78848 6.5131C4.70214 6.56827 4.59421 6.59586 4.5025 6.59586C4.30825 6.59586 4.12213 6.48551 4.02231 6.30896L3.83614 5.97792C3.73635 5.79861 3.73096 5.58344 3.83075 5.41241C3.87392 5.32965 3.95485 5.24689 4.04658 5.19448C4.12213 5.15586 4.17068 5.09241 4.21654 5.01793C4.35143 4.78069 4.27048 4.46896 4.04119 4.32827C3.77412 4.17103 3.68777 3.82069 3.84153 3.54758L4.02231 3.22207C4.17876 2.94896 4.5133 2.85241 4.78309 3.01241C5.01779 3.14483 5.32261 3.05655 5.46023 2.82207C5.50339 2.74483 5.52766 2.66207 5.52227 2.57931C5.51688 2.47172 5.54655 2.36965 5.5978 2.2869C5.69762 2.11586 5.87839 2.00552 6.07531 2H6.4557C6.65532 2 6.8361 2.11586 6.93592 2.2869C6.98447 2.36965 7.01683 2.47172 7.00876 2.57931C7.00335 2.66207 7.02765 2.74483 7.07081 2.82207C7.20838 3.05655 7.51323 3.14483 7.75062 3.01241C8.01772 2.85241 8.35495 2.94896 8.50873 3.22207L8.68946 3.54758C8.84594 3.82069 8.7596 4.17103 8.48984 4.32827C8.26052 4.46896 8.17959 4.78069 8.31718 5.01793C8.36034 5.09241 8.40891 5.15586 8.48446 5.19448ZM6.24132 5.44831C6.62221 5.44831 6.93097 5.13954 6.93097 4.75865C6.93097 4.37777 6.62221 4.069 6.24132 4.069C5.86043 4.069 5.55167 4.37777 5.55167 4.75865C5.55167 5.13954 5.86043 5.44831 6.24132 5.44831Z" fill="url(#paint6_linear_62_401)"/>
</g>
<defs>
<linearGradient id="paint0_linear_62_401" x1="4" y1="14.8571" x2="14.5882" y2="2.5042" gradientUnits="userSpaceOnUse">
<stop stop-color="#A056FF"/>
<stop offset="1" stop-color="#C59AFD"/>
</linearGradient>
<linearGradient id="paint1_linear_62_401" x1="8.88557" y1="10.5714" x2="11.3369" y2="7.30277" gradientUnits="userSpaceOnUse">
<stop stop-color="#C59AFD"/>
<stop offset="1" stop-color="white"/>
</linearGradient>
<linearGradient id="paint2_linear_62_401" x1="4.17144" y1="10.5714" x2="6.52855" y2="9" gradientUnits="userSpaceOnUse">
<stop stop-color="#C59AFD"/>
<stop offset="1" stop-color="white"/>
</linearGradient>
<linearGradient id="paint3_linear_62_401" x1="4.95698" y1="12.9285" x2="7.40834" y2="9.65989" gradientUnits="userSpaceOnUse">
<stop stop-color="#C59AFD"/>
<stop offset="1" stop-color="white"/>
</linearGradient>
<linearGradient id="paint4_linear_62_401" x1="11.2427" y1="12.9285" x2="13.5998" y2="11.3571" gradientUnits="userSpaceOnUse">
<stop stop-color="#C59AFD"/>
<stop offset="1" stop-color="white"/>
</linearGradient>
<linearGradient id="paint5_linear_62_401" x1="10.2162" y1="7.38986" x2="12.2374" y2="5.37934" gradientUnits="userSpaceOnUse">
<stop stop-color="#C59AFD"/>
<stop offset="1" stop-color="white"/>
</linearGradient>
<linearGradient id="paint6_linear_62_401" x1="5.01246" y1="7.51723" x2="9.98911" y2="6.00916" gradientUnits="userSpaceOnUse">
<stop stop-color="#C59AFD"/>
<stop offset="1" stop-color="white"/>
</linearGradient>
<clipPath id="clip0_62_401">
<rect width="16" height="16" fill="white"/>
</clipPath>
</defs>
</svg>
