<svg width="16" height="16" viewBox="0 0 16 16" fill="none" xmlns="http://www.w3.org/2000/svg">
<g clip-path="url(#clip0_62_239)">
<path fill-rule="evenodd" clip-rule="evenodd" d="M1 13C0.448 13 0 12.552 0 12V3.992C0 1.787 1.787 0 3.992 0C6.357 0 9.643 0 12.008 0C13.067 0 14.082 0.421001 14.831 1.169C15.579 1.918 16 2.933 16 3.992C16 6.357 16 9.643 16 12.008C16 14.213 14.213 16 12.008 16C8.751 16 4 16 4 16C3.448 16 3 15.552 3 15C3 13.896 2.104 13 1 13ZM1 14C1.552 14 2 14.448 2 15C2 15.552 1.552 16 1 16C0.448 16 0 15.552 0 15C0 14.448 0.448 14 1 14Z" fill="url(#paint0_linear_62_239)"/>
<path d="M3.88828 10.9011C3.7817 11.0926 3.69681 11.3809 3.69681 11.5624C3.69681 11.5675 3.69681 11.5728 3.69682 11.5782C3.69693 11.6115 3.6462 11.6275 3.62949 11.5987L2.37447 9.44068C2.33176 9.36637 2.30005 9.25956 2.30005 9.16352C2.30005 9.06723 2.33187 8.95025 2.37447 8.87569L2.9992 7.78259C3.00752 7.76803 3.00243 7.74947 2.98782 7.7412L2.39638 7.4059C2.36955 7.39068 2.37993 7.34981 2.41076 7.34923L4.60608 7.30859C4.61729 7.3084 4.6277 7.3144 4.63314 7.3242L5.7015 9.24946C5.7164 9.27629 5.68655 9.30572 5.65993 9.29046L5.05562 8.94388C5.04115 8.93558 5.02269 8.94055 5.01432 8.955L3.88815 10.9014L3.88828 10.9011ZM4.91185 4.44015C5.11428 4.08791 5.44514 3.89602 5.84996 3.89602C6.28694 3.89602 6.62867 4.09878 6.87367 4.51412L7.22722 5.1065C7.23285 5.11594 7.23293 5.1277 7.22743 5.13721L5.99319 7.27087C5.98479 7.28537 5.96622 7.29031 5.95173 7.28188L3.96784 6.12891C3.95338 6.1205 3.94846 6.10197 3.95685 6.0875L4.91185 4.44015ZM5.06066 12.7453C4.45305 12.7452 3.95214 12.2441 3.95214 11.6365C3.95214 11.4659 4.027 11.1778 4.13358 10.9967L4.46565 10.4045C4.47102 10.395 4.48112 10.389 4.49209 10.389H6.97122C6.98794 10.389 7.00152 10.4026 7.00152 10.4193V12.715C7.00152 12.7318 6.98794 12.7453 6.97122 12.7453L5.06066 12.7453ZM7.08669 4.37594C6.95608 4.14961 6.78967 3.9797 6.59343 3.86691C6.56472 3.85041 6.57602 3.79999 6.60914 3.79999H9.08075C9.3154 3.79999 9.49643 3.8962 9.60341 4.07765L10.2383 5.16012C10.2468 5.17461 10.2654 5.17943 10.2799 5.17088L10.8606 4.82735C10.8872 4.81161 10.9175 4.84119 10.9025 4.8682L9.8355 6.78058C9.83006 6.79031 9.81975 6.79628 9.80861 6.79611L7.62487 6.76535C7.59396 6.76493 7.58346 6.72393 7.61035 6.70868L8.20085 6.37399C8.21547 6.3657 8.22055 6.34709 8.21217 6.33252L7.08652 4.37559L7.08669 4.37594ZM11.1274 10.4096C11.3896 10.4096 11.6164 10.3521 11.8129 10.2374C11.8414 10.2207 11.8792 10.2554 11.8627 10.284L10.615 12.4567C10.5085 12.6378 10.3169 12.7446 10.0931 12.7446H8.87561C8.85887 12.7446 8.84531 12.7581 8.84531 12.7749V13.4558C8.84531 13.4865 8.80481 13.4977 8.789 13.4713L7.66067 11.5875C7.65493 11.5779 7.65493 11.5659 7.66067 11.5563L8.789 9.6717C8.80481 9.64532 8.84531 9.65652 8.84531 9.68726V10.3793C8.84531 10.3961 8.85887 10.4096 8.87561 10.4096H11.1274ZM12.1503 8.49041C12.2465 8.66111 12.3 8.84214 12.3 9.03412C12.3 9.418 12.0545 9.82326 11.7138 10.0149C11.5536 10.1007 11.3294 10.1542 11.1061 10.1542H10.4193C10.4084 10.1542 10.3984 10.1484 10.393 10.1391L9.15944 8.00515C9.15103 7.99061 9.15606 7.972 9.17066 7.96367L11.1544 6.83146C11.1689 6.8232 11.1873 6.82817 11.1957 6.84259L12.1503 8.49041Z" fill="#7FD1AE"/>
<path d="M4.88828 9.90111C4.7817 10.0926 4.69681 10.3809 4.69681 10.5624C4.69681 10.5675 4.69681 10.5728 4.69682 10.5782C4.69693 10.6115 4.6462 10.6275 4.62949 10.5987L3.37447 8.44068C3.33176 8.36637 3.30005 8.25956 3.30005 8.16352C3.30005 8.06723 3.33187 7.95025 3.37447 7.87569L3.9992 6.78259C4.00752 6.76803 4.00243 6.74947 3.98782 6.7412L3.39638 6.4059C3.36955 6.39068 3.37993 6.34981 3.41076 6.34923L5.60608 6.30859C5.61729 6.3084 5.6277 6.3144 5.63314 6.3242L6.7015 8.24946C6.7164 8.27629 6.68655 8.30572 6.65993 8.29046L6.05562 7.94388C6.04115 7.93558 6.02269 7.94055 6.01432 7.955L4.88815 9.90137L4.88828 9.90111ZM5.91185 3.44015C6.11428 3.08791 6.44514 2.89602 6.84996 2.89602C7.28694 2.89602 7.62867 3.09878 7.87367 3.51412L8.22722 4.1065C8.23285 4.11594 8.23293 4.1277 8.22743 4.13721L6.99319 6.27087C6.98479 6.28537 6.96622 6.29031 6.95173 6.28188L4.96784 5.12891C4.95338 5.1205 4.94846 5.10197 4.95685 5.0875L5.91185 3.44015ZM6.06066 11.7453C5.45305 11.7452 4.95214 11.2441 4.95214 10.6365C4.95214 10.4659 5.027 10.1778 5.13358 9.99671L5.46565 9.40452C5.47102 9.39496 5.48112 9.38903 5.49209 9.38903H7.97122C7.98794 9.38903 8.00152 9.40261 8.00152 9.41934V11.715C8.00152 11.7318 7.98794 11.7453 7.97122 11.7453L6.06066 11.7453ZM8.08669 3.37594C7.95608 3.14961 7.78967 2.9797 7.59343 2.86691C7.56472 2.85041 7.57602 2.79999 7.60914 2.79999H10.0807C10.3154 2.79999 10.4964 2.8962 10.6034 3.07765L11.2383 4.16012C11.2468 4.17461 11.2654 4.17943 11.2799 4.17088L11.8606 3.82735C11.8872 3.81161 11.9175 3.84119 11.9025 3.8682L10.8355 5.78058C10.8301 5.79031 10.8197 5.79628 10.8086 5.79611L8.62487 5.76535C8.59396 5.76493 8.58346 5.72393 8.61035 5.70868L9.20085 5.37399C9.21547 5.3657 9.22055 5.34709 9.21217 5.33252L8.08652 3.37559L8.08669 3.37594ZM12.1274 9.40964C12.3896 9.40964 12.6164 9.35214 12.8129 9.23738C12.8414 9.22072 12.8792 9.25535 12.8627 9.28402L11.615 11.4567C11.5085 11.6378 11.3169 11.7446 11.0931 11.7446H9.87561C9.85887 11.7446 9.84531 11.7581 9.84531 11.7749V12.4558C9.84531 12.4865 9.80481 12.4977 9.789 12.4713L8.66067 10.5875C8.65493 10.5779 8.65493 10.5659 8.66067 10.5563L9.789 8.6717C9.80481 8.64532 9.84531 8.65652 9.84531 8.68726V9.37934C9.84531 9.39608 9.85887 9.40964 9.87561 9.40964H12.1274ZM13.1503 7.49041C13.2465 7.66111 13.3 7.84214 13.3 8.03412C13.3 8.418 13.0545 8.82326 12.7138 9.0149C12.5536 9.10069 12.3294 9.15421 12.1061 9.15421H11.4193C11.4084 9.15421 11.3984 9.14844 11.393 9.13908L10.1594 7.00515C10.151 6.99061 10.1561 6.972 10.1707 6.96367L12.1544 5.83146C12.1689 5.8232 12.1873 5.82817 12.1957 5.84259L13.1503 7.49041Z" fill="url(#paint1_linear_62_239)"/>
</g>
<defs>
<linearGradient id="paint0_linear_62_239" x1="2" y1="14.0004" x2="16.972" y2="10.5455" gradientUnits="userSpaceOnUse">
<stop stop-color="#62E8AF"/>
<stop offset="1" stop-color="#B3FBDC"/>
</linearGradient>
<linearGradient id="paint1_linear_62_239" x1="3.30005" y1="12.4861" x2="6.06956" y2="1.0491" gradientUnits="userSpaceOnUse">
<stop stop-color="#B3FBDC"/>
<stop offset="1" stop-color="white"/>
</linearGradient>
<clipPath id="clip0_62_239">
<rect width="16" height="16" fill="white"/>
</clipPath>
</defs>
</svg>
