<svg width="16" height="16" viewBox="0 0 16 16" fill="none" xmlns="http://www.w3.org/2000/svg">
<g clip-path="url(#clip0_52_542)">
<path fill-rule="evenodd" clip-rule="evenodd" d="M5 0H10.18C10.97 0 11.728 0.314 12.287 0.872C12.817 1.403 13.597 2.183 14.128 2.713C14.686 3.272 15 4.03 15 4.82V13.021C15 13.811 14.686 14.569 14.128 15.128C13.569 15.686 12.811 16 12.021 16C9.796 16 6.204 16 3.979 16C3.189 16 2.431 15.686 1.872 15.128C1.314 14.569 1 13.811 1 13.021V4C1 3.448 1.448 3 2 3C3.104 3 4 2.104 4 1C4 0.448 4.448 0 5 0ZM3 1C3 1.552 2.552 2 2 2C1.448 2 1 1.552 1 1C1 0.448 1.448 0 2 0C2.552 0 3 0.448 3 1Z" fill="url(#paint0_linear_52_542)"/>
<path fill-rule="evenodd" clip-rule="evenodd" d="M10.1091 13.3182H5.44238C5.03256 13.3182 4.69995 13.6508 4.69995 14.0606C4.69995 14.4704 5.03256 14.803 5.44238 14.803H10.1091C10.5189 14.803 10.8515 14.4704 10.8515 14.0606C10.8515 13.6508 10.5189 13.3182 10.1091 13.3182Z" fill="#D84F4F"/>
<path fill-rule="evenodd" clip-rule="evenodd" d="M8.41208 10.7545H5.44238C5.03256 10.7545 4.69995 11.0871 4.69995 11.4969C4.69995 11.9068 5.03256 12.2394 5.44238 12.2394H8.41208C8.8219 12.2394 9.15451 11.9068 9.15451 11.4969C9.15451 11.0871 8.8219 10.7545 8.41208 10.7545Z" fill="#D84F4F"/>
<path fill-rule="evenodd" clip-rule="evenodd" d="M9.26059 9.79999H6.29089C5.88107 9.79999 5.54846 10.1326 5.54846 10.5424C5.54846 10.9522 5.88107 11.2848 6.29089 11.2848H9.26059C9.67041 11.2848 10.003 10.9522 10.003 10.5424C10.003 10.1326 9.67041 9.79999 9.26059 9.79999Z" fill="url(#paint1_linear_52_542)"/>
<path fill-rule="evenodd" clip-rule="evenodd" d="M10.9576 12.3637H6.29089C5.88107 12.3637 5.54846 12.6963 5.54846 13.1061C5.54846 13.516 5.88107 13.8486 6.29089 13.8486H10.9576C11.3674 13.8486 11.7 13.516 11.7 13.1061C11.7 12.6963 11.3674 12.3637 10.9576 12.3637Z" fill="url(#paint2_linear_52_542)"/>
<path fill-rule="evenodd" clip-rule="evenodd" d="M5.60943 4.04621C5.60943 3.04168 6.42388 2.22723 7.42841 2.22723C8.43294 2.22723 9.24736 3.04168 9.24736 4.04621V4.84671C9.24736 4.955 9.31711 5.04936 9.41371 5.09835C9.85484 5.32219 10.1569 5.78012 10.1569 6.30857V8.14395C10.1569 8.50363 10.0141 8.84879 9.75989 9.10302C9.50573 9.35718 9.16055 9.49998 8.80084 9.49998H6.51893C6.26791 9.49998 6.06418 9.29628 6.06418 9.04524C6.06373 8.94431 6.04736 8.84376 6.01462 8.74831C5.97096 8.62186 5.89866 8.50592 5.80544 8.40995C5.70812 8.31036 5.58807 8.23349 5.45665 8.1871C5.36161 8.1535 5.26156 8.13663 5.16061 8.13574H5.1547C4.90368 8.13574 4.69995 7.93204 4.69995 7.681V6.30857C4.69995 5.78012 5.00198 5.32219 5.44313 5.09836C5.5397 5.04936 5.60943 4.95501 5.60943 4.84671V4.04621ZM6.51892 4.77301C6.51892 4.91359 6.63288 5.02756 6.77347 5.02756H8.08336C8.22394 5.02756 8.3379 4.91359 8.3379 4.77301V4.04621C8.3379 3.54372 7.9309 3.13672 7.42841 3.13672C6.92592 3.13672 6.51892 3.54372 6.51892 4.04621V4.77301ZM6.97368 6.77469V7.68418C6.97368 7.93522 7.17741 8.13892 7.42842 8.13892C7.67944 8.13892 7.88317 7.93522 7.88317 7.68418V6.77469C7.88317 6.52368 7.67944 6.31995 7.42842 6.31995C7.17741 6.31995 6.97368 6.52368 6.97368 6.77469Z" fill="#D84F4F"/>
<path fill-rule="evenodd" clip-rule="evenodd" d="M6.19135 3.31899C6.19135 2.31445 7.00579 1.5 8.01033 1.5C9.01486 1.5 9.82934 2.31445 9.82934 3.31899V4.11948C9.82934 4.22777 9.89902 4.32213 9.99562 4.37113C10.4367 4.59495 10.7388 5.05288 10.7388 5.58135V7.41667C10.7388 7.77641 10.596 8.12158 10.3418 8.37574C10.0876 8.62997 9.74247 8.77277 9.38274 8.77277H7.10085C6.84983 8.77277 6.6461 8.569 6.6461 8.31802C6.64564 8.21703 6.62927 8.11655 6.59653 8.02103C6.55288 7.89465 6.48057 7.7787 6.38735 7.68274C6.29003 7.58315 6.16998 7.50627 6.03856 7.45988C5.94351 7.42622 5.84347 7.40942 5.74252 7.40853H5.73661C5.48559 7.40853 5.28186 7.20476 5.28186 6.95378V5.58135C5.28186 5.05289 5.58389 4.59496 6.02505 4.37113C6.12162 4.32213 6.19135 4.22777 6.19135 4.11948V3.31899ZM7.10083 4.04578C7.10083 4.18636 7.2148 4.30033 7.35538 4.30033H8.66527C8.80585 4.30033 8.91982 4.18636 8.91982 4.04578V3.31899C8.91982 2.81649 8.51282 2.40949 8.01033 2.40949C7.50783 2.40949 7.10083 2.81649 7.10083 3.31899V4.04578ZM7.55559 6.04747V6.95696C7.55559 7.20801 7.75932 7.41171 8.01034 7.41171C8.26136 7.41171 8.46509 7.20801 8.46509 6.95696V6.04747C8.46509 5.79645 8.26136 5.59272 8.01034 5.59272C7.75932 5.59272 7.55559 5.79645 7.55559 6.04747Z" fill="url(#paint3_linear_52_542)"/>
</g>
<defs>
<linearGradient id="paint0_linear_52_542" x1="3.625" y1="14" x2="13.7796" y2="3.33769" gradientUnits="userSpaceOnUse">
<stop stop-color="#FF405B"/>
<stop offset="1" stop-color="#FF8860"/>
</linearGradient>
<linearGradient id="paint1_linear_52_542" x1="6.82069" y1="11.2848" x2="7.00709" y2="9.95347" gradientUnits="userSpaceOnUse">
<stop stop-color="#FF8860"/>
<stop offset="1" stop-color="white"/>
</linearGradient>
<linearGradient id="paint2_linear_52_542" x1="7.30535" y1="13.8485" x2="7.44157" y2="12.5049" gradientUnits="userSpaceOnUse">
<stop stop-color="#FF8860"/>
<stop offset="1" stop-color="white"/>
</linearGradient>
<linearGradient id="paint3_linear_52_542" x1="6.84038" y1="8.77258" x2="9.67419" y2="3.7102" gradientUnits="userSpaceOnUse">
<stop stop-color="#FF8860"/>
<stop offset="1" stop-color="white"/>
</linearGradient>
<clipPath id="clip0_52_542">
<rect width="16" height="16" fill="white"/>
</clipPath>
</defs>
</svg>
