<svg width="16" height="16" viewBox="0 0 16 16" fill="none" xmlns="http://www.w3.org/2000/svg">
<g clip-path="url(#clip0_54_644)">
<path fill-rule="evenodd" clip-rule="evenodd" d="M1 13C0.448 13 0 12.552 0 12V3.992C0 1.787 1.787 0 3.992 0C6.357 0 9.643 0 12.008 0C13.067 0 14.082 0.421001 14.831 1.169C15.579 1.918 16 2.933 16 3.992C16 6.357 16 9.643 16 12.008C16 14.213 14.213 16 12.008 16C8.751 16 4 16 4 16C3.448 16 3 15.552 3 15C3 13.896 2.104 13 1 13ZM1 14C1.552 14 2 14.448 2 15C2 15.552 1.552 16 1 16C0.448 16 0 15.552 0 15C0 14.448 0.448 14 1 14Z" fill="url(#paint0_linear_54_644)"/>
<path fill-rule="evenodd" clip-rule="evenodd" d="M0.00012207 12.008C0.00012207 12.008 3.01512 8 3.89112 8C4.94912 8 5.91712 8.598 6.39012 9.544L7.27412 11.312L7.94112 10.645C8.35412 10.232 8.91412 10 9.49812 10H9.50212C10.0861 10 10.6461 10.232 11.0591 10.645L11.7111 11.297C12.1021 11.688 12.1021 12.321 11.7111 12.712C11.3211 13.102 10.6871 13.102 10.2971 12.712L9.64512 12.059C9.60712 12.021 9.55512 12 9.50212 12H9.49812C9.44412 12 9.39312 12.021 9.35512 12.059L8.49412 12.92C8.08412 13.33 7.50312 13.517 6.93112 13.425C6.35912 13.332 5.86712 12.97 5.60812 12.452L4.60112 10.439C4.46712 10.17 4.19212 10 3.89112 10C3.64512 10 3.41312 10.116 3.26512 10.313C2.40312 11.463 0.800122 13.6 0.800122 13.6C0.708122 13.722 0.595122 13.817 0.468122 13.884C0.164122 13.311 0.00012207 12.668 0.00012207 12.008Z" fill="#7FD1AE"/>
<path d="M9.50012 9.00012C10.8808 9.00012 12.0001 7.88083 12.0001 6.50012C12.0001 5.11941 10.8808 4.00012 9.50012 4.00012C8.11941 4.00012 7.00012 5.11941 7.00012 6.50012C7.00012 7.88083 8.11941 9.00012 9.50012 9.00012Z" fill="#7FD1AE"/>
<path fill-rule="evenodd" clip-rule="evenodd" d="M10.5001 3C9.12012 3 8.00012 4.12 8.00012 5.5C8.00012 6.88 9.12012 8 10.5001 8C11.8801 8 13.0001 6.88 13.0001 5.5C13.0001 4.12 11.8801 3 10.5001 3ZM10.5001 5C10.7761 5 11.0001 5.224 11.0001 5.5C11.0001 5.776 10.7761 6 10.5001 6C10.2241 6 10.0001 5.776 10.0001 5.5C10.0001 5.224 10.2241 5 10.5001 5Z" fill="url(#paint1_linear_54_644)"/>
<path fill-rule="evenodd" clip-rule="evenodd" d="M8.27395 10.312L7.38995 8.544C6.91695 7.598 5.94995 7 4.89095 7C4.01495 7 3.19095 7.412 2.66495 8.113C1.80295 9.263 0.19995 11.4 0.19995 11.4C-0.13105 11.842 -0.0420495 12.469 0.39995 12.8C0.84195 13.131 1.46895 13.042 1.79995 12.6C1.79995 12.6 3.40295 10.463 4.26495 9.313C4.41295 9.116 4.64495 9 4.89095 9C5.19195 9 5.46695 9.17 5.60095 9.439L6.60795 11.452C6.86695 11.97 7.35895 12.332 7.93095 12.425C8.50295 12.517 9.08495 12.33 9.49395 11.92L10.3549 11.059C10.3929 11.021 10.4439 11 10.4979 11H10.5019C10.5559 11 10.6069 11.021 10.6449 11.059L11.2969 11.712C11.6879 12.102 12.3209 12.102 12.7119 11.712C13.1019 11.321 13.1019 10.688 12.7119 10.297L12.0589 9.645C11.6459 9.232 11.0859 9 10.5019 9H10.4979C9.91395 9 9.35395 9.232 8.94095 9.645L8.27395 10.312Z" fill="url(#paint2_linear_54_644)"/>
</g>
<defs>
<linearGradient id="paint0_linear_54_644" x1="2" y1="14.0004" x2="16.972" y2="10.5455" gradientUnits="userSpaceOnUse">
<stop stop-color="#62E8AF"/>
<stop offset="1" stop-color="#B3FBDC"/>
</linearGradient>
<linearGradient id="paint1_linear_54_644" x1="8.00012" y1="8" x2="9.47071" y2="2.11765" gradientUnits="userSpaceOnUse">
<stop stop-color="#B3FBDC"/>
<stop offset="1" stop-color="white"/>
</linearGradient>
<linearGradient id="paint2_linear_54_644" x1="-1.93781e-07" y1="13" x2="0.853716" y2="5.59848" gradientUnits="userSpaceOnUse">
<stop stop-color="#B3FBDC"/>
<stop offset="1" stop-color="white"/>
</linearGradient>
<clipPath id="clip0_54_644">
<rect width="16" height="16" fill="white"/>
</clipPath>
</defs>
</svg>
