<svg width="16" height="16" viewBox="0 0 16 16" fill="none" xmlns="http://www.w3.org/2000/svg">
<g clip-path="url(#clip0_62_458)">
<path fill-rule="evenodd" clip-rule="evenodd" d="M5 0H10.18C10.97 0 11.728 0.314 12.287 0.872C12.817 1.403 13.597 2.183 14.128 2.713C14.686 3.272 15 4.03 15 4.82V13.021C15 13.811 14.686 14.569 14.128 15.128C13.569 15.686 12.811 16 12.021 16C9.796 16 6.204 16 3.979 16C3.189 16 2.431 15.686 1.872 15.128C1.314 14.569 1 13.811 1 13.021V4C1 3.448 1.448 3 2 3C3.104 3 4 2.104 4 1C4 0.448 4.448 0 5 0ZM3 1C3 1.552 2.552 2 2 2C1.448 2 1 1.552 1 1C1 0.448 1.448 0 2 0C2.552 0 3 0.448 3 1Z" fill="url(#paint0_linear_62_458)"/>
<path fill-rule="evenodd" clip-rule="evenodd" d="M7.21429 11.4643H11.9285C12.3622 11.4643 12.7142 11.1123 12.7142 10.6786C12.7142 10.2449 12.3622 9.89288 11.9285 9.89288H7.21429C6.78058 9.89288 6.42859 10.2449 6.42859 10.6786C6.42859 11.1123 6.78058 11.4643 7.21429 11.4643Z" fill="#279FD7"/>
<path fill-rule="evenodd" clip-rule="evenodd" d="M3.2857 11.4643H4.85711C5.29082 11.4643 5.64281 11.1123 5.64281 10.6786C5.64281 10.2449 5.29082 9.89288 4.85711 9.89288H3.2857C2.852 9.89288 2.5 10.2449 2.5 10.6786C2.5 11.1123 2.852 11.4643 3.2857 11.4643Z" fill="#279FD7"/>
<path fill-rule="evenodd" clip-rule="evenodd" d="M7.99998 11.0714H12.7142C13.1475 11.0714 13.5 10.7194 13.5 10.2857C13.5 9.852 13.1475 9.5 12.7142 9.5H7.99998C7.56661 9.5 7.21411 9.852 7.21411 10.2857C7.21411 10.7194 7.56661 11.0714 7.99998 11.0714Z" fill="url(#paint1_linear_62_458)"/>
<path fill-rule="evenodd" clip-rule="evenodd" d="M4.07147 11.0714H5.64287C6.07647 11.0714 6.42858 10.7194 6.42858 10.2857C6.42858 9.852 6.07647 9.5 5.64287 9.5H4.07147C3.63787 9.5 3.28577 9.852 3.28577 10.2857C3.28577 10.7194 3.63787 11.0714 4.07147 11.0714Z" fill="url(#paint2_linear_62_458)"/>
<path fill-rule="evenodd" clip-rule="evenodd" d="M3.2857 13.8215H7.99989C8.4336 13.8215 8.78559 13.4695 8.78559 13.0358C8.78559 12.6021 8.4336 12.2501 7.99989 12.2501H3.2857C2.852 12.2501 2.5 12.6021 2.5 13.0358C2.5 13.4695 2.852 13.8215 3.2857 13.8215Z" fill="#279FD7"/>
<path fill-rule="evenodd" clip-rule="evenodd" d="M10.3571 13.8215H11.9285C12.3622 13.8215 12.7142 13.4695 12.7142 13.0358C12.7142 12.6021 12.3622 12.2501 11.9285 12.2501H10.3571C9.92341 12.2501 9.57141 12.6021 9.57141 13.0358C9.57141 13.4695 9.92341 13.8215 10.3571 13.8215Z" fill="#279FD7"/>
<path fill-rule="evenodd" clip-rule="evenodd" d="M4.07139 13.4285H8.78557C9.21895 13.4285 9.57145 13.0765 9.57145 12.6428C9.57145 12.2091 9.21895 11.8571 8.78557 11.8571H4.07139C3.63802 11.8571 3.28552 12.2091 3.28552 12.6428C3.28552 13.0765 3.63802 13.4285 4.07139 13.4285Z" fill="url(#paint3_linear_62_458)"/>
<path fill-rule="evenodd" clip-rule="evenodd" d="M11.1428 13.4285H12.7142C13.1478 13.4285 13.4999 13.0765 13.4999 12.6428C13.4999 12.2091 13.1478 11.8571 12.7142 11.8571H11.1428C10.7092 11.8571 10.3571 12.2091 10.3571 12.6428C10.3571 13.0765 10.7092 13.4285 11.1428 13.4285Z" fill="url(#paint4_linear_62_458)"/>
<path d="M6.12139 2.56822C6.39717 2.29244 6.77121 2.13751 7.16122 2.13751C7.55123 2.13751 7.92526 2.29244 8.20103 2.56822C8.47681 2.84401 8.63175 3.21803 8.63175 3.60804C8.63175 3.99805 8.47681 4.3721 8.20103 4.64787C7.92526 4.92365 7.55123 5.07858 7.16122 5.07858C6.77121 5.07858 6.39717 4.92365 6.12139 4.64787C5.84562 4.3721 5.69067 3.99805 5.69067 3.60804C5.69067 3.21803 5.84562 2.84401 6.12139 2.56822Z" fill="#279FD7"/>
<path d="M5.61778 6.54406C5.16511 6.86005 4.82031 7.30733 4.62996 7.82554C4.58923 7.93657 4.59002 8.05858 4.63218 8.16909C4.67434 8.27965 4.75503 8.37107 4.85937 8.42681C5.56787 8.80418 6.3585 9.00111 7.16125 8.99997C7.96399 9.00111 8.75462 8.80418 9.46312 8.42681C9.56746 8.37107 9.64815 8.27965 9.69032 8.16909C9.73248 8.05858 9.73326 7.93657 9.69253 7.82554C9.50218 7.30733 9.15739 6.86005 8.70471 6.54406C8.25204 6.22809 7.71329 6.05865 7.16125 6.05865C6.6092 6.05865 6.07045 6.22809 5.61778 6.54406Z" fill="#279FD7"/>
<path d="M7.03143 1.4307C7.3072 1.15493 7.68124 1 8.07125 1C8.46126 1 8.83529 1.15493 9.11107 1.4307C9.38684 1.70649 9.54179 2.08052 9.54179 2.47053C9.54179 2.86054 9.38684 3.23458 9.11107 3.51036C8.83529 3.78613 8.46126 3.94106 8.07125 3.94106C7.68124 3.94106 7.3072 3.78613 7.03143 3.51036C6.75565 3.23458 6.60071 2.86054 6.60071 2.47053C6.60071 2.08052 6.75565 1.70649 7.03143 1.4307Z" fill="url(#paint5_linear_62_458)"/>
<path d="M6.52781 5.40655C6.07514 5.72253 5.73035 6.16982 5.54 6.68802C5.49926 6.79906 5.50006 6.92107 5.54222 7.03158C5.58437 7.14213 5.66507 7.23356 5.7694 7.2893C6.4779 7.66667 7.26853 7.8636 8.07129 7.86246C8.87403 7.8636 9.66465 7.66667 10.3732 7.2893C10.4775 7.23356 10.5582 7.14213 10.6004 7.03158C10.6425 6.92107 10.6433 6.79906 10.6026 6.68802C10.4122 6.16982 10.0674 5.72253 9.61475 5.40655C9.16207 5.09057 8.62332 4.92114 8.07129 4.92114C7.51924 4.92114 6.98048 5.09057 6.52781 5.40655Z" fill="url(#paint6_linear_62_458)"/>
</g>
<defs>
<linearGradient id="paint0_linear_62_458" x1="2.4" y1="16.005" x2="8.80811" y2="-0.818382" gradientUnits="userSpaceOnUse">
<stop stop-color="#22B4FA"/>
<stop offset="1" stop-color="#6BD6FE"/>
</linearGradient>
<linearGradient id="paint1_linear_62_458" x1="7.21411" y1="11.0714" x2="11.1426" y2="7.1427" gradientUnits="userSpaceOnUse">
<stop stop-color="#6BD6FE"/>
<stop offset="1" stop-color="white"/>
</linearGradient>
<linearGradient id="paint2_linear_62_458" x1="3.28577" y1="11.0714" x2="6.42858" y2="9.5" gradientUnits="userSpaceOnUse">
<stop stop-color="#6BD6FE"/>
<stop offset="1" stop-color="white"/>
</linearGradient>
<linearGradient id="paint3_linear_62_458" x1="3.28552" y1="13.4285" x2="7.21404" y2="9.49982" gradientUnits="userSpaceOnUse">
<stop stop-color="#6BD6FE"/>
<stop offset="1" stop-color="white"/>
</linearGradient>
<linearGradient id="paint4_linear_62_458" x1="10.3571" y1="13.4285" x2="13.4999" y2="11.8571" gradientUnits="userSpaceOnUse">
<stop stop-color="#6BD6FE"/>
<stop offset="1" stop-color="white"/>
</linearGradient>
<linearGradient id="paint5_linear_62_458" x1="6.60071" y1="3.94106" x2="10.0608" y2="3.07604" gradientUnits="userSpaceOnUse">
<stop stop-color="#6BD6FE"/>
<stop offset="1" stop-color="white"/>
</linearGradient>
<linearGradient id="paint6_linear_62_458" x1="5.51001" y1="7.86247" x2="10.8928" y2="5.51883" gradientUnits="userSpaceOnUse">
<stop stop-color="#6BD6FE"/>
<stop offset="1" stop-color="white"/>
</linearGradient>
<clipPath id="clip0_62_458">
<rect width="16" height="16" fill="white"/>
</clipPath>
</defs>
</svg>
