<svg width="16" height="16" viewBox="0 0 16 16" fill="none" xmlns="http://www.w3.org/2000/svg">
<g clip-path="url(#clip0_58_966)">
<path fill-rule="evenodd" clip-rule="evenodd" d="M5 0H10.18C10.97 0 11.728 0.314 12.287 0.872C12.817 1.403 13.597 2.183 14.128 2.713C14.686 3.272 15 4.03 15 4.82V13.021C15 13.811 14.686 14.569 14.128 15.128C13.569 15.686 12.811 16 12.021 16C9.796 16 6.204 16 3.979 16C3.189 16 2.431 15.686 1.872 15.128C1.314 14.569 1 13.811 1 13.021V4C1 3.448 1.448 3 2 3C3.104 3 4 2.104 4 1C4 0.448 4.448 0 5 0ZM3 1C3 1.552 2.552 2 2 2C1.448 2 1 1.552 1 1C1 0.448 1.448 0 2 0C2.552 0 3 0.448 3 1Z" fill="url(#paint0_linear_58_966)"/>
<path fill-rule="evenodd" clip-rule="evenodd" d="M7.21429 10.9643H11.9285C12.3622 10.9643 12.7142 10.6123 12.7142 10.1786C12.7142 9.74488 12.3622 9.39288 11.9285 9.39288H7.21429C6.78058 9.39288 6.42859 9.74488 6.42859 10.1786C6.42859 10.6123 6.78058 10.9643 7.21429 10.9643Z" fill="#C747C8"/>
<path fill-rule="evenodd" clip-rule="evenodd" d="M3.2857 10.9643H4.85711C5.29082 10.9643 5.64281 10.6123 5.64281 10.1786C5.64281 9.74488 5.29082 9.39288 4.85711 9.39288H3.2857C2.852 9.39288 2.5 9.74488 2.5 10.1786C2.5 10.6123 2.852 10.9643 3.2857 10.9643Z" fill="#C747C8"/>
<path fill-rule="evenodd" clip-rule="evenodd" d="M7.99998 10.5714H12.7142C13.1475 10.5714 13.5 10.2194 13.5 9.7857C13.5 9.352 13.1475 9 12.7142 9H7.99998C7.56661 9 7.21411 9.352 7.21411 9.7857C7.21411 10.2194 7.56661 10.5714 7.99998 10.5714Z" fill="url(#paint1_linear_58_966)"/>
<path fill-rule="evenodd" clip-rule="evenodd" d="M4.07147 10.5714H5.64287C6.07647 10.5714 6.42858 10.2194 6.42858 9.7857C6.42858 9.352 6.07647 9 5.64287 9H4.07147C3.63787 9 3.28577 9.352 3.28577 9.7857C3.28577 10.2194 3.63787 10.5714 4.07147 10.5714Z" fill="url(#paint2_linear_58_966)"/>
<path fill-rule="evenodd" clip-rule="evenodd" d="M3.2857 13.3215H7.99989C8.4336 13.3215 8.78559 12.9695 8.78559 12.5358C8.78559 12.1021 8.4336 11.7501 7.99989 11.7501H3.2857C2.852 11.7501 2.5 12.1021 2.5 12.5358C2.5 12.9695 2.852 13.3215 3.2857 13.3215Z" fill="#C747C8"/>
<path fill-rule="evenodd" clip-rule="evenodd" d="M10.3571 13.3215H11.9285C12.3622 13.3215 12.7142 12.9695 12.7142 12.5358C12.7142 12.1021 12.3622 11.7501 11.9285 11.7501H10.3571C9.92341 11.7501 9.57141 12.1021 9.57141 12.5358C9.57141 12.9695 9.92341 13.3215 10.3571 13.3215Z" fill="#C747C8"/>
<path fill-rule="evenodd" clip-rule="evenodd" d="M4.07139 12.9285H8.78557C9.21895 12.9285 9.57145 12.5765 9.57145 12.1428C9.57145 11.7091 9.21895 11.3571 8.78557 11.3571H4.07139C3.63802 11.3571 3.28552 11.7091 3.28552 12.1428C3.28552 12.5765 3.63802 12.9285 4.07139 12.9285Z" fill="url(#paint3_linear_58_966)"/>
<path fill-rule="evenodd" clip-rule="evenodd" d="M11.1428 12.9285H12.7142C13.1478 12.9285 13.4999 12.5765 13.4999 12.1428C13.4999 11.7091 13.1478 11.3571 12.7142 11.3571H11.1428C10.7092 11.3571 10.3571 11.7091 10.3571 12.1428C10.3571 12.5765 10.7092 12.9285 11.1428 12.9285Z" fill="url(#paint4_linear_58_966)"/>
<path d="M5.7428 4.93827C5.82654 5.15924 5.63511 5.36719 5.3988 5.36719H5.21059C5.06272 5.36719 4.94539 5.25264 4.87926 5.12038V5.12038C4.84257 5.04699 4.79403 4.98426 4.73366 4.93217C4.6733 4.88009 4.60168 4.84044 4.51882 4.81321C4.43715 4.7848 4.34659 4.7706 4.24716 4.7706C4.07079 4.7706 3.91868 4.8138 3.79084 4.90021C3.66418 4.98662 3.56652 5.11151 3.49787 5.27486C3.4304 5.43821 3.39666 5.63589 3.39666 5.8679C3.39666 6.10938 3.43099 6.31179 3.49964 6.47514C3.56948 6.63731 3.66714 6.75982 3.79261 6.84268C3.91927 6.92436 4.06901 6.9652 4.24183 6.9652C4.3389 6.9652 4.42708 6.95277 4.50639 6.92791C4.58688 6.90305 4.65732 6.86695 4.71768 6.8196C4.77924 6.77107 4.82955 6.71248 4.86861 6.64382V6.64382C4.94119 6.51787 5.05844 6.40831 5.2038 6.40918L5.40244 6.41037C5.63743 6.41178 5.82258 6.61905 5.72599 6.83328C5.71762 6.85184 5.70882 6.87036 5.69957 6.88885C5.62263 7.0451 5.51669 7.18774 5.38175 7.31676C5.2468 7.4446 5.08227 7.5464 4.88814 7.62216C4.69519 7.69792 4.47384 7.7358 4.22408 7.7358C3.895 7.7358 3.60026 7.66359 3.33984 7.51918C3.08061 7.37358 2.87583 7.1617 2.7255 6.88352C2.57517 6.60535 2.5 6.26681 2.5 5.8679C2.5 5.4678 2.57635 5.12867 2.72905 4.8505C2.88175 4.57232 3.0883 4.36103 3.34872 4.21662C3.60914 4.07221 3.90092 4 4.22408 4C4.44425 4 4.64785 4.03078 4.83487 4.09233C5.0219 4.1527 5.18643 4.24148 5.32848 4.35866C5.47053 4.47467 5.58594 4.61731 5.67472 4.78658C5.70019 4.83514 5.72288 4.88571 5.7428 4.93827Z" fill="black"/>
<path d="M5.7428 4.93827C5.82654 5.15924 5.63511 5.36719 5.3988 5.36719H5.21059C5.06272 5.36719 4.94539 5.25264 4.87926 5.12038V5.12038C4.84257 5.04699 4.79403 4.98426 4.73366 4.93217C4.6733 4.88009 4.60168 4.84044 4.51882 4.81321C4.43715 4.7848 4.34659 4.7706 4.24716 4.7706C4.07079 4.7706 3.91868 4.8138 3.79084 4.90021C3.66418 4.98662 3.56652 5.11151 3.49787 5.27486C3.4304 5.43821 3.39666 5.63589 3.39666 5.8679C3.39666 6.10938 3.43099 6.31179 3.49964 6.47514C3.56948 6.63731 3.66714 6.75982 3.79261 6.84268C3.91927 6.92436 4.06901 6.9652 4.24183 6.9652C4.3389 6.9652 4.42708 6.95277 4.50639 6.92791C4.58688 6.90305 4.65732 6.86695 4.71768 6.8196C4.77924 6.77107 4.82955 6.71248 4.86861 6.64382V6.64382C4.94119 6.51787 5.05844 6.40831 5.2038 6.40918L5.40244 6.41037C5.63743 6.41178 5.82258 6.61905 5.72599 6.83328C5.71762 6.85184 5.70882 6.87036 5.69957 6.88885C5.62263 7.0451 5.51669 7.18774 5.38175 7.31676C5.2468 7.4446 5.08227 7.5464 4.88814 7.62216C4.69519 7.69792 4.47384 7.7358 4.22408 7.7358C3.895 7.7358 3.60026 7.66359 3.33984 7.51918C3.08061 7.37358 2.87583 7.1617 2.7255 6.88352C2.57517 6.60535 2.5 6.26681 2.5 5.8679C2.5 5.4678 2.57635 5.12867 2.72905 4.8505C2.88175 4.57232 3.0883 4.36103 3.34872 4.21662C3.60914 4.07221 3.90092 4 4.22408 4C4.44425 4 4.64785 4.03078 4.83487 4.09233C5.0219 4.1527 5.18643 4.24148 5.32848 4.35866C5.47053 4.47467 5.58594 4.61731 5.67472 4.78658C5.70019 4.83514 5.72288 4.88571 5.7428 4.93827Z" fill="#C747C8"/>
<path d="M8.66112 5.13991C8.46132 5.13991 8.30845 4.95841 8.1503 4.83629V4.83629C8.05797 4.7629 7.92599 4.72621 7.75435 4.72621C7.64071 4.72621 7.54602 4.741 7.47026 4.7706C7.3945 4.80019 7.33768 4.84103 7.2998 4.89311C7.26193 4.94401 7.24239 5.0026 7.24121 5.06889C7.23884 5.12334 7.2495 5.17128 7.27317 5.21271C7.29803 5.25414 7.33354 5.29084 7.37971 5.3228C7.42705 5.35357 7.48387 5.3808 7.55016 5.40447C7.61645 5.42815 7.69102 5.44886 7.77388 5.46662L8.08638 5.53764C8.26631 5.5767 8.42492 5.62879 8.56223 5.69389C8.70073 5.759 8.81673 5.83653 8.91024 5.92649C9.00494 6.01645 9.07656 6.12003 9.12509 6.23722C9.17362 6.3544 9.19848 6.4858 9.19966 6.63139C9.19848 6.86103 9.14048 7.05812 9.02566 7.22266C8.91084 7.38719 8.74571 7.51326 8.53027 7.60085C8.31602 7.68845 8.05738 7.73224 7.75435 7.73224C7.45014 7.73224 7.18498 7.68667 6.9589 7.59553C6.73281 7.50438 6.55703 7.36589 6.43155 7.18004C6.37077 7.09002 6.32429 6.98846 6.29212 6.87538C6.23114 6.66102 6.42018 6.47514 6.64305 6.47514H6.76783C6.943 6.47514 7.07212 6.62542 7.17374 6.76811V6.76811C7.22937 6.84624 7.30572 6.90542 7.40279 6.94567C7.50104 6.98591 7.61467 7.00604 7.7437 7.00604C7.86207 7.00604 7.96268 6.99006 8.04554 6.9581C8.12959 6.92614 8.1941 6.88175 8.23908 6.82493C8.28406 6.76811 8.30714 6.70301 8.30833 6.62962C8.30714 6.56096 8.28584 6.50237 8.24441 6.45384C8.20298 6.40412 8.13906 6.36151 8.05265 6.32599C7.96742 6.2893 7.85852 6.25556 7.72594 6.22479L7.34597 6.13601C7.0311 6.0638 6.78311 5.94721 6.60201 5.78622C6.4209 5.62405 6.33094 5.40507 6.33212 5.12926C6.33094 4.90436 6.39131 4.70727 6.51323 4.538C6.63515 4.36873 6.80383 4.23674 7.01927 4.14205C7.2347 4.04735 7.48032 4 7.75613 4C8.03785 4 8.28229 4.04794 8.48944 4.14382C8.69777 4.23852 8.85935 4.37169 8.97417 4.54332C9.0165 4.60661 9.05119 4.67359 9.07824 4.74428C9.15777 4.95214 8.96829 5.13991 8.74574 5.13991H8.66112Z" fill="black"/>
<path d="M8.66112 5.13991C8.46132 5.13991 8.30845 4.95841 8.1503 4.83629V4.83629C8.05797 4.7629 7.92599 4.72621 7.75435 4.72621C7.64071 4.72621 7.54602 4.741 7.47026 4.7706C7.3945 4.80019 7.33768 4.84103 7.2998 4.89311C7.26193 4.94401 7.24239 5.0026 7.24121 5.06889C7.23884 5.12334 7.2495 5.17128 7.27317 5.21271C7.29803 5.25414 7.33354 5.29084 7.37971 5.3228C7.42705 5.35357 7.48387 5.3808 7.55016 5.40447C7.61645 5.42815 7.69102 5.44886 7.77388 5.46662L8.08638 5.53764C8.26631 5.5767 8.42492 5.62879 8.56223 5.69389C8.70073 5.759 8.81673 5.83653 8.91024 5.92649C9.00494 6.01645 9.07656 6.12003 9.12509 6.23722C9.17362 6.3544 9.19848 6.4858 9.19966 6.63139C9.19848 6.86103 9.14048 7.05812 9.02566 7.22266C8.91084 7.38719 8.74571 7.51326 8.53027 7.60085C8.31602 7.68845 8.05738 7.73224 7.75435 7.73224C7.45014 7.73224 7.18498 7.68667 6.9589 7.59553C6.73281 7.50438 6.55703 7.36589 6.43155 7.18004C6.37077 7.09002 6.32429 6.98846 6.29212 6.87538C6.23114 6.66102 6.42018 6.47514 6.64305 6.47514H6.76783C6.943 6.47514 7.07212 6.62542 7.17374 6.76811V6.76811C7.22937 6.84624 7.30572 6.90542 7.40279 6.94567C7.50104 6.98591 7.61467 7.00604 7.7437 7.00604C7.86207 7.00604 7.96268 6.99006 8.04554 6.9581C8.12959 6.92614 8.1941 6.88175 8.23908 6.82493C8.28406 6.76811 8.30714 6.70301 8.30833 6.62962C8.30714 6.56096 8.28584 6.50237 8.24441 6.45384C8.20298 6.40412 8.13906 6.36151 8.05265 6.32599C7.96742 6.2893 7.85852 6.25556 7.72594 6.22479L7.34597 6.13601C7.0311 6.0638 6.78311 5.94721 6.60201 5.78622C6.4209 5.62405 6.33094 5.40507 6.33212 5.12926C6.33094 4.90436 6.39131 4.70727 6.51323 4.538C6.63515 4.36873 6.80383 4.23674 7.01927 4.14205C7.2347 4.04735 7.48032 4 7.75613 4C8.03785 4 8.28229 4.04794 8.48944 4.14382C8.69777 4.23852 8.85935 4.37169 8.97417 4.54332C9.0165 4.60661 9.05119 4.67359 9.07824 4.74428C9.15777 4.95214 8.96829 5.13991 8.74574 5.13991H8.66112Z" fill="#C747C8"/>
<path d="M11.9619 5.13991C11.7621 5.13991 11.6092 4.95841 11.4511 4.83629V4.83629C11.3588 4.7629 11.2268 4.72621 11.0551 4.72621C10.9415 4.72621 10.8468 4.741 10.771 4.7706C10.6953 4.80019 10.6385 4.84103 10.6006 4.89311C10.5627 4.94401 10.5432 5.0026 10.542 5.06889C10.5396 5.12334 10.5503 5.17128 10.574 5.21271C10.5988 5.25414 10.6343 5.29084 10.6805 5.3228C10.7278 5.35357 10.7847 5.3808 10.8509 5.40447C10.9172 5.42815 10.9918 5.44886 11.0747 5.46662L11.3872 5.53764C11.5671 5.5767 11.7257 5.62879 11.863 5.69389C12.0015 5.759 12.1175 5.83653 12.211 5.92649C12.3057 6.01645 12.3773 6.12003 12.4259 6.23722C12.4744 6.3544 12.4993 6.4858 12.5004 6.63139C12.4993 6.86103 12.4413 7.05812 12.3264 7.22266C12.2116 7.38719 12.0465 7.51326 11.8311 7.60085C11.6168 7.68845 11.3582 7.73224 11.0551 7.73224C10.7509 7.73224 10.4858 7.68667 10.2597 7.59553C10.0336 7.50438 9.85781 7.36589 9.73233 7.18004C9.67155 7.09002 9.62507 6.98846 9.5929 6.87538C9.53192 6.66102 9.72096 6.47514 9.94383 6.47514H10.0686C10.2438 6.47514 10.3729 6.62542 10.4745 6.76811V6.76811C10.5302 6.84624 10.6065 6.90542 10.7036 6.94567C10.8018 6.98591 10.9155 7.00604 11.0445 7.00604C11.1628 7.00604 11.2635 6.99006 11.3463 6.9581C11.4304 6.92614 11.4949 6.88175 11.5399 6.82493C11.5848 6.76811 11.6079 6.70301 11.6091 6.62962C11.6079 6.56096 11.5866 6.50237 11.5452 6.45384C11.5038 6.40412 11.4398 6.36151 11.3534 6.32599C11.2682 6.2893 11.1593 6.25556 11.0267 6.22479L10.6468 6.13601C10.3319 6.0638 10.0839 5.94721 9.90279 5.78622C9.72168 5.62405 9.63172 5.40507 9.6329 5.12926C9.63172 4.90436 9.69209 4.70727 9.81401 4.538C9.93593 4.36873 10.1046 4.23674 10.32 4.14205C10.5355 4.04735 10.7811 4 11.0569 4C11.3386 4 11.5831 4.04794 11.7902 4.14382C11.9985 4.23852 12.1601 4.37169 12.2749 4.54332C12.3173 4.60661 12.352 4.67359 12.379 4.74428C12.4586 4.95214 12.2691 5.13991 12.0465 5.13991H11.9619Z" fill="black"/>
<path d="M11.9619 5.13991C11.7621 5.13991 11.6092 4.95841 11.4511 4.83629V4.83629C11.3588 4.7629 11.2268 4.72621 11.0551 4.72621C10.9415 4.72621 10.8468 4.741 10.771 4.7706C10.6953 4.80019 10.6385 4.84103 10.6006 4.89311C10.5627 4.94401 10.5432 5.0026 10.542 5.06889C10.5396 5.12334 10.5503 5.17128 10.574 5.21271C10.5988 5.25414 10.6343 5.29084 10.6805 5.3228C10.7278 5.35357 10.7847 5.3808 10.8509 5.40447C10.9172 5.42815 10.9918 5.44886 11.0747 5.46662L11.3872 5.53764C11.5671 5.5767 11.7257 5.62879 11.863 5.69389C12.0015 5.759 12.1175 5.83653 12.211 5.92649C12.3057 6.01645 12.3773 6.12003 12.4259 6.23722C12.4744 6.3544 12.4993 6.4858 12.5004 6.63139C12.4993 6.86103 12.4413 7.05812 12.3264 7.22266C12.2116 7.38719 12.0465 7.51326 11.8311 7.60085C11.6168 7.68845 11.3582 7.73224 11.0551 7.73224C10.7509 7.73224 10.4858 7.68667 10.2597 7.59553C10.0336 7.50438 9.85781 7.36589 9.73233 7.18004C9.67155 7.09002 9.62507 6.98846 9.5929 6.87538C9.53192 6.66102 9.72096 6.47514 9.94383 6.47514H10.0686C10.2438 6.47514 10.3729 6.62542 10.4745 6.76811V6.76811C10.5302 6.84624 10.6065 6.90542 10.7036 6.94567C10.8018 6.98591 10.9155 7.00604 11.0445 7.00604C11.1628 7.00604 11.2635 6.99006 11.3463 6.9581C11.4304 6.92614 11.4949 6.88175 11.5399 6.82493C11.5848 6.76811 11.6079 6.70301 11.6091 6.62962C11.6079 6.56096 11.5866 6.50237 11.5452 6.45384C11.5038 6.40412 11.4398 6.36151 11.3534 6.32599C11.2682 6.2893 11.1593 6.25556 11.0267 6.22479L10.6468 6.13601C10.3319 6.0638 10.0839 5.94721 9.90279 5.78622C9.72168 5.62405 9.63172 5.40507 9.6329 5.12926C9.63172 4.90436 9.69209 4.70727 9.81401 4.538C9.93593 4.36873 10.1046 4.23674 10.32 4.14205C10.5355 4.04735 10.7811 4 11.0569 4C11.3386 4 11.5831 4.04794 11.7902 4.14382C11.9985 4.23852 12.1601 4.37169 12.2749 4.54332C12.3173 4.60661 12.352 4.67359 12.379 4.74428C12.4586 4.95214 12.2691 5.13991 12.0465 5.13991H11.9619Z" fill="#C747C8"/>
<path d="M6.47901 4.25218C6.56274 4.47315 6.37132 4.68109 6.13501 4.68109H5.94679C5.79892 4.68109 5.6816 4.56655 5.61547 4.43429V4.43429C5.57877 4.3609 5.53024 4.29816 5.46987 4.24608C5.4095 4.19399 5.33789 4.15434 5.25503 4.12711C5.17335 4.0987 5.0828 4.0845 4.98337 4.0845C4.80699 4.0845 4.65489 4.12771 4.52704 4.21412C4.40039 4.30053 4.30273 4.42541 4.23408 4.58876C4.1666 4.75211 4.13287 4.94979 4.13287 5.1818C4.13287 5.42328 4.1672 5.62569 4.23585 5.78905C4.30569 5.95121 4.40335 6.07373 4.52882 6.15659C4.65548 6.23826 4.80522 6.2791 4.97804 6.2791C5.0751 6.2791 5.16329 6.26667 5.2426 6.24182C5.32309 6.21696 5.39352 6.18085 5.45389 6.13351C5.51544 6.08497 5.56575 6.02638 5.60481 5.95772V5.95772C5.6774 5.83177 5.79464 5.72221 5.94001 5.72308L6.13864 5.72428C6.37363 5.72569 6.55879 5.93296 6.4622 6.14718C6.45383 6.16574 6.44502 6.18426 6.43578 6.20275C6.35884 6.359 6.2529 6.50164 6.11795 6.63067C5.98301 6.75851 5.81847 6.86031 5.62435 6.93606C5.4314 7.01182 5.21005 7.0497 4.96028 7.0497C4.63121 7.0497 4.33647 6.97749 4.07605 6.83308C3.81682 6.68748 3.61203 6.4756 3.4617 6.19743C3.31137 5.91925 3.23621 5.58071 3.23621 5.1818C3.23621 4.78171 3.31256 4.44257 3.46525 4.1644C3.61795 3.88623 3.82451 3.67494 4.08493 3.53052C4.34534 3.38611 4.63713 3.3139 4.96028 3.3139C5.18045 3.3139 5.38405 3.34468 5.57108 3.40623C5.7581 3.4666 5.92264 3.55538 6.06469 3.67257C6.20673 3.78857 6.32214 3.93121 6.41092 4.10048C6.43639 4.14905 6.45909 4.19961 6.47901 4.25218Z" fill="url(#paint5_linear_58_966)"/>
<path d="M9.39733 4.45382C9.19752 4.45382 9.04466 4.27231 8.88651 4.1502V4.1502C8.79418 4.07681 8.66219 4.04011 8.49056 4.04011C8.37692 4.04011 8.28222 4.05491 8.20647 4.0845C8.13071 4.11409 8.07389 4.15493 8.03601 4.20701C7.99813 4.25791 7.9786 4.31651 7.97742 4.3828C7.97505 4.43725 7.9857 4.48519 8.00938 4.52662C8.03424 4.56805 8.06975 4.60474 8.11591 4.6367C8.16326 4.66748 8.22008 4.6947 8.28637 4.71838C8.35265 4.74205 8.42723 4.76277 8.51009 4.78052L8.82259 4.85155C9.00251 4.89061 9.16113 4.94269 9.29844 5.0078C9.43693 5.0729 9.55294 5.15043 9.64645 5.2404C9.74115 5.33036 9.81276 5.43393 9.86129 5.55112C9.90983 5.66831 9.93468 5.7997 9.93587 5.9453C9.93468 6.17494 9.87668 6.37202 9.76186 6.53656C9.64704 6.7011 9.48192 6.82716 9.26648 6.91476C9.05223 7.00235 8.79359 7.04615 8.49056 7.04615C8.18634 7.04615 7.92119 7.00058 7.6951 6.90943C7.46901 6.81828 7.29323 6.67979 7.16776 6.49395C7.10698 6.40392 7.0605 6.30237 7.02833 6.18928C6.96734 5.97492 7.15638 5.78905 7.37925 5.78905H7.50403C7.67921 5.78905 7.80833 5.93932 7.90995 6.08201V6.08201C7.96558 6.16014 8.04193 6.21933 8.13899 6.25957C8.23724 6.29982 8.35088 6.31994 8.4799 6.31994C8.59827 6.31994 8.69889 6.30396 8.78175 6.272C8.86579 6.24004 8.93031 6.19565 8.97529 6.13883C9.02027 6.08201 9.04335 6.01691 9.04453 5.94352C9.04335 5.87486 9.02204 5.81627 8.98061 5.76774C8.93918 5.71802 8.87526 5.67541 8.78885 5.6399C8.70362 5.6032 8.59472 5.56947 8.46215 5.53869L8.08218 5.44991C7.76731 5.37771 7.51932 5.26111 7.33821 5.10013C7.1571 4.93796 7.06714 4.71897 7.06833 4.44317C7.06714 4.21826 7.12751 4.02117 7.24943 3.8519C7.37136 3.68263 7.54004 3.55065 7.75547 3.45595C7.97091 3.36125 8.21653 3.3139 8.49233 3.3139C8.77406 3.3139 9.01849 3.36184 9.22564 3.45772C9.43397 3.55242 9.59555 3.68559 9.71037 3.85723C9.75271 3.92051 9.7874 3.9875 9.81445 4.05819C9.89398 4.26604 9.70449 4.45382 9.48194 4.45382H9.39733Z" fill="url(#paint6_linear_58_966)"/>
<path d="M12.6981 4.45382C12.4983 4.45382 12.3454 4.27231 12.1873 4.1502V4.1502C12.095 4.07681 11.963 4.04011 11.7913 4.04011C11.6777 4.04011 11.583 4.05491 11.5072 4.0845C11.4315 4.11409 11.3747 4.15493 11.3368 4.20701C11.2989 4.25791 11.2794 4.31651 11.2782 4.3828C11.2758 4.43725 11.2865 4.48519 11.3102 4.52662C11.335 4.56805 11.3705 4.60474 11.4167 4.6367C11.464 4.66748 11.5209 4.6947 11.5871 4.71838C11.6534 4.74205 11.728 4.76277 11.8109 4.78052L12.1234 4.85155C12.3033 4.89061 12.4619 4.94269 12.5992 5.0078C12.7377 5.0729 12.8537 5.15043 12.9472 5.2404C13.0419 5.33036 13.1135 5.43393 13.1621 5.55112C13.2106 5.66831 13.2355 5.7997 13.2367 5.9453C13.2355 6.17494 13.1775 6.37202 13.0626 6.53656C12.9478 6.7011 12.7827 6.82716 12.5673 6.91476C12.353 7.00235 12.0944 7.04615 11.7913 7.04615C11.4871 7.04615 11.222 7.00058 10.9959 6.90943C10.7698 6.81828 10.594 6.67979 10.4685 6.49395C10.4078 6.40392 10.3613 6.30237 10.3291 6.18928C10.2681 5.97492 10.4572 5.78905 10.68 5.78905H10.8048C10.98 5.78905 11.1091 5.93932 11.2107 6.08201V6.08201C11.2664 6.16014 11.3427 6.21933 11.4398 6.25957C11.538 6.29982 11.6517 6.31994 11.7807 6.31994C11.8991 6.31994 11.9997 6.30396 12.0825 6.272C12.1666 6.24004 12.2311 6.19565 12.2761 6.13883C12.321 6.08201 12.3441 6.01691 12.3453 5.94352C12.3441 5.87486 12.3228 5.81627 12.2814 5.76774C12.24 5.71802 12.176 5.67541 12.0896 5.6399C12.0044 5.6032 11.8955 5.56947 11.7629 5.53869L11.383 5.44991C11.0681 5.37771 10.8201 5.26111 10.639 5.10013C10.4579 4.93796 10.3679 4.71897 10.3691 4.44317C10.3679 4.21826 10.4283 4.02117 10.5502 3.8519C10.6721 3.68263 10.8408 3.55065 11.0563 3.45595C11.2717 3.36125 11.5173 3.3139 11.7931 3.3139C12.0748 3.3139 12.3193 3.36184 12.5264 3.45772C12.7348 3.55242 12.8963 3.68559 13.0112 3.85723C13.0535 3.92051 13.0882 3.9875 13.1152 4.05819C13.1948 4.26604 13.0053 4.45382 12.7827 4.45382H12.6981Z" fill="url(#paint7_linear_58_966)"/>
</g>
<defs>
<linearGradient id="paint0_linear_58_966" x1="8" y1="24.4444" x2="8" y2="-4.37101e-06" gradientUnits="userSpaceOnUse">
<stop stop-color="#A93AFF"/>
<stop offset="1" stop-color="#FF81FF"/>
</linearGradient>
<linearGradient id="paint1_linear_58_966" x1="8.78559" y1="10.5714" x2="11.237" y2="7.30277" gradientUnits="userSpaceOnUse">
<stop stop-color="#F59AFD"/>
<stop offset="1" stop-color="white"/>
</linearGradient>
<linearGradient id="paint2_linear_58_966" x1="4.07147" y1="10.5714" x2="6.42858" y2="9" gradientUnits="userSpaceOnUse">
<stop stop-color="#F59AFD"/>
<stop offset="1" stop-color="white"/>
</linearGradient>
<linearGradient id="paint3_linear_58_966" x1="4.857" y1="12.9285" x2="7.30837" y2="9.65989" gradientUnits="userSpaceOnUse">
<stop stop-color="#F59AFD"/>
<stop offset="1" stop-color="white"/>
</linearGradient>
<linearGradient id="paint4_linear_58_966" x1="11.1428" y1="12.9285" x2="13.4999" y2="11.3571" gradientUnits="userSpaceOnUse">
<stop stop-color="#F59AFD"/>
<stop offset="1" stop-color="white"/>
</linearGradient>
<linearGradient id="paint5_linear_58_966" x1="5.75" y1="6" x2="12.2255" y2="0.0641506" gradientUnits="userSpaceOnUse">
<stop stop-color="#F9B4FF"/>
<stop offset="1" stop-color="#FEF5FF"/>
</linearGradient>
<linearGradient id="paint6_linear_58_966" x1="5.75" y1="6" x2="12.2255" y2="0.0641506" gradientUnits="userSpaceOnUse">
<stop stop-color="#F9B4FF"/>
<stop offset="1" stop-color="#FEF5FF"/>
</linearGradient>
<linearGradient id="paint7_linear_58_966" x1="5.75" y1="6" x2="12.2255" y2="0.0641506" gradientUnits="userSpaceOnUse">
<stop stop-color="#F9B4FF"/>
<stop offset="1" stop-color="#FEF5FF"/>
</linearGradient>
<clipPath id="clip0_58_966">
<rect width="16" height="16" fill="white"/>
</clipPath>
</defs>
</svg>
