<svg width="16" height="16" viewBox="0 0 16 16" fill="none" xmlns="http://www.w3.org/2000/svg">
<g clip-path="url(#clip0_54_609)">
<path fill-rule="evenodd" clip-rule="evenodd" d="M5 0H10.18C10.97 0 11.728 0.314 12.287 0.872C12.817 1.403 13.597 2.183 14.128 2.713C14.686 3.272 15 4.03 15 4.82V13.021C15 13.811 14.686 14.569 14.128 15.128C13.569 15.686 12.811 16 12.021 16C9.796 16 6.204 16 3.979 16C3.189 16 2.431 15.686 1.872 15.128C1.314 14.569 1 13.811 1 13.021V4C1 3.448 1.448 3 2 3C3.104 3 4 2.104 4 1C4 0.448 4.448 0 5 0ZM3 1C3 1.552 2.552 2 2 2C1.448 2 1 1.552 1 1C1 0.448 1.448 0 2 0C2.552 0 3 0.448 3 1Z" fill="url(#paint0_linear_54_609)"/>
<path fill-rule="evenodd" clip-rule="evenodd" d="M8.4122 10.4545H5.4425C5.03268 10.4545 4.70007 10.7871 4.70007 11.197C4.70007 11.6068 5.03268 11.9394 5.4425 11.9394H8.4122C8.82202 11.9394 9.15463 11.6068 9.15463 11.197C9.15463 10.7871 8.82202 10.4545 8.4122 10.4545Z" fill="#344CD8"/>
<path fill-rule="evenodd" clip-rule="evenodd" d="M10.1092 13.3182H5.4425C5.03268 13.3182 4.70007 13.6508 4.70007 14.0606C4.70007 14.4704 5.03268 14.803 5.4425 14.803H10.1092C10.519 14.803 10.8516 14.4704 10.8516 14.0606C10.8516 13.6508 10.519 13.3182 10.1092 13.3182Z" fill="#344CD8"/>
<path fill-rule="evenodd" clip-rule="evenodd" d="M9.26071 9.5H6.29101C5.88119 9.5 5.54858 9.83261 5.54858 10.2424C5.54858 10.6522 5.88119 10.9849 6.29101 10.9849H9.26071C9.67053 10.9849 10.0031 10.6522 10.0031 10.2424C10.0031 9.83261 9.67053 9.5 9.26071 9.5Z" fill="url(#paint1_linear_54_609)"/>
<path fill-rule="evenodd" clip-rule="evenodd" d="M10.9577 12.3637H6.29101C5.88119 12.3637 5.54858 12.6963 5.54858 13.1061C5.54858 13.516 5.88119 13.8486 6.29101 13.8486H10.9577C11.3675 13.8486 11.7001 13.516 11.7001 13.1061C11.7001 12.6963 11.3675 12.3637 10.9577 12.3637Z" fill="url(#paint2_linear_54_609)"/>
<path fill-rule="evenodd" clip-rule="evenodd" d="M4.30005 8.11115C4.30005 8.19518 4.36817 8.2633 4.4522 8.2633H5.35203C5.43604 8.2633 5.50418 8.19518 5.50418 8.11115V6.3978C5.50418 6.24679 5.70041 6.18801 5.78342 6.31414L6.37841 7.2182C6.43853 7.30953 6.57251 7.30953 6.63261 7.21817L7.2272 6.31434C7.3102 6.18818 7.50648 6.24695 7.50648 6.39796V8.11115C7.50648 8.19518 7.5746 8.2633 7.65863 8.2633H8.55833C8.64237 8.2633 8.71048 8.19518 8.71048 8.11115V4.27715C8.71048 4.19312 8.64237 4.125 8.55833 4.125H7.5885C7.5373 4.125 7.48953 4.15076 7.4614 4.19353L6.63272 5.45328C6.57262 5.54467 6.43862 5.54467 6.3785 5.45331L5.54946 4.19351C5.52132 4.15074 5.47355 4.125 5.42237 4.125H4.4522C4.36817 4.125 4.30005 4.19312 4.30005 4.27715V8.11115ZM10.4445 8.13751C10.505 8.20472 10.6103 8.20472 10.6708 8.13751L12.1357 6.50879C12.2238 6.41087 12.1543 6.25488 12.0226 6.25488H11.312C11.228 6.25488 11.1599 6.18676 11.1599 6.10273V4.27715C11.1599 4.19312 11.0917 4.125 11.0077 4.125H10.1078C10.0238 4.125 9.95563 4.19312 9.95563 4.27715V6.10283C9.95563 6.18687 9.88751 6.25499 9.80348 6.25499H9.09298C8.96128 6.25499 8.89179 6.41096 8.97985 6.50888L10.4445 8.13751Z" fill="#344CD8"/>
<path fill-rule="evenodd" clip-rule="evenodd" d="M5.42505 6.98615C5.42505 7.07018 5.49317 7.1383 5.5772 7.1383H6.47703C6.56104 7.1383 6.62918 7.07018 6.62918 6.98615V5.2728C6.62918 5.12179 6.82541 5.06301 6.90842 5.18914L7.50341 6.0932C7.56353 6.18453 7.69751 6.18453 7.75761 6.09317L8.3522 5.18934C8.4352 5.06318 8.63148 5.12195 8.63148 5.27296V6.98615C8.63148 7.07018 8.6996 7.1383 8.78363 7.1383H9.68333C9.76737 7.1383 9.83548 7.07018 9.83548 6.98615V3.15215C9.83548 3.06812 9.76737 3 9.68333 3H8.7135C8.6623 3 8.61453 3.02576 8.5864 3.06853L7.75772 4.32828C7.69762 4.41967 7.56362 4.41967 7.5035 4.32831L6.67446 3.06851C6.64632 3.02574 6.59855 3 6.54737 3H5.5772C5.49317 3 5.42505 3.06812 5.42505 3.15215V6.98615ZM11.5695 7.01251C11.63 7.07972 11.7353 7.07972 11.7958 7.01251L13.2607 5.38379C13.3488 5.28587 13.2793 5.12988 13.1476 5.12988H12.437C12.353 5.12988 12.2849 5.06176 12.2849 4.97773V3.15215C12.2849 3.06812 12.2167 3 12.1327 3H11.2328C11.1488 3 11.0806 3.06812 11.0806 3.15215V4.97783C11.0806 5.06187 11.0125 5.12999 10.9285 5.12999H10.218C10.0863 5.12999 10.0168 5.28596 10.1049 5.38388L11.5695 7.01251Z" fill="url(#paint3_linear_54_609)"/>
</g>
<defs>
<linearGradient id="paint0_linear_54_609" x1="1.875" y1="16.0086" x2="18.534" y2="5.74425" gradientUnits="userSpaceOnUse">
<stop stop-color="#2E4AFA"/>
<stop offset="1" stop-color="#8E9EFF"/>
</linearGradient>
<linearGradient id="paint1_linear_54_609" x1="5.54855" y1="10.9849" x2="9.74987" y2="10.6617" gradientUnits="userSpaceOnUse">
<stop stop-color="#8E9EFF"/>
<stop offset="1" stop-color="white"/>
</linearGradient>
<linearGradient id="paint2_linear_54_609" x1="5.54854" y1="13.8486" x2="11.3196" y2="13.2355" gradientUnits="userSpaceOnUse">
<stop stop-color="#8E9EFF"/>
<stop offset="1" stop-color="white"/>
</linearGradient>
<linearGradient id="paint3_linear_54_609" x1="5.42499" y1="7.1383" x2="12.8785" y2="6.77461" gradientUnits="userSpaceOnUse">
<stop stop-color="#8E9EFF"/>
<stop offset="1" stop-color="white"/>
</linearGradient>
<clipPath id="clip0_54_609">
<rect width="16" height="16" fill="white"/>
</clipPath>
</defs>
</svg>
