<svg width="16" height="16" viewBox="0 0 16 16" fill="none" xmlns="http://www.w3.org/2000/svg">
<g clip-path="url(#clip0_62_608)">
<path fill-rule="evenodd" clip-rule="evenodd" d="M5 0H10.18C10.97 0 11.728 0.314 12.287 0.872C12.817 1.403 13.597 2.183 14.128 2.713C14.686 3.272 15 4.03 15 4.82V13.021C15 13.811 14.686 14.569 14.128 15.128C13.569 15.686 12.811 16 12.021 16C9.796 16 6.204 16 3.979 16C3.189 16 2.431 15.686 1.872 15.128C1.314 14.569 1 13.811 1 13.021V4C1 3.448 1.448 3 2 3C3.104 3 4 2.104 4 1C4 0.448 4.448 0 5 0ZM3 1C3 1.552 2.552 2 2 2C1.448 2 1 1.552 1 1C1 0.448 1.448 0 2 0C2.552 0 3 0.448 3 1Z" fill="url(#paint0_linear_62_608)"/>
<path fill-rule="evenodd" clip-rule="evenodd" d="M3.2857 13.3215H7.99989C8.4336 13.3215 8.78559 12.9695 8.78559 12.5358C8.78559 12.1021 8.4336 11.7501 7.99989 11.7501H3.2857C2.852 11.7501 2.5 12.1021 2.5 12.5358C2.5 12.9695 2.852 13.3215 3.2857 13.3215Z" fill="#D49F34"/>
<path fill-rule="evenodd" clip-rule="evenodd" d="M10.3571 13.3215H11.9285C12.3622 13.3215 12.7142 12.9695 12.7142 12.5358C12.7142 12.1021 12.3622 11.7501 11.9285 11.7501H10.3571C9.92341 11.7501 9.57141 12.1021 9.57141 12.5358C9.57141 12.9695 9.92341 13.3215 10.3571 13.3215Z" fill="#D49F34"/>
<path fill-rule="evenodd" clip-rule="evenodd" d="M4.07139 12.9285H8.78557C9.21895 12.9285 9.57145 12.5765 9.57145 12.1428C9.57145 11.7091 9.21895 11.3571 8.78557 11.3571H4.07139C3.63802 11.3571 3.28552 11.7091 3.28552 12.1428C3.28552 12.5765 3.63802 12.9285 4.07139 12.9285Z" fill="url(#paint1_linear_62_608)"/>
<path fill-rule="evenodd" clip-rule="evenodd" d="M11.1428 12.9285H12.7142C13.1478 12.9285 13.4999 12.5765 13.4999 12.1428C13.4999 11.7091 13.1478 11.3571 12.7142 11.3571H11.1428C10.7092 11.3571 10.3571 11.7091 10.3571 12.1428C10.3571 12.5765 10.7092 12.9285 11.1428 12.9285Z" fill="url(#paint2_linear_62_608)"/>
<path fill-rule="evenodd" clip-rule="evenodd" d="M7.34259 2.35088C7.50467 2.29464 7.7025 2.37844 7.76329 2.53084C8.03565 3.30131 7.59229 4.21962 6.79612 4.52841C6.52261 4.62007 6.26636 4.78262 6.12925 5.03005C5.88973 5.41917 5.97674 5.95569 6.33125 6.25717C6.36082 6.28489 6.39474 6.30994 6.42878 6.33509C6.51075 6.39563 6.5935 6.45675 6.61794 6.5569C6.70079 6.78693 6.43861 7.02987 6.19485 6.95617C5.92788 6.83299 5.7181 6.61593 5.56258 6.38029C5.10373 5.69084 5.29501 4.70045 5.98691 4.21232C6.10515 4.11305 6.24861 4.05314 6.39176 3.99337C6.55514 3.92516 6.71809 3.85713 6.84259 3.73095C7.10662 3.48747 7.21683 3.11461 7.1292 2.77715C7.06962 2.609 7.15247 2.40036 7.34259 2.35088ZM7.4767 4.56669L7.49387 4.563C7.63944 4.53159 7.80614 4.49564 7.94025 4.57624C8.13931 4.70051 8.13159 5.03012 7.91473 5.13412C7.86023 5.15541 7.80213 5.16529 7.74411 5.17516C7.67327 5.18721 7.60251 5.19923 7.53865 5.23197C7.34792 5.31127 7.27231 5.53176 7.29783 5.71451C7.31043 5.83944 7.39635 5.93152 7.48077 6.02199C7.50846 6.05164 7.53598 6.08113 7.5607 6.11154C7.90456 6.55415 7.81449 7.2453 7.35509 7.585C7.15841 7.70927 6.86586 7.56809 6.84676 7.34821C6.82573 7.22884 6.89382 7.13942 6.96236 7.0494C7.02396 6.9685 7.08593 6.8871 7.08395 6.78303C7.11146 6.60018 6.9987 6.47397 6.88438 6.34602C6.80075 6.25241 6.71626 6.15788 6.6853 6.03954C6.42843 5.45185 6.82288 4.71799 7.4767 4.56669ZM8.78105 6.57047C9.07374 6.48668 9.4015 6.57949 9.65359 6.73078C10.2894 7.1261 10.383 8.08271 9.85135 8.59165C9.65953 8.77727 9.39673 8.90099 9.12138 8.92181C8.87762 8.92575 8.70298 8.65914 8.81271 8.45496C8.86564 8.33771 8.98128 8.30002 9.09836 8.26186C9.19353 8.23085 9.28967 8.1995 9.3538 8.12487C9.60226 7.88978 9.55765 7.44157 9.24414 7.27629C9.16574 7.22022 9.06965 7.20653 8.97415 7.19293C8.86654 7.17762 8.7597 7.16241 8.67978 7.08672C8.51594 6.94048 8.57074 6.65032 8.78105 6.57047ZM4.51196 7.5462C4.72057 7.37354 4.98986 7.28414 5.24972 7.20539C5.40825 7.16268 5.57926 7.30099 5.56671 7.45338C5.57492 7.58895 5.44547 7.66079 5.3365 7.72126C5.32703 7.72651 5.31773 7.73168 5.30868 7.73678C5.7932 7.85772 6.29968 7.87068 6.79675 7.83247C7.33005 7.7875 7.86405 7.68793 8.35327 7.47762C8.59818 7.35553 8.91524 7.59908 8.83 7.85048C8.77708 8.02641 8.59406 8.08998 8.42409 8.14901C8.38163 8.16376 8.33999 8.17822 8.3014 8.19408C7.38014 8.48875 6.37666 8.57759 5.41602 8.4218C5.0942 8.35711 4.74732 8.27221 4.51196 8.03999C4.37371 7.90726 4.35642 7.67326 4.51196 7.5462ZM5.16085 9.05555C5.45107 8.87499 5.80273 8.80981 6.13998 8.75412C6.36586 8.70179 6.53092 8.98356 6.39213 9.14666C6.32708 9.20503 6.24125 9.23079 6.15598 9.25639C6.11306 9.26926 6.07027 9.2821 6.03037 9.29903C6.606 9.3986 7.20256 9.33336 7.75798 9.16857C8.11611 9.11124 8.26986 9.64891 7.94147 9.78048C7.28834 9.99864 6.57085 10.0436 5.88912 9.93395C5.58873 9.87267 5.25625 9.79119 5.05603 9.55439C4.91831 9.39751 4.98212 9.15675 5.16085 9.05555ZM3.28497 10.0436C3.60854 9.86702 3.9792 9.74275 4.35464 9.73769L4.37907 9.8159C4.34008 9.84287 4.29861 9.86712 4.25713 9.89137C4.15844 9.94906 4.05973 10.0068 3.9947 10.101C4.9625 10.3507 5.97614 10.3698 6.97308 10.3468C7.07999 10.3443 7.18726 10.3435 7.29468 10.3426C7.73933 10.339 8.18627 10.3354 8.61722 10.223C8.74704 10.1966 8.87346 10.1585 8.99987 10.1205C9.09926 10.0905 9.19862 10.0606 9.29964 10.0363C9.48613 10.0144 9.58918 10.2832 9.41762 10.3698C8.62739 10.9001 7.6209 10.9716 6.6823 10.9981C5.74972 11.0104 4.80459 10.9677 3.89816 10.746C3.88035 10.7409 3.86241 10.7357 3.84438 10.7306C3.59289 10.6586 3.32345 10.5815 3.14729 10.3895C3.02752 10.2613 3.15803 10.1078 3.28497 10.0436Z" fill="#D49F34" stroke="#D49F34" stroke-width="0.2"/>
<path fill-rule="evenodd" clip-rule="evenodd" d="M8.67596 1.01757C8.83805 0.96133 9.03587 1.04512 9.09667 1.19753C9.36902 1.968 8.92566 2.88631 8.1295 3.1951C7.85598 3.28676 7.59974 3.44931 7.46263 3.69674C7.22311 4.08586 7.31011 4.62237 7.66463 4.92386C7.69419 4.95158 7.72812 4.97663 7.76216 5.00178C7.84412 5.06232 7.92687 5.12343 7.95132 5.22358C8.03416 5.45362 7.77198 5.69656 7.52822 5.62286C7.26126 5.49968 7.05148 5.28261 6.89596 5.04698C6.4371 4.35753 6.62838 3.36713 7.32029 2.87901C7.43852 2.77974 7.58199 2.71983 7.72513 2.66006C7.88852 2.59185 8.05147 2.52382 8.17596 2.39764C8.43999 2.15415 8.5502 1.78129 8.46257 1.44384C8.40299 1.27569 8.48584 1.06705 8.67596 1.01757ZM8.81007 3.23338L8.82724 3.22969C8.97281 3.19828 9.13952 3.16233 9.27363 3.24293C9.47269 3.3672 9.46497 3.6968 9.24811 3.8008C9.1936 3.8221 9.13551 3.83197 9.07749 3.84184C9.00664 3.8539 8.93588 3.86592 8.87202 3.89866C8.68129 3.97796 8.60568 4.19844 8.6312 4.3812C8.6438 4.50613 8.72973 4.5982 8.81415 4.68867C8.84183 4.71833 8.86936 4.74782 8.89407 4.77823C9.23793 5.22084 9.14786 5.91199 8.68847 6.25169C8.49178 6.37596 8.19923 6.23478 8.18013 6.0149C8.15911 5.89552 8.22719 5.80611 8.29574 5.71609C8.35733 5.63519 8.4193 5.55378 8.41733 5.44972C8.44484 5.26687 8.33207 5.14066 8.21775 5.01271C8.13412 4.91909 8.04964 4.82456 8.01868 4.70623C7.76181 4.11853 8.15625 3.38468 8.81007 3.23338ZM10.1144 5.23716C10.4071 5.15337 10.7349 5.24618 10.987 5.39746C11.6228 5.79279 11.7163 6.7494 11.1847 7.25834C10.9929 7.44395 10.7301 7.56768 10.4547 7.58849C10.211 7.59244 10.0364 7.32583 10.1461 7.12165C10.199 7.00439 10.3147 6.96671 10.4317 6.92854C10.5269 6.89754 10.623 6.86619 10.6872 6.79156C10.9356 6.55647 10.891 6.10826 10.5775 5.94298C10.4991 5.8869 10.403 5.87321 10.3075 5.85962C10.1999 5.84431 10.0931 5.82909 10.0132 5.75341C9.84932 5.60716 9.90411 5.31701 10.1144 5.23716ZM5.84533 6.21288C6.05394 6.04022 6.32323 5.95083 6.58309 5.87207C6.74163 5.82937 6.91263 5.96768 6.90008 6.12007C6.9083 6.25564 6.77884 6.32748 6.66987 6.38795C6.6604 6.3932 6.65111 6.39837 6.64206 6.40347C7.12657 6.5244 7.63306 6.53737 8.13012 6.49916C8.66343 6.45419 9.19742 6.35462 9.68664 6.14431C9.93156 6.02222 10.2486 6.26577 10.1634 6.51716C10.1105 6.6931 9.92743 6.75667 9.75747 6.8157C9.715 6.83045 9.67337 6.84491 9.63477 6.86077C8.71352 7.15543 7.71003 7.24428 6.74939 7.08849C6.42757 7.0238 6.0807 6.93889 5.84533 6.70668C5.70708 6.57395 5.6898 6.33995 5.84533 6.21288ZM6.49422 7.72223C6.78445 7.54168 7.1361 7.4765 7.47335 7.42081C7.69923 7.36847 7.8643 7.65025 7.7255 7.81335C7.66045 7.87172 7.57462 7.89748 7.48935 7.92308C7.44643 7.93595 7.40365 7.94879 7.36375 7.96572C7.93938 8.06529 8.53593 8.00005 9.09135 7.83525C9.44948 7.77792 9.60323 8.3156 9.27485 8.44717C8.62172 8.66533 7.90423 8.7103 7.2225 8.60063C6.9221 8.53936 6.58962 8.45787 6.38941 8.22108C6.25169 8.0642 6.3155 7.82344 6.49422 7.72223ZM4.61834 8.71031C4.94191 8.53371 5.31257 8.40944 5.68802 8.40438L5.71244 8.48259C5.67346 8.50955 5.63199 8.5338 5.5905 8.55805C5.49181 8.61575 5.39311 8.67345 5.32808 8.76771C6.29587 9.0174 7.30952 9.0365 8.30646 9.01344C8.41336 9.01103 8.52064 9.01016 8.62806 9.0093C9.0727 9.00569 9.51965 9.00206 9.95059 8.88971C10.0804 8.86328 10.2068 8.82521 10.3332 8.78714C10.4326 8.75721 10.532 8.72728 10.633 8.70301C10.8195 8.6811 10.9226 8.94992 10.751 9.0365C9.96077 9.56681 8.95428 9.63826 8.01567 9.66474C7.08309 9.67708 6.13796 9.63437 5.23154 9.41272C5.21372 9.40756 5.19578 9.40243 5.17776 9.39728C4.92626 9.32528 4.65683 9.24816 4.48067 9.05623C4.36089 8.92801 4.4914 8.77446 4.61834 8.71031Z" fill="url(#paint3_linear_62_608)" stroke="url(#paint4_linear_62_608)" stroke-width="0.2"/>
</g>
<defs>
<linearGradient id="paint0_linear_62_608" x1="3.625" y1="14.9988" x2="13.7787" y2="4.33656" gradientUnits="userSpaceOnUse">
<stop stop-color="#FF8860"/>
<stop offset="1" stop-color="#FBD92C"/>
</linearGradient>
<linearGradient id="paint1_linear_62_608" x1="4.857" y1="12.5357" x2="5.22673" y2="11.0567" gradientUnits="userSpaceOnUse">
<stop stop-color="#FBD92C"/>
<stop offset="1" stop-color="white"/>
</linearGradient>
<linearGradient id="paint2_linear_62_608" x1="11.1428" y1="12.5357" x2="11.7713" y2="11.2785" gradientUnits="userSpaceOnUse">
<stop stop-color="#FBD92C"/>
<stop offset="1" stop-color="white"/>
</linearGradient>
<linearGradient id="paint3_linear_62_608" x1="6.20762" y1="7.5" x2="10.4559" y2="4.02114" gradientUnits="userSpaceOnUse">
<stop stop-color="#FBD92C"/>
<stop offset="1" stop-color="white"/>
</linearGradient>
<linearGradient id="paint4_linear_62_608" x1="6.20762" y1="7.5" x2="10.4559" y2="4.02114" gradientUnits="userSpaceOnUse">
<stop stop-color="#FBD92C"/>
<stop offset="1" stop-color="white"/>
</linearGradient>
<clipPath id="clip0_62_608">
<rect width="16" height="16" fill="white"/>
</clipPath>
</defs>
</svg>
