<svg width="16" height="16" viewBox="0 0 16 16" fill="none" xmlns="http://www.w3.org/2000/svg">
<g clip-path="url(#clip0_274_129)">
<path fill-rule="evenodd" clip-rule="evenodd" d="M1 13C0.448 13 0 12.552 0 12V3.992C0 1.787 1.787 0 3.992 0C6.357 0 9.643 0 12.008 0C13.067 0 14.082 0.421001 14.831 1.169C15.579 1.918 16 2.933 16 3.992C16 6.357 16 9.643 16 12.008C16 14.213 14.213 16 12.008 16C8.751 16 4 16 4 16C3.448 16 3 15.552 3 15C3 13.896 2.104 13 1 13ZM1 14C1.552 14 2 14.448 2 15C2 15.552 1.552 16 1 16C0.448 16 0 15.552 0 15C0 14.448 0.448 14 1 14Z" fill="url(#paint0_linear_274_129)"/>
<path d="M6.67185 4.63019C6.65943 4.48578 6.46544 4.44823 6.40003 4.57757L2.59891 12.0933C2.52805 12.2335 2.70087 12.3696 2.82054 12.268L6.96535 8.74599C7.00084 8.71584 7.01954 8.67037 7.01555 8.62397L6.67185 4.63019ZM10.1395 13C10.2977 13 10.3401 12.7818 10.1934 12.7226L5.11163 10.6724C5.06201 10.6524 5.00539 10.6615 4.9646 10.6962L2.55103 12.7464C2.44896 12.8331 2.51027 13 2.64421 13H10.1395ZM10.8217 12.7827C10.9448 12.8324 11.0638 12.7031 11.0041 12.5845L7.16357 4.94848C7.09225 4.80664 6.87753 4.86782 6.89165 5.02595L7.45578 11.3393C7.46059 11.3932 7.49514 11.4398 7.54524 11.46L10.8217 12.7827ZM7.07187 9.19749C7.06132 9.08114 6.92386 9.02517 6.83504 9.10108L5.35836 10.363C5.27607 10.4333 5.29794 10.5659 5.39844 10.6061L7.04937 11.2658C7.14913 11.3056 7.25581 11.2261 7.24611 11.1191L7.07187 9.19749Z" fill="#279FD7"/>
<path d="M8.2147 3.13172C8.20228 2.98731 8.00828 2.94976 7.94287 3.0791L4.14176 10.5949C4.07089 10.735 4.24371 10.8712 4.36338 10.7695L8.5082 7.24752C8.54369 7.21736 8.56238 7.1719 8.5584 7.1255L8.2147 3.13172ZM11.6824 11.5015C11.8406 11.5015 11.8829 11.2834 11.7362 11.2241L6.65448 9.17391C6.60486 9.15389 6.54824 9.16306 6.50745 9.1977L4.09388 11.2479C3.99181 11.3346 4.05312 11.5015 4.18705 11.5015H11.6824ZM12.3645 11.2842C12.4876 11.3339 12.6066 11.2046 12.547 11.0861L8.70642 3.45C8.63509 3.30817 8.42038 3.36935 8.4345 3.52748L8.99863 9.84086C9.00343 9.89468 9.03799 9.94128 9.08809 9.96151L12.3645 11.2842ZM8.61471 7.69901C8.60416 7.58267 8.4667 7.5267 8.37789 7.6026L6.90121 8.86452C6.81891 8.93485 6.84079 9.06741 6.94129 9.10758L8.59222 9.76729C8.69197 9.80716 8.79866 9.72764 8.78896 9.62065L8.61471 7.69901Z" fill="url(#paint1_linear_274_129)"/>
</g>
<defs>
<linearGradient id="paint0_linear_274_129" x1="1.6" y1="16.005" x2="7.3787" y2="-1.33327" gradientUnits="userSpaceOnUse">
<stop offset="0.190745" stop-color="#22B4FA"/>
<stop offset="0.896724" stop-color="#7DDCFF"/>
</linearGradient>
<linearGradient id="paint1_linear_274_129" x1="4.04285" y1="11.5015" x2="14.0638" y2="8.99086" gradientUnits="userSpaceOnUse">
<stop stop-color="#6BD6FE"/>
<stop offset="1" stop-color="white"/>
</linearGradient>
<clipPath id="clip0_274_129">
<rect width="16" height="16" fill="white"/>
</clipPath>
</defs>
</svg>
