<svg width="16" height="16" viewBox="0 0 16 16" fill="none" xmlns="http://www.w3.org/2000/svg">
<g clip-path="url(#clip0_62_625)">
<path fill-rule="evenodd" clip-rule="evenodd" d="M5 0H10.18C10.97 0 11.728 0.314 12.287 0.872C12.817 1.403 13.597 2.183 14.128 2.713C14.686 3.272 15 4.03 15 4.82V13.021C15 13.811 14.686 14.569 14.128 15.128C13.569 15.686 12.811 16 12.021 16C9.796 16 6.204 16 3.979 16C3.189 16 2.431 15.686 1.872 15.128C1.314 14.569 1 13.811 1 13.021V4C1 3.448 1.448 3 2 3C3.104 3 4 2.104 4 1C4 0.448 4.448 0 5 0ZM3 1C3 1.552 2.552 2 2 2C1.448 2 1 1.552 1 1C1 0.448 1.448 0 2 0C2.552 0 3 0.448 3 1Z" fill="url(#paint0_linear_62_625)"/>
<path fill-rule="evenodd" clip-rule="evenodd" d="M7.21429 10.9643H11.9285C12.3622 10.9643 12.7142 10.6123 12.7142 10.1786C12.7142 9.74488 12.3622 9.39288 11.9285 9.39288H7.21429C6.78058 9.39288 6.42859 9.74488 6.42859 10.1786C6.42859 10.6123 6.78058 10.9643 7.21429 10.9643Z" fill="#DA5CDB"/>
<path fill-rule="evenodd" clip-rule="evenodd" d="M3.2857 10.9643H4.85711C5.29082 10.9643 5.64281 10.6123 5.64281 10.1786C5.64281 9.74488 5.29082 9.39288 4.85711 9.39288H3.2857C2.852 9.39288 2.5 9.74488 2.5 10.1786C2.5 10.6123 2.852 10.9643 3.2857 10.9643Z" fill="#DA5CDB"/>
<path fill-rule="evenodd" clip-rule="evenodd" d="M7.99998 10.5714H12.7142C13.1475 10.5714 13.5 10.2194 13.5 9.7857C13.5 9.352 13.1475 9 12.7142 9H7.99998C7.56661 9 7.21411 9.352 7.21411 9.7857C7.21411 10.2194 7.56661 10.5714 7.99998 10.5714Z" fill="url(#paint1_linear_62_625)"/>
<path fill-rule="evenodd" clip-rule="evenodd" d="M4.07147 10.5714H5.64287C6.07647 10.5714 6.42858 10.2194 6.42858 9.7857C6.42858 9.352 6.07647 9 5.64287 9H4.07147C3.63787 9 3.28577 9.352 3.28577 9.7857C3.28577 10.2194 3.63787 10.5714 4.07147 10.5714Z" fill="url(#paint2_linear_62_625)"/>
<path fill-rule="evenodd" clip-rule="evenodd" d="M3.2857 13.3215H7.99989C8.4336 13.3215 8.78559 12.9695 8.78559 12.5358C8.78559 12.1021 8.4336 11.7501 7.99989 11.7501H3.2857C2.852 11.7501 2.5 12.1021 2.5 12.5358C2.5 12.9695 2.852 13.3215 3.2857 13.3215Z" fill="#DA5CDB"/>
<path fill-rule="evenodd" clip-rule="evenodd" d="M10.3571 13.3215H11.9285C12.3622 13.3215 12.7142 12.9695 12.7142 12.5358C12.7142 12.1021 12.3622 11.7501 11.9285 11.7501H10.3571C9.92341 11.7501 9.57141 12.1021 9.57141 12.5358C9.57141 12.9695 9.92341 13.3215 10.3571 13.3215Z" fill="#DA5CDB"/>
<path fill-rule="evenodd" clip-rule="evenodd" d="M4.07139 12.9285H8.78557C9.21895 12.9285 9.57145 12.5765 9.57145 12.1428C9.57145 11.7091 9.21895 11.3571 8.78557 11.3571H4.07139C3.63802 11.3571 3.28552 11.7091 3.28552 12.1428C3.28552 12.5765 3.63802 12.9285 4.07139 12.9285Z" fill="url(#paint3_linear_62_625)"/>
<path fill-rule="evenodd" clip-rule="evenodd" d="M11.1428 12.9285H12.7142C13.1478 12.9285 13.4999 12.5765 13.4999 12.1428C13.4999 11.7091 13.1478 11.3571 12.7142 11.3571H11.1428C10.7092 11.3571 10.3571 11.7091 10.3571 12.1428C10.3571 12.5765 10.7092 12.9285 11.1428 12.9285Z" fill="url(#paint4_linear_62_625)"/>
<path fill-rule="evenodd" clip-rule="evenodd" d="M7.32108 7.18153C7.33526 7.08731 7.25934 7.00623 7.16407 7.00623H6.522C6.43618 7.00623 6.36609 7.07269 6.35141 7.15725C6.31466 7.3689 6.23559 7.53103 6.11419 7.64368C5.96755 7.7795 5.74429 7.84749 5.44449 7.84749C5.11231 7.84749 4.86858 7.72994 4.71328 7.49477C4.56014 7.25969 4.48357 6.88763 4.48357 6.37861V6.02272C4.48789 5.53524 4.56985 5.17609 4.72945 4.94531C4.89123 4.71234 5.13388 4.59586 5.45743 4.59586C5.75509 4.59586 5.97616 4.66489 6.12069 4.80292C6.24193 4.91524 6.32112 5.08504 6.35835 5.31223C6.37221 5.39676 6.44236 5.46294 6.52802 5.46294H7.16593C7.26289 5.46294 7.33926 5.37911 7.32307 5.28352C7.24843 4.8429 7.06437 4.49396 6.77098 4.23672C6.4388 3.94556 6.00095 3.79999 5.45743 3.79999C5.06486 3.79999 4.71976 3.89268 4.4221 4.07822C4.12659 4.26156 3.89903 4.52575 3.73942 4.87091C3.5798 5.21599 3.5 5.61501 3.5 6.06797V6.35595C3.5 7.0656 3.67256 7.62425 4.01767 8.0319C4.36494 8.43741 4.84054 8.64018 5.44449 8.64018C5.99664 8.64018 6.44098 8.49452 6.77746 8.20338C7.07609 7.9466 7.25729 7.60599 7.32108 7.18153ZM9.51983 7.24888C9.6218 7.24888 9.69907 7.3409 9.68143 7.44132L9.51604 8.38299C9.4984 8.48341 9.57568 8.57544 9.67764 8.57544H9.9366C10.0163 8.57544 10.0844 8.51821 10.0982 8.43976L10.2835 7.38457C10.2973 7.3061 10.3654 7.24888 10.4451 7.24888H10.965C11.0557 7.24888 11.1291 7.17543 11.1291 7.08481V6.85649C11.1291 6.76588 11.0557 6.69243 10.965 6.69243H10.5998C10.4978 6.69243 10.4205 6.60035 10.4382 6.4999L10.5423 5.90919C10.5561 5.83077 10.6242 5.77358 10.7038 5.77358H11.2109C11.3015 5.77358 11.375 5.70013 11.375 5.60951V5.37469C11.375 5.28408 11.3015 5.21063 11.2109 5.21063H10.8618C10.7599 5.21063 10.6826 5.11862 10.7002 5.0182L10.8689 4.05707C10.8865 3.95667 10.8092 3.86466 10.7073 3.86466H10.4483C10.3686 3.86466 10.3005 3.9219 10.2867 4.00037L10.0982 5.07492C10.0844 5.15339 10.0163 5.21063 9.93658 5.21063H9.64202C9.54008 5.21063 9.46282 5.11862 9.48044 5.0182L9.64911 4.05709C9.66673 3.95667 9.58947 3.86466 9.48753 3.86466H9.2318C9.15213 3.86466 9.08398 3.9219 9.07022 4.00037L8.88168 5.07492C8.86791 5.15339 8.79976 5.21063 8.72009 5.21063H8.17101C8.0804 5.21063 8.00694 5.28408 8.00694 5.37469V5.60951C8.00694 5.70013 8.0804 5.77358 8.17101 5.77358H8.56208C8.66406 5.77358 8.74134 5.86565 8.72367 5.96609L8.61969 6.5568C8.60587 6.63523 8.53774 6.69243 8.4581 6.69243H7.92836C7.83775 6.69243 7.7643 6.76588 7.7643 6.85649V7.08481C7.7643 7.17543 7.83775 7.24888 7.92836 7.24888H8.30334C8.4053 7.24888 8.48258 7.3409 8.46494 7.44132L8.29955 8.38299C8.28191 8.48341 8.35919 8.57544 8.46115 8.57544H8.72011C8.79976 8.57544 8.86791 8.51821 8.88169 8.43974L9.06695 7.38457C9.08073 7.30612 9.14889 7.24888 9.22854 7.24888H9.51983ZM9.38264 6.69243C9.28089 6.69243 9.20367 6.60075 9.22097 6.50046L9.32292 5.90975C9.33649 5.83107 9.40474 5.77358 9.48459 5.77358H9.77857C9.88055 5.77358 9.95783 5.86565 9.94016 5.96609L9.83618 6.5568C9.82236 6.63523 9.75423 6.69243 9.67459 6.69243H9.38264Z" fill="#DA5CDB"/>
<path fill-rule="evenodd" clip-rule="evenodd" d="M8.14603 6.38154C8.16021 6.28732 8.0843 6.20624 7.98902 6.20624H7.34695C7.26113 6.20624 7.19104 6.2727 7.17636 6.35726C7.13961 6.56892 7.06055 6.73104 6.93914 6.84369C6.7925 6.97952 6.56924 7.0475 6.26944 7.0475C5.93726 7.0475 5.69353 6.92995 5.53823 6.69479C5.38509 6.4597 5.30852 6.08764 5.30852 5.57862V5.22274C5.31284 4.73526 5.3948 4.37611 5.5544 4.14532C5.71618 3.91235 5.95883 3.79587 6.28238 3.79587C6.58004 3.79587 6.80111 3.8649 6.94564 4.00293C7.06688 4.11525 7.14607 4.28505 7.1833 4.51225C7.19716 4.59677 7.26731 4.66295 7.35297 4.66295H7.99088C8.08784 4.66295 8.16421 4.57912 8.14802 4.48354C8.07339 4.04291 7.88932 3.69397 7.59593 3.43673C7.26375 3.14557 6.8259 3 6.28238 3C5.88981 3 5.54471 3.0927 5.24705 3.27823C4.95154 3.46157 4.72398 3.72576 4.56437 4.07092C4.40475 4.41601 4.32495 4.81502 4.32495 5.26798V5.55596C4.32495 6.26561 4.49751 6.82426 4.84262 7.23191C5.18989 7.63742 5.66549 7.84019 6.26944 7.84019C6.82159 7.84019 7.26594 7.69453 7.60241 7.40339C7.90104 7.14661 8.08225 6.806 8.14603 6.38154ZM10.3448 6.44889C10.4467 6.44889 10.524 6.54091 10.5064 6.64133L10.341 7.583C10.3234 7.68343 10.4006 7.77545 10.5026 7.77545H10.7615C10.8412 7.77545 10.9094 7.71822 10.9231 7.63977L11.1085 6.58459C11.1222 6.50611 11.1904 6.44889 11.27 6.44889H11.79C11.8806 6.44889 11.9541 6.37544 11.9541 6.28483V6.0565C11.9541 5.96589 11.8806 5.89244 11.79 5.89244H11.4248C11.3228 5.89244 11.2455 5.80037 11.2632 5.69991L11.3672 5.1092C11.381 5.03078 11.4492 4.97359 11.5288 4.97359H12.0359C12.1265 4.97359 12.2 4.90014 12.2 4.80953V4.5747C12.2 4.48409 12.1265 4.41064 12.0359 4.41064H11.6868C11.5848 4.41064 11.5076 4.31864 11.5252 4.21821L11.6938 3.25709C11.7114 3.15668 11.6342 3.06467 11.5322 3.06467H11.2732C11.1936 3.06467 11.1254 3.12192 11.1117 3.20039L10.9231 4.27493C10.9094 4.3534 10.8412 4.41064 10.7615 4.41064H10.467C10.365 4.41064 10.2878 4.31864 10.3054 4.21821L10.4741 3.2571C10.4917 3.15668 10.4144 3.06467 10.3125 3.06467H10.0568C9.97708 3.06467 9.90893 3.12192 9.89517 3.20039L9.70663 4.27493C9.69286 4.3534 9.62471 4.41064 9.54504 4.41064H8.99596C8.90535 4.41064 8.8319 4.48409 8.8319 4.5747V4.80953C8.8319 4.90014 8.90535 4.97359 8.99596 4.97359H9.38703C9.48902 4.97359 9.56629 5.06566 9.54862 5.1661L9.44464 5.75681C9.43082 5.83525 9.36269 5.89244 9.28305 5.89244H8.75331C8.6627 5.89244 8.58925 5.96589 8.58925 6.0565V6.28483C8.58925 6.37544 8.6627 6.44889 8.75331 6.44889H9.12829C9.23026 6.44889 9.30753 6.54091 9.28989 6.64133L9.1245 7.583C9.10686 7.68343 9.18414 7.77545 9.2861 7.77545H9.54506C9.62471 7.77545 9.69286 7.71822 9.70664 7.63975L9.8919 6.58459C9.90568 6.50613 9.97384 6.44889 10.0535 6.44889H10.3448ZM10.2076 5.89244C10.1058 5.89244 10.0286 5.80076 10.0459 5.70047L10.1479 5.10976C10.1614 5.03108 10.2297 4.97359 10.3095 4.97359H10.6035C10.7055 4.97359 10.7828 5.06566 10.7651 5.1661L10.6611 5.75681C10.6473 5.83525 10.5792 5.89244 10.4995 5.89244H10.2076Z" fill="url(#paint5_linear_62_625)"/>
</g>
<defs>
<linearGradient id="paint0_linear_62_625" x1="2" y1="14.7692" x2="16.2041" y2="4.19013" gradientUnits="userSpaceOnUse">
<stop stop-color="#FE5AFF"/>
<stop offset="1" stop-color="#FE9EFF"/>
</linearGradient>
<linearGradient id="paint1_linear_62_625" x1="7.21411" y1="10.5713" x2="7.28689" y2="8.75157" gradientUnits="userSpaceOnUse">
<stop stop-color="#FE9EFF"/>
<stop offset="1" stop-color="white"/>
</linearGradient>
<linearGradient id="paint2_linear_62_625" x1="3.28577" y1="10.5713" x2="3.43064" y2="8.76025" gradientUnits="userSpaceOnUse">
<stop stop-color="#FE9EFF"/>
<stop offset="1" stop-color="white"/>
</linearGradient>
<linearGradient id="paint3_linear_62_625" x1="3.28552" y1="12.9285" x2="3.3583" y2="11.1087" gradientUnits="userSpaceOnUse">
<stop stop-color="#FE9EFF"/>
<stop offset="1" stop-color="white"/>
</linearGradient>
<linearGradient id="paint4_linear_62_625" x1="10.3571" y1="12.9285" x2="10.5019" y2="11.1174" gradientUnits="userSpaceOnUse">
<stop stop-color="#FE9EFF"/>
<stop offset="1" stop-color="white"/>
</linearGradient>
<linearGradient id="paint5_linear_62_625" x1="4.32495" y1="7.83999" x2="4.87172" y2="2.27959" gradientUnits="userSpaceOnUse">
<stop stop-color="#FE9EFF"/>
<stop offset="1" stop-color="white"/>
</linearGradient>
<clipPath id="clip0_62_625">
<rect width="16" height="16" fill="white"/>
</clipPath>
</defs>
</svg>
