<svg width="16" height="16" viewBox="0 0 16 16" fill="none" xmlns="http://www.w3.org/2000/svg">
<g clip-path="url(#clip0_58_806)">
<path fill-rule="evenodd" clip-rule="evenodd" d="M5 0H10.18C10.97 0 11.728 0.314 12.287 0.872C12.817 1.403 13.597 2.183 14.128 2.713C14.686 3.272 15 4.03 15 4.82V13.021C15 13.811 14.686 14.569 14.128 15.128C13.569 15.686 12.811 16 12.021 16C9.796 16 6.204 16 3.979 16C3.189 16 2.431 15.686 1.872 15.128C1.314 14.569 1 13.811 1 13.021V4C1 3.448 1.448 3 2 3C3.104 3 4 2.104 4 1C4 0.448 4.448 0 5 0ZM3 1C3 1.552 2.552 2 2 2C1.448 2 1 1.552 1 1C1 0.448 1.448 0 2 0C2.552 0 3 0.448 3 1Z" fill="url(#paint0_linear_58_806)"/>
<path fill-rule="evenodd" clip-rule="evenodd" d="M7.21429 10.9643H11.9285C12.3622 10.9643 12.7142 10.6123 12.7142 10.1786C12.7142 9.74488 12.3622 9.39288 11.9285 9.39288H7.21429C6.78058 9.39288 6.42859 9.74488 6.42859 10.1786C6.42859 10.6123 6.78058 10.9643 7.21429 10.9643Z" fill="#279FD7"/>
<path fill-rule="evenodd" clip-rule="evenodd" d="M3.2857 10.9643H4.85711C5.29082 10.9643 5.64281 10.6123 5.64281 10.1786C5.64281 9.74488 5.29082 9.39288 4.85711 9.39288H3.2857C2.852 9.39288 2.5 9.74488 2.5 10.1786C2.5 10.6123 2.852 10.9643 3.2857 10.9643Z" fill="#279FD7"/>
<path fill-rule="evenodd" clip-rule="evenodd" d="M7.99998 10.5714H12.7142C13.1475 10.5714 13.5 10.2194 13.5 9.7857C13.5 9.352 13.1475 9 12.7142 9H7.99998C7.56661 9 7.21411 9.352 7.21411 9.7857C7.21411 10.2194 7.56661 10.5714 7.99998 10.5714Z" fill="url(#paint1_linear_58_806)"/>
<path fill-rule="evenodd" clip-rule="evenodd" d="M4.07147 10.5714H5.64287C6.07647 10.5714 6.42858 10.2194 6.42858 9.7857C6.42858 9.352 6.07647 9 5.64287 9H4.07147C3.63787 9 3.28577 9.352 3.28577 9.7857C3.28577 10.2194 3.63787 10.5714 4.07147 10.5714Z" fill="url(#paint2_linear_58_806)"/>
<path fill-rule="evenodd" clip-rule="evenodd" d="M3.2857 13.3215H7.99989C8.4336 13.3215 8.78559 12.9695 8.78559 12.5358C8.78559 12.1021 8.4336 11.7501 7.99989 11.7501H3.2857C2.852 11.7501 2.5 12.1021 2.5 12.5358C2.5 12.9695 2.852 13.3215 3.2857 13.3215Z" fill="#279FD7"/>
<path fill-rule="evenodd" clip-rule="evenodd" d="M10.3571 13.3215H11.9285C12.3622 13.3215 12.7142 12.9695 12.7142 12.5358C12.7142 12.1021 12.3622 11.7501 11.9285 11.7501H10.3571C9.92341 11.7501 9.57141 12.1021 9.57141 12.5358C9.57141 12.9695 9.92341 13.3215 10.3571 13.3215Z" fill="#279FD7"/>
<path fill-rule="evenodd" clip-rule="evenodd" d="M4.07139 12.9285H8.78557C9.21895 12.9285 9.57145 12.5765 9.57145 12.1428C9.57145 11.7091 9.21895 11.3571 8.78557 11.3571H4.07139C3.63802 11.3571 3.28552 11.7091 3.28552 12.1428C3.28552 12.5765 3.63802 12.9285 4.07139 12.9285Z" fill="url(#paint3_linear_58_806)"/>
<path fill-rule="evenodd" clip-rule="evenodd" d="M11.1428 12.9285H12.7142C13.1478 12.9285 13.4999 12.5765 13.4999 12.1428C13.4999 11.7091 13.1478 11.3571 12.7142 11.3571H11.1428C10.7092 11.3571 10.3571 11.7091 10.3571 12.1428C10.3571 12.5765 10.7092 12.9285 11.1428 12.9285Z" fill="url(#paint4_linear_58_806)"/>
<path fill-rule="evenodd" clip-rule="evenodd" d="M6.22086 3.63663C6.29436 3.51151 6.15854 3.2545 6.02213 3.30398C5.63112 3.44581 5.27185 3.67235 4.9721 3.9721C4.87963 4.06457 4.79412 4.16272 4.71592 4.26571L4.85981 4.10635C4.9086 4.05231 4.99161 4.04839 5.04921 4.09292C5.05733 4.0992 5.06555 4.10545 5.07387 4.11166C5.26167 4.25243 5.49164 4.37184 5.75144 4.46523C5.8231 4.491 5.89989 4.44742 5.92046 4.3741C6.00031 4.08948 6.10163 3.83963 6.22086 3.63663ZM4.81458 4.37501C4.75337 4.32708 4.66327 4.33549 4.6199 4.40002C4.364 4.78071 4.20243 5.2184 4.15043 5.67635C4.14182 5.75215 4.20254 5.81665 4.27882 5.81665H5.58986C5.66153 5.81665 5.72 5.75948 5.72309 5.68787C5.73364 5.44387 5.75647 5.20852 5.79048 4.98567C5.80055 4.91976 5.76124 4.85613 5.69805 4.83483C5.37571 4.72618 5.08854 4.58105 4.85383 4.40505C4.84062 4.39517 4.82754 4.38516 4.81458 4.37501ZM4.27884 6.18338C4.20254 6.18338 4.14183 6.24788 4.15043 6.32368C4.20256 6.78274 4.36479 7.22145 4.62179 7.60278C4.66522 7.66723 4.75526 7.67555 4.81633 7.6275C4.82866 7.6178 4.84116 7.60818 4.85383 7.59865C5.08867 7.4227 5.37603 7.27759 5.69859 7.16897C5.76184 7.14767 5.80116 7.08399 5.79105 7.01803C5.75674 6.7941 5.7337 6.5575 5.7231 6.31214C5.72 6.24055 5.66153 6.18338 5.58986 6.18338H4.27884ZM4.7384 7.7635C4.81043 7.85587 4.8884 7.9442 4.9721 8.0279C5.27185 8.32765 5.63112 8.55419 6.02213 8.69602C6.15854 8.7455 6.29436 8.48849 6.22086 8.36336C6.10214 8.16122 6.00116 7.91262 5.92146 7.62948C5.90084 7.55624 5.82413 7.51272 5.75251 7.53844C5.49228 7.63189 5.26192 7.75143 5.07387 7.8924C5.06554 7.89856 5.05729 7.90475 5.04917 7.911C4.99147 7.9553 4.90862 7.95151 4.8598 7.89759L4.7384 7.7635ZM7.77916 8.36333C7.70567 8.48845 7.84146 8.7455 7.97787 8.69602C8.36888 8.55419 8.72815 8.32765 9.0279 8.0279C9.04799 8.0078 9.06776 7.98744 9.08718 7.96683C9.14046 7.91029 9.12907 7.82021 9.06278 7.7797C9.04399 7.76821 9.02483 7.75688 9.00535 7.74571C8.78899 7.62194 8.53693 7.52153 8.2609 7.44836C8.19047 7.42971 8.11982 7.47432 8.10146 7.54483C8.01855 7.86319 7.90957 8.14128 7.77916 8.36333ZM9.27648 7.95389C9.28357 7.94561 9.29605 7.94449 9.30442 7.95147C9.3129 7.95852 9.32546 7.95749 9.33263 7.9491L9.53625 7.71103C9.54826 7.69698 9.54657 7.67583 9.5323 7.66408C9.51904 7.65317 9.51601 7.63404 9.52527 7.61957C9.83284 7.14 10 6.57861 10 6C10 5.42213 9.83327 4.86144 9.52645 4.38226C9.51746 4.36822 9.52048 4.34959 9.5333 4.33895C9.5471 4.32753 9.54859 4.3071 9.53695 4.29349L9.33181 4.05363C9.32509 4.04576 9.31326 4.04482 9.30529 4.05142C9.29739 4.05799 9.28571 4.05689 9.27903 4.0491C9.22886 3.99048 9.17627 3.93363 9.12132 3.87868C8.55871 3.31607 7.79564 3 7 3C6.20436 3 5.44129 3.31607 4.87868 3.87868C4.31607 4.44129 4 5.20436 4 6C4 6.79564 4.31607 7.55871 4.87868 8.12132C5.44129 8.68393 6.20436 9 7 9C7.79564 9 8.55871 8.68393 9.12132 8.12132C9.17533 8.06731 9.22707 8.01145 9.27648 7.95389ZM9.06587 4.22272C9.13188 4.18233 9.14299 4.09255 9.08999 4.03617C9.06966 4.01452 9.04896 3.99316 9.0279 3.9721C8.72815 3.67235 8.36888 3.44581 7.97787 3.30398C7.84146 3.2545 7.70567 3.51155 7.77917 3.63668C7.91006 3.85955 8.01937 4.13889 8.10238 4.45872C8.12071 4.5293 8.19142 4.57398 8.26189 4.55527C8.53753 4.4821 8.78925 4.38181 9.00535 4.25835C9.02573 4.24681 9.04591 4.23494 9.06587 4.22272ZM9.47729 4.55507C9.43939 4.4901 9.35397 4.4743 9.29039 4.5145C9.25702 4.53561 9.22275 4.55621 9.18762 4.57632C8.93486 4.72092 8.64232 4.83622 8.32393 4.91808C8.25646 4.93543 8.21219 5.00067 8.22173 5.06967C8.24902 5.26739 8.26768 5.47431 8.2769 5.68787C8.28 5.75948 8.33846 5.81665 8.41014 5.81665H9.72116C9.79746 5.81665 9.85817 5.75216 9.84957 5.67635C9.80449 5.2794 9.6771 4.89766 9.47729 4.55507ZM9.72116 6.18338C9.79746 6.18338 9.85817 6.24787 9.84957 6.32366C9.80437 6.72163 9.67644 7.1043 9.47575 7.44754C9.43778 7.5125 9.35233 7.52813 9.28874 7.48792C9.25554 7.46692 9.22182 7.44674 9.18762 7.42737C8.93473 7.28286 8.64202 7.16761 8.32343 7.08579C8.2559 7.06845 8.21162 7.00315 8.2212 6.93409C8.24878 6.73525 8.26761 6.52706 8.2769 6.31216C8.28 6.24055 8.33846 6.18338 8.41014 6.18338H9.72116ZM6.30292 7.01595C6.22913 7.02904 6.15761 6.9806 6.14686 6.90644C6.11988 6.72023 6.10071 6.52352 6.09081 6.31911C6.08722 6.2448 6.1471 6.18338 6.22148 6.18338H7.77851C7.8529 6.18338 7.91277 6.24479 7.90919 6.31911C7.90008 6.50737 7.88309 6.6891 7.85938 6.86211C7.8496 6.93347 7.78321 6.98214 7.71166 6.974C7.52909 6.95323 7.34167 6.94255 7.15146 6.94255C6.85932 6.94255 6.57396 6.96783 6.30292 7.01595ZM6.30238 4.988C6.22855 4.97488 6.15698 5.02338 6.14628 5.09759C6.1196 5.28262 6.10063 5.47797 6.09081 5.68092C6.08722 5.75522 6.14708 5.81665 6.22148 5.81665H7.77852C7.85292 5.81665 7.91278 5.75522 7.90919 5.68092C7.90015 5.49413 7.88336 5.31376 7.85995 5.14197C7.85021 5.07056 7.78378 5.02183 7.71217 5.02999C7.52945 5.05081 7.34186 5.06152 7.15146 5.06152C6.85912 5.06152 6.57359 5.0362 6.30238 4.988ZM7 3.43281C7.28078 3.43281 7.56018 3.8574 7.73541 4.51233C7.75552 4.58751 7.70405 4.66235 7.62665 4.67039C7.47174 4.68647 7.31283 4.69478 7.15146 4.69478C6.88335 4.69478 6.62238 4.67181 6.37561 4.62856C6.30202 4.61565 6.25596 4.5425 6.276 4.47053C6.4518 3.83937 6.72525 3.43281 7 3.43281ZM7.15146 7.30928C7.31245 7.30928 7.47099 7.31752 7.62557 7.33351C7.70303 7.34152 7.75453 7.41647 7.73434 7.49167C7.55905 8.14433 7.2802 8.56719 7 8.56719C6.72583 8.56719 6.45295 8.16233 6.27711 7.53346C6.25698 7.46144 6.30306 7.38819 6.3767 7.37531C6.62316 7.33218 6.88375 7.30928 7.15146 7.30928Z" fill="#279FD7" stroke="#279FD7" stroke-width="0.4"/>
<path fill-rule="evenodd" clip-rule="evenodd" d="M7.22086 2.63663C7.29436 2.51151 7.15854 2.2545 7.02213 2.30398C6.63112 2.44581 6.27185 2.67235 5.9721 2.9721C5.87963 3.06457 5.79412 3.16272 5.71592 3.26571L5.85981 3.10635C5.9086 3.05231 5.99161 3.04839 6.04921 3.09292C6.05733 3.0992 6.06555 3.10545 6.07387 3.11166C6.26167 3.25243 6.49164 3.37184 6.75144 3.46523C6.8231 3.491 6.89989 3.44742 6.92046 3.3741C7.00031 3.08948 7.10163 2.83963 7.22086 2.63663ZM5.81458 3.37501C5.75337 3.32708 5.66327 3.33549 5.6199 3.40002C5.364 3.78071 5.20243 4.2184 5.15043 4.67635C5.14182 4.75215 5.20254 4.81665 5.27882 4.81665H6.58986C6.66153 4.81665 6.72 4.75948 6.72309 4.68787C6.73364 4.44387 6.75647 4.20852 6.79048 3.98567C6.80055 3.91976 6.76124 3.85613 6.69805 3.83483C6.37571 3.72618 6.08854 3.58105 5.85383 3.40505C5.84062 3.39517 5.82754 3.38516 5.81458 3.37501ZM5.27884 5.18338C5.20254 5.18338 5.14183 5.24788 5.15043 5.32368C5.20256 5.78274 5.36479 6.22145 5.62179 6.60278C5.66522 6.66723 5.75526 6.67555 5.81633 6.6275C5.82866 6.6178 5.84116 6.60818 5.85383 6.59865C6.08867 6.4227 6.37603 6.27759 6.69859 6.16897C6.76184 6.14767 6.80116 6.08399 6.79105 6.01803C6.75674 5.7941 6.7337 5.5575 6.7231 5.31214C6.72 5.24055 6.66153 5.18338 6.58986 5.18338H5.27884ZM5.7384 6.7635C5.81043 6.85587 5.8884 6.9442 5.9721 7.0279C6.27185 7.32765 6.63112 7.55419 7.02213 7.69602C7.15854 7.7455 7.29436 7.48849 7.22086 7.36336C7.10214 7.16122 7.00116 6.91262 6.92146 6.62948C6.90084 6.55624 6.82413 6.51272 6.75251 6.53844C6.49228 6.63189 6.26192 6.75143 6.07387 6.8924C6.06554 6.89856 6.05729 6.90475 6.04917 6.911C5.99147 6.9553 5.90862 6.95151 5.8598 6.89759L5.7384 6.7635ZM8.77916 7.36333C8.70567 7.48845 8.84146 7.7455 8.97787 7.69602C9.36888 7.55419 9.72815 7.32765 10.0279 7.0279C10.048 7.0078 10.0678 6.98744 10.0872 6.96683C10.1405 6.91029 10.1291 6.82021 10.0628 6.7797C10.044 6.76821 10.0248 6.75688 10.0053 6.74571C9.78899 6.62194 9.53693 6.52153 9.2609 6.44836C9.19047 6.42971 9.11982 6.47432 9.10146 6.54483C9.01855 6.86319 8.90957 7.14128 8.77916 7.36333ZM10.2765 6.95389C10.2836 6.94561 10.296 6.94449 10.3044 6.95147C10.3129 6.95852 10.3255 6.95749 10.3326 6.9491L10.5363 6.71103C10.5483 6.69698 10.5466 6.67583 10.5323 6.66408C10.519 6.65317 10.516 6.63404 10.5253 6.61957C10.8328 6.14 11 5.57861 11 5C11 4.42213 10.8333 3.86144 10.5264 3.38226C10.5175 3.36822 10.5205 3.34959 10.5333 3.33895C10.5471 3.32753 10.5486 3.3071 10.537 3.29349L10.3318 3.05363C10.3251 3.04576 10.3133 3.04482 10.3053 3.05142C10.2974 3.05799 10.2857 3.05689 10.279 3.0491C10.2289 2.99048 10.1763 2.93363 10.1213 2.87868C9.55871 2.31607 8.79564 2 8 2C7.20436 2 6.44129 2.31607 5.87868 2.87868C5.31607 3.44129 5 4.20436 5 5C5 5.79564 5.31607 6.55871 5.87868 7.12132C6.44129 7.68393 7.20436 8 8 8C8.79564 8 9.55871 7.68393 10.1213 7.12132C10.1753 7.06731 10.2271 7.01145 10.2765 6.95389ZM10.0659 3.22272C10.1319 3.18233 10.143 3.09255 10.09 3.03617C10.0697 3.01452 10.049 2.99316 10.0279 2.9721C9.72815 2.67235 9.36888 2.44581 8.97787 2.30398C8.84146 2.2545 8.70567 2.51155 8.77917 2.63668C8.91006 2.85955 9.01937 3.13889 9.10238 3.45872C9.12071 3.5293 9.19142 3.57398 9.26189 3.55527C9.53753 3.4821 9.78925 3.38181 10.0053 3.25835C10.0257 3.24681 10.0459 3.23494 10.0659 3.22272ZM10.4773 3.55507C10.4394 3.4901 10.354 3.4743 10.2904 3.5145C10.257 3.53561 10.2227 3.55621 10.1876 3.57632C9.93486 3.72092 9.64232 3.83622 9.32393 3.91808C9.25646 3.93543 9.21219 4.00067 9.22173 4.06967C9.24902 4.26739 9.26768 4.47431 9.2769 4.68787C9.28 4.75948 9.33846 4.81665 9.41014 4.81665H10.7212C10.7975 4.81665 10.8582 4.75216 10.8496 4.67635C10.8045 4.2794 10.6771 3.89766 10.4773 3.55507ZM10.7212 5.18338C10.7975 5.18338 10.8582 5.24787 10.8496 5.32366C10.8044 5.72163 10.6764 6.1043 10.4758 6.44754C10.4378 6.5125 10.3523 6.52813 10.2887 6.48792C10.2555 6.46692 10.2218 6.44674 10.1876 6.42737C9.93473 6.28286 9.64202 6.16761 9.32343 6.08579C9.2559 6.06845 9.21162 6.00315 9.2212 5.93409C9.24878 5.73525 9.26761 5.52706 9.2769 5.31216C9.28 5.24055 9.33846 5.18338 9.41014 5.18338H10.7212ZM7.30292 6.01595C7.22913 6.02904 7.15761 5.9806 7.14686 5.90644C7.11988 5.72023 7.10071 5.52352 7.09081 5.31911C7.08722 5.2448 7.1471 5.18338 7.22148 5.18338H8.77851C8.8529 5.18338 8.91277 5.24479 8.90919 5.31911C8.90008 5.50737 8.88309 5.6891 8.85938 5.86211C8.8496 5.93347 8.78321 5.98214 8.71166 5.974C8.52909 5.95323 8.34167 5.94255 8.15146 5.94255C7.85932 5.94255 7.57396 5.96783 7.30292 6.01595ZM7.30238 3.988C7.22855 3.97488 7.15698 4.02338 7.14628 4.09759C7.1196 4.28262 7.10063 4.47797 7.09081 4.68092C7.08722 4.75522 7.14708 4.81665 7.22148 4.81665H8.77852C8.85292 4.81665 8.91278 4.75522 8.90919 4.68092C8.90015 4.49413 8.88336 4.31376 8.85995 4.14197C8.85021 4.07056 8.78378 4.02183 8.71217 4.02999C8.52945 4.05081 8.34186 4.06152 8.15146 4.06152C7.85912 4.06152 7.57359 4.0362 7.30238 3.988ZM8 2.43281C8.28078 2.43281 8.56018 2.8574 8.73541 3.51233C8.75552 3.58751 8.70405 3.66235 8.62665 3.67039C8.47174 3.68647 8.31283 3.69478 8.15146 3.69478C7.88335 3.69478 7.62238 3.67181 7.37561 3.62856C7.30202 3.61565 7.25596 3.5425 7.276 3.47053C7.4518 2.83937 7.72525 2.43281 8 2.43281ZM8.15146 6.30928C8.31245 6.30928 8.47099 6.31752 8.62557 6.33351C8.70303 6.34152 8.75453 6.41647 8.73434 6.49167C8.55905 7.14433 8.2802 7.56719 8 7.56719C7.72583 7.56719 7.45295 7.16233 7.27711 6.53346C7.25698 6.46144 7.30306 6.38819 7.3767 6.37531C7.62316 6.33218 7.88375 6.30928 8.15146 6.30928Z" fill="url(#paint5_linear_58_806)" stroke="url(#paint6_linear_58_806)" stroke-width="0.4"/>
</g>
<defs>
<linearGradient id="paint0_linear_58_806" x1="2.4" y1="16.005" x2="8.80811" y2="-0.818382" gradientUnits="userSpaceOnUse">
<stop stop-color="#22B4FA"/>
<stop offset="1" stop-color="#6BD6FE"/>
</linearGradient>
<linearGradient id="paint1_linear_58_806" x1="7.21411" y1="10.5714" x2="11.1426" y2="6.6427" gradientUnits="userSpaceOnUse">
<stop stop-color="#6BD6FE"/>
<stop offset="1" stop-color="white"/>
</linearGradient>
<linearGradient id="paint2_linear_58_806" x1="3.28577" y1="10.5714" x2="6.42858" y2="9" gradientUnits="userSpaceOnUse">
<stop stop-color="#6BD6FE"/>
<stop offset="1" stop-color="white"/>
</linearGradient>
<linearGradient id="paint3_linear_58_806" x1="3.28552" y1="12.9285" x2="7.21404" y2="8.99982" gradientUnits="userSpaceOnUse">
<stop stop-color="#6BD6FE"/>
<stop offset="1" stop-color="white"/>
</linearGradient>
<linearGradient id="paint4_linear_58_806" x1="10.3571" y1="12.9285" x2="13.4999" y2="11.3571" gradientUnits="userSpaceOnUse">
<stop stop-color="#6BD6FE"/>
<stop offset="1" stop-color="white"/>
</linearGradient>
<linearGradient id="paint5_linear_58_806" x1="5" y1="8" x2="12.0588" y2="6.23529" gradientUnits="userSpaceOnUse">
<stop stop-color="#6BD6FE"/>
<stop offset="1" stop-color="white"/>
</linearGradient>
<linearGradient id="paint6_linear_58_806" x1="5" y1="8" x2="12.0588" y2="6.23529" gradientUnits="userSpaceOnUse">
<stop stop-color="#6BD6FE"/>
<stop offset="1" stop-color="white"/>
</linearGradient>
<clipPath id="clip0_58_806">
<rect width="16" height="16" fill="white"/>
</clipPath>
</defs>
</svg>
