<svg width="16" height="16" viewBox="0 0 16 16" fill="none" xmlns="http://www.w3.org/2000/svg">
<g clip-path="url(#clip0_274_27)">
<path fill-rule="evenodd" clip-rule="evenodd" d="M5 0H10.18C10.97 0 11.728 0.314 12.287 0.872C12.817 1.403 13.597 2.183 14.128 2.713C14.686 3.272 15 4.03 15 4.82V13.021C15 13.811 14.686 14.569 14.128 15.128C13.569 15.686 12.811 16 12.021 16C9.796 16 6.204 16 3.979 16C3.189 16 2.431 15.686 1.872 15.128C1.314 14.569 1 13.811 1 13.021V4C1 3.448 1.448 3 2 3C3.104 3 4 2.104 4 1C4 0.448 4.448 0 5 0ZM3 1C3 1.552 2.552 2 2 2C1.448 2 1 1.552 1 1C1 0.448 1.448 0 2 0C2.552 0 3 0.448 3 1Z" fill="url(#paint0_linear_274_27)"/>
<path opacity="0.5" fill-rule="evenodd" clip-rule="evenodd" d="M4.5 5.30002C4.5 5.13383 4.6338 5.00002 4.79999 5.00002H6C6.16618 5.00002 6.29999 5.13383 6.29999 5.30002V7.10001C6.29999 7.26622 6.16618 7.40002 6 7.40002H4.79999C4.6338 7.40002 4.5 7.26622 4.5 7.10001V5.30002ZM7.59095 5.15001C7.59095 5.06689 7.65784 5 7.74095 5H8.04094C8.12404 5 8.19095 5.06689 8.19095 5.15001V7.24999C8.19095 7.33309 8.12404 7.4 8.04094 7.4H7.74095C7.65784 7.4 7.59095 7.33309 7.59095 7.24999V5.15001ZM10.0923 5.15001C10.0923 5.06689 10.1592 5 10.2423 5H10.5423C10.6254 5 10.6923 5.06689 10.6923 5.15001V7.24999C10.6923 7.33309 10.6254 7.4 10.5423 7.4H10.2423C10.1592 7.4 10.0923 7.33309 10.0923 7.24999V5.15001ZM4.79999 8.46155C4.79999 8.37846 4.86689 8.31157 4.94998 8.31157H5.24999C5.33308 8.31157 5.39998 8.37846 5.39998 8.46155V10.5616C5.39998 10.6447 5.33308 10.7115 5.24999 10.7115H4.94998C4.86689 10.7115 4.79999 10.6447 4.79999 10.5616V8.46155ZM6.78327 8.61153C6.78327 8.44533 6.91706 8.31154 7.08326 8.31154H8.28325C8.44945 8.31154 8.58326 8.44533 8.58326 8.61153V10.4115C8.58326 10.5777 8.44945 10.7115 8.28325 10.7115H7.08326C6.91706 10.7115 6.78327 10.5777 6.78327 10.4115V8.61153ZM10.0923 8.46155C10.0923 8.37846 10.1592 8.31157 10.2423 8.31157H10.5423C10.6254 8.31157 10.6923 8.37846 10.6923 8.46155V10.5616C10.6923 10.6447 10.6254 10.7115 10.5423 10.7115H10.2423C10.1592 10.7115 10.0923 10.6447 10.0923 10.5616V8.46155ZM4.5 11.9C4.5 11.7338 4.6338 11.6 4.79999 11.6H6C6.16618 11.6 6.29999 11.7338 6.29999 11.9V13.7C6.29999 13.8662 6.16618 14 6 14H4.79999C4.6338 14 4.5 13.8662 4.5 13.7V11.9ZM7.29095 11.9C7.29095 11.7338 7.42474 11.6 7.59095 11.6H8.79093C8.95714 11.6 9.09094 11.7338 9.09094 11.9V13.7C9.09094 13.8662 8.95714 14 8.79093 14H7.59095C7.42474 14 7.29095 13.8662 7.29095 13.7V11.9ZM10.0923 11.75C10.0923 11.6669 10.1592 11.6 10.2423 11.6H10.5423C10.6254 11.6 10.6923 11.6669 10.6923 11.75V13.85C10.6923 13.9331 10.6254 14 10.5423 14H10.2423C10.1592 14 10.0923 13.9331 10.0923 13.85V11.75Z" fill="url(#paint1_linear_274_27)"/>
<path fill-rule="evenodd" clip-rule="evenodd" d="M5.40906 4.30002C5.40906 4.13383 5.54286 4.00002 5.70905 4.00002H6.90905C7.07524 4.00002 7.20905 4.13383 7.20905 4.30002V6.10001C7.20905 6.26622 7.07524 6.40002 6.90905 6.40002H5.70905C5.54286 6.40002 5.40906 6.26622 5.40906 6.10001V4.30002ZM8.5 4.15001C8.5 4.06689 8.5669 4 8.65001 4H8.95C9.03309 4 9.10001 4.06689 9.10001 4.15001V6.24999C9.10001 6.33309 9.03309 6.4 8.95 6.4H8.65001C8.5669 6.4 8.5 6.33309 8.5 6.24999V4.15001ZM11.0013 4.15001C11.0013 4.06689 11.0682 4 11.1513 4H11.4513C11.5344 4 11.6013 4.06689 11.6013 4.15001V6.24999C11.6013 6.33309 11.5344 6.4 11.4513 6.4H11.1513C11.0682 6.4 11.0013 6.33309 11.0013 6.24999V4.15001ZM5.70905 7.46155C5.70905 7.37846 5.77594 7.31157 5.85904 7.31157H6.15905C6.24214 7.31157 6.30903 7.37846 6.30903 7.46155V9.56156C6.30903 9.64465 6.24214 9.71155 6.15905 9.71155H5.85904C5.77594 9.71155 5.70905 9.64465 5.70905 9.56156V7.46155ZM7.69233 7.61153C7.69233 7.44533 7.82612 7.31154 7.99232 7.31154H9.19231C9.35851 7.31154 9.49232 7.44533 9.49232 7.61153V9.41153C9.49232 9.57773 9.35851 9.71152 9.19231 9.71152H7.99232C7.82612 9.71152 7.69233 9.57773 7.69233 9.41153V7.61153ZM11.0013 7.46155C11.0013 7.37846 11.0682 7.31157 11.1513 7.31157H11.4513C11.5344 7.31157 11.6013 7.37846 11.6013 7.46155V9.56156C11.6013 9.64465 11.5344 9.71155 11.4513 9.71155H11.1513C11.0682 9.71155 11.0013 9.64465 11.0013 9.56156V7.46155ZM5.40906 10.9C5.40906 10.7338 5.54286 10.6 5.70905 10.6H6.90905C7.07524 10.6 7.20905 10.7338 7.20905 10.9V12.7C7.20905 12.8662 7.07524 13 6.90905 13H5.70905C5.54286 13 5.40906 12.8662 5.40906 12.7V10.9ZM8.20001 10.9C8.20001 10.7338 8.3338 10.6 8.5 10.6H9.69999C9.86619 10.6 10 10.7338 10 10.9V12.7C10 12.8662 9.86619 13 9.69999 13H8.5C8.3338 13 8.20001 12.8662 8.20001 12.7V10.9ZM11.0013 10.75C11.0013 10.6669 11.0682 10.6 11.1513 10.6H11.4513C11.5344 10.6 11.6013 10.6669 11.6013 10.75V12.85C11.6013 12.9331 11.5344 13 11.4513 13H11.1513C11.0682 13 11.0013 12.9331 11.0013 12.85V10.75Z" fill="url(#paint2_linear_274_27)"/>
</g>
<defs>
<linearGradient id="paint0_linear_274_27" x1="8" y1="16" x2="8" y2="0" gradientUnits="userSpaceOnUse">
<stop stop-color="#A5A5A5"/>
<stop offset="0.9973" stop-color="#DCDCDC"/>
</linearGradient>
<linearGradient id="paint1_linear_274_27" x1="7.60349" y1="13.9986" x2="11.8947" y2="8.42777" gradientUnits="userSpaceOnUse">
<stop stop-color="#4D4D4D"/>
<stop offset="1" stop-color="#979797"/>
</linearGradient>
<linearGradient id="paint2_linear_274_27" x1="5.40906" y1="4" x2="5.40906" y2="13" gradientUnits="userSpaceOnUse">
<stop stop-color="white"/>
<stop offset="1" stop-color="#B5B5B5"/>
</linearGradient>
<clipPath id="clip0_274_27">
<rect width="16" height="16" fill="white"/>
</clipPath>
</defs>
</svg>
