<svg width="16" height="16" viewBox="0 0 16 16" fill="none" xmlns="http://www.w3.org/2000/svg">
<g clip-path="url(#clip0_52_529)">
<path fill-rule="evenodd" clip-rule="evenodd" d="M5 0H10.18C10.97 0 11.728 0.314 12.287 0.872C12.817 1.403 13.597 2.183 14.128 2.713C14.686 3.272 15 4.03 15 4.82V13.021C15 13.811 14.686 14.569 14.128 15.128C13.569 15.686 12.811 16 12.021 16C9.796 16 6.204 16 3.979 16C3.189 16 2.431 15.686 1.872 15.128C1.314 14.569 1 13.811 1 13.021V4C1 3.448 1.448 3 2 3C3.104 3 4 2.104 4 1C4 0.448 4.448 0 5 0ZM3 1C3 1.552 2.552 2 2 2C1.448 2 1 1.552 1 1C1 0.448 1.448 0 2 0C2.552 0 3 0.448 3 1Z" fill="url(#paint0_linear_52_529)"/>
<path fill-rule="evenodd" clip-rule="evenodd" d="M8.41208 10.4545H5.44238C5.03256 10.4545 4.69995 10.7871 4.69995 11.197C4.69995 11.6068 5.03256 11.9394 5.44238 11.9394H8.41208C8.8219 11.9394 9.15451 11.6068 9.15451 11.197C9.15451 10.7871 8.8219 10.4545 8.41208 10.4545Z" fill="#7FD1AE"/>
<path fill-rule="evenodd" clip-rule="evenodd" d="M10.1091 13.3182H5.44238C5.03256 13.3182 4.69995 13.6508 4.69995 14.0606C4.69995 14.4704 5.03256 14.803 5.44238 14.803H10.1091C10.5189 14.803 10.8515 14.4704 10.8515 14.0606C10.8515 13.6508 10.5189 13.3182 10.1091 13.3182Z" fill="#7FD1AE"/>
<path fill-rule="evenodd" clip-rule="evenodd" d="M9.26059 9.5H6.29089C5.88107 9.5 5.54846 9.83261 5.54846 10.2424C5.54846 10.6522 5.88107 10.9849 6.29089 10.9849H9.26059C9.67041 10.9849 10.003 10.6522 10.003 10.2424C10.003 9.83261 9.67041 9.5 9.26059 9.5Z" fill="url(#paint1_linear_52_529)"/>
<path fill-rule="evenodd" clip-rule="evenodd" d="M10.9576 12.3637H6.29089C5.88107 12.3637 5.54846 12.6963 5.54846 13.1061C5.54846 13.516 5.88107 13.8486 6.29089 13.8486H10.9576C11.3674 13.8486 11.7 13.516 11.7 13.1061C11.7 12.6963 11.3674 12.3637 10.9576 12.3637Z" fill="url(#paint2_linear_52_529)"/>
<path d="M7.22222 4.83698L5.9878 3.28443L5.9844 3.28742C5.72595 2.96135 5.21926 2.88358 4.84859 3.11093C4.47792 3.33827 4.38951 3.784 4.64795 4.11006L6.22584 6.09039L4.65135 8.07072C4.39291 8.39379 4.48472 8.8425 4.85199 9.06985C5.21926 9.2972 5.72935 9.21943 5.9878 8.89336L7.22222 7.34081L8.46005 8.89336C8.71849 9.21943 9.22519 9.2972 9.59585 9.06985C9.96652 8.8425 10.0549 8.39678 9.79649 8.07072L8.2186 6.09039L9.79309 4.10707C10.0515 3.784 9.95972 3.33528 9.59245 3.10793C9.22519 2.88059 8.71509 2.95836 8.45665 3.28443L7.22222 4.83698Z" fill="#7FD1AE"/>
<path d="M8.00005 4.05921L6.76563 2.50666L6.76223 2.50965C6.50378 2.18358 5.99709 2.10581 5.62642 2.33315C5.25576 2.5605 5.16734 3.00623 5.42579 3.33229L7.00367 5.31262L5.42919 7.29295C5.17074 7.61602 5.26256 8.06473 5.62982 8.29208C5.99709 8.51943 6.50718 8.44166 6.76563 8.11559L8.00005 6.56304L9.23788 8.11559C9.49633 8.44166 10.003 8.51943 10.3737 8.29208C10.7444 8.06473 10.8328 7.61901 10.5743 7.29295L8.99644 5.31262L10.5709 3.3293C10.8294 3.00623 10.7376 2.55751 10.3703 2.33016C10.003 2.10281 9.49293 2.18059 9.23448 2.50666L8.00005 4.05921Z" fill="url(#paint3_linear_52_529)"/>
</g>
<defs>
<linearGradient id="paint0_linear_52_529" x1="2.75" y1="14.0004" x2="16.0076" y2="11.3235" gradientUnits="userSpaceOnUse">
<stop stop-color="#62E8AF"/>
<stop offset="1" stop-color="#B3FBDC"/>
</linearGradient>
<linearGradient id="paint1_linear_52_529" x1="5.54846" y1="10.9849" x2="5.70207" y2="9.14159" gradientUnits="userSpaceOnUse">
<stop stop-color="#B3FBDC"/>
<stop offset="1" stop-color="white"/>
</linearGradient>
<linearGradient id="paint2_linear_52_529" x1="5.54846" y1="13.8486" x2="5.66006" y2="11.9992" gradientUnits="userSpaceOnUse">
<stop stop-color="#B3FBDC"/>
<stop offset="1" stop-color="white"/>
</linearGradient>
<linearGradient id="paint3_linear_52_529" x1="5.27783" y1="8.42223" x2="7.33234" y2="1.23146" gradientUnits="userSpaceOnUse">
<stop stop-color="#B3FBDC"/>
<stop offset="1" stop-color="white"/>
</linearGradient>
<clipPath id="clip0_52_529">
<rect width="16" height="16" fill="white"/>
</clipPath>
</defs>
</svg>
