<svg width="16" height="16" viewBox="0 0 16 16" fill="none" xmlns="http://www.w3.org/2000/svg">
<g clip-path="url(#clip0_271_78)">
<path opacity="0.5" fill-rule="evenodd" clip-rule="evenodd" d="M3 8C3 6 1.336 5.837 1.276 5.807C0.780999 5.563 0.576999 4.963 0.820999 4.468C2.126 1.822 4.852 0 8 0C12.415 0 16 3.585 16 8C16 12.415 12.415 16 8 16C4.852 16 2.126 14.178 0.820999 11.532C0.576999 11.037 0.780999 10.437 1.276 10.193C1.336 10.163 3 10 3 8ZM1 9C0.448 9 0 8.552 0 8C0 7.448 0.448 7 1 7C1.552 7 2 7.448 2 8C2 8.552 1.552 9 1 9Z" fill="url(#paint0_linear_271_78)"/>
<path d="M8.10471 3.9883C7.48848 3.9883 6.98837 4.48839 6.98837 5.10458C6.98837 5.30195 6.90997 5.49124 6.77039 5.63081C6.63086 5.77037 6.44157 5.84877 6.2442 5.84877C6.04683 5.84877 5.85754 5.77037 5.71798 5.63081C5.57841 5.49124 5.5 5.30195 5.5 5.10458C5.50002 4.67785 5.60488 4.25766 5.80537 3.88095C6.00585 3.50425 6.29582 3.18257 6.64977 2.94421C7.00376 2.70585 7.41085 2.5581 7.8353 2.51397C8.25968 2.46983 8.68848 2.53065 9.08391 2.69108C9.47934 2.85151 9.82927 3.10665 10.1031 3.43404C10.3767 3.76143 10.5658 4.15106 10.6536 4.56866C10.7415 4.98626 10.7253 5.41903 10.6067 5.82894C10.488 6.23884 10.2705 6.61329 9.97317 6.91942C9.88177 7.01367 9.79447 7.10098 9.71111 7.18434C9.50959 7.37634 9.32033 7.58076 9.14456 7.7966C8.92627 8.07638 8.84886 8.28178 8.84886 8.45344V9.19767C8.84886 9.395 8.77047 9.58426 8.63088 9.72384C8.4913 9.86342 8.30205 9.94182 8.10471 9.94182C7.9073 9.94182 7.71805 9.86342 7.57847 9.72384C7.43888 9.58426 7.36048 9.395 7.36048 9.19767V8.45344C7.36048 7.80354 7.66311 7.2766 7.9697 6.8827C8.19698 6.59097 8.4817 6.30719 8.71393 6.07501C8.78342 6.00555 8.84887 5.94105 8.9054 5.88251C9.05831 5.72514 9.16147 5.52619 9.20201 5.31052C9.24246 5.09486 9.21846 4.87205 9.13306 4.66993C9.04757 4.46782 8.90448 4.29537 8.72155 4.17414C8.53869 4.0529 8.32414 3.98826 8.10471 3.9883ZM8.10471 13.1666C8.36787 13.1666 8.62022 13.0621 8.80627 12.876C8.99241 12.6899 9.09694 12.4376 9.09694 12.1744C9.09694 11.9112 8.99241 11.6588 8.80627 11.4728C8.62022 11.2866 8.36787 11.1821 8.10471 11.1821C7.84155 11.1821 7.58913 11.2866 7.40307 11.4728C7.21694 11.6588 7.11241 11.9112 7.11241 12.1744C7.11241 12.4376 7.21694 12.6899 7.40307 12.876C7.58913 13.0621 7.84155 13.1666 8.10471 13.1666Z" fill="url(#paint1_linear_271_78)"/>
</g>
<defs>
<linearGradient id="paint0_linear_271_78" x1="4" y1="14.8571" x2="14.5882" y2="2.5042" gradientUnits="userSpaceOnUse">
<stop stop-color="#A056FF"/>
<stop offset="1" stop-color="#C59AFD"/>
</linearGradient>
<linearGradient id="paint1_linear_271_78" x1="6.80234" y1="12.4047" x2="12.9471" y2="8.90359" gradientUnits="userSpaceOnUse">
<stop stop-color="#A056FF"/>
<stop offset="1" stop-color="#C59AFD"/>
</linearGradient>
<clipPath id="clip0_271_78">
<rect width="16" height="16" fill="white"/>
</clipPath>
</defs>
</svg>
