<svg width="16" height="16" viewBox="0 0 16 16" fill="none" xmlns="http://www.w3.org/2000/svg">
<path fill-rule="evenodd" clip-rule="evenodd" d="M12.8 1.06667C12.8 0.477867 13.2779 0 13.8667 0C14.4555 0 14.9333 0.477867 14.9333 1.06667C14.9333 1.65547 14.4555 2.13333 13.8667 2.13333C13.2779 2.13333 12.8 1.65547 12.8 1.06667ZM11.68 16H4.25333C2.45387 15.9808 1 14.5163 1 12.7115V3.28853C1 2.416 1.34667 1.57973 1.9632 0.9632C2.57973 0.346667 3.416 0 4.28853 0H10.6667C11.2555 0 11.7333 0.477867 11.7333 1.06667C11.7333 2.24427 12.6891 3.2 13.8667 3.2C14.4555 3.2 14.9333 3.67787 14.9333 4.26667V12.7115C14.9333 14.5163 13.4795 15.9808 11.68 16Z" fill="url(#paint0_linear_73_1679)"/>
<path fill-rule="evenodd" clip-rule="evenodd" d="M9.27586 12H4.72414C4.32441 12 4 12.3244 4 12.7241C4 13.1239 4.32441 13.4483 4.72414 13.4483H9.27586C9.67559 13.4483 10 13.1239 10 12.7241C10 12.3244 9.67559 12 9.27586 12Z" fill="#D84F4F"/>
<path fill-rule="evenodd" clip-rule="evenodd" d="M10.2759 11H5.72414C5.32441 11 5 11.3244 5 11.7241C5 12.1239 5.32441 12.4483 5.72414 12.4483H10.2759C10.6756 12.4483 11 12.1239 11 11.7241C11 11.3244 10.6756 11 10.2759 11Z" fill="url(#paint1_linear_73_1679)"/>
<path d="M5.20002 3.19885C4.7582 3.19885 4.40002 3.55703 4.40002 3.99885V9.30101C4.40002 9.90565 5.11683 10.2239 5.56536 9.81846L6.60863 8.87533C6.74148 8.75521 6.94373 8.75524 7.07655 8.87543L8.11734 9.81724C8.5658 10.223 9.28292 9.90481 9.28292 9.3V3.19885H5.20002Z" fill="#D84F4F"/>
<path d="M6.599 2C6.04672 2 5.599 2.44772 5.599 3V8.10216C5.599 8.7068 6.31581 9.02509 6.76434 8.6196L7.8076 7.67647C7.94045 7.55635 8.14271 7.55639 8.27552 7.67658L9.31631 8.61838C9.76477 9.02419 10.4819 8.70596 10.4819 8.10114V3C10.4819 2.44771 10.0342 2 9.4819 2H6.599Z" fill="url(#paint2_linear_73_1679)"/>
<defs>
<linearGradient id="paint0_linear_73_1679" x1="3.6125" y1="14" x2="13.7693" y2="3.38612" gradientUnits="userSpaceOnUse">
<stop stop-color="#FF405B"/>
<stop offset="1" stop-color="#FF8860"/>
</linearGradient>
<linearGradient id="paint1_linear_73_1679" x1="6.71362" y1="12.4482" x2="6.84648" y2="11.1377" gradientUnits="userSpaceOnUse">
<stop stop-color="#FF8860"/>
<stop offset="1" stop-color="white"/>
</linearGradient>
<linearGradient id="paint2_linear_73_1679" x1="6.99357" y1="8.80093" x2="9.70343" y2="4.16875" gradientUnits="userSpaceOnUse">
<stop stop-color="#FF8860"/>
<stop offset="1" stop-color="white"/>
</linearGradient>
</defs>
</svg>
