<svg width="16" height="16" viewBox="0 0 16 16" fill="none" xmlns="http://www.w3.org/2000/svg">
<g clip-path="url(#clip0_271_108)">
<path opacity="0.5" fill-rule="evenodd" clip-rule="evenodd" d="M2.63333 14.9333C2.63333 15.5221 2.15547 16 1.56667 16C0.97787 16 0.5 15.5221 0.5 14.9333C0.5 14.3445 0.97787 13.8667 1.56667 13.8667C2.15547 13.8667 2.63333 14.3445 2.63333 14.9333ZM3.75333 0H12.18C13.9795 0.0192 15.4333 1.48373 15.4333 3.28853V12.7115C15.4333 13.584 15.0867 14.4203 14.4701 15.0368C13.8536 15.6533 13.0173 16 12.1448 16H4.76667C4.17787 16 3.7 15.5221 3.7 14.9333C3.7 13.7557 2.74427 12.8 1.56667 12.8C0.97787 12.8 0.5 12.3221 0.5 11.7333V3.28853C0.5 1.48373 1.95387 0.0192 3.75333 0Z" fill="url(#paint0_linear_271_108)"/>
<path fill-rule="evenodd" clip-rule="evenodd" d="M7.06667 2.28556H9.2C9.7888 2.28556 10.2667 1.80769 10.2667 1.21889C10.2667 0.630088 9.7888 0.152222 9.2 0.152222H7.06667C6.47787 0.152222 6 0.630088 6 1.21889C6 1.80769 6.47787 2.28556 7.06667 2.28556Z" fill="url(#paint1_linear_271_108)"/>
<path fill-rule="evenodd" clip-rule="evenodd" d="M7.06667 6.70474H9.2C9.78884 6.70474 10.2666 6.22688 10.2666 5.63808C10.2666 5.04928 9.78884 4.57141 9.2 4.57141H7.06667C6.47787 4.57141 6 5.04928 6 5.63808C6 6.22688 6.47787 6.70474 7.06667 6.70474Z" fill="url(#paint2_linear_271_108)"/>
<path fill-rule="evenodd" clip-rule="evenodd" d="M7.06667 11.2761H9.2C9.78884 11.2761 10.2666 10.7983 10.2666 10.2095C10.2666 9.62069 9.78884 9.14282 9.2 9.14282H7.06667C6.47787 9.14282 6 9.62069 6 10.2095C6 10.7983 6.47787 11.2761 7.06667 11.2761Z" fill="url(#paint3_linear_271_108)"/>
</g>
<defs>
<linearGradient id="paint0_linear_271_108" x1="1.56667" y1="16" x2="12.3789" y2="1.32153" gradientUnits="userSpaceOnUse">
<stop stop-color="#9BE862"/>
<stop offset="1" stop-color="#C8FF9F"/>
</linearGradient>
<linearGradient id="paint1_linear_271_108" x1="6.30476" y1="2.28556" x2="7.23289" y2="-0.414454" gradientUnits="userSpaceOnUse">
<stop stop-color="#9BE862"/>
<stop offset="1" stop-color="#C8FF9F"/>
</linearGradient>
<linearGradient id="paint2_linear_271_108" x1="6.30476" y1="6.70474" x2="7.23289" y2="4.00474" gradientUnits="userSpaceOnUse">
<stop stop-color="#9BE862"/>
<stop offset="1" stop-color="#C8FF9F"/>
</linearGradient>
<linearGradient id="paint3_linear_271_108" x1="6.30476" y1="11.2761" x2="7.23285" y2="8.57615" gradientUnits="userSpaceOnUse">
<stop stop-color="#9BE862"/>
<stop offset="1" stop-color="#C8FF9F"/>
</linearGradient>
<clipPath id="clip0_271_108">
<rect width="16" height="16" fill="white"/>
</clipPath>
</defs>
</svg>
