<svg width="16" height="16" viewBox="0 0 16 16" fill="none" xmlns="http://www.w3.org/2000/svg">
<path fill-rule="evenodd" clip-rule="evenodd" d="M3 1C3 0.448 3.448 0 4 0C4 0 9.853 0 13.02 0C13.811 0 14.568 0.313999 15.127 0.872999C15.686 1.432 16 2.189 16 2.98C16 5.644 16 10.356 16 13.02C16 13.811 15.686 14.568 15.127 15.127C14.568 15.686 13.811 16 13.02 16C10.356 16 5.644 16 2.98 16C2.189 16 1.432 15.686 0.873 15.127C0.314 14.568 0 13.811 0 13.02V4C0 3.448 0.448 3 1 3C2.104 3 3 2.104 3 1ZM0 1C0 0.448 0.448 0 1 0C1.552 0 2 0.448 2 1C2 1.552 1.552 2 1 2C0.448 2 0 1.552 0 1Z" fill="url(#paint0_linear_73_1823)"/>
<path opacity="0.8" fill-rule="evenodd" clip-rule="evenodd" d="M8.24907 8.8118C8.24907 9.4059 7.67981 9.89025 6.98165 9.89025C6.28349 9.89025 5.71423 9.4059 5.71423 8.8118V4.50702C5.71423 3.91296 6.28349 3.42859 6.98165 3.42859C7.67981 3.42859 8.24907 3.91296 8.24907 4.50702V8.8118ZM5.71423 12.436C5.71423 11.7318 6.27735 11.1577 6.96727 11.1577C7.67727 11.1577 8.24185 11.7318 8.24185 12.436C8.24185 13.1402 7.67728 13.7143 6.98165 13.7143C6.28311 13.7143 5.71423 13.1402 5.71423 12.436Z" fill="#D48134"/>
<path fill-rule="evenodd" clip-rule="evenodd" d="M9.39189 7.66898C9.39189 8.26308 8.82263 8.74742 8.12447 8.74742C7.42632 8.74742 6.85706 8.26308 6.85706 7.66898V3.3642C6.85706 2.77013 7.42632 2.28577 8.12447 2.28577C8.82263 2.28577 9.39189 2.77013 9.39189 3.3642V7.66898ZM6.85706 11.2932C6.85706 10.589 7.42017 10.0149 8.11009 10.0149C8.8201 10.0149 9.38467 10.589 9.38467 11.2932C9.38467 11.9974 8.8201 12.5715 8.12447 12.5715C7.42594 12.5715 6.85706 11.9974 6.85706 11.2932Z" fill="url(#paint1_linear_73_1823)"/>
<defs>
<linearGradient id="paint0_linear_73_1823" x1="8" y1="16" x2="8" y2="0" gradientUnits="userSpaceOnUse">
<stop stop-color="#FD5900"/>
<stop offset="1" stop-color="#FFDE00"/>
</linearGradient>
<linearGradient id="paint1_linear_73_1823" x1="7.49077" y1="10" x2="9.88047" y2="9.41113" gradientUnits="userSpaceOnUse">
<stop stop-color="#FBD92C"/>
<stop offset="1" stop-color="white"/>
</linearGradient>
</defs>
</svg>
