<svg width="16" height="16" viewBox="0 0 16 16" fill="none" xmlns="http://www.w3.org/2000/svg">
<path fill-rule="evenodd" clip-rule="evenodd" d="M12 14.0001C12 14.5521 11.552 15.0001 11 15.0001C10.448 15.0001 10 14.5521 10 14.0001C10 13.4481 10.448 13.0001 11 13.0001C11.552 13.0001 12 13.4481 12 14.0001ZM3.758 4.00014C3.911 3.84814 4.084 3.71514 4.275 3.60514C5.215 3.06214 6.844 2.12114 8.199 1.33914C8.987 0.884137 9.955 0.887137 10.74 1.34714C11.519 1.80414 12 2.64414 12 3.55414V10.9821C12 11.5311 11.555 11.9781 11.006 11.9821H11C9.909 11.9961 9 12.9051 9 14.0001C8.781 14.5061 8.191 14.7401 7.685 14.5201L4.534 12.3031C4.347 12.2221 4.173 12.1201 4.015 12.0001C4.01 12.0001 4.005 12.0001 4 12.0001C4 12.0001 3.273 12.0001 2.535 12.0001C1.863 12.0001 1.218 11.7331 0.742 11.2581C0.267 10.7821 0 10.1381 0 9.46514V6.53514C0 5.86214 0.267 5.21814 0.742 4.74214C1.218 4.26714 1.863 4.00014 2.535 4.00014H3.758ZM11.006 11.9761C11.006 11.9761 11.005 11.9771 11.002 11.9801L11 11.9821C10.998 11.9821 11.004 11.9771 11.006 11.9761ZM13.445 6.83214C13.445 6.83214 14 7.22914 14 8.00014C14 8.77114 13.445 9.16814 13.445 9.16814C12.986 9.47414 12.862 10.0951 13.168 10.5551C13.474 11.0141 14.095 11.1381 14.555 10.8321C14.555 10.8321 16 9.89614 16 8.00014C16 6.10414 14.555 5.16814 14.555 5.16814C14.095 4.86214 13.474 4.98614 13.168 5.44514C12.862 5.90514 12.986 6.52614 13.445 6.83214Z" fill="url(#paint0_linear_73_1865)"/>
<path fill-rule="evenodd" clip-rule="evenodd" d="M2 11.9431V6.00012C2 5.44812 2.45 5.00012 3 5.00012C3.55 5.00012 4 5.44812 4 6.00012V12.0001H2.53C2.35 12.0001 2.17 11.9811 2 11.9431Z" fill="#8CC860"/>
<path fill-rule="evenodd" clip-rule="evenodd" d="M3 5.00012V11.0001C3 11.5521 3.45 12.0001 4 12.0001C4.55 12.0001 5 11.5521 5 11.0001V5.00012C5 4.44812 4.55 4.00012 4 4.00012C3.45 4.00012 3 4.44812 3 5.00012Z" fill="url(#paint1_linear_73_1865)"/>
<defs>
<linearGradient id="paint0_linear_73_1865" x1="1.14286" y1="15.0001" x2="9.89447" y2="0.452139" gradientUnits="userSpaceOnUse">
<stop stop-color="#9BE862"/>
<stop offset="1" stop-color="#C8FF9F"/>
</linearGradient>
<linearGradient id="paint1_linear_73_1865" x1="3.25" y1="12.0001" x2="6.113" y2="11.3738" gradientUnits="userSpaceOnUse">
<stop stop-color="#C8FF9F"/>
<stop offset="1" stop-color="white"/>
</linearGradient>
</defs>
</svg>
