<svg width="16" height="16" viewBox="0 0 16 16" fill="none" xmlns="http://www.w3.org/2000/svg">
<path fill-rule="evenodd" clip-rule="evenodd" d="M14.7142 14.8572C14.7142 15.488 14.2022 16 13.5713 16C12.9405 16 12.4285 15.488 12.4285 14.8572C12.4285 14.2263 12.9405 13.7143 13.5713 13.7143C14.2022 13.7143 14.7142 14.2263 14.7142 14.8572ZM5.29482 3.4287C5.46967 3.25498 5.66738 3.10298 5.88567 2.97727C6.95994 2.35671 8.82164 1.28129 10.3702 0.387582C11.2708 -0.132413 12.377 -0.128985 13.2742 0.396725C14.1644 0.919005 14.7142 1.879 14.7142 2.91899V11.408C14.7142 12.0355 14.2056 12.5463 13.5782 12.5509H13.5713C12.3245 12.5669 11.2856 13.6057 11.2856 14.8572C11.0353 15.4354 10.3611 15.7029 9.78277 15.4514L6.18166 12.9177C5.96795 12.8252 5.7691 12.7086 5.58853 12.5715C5.58281 12.5715 5.5771 12.5715 5.57138 12.5715C5.57138 12.5715 4.74053 12.5715 3.89711 12.5715C3.12912 12.5715 2.39199 12.2663 1.84799 11.7235C1.30514 11.1795 1 10.4435 1 9.67435V6.32581C1 5.55667 1.30514 4.82068 1.84799 4.27669C2.39199 3.73384 3.12912 3.4287 3.89711 3.4287H5.29482ZM13.5782 12.544C13.5782 12.544 13.577 12.5452 13.5736 12.5486L13.5713 12.5509C13.569 12.5509 13.5759 12.5452 13.5782 12.544Z" fill="url(#paint0_linear_73_1883)"/>
<path fill-rule="evenodd" clip-rule="evenodd" d="M3.28564 12.5063V5.71438C3.28564 5.08353 3.79993 4.57153 4.42849 4.57153C5.05706 4.57153 5.57134 5.08353 5.57134 5.71438V12.5715H3.89135C3.68564 12.5715 3.47993 12.5497 3.28564 12.5063Z" fill="#D49F34"/>
<path fill-rule="evenodd" clip-rule="evenodd" d="M4.42859 4.57156V11.4287C4.42859 12.0595 4.94287 12.5715 5.57143 12.5715C6.2 12.5715 6.71428 12.0595 6.71428 11.4287V4.57156C6.71428 3.9407 6.2 3.42871 5.57143 3.42871C4.94287 3.42871 4.42859 3.9407 4.42859 4.57156Z" fill="url(#paint1_linear_73_1883)"/>
<defs>
<linearGradient id="paint0_linear_73_1883" x1="3.5714" y1="14.9988" x2="13.7332" y2="4.54596" gradientUnits="userSpaceOnUse">
<stop stop-color="#FF8860"/>
<stop offset="1" stop-color="#FBD92C"/>
</linearGradient>
<linearGradient id="paint1_linear_73_1883" x1="5.00001" y1="10.2858" x2="7.15125" y2="9.74798" gradientUnits="userSpaceOnUse">
<stop stop-color="#FBD92C"/>
<stop offset="1" stop-color="white"/>
</linearGradient>
</defs>
</svg>
