<svg width="16" height="16" viewBox="0 0 16 16" fill="none" xmlns="http://www.w3.org/2000/svg">
<path fill-rule="evenodd" clip-rule="evenodd" d="M4.46445 11.5355C3.05024 10.1213 1.75835 11.1827 1.69471 11.2039C1.17216 11.3814 0.603648 11.1013 0.426164 10.5788C-0.522065 7.78501 0.117159 4.56909 2.34313 2.34312C5.46501 -0.778761 10.535 -0.778761 13.6568 2.34312C16.7787 5.46499 16.7787 10.5349 13.6568 13.6568C11.4309 15.8828 8.21495 16.522 5.42117 15.5738C4.89861 15.3963 4.6186 14.8278 4.79608 14.3052C4.8173 14.2416 5.87867 12.9497 4.46445 11.5355ZM3.75734 13.6568C3.36702 14.0471 2.73345 14.0471 2.34313 13.6568C1.95281 13.2665 1.95281 12.6329 2.34313 12.2426C2.73345 11.8523 3.36702 11.8523 3.75734 12.2426C4.14767 12.6329 4.14767 13.2665 3.75734 13.6568Z" fill="url(#paint0_linear_73_1916)"/>
<path d="M8.21194 5.00021C9.23588 5.00265 10.1845 5.25261 11.024 5.88042L11.0353 5.88886C11.0489 5.89903 11.0615 5.9105 11.0729 5.92309L11.0824 5.93358C11.2887 6.16179 11.3788 6.44003 11.3215 6.71917C11.2674 6.98221 11.0954 7.18266 10.9048 7.30723C10.5609 7.53205 10.003 7.59273 9.60991 7.20388C9.5899 7.18405 9.56763 7.16628 9.54265 7.15324C8.36101 6.53563 6.73452 6.92401 5.91259 7.85346L5.90933 7.85714L5.90597 7.8608C5.60322 8.18681 5.44845 8.59816 5.38203 9.06931C5.36076 9.22022 5.48244 9.34965 5.63485 9.34965H6.31196C6.52842 9.34965 6.65215 9.59658 6.52256 9.76997L4.59823 12.3445C4.49309 12.4852 4.28221 12.4852 4.17707 12.3445L2.25275 9.76997C2.12316 9.59658 2.24689 9.34965 2.46334 9.34965H3.2025C3.34022 9.34965 3.45379 9.2432 3.47104 9.10659C3.69983 7.29203 4.97523 5.6612 6.85249 5.17723C7.29029 5.0621 7.74724 4.99577 8.21194 5.00021Z" fill="#8CC860"/>
<path d="M12.2229 7.179L14.1472 9.75351C14.2768 9.9269 14.1531 10.1738 13.9366 10.1738H13.1974C13.0598 10.1738 12.9461 10.2803 12.9289 10.4169C12.7002 12.2314 11.4247 13.8623 9.54748 14.3463C9.16439 14.447 8.76802 14.5094 8.36434 14.5206L8.36085 14.5221L8.35719 14.5236L8.18964 14.5233C7.16474 14.5211 6.21568 14.27 5.37598 13.642L5.3647 13.6336C5.35108 13.6234 5.33852 13.6119 5.3271 13.5993L5.31764 13.5888C5.11138 13.3607 5.0211 13.0825 5.07849 12.8034C5.1326 12.5403 5.30481 12.34 5.49545 12.2155C5.83958 11.9909 6.39767 11.9309 6.79056 12.3201C6.81041 12.3397 6.8325 12.3574 6.85719 12.3705C8.04485 12.9988 9.59923 12.6953 10.4846 11.6732L10.4892 11.6679L10.494 11.6627C10.7967 11.3367 10.9516 10.9253 11.0179 10.4542C11.0392 10.3033 10.9175 10.1738 10.7651 10.1738H10.088C9.87155 10.1738 9.74785 9.9269 9.87744 9.75351L11.8017 7.179C11.9069 7.03831 12.1178 7.03831 12.2229 7.179Z" fill="#8CC860"/>
<path d="M8.01199 3.00021C9.03593 3.00265 9.98455 3.25261 10.824 3.88042L10.8353 3.88886C10.8489 3.89903 10.8615 3.9105 10.8729 3.92309L10.8824 3.93358C11.0887 4.16179 11.1789 4.44003 11.1215 4.71917C11.0675 4.98221 10.8954 5.18266 10.7048 5.30723C10.361 5.53205 9.80304 5.59273 9.40995 5.20388C9.38995 5.18405 9.36768 5.16628 9.3427 5.15324C8.16106 4.53563 6.53457 4.92401 5.71264 5.85346L5.70938 5.85714L5.70602 5.8608C5.40327 6.18681 5.24849 6.59816 5.18208 7.06931C5.16081 7.22022 5.28249 7.34965 5.4349 7.34965H6.11201C6.32847 7.34965 6.45219 7.59658 6.3226 7.76997L4.39828 10.3445C4.29314 10.4852 4.08226 10.4852 3.97712 10.3445L2.0528 7.76997C1.92321 7.59658 2.04693 7.34965 2.26339 7.34965H3.00255C3.14026 7.34965 3.25384 7.2432 3.27109 7.10659C3.49988 5.29203 4.77527 3.6612 6.65254 3.17723C7.09034 3.0621 7.54729 2.99577 8.01199 3.00021Z" fill="url(#paint1_linear_73_1916)"/>
<path d="M12.0229 5.179L13.9473 7.75351C14.0769 7.9269 13.9531 8.17383 13.7367 8.17383H12.9975C12.8598 8.17383 12.7462 8.28028 12.729 8.41689C12.5002 10.2314 11.2248 11.8623 9.34753 12.3463C8.96444 12.447 8.56807 12.5094 8.16439 12.5206L8.1609 12.5221L8.15724 12.5236L7.98968 12.5233C6.96479 12.5211 6.01572 12.27 5.17603 11.642L5.16475 11.6336C5.15113 11.6234 5.13856 11.6119 5.12715 11.5993L5.11769 11.5888C4.91143 11.3607 4.82115 11.0825 4.87854 10.8034C4.93265 10.5403 5.10486 10.34 5.2955 10.2155C5.63963 9.99094 6.19771 9.93089 6.59061 10.3201C6.61046 10.3397 6.63255 10.3574 6.65724 10.3705C7.8449 10.9988 9.39927 10.6953 10.2847 9.6732L10.2893 9.66787L10.2941 9.66269C10.5968 9.33667 10.7516 8.92532 10.818 8.45418C10.8393 8.30329 10.7176 8.17383 10.5652 8.17383H9.88806C9.6716 8.17383 9.5479 7.9269 9.67749 7.75351L11.6018 5.179C11.7069 5.03831 11.9178 5.03831 12.0229 5.179Z" fill="url(#paint2_linear_73_1916)"/>
<defs>
<linearGradient id="paint0_linear_73_1916" x1="1.14398" y1="15.9986" x2="11.7126" y2="0.626067" gradientUnits="userSpaceOnUse">
<stop stop-color="#9BE862"/>
<stop offset="1" stop-color="#C8FF9F"/>
</linearGradient>
<linearGradient id="paint1_linear_73_1916" x1="3.14231" y1="10.45" x2="9.51207" y2="3.61324" gradientUnits="userSpaceOnUse">
<stop stop-color="#C8FF9F"/>
<stop offset="1" stop-color="white"/>
</linearGradient>
<linearGradient id="paint2_linear_73_1916" x1="6.00388" y1="12.5236" x2="12.3738" y2="5.68685" gradientUnits="userSpaceOnUse">
<stop stop-color="#C8FF9F"/>
<stop offset="1" stop-color="white"/>
</linearGradient>
</defs>
</svg>
