<svg width="16" height="16" viewBox="0 0 16 16" fill="none" xmlns="http://www.w3.org/2000/svg">
<path d="M14.1997 4.39992C14.7566 4.39992 15.3796 4.74585 15.3894 5.3027C15.3997 5.88978 15.3997 6.54482 15.3997 7.27823V11.2726C15.3997 13.7493 15.3997 14.9885 14.8125 15.5292C14.5325 15.7876 14.1789 15.95 13.8021 15.9932C13.0126 16.0836 12.0899 15.2675 10.2462 13.6365L10.2378 13.6291C9.42743 12.9132 9.0214 12.5546 8.55182 12.4605C8.3195 12.4136 8.08016 12.4136 7.84784 12.4605C7.37695 12.5547 6.97055 12.914 6.15915 13.6315L6.15315 13.6368C4.30941 15.2677 3.3871 16.0836 2.59756 15.9924C2.22016 15.9491 1.86631 15.7869 1.58719 15.5292C1 14.9885 1 13.7501 1 11.2725V7.27743C1 3.84791 1 2.13275 2.05438 1.06638C3.10875 0 4.80631 0 8.19983 0C9.11301 0 9.90333 0 10.5913 0.0207497C11.4246 0.04588 11.7997 1.16635 11.7997 1.99998C11.7997 3.32543 12.8742 4.39992 14.1997 4.39992Z" fill="url(#paint0_linear_73_1926)"/>
<path d="M14.1997 3.19999C14.8625 3.19999 15.3997 2.66275 15.3997 2.00002C15.3997 1.33729 14.8625 0.800049 14.1997 0.800049C13.537 0.800049 12.9998 1.33729 12.9998 2.00002C12.9998 2.66275 13.537 3.19999 14.1997 3.19999Z" fill="url(#paint1_linear_73_1926)"/>
<path fill-rule="evenodd" clip-rule="evenodd" d="M4.54749 5.82496H10.3224C10.757 5.82496 11.1098 5.47217 11.1098 5.03748C11.1098 4.60279 10.757 4.25 10.3224 4.25H4.54749C4.1128 4.25 3.76001 4.60279 3.76001 5.03748C3.76001 5.47217 4.1128 5.82496 4.54749 5.82496Z" fill="#B85C68"/>
<path fill-rule="evenodd" clip-rule="evenodd" d="M5.59742 4.77491H11.3723C11.807 4.77491 12.1598 4.42212 12.1598 3.98743C12.1598 3.55274 11.807 3.19995 11.3723 3.19995H5.59742C5.16273 3.19995 4.80994 3.55274 4.80994 3.98743C4.80994 4.42212 5.16273 4.77491 5.59742 4.77491Z" fill="url(#paint2_linear_73_1926)"/>
<defs>
<linearGradient id="paint0_linear_73_1926" x1="2.02855" y1="15.0204" x2="15.8027" y2="8.33048" gradientUnits="userSpaceOnUse">
<stop stop-color="#B65592"/>
<stop offset="0.5" stop-color="#FB6F71"/>
<stop offset="1" stop-color="#F9CB52"/>
</linearGradient>
<linearGradient id="paint1_linear_73_1926" x1="2.0285" y1="15.0205" x2="15.8027" y2="8.33054" gradientUnits="userSpaceOnUse">
<stop stop-color="#B65592"/>
<stop offset="0.5" stop-color="#FB6F71"/>
<stop offset="1" stop-color="#F9CB52"/>
</linearGradient>
<linearGradient id="paint2_linear_73_1926" x1="5.33492" y1="4.67849" x2="6.51831" y2="1.69822" gradientUnits="userSpaceOnUse">
<stop stop-color="#D4A4C4"/>
<stop offset="0.5" stop-color="#F7B1B3"/>
<stop offset="1" stop-color="#F7E1A3"/>
</linearGradient>
</defs>
</svg>
