<svg width="16" height="16" viewBox="0 0 16 16" fill="none" xmlns="http://www.w3.org/2000/svg">
<path fill-rule="evenodd" clip-rule="evenodd" d="M3.88338 8.86118C3.88338 10.5834 2.45049 10.7238 2.39883 10.7496C1.97258 10.9597 1.79691 11.4764 2.00702 11.9027C3.13077 14.1812 5.47816 15.7501 8.18894 15.7501C11.9907 15.7501 15.0778 12.663 15.0778 8.86118C15.0778 5.05937 11.9907 1.97229 8.18894 1.97229C5.47816 1.97229 3.13077 3.54123 2.00702 5.81973C1.79691 6.24598 1.97258 6.76265 2.39883 6.97276C2.45049 6.99859 3.88338 7.13896 3.88338 8.86118ZM2.16116 8.00007C1.68583 8.00007 1.30005 8.38584 1.30005 8.86118C1.30005 9.33651 1.68583 9.72229 2.16116 9.72229C2.63649 9.72229 3.02227 9.33651 3.02227 8.86118C3.02227 8.38584 2.63649 8.00007 2.16116 8.00007Z" fill="url(#paint0_linear_73_2134)"/>
<path d="M10.0911 9.5C10.0911 8.97197 9.54902 8.61595 8.46591 7.9039C7.36849 7.18286 6.81926 6.82183 6.41016 7.08685C6 7.35187 6 8.06691 6 9.5C6 10.9321 6 11.6481 6.40914 11.9131C6.81824 12.1782 7.36849 11.8171 8.46591 11.0961C9.55005 10.3841 10.0911 10.028 10.0911 9.5Z" fill="#7FD1AE"/>
<path d="M11.0911 8.5C11.0911 7.97197 10.549 7.61595 9.46591 6.9039C8.36849 6.18286 7.81926 5.82183 7.41016 6.08685C7 6.35187 7 7.06691 7 8.5C7 9.93209 7 10.6481 7.40914 10.9131C7.81824 11.1782 8.36849 10.8171 9.46591 10.0961C10.55 9.38405 11.0911 9.02803 11.0911 8.5Z" fill="url(#paint1_linear_73_2134)"/>
<path fill-rule="evenodd" clip-rule="evenodd" d="M11.067 0.510352C11.1463 0.385791 11.2716 0.297478 11.4155 0.264528C11.5595 0.231579 11.7107 0.256644 11.8363 0.334303L14.8154 2.17905C14.8774 2.21715 14.9313 2.26719 14.9739 2.32626C15.0165 2.38533 15.0469 2.45225 15.0634 2.52317C15.0799 2.59408 15.0822 2.66756 15.0701 2.73936C15.058 2.81116 15.0319 2.87985 14.993 2.94145C14.9136 3.06622 14.7883 3.15468 14.6442 3.18764C14.5 3.22059 14.3486 3.1954 14.223 3.1175L11.2446 1.27275C11.1825 1.23471 11.1286 1.18472 11.0859 1.12568C11.0432 1.06663 11.0128 0.999717 10.9961 0.928801C10.9796 0.857892 10.9772 0.784387 10.9893 0.712559C11.0013 0.640731 11.0282 0.571999 11.067 0.510352Z" fill="url(#paint2_linear_73_2134)" stroke="url(#paint3_linear_73_2134)" stroke-width="0.4"/>
<defs>
<linearGradient id="paint0_linear_73_2134" x1="3.02227" y1="14.0283" x2="15.9148" y2="11.0532" gradientUnits="userSpaceOnUse">
<stop stop-color="#62E8AF"/>
<stop offset="1" stop-color="#B3FBDC"/>
</linearGradient>
<linearGradient id="paint1_linear_73_2134" x1="7" y1="11" x2="8.74658" y2="5.28365" gradientUnits="userSpaceOnUse">
<stop stop-color="#B3FBDC"/>
<stop offset="1" stop-color="white"/>
</linearGradient>
<linearGradient id="paint2_linear_73_2134" x1="11.4937" y1="2.83293" x2="15.1552" y2="1.66031" gradientUnits="userSpaceOnUse">
<stop stop-color="#62E8AF"/>
<stop offset="1" stop-color="#B3FBDC"/>
</linearGradient>
<linearGradient id="paint3_linear_73_2134" x1="11.4937" y1="2.83293" x2="15.1552" y2="1.66031" gradientUnits="userSpaceOnUse">
<stop stop-color="#62E8AF"/>
<stop offset="1" stop-color="#B3FBDC"/>
</linearGradient>
</defs>
</svg>
