<svg width="16" height="16" viewBox="0 0 16 16" fill="none" xmlns="http://www.w3.org/2000/svg">
<path fill-rule="evenodd" clip-rule="evenodd" d="M3.88338 8.86118C3.88338 10.5834 2.45049 10.7238 2.39883 10.7496C1.97258 10.9597 1.79691 11.4764 2.00702 11.9027C3.13077 14.1812 5.47816 15.7501 8.18894 15.7501C11.9907 15.7501 15.0778 12.663 15.0778 8.86118C15.0778 5.05937 11.9907 1.97229 8.18894 1.97229C5.47816 1.97229 3.13077 3.54123 2.00702 5.81973C1.79691 6.24598 1.97258 6.76265 2.39883 6.97276C2.45049 6.99859 3.88338 7.13896 3.88338 8.86118ZM2.16116 8.00007C1.68583 8.00007 1.30005 8.38584 1.30005 8.86118C1.30005 9.33651 1.68583 9.72229 2.16116 9.72229C2.63649 9.72229 3.02227 9.33651 3.02227 8.86118C3.02227 8.38584 2.63649 8.00007 2.16116 8.00007Z" fill="url(#paint0_linear_73_2139)"/>
<path fill-rule="evenodd" clip-rule="evenodd" d="M11.067 0.510352C11.1463 0.385791 11.2716 0.297478 11.4155 0.264528C11.5595 0.231579 11.7107 0.256644 11.8363 0.334303L14.8154 2.17905C14.8774 2.21715 14.9313 2.26719 14.9739 2.32626C15.0165 2.38533 15.0469 2.45225 15.0634 2.52317C15.0799 2.59408 15.0822 2.66756 15.0701 2.73936C15.058 2.81116 15.0319 2.87985 14.993 2.94145C14.9136 3.06622 14.7883 3.15468 14.6442 3.18764C14.5 3.22059 14.3486 3.1954 14.223 3.1175L11.2446 1.27275C11.1825 1.23471 11.1286 1.18472 11.0859 1.12568C11.0432 1.06663 11.0128 0.999717 10.9961 0.928801C10.9796 0.857892 10.9772 0.784387 10.9893 0.712559C11.0013 0.640731 11.0282 0.571999 11.067 0.510352Z" fill="url(#paint1_linear_73_2139)" stroke="url(#paint2_linear_73_2139)" stroke-width="0.4"/>
<path d="M8.4 7H6.6C5.71634 7 5 7.71634 5 8.6V10.4C5 11.2837 5.71634 12 6.6 12H8.4C9.28366 12 10 11.2837 10 10.4V8.6C10 7.71634 9.28366 7 8.4 7Z" fill="#D84F4F"/>
<path d="M9.4 6H7.6C6.71634 6 6 6.71634 6 7.6V9.4C6 10.2837 6.71634 11 7.6 11H9.4C10.2837 11 11 10.2837 11 9.4V7.6C11 6.71634 10.2837 6 9.4 6Z" fill="url(#paint3_linear_73_2139)"/>
<defs>
<linearGradient id="paint0_linear_73_2139" x1="3.88338" y1="14.0279" x2="12.4945" y2="3.69451" gradientUnits="userSpaceOnUse">
<stop stop-color="#FF405B"/>
<stop offset="1" stop-color="#FF8860"/>
</linearGradient>
<linearGradient id="paint1_linear_73_2139" x1="11.7497" y1="2.83285" x2="13.405" y2="0.076049" gradientUnits="userSpaceOnUse">
<stop stop-color="#FF405B"/>
<stop offset="1" stop-color="#FF8860"/>
</linearGradient>
<linearGradient id="paint2_linear_73_2139" x1="11.7497" y1="2.83285" x2="13.405" y2="0.076049" gradientUnits="userSpaceOnUse">
<stop stop-color="#FF405B"/>
<stop offset="1" stop-color="#FF8860"/>
</linearGradient>
<linearGradient id="paint3_linear_73_2139" x1="7.42801" y1="10.9999" x2="9.05997" y2="7.11439" gradientUnits="userSpaceOnUse">
<stop stop-color="#FF8860"/>
<stop offset="1" stop-color="white"/>
</linearGradient>
</defs>
</svg>
