<svg width="16" height="16" viewBox="0 0 16 16" fill="none" xmlns="http://www.w3.org/2000/svg">
<path fill-rule="evenodd" clip-rule="evenodd" d="M3.88338 8.86118C3.88338 10.5834 2.45049 10.7238 2.39883 10.7496C1.97258 10.9597 1.79691 11.4764 2.00702 11.9027C3.13077 14.1812 5.47816 15.7501 8.18894 15.7501C11.9907 15.7501 15.0778 12.663 15.0778 8.86118C15.0778 5.05937 11.9907 1.97229 8.18894 1.97229C5.47816 1.97229 3.13077 3.54123 2.00702 5.81973C1.79691 6.24598 1.97258 6.76265 2.39883 6.97276C2.45049 6.99859 3.88338 7.13896 3.88338 8.86118ZM2.16116 8.00007C1.68583 8.00007 1.30005 8.38584 1.30005 8.86118C1.30005 9.33651 1.68583 9.72229 2.16116 9.72229C2.63649 9.72229 3.02227 9.33651 3.02227 8.86118C3.02227 8.38584 2.63649 8.00007 2.16116 8.00007Z" fill="url(#paint0_linear_73_2144)"/>
<path fill-rule="evenodd" clip-rule="evenodd" d="M6.4668 6.7084V9.29173C6.4668 9.57934 6.6106 9.84887 6.84999 10.0082L9.43332 11.7304C9.82944 11.9939 10.3642 11.8872 10.6277 11.4919C10.8912 11.0958 10.7844 10.5611 10.3892 10.2976L8.18902 8.83104V6.7084C8.18902 6.23307 7.80324 5.84729 7.32791 5.84729C6.85257 5.84729 6.4668 6.23307 6.4668 6.7084Z" fill="#D84F4F"/>
<path fill-rule="evenodd" clip-rule="evenodd" d="M7.32776 6.27774V8.86107C7.32776 9.14868 7.47156 9.41821 7.71095 9.57751L10.2943 11.2997C10.6904 11.5632 11.2251 11.4565 11.4886 11.0612C11.7521 10.6651 11.6454 10.1303 11.2501 9.86685L9.04998 8.40038V6.27774C9.04998 5.8024 8.6642 5.41663 8.18887 5.41663C7.71354 5.41663 7.32776 5.8024 7.32776 6.27774Z" fill="url(#paint1_linear_73_2144)"/>
<path fill-rule="evenodd" clip-rule="evenodd" d="M11.067 0.510352C11.1463 0.385791 11.2716 0.297478 11.4155 0.264528C11.5595 0.231579 11.7107 0.256644 11.8363 0.334303L14.8154 2.17905C14.8774 2.21715 14.9313 2.26719 14.9739 2.32626C15.0165 2.38533 15.0469 2.45225 15.0634 2.52317C15.0799 2.59408 15.0822 2.66756 15.0701 2.73936C15.058 2.81116 15.0319 2.87985 14.993 2.94145C14.9136 3.06622 14.7883 3.15468 14.6442 3.18764C14.5 3.22059 14.3486 3.1954 14.223 3.1175L11.2446 1.27275C11.1825 1.23471 11.1286 1.18472 11.0859 1.12568C11.0432 1.06663 11.0128 0.999717 10.9961 0.928801C10.9796 0.857892 10.9772 0.784387 10.9893 0.712559C11.0013 0.640731 11.0282 0.571999 11.067 0.510352Z" fill="url(#paint2_linear_73_2144)" stroke="url(#paint3_linear_73_2144)" stroke-width="0.4"/>
<defs>
<linearGradient id="paint0_linear_73_2144" x1="3.88338" y1="14.0279" x2="12.4945" y2="3.69451" gradientUnits="userSpaceOnUse">
<stop stop-color="#FF405B"/>
<stop offset="1" stop-color="#FF8860"/>
</linearGradient>
<linearGradient id="paint1_linear_73_2144" x1="8.5574" y1="11.4442" x2="10.9651" y2="7.34953" gradientUnits="userSpaceOnUse">
<stop stop-color="#FF8860"/>
<stop offset="1" stop-color="white"/>
</linearGradient>
<linearGradient id="paint2_linear_73_2144" x1="11.7497" y1="2.83285" x2="13.405" y2="0.076049" gradientUnits="userSpaceOnUse">
<stop stop-color="#FF405B"/>
<stop offset="1" stop-color="#FF8860"/>
</linearGradient>
<linearGradient id="paint3_linear_73_2144" x1="11.7497" y1="2.83285" x2="13.405" y2="0.076049" gradientUnits="userSpaceOnUse">
<stop stop-color="#FF405B"/>
<stop offset="1" stop-color="#FF8860"/>
</linearGradient>
</defs>
</svg>
