<svg width="16" height="16" viewBox="0 0 16 16" fill="none" xmlns="http://www.w3.org/2000/svg">
<path d="M1.9591 9.44963L1.50679 9.94625C1.42989 10.0916 1.37525 10.2478 1.34469 10.4094C1.29867 10.6506 1.32678 10.9045 1.38278 11.4101L1.42614 11.7995C1.44211 11.9393 1.4493 12.0088 1.4509 12.0758C1.46274 12.4818 1.32393 12.8777 1.06123 13.1873C0.999677 13.2563 0.935489 13.3229 0.8688 13.387L0.36655 13.89C0.25088 14.0042 0.158947 14.1402 0.0960398 14.2902C0.0331322 14.44 0.000492877 14.6009 5.6036e-06 14.7634C-0.00048453 14.9261 0.0311831 15.0871 0.0931888 15.2374C0.155195 15.3877 0.246313 15.5242 0.361292 15.6391C0.476278 15.754 0.612857 15.8451 0.763166 15.9071C0.913483 15.969 1.07456 16.0006 1.23713 16C1.3997 15.9995 1.56056 15.9668 1.71044 15.9038C1.86032 15.8408 1.99626 15.7488 2.11044 15.6331L2.61189 15.1309L2.64578 15.0972C2.72361 15.0198 2.76726 14.9765 2.81152 14.9392C3.12213 14.6757 3.51818 14.5368 3.92381 14.548C3.98632 14.5502 4.05091 14.5572 4.17253 14.5705L4.20008 14.5735L4.58593 14.6165C5.09313 14.6728 5.34843 14.7011 5.59025 14.6557C5.75169 14.6241 5.90769 14.5693 6.05337 14.4928C6.27136 14.3771 6.45341 14.195 6.81751 13.8309L12.1067 8.5417L7.45793 3.89294L6.11968 5.23119C5.77095 5.57992 5.73019 6.11965 5.79754 6.60821C5.81109 6.70651 5.81809 6.8069 5.81809 6.90892C5.81809 8.11388 4.84128 9.09069 3.63632 9.09069C3.54838 9.09069 3.46164 9.08549 3.37642 9.07537C2.86781 9.015 2.30397 9.07096 1.9591 9.44963Z" fill="url(#paint0_linear_73_2194)"/>
<path d="M3.63629 7.99976C4.23877 7.99976 4.72718 7.51135 4.72718 6.90887C4.72718 6.30639 4.23877 5.81799 3.63629 5.81799C3.03382 5.81799 2.54541 6.30639 2.54541 6.90887C2.54541 7.51135 3.03382 7.99976 3.63629 7.99976Z" fill="url(#paint1_linear_73_2194)"/>
<path d="M7.93524 3.40826L6.79175 4.57874L11.4847 9.16351L12.6282 7.99304L7.93524 3.40826Z" fill="url(#paint2_linear_73_2194)"/>
<path d="M6.58603 3.02099L7.45801 3.89293L12.1068 8.5417L12.9787 9.41368C13.2105 9.64232 13.5233 9.77003 13.8489 9.76894C14.1745 9.76778 14.4864 9.63796 14.7166 9.40764C14.9468 9.17739 15.0765 8.8654 15.0775 8.5398C15.0785 8.21421 14.9506 7.90142 14.7218 7.66979L14.3648 7.31271C14.0808 7.02878 14.0807 6.56843 14.3645 6.28438L15.0125 5.63603C15.3229 5.33195 15.57 4.96933 15.7395 4.56913C15.9089 4.16894 15.9974 3.73911 15.9996 3.30453C16.002 2.86994 15.918 2.43922 15.7527 2.03728C15.5875 1.63534 15.3442 1.27015 15.0368 0.962852C14.7296 0.65555 14.3644 0.412224 13.9624 0.246963C13.5605 0.0817011 13.1297 -0.00222213 12.6952 4.47259e-05C12.2606 0.00231376 11.8308 0.0907336 11.4306 0.260177C11.0304 0.429628 10.6678 0.676749 10.3637 0.987244L9.71512 1.63494C9.43113 1.91852 8.97107 1.91847 8.68715 1.63481L8.32992 1.27789C8.21574 1.16216 8.07982 1.07017 7.92993 1.00719C7.78004 0.944219 7.61917 0.911507 7.45663 0.91094C7.29402 0.91038 7.13293 0.941972 6.98268 1.00391C6.83235 1.06585 6.69578 1.15691 6.5808 1.27183C6.46579 1.38676 6.37468 1.5233 6.31267 1.67358C6.25067 1.82386 6.219 1.98493 6.21949 2.1475C6.21998 2.31007 6.25261 2.47095 6.31552 2.62086C6.37843 2.77076 6.47036 2.90675 6.58603 3.02099Z" fill="url(#paint3_linear_73_2194)"/>
<defs>
<linearGradient id="paint0_linear_73_2194" x1="0" y1="3.89294" x2="0" y2="16" gradientUnits="userSpaceOnUse">
<stop stop-color="white"/>
<stop offset="1" stop-color="#B5B5B5"/>
</linearGradient>
<linearGradient id="paint1_linear_73_2194" x1="-3.00124e-05" y1="3.89289" x2="-3.00124e-05" y2="16" gradientUnits="userSpaceOnUse">
<stop stop-color="white"/>
<stop offset="1" stop-color="#B5B5B5"/>
</linearGradient>
<linearGradient id="paint2_linear_73_2194" x1="12.0564" y1="8.57826" x2="7.36349" y2="3.9935" gradientUnits="userSpaceOnUse">
<stop stop-color="#A5A5A5"/>
<stop offset="0.9973" stop-color="#DCDCDC"/>
</linearGradient>
<linearGradient id="paint3_linear_73_2194" x1="11.1096" y1="9.76895" x2="11.1096" y2="0" gradientUnits="userSpaceOnUse">
<stop stop-color="#BCBCBC"/>
<stop offset="0.9973" stop-color="#F0F0F0"/>
</linearGradient>
</defs>
</svg>
