<svg width="16" height="16" viewBox="0 0 16 16" fill="none" xmlns="http://www.w3.org/2000/svg">
<path d="M11.9433 14.9623C12.2677 14.7782 12.3637 14.373 12.3637 14C12.3637 13.0963 13.0963 12.3637 14 12.3637C14.373 12.3637 14.7782 12.2677 14.9623 11.9433C15.6228 10.7795 16 9.43382 16 8C16 3.5816 12.4184 0 8 0C3.5816 0 0 3.5816 0 8C0 9.28 0.3008 10.4896 0.8344 11.5624C0.9768 11.8472 1.024 12.1728 0.9416 12.4808L0.4656 14.2616C0.418633 14.4377 0.418807 14.6232 0.466109 14.7993C0.513418 14.9754 0.606182 15.1359 0.735113 15.2649C0.864043 15.3938 1.0246 15.4865 1.20069 15.5339C1.37679 15.5812 1.56222 15.5814 1.7384 15.5344L3.5192 15.0584C3.82832 14.9806 4.15522 15.0185 4.4384 15.1648C5.54473 15.7157 6.76407 16.0016 8 16C9.43382 16 10.7795 15.6228 11.9433 14.9623Z" fill="url(#paint0_linear_73_2387)"/>
<path d="M14.5455 15.6364C15.148 15.6364 15.6364 15.148 15.6364 14.5455C15.6364 13.943 15.148 13.4546 14.5455 13.4546C13.943 13.4546 13.4546 13.943 13.4546 14.5455C13.4546 15.148 13.943 15.6364 14.5455 15.6364Z" fill="url(#paint1_linear_73_2387)"/>
<path d="M6.84393 7.38531L6.12909 6.66996C6.04293 6.5838 5.94063 6.51548 5.82807 6.46884C5.7155 6.42221 5.59486 6.39821 5.47302 6.39819C5.35116 6.39819 5.23051 6.42221 5.11795 6.46883C5.00539 6.51546 4.90311 6.5838 4.81695 6.66996C4.73079 6.75612 4.66245 6.8584 4.6158 6.97098C4.56918 7.08353 4.54518 7.20417 4.54518 7.32603C4.54518 7.44789 4.56918 7.56852 4.61582 7.68109C4.66245 7.79366 4.73079 7.89594 4.81695 7.9821L5.5323 8.69694C5.62896 8.79354 5.62896 8.95026 5.53227 9.04686L4.81693 9.76172C4.64295 9.93571 4.54517 10.1717 4.54517 10.4178C4.5452 10.6638 4.64293 10.8998 4.81693 11.0738C4.99093 11.2478 5.22695 11.3456 5.473 11.3456C5.71909 11.3456 5.95509 11.2478 6.12907 11.0738L6.84393 10.3585C6.94053 10.2618 7.09725 10.2618 7.19385 10.3585L7.9087 11.0738C8.0827 11.2478 8.3187 11.3456 8.56477 11.3456C8.81083 11.3456 9.04683 11.2478 9.22084 11.0738C9.39482 10.8998 9.49259 10.6638 9.4926 10.4177C9.4926 10.1717 9.39484 9.93571 9.22084 9.76171L8.50549 9.04686C8.40882 8.95026 8.40881 8.79356 8.5055 8.69696L9.22084 7.9821C9.39484 7.8081 9.4926 7.57211 9.4926 7.32603C9.4926 7.07994 9.39484 6.84396 9.22084 6.66996C9.04683 6.49596 8.81085 6.39819 8.56477 6.39819C8.31868 6.39819 8.0827 6.49596 7.9087 6.66996L7.19384 7.38529C7.09723 7.48199 6.94053 7.48197 6.84393 7.38531Z" fill="#D84F4F"/>
<path d="M7.8819 5.9173L7.16705 5.20195C7.08089 5.11579 6.9786 5.04747 6.86603 5.00084C6.75346 4.9542 6.63283 4.9302 6.51098 4.93018C6.38912 4.93018 6.26847 4.9542 6.15592 5.00082C6.04335 5.04745 5.94107 5.11579 5.85491 5.20195C5.76875 5.28811 5.70042 5.39039 5.65377 5.50297C5.60715 5.61552 5.58315 5.73616 5.58315 5.85802C5.58315 5.97988 5.60715 6.10052 5.65378 6.21308C5.70042 6.32565 5.76875 6.42793 5.85491 6.51409L6.57026 7.22893C6.66693 7.32554 6.66693 7.48225 6.57023 7.57886L5.8549 8.29372C5.68091 8.4677 5.58313 8.7037 5.58313 8.94978C5.58316 9.19584 5.6809 9.43185 5.8549 9.60585C6.0289 9.77985 6.26491 9.87759 6.51097 9.87762C6.75705 9.87762 6.99305 9.77984 7.16704 9.60585L7.8819 8.89052C7.9785 8.79382 8.13521 8.79382 8.23182 8.89049L8.94666 9.60584C9.12066 9.77984 9.35666 9.87759 9.60273 9.87761C9.8488 9.87759 10.0848 9.77984 10.2588 9.60584C10.4328 9.43185 10.5306 9.19584 10.5306 8.94977C10.5306 8.70369 10.4328 8.4677 10.2588 8.2937L9.54345 7.57886C9.44679 7.48225 9.44677 7.32555 9.54347 7.22895L10.2588 6.51409C10.4328 6.34009 10.5306 6.1041 10.5306 5.85802C10.5306 5.61194 10.4328 5.37595 10.2588 5.20195C10.0848 5.02795 9.84881 4.93018 9.60273 4.93018C9.35665 4.93018 9.12066 5.02795 8.94666 5.20195L8.2318 5.91728C8.1352 6.01398 7.9785 6.01397 7.8819 5.9173Z" fill="url(#paint2_linear_73_2387)"/>
<defs>
<linearGradient id="paint0_linear_73_2387" x1="3" y1="14" x2="13" y2="2" gradientUnits="userSpaceOnUse">
<stop stop-color="#FF405B"/>
<stop offset="1" stop-color="#FF8860"/>
</linearGradient>
<linearGradient id="paint1_linear_73_2387" x1="2.99999" y1="14" x2="13" y2="1.99999" gradientUnits="userSpaceOnUse">
<stop stop-color="#FF405B"/>
<stop offset="1" stop-color="#FF8860"/>
</linearGradient>
<linearGradient id="paint2_linear_73_2387" x1="9.31451" y1="10.55" x2="7.32964" y2="5.69028" gradientUnits="userSpaceOnUse">
<stop stop-color="#FF8860"/>
<stop offset="1" stop-color="white"/>
</linearGradient>
</defs>
</svg>
