<svg width="16" height="16" viewBox="0 0 16 16" fill="none" xmlns="http://www.w3.org/2000/svg">
<path d="M11.9433 14.9623C12.2677 14.7782 12.3637 14.373 12.3637 14C12.3637 13.0963 13.0963 12.3637 14 12.3637C14.373 12.3637 14.7782 12.2677 14.9623 11.9433C15.6228 10.7795 16 9.43382 16 8C16 3.5816 12.4184 0 8 0C3.5816 0 0 3.5816 0 8C0 9.28 0.3008 10.4896 0.8344 11.5624C0.9768 11.8472 1.024 12.1728 0.9416 12.4808L0.4656 14.2616C0.418633 14.4377 0.418807 14.6232 0.466109 14.7993C0.513418 14.9754 0.606182 15.1359 0.735113 15.2649C0.864043 15.3938 1.0246 15.4865 1.20069 15.5339C1.37679 15.5812 1.56222 15.5814 1.7384 15.5344L3.5192 15.0584C3.82832 14.9806 4.15522 15.0185 4.4384 15.1648C5.54473 15.7157 6.76407 16.0016 8 16C9.43382 16 10.7795 15.6228 11.9433 14.9623Z" fill="url(#paint0_linear_73_2396)"/>
<path d="M14.5455 15.6364C15.148 15.6364 15.6364 15.148 15.6364 14.5455C15.6364 13.943 15.148 13.4546 14.5455 13.4546C13.943 13.4546 13.4546 13.943 13.4546 14.5455C13.4546 15.148 13.943 15.6364 14.5455 15.6364Z" fill="url(#paint1_linear_73_2396)"/>
<path fill-rule="evenodd" clip-rule="evenodd" d="M7.91793 8.85313C7.91793 9.37297 7.41983 9.79677 6.80894 9.79677C6.19805 9.79677 5.69995 9.37297 5.69995 8.85313V5.08645C5.69995 4.56665 6.19805 4.14282 6.80894 4.14282C7.41983 4.14282 7.91793 4.56665 7.91793 5.08645V8.85313ZM5.69995 12.0243C5.69995 11.4081 6.19268 10.9058 6.79636 10.9058C7.41761 10.9058 7.91161 11.4081 7.91161 12.0243C7.91161 12.6404 7.41761 13.1428 6.80894 13.1428C6.19772 13.1428 5.69995 12.6404 5.69995 12.0243Z" fill="#279FD7"/>
<path fill-rule="evenodd" clip-rule="evenodd" d="M9.06088 7.71031C9.06088 8.23015 8.56278 8.65395 7.95189 8.65395C7.341 8.65395 6.8429 8.23015 6.8429 7.71031V3.94363C6.8429 3.42382 7.341 3 7.95189 3C8.56278 3 9.06088 3.42382 9.06088 3.94363V7.71031ZM6.8429 10.8815C6.8429 10.2653 7.33562 9.76294 7.9393 9.76294C8.56056 9.76294 9.05456 10.2653 9.05456 10.8815C9.05456 11.4976 8.56056 12 7.95189 12C7.34067 12 6.8429 11.4976 6.8429 10.8815Z" fill="url(#paint2_linear_73_2396)"/>
<defs>
<linearGradient id="paint0_linear_73_2396" x1="1.6" y1="16.005" x2="7.3787" y2="-1.33327" gradientUnits="userSpaceOnUse">
<stop offset="0.190745" stop-color="#22B4FA"/>
<stop offset="0.896724" stop-color="#7DDCFF"/>
</linearGradient>
<linearGradient id="paint1_linear_73_2396" x1="1.59999" y1="16.005" x2="7.37869" y2="-1.33328" gradientUnits="userSpaceOnUse">
<stop offset="0.190745" stop-color="#22B4FA"/>
<stop offset="0.896724" stop-color="#7DDCFF"/>
</linearGradient>
<linearGradient id="paint2_linear_73_2396" x1="6.8429" y1="12" x2="9.60489" y2="11.8298" gradientUnits="userSpaceOnUse">
<stop stop-color="#6BD6FE"/>
<stop offset="1" stop-color="white"/>
</linearGradient>
</defs>
</svg>
