<svg width="16" height="16" viewBox="0 0 16 16" fill="none" xmlns="http://www.w3.org/2000/svg">
<path d="M11.9433 14.9623C12.2677 14.7782 12.3637 14.373 12.3637 14C12.3637 13.0963 13.0963 12.3637 14 12.3637C14.373 12.3637 14.7782 12.2677 14.9623 11.9433C15.6228 10.7795 16 9.43382 16 8C16 3.5816 12.4184 0 8 0C3.5816 0 0 3.5816 0 8C0 9.28 0.3008 10.4896 0.8344 11.5624C0.9768 11.8472 1.024 12.1728 0.9416 12.4808L0.4656 14.2616C0.418633 14.4377 0.418807 14.6232 0.466109 14.7993C0.513418 14.9754 0.606182 15.1359 0.735113 15.2649C0.864043 15.3938 1.0246 15.4865 1.20069 15.5339C1.37679 15.5812 1.56222 15.5814 1.7384 15.5344L3.5192 15.0584C3.82832 14.9806 4.15522 15.0185 4.4384 15.1648C5.54473 15.7157 6.76407 16.0016 8 16C9.43382 16 10.7795 15.6228 11.9433 14.9623Z" fill="url(#paint0_linear_73_2461)"/>
<path d="M14.5455 15.6364C15.148 15.6364 15.6364 15.148 15.6364 14.5455C15.6364 13.943 15.148 13.4546 14.5455 13.4546C13.943 13.4546 13.4546 13.943 13.4546 14.5455C13.4546 15.148 13.943 15.6364 14.5455 15.6364Z" fill="url(#paint1_linear_73_2461)"/>
<path d="M7.185 5.50521C6.71537 5.50521 6.33423 5.88633 6.33423 6.35592C6.33423 6.50634 6.27449 6.6506 6.16811 6.75696C6.06178 6.86332 5.91752 6.92307 5.7671 6.92307C5.61669 6.92307 5.47243 6.86332 5.36607 6.75696C5.25971 6.6506 5.19995 6.50634 5.19995 6.35592C5.19996 6.03071 5.27988 5.71048 5.43267 5.4234C5.58545 5.13631 5.80644 4.89116 6.07619 4.7095C6.34596 4.52785 6.6562 4.41526 6.97968 4.38162C7.3031 4.34798 7.62989 4.39433 7.93125 4.5166C8.2326 4.63886 8.49929 4.8333 8.70792 5.0828C8.91649 5.33231 9.0606 5.62924 9.12749 5.9475C9.19444 6.26575 9.18213 6.59557 9.09173 6.90796C9.00126 7.22034 8.83549 7.50571 8.60892 7.73901C8.5393 7.81084 8.47276 7.87738 8.40923 7.9409C8.25565 8.08723 8.11142 8.24301 7.97746 8.40751C7.81111 8.62073 7.75212 8.77727 7.75212 8.90809V9.47526C7.75212 9.62565 7.69237 9.76988 7.58599 9.87626C7.47962 9.98263 7.33539 10.0424 7.185 10.0424C7.03455 10.0424 6.89032 9.98263 6.78394 9.87626C6.67757 9.76988 6.61782 9.62565 6.61782 9.47526V8.90809C6.61782 8.4128 6.84845 8.01122 7.08211 7.71103C7.25531 7.4887 7.4723 7.27243 7.64928 7.09549C7.70224 7.04255 7.75212 6.9934 7.7952 6.94878C7.91174 6.82885 7.99035 6.67723 8.02125 6.51287C8.05208 6.34851 8.03379 6.17871 7.9687 6.02468C7.90355 5.87065 7.7945 5.73922 7.65509 5.64683C7.51573 5.55444 7.35222 5.50518 7.185 5.50521ZM7.185 12.5C7.38555 12.5 7.57786 12.4204 7.71966 12.2786C7.86151 12.1367 7.94117 11.9444 7.94117 11.7439C7.94117 11.5433 7.86151 11.3509 7.71966 11.2091C7.57786 11.0673 7.38555 10.9876 7.185 10.9876C6.98444 10.9876 6.79207 11.0673 6.65028 11.2091C6.50843 11.3509 6.42876 11.5433 6.42876 11.7439C6.42876 11.9444 6.50843 12.1367 6.65028 12.2786C6.79207 12.4204 6.98444 12.5 7.185 12.5Z" fill="#8C4FD9"/>
<path d="M8.05597 4.63423C7.58634 4.63423 7.20521 5.01535 7.20521 5.48495C7.20521 5.63537 7.14546 5.77962 7.03908 5.88599C6.93275 5.99235 6.78849 6.0521 6.63808 6.0521C6.48766 6.0521 6.3434 5.99235 6.23704 5.88599C6.13068 5.77962 6.07092 5.63537 6.07092 5.48495C6.07093 5.15974 6.15085 4.83951 6.30364 4.55243C6.45643 4.26534 6.67741 4.02019 6.94716 3.83853C7.21693 3.65688 7.52717 3.54428 7.85065 3.51065C8.17407 3.47701 8.50086 3.52336 8.80222 3.64562C9.10357 3.76789 9.37026 3.96233 9.57889 4.21183C9.78746 4.46134 9.93158 4.75827 9.99847 5.07652C10.0654 5.39478 10.0531 5.7246 9.9627 6.03698C9.87223 6.34937 9.70646 6.63474 9.47989 6.86804C9.41027 6.93987 9.34373 7.00641 9.28021 7.06993C9.12662 7.21626 8.98239 7.37204 8.84844 7.53654C8.68208 7.74975 8.62309 7.9063 8.62309 8.03712V8.60429C8.62309 8.75468 8.56334 8.89891 8.45696 9.00529C8.35059 9.11166 8.20636 9.17141 8.05597 9.17141C7.90552 9.17141 7.76129 9.11166 7.65492 9.00529C7.54854 8.89891 7.48879 8.75468 7.48879 8.60429V8.03712C7.48879 7.54182 7.71943 7.14025 7.95308 6.84005C8.12629 6.61772 8.34327 6.40146 8.52025 6.22452C8.57321 6.17158 8.62309 6.12243 8.66617 6.07781C8.78271 5.95788 8.86133 5.80626 8.89222 5.6419C8.92305 5.47754 8.90476 5.30774 8.83967 5.1537C8.77452 4.99968 8.66547 4.86825 8.52606 4.77586C8.38671 4.68347 8.2232 4.63421 8.05597 4.63423ZM8.05597 11.6291C8.25652 11.6291 8.44884 11.5494 8.59063 11.4076C8.73248 11.2657 8.81215 11.0734 8.81215 10.8729C8.81215 10.6723 8.73248 10.48 8.59063 10.3382C8.44884 10.1963 8.25652 10.1166 8.05597 10.1166C7.85541 10.1166 7.66305 10.1963 7.52125 10.3382C7.3794 10.48 7.29973 10.6723 7.29973 10.8729C7.29973 11.0734 7.3794 11.2657 7.52125 11.4076C7.66305 11.5494 7.85541 11.6291 8.05597 11.6291Z" fill="url(#paint2_linear_73_2461)"/>
<defs>
<linearGradient id="paint0_linear_73_2461" x1="4" y1="14.8571" x2="14.5882" y2="2.50421" gradientUnits="userSpaceOnUse">
<stop stop-color="#A056FF"/>
<stop offset="1" stop-color="#C59AFD"/>
</linearGradient>
<linearGradient id="paint1_linear_73_2461" x1="3.99999" y1="14.8571" x2="14.5882" y2="2.5042" gradientUnits="userSpaceOnUse">
<stop stop-color="#A056FF"/>
<stop offset="1" stop-color="#C59AFD"/>
</linearGradient>
<linearGradient id="paint2_linear_73_2461" x1="7.06343" y1="11.6291" x2="11.2533" y2="10.947" gradientUnits="userSpaceOnUse">
<stop stop-color="#C59AFD"/>
<stop offset="1" stop-color="white"/>
</linearGradient>
</defs>
</svg>
