<svg width="16" height="16" viewBox="0 0 16 16" fill="none" xmlns="http://www.w3.org/2000/svg">
<path fill-rule="evenodd" clip-rule="evenodd" d="M12.8 1.06667C12.8 0.477867 13.2779 0 13.8667 0C14.4555 0 14.9333 0.477867 14.9333 1.06667C14.9333 1.65547 14.4555 2.13333 13.8667 2.13333C13.2779 2.13333 12.8 1.65547 12.8 1.06667ZM11.68 16H4.25333C2.45387 15.9808 1 14.5163 1 12.7115V3.28853C1 2.416 1.34667 1.57973 1.9632 0.9632C2.57973 0.346667 3.416 0 4.28853 0H10.6667C11.2555 0 11.7333 0.477867 11.7333 1.06667C11.7333 2.24427 12.6891 3.2 13.8667 3.2C14.4555 3.2 14.9333 3.67787 14.9333 4.26667V12.7115C14.9333 14.5163 13.4795 15.9808 11.68 16Z" fill="url(#paint0_linear_73_2634)"/>
<path fill-rule="evenodd" clip-rule="evenodd" d="M9.27586 12H4.72414C4.32441 12 4 12.3244 4 12.7241C4 13.1239 4.32441 13.4483 4.72414 13.4483H9.27586C9.67559 13.4483 10 13.1239 10 12.7241C10 12.3244 9.67559 12 9.27586 12Z" fill="#D49F34"/>
<path fill-rule="evenodd" clip-rule="evenodd" d="M10.2759 11H5.72414C5.32441 11 5 11.3244 5 11.7241C5 12.1239 5.32441 12.4483 5.72414 12.4483H10.2759C10.6756 12.4483 11 12.1239 11 11.7241C11 11.3244 10.6756 11 10.2759 11Z" fill="url(#paint1_linear_73_2634)"/>
<path d="M9.41852 10C9.32275 10 9.22622 9.97515 9.13772 9.9232L6.26692 8.21065C6.10162 8.1112 6 7.93208 6 7.73903V4.04843C6 3.7457 6.2457 3.5 6.54843 3.5C6.85118 3.5 7.09688 3.7457 7.09688 4.04843V7.2855C7.09688 7.37355 7.1432 7.4551 7.21882 7.5002L9.70008 8.97993C9.95965 9.13568 10.0452 9.47205 9.8902 9.73238C9.78707 9.90423 9.60505 10 9.41852 10Z" fill="#D49F34" stroke="#D49F34" stroke-width="0.6"/>
<path d="M10.4185 9C10.3227 9 10.2262 8.97515 10.1377 8.9232L7.26692 7.21065C7.10162 7.1112 7 6.93208 7 6.73903V3.04843C7 2.7457 7.2457 2.5 7.54843 2.5C7.85118 2.5 8.09688 2.7457 8.09688 3.04843V6.2855C8.09688 6.37355 8.1432 6.4551 8.21882 6.5002L10.7001 7.97993C10.9597 8.13568 11.0452 8.47205 10.8902 8.73238C10.7871 8.90423 10.605 9 10.4185 9Z" fill="url(#paint2_linear_73_2634)" stroke="url(#paint3_linear_73_2634)" stroke-width="0.6"/>
<defs>
<linearGradient id="paint0_linear_73_2634" x1="3.6125" y1="14.9988" x2="13.7685" y2="4.38498" gradientUnits="userSpaceOnUse">
<stop stop-color="#FF8860"/>
<stop offset="1" stop-color="#FBD92C"/>
</linearGradient>
<linearGradient id="paint1_linear_73_2634" x1="6.5" y1="12.0862" x2="6.83034" y2="10.7177" gradientUnits="userSpaceOnUse">
<stop stop-color="#FBD92C"/>
<stop offset="1" stop-color="white"/>
</linearGradient>
<linearGradient id="paint2_linear_73_2634" x1="7.99188" y1="7.375" x2="10.8824" y2="5.61064" gradientUnits="userSpaceOnUse">
<stop stop-color="#FBD92C"/>
<stop offset="1" stop-color="white"/>
</linearGradient>
<linearGradient id="paint3_linear_73_2634" x1="7.99188" y1="7.375" x2="10.8824" y2="5.61064" gradientUnits="userSpaceOnUse">
<stop stop-color="#FBD92C"/>
<stop offset="1" stop-color="white"/>
</linearGradient>
</defs>
</svg>
