<svg width="16" height="16" viewBox="0 0 16 16" fill="none" xmlns="http://www.w3.org/2000/svg">
<path fill-rule="evenodd" clip-rule="evenodd" d="M12.8 1.06667C12.8 0.477867 13.2779 0 13.8667 0C14.4555 0 14.9333 0.477867 14.9333 1.06667C14.9333 1.65547 14.4555 2.13333 13.8667 2.13333C13.2779 2.13333 12.8 1.65547 12.8 1.06667ZM11.68 16H4.25333C2.45387 15.9808 1 14.5163 1 12.7115V3.28853C1 2.416 1.34667 1.57973 1.9632 0.9632C2.57973 0.346667 3.416 0 4.28853 0H10.6667C11.2555 0 11.7333 0.477867 11.7333 1.06667C11.7333 2.24427 12.6891 3.2 13.8667 3.2C14.4555 3.2 14.9333 3.67787 14.9333 4.26667V12.7115C14.9333 14.5163 13.4795 15.9808 11.68 16Z" fill="url(#paint0_linear_73_2604)"/>
<path fill-rule="evenodd" clip-rule="evenodd" d="M9.27586 12H4.72414C4.32441 12 4 12.3244 4 12.7241C4 13.1239 4.32441 13.4483 4.72414 13.4483H9.27586C9.67559 13.4483 10 13.1239 10 12.7241C10 12.3244 9.67559 12 9.27586 12Z" fill="#7FD1AE"/>
<path fill-rule="evenodd" clip-rule="evenodd" d="M10.2759 11H5.72414C5.32441 11 5 11.3244 5 11.7241C5 12.1239 5.32441 12.4483 5.72414 12.4483H10.2759C10.6756 12.4483 11 12.1239 11 11.7241C11 11.3244 10.6756 11 10.2759 11Z" fill="url(#paint1_linear_73_2604)"/>
<path d="M5.86083 3.98661V6.87696C5.86083 7.27859 5.53523 7.60421 5.13358 7.60421H4.69872C4.56046 7.60421 4.42542 7.6428 4.31054 7.71507C4.1956 7.78739 4.10606 7.89005 4.0532 8.01024C4.00032 8.1304 3.98646 8.26264 4.01342 8.39021C4.04038 8.51781 4.10694 8.63499 4.20462 8.72699L6.41502 10.8074C6.54606 10.9307 6.72379 11 6.90913 11C7.09441 11 7.27214 10.9307 7.40318 10.8074L9.61361 8.72699C9.71134 8.63499 9.77782 8.51781 9.80478 8.39021C9.83174 8.26264 9.81784 8.1304 9.76499 8.01024C9.71216 7.89005 9.62259 7.78739 9.50766 7.71507C9.39281 7.6428 9.25771 7.60421 9.11953 7.60421H8.68462C8.28297 7.60421 7.95736 7.27859 7.95736 6.87696V3.98661C7.95736 3.72496 7.84686 3.47397 7.65033 3.28896C7.45374 3.10395 7.18715 3 6.90913 3C6.63113 3 6.36443 3.10395 6.16785 3.28896C5.97126 3.47397 5.86083 3.72496 5.86083 3.98661Z" fill="#7FD1AE"/>
<path d="M6.86083 2.98661V5.87696C6.86083 6.27859 6.53523 6.60421 6.13358 6.60421H5.69872C5.56046 6.60421 5.42542 6.6428 5.31054 6.71507C5.1956 6.78739 5.10606 6.89005 5.0532 7.01024C5.00032 7.1304 4.98646 7.26264 5.01342 7.39021C5.04038 7.51781 5.10694 7.63499 5.20462 7.72699L7.41502 9.80741C7.54606 9.93075 7.72379 10 7.90913 10C8.09441 10 8.27214 9.93075 8.40318 9.80741L10.6136 7.72699C10.7113 7.63499 10.7778 7.51781 10.8048 7.39021C10.8317 7.26264 10.8178 7.1304 10.765 7.01024C10.7122 6.89005 10.6226 6.78739 10.5077 6.71507C10.3928 6.6428 10.2577 6.60421 10.1195 6.60421H9.68462C9.28297 6.60421 8.95736 6.27859 8.95736 5.87696V2.98661C8.95736 2.72496 8.84686 2.47397 8.65033 2.28896C8.45374 2.10395 8.18715 2 7.90913 2C7.63113 2 7.36443 2.10395 7.16785 2.28896C6.97126 2.47397 6.86083 2.72496 6.86083 2.98661Z" fill="url(#paint2_linear_73_2604)"/>
<defs>
<linearGradient id="paint0_linear_73_2604" x1="2.74167" y1="14.0004" x2="15.941" y2="11.348" gradientUnits="userSpaceOnUse">
<stop stop-color="#62E8AF"/>
<stop offset="1" stop-color="#B3FBDC"/>
</linearGradient>
<linearGradient id="paint1_linear_73_2604" x1="5" y1="12.4483" x2="5.10885" y2="10.6445" gradientUnits="userSpaceOnUse">
<stop stop-color="#B3FBDC"/>
<stop offset="1" stop-color="white"/>
</linearGradient>
<linearGradient id="paint2_linear_73_2604" x1="5" y1="10" x2="8.07423" y2="1.05677" gradientUnits="userSpaceOnUse">
<stop stop-color="#B3FBDC"/>
<stop offset="1" stop-color="white"/>
</linearGradient>
</defs>
</svg>
