<svg width="16" height="16" viewBox="0 0 16 16" fill="none" xmlns="http://www.w3.org/2000/svg">
<g clip-path="url(#clip0_271_122)">
<path opacity="0.5" fill-rule="evenodd" clip-rule="evenodd" d="M2.28571 14.8571C2.28571 15.488 1.77371 16 1.14286 16C0.512 16 0 15.488 0 14.8571C0 14.2263 0.512 13.7143 1.14286 13.7143C1.77371 13.7143 2.28571 14.2263 2.28571 14.8571ZM1.14286 12.5714C0.512 12.5714 0 12.0594 0 11.4286C0 11.4286 0 6.97829 0 3.368C0 2.47429 0.354286 1.61829 0.986286 0.986286C1.61829 0.354286 2.47429 0 3.368 0H9.51886C10.264 0 10.9886 0.241143 11.5851 0.688L14.6229 2.96686C15.4903 3.61714 16 4.63771 16 5.72114C16 7.80229 16 9.94172 16 12.632C16 13.5257 15.6457 14.3817 15.0137 15.0137C14.3817 15.6457 13.5257 16 12.632 16H4.57143C3.94057 16 3.42857 15.488 3.42857 14.8571C3.42857 13.5954 2.40457 12.5714 1.14286 12.5714Z" fill="url(#paint0_linear_271_122)"/>
<path fill-rule="evenodd" clip-rule="evenodd" d="M13.2857 13.0766V10.9234C13.2857 9.30857 11.9771 8 10.3623 8C9.34739 8 8.08111 8 7.06625 8C5.45139 8 4.14282 9.30857 4.14282 10.9234V13.0766C4.14282 14.6914 5.45139 16 7.06625 16C8.08111 16 9.34739 16 10.3623 16C11.9771 16 13.2857 14.6914 13.2857 13.0766ZM9.85711 13.7143H10.3623C10.7143 13.7143 11 13.4286 11 13.0766V10.9234C11 10.5714 10.7143 10.2857 10.3623 10.2857C9.34739 10.2857 8.08111 10.2857 7.06625 10.2857C6.71425 10.2857 6.42854 10.5714 6.42854 10.9234V13.0766C6.42854 13.4286 6.71425 13.7143 7.06625 13.7143H7.57139V12.5714C7.57139 11.9406 8.08339 11.4286 8.71425 11.4286C9.34511 11.4286 9.85711 11.9406 9.85711 12.5714V13.7143Z" fill="url(#paint1_linear_271_122)"/>
</g>
<defs>
<linearGradient id="paint0_linear_271_122" x1="1.14286" y1="16" x2="11.7135" y2="0.624479" gradientUnits="userSpaceOnUse">
<stop stop-color="#9BE862"/>
<stop offset="1" stop-color="#C8FF9F"/>
</linearGradient>
<linearGradient id="paint1_linear_271_122" x1="4.79589" y1="16" x2="9.79673" y2="7.68689" gradientUnits="userSpaceOnUse">
<stop stop-color="#9BE862"/>
<stop offset="1" stop-color="#C8FF9F"/>
</linearGradient>
<clipPath id="clip0_271_122">
<rect width="16" height="16" fill="white"/>
</clipPath>
</defs>
</svg>
