<svg width="16" height="16" viewBox="0 0 16 16" fill="none" xmlns="http://www.w3.org/2000/svg">
<g clip-path="url(#clip0_270_35)">
<path opacity="0.5" fill-rule="evenodd" clip-rule="evenodd" d="M3.95519 9.96901C3.48699 10.5327 2.66803 11.0424 2.11013 10.5674C1.98072 10.4572 1.85557 10.3411 1.73509 10.2194C0.623471 9.09616 0 7.57964 0 5.9994C0 4.41916 0.623471 2.90264 1.73509 1.77942C2.84665 0.656132 4.3565 0.016796 5.93674 0.000331029C6.72973 -0.00800148 7.51672 0.141049 8.25171 0.43882C8.98684 0.73659 9.6557 1.17715 10.2194 1.73509C10.7832 2.29297 11.2306 2.95704 11.536 3.6891C11.8415 4.42102 11.9988 5.20628 11.9988 5.9994C11.9988 6.79252 11.8415 7.57777 11.536 8.3097C11.2306 9.04176 10.7832 9.70583 10.2194 10.2638C9.6557 10.8216 8.98684 11.2622 8.25171 11.5599L8.20512 11.5786C8.10499 11.6182 8 11.5362 8 11.4286C8 10.1662 6.97665 9.14286 5.71429 9.14286C5.00684 9.14286 4.37445 9.46426 3.95519 9.96901ZM11.8066 10.6656C11.5036 10.6656 11.2131 10.7857 10.9989 10.9997C10.7855 11.2139 10.6656 11.504 10.6656 11.8066C10.6656 12.1096 10.7859 12.4002 11.0001 12.6146L14.0457 15.665C14.2602 15.8795 14.5512 16 14.8545 16C15.158 16 15.4489 15.8795 15.6634 15.665C15.8779 15.4505 15.9984 15.1595 15.9984 14.8561C15.9984 14.5527 15.8779 14.2618 15.6634 14.0473L12.6146 11.0001C12.4002 10.7859 12.1096 10.6656 11.8066 10.6656ZM5.71429 12.5714C6.34547 12.5714 6.85714 12.0598 6.85714 11.4286C6.85714 10.7974 6.34547 10.2857 5.71429 10.2857C5.0831 10.2857 4.57143 10.7974 4.57143 11.4286C4.57143 12.0598 5.0831 12.5714 5.71429 12.5714Z" fill="url(#paint0_linear_270_35)"/>
<path d="M7.14851 6.6485C6.92346 6.87354 6.61824 6.99996 6.29998 6.99996C5.98172 6.99996 5.6765 6.87354 5.45145 6.6485C5.22642 6.42345 5.09998 6.11823 5.09998 5.79997C5.09998 5.48169 5.22642 5.17649 5.45145 4.95144C5.6765 4.72639 5.98172 4.59998 6.29998 4.59998C6.61824 4.59998 6.92346 4.72639 7.14851 4.95144C7.37355 5.17649 7.49998 5.48169 7.49998 5.79997C7.49998 6.11823 7.37355 6.42345 7.14851 6.6485Z" fill="url(#paint1_linear_270_35)"/>
<path d="M3.84858 6.64851C3.62353 6.87355 3.31831 6.99998 3.00005 6.99998C2.68179 6.99998 2.37656 6.87355 2.15151 6.64851C1.92648 6.42346 1.80005 6.11824 1.80005 5.79998C1.80005 5.4817 1.92648 5.17649 2.15151 4.95144C2.37656 4.72639 2.68179 4.59998 3.00005 4.59998C3.31831 4.59998 3.62353 4.72639 3.84858 4.95144C4.07364 5.17649 4.20005 5.4817 4.20005 5.79998C4.20005 6.11824 4.07364 6.42346 3.84858 6.64851Z" fill="url(#paint2_linear_270_35)"/>
<path d="M10.3486 6.64851C10.1235 6.87355 9.81827 6.99998 9.50005 6.99998C9.18172 6.99998 8.87659 6.87355 8.65154 6.64851C8.42649 6.42346 8.30005 6.11824 8.30005 5.79998C8.30005 5.4817 8.42649 5.17649 8.65154 4.95144C8.87659 4.72639 9.18172 4.59998 9.50005 4.59998C9.81827 4.59998 10.1235 4.72639 10.3486 4.95144C10.5736 5.17649 10.7 5.4817 10.7 5.79998C10.7 6.11824 10.5736 6.42346 10.3486 6.64851Z" fill="url(#paint3_linear_270_35)"/>
</g>
<defs>
<linearGradient id="paint0_linear_270_35" x1="3.9996" y1="14.8571" x2="14.588" y2="2.50525" gradientUnits="userSpaceOnUse">
<stop stop-color="#A056FF"/>
<stop offset="1" stop-color="#C59AFD"/>
</linearGradient>
<linearGradient id="paint1_linear_270_35" x1="5.69998" y1="6.82853" x2="7.2882" y2="4.97559" gradientUnits="userSpaceOnUse">
<stop stop-color="#A056FF"/>
<stop offset="1" stop-color="#C59AFD"/>
</linearGradient>
<linearGradient id="paint2_linear_270_35" x1="2.40005" y1="6.82855" x2="3.98828" y2="4.97561" gradientUnits="userSpaceOnUse">
<stop stop-color="#A056FF"/>
<stop offset="1" stop-color="#C59AFD"/>
</linearGradient>
<linearGradient id="paint3_linear_270_35" x1="8.90005" y1="6.82855" x2="10.4883" y2="4.97561" gradientUnits="userSpaceOnUse">
<stop stop-color="#A056FF"/>
<stop offset="1" stop-color="#C59AFD"/>
</linearGradient>
<clipPath id="clip0_270_35">
<rect width="16" height="16" fill="white"/>
</clipPath>
</defs>
</svg>
