<svg width="16" height="16" viewBox="0 0 16 16" fill="none" xmlns="http://www.w3.org/2000/svg">
<path opacity="0.5" fill-rule="evenodd" clip-rule="evenodd" d="M11.5577 1.51684C12.0604 1.53058 12.3637 2.08802 12.3637 2.59091C12.3637 3.79589 13.3405 4.77273 14.5455 4.77273C15.1844 4.77273 15.9599 5.10488 15.9803 5.74343C16 6.3622 16 7.07466 16 7.9C16 10.9168 16 12.4256 15.0368 13.3624C14.0736 14.3 12.5232 14.3 9.42321 14.3H7.3136C5.53201 14.3 4.6408 14.3 3.8968 13.8992C3.15341 13.4979 2.68158 12.7636 1.73833 11.2956L1.736 11.292L1.192 10.444C0.3976 9.2072 0 8.588 0 7.9C0 7.212 0.3976 6.5928 1.192 5.356L1.7376 4.508C2.6824 3.0368 3.1544 2.3024 3.8984 1.9008C4.6416 1.5 5.5328 1.5 7.3144 1.5H9.424C10.2357 1.5 10.9412 1.5 11.5577 1.51684ZM14.5455 3.68182C15.148 3.68182 15.6364 3.1934 15.6364 2.59091C15.6364 1.98842 15.148 1.5 14.5455 1.5C13.943 1.5 13.4546 1.98842 13.4546 2.59091C13.4546 3.1934 13.943 3.68182 14.5455 3.68182Z" fill="url(#paint0_linear_271_126)"/>
<path d="M8.40003 6.34285L7.42757 5.3697C7.31036 5.25249 7.1712 5.15955 7.01806 5.09611C6.86493 5.03267 6.70082 5.00002 6.53506 5C6.36928 5 6.20515 5.03267 6.05204 5.09609C5.89891 5.15953 5.75976 5.25249 5.64256 5.3697C5.52535 5.48691 5.43238 5.62605 5.36892 5.77921C5.3055 5.93232 5.27285 6.09643 5.27285 6.26221C5.27285 6.42799 5.3055 6.5921 5.36894 6.74523C5.43238 6.89836 5.52535 7.0375 5.64256 7.15471L6.6157 8.12718C6.74721 8.25859 6.74721 8.47179 6.61566 8.6032L5.64253 9.57569C5.40585 9.81237 5.27283 10.1334 5.27283 10.4682C5.27287 10.8029 5.40583 11.124 5.64253 11.3607C5.87924 11.5974 6.20032 11.7304 6.53504 11.7304C6.86981 11.7304 7.19086 11.5974 7.42754 11.3607L8.40003 10.3876C8.53145 10.256 8.74464 10.256 8.87606 10.3875L9.84852 11.3607C10.0852 11.5974 10.4063 11.7304 10.741 11.7304C11.0758 11.7304 11.3968 11.5974 11.6335 11.3607C11.8702 11.124 12.0032 10.8029 12.0032 10.4682C12.0032 10.1334 11.8702 9.81237 11.6335 9.57567L10.6604 8.6032C10.5289 8.47179 10.5289 8.25861 10.6604 8.1272L11.6335 7.15471C11.8702 6.91801 12.0032 6.59698 12.0032 6.26221C12.0032 5.92744 11.8702 5.60641 11.6335 5.3697C11.3968 5.133 11.0758 5 10.741 5C10.4063 5 10.0852 5.133 9.84852 5.3697L8.87603 6.34283C8.74462 6.47437 8.53145 6.47435 8.40003 6.34285Z" fill="url(#paint1_linear_271_126)"/>
<defs>
<linearGradient id="paint0_linear_271_126" x1="3" y1="12.7" x2="10.5077" y2="1.43846" gradientUnits="userSpaceOnUse">
<stop stop-color="#FF405B"/>
<stop offset="1" stop-color="#FF8860"/>
</linearGradient>
<linearGradient id="paint1_linear_271_126" x1="6.53477" y1="10.8891" x2="10.7413" y2="5.84135" gradientUnits="userSpaceOnUse">
<stop stop-color="#FF405B"/>
<stop offset="1" stop-color="#FF8860"/>
</linearGradient>
</defs>
</svg>
