<svg width="16" height="16" viewBox="0 0 16 16" fill="none" xmlns="http://www.w3.org/2000/svg">
<path fill-rule="evenodd" clip-rule="evenodd" d="M1 13C0.448 13 0 12.552 0 12V3.992C0 1.787 1.787 0 3.992 0C6.357 0 9.643 0 12.008 0C13.067 0 14.082 0.421001 14.831 1.169C15.579 1.918 16 2.933 16 3.992C16 6.357 16 9.643 16 12.008C16 14.213 14.213 16 12.008 16C8.751 16 4 16 4 16C3.448 16 3 15.552 3 15C3 13.896 2.104 13 1 13ZM1 14C1.552 14 2 14.448 2 15C2 15.552 1.552 16 1 16C0.448 16 0 15.552 0 15C0 14.448 0.448 14 1 14Z" fill="url(#paint0_linear_73_2887)"/>
<path fill-rule="evenodd" clip-rule="evenodd" d="M4.16974 9.58253L5.52333 10.2842L6.18098 12.38C6.25468 12.6142 6.38038 12.8268 6.54665 13.0005L6.56037 13.0148C6.93005 13.4016 7.46428 13.5639 7.98023 13.4502C8.48532 13.3387 8.90928 12.9748 9.10298 12.4743C9.85148 10.5424 10.7125 7.60901 11.2136 6.31428C11.4199 5.78233 11.2993 5.17725 10.9148 4.775L10.9114 4.77157C10.4823 4.32304 9.82348 4.21505 9.27553 4.50188C7.81453 5.26581 4.29773 6.92622 4.29773 6.92622C4.01262 7.06106 3.89034 7.4016 4.02461 7.68672C4.15946 7.97183 4.07032 8.53235 3.9252 8.81232C3.78007 9.09229 3.88977 9.4374 4.16974 9.58253ZM3.14699 7.93926C3.36982 8.1621 3.36982 8.52435 3.14699 8.74718C2.92415 8.97059 2.5619 8.97059 2.33906 8.74718C2.11566 8.52435 2.11566 8.1621 2.33906 7.93926C2.5619 7.71643 2.92415 7.71643 3.14699 7.93926Z" fill="#8C4FD9"/>
<path fill-rule="evenodd" clip-rule="evenodd" d="M5.31257 8.43971L6.66615 9.14136L7.3238 11.2372C7.39751 11.4714 7.52321 11.684 7.68948 11.8577L7.70319 11.8719C8.07287 12.2588 8.6071 12.421 9.12305 12.3073C9.62815 12.1959 10.0521 11.832 10.2458 11.3314C10.9943 9.39962 11.8554 6.46619 12.3565 5.17146C12.5627 4.63951 12.4422 4.03442 12.0576 3.63218L12.0542 3.62875C11.6251 3.18022 10.9663 3.07223 10.4184 3.35906C8.95735 4.12299 5.44055 5.7834 5.44055 5.7834C5.15544 5.91824 5.03316 6.25878 5.16744 6.54389C5.30228 6.82901 5.21315 7.38953 5.06802 7.6695C4.92289 7.94947 5.03259 8.29458 5.31257 8.43971ZM4.28981 6.79644C4.51264 7.01928 4.51264 7.38153 4.28981 7.60436C4.06697 7.82777 3.70472 7.82777 3.48189 7.60436C3.25848 7.38153 3.25848 7.01928 3.48189 6.79644C3.70472 6.5736 4.06697 6.5736 4.28981 6.79644Z" fill="url(#paint1_linear_73_2887)"/>
<defs>
<linearGradient id="paint0_linear_73_2887" x1="4" y1="14.8571" x2="14.5882" y2="2.5042" gradientUnits="userSpaceOnUse">
<stop stop-color="#A056FF"/>
<stop offset="1" stop-color="#C59AFD"/>
</linearGradient>
<linearGradient id="paint1_linear_73_2887" x1="5.59979" y1="12.3429" x2="14.5133" y2="9.37211" gradientUnits="userSpaceOnUse">
<stop stop-color="#C59AFD"/>
<stop offset="1" stop-color="white"/>
</linearGradient>
</defs>
</svg>
