<svg width="16" height="16" viewBox="0 0 16 16" fill="none" xmlns="http://www.w3.org/2000/svg">
<path d="M8.40015 0C4.86567 0 2 3.20247 2 6.80015C2 10.3698 4.04244 14.2499 7.22975 15.7396C7.59607 15.9111 7.99564 16 8.40015 16C8.80465 16 9.20422 15.9111 9.57055 15.7396C12.7578 14.2499 14.8003 10.3698 14.8003 6.80015C14.8003 3.20247 11.9346 0 8.40015 0Z" fill="url(#paint0_linear_73_2837)"/>
<path d="M7.40009 9.50007C7.93049 9.50007 8.43922 9.28937 8.81434 8.91432C9.1894 8.53919 9.40009 8.03047 9.40009 7.50004C9.40009 6.9696 9.1894 6.46088 8.81434 6.0858C8.43922 5.71072 7.93049 5.5 7.40009 5.5C6.86962 5.5 6.36089 5.71072 5.98582 6.0858C5.61074 6.46088 5.40002 6.9696 5.40002 7.50004C5.40002 8.03047 5.61074 8.53919 5.98582 8.91432C6.36089 9.28937 6.86962 9.50007 7.40009 9.50007Z" fill="#D84F4F"/>
<path d="M8.40021 8.40021C8.93061 8.40021 9.43934 8.18952 9.81447 7.81447C10.1895 7.43934 10.4002 6.93061 10.4002 6.40019C10.4002 5.86975 10.1895 5.36103 9.81447 4.98594C9.43934 4.61087 8.93061 4.40015 8.40021 4.40015C7.86974 4.40015 7.36101 4.61087 6.98594 4.98594C6.61087 5.36103 6.40015 5.86975 6.40015 6.40019C6.40015 6.93061 6.61087 7.43934 6.98594 7.81447C7.36101 8.18952 7.86974 8.40021 8.40021 8.40021Z" fill="url(#paint1_linear_73_2837)"/>
<defs>
<linearGradient id="paint0_linear_73_2837" x1="4.40005" y1="14" x2="14.5583" y2="4.2479" gradientUnits="userSpaceOnUse">
<stop stop-color="#FF405B"/>
<stop offset="1" stop-color="#FF8860"/>
</linearGradient>
<linearGradient id="paint1_linear_73_2837" x1="7.54258" y1="8.40013" x2="8.84817" y2="5.29167" gradientUnits="userSpaceOnUse">
<stop stop-color="#FF8860"/>
<stop offset="1" stop-color="white"/>
</linearGradient>
</defs>
</svg>
