<svg width="16" height="16" viewBox="0 0 16 16" fill="none" xmlns="http://www.w3.org/2000/svg">
<path d="M0.345816 7.8428L0.915681 8.78076C1.12507 9.12497 1.3451 9.46179 1.57533 9.79079C1.95492 10.3333 2.78452 10.2785 3.41802 10.0861C3.60218 10.0302 3.79758 10.0001 4 10.0001C5.10457 10.0001 6 10.8956 6 12.0001C6 12.2025 5.96995 12.3978 5.91406 12.5819C5.72174 13.2155 5.66703 14.0451 6.20951 14.4246C6.5381 14.6545 6.8745 14.8742 7.21827 15.0834L8.15732 15.6542C9.61951 16.4015 11.5109 15.9215 12.3282 14.3746C12.7134 13.6435 13.0809 12.8246 13.3135 12.0095C13.6215 10.9218 13.8056 9.80273 13.8621 8.67371C13.8875 8.18061 13.8998 7.93334 13.782 7.62825C13.6648 7.32396 13.4615 7.11981 13.0547 6.71385L9.33681 2.99591C8.95856 2.61765 8.76903 2.42813 8.48401 2.31026C8.19893 2.19394 7.97245 2.19471 7.51872 2.19625C6.32566 2.19961 5.13852 2.36416 3.98953 2.68544C3.17523 2.9181 2.35631 3.28481 1.62521 3.67154C0.0783848 4.4881 -0.400843 6.37918 0.345424 7.8413L0.345816 7.8428Z" fill="url(#paint0_linear_73_2754)"/>
<path d="M4 13C4.55228 13 5 12.5523 5 12C5 11.4477 4.55228 11 4 11C3.44772 11 3 11.4477 3 12C3 12.5523 3.44772 13 4 13Z" fill="url(#paint1_linear_73_2754)"/>
<path d="M15.8158 1.00051C15.8725 0.947618 15.9181 0.883829 15.9497 0.812956C15.9813 0.742076 15.9982 0.665567 15.9996 0.587989C16.001 0.51041 15.9867 0.433348 15.9576 0.361399C15.9286 0.289457 15.8853 0.224097 15.8304 0.169232C15.7756 0.114366 15.7102 0.0711151 15.6383 0.0420532C15.5664 0.0129913 15.4893 -0.00127626 15.4117 8.95649e-05C15.3341 0.00146411 15.2576 0.0184386 15.1867 0.0500241C15.1159 0.0816023 15.0521 0.12713 14.9992 0.183901L13.5587 1.62376C13.344 1.83839 13.3766 2.19382 13.5914 2.40843C13.806 2.62285 14.161 2.65531 14.3755 2.44081L15.8158 1.00051Z" fill="url(#paint2_linear_73_2754)"/>
<path fill-rule="evenodd" clip-rule="evenodd" d="M9.28956 2.90466C9.30499 2.92008 9.32074 2.93583 9.33683 2.95192L13.0547 6.66986C13.4615 7.07582 13.6648 7.27997 13.782 7.58426C13.8309 7.71087 13.8574 7.82752 13.8698 7.95591C13.7533 8.1227 13.6217 8.28008 13.4759 8.42591L13.4578 8.44322C13.3368 8.28679 13.1713 8.12131 12.9411 7.89126L12.9267 7.87685L9.1309 4.08098C8.85871 3.80877 8.68248 3.63256 8.5 3.50983L8.52986 3.48072C8.75609 3.25446 9.0118 3.06078 9.28956 2.90466Z" fill="#D84F4F"/>
<path d="M13.5917 2.40881C13.2737 2.09073 12.8962 1.83841 12.4806 1.66627C12.0651 1.49412 11.6197 1.40552 11.17 1.40552C10.7202 1.40552 10.2749 1.49412 9.85929 1.66627C9.4438 1.83841 9.06627 2.09073 8.74823 2.40881L8.71899 2.43732C8.89769 2.5575 9.07027 2.73006 9.33681 2.99662L13.0539 6.71377C13.2866 6.94643 13.453 7.11203 13.574 7.26839L13.5917 7.25145C14.2338 6.60926 14.5946 5.73831 14.5946 4.83014C14.5946 3.92197 14.2338 3.051 13.5917 2.40881Z" fill="url(#paint3_linear_73_2754)"/>
<defs>
<linearGradient id="paint0_linear_73_2754" x1="2.60231" y1="14.2746" x2="11.2214" y2="3.87562" gradientUnits="userSpaceOnUse">
<stop offset="0.268996" stop-color="#FF3552"/>
<stop offset="0.893991" stop-color="#FF9470"/>
</linearGradient>
<linearGradient id="paint1_linear_73_2754" x1="2.60231" y1="14.2745" x2="11.2214" y2="3.87556" gradientUnits="userSpaceOnUse">
<stop offset="0.268996" stop-color="#FF3552"/>
<stop offset="0.893991" stop-color="#FF9470"/>
</linearGradient>
<linearGradient id="paint2_linear_73_2754" x1="13.8981" y1="2.26309" x2="15.5145" y2="0.32316" gradientUnits="userSpaceOnUse">
<stop stop-color="#FF405B"/>
<stop offset="1" stop-color="#FF8860"/>
</linearGradient>
<linearGradient id="paint3_linear_73_2754" x1="10.3971" y1="7.26827" x2="15.2022" y2="2.01384" gradientUnits="userSpaceOnUse">
<stop offset="0.304024" stop-color="#FF8860"/>
<stop offset="1" stop-color="white"/>
</linearGradient>
</defs>
</svg>
