<svg width="16" height="16" viewBox="0 0 16 16" fill="none" xmlns="http://www.w3.org/2000/svg">
<path opacity="0.4" d="M15.1045 14.1807H10.0429C9.54911 14.1807 9.14746 14.5887 9.14746 15.0904C9.14746 15.593 9.54911 16 10.0429 16H15.1045C15.5984 16 16 15.593 16 15.0904C16 14.5887 15.5984 14.1807 15.1045 14.1807Z" fill="url(#paint0_linear_73_2860)"/>
<path opacity="0.4" d="M13.4405 5.03596L12.5158 6.19026C12.4227 6.30775 12.2553 6.3269 12.1396 6.23324C11.0155 5.32359 8.13711 2.9892 7.33849 2.34231C7.22185 2.24675 7.2059 2.07667 7.29993 1.95818L8.19167 0.850721C9.00063 -0.190813 10.4116 -0.286366 11.5498 0.621393L12.8573 1.66292C13.3934 2.08336 13.7509 2.63757 13.8732 3.22044C14.0142 3.8616 13.8637 4.4913 13.4405 5.03596Z" fill="url(#paint1_linear_73_2860)"/>
<path fill-rule="evenodd" clip-rule="evenodd" d="M6.49692 3.47005L11.2933 7.3457C11.4089 7.43839 11.4287 7.60847 11.3384 7.72698L5.65223 15.1362C5.29479 15.5939 4.76803 15.8528 4.20364 15.8624L1.09952 15.9006C0.93397 15.9025 0.789111 15.7879 0.751484 15.6235L0.0460049 12.5562C-0.0762797 11.9925 0.0460049 11.4096 0.403446 10.9605L2.36702 8.40238C2.62093 8.0716 3.08301 8 3.5 8C4.32843 8 5 7.32843 5 6.5C5 6.40708 4.99155 6.31612 4.97538 6.22787C4.88784 5.75021 4.82117 5.20517 5.11686 4.81995L6.11783 3.51592C6.21004 3.39648 6.38028 3.37545 6.49692 3.47005ZM3 7C3.55228 7 4 6.55228 4 6C4 5.44772 3.55228 5 3 5C2.44772 5 2 5.44772 2 6C2 6.55228 2.44772 7 3 7Z" fill="url(#paint2_linear_73_2860)"/>
<defs>
<linearGradient id="paint0_linear_73_2860" x1="10.8606" y1="15.8701" x2="11.3878" y2="13.5534" gradientUnits="userSpaceOnUse">
<stop stop-color="#A056FF"/>
<stop offset="1" stop-color="#C59AFD"/>
</linearGradient>
<linearGradient id="paint1_linear_73_2860" x1="8.91033" y1="5.84316" x2="13.0288" y2="0.738094" gradientUnits="userSpaceOnUse">
<stop stop-color="#A056FF"/>
<stop offset="1" stop-color="#C59AFD"/>
</linearGradient>
<linearGradient id="paint2_linear_73_2860" x1="2.84875" y1="15.0085" x2="11.1962" y2="6.12346" gradientUnits="userSpaceOnUse">
<stop stop-color="#A056FF"/>
<stop offset="1" stop-color="#C59AFD"/>
</linearGradient>
</defs>
</svg>
