<svg width="16" height="16" viewBox="0 0 16 16" fill="none" xmlns="http://www.w3.org/2000/svg">
<path fill-rule="evenodd" clip-rule="evenodd" d="M16 15C16 14.448 15.552 14 15 14C14.448 14 14 14.448 14 15C14 15.552 14.448 16 15 16C15.552 16 16 15.552 16 15ZM13 15C13 13.896 13.896 13 15 13C15.552 13 16 12.552 16 12C16 12 16 7.216 16 3.958C16 1.772 14.228 0 12.0419 0H3.958C1.772 0 0 1.772 0 3.958V12.0419C0 14.228 1.772 16 3.958 16C7.216 16 12 16 12 16C12.552 16 13 15.552 13 15Z" fill="url(#paint0_linear_73_2786)"/>
<path fill-rule="evenodd" clip-rule="evenodd" d="M4.38177 13.9999H9.10904C9.76141 13.9999 10.2909 13.4705 10.2909 12.8181C10.2909 12.1657 9.76141 11.6363 9.10904 11.6363H4.38177C3.72941 11.6363 3.19995 12.1657 3.19995 12.8181C3.19995 13.4705 3.72941 13.9999 4.38177 13.9999ZM5.56359 6.41976L5.21731 6.0735C4.7564 5.61259 4.00714 5.61259 3.54623 6.0735C3.08532 6.53441 3.08532 7.28367 3.54623 7.74458L5.90987 10.1081C6.37078 10.5702 7.12004 10.5702 7.58094 10.1081L9.94458 7.74458C10.4055 7.28367 10.4055 6.53441 9.94458 6.0735C9.48367 5.61259 8.73441 5.61259 8.2735 6.0735L7.92722 6.41976V3.36358C7.92722 2.71122 7.39777 2.18176 6.74541 2.18176C6.09304 2.18176 5.56359 2.71122 5.56359 3.36358V6.41976Z" fill="#8CC860"/>
<path fill-rule="evenodd" clip-rule="evenodd" d="M5.56353 12.8182H10.2908C10.9432 12.8182 11.4726 12.2887 11.4726 11.6363C11.4726 10.984 10.9432 10.4545 10.2908 10.4545H5.56353C4.91117 10.4545 4.38171 10.984 4.38171 11.6363C4.38171 12.2887 4.91117 12.8182 5.56353 12.8182Z" fill="url(#paint1_linear_73_2786)"/>
<path fill-rule="evenodd" clip-rule="evenodd" d="M6.74548 5.238L6.39922 4.89173C5.93831 4.43083 5.18904 4.43083 4.72813 4.89173C4.26722 5.35264 4.26722 6.10192 4.72813 6.56282L7.09176 8.92646C7.55267 9.38855 8.30195 9.38855 8.76286 8.92646L11.1265 6.56282C11.5874 6.10192 11.5874 5.35264 11.1265 4.89173C10.6655 4.43083 9.91631 4.43083 9.4554 4.89173L9.10912 5.238V2.18182C9.10912 1.52945 8.57967 1 7.9273 1C7.27494 1 6.74548 1.52945 6.74548 2.18182V5.238Z" fill="url(#paint2_linear_73_2786)"/>
<defs>
<linearGradient id="paint0_linear_73_2786" x1="1.14286" y1="16" x2="11.7135" y2="0.624479" gradientUnits="userSpaceOnUse">
<stop stop-color="#9BE862"/>
<stop offset="1" stop-color="#C8FF9F"/>
</linearGradient>
<linearGradient id="paint1_linear_73_2786" x1="5.26808" y1="12.8182" x2="6.61605" y2="9.2797" gradientUnits="userSpaceOnUse">
<stop stop-color="#C8FF9F"/>
<stop offset="1" stop-color="white"/>
</linearGradient>
<linearGradient id="paint2_linear_73_2786" x1="5.26866" y1="9.27302" x2="12.0758" y2="4.16873" gradientUnits="userSpaceOnUse">
<stop stop-color="#C8FF9F"/>
<stop offset="1" stop-color="white"/>
</linearGradient>
</defs>
</svg>
