<svg width="16" height="16" viewBox="0 0 16 16" fill="none" xmlns="http://www.w3.org/2000/svg">
<g clip-path="url(#clip0_271_158)">
<path opacity="0.5" fill-rule="evenodd" clip-rule="evenodd" d="M3 1C3 2.104 2.104 3 1 3C0.448 3 0 3.448 0 4V12.008C0 14.213 1.787 16 3.992 16H12.008C13.067 16 14.082 15.579 14.831 14.831C15.579 14.082 16 13.067 16 12.008C16 9.643 16 6.357 16 3.992C16 1.787 14.213 0 12.008 0H4C3.448 0 3 0.448 3 1ZM1 2C1.552 2 2 1.552 2 1C2 0.448 1.552 0 1 0C0.448 0 0 0.448 0 1C0 1.552 0.448 2 1 2Z" fill="url(#paint0_linear_271_158)"/>
<path fill-rule="evenodd" clip-rule="evenodd" d="M10.588 3.47697L3.67387 10.3911C3.03777 11.0272 3.03823 12.0593 3.67433 12.6954C4.31043 13.3315 5.34248 13.3319 5.97858 12.6958L12.8927 5.78168C13.5288 5.14558 13.5284 4.11353 12.8923 3.47743C12.2562 2.84133 11.2241 2.84087 10.588 3.47697Z" fill="url(#paint1_linear_271_158)"/>
<path fill-rule="evenodd" clip-rule="evenodd" d="M12.8922 10.391L5.97809 3.47684C5.34199 2.84074 4.30994 2.84121 3.67384 3.47731C3.03774 4.11341 3.03728 5.14546 3.67338 5.78156L10.5875 12.6957C11.2236 13.3318 12.2557 13.3313 12.8918 12.6952C13.5279 12.0591 13.5283 11.0271 12.8922 10.391Z" fill="url(#paint2_linear_271_158)"/>
</g>
<defs>
<linearGradient id="paint0_linear_271_158" x1="3" y1="14" x2="13" y2="2" gradientUnits="userSpaceOnUse">
<stop stop-color="#FF405B"/>
<stop offset="1" stop-color="#FF8860"/>
</linearGradient>
<linearGradient id="paint1_linear_271_158" x1="5.10437" y1="11.9011" x2="11.4622" y2="4.27169" gradientUnits="userSpaceOnUse">
<stop stop-color="#FF405B"/>
<stop offset="1" stop-color="#FF8860"/>
</linearGradient>
<linearGradient id="paint2_linear_271_158" x1="5.10388" y1="11.901" x2="11.4617" y2="4.27156" gradientUnits="userSpaceOnUse">
<stop stop-color="#FF405B"/>
<stop offset="1" stop-color="#FF8860"/>
</linearGradient>
<clipPath id="clip0_271_158">
<rect width="16" height="16" fill="white"/>
</clipPath>
</defs>
</svg>
