<svg width="16" height="16" viewBox="0 0 16 16" fill="none" xmlns="http://www.w3.org/2000/svg">
<g clip-path="url(#clip0_273_52)">
<path opacity="0.5" fill-rule="evenodd" clip-rule="evenodd" d="M3 8C3 6 1.336 5.837 1.276 5.807C0.780999 5.563 0.576999 4.963 0.820999 4.468C2.126 1.822 4.852 0 8 0C12.415 0 16 3.585 16 8C16 12.415 12.415 16 8 16C4.852 16 2.126 14.178 0.820999 11.532C0.576999 11.037 0.780999 10.437 1.276 10.193C1.336 10.163 3 10 3 8ZM1 9C0.448 9 0 8.552 0 8C0 7.448 0.448 7 1 7C1.552 7 2 7.448 2 8C2 8.552 1.552 9 1 9Z" fill="url(#paint0_linear_273_52)"/>
<path fill-rule="evenodd" clip-rule="evenodd" d="M7.35897 6.47344C7.35897 7.28761 6.79399 7.94687 6.09684 7.94687C5.39885 7.94687 4.83306 7.28761 4.83306 6.47344C4.83306 5.65926 5.39885 5 6.096 5C6.79315 5 7.35897 5.65926 7.35897 6.47344ZM11.5687 6.47344C11.5687 7.28761 11.0038 7.94687 10.3058 7.94687C9.60867 7.94687 9.04287 7.28677 9.04287 6.47344C9.04287 5.6601 9.60867 5 10.3058 5C11.003 5 11.5687 5.65926 11.5687 6.47344ZM11.8558 9.28223C11.7072 9.20727 11.5352 9.19348 11.3765 9.24384C11.2179 9.2942 11.0853 9.40471 11.0071 9.55165C10.9785 9.60722 10.2755 10.8929 8.20175 10.8929C6.1381 10.8929 5.43085 9.61901 5.39549 9.5525C5.31979 9.403 5.18779 9.2897 5.02855 9.2375C4.86931 9.18532 4.69587 9.19853 4.54637 9.27423C4.39687 9.34992 4.28354 9.4819 4.23137 9.64116C4.17919 9.8004 4.1924 9.97385 4.2681 10.1233C4.3102 10.2067 5.31887 12.1558 8.20175 12.1558C11.0854 12.1558 12.0924 10.2059 12.1337 10.1225C12.2079 9.97416 12.2203 9.80248 12.1682 9.64501C12.1161 9.48753 12.0038 9.35711 11.8558 9.28223Z" fill="url(#paint1_linear_273_52)"/>
</g>
<defs>
<linearGradient id="paint0_linear_273_52" x1="3" y1="14.9988" x2="12.9991" y2="2.999" gradientUnits="userSpaceOnUse">
<stop stop-color="#FF8860"/>
<stop offset="1" stop-color="#FBD92C"/>
</linearGradient>
<linearGradient id="paint1_linear_273_52" x1="5.69995" y1="11.708" x2="10.057" y2="5.86235" gradientUnits="userSpaceOnUse">
<stop stop-color="#FF8860"/>
<stop offset="1" stop-color="#FBD92C"/>
</linearGradient>
<clipPath id="clip0_273_52">
<rect width="16" height="16" fill="white"/>
</clipPath>
</defs>
</svg>
