<svg width="16" height="16" viewBox="0 0 16 16" fill="none" xmlns="http://www.w3.org/2000/svg">
<path d="M1 0.5C0.446 0.5 0 0.946 0 1.5V2.78094C0 3.22359 0.507846 3.51259 0.950331 3.50067C0.966834 3.50022 0.983394 3.5 1 3.5H4.34922C4.50077 3.5 4.64611 3.4398 4.75326 3.33265L6.29303 1.793C6.48051 1.60546 6.7348 1.50007 7 1.5H7.42857C7.74417 1.5 8.01251 1.22441 7.842 0.958869C7.66446 0.682429 7.35434 0.5 7 0.5H1ZM7.23669 2.5C7.08514 2.5 6.93977 2.56021 6.83263 2.66737L5.16737 4.33263C5.06023 4.43979 4.91486 4.5 4.76331 4.5H1C0.446 4.5 0 4.946 0 5.5V13.5C0 14.608 0.892 15.5 2 15.5H14C15.108 15.5 16 14.608 16 13.5V3.5C16 2.946 15.554 2.5 15 2.5H7.23669Z" fill="url(#paint0_linear_73_3353)"/>
<path d="M11.8584 10.7156L8.0673 6.92452C7.92335 6.78052 7.67712 6.88252 7.67712 7.08612V13.1629C7.67712 13.2892 7.77947 13.3914 7.9057 13.3914H9.73427C9.8605 13.3914 9.96284 13.2892 9.96284 13.1629V11.3343C9.96284 11.2081 10.0652 11.1057 10.1914 11.1057H11.6967C11.9004 11.1057 12.0023 10.8596 11.8584 10.7156Z" fill="#7FD1AE"/>
<path d="M6.30583 8.82001H4.47726C4.35103 8.82001 4.24869 8.92235 4.24869 9.04858V10.8771C4.24869 11.0034 4.14635 11.1057 4.02012 11.1057H2.5148C2.31116 11.1057 2.20918 11.352 2.35317 11.496L6.14423 15.287C6.28818 15.431 6.5344 15.329 6.5344 15.1254V9.04858C6.5344 8.92235 6.43206 8.82001 6.30583 8.82001Z" fill="#7FD1AE"/>
<path d="M12.7527 9.18864L8.96158 5.39761C8.81764 5.25361 8.57141 5.35561 8.57141 5.55921V11.6359C8.57141 11.7622 8.67375 11.8645 8.79998 11.8645H10.6286C10.7548 11.8645 10.8571 11.7622 10.8571 11.6359V9.80738C10.8571 9.68115 10.9595 9.57881 11.0857 9.57881H12.591C12.7947 9.57881 12.8966 9.33264 12.7527 9.18864Z" fill="url(#paint1_linear_73_3353)"/>
<path d="M7.2 7.29309H5.37143C5.2452 7.29309 5.14286 7.39543 5.14286 7.52166V9.35023C5.14286 9.47652 5.04051 9.5788 4.91428 9.5788H3.40896C3.20532 9.5788 3.10335 9.82503 3.24734 9.96903L7.0384 13.7601C7.18234 13.9041 7.42857 13.8021 7.42857 13.5985V7.52166C7.42857 7.39543 7.32623 7.29309 7.2 7.29309Z" fill="url(#paint2_linear_73_3353)"/>
<defs>
<linearGradient id="paint0_linear_73_3353" x1="2" y1="13.6254" x2="16.8684" y2="9.96561" gradientUnits="userSpaceOnUse">
<stop stop-color="#62E8AF"/>
<stop offset="1" stop-color="#B3FBDC"/>
</linearGradient>
<linearGradient id="paint1_linear_73_3353" x1="8.57141" y1="11.8645" x2="11.3074" y2="4.74861" gradientUnits="userSpaceOnUse">
<stop stop-color="#B3FBDC"/>
<stop offset="1" stop-color="white"/>
</linearGradient>
<linearGradient id="paint2_linear_73_3353" x1="3.17993" y1="13.8275" x2="5.91601" y2="6.71151" gradientUnits="userSpaceOnUse">
<stop stop-color="#B3FBDC"/>
<stop offset="1" stop-color="white"/>
</linearGradient>
</defs>
</svg>
