<svg width="16" height="16" viewBox="0 0 16 16" fill="none" xmlns="http://www.w3.org/2000/svg">
<g clip-path="url(#clip0_271_169)">
<path opacity="0.5" d="M16 5.5V11.5C15.999 12.4721 15.6123 13.4042 14.9249 14.0916C14.2375 14.779 13.3055 15.1656 12.3333 15.1667H3.66668C2.69454 15.1656 1.76252 14.779 1.07511 14.0916C0.387708 13.4042 0.00105931 12.4721 0 11.5V4.16668C0.00105931 3.19454 0.387708 2.26251 1.07511 1.57511C1.76252 0.887708 2.69454 0.501059 3.66668 0.5H5.33332C5.48861 0.499906 5.64177 0.53597 5.78066 0.605333L8.00298 1.71679C8.15622 1.79343 8.32521 1.83333 8.49655 1.83333H12.3333C13.3055 1.83439 14.2375 2.22105 14.9249 2.90844C15.6123 3.59586 15.999 4.52786 16 5.5Z" fill="url(#paint0_linear_271_169)"/>
<path d="M11.485 9.6862C11.7265 9.44474 11.8621 9.11732 11.8621 8.77589C11.8621 8.43445 11.7265 8.10703 11.485 7.86557C11.2436 7.62416 10.9161 7.48852 10.5747 7.48852H9.64249C9.44635 7.48852 9.28737 7.32954 9.28737 7.1334V6.20118C9.28737 5.85975 9.15173 5.53233 8.91033 5.29087C8.66886 5.04943 8.34144 4.91382 8.00001 4.91382C7.65857 4.91382 7.33115 5.04943 7.08969 5.29087C6.84828 5.53233 6.71264 5.85975 6.71264 6.20118V7.1334C6.71264 7.32954 6.55366 7.48852 6.35753 7.48852H5.42531C5.08387 7.48852 4.75645 7.62416 4.51499 7.86557C4.27355 8.10703 4.13794 8.43445 4.13794 8.77589C4.13794 9.11732 4.27355 9.44474 4.51499 9.6862C4.75645 9.92761 5.08387 10.0633 5.42531 10.0633H6.35753C6.55366 10.0633 6.71264 10.2222 6.71264 10.4184V11.3506C6.71264 11.692 6.84828 12.0194 7.08969 12.2609C7.33115 12.5023 7.65857 12.638 8.00001 12.638C8.34144 12.638 8.66886 12.5023 8.91033 12.2609C9.15173 12.0194 9.28737 11.692 9.28737 11.3506V10.4184C9.28737 10.2222 9.44635 10.0633 9.64249 10.0633H10.5747C10.9161 10.0633 11.2436 9.92761 11.485 9.6862Z" fill="url(#paint1_linear_271_169)"/>
</g>
<defs>
<linearGradient id="paint0_linear_271_169" x1="2" y1="13.3337" x2="16.8294" y2="9.60057" gradientUnits="userSpaceOnUse">
<stop stop-color="#62E8AF"/>
<stop offset="1" stop-color="#B3FBDC"/>
</linearGradient>
<linearGradient id="paint1_linear_271_169" x1="5.10346" y1="11.6727" x2="12.3313" y2="10.0048" gradientUnits="userSpaceOnUse">
<stop stop-color="#62E8AF"/>
<stop offset="1" stop-color="#B3FBDC"/>
</linearGradient>
<clipPath id="clip0_271_169">
<rect width="16" height="16" fill="white"/>
</clipPath>
</defs>
</svg>
