<svg width="16" height="16" viewBox="0 0 16 16" fill="none" xmlns="http://www.w3.org/2000/svg">
<path d="M8.98209 14.6851C9.03112 14.6366 9.23812 14.4554 9.41001 14.2851C10.4867 13.2922 12.2472 10.6992 12.786 9.34282C12.8719 9.1369 13.0549 8.61611 13.0678 8.33699C13.0678 8.07066 13.0059 7.8162 12.884 7.57365C12.713 7.2707 12.4431 7.02907 12.1252 6.89548C11.9053 6.81037 11.2444 6.67672 11.2325 6.67672C10.5107 6.54404 9.33698 6.47171 8.03947 6.47171C6.80479 6.47171 5.67917 6.54404 4.94539 6.65293C4.93244 6.6648 4.11269 6.79845 3.83175 6.94396C3.31791 7.21029 3 7.73109 3 8.28845V8.33699C3.01201 8.70035 3.33085 9.46364 3.34194 9.46364C3.88073 10.7477 5.55625 13.2793 6.66985 14.2971C6.66985 14.2971 6.95635 14.5844 7.13471 14.7089C7.3916 14.903 7.70955 15 8.02744 15C8.38233 15 8.71225 14.8911 8.98209 14.6851Z" fill="url(#paint0_linear_113_633)"/>
<path fill-rule="evenodd" clip-rule="evenodd" d="M4.31934 6.78739C5.04244 7.94046 5.96783 9.18376 6.66987 9.82539C6.66987 9.82539 6.95638 10.1128 7.13474 10.2372C7.39163 10.4313 7.70958 10.5283 8.02747 10.5283C8.38236 10.5283 8.71228 10.4194 8.98212 10.2134C8.99907 10.1967 9.03493 10.164 9.08169 10.1214C9.17013 10.0409 9.29759 9.92485 9.41003 9.81347C10.0791 9.19642 11.0122 7.9616 11.7521 6.78957C11.5029 6.72935 11.24 6.67674 11.2325 6.67674C10.5106 6.54406 9.33696 6.47173 8.03945 6.47173C6.80477 6.47173 5.67915 6.54406 4.94537 6.65296C4.94222 6.65584 4.89125 6.66595 4.81188 6.68169C4.69082 6.70569 4.50367 6.7428 4.31934 6.78739Z" fill="#D84F4F"/>
<path d="M8.98209 9.21342C9.03112 9.16493 9.23812 8.98371 9.41001 8.81344C10.4867 7.82044 12.2472 5.22752 12.786 3.87111C12.8719 3.66519 13.0549 3.1444 13.0678 2.86528C13.0678 2.59895 13.0059 2.34449 12.884 2.10194C12.713 1.79899 12.4431 1.55736 12.1252 1.42377C11.9053 1.33866 11.2444 1.20501 11.2325 1.20501C10.5107 1.07233 9.33698 1 8.03947 1C6.80479 1 5.67917 1.07233 4.94539 1.18122C4.93244 1.19309 4.11269 1.32674 3.83175 1.47225C3.31791 1.73858 3 2.25938 3 2.81674V2.86528C3.01201 3.22864 3.33085 3.99193 3.34194 3.99193C3.88073 5.27601 5.55625 7.80761 6.66985 8.82536C6.66985 8.82536 6.95635 9.11272 7.13471 9.23721C7.39161 9.43126 7.70955 9.52829 8.02744 9.52829C8.38233 9.52829 8.71225 9.41934 8.98209 9.21342Z" fill="url(#paint1_linear_113_633)"/>
<defs>
<linearGradient id="paint0_linear_113_633" x1="11.8093" y1="13.4009" x2="5.30739" y2="7.00454" gradientUnits="userSpaceOnUse">
<stop stop-color="#FF405B"/>
<stop offset="1" stop-color="#FF8860"/>
</linearGradient>
<linearGradient id="paint1_linear_113_633" x1="5.87539" y1="9.52811" x2="14.035" y2="2.40307" gradientUnits="userSpaceOnUse">
<stop stop-color="#FF8860"/>
<stop offset="1" stop-color="white"/>
</linearGradient>
</defs>
</svg>
