<svg width="16" height="16" viewBox="0 0 16 16" fill="none" xmlns="http://www.w3.org/2000/svg">
<path d="M8.97558 7.42848L9.37983 2.8575C9.37983 1.83169 8.54004 1 7.50421 1C6.46845 1 5.62866 1.83169 5.62866 2.8575L6.03291 7.42848C6.03291 8.23324 6.69166 8.88564 7.50421 8.88564C8.31818 8.88564 8.97558 8.23324 8.97558 7.42848Z" fill="url(#paint0_linear_113_563)"/>
<path fill-rule="evenodd" clip-rule="evenodd" d="M9.07815 6.28741L8.97711 7.42998C8.97711 8.23473 8.3197 8.88713 7.50573 8.88713C6.69319 8.88713 6.03443 8.23473 6.03443 7.42998L5.93457 6.30077C6.43785 6.26854 7.00749 6.25 7.60509 6.25C8.12649 6.25 8.62601 6.26278 9.07815 6.28741Z" fill="#8C4FD9"/>
<path d="M8.46638 14.7122C8.51118 14.6679 8.70034 14.5023 8.85741 14.3467C9.84124 13.4393 11.45 11.0699 11.9423 9.83045C12.0209 9.64228 12.1881 9.16638 12.1999 8.91133C12.1999 8.66796 12.1433 8.43543 12.0319 8.2138C11.8756 7.93696 11.629 7.71616 11.3385 7.59408C11.1375 7.51631 10.5337 7.39418 10.5228 7.39418C9.86318 7.27294 8.79068 7.20685 7.60502 7.20685C6.47679 7.20685 5.4482 7.27294 4.77768 7.37245C4.76585 7.38329 4.01677 7.50542 3.76004 7.63839C3.29051 7.88176 3 8.35766 3 8.86697V8.91133C3.01098 9.24336 3.30233 9.94085 3.31246 9.94085C3.8048 11.1142 5.33588 13.4276 6.35348 14.3576C6.35348 14.3576 6.61528 14.6202 6.77827 14.7339C7.01301 14.9113 7.30355 14.9999 7.59403 14.9999C7.91833 14.9999 8.21981 14.9004 8.46638 14.7122Z" fill="url(#paint1_linear_113_563)"/>
<defs>
<linearGradient id="paint0_linear_113_563" x1="6.56645" y1="8.32238" x2="11.0475" y2="5.8355" gradientUnits="userSpaceOnUse">
<stop stop-color="#A056FF"/>
<stop offset="1" stop-color="#C59AFD"/>
</linearGradient>
<linearGradient id="paint1_linear_113_563" x1="6.0625" y1="13.6875" x2="15.4999" y2="10.6208" gradientUnits="userSpaceOnUse">
<stop stop-color="#C59AFD"/>
<stop offset="1" stop-color="white"/>
</linearGradient>
</defs>
</svg>
