<svg width="16" height="16" viewBox="0 0 16 16" fill="none" xmlns="http://www.w3.org/2000/svg">
<path d="M7.42848 6.22431L2.8575 5.82006C1.83169 5.82006 1 6.65985 1 7.69568C1 8.73144 1.83169 9.57123 2.8575 9.57123L7.42848 9.16698C8.23324 9.16698 8.88564 8.50823 8.88564 7.69568C8.88564 6.88171 8.23324 6.22431 7.42848 6.22431Z" fill="url(#paint0_linear_113_547)"/>
<path fill-rule="evenodd" clip-rule="evenodd" d="M6.03173 6.0992L7.43008 6.22287C8.23484 6.22287 8.88724 6.88028 8.88724 7.69425C8.88724 8.50679 8.23484 9.16555 7.43008 9.16555L6.1818 9.27594C6.08929 8.60521 6.02869 7.61622 6.02869 6.53586C6.02869 6.38836 6.02971 6.24262 6.03173 6.0992Z" fill="#8C4FD9"/>
<path d="M14.7121 6.73351C14.6678 6.68871 14.5022 6.49955 14.3466 6.34248C13.4392 5.35865 11.0699 3.74988 9.83039 3.25757C9.64222 3.17901 9.16632 3.01178 8.91127 3C8.6679 3 8.43537 3.05658 8.21373 3.16802C7.9369 3.32425 7.7161 3.57087 7.59402 3.86136C7.51625 4.06235 7.39412 4.66619 7.39412 4.67713C7.27288 5.33671 7.20679 6.40921 7.20679 7.59487C7.20679 8.7231 7.27288 9.75169 7.37239 10.4222C7.38323 10.434 7.50536 11.1831 7.63833 11.4398C7.8817 11.9094 8.3576 12.1999 8.86691 12.1999H8.91127C9.2433 12.1889 9.94079 11.8976 9.94079 11.8874C11.1142 11.3951 13.4275 9.86401 14.3575 8.84641C14.3575 8.84641 14.6201 8.58461 14.7339 8.42163C14.9112 8.18688 14.9999 7.89634 14.9999 7.60586C14.9999 7.28156 14.9003 6.98008 14.7121 6.73351Z" fill="url(#paint1_linear_113_547)"/>
<defs>
<linearGradient id="paint0_linear_113_547" x1="8.32238" y1="8.63344" x2="5.8355" y2="4.1524" gradientUnits="userSpaceOnUse">
<stop stop-color="#A056FF"/>
<stop offset="1" stop-color="#C59AFD"/>
</linearGradient>
<linearGradient id="paint1_linear_113_547" x1="12.8125" y1="9.5625" x2="9.75241" y2="-0.746587" gradientUnits="userSpaceOnUse">
<stop stop-color="#C59AFD"/>
<stop offset="1" stop-color="white"/>
</linearGradient>
</defs>
</svg>
