<svg width="16" height="16" viewBox="0 0 16 16" fill="none" xmlns="http://www.w3.org/2000/svg">
<path d="M6.22437 8.57152L5.82012 13.1425C5.82012 14.1683 6.65991 15 7.69575 15C8.7315 15 9.57129 14.1683 9.57129 13.1425L9.16704 8.57152C9.16704 7.76676 8.50829 7.11436 7.69575 7.11436C6.88177 7.11436 6.22437 7.76676 6.22437 8.57152Z" fill="url(#paint0_linear_113_571)"/>
<path fill-rule="evenodd" clip-rule="evenodd" d="M6.09914 9.96833L6.22281 8.56998C6.22281 7.76522 6.88021 7.11282 7.69419 7.11282C8.50673 7.11282 9.16548 7.76522 9.16548 8.56998L9.27588 9.81826C8.60515 9.91077 7.61616 9.97137 6.5358 9.97137C6.3883 9.97137 6.24256 9.97035 6.09914 9.96833Z" fill="#8C4FD9"/>
<path d="M6.7335 1.28779C6.6887 1.3321 6.49955 1.49769 6.34248 1.65329C5.35864 2.56068 3.74987 4.93007 3.25756 6.16954C3.179 6.35771 3.01178 6.83361 3 7.08866C3 7.33203 3.05658 7.56456 3.16801 7.78619C3.32425 8.06303 3.57087 8.28383 3.86136 8.40591C4.06234 8.48368 4.66619 8.60581 4.67713 8.60581C5.33671 8.72705 6.40921 8.79314 7.59486 8.79314C8.7231 8.79314 9.75168 8.72705 10.4222 8.62754C10.434 8.6167 11.1831 8.49457 11.4398 8.3616C11.9094 8.11823 12.1999 7.64233 12.1999 7.13302V7.08866C12.1889 6.75663 11.8976 6.05914 11.8874 6.05914C11.3951 4.88576 9.864 2.57241 8.84641 1.6424C8.84641 1.6424 8.58461 1.3798 8.42162 1.26605C8.18688 1.08872 7.89634 1.00006 7.60585 1.00006C7.28156 1.00006 6.98008 1.09962 6.7335 1.28779Z" fill="url(#paint1_linear_113_571)"/>
<defs>
<linearGradient id="paint0_linear_113_571" x1="8.6335" y1="7.67762" x2="4.15246" y2="10.1645" gradientUnits="userSpaceOnUse">
<stop stop-color="#A056FF"/>
<stop offset="1" stop-color="#C59AFD"/>
</linearGradient>
<linearGradient id="paint1_linear_113_571" x1="4.09995" y1="8.21256" x2="12.4124" y2="-0.0999377" gradientUnits="userSpaceOnUse">
<stop offset="0.170254" stop-color="#C59AFD"/>
<stop offset="1" stop-color="white"/>
</linearGradient>
</defs>
</svg>
