<svg width="16" height="16" viewBox="0 0 16 16" fill="none" xmlns="http://www.w3.org/2000/svg">
<g clip-path="url(#clip0_271_43)">
<path opacity="0.5" fill-rule="evenodd" clip-rule="evenodd" d="M3 8C3 6 1.336 5.837 1.276 5.807C0.780999 5.563 0.576999 4.963 0.820999 4.468C2.126 1.822 4.852 0 8 0C12.415 0 16 3.585 16 8C16 12.415 12.415 16 8 16C4.852 16 2.126 14.178 0.820999 11.532C0.576999 11.037 0.780999 10.437 1.276 10.193C1.336 10.163 3 10 3 8ZM1 9C0.448 9 0 8.552 0 8C0 7.448 0.448 7 1 7C1.552 7 2 7.448 2 8C2 8.552 1.552 9 1 9Z" fill="url(#paint0_linear_271_43)"/>
<path fill-rule="evenodd" clip-rule="evenodd" d="M9.39202 8.08322C9.39202 8.67732 8.82275 9.16166 8.1246 9.16166C7.42644 9.16166 6.85718 8.67732 6.85718 8.08322V3.77844C6.85718 3.18438 7.42644 2.70001 8.1246 2.70001C8.82275 2.70001 9.39202 3.18438 9.39202 3.77844V8.08322ZM6.85718 11.7074C6.85718 11.0032 7.42029 10.429 8.11021 10.429C8.82022 10.429 9.38479 11.0032 9.38479 11.7074C9.38479 12.4115 8.82022 12.9857 8.1246 12.9857C7.42606 12.9857 6.85718 12.4115 6.85718 11.7074Z" fill="url(#paint1_linear_271_43)"/>
</g>
<defs>
<linearGradient id="paint0_linear_271_43" x1="1.14286" y1="16" x2="11.7135" y2="0.624479" gradientUnits="userSpaceOnUse">
<stop stop-color="#9BE862"/>
<stop offset="1" stop-color="#C8FF9F"/>
</linearGradient>
<linearGradient id="paint1_linear_271_43" x1="7.03824" y1="12.9857" x2="11.6619" y2="11.3283" gradientUnits="userSpaceOnUse">
<stop stop-color="#9BE862"/>
<stop offset="1" stop-color="#C8FF9F"/>
</linearGradient>
<clipPath id="clip0_271_43">
<rect width="16" height="16" fill="white"/>
</clipPath>
</defs>
</svg>
