<svg width="16" height="16" viewBox="0 0 16 16" fill="none" xmlns="http://www.w3.org/2000/svg">
<path fill-rule="evenodd" clip-rule="evenodd" d="M2.18313 5.54152C1.63179 6.09275 1.25179 6.7918 1.08901 7.55426C0.926227 8.3167 0.987624 9.10995 1.26578 9.8383C1.54394 10.5666 2.02698 11.1989 2.65657 11.6587C3.28616 12.1185 4.03541 12.3863 4.81383 12.4297C4.93268 12.4362 5.04929 12.3953 5.13798 12.316C5.22667 12.2367 5.2802 12.1253 5.28678 12.0064C5.29337 11.8875 5.25248 11.7709 5.17309 11.6823C5.09371 11.5936 4.98234 11.54 4.86349 11.5334C4.25811 11.4996 3.67544 11.2914 3.18581 10.9338C2.69619 10.5762 2.32052 10.0844 2.10419 9.51798C1.88784 8.9516 1.84005 8.33469 1.9666 7.74172C2.09315 7.14874 2.38861 6.60503 2.81732 6.1763L4.5099 4.48373C5.09899 3.89464 5.89796 3.56369 6.73107 3.56369C7.56422 3.56369 8.36313 3.89464 8.95226 4.48373C9.54131 5.07282 9.87227 5.8718 9.87227 6.70488C9.87227 7.53802 9.54131 8.337 8.95226 8.92605L8.10567 9.77201C8.06276 9.81345 8.02867 9.86294 8.00515 9.91775C7.98163 9.97249 7.96931 10.0314 7.96882 10.091C7.96833 10.1506 7.97974 10.2097 8.00235 10.2647C8.02489 10.3199 8.05828 10.37 8.10035 10.4121C8.14249 10.4542 8.19268 10.4875 8.24784 10.51C8.30293 10.5326 8.36208 10.5439 8.42165 10.5433C8.48122 10.5428 8.54009 10.5304 8.59484 10.5069C8.64958 10.4833 8.69907 10.4491 8.74044 10.4062L9.58646 9.56082C10.3438 8.80348 10.7693 7.7763 10.7693 6.70519C10.7693 5.63412 10.3438 4.6069 9.58646 3.84954C8.82906 3.09218 7.80187 2.66669 6.73079 2.66669C5.65968 2.66669 4.63248 3.09218 3.87511 3.84954L2.18313 5.54152Z" stroke="url(#paint0_linear_129_34)" stroke-width="1.6"/>
<path d="M6.36736 10.4456C6.52524 10.8266 6.75664 11.1729 7.04834 11.4646L7.04771 11.464C7.63683 12.053 8.4356 12.3838 9.26861 12.3838C10.1015 12.3838 10.9004 12.053 11.4895 11.464L13.1821 9.77146C13.6107 9.34271 13.9062 8.79909 14.0328 8.20604C14.1593 7.61307 14.1115 6.99616 13.8952 6.42973C13.6788 5.86332 13.3032 5.37163 12.8136 5.014C12.324 4.65638 11.7413 4.44811 11.1359 4.41433C11.0171 4.40774 10.9057 4.35421 10.8263 4.26552C10.7469 4.17683 10.706 4.06023 10.7126 3.94137C10.7192 3.82253 10.7727 3.71116 10.8614 3.63178C10.9053 3.59247 10.9565 3.5622 11.0122 3.54269C11.0678 3.52318 11.1267 3.51483 11.1856 3.51808C11.964 3.56135 12.7133 3.82904 13.3431 4.28882C13.9727 4.74862 14.4558 5.38086 14.7341 6.1092C15.0123 6.83758 15.0737 7.63085 14.911 8.39336C14.7482 9.15588 14.3682 9.85497 13.8169 10.4062L12.1243 12.0982C11.3669 12.8555 10.3397 13.2811 9.26861 13.2811C8.19753 13.2811 7.17035 12.8555 6.41296 12.0982C5.65559 11.3408 5.2301 10.3137 5.2301 9.24254C5.2301 8.17146 5.65559 7.14428 6.41296 6.38691L7.26016 5.54211C7.30125 5.49803 7.35074 5.46266 7.40583 5.43814C7.46085 5.41362 7.52028 5.40043 7.58048 5.39936C7.64075 5.39831 7.7006 5.40938 7.75653 5.43196C7.81239 5.45452 7.86307 5.48812 7.9057 5.53073C7.94833 5.57333 7.98193 5.62409 8.00447 5.67996C8.02708 5.73583 8.03814 5.79568 8.03709 5.85593C8.03597 5.91618 8.02281 5.9756 7.99831 6.03064C7.97374 6.08569 7.93846 6.13522 7.89436 6.1763L7.04834 7.02234C6.75664 7.31396 6.52524 7.66025 6.36736 8.04133C6.20949 8.42249 6.12824 8.83094 6.12824 9.24345C6.12824 9.65596 6.20949 10.0645 6.36736 10.4456Z" stroke="url(#paint1_linear_129_34)" stroke-width="1.6"/>
<defs>
<linearGradient id="paint0_linear_129_34" x1="1.69781" y1="12.4304" x2="8.14703" y2="3.04429" gradientUnits="userSpaceOnUse">
<stop stop-color="#9BE862"/>
<stop offset="1" stop-color="#C8FF9F"/>
</linearGradient>
<linearGradient id="paint1_linear_129_34" x1="6.45133" y1="13.2811" x2="14.7468" y2="6.01792" gradientUnits="userSpaceOnUse">
<stop stop-color="#C8FF9F"/>
<stop offset="1" stop-color="white"/>
</linearGradient>
</defs>
</svg>
