<svg width="16" height="16" viewBox="0 0 16 16" fill="none" xmlns="http://www.w3.org/2000/svg">
<path fill-rule="evenodd" clip-rule="evenodd" d="M2.15841 5.36139L2.88306 7.64584L1.28452 10.7064C1.10606 11.0487 1.00952 11.4247 1.00127 11.8025L1.00063 11.8337C0.981578 12.6745 1.39503 13.4487 2.0949 13.8958C2.78017 14.3334 3.65597 14.4001 4.42762 14.059C7.40686 12.7438 11.6245 10.4403 13.6207 9.55812C14.4412 9.19611 14.9798 8.38954 14.9994 7.51501V7.50739C15.021 6.53188 14.4088 5.67958 13.4809 5.38934C11.0079 4.61452 5.25324 2.55109 5.25324 2.55109C4.78645 2.38406 4.27202 2.62666 4.10435 3.09282C3.93732 3.55962 3.21522 4.08358 2.7427 4.23346C2.27019 4.38334 2.00853 4.88888 2.15841 5.36139ZM2.84813 2.39803C2.84813 2.8934 2.44548 3.29606 1.9501 3.29606C1.45409 3.29669 1.05144 2.89404 1.05208 2.39803C1.05144 1.90202 1.45409 1.49937 1.9501 1.5C2.44548 1.5 2.84813 1.90265 2.84813 2.39803Z" fill="url(#paint0_linear_114_744)"/>
<defs>
<linearGradient id="paint0_linear_114_744" x1="4.5" y1="13.3632" x2="12.8034" y2="2.74765" gradientUnits="userSpaceOnUse">
<stop stop-color="#A056FF"/>
<stop offset="1" stop-color="#C59AFD"/>
</linearGradient>
</defs>
</svg>
