<svg width="16" height="16" viewBox="0 0 16 16" fill="none" xmlns="http://www.w3.org/2000/svg">
<path fill-rule="evenodd" clip-rule="evenodd" d="M16 5.01C16 2.795 14.205 1 11.99 1H4C3.448 1 3 1.448 3 2C3 3.104 2.104 4 1 4C0.448 4 0 4.448 0 5V10.99C0 13.205 1.795 15 4.01 15C6.368 15 9.632 15 11.99 15C14.205 15 16 13.205 16 10.99C16 9.162 16 5.01 16 5.01ZM1 1C0.448 1 0 1.448 0 2C0 2.552 0.448 3 1 3C1.552 3 2 2.552 2 2C2 1.448 1.552 1 1 1Z" fill="url(#paint0_linear_73_3850)"/>
<path fill-rule="evenodd" clip-rule="evenodd" d="M3.82207 8.76283L2.29307 10.2928C1.90307 10.6828 1.90307 11.3168 2.29307 11.7068C2.68307 12.0968 3.31707 12.0968 3.70707 11.7068L5.10007 10.3138C5.64007 10.7528 6.32007 10.9998 7.03007 10.9998H7.03507C7.72807 10.9998 8.39407 10.7648 8.92907 10.3428L10.2931 11.7068C10.6831 12.0968 11.3171 12.0968 11.7071 11.7068C12.0971 11.3168 12.0971 10.6828 11.7071 10.2928L10.2621 8.84783C10.2621 8.84783 8.31507 8.99983 8.00007 8.99983H7.03107C6.69707 8.99983 6.38207 8.84283 6.18207 8.57583L3.80007 5.39983C3.46907 4.95783 2.84207 4.86883 2.40007 5.19983C1.95807 5.53083 1.86907 6.15783 2.20007 6.59983L3.82207 8.76283Z" fill="#8CC860"/>
<path fill-rule="evenodd" clip-rule="evenodd" d="M4.82195 7.76297L3.29295 9.29297C2.90295 9.68297 2.90295 10.317 3.29295 10.707C3.68295 11.097 4.31695 11.097 4.70695 10.707L6.09995 9.31397C6.63995 9.75297 7.31995 9.99997 8.02995 9.99997H8.03495C8.72795 9.99997 9.39395 9.76497 9.92895 9.34297L11.293 10.707C11.683 11.097 12.3169 11.097 12.7069 10.707C13.0969 10.317 13.0969 9.68297 12.7069 9.29297L11.262 7.84797L14.7679 3.63997C15.1219 3.21597 15.0639 2.58497 14.6399 2.23197C14.2159 1.87797 13.585 1.93597 13.232 2.35997L8.84995 7.61797C8.64795 7.85997 8.34995 7.99997 8.03495 7.99997H8.03095C7.69695 7.99997 7.38195 7.84297 7.18195 7.57597L4.79995 4.39997C4.46895 3.95797 3.84195 3.86897 3.39995 4.19997C2.95795 4.53097 2.86895 5.15797 3.19995 5.59997L4.82195 7.76297Z" fill="url(#paint1_linear_73_3850)"/>
<defs>
<linearGradient id="paint0_linear_73_3850" x1="1.14286" y1="15" x2="9.89435" y2="0.452069" gradientUnits="userSpaceOnUse">
<stop stop-color="#9BE862"/>
<stop offset="1" stop-color="#C8FF9F"/>
</linearGradient>
<linearGradient id="paint1_linear_73_3850" x1="4.49998" y1="10.9995" x2="12.1229" y2="2.10553" gradientUnits="userSpaceOnUse">
<stop stop-color="#C8FF9F"/>
<stop offset="1" stop-color="white"/>
</linearGradient>
</defs>
</svg>
