<svg width="16" height="16" viewBox="0 0 16 16" fill="none" xmlns="http://www.w3.org/2000/svg">
<path fill-rule="evenodd" clip-rule="evenodd" d="M14.9235 5.80686C14.9235 3.74089 13.2493 2.06665 11.1833 2.06665H3.73089C3.21602 2.06665 2.79817 2.48451 2.79817 2.99937C2.79817 4.0291 1.96245 4.86482 0.932722 4.86482C0.417859 4.86482 0 5.28267 0 5.79754V11.3845C0 13.4505 1.67424 15.1248 3.74021 15.1248C5.93957 15.1248 8.98398 15.1248 11.1833 15.1248C13.2493 15.1248 14.9235 13.4505 14.9235 11.3845C14.9235 9.67953 14.9235 5.80686 14.9235 5.80686ZM0.932722 2.06665C0.417859 2.06665 0 2.48451 0 2.99937C0 3.51423 0.417859 3.93209 0.932722 3.93209C1.44758 3.93209 1.86544 3.51423 1.86544 2.99937C1.86544 2.48451 1.44758 2.06665 0.932722 2.06665Z" fill="url(#paint0_linear_73_3882)"/>
<path fill-rule="evenodd" clip-rule="evenodd" d="M3.56497 9.30721L2.13884 10.7343C1.77508 11.098 1.77508 11.6894 2.13884 12.0531C2.5026 12.4169 3.09395 12.4169 3.45771 12.0531L4.75699 10.7539C5.26066 11.1633 5.89491 11.3937 6.55715 11.3937H6.56181C7.20818 11.3937 7.82938 11.1745 8.32838 10.7809L9.60062 12.0531C9.96438 12.4169 10.5557 12.4169 10.9195 12.0531C11.2832 11.6894 11.2832 11.098 10.9195 10.7343L9.5717 9.38649C9.5717 9.38649 7.75569 9.52827 7.46189 9.52827H6.55808C6.24655 9.52827 5.95274 9.38183 5.7662 9.13279L3.54445 6.17047C3.23572 5.7582 2.65091 5.67519 2.23864 5.98392C1.82638 6.29265 1.74337 6.87747 2.0521 7.28973L3.56497 9.30721Z" fill="#D84F4F"/>
<path fill-rule="evenodd" clip-rule="evenodd" d="M4.49759 8.37464L3.07146 9.80171C2.7077 10.1655 2.7077 10.7568 3.07146 11.1206C3.43522 11.4843 4.02657 11.4843 4.39033 11.1206L5.68961 9.82129C6.19328 10.2308 6.82753 10.4611 7.48976 10.4611H7.49443C8.1408 10.4611 8.76199 10.242 9.261 9.84834L10.5332 11.1206C10.897 11.4843 11.4883 11.4843 11.8521 11.1206C12.2159 10.7568 12.2159 10.1655 11.8521 9.80171L10.5043 8.45392L13.7744 4.52903C14.1046 4.13356 14.0505 3.54501 13.6551 3.21576C13.2596 2.88557 12.671 2.93967 12.3418 3.33515L8.25459 8.2394C8.06618 8.46512 7.78823 8.5957 7.49443 8.5957H7.49069C7.17917 8.5957 6.88536 8.44926 6.69881 8.20022L4.47707 5.2379C4.16834 4.82564 3.58352 4.74262 3.17126 5.05135C2.759 5.36008 2.67598 5.9449 2.98472 6.35716L4.49759 8.37464Z" fill="url(#paint1_linear_73_3882)"/>
<path opacity="0.7" d="M12.8 6.33331C13.9782 6.33331 14.9333 5.37819 14.9333 4.19998C14.9333 3.02177 13.9782 2.06665 12.8 2.06665C11.6218 2.06665 10.6666 3.02177 10.6666 4.19998C10.6666 5.37819 11.6218 6.33331 12.8 6.33331Z" fill="url(#paint2_linear_73_3882)"/>
<path d="M13.8666 5.26666C15.0448 5.26666 15.9999 4.31154 15.9999 3.13333C15.9999 1.95512 15.0448 1 13.8666 1C12.6884 1 11.7333 1.95512 11.7333 3.13333C11.7333 4.31154 12.6884 5.26666 13.8666 5.26666Z" fill="url(#paint3_linear_73_3882)"/>
<path d="M12.5515 1.4413L11.9 2.20001L15.0866 4.93602L15.738 4.17731L12.5515 1.4413Z" fill="url(#paint4_linear_73_3882)"/>
<defs>
<linearGradient id="paint0_linear_73_3882" x1="14.8793" y1="2.14943" x2="2.02491" y2="16.7179" gradientUnits="userSpaceOnUse">
<stop stop-color="#FE7970"/>
<stop offset="1" stop-color="#DC3282"/>
</linearGradient>
<linearGradient id="paint1_linear_73_3882" x1="8.39448" y1="11.3934" x2="8.39448" y2="2.99945" gradientUnits="userSpaceOnUse">
<stop stop-color="#FD3A84"/>
<stop offset="1" stop-color="#FFA68D"/>
</linearGradient>
<linearGradient id="paint2_linear_73_3882" x1="14.9207" y1="2.0937" x2="10.6877" y2="6.29138" gradientUnits="userSpaceOnUse">
<stop stop-color="#FE7970"/>
<stop offset="1" stop-color="#DC3282"/>
</linearGradient>
<linearGradient id="paint3_linear_73_3882" x1="15.9873" y1="1.02705" x2="11.7544" y2="5.22473" gradientUnits="userSpaceOnUse">
<stop stop-color="#FE7970"/>
<stop offset="1" stop-color="#DC3282"/>
</linearGradient>
<linearGradient id="paint4_linear_73_3882" x1="15.2726" y1="4.71927" x2="15.6372" y2="2.86116" gradientUnits="userSpaceOnUse">
<stop stop-color="#FF8860"/>
<stop offset="1" stop-color="white"/>
</linearGradient>
</defs>
</svg>
