<svg width="16" height="16" viewBox="0 0 16 16" fill="none" xmlns="http://www.w3.org/2000/svg">
<g clip-path="url(#clip0_271_82)">
<path opacity="0.5" fill-rule="evenodd" clip-rule="evenodd" d="M3 8.00002C3 9.99997 1.336 10.163 1.27601 10.193C0.781004 10.437 0.577 11.037 0.820999 11.5321C2.126 14.1781 4.85201 16 8.00002 16C12.415 16 16 12.415 16 8.00002C16 3.585 12.415 0 8.00002 0C4.85201 0 2.126 1.822 0.820999 4.468C0.577 4.96301 0.781004 5.56301 1.27601 5.80701C1.336 5.83701 3 6.00002 3 8.00002ZM1 7.00002C0.448003 7.00002 0 7.44801 0 8.00002C0 8.55202 0.448003 9.00002 1 9.00002C1.552 9.00002 2 8.55202 2 8.00002C2 7.44801 1.552 7.00002 1 7.00002Z" fill="url(#paint0_linear_271_82)"/>
<path d="M5.13318 5.93332C5.13318 5.19694 5.73014 4.59998 6.46652 4.59998C7.2029 4.59998 7.79986 5.19694 7.79986 5.93332V9.93334C7.79986 10.6697 7.2029 11.2667 6.46652 11.2667C5.73014 11.2667 5.13318 10.6697 5.13318 9.93334V5.93332Z" fill="url(#paint1_linear_271_82)"/>
<path d="M9.1333 5.93332C9.1333 5.19694 9.73026 4.59998 10.4666 4.59998C11.203 4.59998 11.8 5.19694 11.8 5.93332V9.93334C11.8 10.6697 11.203 11.2667 10.4666 11.2667C9.73026 11.2667 9.1333 10.6697 9.1333 9.93334V5.93332Z" fill="url(#paint2_linear_271_82)"/>
</g>
<defs>
<linearGradient id="paint0_linear_271_82" x1="3" y1="14.9989" x2="12.9991" y2="2.999" gradientUnits="userSpaceOnUse">
<stop stop-color="#FF8860"/>
<stop offset="1" stop-color="#FBD92C"/>
</linearGradient>
<linearGradient id="paint1_linear_271_82" x1="5.63318" y1="10.8495" x2="8.93826" y2="9.26298" gradientUnits="userSpaceOnUse">
<stop stop-color="#FF8860"/>
<stop offset="1" stop-color="#FBD92C"/>
</linearGradient>
<linearGradient id="paint2_linear_271_82" x1="9.63331" y1="10.8495" x2="12.9384" y2="9.26296" gradientUnits="userSpaceOnUse">
<stop stop-color="#FF8860"/>
<stop offset="1" stop-color="#FBD92C"/>
</linearGradient>
<clipPath id="clip0_271_82">
<rect width="16" height="16" fill="white"/>
</clipPath>
</defs>
</svg>
