<svg width="16" height="16" viewBox="0 0 16 16" fill="none" xmlns="http://www.w3.org/2000/svg">
<g clip-path="url(#clip0_277_2)">
<path opacity="0.5" fill-rule="evenodd" clip-rule="evenodd" d="M3 8.00002C3 9.99997 1.336 10.163 1.27601 10.193C0.781004 10.437 0.577 11.037 0.820999 11.5321C2.126 14.1781 4.85201 16 8.00002 16C12.415 16 16 12.415 16 8.00002C16 3.585 12.415 0 8.00002 0C4.85201 0 2.126 1.822 0.820999 4.468C0.577 4.96301 0.781004 5.56301 1.27601 5.80701C1.336 5.83701 3 6.00002 3 8.00002ZM1 7.00002C0.448003 7.00002 0 7.44801 0 8.00002C0 8.55202 0.448003 9.00002 1 9.00002C1.552 9.00002 2 8.55202 2 8.00002C2 7.44801 1.552 7.00002 1 7.00002Z" fill="url(#paint0_linear_277_2)"/>
<path d="M6.85595 10.4468C6.64878 10.5908 6.43699 10.728 6.22095 10.8583C5.35184 11.3864 4.91769 11.6504 4.52809 11.358C4.1393 11.0664 4.10366 10.4541 4.03239 9.2294C4.01295 8.88356 4 8.54417 4 8.23961C4 7.93505 4.01295 7.59566 4.03239 7.24983C4.10366 6.02514 4.1393 5.41358 4.52809 5.12117C4.91769 4.82879 5.35265 5.09282 6.22095 5.62096C6.4461 5.75783 6.664 5.89713 6.85595 6.03243C7.07466 6.18631 7.31362 6.37101 7.55416 6.567C8.42489 7.27737 8.85985 7.63214 8.85985 8.23961C8.85985 8.84708 8.42489 9.20186 7.55416 9.91222C7.31362 10.1082 7.07547 10.2929 6.85595 10.4468Z" fill="url(#paint1_linear_277_2)"/>
<path d="M10.8849 10.4468C10.6777 10.5908 10.466 10.728 10.2499 10.8583C9.38079 11.3864 8.94663 11.6504 8.55702 11.358C8.16827 11.0664 8.13259 10.4541 8.06132 9.2294C8.04189 8.88356 8.02893 8.54417 8.02893 8.23961C8.02893 7.93505 8.04189 7.59566 8.06132 7.24983C8.13259 6.02514 8.16827 5.41358 8.55702 5.12117C8.94663 4.82879 9.3816 5.09282 10.2499 5.62096C10.4751 5.75783 10.693 5.89713 10.8849 6.03243C11.1036 6.18631 11.3426 6.37101 11.5831 6.567C12.4539 7.27737 12.8888 7.63214 12.8888 8.23961C12.8888 8.84708 12.4539 9.20186 11.5831 9.91222C11.3426 10.1082 11.1044 10.2929 10.8849 10.4468Z" fill="url(#paint2_linear_277_2)"/>
</g>
<defs>
<linearGradient id="paint0_linear_277_2" x1="3" y1="14.9988" x2="12.9991" y2="2.99901" gradientUnits="userSpaceOnUse">
<stop stop-color="#FF8860"/>
<stop offset="1" stop-color="#FBD92C"/>
</linearGradient>
<linearGradient id="paint1_linear_277_2" x1="4.91122" y1="11.0738" x2="9.00521" y2="7.38854" gradientUnits="userSpaceOnUse">
<stop stop-color="#FF8860"/>
<stop offset="1" stop-color="#FBD92C"/>
</linearGradient>
<linearGradient id="paint2_linear_277_2" x1="8.94015" y1="11.0738" x2="13.0341" y2="7.38853" gradientUnits="userSpaceOnUse">
<stop stop-color="#FF8860"/>
<stop offset="1" stop-color="#FBD92C"/>
</linearGradient>
<clipPath id="clip0_277_2">
<rect width="16" height="16" fill="white"/>
</clipPath>
</defs>
</svg>
