<svg width="16" height="16" viewBox="0 0 16 16" fill="none" xmlns="http://www.w3.org/2000/svg">
<path d="M16.0001 12.1945V5.03444C16.0001 4.32233 15.6518 3.63938 15.0321 3.13584C14.4124 2.63231 13.5718 2.34943 12.6954 2.34943C12.5493 2.34943 12.4092 2.39658 12.306 2.48049C12.2026 2.56441 12.1447 2.67824 12.1447 2.79693V14.432C12.1447 14.5507 12.2026 14.6645 12.306 14.7484C12.4092 14.8324 12.5493 14.8795 12.6954 14.8795C13.5718 14.8795 14.4124 14.5967 15.0321 14.0931C15.6518 13.5895 16.0001 12.9066 16.0001 12.1945Z" fill="url(#paint0_linear_73_3900)"/>
<path d="M0 12.1945V5.03444C0 4.32233 0.348165 3.63938 0.967908 3.13584C1.58764 2.63231 2.42819 2.34943 3.30463 2.34943C3.4507 2.34943 3.5908 2.39658 3.69408 2.48049C3.79738 2.56441 3.8554 2.67824 3.8554 2.79693V14.432C3.8554 14.5507 3.79738 14.6645 3.69408 14.7484C3.5908 14.8324 3.4507 14.8795 3.30463 14.8795C2.42819 14.8795 1.58764 14.5967 0.967908 14.0931C0.348165 13.5895 0 12.9066 0 12.1945Z" fill="url(#paint1_linear_73_3900)"/>
<path fill-rule="evenodd" clip-rule="evenodd" d="M2.29056 14.7533C2.18176 14.1519 2.18176 13.3465 2.18176 12.2278V5.86638C2.18176 4.02672 2.18176 3.03421 2.66558 2.40339C2.87455 2.36992 3.08848 2.35272 3.30459 2.35272C3.45066 2.35272 3.59075 2.39987 3.69404 2.48379C3.79733 2.56771 3.85535 2.68154 3.85535 2.80023V14.4353C3.85535 14.554 3.79733 14.6678 3.69404 14.7517C3.59075 14.8357 3.45066 14.8828 3.30459 14.8828C2.95709 14.8828 2.61524 14.8383 2.29056 14.7533Z" fill="#DA5CDB"/>
<path d="M7.56626 15.8433C5.56665 15.8433 4.56791 15.8433 3.94661 15.222C3.32532 14.6007 3.32532 13.602 3.32532 11.6023V5.24095C3.32532 3.24134 3.32532 2.2426 3.94661 1.6213C4.56791 1 5.56665 1 7.56626 1H8.62647C10.6261 1 11.6249 1 12.2462 1.6213C12.8674 2.2426 12.8674 3.24134 12.8674 5.24095V11.6023C12.8674 13.602 12.8674 14.6007 12.2462 15.222C11.6249 15.8433 10.6261 15.8433 8.62647 15.8433H7.56626Z" fill="url(#paint2_linear_73_3900)"/>
<path fill-rule="evenodd" clip-rule="evenodd" d="M8.98174 5.67269C8.98174 5.51356 8.91854 5.36095 8.80603 5.24843C8.69352 5.13591 8.54087 5.07269 8.38174 5.07269C8.22262 5.07269 8.07003 5.13591 7.95753 5.24843C7.84502 5.36095 7.78175 5.51356 7.78175 5.67269V8.51268C7.35477 8.29479 6.86822 8.22228 6.39623 8.30628C5.92427 8.39035 5.49264 8.6262 5.16705 8.97805C4.84145 9.32998 4.63969 9.77856 4.59248 10.2556C4.54527 10.7327 4.65519 11.2122 4.90551 11.621C5.15584 12.0298 5.53286 12.3457 5.97923 12.5207C6.42561 12.6955 6.91688 12.7199 7.37833 12.5898C7.83978 12.4599 8.24611 12.1827 8.53556 11.8005C8.82501 11.4183 8.98167 10.9521 8.98174 10.4727V7.63268C9.28174 7.78628 9.62174 7.87268 9.98173 7.87268C10.1409 7.87268 10.2935 7.80948 10.406 7.69697C10.5185 7.58439 10.5817 7.43181 10.5817 7.27268C10.5817 7.11356 10.5185 6.96095 10.406 6.84842C10.2935 6.7359 10.1409 6.67268 9.98173 6.67268C9.42974 6.67268 8.98174 6.22469 8.98174 5.67269Z" fill="#DA5CDB"/>
<path fill-rule="evenodd" clip-rule="evenodd" d="M9.70903 4.94539C9.70903 4.78627 9.64583 4.63365 9.53333 4.52114C9.42082 4.40861 9.26816 4.3454 9.10904 4.3454C8.94991 4.3454 8.79733 4.40861 8.68482 4.52114C8.57231 4.63365 8.50904 4.78627 8.50904 4.94539V7.78538C8.08206 7.56749 7.59552 7.49498 7.12352 7.57898C6.65157 7.66305 6.21994 7.89891 5.89434 8.25076C5.56874 8.60269 5.36698 9.05126 5.31978 9.52835C5.27257 10.0054 5.38249 10.4849 5.63281 10.8937C5.88313 11.3025 6.26016 11.6185 6.70653 11.7934C7.1529 11.9682 7.64417 11.9926 8.10562 11.8625C8.56708 11.7326 8.9734 11.4554 9.26286 11.0732C9.55231 10.691 9.70896 10.2248 9.70903 9.74537V6.90538C10.009 7.05898 10.349 7.14538 10.709 7.14538C10.8682 7.14538 11.0208 7.08218 11.1333 6.96968C11.2458 6.85709 11.309 6.70451 11.309 6.54539C11.309 6.38626 11.2458 6.23365 11.1333 6.12113C11.0208 6.0086 10.8682 5.94539 10.709 5.94539C10.157 5.94539 9.70903 5.49739 9.70903 4.94539Z" fill="url(#paint3_linear_73_3900)"/>
<defs>
<linearGradient id="paint0_linear_73_3900" x1="12.42" y1="13.9156" x2="18.1111" y2="12.4251" gradientUnits="userSpaceOnUse">
<stop stop-color="#FE5AFF"/>
<stop offset="1" stop-color="#FE9EFF"/>
</linearGradient>
<linearGradient id="paint1_linear_73_3900" x1="0.275386" y1="13.9156" x2="5.96645" y2="12.4251" gradientUnits="userSpaceOnUse">
<stop stop-color="#FE5AFF"/>
<stop offset="1" stop-color="#FE9EFF"/>
</linearGradient>
<linearGradient id="paint2_linear_73_3900" x1="4.00689" y1="14.7015" x2="15.5902" y2="8.36321" gradientUnits="userSpaceOnUse">
<stop stop-color="#FE5AFF"/>
<stop offset="1" stop-color="#FE9EFF"/>
</linearGradient>
<linearGradient id="paint3_linear_73_3900" x1="5.30908" y1="11.9447" x2="7.02486" y2="3.47756" gradientUnits="userSpaceOnUse">
<stop stop-color="#FE9EFF"/>
<stop offset="1" stop-color="white"/>
</linearGradient>
</defs>
</svg>
