<svg width="16" height="16" viewBox="0 0 16 16" fill="none" xmlns="http://www.w3.org/2000/svg">
<g clip-path="url(#clip0_277_14)">
<path opacity="0.5" fill-rule="evenodd" clip-rule="evenodd" d="M3 8.00002C3 9.99997 1.336 10.163 1.27601 10.193C0.781004 10.437 0.577 11.037 0.820999 11.5321C2.126 14.1781 4.85201 16 8.00002 16C12.415 16 16 12.415 16 8.00002C16 3.585 12.415 0 8.00002 0C4.85201 0 2.126 1.822 0.820999 4.468C0.577 4.96301 0.781004 5.56301 1.27601 5.80701C1.336 5.83701 3 6.00002 3 8.00002ZM1 7.00002C0.448003 7.00002 0 7.44801 0 8.00002C0 8.55202 0.448003 9.00002 1 9.00002C1.552 9.00002 2 8.55202 2 8.00002C2 7.44801 1.552 7.00002 1 7.00002Z" fill="url(#paint0_linear_277_14)"/>
<path d="M10.0329 5.8324C10.2401 5.68845 10.4519 5.55122 10.6679 5.42093C11.537 4.89282 11.9712 4.62877 12.3608 4.92117C12.7496 5.21276 12.7852 5.82511 12.8565 7.0498C12.8759 7.39564 12.8889 7.73503 12.8889 8.03959C12.8889 8.34416 12.8759 8.68354 12.8565 9.02937C12.7852 10.2541 12.7496 10.8656 12.3608 11.158C11.9712 11.4504 11.5362 11.1864 10.6679 10.6583C10.4428 10.5214 10.2249 10.3821 10.0329 10.2468C9.81423 10.0929 9.57527 9.9082 9.33473 9.7122C8.464 9.00184 8.02905 8.64706 8.02905 8.03959C8.02905 7.43213 8.464 7.07734 9.33473 6.36699C9.57527 6.17097 9.81342 5.98629 10.0329 5.8324Z" fill="url(#paint1_linear_277_14)"/>
<path d="M6.00389 5.8324C6.21109 5.68845 6.42287 5.55122 6.63892 5.42093C7.50802 4.89282 7.94219 4.62877 8.33179 4.92117C8.72055 5.21276 8.75622 5.82511 8.82749 7.0498C8.84693 7.39564 8.85989 7.73503 8.85989 8.03959C8.85989 8.34416 8.84693 8.68354 8.82749 9.02937C8.75622 10.2541 8.72055 10.8656 8.33179 11.158C7.94219 11.4504 7.50721 11.1864 6.63892 10.6583C6.41374 10.5214 6.19586 10.3821 6.00389 10.2468C5.7852 10.0929 5.54625 9.9082 5.30569 9.7122C4.43496 9.00184 4 8.64706 4 8.03959C4 7.43213 4.43496 7.07734 5.30569 6.36699C5.54625 6.17097 5.78439 5.98629 6.00389 5.8324Z" fill="url(#paint2_linear_277_14)"/>
</g>
<defs>
<linearGradient id="paint0_linear_277_14" x1="3" y1="14.9988" x2="12.9991" y2="2.99901" gradientUnits="userSpaceOnUse">
<stop stop-color="#FF8860"/>
<stop offset="1" stop-color="#FBD92C"/>
</linearGradient>
<linearGradient id="paint1_linear_277_14" x1="8.94028" y1="10.8738" x2="13.0343" y2="7.18851" gradientUnits="userSpaceOnUse">
<stop stop-color="#FF8860"/>
<stop offset="1" stop-color="#FBD92C"/>
</linearGradient>
<linearGradient id="paint2_linear_277_14" x1="4.91123" y1="10.8738" x2="9.00523" y2="7.18849" gradientUnits="userSpaceOnUse">
<stop stop-color="#FF8860"/>
<stop offset="1" stop-color="#FBD92C"/>
</linearGradient>
<clipPath id="clip0_277_14">
<rect width="16" height="16" fill="white"/>
</clipPath>
</defs>
</svg>
