<svg width="16" height="16" viewBox="0 0 16 16" fill="none" xmlns="http://www.w3.org/2000/svg">
<path d="M1 13.0956C1 12.2675 1.67187 11.5955 2.5 11.5955H13.5C14.3282 11.5955 15 12.2675 15 13.0956C15 13.9238 14.3282 14.5957 13.5 14.5957H2.5C1.67187 14.5957 1 13.9238 1 13.0956Z" fill="url(#paint0_linear_73_3911)"/>
<path d="M3.42108 5.02092C3.13223 5.43666 2.85688 5.86164 2.59544 6.29512C1.53576 8.03905 1.00592 8.91021 1.59264 9.69196C2.17774 10.4721 3.40645 10.5436 5.86388 10.6866C6.55783 10.7256 7.23883 10.7516 7.84997 10.7516C8.46106 10.7516 9.14206 10.7256 9.83601 10.6866C12.2935 10.5436 13.5206 10.4721 14.1072 9.69196C14.6939 8.91021 14.1641 8.03745 13.1044 6.29512C12.8297 5.84329 12.5503 5.40611 12.2788 5.02092C11.97 4.5821 11.5994 4.10265 11.2062 3.61994C9.7808 1.87277 9.06891 1 7.84997 1C6.63098 1 5.91914 1.87277 4.49376 3.61994C4.10044 4.10265 3.72988 4.58047 3.42108 5.02092Z" fill="url(#paint1_linear_73_3911)"/>
<defs>
<linearGradient id="paint0_linear_73_3911" x1="3.625" y1="14.2206" x2="4.28485" y2="10.5258" gradientUnits="userSpaceOnUse">
<stop stop-color="#FF405B"/>
<stop offset="1" stop-color="#FF8860"/>
</linearGradient>
<linearGradient id="paint1_linear_73_3911" x1="3.78715" y1="9.53269" x2="9.35715" y2="0.621564" gradientUnits="userSpaceOnUse">
<stop stop-color="#FF405B"/>
<stop offset="1" stop-color="#FF8860"/>
</linearGradient>
</defs>
</svg>
