<svg width="16" height="16" viewBox="0 0 16 16" fill="none" xmlns="http://www.w3.org/2000/svg">
<g clip-path="url(#clip0_277_8)">
<path opacity="0.5" fill-rule="evenodd" clip-rule="evenodd" d="M3 8.00002C3 9.99997 1.336 10.163 1.27601 10.193C0.781004 10.437 0.577 11.037 0.820999 11.5321C2.126 14.1781 4.85201 16 8.00002 16C12.415 16 16 12.415 16 8.00002C16 3.585 12.415 0 8.00002 0C4.85201 0 2.126 1.822 0.820999 4.468C0.577 4.96301 0.781004 5.56301 1.27601 5.80701C1.336 5.83701 3 6.00002 3 8.00002ZM1 7.00002C0.448003 7.00002 0 7.44801 0 8.00002C0 8.55202 0.448003 9.00002 1 9.00002C1.552 9.00002 2 8.55202 2 8.00002C2 7.44801 1.552 7.00002 1 7.00002Z" fill="url(#paint0_linear_277_8)"/>
<path d="M4.5 4.5296C4.5 4.43953 4.56163 4.35315 4.67132 4.28947C4.781 4.22578 4.92976 4.19 5.08489 4.19C5.23998 4.19 5.38874 4.22578 5.49843 4.28947C5.60811 4.35315 5.66974 4.43953 5.66974 4.5296V10.8687C5.66974 10.9588 5.60811 11.0452 5.49843 11.1089C5.38874 11.1726 5.23998 11.2084 5.08489 11.2084C4.92976 11.2084 4.781 11.1726 4.67132 11.1089C4.56163 11.0452 4.5 10.9588 4.5 10.8687V4.5296Z" fill="url(#paint1_linear_277_8)"/>
<path d="M9.05474 5.04539C9.3047 4.87175 9.56017 4.70621 9.82077 4.54903C10.8692 3.91197 11.3929 3.59344 11.8629 3.94617C12.3319 4.29792 12.3749 5.03659 12.4609 6.51394C12.4843 6.93115 12.4999 7.34055 12.4999 7.70794C12.4999 8.07532 12.4843 8.48473 12.4609 8.90195C12.3749 10.3793 12.3319 11.117 11.8629 11.4697C11.3929 11.8225 10.8682 11.5039 9.82077 10.8669C9.54915 10.7017 9.28631 10.5336 9.05474 10.3705C8.79093 10.1848 8.50271 9.96208 8.21252 9.72563C7.16215 8.86871 6.63745 8.44074 6.63745 7.70794C6.63745 6.97514 7.16215 6.54717 8.21252 5.69026C8.50271 5.45381 8.78997 5.23103 9.05474 5.04539Z" fill="url(#paint2_linear_277_8)"/>
</g>
<defs>
<linearGradient id="paint0_linear_277_8" x1="4" y1="14.8572" x2="14.5883" y2="2.50422" gradientUnits="userSpaceOnUse">
<stop stop-color="#A056FF"/>
<stop offset="1" stop-color="#C59AFD"/>
</linearGradient>
<linearGradient id="paint1_linear_277_8" x1="4.79244" y1="10.7071" x2="6.55357" y2="10.3646" gradientUnits="userSpaceOnUse">
<stop stop-color="#A056FF"/>
<stop offset="1" stop-color="#C59AFD"/>
</linearGradient>
<linearGradient id="paint2_linear_277_8" x1="8.10306" y1="11.0576" x2="13.2907" y2="6.51807" gradientUnits="userSpaceOnUse">
<stop stop-color="#A056FF"/>
<stop offset="1" stop-color="#C59AFD"/>
</linearGradient>
<clipPath id="clip0_277_8">
<rect width="16" height="16" fill="white"/>
</clipPath>
</defs>
</svg>
