<svg width="16" height="16" viewBox="0 0 16 16" fill="none" xmlns="http://www.w3.org/2000/svg">
<g clip-path="url(#clip0_277_20)">
<path opacity="0.5" fill-rule="evenodd" clip-rule="evenodd" d="M3 8.00002C3 9.99997 1.336 10.163 1.27601 10.193C0.781004 10.437 0.577 11.037 0.820999 11.5321C2.126 14.1781 4.85201 16 8.00002 16C12.415 16 16 12.415 16 8.00002C16 3.585 12.415 0 8.00002 0C4.85201 0 2.126 1.822 0.820999 4.468C0.577 4.96301 0.781004 5.56301 1.27601 5.80701C1.336 5.83701 3 6.00002 3 8.00002ZM1 7.00002C0.448003 7.00002 0 7.44801 0 8.00002C0 8.55202 0.448003 9.00002 1 9.00002C1.552 9.00002 2 8.55202 2 8.00002C2 7.44801 1.552 7.00002 1 7.00002Z" fill="url(#paint0_linear_277_20)"/>
<path d="M12.5999 11.0863C12.5999 11.1764 12.5383 11.2627 12.4286 11.3264C12.3189 11.3901 12.1702 11.4259 12.0151 11.4259C11.86 11.4259 11.7112 11.3901 11.6015 11.3264C11.4918 11.2627 11.4302 11.1764 11.4302 11.0863V4.74715C11.4302 4.65708 11.4918 4.5707 11.6015 4.50702C11.7112 4.44333 11.86 4.40753 12.0151 4.40753C12.1702 4.40753 12.3189 4.44333 12.4286 4.50702C12.5383 4.5707 12.5999 4.65708 12.5999 4.74715V11.0863Z" fill="url(#paint1_linear_277_20)"/>
<path d="M8.04519 10.5705C7.79523 10.7441 7.53976 10.9097 7.27916 11.0668C6.23075 11.7039 5.70701 12.0224 5.23705 11.6697C4.76802 11.318 4.72503 10.5793 4.63906 9.10194C4.61561 8.68474 4.59998 8.27533 4.59998 7.90795C4.59998 7.54056 4.61561 7.13116 4.63906 6.71394C4.72503 5.23659 4.76802 4.49891 5.23705 4.14619C5.70701 3.79344 6.23172 4.11199 7.27916 4.74902C7.55078 4.91416 7.81362 5.08224 8.04519 5.24541C8.309 5.43105 8.59722 5.65381 8.88741 5.89026C9.93778 6.74718 10.4625 7.17515 10.4625 7.90795C10.4625 8.64075 9.93778 9.06872 8.88741 9.92562C8.59722 10.1621 8.30996 10.3848 8.04519 10.5705Z" fill="url(#paint2_linear_277_20)"/>
</g>
<defs>
<linearGradient id="paint0_linear_277_20" x1="4" y1="14.8572" x2="14.5883" y2="2.50422" gradientUnits="userSpaceOnUse">
<stop stop-color="#A056FF"/>
<stop offset="1" stop-color="#C59AFD"/>
</linearGradient>
<linearGradient id="paint1_linear_277_20" x1="11.7226" y1="10.9246" x2="13.4837" y2="10.5822" gradientUnits="userSpaceOnUse">
<stop stop-color="#A056FF"/>
<stop offset="1" stop-color="#C59AFD"/>
</linearGradient>
<linearGradient id="paint2_linear_277_20" x1="6.0656" y1="11.2576" x2="11.2532" y2="6.718" gradientUnits="userSpaceOnUse">
<stop stop-color="#A056FF"/>
<stop offset="1" stop-color="#C59AFD"/>
</linearGradient>
<clipPath id="clip0_277_20">
<rect width="16" height="16" fill="white"/>
</clipPath>
</defs>
</svg>
