<svg width="16" height="16" viewBox="0 0 16 16" fill="none" xmlns="http://www.w3.org/2000/svg">
<path fill-rule="evenodd" clip-rule="evenodd" d="M16 15C16 14.448 15.552 14 15 14C14.448 14 14 14.448 14 15C14 15.552 14.448 16 15 16C15.552 16 16 15.552 16 15ZM13 15C13 13.896 13.896 13 15 13C15.552 13 16 12.552 16 12C16 12 16 7.216 16 3.958C16 1.772 14.228 0 12.0419 0H3.958C1.772 0 0 1.772 0 3.958V12.0419C0 14.228 1.772 16 3.958 16C7.216 16 12 16 12 16C12.552 16 13 15.552 13 15Z" fill="url(#paint0_linear_73_4357)"/>
<path d="M9.10904 4.99999H4.38177C3.72941 4.99999 3.19995 4.47053 3.19995 3.81817C3.19995 3.16581 3.72941 2.63635 4.38177 2.63635H9.10904C9.76141 2.63635 10.2909 3.16581 10.2909 3.81817C10.2909 4.47053 9.76141 4.99999 9.10904 4.99999Z" fill="#D49F34"/>
<path fill-rule="evenodd" clip-rule="evenodd" d="M5.56365 3.81823H10.2909C10.9433 3.81823 11.4727 3.28877 11.4727 2.63641C11.4727 1.98404 10.9433 1.45459 10.2909 1.45459H5.56365C4.91129 1.45459 4.38184 1.98404 4.38184 2.63641C4.38184 3.28877 4.91129 3.81823 5.56365 3.81823Z" fill="url(#paint1_linear_73_4357)"/>
<path fill-rule="evenodd" clip-rule="evenodd" d="M5.5636 10.4198L5.21732 10.0735C4.75641 9.61259 4.00715 9.61259 3.54624 10.0735C3.08533 10.5344 3.08533 11.2837 3.54624 11.7446L5.90988 14.1082C6.37079 14.5702 7.12005 14.5702 7.58096 14.1082L9.94459 11.7446C10.4055 11.2837 10.4055 10.5344 9.94459 10.0735C9.48368 9.61259 8.73442 9.61259 8.27352 10.0735L7.92724 10.4198V7.36358C7.92724 6.71122 7.39778 6.18176 6.74542 6.18176C6.09305 6.18176 5.5636 6.71122 5.5636 7.36358V10.4198Z" fill="#D49F34"/>
<path fill-rule="evenodd" clip-rule="evenodd" d="M6.74548 9.238L6.39922 8.89173C5.93831 8.43083 5.18904 8.43083 4.72813 8.89173C4.26722 9.35264 4.26722 10.1019 4.72813 10.5628L7.09176 12.9265C7.55267 13.3885 8.30195 13.3885 8.76286 12.9265L11.1265 10.5628C11.5874 10.1019 11.5874 9.35264 11.1265 8.89173C10.6655 8.43083 9.91631 8.43083 9.4554 8.89173L9.10912 9.238V6.18182C9.10912 5.52945 8.57967 5 7.9273 5C7.27494 5 6.74548 5.52945 6.74548 6.18182V9.238Z" fill="url(#paint2_linear_73_4357)"/>
<defs>
<linearGradient id="paint0_linear_73_4357" x1="3" y1="14.9988" x2="12.9991" y2="2.999" gradientUnits="userSpaceOnUse">
<stop stop-color="#FF8860"/>
<stop offset="1" stop-color="#FBD92C"/>
</linearGradient>
<linearGradient id="paint1_linear_73_4357" x1="6.15456" y1="3.22732" x2="6.86365" y2="1.10004" gradientUnits="userSpaceOnUse">
<stop stop-color="#FBD92C"/>
<stop offset="1" stop-color="white"/>
</linearGradient>
<linearGradient id="paint2_linear_73_4357" x1="6.15487" y1="11.2048" x2="10.2426" y2="7.70173" gradientUnits="userSpaceOnUse">
<stop stop-color="#FBD92C"/>
<stop offset="1" stop-color="white"/>
</linearGradient>
</defs>
</svg>
