<svg width="16" height="16" viewBox="0 0 16 16" fill="none" xmlns="http://www.w3.org/2000/svg">
<path d="M13.8333 1C14.4777 1 15 1.52234 15 2.16667V13.8333C15 14.4777 14.4777 15 13.8333 15H2.16667C1.52234 15 1 14.4777 1 13.8333V2.16667C1 1.52234 1.52234 1 2.16667 1H13.8333Z" fill="url(#paint0_linear_114_729)"/>
<path d="M6.01676 5.67083C6.24454 5.44305 6.61384 5.44305 6.84162 5.67083C7.0694 5.89861 7.0694 6.26792 6.84162 6.4957L4.99145 8.34587C4.53584 8.80149 4.53584 9.54018 4.99145 9.9958L6.84162 11.846C7.0694 12.0737 7.0694 12.4431 6.84162 12.6708C6.61384 12.8986 6.24454 12.8986 6.01676 12.6708L3.34171 9.9958C2.8861 9.54018 2.8861 8.80149 3.34171 8.34587L6.01676 5.67083Z" fill="#8C4FD9" stroke="#8C4FD9" stroke-width="0.6"/>
<path d="M7.01676 4.67083C7.24454 4.44305 7.61384 4.44305 7.84162 4.67083C8.0694 4.89861 8.0694 5.26792 7.84162 5.4957L5.99145 7.34587C5.53584 7.80149 5.53584 8.54018 5.99145 8.9958L7.84162 10.846C8.0694 11.0737 8.0694 11.4431 7.84162 11.6708C7.61384 11.8986 7.24454 11.8986 7.01676 11.6708L4.34171 8.9958C3.8861 8.54018 3.8861 7.80149 4.34171 7.34587L7.01676 4.67083Z" fill="url(#paint1_linear_114_729)" stroke="url(#paint2_linear_114_729)" stroke-width="0.6"/>
<defs>
<linearGradient id="paint0_linear_114_729" x1="4.5" y1="14" x2="13.7647" y2="3.19118" gradientUnits="userSpaceOnUse">
<stop stop-color="#A056FF"/>
<stop offset="1" stop-color="#C59AFD"/>
</linearGradient>
<linearGradient id="paint1_linear_114_729" x1="5.00311" y1="11.8416" x2="9.21031" y2="11.0752" gradientUnits="userSpaceOnUse">
<stop stop-color="#C59AFD"/>
<stop offset="1" stop-color="white"/>
</linearGradient>
<linearGradient id="paint2_linear_114_729" x1="5.00311" y1="11.8416" x2="9.21031" y2="11.0752" gradientUnits="userSpaceOnUse">
<stop stop-color="#C59AFD"/>
<stop offset="1" stop-color="white"/>
</linearGradient>
</defs>
</svg>
