<svg width="16" height="16" viewBox="0 0 16 16" fill="none" xmlns="http://www.w3.org/2000/svg">
<path d="M14.19 6.7945C13.8135 6.68492 13.4894 6.3772 13.4894 5.98516V4.18438C13.4894 3.26131 12.7387 2.51063 11.8156 2.51063H10.0149C9.62282 2.51063 9.3151 2.18644 9.20551 1.81002C8.90148 0.765588 7.93552 0 6.79438 0C5.65323 0 4.68727 0.765588 4.38323 1.81002C4.27365 2.18644 3.96593 2.51063 3.5739 2.51063H1.77312C0.850046 2.51063 0.0993652 3.26131 0.0993652 4.18438V6.82203C0.0993652 7.21407 0.417179 7.53188 0.809216 7.53188H0.936236C1.38015 7.53188 1.80587 7.70822 2.11977 8.02212C2.43365 8.336 2.60999 8.76172 2.60999 9.20564C2.60999 9.64955 2.43365 10.0753 2.11977 10.3892C1.80587 10.7031 1.38015 10.8794 0.936236 10.8794H0.809216C0.417179 10.8794 0.0993652 11.1972 0.0993652 11.5892V14.227C0.0993652 15.1499 0.850046 15.9006 1.77312 15.9006H4.41077C4.8028 15.9006 5.12062 15.5828 5.12062 15.1908V15.0637C5.12062 14.6198 5.29696 14.1942 5.61086 13.8803C5.92474 13.5664 6.35046 13.39 6.79438 13.39C7.23829 13.39 7.66401 13.5664 7.97789 13.8803C8.29179 14.1942 8.46813 14.6198 8.46813 15.0637V15.1908C8.46813 15.5828 8.78593 15.9006 9.17798 15.9006H11.8156C12.7387 15.9006 13.4894 15.1499 13.4894 14.227V12.4261C13.4894 12.0341 13.8135 11.7264 14.19 11.6168C15.2344 11.3127 16 10.3468 16 9.20564C16 8.0645 15.2344 7.09853 14.19 6.7945Z" fill="url(#paint0_linear_92_414)"/>
<path fill-rule="evenodd" clip-rule="evenodd" d="M12.1165 9.60324C12.2586 9.67876 12.3683 9.79802 12.4455 9.91727C12.5958 10.1637 12.5836 10.4658 12.4374 10.7322L12.153 11.2092C12.0027 11.4636 11.7224 11.6226 11.4339 11.6226C11.2918 11.6226 11.1333 11.5829 11.0034 11.5034C10.8978 11.4358 10.7759 11.4119 10.6458 11.4119C10.2437 11.4119 9.9065 11.7419 9.89431 12.1354C9.89431 12.5926 9.52056 12.9503 9.05338 12.9503H8.50089C8.02965 12.9503 7.6559 12.5926 7.6559 12.1354C7.64778 11.7419 7.3106 11.4119 6.90841 11.4119C6.77435 11.4119 6.65248 11.4358 6.55092 11.5034C6.42092 11.5829 6.25842 11.6226 6.1203 11.6226C5.8278 11.6226 5.54749 11.4636 5.39718 11.2092L5.11688 10.7322C4.96657 10.4738 4.95844 10.1637 5.10875 9.91727C5.17375 9.79802 5.29562 9.67876 5.43375 9.60324C5.54749 9.54758 5.62062 9.45616 5.68967 9.34883C5.8928 9.00696 5.77093 8.55777 5.42562 8.35504C5.02344 8.12845 4.89344 7.62361 5.125 7.23007L5.39718 6.761C5.6328 6.36746 6.13654 6.22833 6.54279 6.45888C6.89622 6.64969 7.35528 6.52249 7.56246 6.1846C7.62747 6.07329 7.66402 5.95404 7.6559 5.83478C7.64778 5.67975 7.69246 5.53267 7.76965 5.41342C7.91996 5.16696 8.19215 5.00795 8.48871 5H9.0615C9.36213 5 9.63431 5.16696 9.78462 5.41342C9.85774 5.53267 9.9065 5.67975 9.89431 5.83478C9.88619 5.95404 9.92275 6.07329 9.98774 6.1846C10.1949 6.52249 10.654 6.64969 11.0114 6.45888C11.4137 6.22833 11.9215 6.36746 12.153 6.761L12.4252 7.23007C12.6609 7.62361 12.5308 8.12845 12.1246 8.35504C11.7793 8.55777 11.6574 9.00696 11.8646 9.34883C11.9296 9.45616 12.0027 9.54758 12.1165 9.60324ZM7.62748 8.97914C7.62748 9.60324 8.14342 10.1001 8.78122 10.1001C9.41902 10.1001 9.92276 9.60324 9.92276 8.97914C9.92276 8.35504 9.41902 7.85417 8.78122 7.85417C8.14342 7.85417 7.62748 8.35504 7.62748 8.97914Z" fill="#8CC860"/>
<path fill-rule="evenodd" clip-rule="evenodd" d="M13.1165 8.60324C13.2586 8.67876 13.3683 8.79802 13.4455 8.91727C13.5958 9.16373 13.5836 9.46585 13.4374 9.73218L13.153 10.2092C13.0027 10.4636 12.7224 10.6226 12.4339 10.6226C12.2918 10.6226 12.1333 10.5829 12.0034 10.5034C11.8978 10.4358 11.7759 10.4119 11.6458 10.4119C11.2437 10.4119 10.9065 10.7419 10.8943 11.1354C10.8943 11.5926 10.5206 11.9503 10.0534 11.9503H9.50089C9.02965 11.9503 8.6559 11.5926 8.6559 11.1354C8.64778 10.7419 8.3106 10.4119 7.90841 10.4119C7.77435 10.4119 7.65248 10.4358 7.55092 10.5034C7.42092 10.5829 7.25842 10.6226 7.1203 10.6226C6.8278 10.6226 6.54749 10.4636 6.39718 10.2092L6.11688 9.73218C5.96657 9.4738 5.95844 9.16373 6.10875 8.91727C6.17375 8.79802 6.29562 8.67876 6.43375 8.60324C6.54749 8.54758 6.62062 8.45616 6.68967 8.34883C6.8928 8.00696 6.77093 7.55777 6.42562 7.35504C6.02344 7.12845 5.89344 6.62361 6.125 6.23007L6.39718 5.761C6.6328 5.36746 7.13654 5.22833 7.54279 5.45888C7.89622 5.64969 8.35528 5.52249 8.56246 5.1846C8.62747 5.07329 8.66402 4.95404 8.6559 4.83478C8.64778 4.67975 8.69246 4.53267 8.76965 4.41342C8.91996 4.16696 9.19215 4.00795 9.48871 4H10.0615C10.3621 4 10.6343 4.16696 10.7846 4.41342C10.8577 4.53267 10.9065 4.67975 10.8943 4.83478C10.8862 4.95404 10.9227 5.07329 10.9877 5.1846C11.1949 5.52249 11.654 5.64969 12.0114 5.45888C12.4137 5.22833 12.9215 5.36746 13.153 5.761L13.4252 6.23007C13.6609 6.62361 13.5308 7.12845 13.1246 7.35504C12.7793 7.55777 12.6574 8.00696 12.8646 8.34883C12.9296 8.45616 13.0027 8.54758 13.1165 8.60324ZM8.62748 7.97914C8.62748 8.60324 9.14342 9.10013 9.78122 9.10013C10.419 9.10013 10.9228 8.60324 10.9228 7.97914C10.9228 7.35504 10.419 6.85417 9.78122 6.85417C9.14342 6.85417 8.62748 7.35504 8.62748 7.97914Z" fill="url(#paint1_linear_92_414)"/>
<circle cx="0.99379" cy="9.1429" r="0.99379" fill="url(#paint2_linear_92_414)"/>
<defs>
<linearGradient id="paint0_linear_92_414" x1="1.23513" y1="15.9006" x2="11.7402" y2="0.620601" gradientUnits="userSpaceOnUse">
<stop stop-color="#9BE862"/>
<stop offset="1" stop-color="#C8FF9F"/>
</linearGradient>
<linearGradient id="paint1_linear_92_414" x1="6.9441" y1="11.9503" x2="13.6439" y2="6.38115" gradientUnits="userSpaceOnUse">
<stop stop-color="#C8FF9F"/>
<stop offset="1" stop-color="white"/>
</linearGradient>
<linearGradient id="paint2_linear_92_414" x1="0.14197" y1="10.1367" x2="1.4551" y2="8.22668" gradientUnits="userSpaceOnUse">
<stop stop-color="#9BE862"/>
<stop offset="1" stop-color="#C8FF9F"/>
</linearGradient>
</defs>
</svg>
