<svg width="16" height="16" viewBox="0 0 16 16" fill="none" xmlns="http://www.w3.org/2000/svg">
<path fill-rule="evenodd" clip-rule="evenodd" d="M7.29999 15C7.29999 15.552 6.85199 16 6.29999 16C5.74799 16 5.29999 15.552 5.29999 15C5.29999 14.448 5.74799 14 6.29999 14C6.85199 14 7.29999 14.448 7.29999 15ZM5.31099 13.15C4.24799 13.52 4.14999 14.453 4.10899 14.492C3.71199 14.875 3.07799 14.862 2.69599 14.464C1.83099 13.565 1.29999 12.344 1.29999 11C1.29999 9.394 2.10899 7.959 3.29999 7.045V3.01C3.29999 2.212 3.61699 1.446 4.18199 0.882C4.74599 0.317 5.51199 0 6.30999 0C7.95999 0 9.30299 1.329 9.31799 2.979L9.35499 7.042C10.538 7.957 11.3 9.39 11.3 11C11.3 12.344 10.769 13.565 9.90399 14.464C9.52199 14.862 8.88799 14.875 8.49099 14.492C8.44999 14.453 8.35199 13.52 7.28899 13.15C7.29199 13.125 6.80299 13 6.30999 13C5.80999 13 5.30699 13.125 5.31099 13.15ZM11.3 6H12.3C12.852 6 13.3 5.552 13.3 5C13.3 4.448 12.852 4 12.3 4H11.3C10.748 4 10.3 4.448 10.3 5C10.3 5.552 10.748 6 11.3 6ZM11.3 3H13.3C13.852 3 14.3 2.552 14.3 2C14.3 1.448 13.852 1 13.3 1H11.3C10.748 1 10.3 1.448 10.3 2C10.3 2.552 10.748 3 11.3 3Z" fill="url(#paint0_linear_73_4622)"/>
<path fill-rule="evenodd" clip-rule="evenodd" d="M4.54005 13.65C4.39005 13.475 4.30005 13.248 4.30005 13V12C4.30005 11.448 4.74805 11 5.30005 11C5.85205 11 6.30005 11.448 6.30005 12V13C5.80405 13.002 5.30705 13.125 5.31105 13.15C4.95905 13.272 4.71305 13.457 4.54005 13.65Z" fill="#279FD7"/>
<path fill-rule="evenodd" clip-rule="evenodd" d="M7.29999 12V11C7.29999 10.448 6.85199 10 6.29999 10C5.74799 10 5.29999 10.448 5.29999 11V12C5.29999 12.552 5.74799 13 6.29999 13C6.85199 13 7.29999 12.552 7.29999 12Z" fill="url(#paint1_linear_73_4622)"/>
<defs>
<linearGradient id="paint0_linear_73_4622" x1="2.59999" y1="16.005" x2="9.3641" y2="-0.484586" gradientUnits="userSpaceOnUse">
<stop offset="0.190745" stop-color="#22B4FA"/>
<stop offset="0.896724" stop-color="#7DDCFF"/>
</linearGradient>
<linearGradient id="paint1_linear_73_4622" x1="5.29999" y1="13" x2="7.73242" y2="12.5946" gradientUnits="userSpaceOnUse">
<stop stop-color="#6BD6FE"/>
<stop offset="1" stop-color="white"/>
</linearGradient>
</defs>
</svg>
