<svg width="16" height="16" viewBox="0 0 16 16" fill="none" xmlns="http://www.w3.org/2000/svg">
<path d="M8 15.7538C12.4183 15.7538 16 12.2272 16 7.87692C16 3.52662 12.4183 0 8 0C3.58172 0 0 3.52662 0 7.87692C0 12.2272 3.58172 15.7538 8 15.7538Z" fill="url(#paint0_linear_73_4801)"/>
<g opacity="0.4">
<path d="M10.3529 6.2001C10.2076 6.19752 10.0676 6.2534 9.96518 6.35477L9.72088 6.59657L9.72566 6.60122L7.52622 8.76682C7.37 8.92063 7.37 9.17001 7.52622 9.3238L8.69848 10.4781C8.8547 10.6319 9.10795 10.6319 9.26416 10.4781L11.4696 8.30652L12.9224 6.91687C13.1773 6.67279 13.0063 6.24697 12.6507 6.24069L10.3529 6.2001Z" fill="#279FD7"/>
<path d="M5.09144 8.64436C5.23664 8.64179 5.37667 8.69764 5.4791 8.79904L5.72339 9.04081L5.71864 9.04548L7.91808 11.2111C8.0743 11.3649 8.0743 11.6143 7.91808 11.7681L6.74579 12.9223C6.5896 13.0761 6.33632 13.0761 6.18011 12.9223L3.97464 10.7508L2.52195 9.36114C2.26696 9.11706 2.43803 8.69123 2.79358 8.68495L5.09144 8.64436Z" fill="#279FD7"/>
</g>
<path d="M10.9528 4.7001C10.8076 4.69752 10.6676 4.7534 10.5652 4.85477L10.3209 5.09657L10.3256 5.10122L8.12619 7.26682C7.96998 7.42063 7.96998 7.67001 8.12619 7.8238L9.29846 8.97805C9.45467 9.13186 9.70793 9.13186 9.86414 8.97805L12.0696 6.80652L13.5223 5.41687C13.7773 5.17279 13.6062 4.74697 13.2507 4.74069L10.9528 4.7001Z" fill="url(#paint1_linear_73_4801)"/>
<path d="M5.69142 7.14437C5.83662 7.1418 5.97665 7.19765 6.07907 7.29905L6.32337 7.54082L6.31862 7.54549L8.51806 9.71109C8.67427 9.8649 8.67427 10.1143 8.51806 10.2681L7.34577 11.4223C7.18958 11.5761 6.9363 11.5761 6.78009 11.4223L4.57462 9.25079L3.12193 7.86115C2.86694 7.61707 3.03801 7.19124 3.39355 7.18496L5.69142 7.14437Z" fill="url(#paint2_linear_73_4801)"/>
<defs>
<linearGradient id="paint0_linear_73_4801" x1="1.42172e-07" y1="15.7538" x2="18.7887" y2="10.9833" gradientUnits="userSpaceOnUse">
<stop stop-color="#6BD6FE"/>
<stop offset="1" stop-color="white"/>
</linearGradient>
<linearGradient id="paint1_linear_73_4801" x1="8.00903" y1="9.09341" x2="14.3963" y2="7.04525" gradientUnits="userSpaceOnUse">
<stop stop-color="#6BD6FE"/>
<stop offset="1" stop-color="white"/>
</linearGradient>
<linearGradient id="paint2_linear_73_4801" x1="3" y1="11.5377" x2="9.38725" y2="9.48952" gradientUnits="userSpaceOnUse">
<stop stop-color="#6BD6FE"/>
<stop offset="1" stop-color="white"/>
</linearGradient>
</defs>
</svg>
