<svg width="16" height="16" viewBox="0 0 16 16" fill="none" xmlns="http://www.w3.org/2000/svg">
<g clip-path="url(#clip0_271_57)">
<path opacity="0.5" d="M8 15.7538C12.4183 15.7538 16 12.2272 16 7.87692C16 3.52662 12.4183 0 8 0C3.58172 0 0 3.52662 0 7.87692C0 12.2272 3.58172 15.7538 8 15.7538Z" fill="url(#paint0_linear_271_57)"/>
<path d="M10.7528 4.40011C10.6075 4.39754 10.4675 4.45341 10.3651 4.55479L10.1208 4.79658L10.1256 4.80123L7.92612 6.96683C7.76991 7.12064 7.76991 7.37002 7.92612 7.52381L9.09839 8.67807C9.2546 8.83188 9.50785 8.83188 9.66407 8.67807L11.8695 6.50653L13.3223 5.11688C13.5772 4.8728 13.4062 4.44698 13.0506 4.4407L10.7528 4.40011Z" fill="url(#paint1_linear_271_57)"/>
<path d="M5.49135 6.84438C5.63655 6.84181 5.77657 6.89766 5.879 6.99906L6.12329 7.24083L6.11855 7.2455L8.31799 9.41111C8.4742 9.56492 8.4742 9.81427 8.31799 9.96808L7.14569 11.1223C6.98951 11.2762 6.73623 11.2762 6.58001 11.1223L4.37455 8.9508L2.92185 7.56116C2.66687 7.31708 2.83793 6.89125 3.19348 6.88498L5.49135 6.84438Z" fill="url(#paint2_linear_271_57)"/>
</g>
<defs>
<linearGradient id="paint0_linear_271_57" x1="3" y1="13.7846" x2="12.8175" y2="1.81951" gradientUnits="userSpaceOnUse">
<stop stop-color="#FF405B"/>
<stop offset="1" stop-color="#FF8860"/>
</linearGradient>
<linearGradient id="paint1_linear_271_57" x1="8.86556" y1="8.24425" x2="11.4163" y2="4.31818" gradientUnits="userSpaceOnUse">
<stop stop-color="#FF405B"/>
<stop offset="1" stop-color="#FF8860"/>
</linearGradient>
<linearGradient id="paint2_linear_271_57" x1="3.85653" y1="10.6886" x2="6.4073" y2="6.76246" gradientUnits="userSpaceOnUse">
<stop stop-color="#FF405B"/>
<stop offset="1" stop-color="#FF8860"/>
</linearGradient>
<clipPath id="clip0_271_57">
<rect width="16" height="16" fill="white"/>
</clipPath>
</defs>
</svg>
