<svg width="16" height="16" viewBox="0 0 16 16" fill="none" xmlns="http://www.w3.org/2000/svg">
<path fill-rule="evenodd" clip-rule="evenodd" d="M7.30005 15C7.30005 15.552 6.85205 16 6.30005 16C5.74805 16 5.30005 15.552 5.30005 15C5.30005 14.448 5.74805 14 6.30005 14C6.85205 14 7.30005 14.448 7.30005 15ZM5.31105 13.15C4.24805 13.52 4.15005 14.453 4.10905 14.492C3.71205 14.875 3.07805 14.862 2.69605 14.464C1.83105 13.565 1.30005 12.344 1.30005 11C1.30005 9.394 2.10905 7.959 3.30005 7.045V3.01C3.30005 2.212 3.61705 1.446 4.18205 0.882C4.74605 0.317 5.51205 0 6.31005 0C7.96005 0 9.30305 1.329 9.31805 2.979L9.35505 7.042C10.5381 7.957 11.3001 9.39 11.3001 11C11.3001 12.344 10.7691 13.565 9.90405 14.464C9.52205 14.862 8.88805 14.875 8.49105 14.492C8.45005 14.453 8.35205 13.52 7.28905 13.15C7.29205 13.125 6.80305 13 6.31005 13C5.81005 13 5.30705 13.125 5.31105 13.15ZM11.3001 6H12.3001C12.8521 6 13.3001 5.552 13.3001 5C13.3001 4.448 12.8521 4 12.3001 4H11.3001C10.7481 4 10.3001 4.448 10.3001 5C10.3001 5.552 10.7481 6 11.3001 6ZM11.3001 3H13.3001C13.8521 3 14.3001 2.552 14.3001 2C14.3001 1.448 13.8521 1 13.3001 1H11.3001C10.7481 1 10.3001 1.448 10.3001 2C10.3001 2.552 10.7481 3 11.3001 3Z" fill="url(#paint0_linear_73_4835)"/>
<path fill-rule="evenodd" clip-rule="evenodd" d="M4.54005 13.65C4.39005 13.475 4.30005 13.248 4.30005 13V12C4.30005 11.448 4.74805 11 5.30005 11C5.85205 11 6.30005 11.448 6.30005 12V13C5.80405 13.002 5.30705 13.125 5.31105 13.15C4.95905 13.272 4.71305 13.457 4.54005 13.65Z" fill="#87C459"/>
<path fill-rule="evenodd" clip-rule="evenodd" d="M7.30005 12V11C7.30005 10.448 6.85205 10 6.30005 10C5.74805 10 5.30005 10.448 5.30005 11V12C5.30005 12.552 5.74805 13 6.30005 13C6.85205 13 7.30005 12.552 7.30005 12Z" fill="url(#paint1_linear_73_4835)"/>
<defs>
<linearGradient id="paint0_linear_73_4835" x1="3.30005" y1="15" x2="13.3001" y2="1" gradientUnits="userSpaceOnUse">
<stop stop-color="#9BE862"/>
<stop offset="1" stop-color="#C7FE9E"/>
</linearGradient>
<linearGradient id="paint1_linear_73_4835" x1="5.30005" y1="13" x2="7.30005" y2="10" gradientUnits="userSpaceOnUse">
<stop stop-color="#C7FE9E"/>
<stop offset="1" stop-color="white"/>
</linearGradient>
</defs>
</svg>
