<svg width="16" height="16" viewBox="0 0 16 16" fill="none" xmlns="http://www.w3.org/2000/svg">
<path fill-rule="evenodd" clip-rule="evenodd" d="M3 8C3 6 1.336 5.837 1.276 5.807C0.780999 5.563 0.576999 4.963 0.820999 4.468C2.126 1.822 4.852 0 8 0C12.415 0 16 3.585 16 8C16 12.415 12.415 16 8 16C4.852 16 2.126 14.178 0.820999 11.532C0.576999 11.037 0.780999 10.437 1.276 10.193C1.336 10.163 3 10 3 8ZM1 9C0.448 9 0 8.552 0 8C0 7.448 0.448 7 1 7C1.552 7 2 7.448 2 8C2 8.552 1.552 9 1 9Z" fill="url(#paint0_linear_73_4894)"/>
<path d="M3.05504 9.93542C3.34169 11.7974 4.98348 13.3015 6.86358 13.474C8.17039 13.6208 9.53064 13.1393 10.4674 12.2114C11.3424 11.3648 11.8329 10.1479 11.7921 8.94338C11.7566 7.42721 10.8623 5.97745 9.52015 5.26805C8.28338 4.59376 6.72087 4.57762 5.45123 5.21286L5.44156 5.1963C5.34189 5.0257 5.23446 4.84182 5.11042 4.67632L5.10302 4.66644L5.0945 4.65749C4.96156 4.5173 4.77438 4.47952 4.61469 4.50971C4.45808 4.5393 4.30146 4.63901 4.22454 4.80893C3.83626 5.53019 3.45441 6.25433 3.07765 6.981C2.95772 7.16933 2.98931 7.38578 3.08696 7.53756C3.18334 7.68738 3.36339 7.80491 3.57823 7.78335C4.39291 7.79252 5.20836 7.79552 6.02293 7.79335C6.38014 7.81188 6.64654 7.46472 6.57177 7.13562L6.56706 7.11483L6.5583 7.09539C6.47155 6.90255 6.35807 6.71771 6.25205 6.5468C6.93104 6.25445 7.71543 6.217 8.39691 6.47309L8.39874 6.47378L8.40056 6.47442C9.24395 6.77399 9.91274 7.50134 10.1342 8.36261L10.1347 8.36471L10.1353 8.36679C10.4779 9.59592 9.84812 11.0335 8.68271 11.6117L8.67878 11.6136L8.67493 11.6157C7.48008 12.271 5.85449 11.9006 5.08462 10.8097L5.07967 10.8027L5.07422 10.7961C4.93152 10.6249 4.83395 10.4239 4.74897 10.1989C4.70668 10.0869 4.66865 9.97213 4.62904 9.85267L4.6283 9.85035C4.5889 9.7315 4.54788 9.60789 4.50164 9.4863L4.49492 9.46859L4.48519 9.45237C4.27986 9.11024 3.88958 9.05819 3.59542 9.15553C3.30171 9.25271 3.01913 9.52661 3.05336 9.9214L3.05397 9.92844L3.05504 9.93542Z" fill="#D49F34"/>
<path d="M4.05504 8.93542C4.34169 10.7974 5.98348 12.3015 7.86358 12.474C9.17039 12.6208 10.5306 12.1393 11.4674 11.2114C12.3424 10.3648 12.8329 9.14792 12.7921 7.94338C12.7566 6.42721 11.8623 4.97745 10.5202 4.26805C9.28338 3.59376 7.72087 3.57762 6.45123 4.21286L6.44156 4.1963C6.34189 4.0257 6.23446 3.84182 6.11042 3.67632L6.10302 3.66644L6.0945 3.65749C5.96156 3.5173 5.77438 3.47952 5.61469 3.50971C5.45808 3.5393 5.30146 3.63901 5.22454 3.80893C4.83626 4.53019 4.45441 5.25433 4.07765 5.981C3.95772 6.16933 3.98931 6.38578 4.08696 6.53756C4.18334 6.68738 4.36339 6.80491 4.57823 6.78335C5.39291 6.79252 6.20836 6.79552 7.02293 6.79335C7.38014 6.81188 7.64654 6.46472 7.57177 6.13562L7.56706 6.11483L7.5583 6.09539C7.47155 5.90255 7.35807 5.71771 7.25205 5.5468C7.93104 5.25445 8.71543 5.217 9.39691 5.47309L9.39874 5.47378L9.40056 5.47442C10.2439 5.77399 10.9127 6.50134 11.1342 7.36261L11.1347 7.36471L11.1353 7.36679C11.4779 8.59592 10.8481 10.0335 9.68271 10.6117L9.67878 10.6136L9.67493 10.6157C8.48008 11.271 6.85449 10.9006 6.08462 9.80965L6.07967 9.80267L6.07422 9.79611C5.93152 9.62487 5.83395 9.42389 5.74897 9.19886C5.70668 9.08687 5.66865 8.97213 5.62904 8.85267L5.6283 8.85035C5.5889 8.7315 5.54788 8.60789 5.50164 8.4863L5.49492 8.46859L5.48519 8.45237C5.27986 8.11024 4.88958 8.05819 4.59542 8.15553C4.30171 8.25271 4.01913 8.52661 4.05336 8.9214L4.05397 8.92844L4.05504 8.93542Z" fill="url(#paint1_linear_73_4894)"/>
<defs>
<linearGradient id="paint0_linear_73_4894" x1="3" y1="14.9988" x2="12.9991" y2="2.999" gradientUnits="userSpaceOnUse">
<stop stop-color="#FF8860"/>
<stop offset="1" stop-color="#FBD92C"/>
</linearGradient>
<linearGradient id="paint1_linear_73_4894" x1="6.1986" y1="10.25" x2="10.6974" y2="5.85397" gradientUnits="userSpaceOnUse">
<stop stop-color="#FBD92C"/>
<stop offset="1" stop-color="white"/>
</linearGradient>
</defs>
</svg>
