<svg width="16" height="16" viewBox="0 0 16 16" fill="none" xmlns="http://www.w3.org/2000/svg">
<path fill-rule="evenodd" clip-rule="evenodd" d="M3 15C3 15.552 2.552 16 2 16C1.448 16 1 15.552 1 15C1 14.448 1.448 14 2 14C2.552 14 3 14.448 3 15ZM2 13C1.448 13 1 12.552 1 12C1 12 1 6.106 1 2.947C1 2.165 1.31 1.416 1.863 0.863C2.416 0.31 3.165 0 3.947 0H9.329C9.981 0 10.615 0.211 11.137 0.602L13.795 2.596C14.554 3.165 15 4.058 15 5.006C15 6.827 15 10.699 15 13.053C15 13.835 14.69 14.584 14.137 15.137C13.584 15.69 12.835 16 12.053 16H5C4.448 16 4 15.552 4 15C4 13.896 3.104 13 2 13Z" fill="url(#paint0_linear_73_4935)"/>
<path fill-rule="evenodd" clip-rule="evenodd" d="M11 11.442V9.558C11 8.145 9.855 7 8.442 7C7.554 7 6.446 7 5.558 7C4.145 7 3 8.145 3 9.558V11.442C3 12.855 4.145 14 5.558 14C6.446 14 7.554 14 8.442 14C9.855 14 11 12.855 11 11.442ZM8 12C8 12 8.308 9 8 9C7.112 9 6.446 9 5.558 9C5.25 9 5 9.25 5 9.558V11.442C5 11.75 5.25 12 5.558 12H6V11C6 10.448 6.448 10 7 10C7.552 10 8 10.448 8 11V12Z" fill="#8CC860"/>
<path fill-rule="evenodd" clip-rule="evenodd" d="M12 10.442V8.558C12 7.145 10.855 6 9.442 6C8.554 6 7.446 6 6.558 6C5.145 6 4 7.145 4 8.558V10.442C4 11.855 5.145 13 6.558 13C7.446 13 8.554 13 9.442 13C10.855 13 12 11.855 12 10.442ZM9 11H9.442C9.75 11 10 10.75 10 10.442V8.558C10 8.25 9.75 8 9.442 8C8.554 8 7.446 8 6.558 8C6.25 8 6 8.25 6 8.558V10.442C6 10.75 6.25 11 6.558 11H7V10C7 9.448 7.448 9 8 9C8.552 9 9 9.448 9 10V11Z" fill="url(#paint1_linear_73_4935)"/>
<defs>
<linearGradient id="paint0_linear_73_4935" x1="2" y1="16" x2="13" y2="2" gradientUnits="userSpaceOnUse">
<stop stop-color="#9BE862"/>
<stop offset="1" stop-color="#C8FF9F"/>
</linearGradient>
<linearGradient id="paint1_linear_73_4935" x1="5" y1="13" x2="11" y2="7" gradientUnits="userSpaceOnUse">
<stop stop-color="#C8FF9F"/>
<stop offset="1" stop-color="white"/>
</linearGradient>
</defs>
</svg>
