<svg width="16" height="17" viewBox="0 0 16 17" fill="none" xmlns="http://www.w3.org/2000/svg">
<path d="M14.9999 4.41667V6.91667C14.9999 7.46895 14.5522 7.91667 13.9999 7.91667H9.58325C9.03097 7.91667 8.58325 7.46895 8.58325 6.91667V2.5C8.58325 1.94772 9.03097 1.5 9.58325 1.5H12.0833C12.8568 1.5 13.5987 1.80729 14.1456 2.35427C14.6926 2.90125 14.9999 3.64312 14.9999 4.41667Z" fill="url(#paint0_linear_271_180)"/>
<path opacity="0.5" fill-rule="evenodd" clip-rule="evenodd" d="M1.85427 2.35427C2.40125 1.80729 3.14312 1.5 3.91667 1.5H6.41667C6.96895 1.5 7.41667 1.94771 7.41667 2.5V6.91667C7.41667 7.46895 6.96895 7.91667 6.41667 7.91667H2C1.44772 7.91667 1 7.46895 1 6.91667V4.41667C1 3.64312 1.30729 2.90125 1.85427 2.35427ZM6.41667 15.5H3.91667H3.50005L3.49772 15.4698C2.87909 15.38 2.30153 15.093 1.85427 14.6457C1.30729 14.0987 1 13.3569 1 12.5833V9.99997C1 9.44772 1.44771 9 2 9H3H6.41667H9.58333H12H14C14.5523 9 15 9.53105 15 10.0833V12.5833C15 13.3569 14.6927 14.0987 14.1457 14.6457C13.5987 15.1927 12.8569 15.5 12.0833 15.5H12H9.58333H6.41667Z" fill="url(#paint1_linear_271_180)"/>
<defs>
<linearGradient id="paint0_linear_271_180" x1="13.8084" y1="6.7638" x2="10.1975" y2="2.61022" gradientUnits="userSpaceOnUse">
<stop stop-color="#248EFE"/>
<stop offset="1" stop-color="#1DF4FF"/>
</linearGradient>
<linearGradient id="paint1_linear_271_180" x1="2.4" y1="15.5044" x2="7.45636" y2="0.333391" gradientUnits="userSpaceOnUse">
<stop offset="0.190745" stop-color="#22B4FA"/>
<stop offset="0.896724" stop-color="#7DDCFF"/>
</linearGradient>
</defs>
</svg>
