<svg width="16" height="16" viewBox="0 0 16 16" fill="none" xmlns="http://www.w3.org/2000/svg">
<path fill-rule="evenodd" clip-rule="evenodd" d="M9.69323 0H13.7419C14.3408 0 14.9151 0.237899 15.3386 0.661365C15.7621 1.08483 15.9999 1.65917 15.9999 2.25804V6.30672C15.9999 6.60613 15.8809 6.89323 15.6692 7.10491L12.6177 10.1564C12.1926 10.5815 11.4816 10.507 10.9232 10.2843C10.6789 10.1869 10.4124 10.1333 10.1333 10.1333C8.95513 10.1333 8 11.0885 8 12.2667C8 12.5457 8.05357 12.8122 8.15099 13.0565C8.37368 13.6149 8.44819 14.3259 8.02307 14.7511L7.43525 15.3389C7.01173 15.7621 6.43749 16 5.83877 16C5.24 16 4.66578 15.7621 4.24236 15.3389L0.661125 11.7577C0.237803 11.3341 0 10.7599 0 10.1612C0 9.5624 0.237803 8.98816 0.661125 8.56475L8.89499 0.3308C9.10672 0.119056 9.39387 6.93333e-05 9.69323 0ZM10.1333 13.3333C10.7224 13.3333 11.2 12.8558 11.2 12.2667C11.2 11.6776 10.7224 11.2 10.1333 11.2C9.54423 11.2 9.06667 11.6776 9.06667 12.2667C9.06667 12.8558 9.54423 13.3333 10.1333 13.3333Z" fill="url(#paint0_linear_73_4997)"/>
<path d="M12.4288 5.52107C12.4288 4.41592 11.5328 3.52002 10.4276 3.52002C9.32242 3.52002 8.42664 4.41592 8.42664 5.52107C8.42664 6.6262 9.32242 7.52214 10.4276 7.52214C11.5328 7.52214 12.4288 6.6262 12.4288 5.52107Z" fill="#279FD7"/>
<path d="M13.332 4.66914C13.332 3.56399 12.436 2.66809 11.3308 2.66809C10.2256 2.66809 9.32983 3.56399 9.32983 4.66914C9.32983 5.77427 10.2256 6.67021 11.3308 6.67021C12.436 6.67021 13.332 5.77427 13.332 4.66914Z" fill="url(#paint1_linear_73_4997)"/>
<defs>
<linearGradient id="paint0_linear_73_4997" x1="1.6" y1="16.005" x2="7.37871" y2="-1.33326" gradientUnits="userSpaceOnUse">
<stop offset="0.190745" stop-color="#22B4FA"/>
<stop offset="0.896724" stop-color="#7DDCFF"/>
</linearGradient>
<linearGradient id="paint1_linear_73_4997" x1="9.32983" y1="6.67021" x2="14.0382" y2="5.49311" gradientUnits="userSpaceOnUse">
<stop stop-color="#6BD6FE"/>
<stop offset="1" stop-color="white"/>
</linearGradient>
</defs>
</svg>
