<svg width="16" height="16" viewBox="0 0 16 16" fill="none" xmlns="http://www.w3.org/2000/svg">
<path fill-rule="evenodd" clip-rule="evenodd" d="M3 1C3 0.448 3.448 0 4 0C4 0 9.853 0 13.02 0C13.811 0 14.568 0.313999 15.127 0.872999C15.686 1.432 16 2.189 16 2.98C16 5.644 16 10.356 16 13.02C16 13.811 15.686 14.568 15.127 15.127C14.568 15.686 13.811 16 13.02 16C10.356 16 5.644 16 2.98 16C2.189 16 1.432 15.686 0.873 15.127C0.314 14.568 0 13.811 0 13.02V4C0 3.448 0.448 3 1 3C2.104 3 3 2.104 3 1ZM0 1C0 0.448 0.448 0 1 0C1.552 0 2 0.448 2 1C2 1.552 1.552 2 1 2C0.448 2 0 1.552 0 1Z" fill="url(#paint0_linear_73_5077)"/>
<path d="M2.30005 4.64285C2.30005 4.28782 2.58787 4 2.9429 4H4.65719C5.01223 4 5.30005 4.28782 5.30005 4.64285V6.35713C5.30005 6.71218 5.01223 6.99998 4.65719 6.99998H2.9429C2.58787 6.99998 2.30005 6.71218 2.30005 6.35713V4.64285Z" fill="#D84F4F"/>
<path d="M9.29993 4.64285C9.29993 4.28782 9.5878 4 9.9428 4H11.6571C12.0121 4 12.3 4.28782 12.3 4.64285V6.35713C12.3 6.71218 12.0121 6.99998 11.6571 6.99998H9.9428C9.5878 6.99998 9.29993 6.71218 9.29993 6.35713V4.64285Z" fill="#D84F4F"/>
<path d="M4.80005 10.5357C4.80005 10.2398 5.03989 10 5.33576 10H9.26431C9.56025 10 9.79995 10.2398 9.79995 10.5357V10.7143C9.79995 11.0102 9.56025 11.25 9.26431 11.25H5.33576C5.03989 11.25 4.80005 11.0102 4.80005 10.7143V10.5357Z" fill="#D84F4F"/>
<path d="M9.79993 11.7857C9.79993 11.4898 10.0398 11.25 10.3356 11.25H10.5143C10.8101 11.25 11.05 11.4898 11.05 11.7857V11.9643C11.05 12.2601 10.8101 12.5 10.5143 12.5H10.3356C10.0398 12.5 9.79993 12.2601 9.79993 11.9643V11.7857Z" fill="#D84F4F"/>
<path d="M11.05 13.0357C11.05 12.7399 11.2899 12.5 11.5857 12.5H11.7643C12.0601 12.5 12.3 12.7399 12.3 13.0357V13.2143C12.3 13.5101 12.0601 13.75 11.7643 13.75H11.5857C11.2899 13.75 11.05 13.5101 11.05 13.2143V13.0357Z" fill="#D84F4F"/>
<path d="M4.26433 11.25C4.5602 11.25 4.80005 11.4898 4.80005 11.7857V11.9643C4.80005 12.2601 4.5602 12.5 4.26433 12.5H4.08576C3.7899 12.5 3.55005 12.2601 3.55005 11.9643V11.7857C3.55005 11.4898 3.7899 11.25 4.08576 11.25H4.26433Z" fill="#D84F4F"/>
<path d="M3.01434 12.5C3.3102 12.5 3.55005 12.7399 3.55005 13.0357V13.2143C3.55005 13.5101 3.3102 13.75 3.01434 13.75H2.83576C2.5399 13.75 2.30005 13.5101 2.30005 13.2143V13.0357C2.30005 12.7399 2.5399 12.5 2.83576 12.5H3.01434Z" fill="#D84F4F"/>
<path d="M3.30005 3.64285C3.30005 3.28782 3.58787 3 3.9429 3H5.65719C6.01223 3 6.30005 3.28782 6.30005 3.64285V5.35713C6.30005 5.71218 6.01223 5.99998 5.65719 5.99998H3.9429C3.58787 5.99998 3.30005 5.71218 3.30005 5.35713V3.64285Z" fill="url(#paint1_linear_73_5077)"/>
<path d="M10.2999 3.64285C10.2999 3.28782 10.5878 3 10.9428 3H12.6571C13.0121 3 13.3 3.28782 13.3 3.64285V5.35713C13.3 5.71218 13.0121 5.99998 12.6571 5.99998H10.9428C10.5878 5.99998 10.2999 5.71218 10.2999 5.35713V3.64285Z" fill="url(#paint2_linear_73_5077)"/>
<path d="M5.80005 9.53571C5.80005 9.23984 6.03989 9 6.33576 9H10.2643C10.5602 9 10.7999 9.23984 10.7999 9.53571V9.71428C10.7999 10.0102 10.5602 10.25 10.2643 10.25H6.33576C6.03989 10.25 5.80005 10.0102 5.80005 9.71428V9.53571Z" fill="url(#paint3_linear_73_5077)"/>
<path d="M10.7999 10.7857C10.7999 10.4898 11.0398 10.25 11.3356 10.25H11.5143C11.8101 10.25 12.05 10.4898 12.05 10.7857V10.9643C12.05 11.2601 11.8101 11.5 11.5143 11.5H11.3356C11.0398 11.5 10.7999 11.2601 10.7999 10.9643V10.7857Z" fill="url(#paint4_linear_73_5077)"/>
<path d="M12.05 12.0357C12.05 11.7399 12.2899 11.5 12.5857 11.5H12.7643C13.0601 11.5 13.3 11.7399 13.3 12.0357V12.2143C13.3 12.5101 13.0601 12.75 12.7643 12.75H12.5857C12.2899 12.75 12.05 12.5101 12.05 12.2143V12.0357Z" fill="url(#paint5_linear_73_5077)"/>
<path d="M5.26433 10.25C5.5602 10.25 5.80005 10.4898 5.80005 10.7857V10.9643C5.80005 11.2601 5.5602 11.5 5.26433 11.5H5.08576C4.7899 11.5 4.55005 11.2601 4.55005 10.9643V10.7857C4.55005 10.4898 4.7899 10.25 5.08576 10.25H5.26433Z" fill="url(#paint6_linear_73_5077)"/>
<path d="M4.01434 11.5C4.3102 11.5 4.55005 11.7399 4.55005 12.0357V12.2143C4.55005 12.5101 4.3102 12.75 4.01434 12.75H3.83576C3.5399 12.75 3.30005 12.5101 3.30005 12.2143V12.0357C3.30005 11.7399 3.5399 11.5 3.83576 11.5H4.01434Z" fill="url(#paint7_linear_73_5077)"/>
<defs>
<linearGradient id="paint0_linear_73_5077" x1="3" y1="14" x2="13" y2="2" gradientUnits="userSpaceOnUse">
<stop stop-color="#FF405B"/>
<stop offset="1" stop-color="#FF8860"/>
</linearGradient>
<linearGradient id="paint1_linear_73_5077" x1="4.15686" y1="5.99992" x2="5.13602" y2="3.66862" gradientUnits="userSpaceOnUse">
<stop stop-color="#FF8860"/>
<stop offset="1" stop-color="white"/>
</linearGradient>
<linearGradient id="paint2_linear_73_5077" x1="11.1568" y1="5.99992" x2="12.1359" y2="3.66861" gradientUnits="userSpaceOnUse">
<stop stop-color="#FF8860"/>
<stop offset="1" stop-color="white"/>
</linearGradient>
<linearGradient id="paint3_linear_73_5077" x1="7.22803" y1="10.25" x2="7.34672" y2="9.1197" gradientUnits="userSpaceOnUse">
<stop stop-color="#FF8860"/>
<stop offset="1" stop-color="white"/>
</linearGradient>
<linearGradient id="paint4_linear_73_5077" x1="11.157" y1="11.5" x2="11.5649" y2="10.5286" gradientUnits="userSpaceOnUse">
<stop stop-color="#FF8860"/>
<stop offset="1" stop-color="white"/>
</linearGradient>
<linearGradient id="paint5_linear_73_5077" x1="12.4071" y1="12.75" x2="12.815" y2="11.7786" gradientUnits="userSpaceOnUse">
<stop stop-color="#FF8860"/>
<stop offset="1" stop-color="white"/>
</linearGradient>
<linearGradient id="paint6_linear_73_5077" x1="4.90705" y1="11.5" x2="5.31504" y2="10.5286" gradientUnits="userSpaceOnUse">
<stop stop-color="#FF8860"/>
<stop offset="1" stop-color="white"/>
</linearGradient>
<linearGradient id="paint7_linear_73_5077" x1="3.65705" y1="12.75" x2="4.06504" y2="11.7786" gradientUnits="userSpaceOnUse">
<stop stop-color="#FF8860"/>
<stop offset="1" stop-color="white"/>
</linearGradient>
</defs>
</svg>
