<svg width="16" height="16" viewBox="0 0 16 16" fill="none" xmlns="http://www.w3.org/2000/svg">
<g clip-path="url(#clip0_114_721)">
<path fill-rule="evenodd" clip-rule="evenodd" d="M1.99995 0.699707C1.28199 0.699707 0.699951 1.28175 0.699951 1.99971V13.9998C0.699951 14.7177 1.28199 15.2998 1.99995 15.2998H13.9999C14.7179 15.2998 15.2999 14.7177 15.2999 13.9998V1.99971C15.2999 1.28175 14.7179 0.699707 13.9999 0.699707H1.99995ZM2.46662 4.33304C2.46662 3.94644 2.78002 3.63304 3.16662 3.63304H3.49995C3.88655 3.63304 4.19995 3.94645 4.19995 4.33304V12.8331C4.19995 13.2197 3.88655 13.5331 3.49995 13.5331H3.16662C2.78002 13.5331 2.46662 13.2197 2.46662 12.8331V4.33304Z" fill="url(#paint0_linear_114_721)"/>
<path d="M7.56698 9.77169L5.80313 9.77169C5.43782 9.77169 5.14168 9.47555 5.14168 9.11024L5.14168 8.88977C5.14167 8.52448 5.43781 8.22829 5.80312 8.22828L7.56696 8.22829C7.93227 8.22829 8.22843 7.93207 8.22839 7.56687L8.22839 5.80307C8.22841 5.43766 8.52451 5.14163 8.88989 5.14157H9.11037C9.47567 5.14158 9.77184 5.43761 9.77182 5.80302L9.77181 7.56682C9.77172 7.93216 10.0679 8.22833 10.4333 8.22827L12.1971 8.22827C12.5624 8.22827 12.8585 8.5244 12.8585 8.88983V9.11017C12.8585 9.4756 12.5623 9.77174 12.197 9.77167L10.4332 9.7717C10.0679 9.77169 9.77178 10.0678 9.77179 10.4331L9.77172 12.1969C9.77178 12.5623 9.47566 12.8584 9.11029 12.8584L8.88988 12.8584C8.52451 12.8584 8.22836 12.5623 8.22841 12.197L8.22841 10.4331C8.22841 10.0678 7.93228 9.7717 7.56698 9.77169Z" fill="#7FD1AE" stroke="#7FD1AE" stroke-width="0.6"/>
<path d="M8.56686 8.77169L6.80301 8.77169C6.4377 8.77169 6.14156 8.47555 6.14156 8.11024L6.14156 7.88977C6.14155 7.52448 6.43769 7.22829 6.803 7.22828L8.56684 7.22829C8.93215 7.22829 9.22831 6.93207 9.22826 6.56687L9.22827 4.80307C9.22829 4.43766 9.52439 4.14163 9.88977 4.14157H10.1102C10.4755 4.14158 10.7717 4.43761 10.7717 4.80302L10.7717 6.56682C10.7716 6.93216 11.0678 7.22833 11.4331 7.22827L13.1969 7.22827C13.5622 7.22827 13.8584 7.5244 13.8584 7.88983V8.11017C13.8584 8.4756 13.5622 8.77174 13.1969 8.77166L11.4331 8.7717C11.0678 8.77169 10.7717 9.06783 10.7717 9.43313L10.7716 11.1969C10.7717 11.5623 10.4755 11.8584 10.1102 11.8584L9.88975 11.8584C9.52439 11.8584 9.22824 11.5623 9.22829 11.197L9.22829 9.43313C9.22828 9.06783 8.93216 8.7717 8.56686 8.77169Z" fill="url(#paint1_linear_114_721)" stroke="url(#paint2_linear_114_721)" stroke-width="0.6"/>
</g>
<defs>
<linearGradient id="paint0_linear_114_721" x1="2.52495" y1="13.4752" x2="16.1869" y2="10.3226" gradientUnits="userSpaceOnUse">
<stop stop-color="#62E8AF"/>
<stop offset="1" stop-color="#B3FBDC"/>
</linearGradient>
<linearGradient id="paint1_linear_114_721" x1="9.99996" y1="12.2426" x2="6.25644" y2="6.00347" gradientUnits="userSpaceOnUse">
<stop stop-color="#B3FBDC"/>
<stop offset="1" stop-color="white"/>
</linearGradient>
<linearGradient id="paint2_linear_114_721" x1="9.99996" y1="12.2426" x2="6.25644" y2="6.00347" gradientUnits="userSpaceOnUse">
<stop stop-color="#B3FBDC"/>
<stop offset="1" stop-color="white"/>
</linearGradient>
<clipPath id="clip0_114_721">
<rect width="16" height="16" fill="white"/>
</clipPath>
</defs>
</svg>
