<svg width="16" height="16" viewBox="0 0 16 16" fill="none" xmlns="http://www.w3.org/2000/svg">
<path d="M4.20202 8.10102C4.20202 8.65825 3.98066 9.19265 3.58665 9.58662C3.19263 9.98065 2.65823 10.202 2.10101 10.202C1.54379 10.202 1.00939 9.98065 0.615375 9.58662C0.221353 9.19265 0 8.65825 0 8.10102C0 7.54378 0.221353 7.00938 0.615375 6.61537C1.00939 6.22135 1.54379 6 2.10101 6C2.65823 6 3.19263 6.22135 3.58665 6.61537C3.98066 7.00938 4.20202 7.54378 4.20202 8.10102ZM16 8.10102C16 8.65825 15.7786 9.19265 15.3847 9.58662C14.9906 9.98065 14.4562 10.202 13.899 10.202C13.3417 10.202 12.8073 9.98065 12.4134 9.58662C12.0193 9.19265 11.798 8.65825 11.798 8.10102C11.798 7.54378 12.0193 7.00938 12.4134 6.61537C12.8073 6.22135 13.3417 6 13.899 6C14.4562 6 14.9906 6.22135 15.3847 6.61537C15.7786 7.00938 16 7.54378 16 8.10102Z" fill="url(#paint0_linear_114_806)"/>
<path d="M10.0364 8.10909C10.0364 8.66844 9.81424 9.20495 9.41867 9.60044C9.02318 9.996 8.48667 10.2182 7.92733 10.2182C7.36798 10.2182 6.83147 9.996 6.43598 9.60044C6.04045 9.20495 5.81824 8.66844 5.81824 8.10909C5.81824 7.54975 6.04045 7.01324 6.43598 6.61774C6.83147 6.22221 7.36798 6 7.92733 6C8.48667 6 9.02318 6.22221 9.41867 6.61774C9.81424 7.01324 10.0364 7.54975 10.0364 8.10909Z" fill="url(#paint1_linear_114_806)"/>
<defs>
<linearGradient id="paint0_linear_114_806" x1="3" y1="9.67678" x2="4.11529" y2="4.58078" gradientUnits="userSpaceOnUse">
<stop stop-color="#FF405B"/>
<stop offset="1" stop-color="#FF8860"/>
</linearGradient>
<linearGradient id="paint1_linear_114_806" x1="6.60915" y1="9.69091" x2="9.24551" y2="6.52727" gradientUnits="userSpaceOnUse">
<stop stop-color="#FF405B"/>
<stop offset="1" stop-color="#FF8860"/>
</linearGradient>
</defs>
</svg>
