<svg width="16" height="16" viewBox="0 0 16 16" fill="none" xmlns="http://www.w3.org/2000/svg">
<path d="M13.158 11.6842H8.00005C7.18732 11.6842 6.52637 12.3452 6.52637 13.1579C6.52637 13.9706 7.18732 14.6316 8.00005 14.6316H13.158C13.9707 14.6316 14.6316 13.9706 14.6316 13.1579C14.6316 12.3452 13.9707 11.6842 13.158 11.6842ZM13.158 6.52631H8.00005C7.18732 6.52631 6.52637 7.18726 6.52637 8C6.52637 8.81274 7.18732 9.47369 8.00005 9.47369H13.158C13.9707 9.47369 14.6316 8.81274 14.6316 8C14.6316 7.18726 13.9707 6.52631 13.158 6.52631ZM13.158 1.36841H8.00005C7.18732 1.36841 6.52637 2.02936 6.52637 2.84209C6.52637 3.65483 7.18732 4.31578 8.00005 4.31578H13.158C13.9707 4.31578 14.6316 3.65483 14.6316 2.84209C14.6316 2.02936 13.9707 1.36841 13.158 1.36841Z" fill="url(#paint0_linear_114_774)"/>
<path d="M2.84211 15C3.85948 15 4.68422 14.1753 4.68422 13.1579C4.68422 12.1405 3.85948 11.3158 2.84211 11.3158C1.82474 11.3158 1 12.1405 1 13.1579C1 14.1753 1.82474 15 2.84211 15Z" fill="url(#paint1_linear_114_774)"/>
<path d="M2.84211 9.84205C3.85948 9.84205 4.68422 9.01731 4.68422 7.99995C4.68422 6.98258 3.85948 6.15784 2.84211 6.15784C1.82474 6.15784 1 6.98258 1 7.99995C1 9.01731 1.82474 9.84205 2.84211 9.84205Z" fill="url(#paint2_linear_114_774)"/>
<path d="M2.84211 4.68422C3.85948 4.68422 4.68422 3.85948 4.68422 2.84211C4.68422 1.82474 3.85948 1 2.84211 1C1.82474 1 1 1.82474 1 2.84211C1 3.85948 1.82474 4.68422 2.84211 4.68422Z" fill="url(#paint3_linear_114_774)"/>
<defs>
<linearGradient id="paint0_linear_114_774" x1="8.55269" y1="13.6842" x2="16.9491" y2="7.69786" gradientUnits="userSpaceOnUse">
<stop stop-color="#A056FF"/>
<stop offset="1" stop-color="#C59AFD"/>
</linearGradient>
<linearGradient id="paint1_linear_114_774" x1="1.92105" y1="14.7369" x2="4.35914" y2="11.8924" gradientUnits="userSpaceOnUse">
<stop stop-color="#A056FF"/>
<stop offset="1" stop-color="#C59AFD"/>
</linearGradient>
<linearGradient id="paint2_linear_114_774" x1="1.92105" y1="9.5789" x2="4.35914" y2="6.73446" gradientUnits="userSpaceOnUse">
<stop stop-color="#A056FF"/>
<stop offset="1" stop-color="#C59AFD"/>
</linearGradient>
<linearGradient id="paint3_linear_114_774" x1="1.92105" y1="4.42106" x2="4.35914" y2="1.57663" gradientUnits="userSpaceOnUse">
<stop stop-color="#A056FF"/>
<stop offset="1" stop-color="#C59AFD"/>
</linearGradient>
</defs>
</svg>
