<svg width="16" height="16" viewBox="0 0 16 16" fill="none" xmlns="http://www.w3.org/2000/svg">
<g clip-path="url(#clip0_114_721)">
<path fill-rule="evenodd" clip-rule="evenodd" d="M1.99995 0.699707C1.28199 0.699707 0.699951 1.28175 0.699951 1.99971V13.9998C0.699951 14.7177 1.28199 15.2998 1.99995 15.2998H13.9999C14.7179 15.2998 15.2999 14.7177 15.2999 13.9998V1.99971C15.2999 1.28175 14.7179 0.699707 13.9999 0.699707H1.99995ZM2.46662 4.33304C2.46662 3.94644 2.78002 3.63304 3.16662 3.63304H3.49995C3.88655 3.63304 4.19995 3.94645 4.19995 4.33304V12.8331C4.19995 13.2197 3.88655 13.5331 3.49995 13.5331H3.16662C2.78002 13.5331 2.46662 13.2197 2.46662 12.8331V4.33304Z" fill="url(#paint0_linear_114_721)"/>
<path d="M7.44097 8.53231L6.19374 7.28508C5.93543 7.02677 5.93543 6.60796 6.19374 6.34965L6.34964 6.19375C6.60793 5.93545 7.02677 5.93541 7.28509 6.19372L8.53231 7.44095C8.79062 7.69926 9.2095 7.69922 9.4677 7.44095L10.7149 6.19376C10.9733 5.93539 11.392 5.93544 11.6504 6.19376L11.8063 6.34966C12.0646 6.60797 12.0647 7.02672 11.8063 7.28509L10.5591 8.53228C10.3007 8.79055 10.3007 9.2094 10.5591 9.46771L11.8063 10.7149C12.0646 10.9732 12.0646 11.392 11.8062 11.6504L11.6504 11.8062C11.392 12.0646 10.9732 12.0646 10.7149 11.8062L9.4677 10.559C9.2094 10.3007 8.7906 10.3007 8.5323 10.559L7.28506 11.8062C7.02674 12.0646 6.60796 12.0646 6.34965 11.8062L6.19374 11.6504C5.93543 11.392 5.93541 10.9732 6.19374 10.7149L7.44097 9.46772C7.69927 9.20941 7.69927 8.79062 7.44097 8.53231Z" fill="#D84F4F" stroke="#D84F4F" stroke-width="0.6"/>
<path d="M8.44097 7.53231L7.19374 6.28508C6.93543 6.02677 6.93543 5.60796 7.19374 5.34965L7.34964 5.19375C7.60793 4.93545 8.02677 4.93541 8.28509 5.19372L9.53231 6.44095C9.79062 6.69926 10.2095 6.69922 10.4677 6.44095L11.7149 5.19376C11.9733 4.93539 12.392 4.93544 12.6504 5.19376L12.8063 5.34966C13.0646 5.60797 13.0647 6.02672 12.8063 6.28509L11.5591 7.53228C11.3007 7.79055 11.3007 8.2094 11.5591 8.46771L12.8063 9.71491C13.0646 9.97321 13.0646 10.392 12.8062 10.6504L12.6504 10.8062C12.392 11.0646 11.9732 11.0646 11.7149 10.8062L10.4677 9.55905C10.2094 9.30074 9.7906 9.30074 9.5323 9.55905L8.28506 10.8062C8.02674 11.0646 7.60796 11.0646 7.34965 10.8062L7.19374 10.6504C6.93543 10.392 6.93541 9.97321 7.19374 9.71495L8.44097 8.46772C8.69927 8.20941 8.69927 7.79062 8.44097 7.53231Z" fill="url(#paint1_linear_114_721)" stroke="url(#paint2_linear_114_721)" stroke-width="0.6"/>
</g>
<defs>
<linearGradient id="paint0_linear_114_721" x1="3.43745" y1="13.4748" x2="12.5625" y2="2.52478" gradientUnits="userSpaceOnUse">
<stop stop-color="#FF405B"/>
<stop offset="1" stop-color="#FF8860"/>
</linearGradient>
<linearGradient id="paint1_linear_114_721" x1="8.71363" y1="10.9999" x2="10.672" y2="6.33725" gradientUnits="userSpaceOnUse">
<stop stop-color="#FF8860"/>
<stop offset="1" stop-color="white"/>
</linearGradient>
<linearGradient id="paint2_linear_114_721" x1="8.71363" y1="10.9999" x2="10.672" y2="6.33725" gradientUnits="userSpaceOnUse">
<stop stop-color="#FF8860"/>
<stop offset="1" stop-color="white"/>
</linearGradient>
<clipPath id="clip0_114_721">
<rect width="16" height="16" fill="white"/>
</clipPath>
</defs>
</svg>
