<svg width="16" height="16" viewBox="0 0 16 16" fill="none" xmlns="http://www.w3.org/2000/svg">
<path d="M2.10814 13.7931C1.68164 13.7931 1.2726 13.6237 0.971015 13.3221C0.669434 13.0205 0.5 12.6114 0.5 12.1849C0.5 11.7584 0.669434 11.3493 0.971015 11.0477C1.2726 10.7462 1.68164 10.5768 2.10814 10.5768C2.53464 10.5768 2.94369 10.7462 3.24527 11.0477C3.54685 11.3493 3.71629 11.7584 3.71629 12.1849C3.71629 12.6114 3.54685 13.0205 3.24527 13.3221C2.94369 13.6237 2.53464 13.7931 2.10814 13.7931ZM2.10814 9.50467C1.68164 9.50467 1.2726 9.33524 0.971015 9.03366C0.669434 8.73208 0.5 8.32303 0.5 7.89653C0.5 7.47003 0.669434 7.06098 0.971015 6.7594C1.2726 6.45782 1.68164 6.28838 2.10814 6.28838C2.53464 6.28838 2.94369 6.45782 3.24527 6.7594C3.54685 7.06098 3.71629 7.47003 3.71629 7.89653C3.71629 8.32303 3.54685 8.73208 3.24527 9.03366C2.94369 9.33524 2.53464 9.50467 2.10814 9.50467ZM2.10814 5.21629C1.68164 5.21629 1.2726 5.04685 0.971015 4.74527C0.669434 4.44369 0.5 4.03464 0.5 3.60814C0.5 3.18164 0.669434 2.7726 0.971015 2.47101C1.2726 2.16943 1.68164 2 2.10814 2C2.53464 2 2.94369 2.16943 3.24527 2.47101C3.54685 2.7726 3.71629 3.18164 3.71629 3.60814C3.71629 4.03464 3.54685 4.44369 3.24527 4.74527C2.94369 5.04685 2.53464 5.21629 2.10814 5.21629Z" fill="url(#paint0_linear_114_780)"/>
<path d="M15.2915 7.7093L11.9022 2.96427C11.46 2.34524 10.54 2.34524 10.0978 2.96427L6.70851 7.7093C6.18429 8.44316 6.70884 9.46253 7.61071 9.46253H7.67369C8.28606 9.46253 8.78246 9.95894 8.78246 10.5713V12.7888C8.78246 13.4012 9.27885 13.8976 9.89122 13.8976H12.1088C12.7211 13.8976 13.2175 13.4012 13.2175 12.7888V10.5713C13.2175 9.95894 13.7139 9.46253 14.3263 9.46253H14.3893C15.2911 9.46253 15.8157 8.44316 15.2915 7.7093Z" fill="url(#paint1_linear_114_780)"/>
<defs>
<linearGradient id="paint0_linear_114_780" x1="1.30407" y1="12.9507" x2="5.86752" y2="11.4987" gradientUnits="userSpaceOnUse">
<stop stop-color="#A056FF"/>
<stop offset="1" stop-color="#C59AFD"/>
</linearGradient>
<linearGradient id="paint1_linear_114_780" x1="8.75" y1="13.0835" x2="16.3567" y2="6.07582" gradientUnits="userSpaceOnUse">
<stop stop-color="#A056FF"/>
<stop offset="1" stop-color="#C59AFD"/>
</linearGradient>
</defs>
</svg>
