<svg width="16" height="16" viewBox="0 0 16 16" fill="none" xmlns="http://www.w3.org/2000/svg">
<path d="M2.10814 13.7931C1.68164 13.7931 1.2726 13.6237 0.971015 13.3221C0.669434 13.0205 0.5 12.6114 0.5 12.1849C0.5 11.7584 0.669434 11.3493 0.971015 11.0477C1.2726 10.7462 1.68164 10.5768 2.10814 10.5768C2.53464 10.5768 2.94369 10.7462 3.24527 11.0477C3.54685 11.3493 3.71629 11.7584 3.71629 12.1849C3.71629 12.6114 3.54685 13.0205 3.24527 13.3221C2.94369 13.6237 2.53464 13.7931 2.10814 13.7931ZM2.10814 9.50467C1.68164 9.50467 1.2726 9.33524 0.971015 9.03366C0.669434 8.73208 0.5 8.32303 0.5 7.89653C0.5 7.47003 0.669434 7.06098 0.971015 6.7594C1.2726 6.45782 1.68164 6.28838 2.10814 6.28838C2.53464 6.28838 2.94369 6.45782 3.24527 6.7594C3.54685 7.06098 3.71629 7.47003 3.71629 7.89653C3.71629 8.32303 3.54685 8.73208 3.24527 9.03366C2.94369 9.33524 2.53464 9.50467 2.10814 9.50467ZM2.10814 5.21629C1.68164 5.21629 1.2726 5.04685 0.971015 4.74527C0.669434 4.44369 0.5 4.03464 0.5 3.60814C0.5 3.18164 0.669434 2.7726 0.971015 2.47101C1.2726 2.16943 1.68164 2 2.10814 2C2.53464 2 2.94369 2.16943 3.24527 2.47101C3.54685 2.7726 3.71629 3.18164 3.71629 3.60814C3.71629 4.03464 3.54685 4.44369 3.24527 4.74527C2.94369 5.04685 2.53464 5.21629 2.10814 5.21629Z" fill="url(#paint0_linear_114_780)"/>
<path d="M6.70848 8.68829L10.0978 13.4333C10.54 14.0523 11.46 14.0523 11.9022 13.4333L15.2915 8.68829C15.8157 7.95443 15.2912 6.93507 14.3893 6.93507H14.3263C13.7139 6.93507 13.2175 6.43865 13.2175 5.8263V3.60877C13.2175 2.99641 12.7211 2.5 12.1088 2.5H9.89124C9.27889 2.5 8.78248 2.99641 8.78248 3.60877V5.8263C8.78248 6.43865 8.28606 6.93507 7.67371 6.93507H7.61072C6.70888 6.93507 6.18429 7.95443 6.70848 8.68829Z" fill="url(#paint1_linear_114_780)"/>
<defs>
<linearGradient id="paint0_linear_114_780" x1="1.30407" y1="12.9507" x2="5.86752" y2="11.4987" gradientUnits="userSpaceOnUse">
<stop stop-color="#A056FF"/>
<stop offset="1" stop-color="#C59AFD"/>
</linearGradient>
<linearGradient id="paint1_linear_114_780" x1="8.75" y1="13.0835" x2="16.3567" y2="6.07582" gradientUnits="userSpaceOnUse">
<stop stop-color="#A056FF"/>
<stop offset="1" stop-color="#C59AFD"/>
</linearGradient>
</defs>
</svg>
