<svg width="16" height="16" viewBox="0 0 16 16" fill="none" xmlns="http://www.w3.org/2000/svg">
<path fill-rule="evenodd" clip-rule="evenodd" d="M0.0174165 8.87263C0.0766019 9.60982 0.787276 10.0321 1.52677 10.0425L2.2824 10.0531C3.38686 10.0686 3.7767 10.4696 3.76117 11.5741L3.74905 12.4365C3.73924 13.1342 4.08612 13.8044 4.72123 14.0935C5.67322 14.5269 6.76363 14.8 8 14.8C11.3456 14.8 13.6224 12.8 14.98 11.0368C15.66 10.1536 16 9.7112 16 8.4C16 7.0892 15.6606 6.64801 14.9819 5.76562L14.98 5.7632C13.6224 4 11.3456 2 8 2C4.6544 2 2.3776 4 1.02 5.7632L1.01752 5.76643C0.339172 6.64908 0 7.0904 0 8.4C0 8.57144 0.0058055 8.72801 0.0174165 8.87263ZM2 13C2.55228 13 3 12.5523 3 12C3 11.4477 2.55228 11 2 11C1.44772 11 1 11.4477 1 12C1 12.5523 1.44772 13 2 13Z" fill="url(#paint0_linear_73_5283)"/>
<path fill-rule="evenodd" clip-rule="evenodd" d="M7.19463 9.34553L5.24143 11.3165C4.91952 11.6306 4.91952 12.1504 5.24143 12.4645C5.55263 12.7785 6.05702 12.7785 6.37902 12.4645L7.38783 11.4465C7.39853 11.4248 7.42003 11.4032 7.44143 11.3815C7.45223 11.3598 7.47363 11.3382 7.49513 11.3165L8.45023 10.3516L8.85223 9.91862L11.3673 7.2996L11.3995 7.2562C11.6141 6.9422 11.5712 6.5079 11.3029 6.2372C11.1527 6.0758 10.938 6 10.7341 6C10.5302 6 10.3263 6.0758 10.1654 6.2372L7.72533 8.7826L7.19463 9.34553ZM8.32519 6.64517C6.85489 6.64517 5.65299 7.85807 5.65299 9.34177C5.65299 9.79657 5.76029 10.2298 5.95349 10.598L9.50264 6.92854C9.13784 6.73354 8.77589 6.64517 8.32519 6.64517Z" fill="#D84F4F"/>
<path fill-rule="evenodd" clip-rule="evenodd" d="M6.7946 8.34553L4.8414 10.3165C4.5195 10.6306 4.5195 11.1504 4.8414 11.4645C5.1526 11.7785 5.657 11.7785 5.979 11.4645L6.9878 10.4465C6.9985 10.4248 7.02 10.4032 7.0414 10.3815C7.0522 10.3598 7.0736 10.3382 7.0951 10.3165L8.0502 9.3516L8.4522 8.91862L10.9673 6.2996L10.9995 6.2562C11.2141 5.9422 11.1712 5.5079 10.9029 5.2372C10.7526 5.0758 10.538 5 10.3341 5C10.1302 5 9.9263 5.0758 9.76533 5.2372L7.3253 7.7826L6.7946 8.34553ZM7.92517 5.64517C6.45487 5.64517 5.25297 6.85807 5.25297 8.34177C5.25297 8.79657 5.36027 9.22977 5.55347 9.59797L9.10261 5.92854C8.73781 5.73354 8.37587 5.64517 7.92517 5.64517Z" fill="url(#paint1_linear_73_5283)"/>
<defs>
<linearGradient id="paint0_linear_73_5283" x1="3" y1="13.2" x2="10.5077" y2="1.93846" gradientUnits="userSpaceOnUse">
<stop stop-color="#FF405B"/>
<stop offset="1" stop-color="#FF8860"/>
</linearGradient>
<linearGradient id="paint1_linear_73_5283" x1="6.46669" y1="11.6999" x2="8.69142" y2="6.53264" gradientUnits="userSpaceOnUse">
<stop stop-color="#FF8860"/>
<stop offset="1" stop-color="white"/>
</linearGradient>
</defs>
</svg>
