<svg width="17" height="16" viewBox="0 0 17 16" fill="none" xmlns="http://www.w3.org/2000/svg">
<path opacity="0.5" fill-rule="evenodd" clip-rule="evenodd" d="M13 8C13 10 14.664 10.163 14.724 10.193C15.219 10.437 15.423 11.037 15.179 11.532C13.8741 14.1779 11.148 16 8 16C3.58501 16 0 12.415 0 8C0 3.58501 3.58501 0 8 0C11.148 0 13.8741 1.822 15.179 4.468C15.423 4.96299 15.219 5.56301 14.724 5.80701C14.664 5.83701 13 6 13 8ZM15 7C15.552 7 16 7.448 16 8C16 8.552 15.552 9 15 9C14.448 9 14 8.552 14 8C14 7.448 14.448 7 15 7Z" fill="url(#paint0_linear_271_47)"/>
<path fill-rule="evenodd" clip-rule="evenodd" d="M9.92307 4.19741L4.1614 9.95908C3.63133 10.4892 3.63171 11.3492 4.16178 11.8792C4.69185 12.4094 5.55189 12.4097 6.08196 11.8797L11.8437 6.11798C12.3737 5.58789 12.3734 4.72787 11.8432 4.1978C11.3132 3.66772 10.4532 3.66734 9.92307 4.19741Z" fill="url(#paint1_linear_271_47)"/>
<path fill-rule="evenodd" clip-rule="evenodd" d="M11.8436 9.95902L6.08184 4.19735C5.55176 3.66728 4.69174 3.66765 4.16167 4.19774C3.63158 4.72781 3.63121 5.58783 4.16128 6.11791L9.92295 11.8796C10.4531 12.4096 11.3131 12.4093 11.8431 11.8792C12.3731 11.3491 12.3736 10.4891 11.8436 9.95902Z" fill="url(#paint2_linear_271_47)"/>
<defs>
<linearGradient id="paint0_linear_271_47" x1="3" y1="14" x2="13" y2="2" gradientUnits="userSpaceOnUse">
<stop stop-color="#FF405B"/>
<stop offset="1" stop-color="#FF8860"/>
</linearGradient>
<linearGradient id="paint1_linear_271_47" x1="5.35347" y1="11.2174" x2="10.6516" y2="4.85966" gradientUnits="userSpaceOnUse">
<stop stop-color="#FF405B"/>
<stop offset="1" stop-color="#FF8860"/>
</linearGradient>
<linearGradient id="paint2_linear_271_47" x1="5.35334" y1="11.2173" x2="10.6514" y2="4.85962" gradientUnits="userSpaceOnUse">
<stop stop-color="#FF405B"/>
<stop offset="1" stop-color="#FF8860"/>
</linearGradient>
</defs>
</svg>
