<svg width="16" height="16" viewBox="0 0 16 16" fill="none" xmlns="http://www.w3.org/2000/svg">
<path d="M10.8754 3.45269L8.36253 5.55721C7.84441 6.07532 7.8485 6.91955 8.37168 7.44272C8.89481 7.96586 9.73904 7.96995 10.2572 7.45183L12.3617 4.93897C12.7681 4.5325 12.7649 3.87027 12.3545 3.45987C11.9434 3.04876 11.2819 3.04623 10.8754 3.45269Z" fill="url(#paint0_linear_114_702)"/>
<path fill-rule="evenodd" clip-rule="evenodd" d="M10.2472 3.97721L10.8753 3.45114C11.2818 3.04468 11.9433 3.04721 12.3545 3.45833C12.7649 3.86872 12.7681 4.53096 12.3616 4.93742L11.8417 5.55822C11.5712 5.32032 11.2742 5.04199 10.9724 4.74018C10.709 4.47681 10.4631 4.21803 10.2472 3.97721Z" fill="#8C4FD9"/>
<path d="M14.8113 0.0310476C14.7663 0.0307986 14.5871 0.0189004 14.4292 0.0181536C13.474 -0.0204551 11.4647 0.363715 10.5901 0.74109C10.4553 0.796452 10.1305 0.952355 9.99574 1.07523C9.87282 1.19815 9.78395 1.34417 9.72829 1.51239C9.66738 1.73113 9.68042 1.96721 9.76548 2.17559C9.82772 2.31638 10.071 2.68305 10.0765 2.68858C10.3484 3.08295 10.8568 3.65803 11.4556 4.25687C12.0255 4.82672 12.5783 5.31285 12.9673 5.60126C12.9787 5.60176 13.4187 5.91842 13.6156 5.98092C13.9756 6.09515 14.3627 6.00152 14.62 5.74427L14.6424 5.72187C14.8045 5.54862 15.0097 5.04919 15.0046 5.04407C15.3485 4.20275 15.7436 2.26102 15.6994 1.27733C15.6994 1.27733 15.6998 1.01247 15.6749 0.872698C15.6459 0.664569 15.544 0.473044 15.3973 0.326326C15.2335 0.162531 15.0309 0.0605455 14.8113 0.0310476Z" fill="url(#paint1_linear_114_702)"/>
<path d="M4.84226 12.265L7.35513 10.1605C7.87324 9.64239 7.86915 8.79817 7.34597 8.27499C6.82284 7.75186 5.97861 7.74777 5.4605 8.26588L3.35598 10.7787C2.94952 11.1852 2.95273 11.8474 3.36313 12.2578C3.77424 12.669 4.4358 12.6715 4.84226 12.265Z" fill="url(#paint2_linear_114_702)"/>
<path fill-rule="evenodd" clip-rule="evenodd" d="M5.47047 11.7405L4.84233 12.2666C4.43586 12.673 3.77431 12.6705 3.36319 12.2594C2.9528 11.849 2.94959 11.1868 3.35605 10.7803L3.87597 10.1595C4.14643 10.3974 4.44349 10.6757 4.7453 10.9775C5.00867 11.2409 5.25453 11.4997 5.47047 11.7405Z" fill="#8C4FD9"/>
<path d="M0.906322 15.6867C0.951328 15.6869 1.13051 15.6988 1.28843 15.6996C2.24364 15.7382 4.25291 15.354 5.12759 14.9766C5.26231 14.9213 5.58714 14.7654 5.72191 14.6425C5.84483 14.5196 5.9337 14.3735 5.98936 14.2053C6.05027 13.9866 6.03723 13.7505 5.95217 13.5421C5.88994 13.4013 5.64663 13.0347 5.64111 13.0291C5.3692 12.6348 4.86089 12.0597 4.26205 11.4608C3.6922 10.891 3.13931 10.4049 2.75038 10.1165C2.73893 10.116 2.2989 9.7993 2.10208 9.73679C1.742 9.62256 1.35491 9.7162 1.09767 9.97344L1.07526 9.99584C0.913105 10.1691 0.707976 10.6685 0.713097 10.6736C0.369118 11.515 -0.025988 13.4567 0.0182465 14.4404C0.0182465 14.4404 0.0178479 14.7052 0.0427158 14.845C0.0717159 15.0531 0.173677 15.2447 0.320395 15.3914C0.48419 15.5552 0.686743 15.6572 0.906322 15.6867Z" fill="url(#paint3_linear_114_702)"/>
<defs>
<linearGradient id="paint0_linear_114_702" x1="12.5437" y1="4.218" x2="9.02435" y2="3.2108" gradientUnits="userSpaceOnUse">
<stop stop-color="#A056FF"/>
<stop offset="1" stop-color="#C59AFD"/>
</linearGradient>
<linearGradient id="paint1_linear_114_702" x1="15.5079" y1="1.76276" x2="9.19238" y2="-1.45498" gradientUnits="userSpaceOnUse">
<stop stop-color="#C59AFD"/>
<stop offset="1" stop-color="white"/>
</linearGradient>
<linearGradient id="paint2_linear_114_702" x1="3.17398" y1="11.4997" x2="6.69331" y2="12.5069" gradientUnits="userSpaceOnUse">
<stop stop-color="#A056FF"/>
<stop offset="1" stop-color="#C59AFD"/>
</linearGradient>
<linearGradient id="paint3_linear_114_702" x1="0.209741" y1="13.955" x2="6.52527" y2="17.1727" gradientUnits="userSpaceOnUse">
<stop stop-color="#C59AFD"/>
<stop offset="1" stop-color="white"/>
</linearGradient>
</defs>
</svg>
