<svg width="16" height="16" viewBox="0 0 16 16" fill="none" xmlns="http://www.w3.org/2000/svg">
<path d="M13.8443 13.8406C13.8443 14.2671 13.6749 14.6762 13.3734 14.9778C13.0718 15.2794 12.6627 15.4488 12.2362 15.4488C11.8097 15.4488 11.4006 15.2794 11.099 14.9778C10.7974 14.6762 10.628 14.2671 10.628 13.8406C10.628 13.4141 10.7974 13.0051 11.099 12.7035C11.4006 12.4019 11.8097 12.2325 12.2362 12.2325C12.6627 12.2325 13.0718 12.4019 13.3734 12.7035C13.6749 13.0051 13.8443 13.4141 13.8443 13.8406ZM9.55594 13.8406C9.55594 14.2671 9.38651 14.6762 9.08493 14.9778C8.78335 15.2794 8.3743 15.4488 7.9478 15.4488C7.5213 15.4488 7.11225 15.2794 6.81067 14.9778C6.50909 14.6762 6.33965 14.2671 6.33965 13.8406C6.33965 13.4141 6.50909 13.0051 6.81067 12.7035C7.11225 12.4019 7.5213 12.2325 7.9478 12.2325C8.3743 12.2325 8.78335 12.4019 9.08493 12.7035C9.38651 13.0051 9.55594 13.4141 9.55594 13.8406ZM5.26756 13.8406C5.26756 14.2671 5.09812 14.6762 4.79654 14.9778C4.49496 15.2794 4.08591 15.4488 3.65941 15.4488C3.23291 15.4488 2.82386 15.2794 2.52228 14.9778C2.2207 14.6762 2.05127 14.2671 2.05127 13.8406C2.05127 13.4141 2.2207 13.0051 2.52228 12.7035C2.82386 12.4019 3.23291 12.2325 3.65941 12.2325C4.08591 12.2325 4.49496 12.4019 4.79654 12.7035C5.09812 13.0051 5.26756 13.4141 5.26756 13.8406Z" fill="url(#paint0_linear_114_802)"/>
<path d="M7.76057 0.657275L3.01554 4.04656C2.39651 4.48876 2.39651 5.40883 3.01554 5.851L7.76057 9.24028C8.49443 9.76451 9.5138 9.23995 9.5138 8.33808V8.2751C9.5138 7.66273 10.0102 7.16633 10.6226 7.16633H12.8401C13.4525 7.16633 13.9489 6.66994 13.9489 6.05757V3.84003C13.9489 3.22768 13.4525 2.73127 12.8401 2.73127H10.6226C10.0102 2.73127 9.5138 2.23485 9.5138 1.6225V1.55951C9.5138 0.657675 8.49443 0.133084 7.76057 0.657275Z" fill="url(#paint1_linear_114_802)"/>
<defs>
<linearGradient id="paint0_linear_114_802" x1="13.002" y1="14.6447" x2="11.55" y2="10.0813" gradientUnits="userSpaceOnUse">
<stop stop-color="#A056FF"/>
<stop offset="1" stop-color="#C59AFD"/>
</linearGradient>
<linearGradient id="paint1_linear_114_802" x1="13.1347" y1="7.19879" x2="6.12709" y2="-0.407921" gradientUnits="userSpaceOnUse">
<stop stop-color="#A056FF"/>
<stop offset="1" stop-color="#C59AFD"/>
</linearGradient>
</defs>
</svg>
