<svg width="16" height="16" viewBox="0 0 16 16" fill="none" xmlns="http://www.w3.org/2000/svg">
<g clip-path="url(#clip0_270_22)">
<path opacity="0.5" fill-rule="evenodd" clip-rule="evenodd" d="M9.79585 11.2097C9.6108 11.0247 9.32042 11.0027 9.09645 11.1381C8.19214 11.6846 7.13218 11.9991 5.99953 11.9991C4.04468 11.9991 2.30782 11.0631 1.21191 9.61425C0.878931 9.17428 0.965924 8.54633 1.40589 8.21336C1.46389 8.16936 2.99977 7.99938 2.99977 5.99953C2.99977 3.99969 1.46389 3.8297 1.40589 3.7857C0.965924 3.45273 0.878931 2.82478 1.21191 2.38481C2.30782 0.935927 4.04468 0 5.99953 0C9.31027 0 11.9991 2.68879 11.9991 5.99953C11.9991 7.13218 11.6846 8.19214 11.1381 9.09645C11.0027 9.32042 11.0247 9.6108 11.2097 9.79585C11.4176 10.0037 11.7521 9.99748 12.0082 9.85321C12.308 9.68435 12.6489 9.59325 12.999 9.59325C13.5349 9.59325 14.0489 9.80623 14.4279 10.1852L15.1198 10.8782C16.2915 12.0488 16.2917 13.9481 15.1206 15.119L15.1193 15.1208L15.118 15.1226C13.9471 16.2927 12.0498 16.2925 10.8792 15.1218L10.1852 14.4279C9.80623 14.0489 9.59325 13.5349 9.59325 12.999C9.59325 12.6489 9.68435 12.308 9.85321 12.0082C9.99748 11.7521 10.0037 11.4176 9.79585 11.2097ZM0.999922 4.99961C1.55188 4.99961 1.99984 5.44757 1.99984 5.99953C1.99984 6.55149 1.55188 6.99945 0.999922 6.99945C0.447965 6.99945 0 6.55149 0 5.99953C0 5.44757 0.447965 4.99961 0.999922 4.99961Z" fill="url(#paint0_linear_270_22)"/>
<path fill-rule="evenodd" clip-rule="evenodd" d="M5.75002 5.05001H3.85003C3.32562 5.05001 2.90002 5.47561 2.90002 6.00002C2.90002 6.52441 3.32562 6.95001 3.85003 6.95001H5.75002V8.85001C5.75002 9.37441 6.17562 9.80001 6.70003 9.80001C7.22443 9.80001 7.65003 9.37441 7.65003 8.85001V6.95001H9.55002C10.0744 6.95001 10.5 6.52441 10.5 6.00002C10.5 5.47561 10.0744 5.05001 9.55002 5.05001H7.65003V3.15002C7.65003 2.62561 7.22443 2.20001 6.70003 2.20001C6.17562 2.20001 5.75002 2.62561 5.75002 3.15002V5.05001Z" fill="url(#paint1_linear_270_22)"/>
</g>
<defs>
<linearGradient id="paint0_linear_270_22" x1="1.99984" y1="14.0004" x2="16.9708" y2="10.546" gradientUnits="userSpaceOnUse">
<stop stop-color="#62E8AF"/>
<stop offset="1" stop-color="#B3FBDC"/>
</linearGradient>
<linearGradient id="paint1_linear_270_22" x1="3.85002" y1="8.85022" x2="10.9617" y2="7.20911" gradientUnits="userSpaceOnUse">
<stop stop-color="#62E8AF"/>
<stop offset="1" stop-color="#B3FBDC"/>
</linearGradient>
<clipPath id="clip0_270_22">
<rect width="16" height="16" fill="white"/>
</clipPath>
</defs>
</svg>
